<?xml version="1.0" encoding="UTF-8" standalone="no"?>
<!DOCTYPE svg PUBLIC "-//W3C//DTD SVG 1.1//EN"
 "http://www.w3.org/Graphics/SVG/1.1/DTD/svg11.dtd">
<!-- Generated by graphviz version 2.40.1 (20161225.0304)
 -->
<!-- Title: /home/travis/build/AliceO2Group/AliceO2/Detectors/TPC/base/src/PadROCPos.cxx Pages: 1 -->
<svg width="1446pt" height="475pt"
 viewBox="0.00 0.00 1445.50 475.00" xmlns="http://www.w3.org/2000/svg" xmlns:xlink="http://www.w3.org/1999/xlink">
<g id="graph0" class="graph" transform="scale(1 1) rotate(0) translate(4 471)">
<title>/home/travis/build/AliceO2Group/AliceO2/Detectors/TPC/base/src/PadROCPos.cxx</title>
<!-- Node0 -->
<g id="node1" class="node">
<title>Node0</title>
<polygon fill="#bfbfbf" stroke="#000000" points="440,-414.5 440,-466.5 572,-466.5 572,-414.5 440,-414.5"/>
<text text-anchor="start" x="448" y="-454.5" font-family="Helvetica,sans-Serif" font-size="10.00" fill="#000000">/home/travis/build</text>
<text text-anchor="start" x="448" y="-443.5" font-family="Helvetica,sans-Serif" font-size="10.00" fill="#000000">/AliceO2Group/AliceO2</text>
<text text-anchor="start" x="448" y="-432.5" font-family="Helvetica,sans-Serif" font-size="10.00" fill="#000000">/Detectors/TPC/base/src</text>
<text text-anchor="middle" x="506" y="-421.5" font-family="Helvetica,sans-Serif" font-size="10.00" fill="#000000">/PadROCPos.cxx</text>
</g>
<!-- Node1 -->
<g id="node2" class="node">
<title>Node1</title>
<g id="a_node2"><a xlink:href="../../da/d61/PadROCPos_8h.html" target="_top" xlink:title="TPCBase/PadROCPos.h">
<polygon fill="none" stroke="#000000" points="442.5,-358.5 442.5,-377.5 569.5,-377.5 569.5,-358.5 442.5,-358.5"/>
<text text-anchor="middle" x="506" y="-365.5" font-family="Helvetica,sans-Serif" font-size="10.00" fill="#000000">TPCBase/PadROCPos.h</text>
</a>
</g>
</g>
<!-- Node0&#45;&gt;Node1 -->
<g id="edge1" class="edge">
<title>Node0&#45;&gt;Node1</title>
<path fill="none" stroke="#191970" d="M506,-414.3258C506,-405.5142 506,-395.8397 506,-387.621"/>
<polygon fill="#191970" stroke="#191970" points="509.5001,-387.534 506,-377.534 502.5001,-387.534 509.5001,-387.534"/>
</g>
<!-- Node2 -->
<g id="node3" class="node">
<title>Node2</title>
<g id="a_node3"><a xlink:href="../../d1/d73/Defs_8h.html" target="_top" xlink:title="Common definitions for 2D coordinates. ">
<polygon fill="none" stroke="#000000" points="384.5,-190.5 384.5,-209.5 517.5,-209.5 517.5,-190.5 384.5,-190.5"/>
<text text-anchor="middle" x="451" y="-197.5" font-family="Helvetica,sans-Serif" font-size="10.00" fill="#000000">DataFormatsTPC/Defs.h</text>
</a>
</g>
</g>
<!-- Node1&#45;&gt;Node2 -->
<g id="edge2" class="edge">
<title>Node1&#45;&gt;Node2</title>
<path fill="none" stroke="#191970" d="M487.7167,-358.4509C474.8142,-350.5902 458.5359,-338.1269 451,-322 435.4564,-288.7365 440.9632,-244.5819 446.1393,-219.5377"/>
<polygon fill="#191970" stroke="#191970" points="449.5557,-220.2977 448.3461,-209.7721 442.7279,-218.7546 449.5557,-220.2977"/>
</g>
<!-- Node17 -->
<g id="node18" class="node">
<title>Node17</title>
<g id="a_node18"><a xlink:href="../../dc/d14/ROC_8h.html" target="_top" xlink:title="TPCBase/ROC.h">
<polygon fill="none" stroke="#000000" points="460,-302.5 460,-321.5 552,-321.5 552,-302.5 460,-302.5"/>
<text text-anchor="middle" x="506" y="-309.5" font-family="Helvetica,sans-Serif" font-size="10.00" fill="#000000">TPCBase/ROC.h</text>
</a>
</g>
</g>
<!-- Node1&#45;&gt;Node17 -->
<g id="edge18" class="edge">
<title>Node1&#45;&gt;Node17</title>
<path fill="none" stroke="#191970" d="M506,-358.2455C506,-350.9382 506,-340.6944 506,-331.7046"/>
<polygon fill="#191970" stroke="#191970" points="509.5001,-331.6426 506,-321.6427 502.5001,-331.6427 509.5001,-331.6426"/>
</g>
<!-- Node20 -->
<g id="node21" class="node">
<title>Node20</title>
<g id="a_node21"><a xlink:href="../../de/d41/PadPos_8h.html" target="_top" xlink:title="TPCBase/PadPos.h">
<polygon fill="none" stroke="#000000" points="570,-302.5 570,-321.5 676,-321.5 676,-302.5 570,-302.5"/>
<text text-anchor="middle" x="623" y="-309.5" font-family="Helvetica,sans-Serif" font-size="10.00" fill="#000000">TPCBase/PadPos.h</text>
</a>
</g>
</g>
<!-- Node1&#45;&gt;Node20 -->
<g id="edge23" class="edge">
<title>Node1&#45;&gt;Node20</title>
<path fill="none" stroke="#191970" d="M526.113,-358.3733C544.8103,-349.4241 572.8744,-335.9917 593.9934,-325.8835"/>
<polygon fill="#191970" stroke="#191970" points="595.6405,-328.9755 603.1494,-321.5011 592.6183,-322.6614 595.6405,-328.9755"/>
</g>
<!-- Node3 -->
<g id="node4" class="node">
<title>Node3</title>
<polygon fill="none" stroke="#bfbfbf" points="266.5,-134.5 266.5,-153.5 313.5,-153.5 313.5,-134.5 266.5,-134.5"/>
<text text-anchor="middle" x="290" y="-141.5" font-family="Helvetica,sans-Serif" font-size="10.00" fill="#000000">cmath</text>
</g>
<!-- Node2&#45;&gt;Node3 -->
<g id="edge3" class="edge">
<title>Node2&#45;&gt;Node3</title>
<path fill="none" stroke="#191970" d="M423.3231,-190.3733C395.5363,-180.7083 352.7157,-165.8142 323.1362,-155.5256"/>
<polygon fill="#191970" stroke="#191970" points="324.2482,-152.2068 313.6534,-152.2273 321.9485,-158.8183 324.2482,-152.2068"/>
</g>
<!-- Node4 -->
<g id="node5" class="node">
<title>Node4</title>
<g id="a_node5"><a xlink:href="../../d1/da8/GPUROOTCartesianFwd_8h.html" target="_top" xlink:title="GPUROOTCartesianFwd.h">
<polygon fill="none" stroke="#000000" points="332,-134.5 332,-153.5 472,-153.5 472,-134.5 332,-134.5"/>
<text text-anchor="middle" x="402" y="-141.5" font-family="Helvetica,sans-Serif" font-size="10.00" fill="#000000">GPUROOTCartesianFwd.h</text>
</a>
</g>
</g>
<!-- Node2&#45;&gt;Node4 -->
<g id="edge4" class="edge">
<title>Node2&#45;&gt;Node4</title>
<path fill="none" stroke="#191970" d="M442.4649,-190.2455C435.5088,-182.2958 425.5117,-170.8706 417.1949,-161.3656"/>
<polygon fill="#191970" stroke="#191970" points="419.6564,-158.8637 410.4373,-153.6427 414.3884,-163.4732 419.6564,-158.8637"/>
</g>
<!-- Node5 -->
<g id="node6" class="node">
<title>Node5</title>
<g id="a_node6"><a xlink:href="../../d2/dd0/Cartesian2D_8h.html" target="_top" xlink:title="MathUtils/Cartesian2D.h">
<polygon fill="none" stroke="#000000" points="111.5,-73 111.5,-92 246.5,-92 246.5,-73 111.5,-73"/>
<text text-anchor="middle" x="179" y="-80" font-family="Helvetica,sans-Serif" font-size="10.00" fill="#000000">MathUtils/Cartesian2D.h</text>
</a>
</g>
</g>
<!-- Node2&#45;&gt;Node5 -->
<g id="edge5" class="edge">
<title>Node2&#45;&gt;Node5</title>
<path fill="none" stroke="#191970" d="M461.7065,-190.1003C475.3546,-176.2967 495.5368,-151.0476 481,-134 448.1449,-95.4702 305.8301,-106.9981 256,-98 249.238,-96.779 242.1546,-95.438 235.1384,-94.0718"/>
<polygon fill="#191970" stroke="#191970" points="235.4405,-90.564 224.9522,-92.0629 234.086,-97.4317 235.4405,-90.564"/>
</g>
<!-- Node8 -->
<g id="node9" class="node">
<title>Node8</title>
<g id="a_node9"><a xlink:href="../../dd/d76/Cartesian3D_8h.html" target="_top" xlink:title="MathUtils/Cartesian3D.h">
<polygon fill="none" stroke="#000000" points="758.5,-134.5 758.5,-153.5 893.5,-153.5 893.5,-134.5 758.5,-134.5"/>
<text text-anchor="middle" x="826" y="-141.5" font-family="Helvetica,sans-Serif" font-size="10.00" fill="#000000">MathUtils/Cartesian3D.h</text>
</a>
</g>
</g>
<!-- Node2&#45;&gt;Node8 -->
<g id="edge8" class="edge">
<title>Node2&#45;&gt;Node8</title>
<path fill="none" stroke="#191970" d="M515.0387,-190.4369C580.835,-180.6113 683.1444,-165.3331 752.2749,-155.0096"/>
<polygon fill="#191970" stroke="#191970" points="752.8521,-158.4623 762.2254,-153.5237 751.8181,-151.5391 752.8521,-158.4623"/>
</g>
<!-- Node6 -->
<g id="node7" class="node">
<title>Node6</title>
<polygon fill="none" stroke="#bfbfbf" points="0,-.5 0,-30.5 164,-30.5 164,-.5 0,-.5"/>
<text text-anchor="start" x="8" y="-18.5" font-family="Helvetica,sans-Serif" font-size="10.00" fill="#000000">Math/GenVector/Displacement</text>
<text text-anchor="middle" x="82" y="-7.5" font-family="Helvetica,sans-Serif" font-size="10.00" fill="#000000">Vector2D.h</text>
</g>
<!-- Node5&#45;&gt;Node6 -->
<g id="edge6" class="edge">
<title>Node5&#45;&gt;Node6</title>
<path fill="none" stroke="#191970" d="M165.1023,-72.9005C151.3265,-63.3853 129.7795,-48.5023 112.0779,-36.2755"/>
<polygon fill="#191970" stroke="#191970" points="113.9651,-33.3253 103.7479,-30.5218 109.9868,-39.0849 113.9651,-33.3253"/>
</g>
<!-- Node7 -->
<g id="node8" class="node">
<title>Node7</title>
<polygon fill="none" stroke="#bfbfbf" points="182.5,-6 182.5,-25 371.5,-25 371.5,-6 182.5,-6"/>
<text text-anchor="middle" x="277" y="-13" font-family="Helvetica,sans-Serif" font-size="10.00" fill="#000000">Math/GenVector/PositionVector2D.h</text>
</g>
<!-- Node5&#45;&gt;Node7 -->
<g id="edge7" class="edge">
<title>Node5&#45;&gt;Node7</title>
<path fill="none" stroke="#191970" d="M193.041,-72.9005C209.1238,-61.9052 235.6906,-43.7422 254.6316,-30.7927"/>
<polygon fill="#191970" stroke="#191970" points="256.7052,-33.6148 262.985,-25.0817 252.7545,-27.8362 256.7052,-33.6148"/>
</g>
<!-- Node8&#45;&gt;Node5 -->
<g id="edge17" class="edge">
<title>Node8&#45;&gt;Node5</title>
<path fill="none" stroke="#191970" d="M758.1532,-141.1203C651.0484,-135.9914 436.407,-123.3471 256,-98 248.0318,-96.8805 239.646,-95.4535 231.4583,-93.9204"/>
<polygon fill="#191970" stroke="#191970" points="232.0943,-90.4786 221.6109,-92.0111 230.7619,-97.3506 232.0943,-90.4786"/>
</g>
<!-- Node9 -->
<g id="node10" class="node">
<title>Node9</title>
<polygon fill="none" stroke="#bfbfbf" points="265,-67.5 265,-97.5 429,-97.5 429,-67.5 265,-67.5"/>
<text text-anchor="start" x="273" y="-85.5" font-family="Helvetica,sans-Serif" font-size="10.00" fill="#000000">Math/GenVector/Displacement</text>
<text text-anchor="middle" x="347" y="-74.5" font-family="Helvetica,sans-Serif" font-size="10.00" fill="#000000">Vector3D.h</text>
</g>
<!-- Node8&#45;&gt;Node9 -->
<g id="edge9" class="edge">
<title>Node8&#45;&gt;Node9</title>
<path fill="none" stroke="#191970" d="M758.4062,-136.9723C683.1804,-128.9239 557.7694,-114.8323 439.2093,-97.9845"/>
<polygon fill="#191970" stroke="#191970" points="439.6226,-94.5081 429.2278,-96.5571 438.6316,-101.4376 439.6226,-94.5081"/>
</g>
<!-- Node10 -->
<g id="node11" class="node">
<title>Node10</title>
<polygon fill="none" stroke="#bfbfbf" points="447.5,-73 447.5,-92 636.5,-92 636.5,-73 447.5,-73"/>
<text text-anchor="middle" x="542" y="-80" font-family="Helvetica,sans-Serif" font-size="10.00" fill="#000000">Math/GenVector/PositionVector3D.h</text>
</g>
<!-- Node8&#45;&gt;Node10 -->
<g id="edge10" class="edge">
<title>Node8&#45;&gt;Node10</title>
<path fill="none" stroke="#191970" d="M781.9366,-134.4581C731.8787,-123.6181 650.1618,-105.9224 596.2318,-94.2439"/>
<polygon fill="#191970" stroke="#191970" points="596.681,-90.7601 586.1668,-92.0643 595.1995,-97.6015 596.681,-90.7601"/>
</g>
<!-- Node11 -->
<g id="node12" class="node">
<title>Node11</title>
<polygon fill="none" stroke="#bfbfbf" points="655,-73 655,-92 815,-92 815,-73 655,-73"/>
<text text-anchor="middle" x="735" y="-80" font-family="Helvetica,sans-Serif" font-size="10.00" fill="#000000">Math/GenVector/Rotation3D.h</text>
</g>
<!-- Node8&#45;&gt;Node11 -->
<g id="edge11" class="edge">
<title>Node8&#45;&gt;Node11</title>
<path fill="none" stroke="#191970" d="M811.7813,-134.3906C797.3566,-124.6421 774.8024,-109.3994 757.864,-97.9521"/>
<polygon fill="#191970" stroke="#191970" points="759.3641,-94.7415 749.1189,-92.0419 755.4444,-100.5412 759.3641,-94.7415"/>
</g>
<!-- Node12 -->
<g id="node13" class="node">
<title>Node12</title>
<polygon fill="none" stroke="#bfbfbf" points="833,-73 833,-92 1001,-92 1001,-73 833,-73"/>
<text text-anchor="middle" x="917" y="-80" font-family="Helvetica,sans-Serif" font-size="10.00" fill="#000000">Math/GenVector/Transform3D.h</text>
</g>
<!-- Node8&#45;&gt;Node12 -->
<g id="edge12" class="edge">
<title>Node8&#45;&gt;Node12</title>
<path fill="none" stroke="#191970" d="M840.2188,-134.3906C854.6434,-124.6421 877.1976,-109.3994 894.136,-97.9521"/>
<polygon fill="#191970" stroke="#191970" points="896.5556,-100.5412 902.8811,-92.0419 892.6359,-94.7415 896.5556,-100.5412"/>
</g>
<!-- Node13 -->
<g id="node14" class="node">
<title>Node13</title>
<polygon fill="none" stroke="#bfbfbf" points="1019.5,-73 1019.5,-92 1192.5,-92 1192.5,-73 1019.5,-73"/>
<text text-anchor="middle" x="1106" y="-80" font-family="Helvetica,sans-Serif" font-size="10.00" fill="#000000">Math/GenVector/Translation3D.h</text>
</g>
<!-- Node8&#45;&gt;Node13 -->
<g id="edge13" class="edge">
<title>Node8&#45;&gt;Node13</title>
<path fill="none" stroke="#191970" d="M869.4428,-134.4581C918.7956,-123.6181 999.3616,-105.9224 1052.532,-94.2439"/>
<polygon fill="#191970" stroke="#191970" points="1053.439,-97.6282 1062.4553,-92.0643 1051.9372,-90.7911 1053.439,-97.6282"/>
</g>
<!-- Node14 -->
<g id="node15" class="node">
<title>Node14</title>
<polygon fill="none" stroke="#bfbfbf" points="1210.5,-73 1210.5,-92 1269.5,-92 1269.5,-73 1210.5,-73"/>
<text text-anchor="middle" x="1240" y="-80" font-family="Helvetica,sans-Serif" font-size="10.00" fill="#000000">Rtypes.h</text>
</g>
<!-- Node8&#45;&gt;Node14 -->
<g id="edge14" class="edge">
<title>Node8&#45;&gt;Node14</title>
<path fill="none" stroke="#191970" d="M893.5661,-141.1328C969.6161,-136.6678 1096.3478,-125.4861 1202,-98 1204.6246,-97.3172 1207.3087,-96.4948 1209.9767,-95.5894"/>
<polygon fill="#191970" stroke="#191970" points="1211.2957,-98.8329 1219.433,-92.048 1208.8406,-92.2775 1211.2957,-98.8329"/>
</g>
<!-- Node15 -->
<g id="node16" class="node">
<title>Node15</title>
<polygon fill="none" stroke="#bfbfbf" points="1288,-73 1288,-92 1370,-92 1370,-73 1288,-73"/>
<text text-anchor="middle" x="1329" y="-80" font-family="Helvetica,sans-Serif" font-size="10.00" fill="#000000">TGeoMatrix.h</text>
</g>
<!-- Node8&#45;&gt;Node15 -->
<g id="edge15" class="edge">
<title>Node8&#45;&gt;Node15</title>
<path fill="none" stroke="#191970" d="M893.789,-141.3325C982.919,-136.8674 1144.0254,-125.4875 1279,-98 1283.2078,-97.1431 1287.5656,-96.0745 1291.8747,-94.9015"/>
<polygon fill="#191970" stroke="#191970" points="1293.1254,-98.1827 1301.7475,-92.0256 1291.1677,-91.462 1293.1254,-98.1827"/>
</g>
<!-- Node16 -->
<g id="node17" class="node">
<title>Node16</title>
<polygon fill="none" stroke="#bfbfbf" points="1388.5,-73 1388.5,-92 1437.5,-92 1437.5,-73 1388.5,-73"/>
<text text-anchor="middle" x="1413" y="-80" font-family="Helvetica,sans-Serif" font-size="10.00" fill="#000000">iosfwd</text>
</g>
<!-- Node8&#45;&gt;Node16 -->
<g id="edge16" class="edge">
<title>Node8&#45;&gt;Node16</title>
<path fill="none" stroke="#191970" d="M893.6458,-141.2801C1020.4156,-135.7033 1289.0481,-121.4831 1379,-98 1381.193,-97.4275 1383.4206,-96.7226 1385.6327,-95.932"/>
<polygon fill="#191970" stroke="#191970" points="1387.1482,-99.0935 1395.0744,-92.0632 1384.494,-92.6162 1387.1482,-99.0935"/>
</g>
<!-- Node17&#45;&gt;Node2 -->
<g id="edge19" class="edge">
<title>Node17&#45;&gt;Node2</title>
<path fill="none" stroke="#191970" d="M501.3107,-302.4509C492.2186,-283.936 472.0469,-242.8591 460.1922,-218.7187"/>
<polygon fill="#191970" stroke="#191970" points="463.227,-216.9582 455.6774,-209.5249 456.9437,-220.0438 463.227,-216.9582"/>
</g>
<!-- Node18 -->
<g id="node19" class="node">
<title>Node18</title>
<g id="a_node19"><a xlink:href="../../d3/dd6/Sector_8h.html" target="_top" xlink:title="TPCBase/Sector.h">
<polygon fill="none" stroke="#000000" points="498.5,-246.5 498.5,-265.5 599.5,-265.5 599.5,-246.5 498.5,-246.5"/>
<text text-anchor="middle" x="549" y="-253.5" font-family="Helvetica,sans-Serif" font-size="10.00" fill="#000000">TPCBase/Sector.h</text>
</a>
</g>
</g>
<!-- Node17&#45;&gt;Node18 -->
<g id="edge20" class="edge">
<title>Node17&#45;&gt;Node18</title>
<path fill="none" stroke="#191970" d="M513.49,-302.2455C519.5326,-294.3761 528.1903,-283.101 535.4441,-273.6542"/>
<polygon fill="#191970" stroke="#191970" points="538.2815,-275.7058 541.5958,-265.6427 532.7295,-271.4426 538.2815,-275.7058"/>
</g>
<!-- Node18&#45;&gt;Node2 -->
<g id="edge22" class="edge">
<title>Node18&#45;&gt;Node2</title>
<path fill="none" stroke="#191970" d="M531.9297,-246.2455C516.753,-237.5731 494.3379,-224.7645 476.9437,-214.825"/>
<polygon fill="#191970" stroke="#191970" points="478.2936,-211.5653 467.8747,-209.6427 474.8206,-217.643 478.2936,-211.5653"/>
</g>
<!-- Node19 -->
<g id="node20" class="node">
<title>Node19</title>
<g id="a_node20"><a xlink:href="../../d0/dda/DataFormats_2Detectors_2TPC_2include_2DataFormatsTPC_2Constants_8h.html" target="_top" xlink:title="DataFormatsTPC/Constants.h">
<polygon fill="none" stroke="#000000" points="535.5,-190.5 535.5,-209.5 694.5,-209.5 694.5,-190.5 535.5,-190.5"/>
<text text-anchor="middle" x="615" y="-197.5" font-family="Helvetica,sans-Serif" font-size="10.00" fill="#000000">DataFormatsTPC/Constants.h</text>
</a>
</g>
</g>
<!-- Node18&#45;&gt;Node19 -->
<g id="edge21" class="edge">
<title>Node18&#45;&gt;Node19</title>
<path fill="none" stroke="#191970" d="M560.4963,-246.2455C570.2442,-237.9746 584.4259,-225.9416 595.8798,-216.2232"/>
<polygon fill="#191970" stroke="#191970" points="598.2747,-218.7813 603.6354,-209.6427 593.7459,-213.4437 598.2747,-218.7813"/>
</g>
</g>
</svg>
