<?xml version="1.0" encoding="UTF-8" standalone="no"?>
<!DOCTYPE svg PUBLIC "-//W3C//DTD SVG 1.1//EN"
 "http://www.w3.org/Graphics/SVG/1.1/DTD/svg11.dtd">
<!-- Generated by graphviz version 2.40.1 (20161225.0304)
 -->
<!-- Title: /home/travis/build/AliceO2Group/AliceO2/Framework/Core/src/InputSpec.cxx Pages: 1 -->
<svg width="2881pt" height="419pt"
 viewBox="0.00 0.00 2881.00 419.00" xmlns="http://www.w3.org/2000/svg" xmlns:xlink="http://www.w3.org/1999/xlink">
<g id="graph0" class="graph" transform="scale(1 1) rotate(0) translate(4 415)">
<title>/home/travis/build/AliceO2Group/AliceO2/Framework/Core/src/InputSpec.cxx</title>
<!-- Node0 -->
<g id="node1" class="node">
<title>Node0</title>
<polygon fill="#bfbfbf" stroke="#000000" points="1197.5,-369.5 1197.5,-410.5 1385.5,-410.5 1385.5,-369.5 1197.5,-369.5"/>
<text text-anchor="start" x="1205.5" y="-398.5" font-family="Helvetica,sans-Serif" font-size="10.00" fill="#000000">/home/travis/build</text>
<text text-anchor="start" x="1205.5" y="-387.5" font-family="Helvetica,sans-Serif" font-size="10.00" fill="#000000">/AliceO2Group/AliceO2</text>
<text text-anchor="middle" x="1291.5" y="-376.5" font-family="Helvetica,sans-Serif" font-size="10.00" fill="#000000">/Framework/Core/src/InputSpec.cxx</text>
</g>
<!-- Node1 -->
<g id="node2" class="node">
<title>Node1</title>
<g id="a_node2"><a xlink:href="../../d5/d3f/InputSpec_8h.html" target="_top" xlink:title="Framework/InputSpec.h">
<polygon fill="none" stroke="#000000" points="1036,-257.5 1036,-276.5 1167,-276.5 1167,-257.5 1036,-257.5"/>
<text text-anchor="middle" x="1101.5" y="-264.5" font-family="Helvetica,sans-Serif" font-size="10.00" fill="#000000">Framework/InputSpec.h</text>
</a>
</g>
</g>
<!-- Node0&#45;&gt;Node1 -->
<g id="edge1" class="edge">
<title>Node0&#45;&gt;Node1</title>
<path fill="none" stroke="#191970" d="M1259.6983,-369.4126C1221.6525,-344.783 1158.8576,-304.1315 1124.9545,-282.1837"/>
<polygon fill="#191970" stroke="#191970" points="1126.4994,-279.0145 1116.2029,-276.5182 1122.6953,-284.8906 1126.4994,-279.0145"/>
</g>
<!-- Node28 -->
<g id="node29" class="node">
<title>Node28</title>
<polygon fill="none" stroke="#bfbfbf" points="1387,-6 1387,-25 1434,-25 1434,-6 1387,-6"/>
<text text-anchor="middle" x="1410.5" y="-13" font-family="Helvetica,sans-Serif" font-size="10.00" fill="#000000">vector</text>
</g>
<!-- Node0&#45;&gt;Node28 -->
<g id="edge80" class="edge">
<title>Node0&#45;&gt;Node28</title>
<path fill="none" stroke="#191970" d="M1385.8522,-377.783C1496.061,-360.8111 1663.5,-325.414 1663.5,-267 1663.5,-267 1663.5,-267 1663.5,-138.5 1663.5,-135.4233 1506.6224,-60.9235 1439.9321,-29.3919"/>
<polygon fill="#191970" stroke="#191970" points="1441.3131,-26.1734 1430.7764,-25.0651 1438.3222,-32.5023 1441.3131,-26.1734"/>
</g>
<!-- Node36 -->
<g id="node37" class="node">
<title>Node36</title>
<polygon fill="none" stroke="#bfbfbf" points="1214,-129 1214,-148 1265,-148 1265,-129 1214,-129"/>
<text text-anchor="middle" x="1239.5" y="-136" font-family="Helvetica,sans-Serif" font-size="10.00" fill="#000000">variant</text>
</g>
<!-- Node0&#45;&gt;Node36 -->
<g id="edge79" class="edge">
<title>Node0&#45;&gt;Node36</title>
<path fill="none" stroke="#191970" d="M1276.6708,-369.365C1269.964,-358.9592 1262.6301,-345.8452 1258.5,-333 1238.7272,-271.5033 1237.8561,-193.8961 1238.7082,-158.1579"/>
<polygon fill="#191970" stroke="#191970" points="1242.2084,-158.2041 1239.0236,-148.0992 1235.2118,-157.9846 1242.2084,-158.2041"/>
</g>
<!-- Node44 -->
<g id="node45" class="node">
<title>Node44</title>
<g id="a_node45"><a xlink:href="../../d6/d68/DataSpecUtils_8h.html" target="_top" xlink:title="Framework/DataSpecUtils.h">
<polygon fill="none" stroke="#000000" points="1267.5,-313.5 1267.5,-332.5 1419.5,-332.5 1419.5,-313.5 1267.5,-313.5"/>
<text text-anchor="middle" x="1343.5" y="-320.5" font-family="Helvetica,sans-Serif" font-size="10.00" fill="#000000">Framework/DataSpecUtils.h</text>
</a>
</g>
</g>
<!-- Node0&#45;&gt;Node44 -->
<g id="edge66" class="edge">
<title>Node0&#45;&gt;Node44</title>
<path fill="none" stroke="#191970" d="M1307.6681,-369.168C1314.734,-360.0639 1322.936,-349.4959 1329.7084,-340.7699"/>
<polygon fill="#191970" stroke="#191970" points="1332.5429,-342.8263 1335.9092,-332.7805 1327.0129,-338.5344 1332.5429,-342.8263"/>
</g>
<!-- Node2 -->
<g id="node3" class="node">
<title>Node2</title>
<g id="a_node3"><a xlink:href="../../dc/dca/Lifetime_8h.html" target="_top" xlink:title="Framework/Lifetime.h">
<polygon fill="none" stroke="#000000" points="1474,-129 1474,-148 1597,-148 1597,-129 1474,-129"/>
<text text-anchor="middle" x="1535.5" y="-136" font-family="Helvetica,sans-Serif" font-size="10.00" fill="#000000">Framework/Lifetime.h</text>
</a>
</g>
</g>
<!-- Node1&#45;&gt;Node2 -->
<g id="edge2" class="edge">
<title>Node1&#45;&gt;Node2</title>
<path fill="none" stroke="#191970" d="M1167.0516,-264.3037C1257.3396,-259.6469 1414.4887,-247.8758 1464.5,-221 1491.8401,-206.3076 1513.3246,-176.5072 1525.2129,-157.0336"/>
<polygon fill="#191970" stroke="#191970" points="1528.3695,-158.5691 1530.3986,-148.1704 1522.3276,-155.0341 1528.3695,-158.5691"/>
</g>
<!-- Node3 -->
<g id="node4" class="node">
<title>Node3</title>
<g id="a_node4"><a xlink:href="../../d0/d1b/ConcreteDataMatcher_8h.html" target="_top" xlink:title="Framework/ConcreteDataMatcher.h">
<polygon fill="none" stroke="#000000" points="1007.5,-129 1007.5,-148 1195.5,-148 1195.5,-129 1007.5,-129"/>
<text text-anchor="middle" x="1101.5" y="-136" font-family="Helvetica,sans-Serif" font-size="10.00" fill="#000000">Framework/ConcreteDataMatcher.h</text>
</a>
</g>
</g>
<!-- Node1&#45;&gt;Node3 -->
<g id="edge3" class="edge">
<title>Node1&#45;&gt;Node3</title>
<path fill="none" stroke="#191970" d="M1101.5,-257.3416C1101.5,-236.4114 1101.5,-186.504 1101.5,-158.4762"/>
<polygon fill="#191970" stroke="#191970" points="1105.0001,-158.2704 1101.5,-148.2705 1098.0001,-158.2705 1105.0001,-158.2704"/>
</g>
<!-- Node11 -->
<g id="node12" class="node">
<title>Node11</title>
<polygon fill="none" stroke="#bfbfbf" points="646.5,-6 646.5,-25 690.5,-25 690.5,-6 646.5,-6"/>
<text text-anchor="middle" x="668.5" y="-13" font-family="Helvetica,sans-Serif" font-size="10.00" fill="#000000">string</text>
</g>
<!-- Node1&#45;&gt;Node11 -->
<g id="edge63" class="edge">
<title>Node1&#45;&gt;Node11</title>
<path fill="none" stroke="#191970" d="M1035.8229,-265.3919C892.4623,-260.3023 559.1362,-239.3445 494.5,-154 486.1817,-143.0167 487.7898,-135.0333 494.5,-123 502.7514,-108.203 595.4074,-55.7212 642.0323,-29.9677"/>
<polygon fill="#191970" stroke="#191970" points="643.8986,-32.9357 650.9707,-25.0466 640.5225,-26.8036 643.8986,-32.9357"/>
</g>
<!-- Node15 -->
<g id="node16" class="node">
<title>Node15</title>
<g id="a_node16"><a xlink:href="../../d3/da3/DataDescriptorMatcher_8h.html" target="_top" xlink:title="Framework/DataDescriptor\lMatcher.h">
<polygon fill="none" stroke="#000000" points="817,-190.5 817,-220.5 964,-220.5 964,-190.5 817,-190.5"/>
<text text-anchor="start" x="825" y="-208.5" font-family="Helvetica,sans-Serif" font-size="10.00" fill="#000000">Framework/DataDescriptor</text>
<text text-anchor="middle" x="890.5" y="-197.5" font-family="Helvetica,sans-Serif" font-size="10.00" fill="#000000">Matcher.h</text>
</a>
</g>
</g>
<!-- Node1&#45;&gt;Node15 -->
<g id="edge15" class="edge">
<title>Node1&#45;&gt;Node15</title>
<path fill="none" stroke="#191970" d="M1068.5313,-257.3906C1037.4631,-248.3352 990.1298,-234.539 952.0772,-223.4479"/>
<polygon fill="#191970" stroke="#191970" points="952.6963,-219.9827 942.1164,-220.5446 950.7375,-226.7031 952.6963,-219.9827"/>
</g>
<!-- Node1&#45;&gt;Node36 -->
<g id="edge65" class="edge">
<title>Node1&#45;&gt;Node36</title>
<path fill="none" stroke="#191970" d="M1111.8724,-257.3416C1135.2491,-235.5742 1192.2847,-182.465 1221.5426,-155.2212"/>
<polygon fill="#191970" stroke="#191970" points="1224.0738,-157.6466 1229.0072,-148.2705 1219.3035,-152.5237 1224.0738,-157.6466"/>
</g>
<!-- Node38 -->
<g id="node39" class="node">
<title>Node38</title>
<g id="a_node39"><a xlink:href="../../d0/d1c/ConfigParamSpec_8h.html" target="_top" xlink:title="Framework/ConfigParamSpec.h">
<polygon fill="none" stroke="#000000" points="205,-129 205,-148 372,-148 372,-129 205,-129"/>
<text text-anchor="middle" x="288.5" y="-136" font-family="Helvetica,sans-Serif" font-size="10.00" fill="#000000">Framework/ConfigParamSpec.h</text>
</a>
</g>
</g>
<!-- Node1&#45;&gt;Node38 -->
<g id="edge51" class="edge">
<title>Node1&#45;&gt;Node38</title>
<path fill="none" stroke="#191970" d="M1035.8841,-266.5126C888.6964,-264.7803 536.2732,-256.894 423.5,-221 378.3126,-206.6175 332.6745,-174.1125 307.7452,-154.4695"/>
<polygon fill="#191970" stroke="#191970" points="309.814,-151.642 299.8257,-148.1088 305.4306,-157.0997 309.814,-151.642"/>
</g>
<!-- Node43 -->
<g id="node44" class="node">
<title>Node43</title>
<polygon fill="none" stroke="#bfbfbf" points="742,-196 742,-215 799,-215 799,-196 742,-196"/>
<text text-anchor="middle" x="770.5" y="-203" font-family="Helvetica,sans-Serif" font-size="10.00" fill="#000000">ostream</text>
</g>
<!-- Node1&#45;&gt;Node43 -->
<g id="edge64" class="edge">
<title>Node1&#45;&gt;Node43</title>
<path fill="none" stroke="#191970" d="M1035.7165,-261.2969C975.483,-255.0001 884.2989,-242.748 807.5,-221 805.1819,-220.3436 802.8146,-219.5815 800.4538,-218.7543"/>
<polygon fill="#191970" stroke="#191970" points="801.5179,-215.4137 790.9279,-215.0913 799.0055,-221.9473 801.5179,-215.4137"/>
</g>
<!-- Node4 -->
<g id="node5" class="node">
<title>Node4</title>
<g id="a_node5"><a xlink:href="../../dc/dcd/DataHeader_8h.html" target="_top" xlink:title="Headers/DataHeader.h">
<polygon fill="none" stroke="#000000" points="906,-67.5 906,-86.5 1033,-86.5 1033,-67.5 906,-67.5"/>
<text text-anchor="middle" x="969.5" y="-74.5" font-family="Helvetica,sans-Serif" font-size="10.00" fill="#000000">Headers/DataHeader.h</text>
</a>
</g>
</g>
<!-- Node3&#45;&gt;Node4 -->
<g id="edge4" class="edge">
<title>Node3&#45;&gt;Node4</title>
<path fill="none" stroke="#191970" d="M1080.875,-128.8906C1058.9827,-118.6908 1024.1807,-102.4763 999.3073,-90.8875"/>
<polygon fill="#191970" stroke="#191970" points="1000.5228,-87.5926 989.9802,-86.5419 997.5665,-93.9377 1000.5228,-87.5926"/>
</g>
<!-- Node5 -->
<g id="node6" class="node">
<title>Node5</title>
<polygon fill="none" stroke="#bfbfbf" points="490.5,-6 490.5,-25 540.5,-25 540.5,-6 490.5,-6"/>
<text text-anchor="middle" x="515.5" y="-13" font-family="Helvetica,sans-Serif" font-size="10.00" fill="#000000">cstdint</text>
</g>
<!-- Node4&#45;&gt;Node5 -->
<g id="edge5" class="edge">
<title>Node4&#45;&gt;Node5</title>
<path fill="none" stroke="#191970" d="M905.5978,-72.5001C805.1261,-65.0038 614.9217,-48.9942 549.5,-31 547.5297,-30.4581 545.5295,-29.8148 543.5366,-29.1034"/>
<polygon fill="#191970" stroke="#191970" points="544.3861,-25.6699 533.8049,-25.1316 541.7409,-32.1509 544.3861,-25.6699"/>
</g>
<!-- Node6 -->
<g id="node7" class="node">
<title>Node6</title>
<polygon fill="none" stroke="#bfbfbf" points="708.5,-6 708.5,-25 766.5,-25 766.5,-6 708.5,-6"/>
<text text-anchor="middle" x="737.5" y="-13" font-family="Helvetica,sans-Serif" font-size="10.00" fill="#000000">memory</text>
</g>
<!-- Node4&#45;&gt;Node6 -->
<g id="edge6" class="edge">
<title>Node4&#45;&gt;Node6</title>
<path fill="none" stroke="#191970" d="M919.889,-67.4438C880.3451,-59.3004 823.7921,-46.4722 775.5,-31 773.3499,-30.3111 771.1499,-29.5553 768.9453,-28.7597"/>
<polygon fill="#191970" stroke="#191970" points="769.9809,-25.4085 759.3905,-25.1007 767.4775,-31.9456 769.9809,-25.4085"/>
</g>
<!-- Node7 -->
<g id="node8" class="node">
<title>Node7</title>
<polygon fill="none" stroke="#bfbfbf" points="784.5,-6 784.5,-25 836.5,-25 836.5,-6 784.5,-6"/>
<text text-anchor="middle" x="810.5" y="-13" font-family="Helvetica,sans-Serif" font-size="10.00" fill="#000000">cassert</text>
</g>
<!-- Node4&#45;&gt;Node7 -->
<g id="edge7" class="edge">
<title>Node4&#45;&gt;Node7</title>
<path fill="none" stroke="#191970" d="M942.2223,-67.4273C916.9733,-58.4377 878.4706,-44.4013 845.5,-31 843.934,-30.3635 842.3336,-29.7004 840.7211,-29.0223"/>
<polygon fill="#191970" stroke="#191970" points="842.0782,-25.7961 831.5093,-25.0555 839.3096,-32.2253 842.0782,-25.7961"/>
</g>
<!-- Node8 -->
<g id="node9" class="node">
<title>Node8</title>
<polygon fill="none" stroke="#bfbfbf" points="854.5,-6 854.5,-25 904.5,-25 904.5,-6 854.5,-6"/>
<text text-anchor="middle" x="879.5" y="-13" font-family="Helvetica,sans-Serif" font-size="10.00" fill="#000000">cstring</text>
</g>
<!-- Node4&#45;&gt;Node8 -->
<g id="edge8" class="edge">
<title>Node4&#45;&gt;Node8</title>
<path fill="none" stroke="#191970" d="M955.4375,-67.3906C941.1714,-57.6421 918.865,-42.3994 902.1128,-30.9521"/>
<polygon fill="#191970" stroke="#191970" points="903.6949,-27.7941 893.4638,-25.0419 899.7455,-33.5736 903.6949,-27.7941"/>
</g>
<!-- Node9 -->
<g id="node10" class="node">
<title>Node9</title>
<polygon fill="none" stroke="#bfbfbf" points="1056.5,-6 1056.5,-25 1120.5,-25 1120.5,-6 1056.5,-6"/>
<text text-anchor="middle" x="1088.5" y="-13" font-family="Helvetica,sans-Serif" font-size="10.00" fill="#000000">algorithm</text>
</g>
<!-- Node4&#45;&gt;Node9 -->
<g id="edge9" class="edge">
<title>Node4&#45;&gt;Node9</title>
<path fill="none" stroke="#191970" d="M988.0938,-67.3906C1007.6553,-57.2811 1038.6501,-41.2628 1061.0309,-29.6962"/>
<polygon fill="#191970" stroke="#191970" points="1062.76,-32.7425 1070.0368,-25.0419 1059.5461,-26.5238 1062.76,-32.7425"/>
</g>
<!-- Node10 -->
<g id="node11" class="node">
<title>Node10</title>
<polygon fill="none" stroke="#bfbfbf" points="1139,-6 1139,-25 1204,-25 1204,-6 1139,-6"/>
<text text-anchor="middle" x="1171.5" y="-13" font-family="Helvetica,sans-Serif" font-size="10.00" fill="#000000">stdexcept</text>
</g>
<!-- Node4&#45;&gt;Node10 -->
<g id="edge10" class="edge">
<title>Node4&#45;&gt;Node10</title>
<path fill="none" stroke="#191970" d="M1005.6341,-67.4282C1038.2148,-58.6044 1087.3409,-44.819 1129.5,-31 1131.8911,-30.2162 1134.3492,-29.3828 1136.819,-28.5248"/>
<polygon fill="#191970" stroke="#191970" points="1138.0442,-31.8039 1146.2865,-25.1469 1135.6919,-25.2109 1138.0442,-31.8039"/>
</g>
<!-- Node4&#45;&gt;Node11 -->
<g id="edge11" class="edge">
<title>Node4&#45;&gt;Node11</title>
<path fill="none" stroke="#191970" d="M905.7609,-71.4908C850.2283,-65.4381 768.0805,-53.4379 699.5,-31 697.888,-30.4726 696.2551,-29.8734 694.6256,-29.2246"/>
<polygon fill="#191970" stroke="#191970" points="696.0524,-26.0287 685.4965,-25.1215 693.1827,-32.4135 696.0524,-26.0287"/>
</g>
<!-- Node12 -->
<g id="node13" class="node">
<title>Node12</title>
<polygon fill="none" stroke="#bfbfbf" points="922.5,-6 922.5,-25 972.5,-25 972.5,-6 922.5,-6"/>
<text text-anchor="middle" x="947.5" y="-13" font-family="Helvetica,sans-Serif" font-size="10.00" fill="#000000">climits</text>
</g>
<!-- Node4&#45;&gt;Node12 -->
<g id="edge12" class="edge">
<title>Node4&#45;&gt;Node12</title>
<path fill="none" stroke="#191970" d="M966.0625,-67.3906C962.9487,-58.6862 958.268,-45.6015 954.386,-34.7494"/>
<polygon fill="#191970" stroke="#191970" points="957.6497,-33.4817 950.986,-25.2449 951.0588,-35.8394 957.6497,-33.4817"/>
</g>
<!-- Node13 -->
<g id="node14" class="node">
<title>Node13</title>
<g id="a_node14"><a xlink:href="../../d7/df8/Types_8h.html" target="_top" xlink:title="MemoryResources/Types.h">
<polygon fill="none" stroke="#000000" points="1222.5,-6 1222.5,-25 1368.5,-25 1368.5,-6 1222.5,-6"/>
<text text-anchor="middle" x="1295.5" y="-13" font-family="Helvetica,sans-Serif" font-size="10.00" fill="#000000">MemoryResources/Types.h</text>
</a>
</g>
</g>
<!-- Node4&#45;&gt;Node13 -->
<g id="edge13" class="edge">
<title>Node4&#45;&gt;Node13</title>
<path fill="none" stroke="#191970" d="M1020.0798,-67.4581C1078.1032,-56.512 1173.1825,-38.5752 1235.0569,-26.9026"/>
<polygon fill="#191970" stroke="#191970" points="1235.892,-30.3069 1245.0698,-25.0137 1234.5942,-23.4282 1235.892,-30.3069"/>
</g>
<!-- Node14 -->
<g id="node15" class="node">
<title>Node14</title>
<polygon fill="none" stroke="#bfbfbf" points="991,-6 991,-25 1038,-25 1038,-6 991,-6"/>
<text text-anchor="middle" x="1014.5" y="-13" font-family="Helvetica,sans-Serif" font-size="10.00" fill="#000000">cerrno</text>
</g>
<!-- Node4&#45;&gt;Node14 -->
<g id="edge14" class="edge">
<title>Node4&#45;&gt;Node14</title>
<path fill="none" stroke="#191970" d="M976.5313,-67.3906C983.163,-58.3273 993.2696,-44.5149 1001.3887,-33.4188"/>
<polygon fill="#191970" stroke="#191970" points="1004.2891,-35.382 1007.3696,-25.2449 998.6399,-31.2484 1004.2891,-35.382"/>
</g>
<!-- Node15&#45;&gt;Node3 -->
<g id="edge16" class="edge">
<title>Node15&#45;&gt;Node3</title>
<path fill="none" stroke="#191970" d="M937.8525,-190.4639C975.1204,-178.63 1026.4665,-162.3258 1061.6484,-151.1543"/>
<polygon fill="#191970" stroke="#191970" points="1063.0937,-154.3677 1071.5654,-148.0053 1060.9751,-147.6959 1063.0937,-154.3677"/>
</g>
<!-- Node15&#45;&gt;Node4 -->
<g id="edge25" class="edge">
<title>Node15&#45;&gt;Node4</title>
<path fill="none" stroke="#191970" d="M900.0534,-190.1961C906.4308,-179.9625 914.9929,-166.1897 922.5,-154 934.7422,-134.1218 948.6629,-111.2863 958.1566,-95.6771"/>
<polygon fill="#191970" stroke="#191970" points="961.2379,-97.3462 963.4412,-86.983 955.2562,-93.7103 961.2379,-97.3462"/>
</g>
<!-- Node15&#45;&gt;Node5 -->
<g id="edge45" class="edge">
<title>Node15&#45;&gt;Node5</title>
<path fill="none" stroke="#191970" d="M816.7791,-191.4554C813.6471,-190.9465 810.544,-190.4587 807.5,-190 738.2675,-179.5672 541.0933,-206.2594 494.5,-154 464.546,-120.4033 488.8793,-62.9946 504.6608,-33.7643"/>
<polygon fill="#191970" stroke="#191970" points="507.7355,-35.4373 509.5942,-25.0068 501.6366,-32.0016 507.7355,-35.4373"/>
</g>
<!-- Node15&#45;&gt;Node11 -->
<g id="edge47" class="edge">
<title>Node15&#45;&gt;Node11</title>
<path fill="none" stroke="#191970" d="M835.7759,-190.4452C810.1873,-181.9842 780.0259,-169.8911 755.5,-154 737.829,-142.5504 699.1277,-105.1772 688.5,-87 679.1682,-71.0392 674.0148,-50.5175 671.2872,-35.5566"/>
<polygon fill="#191970" stroke="#191970" points="674.6917,-34.6832 669.6452,-25.3675 667.7809,-35.797 674.6917,-34.6832"/>
</g>
<!-- Node16 -->
<g id="node17" class="node">
<title>Node16</title>
<g id="a_node17"><a xlink:href="../../d6/dc9/DataProcessingHeader_8h.html" target="_top" xlink:title="Framework/DataProcessing\lHeader.h">
<polygon fill="none" stroke="#000000" points="765,-123.5 765,-153.5 914,-153.5 914,-123.5 765,-123.5"/>
<text text-anchor="start" x="773" y="-141.5" font-family="Helvetica,sans-Serif" font-size="10.00" fill="#000000">Framework/DataProcessing</text>
<text text-anchor="middle" x="839.5" y="-130.5" font-family="Helvetica,sans-Serif" font-size="10.00" fill="#000000">Header.h</text>
</a>
</g>
</g>
<!-- Node15&#45;&gt;Node16 -->
<g id="edge17" class="edge">
<title>Node15&#45;&gt;Node16</title>
<path fill="none" stroke="#191970" d="M878.9273,-190.2967C872.5371,-181.9016 864.4635,-171.2952 857.289,-161.8698"/>
<polygon fill="#191970" stroke="#191970" points="859.8688,-159.4803 851.0269,-153.6432 854.2988,-163.7201 859.8688,-159.4803"/>
</g>
<!-- Node19 -->
<g id="node20" class="node">
<title>Node19</title>
<g id="a_node20"><a xlink:href="../../d1/d76/RuntimeError_8h.html" target="_top" xlink:title="Framework/RuntimeError.h">
<polygon fill="none" stroke="#000000" points="326.5,-6 326.5,-25 472.5,-25 472.5,-6 326.5,-6"/>
<text text-anchor="middle" x="399.5" y="-13" font-family="Helvetica,sans-Serif" font-size="10.00" fill="#000000">Framework/RuntimeError.h</text>
</a>
</g>
</g>
<!-- Node15&#45;&gt;Node19 -->
<g id="edge24" class="edge">
<title>Node15&#45;&gt;Node19</title>
<path fill="none" stroke="#191970" d="M816.7825,-191.4329C813.6495,-190.9301 810.5453,-190.4498 807.5,-190 734.5233,-179.2213 539.0717,-194.6288 477.5,-154 435.0357,-125.9794 413.2806,-66.488 404.4299,-35.3855"/>
<polygon fill="#191970" stroke="#191970" points="407.7034,-34.0783 401.7386,-25.322 400.9411,-35.8868 407.7034,-34.0783"/>
</g>
<!-- Node20 -->
<g id="node21" class="node">
<title>Node20</title>
<g id="a_node21"><a xlink:href="../../d4/d00/Headers_2include_2Headers_2Stack_8h.html" target="_top" xlink:title="Headers/Stack.h">
<polygon fill="none" stroke="#000000" points="1359.5,-129 1359.5,-148 1455.5,-148 1455.5,-129 1359.5,-129"/>
<text text-anchor="middle" x="1407.5" y="-136" font-family="Helvetica,sans-Serif" font-size="10.00" fill="#000000">Headers/Stack.h</text>
</a>
</g>
</g>
<!-- Node15&#45;&gt;Node20 -->
<g id="edge26" class="edge">
<title>Node15&#45;&gt;Node20</title>
<path fill="none" stroke="#191970" d="M964.0244,-195.9717C1067.7153,-182.534 1254.793,-158.2899 1349.3811,-146.0318"/>
<polygon fill="#191970" stroke="#191970" points="1349.8766,-149.497 1359.3438,-144.7407 1348.9769,-142.555 1349.8766,-149.497"/>
</g>
<!-- Node15&#45;&gt;Node28 -->
<g id="edge49" class="edge">
<title>Node15&#45;&gt;Node28</title>
<path fill="none" stroke="#191970" d="M905.9227,-190.3271C925.711,-171.7116 961.8736,-140.4778 998.5,-123 1154.9376,-48.3494 1214.0072,-88.5807 1377.5,-31 1379.1418,-30.4218 1380.8117,-29.7889 1382.4847,-29.1198"/>
<polygon fill="#191970" stroke="#191970" points="1384.1479,-32.2134 1391.9263,-25.0198 1381.3597,-25.7926 1384.1479,-32.2134"/>
</g>
<!-- Node34 -->
<g id="node35" class="node">
<title>Node34</title>
<polygon fill="none" stroke="#bfbfbf" points="503.5,-129 503.5,-148 545.5,-148 545.5,-129 503.5,-129"/>
<text text-anchor="middle" x="524.5" y="-136" font-family="Helvetica,sans-Serif" font-size="10.00" fill="#000000">array</text>
</g>
<!-- Node15&#45;&gt;Node34 -->
<g id="edge44" class="edge">
<title>Node15&#45;&gt;Node34</title>
<path fill="none" stroke="#191970" d="M816.7629,-191.5585C813.6353,-191.0213 810.5376,-190.4995 807.5,-190 695.4281,-171.5708 662.6938,-188.5522 554.5,-154 553.0341,-153.5318 551.5533,-152.9967 550.0762,-152.4133"/>
<polygon fill="#191970" stroke="#191970" points="551.1259,-149.0444 540.5769,-148.0599 548.2095,-155.4079 551.1259,-149.0444"/>
</g>
<!-- Node35 -->
<g id="node36" class="node">
<title>Node35</title>
<polygon fill="none" stroke="#bfbfbf" points="0,-6 0,-25 49,-25 49,-6 0,-6"/>
<text text-anchor="middle" x="24.5" y="-13" font-family="Helvetica,sans-Serif" font-size="10.00" fill="#000000">iosfwd</text>
</g>
<!-- Node15&#45;&gt;Node35 -->
<g id="edge46" class="edge">
<title>Node15&#45;&gt;Node35</title>
<path fill="none" stroke="#191970" d="M816.8085,-191.2404C813.6684,-190.7903 810.5556,-190.3737 807.5,-190 672.2723,-173.4627 322.5273,-203.2348 195.5,-154 127.7746,-127.7501 66.3272,-64.0985 39.1879,-33.0784"/>
<polygon fill="#191970" stroke="#191970" points="41.6371,-30.5581 32.4663,-25.2527 36.3269,-35.1191 41.6371,-30.5581"/>
</g>
<!-- Node15&#45;&gt;Node36 -->
<g id="edge48" class="edge">
<title>Node15&#45;&gt;Node36</title>
<path fill="none" stroke="#191970" d="M964.0199,-198.7848C1028.4221,-191.6471 1124.0315,-177.9893 1204.5,-154 1206.6215,-153.3675 1208.7836,-152.6372 1210.9397,-151.8452"/>
<polygon fill="#191970" stroke="#191970" points="1212.2556,-155.0885 1220.2102,-148.0902 1209.6276,-148.6005 1212.2556,-155.0885"/>
</g>
<!-- Node37 -->
<g id="node38" class="node">
<title>Node37</title>
<polygon fill="none" stroke="#bfbfbf" points="563.5,-129 563.5,-148 709.5,-148 709.5,-129 563.5,-129"/>
<text text-anchor="middle" x="636.5" y="-136" font-family="Helvetica,sans-Serif" font-size="10.00" fill="#000000">DataDescriptorMatcher.inc</text>
</g>
<!-- Node15&#45;&gt;Node37 -->
<g id="edge50" class="edge">
<title>Node15&#45;&gt;Node37</title>
<path fill="none" stroke="#191970" d="M833.4974,-190.4639C787.8645,-178.4269 724.6975,-161.7647 682.3092,-150.5835"/>
<polygon fill="#191970" stroke="#191970" points="683.097,-147.1717 672.535,-148.0053 681.3115,-153.9402 683.097,-147.1717"/>
</g>
<!-- Node16&#45;&gt;Node4 -->
<g id="edge18" class="edge">
<title>Node16&#45;&gt;Node4</title>
<path fill="none" stroke="#191970" d="M871.3016,-123.4554C892.3265,-113.509 919.6859,-100.5659 940.1843,-90.8686"/>
<polygon fill="#191970" stroke="#191970" points="941.8119,-93.9706 949.3546,-86.5303 938.8184,-87.6429 941.8119,-93.9706"/>
</g>
<!-- Node16&#45;&gt;Node5 -->
<g id="edge19" class="edge">
<title>Node16&#45;&gt;Node5</title>
<path fill="none" stroke="#191970" d="M793.3437,-123.48C763.3282,-113.5351 723.4201,-99.9783 688.5,-87 626.0694,-63.7972 610.7055,-57.2648 549.5,-31 548.2928,-30.482 547.0638,-29.9489 545.8241,-29.4064"/>
<polygon fill="#191970" stroke="#191970" points="546.8509,-26.0321 536.2923,-25.1568 544.0005,-32.4255 546.8509,-26.0321"/>
</g>
<!-- Node16&#45;&gt;Node6 -->
<g id="edge21" class="edge">
<title>Node16&#45;&gt;Node6</title>
<path fill="none" stroke="#191970" d="M838.7059,-123.4218C837.2044,-107.9105 832.8858,-83.7193 820.5,-67 808.1499,-50.3289 788.6475,-37.8299 771.6497,-29.3229"/>
<polygon fill="#191970" stroke="#191970" points="773.0618,-26.1191 762.5255,-25.0064 770.0682,-32.4467 773.0618,-26.1191"/>
</g>
<!-- Node16&#45;&gt;Node7 -->
<g id="edge22" class="edge">
<title>Node16&#45;&gt;Node7</title>
<path fill="none" stroke="#191970" d="M847.0791,-123.3483C853.3829,-108.6206 860.3125,-85.7883 853.5,-67 848.661,-53.6544 838.6837,-41.3435 829.5572,-32.1069"/>
<polygon fill="#191970" stroke="#191970" points="831.876,-29.4818 822.2225,-25.1159 827.0464,-34.5489 831.876,-29.4818"/>
</g>
<!-- Node17 -->
<g id="node18" class="node">
<title>Node17</title>
<polygon fill="none" stroke="#bfbfbf" points="765.5,-67.5 765.5,-86.5 811.5,-86.5 811.5,-67.5 765.5,-67.5"/>
<text text-anchor="middle" x="788.5" y="-74.5" font-family="Helvetica,sans-Serif" font-size="10.00" fill="#000000">cstdio</text>
</g>
<!-- Node16&#45;&gt;Node17 -->
<g id="edge20" class="edge">
<title>Node16&#45;&gt;Node17</title>
<path fill="none" stroke="#191970" d="M826.8933,-123.2977C819.7402,-114.672 810.7503,-103.8312 803.2682,-94.8087"/>
<polygon fill="#191970" stroke="#191970" points="805.7433,-92.3103 796.6657,-86.8469 800.355,-96.7787 805.7433,-92.3103"/>
</g>
<!-- Node18 -->
<g id="node19" class="node">
<title>Node18</title>
<polygon fill="none" stroke="#bfbfbf" points="697.5,-67.5 697.5,-86.5 747.5,-86.5 747.5,-67.5 697.5,-67.5"/>
<text text-anchor="middle" x="722.5" y="-74.5" font-family="Helvetica,sans-Serif" font-size="10.00" fill="#000000">chrono</text>
</g>
<!-- Node16&#45;&gt;Node18 -->
<g id="edge23" class="edge">
<title>Node16&#45;&gt;Node18</title>
<path fill="none" stroke="#191970" d="M810.8786,-123.4554C792.213,-113.644 768.0001,-100.9167 749.6388,-91.2653"/>
<polygon fill="#191970" stroke="#191970" points="751.111,-88.0851 740.6308,-86.5303 747.854,-94.2812 751.111,-88.0851"/>
</g>
<!-- Node20&#45;&gt;Node4 -->
<g id="edge43" class="edge">
<title>Node20&#45;&gt;Node4</title>
<path fill="none" stroke="#191970" d="M1372.5809,-128.9705C1363.7881,-126.7921 1354.3364,-124.6386 1345.5,-123 1241.2261,-103.6635 1119.1239,-90.4351 1043.0301,-83.2923"/>
<polygon fill="#191970" stroke="#191970" points="1043.3456,-79.8066 1033.0648,-82.367 1042.6983,-86.7766 1043.3456,-79.8066"/>
</g>
<!-- Node21 -->
<g id="node22" class="node">
<title>Node21</title>
<g id="a_node22"><a xlink:href="../../dc/d03/MemoryResources_8h.html" target="_top" xlink:title="MemoryResources/MemoryResources.h">
<polygon fill="none" stroke="#000000" points="1724,-67.5 1724,-86.5 1931,-86.5 1931,-67.5 1724,-67.5"/>
<text text-anchor="middle" x="1827.5" y="-74.5" font-family="Helvetica,sans-Serif" font-size="10.00" fill="#000000">MemoryResources/MemoryResources.h</text>
</a>
</g>
</g>
<!-- Node20&#45;&gt;Node21 -->
<g id="edge27" class="edge">
<title>Node20&#45;&gt;Node21</title>
<path fill="none" stroke="#191970" d="M1440.1408,-128.9523C1448.367,-126.7743 1457.2155,-124.6257 1465.5,-123 1548.0303,-106.8052 1642.3139,-95.0365 1713.9666,-87.4584"/>
<polygon fill="#191970" stroke="#191970" points="1714.3417,-90.9384 1723.9233,-86.4169 1713.6134,-83.9764 1714.3417,-90.9384"/>
</g>
<!-- Node21&#45;&gt;Node8 -->
<g id="edge32" class="edge">
<title>Node21&#45;&gt;Node8</title>
<path fill="none" stroke="#191970" d="M1723.5832,-73.97C1500.6356,-67.1511 990.3447,-49.7246 913.5,-31 911.1601,-30.4298 908.7838,-29.6991 906.4309,-28.8663"/>
<polygon fill="#191970" stroke="#191970" points="907.6237,-25.5726 897.0433,-25.0184 904.9688,-32.0496 907.6237,-25.5726"/>
</g>
<!-- Node21&#45;&gt;Node11 -->
<g id="edge33" class="edge">
<title>Node21&#45;&gt;Node11</title>
<path fill="none" stroke="#191970" d="M1723.5674,-75.2522C1463.2092,-70.5197 796.889,-56.0961 699.5,-31 697.5771,-30.5045 695.6349,-29.8792 693.7102,-29.1658"/>
<polygon fill="#191970" stroke="#191970" points="694.966,-25.8943 684.4043,-25.0574 692.1389,-32.298 694.966,-25.8943"/>
</g>
<!-- Node21&#45;&gt;Node13 -->
<g id="edge42" class="edge">
<title>Node21&#45;&gt;Node13</title>
<path fill="none" stroke="#191970" d="M1723.9772,-68.9324C1632.5702,-61.2105 1495.8217,-48.1987 1377.5,-31 1369.2559,-29.8017 1360.5784,-28.3597 1352.078,-26.844"/>
<polygon fill="#191970" stroke="#191970" points="1352.6838,-23.3968 1342.2173,-25.041 1351.4246,-30.2826 1352.6838,-23.3968"/>
</g>
<!-- Node22 -->
<g id="node23" class="node">
<title>Node22</title>
<polygon fill="none" stroke="#bfbfbf" points="1964,-.5 1964,-30.5 2075,-30.5 2075,-.5 1964,-.5"/>
<text text-anchor="start" x="1972" y="-18.5" font-family="Helvetica,sans-Serif" font-size="10.00" fill="#000000">boost/container/flat</text>
<text text-anchor="middle" x="2019.5" y="-7.5" font-family="Helvetica,sans-Serif" font-size="10.00" fill="#000000">_map.hpp</text>
</g>
<!-- Node21&#45;&gt;Node22 -->
<g id="edge28" class="edge">
<title>Node21&#45;&gt;Node22</title>
<path fill="none" stroke="#191970" d="M1857.5,-67.3906C1885.53,-58.4123 1928.1095,-44.7735 1962.5818,-33.7316"/>
<polygon fill="#191970" stroke="#191970" points="1964.0758,-36.9283 1972.5315,-30.5446 1961.9405,-30.2619 1964.0758,-36.9283"/>
</g>
<!-- Node23 -->
<g id="node24" class="node">
<title>Node23</title>
<polygon fill="none" stroke="#bfbfbf" points="2093,-.5 2093,-30.5 2222,-30.5 2222,-.5 2093,-.5"/>
<text text-anchor="start" x="2101" y="-18.5" font-family="Helvetica,sans-Serif" font-size="10.00" fill="#000000">boost/container/pmr</text>
<text text-anchor="middle" x="2157.5" y="-7.5" font-family="Helvetica,sans-Serif" font-size="10.00" fill="#000000">/memory_resource.hpp</text>
</g>
<!-- Node21&#45;&gt;Node23 -->
<g id="edge29" class="edge">
<title>Node21&#45;&gt;Node23</title>
<path fill="none" stroke="#191970" d="M1883.7474,-67.4674C1933.6396,-58.8905 2008.7538,-45.6825 2082.6936,-31.3244"/>
<polygon fill="#191970" stroke="#191970" points="2083.4983,-34.7335 2092.6433,-29.3838 2082.1582,-27.8629 2083.4983,-34.7335"/>
</g>
<!-- Node24 -->
<g id="node25" class="node">
<title>Node24</title>
<polygon fill="none" stroke="#bfbfbf" points="2240,-.5 2240,-30.5 2413,-30.5 2413,-.5 2240,-.5"/>
<text text-anchor="start" x="2248" y="-18.5" font-family="Helvetica,sans-Serif" font-size="10.00" fill="#000000">boost/container/pmr</text>
<text text-anchor="middle" x="2326.5" y="-7.5" font-family="Helvetica,sans-Serif" font-size="10.00" fill="#000000">/monotonic_buffer_resource.hpp</text>
</g>
<!-- Node21&#45;&gt;Node24 -->
<g id="edge30" class="edge">
<title>Node21&#45;&gt;Node24</title>
<path fill="none" stroke="#191970" d="M1922.7599,-67.4667C2002.3287,-59.1991 2119.0106,-46.3705 2229.7916,-31.2021"/>
<polygon fill="#191970" stroke="#191970" points="2230.3761,-34.6547 2239.8048,-29.8224 2229.4206,-27.7202 2230.3761,-34.6547"/>
</g>
<!-- Node25 -->
<g id="node26" class="node">
<title>Node25</title>
<polygon fill="none" stroke="#bfbfbf" points="2431,-.5 2431,-30.5 2580,-30.5 2580,-.5 2431,-.5"/>
<text text-anchor="start" x="2439" y="-18.5" font-family="Helvetica,sans-Serif" font-size="10.00" fill="#000000">boost/container/pmr</text>
<text text-anchor="middle" x="2505.5" y="-7.5" font-family="Helvetica,sans-Serif" font-size="10.00" fill="#000000">/polymorphic_allocator.hpp</text>
</g>
<!-- Node21&#45;&gt;Node25 -->
<g id="edge31" class="edge">
<title>Node21&#45;&gt;Node25</title>
<path fill="none" stroke="#191970" d="M1931.0399,-72.3746C2047.8124,-66.3903 2243.5281,-54.0511 2420.8661,-31.1331"/>
<polygon fill="#191970" stroke="#191970" points="2421.4414,-34.5878 2430.9038,-29.8219 2420.5346,-27.6467 2421.4414,-34.5878"/>
</g>
<!-- Node26 -->
<g id="node27" class="node">
<title>Node26</title>
<polygon fill="none" stroke="#bfbfbf" points="559,-6 559,-25 628,-25 628,-6 559,-6"/>
<text text-anchor="middle" x="593.5" y="-13" font-family="Helvetica,sans-Serif" font-size="10.00" fill="#000000">type_traits</text>
</g>
<!-- Node21&#45;&gt;Node26 -->
<g id="edge34" class="edge">
<title>Node21&#45;&gt;Node26</title>
<path fill="none" stroke="#191970" d="M1723.9715,-74.7729C1454.0604,-68.7149 742.4684,-51.0425 637.5,-31 633.7809,-30.2899 629.9528,-29.3222 626.1795,-28.2147"/>
<polygon fill="#191970" stroke="#191970" points="627.0244,-24.809 616.432,-25.0376 624.855,-31.4643 627.0244,-24.809"/>
</g>
<!-- Node27 -->
<g id="node28" class="node">
<title>Node27</title>
<polygon fill="none" stroke="#bfbfbf" points="2598,-6 2598,-25 2643,-25 2643,-6 2598,-6"/>
<text text-anchor="middle" x="2620.5" y="-13" font-family="Helvetica,sans-Serif" font-size="10.00" fill="#000000">utility</text>
</g>
<!-- Node21&#45;&gt;Node27 -->
<g id="edge35" class="edge">
<title>Node21&#45;&gt;Node27</title>
<path fill="none" stroke="#191970" d="M1931.1956,-75.8731C2109.8979,-73.0764 2468.3699,-63.479 2589.5,-31 2591.2181,-30.5393 2592.9529,-29.9783 2594.6774,-29.3463"/>
<polygon fill="#191970" stroke="#191970" points="2596.4989,-32.3698 2604.2572,-25.1546 2593.6928,-25.9568 2596.4989,-32.3698"/>
</g>
<!-- Node21&#45;&gt;Node28 -->
<g id="edge36" class="edge">
<title>Node21&#45;&gt;Node28</title>
<path fill="none" stroke="#191970" d="M1723.7279,-68.3227C1628.3875,-59.6684 1494.409,-45.5932 1443.5,-31 1441.5833,-30.4506 1439.6387,-29.8017 1437.7021,-29.0861"/>
<polygon fill="#191970" stroke="#191970" points="1438.8255,-25.7616 1428.251,-25.1046 1436.1078,-32.2125 1438.8255,-25.7616"/>
</g>
<!-- Node29 -->
<g id="node30" class="node">
<title>Node29</title>
<polygon fill="none" stroke="#bfbfbf" points="2661,-6 2661,-25 2754,-25 2754,-6 2661,-6"/>
<text text-anchor="middle" x="2707.5" y="-13" font-family="Helvetica,sans-Serif" font-size="10.00" fill="#000000">unordered_map</text>
</g>
<!-- Node21&#45;&gt;Node29 -->
<g id="edge37" class="edge">
<title>Node21&#45;&gt;Node29</title>
<path fill="none" stroke="#191970" d="M1931.307,-74.0473C2121.0338,-68.1793 2516.7497,-53.6318 2652.5,-31 2657.6282,-30.145 2662.9617,-28.9906 2668.2015,-27.695"/>
<polygon fill="#191970" stroke="#191970" points="2669.3167,-31.0203 2678.0838,-25.0715 2667.5205,-24.2546 2669.3167,-31.0203"/>
</g>
<!-- Node30 -->
<g id="node31" class="node">
<title>Node30</title>
<polygon fill="none" stroke="#bfbfbf" points="2772,-6 2772,-25 2873,-25 2873,-6 2772,-6"/>
<text text-anchor="middle" x="2822.5" y="-13" font-family="Helvetica,sans-Serif" font-size="10.00" fill="#000000">FairMQMessage.h</text>
</g>
<!-- Node21&#45;&gt;Node30 -->
<g id="edge38" class="edge">
<title>Node21&#45;&gt;Node30</title>
<path fill="none" stroke="#191970" d="M1931.2784,-74.6185C2140.3754,-69.3732 2605.82,-55.3161 2763.5,-31 2769.3337,-30.1004 2775.4237,-28.8578 2781.382,-27.4642"/>
<polygon fill="#191970" stroke="#191970" points="2782.3614,-30.8273 2791.2165,-25.0103 2780.6667,-24.0355 2782.3614,-30.8273"/>
</g>
<!-- Node31 -->
<g id="node32" class="node">
<title>Node31</title>
<polygon fill="none" stroke="#bfbfbf" points="1452,-6 1452,-25 1589,-25 1589,-6 1452,-6"/>
<text text-anchor="middle" x="1520.5" y="-13" font-family="Helvetica,sans-Serif" font-size="10.00" fill="#000000">FairMQTransportFactory.h</text>
</g>
<!-- Node21&#45;&gt;Node31 -->
<g id="edge39" class="edge">
<title>Node21&#45;&gt;Node31</title>
<path fill="none" stroke="#191970" d="M1779.8681,-67.4581C1725.4518,-56.5571 1636.4264,-38.723 1578.1427,-27.0473"/>
<polygon fill="#191970" stroke="#191970" points="1578.4838,-23.5462 1567.9911,-25.0137 1577.1087,-30.4098 1578.4838,-23.5462"/>
</g>
<!-- Node32 -->
<g id="node33" class="node">
<title>Node32</title>
<polygon fill="none" stroke="#bfbfbf" points="1607.5,-6 1607.5,-25 1757.5,-25 1757.5,-6 1607.5,-6"/>
<text text-anchor="middle" x="1682.5" y="-13" font-family="Helvetica,sans-Serif" font-size="10.00" fill="#000000">fairmq/MemoryResources.h</text>
</g>
<!-- Node21&#45;&gt;Node32 -->
<g id="edge40" class="edge">
<title>Node21&#45;&gt;Node32</title>
<path fill="none" stroke="#191970" d="M1804.8438,-67.3906C1780.5826,-57.1005 1741.8882,-40.6888 1714.52,-29.0809"/>
<polygon fill="#191970" stroke="#191970" points="1715.57,-25.7245 1704.9972,-25.0419 1712.8367,-32.1688 1715.57,-25.7245"/>
</g>
<!-- Node33 -->
<g id="node34" class="node">
<title>Node33</title>
<polygon fill="none" stroke="#bfbfbf" points="1775.5,-6 1775.5,-25 1945.5,-25 1945.5,-6 1775.5,-6"/>
<text text-anchor="middle" x="1860.5" y="-13" font-family="Helvetica,sans-Serif" font-size="10.00" fill="#000000">fairmq/MemoryResourceTools.h</text>
</g>
<!-- Node21&#45;&gt;Node33 -->
<g id="edge41" class="edge">
<title>Node21&#45;&gt;Node33</title>
<path fill="none" stroke="#191970" d="M1832.6563,-67.3906C1837.4232,-58.5068 1844.6385,-45.0601 1850.5297,-34.0811"/>
<polygon fill="#191970" stroke="#191970" points="1853.6269,-35.7114 1855.2711,-25.2449 1847.4588,-32.4016 1853.6269,-35.7114"/>
</g>
<!-- Node38&#45;&gt;Node11 -->
<g id="edge62" class="edge">
<title>Node38&#45;&gt;Node11</title>
<path fill="none" stroke="#191970" d="M325.7056,-128.9994C390.0633,-112.1272 525.8968,-74.5797 636.5,-31 637.864,-30.4626 639.2504,-29.8914 640.6432,-29.2975"/>
<polygon fill="#191970" stroke="#191970" points="642.099,-32.4804 649.7601,-25.1621 639.2074,-26.1056 642.099,-32.4804"/>
</g>
<!-- Node39 -->
<g id="node40" class="node">
<title>Node39</title>
<g id="a_node40"><a xlink:href="../../de/d56/Variant_8h.html" target="_top" xlink:title="Framework/Variant.h">
<polygon fill="none" stroke="#000000" points="216,-67.5 216,-86.5 333,-86.5 333,-67.5 216,-67.5"/>
<text text-anchor="middle" x="274.5" y="-74.5" font-family="Helvetica,sans-Serif" font-size="10.00" fill="#000000">Framework/Variant.h</text>
</a>
</g>
</g>
<!-- Node38&#45;&gt;Node39 -->
<g id="edge52" class="edge">
<title>Node38&#45;&gt;Node39</title>
<path fill="none" stroke="#191970" d="M286.3125,-128.8906C284.3514,-120.276 281.4137,-107.3708 278.9585,-96.5858"/>
<polygon fill="#191970" stroke="#191970" points="282.3507,-95.7185 276.7183,-86.7449 275.5254,-97.2723 282.3507,-95.7185"/>
</g>
<!-- Node39&#45;&gt;Node5 -->
<g id="edge56" class="edge">
<title>Node39&#45;&gt;Node5</title>
<path fill="none" stroke="#191970" d="M332.489,-67.4725C374.4831,-59.7664 432.2797,-47.4862 481.5,-31 483.3454,-30.3819 485.2252,-29.6958 487.106,-28.9661"/>
<polygon fill="#191970" stroke="#191970" points="488.5058,-32.1744 496.3637,-25.0678 485.7891,-25.7231 488.5058,-32.1744"/>
</g>
<!-- Node39&#45;&gt;Node8 -->
<g id="edge55" class="edge">
<title>Node39&#45;&gt;Node8</title>
<path fill="none" stroke="#191970" d="M333.0453,-74.8542C458.547,-69.8364 749.841,-55.84 845.5,-31 847.6937,-30.4304 849.9219,-29.7275 852.1343,-28.9384"/>
<polygon fill="#191970" stroke="#191970" points="853.6486,-32.1005 861.5769,-25.0725 850.9963,-25.6224 853.6486,-32.1005"/>
</g>
<!-- Node39&#45;&gt;Node11 -->
<g id="edge61" class="edge">
<title>Node39&#45;&gt;Node11</title>
<path fill="none" stroke="#191970" d="M333.0625,-68.9137C337.9455,-68.2589 342.8069,-67.6137 347.5,-67 475.8444,-50.2162 512.3755,-67.7026 636.5,-31 638.3647,-30.4486 640.255,-29.7983 642.1363,-29.0816"/>
<polygon fill="#191970" stroke="#191970" points="643.5311,-32.2918 651.3089,-25.0975 640.7424,-25.8713 643.5311,-32.2918"/>
</g>
<!-- Node39&#45;&gt;Node19 -->
<g id="edge53" class="edge">
<title>Node39&#45;&gt;Node19</title>
<path fill="none" stroke="#191970" d="M294.0313,-67.3906C314.6708,-57.2359 347.4276,-41.1196 370.9602,-29.5416"/>
<polygon fill="#191970" stroke="#191970" points="372.6782,-32.5971 380.1059,-25.0419 369.588,-26.3161 372.6782,-32.5971"/>
</g>
<!-- Node39&#45;&gt;Node26 -->
<g id="edge54" class="edge">
<title>Node39&#45;&gt;Node26</title>
<path fill="none" stroke="#191970" d="M333.2635,-68.3904C401.4608,-58.1838 509.6564,-41.2679 549.5,-31 552.6371,-30.1915 555.8681,-29.2573 559.087,-28.2564"/>
<polygon fill="#191970" stroke="#191970" points="560.2048,-31.5732 568.6017,-25.1123 558.0085,-24.9267 560.2048,-31.5732"/>
</g>
<!-- Node39&#45;&gt;Node35 -->
<g id="edge58" class="edge">
<title>Node39&#45;&gt;Node35</title>
<path fill="none" stroke="#191970" d="M215.9628,-68.3503C171.7279,-60.9169 109.8876,-48.5936 57.5,-31 55.8499,-30.4458 54.1735,-29.8319 52.4955,-29.1774"/>
<polygon fill="#191970" stroke="#191970" points="53.6094,-25.8467 43.0396,-25.1191 50.8487,-32.2793 53.6094,-25.8467"/>
</g>
<!-- Node40 -->
<g id="node41" class="node">
<title>Node40</title>
<polygon fill="none" stroke="#bfbfbf" points="67,-6 67,-25 116,-25 116,-6 67,-6"/>
<text text-anchor="middle" x="91.5" y="-13" font-family="Helvetica,sans-Serif" font-size="10.00" fill="#000000">cstdlib</text>
</g>
<!-- Node39&#45;&gt;Node40 -->
<g id="edge57" class="edge">
<title>Node39&#45;&gt;Node40</title>
<path fill="none" stroke="#191970" d="M238.2511,-67.4381C207.5645,-58.9758 162.6176,-45.7115 124.5,-31 123.0975,-30.4587 121.6713,-29.8845 120.2377,-29.288"/>
<polygon fill="#191970" stroke="#191970" points="121.4072,-25.9785 110.8453,-25.1439 118.5814,-32.3829 121.4072,-25.9785"/>
</g>
<!-- Node41 -->
<g id="node42" class="node">
<title>Node41</title>
<polygon fill="none" stroke="#bfbfbf" points="134,-6 134,-25 217,-25 217,-6 134,-6"/>
<text text-anchor="middle" x="175.5" y="-13" font-family="Helvetica,sans-Serif" font-size="10.00" fill="#000000">initializer_list</text>
</g>
<!-- Node39&#45;&gt;Node41 -->
<g id="edge59" class="edge">
<title>Node39&#45;&gt;Node41</title>
<path fill="none" stroke="#191970" d="M259.0313,-67.3906C243.0479,-57.4616 217.8897,-41.833 199.3567,-30.3201"/>
<polygon fill="#191970" stroke="#191970" points="201.2015,-27.3457 190.8601,-25.0419 197.5076,-33.2918 201.2015,-27.3457"/>
</g>
<!-- Node42 -->
<g id="node43" class="node">
<title>Node42</title>
<polygon fill="none" stroke="#bfbfbf" points="235,-6 235,-25 308,-25 308,-6 235,-6"/>
<text text-anchor="middle" x="271.5" y="-13" font-family="Helvetica,sans-Serif" font-size="10.00" fill="#000000">string_view</text>
</g>
<!-- Node39&#45;&gt;Node42 -->
<g id="edge60" class="edge">
<title>Node39&#45;&gt;Node42</title>
<path fill="none" stroke="#191970" d="M274.0313,-67.3906C273.6154,-58.8657 272.9946,-46.1392 272.4719,-35.4235"/>
<polygon fill="#191970" stroke="#191970" points="275.9585,-35.0624 271.9754,-25.2449 268.9668,-35.4035 275.9585,-35.0624"/>
</g>
<!-- Node44&#45;&gt;Node1 -->
<g id="edge72" class="edge">
<title>Node44&#45;&gt;Node1</title>
<path fill="none" stroke="#191970" d="M1302.1737,-313.4369C1260.7573,-303.8529 1196.9223,-289.0812 1152.4065,-278.78"/>
<polygon fill="#191970" stroke="#191970" points="1153.1875,-275.3683 1142.6559,-276.5237 1151.6093,-282.1881 1153.1875,-275.3683"/>
</g>
<!-- Node44&#45;&gt;Node4 -->
<g id="edge73" class="edge">
<title>Node44&#45;&gt;Node4</title>
<path fill="none" stroke="#191970" d="M1333.457,-313.3574C1324.9838,-304.6457 1313.1951,-291.0663 1306.5,-277 1276.4167,-213.796 1324.4806,-170.9659 1273.5,-123 1256.9459,-107.4248 1127.8473,-92.2121 1043.2923,-83.7743"/>
<polygon fill="#191970" stroke="#191970" points="1043.5076,-80.2787 1033.2121,-82.7793 1042.8199,-87.2448 1043.5076,-80.2787"/>
</g>
<!-- Node45 -->
<g id="node46" class="node">
<title>Node45</title>
<g id="a_node46"><a xlink:href="../../db/d2d/OutputSpec_8h.html" target="_top" xlink:title="Framework/OutputSpec.h">
<polygon fill="none" stroke="#000000" points="1316,-196 1316,-215 1455,-215 1455,-196 1316,-196"/>
<text text-anchor="middle" x="1385.5" y="-203" font-family="Helvetica,sans-Serif" font-size="10.00" fill="#000000">Framework/OutputSpec.h</text>
</a>
</g>
</g>
<!-- Node44&#45;&gt;Node45 -->
<g id="edge67" class="edge">
<title>Node44&#45;&gt;Node45</title>
<path fill="none" stroke="#191970" d="M1354.3915,-313.2331C1363.1506,-304.6457 1374.8892,-291.3129 1380.5,-277 1387.0142,-260.3826 1387.7983,-239.9401 1387.2283,-225.1758"/>
<polygon fill="#191970" stroke="#191970" points="1390.7188,-224.9115 1386.6011,-215.1496 1383.7324,-225.3487 1390.7188,-224.9115"/>
</g>
<!-- Node46 -->
<g id="node47" class="node">
<title>Node46</title>
<g id="a_node47"><a xlink:href="../../d3/ddf/Output_8h.html" target="_top" xlink:title="Framework/Output.h">
<polygon fill="none" stroke="#000000" points="1511.5,-196 1511.5,-215 1627.5,-215 1627.5,-196 1511.5,-196"/>
<text text-anchor="middle" x="1569.5" y="-203" font-family="Helvetica,sans-Serif" font-size="10.00" fill="#000000">Framework/Output.h</text>
</a>
</g>
</g>
<!-- Node44&#45;&gt;Node46 -->
<g id="edge74" class="edge">
<title>Node44&#45;&gt;Node46</title>
<path fill="none" stroke="#191970" d="M1361.9945,-313.3845C1401.7408,-292.7199 1495.4708,-243.9886 1542.1272,-219.7314"/>
<polygon fill="#191970" stroke="#191970" points="1543.8089,-222.8019 1551.0669,-215.0836 1540.5798,-216.5912 1543.8089,-222.8019"/>
</g>
<!-- Node47 -->
<g id="node48" class="node">
<title>Node47</title>
<polygon fill="none" stroke="#bfbfbf" points="1315.5,-257.5 1315.5,-276.5 1371.5,-276.5 1371.5,-257.5 1315.5,-257.5"/>
<text text-anchor="middle" x="1343.5" y="-264.5" font-family="Helvetica,sans-Serif" font-size="10.00" fill="#000000">optional</text>
</g>
<!-- Node44&#45;&gt;Node47 -->
<g id="edge78" class="edge">
<title>Node44&#45;&gt;Node47</title>
<path fill="none" stroke="#191970" d="M1343.5,-313.2455C1343.5,-305.9382 1343.5,-295.6944 1343.5,-286.7046"/>
<polygon fill="#191970" stroke="#191970" points="1347.0001,-286.6426 1343.5,-276.6427 1340.0001,-286.6427 1347.0001,-286.6426"/>
</g>
<!-- Node45&#45;&gt;Node2 -->
<g id="edge69" class="edge">
<title>Node45&#45;&gt;Node2</title>
<path fill="none" stroke="#191970" d="M1406.9913,-195.9005C1432.6103,-184.4574 1475.6099,-165.2509 1504.7447,-152.2374"/>
<polygon fill="#191970" stroke="#191970" points="1506.3454,-155.3557 1514.0485,-148.0817 1503.4905,-148.9643 1506.3454,-155.3557"/>
</g>
<!-- Node45&#45;&gt;Node3 -->
<g id="edge70" class="edge">
<title>Node45&#45;&gt;Node3</title>
<path fill="none" stroke="#191970" d="M1345.1113,-195.9717C1294.3648,-183.9998 1207.26,-163.4504 1152.1175,-150.4415"/>
<polygon fill="#191970" stroke="#191970" points="1152.7456,-146.9936 1142.2092,-148.1039 1151.1383,-153.8066 1152.7456,-146.9936"/>
</g>
<!-- Node45&#45;&gt;Node4 -->
<g id="edge68" class="edge">
<title>Node45&#45;&gt;Node4</title>
<path fill="none" stroke="#191970" d="M1379.625,-195.8505C1368.2083,-178.0492 1341.1667,-140.286 1307.5,-123 1262.7601,-100.0285 1128.606,-87.2901 1043.3767,-81.3179"/>
<polygon fill="#191970" stroke="#191970" points="1043.4506,-77.8148 1033.2347,-80.6229 1042.972,-84.7985 1043.4506,-77.8148"/>
</g>
<!-- Node45&#45;&gt;Node36 -->
<g id="edge71" class="edge">
<title>Node45&#45;&gt;Node36</title>
<path fill="none" stroke="#191970" d="M1364.5818,-195.9005C1339.7544,-184.5072 1298.1567,-165.4178 1269.8058,-152.4075"/>
<polygon fill="#191970" stroke="#191970" points="1270.9279,-149.0715 1260.3794,-148.0817 1268.0083,-155.4336 1270.9279,-149.0715"/>
</g>
<!-- Node46&#45;&gt;Node2 -->
<g id="edge76" class="edge">
<title>Node46&#45;&gt;Node2</title>
<path fill="none" stroke="#191970" d="M1564.6286,-195.9005C1559.5286,-185.8505 1551.3898,-169.8122 1545.01,-157.2403"/>
<polygon fill="#191970" stroke="#191970" points="1548.0088,-155.4153 1540.3623,-148.0817 1541.7666,-158.583 1548.0088,-155.4153"/>
</g>
<!-- Node46&#45;&gt;Node4 -->
<g id="edge75" class="edge">
<title>Node46&#45;&gt;Node4</title>
<path fill="none" stroke="#191970" d="M1579.9293,-195.9684C1596.9109,-179.3369 1626.7089,-144.7209 1606.5,-123 1587.5737,-102.6577 1207.6531,-85.9662 1043.7333,-79.6825"/>
<polygon fill="#191970" stroke="#191970" points="1043.3806,-76.1666 1033.2547,-79.2837 1043.1143,-83.1615 1043.3806,-76.1666"/>
</g>
<!-- Node46&#45;&gt;Node20 -->
<g id="edge77" class="edge">
<title>Node46&#45;&gt;Node20</title>
<path fill="none" stroke="#191970" d="M1546.2893,-195.9005C1518.5006,-184.4077 1471.7772,-165.0838 1440.3062,-152.068"/>
<polygon fill="#191970" stroke="#191970" points="1441.2461,-148.6693 1430.6676,-148.0817 1438.5708,-155.1379 1441.2461,-148.6693"/>
</g>
</g>
</svg>
