<?xml version="1.0" encoding="UTF-8" standalone="no"?>
<!DOCTYPE svg PUBLIC "-//W3C//DTD SVG 1.1//EN"
 "http://www.w3.org/Graphics/SVG/1.1/DTD/svg11.dtd">
<!-- Generated by graphviz version 2.40.1 (20161225.0304)
 -->
<!-- Title: QATrackingKine Pages: 1 -->
<!--zoomable 932 -->
<svg id="main" version="1.1" xmlns="http://www.w3.org/2000/svg" xmlns:xlink="http://www.w3.org/1999/xlink" xml:space="preserve" onload="init(evt)">
<style type="text/css"><![CDATA[
.edge:hover path { stroke: red; }
.edge:hover polygon { stroke: red; fill: red; }
]]></style>
<script type="text/javascript"><![CDATA[
var edges = document.getElementsByTagName('g');
if (edges && edges.length) {
  for (var i=0;i<edges.length;i++) {
    if (edges[i].id.substr(0,4)=='edge') {
      edges[i].setAttribute('class','edge');
    }
  }
}
]]></script>
        <defs>
                <circle id="rim" cx="0" cy="0" r="7"/>
                <circle id="rim2" cx="0" cy="0" r="3.5"/>
                <g id="zoomPlus">
                        <use xlink:href="#rim" fill="#404040">
                                <set attributeName="fill" to="#808080" begin="zoomplus.mouseover" end="zoomplus.mouseout"/>
                        </use>
                        <path d="M-4,0h8M0,-4v8" fill="none" stroke="white" stroke-width="1.5" pointer-events="none"/>
                </g>
                <g id="zoomMin">
                        <use xlink:href="#rim" fill="#404040">
                                <set attributeName="fill" to="#808080" begin="zoomminus.mouseover" end="zoomminus.mouseout"/>
                        </use>
                        <path d="M-4,0h8" fill="none" stroke="white" stroke-width="1.5" pointer-events="none"/>
                </g>
                <g id="dirArrow">
                        <path fill="none" stroke="white" stroke-width="1.5" d="M0,-3.0v7 M-2.5,-0.5L0,-3.0L2.5,-0.5"/>
                </g>
               <g id="resetDef">
                       <use xlink:href="#rim2" fill="#404040">
                               <set attributeName="fill" to="#808080" begin="reset.mouseover" end="reset.mouseout"/>
                       </use>
               </g>
        </defs>

<script type="text/javascript">
var viewWidth = 1243;
var viewHeight = 932;
var sectionId = 'dynsection-0';
</script>
<script xlink:href="../../svgpan.js"/>
<svg id="graph" class="graph">
<g id="viewport">
<title>QATrackingKine</title>
<!-- Node1 -->
<g id="node1" class="node">
<title>Node1</title>
<polygon fill="#bfbfbf" stroke="#000000" points="498.5,-.5 498.5,-57.5 590.5,-57.5 590.5,-.5 498.5,-.5"/>
<text text-anchor="middle" x="544.5" y="-45.5" font-family="Helvetica,sans-Serif" font-size="10.00" fill="#000000">QATrackingKine</text>
<polyline fill="none" stroke="#000000" points="498.5,-38.5 590.5,-38.5 "/>
<text text-anchor="middle" x="544.5" y="-26.5" font-family="Helvetica,sans-Serif" font-size="10.00" fill="#000000"> </text>
<polyline fill="none" stroke="#000000" points="498.5,-19.5 590.5,-19.5 "/>
<text text-anchor="start" x="506.5" y="-7.5" font-family="Helvetica,sans-Serif" font-size="10.00" fill="#000000">+ process()</text>
</g>
<!-- Node2 -->
<g id="node2" class="node">
<title>Node2</title>
<g id="a_node2"><a xlink:href="../../d8/d71/structo2_1_1framework_1_1Configurable.html" target="_top" xlink:title="{o2::framework::Configurable\l\&lt; bool \&gt;\n||+ Configurable()\l}">
<polygon fill="none" stroke="#000000" points="313,-105.5 313,-173.5 468,-173.5 468,-105.5 313,-105.5"/>
<text text-anchor="start" x="321" y="-161.5" font-family="Helvetica,sans-Serif" font-size="10.00" fill="#000000">o2::framework::Configurable</text>
<text text-anchor="middle" x="390.5" y="-150.5" font-family="Helvetica,sans-Serif" font-size="10.00" fill="#000000">&lt; bool &gt;</text>
<polyline fill="none" stroke="#000000" points="313,-143.5 468,-143.5 "/>
<text text-anchor="middle" x="390.5" y="-131.5" font-family="Helvetica,sans-Serif" font-size="10.00" fill="#000000"> </text>
<polyline fill="none" stroke="#000000" points="313,-124.5 468,-124.5 "/>
<text text-anchor="start" x="321" y="-112.5" font-family="Helvetica,sans-Serif" font-size="10.00" fill="#000000">+ Configurable()</text>
</a>
</g>
</g>
<!-- Node2&#45;&gt;Node1 -->
<g id="edge1" class="edge">
<title>Node2&#45;&gt;Node1</title>
<path fill="none" stroke="#404040" d="M437.9617,-105.4447C456.0071,-92.4965 476.6037,-77.7178 494.8466,-64.628"/>
<polygon fill="none" stroke="#404040" points="494.9584,-64.5477 497.5014,-57.7999 504.7082,-57.5519 502.1652,-64.2998 494.9584,-64.5477"/>
<text text-anchor="middle" x="494" y="-79" font-family="Helvetica,sans-Serif" font-size="10.00" fill="#000000"> +ismc</text>
</g>
<!-- Node3 -->
<g id="node3" class="node">
<title>Node3</title>
<g id="a_node3"><a xlink:href="../../da/def/structo2_1_1framework_1_1ConfigurablePolicyConst.html" target="_top" xlink:title="{o2::framework::Configurable\lPolicyConst\&lt; bool \&gt;\n||+ ConfigurablePolicyConst()\l}">
<polygon fill="none" stroke="#000000" points="140,-276.5 140,-344.5 295,-344.5 295,-276.5 140,-276.5"/>
<text text-anchor="start" x="148" y="-332.5" font-family="Helvetica,sans-Serif" font-size="10.00" fill="#000000">o2::framework::Configurable</text>
<text text-anchor="middle" x="217.5" y="-321.5" font-family="Helvetica,sans-Serif" font-size="10.00" fill="#000000">PolicyConst&lt; bool &gt;</text>
<polyline fill="none" stroke="#000000" points="140,-314.5 295,-314.5 "/>
<text text-anchor="middle" x="217.5" y="-302.5" font-family="Helvetica,sans-Serif" font-size="10.00" fill="#000000"> </text>
<polyline fill="none" stroke="#000000" points="140,-295.5 295,-295.5 "/>
<text text-anchor="start" x="148" y="-283.5" font-family="Helvetica,sans-Serif" font-size="10.00" fill="#000000">+ ConfigurablePolicyConst()</text>
</a>
</g>
</g>
<!-- Node3&#45;&gt;Node2 -->
<g id="edge2" class="edge">
<title>Node3&#45;&gt;Node2</title>
<path fill="none" stroke="#191970" d="M256.6966,-268.8014C271.2258,-253.5866 287.9506,-236.3533 303.5,-221 319.5525,-205.1499 337.7075,-188.022 353.2644,-173.578"/>
<polygon fill="none" stroke="#191970" points="254.1164,-266.4356 249.7552,-276.0912 259.1858,-271.2627 254.1164,-266.4356"/>
</g>
<!-- Node4 -->
<g id="node4" class="node">
<title>Node4</title>
<g id="a_node4"><a xlink:href="../../da/d2f/structo2_1_1framework_1_1ConfigurableBase.html" target="_top" xlink:title="{o2::framework::Configurable\lBase\&lt; bool \&gt;\n||+ ConfigurableBase()\l}">
<polygon fill="none" stroke="#000000" points="173,-497 173,-565 328,-565 328,-497 173,-497"/>
<text text-anchor="start" x="181" y="-553" font-family="Helvetica,sans-Serif" font-size="10.00" fill="#000000">o2::framework::Configurable</text>
<text text-anchor="middle" x="250.5" y="-542" font-family="Helvetica,sans-Serif" font-size="10.00" fill="#000000">Base&lt; bool &gt;</text>
<polyline fill="none" stroke="#000000" points="173,-535 328,-535 "/>
<text text-anchor="middle" x="250.5" y="-523" font-family="Helvetica,sans-Serif" font-size="10.00" fill="#000000"> </text>
<polyline fill="none" stroke="#000000" points="173,-516 328,-516 "/>
<text text-anchor="start" x="181" y="-504" font-family="Helvetica,sans-Serif" font-size="10.00" fill="#000000">+ ConfigurableBase()</text>
</a>
</g>
</g>
<!-- Node4&#45;&gt;Node3 -->
<g id="edge3" class="edge">
<title>Node4&#45;&gt;Node3</title>
<path fill="none" stroke="#191970" d="M243.8586,-486.6236C237.5929,-444.7574 228.3324,-382.8805 222.62,-344.7112"/>
<polygon fill="none" stroke="#191970" points="240.4021,-487.1751 245.3438,-496.5469 247.325,-486.1389 240.4021,-487.1751"/>
</g>
<!-- Node5 -->
<g id="node5" class="node">
<title>Node5</title>
<polygon fill="none" stroke="#bfbfbf" points="355,-850 355,-907 384,-907 384,-850 355,-850"/>
<text text-anchor="middle" x="369.5" y="-895" font-family="Helvetica,sans-Serif" font-size="10.00" fill="#000000">int</text>
<polyline fill="none" stroke="#bfbfbf" points="355,-888 384,-888 "/>
<text text-anchor="middle" x="369.5" y="-876" font-family="Helvetica,sans-Serif" font-size="10.00" fill="#000000"> </text>
<polyline fill="none" stroke="#bfbfbf" points="355,-869 384,-869 "/>
<text text-anchor="middle" x="369.5" y="-857" font-family="Helvetica,sans-Serif" font-size="10.00" fill="#000000"> </text>
</g>
<!-- Node5&#45;&gt;Node4 -->
<g id="edge4" class="edge">
<title>Node5&#45;&gt;Node4</title>
<path fill="none" stroke="#404040" d="M354.8172,-854.1233C342.9362,-833.5917 326.4376,-803.148 315.5,-775 289.5186,-708.1364 270.1946,-627.0602 259.6324,-577.2586"/>
<polygon fill="none" stroke="#404040" points="259.5881,-577.0458 254.447,-571.9892 257.1372,-565.2987 262.2783,-570.3553 259.5881,-577.0458"/>
<text text-anchor="middle" x="335.5" y="-721.5" font-family="Helvetica,sans-Serif" font-size="10.00" fill="#000000"> +name</text>
<text text-anchor="middle" x="335.5" y="-710.5" font-family="Helvetica,sans-Serif" font-size="10.00" fill="#000000">+help</text>
</g>
<!-- Node7 -->
<g id="node7" class="node">
<title>Node7</title>
<g id="a_node7"><a xlink:href="../../da/d2f/structo2_1_1framework_1_1ConfigurableBase.html" target="_top" xlink:title="{o2::framework::Configurable\lBase\&lt; T \&gt;\n||+ ConfigurableBase()\l}">
<polygon fill="none" stroke="#000000" points="109,-684.5 109,-752.5 264,-752.5 264,-684.5 109,-684.5"/>
<text text-anchor="start" x="117" y="-740.5" font-family="Helvetica,sans-Serif" font-size="10.00" fill="#000000">o2::framework::Configurable</text>
<text text-anchor="middle" x="186.5" y="-729.5" font-family="Helvetica,sans-Serif" font-size="10.00" fill="#000000">Base&lt; T &gt;</text>
<polyline fill="none" stroke="#000000" points="109,-722.5 264,-722.5 "/>
<text text-anchor="middle" x="186.5" y="-710.5" font-family="Helvetica,sans-Serif" font-size="10.00" fill="#000000"> </text>
<polyline fill="none" stroke="#000000" points="109,-703.5 264,-703.5 "/>
<text text-anchor="start" x="117" y="-691.5" font-family="Helvetica,sans-Serif" font-size="10.00" fill="#000000">+ ConfigurableBase()</text>
</a>
</g>
</g>
<!-- Node5&#45;&gt;Node7 -->
<g id="edge7" class="edge">
<title>Node5&#45;&gt;Node7</title>
<path fill="none" stroke="#404040" d="M354.8522,-873.7344C330.3154,-865.1748 280.3682,-845.2232 247.5,-815 231.7934,-800.5574 218.5093,-781.1961 208.388,-763.6073"/>
<polygon fill="none" stroke="#404040" points="208.3012,-763.45 201.8995,-760.1306 202.5014,-752.9447 208.9031,-756.2641 208.3012,-763.45"/>
<text text-anchor="middle" x="267.5" y="-807" font-family="Helvetica,sans-Serif" font-size="10.00" fill="#000000"> +name</text>
<text text-anchor="middle" x="267.5" y="-796" font-family="Helvetica,sans-Serif" font-size="10.00" fill="#000000">+help</text>
</g>
<!-- Node12 -->
<g id="node12" class="node">
<title>Node12</title>
<g id="a_node12"><a xlink:href="../../d4/d79/structo2_1_1framework_1_1OutputObj.html" target="_top" xlink:title="{o2::framework::OutputObj\l\&lt; TH1F \&gt;\n||+ spec()\l+ OutputObj()\l+ OutputObj()\l+ setObject()\l+ setObject()\l+ setObject()\l+ setObject()\l+ setHash()\l+ operator&#45;\&gt;()\l+ operator*()\l+ ref()\l}">
<polygon fill="none" stroke="#000000" points="560,-221.5 560,-399.5 703,-399.5 703,-221.5 560,-221.5"/>
<text text-anchor="start" x="568" y="-387.5" font-family="Helvetica,sans-Serif" font-size="10.00" fill="#000000">o2::framework::OutputObj</text>
<text text-anchor="middle" x="631.5" y="-376.5" font-family="Helvetica,sans-Serif" font-size="10.00" fill="#000000">&lt; TH1F &gt;</text>
<polyline fill="none" stroke="#000000" points="560,-369.5 703,-369.5 "/>
<text text-anchor="middle" x="631.5" y="-357.5" font-family="Helvetica,sans-Serif" font-size="10.00" fill="#000000"> </text>
<polyline fill="none" stroke="#000000" points="560,-350.5 703,-350.5 "/>
<text text-anchor="start" x="568" y="-338.5" font-family="Helvetica,sans-Serif" font-size="10.00" fill="#000000">+ spec()</text>
<text text-anchor="start" x="568" y="-327.5" font-family="Helvetica,sans-Serif" font-size="10.00" fill="#000000">+ OutputObj()</text>
<text text-anchor="start" x="568" y="-316.5" font-family="Helvetica,sans-Serif" font-size="10.00" fill="#000000">+ OutputObj()</text>
<text text-anchor="start" x="568" y="-305.5" font-family="Helvetica,sans-Serif" font-size="10.00" fill="#000000">+ setObject()</text>
<text text-anchor="start" x="568" y="-294.5" font-family="Helvetica,sans-Serif" font-size="10.00" fill="#000000">+ setObject()</text>
<text text-anchor="start" x="568" y="-283.5" font-family="Helvetica,sans-Serif" font-size="10.00" fill="#000000">+ setObject()</text>
<text text-anchor="start" x="568" y="-272.5" font-family="Helvetica,sans-Serif" font-size="10.00" fill="#000000">+ setObject()</text>
<text text-anchor="start" x="568" y="-261.5" font-family="Helvetica,sans-Serif" font-size="10.00" fill="#000000">+ setHash()</text>
<text text-anchor="start" x="568" y="-250.5" font-family="Helvetica,sans-Serif" font-size="10.00" fill="#000000">+ operator&#45;&gt;()</text>
<text text-anchor="start" x="568" y="-239.5" font-family="Helvetica,sans-Serif" font-size="10.00" fill="#000000">+ operator*()</text>
<text text-anchor="start" x="568" y="-228.5" font-family="Helvetica,sans-Serif" font-size="10.00" fill="#000000">+ ref()</text>
</a>
</g>
</g>
<!-- Node5&#45;&gt;Node12 -->
<g id="edge16" class="edge">
<title>Node5&#45;&gt;Node12</title>
<path fill="none" stroke="#404040" d="M366.3612,-849.8659C360.6614,-793.7408 350.596,-671.3956 366.5,-633 370.8296,-622.5475 377.5531,-623.9297 384.5,-615 437.8549,-546.4166 429.8849,-514.5841 484.5,-447 504.1144,-422.7279 528.0076,-398.7241 550.7812,-377.7743"/>
<polygon fill="none" stroke="#404040" points="550.8969,-377.6691 552.6478,-370.6738 559.7785,-369.5995 558.0276,-376.5948 550.8969,-377.6691"/>
<text text-anchor="middle" x="384.5" y="-636" font-family="Helvetica,sans-Serif" font-size="10.00" fill="#000000"> +label</text>
</g>
<!-- Node15 -->
<g id="node15" class="node">
<title>Node15</title>
<g id="a_node15"><a xlink:href="../../da/d96/structo2_1_1framework_1_1InputSpec.html" target="_top" xlink:title="{o2::framework::InputSpec\n||+ InputSpec()\l+ InputSpec()\l+ InputSpec()\l+ InputSpec()\l+ InputSpec()\l+ operator==()\l}">
<polygon fill="none" stroke="#000000" points="917.5,-662.5 917.5,-774.5 1059.5,-774.5 1059.5,-662.5 917.5,-662.5"/>
<text text-anchor="middle" x="988.5" y="-762.5" font-family="Helvetica,sans-Serif" font-size="10.00" fill="#000000">o2::framework::InputSpec</text>
<polyline fill="none" stroke="#000000" points="917.5,-755.5 1059.5,-755.5 "/>
<text text-anchor="middle" x="988.5" y="-743.5" font-family="Helvetica,sans-Serif" font-size="10.00" fill="#000000"> </text>
<polyline fill="none" stroke="#000000" points="917.5,-736.5 1059.5,-736.5 "/>
<text text-anchor="start" x="925.5" y="-724.5" font-family="Helvetica,sans-Serif" font-size="10.00" fill="#000000">+ InputSpec()</text>
<text text-anchor="start" x="925.5" y="-713.5" font-family="Helvetica,sans-Serif" font-size="10.00" fill="#000000">+ InputSpec()</text>
<text text-anchor="start" x="925.5" y="-702.5" font-family="Helvetica,sans-Serif" font-size="10.00" fill="#000000">+ InputSpec()</text>
<text text-anchor="start" x="925.5" y="-691.5" font-family="Helvetica,sans-Serif" font-size="10.00" fill="#000000">+ InputSpec()</text>
<text text-anchor="start" x="925.5" y="-680.5" font-family="Helvetica,sans-Serif" font-size="10.00" fill="#000000">+ InputSpec()</text>
<text text-anchor="start" x="925.5" y="-669.5" font-family="Helvetica,sans-Serif" font-size="10.00" fill="#000000">+ operator==()</text>
</a>
</g>
</g>
<!-- Node5&#45;&gt;Node15 -->
<g id="edge22" class="edge">
<title>Node5&#45;&gt;Node15</title>
<path fill="none" stroke="#404040" d="M384.321,-878.2074C440.9205,-876.7082 648.3009,-867.7123 808.5,-815 841.9469,-803.9945 876.5304,-787.0066 906.3357,-770.3336"/>
<polygon fill="none" stroke="#404040" points="906.6587,-770.1499 909.8964,-763.7064 917.0894,-764.2168 913.8518,-770.6602 906.6587,-770.1499"/>
<text text-anchor="middle" x="883.5" y="-801.5" font-family="Helvetica,sans-Serif" font-size="10.00" fill="#000000"> +binding</text>
</g>
<!-- Node20 -->
<g id="node20" class="node">
<title>Node20</title>
<g id="a_node20"><a xlink:href="../../d4/d79/structo2_1_1framework_1_1OutputObj.html" target="_top" xlink:title="{o2::framework::OutputObj\&lt; T \&gt;\n||+ OutputObj()\l+ OutputObj()\l+ setObject()\l+ setObject()\l+ setObject()\l+ setObject()\l+ setHash()\l+ spec()\l+ operator&#45;\&gt;()\l+ operator*()\l+ ref()\l}">
<polygon fill="none" stroke="#000000" points="755.5,-447.5 755.5,-614.5 927.5,-614.5 927.5,-447.5 755.5,-447.5"/>
<text text-anchor="middle" x="841.5" y="-602.5" font-family="Helvetica,sans-Serif" font-size="10.00" fill="#000000">o2::framework::OutputObj&lt; T &gt;</text>
<polyline fill="none" stroke="#000000" points="755.5,-595.5 927.5,-595.5 "/>
<text text-anchor="middle" x="841.5" y="-583.5" font-family="Helvetica,sans-Serif" font-size="10.00" fill="#000000"> </text>
<polyline fill="none" stroke="#000000" points="755.5,-576.5 927.5,-576.5 "/>
<text text-anchor="start" x="763.5" y="-564.5" font-family="Helvetica,sans-Serif" font-size="10.00" fill="#000000">+ OutputObj()</text>
<text text-anchor="start" x="763.5" y="-553.5" font-family="Helvetica,sans-Serif" font-size="10.00" fill="#000000">+ OutputObj()</text>
<text text-anchor="start" x="763.5" y="-542.5" font-family="Helvetica,sans-Serif" font-size="10.00" fill="#000000">+ setObject()</text>
<text text-anchor="start" x="763.5" y="-531.5" font-family="Helvetica,sans-Serif" font-size="10.00" fill="#000000">+ setObject()</text>
<text text-anchor="start" x="763.5" y="-520.5" font-family="Helvetica,sans-Serif" font-size="10.00" fill="#000000">+ setObject()</text>
<text text-anchor="start" x="763.5" y="-509.5" font-family="Helvetica,sans-Serif" font-size="10.00" fill="#000000">+ setObject()</text>
<text text-anchor="start" x="763.5" y="-498.5" font-family="Helvetica,sans-Serif" font-size="10.00" fill="#000000">+ setHash()</text>
<text text-anchor="start" x="763.5" y="-487.5" font-family="Helvetica,sans-Serif" font-size="10.00" fill="#000000">+ spec()</text>
<text text-anchor="start" x="763.5" y="-476.5" font-family="Helvetica,sans-Serif" font-size="10.00" fill="#000000">+ operator&#45;&gt;()</text>
<text text-anchor="start" x="763.5" y="-465.5" font-family="Helvetica,sans-Serif" font-size="10.00" fill="#000000">+ operator*()</text>
<text text-anchor="start" x="763.5" y="-454.5" font-family="Helvetica,sans-Serif" font-size="10.00" fill="#000000">+ ref()</text>
</a>
</g>
</g>
<!-- Node5&#45;&gt;Node20 -->
<g id="edge27" class="edge">
<title>Node5&#45;&gt;Node20</title>
<path fill="none" stroke="#404040" d="M384.0462,-876.3515C446.839,-866.8153 694.0384,-826.5067 750.5,-775 792.4769,-736.7069 815.1704,-677.2074 827.3972,-626.5512"/>
<polygon fill="none" stroke="#404040" points="827.4655,-626.2521 824.9037,-619.5114 830.1405,-614.5541 832.7024,-621.2948 827.4655,-626.2521"/>
<text text-anchor="middle" x="834.5" y="-716" font-family="Helvetica,sans-Serif" font-size="10.00" fill="#000000"> +label</text>
</g>
<!-- Node6 -->
<g id="node6" class="node">
<title>Node6</title>
<polygon fill="none" stroke="#bfbfbf" points="463.5,-690 463.5,-747 501.5,-747 501.5,-690 463.5,-690"/>
<text text-anchor="middle" x="482.5" y="-735" font-family="Helvetica,sans-Serif" font-size="10.00" fill="#000000">bool</text>
<polyline fill="none" stroke="#bfbfbf" points="463.5,-728 501.5,-728 "/>
<text text-anchor="middle" x="482.5" y="-716" font-family="Helvetica,sans-Serif" font-size="10.00" fill="#000000"> </text>
<polyline fill="none" stroke="#bfbfbf" points="463.5,-709 501.5,-709 "/>
<text text-anchor="middle" x="482.5" y="-697" font-family="Helvetica,sans-Serif" font-size="10.00" fill="#000000"> </text>
</g>
<!-- Node6&#45;&gt;Node4 -->
<g id="edge5" class="edge">
<title>Node6&#45;&gt;Node4</title>
<path fill="none" stroke="#404040" d="M463.8558,-689.8495C450.152,-671.0067 429.895,-647.2768 406.5,-633 379.0793,-616.2665 364.4935,-630.7564 336.5,-615 317.974,-604.5725 300.5755,-589.1445 286.3402,-574.3461"/>
<polygon fill="none" stroke="#404040" points="286.0706,-574.0559 279.0564,-572.3821 277.9036,-565.2637 284.9178,-566.9375 286.0706,-574.0559"/>
<text text-anchor="middle" x="441" y="-636" font-family="Helvetica,sans-Serif" font-size="10.00" fill="#000000"> +value</text>
</g>
<!-- Node6&#45;&gt;Node12 -->
<g id="edge17" class="edge">
<title>Node6&#45;&gt;Node12</title>
<path fill="none" stroke="#404040" d="M483.1096,-689.9118C485.1217,-639.0239 493.6508,-530.2603 529.5,-447 535.8546,-432.2413 544.1045,-417.6005 553.1593,-403.692"/>
<polygon fill="none" stroke="#404040" points="553.1811,-403.6594 553.2113,-396.4483 559.8792,-393.7026 559.8491,-400.9137 553.1811,-403.6594"/>
<text text-anchor="middle" x="560.5" y="-528.5" font-family="Helvetica,sans-Serif" font-size="10.00" fill="#000000"> +isdangling</text>
</g>
<!-- Node6&#45;&gt;Node20 -->
<g id="edge29" class="edge">
<title>Node6&#45;&gt;Node20</title>
<path fill="none" stroke="#404040" d="M495.2063,-689.7916C500.6453,-679.9858 507.7775,-669.5902 516.5,-662 593.5657,-594.9386 647.6626,-655.3843 741.5,-615 742.5251,-614.5589 743.5477,-614.1036 744.5675,-613.635"/>
<polygon fill="none" stroke="#404040" points="744.6822,-613.5767 748.2155,-607.2905 755.3771,-608.1341 751.8438,-614.4204 744.6822,-613.5767"/>
<text text-anchor="middle" x="595.5" y="-636" font-family="Helvetica,sans-Serif" font-size="10.00" fill="#000000"> +isdangling</text>
</g>
<!-- Node7&#45;&gt;Node4 -->
<g id="edge6" class="edge">
<title>Node7&#45;&gt;Node4</title>
<path fill="none" stroke="#ffa500" d="M201.4872,-674.5923C212.8873,-641.1935 228.3491,-595.8952 238.8358,-565.1724"/>
<polygon fill="#ffa500" stroke="#ffa500" points="198.1566,-673.5151 198.2386,-684.1096 204.7813,-675.7764 198.1566,-673.5151"/>
<text text-anchor="middle" x="239" y="-636" font-family="Helvetica,sans-Serif" font-size="10.00" fill="#000000"> &lt; bool &gt;</text>
</g>
<!-- Node9 -->
<g id="node9" class="node">
<title>Node9</title>
<g id="a_node9"><a xlink:href="../../da/def/structo2_1_1framework_1_1ConfigurablePolicyConst.html" target="_top" xlink:title="{o2::framework::Configurable\lPolicyConst\&lt; T \&gt;\n||+ ConfigurablePolicyConst()\l}">
<polygon fill="none" stroke="#000000" points="0,-497 0,-565 155,-565 155,-497 0,-497"/>
<text text-anchor="start" x="8" y="-553" font-family="Helvetica,sans-Serif" font-size="10.00" fill="#000000">o2::framework::Configurable</text>
<text text-anchor="middle" x="77.5" y="-542" font-family="Helvetica,sans-Serif" font-size="10.00" fill="#000000">PolicyConst&lt; T &gt;</text>
<polyline fill="none" stroke="#000000" points="0,-535 155,-535 "/>
<text text-anchor="middle" x="77.5" y="-523" font-family="Helvetica,sans-Serif" font-size="10.00" fill="#000000"> </text>
<polyline fill="none" stroke="#000000" points="0,-516 155,-516 "/>
<text text-anchor="start" x="8" y="-504" font-family="Helvetica,sans-Serif" font-size="10.00" fill="#000000">+ ConfigurablePolicyConst()</text>
</a>
</g>
</g>
<!-- Node7&#45;&gt;Node9 -->
<g id="edge10" class="edge">
<title>Node7&#45;&gt;Node9</title>
<path fill="none" stroke="#191970" d="M161.4734,-675.4497C142.0119,-641.9723 115.379,-596.1589 97.3655,-565.1724"/>
<polygon fill="none" stroke="#191970" points="158.456,-677.2233 166.5077,-684.1096 164.5077,-673.7052 158.456,-677.2233"/>
</g>
<!-- Node8 -->
<g id="node8" class="node">
<title>Node8</title>
<polygon fill="none" stroke="#bfbfbf" points="170,-850 170,-907 199,-907 199,-850 170,-850"/>
<text text-anchor="middle" x="184.5" y="-895" font-family="Helvetica,sans-Serif" font-size="10.00" fill="#000000">T</text>
<polyline fill="none" stroke="#bfbfbf" points="170,-888 199,-888 "/>
<text text-anchor="middle" x="184.5" y="-876" font-family="Helvetica,sans-Serif" font-size="10.00" fill="#000000"> </text>
<polyline fill="none" stroke="#bfbfbf" points="170,-869 199,-869 "/>
<text text-anchor="middle" x="184.5" y="-857" font-family="Helvetica,sans-Serif" font-size="10.00" fill="#000000"> </text>
</g>
<!-- Node8&#45;&gt;Node7 -->
<g id="edge8" class="edge">
<title>Node8&#45;&gt;Node7</title>
<path fill="none" stroke="#404040" d="M184.821,-849.9999C185.0114,-833.3748 185.2614,-811.9998 185.5,-793 185.6152,-783.8268 185.7433,-774.0184 185.8684,-764.6308"/>
<polygon fill="none" stroke="#404040" points="185.8684,-764.6198 181.9494,-758.5666 186.0296,-752.6209 189.9487,-758.6741 185.8684,-764.6198"/>
<text text-anchor="middle" x="205" y="-801.5" font-family="Helvetica,sans-Serif" font-size="10.00" fill="#000000"> +value</text>
</g>
<!-- Node9&#45;&gt;Node3 -->
<g id="edge9" class="edge">
<title>Node9&#45;&gt;Node3</title>
<path fill="none" stroke="#ffa500" d="M104.8368,-487.9445C131.4249,-446.0682 171.288,-383.2839 195.7786,-344.7112"/>
<polygon fill="#ffa500" stroke="#ffa500" points="101.7804,-486.2287 99.375,-496.5469 107.6899,-489.9808 101.7804,-486.2287"/>
<text text-anchor="middle" x="171" y="-421" font-family="Helvetica,sans-Serif" font-size="10.00" fill="#000000"> &lt; bool &gt;</text>
</g>
<!-- Node10 -->
<g id="node10" class="node">
<title>Node10</title>
<g id="a_node10"><a xlink:href="../../d8/d71/structo2_1_1framework_1_1Configurable.html" target="_top" xlink:title="{o2::framework::Configurable\l\&lt; T, IP \&gt;\n||+ Configurable()\l}">
<polygon fill="none" stroke="#000000" points="313,-276.5 313,-344.5 468,-344.5 468,-276.5 313,-276.5"/>
<text text-anchor="start" x="321" y="-332.5" font-family="Helvetica,sans-Serif" font-size="10.00" fill="#000000">o2::framework::Configurable</text>
<text text-anchor="middle" x="390.5" y="-321.5" font-family="Helvetica,sans-Serif" font-size="10.00" fill="#000000">&lt; T, IP &gt;</text>
<polyline fill="none" stroke="#000000" points="313,-314.5 468,-314.5 "/>
<text text-anchor="middle" x="390.5" y="-302.5" font-family="Helvetica,sans-Serif" font-size="10.00" fill="#000000"> </text>
<polyline fill="none" stroke="#000000" points="313,-295.5 468,-295.5 "/>
<text text-anchor="start" x="321" y="-283.5" font-family="Helvetica,sans-Serif" font-size="10.00" fill="#000000">+ Configurable()</text>
</a>
</g>
</g>
<!-- Node10&#45;&gt;Node2 -->
<g id="edge11" class="edge">
<title>Node10&#45;&gt;Node2</title>
<path fill="none" stroke="#ffa500" d="M390.5,-266.0807C390.5,-237.2253 390.5,-200.1808 390.5,-173.6342"/>
<polygon fill="#ffa500" stroke="#ffa500" points="387.0001,-266.3065 390.5,-276.3066 394.0001,-266.3066 387.0001,-266.3065"/>
<text text-anchor="middle" x="414" y="-195" font-family="Helvetica,sans-Serif" font-size="10.00" fill="#000000"> &lt; bool &gt;</text>
</g>
<!-- Node11 -->
<g id="node11" class="node">
<title>Node11</title>
<polygon fill="none" stroke="#bfbfbf" points="346,-502.5 346,-559.5 375,-559.5 375,-502.5 346,-502.5"/>
<text text-anchor="middle" x="360.5" y="-547.5" font-family="Helvetica,sans-Serif" font-size="10.00" fill="#000000">IP</text>
<polyline fill="none" stroke="#bfbfbf" points="346,-540.5 375,-540.5 "/>
<text text-anchor="middle" x="360.5" y="-528.5" font-family="Helvetica,sans-Serif" font-size="10.00" fill="#000000"> </text>
<polyline fill="none" stroke="#bfbfbf" points="346,-521.5 375,-521.5 "/>
<text text-anchor="middle" x="360.5" y="-509.5" font-family="Helvetica,sans-Serif" font-size="10.00" fill="#000000"> </text>
</g>
<!-- Node11&#45;&gt;Node10 -->
<g id="edge12" class="edge">
<title>Node11&#45;&gt;Node10</title>
<path fill="none" stroke="#191970" d="M365.7921,-492.1031C371.4735,-450.3449 380.4122,-384.6454 385.8377,-344.7678"/>
<polygon fill="none" stroke="#191970" points="362.3021,-491.7929 364.422,-502.1735 369.2382,-492.7366 362.3021,-491.7929"/>
</g>
<!-- Node12&#45;&gt;Node1 -->
<g id="edge13" class="edge">
<title>Node12&#45;&gt;Node1</title>
<path fill="none" stroke="#404040" d="M603.9727,-221.4316C588.1825,-170.3405 569.1316,-108.6989 556.9202,-69.1872"/>
<polygon fill="none" stroke="#404040" points="556.9046,-69.1365 551.3113,-64.5852 553.3612,-57.6716 558.9545,-62.2229 556.9046,-69.1365"/>
<text text-anchor="middle" x="604" y="-148" font-family="Helvetica,sans-Serif" font-size="10.00" fill="#000000"> +hphi</text>
<text text-anchor="middle" x="604" y="-137" font-family="Helvetica,sans-Serif" font-size="10.00" fill="#000000">+heta</text>
<text text-anchor="middle" x="604" y="-126" font-family="Helvetica,sans-Serif" font-size="10.00" fill="#000000">+hpt</text>
</g>
<!-- Node13 -->
<g id="node13" class="node">
<title>Node13</title>
<polygon fill="none" stroke="#bfbfbf" points="525,-690 525,-747 664,-747 664,-690 525,-690"/>
<text text-anchor="middle" x="594.5" y="-735" font-family="Helvetica,sans-Serif" font-size="10.00" fill="#000000">OutputObjHandlingPolicy</text>
<polyline fill="none" stroke="#bfbfbf" points="525,-728 664,-728 "/>
<text text-anchor="middle" x="594.5" y="-716" font-family="Helvetica,sans-Serif" font-size="10.00" fill="#000000"> </text>
<polyline fill="none" stroke="#bfbfbf" points="525,-709 664,-709 "/>
<text text-anchor="middle" x="594.5" y="-697" font-family="Helvetica,sans-Serif" font-size="10.00" fill="#000000"> </text>
</g>
<!-- Node13&#45;&gt;Node12 -->
<g id="edge14" class="edge">
<title>Node13&#45;&gt;Node12</title>
<path fill="none" stroke="#404040" d="M594.4795,-689.8646C594.7309,-640.2455 596.5284,-535.1388 606.5,-447 607.7865,-435.6288 609.4563,-423.778 611.3228,-412.0171"/>
<polygon fill="none" stroke="#404040" points="611.3818,-411.6579 608.4097,-405.0878 613.3313,-399.8173 616.3034,-406.3875 611.3818,-411.6579"/>
<text text-anchor="middle" x="627" y="-528.5" font-family="Helvetica,sans-Serif" font-size="10.00" fill="#000000"> +policy</text>
</g>
<!-- Node13&#45;&gt;Node20 -->
<g id="edge25" class="edge">
<title>Node13&#45;&gt;Node20</title>
<path fill="none" stroke="#404040" d="M611.4259,-689.695C624.0086,-670.7833 642.8726,-647.0345 665.5,-633 694.9988,-614.7036 710.4829,-630.5846 741.5,-615 742.5193,-614.4878 743.5372,-613.9634 744.5533,-613.4273"/>
<polygon fill="none" stroke="#404040" points="744.9314,-613.2118 748.1632,-606.7654 755.3567,-607.2692 752.1249,-613.7156 744.9314,-613.2118"/>
<text text-anchor="middle" x="686" y="-636" font-family="Helvetica,sans-Serif" font-size="10.00" fill="#000000"> +policy</text>
</g>
<!-- Node14 -->
<g id="node14" class="node">
<title>Node14</title>
<g id="a_node14"><a xlink:href="../../d3/d87/classuint32__t.html" target="_top" xlink:title="{uint32_t\n||}">
<polygon fill="none" stroke="#000000" points="685.5,-690 685.5,-747 741.5,-747 741.5,-690 685.5,-690"/>
<text text-anchor="middle" x="713.5" y="-735" font-family="Helvetica,sans-Serif" font-size="10.00" fill="#000000">uint32_t</text>
<polyline fill="none" stroke="#000000" points="685.5,-728 741.5,-728 "/>
<text text-anchor="middle" x="713.5" y="-716" font-family="Helvetica,sans-Serif" font-size="10.00" fill="#000000"> </text>
<polyline fill="none" stroke="#000000" points="685.5,-709 741.5,-709 "/>
<text text-anchor="middle" x="713.5" y="-697" font-family="Helvetica,sans-Serif" font-size="10.00" fill="#000000"> </text>
</a>
</g>
</g>
<!-- Node14&#45;&gt;Node12 -->
<g id="edge15" class="edge">
<title>Node14&#45;&gt;Node12</title>
<path fill="none" stroke="#404040" d="M702.3359,-689.8961C694.6792,-669.3325 684.8025,-640.797 678.5,-615 669.3155,-577.4066 655.4985,-485.0321 645.2198,-411.8125"/>
<polygon fill="none" stroke="#404040" points="645.1985,-411.6594 640.4065,-406.2709 643.5375,-399.7749 648.3295,-405.1635 645.1985,-411.6594"/>
<text text-anchor="middle" x="712.5" y="-528.5" font-family="Helvetica,sans-Serif" font-size="10.00" fill="#000000"> +mTaskHash</text>
</g>
<!-- Node14&#45;&gt;Node20 -->
<g id="edge26" class="edge">
<title>Node14&#45;&gt;Node20</title>
<path fill="none" stroke="#404040" d="M707.9083,-689.8969C705.9604,-672.4456 706.2015,-650.2529 715.5,-633 722.1679,-620.6279 730.3293,-623.5291 741.5,-615 742.936,-613.9035 744.3796,-612.7939 745.8288,-611.6731"/>
<polygon fill="none" stroke="#404040" points="746.0086,-611.5322 748.2653,-604.6833 755.4554,-604.1322 753.1987,-610.9811 746.0086,-611.5322"/>
<text text-anchor="middle" x="749.5" y="-636" font-family="Helvetica,sans-Serif" font-size="10.00" fill="#000000"> +mTaskHash</text>
</g>
<!-- Node15&#45;&gt;Node12 -->
<g id="edge18" class="edge">
<title>Node15&#45;&gt;Node12</title>
<path fill="none" stroke="#404040" d="M1043.7749,-662.4629C1054.7122,-648.0922 1064.6211,-631.8872 1070.5,-615 1095.0485,-544.4842 1114.7707,-507.1267 1070.5,-447 1028.1082,-389.4252 830.0384,-345.5821 714.9533,-324.4496"/>
<polygon fill="none" stroke="#404040" points="714.8647,-324.4336 708.2471,-327.2984 703.0574,-322.2917 709.675,-319.4269 714.8647,-324.4336"/>
<text text-anchor="middle" x="1113.5" y="-528.5" font-family="Helvetica,sans-Serif" font-size="10.00" fill="#000000"> +spec</text>
</g>
<!-- Node15&#45;&gt;Node20 -->
<g id="edge30" class="edge">
<title>Node15&#45;&gt;Node20</title>
<path fill="none" stroke="#404040" d="M944.5943,-662.4978C935.1315,-650.4279 924.883,-637.3559 914.6437,-624.2956"/>
<polygon fill="none" stroke="#404040" points="914.6049,-624.246 907.755,-621.9921 907.201,-614.8023 914.0508,-617.0562 914.6049,-624.246"/>
<text text-anchor="middle" x="944.5" y="-636" font-family="Helvetica,sans-Serif" font-size="10.00" fill="#000000"> +spec</text>
</g>
<!-- Node16 -->
<g id="node16" class="node">
<title>Node16</title>
<polygon fill="none" stroke="#bfbfbf" points="816.5,-844.5 816.5,-912.5 946.5,-912.5 946.5,-844.5 816.5,-844.5"/>
<text text-anchor="start" x="824.5" y="-900.5" font-family="Helvetica,sans-Serif" font-size="10.00" fill="#000000">vector&lt; o2::framework</text>
<text text-anchor="middle" x="881.5" y="-889.5" font-family="Helvetica,sans-Serif" font-size="10.00" fill="#000000">::ConfigParamSpec &gt;</text>
<polyline fill="none" stroke="#bfbfbf" points="816.5,-882.5 946.5,-882.5 "/>
<text text-anchor="middle" x="881.5" y="-870.5" font-family="Helvetica,sans-Serif" font-size="10.00" fill="#000000"> </text>
<polyline fill="none" stroke="#bfbfbf" points="816.5,-863.5 946.5,-863.5 "/>
<text text-anchor="middle" x="881.5" y="-851.5" font-family="Helvetica,sans-Serif" font-size="10.00" fill="#000000"> </text>
</g>
<!-- Node16&#45;&gt;Node15 -->
<g id="edge19" class="edge">
<title>Node16&#45;&gt;Node15</title>
<path fill="none" stroke="#404040" d="M901.838,-844.4369C911.4766,-828.6242 923.3085,-809.6768 934.5,-793 936.3151,-790.2953 938.1836,-787.5488 940.0855,-784.7844"/>
<polygon fill="none" stroke="#404040" points="940.2241,-784.5854 940.3711,-777.3758 947.0826,-774.7386 946.9357,-781.9482 940.2241,-784.5854"/>
<text text-anchor="middle" x="964" y="-801.5" font-family="Helvetica,sans-Serif" font-size="10.00" fill="#000000"> +metadata</text>
</g>
<!-- Node17 -->
<g id="node17" class="node">
<title>Node17</title>
<polygon fill="none" stroke="#bfbfbf" points="964.5,-850 964.5,-907 1052.5,-907 1052.5,-850 964.5,-850"/>
<text text-anchor="middle" x="1008.5" y="-895" font-family="Helvetica,sans-Serif" font-size="10.00" fill="#000000">enum Lifetime</text>
<polyline fill="none" stroke="#bfbfbf" points="964.5,-888 1052.5,-888 "/>
<text text-anchor="middle" x="1008.5" y="-876" font-family="Helvetica,sans-Serif" font-size="10.00" fill="#000000"> </text>
<polyline fill="none" stroke="#bfbfbf" points="964.5,-869 1052.5,-869 "/>
<text text-anchor="middle" x="1008.5" y="-857" font-family="Helvetica,sans-Serif" font-size="10.00" fill="#000000"> </text>
</g>
<!-- Node17&#45;&gt;Node15 -->
<g id="edge20" class="edge">
<title>Node17&#45;&gt;Node15</title>
<path fill="none" stroke="#404040" d="M1004.9244,-849.8952C1002.725,-832.3 999.8066,-808.9527 997.0404,-786.8235"/>
<polygon fill="none" stroke="#404040" points="997.0134,-786.6064 992.3,-781.1489 995.5249,-774.6991 1000.2382,-780.1566 997.0134,-786.6064"/>
<text text-anchor="middle" x="1024.5" y="-801.5" font-family="Helvetica,sans-Serif" font-size="10.00" fill="#000000"> +lifetime</text>
</g>
<!-- Node18 -->
<g id="node18" class="node">
<title>Node18</title>
<polygon fill="none" stroke="#bfbfbf" points="1070.5,-833.5 1070.5,-923.5 1234.5,-923.5 1234.5,-833.5 1070.5,-833.5"/>
<text text-anchor="start" x="1078.5" y="-911.5" font-family="Helvetica,sans-Serif" font-size="10.00" fill="#000000">variant&lt; o2::framework</text>
<text text-anchor="start" x="1078.5" y="-900.5" font-family="Helvetica,sans-Serif" font-size="10.00" fill="#000000">::ConcreteDataMatcher,</text>
<text text-anchor="start" x="1078.5" y="-889.5" font-family="Helvetica,sans-Serif" font-size="10.00" fill="#000000"> o2::framework::data_matcher</text>
<text text-anchor="middle" x="1152.5" y="-878.5" font-family="Helvetica,sans-Serif" font-size="10.00" fill="#000000">::DataDescriptorMatcher &gt;</text>
<polyline fill="none" stroke="#bfbfbf" points="1070.5,-871.5 1234.5,-871.5 "/>
<text text-anchor="middle" x="1152.5" y="-859.5" font-family="Helvetica,sans-Serif" font-size="10.00" fill="#000000"> </text>
<polyline fill="none" stroke="#bfbfbf" points="1070.5,-852.5 1234.5,-852.5 "/>
<text text-anchor="middle" x="1152.5" y="-840.5" font-family="Helvetica,sans-Serif" font-size="10.00" fill="#000000"> </text>
</g>
<!-- Node18&#45;&gt;Node15 -->
<g id="edge21" class="edge">
<title>Node18&#45;&gt;Node15</title>
<path fill="none" stroke="#404040" d="M1105.9429,-833.0784C1090.0565,-817.5795 1071.9723,-799.9364 1054.8361,-783.2181"/>
<polygon fill="none" stroke="#404040" points="1054.5674,-782.956 1047.4794,-781.6292 1045.978,-774.5761 1053.066,-775.9029 1054.5674,-782.956"/>
<text text-anchor="middle" x="1110.5" y="-801.5" font-family="Helvetica,sans-Serif" font-size="10.00" fill="#000000"> +matcher</text>
</g>
<!-- Node19 -->
<g id="node19" class="node">
<title>Node19</title>
<polygon fill="none" stroke="#bfbfbf" points="945.5,-502.5 945.5,-559.5 1061.5,-559.5 1061.5,-502.5 945.5,-502.5"/>
<text text-anchor="middle" x="1003.5" y="-547.5" font-family="Helvetica,sans-Serif" font-size="10.00" fill="#000000">shared_ptr&lt; TH1F &gt;</text>
<polyline fill="none" stroke="#bfbfbf" points="945.5,-540.5 1061.5,-540.5 "/>
<text text-anchor="middle" x="1003.5" y="-528.5" font-family="Helvetica,sans-Serif" font-size="10.00" fill="#000000"> </text>
<polyline fill="none" stroke="#bfbfbf" points="945.5,-521.5 1061.5,-521.5 "/>
<text text-anchor="middle" x="1003.5" y="-509.5" font-family="Helvetica,sans-Serif" font-size="10.00" fill="#000000"> </text>
</g>
<!-- Node19&#45;&gt;Node12 -->
<g id="edge23" class="edge">
<title>Node19&#45;&gt;Node12</title>
<path fill="none" stroke="#404040" d="M985.8169,-502.3816C973.6908,-484.6064 956.2599,-462.3091 936.5,-447 900.1863,-418.8657 792.0766,-373.3015 714.8993,-342.64"/>
<polygon fill="none" stroke="#404040" points="714.4307,-342.4547 707.3799,-343.967 703.2721,-338.0402 710.3229,-336.528 714.4307,-342.4547"/>
<text text-anchor="middle" x="928.5" y="-421" font-family="Helvetica,sans-Serif" font-size="10.00" fill="#000000"> +object</text>
</g>
<!-- Node20&#45;&gt;Node12 -->
<g id="edge24" class="edge">
<title>Node20&#45;&gt;Node12</title>
<path fill="none" stroke="#ffa500" d="M754.5345,-439.6863C737.4553,-421.753 719.7197,-403.1307 703.2091,-385.7946"/>
<polygon fill="#ffa500" stroke="#ffa500" points="752.3775,-442.4964 761.8086,-447.324 757.4465,-437.6688 752.3775,-442.4964"/>
<text text-anchor="middle" x="768" y="-421" font-family="Helvetica,sans-Serif" font-size="10.00" fill="#000000"> &lt; TH1F &gt;</text>
</g>
<!-- Node21 -->
<g id="node21" class="node">
<title>Node21</title>
<polygon fill="none" stroke="#bfbfbf" points="1082,-690 1082,-747 1179,-747 1179,-690 1082,-690"/>
<text text-anchor="middle" x="1130.5" y="-735" font-family="Helvetica,sans-Serif" font-size="10.00" fill="#000000">shared_ptr&lt; T &gt;</text>
<polyline fill="none" stroke="#bfbfbf" points="1082,-728 1179,-728 "/>
<text text-anchor="middle" x="1130.5" y="-716" font-family="Helvetica,sans-Serif" font-size="10.00" fill="#000000"> </text>
<polyline fill="none" stroke="#bfbfbf" points="1082,-709 1179,-709 "/>
<text text-anchor="middle" x="1130.5" y="-697" font-family="Helvetica,sans-Serif" font-size="10.00" fill="#000000"> </text>
</g>
<!-- Node21&#45;&gt;Node20 -->
<g id="edge28" class="edge">
<title>Node21&#45;&gt;Node20</title>
<path fill="none" stroke="#404040" d="M1103.7068,-689.7683C1093.4224,-679.9601 1081.1115,-669.569 1068.5,-662 1018.2326,-631.8312 993.1585,-644.8565 938.3153,-615.5141"/>
<polygon fill="none" stroke="#404040" points="938.1621,-615.4275 930.9705,-615.957 927.7157,-609.5222 934.9074,-608.9927 938.1621,-615.4275"/>
<text text-anchor="middle" x="1047.5" y="-636" font-family="Helvetica,sans-Serif" font-size="10.00" fill="#000000"> +object</text>
</g>
</g>
</svg>
        <g id="navigator" transform="translate(0 0)" fill="#404254">
                <rect fill="#f2f5e9" fill-opacity="0.5" stroke="#606060" stroke-width=".5" x="0" y="0" width="60" height="60"/>
                <use id="zoomplus" xlink:href="#zoomPlus" x="17" y="9" onmousedown="handleZoom(evt,'in')"/>
                <use id="zoomminus" xlink:href="#zoomMin" x="42" y="9" onmousedown="handleZoom(evt,'out')"/>
                <use id="reset" xlink:href="#resetDef" x="30" y="36" onmousedown="handleReset()"/>
                <g id="arrowUp" xlink:href="#dirArrow" transform="translate(30 24)" onmousedown="handlePan(0,-1)">
                  <use xlink:href="#rim" fill="#404040">
                        <set attributeName="fill" to="#808080" begin="arrowUp.mouseover" end="arrowUp.mouseout"/>
                  </use>
                  <path fill="none" stroke="white" stroke-width="1.5" d="M0,-3.0v7 M-2.5,-0.5L0,-3.0L2.5,-0.5"/>
                </g>
                <g id="arrowRight" xlink:href="#dirArrow" transform="rotate(90) translate(36 -43)" onmousedown="handlePan(1,0)">
                  <use xlink:href="#rim" fill="#404040">
                        <set attributeName="fill" to="#808080" begin="arrowRight.mouseover" end="arrowRight.mouseout"/>
                  </use>
                  <path fill="none" stroke="white" stroke-width="1.5" d="M0,-3.0v7 M-2.5,-0.5L0,-3.0L2.5,-0.5"/>
                </g>
                <g id="arrowDown" xlink:href="#dirArrow" transform="rotate(180) translate(-30 -48)" onmousedown="handlePan(0,1)">
                  <use xlink:href="#rim" fill="#404040">
                        <set attributeName="fill" to="#808080" begin="arrowDown.mouseover" end="arrowDown.mouseout"/>
                  </use>
                  <path fill="none" stroke="white" stroke-width="1.5" d="M0,-3.0v7 M-2.5,-0.5L0,-3.0L2.5,-0.5"/>
                </g>
                <g id="arrowLeft" xlink:href="#dirArrow" transform="rotate(270) translate(-36 17)" onmousedown="handlePan(-1,0)">
                  <use xlink:href="#rim" fill="#404040">
                        <set attributeName="fill" to="#808080" begin="arrowLeft.mouseover" end="arrowLeft.mouseout"/>
                  </use>
                  <path fill="none" stroke="white" stroke-width="1.5" d="M0,-3.0v7 M-2.5,-0.5L0,-3.0L2.5,-0.5"/>
                </g>
        </g>
        <svg viewBox="0 0 15 15" width="100%" height="30px" preserveAspectRatio="xMaxYMin meet">
         <g id="arrow_out" transform="scale(0.3 0.3)">
          <a xlink:href="structQATrackingKine__coll__graph_org.svg" target="_base">
           <rect id="button" ry="5" rx="5" y="6" x="6" height="38" width="38"
                fill="#f2f5e9" fill-opacity="0.5" stroke="#606060" stroke-width="1.0"/>
           <path id="arrow"
             d="M 11.500037,31.436501 C 11.940474,20.09759 22.043105,11.32322 32.158766,21.979434 L 37.068811,17.246167 C 37.068811,17.246167 37.088388,32 37.088388,32 L 22.160133,31.978069 C 22.160133,31.978069 26.997745,27.140456 26.997745,27.140456 C 18.528582,18.264221 13.291696,25.230495 11.500037,31.436501 z"
             style="fill:#404040;"/>
          </a>
         </g>
        </svg>
</svg>
