<?xml version="1.0" encoding="UTF-8" standalone="no"?>
<!DOCTYPE svg PUBLIC "-//W3C//DTD SVG 1.1//EN"
 "http://www.w3.org/Graphics/SVG/1.1/DTD/svg11.dtd">
<!-- Generated by graphviz version 2.40.1 (20161225.0304)
 -->
<!-- Title: /home/travis/build/AliceO2Group/AliceO2/Detectors/ITSMFT/MFT/workflow/src/ClusterReaderSpec.cxx Pages: 1 -->
<!--zoomable 430 -->
<svg id="main" version="1.1" xmlns="http://www.w3.org/2000/svg" xmlns:xlink="http://www.w3.org/1999/xlink" xml:space="preserve" onload="init(evt)">
<style type="text/css"><![CDATA[
.edge:hover path { stroke: red; }
.edge:hover polygon { stroke: red; fill: red; }
]]></style>
<script type="text/javascript"><![CDATA[
var edges = document.getElementsByTagName('g');
if (edges && edges.length) {
  for (var i=0;i<edges.length;i++) {
    if (edges[i].id.substr(0,4)=='edge') {
      edges[i].setAttribute('class','edge');
    }
  }
}
]]></script>
        <defs>
                <circle id="rim" cx="0" cy="0" r="7"/>
                <circle id="rim2" cx="0" cy="0" r="3.5"/>
                <g id="zoomPlus">
                        <use xlink:href="#rim" fill="#404040">
                                <set attributeName="fill" to="#808080" begin="zoomplus.mouseover" end="zoomplus.mouseout"/>
                        </use>
                        <path d="M-4,0h8M0,-4v8" fill="none" stroke="white" stroke-width="1.5" pointer-events="none"/>
                </g>
                <g id="zoomMin">
                        <use xlink:href="#rim" fill="#404040">
                                <set attributeName="fill" to="#808080" begin="zoomminus.mouseover" end="zoomminus.mouseout"/>
                        </use>
                        <path d="M-4,0h8" fill="none" stroke="white" stroke-width="1.5" pointer-events="none"/>
                </g>
                <g id="dirArrow">
                        <path fill="none" stroke="white" stroke-width="1.5" d="M0,-3.0v7 M-2.5,-0.5L0,-3.0L2.5,-0.5"/>
                </g>
               <g id="resetDef">
                       <use xlink:href="#rim2" fill="#404040">
                               <set attributeName="fill" to="#808080" begin="reset.mouseover" end="reset.mouseout"/>
                       </use>
               </g>
        </defs>

<script type="text/javascript">
var viewWidth = 1695;
var viewHeight = 430;
var sectionId = 'dynsection-0';
</script>
<script xlink:href="../../svgpan.js"/>
<svg id="graph" class="graph">
<g id="viewport">
<title>/home/travis/build/AliceO2Group/AliceO2/Detectors/ITSMFT/MFT/workflow/src/ClusterReaderSpec.cxx</title>
<!-- Node0 -->
<g id="node1" class="node">
<title>Node0</title>
<polygon fill="#bfbfbf" stroke="#000000" points="961.5,-369.5 961.5,-421.5 1157.5,-421.5 1157.5,-369.5 961.5,-369.5"/>
<text text-anchor="start" x="969.5" y="-409.5" font-family="Helvetica,sans-Serif" font-size="10.00" fill="#000000">/home/travis/build</text>
<text text-anchor="start" x="969.5" y="-398.5" font-family="Helvetica,sans-Serif" font-size="10.00" fill="#000000">/AliceO2Group/AliceO2</text>
<text text-anchor="start" x="969.5" y="-387.5" font-family="Helvetica,sans-Serif" font-size="10.00" fill="#000000">/Detectors/ITSMFT/MFT</text>
<text text-anchor="middle" x="1059.5" y="-376.5" font-family="Helvetica,sans-Serif" font-size="10.00" fill="#000000">/workflow/src/ClusterReaderSpec.cxx</text>
</g>
<!-- Node1 -->
<g id="node2" class="node">
<title>Node1</title>
<polygon fill="none" stroke="#bfbfbf" points="203,-118 203,-137 250,-137 250,-118 203,-118"/>
<text text-anchor="middle" x="226.5" y="-125" font-family="Helvetica,sans-Serif" font-size="10.00" fill="#000000">vector</text>
</g>
<!-- Node0&#45;&gt;Node1 -->
<g id="edge1" class="edge">
<title>Node0&#45;&gt;Node1</title>
<path fill="none" stroke="#191970" d="M961.2796,-389.461C803.0617,-379.1979 498.8533,-357.1074 393.5,-333 310.2884,-313.9592 262.2074,-336.1021 213.5,-266 188.4628,-229.9652 205.5123,-175.3172 217.5204,-146.6269"/>
<polygon fill="#191970" stroke="#191970" points="220.7949,-147.8758 221.6291,-137.3138 214.3905,-145.0503 220.7949,-147.8758"/>
</g>
<!-- Node2 -->
<g id="node3" class="node">
<title>Node2</title>
<polygon fill="none" stroke="#bfbfbf" points="1331.5,-302.5 1331.5,-332.5 1483.5,-332.5 1483.5,-302.5 1331.5,-302.5"/>
<text text-anchor="start" x="1339.5" y="-320.5" font-family="Helvetica,sans-Serif" font-size="10.00" fill="#000000">MFTWorkflow/ClusterReader</text>
<text text-anchor="middle" x="1407.5" y="-309.5" font-family="Helvetica,sans-Serif" font-size="10.00" fill="#000000">Spec.h</text>
</g>
<!-- Node0&#45;&gt;Node2 -->
<g id="edge2" class="edge">
<title>Node0&#45;&gt;Node2</title>
<path fill="none" stroke="#191970" d="M1157.8274,-373.4611C1212.5661,-361.1921 1279.7139,-346.1417 1330.5817,-334.7403"/>
<polygon fill="#191970" stroke="#191970" points="1331.5373,-338.113 1340.5297,-332.5106 1330.0062,-331.2825 1331.5373,-338.113"/>
</g>
<!-- Node3 -->
<g id="node4" class="node">
<title>Node3</title>
<polygon fill="none" stroke="#bfbfbf" points="1501.5,-308 1501.5,-327 1553.5,-327 1553.5,-308 1501.5,-308"/>
<text text-anchor="middle" x="1527.5" y="-315" font-family="Helvetica,sans-Serif" font-size="10.00" fill="#000000">TTree.h</text>
</g>
<!-- Node0&#45;&gt;Node3 -->
<g id="edge3" class="edge">
<title>Node0&#45;&gt;Node3</title>
<path fill="none" stroke="#191970" d="M1157.8403,-389.0047C1246.6666,-381.335 1380.2746,-365.2861 1492.5,-333 1494.4639,-332.435 1496.4609,-331.7821 1498.4549,-331.0706"/>
<polygon fill="#191970" stroke="#191970" points="1500.246,-334.1238 1508.2306,-327.1598 1497.6459,-327.6246 1500.246,-334.1238"/>
</g>
<!-- Node4 -->
<g id="node5" class="node">
<title>Node4</title>
<g id="a_node5"><a xlink:href="../../d2/d43/ControlService_8h.html" target="_top" xlink:title="Framework/ControlService.h">
<polygon fill="none" stroke="#000000" points="1005.5,-118 1005.5,-137 1159.5,-137 1159.5,-118 1005.5,-118"/>
<text text-anchor="middle" x="1082.5" y="-125" font-family="Helvetica,sans-Serif" font-size="10.00" fill="#000000">Framework/ControlService.h</text>
</a>
</g>
</g>
<!-- Node0&#45;&gt;Node4 -->
<g id="edge4" class="edge">
<title>Node0&#45;&gt;Node4</title>
<path fill="none" stroke="#191970" d="M1080.7067,-369.1412C1099.2776,-344.2407 1124.9034,-304.9918 1135.5,-266 1147.6399,-221.3295 1116.5825,-171.0865 1097.0183,-145.1343"/>
<polygon fill="#191970" stroke="#191970" points="1099.5858,-142.7359 1090.6672,-137.0166 1094.0726,-147.0493 1099.5858,-142.7359"/>
</g>
<!-- Node7 -->
<g id="node8" class="node">
<title>Node7</title>
<g id="a_node8"><a xlink:href="../../de/dc6/ConfigParamRegistry_8h.html" target="_top" xlink:title="Framework/ConfigParamRegistry.h">
<polygon fill="none" stroke="#000000" points="495.5,-308 495.5,-327 677.5,-327 677.5,-308 495.5,-308"/>
<text text-anchor="middle" x="586.5" y="-315" font-family="Helvetica,sans-Serif" font-size="10.00" fill="#000000">Framework/ConfigParamRegistry.h</text>
</a>
</g>
</g>
<!-- Node0&#45;&gt;Node7 -->
<g id="edge7" class="edge">
<title>Node0&#45;&gt;Node7</title>
<path fill="none" stroke="#191970" d="M961.4941,-379.3383C869.6324,-364.1899 734.7285,-341.9436 654.2459,-328.6716"/>
<polygon fill="#191970" stroke="#191970" points="654.6618,-325.193 644.2255,-327.0192 653.5228,-332.0997 654.6618,-325.193"/>
</g>
<!-- Node24 -->
<g id="node25" class="node">
<title>Node24</title>
<g id="a_node25"><a xlink:href="../../dd/da4/Logger_8h.html" target="_top" xlink:title="Framework/Logger.h">
<polygon fill="none" stroke="#000000" points="1572,-308 1572,-327 1687,-327 1687,-308 1572,-308"/>
<text text-anchor="middle" x="1629.5" y="-315" font-family="Helvetica,sans-Serif" font-size="10.00" fill="#000000">Framework/Logger.h</text>
</a>
</g>
</g>
<!-- Node0&#45;&gt;Node24 -->
<g id="edge32" class="edge">
<title>Node0&#45;&gt;Node24</title>
<path fill="none" stroke="#191970" d="M1157.7893,-386.3332C1259.5099,-376.1347 1422.7825,-357.7728 1562.5,-333 1568.6718,-331.9057 1575.13,-330.6084 1581.4976,-329.2373"/>
<polygon fill="#191970" stroke="#191970" points="1582.3734,-332.6281 1591.375,-327.0406 1580.8537,-325.795 1582.3734,-332.6281"/>
</g>
<!-- Node26 -->
<g id="node27" class="node">
<title>Node26</title>
<g id="a_node27"><a xlink:href="../../df/de4/CompCluster_8h.html" target="_top" xlink:title="Definition of the ITSMFT compact cluster. ">
<polygon fill="none" stroke="#000000" points="743.5,-308 743.5,-327 931.5,-327 931.5,-308 743.5,-308"/>
<text text-anchor="middle" x="837.5" y="-315" font-family="Helvetica,sans-Serif" font-size="10.00" fill="#000000">DataFormatsITSMFT/CompCluster.h</text>
</a>
</g>
</g>
<!-- Node0&#45;&gt;Node26 -->
<g id="edge34" class="edge">
<title>Node0&#45;&gt;Node26</title>
<path fill="none" stroke="#191970" d="M985.2686,-369.4187C948.0103,-356.3279 904.5213,-341.048 874.4137,-330.4697"/>
<polygon fill="#191970" stroke="#191970" points="875.3394,-327.0852 864.7446,-327.0724 873.019,-333.6895 875.3394,-327.0852"/>
</g>
<!-- Node28 -->
<g id="node29" class="node">
<title>Node28</title>
<g id="a_node29"><a xlink:href="../../d0/dc6/ITSMFT_2common_2include_2DataFormatsITSMFT_2ROFRecord_8h.html" target="_top" xlink:title="DataFormatsITSMFT/ROFRecord.h">
<polygon fill="none" stroke="#000000" points="1134,-308 1134,-327 1313,-327 1313,-308 1134,-308"/>
<text text-anchor="middle" x="1223.5" y="-315" font-family="Helvetica,sans-Serif" font-size="10.00" fill="#000000">DataFormatsITSMFT/ROFRecord.h</text>
</a>
</g>
</g>
<!-- Node0&#45;&gt;Node28 -->
<g id="edge36" class="edge">
<title>Node0&#45;&gt;Node28</title>
<path fill="none" stroke="#191970" d="M1114.5659,-369.3101C1141.1532,-356.665 1171.9903,-341.9985 1194.0543,-331.5046"/>
<polygon fill="#191970" stroke="#191970" points="1195.7037,-334.596 1203.231,-327.1401 1192.6971,-328.2745 1195.7037,-334.596"/>
</g>
<!-- Node35 -->
<g id="node36" class="node">
<title>Node35</title>
<g id="a_node36"><a xlink:href="../../d7/dcd/MCCompLabel_8h.html" target="_top" xlink:title="SimulationDataFormat\l/MCCompLabel.h">
<polygon fill="none" stroke="#000000" points="950,-302.5 950,-332.5 1077,-332.5 1077,-302.5 950,-302.5"/>
<text text-anchor="start" x="958" y="-320.5" font-family="Helvetica,sans-Serif" font-size="10.00" fill="#000000">SimulationDataFormat</text>
<text text-anchor="middle" x="1013.5" y="-309.5" font-family="Helvetica,sans-Serif" font-size="10.00" fill="#000000">/MCCompLabel.h</text>
</a>
</g>
</g>
<!-- Node0&#45;&gt;Node35 -->
<g id="edge47" class="edge">
<title>Node0&#45;&gt;Node35</title>
<path fill="none" stroke="#191970" d="M1043.9265,-369.0928C1038.5874,-360.0395 1032.6501,-349.972 1027.448,-341.151"/>
<polygon fill="#191970" stroke="#191970" points="1030.4435,-339.3403 1022.3488,-332.5046 1024.414,-342.8962 1030.4435,-339.3403"/>
</g>
<!-- Node36 -->
<g id="node37" class="node">
<title>Node36</title>
<g id="a_node37"><a xlink:href="../../db/d14/MCTruthContainer_8h.html" target="_top" xlink:title="Definition of a container to keep Monte Carlo truth external to simulation objects. ">
<polygon fill="none" stroke="#000000" points="223,-235.5 223,-265.5 350,-265.5 350,-235.5 223,-235.5"/>
<text text-anchor="start" x="231" y="-253.5" font-family="Helvetica,sans-Serif" font-size="10.00" fill="#000000">SimulationDataFormat</text>
<text text-anchor="middle" x="286.5" y="-242.5" font-family="Helvetica,sans-Serif" font-size="10.00" fill="#000000">/MCTruthContainer.h</text>
</a>
</g>
</g>
<!-- Node0&#45;&gt;Node36 -->
<g id="edge49" class="edge">
<title>Node0&#45;&gt;Node36</title>
<path fill="none" stroke="#191970" d="M961.3447,-388.1583C821.9396,-377.1561 573.8244,-355.292 486.5,-333 428.0441,-318.0775 364.208,-289.4027 324.7556,-270.1075"/>
<polygon fill="#191970" stroke="#191970" points="326.2684,-266.9511 315.7526,-265.6597 323.1679,-273.227 326.2684,-266.9511"/>
</g>
<!-- Node5 -->
<g id="node6" class="node">
<title>Node5</title>
<g id="a_node6"><a xlink:href="../../d3/d28/ServiceHandle_8h.html" target="_top" xlink:title="Framework/ServiceHandle.h">
<polygon fill="none" stroke="#000000" points="948,-56.5 948,-75.5 1101,-75.5 1101,-56.5 948,-56.5"/>
<text text-anchor="middle" x="1024.5" y="-63.5" font-family="Helvetica,sans-Serif" font-size="10.00" fill="#000000">Framework/ServiceHandle.h</text>
</a>
</g>
</g>
<!-- Node4&#45;&gt;Node5 -->
<g id="edge5" class="edge">
<title>Node4&#45;&gt;Node5</title>
<path fill="none" stroke="#191970" d="M1073.4375,-117.8906C1064.7207,-108.6478 1051.346,-94.466 1040.7804,-83.2628"/>
<polygon fill="#191970" stroke="#191970" points="1043.0976,-80.6186 1033.6903,-75.7449 1038.005,-85.4213 1043.0976,-80.6186"/>
</g>
<!-- Node6 -->
<g id="node7" class="node">
<title>Node6</title>
<polygon fill="none" stroke="#bfbfbf" points="648.5,-.5 648.5,-19.5 692.5,-19.5 692.5,-.5 648.5,-.5"/>
<text text-anchor="middle" x="670.5" y="-7.5" font-family="Helvetica,sans-Serif" font-size="10.00" fill="#000000">string</text>
</g>
<!-- Node5&#45;&gt;Node6 -->
<g id="edge6" class="edge">
<title>Node5&#45;&gt;Node6</title>
<path fill="none" stroke="#191970" d="M964.0475,-56.4369C888.4142,-44.4723 761.6716,-24.4226 702.6081,-15.0793"/>
<polygon fill="#191970" stroke="#191970" points="703.1511,-11.6217 692.727,-13.5161 702.0573,-18.5357 703.1511,-11.6217"/>
</g>
<!-- Node7&#45;&gt;Node6 -->
<g id="edge30" class="edge">
<title>Node7&#45;&gt;Node6</title>
<path fill="none" stroke="#191970" d="M657.9555,-307.9609C710.1038,-299.5305 774.8025,-285.5255 793.5,-266 841.4576,-215.9184 850.7462,-173.3863 818.5,-112 794.0928,-65.5366 737.8752,-36.0986 702.1797,-21.3701"/>
<polygon fill="#191970" stroke="#191970" points="703.2851,-18.0432 692.6994,-17.604 700.7008,-24.5487 703.2851,-18.0432"/>
</g>
<!-- Node8 -->
<g id="node9" class="node">
<title>Node8</title>
<g id="a_node9"><a xlink:href="../../df/d72/ParamRetriever_8h.html" target="_top" xlink:title="Framework/ParamRetriever.h">
<polygon fill="none" stroke="#000000" points="589,-179.5 589,-198.5 746,-198.5 746,-179.5 589,-179.5"/>
<text text-anchor="middle" x="667.5" y="-186.5" font-family="Helvetica,sans-Serif" font-size="10.00" fill="#000000">Framework/ParamRetriever.h</text>
</a>
</g>
</g>
<!-- Node7&#45;&gt;Node8 -->
<g id="edge8" class="edge">
<title>Node7&#45;&gt;Node8</title>
<path fill="none" stroke="#191970" d="M586.617,-307.7631C587.2495,-291.4186 590.451,-257.9989 605.5,-235 613.8626,-222.2197 627.065,-211.7028 639.1415,-203.9665"/>
<polygon fill="#191970" stroke="#191970" points="641.2944,-206.7558 648.0583,-198.6011 637.6853,-200.7579 641.2944,-206.7558"/>
</g>
<!-- Node20 -->
<g id="node21" class="node">
<title>Node20</title>
<g id="a_node21"><a xlink:href="../../dd/daf/ConfigParamStore_8h.html" target="_top" xlink:title="Framework/ConfigParamStore.h">
<polygon fill="none" stroke="#000000" points="614.5,-241 614.5,-260 784.5,-260 784.5,-241 614.5,-241"/>
<text text-anchor="middle" x="699.5" y="-248" font-family="Helvetica,sans-Serif" font-size="10.00" fill="#000000">Framework/ConfigParamStore.h</text>
</a>
</g>
</g>
<!-- Node7&#45;&gt;Node20 -->
<g id="edge24" class="edge">
<title>Node7&#45;&gt;Node20</title>
<path fill="none" stroke="#191970" d="M602.6901,-307.9005C621.4863,-296.7559 652.7016,-278.2477 674.5924,-265.2682"/>
<polygon fill="#191970" stroke="#191970" points="676.5233,-268.1924 683.3399,-260.0817 672.9531,-262.1712 676.5233,-268.1924"/>
</g>
<!-- Node21 -->
<g id="node22" class="node">
<title>Node21</title>
<polygon fill="none" stroke="#bfbfbf" points="445,-235.5 445,-265.5 558,-265.5 558,-235.5 445,-235.5"/>
<text text-anchor="start" x="453" y="-253.5" font-family="Helvetica,sans-Serif" font-size="10.00" fill="#000000">boost/property_tree</text>
<text text-anchor="middle" x="501.5" y="-242.5" font-family="Helvetica,sans-Serif" font-size="10.00" fill="#000000">/ptree.hpp</text>
</g>
<!-- Node7&#45;&gt;Node21 -->
<g id="edge28" class="edge">
<title>Node7&#45;&gt;Node21</title>
<path fill="none" stroke="#191970" d="M574.3216,-307.9005C562.4695,-298.5583 544.053,-284.0417 528.7063,-271.945"/>
<polygon fill="#191970" stroke="#191970" points="530.5777,-268.9635 520.5575,-265.5218 526.2444,-274.461 530.5777,-268.9635"/>
</g>
<!-- Node22 -->
<g id="node23" class="node">
<title>Node22</title>
<polygon fill="none" stroke="#bfbfbf" points="474.5,-179.5 474.5,-198.5 532.5,-198.5 532.5,-179.5 474.5,-179.5"/>
<text text-anchor="middle" x="503.5" y="-186.5" font-family="Helvetica,sans-Serif" font-size="10.00" fill="#000000">memory</text>
</g>
<!-- Node7&#45;&gt;Node22 -->
<g id="edge29" class="edge">
<title>Node7&#45;&gt;Node22</title>
<path fill="none" stroke="#191970" d="M540.3672,-307.9287C500.7116,-298.6546 447.9909,-283.4575 435.5,-266 427.4828,-254.795 429.0399,-247.1694 435.5,-235 442.8846,-221.0889 456.5636,-210.6166 469.7272,-203.2062"/>
<polygon fill="#191970" stroke="#191970" points="471.4124,-206.275 478.6745,-198.5605 468.1866,-200.0625 471.4124,-206.275"/>
</g>
<!-- Node23 -->
<g id="node24" class="node">
<title>Node23</title>
<polygon fill="none" stroke="#bfbfbf" points="404.5,-179.5 404.5,-198.5 456.5,-198.5 456.5,-179.5 404.5,-179.5"/>
<text text-anchor="middle" x="430.5" y="-186.5" font-family="Helvetica,sans-Serif" font-size="10.00" fill="#000000">cassert</text>
</g>
<!-- Node7&#45;&gt;Node23 -->
<g id="edge31" class="edge">
<title>Node7&#45;&gt;Node23</title>
<path fill="none" stroke="#191970" d="M536.0239,-307.96C494.2296,-298.9137 439.6464,-284.0421 426.5,-266 414.4722,-249.493 418.2026,-225.3102 423.1798,-208.465"/>
<polygon fill="#191970" stroke="#191970" points="426.6235,-209.2032 426.4775,-198.6094 419.9852,-206.982 426.6235,-209.2032"/>
</g>
<!-- Node8&#45;&gt;Node1 -->
<g id="edge23" class="edge">
<title>Node8&#45;&gt;Node1</title>
<path fill="none" stroke="#191970" d="M599.0776,-179.4581C503.152,-166.0807 332.3575,-142.2624 260.1814,-132.1971"/>
<polygon fill="#191970" stroke="#191970" points="260.6563,-128.7295 250.2687,-130.8147 259.6894,-135.6624 260.6563,-128.7295"/>
</g>
<!-- Node8&#45;&gt;Node6 -->
<g id="edge22" class="edge">
<title>Node8&#45;&gt;Node6</title>
<path fill="none" stroke="#191970" d="M667.6613,-179.3762C668.1334,-151.2097 669.5193,-68.5126 670.1636,-30.0713"/>
<polygon fill="#191970" stroke="#191970" points="673.6697,-29.7287 670.3379,-19.6714 666.6707,-29.6113 673.6697,-29.7287"/>
</g>
<!-- Node9 -->
<g id="node10" class="node">
<title>Node9</title>
<g id="a_node10"><a xlink:href="../../d0/d1c/ConfigParamSpec_8h.html" target="_top" xlink:title="Framework/ConfigParamSpec.h">
<polygon fill="none" stroke="#000000" points="474,-118 474,-137 641,-137 641,-118 474,-118"/>
<text text-anchor="middle" x="557.5" y="-125" font-family="Helvetica,sans-Serif" font-size="10.00" fill="#000000">Framework/ConfigParamSpec.h</text>
</a>
</g>
</g>
<!-- Node8&#45;&gt;Node9 -->
<g id="edge9" class="edge">
<title>Node8&#45;&gt;Node9</title>
<path fill="none" stroke="#191970" d="M650.3125,-179.3906C632.3918,-169.3713 604.0905,-153.5483 583.4477,-142.0071"/>
<polygon fill="#191970" stroke="#191970" points="585.0033,-138.867 574.5668,-137.0419 581.5872,-144.9769 585.0033,-138.867"/>
</g>
<!-- Node19 -->
<g id="node20" class="node">
<title>Node19</title>
<polygon fill="none" stroke="#bfbfbf" points="697,-112.5 697,-142.5 810,-142.5 810,-112.5 697,-112.5"/>
<text text-anchor="start" x="705" y="-130.5" font-family="Helvetica,sans-Serif" font-size="10.00" fill="#000000">boost/property_tree</text>
<text text-anchor="middle" x="753.5" y="-119.5" font-family="Helvetica,sans-Serif" font-size="10.00" fill="#000000">/ptree_fwd.hpp</text>
</g>
<!-- Node8&#45;&gt;Node19 -->
<g id="edge21" class="edge">
<title>Node8&#45;&gt;Node19</title>
<path fill="none" stroke="#191970" d="M680.9375,-179.3906C692.4688,-171.1444 709.4976,-158.9669 724.1611,-148.4807"/>
<polygon fill="#191970" stroke="#191970" points="726.3638,-151.2084 732.462,-142.5446 722.292,-145.5145 726.3638,-151.2084"/>
</g>
<!-- Node9&#45;&gt;Node6 -->
<g id="edge20" class="edge">
<title>Node9&#45;&gt;Node6</title>
<path fill="none" stroke="#191970" d="M566.7473,-117.8845C585.8675,-98.0028 629.9733,-52.1406 654.0637,-27.0908"/>
<polygon fill="#191970" stroke="#191970" points="656.716,-29.3823 661.125,-19.7484 651.6705,-24.53 656.716,-29.3823"/>
</g>
<!-- Node10 -->
<g id="node11" class="node">
<title>Node10</title>
<g id="a_node11"><a xlink:href="../../de/d56/Variant_8h.html" target="_top" xlink:title="Framework/Variant.h">
<polygon fill="none" stroke="#000000" points="235,-56.5 235,-75.5 352,-75.5 352,-56.5 235,-56.5"/>
<text text-anchor="middle" x="293.5" y="-63.5" font-family="Helvetica,sans-Serif" font-size="10.00" fill="#000000">Framework/Variant.h</text>
</a>
</g>
</g>
<!-- Node9&#45;&gt;Node10 -->
<g id="edge10" class="edge">
<title>Node9&#45;&gt;Node10</title>
<path fill="none" stroke="#191970" d="M516.5397,-117.9581C470.2005,-107.1632 394.676,-89.5694 344.5394,-77.8899"/>
<polygon fill="#191970" stroke="#191970" points="345.0898,-74.4244 334.5564,-75.5643 343.5016,-81.2419 345.0898,-74.4244"/>
</g>
<!-- Node10&#45;&gt;Node6 -->
<g id="edge19" class="edge">
<title>Node10&#45;&gt;Node6</title>
<path fill="none" stroke="#191970" d="M352.2255,-61.4349C419.4188,-55.4902 532.7778,-43.2624 638.4128,-19.9151"/>
<polygon fill="#191970" stroke="#191970" points="639.2934,-23.3045 648.2819,-17.6958 637.7576,-16.4751 639.2934,-23.3045"/>
</g>
<!-- Node11 -->
<g id="node12" class="node">
<title>Node11</title>
<g id="a_node12"><a xlink:href="../../d1/d76/RuntimeError_8h.html" target="_top" xlink:title="Framework/RuntimeError.h">
<polygon fill="none" stroke="#000000" points="348.5,-.5 348.5,-19.5 494.5,-19.5 494.5,-.5 348.5,-.5"/>
<text text-anchor="middle" x="421.5" y="-7.5" font-family="Helvetica,sans-Serif" font-size="10.00" fill="#000000">Framework/RuntimeError.h</text>
</a>
</g>
</g>
<!-- Node10&#45;&gt;Node11 -->
<g id="edge11" class="edge">
<title>Node10&#45;&gt;Node11</title>
<path fill="none" stroke="#191970" d="M315.504,-56.3733C336.1435,-47.3435 367.2158,-33.7494 390.3889,-23.6111"/>
<polygon fill="#191970" stroke="#191970" points="392.0245,-26.7159 399.7831,-19.5011 389.2187,-20.3028 392.0245,-26.7159"/>
</g>
<!-- Node12 -->
<g id="node13" class="node">
<title>Node12</title>
<polygon fill="none" stroke="#bfbfbf" points="0,-.5 0,-19.5 69,-19.5 69,-.5 0,-.5"/>
<text text-anchor="middle" x="34.5" y="-7.5" font-family="Helvetica,sans-Serif" font-size="10.00" fill="#000000">type_traits</text>
</g>
<!-- Node10&#45;&gt;Node12 -->
<g id="edge12" class="edge">
<title>Node10&#45;&gt;Node12</title>
<path fill="none" stroke="#191970" d="M248.1641,-56.4748C206.7531,-47.735 143.5664,-34.3017 79.0254,-20.0956"/>
<polygon fill="#191970" stroke="#191970" points="79.597,-16.6376 69.0779,-17.9022 78.0896,-23.4734 79.597,-16.6376"/>
</g>
<!-- Node13 -->
<g id="node14" class="node">
<title>Node13</title>
<polygon fill="none" stroke="#bfbfbf" points="87.5,-.5 87.5,-19.5 137.5,-19.5 137.5,-.5 87.5,-.5"/>
<text text-anchor="middle" x="112.5" y="-7.5" font-family="Helvetica,sans-Serif" font-size="10.00" fill="#000000">cstring</text>
</g>
<!-- Node10&#45;&gt;Node13 -->
<g id="edge13" class="edge">
<title>Node10&#45;&gt;Node13</title>
<path fill="none" stroke="#191970" d="M262.385,-56.3733C230.4168,-46.4825 180.7485,-31.1156 147.4472,-20.8124"/>
<polygon fill="#191970" stroke="#191970" points="148.2632,-17.4012 137.6755,-17.7891 146.1942,-24.0885 148.2632,-17.4012"/>
</g>
<!-- Node14 -->
<g id="node15" class="node">
<title>Node14</title>
<polygon fill="none" stroke="#bfbfbf" points="580.5,-.5 580.5,-19.5 630.5,-19.5 630.5,-.5 580.5,-.5"/>
<text text-anchor="middle" x="605.5" y="-7.5" font-family="Helvetica,sans-Serif" font-size="10.00" fill="#000000">cstdint</text>
</g>
<!-- Node10&#45;&gt;Node14 -->
<g id="edge14" class="edge">
<title>Node10&#45;&gt;Node14</title>
<path fill="none" stroke="#191970" d="M352.2898,-57.0418C420.868,-46.4504 530.0157,-29.1139 570.5,-20 570.6002,-19.9774 570.7005,-19.9548 570.801,-19.932"/>
<polygon fill="#191970" stroke="#191970" points="571.4942,-23.3663 580.353,-17.5549 569.8037,-16.5735 571.4942,-23.3663"/>
</g>
<!-- Node15 -->
<g id="node16" class="node">
<title>Node15</title>
<polygon fill="none" stroke="#bfbfbf" points="513,-.5 513,-19.5 562,-19.5 562,-.5 513,-.5"/>
<text text-anchor="middle" x="537.5" y="-7.5" font-family="Helvetica,sans-Serif" font-size="10.00" fill="#000000">cstdlib</text>
</g>
<!-- Node10&#45;&gt;Node15 -->
<g id="edge15" class="edge">
<title>Node10&#45;&gt;Node15</title>
<path fill="none" stroke="#191970" d="M341.6848,-56.4509C382.2275,-48.1896 441.9222,-35.4988 502.8817,-20.0278"/>
<polygon fill="#191970" stroke="#191970" points="503.8538,-23.3919 512.6734,-17.5212 502.1178,-16.6106 503.8538,-23.3919"/>
</g>
<!-- Node16 -->
<g id="node17" class="node">
<title>Node16</title>
<polygon fill="none" stroke="#bfbfbf" points="965,-.5 965,-19.5 1014,-19.5 1014,-.5 965,-.5"/>
<text text-anchor="middle" x="989.5" y="-7.5" font-family="Helvetica,sans-Serif" font-size="10.00" fill="#000000">iosfwd</text>
</g>
<!-- Node10&#45;&gt;Node16 -->
<g id="edge16" class="edge">
<title>Node10&#45;&gt;Node16</title>
<path fill="none" stroke="#191970" d="M352.2407,-61.2737C492.4107,-49.9957 843.0904,-21.7801 954.7642,-12.7948"/>
<polygon fill="#191970" stroke="#191970" points="955.1231,-16.2774 964.8101,-11.9865 954.5616,-9.2999 955.1231,-16.2774"/>
</g>
<!-- Node17 -->
<g id="node18" class="node">
<title>Node17</title>
<polygon fill="none" stroke="#bfbfbf" points="156,-.5 156,-19.5 239,-19.5 239,-.5 156,-.5"/>
<text text-anchor="middle" x="197.5" y="-7.5" font-family="Helvetica,sans-Serif" font-size="10.00" fill="#000000">initializer_list</text>
</g>
<!-- Node10&#45;&gt;Node17 -->
<g id="edge17" class="edge">
<title>Node10&#45;&gt;Node17</title>
<path fill="none" stroke="#191970" d="M276.7781,-56.2455C261.9111,-47.5731 239.9534,-34.7645 222.9142,-24.825"/>
<polygon fill="#191970" stroke="#191970" points="224.4317,-21.6582 214.0303,-19.6427 220.9045,-27.7047 224.4317,-21.6582"/>
</g>
<!-- Node18 -->
<g id="node19" class="node">
<title>Node18</title>
<polygon fill="none" stroke="#bfbfbf" points="257,-.5 257,-19.5 330,-19.5 330,-.5 257,-.5"/>
<text text-anchor="middle" x="293.5" y="-7.5" font-family="Helvetica,sans-Serif" font-size="10.00" fill="#000000">string_view</text>
</g>
<!-- Node10&#45;&gt;Node18 -->
<g id="edge18" class="edge">
<title>Node10&#45;&gt;Node18</title>
<path fill="none" stroke="#191970" d="M293.5,-56.2455C293.5,-48.9382 293.5,-38.6944 293.5,-29.7046"/>
<polygon fill="#191970" stroke="#191970" points="297.0001,-29.6426 293.5,-19.6427 290.0001,-29.6427 297.0001,-29.6426"/>
</g>
<!-- Node20&#45;&gt;Node8 -->
<g id="edge25" class="edge">
<title>Node20&#45;&gt;Node8</title>
<path fill="none" stroke="#191970" d="M694.5,-240.8906C689.9242,-232.0965 683.0219,-218.8312 677.3417,-207.9145"/>
<polygon fill="#191970" stroke="#191970" points="680.2912,-206.0003 672.5705,-198.7449 674.0815,-209.2314 680.2912,-206.0003"/>
</g>
<!-- Node20&#45;&gt;Node9 -->
<g id="edge26" class="edge">
<title>Node20&#45;&gt;Node9</title>
<path fill="none" stroke="#191970" d="M654.0454,-240.9397C628.8938,-233.4612 598.8938,-220.5862 579.5,-199 566.6484,-184.6956 561.3035,-163.0201 559.081,-147.2849"/>
<polygon fill="#191970" stroke="#191970" points="562.5292,-146.6225 557.9519,-137.0675 555.5716,-147.3915 562.5292,-146.6225"/>
</g>
<!-- Node20&#45;&gt;Node19 -->
<g id="edge27" class="edge">
<title>Node20&#45;&gt;Node19</title>
<path fill="none" stroke="#191970" d="M715.44,-240.9394C728.6837,-231.9777 746.5903,-217.2424 754.5,-199 760.7573,-184.5687 760.5757,-166.9079 758.7961,-152.7494"/>
<polygon fill="#191970" stroke="#191970" points="762.2281,-152.0443 757.204,-142.7165 755.3146,-153.1415 762.2281,-152.0443"/>
</g>
<!-- Node25 -->
<g id="node26" class="node">
<title>Node25</title>
<polygon fill="none" stroke="#bfbfbf" points="1575.5,-241 1575.5,-260 1683.5,-260 1683.5,-241 1575.5,-241"/>
<text text-anchor="middle" x="1629.5" y="-248" font-family="Helvetica,sans-Serif" font-size="10.00" fill="#000000">fairlogger/Logger.h</text>
</g>
<!-- Node24&#45;&gt;Node25 -->
<g id="edge33" class="edge">
<title>Node24&#45;&gt;Node25</title>
<path fill="none" stroke="#191970" d="M1629.5,-307.9005C1629.5,-298.149 1629.5,-282.7597 1629.5,-270.3695"/>
<polygon fill="#191970" stroke="#191970" points="1633.0001,-270.0816 1629.5,-260.0817 1626.0001,-270.0817 1633.0001,-270.0816"/>
</g>
<!-- Node27 -->
<g id="node28" class="node">
<title>Node27</title>
<polygon fill="none" stroke="#bfbfbf" points="880,-118 880,-137 939,-137 939,-118 880,-118"/>
<text text-anchor="middle" x="909.5" y="-125" font-family="Helvetica,sans-Serif" font-size="10.00" fill="#000000">Rtypes.h</text>
</g>
<!-- Node26&#45;&gt;Node27 -->
<g id="edge35" class="edge">
<title>Node26&#45;&gt;Node27</title>
<path fill="none" stroke="#191970" d="M838.2814,-307.9669C840.4732,-284.8235 847.9932,-224.2462 869.5,-179 875.4392,-166.505 884.8229,-154.2039 893.0093,-144.7588"/>
<polygon fill="#191970" stroke="#191970" points="895.6753,-147.0287 899.7785,-137.2607 890.4795,-142.338 895.6753,-147.0287"/>
</g>
<!-- Node29 -->
<g id="node30" class="node">
<title>Node29</title>
<g id="a_node30"><a xlink:href="../../de/d64/RangeReference_8h.html" target="_top" xlink:title="Class to refer to the 1st entry and N elements of some group in the continuous container. ">
<polygon fill="none" stroke="#000000" points="916.5,-241 916.5,-260 1126.5,-260 1126.5,-241 916.5,-241"/>
<text text-anchor="middle" x="1021.5" y="-248" font-family="Helvetica,sans-Serif" font-size="10.00" fill="#000000">CommonDataFormat/RangeReference.h</text>
</a>
</g>
</g>
<!-- Node28&#45;&gt;Node29 -->
<g id="edge37" class="edge">
<title>Node28&#45;&gt;Node29</title>
<path fill="none" stroke="#191970" d="M1194.5583,-307.9005C1159.1582,-296.1589 1099.1149,-276.2436 1059.8855,-263.2318"/>
<polygon fill="#191970" stroke="#191970" points="1060.9814,-259.9079 1050.388,-260.0817 1058.7776,-266.5519 1060.9814,-259.9079"/>
</g>
<!-- Node31 -->
<g id="node32" class="node">
<title>Node31</title>
<g id="a_node32"><a xlink:href="../../d9/d80/InteractionRecord_8h.html" target="_top" xlink:title="CommonDataFormat/Interaction\lRecord.h">
<polygon fill="none" stroke="#000000" points="1258.5,-235.5 1258.5,-265.5 1432.5,-265.5 1432.5,-235.5 1258.5,-235.5"/>
<text text-anchor="start" x="1266.5" y="-253.5" font-family="Helvetica,sans-Serif" font-size="10.00" fill="#000000">CommonDataFormat/Interaction</text>
<text text-anchor="middle" x="1345.5" y="-242.5" font-family="Helvetica,sans-Serif" font-size="10.00" fill="#000000">Record.h</text>
</a>
</g>
</g>
<!-- Node28&#45;&gt;Node31 -->
<g id="edge40" class="edge">
<title>Node28&#45;&gt;Node31</title>
<path fill="none" stroke="#191970" d="M1240.9796,-307.9005C1258.6996,-298.1691 1286.6431,-282.823 1309.1803,-270.4461"/>
<polygon fill="#191970" stroke="#191970" points="1311.0665,-273.4033 1318.1469,-265.5218 1307.6969,-267.2677 1311.0665,-273.4033"/>
</g>
<!-- Node34 -->
<g id="node35" class="node">
<title>Node34</title>
<polygon fill="none" stroke="#bfbfbf" points="1183,-241 1183,-260 1240,-260 1240,-241 1183,-241"/>
<text text-anchor="middle" x="1211.5" y="-248" font-family="Helvetica,sans-Serif" font-size="10.00" fill="#000000">gsl/span</text>
</g>
<!-- Node28&#45;&gt;Node34 -->
<g id="edge46" class="edge">
<title>Node28&#45;&gt;Node34</title>
<path fill="none" stroke="#191970" d="M1221.7807,-307.9005C1220.0163,-298.0495 1217.2215,-282.4451 1214.991,-269.9912"/>
<polygon fill="#191970" stroke="#191970" points="1218.4244,-269.308 1213.2161,-260.0817 1211.534,-270.5421 1218.4244,-269.308"/>
</g>
<!-- Node30 -->
<g id="node31" class="node">
<title>Node30</title>
<g id="a_node31"><a xlink:href="../../d2/d45/GPUCommonRtypes_8h.html" target="_top" xlink:title="GPUCommonRtypes.h">
<polygon fill="none" stroke="#000000" points="879,-179.5 879,-198.5 1004,-198.5 1004,-179.5 879,-179.5"/>
<text text-anchor="middle" x="941.5" y="-186.5" font-family="Helvetica,sans-Serif" font-size="10.00" fill="#000000">GPUCommonRtypes.h</text>
</a>
</g>
</g>
<!-- Node29&#45;&gt;Node30 -->
<g id="edge38" class="edge">
<title>Node29&#45;&gt;Node30</title>
<path fill="none" stroke="#191970" d="M1009,-240.8906C996.4364,-231.2324 976.8577,-216.1812 962.0151,-204.771"/>
<polygon fill="#191970" stroke="#191970" points="963.9735,-201.8618 953.9122,-198.5419 959.7072,-207.4115 963.9735,-201.8618"/>
</g>
<!-- Node30&#45;&gt;Node27 -->
<g id="edge39" class="edge">
<title>Node30&#45;&gt;Node27</title>
<path fill="none" stroke="#191970" d="M936.5,-179.3906C931.9242,-170.5965 925.0219,-157.3312 919.3417,-146.4145"/>
<polygon fill="#191970" stroke="#191970" points="922.2912,-144.5003 914.5705,-137.2449 916.0815,-147.7314 922.2912,-144.5003"/>
</g>
<!-- Node31&#45;&gt;Node14 -->
<g id="edge43" class="edge">
<title>Node31&#45;&gt;Node14</title>
<path fill="none" stroke="#191970" d="M1277.5428,-235.4506C1205.6887,-218.202 1090.0245,-186.5871 996.5,-143 973.4815,-132.2722 971.5706,-122.6154 948.5,-112 944.8822,-110.3353 726.8381,-45.849 640.3223,-20.2856"/>
<polygon fill="#191970" stroke="#191970" points="641.2678,-16.9154 630.6859,-17.4385 639.2843,-23.6285 641.2678,-16.9154"/>
</g>
<!-- Node31&#45;&gt;Node16 -->
<g id="edge42" class="edge">
<title>Node31&#45;&gt;Node16</title>
<path fill="none" stroke="#191970" d="M1327.7913,-235.2723C1277.2691,-191.9098 1134.5268,-69.9919 1110.5,-56 1083.0189,-39.9966 1048.9488,-27.6304 1023.9701,-19.7701"/>
<polygon fill="#191970" stroke="#191970" points="1024.7909,-16.3611 1014.2043,-16.7801 1022.7415,-23.0544 1024.7909,-16.3611"/>
</g>
<!-- Node31&#45;&gt;Node30 -->
<g id="edge41" class="edge">
<title>Node31&#45;&gt;Node30</title>
<path fill="none" stroke="#191970" d="M1258.3862,-236.3887C1255.3883,-235.9177 1252.4194,-235.4537 1249.5,-235 1169.0352,-222.4959 1076.6392,-208.7824 1014.2037,-199.6109"/>
<polygon fill="#191970" stroke="#191970" points="1014.4645,-196.1118 1004.0622,-198.1224 1013.4479,-203.0376 1014.4645,-196.1118"/>
</g>
<!-- Node32 -->
<g id="node33" class="node">
<title>Node32</title>
<polygon fill="none" stroke="#bfbfbf" points="1296,-179.5 1296,-198.5 1343,-198.5 1343,-179.5 1296,-179.5"/>
<text text-anchor="middle" x="1319.5" y="-186.5" font-family="Helvetica,sans-Serif" font-size="10.00" fill="#000000">cmath</text>
</g>
<!-- Node31&#45;&gt;Node32 -->
<g id="edge44" class="edge">
<title>Node31&#45;&gt;Node32</title>
<path fill="none" stroke="#191970" d="M1339.073,-235.2977C1335.6143,-227.1166 1331.3133,-216.943 1327.6246,-208.2179"/>
<polygon fill="#191970" stroke="#191970" points="1330.7807,-206.6947 1323.6629,-198.8469 1324.3332,-209.4205 1330.7807,-206.6947"/>
</g>
<!-- Node33 -->
<g id="node34" class="node">
<title>Node33</title>
<g id="a_node34"><a xlink:href="../../d4/dc6/LHCConstants_8h.html" target="_top" xlink:title="Header to collect LHC related constants. ">
<polygon fill="none" stroke="#000000" points="1361.5,-179.5 1361.5,-198.5 1551.5,-198.5 1551.5,-179.5 1361.5,-179.5"/>
<text text-anchor="middle" x="1456.5" y="-186.5" font-family="Helvetica,sans-Serif" font-size="10.00" fill="#000000">CommonConstants/LHCConstants.h</text>
</a>
</g>
</g>
<!-- Node31&#45;&gt;Node33 -->
<g id="edge45" class="edge">
<title>Node31&#45;&gt;Node33</title>
<path fill="none" stroke="#191970" d="M1372.6537,-235.4554C1390.1995,-225.734 1412.9122,-213.15 1430.2721,-203.5317"/>
<polygon fill="#191970" stroke="#191970" points="1432.248,-206.4383 1439.2989,-198.5303 1428.8555,-200.3153 1432.248,-206.4383"/>
</g>
<!-- Node35&#45;&gt;Node30 -->
<g id="edge48" class="edge">
<title>Node35&#45;&gt;Node30</title>
<path fill="none" stroke="#191970" d="M954.6438,-302.4036C936.3494,-294.6438 918.1924,-283.0825 907.5,-266 895.4176,-246.6968 910.6441,-222.3617 924.409,-206.2739"/>
<polygon fill="#191970" stroke="#191970" points="927.1763,-208.4333 931.3215,-198.6831 922.0007,-203.7202 927.1763,-208.4333"/>
</g>
<!-- Node36&#45;&gt;Node1 -->
<g id="edge58" class="edge">
<title>Node36&#45;&gt;Node1</title>
<path fill="none" stroke="#191970" d="M271.7319,-235.4422C262.9676,-225.7477 252.2788,-212.4766 245.5,-199 237.2214,-182.5417 232.255,-162.08 229.4881,-147.2681"/>
<polygon fill="#191970" stroke="#191970" points="232.9041,-146.4772 227.7826,-137.2024 226.0024,-147.6466 232.9041,-146.4772"/>
</g>
<!-- Node36&#45;&gt;Node12 -->
<g id="edge55" class="edge">
<title>Node36&#45;&gt;Node12</title>
<path fill="none" stroke="#191970" d="M222.8137,-243.4337C189.0402,-236.7989 148.7995,-223.9359 120.5,-199 68.0645,-152.7969 45.7271,-68.1851 37.9727,-29.8328"/>
<polygon fill="#191970" stroke="#191970" points="41.3924,-29.0802 36.0877,-19.909 34.5154,-30.3865 41.3924,-29.0802"/>
</g>
<!-- Node36&#45;&gt;Node13 -->
<g id="edge56" class="edge">
<title>Node36&#45;&gt;Node13</title>
<path fill="none" stroke="#191970" d="M222.6842,-235.7682C187.1945,-226.2452 147.9282,-213.0404 136.5,-199 96.1953,-149.4827 103.0269,-67.1827 108.8263,-29.6916"/>
<polygon fill="#191970" stroke="#191970" points="112.3196,-30.0252 110.5396,-19.581 105.4179,-28.8556 112.3196,-30.0252"/>
</g>
<!-- Node36&#45;&gt;Node14 -->
<g id="edge51" class="edge">
<title>Node36&#45;&gt;Node14</title>
<path fill="none" stroke="#191970" d="M263.0603,-235.3426C225.4837,-209.2005 159.2942,-154.3653 193.5,-112 241.1975,-52.9247 286.6856,-93.787 360.5,-76 454.4069,-53.3713 477.3906,-45.7138 570.5,-20 570.599,-19.9727 570.6981,-19.9453 570.7974,-19.9178"/>
<polygon fill="#191970" stroke="#191970" points="571.5937,-23.3296 580.28,-17.2633 569.7066,-16.5887 571.5937,-23.3296"/>
</g>
<!-- Node36&#45;&gt;Node22 -->
<g id="edge57" class="edge">
<title>Node36&#45;&gt;Node22</title>
<path fill="none" stroke="#191970" d="M339.5842,-235.4554C378.184,-224.5158 429.5749,-209.9511 464.4508,-200.0669"/>
<polygon fill="#191970" stroke="#191970" points="465.6012,-203.3788 474.2679,-197.2847 463.6924,-196.6441 465.6012,-203.3788"/>
</g>
<!-- Node36&#45;&gt;Node23 -->
<g id="edge52" class="edge">
<title>Node36&#45;&gt;Node23</title>
<path fill="none" stroke="#191970" d="M321.7264,-235.4554C345.3316,-225.374 376.1454,-212.2139 398.9476,-202.4755"/>
<polygon fill="#191970" stroke="#191970" points="400.3634,-205.6767 408.1851,-198.5303 397.614,-199.2393 400.3634,-205.6767"/>
</g>
<!-- Node36&#45;&gt;Node30 -->
<g id="edge50" class="edge">
<title>Node36&#45;&gt;Node30</title>
<path fill="none" stroke="#191970" d="M350.288,-243.6804C376.6573,-240.9091 407.5442,-237.7247 435.5,-235 589.6108,-219.9798 770.2853,-203.93 868.635,-195.3247"/>
<polygon fill="#191970" stroke="#191970" points="869.1053,-198.7971 878.7625,-194.4395 868.4956,-191.8236 869.1053,-198.7971"/>
</g>
<!-- Node37 -->
<g id="node38" class="node">
<title>Node37</title>
<polygon fill="none" stroke="#bfbfbf" points="255,-179.5 255,-198.5 320,-198.5 320,-179.5 255,-179.5"/>
<text text-anchor="middle" x="287.5" y="-186.5" font-family="Helvetica,sans-Serif" font-size="10.00" fill="#000000">stdexcept</text>
</g>
<!-- Node36&#45;&gt;Node37 -->
<g id="edge53" class="edge">
<title>Node36&#45;&gt;Node37</title>
<path fill="none" stroke="#191970" d="M286.7472,-235.2977C286.8759,-227.3834 287.0349,-217.6043 287.1736,-209.0759"/>
<polygon fill="#191970" stroke="#191970" points="290.6767,-208.9025 287.3399,-198.8469 283.6777,-208.7887 290.6767,-208.9025"/>
</g>
<!-- Node38 -->
<g id="node39" class="node">
<title>Node38</title>
<polygon fill="none" stroke="#bfbfbf" points="338.5,-179.5 338.5,-198.5 386.5,-198.5 386.5,-179.5 338.5,-179.5"/>
<text text-anchor="middle" x="362.5" y="-186.5" font-family="Helvetica,sans-Serif" font-size="10.00" fill="#000000">gsl/gsl</text>
</g>
<!-- Node36&#45;&gt;Node38 -->
<g id="edge54" class="edge">
<title>Node36&#45;&gt;Node38</title>
<path fill="none" stroke="#191970" d="M305.2865,-235.2977C316.6053,-226.1384 331.0105,-214.4816 342.5346,-205.1562"/>
<polygon fill="#191970" stroke="#191970" points="344.7595,-207.8583 350.3314,-198.8469 340.3561,-202.4167 344.7595,-207.8583"/>
</g>
</g>
</svg>
        <g id="navigator" transform="translate(0 0)" fill="#404254">
                <rect fill="#f2f5e9" fill-opacity="0.5" stroke="#606060" stroke-width=".5" x="0" y="0" width="60" height="60"/>
                <use id="zoomplus" xlink:href="#zoomPlus" x="17" y="9" onmousedown="handleZoom(evt,'in')"/>
                <use id="zoomminus" xlink:href="#zoomMin" x="42" y="9" onmousedown="handleZoom(evt,'out')"/>
                <use id="reset" xlink:href="#resetDef" x="30" y="36" onmousedown="handleReset()"/>
                <g id="arrowUp" xlink:href="#dirArrow" transform="translate(30 24)" onmousedown="handlePan(0,-1)">
                  <use xlink:href="#rim" fill="#404040">
                        <set attributeName="fill" to="#808080" begin="arrowUp.mouseover" end="arrowUp.mouseout"/>
                  </use>
                  <path fill="none" stroke="white" stroke-width="1.5" d="M0,-3.0v7 M-2.5,-0.5L0,-3.0L2.5,-0.5"/>
                </g>
                <g id="arrowRight" xlink:href="#dirArrow" transform="rotate(90) translate(36 -43)" onmousedown="handlePan(1,0)">
                  <use xlink:href="#rim" fill="#404040">
                        <set attributeName="fill" to="#808080" begin="arrowRight.mouseover" end="arrowRight.mouseout"/>
                  </use>
                  <path fill="none" stroke="white" stroke-width="1.5" d="M0,-3.0v7 M-2.5,-0.5L0,-3.0L2.5,-0.5"/>
                </g>
                <g id="arrowDown" xlink:href="#dirArrow" transform="rotate(180) translate(-30 -48)" onmousedown="handlePan(0,1)">
                  <use xlink:href="#rim" fill="#404040">
                        <set attributeName="fill" to="#808080" begin="arrowDown.mouseover" end="arrowDown.mouseout"/>
                  </use>
                  <path fill="none" stroke="white" stroke-width="1.5" d="M0,-3.0v7 M-2.5,-0.5L0,-3.0L2.5,-0.5"/>
                </g>
                <g id="arrowLeft" xlink:href="#dirArrow" transform="rotate(270) translate(-36 17)" onmousedown="handlePan(-1,0)">
                  <use xlink:href="#rim" fill="#404040">
                        <set attributeName="fill" to="#808080" begin="arrowLeft.mouseover" end="arrowLeft.mouseout"/>
                  </use>
                  <path fill="none" stroke="white" stroke-width="1.5" d="M0,-3.0v7 M-2.5,-0.5L0,-3.0L2.5,-0.5"/>
                </g>
        </g>
        <svg viewBox="0 0 15 15" width="100%" height="30px" preserveAspectRatio="xMaxYMin meet">
         <g id="arrow_out" transform="scale(0.3 0.3)">
          <a xlink:href="ITSMFT_2MFT_2workflow_2src_2ClusterReaderSpec_8cxx__incl_org.svg" target="_base">
           <rect id="button" ry="5" rx="5" y="6" x="6" height="38" width="38"
                fill="#f2f5e9" fill-opacity="0.5" stroke="#606060" stroke-width="1.0"/>
           <path id="arrow"
             d="M 11.500037,31.436501 C 11.940474,20.09759 22.043105,11.32322 32.158766,21.979434 L 37.068811,17.246167 C 37.068811,17.246167 37.088388,32 37.088388,32 L 22.160133,31.978069 C 22.160133,31.978069 26.997745,27.140456 26.997745,27.140456 C 18.528582,18.264221 13.291696,25.230495 11.500037,31.436501 z"
             style="fill:#404040;"/>
          </a>
         </g>
        </svg>
</svg>
