<?xml version="1.0" encoding="UTF-8" standalone="no"?>
<!DOCTYPE svg PUBLIC "-//W3C//DTD SVG 1.1//EN"
 "http://www.w3.org/Graphics/SVG/1.1/DTD/svg11.dtd">
<!-- Generated by graphviz version 2.40.1 (20161225.0304)
 -->
<!-- Title: /home/travis/build/AliceO2Group/AliceO2/Framework/Core/include/Framework/Expressions.h Pages: 1 -->
<svg width="2506pt" height="430pt"
 viewBox="0.00 0.00 2505.50 430.00" xmlns="http://www.w3.org/2000/svg" xmlns:xlink="http://www.w3.org/1999/xlink">
<g id="graph0" class="graph" transform="scale(1 1) rotate(0) translate(4 426)">
<title>/home/travis/build/AliceO2Group/AliceO2/Framework/Core/include/Framework/Expressions.h</title>
<!-- Node0 -->
<g id="node1" class="node">
<title>Node0</title>
<polygon fill="#bfbfbf" stroke="#000000" points="1223,-369.5 1223,-421.5 1367,-421.5 1367,-369.5 1223,-369.5"/>
<text text-anchor="start" x="1231" y="-409.5" font-family="Helvetica,sans-Serif" font-size="10.00" fill="#000000">/home/travis/build</text>
<text text-anchor="start" x="1231" y="-398.5" font-family="Helvetica,sans-Serif" font-size="10.00" fill="#000000">/AliceO2Group/AliceO2</text>
<text text-anchor="start" x="1231" y="-387.5" font-family="Helvetica,sans-Serif" font-size="10.00" fill="#000000">/Framework/Core/include</text>
<text text-anchor="middle" x="1295" y="-376.5" font-family="Helvetica,sans-Serif" font-size="10.00" fill="#000000">/Framework/Expressions.h</text>
</g>
<!-- Node1 -->
<g id="node2" class="node">
<title>Node1</title>
<g id="a_node2"><a xlink:href="../../dd/dc2/BasicOps_8h.html" target="_top" xlink:title="Framework/BasicOps.h">
<polygon fill="none" stroke="#000000" points="0,-313.5 0,-332.5 128,-332.5 128,-313.5 0,-313.5"/>
<text text-anchor="middle" x="64" y="-320.5" font-family="Helvetica,sans-Serif" font-size="10.00" fill="#000000">Framework/BasicOps.h</text>
</a>
</g>
</g>
<!-- Node0&#45;&gt;Node1 -->
<g id="edge1" class="edge">
<title>Node0&#45;&gt;Node1</title>
<path fill="none" stroke="#191970" d="M1222.6906,-393.6634C1041.7253,-388.6222 554.5543,-372.3094 138.1904,-333.04"/>
<polygon fill="#191970" stroke="#191970" points="138.3454,-329.539 128.0594,-332.0786 137.684,-336.5077 138.3454,-329.539"/>
</g>
<!-- Node2 -->
<g id="node3" class="node">
<title>Node2</title>
<g id="a_node3"><a xlink:href="../../d9/de8/CompilerBuiltins_8h.html" target="_top" xlink:title="Framework/CompilerBuiltins.h">
<polygon fill="none" stroke="#000000" points="146,-313.5 146,-332.5 310,-332.5 310,-313.5 146,-313.5"/>
<text text-anchor="middle" x="228" y="-320.5" font-family="Helvetica,sans-Serif" font-size="10.00" fill="#000000">Framework/CompilerBuiltins.h</text>
</a>
</g>
</g>
<!-- Node0&#45;&gt;Node2 -->
<g id="edge2" class="edge">
<title>Node0&#45;&gt;Node2</title>
<path fill="none" stroke="#191970" d="M1222.9797,-392.0121C1062.7726,-384.0096 664.5508,-362.7701 320.4867,-333.0967"/>
<polygon fill="#191970" stroke="#191970" points="320.5881,-329.5924 310.3234,-332.2163 319.984,-336.5663 320.5881,-329.5924"/>
</g>
<!-- Node3 -->
<g id="node4" class="node">
<title>Node3</title>
<g id="a_node4"><a xlink:href="../../dd/dce/Pack_8h.html" target="_top" xlink:title="Framework/Pack.h">
<polygon fill="none" stroke="#000000" points="328.5,-313.5 328.5,-332.5 433.5,-332.5 433.5,-313.5 328.5,-313.5"/>
<text text-anchor="middle" x="381" y="-320.5" font-family="Helvetica,sans-Serif" font-size="10.00" fill="#000000">Framework/Pack.h</text>
</a>
</g>
</g>
<!-- Node0&#45;&gt;Node3 -->
<g id="edge3" class="edge">
<title>Node0&#45;&gt;Node3</title>
<path fill="none" stroke="#191970" d="M1222.9892,-392.3283C1077.6512,-385.4671 738.7107,-367.1411 443.7548,-332.9921"/>
<polygon fill="#191970" stroke="#191970" points="444.0599,-329.504 433.7218,-331.8224 443.2492,-336.4569 444.0599,-329.504"/>
</g>
<!-- Node7 -->
<g id="node8" class="node">
<title>Node7</title>
<g id="a_node8"><a xlink:href="../../d1/d00/CheckTypes_8h.html" target="_top" xlink:title="Framework/CheckTypes.h">
<polygon fill="none" stroke="#000000" points="452,-313.5 452,-332.5 592,-332.5 592,-313.5 452,-313.5"/>
<text text-anchor="middle" x="522" y="-320.5" font-family="Helvetica,sans-Serif" font-size="10.00" fill="#000000">Framework/CheckTypes.h</text>
</a>
</g>
</g>
<!-- Node0&#45;&gt;Node7 -->
<g id="edge7" class="edge">
<title>Node0&#45;&gt;Node7</title>
<path fill="none" stroke="#191970" d="M1222.5209,-389.5978C1096.8872,-379.2168 830.574,-356.5485 606,-333 604.7265,-332.8665 603.4423,-332.7304 602.1497,-332.5922"/>
<polygon fill="#191970" stroke="#191970" points="602.4309,-329.1022 592.1099,-331.4953 601.6706,-336.0608 602.4309,-329.1022"/>
</g>
<!-- Node8 -->
<g id="node9" class="node">
<title>Node8</title>
<g id="a_node9"><a xlink:href="../../d9/dff/Configurable_8h.html" target="_top" xlink:title="Framework/Configurable.h">
<polygon fill="none" stroke="#000000" points="599,-56.5 599,-75.5 743,-75.5 743,-56.5 599,-56.5"/>
<text text-anchor="middle" x="671" y="-63.5" font-family="Helvetica,sans-Serif" font-size="10.00" fill="#000000">Framework/Configurable.h</text>
</a>
</g>
</g>
<!-- Node0&#45;&gt;Node8 -->
<g id="edge8" class="edge">
<title>Node0&#45;&gt;Node8</title>
<path fill="none" stroke="#191970" d="M1222.6699,-389.9288C1102.7144,-380.1279 867.9953,-358.4137 789,-333 725.8573,-312.6863 658,-327.8299 658,-261.5 658,-261.5 658,-261.5 658,-194.5 658,-155.8047 663.9074,-110.8864 667.7578,-85.7186"/>
<polygon fill="#191970" stroke="#191970" points="671.2469,-86.0624 669.3535,-75.6382 664.333,-84.9679 671.2469,-86.0624"/>
</g>
<!-- Node9 -->
<g id="node10" class="node">
<title>Node9</title>
<polygon fill="none" stroke="#bfbfbf" points="747,-.5 747,-19.5 791,-19.5 791,-.5 747,-.5"/>
<text text-anchor="middle" x="769" y="-7.5" font-family="Helvetica,sans-Serif" font-size="10.00" fill="#000000">string</text>
</g>
<!-- Node0&#45;&gt;Node9 -->
<g id="edge55" class="edge">
<title>Node0&#45;&gt;Node9</title>
<path fill="none" stroke="#191970" d="M1222.9137,-391.3816C1072.9955,-382.3335 737.7704,-359.4101 693,-333 579.8702,-266.2646 509.5077,-159.7928 590,-56 607.8317,-33.0065 690.2456,-19.5043 736.78,-13.5862"/>
<polygon fill="#191970" stroke="#191970" points="737.4534,-17.03 746.9538,-12.3404 736.6025,-10.0819 737.4534,-17.03"/>
</g>
<!-- Node10 -->
<g id="node11" class="node">
<title>Node10</title>
<g id="a_node11"><a xlink:href="../../de/d56/Variant_8h.html" target="_top" xlink:title="Framework/Variant.h">
<polygon fill="none" stroke="#000000" points="995.5,-56.5 995.5,-75.5 1112.5,-75.5 1112.5,-56.5 995.5,-56.5"/>
<text text-anchor="middle" x="1054" y="-63.5" font-family="Helvetica,sans-Serif" font-size="10.00" fill="#000000">Framework/Variant.h</text>
</a>
</g>
</g>
<!-- Node0&#45;&gt;Node10 -->
<g id="edge10" class="edge">
<title>Node0&#45;&gt;Node10</title>
<path fill="none" stroke="#191970" d="M1284.1205,-369.2492C1270.8202,-338.4766 1246.6401,-286.5336 1219,-246 1206.9394,-228.3134 1198.3183,-228.1705 1187,-210 1162.1273,-170.069 1179.0495,-146.4379 1147,-112 1133.229,-97.2027 1113.6607,-86.5392 1096.0239,-79.2288"/>
<polygon fill="#191970" stroke="#191970" points="1097.0619,-75.8769 1086.4735,-75.5074 1094.5204,-82.3993 1097.0619,-75.8769"/>
</g>
<!-- Node11 -->
<g id="node12" class="node">
<title>Node11</title>
<g id="a_node12"><a xlink:href="../../d1/d76/RuntimeError_8h.html" target="_top" xlink:title="Framework/RuntimeError.h">
<polygon fill="none" stroke="#000000" points="1359,-.5 1359,-19.5 1505,-19.5 1505,-.5 1359,-.5"/>
<text text-anchor="middle" x="1432" y="-7.5" font-family="Helvetica,sans-Serif" font-size="10.00" fill="#000000">Framework/RuntimeError.h</text>
</a>
</g>
</g>
<!-- Node0&#45;&gt;Node11 -->
<g id="edge44" class="edge">
<title>Node0&#45;&gt;Node11</title>
<path fill="none" stroke="#191970" d="M1307.4249,-369.2343C1332.3398,-315.4581 1388.5341,-188.4017 1418,-76 1422.0377,-60.5977 1425.7348,-42.943 1428.3146,-29.7709"/>
<polygon fill="#191970" stroke="#191970" points="1431.7599,-30.3881 1430.2018,-19.9085 1424.8847,-29.0725 1431.7599,-30.3881"/>
</g>
<!-- Node19 -->
<g id="node20" class="node">
<title>Node19</title>
<g id="a_node20"><a xlink:href="../../d4/d2b/InitContext_8h.html" target="_top" xlink:title="Framework/InitContext.h">
<polygon fill="none" stroke="#000000" points="1072.5,-313.5 1072.5,-332.5 1209.5,-332.5 1209.5,-313.5 1072.5,-313.5"/>
<text text-anchor="middle" x="1141" y="-320.5" font-family="Helvetica,sans-Serif" font-size="10.00" fill="#000000">Framework/InitContext.h</text>
</a>
</g>
</g>
<!-- Node0&#45;&gt;Node19 -->
<g id="edge20" class="edge">
<title>Node0&#45;&gt;Node19</title>
<path fill="none" stroke="#191970" d="M1239.4025,-369.3258C1216.1123,-358.3613 1189.9844,-346.0608 1170.5079,-336.8917"/>
<polygon fill="#191970" stroke="#191970" points="1171.7899,-333.6268 1161.2515,-332.534 1168.8083,-339.9601 1171.7899,-333.6268"/>
</g>
<!-- Node20 -->
<g id="node21" class="node">
<title>Node20</title>
<g id="a_node21"><a xlink:href="../../de/dc6/ConfigParamRegistry_8h.html" target="_top" xlink:title="Framework/ConfigParamRegistry.h">
<polygon fill="none" stroke="#000000" points="798,-313.5 798,-332.5 980,-332.5 980,-313.5 798,-313.5"/>
<text text-anchor="middle" x="889" y="-320.5" font-family="Helvetica,sans-Serif" font-size="10.00" fill="#000000">Framework/ConfigParamRegistry.h</text>
</a>
</g>
</g>
<!-- Node0&#45;&gt;Node20 -->
<g id="edge21" class="edge">
<title>Node0&#45;&gt;Node20</title>
<path fill="none" stroke="#191970" d="M1222.8832,-382.622C1146.0593,-368.9034 1025.6386,-347.3997 952.3471,-334.312"/>
<polygon fill="#191970" stroke="#191970" points="952.7872,-330.8353 942.3276,-332.5228 951.5566,-337.7263 952.7872,-330.8353"/>
</g>
<!-- Node27 -->
<g id="node28" class="node">
<title>Node27</title>
<polygon fill="none" stroke="#bfbfbf" points="1152,-252 1152,-271 1210,-271 1210,-252 1152,-252"/>
<text text-anchor="middle" x="1181" y="-259" font-family="Helvetica,sans-Serif" font-size="10.00" fill="#000000">memory</text>
</g>
<!-- Node0&#45;&gt;Node27 -->
<g id="edge56" class="edge">
<title>Node0&#45;&gt;Node27</title>
<path fill="none" stroke="#191970" d="M1222.8789,-385.6427C1162.5713,-375.7473 1083.3805,-358.321 1064,-333 1058.5974,-325.9414 1059.143,-320.4446 1064,-313 1066.4971,-309.1725 1114.2306,-288.9447 1147.9463,-275.0091"/>
<polygon fill="#191970" stroke="#191970" points="1149.5511,-278.1334 1157.464,-271.088 1146.8847,-271.6611 1149.5511,-278.1334"/>
</g>
<!-- Node29 -->
<g id="node30" class="node">
<title>Node29</title>
<g id="a_node30"><a xlink:href="../../da/d88/RootConfigParamHelpers_8h.html" target="_top" xlink:title="Framework/RootConfigParam\lHelpers.h">
<polygon fill="none" stroke="#000000" points="1195.5,-179.5 1195.5,-209.5 1352.5,-209.5 1352.5,-179.5 1195.5,-179.5"/>
<text text-anchor="start" x="1203.5" y="-197.5" font-family="Helvetica,sans-Serif" font-size="10.00" fill="#000000">Framework/RootConfigParam</text>
<text text-anchor="middle" x="1274" y="-186.5" font-family="Helvetica,sans-Serif" font-size="10.00" fill="#000000">Helpers.h</text>
</a>
</g>
</g>
<!-- Node0&#45;&gt;Node29 -->
<g id="edge37" class="edge">
<title>Node0&#45;&gt;Node29</title>
<path fill="none" stroke="#191970" d="M1292.2546,-369.2228C1288.1969,-330.3849 1280.6483,-258.1341 1276.6476,-219.8413"/>
<polygon fill="#191970" stroke="#191970" points="1280.0936,-219.141 1275.5733,-209.5588 1273.1315,-219.8684 1280.0936,-219.141"/>
</g>
<!-- Node32 -->
<g id="node33" class="node">
<title>Node32</title>
<polygon fill="none" stroke="#bfbfbf" points="1342.5,-313.5 1342.5,-332.5 1443.5,-332.5 1443.5,-313.5 1342.5,-313.5"/>
<text text-anchor="middle" x="1393" y="-320.5" font-family="Helvetica,sans-Serif" font-size="10.00" fill="#000000">arrow/type_fwd.h</text>
</g>
<!-- Node0&#45;&gt;Node32 -->
<g id="edge45" class="edge">
<title>Node0&#45;&gt;Node32</title>
<path fill="none" stroke="#191970" d="M1330.3802,-369.3258C1344.3215,-359.0122 1359.8605,-347.5165 1371.9716,-338.5567"/>
<polygon fill="#191970" stroke="#191970" points="1374.155,-341.2951 1380.1127,-332.534 1369.9918,-335.6677 1374.155,-341.2951"/>
</g>
<!-- Node33 -->
<g id="node34" class="node">
<title>Node33</title>
<polygon fill="none" stroke="#bfbfbf" points="1462,-313.5 1462,-332.5 1608,-332.5 1608,-313.5 1462,-313.5"/>
<text text-anchor="middle" x="1535" y="-320.5" font-family="Helvetica,sans-Serif" font-size="10.00" fill="#000000">gandiva/gandiva_aliases.h</text>
</g>
<!-- Node0&#45;&gt;Node33 -->
<g id="edge46" class="edge">
<title>Node0&#45;&gt;Node33</title>
<path fill="none" stroke="#191970" d="M1367.0079,-373.7476C1408.3528,-361.258 1458.7978,-346.0194 1493.5567,-335.5193"/>
<polygon fill="#191970" stroke="#191970" points="1494.8071,-338.7979 1503.3677,-332.5556 1492.7828,-332.097 1494.8071,-338.7979"/>
</g>
<!-- Node34 -->
<g id="node35" class="node">
<title>Node34</title>
<polygon fill="none" stroke="#bfbfbf" points="1626,-313.5 1626,-332.5 1704,-332.5 1704,-313.5 1626,-313.5"/>
<text text-anchor="middle" x="1665" y="-320.5" font-family="Helvetica,sans-Serif" font-size="10.00" fill="#000000">arrow/type.h</text>
</g>
<!-- Node0&#45;&gt;Node34 -->
<g id="edge47" class="edge">
<title>Node0&#45;&gt;Node34</title>
<path fill="none" stroke="#191970" d="M1367.3113,-381.7573C1430.3125,-369.7168 1524.4068,-351.5727 1615.9783,-333.1869"/>
<polygon fill="#191970" stroke="#191970" points="1616.8627,-336.5792 1625.9764,-331.1764 1615.4827,-329.7166 1616.8627,-336.5792"/>
</g>
<!-- Node35 -->
<g id="node36" class="node">
<title>Node35</title>
<polygon fill="none" stroke="#bfbfbf" points="1722.5,-313.5 1722.5,-332.5 1817.5,-332.5 1817.5,-313.5 1722.5,-313.5"/>
<text text-anchor="middle" x="1770" y="-320.5" font-family="Helvetica,sans-Serif" font-size="10.00" fill="#000000">gandiva/arrow.h</text>
</g>
<!-- Node0&#45;&gt;Node35 -->
<g id="edge48" class="edge">
<title>Node0&#45;&gt;Node35</title>
<path fill="none" stroke="#191970" d="M1367.2052,-385.2686C1448.4796,-373.6244 1584.7299,-353.7212 1712.4646,-333.0549"/>
<polygon fill="#191970" stroke="#191970" points="1713.119,-336.4945 1722.4294,-331.4382 1711.998,-329.5849 1713.119,-336.4945"/>
</g>
<!-- Node36 -->
<g id="node37" class="node">
<title>Node36</title>
<polygon fill="none" stroke="#bfbfbf" points="1835.5,-313.5 1835.5,-332.5 1916.5,-332.5 1916.5,-313.5 1835.5,-313.5"/>
<text text-anchor="middle" x="1876" y="-320.5" font-family="Helvetica,sans-Serif" font-size="10.00" fill="#000000">arrow/table.h</text>
</g>
<!-- Node0&#45;&gt;Node36 -->
<g id="edge49" class="edge">
<title>Node0&#45;&gt;Node36</title>
<path fill="none" stroke="#191970" d="M1367.1169,-388.9755C1467.6561,-379.4463 1655.798,-360.0442 1825.2998,-333.1738"/>
<polygon fill="#191970" stroke="#191970" points="1826.0838,-336.593 1835.4063,-331.5591 1824.9794,-329.6807 1826.0838,-336.593"/>
</g>
<!-- Node37 -->
<g id="node38" class="node">
<title>Node37</title>
<polygon fill="none" stroke="#bfbfbf" points="1934.5,-313.5 1934.5,-332.5 2081.5,-332.5 2081.5,-313.5 1934.5,-313.5"/>
<text text-anchor="middle" x="2008" y="-320.5" font-family="Helvetica,sans-Serif" font-size="10.00" fill="#000000">gandiva/selection_vector.h</text>
</g>
<!-- Node0&#45;&gt;Node37 -->
<g id="edge50" class="edge">
<title>Node0&#45;&gt;Node37</title>
<path fill="none" stroke="#191970" d="M1367.4508,-388.8611C1482.9445,-378.1591 1716.1777,-356.0617 1924.0594,-333.1974"/>
<polygon fill="#191970" stroke="#191970" points="1924.6958,-336.6486 1934.2519,-332.0735 1923.9285,-329.6907 1924.6958,-336.6486"/>
</g>
<!-- Node38 -->
<g id="node39" class="node">
<title>Node38</title>
<polygon fill="none" stroke="#bfbfbf" points="2100,-313.5 2100,-332.5 2192,-332.5 2192,-313.5 2100,-313.5"/>
<text text-anchor="middle" x="2146" y="-320.5" font-family="Helvetica,sans-Serif" font-size="10.00" fill="#000000">gandiva/node.h</text>
</g>
<!-- Node0&#45;&gt;Node38 -->
<g id="edge51" class="edge">
<title>Node0&#45;&gt;Node38</title>
<path fill="none" stroke="#191970" d="M1367.1478,-392.292C1505.4593,-385.6058 1817.6053,-367.9277 2089.7683,-333.0449"/>
<polygon fill="#191970" stroke="#191970" points="2090.3706,-336.4963 2099.8397,-331.7438 2089.4736,-329.554 2090.3706,-336.4963"/>
</g>
<!-- Node39 -->
<g id="node40" class="node">
<title>Node39</title>
<polygon fill="none" stroke="#bfbfbf" points="2210.5,-313.5 2210.5,-332.5 2299.5,-332.5 2299.5,-313.5 2210.5,-313.5"/>
<text text-anchor="middle" x="2255" y="-320.5" font-family="Helvetica,sans-Serif" font-size="10.00" fill="#000000">gandiva/filter.h</text>
</g>
<!-- Node0&#45;&gt;Node39 -->
<g id="edge52" class="edge">
<title>Node0&#45;&gt;Node39</title>
<path fill="none" stroke="#191970" d="M1367.2068,-393.3204C1519.3907,-388.1188 1884.3239,-372.446 2200.0065,-332.9837"/>
<polygon fill="#191970" stroke="#191970" points="2200.7888,-336.4129 2210.2725,-331.6897 2199.9133,-329.4678 2200.7888,-336.4129"/>
</g>
<!-- Node40 -->
<g id="node41" class="node">
<title>Node40</title>
<polygon fill="none" stroke="#bfbfbf" points="2318,-313.5 2318,-332.5 2428,-332.5 2428,-313.5 2318,-313.5"/>
<text text-anchor="middle" x="2373" y="-320.5" font-family="Helvetica,sans-Serif" font-size="10.00" fill="#000000">gandiva/projector.h</text>
</g>
<!-- Node0&#45;&gt;Node40 -->
<g id="edge53" class="edge">
<title>Node0&#45;&gt;Node40</title>
<path fill="none" stroke="#191970" d="M1367.118,-393.3699C1531.9715,-388 1949.1638,-371.5722 2307.8253,-333.0348"/>
<polygon fill="#191970" stroke="#191970" points="2308.32,-336.5018 2317.8854,-331.9463 2307.5669,-329.5424 2308.32,-336.5018"/>
</g>
<!-- Node41 -->
<g id="node42" class="node">
<title>Node41</title>
<polygon fill="none" stroke="#bfbfbf" points="2446.5,-313.5 2446.5,-332.5 2497.5,-332.5 2497.5,-313.5 2446.5,-313.5"/>
<text text-anchor="middle" x="2472" y="-320.5" font-family="Helvetica,sans-Serif" font-size="10.00" fill="#000000">variant</text>
</g>
<!-- Node0&#45;&gt;Node41 -->
<g id="edge54" class="edge">
<title>Node0&#45;&gt;Node41</title>
<path fill="none" stroke="#191970" d="M1367.3675,-393.6558C1581.4733,-387.87 2210.3736,-368.419 2436.0382,-332.7383"/>
<polygon fill="#191970" stroke="#191970" points="2436.8516,-336.1518 2446.1544,-331.0816 2435.7202,-329.2438 2436.8516,-336.1518"/>
</g>
<!-- Node4 -->
<g id="node5" class="node">
<title>Node4</title>
<polygon fill="none" stroke="#bfbfbf" points="422.5,-252 422.5,-271 475.5,-271 475.5,-252 422.5,-252"/>
<text text-anchor="middle" x="449" y="-259" font-family="Helvetica,sans-Serif" font-size="10.00" fill="#000000">cstddef</text>
</g>
<!-- Node3&#45;&gt;Node4 -->
<g id="edge4" class="edge">
<title>Node3&#45;&gt;Node4</title>
<path fill="none" stroke="#191970" d="M391.625,-313.3906C402.0431,-303.9683 418.1364,-289.4134 430.6304,-278.1137"/>
<polygon fill="#191970" stroke="#191970" points="433.1562,-280.5484 438.2252,-271.2449 428.4608,-275.3568 433.1562,-280.5484"/>
</g>
<!-- Node5 -->
<g id="node6" class="node">
<title>Node5</title>
<polygon fill="none" stroke="#bfbfbf" points="294.5,-252 294.5,-271 339.5,-271 339.5,-252 294.5,-252"/>
<text text-anchor="middle" x="317" y="-259" font-family="Helvetica,sans-Serif" font-size="10.00" fill="#000000">utility</text>
</g>
<!-- Node3&#45;&gt;Node5 -->
<g id="edge5" class="edge">
<title>Node3&#45;&gt;Node5</title>
<path fill="none" stroke="#191970" d="M371,-313.3906C361.2881,-304.0581 346.3361,-289.6902 334.6259,-278.4374"/>
<polygon fill="#191970" stroke="#191970" points="336.7766,-275.65 327.141,-271.2449 331.9264,-280.6974 336.7766,-275.65"/>
</g>
<!-- Node6 -->
<g id="node7" class="node">
<title>Node6</title>
<polygon fill="none" stroke="#bfbfbf" points="358,-252 358,-271 404,-271 404,-252 358,-252"/>
<text text-anchor="middle" x="381" y="-259" font-family="Helvetica,sans-Serif" font-size="10.00" fill="#000000">cstdio</text>
</g>
<!-- Node3&#45;&gt;Node6 -->
<g id="edge6" class="edge">
<title>Node3&#45;&gt;Node6</title>
<path fill="none" stroke="#191970" d="M381,-313.3906C381,-304.8657 381,-292.1392 381,-281.4235"/>
<polygon fill="#191970" stroke="#191970" points="384.5001,-281.2448 381,-271.2449 377.5001,-281.2449 384.5001,-281.2448"/>
</g>
<!-- Node8&#45;&gt;Node9 -->
<g id="edge9" class="edge">
<title>Node8&#45;&gt;Node9</title>
<path fill="none" stroke="#191970" d="M688.0703,-56.2455C703.247,-47.5731 725.6621,-34.7645 743.0563,-24.825"/>
<polygon fill="#191970" stroke="#191970" points="745.1794,-27.643 752.1253,-19.6427 741.7064,-21.5653 745.1794,-27.643"/>
</g>
<!-- Node10&#45;&gt;Node9 -->
<g id="edge19" class="edge">
<title>Node10&#45;&gt;Node9</title>
<path fill="none" stroke="#191970" d="M995.2698,-57.6322C945.8102,-50.0723 873.0762,-37.7583 801.3589,-20.0956"/>
<polygon fill="#191970" stroke="#191970" points="801.799,-16.598 791.2486,-17.5678 800.101,-23.3889 801.799,-16.598"/>
</g>
<!-- Node10&#45;&gt;Node11 -->
<g id="edge11" class="edge">
<title>Node10&#45;&gt;Node11</title>
<path fill="none" stroke="#191970" d="M1112.6478,-57.3114C1178.5637,-47.5461 1285.7235,-31.6706 1357.5096,-21.0356"/>
<polygon fill="#191970" stroke="#191970" points="1358.4562,-24.4337 1367.8352,-19.5059 1357.4303,-17.5092 1358.4562,-24.4337"/>
</g>
<!-- Node12 -->
<g id="node13" class="node">
<title>Node12</title>
<polygon fill="none" stroke="#bfbfbf" points="1271.5,-.5 1271.5,-19.5 1340.5,-19.5 1340.5,-.5 1271.5,-.5"/>
<text text-anchor="middle" x="1306" y="-7.5" font-family="Helvetica,sans-Serif" font-size="10.00" fill="#000000">type_traits</text>
</g>
<!-- Node10&#45;&gt;Node12 -->
<g id="edge12" class="edge">
<title>Node10&#45;&gt;Node12</title>
<path fill="none" stroke="#191970" d="M1098.0693,-56.4594C1138.2409,-47.7269 1199.4941,-34.3232 1261.3456,-20.3584"/>
<polygon fill="#191970" stroke="#191970" points="1262.2927,-23.7327 1271.2743,-18.1129 1260.7486,-16.9051 1262.2927,-23.7327"/>
</g>
<!-- Node13 -->
<g id="node14" class="node">
<title>Node13</title>
<polygon fill="none" stroke="#bfbfbf" points="809,-.5 809,-19.5 859,-19.5 859,-.5 809,-.5"/>
<text text-anchor="middle" x="834" y="-7.5" font-family="Helvetica,sans-Serif" font-size="10.00" fill="#000000">cstring</text>
</g>
<!-- Node10&#45;&gt;Node13 -->
<g id="edge13" class="edge">
<title>Node10&#45;&gt;Node13</title>
<path fill="none" stroke="#191970" d="M1013.2303,-56.4579C977.5975,-47.9973 924.2414,-35.039 869.1541,-20.2354"/>
<polygon fill="#191970" stroke="#191970" points="869.7832,-16.7798 859.2163,-17.5495 867.9568,-23.5374 869.7832,-16.7798"/>
</g>
<!-- Node14 -->
<g id="node15" class="node">
<title>Node14</title>
<polygon fill="none" stroke="#bfbfbf" points="877,-.5 877,-19.5 927,-19.5 927,-.5 877,-.5"/>
<text text-anchor="middle" x="902" y="-7.5" font-family="Helvetica,sans-Serif" font-size="10.00" fill="#000000">cstdint</text>
</g>
<!-- Node10&#45;&gt;Node14 -->
<g id="edge14" class="edge">
<title>Node10&#45;&gt;Node14</title>
<path fill="none" stroke="#191970" d="M1027.8703,-56.3733C1002.6964,-47.0987 964.4528,-33.0089 936.7275,-22.7943"/>
<polygon fill="#191970" stroke="#191970" points="937.6259,-19.3954 927.0325,-19.2225 935.206,-25.9638 937.6259,-19.3954"/>
</g>
<!-- Node15 -->
<g id="node16" class="node">
<title>Node15</title>
<polygon fill="none" stroke="#bfbfbf" points="945.5,-.5 945.5,-19.5 994.5,-19.5 994.5,-.5 945.5,-.5"/>
<text text-anchor="middle" x="970" y="-7.5" font-family="Helvetica,sans-Serif" font-size="10.00" fill="#000000">cstdlib</text>
</g>
<!-- Node10&#45;&gt;Node15 -->
<g id="edge15" class="edge">
<title>Node10&#45;&gt;Node15</title>
<path fill="none" stroke="#191970" d="M1039.3683,-56.2455C1026.6006,-47.7337 1007.8562,-35.2375 993.0701,-25.3801"/>
<polygon fill="#191970" stroke="#191970" points="994.726,-22.2775 984.464,-19.6427 990.8431,-28.1019 994.726,-22.2775"/>
</g>
<!-- Node16 -->
<g id="node17" class="node">
<title>Node16</title>
<polygon fill="none" stroke="#bfbfbf" points="1012.5,-.5 1012.5,-19.5 1061.5,-19.5 1061.5,-.5 1012.5,-.5"/>
<text text-anchor="middle" x="1037" y="-7.5" font-family="Helvetica,sans-Serif" font-size="10.00" fill="#000000">iosfwd</text>
</g>
<!-- Node10&#45;&gt;Node16 -->
<g id="edge16" class="edge">
<title>Node10&#45;&gt;Node16</title>
<path fill="none" stroke="#191970" d="M1051.0388,-56.2455C1048.7962,-48.8579 1045.6423,-38.4689 1042.8919,-29.4087"/>
<polygon fill="#191970" stroke="#191970" points="1046.1812,-28.1948 1039.9272,-19.6427 1039.483,-30.2282 1046.1812,-28.1948"/>
</g>
<!-- Node17 -->
<g id="node18" class="node">
<title>Node17</title>
<polygon fill="none" stroke="#bfbfbf" points="1079.5,-.5 1079.5,-19.5 1162.5,-19.5 1162.5,-.5 1079.5,-.5"/>
<text text-anchor="middle" x="1121" y="-7.5" font-family="Helvetica,sans-Serif" font-size="10.00" fill="#000000">initializer_list</text>
</g>
<!-- Node10&#45;&gt;Node17 -->
<g id="edge17" class="edge">
<title>Node10&#45;&gt;Node17</title>
<path fill="none" stroke="#191970" d="M1065.6705,-56.2455C1075.5661,-47.9746 1089.9627,-35.9416 1101.5901,-26.2232"/>
<polygon fill="#191970" stroke="#191970" points="1104.035,-28.7413 1109.4632,-19.6427 1099.5458,-23.3703 1104.035,-28.7413"/>
</g>
<!-- Node18 -->
<g id="node19" class="node">
<title>Node18</title>
<polygon fill="none" stroke="#bfbfbf" points="1180.5,-.5 1180.5,-19.5 1253.5,-19.5 1253.5,-.5 1180.5,-.5"/>
<text text-anchor="middle" x="1217" y="-7.5" font-family="Helvetica,sans-Serif" font-size="10.00" fill="#000000">string_view</text>
</g>
<!-- Node10&#45;&gt;Node18 -->
<g id="edge18" class="edge">
<title>Node10&#45;&gt;Node18</title>
<path fill="none" stroke="#191970" d="M1082.0207,-56.3733C1109.0078,-47.1016 1150.0017,-33.0178 1179.7311,-22.804"/>
<polygon fill="#191970" stroke="#191970" points="1181.0248,-26.0605 1189.3449,-19.5011 1178.7503,-19.4403 1181.0248,-26.0605"/>
</g>
<!-- Node20&#45;&gt;Node9 -->
<g id="edge35" class="edge">
<title>Node20&#45;&gt;Node9</title>
<path fill="none" stroke="#191970" d="M820.0922,-313.4968C777.3297,-306.0278 728.1057,-294.0207 715,-277 698.3818,-255.4175 669.7187,-264.4321 726,-112 732.8361,-93.4852 743.615,-93.8668 752,-76 758.912,-61.2718 763.3033,-43.3248 765.8876,-29.8656"/>
<polygon fill="#191970" stroke="#191970" points="769.3755,-30.2378 767.6491,-19.7845 762.48,-29.0328 769.3755,-30.2378"/>
</g>
<!-- Node21 -->
<g id="node22" class="node">
<title>Node21</title>
<g id="a_node22"><a xlink:href="../../df/d72/ParamRetriever_8h.html" target="_top" xlink:title="Framework/ParamRetriever.h">
<polygon fill="none" stroke="#000000" points="774.5,-185 774.5,-204 931.5,-204 931.5,-185 774.5,-185"/>
<text text-anchor="middle" x="853" y="-192" font-family="Helvetica,sans-Serif" font-size="10.00" fill="#000000">Framework/ParamRetriever.h</text>
</a>
</g>
</g>
<!-- Node20&#45;&gt;Node21 -->
<g id="edge22" class="edge">
<title>Node20&#45;&gt;Node21</title>
<path fill="none" stroke="#191970" d="M865.2141,-313.4178C850.1331,-305.9442 831.8538,-293.9629 823,-277 811.8904,-255.7152 825.8152,-229.3843 838.17,-212.2785"/>
<polygon fill="#191970" stroke="#191970" points="841.0232,-214.3099 844.3467,-204.2498 835.475,-210.0415 841.0232,-214.3099"/>
</g>
<!-- Node25 -->
<g id="node26" class="node">
<title>Node25</title>
<g id="a_node26"><a xlink:href="../../dd/daf/ConfigParamStore_8h.html" target="_top" xlink:title="Framework/ConfigParamStore.h">
<polygon fill="none" stroke="#000000" points="964,-252 964,-271 1134,-271 1134,-252 964,-252"/>
<text text-anchor="middle" x="1049" y="-259" font-family="Helvetica,sans-Serif" font-size="10.00" fill="#000000">Framework/ConfigParamStore.h</text>
</a>
</g>
</g>
<!-- Node20&#45;&gt;Node25 -->
<g id="edge29" class="edge">
<title>Node20&#45;&gt;Node25</title>
<path fill="none" stroke="#191970" d="M914,-313.3906C941.0058,-303.0103 984.2185,-286.4004 1014.4594,-274.7766"/>
<polygon fill="#191970" stroke="#191970" points="1016.0971,-277.8968 1024.1756,-271.0419 1013.5856,-271.3628 1016.0971,-277.8968"/>
</g>
<!-- Node26 -->
<g id="node27" class="node">
<title>Node26</title>
<polygon fill="none" stroke="#bfbfbf" points="832.5,-246.5 832.5,-276.5 945.5,-276.5 945.5,-246.5 832.5,-246.5"/>
<text text-anchor="start" x="840.5" y="-264.5" font-family="Helvetica,sans-Serif" font-size="10.00" fill="#000000">boost/property_tree</text>
<text text-anchor="middle" x="889" y="-253.5" font-family="Helvetica,sans-Serif" font-size="10.00" fill="#000000">/ptree.hpp</text>
</g>
<!-- Node20&#45;&gt;Node26 -->
<g id="edge33" class="edge">
<title>Node20&#45;&gt;Node26</title>
<path fill="none" stroke="#191970" d="M889,-313.3906C889,-306.2234 889,-296.0862 889,-286.671"/>
<polygon fill="#191970" stroke="#191970" points="892.5001,-286.5446 889,-276.5446 885.5001,-286.5446 892.5001,-286.5446"/>
</g>
<!-- Node20&#45;&gt;Node27 -->
<g id="edge34" class="edge">
<title>Node20&#45;&gt;Node27</title>
<path fill="none" stroke="#191970" d="M964.9735,-313.4625C1015.9521,-306.0377 1084.2653,-294.0948 1143,-277 1145.3089,-276.328 1147.6694,-275.5638 1150.0279,-274.7434"/>
<polygon fill="#191970" stroke="#191970" points="1151.4502,-277.9477 1159.5738,-271.1464 1148.9819,-271.3973 1151.4502,-277.9477"/>
</g>
<!-- Node28 -->
<g id="node29" class="node">
<title>Node28</title>
<polygon fill="none" stroke="#bfbfbf" points="724,-252 724,-271 776,-271 776,-252 724,-252"/>
<text text-anchor="middle" x="750" y="-259" font-family="Helvetica,sans-Serif" font-size="10.00" fill="#000000">cassert</text>
</g>
<!-- Node20&#45;&gt;Node28 -->
<g id="edge36" class="edge">
<title>Node20&#45;&gt;Node28</title>
<path fill="none" stroke="#191970" d="M867.2813,-313.3906C844.126,-303.1457 807.2559,-286.8326 781.0409,-275.2339"/>
<polygon fill="#191970" stroke="#191970" points="782.1273,-271.8874 771.5662,-271.0419 779.295,-278.2888 782.1273,-271.8874"/>
</g>
<!-- Node21&#45;&gt;Node9 -->
<g id="edge27" class="edge">
<title>Node21&#45;&gt;Node9</title>
<path fill="none" stroke="#191970" d="M848.6021,-184.8402C835.2772,-155.5732 795.1853,-67.5142 777.5183,-28.7099"/>
<polygon fill="#191970" stroke="#191970" points="780.6835,-27.215 773.3544,-19.5641 774.3127,-30.1155 780.6835,-27.215"/>
</g>
<!-- Node22 -->
<g id="node23" class="node">
<title>Node22</title>
<g id="a_node23"><a xlink:href="../../d0/d1c/ConfigParamSpec_8h.html" target="_top" xlink:title="Framework/ConfigParamSpec.h">
<polygon fill="none" stroke="#000000" points="970.5,-118 970.5,-137 1137.5,-137 1137.5,-118 970.5,-118"/>
<text text-anchor="middle" x="1054" y="-125" font-family="Helvetica,sans-Serif" font-size="10.00" fill="#000000">Framework/ConfigParamSpec.h</text>
</a>
</g>
</g>
<!-- Node21&#45;&gt;Node22 -->
<g id="edge23" class="edge">
<title>Node21&#45;&gt;Node22</title>
<path fill="none" stroke="#191970" d="M881.7984,-184.9005C916.8741,-173.2086 976.2634,-153.4122 1015.3072,-140.3976"/>
<polygon fill="#191970" stroke="#191970" points="1016.875,-143.5644 1025.255,-137.0817 1014.6614,-136.9236 1016.875,-143.5644"/>
</g>
<!-- Node23 -->
<g id="node24" class="node">
<title>Node23</title>
<polygon fill="none" stroke="#bfbfbf" points="839.5,-112.5 839.5,-142.5 952.5,-142.5 952.5,-112.5 839.5,-112.5"/>
<text text-anchor="start" x="847.5" y="-130.5" font-family="Helvetica,sans-Serif" font-size="10.00" fill="#000000">boost/property_tree</text>
<text text-anchor="middle" x="896" y="-119.5" font-family="Helvetica,sans-Serif" font-size="10.00" fill="#000000">/ptree_fwd.hpp</text>
</g>
<!-- Node21&#45;&gt;Node23 -->
<g id="edge26" class="edge">
<title>Node21&#45;&gt;Node23</title>
<path fill="none" stroke="#191970" d="M859.1609,-184.9005C864.8235,-176.0773 873.4483,-162.6387 880.9293,-150.9822"/>
<polygon fill="#191970" stroke="#191970" points="883.9035,-152.8281 886.3592,-142.5218 878.0123,-149.0472 883.9035,-152.8281"/>
</g>
<!-- Node24 -->
<g id="node25" class="node">
<title>Node24</title>
<polygon fill="none" stroke="#bfbfbf" points="735.5,-118 735.5,-137 782.5,-137 782.5,-118 735.5,-118"/>
<text text-anchor="middle" x="759" y="-125" font-family="Helvetica,sans-Serif" font-size="10.00" fill="#000000">vector</text>
</g>
<!-- Node21&#45;&gt;Node24 -->
<g id="edge28" class="edge">
<title>Node21&#45;&gt;Node24</title>
<path fill="none" stroke="#191970" d="M839.5321,-184.9005C824.1756,-173.9549 798.8537,-155.9064 780.7024,-142.9688"/>
<polygon fill="#191970" stroke="#191970" points="782.6176,-140.0358 772.4429,-137.0817 778.5546,-145.736 782.6176,-140.0358"/>
</g>
<!-- Node22&#45;&gt;Node9 -->
<g id="edge25" class="edge">
<title>Node22&#45;&gt;Node9</title>
<path fill="none" stroke="#191970" d="M1030.6773,-117.8845C979.6545,-96.8488 858.0876,-46.7291 800.4068,-22.9484"/>
<polygon fill="#191970" stroke="#191970" points="801.6427,-19.6722 791.0635,-19.0964 798.9745,-26.1438 801.6427,-19.6722"/>
</g>
<!-- Node22&#45;&gt;Node10 -->
<g id="edge24" class="edge">
<title>Node22&#45;&gt;Node10</title>
<path fill="none" stroke="#191970" d="M1054,-117.8906C1054,-109.3657 1054,-96.6392 1054,-85.9235"/>
<polygon fill="#191970" stroke="#191970" points="1057.5001,-85.7448 1054,-75.7449 1050.5001,-85.7449 1057.5001,-85.7448"/>
</g>
<!-- Node25&#45;&gt;Node21 -->
<g id="edge30" class="edge">
<title>Node25&#45;&gt;Node21</title>
<path fill="none" stroke="#191970" d="M1020.918,-251.9005C986.7149,-240.2086 928.8028,-220.4122 890.7303,-207.3976"/>
<polygon fill="#191970" stroke="#191970" points="891.6245,-204.0045 881.0299,-204.0817 889.3602,-210.6282 891.6245,-204.0045"/>
</g>
<!-- Node25&#45;&gt;Node22 -->
<g id="edge31" class="edge">
<title>Node25&#45;&gt;Node22</title>
<path fill="none" stroke="#191970" d="M1049.3596,-251.8631C1050.174,-230.0364 1052.1731,-176.4605 1053.2627,-147.2589"/>
<polygon fill="#191970" stroke="#191970" points="1056.7683,-147.1732 1053.6437,-137.0496 1049.7731,-146.9121 1056.7683,-147.1732"/>
</g>
<!-- Node25&#45;&gt;Node23 -->
<g id="edge32" class="edge">
<title>Node25&#45;&gt;Node23</title>
<path fill="none" stroke="#191970" d="M1037.9966,-251.8631C1013.6383,-230.5296 954.6488,-178.8656 920.8626,-149.2751"/>
<polygon fill="#191970" stroke="#191970" points="923.0824,-146.5666 913.2536,-142.611 918.4704,-151.8325 923.0824,-146.5666"/>
</g>
<!-- Node29&#45;&gt;Node11 -->
<g id="edge39" class="edge">
<title>Node29&#45;&gt;Node11</title>
<path fill="none" stroke="#191970" d="M1319.1132,-179.4485C1338.3463,-171.1799 1359.8056,-159.2423 1375,-143 1391.1127,-125.776 1414.2548,-62.2643 1425.4456,-29.6346"/>
<polygon fill="#191970" stroke="#191970" points="1428.8618,-30.4586 1428.7551,-19.8643 1422.2318,-28.2127 1428.8618,-30.4586"/>
</g>
<!-- Node29&#45;&gt;Node12 -->
<g id="edge42" class="edge">
<title>Node29&#45;&gt;Node12</title>
<path fill="none" stroke="#191970" d="M1253.3909,-179.3171C1242.732,-170.1407 1230.7717,-157.4393 1225,-143 1219.8862,-130.2064 1220.4629,-125.0093 1225,-112 1237.2389,-76.9076 1267.1494,-44.8323 1286.9961,-26.3645"/>
<polygon fill="#191970" stroke="#191970" points="1289.4817,-28.8357 1294.5537,-19.5337 1284.788,-23.6425 1289.4817,-28.8357"/>
</g>
<!-- Node29&#45;&gt;Node22 -->
<g id="edge38" class="edge">
<title>Node29&#45;&gt;Node22</title>
<path fill="none" stroke="#191970" d="M1224.6277,-179.4639C1185.6034,-167.5792 1131.7742,-151.1858 1095.0801,-140.0108"/>
<polygon fill="#191970" stroke="#191970" points="1095.7973,-136.5705 1085.2114,-137.0053 1093.7579,-143.2669 1095.7973,-136.5705"/>
</g>
<!-- Node29&#45;&gt;Node23 -->
<g id="edge41" class="edge">
<title>Node29&#45;&gt;Node23</title>
<path fill="none" stroke="#191970" d="M1195.1978,-182.9886C1134.304,-173.7471 1047.7171,-159.8566 962.6553,-143.0567"/>
<polygon fill="#191970" stroke="#191970" points="963.3197,-139.6204 952.8289,-141.1014 961.9536,-146.4858 963.3197,-139.6204"/>
</g>
<!-- Node30 -->
<g id="node31" class="node">
<title>Node30</title>
<polygon fill="none" stroke="#bfbfbf" points="1233.5,-118 1233.5,-137 1290.5,-137 1290.5,-118 1233.5,-118"/>
<text text-anchor="middle" x="1262" y="-125" font-family="Helvetica,sans-Serif" font-size="10.00" fill="#000000">TClass.h</text>
</g>
<!-- Node29&#45;&gt;Node30 -->
<g id="edge40" class="edge">
<title>Node29&#45;&gt;Node30</title>
<path fill="none" stroke="#191970" d="M1271.277,-179.2967C1269.5707,-169.7699 1267.3544,-157.3954 1265.5159,-147.1306"/>
<polygon fill="#191970" stroke="#191970" points="1268.9196,-146.2813 1263.7113,-137.055 1262.0292,-147.5154 1268.9196,-146.2813"/>
</g>
<!-- Node31 -->
<g id="node32" class="node">
<title>Node31</title>
<polygon fill="none" stroke="#bfbfbf" points="1308.5,-118 1308.5,-137 1365.5,-137 1365.5,-118 1308.5,-118"/>
<text text-anchor="middle" x="1337" y="-125" font-family="Helvetica,sans-Serif" font-size="10.00" fill="#000000">typeinfo</text>
</g>
<!-- Node29&#45;&gt;Node31 -->
<g id="edge43" class="edge">
<title>Node29&#45;&gt;Node31</title>
<path fill="none" stroke="#191970" d="M1288.2957,-179.2967C1298.0161,-168.9591 1310.8894,-155.2684 1320.9597,-144.5588"/>
<polygon fill="#191970" stroke="#191970" points="1323.715,-146.7378 1328.0155,-137.055 1318.6154,-141.9426 1323.715,-146.7378"/>
</g>
</g>
</svg>
