<?xml version="1.0" encoding="UTF-8" standalone="no"?>
<!DOCTYPE svg PUBLIC "-//W3C//DTD SVG 1.1//EN"
 "http://www.w3.org/Graphics/SVG/1.1/DTD/svg11.dtd">
<!-- Generated by graphviz version 2.40.1 (20161225.0304)
 -->
<!-- Title: /home/travis/build/AliceO2Group/AliceO2/Framework/Core/include/Framework/ConfigParamsHelper.h Pages: 1 -->
<svg width="837pt" height="229pt"
 viewBox="0.00 0.00 837.00 229.00" xmlns="http://www.w3.org/2000/svg" xmlns:xlink="http://www.w3.org/1999/xlink">
<g id="graph0" class="graph" transform="scale(1 1) rotate(0) translate(4 225)">
<title>/home/travis/build/AliceO2Group/AliceO2/Framework/Core/include/Framework/ConfigParamsHelper.h</title>
<!-- Node0 -->
<g id="node1" class="node">
<title>Node0</title>
<polygon fill="#bfbfbf" stroke="#000000" points="494.5,-168.5 494.5,-220.5 678.5,-220.5 678.5,-168.5 494.5,-168.5"/>
<text text-anchor="start" x="502.5" y="-208.5" font-family="Helvetica,sans-Serif" font-size="10.00" fill="#000000">/home/travis/build</text>
<text text-anchor="start" x="502.5" y="-197.5" font-family="Helvetica,sans-Serif" font-size="10.00" fill="#000000">/AliceO2Group/AliceO2</text>
<text text-anchor="start" x="502.5" y="-186.5" font-family="Helvetica,sans-Serif" font-size="10.00" fill="#000000">/Framework/Core/include</text>
<text text-anchor="middle" x="586.5" y="-175.5" font-family="Helvetica,sans-Serif" font-size="10.00" fill="#000000">/Framework/ConfigParamsHelper.h</text>
</g>
<!-- Node1 -->
<g id="node2" class="node">
<title>Node1</title>
<g id="a_node2"><a xlink:href="../../d0/d1c/ConfigParamSpec_8h.html" target="_top" xlink:title="Framework/ConfigParamSpec.h">
<polygon fill="none" stroke="#000000" points="392,-112.5 392,-131.5 559,-131.5 559,-112.5 392,-112.5"/>
<text text-anchor="middle" x="475.5" y="-119.5" font-family="Helvetica,sans-Serif" font-size="10.00" fill="#000000">Framework/ConfigParamSpec.h</text>
</a>
</g>
</g>
<!-- Node0&#45;&gt;Node1 -->
<g id="edge1" class="edge">
<title>Node0&#45;&gt;Node1</title>
<path fill="none" stroke="#191970" d="M546.4265,-168.3258C530.3293,-157.8119 512.3514,-146.0696 498.5232,-137.0377"/>
<polygon fill="#191970" stroke="#191970" points="500.3832,-134.0721 490.0969,-131.534 496.5553,-139.9328 500.3832,-134.0721"/>
</g>
<!-- Node4 -->
<g id="node5" class="node">
<title>Node4</title>
<polygon fill="none" stroke="#bfbfbf" points="0,-.5 0,-19.5 69,-19.5 69,-.5 0,-.5"/>
<text text-anchor="middle" x="34.5" y="-7.5" font-family="Helvetica,sans-Serif" font-size="10.00" fill="#000000">type_traits</text>
</g>
<!-- Node0&#45;&gt;Node4 -->
<g id="edge16" class="edge">
<title>Node0&#45;&gt;Node4</title>
<path fill="none" stroke="#191970" d="M498.899,-168.4982C462.7551,-157.5529 420.5087,-144.4793 382.5,-132 267.6009,-94.2753 132.7939,-45.7994 70.0147,-22.9775"/>
<polygon fill="#191970" stroke="#191970" points="71.1656,-19.6718 60.5716,-19.5405 68.7715,-26.2497 71.1656,-19.6718"/>
</g>
<!-- Node11 -->
<g id="node12" class="node">
<title>Node11</title>
<polygon fill="none" stroke="#bfbfbf" points="714.5,-.5 714.5,-19.5 758.5,-19.5 758.5,-.5 714.5,-.5"/>
<text text-anchor="middle" x="736.5" y="-7.5" font-family="Helvetica,sans-Serif" font-size="10.00" fill="#000000">string</text>
</g>
<!-- Node0&#45;&gt;Node11 -->
<g id="edge14" class="edge">
<title>Node0&#45;&gt;Node11</title>
<path fill="none" stroke="#191970" d="M588.0247,-168.2211C590.06,-151.083 594.7505,-128.8526 605.5,-112 631.0666,-71.9179 678.0676,-41.1438 708.2704,-24.3219"/>
<polygon fill="#191970" stroke="#191970" points="709.9398,-27.3982 717.062,-19.5544 706.6028,-21.2447 709.9398,-27.3982"/>
</g>
<!-- Node12 -->
<g id="node13" class="node">
<title>Node12</title>
<polygon fill="none" stroke="#bfbfbf" points="614.5,-112.5 614.5,-131.5 764.5,-131.5 764.5,-112.5 614.5,-112.5"/>
<text text-anchor="middle" x="689.5" y="-119.5" font-family="Helvetica,sans-Serif" font-size="10.00" fill="#000000">boost/program_options.hpp</text>
</g>
<!-- Node0&#45;&gt;Node12 -->
<g id="edge13" class="edge">
<title>Node0&#45;&gt;Node12</title>
<path fill="none" stroke="#191970" d="M623.6854,-168.3258C638.4801,-157.912 654.987,-146.2931 667.7685,-137.2965"/>
<polygon fill="#191970" stroke="#191970" points="669.7923,-140.152 675.9551,-131.534 665.7632,-134.4279 669.7923,-140.152"/>
</g>
<!-- Node13 -->
<g id="node14" class="node">
<title>Node13</title>
<polygon fill="none" stroke="#bfbfbf" points="782,-112.5 782,-131.5 829,-131.5 829,-112.5 782,-112.5"/>
<text text-anchor="middle" x="805.5" y="-119.5" font-family="Helvetica,sans-Serif" font-size="10.00" fill="#000000">vector</text>
</g>
<!-- Node0&#45;&gt;Node13 -->
<g id="edge15" class="edge">
<title>Node0&#45;&gt;Node13</title>
<path fill="none" stroke="#191970" d="M665.2546,-168.4283C701.9508,-156.28 743.6602,-142.4721 771.9868,-133.0945"/>
<polygon fill="#191970" stroke="#191970" points="773.3901,-136.3169 781.7834,-129.8514 771.1901,-129.6716 773.3901,-136.3169"/>
</g>
<!-- Node2 -->
<g id="node3" class="node">
<title>Node2</title>
<g id="a_node3"><a xlink:href="../../de/d56/Variant_8h.html" target="_top" xlink:title="Framework/Variant.h">
<polygon fill="none" stroke="#000000" points="321,-56.5 321,-75.5 438,-75.5 438,-56.5 321,-56.5"/>
<text text-anchor="middle" x="379.5" y="-63.5" font-family="Helvetica,sans-Serif" font-size="10.00" fill="#000000">Framework/Variant.h</text>
</a>
</g>
</g>
<!-- Node1&#45;&gt;Node2 -->
<g id="edge2" class="edge">
<title>Node1&#45;&gt;Node2</title>
<path fill="none" stroke="#191970" d="M458.7781,-112.2455C443.9111,-103.5731 421.9534,-90.7645 404.9142,-80.825"/>
<polygon fill="#191970" stroke="#191970" points="406.4317,-77.6582 396.0303,-75.6427 402.9045,-83.7047 406.4317,-77.6582"/>
</g>
<!-- Node1&#45;&gt;Node11 -->
<g id="edge12" class="edge">
<title>Node1&#45;&gt;Node11</title>
<path fill="none" stroke="#191970" d="M486.9731,-112.2899C504.3829,-98.0159 539.0025,-71.3992 572.5,-56 625.315,-31.7204 644.798,-36.7798 704.2863,-20.1933"/>
<polygon fill="#191970" stroke="#191970" points="705.5499,-23.4716 714.1885,-17.3376 703.6102,-16.7457 705.5499,-23.4716"/>
</g>
<!-- Node3 -->
<g id="node4" class="node">
<title>Node3</title>
<g id="a_node4"><a xlink:href="../../d1/d76/RuntimeError_8h.html" target="_top" xlink:title="Framework/RuntimeError.h">
<polygon fill="none" stroke="#000000" points="482.5,-.5 482.5,-19.5 628.5,-19.5 628.5,-.5 482.5,-.5"/>
<text text-anchor="middle" x="555.5" y="-7.5" font-family="Helvetica,sans-Serif" font-size="10.00" fill="#000000">Framework/RuntimeError.h</text>
</a>
</g>
</g>
<!-- Node2&#45;&gt;Node3 -->
<g id="edge3" class="edge">
<title>Node2&#45;&gt;Node3</title>
<path fill="none" stroke="#191970" d="M409.7555,-56.3733C439.1483,-47.021 483.9292,-32.7725 516.0934,-22.5385"/>
<polygon fill="#191970" stroke="#191970" points="517.1713,-25.8685 525.6393,-19.5011 515.0488,-19.198 517.1713,-25.8685"/>
</g>
<!-- Node2&#45;&gt;Node4 -->
<g id="edge4" class="edge">
<title>Node2&#45;&gt;Node4</title>
<path fill="none" stroke="#191970" d="M320.74,-58.2925C262.0537,-50.3075 169.0693,-36.8805 78.8835,-19.9595"/>
<polygon fill="#191970" stroke="#191970" points="79.5146,-16.5169 69.0381,-18.096 78.2127,-23.3947 79.5146,-16.5169"/>
</g>
<!-- Node5 -->
<g id="node6" class="node">
<title>Node5</title>
<polygon fill="none" stroke="#bfbfbf" points="646.5,-.5 646.5,-19.5 696.5,-19.5 696.5,-.5 646.5,-.5"/>
<text text-anchor="middle" x="671.5" y="-7.5" font-family="Helvetica,sans-Serif" font-size="10.00" fill="#000000">cstring</text>
</g>
<!-- Node2&#45;&gt;Node5 -->
<g id="edge5" class="edge">
<title>Node2&#45;&gt;Node5</title>
<path fill="none" stroke="#191970" d="M438.0237,-57.4405C488.3039,-49.6619 562.8843,-37.1166 636.433,-20.0611"/>
<polygon fill="#191970" stroke="#191970" points="637.3961,-23.4303 646.331,-17.7366 635.7956,-16.6157 637.3961,-23.4303"/>
</g>
<!-- Node6 -->
<g id="node7" class="node">
<title>Node6</title>
<polygon fill="none" stroke="#bfbfbf" points="87.5,-.5 87.5,-19.5 137.5,-19.5 137.5,-.5 87.5,-.5"/>
<text text-anchor="middle" x="112.5" y="-7.5" font-family="Helvetica,sans-Serif" font-size="10.00" fill="#000000">cstdint</text>
</g>
<!-- Node2&#45;&gt;Node6 -->
<g id="edge6" class="edge">
<title>Node2&#45;&gt;Node6</title>
<path fill="none" stroke="#191970" d="M323.6352,-56.4479C278.5527,-48.4045 213.319,-36.0142 147.7754,-20.1539"/>
<polygon fill="#191970" stroke="#191970" points="148.227,-16.6612 137.6816,-17.6841 146.5632,-23.4606 148.227,-16.6612"/>
</g>
<!-- Node7 -->
<g id="node8" class="node">
<title>Node7</title>
<polygon fill="none" stroke="#bfbfbf" points="156,-.5 156,-19.5 205,-19.5 205,-.5 156,-.5"/>
<text text-anchor="middle" x="180.5" y="-7.5" font-family="Helvetica,sans-Serif" font-size="10.00" fill="#000000">cstdlib</text>
</g>
<!-- Node2&#45;&gt;Node7 -->
<g id="edge7" class="edge">
<title>Node2&#45;&gt;Node7</title>
<path fill="none" stroke="#191970" d="M344.1337,-56.4628C312.517,-47.8783 264.6829,-34.7479 214.9773,-20.3895"/>
<polygon fill="#191970" stroke="#191970" points="215.9264,-17.0206 205.3473,-17.5989 213.978,-23.744 215.9264,-17.0206"/>
</g>
<!-- Node8 -->
<g id="node9" class="node">
<title>Node8</title>
<polygon fill="none" stroke="#bfbfbf" points="223,-.5 223,-19.5 272,-19.5 272,-.5 223,-.5"/>
<text text-anchor="middle" x="247.5" y="-7.5" font-family="Helvetica,sans-Serif" font-size="10.00" fill="#000000">iosfwd</text>
</g>
<!-- Node2&#45;&gt;Node8 -->
<g id="edge8" class="edge">
<title>Node2&#45;&gt;Node8</title>
<path fill="none" stroke="#191970" d="M356.8084,-56.3733C335.4289,-47.3032 303.1943,-33.6279 279.2638,-23.4755"/>
<polygon fill="#191970" stroke="#191970" points="280.4683,-20.1846 269.8955,-19.5011 277.7344,-26.6287 280.4683,-20.1846"/>
</g>
<!-- Node9 -->
<g id="node10" class="node">
<title>Node9</title>
<polygon fill="none" stroke="#bfbfbf" points="290,-.5 290,-19.5 373,-19.5 373,-.5 290,-.5"/>
<text text-anchor="middle" x="331.5" y="-7.5" font-family="Helvetica,sans-Serif" font-size="10.00" fill="#000000">initializer_list</text>
</g>
<!-- Node2&#45;&gt;Node9 -->
<g id="edge9" class="edge">
<title>Node2&#45;&gt;Node9</title>
<path fill="none" stroke="#191970" d="M371.139,-56.2455C364.325,-48.2958 354.5319,-36.8706 346.3848,-27.3656"/>
<polygon fill="#191970" stroke="#191970" points="348.9305,-24.9575 339.7651,-19.6427 343.6157,-29.513 348.9305,-24.9575"/>
</g>
<!-- Node10 -->
<g id="node11" class="node">
<title>Node10</title>
<polygon fill="none" stroke="#bfbfbf" points="391,-.5 391,-19.5 464,-19.5 464,-.5 391,-.5"/>
<text text-anchor="middle" x="427.5" y="-7.5" font-family="Helvetica,sans-Serif" font-size="10.00" fill="#000000">string_view</text>
</g>
<!-- Node2&#45;&gt;Node10 -->
<g id="edge10" class="edge">
<title>Node2&#45;&gt;Node10</title>
<path fill="none" stroke="#191970" d="M387.861,-56.2455C394.675,-48.2958 404.4681,-36.8706 412.6152,-27.3656"/>
<polygon fill="#191970" stroke="#191970" points="415.3843,-29.513 419.2349,-19.6427 410.0695,-24.9575 415.3843,-29.513"/>
</g>
<!-- Node2&#45;&gt;Node11 -->
<g id="edge11" class="edge">
<title>Node2&#45;&gt;Node11</title>
<path fill="none" stroke="#191970" d="M438.0577,-60.799C501.624,-54.4697 606.1646,-42.0719 704.478,-19.9195"/>
<polygon fill="#191970" stroke="#191970" points="705.3114,-23.3193 714.2769,-17.6739 703.7477,-16.4962 705.3114,-23.3193"/>
</g>
</g>
</svg>
