<?xml version="1.0" encoding="UTF-8" standalone="no"?>
<!DOCTYPE svg PUBLIC "-//W3C//DTD SVG 1.1//EN"
 "http://www.w3.org/Graphics/SVG/1.1/DTD/svg11.dtd">
<!-- Generated by graphviz version 2.40.1 (20161225.0304)
 -->
<!-- Title: /home/travis/build/AliceO2Group/AliceO2/Detectors/GlobalTracking/include/GlobalTracking/MatchTPCITS.h Pages: 1 -->
<svg width="1057pt" height="250pt"
 viewBox="0.00 0.00 1056.50 250.00" xmlns="http://www.w3.org/2000/svg" xmlns:xlink="http://www.w3.org/1999/xlink">
<g id="graph0" class="graph" transform="scale(1 1) rotate(0) translate(4 246)">
<title>/home/travis/build/AliceO2Group/AliceO2/Detectors/GlobalTracking/include/GlobalTracking/MatchTPCITS.h</title>
<!-- Node121 -->
<g id="node1" class="node">
<title>Node121</title>
<polygon fill="#bfbfbf" stroke="#000000" points="253.5,-189.5 253.5,-241.5 458.5,-241.5 458.5,-189.5 253.5,-189.5"/>
<text text-anchor="start" x="261.5" y="-229.5" font-family="Helvetica,sans-Serif" font-size="10.00" fill="#000000">/home/travis/build</text>
<text text-anchor="start" x="261.5" y="-218.5" font-family="Helvetica,sans-Serif" font-size="10.00" fill="#000000">/AliceO2Group/AliceO2</text>
<text text-anchor="start" x="261.5" y="-207.5" font-family="Helvetica,sans-Serif" font-size="10.00" fill="#000000">/Detectors/GlobalTracking</text>
<text text-anchor="middle" x="356" y="-196.5" font-family="Helvetica,sans-Serif" font-size="10.00" fill="#000000">/include/GlobalTracking/MatchTPCITS.h</text>
</g>
<!-- Node122 -->
<g id="node2" class="node">
<title>Node122</title>
<g id="a_node2"><a xlink:href="../../d0/d74/MatchTOF_8h.html" target="_top" xlink:title="Class to perform TOF matching to global tracks. ">
<polygon fill="none" stroke="#000000" points="171,-95 171,-147 359,-147 359,-95 171,-95"/>
<text text-anchor="start" x="179" y="-135" font-family="Helvetica,sans-Serif" font-size="10.00" fill="#000000">/home/travis/build</text>
<text text-anchor="start" x="179" y="-124" font-family="Helvetica,sans-Serif" font-size="10.00" fill="#000000">/AliceO2Group/AliceO2</text>
<text text-anchor="start" x="179" y="-113" font-family="Helvetica,sans-Serif" font-size="10.00" fill="#000000">/Detectors/GlobalTracking</text>
<text text-anchor="middle" x="265" y="-102" font-family="Helvetica,sans-Serif" font-size="10.00" fill="#000000">/include/GlobalTracking/MatchTOF.h</text>
</a>
</g>
</g>
<!-- Node121&#45;&gt;Node122 -->
<g id="edge1" class="edge">
<title>Node121&#45;&gt;Node122</title>
<path fill="none" stroke="#191970" d="M323.8614,-182.1253C312.8644,-170.7054 300.7249,-158.0989 290.341,-147.3157"/>
<polygon fill="#191970" stroke="#191970" points="321.4354,-184.6518 330.893,-189.4273 326.4776,-179.7963 321.4354,-184.6518"/>
</g>
<!-- Node123 -->
<g id="node3" class="node">
<title>Node123</title>
<g id="a_node3"><a xlink:href="../../db/d6a/MatchTOF_8cxx.html" target="_top" xlink:title="/home/travis/build\l/AliceO2Group/AliceO2\l/Detectors/GlobalTracking\l/src/MatchTOF.cxx">
<polygon fill="none" stroke="#000000" points="0,-.5 0,-52.5 142,-52.5 142,-.5 0,-.5"/>
<text text-anchor="start" x="8" y="-40.5" font-family="Helvetica,sans-Serif" font-size="10.00" fill="#000000">/home/travis/build</text>
<text text-anchor="start" x="8" y="-29.5" font-family="Helvetica,sans-Serif" font-size="10.00" fill="#000000">/AliceO2Group/AliceO2</text>
<text text-anchor="start" x="8" y="-18.5" font-family="Helvetica,sans-Serif" font-size="10.00" fill="#000000">/Detectors/GlobalTracking</text>
<text text-anchor="middle" x="71" y="-7.5" font-family="Helvetica,sans-Serif" font-size="10.00" fill="#000000">/src/MatchTOF.cxx</text>
</a>
</g>
</g>
<!-- Node121&#45;&gt;Node123 -->
<g id="edge5" class="edge">
<title>Node121&#45;&gt;Node123</title>
<path fill="none" stroke="#191970" d="M243.7247,-192.5429C215.3328,-183.3111 186.0929,-170.5454 162,-153 125.6967,-126.5625 98.2114,-81.2215 83.3727,-52.6087"/>
<polygon fill="#191970" stroke="#191970" points="242.7233,-195.8968 253.3121,-195.5401 244.8119,-189.2157 242.7233,-195.8968"/>
</g>
<!-- Node126 -->
<g id="node6" class="node">
<title>Node126</title>
<g id="a_node6"><a xlink:href="../../dc/d59/MatchTPCITS_8cxx.html" target="_top" xlink:title="/home/travis/build\l/AliceO2Group/AliceO2\l/Detectors/GlobalTracking\l/src/MatchTPCITS.cxx">
<polygon fill="none" stroke="#000000" points="377,-95 377,-147 519,-147 519,-95 377,-95"/>
<text text-anchor="start" x="385" y="-135" font-family="Helvetica,sans-Serif" font-size="10.00" fill="#000000">/home/travis/build</text>
<text text-anchor="start" x="385" y="-124" font-family="Helvetica,sans-Serif" font-size="10.00" fill="#000000">/AliceO2Group/AliceO2</text>
<text text-anchor="start" x="385" y="-113" font-family="Helvetica,sans-Serif" font-size="10.00" fill="#000000">/Detectors/GlobalTracking</text>
<text text-anchor="middle" x="448" y="-102" font-family="Helvetica,sans-Serif" font-size="10.00" fill="#000000">/src/MatchTPCITS.cxx</text>
</a>
</g>
</g>
<!-- Node121&#45;&gt;Node126 -->
<g id="edge6" class="edge">
<title>Node121&#45;&gt;Node126</title>
<path fill="none" stroke="#191970" d="M388.4918,-182.1253C399.6096,-170.7054 411.8826,-158.0989 422.3805,-147.3157"/>
<polygon fill="#191970" stroke="#191970" points="385.8508,-179.8206 381.3829,-189.4273 390.8665,-184.7036 385.8508,-179.8206"/>
</g>
<!-- Node127 -->
<g id="node7" class="node">
<title>Node127</title>
<g id="a_node7"><a xlink:href="../../da/d20/TPCITSMatchingSpec_8h.html" target="_top" xlink:title="/home/travis/build\l/AliceO2Group/AliceO2\l/Detectors/GlobalTrackingWorkflow\l/include/GlobalTrackingWorkflow\l/TPCITSMatchingSpec.h">
<polygon fill="none" stroke="#000000" points="656.5,-89.5 656.5,-152.5 843.5,-152.5 843.5,-89.5 656.5,-89.5"/>
<text text-anchor="start" x="664.5" y="-140.5" font-family="Helvetica,sans-Serif" font-size="10.00" fill="#000000">/home/travis/build</text>
<text text-anchor="start" x="664.5" y="-129.5" font-family="Helvetica,sans-Serif" font-size="10.00" fill="#000000">/AliceO2Group/AliceO2</text>
<text text-anchor="start" x="664.5" y="-118.5" font-family="Helvetica,sans-Serif" font-size="10.00" fill="#000000">/Detectors/GlobalTrackingWorkflow</text>
<text text-anchor="start" x="664.5" y="-107.5" font-family="Helvetica,sans-Serif" font-size="10.00" fill="#000000">/include/GlobalTrackingWorkflow</text>
<text text-anchor="middle" x="750" y="-96.5" font-family="Helvetica,sans-Serif" font-size="10.00" fill="#000000">/TPCITSMatchingSpec.h</text>
</a>
</g>
</g>
<!-- Node121&#45;&gt;Node127 -->
<g id="edge7" class="edge">
<title>Node121&#45;&gt;Node127</title>
<path fill="none" stroke="#191970" d="M468.5415,-188.5072C527.9188,-174.2657 599.9233,-156.9955 656.2391,-143.4883"/>
<polygon fill="#191970" stroke="#191970" points="467.6551,-185.1204 458.7472,-190.8563 469.2877,-191.9274 467.6551,-185.1204"/>
</g>
<!-- Node122&#45;&gt;Node123 -->
<g id="edge2" class="edge">
<title>Node122&#45;&gt;Node123</title>
<path fill="none" stroke="#191970" d="M202.4172,-90.5151C177.3589,-78.3088 148.7796,-64.3875 124.6867,-52.6515"/>
<polygon fill="#191970" stroke="#191970" points="200.9522,-93.6946 211.4751,-94.9273 204.0177,-87.4015 200.9522,-93.6946"/>
</g>
<!-- Node124 -->
<g id="node4" class="node">
<title>Node124</title>
<g id="a_node4"><a xlink:href="../../d8/d84/RecoWorkflowSpec_8cxx.html" target="_top" xlink:title="/home/travis/build\l/AliceO2Group/AliceO2\l/Detectors/GlobalTrackingWorkflow\l/tofworkflow/src/RecoWorkflowSpec.cxx">
<polygon fill="none" stroke="#000000" points="160.5,-.5 160.5,-52.5 369.5,-52.5 369.5,-.5 160.5,-.5"/>
<text text-anchor="start" x="168.5" y="-40.5" font-family="Helvetica,sans-Serif" font-size="10.00" fill="#000000">/home/travis/build</text>
<text text-anchor="start" x="168.5" y="-29.5" font-family="Helvetica,sans-Serif" font-size="10.00" fill="#000000">/AliceO2Group/AliceO2</text>
<text text-anchor="start" x="168.5" y="-18.5" font-family="Helvetica,sans-Serif" font-size="10.00" fill="#000000">/Detectors/GlobalTrackingWorkflow</text>
<text text-anchor="middle" x="265" y="-7.5" font-family="Helvetica,sans-Serif" font-size="10.00" fill="#000000">/tofworkflow/src/RecoWorkflowSpec.cxx</text>
</a>
</g>
</g>
<!-- Node122&#45;&gt;Node124 -->
<g id="edge3" class="edge">
<title>Node122&#45;&gt;Node124</title>
<path fill="none" stroke="#191970" d="M265,-84.6645C265,-74.0577 265,-62.6746 265,-52.8157"/>
<polygon fill="#191970" stroke="#191970" points="261.5001,-84.9273 265,-94.9273 268.5001,-84.9273 261.5001,-84.9273"/>
</g>
<!-- Node125 -->
<g id="node5" class="node">
<title>Node125</title>
<g id="a_node5"><a xlink:href="../../d4/d76/RecoWorkflowWithTPCSpec_8cxx.html" target="_top" xlink:title="/home/travis/build\l/AliceO2Group/AliceO2\l/Detectors/GlobalTrackingWorkflow\l/tofworkflow/src/RecoWorkflowWithTPCSpec.cxx">
<polygon fill="none" stroke="#000000" points="387.5,-.5 387.5,-52.5 638.5,-52.5 638.5,-.5 387.5,-.5"/>
<text text-anchor="start" x="395.5" y="-40.5" font-family="Helvetica,sans-Serif" font-size="10.00" fill="#000000">/home/travis/build</text>
<text text-anchor="start" x="395.5" y="-29.5" font-family="Helvetica,sans-Serif" font-size="10.00" fill="#000000">/AliceO2Group/AliceO2</text>
<text text-anchor="start" x="395.5" y="-18.5" font-family="Helvetica,sans-Serif" font-size="10.00" fill="#000000">/Detectors/GlobalTrackingWorkflow</text>
<text text-anchor="middle" x="513" y="-7.5" font-family="Helvetica,sans-Serif" font-size="10.00" fill="#000000">/tofworkflow/src/RecoWorkflowWithTPCSpec.cxx</text>
</a>
</g>
</g>
<!-- Node122&#45;&gt;Node125 -->
<g id="edge4" class="edge">
<title>Node122&#45;&gt;Node125</title>
<path fill="none" stroke="#191970" d="M342.9019,-91.3156C375.431,-78.9205 412.895,-64.6449 444.3696,-52.6515"/>
<polygon fill="#191970" stroke="#191970" points="341.5219,-88.0959 333.4236,-94.9273 344.0144,-94.6371 341.5219,-88.0959"/>
</g>
<!-- Node128 -->
<g id="node8" class="node">
<title>Node128</title>
<g id="a_node8"><a xlink:href="../../d5/db4/MatchTPCITSWorkflow_8cxx.html" target="_top" xlink:title="/home/travis/build\l/AliceO2Group/AliceO2\l/Detectors/GlobalTrackingWorkflow\l/src/MatchTPCITSWorkflow.cxx">
<polygon fill="none" stroke="#000000" points="656.5,-.5 656.5,-52.5 843.5,-52.5 843.5,-.5 656.5,-.5"/>
<text text-anchor="start" x="664.5" y="-40.5" font-family="Helvetica,sans-Serif" font-size="10.00" fill="#000000">/home/travis/build</text>
<text text-anchor="start" x="664.5" y="-29.5" font-family="Helvetica,sans-Serif" font-size="10.00" fill="#000000">/AliceO2Group/AliceO2</text>
<text text-anchor="start" x="664.5" y="-18.5" font-family="Helvetica,sans-Serif" font-size="10.00" fill="#000000">/Detectors/GlobalTrackingWorkflow</text>
<text text-anchor="middle" x="750" y="-7.5" font-family="Helvetica,sans-Serif" font-size="10.00" fill="#000000">/src/MatchTPCITSWorkflow.cxx</text>
</a>
</g>
</g>
<!-- Node127&#45;&gt;Node128 -->
<g id="edge8" class="edge">
<title>Node127&#45;&gt;Node128</title>
<path fill="none" stroke="#191970" d="M750,-79.2457C750,-70.2008 750,-60.8836 750,-52.6442"/>
<polygon fill="#191970" stroke="#191970" points="746.5001,-79.2699 750,-89.27 753.5001,-79.27 746.5001,-79.2699"/>
</g>
<!-- Node129 -->
<g id="node9" class="node">
<title>Node129</title>
<g id="a_node9"><a xlink:href="../../d6/d73/TPCITSMatchingSpec_8cxx.html" target="_top" xlink:title="/home/travis/build\l/AliceO2Group/AliceO2\l/Detectors/GlobalTrackingWorkflow\l/src/TPCITSMatchingSpec.cxx">
<polygon fill="none" stroke="#000000" points="861.5,-.5 861.5,-52.5 1048.5,-52.5 1048.5,-.5 861.5,-.5"/>
<text text-anchor="start" x="869.5" y="-40.5" font-family="Helvetica,sans-Serif" font-size="10.00" fill="#000000">/home/travis/build</text>
<text text-anchor="start" x="869.5" y="-29.5" font-family="Helvetica,sans-Serif" font-size="10.00" fill="#000000">/AliceO2Group/AliceO2</text>
<text text-anchor="start" x="869.5" y="-18.5" font-family="Helvetica,sans-Serif" font-size="10.00" fill="#000000">/Detectors/GlobalTrackingWorkflow</text>
<text text-anchor="middle" x="955" y="-7.5" font-family="Helvetica,sans-Serif" font-size="10.00" fill="#000000">/src/TPCITSMatchingSpec.cxx</text>
</a>
</g>
</g>
<!-- Node127&#45;&gt;Node129 -->
<g id="edge9" class="edge">
<title>Node127&#45;&gt;Node129</title>
<path fill="none" stroke="#191970" d="M827.7947,-85.1385C851.2927,-74.3065 876.6326,-62.6254 898.4641,-52.5617"/>
<polygon fill="#191970" stroke="#191970" points="826.1633,-82.0365 818.547,-89.4015 829.0938,-88.3936 826.1633,-82.0365"/>
</g>
</g>
</svg>
