<?xml version="1.0" encoding="UTF-8" standalone="no"?>
<!DOCTYPE svg PUBLIC "-//W3C//DTD SVG 1.1//EN"
 "http://www.w3.org/Graphics/SVG/1.1/DTD/svg11.dtd">
<!-- Generated by graphviz version 2.40.1 (20161225.0304)
 -->
<!-- Title: /home/travis/build/AliceO2Group/AliceO2/DataFormats/Detectors/ITSMFT/common/include/DataFormatsITSMFT/Cluster.h Pages: 1 -->
<svg width="2477pt" height="372pt"
 viewBox="0.00 0.00 2476.50 372.00" xmlns="http://www.w3.org/2000/svg" xmlns:xlink="http://www.w3.org/1999/xlink">
<g id="graph0" class="graph" transform="scale(1 1) rotate(0) translate(4 368)">
<title>/home/travis/build/AliceO2Group/AliceO2/DataFormats/Detectors/ITSMFT/common/include/DataFormatsITSMFT/Cluster.h</title>
<!-- Node46 -->
<g id="node1" class="node">
<title>Node46</title>
<polygon fill="#bfbfbf" stroke="#000000" points="878.5,-300.5 878.5,-363.5 1041.5,-363.5 1041.5,-300.5 878.5,-300.5"/>
<text text-anchor="start" x="886.5" y="-351.5" font-family="Helvetica,sans-Serif" font-size="10.00" fill="#000000">/home/travis/build</text>
<text text-anchor="start" x="886.5" y="-340.5" font-family="Helvetica,sans-Serif" font-size="10.00" fill="#000000">/AliceO2Group/AliceO2</text>
<text text-anchor="start" x="886.5" y="-329.5" font-family="Helvetica,sans-Serif" font-size="10.00" fill="#000000">/DataFormats/Detectors</text>
<text text-anchor="start" x="886.5" y="-318.5" font-family="Helvetica,sans-Serif" font-size="10.00" fill="#000000">/ITSMFT/common/include</text>
<text text-anchor="middle" x="960" y="-307.5" font-family="Helvetica,sans-Serif" font-size="10.00" fill="#000000">/DataFormatsITSMFT/Cluster.h</text>
</g>
<!-- Node47 -->
<g id="node2" class="node">
<title>Node47</title>
<g id="a_node2"><a xlink:href="../../df/db9/DataFormats_2Detectors_2ITSMFT_2common_2src_2Cluster_8cxx.html" target="_top" xlink:title="/home/travis/build\l/AliceO2Group/AliceO2\l/DataFormats/Detectors\l/ITSMFT/common/src/Cluster.cxx">
<polygon fill="none" stroke="#000000" points="138,-206 138,-258 312,-258 312,-206 138,-206"/>
<text text-anchor="start" x="146" y="-246" font-family="Helvetica,sans-Serif" font-size="10.00" fill="#000000">/home/travis/build</text>
<text text-anchor="start" x="146" y="-235" font-family="Helvetica,sans-Serif" font-size="10.00" fill="#000000">/AliceO2Group/AliceO2</text>
<text text-anchor="start" x="146" y="-224" font-family="Helvetica,sans-Serif" font-size="10.00" fill="#000000">/DataFormats/Detectors</text>
<text text-anchor="middle" x="225" y="-213" font-family="Helvetica,sans-Serif" font-size="10.00" fill="#000000">/ITSMFT/common/src/Cluster.cxx</text>
</a>
</g>
</g>
<!-- Node46&#45;&gt;Node47 -->
<g id="edge1" class="edge">
<title>Node46&#45;&gt;Node47</title>
<path fill="none" stroke="#191970" d="M868.117,-328.444C743.0841,-322.1984 512.9337,-305.6892 321,-264 313.3603,-262.3406 305.4758,-260.2912 297.6625,-258.0375"/>
<polygon fill="#191970" stroke="#191970" points="868.2507,-331.9546 878.4095,-328.9468 868.5922,-324.963 868.2507,-331.9546"/>
</g>
<!-- Node48 -->
<g id="node3" class="node">
<title>Node48</title>
<g id="a_node3"><a xlink:href="../../da/db3/test__Cluster_8cxx.html" target="_top" xlink:title="/home/travis/build\l/AliceO2Group/AliceO2\l/DataFormats/Detectors\l/ITSMFT/common/test/test\l_Cluster.cxx">
<polygon fill="none" stroke="#000000" points="330.5,-200.5 330.5,-263.5 473.5,-263.5 473.5,-200.5 330.5,-200.5"/>
<text text-anchor="start" x="338.5" y="-251.5" font-family="Helvetica,sans-Serif" font-size="10.00" fill="#000000">/home/travis/build</text>
<text text-anchor="start" x="338.5" y="-240.5" font-family="Helvetica,sans-Serif" font-size="10.00" fill="#000000">/AliceO2Group/AliceO2</text>
<text text-anchor="start" x="338.5" y="-229.5" font-family="Helvetica,sans-Serif" font-size="10.00" fill="#000000">/DataFormats/Detectors</text>
<text text-anchor="start" x="338.5" y="-218.5" font-family="Helvetica,sans-Serif" font-size="10.00" fill="#000000">/ITSMFT/common/test/test</text>
<text text-anchor="middle" x="402" y="-207.5" font-family="Helvetica,sans-Serif" font-size="10.00" fill="#000000">_Cluster.cxx</text>
</a>
</g>
</g>
<!-- Node46&#45;&gt;Node48 -->
<g id="edge2" class="edge">
<title>Node46&#45;&gt;Node48</title>
<path fill="none" stroke="#191970" d="M868.3836,-325.5118C771.1948,-317.1183 613.7952,-299.1886 482,-264 479.254,-263.2668 476.475,-262.4662 473.6829,-261.6122"/>
<polygon fill="#191970" stroke="#191970" points="868.2119,-329.0097 878.4719,-326.3674 868.8035,-322.0347 868.2119,-329.0097"/>
</g>
<!-- Node49 -->
<g id="node4" class="node">
<title>Node49</title>
<g id="a_node4"><a xlink:href="../../dd/dea/TrackITS_8cxx.html" target="_top" xlink:title="Implementation of the ITS cooked track. ">
<polygon fill="none" stroke="#000000" points="491.5,-206 491.5,-258 644.5,-258 644.5,-206 491.5,-206"/>
<text text-anchor="start" x="499.5" y="-246" font-family="Helvetica,sans-Serif" font-size="10.00" fill="#000000">/home/travis/build</text>
<text text-anchor="start" x="499.5" y="-235" font-family="Helvetica,sans-Serif" font-size="10.00" fill="#000000">/AliceO2Group/AliceO2</text>
<text text-anchor="start" x="499.5" y="-224" font-family="Helvetica,sans-Serif" font-size="10.00" fill="#000000">/DataFormats/Detectors</text>
<text text-anchor="middle" x="568" y="-213" font-family="Helvetica,sans-Serif" font-size="10.00" fill="#000000">/ITSMFT/ITS/src/TrackITS.cxx</text>
</a>
</g>
</g>
<!-- Node46&#45;&gt;Node49 -->
<g id="edge3" class="edge">
<title>Node46&#45;&gt;Node49</title>
<path fill="none" stroke="#191970" d="M868.3314,-315.24C806.8506,-303.1358 724.3762,-285.2234 653,-264 646.9544,-262.2024 640.7228,-260.1852 634.511,-258.0611"/>
<polygon fill="#191970" stroke="#191970" points="867.913,-318.7244 878.3986,-317.2071 869.2554,-311.8543 867.913,-318.7244"/>
</g>
<!-- Node50 -->
<g id="node5" class="node">
<title>Node50</title>
<g id="a_node5"><a xlink:href="../../d3/dac/MatchTPCITS_8h.html" target="_top" xlink:title="Class to perform TPC ITS matching. ">
<polygon fill="none" stroke="#000000" points="662.5,-206 662.5,-258 867.5,-258 867.5,-206 662.5,-206"/>
<text text-anchor="start" x="670.5" y="-246" font-family="Helvetica,sans-Serif" font-size="10.00" fill="#000000">/home/travis/build</text>
<text text-anchor="start" x="670.5" y="-235" font-family="Helvetica,sans-Serif" font-size="10.00" fill="#000000">/AliceO2Group/AliceO2</text>
<text text-anchor="start" x="670.5" y="-224" font-family="Helvetica,sans-Serif" font-size="10.00" fill="#000000">/Detectors/GlobalTracking</text>
<text text-anchor="middle" x="765" y="-213" font-family="Helvetica,sans-Serif" font-size="10.00" fill="#000000">/include/GlobalTracking/MatchTPCITS.h</text>
</a>
</g>
</g>
<!-- Node46&#45;&gt;Node50 -->
<g id="edge4" class="edge">
<title>Node46&#45;&gt;Node50</title>
<path fill="none" stroke="#191970" d="M889.3927,-295.7911C865.1065,-283.3367 838.4053,-269.6437 815.9882,-258.1478"/>
<polygon fill="#191970" stroke="#191970" points="888.0731,-299.0478 898.5684,-300.4966 891.2674,-292.819 888.0731,-299.0478"/>
</g>
<!-- Node58 -->
<g id="node13" class="node">
<title>Node58</title>
<g id="a_node13"><a xlink:href="../../d6/d73/TPCITSMatchingSpec_8cxx.html" target="_top" xlink:title="/home/travis/build\l/AliceO2Group/AliceO2\l/Detectors/GlobalTrackingWorkflow\l/src/TPCITSMatchingSpec.cxx">
<polygon fill="none" stroke="#000000" points="861.5,-6 861.5,-58 1048.5,-58 1048.5,-6 861.5,-6"/>
<text text-anchor="start" x="869.5" y="-46" font-family="Helvetica,sans-Serif" font-size="10.00" fill="#000000">/home/travis/build</text>
<text text-anchor="start" x="869.5" y="-35" font-family="Helvetica,sans-Serif" font-size="10.00" fill="#000000">/AliceO2Group/AliceO2</text>
<text text-anchor="start" x="869.5" y="-24" font-family="Helvetica,sans-Serif" font-size="10.00" fill="#000000">/Detectors/GlobalTrackingWorkflow</text>
<text text-anchor="middle" x="955" y="-13" font-family="Helvetica,sans-Serif" font-size="10.00" fill="#000000">/src/TPCITSMatchingSpec.cxx</text>
</a>
</g>
</g>
<!-- Node46&#45;&gt;Node58 -->
<g id="edge14" class="edge">
<title>Node46&#45;&gt;Node58</title>
<path fill="none" stroke="#191970" d="M932.7186,-291.3869C928.0276,-282.6775 923.7758,-273.2909 921,-264 900.1204,-194.1148 895.8363,-170.3751 915,-100 919.0305,-85.1988 927.1906,-70.333 935.0954,-58.2922"/>
<polygon fill="#191970" stroke="#191970" points="929.7365,-293.2233 937.7227,-300.1854 935.8213,-289.7626 929.7365,-293.2233"/>
</g>
<!-- Node59 -->
<g id="node14" class="node">
<title>Node59</title>
<g id="a_node14"><a xlink:href="../../d6/d0c/CookedTracker_8h.html" target="_top" xlink:title="Definition of the &quot;Cooked Matrix&quot; ITS tracker. ">
<polygon fill="none" stroke="#000000" points="930,-200.5 930,-263.5 1120,-263.5 1120,-200.5 930,-200.5"/>
<text text-anchor="start" x="938" y="-251.5" font-family="Helvetica,sans-Serif" font-size="10.00" fill="#000000">/home/travis/build</text>
<text text-anchor="start" x="938" y="-240.5" font-family="Helvetica,sans-Serif" font-size="10.00" fill="#000000">/AliceO2Group/AliceO2</text>
<text text-anchor="start" x="938" y="-229.5" font-family="Helvetica,sans-Serif" font-size="10.00" fill="#000000">/Detectors/ITSMFT/ITS</text>
<text text-anchor="start" x="938" y="-218.5" font-family="Helvetica,sans-Serif" font-size="10.00" fill="#000000">/reconstruction/include</text>
<text text-anchor="middle" x="1025" y="-207.5" font-family="Helvetica,sans-Serif" font-size="10.00" fill="#000000">/ITSReconstruction/CookedTracker.h</text>
</a>
</g>
</g>
<!-- Node46&#45;&gt;Node59 -->
<g id="edge15" class="edge">
<title>Node46&#45;&gt;Node59</title>
<path fill="none" stroke="#191970" d="M986.0415,-291.9361C992.1279,-282.5725 998.5291,-272.7244 1004.3443,-263.778"/>
<polygon fill="#191970" stroke="#191970" points="983.0818,-290.0674 980.5664,-300.3594 988.9509,-293.8824 983.0818,-290.0674"/>
</g>
<!-- Node62 -->
<g id="node17" class="node">
<title>Node62</title>
<g id="a_node17"><a xlink:href="../../d6/dbc/CookedTrackerSpec_8cxx.html" target="_top" xlink:title="/home/travis/build\l/AliceO2Group/AliceO2\l/Detectors/ITSMFT/ITS\l/workflow/src/CookedTrackerSpec.cxx">
<polygon fill="none" stroke="#000000" points="1257,-6 1257,-58 1457,-58 1457,-6 1257,-6"/>
<text text-anchor="start" x="1265" y="-46" font-family="Helvetica,sans-Serif" font-size="10.00" fill="#000000">/home/travis/build</text>
<text text-anchor="start" x="1265" y="-35" font-family="Helvetica,sans-Serif" font-size="10.00" fill="#000000">/AliceO2Group/AliceO2</text>
<text text-anchor="start" x="1265" y="-24" font-family="Helvetica,sans-Serif" font-size="10.00" fill="#000000">/Detectors/ITSMFT/ITS</text>
<text text-anchor="middle" x="1357" y="-13" font-family="Helvetica,sans-Serif" font-size="10.00" fill="#000000">/workflow/src/CookedTrackerSpec.cxx</text>
</a>
</g>
</g>
<!-- Node46&#45;&gt;Node62 -->
<g id="edge20" class="edge">
<title>Node46&#45;&gt;Node62</title>
<path fill="none" stroke="#191970" d="M1051.4503,-312.461C1132.9961,-290.2744 1249.5945,-245.989 1317,-164 1342.2437,-133.2947 1351.5683,-86.9082 1355.0047,-58.0877"/>
<polygon fill="#191970" stroke="#191970" points="1050.4496,-309.1054 1041.6851,-315.0582 1052.2488,-315.8702 1050.4496,-309.1054"/>
</g>
<!-- Node64 -->
<g id="node19" class="node">
<title>Node64</title>
<g id="a_node19"><a xlink:href="../../db/d12/ITSMFT_2MFT_2reconstruction_2include_2MFTReconstruction_2ClustererTask_8h.html" target="_top" xlink:title="/home/travis/build\l/AliceO2Group/AliceO2\l/Detectors/ITSMFT/MFT\l/reconstruction/include\l/MFTReconstruction/ClustererTask.h">
<polygon fill="none" stroke="#000000" points="1367.5,-200.5 1367.5,-263.5 1556.5,-263.5 1556.5,-200.5 1367.5,-200.5"/>
<text text-anchor="start" x="1375.5" y="-251.5" font-family="Helvetica,sans-Serif" font-size="10.00" fill="#000000">/home/travis/build</text>
<text text-anchor="start" x="1375.5" y="-240.5" font-family="Helvetica,sans-Serif" font-size="10.00" fill="#000000">/AliceO2Group/AliceO2</text>
<text text-anchor="start" x="1375.5" y="-229.5" font-family="Helvetica,sans-Serif" font-size="10.00" fill="#000000">/Detectors/ITSMFT/MFT</text>
<text text-anchor="start" x="1375.5" y="-218.5" font-family="Helvetica,sans-Serif" font-size="10.00" fill="#000000">/reconstruction/include</text>
<text text-anchor="middle" x="1462" y="-207.5" font-family="Helvetica,sans-Serif" font-size="10.00" fill="#000000">/MFTReconstruction/ClustererTask.h</text>
</a>
</g>
</g>
<!-- Node46&#45;&gt;Node64 -->
<g id="edge21" class="edge">
<title>Node46&#45;&gt;Node64</title>
<path fill="none" stroke="#191970" d="M1051.7646,-318.9204C1131.3614,-306.8908 1249.4277,-287.4008 1351,-264 1356.3745,-262.7618 1361.8752,-261.4203 1367.413,-260.0121"/>
<polygon fill="#191970" stroke="#191970" points="1051.1358,-315.4755 1041.7669,-320.4227 1052.176,-322.3978 1051.1358,-315.4755"/>
</g>
<!-- Node66 -->
<g id="node21" class="node">
<title>Node66</title>
<g id="a_node21"><a xlink:href="../../d3/d0c/TrackInterpolation_8h.html" target="_top" xlink:title="Definition of the TrackInterpolation class. ">
<polygon fill="none" stroke="#000000" points="1741.5,-200.5 1741.5,-263.5 1920.5,-263.5 1920.5,-200.5 1741.5,-200.5"/>
<text text-anchor="start" x="1749.5" y="-251.5" font-family="Helvetica,sans-Serif" font-size="10.00" fill="#000000">/home/travis/build</text>
<text text-anchor="start" x="1749.5" y="-240.5" font-family="Helvetica,sans-Serif" font-size="10.00" fill="#000000">/AliceO2Group/AliceO2</text>
<text text-anchor="start" x="1749.5" y="-229.5" font-family="Helvetica,sans-Serif" font-size="10.00" fill="#000000">/Detectors/TPC/calibration</text>
<text text-anchor="start" x="1749.5" y="-218.5" font-family="Helvetica,sans-Serif" font-size="10.00" fill="#000000">/SpacePoints/include/SpacePoints</text>
<text text-anchor="middle" x="1831" y="-207.5" font-family="Helvetica,sans-Serif" font-size="10.00" fill="#000000">/TrackInterpolation.h</text>
</a>
</g>
</g>
<!-- Node46&#45;&gt;Node66 -->
<g id="edge23" class="edge">
<title>Node46&#45;&gt;Node66</title>
<path fill="none" stroke="#191970" d="M1051.8582,-321.9009C1170.4374,-308.8122 1383.159,-285.1566 1565,-264 1623.7919,-257.1597 1689.8593,-249.2131 1741.4432,-242.9501"/>
<polygon fill="#191970" stroke="#191970" points="1051.2888,-318.4424 1041.733,-323.0181 1052.0565,-325.4001 1051.2888,-318.4424"/>
</g>
<!-- Node74 -->
<g id="node29" class="node">
<title>Node74</title>
<g id="a_node29"><a xlink:href="../../d2/d8a/DataInterpreterITS_8cxx.html" target="_top" xlink:title="converting ITS data to Event Visualisation primitives ">
<polygon fill="none" stroke="#000000" points="1938.5,-206 1938.5,-258 2099.5,-258 2099.5,-206 1938.5,-206"/>
<text text-anchor="start" x="1946.5" y="-246" font-family="Helvetica,sans-Serif" font-size="10.00" fill="#000000">/home/travis/build</text>
<text text-anchor="start" x="1946.5" y="-235" font-family="Helvetica,sans-Serif" font-size="10.00" fill="#000000">/AliceO2Group/AliceO2</text>
<text text-anchor="start" x="1946.5" y="-224" font-family="Helvetica,sans-Serif" font-size="10.00" fill="#000000">/EventVisualisation/Detectors</text>
<text text-anchor="middle" x="2019" y="-213" font-family="Helvetica,sans-Serif" font-size="10.00" fill="#000000">/src/DataInterpreterITS.cxx</text>
</a>
</g>
</g>
<!-- Node46&#45;&gt;Node74 -->
<g id="edge31" class="edge">
<title>Node46&#45;&gt;Node74</title>
<path fill="none" stroke="#191970" d="M1051.8371,-328.7837C1260.2779,-320.9617 1763.9142,-298.9788 1930,-264 1937.391,-262.4434 1944.9994,-260.413 1952.5085,-258.1294"/>
<polygon fill="#191970" stroke="#191970" points="1051.699,-325.2863 1041.8364,-329.1566 1051.9599,-332.2815 1051.699,-325.2863"/>
</g>
<!-- Node51 -->
<g id="node6" class="node">
<title>Node51</title>
<g id="a_node6"><a xlink:href="../../d0/d74/MatchTOF_8h.html" target="_top" xlink:title="Class to perform TOF matching to global tracks. ">
<polygon fill="none" stroke="#000000" points="230,-106 230,-158 418,-158 418,-106 230,-106"/>
<text text-anchor="start" x="238" y="-146" font-family="Helvetica,sans-Serif" font-size="10.00" fill="#000000">/home/travis/build</text>
<text text-anchor="start" x="238" y="-135" font-family="Helvetica,sans-Serif" font-size="10.00" fill="#000000">/AliceO2Group/AliceO2</text>
<text text-anchor="start" x="238" y="-124" font-family="Helvetica,sans-Serif" font-size="10.00" fill="#000000">/Detectors/GlobalTracking</text>
<text text-anchor="middle" x="324" y="-113" font-family="Helvetica,sans-Serif" font-size="10.00" fill="#000000">/include/GlobalTracking/MatchTOF.h</text>
</a>
</g>
</g>
<!-- Node50&#45;&gt;Node51 -->
<g id="edge5" class="edge">
<title>Node50&#45;&gt;Node51</title>
<path fill="none" stroke="#191970" d="M666.3245,-203.3711C661.8285,-202.2041 657.3709,-201.0745 653,-200 574.2719,-180.6456 484.0435,-162.2614 418.0135,-149.4999"/>
<polygon fill="#191970" stroke="#191970" points="665.648,-206.8123 676.21,-205.9786 667.4333,-200.0438 665.648,-206.8123"/>
</g>
<!-- Node52 -->
<g id="node7" class="node">
<title>Node52</title>
<g id="a_node7"><a xlink:href="../../db/d6a/MatchTOF_8cxx.html" target="_top" xlink:title="/home/travis/build\l/AliceO2Group/AliceO2\l/Detectors/GlobalTracking\l/src/MatchTOF.cxx">
<polygon fill="none" stroke="#000000" points="0,-6 0,-58 142,-58 142,-6 0,-6"/>
<text text-anchor="start" x="8" y="-46" font-family="Helvetica,sans-Serif" font-size="10.00" fill="#000000">/home/travis/build</text>
<text text-anchor="start" x="8" y="-35" font-family="Helvetica,sans-Serif" font-size="10.00" fill="#000000">/AliceO2Group/AliceO2</text>
<text text-anchor="start" x="8" y="-24" font-family="Helvetica,sans-Serif" font-size="10.00" fill="#000000">/Detectors/GlobalTracking</text>
<text text-anchor="middle" x="71" y="-13" font-family="Helvetica,sans-Serif" font-size="10.00" fill="#000000">/src/MatchTOF.cxx</text>
</a>
</g>
</g>
<!-- Node50&#45;&gt;Node52 -->
<g id="edge9" class="edge">
<title>Node50&#45;&gt;Node52</title>
<path fill="none" stroke="#191970" d="M670.4888,-203.6014C664.5983,-202.2655 658.7348,-201.0478 653,-200 463.4721,-165.3706 398.2763,-239.4528 221,-164 166.2599,-140.7014 117.5437,-89.3783 91.3474,-58.0355"/>
<polygon fill="#191970" stroke="#191970" points="669.872,-207.0521 680.4096,-205.9522 671.486,-200.2407 669.872,-207.0521"/>
</g>
<!-- Node55 -->
<g id="node10" class="node">
<title>Node55</title>
<g id="a_node10"><a xlink:href="../../dc/d59/MatchTPCITS_8cxx.html" target="_top" xlink:title="/home/travis/build\l/AliceO2Group/AliceO2\l/Detectors/GlobalTracking\l/src/MatchTPCITS.cxx">
<polygon fill="none" stroke="#000000" points="516,-106 516,-158 658,-158 658,-106 516,-106"/>
<text text-anchor="start" x="524" y="-146" font-family="Helvetica,sans-Serif" font-size="10.00" fill="#000000">/home/travis/build</text>
<text text-anchor="start" x="524" y="-135" font-family="Helvetica,sans-Serif" font-size="10.00" fill="#000000">/AliceO2Group/AliceO2</text>
<text text-anchor="start" x="524" y="-124" font-family="Helvetica,sans-Serif" font-size="10.00" fill="#000000">/Detectors/GlobalTracking</text>
<text text-anchor="middle" x="587" y="-113" font-family="Helvetica,sans-Serif" font-size="10.00" fill="#000000">/src/MatchTPCITS.cxx</text>
</a>
</g>
</g>
<!-- Node50&#45;&gt;Node55 -->
<g id="edge10" class="edge">
<title>Node50&#45;&gt;Node55</title>
<path fill="none" stroke="#191970" d="M709.8619,-201.0236C685.3391,-187.2467 656.7854,-171.2053 633.3798,-158.0561"/>
<polygon fill="#191970" stroke="#191970" points="708.2646,-204.1406 718.6973,-205.9872 711.6932,-198.0378 708.2646,-204.1406"/>
</g>
<!-- Node56 -->
<g id="node11" class="node">
<title>Node56</title>
<g id="a_node11"><a xlink:href="../../da/d20/TPCITSMatchingSpec_8h.html" target="_top" xlink:title="/home/travis/build\l/AliceO2Group/AliceO2\l/Detectors/GlobalTrackingWorkflow\l/include/GlobalTrackingWorkflow\l/TPCITSMatchingSpec.h">
<polygon fill="none" stroke="#000000" points="676.5,-100.5 676.5,-163.5 863.5,-163.5 863.5,-100.5 676.5,-100.5"/>
<text text-anchor="start" x="684.5" y="-151.5" font-family="Helvetica,sans-Serif" font-size="10.00" fill="#000000">/home/travis/build</text>
<text text-anchor="start" x="684.5" y="-140.5" font-family="Helvetica,sans-Serif" font-size="10.00" fill="#000000">/AliceO2Group/AliceO2</text>
<text text-anchor="start" x="684.5" y="-129.5" font-family="Helvetica,sans-Serif" font-size="10.00" fill="#000000">/Detectors/GlobalTrackingWorkflow</text>
<text text-anchor="start" x="684.5" y="-118.5" font-family="Helvetica,sans-Serif" font-size="10.00" fill="#000000">/include/GlobalTrackingWorkflow</text>
<text text-anchor="middle" x="770" y="-107.5" font-family="Helvetica,sans-Serif" font-size="10.00" fill="#000000">/TPCITSMatchingSpec.h</text>
</a>
</g>
</g>
<!-- Node50&#45;&gt;Node56 -->
<g id="edge11" class="edge">
<title>Node50&#45;&gt;Node56</title>
<path fill="none" stroke="#191970" d="M766.8093,-195.8138C767.3367,-185.2664 767.9085,-173.829 768.4205,-163.5891"/>
<polygon fill="#191970" stroke="#191970" points="763.3045,-195.8249 766.3006,-205.9872 770.2957,-196.1745 763.3045,-195.8249"/>
</g>
<!-- Node51&#45;&gt;Node52 -->
<g id="edge6" class="edge">
<title>Node51&#45;&gt;Node52</title>
<path fill="none" stroke="#191970" d="M247.8062,-102.1646C217.643,-90.3239 182.6714,-76.5586 151,-64 146.1331,-62.0701 141.1016,-60.0698 136.0415,-58.0544"/>
<polygon fill="#191970" stroke="#191970" points="246.8328,-105.5424 257.4203,-105.9375 249.39,-99.0262 246.8328,-105.5424"/>
</g>
<!-- Node53 -->
<g id="node8" class="node">
<title>Node53</title>
<g id="a_node8"><a xlink:href="../../d8/d84/RecoWorkflowSpec_8cxx.html" target="_top" xlink:title="/home/travis/build\l/AliceO2Group/AliceO2\l/Detectors/GlobalTrackingWorkflow\l/tofworkflow/src/RecoWorkflowSpec.cxx">
<polygon fill="none" stroke="#000000" points="160.5,-6 160.5,-58 369.5,-58 369.5,-6 160.5,-6"/>
<text text-anchor="start" x="168.5" y="-46" font-family="Helvetica,sans-Serif" font-size="10.00" fill="#000000">/home/travis/build</text>
<text text-anchor="start" x="168.5" y="-35" font-family="Helvetica,sans-Serif" font-size="10.00" fill="#000000">/AliceO2Group/AliceO2</text>
<text text-anchor="start" x="168.5" y="-24" font-family="Helvetica,sans-Serif" font-size="10.00" fill="#000000">/Detectors/GlobalTrackingWorkflow</text>
<text text-anchor="middle" x="265" y="-13" font-family="Helvetica,sans-Serif" font-size="10.00" fill="#000000">/tofworkflow/src/RecoWorkflowSpec.cxx</text>
</a>
</g>
</g>
<!-- Node51&#45;&gt;Node53 -->
<g id="edge7" class="edge">
<title>Node51&#45;&gt;Node53</title>
<path fill="none" stroke="#191970" d="M303.3579,-97.0134C295.8378,-84.2674 287.4711,-70.0866 280.4757,-58.2299"/>
<polygon fill="#191970" stroke="#191970" points="300.5565,-99.1531 308.6525,-105.9872 306.5854,-95.596 300.5565,-99.1531"/>
</g>
<!-- Node54 -->
<g id="node9" class="node">
<title>Node54</title>
<g id="a_node9"><a xlink:href="../../d4/d76/RecoWorkflowWithTPCSpec_8cxx.html" target="_top" xlink:title="/home/travis/build\l/AliceO2Group/AliceO2\l/Detectors/GlobalTrackingWorkflow\l/tofworkflow/src/RecoWorkflowWithTPCSpec.cxx">
<polygon fill="none" stroke="#000000" points="387.5,-6 387.5,-58 638.5,-58 638.5,-6 387.5,-6"/>
<text text-anchor="start" x="395.5" y="-46" font-family="Helvetica,sans-Serif" font-size="10.00" fill="#000000">/home/travis/build</text>
<text text-anchor="start" x="395.5" y="-35" font-family="Helvetica,sans-Serif" font-size="10.00" fill="#000000">/AliceO2Group/AliceO2</text>
<text text-anchor="start" x="395.5" y="-24" font-family="Helvetica,sans-Serif" font-size="10.00" fill="#000000">/Detectors/GlobalTrackingWorkflow</text>
<text text-anchor="middle" x="513" y="-13" font-family="Helvetica,sans-Serif" font-size="10.00" fill="#000000">/tofworkflow/src/RecoWorkflowWithTPCSpec.cxx</text>
</a>
</g>
</g>
<!-- Node51&#45;&gt;Node54 -->
<g id="edge8" class="edge">
<title>Node51&#45;&gt;Node54</title>
<path fill="none" stroke="#191970" d="M382.2031,-101.2047C408.3177,-87.3875 438.793,-71.263 463.754,-58.0561"/>
<polygon fill="#191970" stroke="#191970" points="380.3663,-98.2168 373.1641,-105.9872 383.64,-104.4041 380.3663,-98.2168"/>
</g>
<!-- Node57 -->
<g id="node12" class="node">
<title>Node57</title>
<g id="a_node12"><a xlink:href="../../d5/db4/MatchTPCITSWorkflow_8cxx.html" target="_top" xlink:title="/home/travis/build\l/AliceO2Group/AliceO2\l/Detectors/GlobalTrackingWorkflow\l/src/MatchTPCITSWorkflow.cxx">
<polygon fill="none" stroke="#000000" points="656.5,-6 656.5,-58 843.5,-58 843.5,-6 656.5,-6"/>
<text text-anchor="start" x="664.5" y="-46" font-family="Helvetica,sans-Serif" font-size="10.00" fill="#000000">/home/travis/build</text>
<text text-anchor="start" x="664.5" y="-35" font-family="Helvetica,sans-Serif" font-size="10.00" fill="#000000">/AliceO2Group/AliceO2</text>
<text text-anchor="start" x="664.5" y="-24" font-family="Helvetica,sans-Serif" font-size="10.00" fill="#000000">/Detectors/GlobalTrackingWorkflow</text>
<text text-anchor="middle" x="750" y="-13" font-family="Helvetica,sans-Serif" font-size="10.00" fill="#000000">/src/MatchTPCITSWorkflow.cxx</text>
</a>
</g>
</g>
<!-- Node56&#45;&gt;Node57 -->
<g id="edge12" class="edge">
<title>Node56&#45;&gt;Node57</title>
<path fill="none" stroke="#191970" d="M761.6999,-90.4993C759.5043,-79.5216 757.1962,-67.9808 755.2156,-58.078"/>
<polygon fill="#191970" stroke="#191970" points="758.2786,-91.24 763.6719,-100.3594 765.1427,-89.8671 758.2786,-91.24"/>
</g>
<!-- Node56&#45;&gt;Node58 -->
<g id="edge13" class="edge">
<title>Node56&#45;&gt;Node58</title>
<path fill="none" stroke="#191970" d="M837.291,-95.6265C860.2503,-83.2161 885.4528,-69.5931 906.6266,-58.1478"/>
<polygon fill="#191970" stroke="#191970" points="835.414,-92.6624 828.2812,-100.4966 838.7426,-98.8204 835.414,-92.6624"/>
</g>
<!-- Node60 -->
<g id="node15" class="node">
<title>Node60</title>
<g id="a_node15"><a xlink:href="../../d7/dca/CookedTracker_8cxx.html" target="_top" xlink:title="Implementation of the &quot;Cooked Matrix&quot; ITS tracker. ">
<polygon fill="none" stroke="#000000" points="924.5,-106 924.5,-158 1125.5,-158 1125.5,-106 924.5,-106"/>
<text text-anchor="start" x="932.5" y="-146" font-family="Helvetica,sans-Serif" font-size="10.00" fill="#000000">/home/travis/build</text>
<text text-anchor="start" x="932.5" y="-135" font-family="Helvetica,sans-Serif" font-size="10.00" fill="#000000">/AliceO2Group/AliceO2</text>
<text text-anchor="start" x="932.5" y="-124" font-family="Helvetica,sans-Serif" font-size="10.00" fill="#000000">/Detectors/ITSMFT/ITS</text>
<text text-anchor="middle" x="1025" y="-113" font-family="Helvetica,sans-Serif" font-size="10.00" fill="#000000">/reconstruction/src/CookedTracker.cxx</text>
</a>
</g>
</g>
<!-- Node59&#45;&gt;Node60 -->
<g id="edge16" class="edge">
<title>Node59&#45;&gt;Node60</title>
<path fill="none" stroke="#191970" d="M1025,-190.1631C1025,-179.2863 1025,-167.8798 1025,-158.078"/>
<polygon fill="#191970" stroke="#191970" points="1021.5001,-190.3593 1025,-200.3594 1028.5001,-190.3594 1021.5001,-190.3593"/>
</g>
<!-- Node61 -->
<g id="node16" class="node">
<title>Node61</title>
<g id="a_node16"><a xlink:href="../../d2/d0b/CookedTrackerSpec_8h.html" target="_top" xlink:title="/home/travis/build\l/AliceO2Group/AliceO2\l/Detectors/ITSMFT/ITS\l/workflow/include/ITSWorkflow\l/CookedTrackerSpec.h">
<polygon fill="none" stroke="#000000" points="1143.5,-100.5 1143.5,-163.5 1308.5,-163.5 1308.5,-100.5 1143.5,-100.5"/>
<text text-anchor="start" x="1151.5" y="-151.5" font-family="Helvetica,sans-Serif" font-size="10.00" fill="#000000">/home/travis/build</text>
<text text-anchor="start" x="1151.5" y="-140.5" font-family="Helvetica,sans-Serif" font-size="10.00" fill="#000000">/AliceO2Group/AliceO2</text>
<text text-anchor="start" x="1151.5" y="-129.5" font-family="Helvetica,sans-Serif" font-size="10.00" fill="#000000">/Detectors/ITSMFT/ITS</text>
<text text-anchor="start" x="1151.5" y="-118.5" font-family="Helvetica,sans-Serif" font-size="10.00" fill="#000000">/workflow/include/ITSWorkflow</text>
<text text-anchor="middle" x="1226" y="-107.5" font-family="Helvetica,sans-Serif" font-size="10.00" fill="#000000">/CookedTrackerSpec.h</text>
</a>
</g>
</g>
<!-- Node59&#45;&gt;Node61 -->
<g id="edge17" class="edge">
<title>Node59&#45;&gt;Node61</title>
<path fill="none" stroke="#191970" d="M1097.3491,-196.0054C1118.7058,-185.3802 1141.9074,-173.8371 1162.6513,-163.5168"/>
<polygon fill="#191970" stroke="#191970" points="1095.7159,-192.9087 1088.3218,-200.4966 1098.834,-199.1759 1095.7159,-192.9087"/>
</g>
<!-- Node61&#45;&gt;Node62 -->
<g id="edge18" class="edge">
<title>Node61&#45;&gt;Node62</title>
<path fill="none" stroke="#191970" d="M1275.5554,-94.1715C1291.3257,-82.133 1308.409,-69.0923 1322.8379,-58.078"/>
<polygon fill="#191970" stroke="#191970" points="1273.2743,-91.5095 1267.4492,-100.3594 1277.5217,-97.0737 1273.2743,-91.5095"/>
</g>
<!-- Node63 -->
<g id="node18" class="node">
<title>Node63</title>
<g id="a_node18"><a xlink:href="../../d5/d99/ITSMFT_2ITS_2workflow_2src_2RecoWorkflow_8cxx.html" target="_top" xlink:title="/home/travis/build\l/AliceO2Group/AliceO2\l/Detectors/ITSMFT/ITS\l/workflow/src/RecoWorkflow.cxx">
<polygon fill="none" stroke="#000000" points="1067,-6 1067,-58 1239,-58 1239,-6 1067,-6"/>
<text text-anchor="start" x="1075" y="-46" font-family="Helvetica,sans-Serif" font-size="10.00" fill="#000000">/home/travis/build</text>
<text text-anchor="start" x="1075" y="-35" font-family="Helvetica,sans-Serif" font-size="10.00" fill="#000000">/AliceO2Group/AliceO2</text>
<text text-anchor="start" x="1075" y="-24" font-family="Helvetica,sans-Serif" font-size="10.00" fill="#000000">/Detectors/ITSMFT/ITS</text>
<text text-anchor="middle" x="1153" y="-13" font-family="Helvetica,sans-Serif" font-size="10.00" fill="#000000">/workflow/src/RecoWorkflow.cxx</text>
</a>
</g>
</g>
<!-- Node61&#45;&gt;Node63 -->
<g id="edge19" class="edge">
<title>Node61&#45;&gt;Node63</title>
<path fill="none" stroke="#191970" d="M1196.9276,-92.1749C1188.5536,-80.7035 1179.6348,-68.486 1172.0369,-58.078"/>
<polygon fill="#191970" stroke="#191970" points="1194.1793,-94.3461 1202.9023,-100.3594 1199.8331,-90.2188 1194.1793,-94.3461"/>
</g>
<!-- Node65 -->
<g id="node20" class="node">
<title>Node65</title>
<g id="a_node20"><a xlink:href="../../d9/d5e/ITSMFT_2MFT_2reconstruction_2src_2ClustererTask_8cxx.html" target="_top" xlink:title="/home/travis/build\l/AliceO2Group/AliceO2\l/Detectors/ITSMFT/MFT\l/reconstruction/src/ClustererTask.cxx">
<polygon fill="none" stroke="#000000" points="1365,-106 1365,-158 1561,-158 1561,-106 1365,-106"/>
<text text-anchor="start" x="1373" y="-146" font-family="Helvetica,sans-Serif" font-size="10.00" fill="#000000">/home/travis/build</text>
<text text-anchor="start" x="1373" y="-135" font-family="Helvetica,sans-Serif" font-size="10.00" fill="#000000">/AliceO2Group/AliceO2</text>
<text text-anchor="start" x="1373" y="-124" font-family="Helvetica,sans-Serif" font-size="10.00" fill="#000000">/Detectors/ITSMFT/MFT</text>
<text text-anchor="middle" x="1463" y="-113" font-family="Helvetica,sans-Serif" font-size="10.00" fill="#000000">/reconstruction/src/ClustererTask.cxx</text>
</a>
</g>
</g>
<!-- Node64&#45;&gt;Node65 -->
<g id="edge22" class="edge">
<title>Node64&#45;&gt;Node65</title>
<path fill="none" stroke="#191970" d="M1462.4184,-190.1631C1462.5271,-179.2863 1462.6412,-167.8798 1462.7392,-158.078"/>
<polygon fill="#191970" stroke="#191970" points="1458.9167,-190.3248 1462.3164,-200.3594 1465.9163,-190.3949 1458.9167,-190.3248"/>
</g>
<!-- Node67 -->
<g id="node22" class="node">
<title>Node67</title>
<g id="a_node22"><a xlink:href="../../dc/d50/TPCInterpolationSpec_8h.html" target="_top" xlink:title="/home/travis/build\l/AliceO2Group/AliceO2\l/Detectors/GlobalTrackingWorkflow\l/tpcinterpolationworkflow/include\l/TPCInterpolationWorkflow/TPCInterpolationSpec.h">
<polygon fill="none" stroke="#000000" points="1579,-100.5 1579,-163.5 1841,-163.5 1841,-100.5 1579,-100.5"/>
<text text-anchor="start" x="1587" y="-151.5" font-family="Helvetica,sans-Serif" font-size="10.00" fill="#000000">/home/travis/build</text>
<text text-anchor="start" x="1587" y="-140.5" font-family="Helvetica,sans-Serif" font-size="10.00" fill="#000000">/AliceO2Group/AliceO2</text>
<text text-anchor="start" x="1587" y="-129.5" font-family="Helvetica,sans-Serif" font-size="10.00" fill="#000000">/Detectors/GlobalTrackingWorkflow</text>
<text text-anchor="start" x="1587" y="-118.5" font-family="Helvetica,sans-Serif" font-size="10.00" fill="#000000">/tpcinterpolationworkflow/include</text>
<text text-anchor="middle" x="1710" y="-107.5" font-family="Helvetica,sans-Serif" font-size="10.00" fill="#000000">/TPCInterpolationWorkflow/TPCInterpolationSpec.h</text>
</a>
</g>
</g>
<!-- Node66&#45;&gt;Node67 -->
<g id="edge24" class="edge">
<title>Node66&#45;&gt;Node67</title>
<path fill="none" stroke="#191970" d="M1784.9409,-193.9347C1772.9006,-183.9839 1760.0498,-173.3634 1748.4514,-163.778"/>
<polygon fill="#191970" stroke="#191970" points="1782.7769,-196.6868 1792.7148,-200.3594 1787.2362,-191.291 1782.7769,-196.6868"/>
</g>
<!-- Node70 -->
<g id="node25" class="node">
<title>Node70</title>
<g id="a_node25"><a xlink:href="../../d2/d27/TPCResidualWriterSpec_8cxx.html" target="_top" xlink:title="/home/travis/build\l/AliceO2Group/AliceO2\l/Detectors/GlobalTrackingWorkflow\l/tpcinterpolationworkflow/src\l/TPCResidualWriterSpec.cxx">
<polygon fill="none" stroke="#000000" points="1859.5,-100.5 1859.5,-163.5 2046.5,-163.5 2046.5,-100.5 1859.5,-100.5"/>
<text text-anchor="start" x="1867.5" y="-151.5" font-family="Helvetica,sans-Serif" font-size="10.00" fill="#000000">/home/travis/build</text>
<text text-anchor="start" x="1867.5" y="-140.5" font-family="Helvetica,sans-Serif" font-size="10.00" fill="#000000">/AliceO2Group/AliceO2</text>
<text text-anchor="start" x="1867.5" y="-129.5" font-family="Helvetica,sans-Serif" font-size="10.00" fill="#000000">/Detectors/GlobalTrackingWorkflow</text>
<text text-anchor="start" x="1867.5" y="-118.5" font-family="Helvetica,sans-Serif" font-size="10.00" fill="#000000">/tpcinterpolationworkflow/src</text>
<text text-anchor="middle" x="1953" y="-107.5" font-family="Helvetica,sans-Serif" font-size="10.00" fill="#000000">/TPCResidualWriterSpec.cxx</text>
</a>
</g>
</g>
<!-- Node66&#45;&gt;Node70 -->
<g id="edge27" class="edge">
<title>Node66&#45;&gt;Node70</title>
<path fill="none" stroke="#191970" d="M1877.4397,-193.9347C1889.5796,-183.9839 1902.5366,-173.3634 1914.2308,-163.778"/>
<polygon fill="#191970" stroke="#191970" points="1875.1167,-191.3132 1869.6016,-200.3594 1879.5543,-196.7269 1875.1167,-191.3132"/>
</g>
<!-- Node71 -->
<g id="node26" class="node">
<title>Node71</title>
<g id="a_node26"><a xlink:href="../../da/ddb/TrackResiduals_8h.html" target="_top" xlink:title="Definition of the TrackResiduals class. ">
<polygon fill="none" stroke="#000000" points="2064.5,-100.5 2064.5,-163.5 2243.5,-163.5 2243.5,-100.5 2064.5,-100.5"/>
<text text-anchor="start" x="2072.5" y="-151.5" font-family="Helvetica,sans-Serif" font-size="10.00" fill="#000000">/home/travis/build</text>
<text text-anchor="start" x="2072.5" y="-140.5" font-family="Helvetica,sans-Serif" font-size="10.00" fill="#000000">/AliceO2Group/AliceO2</text>
<text text-anchor="start" x="2072.5" y="-129.5" font-family="Helvetica,sans-Serif" font-size="10.00" fill="#000000">/Detectors/TPC/calibration</text>
<text text-anchor="start" x="2072.5" y="-118.5" font-family="Helvetica,sans-Serif" font-size="10.00" fill="#000000">/SpacePoints/include/SpacePoints</text>
<text text-anchor="middle" x="2154" y="-107.5" font-family="Helvetica,sans-Serif" font-size="10.00" fill="#000000">/TrackResiduals.h</text>
</a>
</g>
</g>
<!-- Node66&#45;&gt;Node71 -->
<g id="edge28" class="edge">
<title>Node66&#45;&gt;Node71</title>
<path fill="none" stroke="#191970" d="M1930.4386,-199.9086C1987.3703,-182.7884 2003.2451,-180.1433 2056,-164 2058.7383,-163.1621 2061.5172,-162.3039 2064.3208,-161.4312"/>
<polygon fill="#191970" stroke="#191970" points="1929.0918,-196.6594 1920.5352,-202.9072 1931.1204,-203.359 1929.0918,-196.6594"/>
</g>
<!-- Node73 -->
<g id="node28" class="node">
<title>Node73</title>
<g id="a_node28"><a xlink:href="../../d4/d15/TrackInterpolation_8cxx.html" target="_top" xlink:title="Implementation of the TrackInterpolation class. ">
<polygon fill="none" stroke="#000000" points="2261.5,-106 2261.5,-158 2468.5,-158 2468.5,-106 2261.5,-106"/>
<text text-anchor="start" x="2269.5" y="-146" font-family="Helvetica,sans-Serif" font-size="10.00" fill="#000000">/home/travis/build</text>
<text text-anchor="start" x="2269.5" y="-135" font-family="Helvetica,sans-Serif" font-size="10.00" fill="#000000">/AliceO2Group/AliceO2</text>
<text text-anchor="start" x="2269.5" y="-124" font-family="Helvetica,sans-Serif" font-size="10.00" fill="#000000">/Detectors/TPC/calibration</text>
<text text-anchor="middle" x="2365" y="-113" font-family="Helvetica,sans-Serif" font-size="10.00" fill="#000000">/SpacePoints/src/TrackInterpolation.cxx</text>
</a>
</g>
</g>
<!-- Node66&#45;&gt;Node73 -->
<g id="edge30" class="edge">
<title>Node66&#45;&gt;Node73</title>
<path fill="none" stroke="#191970" d="M1930.6106,-200.0487C2073.0674,-170.6095 2114.4664,-191.3111 2253,-164 2261.6307,-162.2985 2270.5621,-160.2513 2279.4429,-158.025"/>
<polygon fill="#191970" stroke="#191970" points="1929.6884,-196.6662 1920.6284,-202.1586 1931.1361,-203.5149 1929.6884,-196.6662"/>
</g>
<!-- Node68 -->
<g id="node23" class="node">
<title>Node68</title>
<g id="a_node23"><a xlink:href="../../d8/d85/TPCInterpolationSpec_8cxx.html" target="_top" xlink:title="/home/travis/build\l/AliceO2Group/AliceO2\l/Detectors/GlobalTrackingWorkflow\l/tpcinterpolationworkflow/src\l/TPCInterpolationSpec.cxx">
<polygon fill="none" stroke="#000000" points="1546.5,-.5 1546.5,-63.5 1733.5,-63.5 1733.5,-.5 1546.5,-.5"/>
<text text-anchor="start" x="1554.5" y="-51.5" font-family="Helvetica,sans-Serif" font-size="10.00" fill="#000000">/home/travis/build</text>
<text text-anchor="start" x="1554.5" y="-40.5" font-family="Helvetica,sans-Serif" font-size="10.00" fill="#000000">/AliceO2Group/AliceO2</text>
<text text-anchor="start" x="1554.5" y="-29.5" font-family="Helvetica,sans-Serif" font-size="10.00" fill="#000000">/Detectors/GlobalTrackingWorkflow</text>
<text text-anchor="start" x="1554.5" y="-18.5" font-family="Helvetica,sans-Serif" font-size="10.00" fill="#000000">/tpcinterpolationworkflow/src</text>
<text text-anchor="middle" x="1640" y="-7.5" font-family="Helvetica,sans-Serif" font-size="10.00" fill="#000000">/TPCInterpolationSpec.cxx</text>
</a>
</g>
</g>
<!-- Node67&#45;&gt;Node68 -->
<g id="edge25" class="edge">
<title>Node67&#45;&gt;Node68</title>
<path fill="none" stroke="#191970" d="M1681.9553,-91.9361C1675.4007,-82.5725 1668.5071,-72.7244 1662.2446,-63.778"/>
<polygon fill="#191970" stroke="#191970" points="1679.2496,-94.1742 1687.8516,-100.3594 1684.9842,-90.1599 1679.2496,-94.1742"/>
</g>
<!-- Node69 -->
<g id="node24" class="node">
<title>Node69</title>
<g id="a_node24"><a xlink:href="../../d1/d67/TrackInterpolationWorkflow_8cxx.html" target="_top" xlink:title="/home/travis/build\l/AliceO2Group/AliceO2\l/Detectors/GlobalTrackingWorkflow\l/tpcinterpolationworkflow/src\l/TrackInterpolationWorkflow.cxx">
<polygon fill="none" stroke="#000000" points="1751.5,-.5 1751.5,-63.5 1938.5,-63.5 1938.5,-.5 1751.5,-.5"/>
<text text-anchor="start" x="1759.5" y="-51.5" font-family="Helvetica,sans-Serif" font-size="10.00" fill="#000000">/home/travis/build</text>
<text text-anchor="start" x="1759.5" y="-40.5" font-family="Helvetica,sans-Serif" font-size="10.00" fill="#000000">/AliceO2Group/AliceO2</text>
<text text-anchor="start" x="1759.5" y="-29.5" font-family="Helvetica,sans-Serif" font-size="10.00" fill="#000000">/Detectors/GlobalTrackingWorkflow</text>
<text text-anchor="start" x="1759.5" y="-18.5" font-family="Helvetica,sans-Serif" font-size="10.00" fill="#000000">/tpcinterpolationworkflow/src</text>
<text text-anchor="middle" x="1845" y="-7.5" font-family="Helvetica,sans-Serif" font-size="10.00" fill="#000000">/TrackInterpolationWorkflow.cxx</text>
</a>
</g>
</g>
<!-- Node67&#45;&gt;Node69 -->
<g id="edge26" class="edge">
<title>Node67&#45;&gt;Node69</title>
<path fill="none" stroke="#191970" d="M1761.0046,-94.2188C1774.5484,-84.1863 1789.0361,-73.4547 1802.0997,-63.778"/>
<polygon fill="#191970" stroke="#191970" points="1758.6671,-91.5946 1752.7148,-100.3594 1762.8337,-97.2195 1758.6671,-91.5946"/>
</g>
<!-- Node72 -->
<g id="node27" class="node">
<title>Node72</title>
<g id="a_node27"><a xlink:href="../../d9/df0/TrackResiduals_8cxx.html" target="_top" xlink:title="Implementation of the TrackResiduals class. ">
<polygon fill="none" stroke="#000000" points="2058.5,-6 2058.5,-58 2249.5,-58 2249.5,-6 2058.5,-6"/>
<text text-anchor="start" x="2066.5" y="-46" font-family="Helvetica,sans-Serif" font-size="10.00" fill="#000000">/home/travis/build</text>
<text text-anchor="start" x="2066.5" y="-35" font-family="Helvetica,sans-Serif" font-size="10.00" fill="#000000">/AliceO2Group/AliceO2</text>
<text text-anchor="start" x="2066.5" y="-24" font-family="Helvetica,sans-Serif" font-size="10.00" fill="#000000">/Detectors/TPC/calibration</text>
<text text-anchor="middle" x="2154" y="-13" font-family="Helvetica,sans-Serif" font-size="10.00" fill="#000000">/SpacePoints/src/TrackResiduals.cxx</text>
</a>
</g>
</g>
<!-- Node71&#45;&gt;Node72 -->
<g id="edge29" class="edge">
<title>Node71&#45;&gt;Node72</title>
<path fill="none" stroke="#191970" d="M2154,-90.1631C2154,-79.2863 2154,-67.8798 2154,-58.078"/>
<polygon fill="#191970" stroke="#191970" points="2150.5001,-90.3593 2154,-100.3594 2157.5001,-90.3594 2150.5001,-90.3593"/>
</g>
</g>
</svg>
