<?xml version="1.0" encoding="UTF-8" standalone="no"?>
<!DOCTYPE svg PUBLIC "-//W3C//DTD SVG 1.1//EN"
 "http://www.w3.org/Graphics/SVG/1.1/DTD/svg11.dtd">
<!-- Generated by graphviz version 2.40.1 (20161225.0304)
 -->
<!-- Title: /home/travis/build/AliceO2Group/AliceO2/Detectors/TPC/reconstruction/src/KrBoxClusterFinder.cxx Pages: 1 -->
<!--zoomable 654 -->
<svg id="main" version="1.1" xmlns="http://www.w3.org/2000/svg" xmlns:xlink="http://www.w3.org/1999/xlink" xml:space="preserve" onload="init(evt)">
<style type="text/css"><![CDATA[
.edge:hover path { stroke: red; }
.edge:hover polygon { stroke: red; fill: red; }
]]></style>
<script type="text/javascript"><![CDATA[
var edges = document.getElementsByTagName('g');
if (edges && edges.length) {
  for (var i=0;i<edges.length;i++) {
    if (edges[i].id.substr(0,4)=='edge') {
      edges[i].setAttribute('class','edge');
    }
  }
}
]]></script>
        <defs>
                <circle id="rim" cx="0" cy="0" r="7"/>
                <circle id="rim2" cx="0" cy="0" r="3.5"/>
                <g id="zoomPlus">
                        <use xlink:href="#rim" fill="#404040">
                                <set attributeName="fill" to="#808080" begin="zoomplus.mouseover" end="zoomplus.mouseout"/>
                        </use>
                        <path d="M-4,0h8M0,-4v8" fill="none" stroke="white" stroke-width="1.5" pointer-events="none"/>
                </g>
                <g id="zoomMin">
                        <use xlink:href="#rim" fill="#404040">
                                <set attributeName="fill" to="#808080" begin="zoomminus.mouseover" end="zoomminus.mouseout"/>
                        </use>
                        <path d="M-4,0h8" fill="none" stroke="white" stroke-width="1.5" pointer-events="none"/>
                </g>
                <g id="dirArrow">
                        <path fill="none" stroke="white" stroke-width="1.5" d="M0,-3.0v7 M-2.5,-0.5L0,-3.0L2.5,-0.5"/>
                </g>
               <g id="resetDef">
                       <use xlink:href="#rim2" fill="#404040">
                               <set attributeName="fill" to="#808080" begin="reset.mouseover" end="reset.mouseout"/>
                       </use>
               </g>
        </defs>

<script type="text/javascript">
var viewWidth = 1557;
var viewHeight = 654;
var sectionId = 'dynsection-0';
</script>
<script xlink:href="../../svgpan.js"/>
<svg id="graph" class="graph">
<g id="viewport">
<title>/home/travis/build/AliceO2Group/AliceO2/Detectors/TPC/reconstruction/src/KrBoxClusterFinder.cxx</title>
<!-- Node0 -->
<g id="node1" class="node">
<title>Node0</title>
<polygon fill="#bfbfbf" stroke="#000000" points="1177.5,-593.5 1177.5,-645.5 1338.5,-645.5 1338.5,-593.5 1177.5,-593.5"/>
<text text-anchor="start" x="1185.5" y="-633.5" font-family="Helvetica,sans-Serif" font-size="10.00" fill="#000000">/home/travis/build</text>
<text text-anchor="start" x="1185.5" y="-622.5" font-family="Helvetica,sans-Serif" font-size="10.00" fill="#000000">/AliceO2Group/AliceO2</text>
<text text-anchor="start" x="1185.5" y="-611.5" font-family="Helvetica,sans-Serif" font-size="10.00" fill="#000000">/Detectors/TPC/reconstruction</text>
<text text-anchor="middle" x="1258" y="-600.5" font-family="Helvetica,sans-Serif" font-size="10.00" fill="#000000">/src/KrBoxClusterFinder.cxx</text>
</g>
<!-- Node1 -->
<g id="node2" class="node">
<title>Node1</title>
<g id="a_node2"><a xlink:href="../../db/dd8/KrBoxClusterFinder_8h.html" target="_top" xlink:title="TPCReconstruction/KrBoxCluster\lFinder.h">
<polygon fill="none" stroke="#000000" points="1090,-526.5 1090,-556.5 1264,-556.5 1264,-526.5 1090,-526.5"/>
<text text-anchor="start" x="1098" y="-544.5" font-family="Helvetica,sans-Serif" font-size="10.00" fill="#000000">TPCReconstruction/KrBoxCluster</text>
<text text-anchor="middle" x="1177" y="-533.5" font-family="Helvetica,sans-Serif" font-size="10.00" fill="#000000">Finder.h</text>
</a>
</g>
</g>
<!-- Node0&#45;&gt;Node1 -->
<g id="edge1" class="edge">
<title>Node0&#45;&gt;Node1</title>
<path fill="none" stroke="#191970" d="M1230.5771,-593.0928C1220.5818,-583.4677 1209.3961,-572.6963 1199.8411,-563.4951"/>
<polygon fill="#191970" stroke="#191970" points="1202.2126,-560.9199 1192.5817,-556.5046 1197.3571,-565.9621 1202.2126,-560.9199"/>
</g>
<!-- Node42 -->
<g id="node43" class="node">
<title>Node42</title>
<g id="a_node43"><a xlink:href="../../dd/da4/Logger_8h.html" target="_top" xlink:title="Framework/Logger.h">
<polygon fill="none" stroke="#000000" points="1336.5,-532 1336.5,-551 1451.5,-551 1451.5,-532 1336.5,-532"/>
<text text-anchor="middle" x="1394" y="-539" font-family="Helvetica,sans-Serif" font-size="10.00" fill="#000000">Framework/Logger.h</text>
</a>
</g>
</g>
<!-- Node0&#45;&gt;Node42 -->
<g id="edge68" class="edge">
<title>Node0&#45;&gt;Node42</title>
<path fill="none" stroke="#191970" d="M1303.6644,-593.3101C1325.218,-580.9485 1350.1396,-566.6552 1368.34,-556.2167"/>
<polygon fill="#191970" stroke="#191970" points="1370.2583,-559.1514 1377.1916,-551.1401 1366.7757,-553.0792 1370.2583,-559.1514"/>
</g>
<!-- Node2 -->
<g id="node3" class="node">
<title>Node2</title>
<g id="a_node3"><a xlink:href="../../d3/d7d/DataFormats_2Detectors_2TPC_2include_2DataFormatsTPC_2Digit_8h.html" target="_top" xlink:title="DataFormatsTPC/Digit.h">
<polygon fill="none" stroke="#000000" points="1248,-470.5 1248,-489.5 1382,-489.5 1382,-470.5 1248,-470.5"/>
<text text-anchor="middle" x="1315" y="-477.5" font-family="Helvetica,sans-Serif" font-size="10.00" fill="#000000">DataFormatsTPC/Digit.h</text>
</a>
</g>
</g>
<!-- Node1&#45;&gt;Node2 -->
<g id="edge2" class="edge">
<title>Node1&#45;&gt;Node2</title>
<path fill="none" stroke="#191970" d="M1210.7586,-526.4554C1233.2793,-516.419 1262.6467,-503.3314 1284.4692,-493.6061"/>
<polygon fill="#191970" stroke="#191970" points="1285.9056,-496.7979 1293.6149,-489.5303 1283.0561,-490.4041 1285.9056,-496.7979"/>
</g>
<!-- Node10 -->
<g id="node11" class="node">
<title>Node10</title>
<g id="a_node11"><a xlink:href="../../d5/da3/KrCluster_8h.html" target="_top" xlink:title="Struct for Krypton and X&#45;ray clusters. ">
<polygon fill="none" stroke="#000000" points="925,-470.5 925,-489.5 1089,-489.5 1089,-470.5 925,-470.5"/>
<text text-anchor="middle" x="1007" y="-477.5" font-family="Helvetica,sans-Serif" font-size="10.00" fill="#000000">TPCReconstruction/KrCluster.h</text>
</a>
</g>
</g>
<!-- Node1&#45;&gt;Node10 -->
<g id="edge12" class="edge">
<title>Node1&#45;&gt;Node10</title>
<path fill="none" stroke="#191970" d="M1135.4133,-526.4554C1107.0484,-516.194 1069.8667,-502.7429 1042.8164,-492.9571"/>
<polygon fill="#191970" stroke="#191970" points="1043.9382,-489.641 1033.344,-489.5303 1041.5569,-496.2235 1043.9382,-489.641"/>
</g>
<!-- Node11 -->
<g id="node12" class="node">
<title>Node11</title>
<g id="a_node12"><a xlink:href="../../d5/d1d/TPC_2base_2include_2TPCBase_2Mapper_8h.html" target="_top" xlink:title="TPCBase/Mapper.h">
<polygon fill="none" stroke="#000000" points="799.5,-470.5 799.5,-489.5 906.5,-489.5 906.5,-470.5 799.5,-470.5"/>
<text text-anchor="middle" x="853" y="-477.5" font-family="Helvetica,sans-Serif" font-size="10.00" fill="#000000">TPCBase/Mapper.h</text>
</a>
</g>
</g>
<!-- Node1&#45;&gt;Node11 -->
<g id="edge13" class="edge">
<title>Node1&#45;&gt;Node11</title>
<path fill="none" stroke="#191970" d="M1097.7407,-526.4554C1040.8352,-515.6539 965.3106,-501.3182 913.2873,-491.4434"/>
<polygon fill="#191970" stroke="#191970" points="913.6858,-487.9566 903.2085,-489.5303 912.3804,-494.8338 913.6858,-487.9566"/>
</g>
<!-- Node13 -->
<g id="node14" class="node">
<title>Node13</title>
<polygon fill="none" stroke="#bfbfbf" points="969.5,-358.5 969.5,-377.5 1016.5,-377.5 1016.5,-358.5 969.5,-358.5"/>
<text text-anchor="middle" x="993" y="-365.5" font-family="Helvetica,sans-Serif" font-size="10.00" fill="#000000">vector</text>
</g>
<!-- Node1&#45;&gt;Node13 -->
<g id="edge66" class="edge">
<title>Node1&#45;&gt;Node13</title>
<path fill="none" stroke="#191970" d="M1185.8677,-526.2497C1199.703,-500.2261 1222.2585,-446.8744 1196,-414 1175.2173,-387.981 1079.1434,-375.5839 1026.9592,-370.6807"/>
<polygon fill="#191970" stroke="#191970" points="1027.1106,-367.1803 1016.8377,-369.7721 1026.4846,-374.1523 1027.1106,-367.1803"/>
</g>
<!-- Node14 -->
<g id="node15" class="node">
<title>Node14</title>
<polygon fill="none" stroke="#bfbfbf" points="1145,-414.5 1145,-433.5 1187,-433.5 1187,-414.5 1145,-414.5"/>
<text text-anchor="middle" x="1166" y="-421.5" font-family="Helvetica,sans-Serif" font-size="10.00" fill="#000000">array</text>
</g>
<!-- Node1&#45;&gt;Node14 -->
<g id="edge67" class="edge">
<title>Node1&#45;&gt;Node14</title>
<path fill="none" stroke="#191970" d="M1175.5619,-526.1389C1173.5801,-504.9692 1170.0084,-466.8174 1167.8359,-443.6112"/>
<polygon fill="#191970" stroke="#191970" points="1171.3119,-443.1897 1166.8949,-433.5595 1164.3424,-443.8422 1171.3119,-443.1897"/>
</g>
<!-- Node41 -->
<g id="node42" class="node">
<title>Node41</title>
<polygon fill="none" stroke="#bfbfbf" points="1107.5,-470.5 1107.5,-489.5 1148.5,-489.5 1148.5,-470.5 1107.5,-470.5"/>
<text text-anchor="middle" x="1128" y="-477.5" font-family="Helvetica,sans-Serif" font-size="10.00" fill="#000000">tuple</text>
</g>
<!-- Node1&#45;&gt;Node41 -->
<g id="edge65" class="edge">
<title>Node1&#45;&gt;Node41</title>
<path fill="none" stroke="#191970" d="M1164.8876,-526.2977C1158.0151,-517.672 1149.3777,-506.8312 1142.189,-497.8087"/>
<polygon fill="#191970" stroke="#191970" points="1144.8144,-495.487 1135.8455,-489.8469 1139.3396,-499.849 1144.8144,-495.487"/>
</g>
<!-- Node3 -->
<g id="node4" class="node">
<title>Node3</title>
<g id="a_node4"><a xlink:href="../../d2/d45/GPUCommonRtypes_8h.html" target="_top" xlink:title="GPUCommonRtypes.h">
<polygon fill="none" stroke="#000000" points="1400.5,-358.5 1400.5,-377.5 1525.5,-377.5 1525.5,-358.5 1400.5,-358.5"/>
<text text-anchor="middle" x="1463" y="-365.5" font-family="Helvetica,sans-Serif" font-size="10.00" fill="#000000">GPUCommonRtypes.h</text>
</a>
</g>
</g>
<!-- Node2&#45;&gt;Node3 -->
<g id="edge3" class="edge">
<title>Node2&#45;&gt;Node3</title>
<path fill="none" stroke="#191970" d="M1382.2264,-470.8704C1446.0219,-461.519 1533.6735,-446.6071 1544,-434 1561.4011,-412.7559 1529.896,-393.5572 1501.2414,-381.4138"/>
<polygon fill="#191970" stroke="#191970" points="1502.2913,-378.0635 1491.7078,-377.5734 1499.6757,-384.5565 1502.2913,-378.0635"/>
</g>
<!-- Node5 -->
<g id="node6" class="node">
<title>Node5</title>
<g id="a_node6"><a xlink:href="../../df/d21/GPUCommonDef_8h.html" target="_top" xlink:title="GPUCommonDef.h">
<polygon fill="none" stroke="#000000" points="1271.5,-358.5 1271.5,-377.5 1378.5,-377.5 1378.5,-358.5 1271.5,-358.5"/>
<text text-anchor="middle" x="1325" y="-365.5" font-family="Helvetica,sans-Serif" font-size="10.00" fill="#000000">GPUCommonDef.h</text>
</a>
</g>
</g>
<!-- Node2&#45;&gt;Node5 -->
<g id="edge5" class="edge">
<title>Node2&#45;&gt;Node5</title>
<path fill="none" stroke="#191970" d="M1315.8526,-470.4509C1317.4836,-452.184 1321.0754,-411.9553 1323.2413,-387.6976"/>
<polygon fill="#191970" stroke="#191970" points="1326.7463,-387.7966 1324.1496,-377.5249 1319.774,-387.174 1326.7463,-387.7966"/>
</g>
<!-- Node8 -->
<g id="node9" class="node">
<title>Node8</title>
<g id="a_node9"><a xlink:href="../../df/d5d/common_2include_2CommonDataFormat_2TimeStamp_8h.html" target="_top" xlink:title="CommonDataFormat/TimeStamp.h">
<polygon fill="none" stroke="#000000" points="1348.5,-414.5 1348.5,-433.5 1535.5,-433.5 1535.5,-414.5 1348.5,-414.5"/>
<text text-anchor="middle" x="1442" y="-421.5" font-family="Helvetica,sans-Serif" font-size="10.00" fill="#000000">CommonDataFormat/TimeStamp.h</text>
</a>
</g>
</g>
<!-- Node2&#45;&gt;Node8 -->
<g id="edge8" class="edge">
<title>Node2&#45;&gt;Node8</title>
<path fill="none" stroke="#191970" d="M1336.8321,-470.3733C1357.3103,-461.3435 1388.1399,-447.7494 1411.1319,-437.6111"/>
<polygon fill="#191970" stroke="#191970" points="1412.715,-440.7383 1420.4528,-433.5011 1409.8907,-434.3333 1412.715,-440.7383"/>
</g>
<!-- Node9 -->
<g id="node10" class="node">
<title>Node9</title>
<polygon fill="none" stroke="#bfbfbf" points="1243,-414.5 1243,-433.5 1293,-433.5 1293,-414.5 1243,-414.5"/>
<text text-anchor="middle" x="1268" y="-421.5" font-family="Helvetica,sans-Serif" font-size="10.00" fill="#000000">climits</text>
</g>
<!-- Node2&#45;&gt;Node9 -->
<g id="edge11" class="edge">
<title>Node2&#45;&gt;Node9</title>
<path fill="none" stroke="#191970" d="M1306.8132,-470.2455C1300.1411,-462.2958 1290.5521,-450.8706 1282.5747,-441.3656"/>
<polygon fill="#191970" stroke="#191970" points="1285.2026,-439.0524 1276.093,-433.6427 1279.8408,-443.5525 1285.2026,-439.0524"/>
</g>
<!-- Node4 -->
<g id="node5" class="node">
<title>Node4</title>
<polygon fill="none" stroke="#bfbfbf" points="1400.5,-73 1400.5,-92 1459.5,-92 1459.5,-73 1400.5,-73"/>
<text text-anchor="middle" x="1430" y="-80" font-family="Helvetica,sans-Serif" font-size="10.00" fill="#000000">Rtypes.h</text>
</g>
<!-- Node3&#45;&gt;Node4 -->
<g id="edge4" class="edge">
<title>Node3&#45;&gt;Node4</title>
<path fill="none" stroke="#191970" d="M1463,-358.4116C1463,-339.0538 1463,-293.9167 1463,-256 1463,-256 1463,-256 1463,-200 1463,-164.1698 1448.6011,-124.4063 1438.8258,-101.5396"/>
<polygon fill="#191970" stroke="#191970" points="1441.9808,-100.0203 1434.7281,-92.2971 1435.5816,-102.8575 1441.9808,-100.0203"/>
</g>
<!-- Node6 -->
<g id="node7" class="node">
<title>Node6</title>
<g id="a_node7"><a xlink:href="../../d5/d93/GPUCommonDefSettings_8h.html" target="_top" xlink:title="GPUCommonDefSettings.h">
<polygon fill="none" stroke="#000000" points="1145,-302.5 1145,-321.5 1293,-321.5 1293,-302.5 1145,-302.5"/>
<text text-anchor="middle" x="1219" y="-309.5" font-family="Helvetica,sans-Serif" font-size="10.00" fill="#000000">GPUCommonDefSettings.h</text>
</a>
</g>
</g>
<!-- Node5&#45;&gt;Node6 -->
<g id="edge6" class="edge">
<title>Node5&#45;&gt;Node6</title>
<path fill="none" stroke="#191970" d="M1306.5362,-358.2455C1289.8926,-349.4527 1265.2007,-336.4079 1246.2808,-326.4125"/>
<polygon fill="#191970" stroke="#191970" points="1247.7291,-323.2193 1237.2522,-321.6427 1244.4592,-329.4086 1247.7291,-323.2193"/>
</g>
<!-- Node7 -->
<g id="node8" class="node">
<title>Node7</title>
<g id="a_node8"><a xlink:href="../../da/d5a/GPUCommonDefAPI_8h.html" target="_top" xlink:title="GPUCommonDefAPI.h">
<polygon fill="none" stroke="#000000" points="1311,-302.5 1311,-321.5 1435,-321.5 1435,-302.5 1311,-302.5"/>
<text text-anchor="middle" x="1373" y="-309.5" font-family="Helvetica,sans-Serif" font-size="10.00" fill="#000000">GPUCommonDefAPI.h</text>
</a>
</g>
</g>
<!-- Node5&#45;&gt;Node7 -->
<g id="edge7" class="edge">
<title>Node5&#45;&gt;Node7</title>
<path fill="none" stroke="#191970" d="M1333.361,-358.2455C1340.175,-350.2958 1349.9681,-338.8706 1358.1152,-329.3656"/>
<polygon fill="#191970" stroke="#191970" points="1360.8843,-331.513 1364.7349,-321.6427 1355.5695,-326.9575 1360.8843,-331.513"/>
</g>
<!-- Node8&#45;&gt;Node3 -->
<g id="edge9" class="edge">
<title>Node8&#45;&gt;Node3</title>
<path fill="none" stroke="#191970" d="M1445.6579,-414.2455C1448.4584,-406.7776 1452.409,-396.2427 1455.8324,-387.1137"/>
<polygon fill="#191970" stroke="#191970" points="1459.1499,-388.2349 1459.384,-377.6427 1452.5955,-385.777 1459.1499,-388.2349"/>
</g>
<!-- Node8&#45;&gt;Node5 -->
<g id="edge10" class="edge">
<title>Node8&#45;&gt;Node5</title>
<path fill="none" stroke="#191970" d="M1421.887,-414.3733C1403.1897,-405.4241 1375.1256,-391.9917 1354.0066,-381.8835"/>
<polygon fill="#191970" stroke="#191970" points="1355.3817,-378.6614 1344.8506,-377.5011 1352.3595,-384.9755 1355.3817,-378.6614"/>
</g>
<!-- Node12 -->
<g id="node13" class="node">
<title>Node12</title>
<polygon fill="none" stroke="#bfbfbf" points="837,-414.5 837,-433.5 875,-433.5 875,-414.5 837,-414.5"/>
<text text-anchor="middle" x="856" y="-421.5" font-family="Helvetica,sans-Serif" font-size="10.00" fill="#000000">map</text>
</g>
<!-- Node11&#45;&gt;Node12 -->
<g id="edge14" class="edge">
<title>Node11&#45;&gt;Node12</title>
<path fill="none" stroke="#191970" d="M853.5226,-470.2455C853.914,-462.9382 854.4628,-452.6944 854.9444,-443.7046"/>
<polygon fill="#191970" stroke="#191970" points="858.4434,-443.8156 855.4834,-433.6427 851.4534,-443.4411 858.4434,-443.8156"/>
</g>
<!-- Node11&#45;&gt;Node13 -->
<g id="edge15" class="edge">
<title>Node11&#45;&gt;Node13</title>
<path fill="none" stroke="#191970" d="M887.752,-470.3595C909.0685,-463.0837 935.8517,-451.3453 955,-434 969.1935,-421.143 979.4905,-401.7066 985.7566,-387.2519"/>
<polygon fill="#191970" stroke="#191970" points="989.0863,-388.3545 989.6049,-377.7723 982.6004,-385.7214 989.0863,-388.3545"/>
</g>
<!-- Node11&#45;&gt;Node14 -->
<g id="edge16" class="edge">
<title>Node11&#45;&gt;Node14</title>
<path fill="none" stroke="#191970" d="M906.5886,-471.4716C981.1658,-459.551 1109.5519,-438.8219 1131,-434 1132.2485,-433.7193 1133.5186,-433.4204 1134.7988,-433.1081"/>
<polygon fill="#191970" stroke="#191970" points="1135.8462,-436.4517 1144.6283,-430.5252 1134.0672,-429.6816 1135.8462,-436.4517"/>
</g>
<!-- Node15 -->
<g id="node16" class="node">
<title>Node15</title>
<polygon fill="none" stroke="#bfbfbf" points="1007,-414.5 1007,-433.5 1051,-433.5 1051,-414.5 1007,-414.5"/>
<text text-anchor="middle" x="1029" y="-421.5" font-family="Helvetica,sans-Serif" font-size="10.00" fill="#000000">string</text>
</g>
<!-- Node11&#45;&gt;Node15 -->
<g id="edge17" class="edge">
<title>Node11&#45;&gt;Node15</title>
<path fill="none" stroke="#191970" d="M883.2555,-470.3733C915.0048,-460.2712 964.7085,-444.4564 997.0717,-434.159"/>
<polygon fill="#191970" stroke="#191970" points="998.4572,-437.3911 1006.9252,-431.0238 996.3347,-430.7207 998.4572,-437.3911"/>
</g>
<!-- Node16 -->
<g id="node17" class="node">
<title>Node16</title>
<polygon fill="none" stroke="#bfbfbf" points="1013.5,-134.5 1013.5,-153.5 1060.5,-153.5 1060.5,-134.5 1013.5,-134.5"/>
<text text-anchor="middle" x="1037" y="-141.5" font-family="Helvetica,sans-Serif" font-size="10.00" fill="#000000">cmath</text>
</g>
<!-- Node11&#45;&gt;Node16 -->
<g id="edge18" class="edge">
<title>Node11&#45;&gt;Node16</title>
<path fill="none" stroke="#191970" d="M906.6008,-471.0039C964.1246,-460.8958 1048.8021,-444.5282 1060,-434 1082.2389,-413.0911 1079,-398.5246 1079,-368 1079,-368 1079,-368 1079,-256 1079,-221.2434 1061.0481,-184.0613 1048.6174,-162.4811"/>
<polygon fill="#191970" stroke="#191970" points="1051.5177,-160.5116 1043.3789,-153.7285 1045.5113,-164.1065 1051.5177,-160.5116"/>
</g>
<!-- Node17 -->
<g id="node18" class="node">
<title>Node17</title>
<g id="a_node18"><a xlink:href="../../d1/d73/Defs_8h.html" target="_top" xlink:title="Common definitions for 2D coordinates. ">
<polygon fill="none" stroke="#000000" points="733.5,-190.5 733.5,-209.5 866.5,-209.5 866.5,-190.5 733.5,-190.5"/>
<text text-anchor="middle" x="800" y="-197.5" font-family="Helvetica,sans-Serif" font-size="10.00" fill="#000000">DataFormatsTPC/Defs.h</text>
</a>
</g>
</g>
<!-- Node11&#45;&gt;Node17 -->
<g id="edge19" class="edge">
<title>Node11&#45;&gt;Node17</title>
<path fill="none" stroke="#191970" d="M860.8552,-470.3119C867.7838,-461.3557 877.728,-447.4392 884,-434 896.9091,-406.3394 903,-398.5246 903,-368 903,-368 903,-368 903,-312 903,-267.4711 858.3441,-233.0241 827.8393,-214.6879"/>
<polygon fill="#191970" stroke="#191970" points="829.3019,-211.4909 818.8918,-209.5213 825.8015,-217.5529 829.3019,-211.4909"/>
</g>
<!-- Node19 -->
<g id="node20" class="node">
<title>Node19</title>
<g id="a_node20"><a xlink:href="../../d2/dd0/Cartesian2D_8h.html" target="_top" xlink:title="MathUtils/Cartesian2D.h">
<polygon fill="none" stroke="#000000" points="111.5,-73 111.5,-92 246.5,-92 246.5,-73 111.5,-73"/>
<text text-anchor="middle" x="179" y="-80" font-family="Helvetica,sans-Serif" font-size="10.00" fill="#000000">MathUtils/Cartesian2D.h</text>
</a>
</g>
</g>
<!-- Node11&#45;&gt;Node19 -->
<g id="edge63" class="edge">
<title>Node11&#45;&gt;Node19</title>
<path fill="none" stroke="#191970" d="M799.2818,-478.3699C632.7867,-473.0975 134.913,-455.5896 108,-434 84.1899,-414.8995 89,-398.5246 89,-368 89,-368 89,-368 89,-200 89,-155.9458 129.3658,-118.1987 156.0308,-98.0696"/>
<polygon fill="#191970" stroke="#191970" points="158.1135,-100.8826 164.1383,-92.1675 153.9937,-95.2234 158.1135,-100.8826"/>
</g>
<!-- Node22 -->
<g id="node23" class="node">
<title>Node22</title>
<g id="a_node23"><a xlink:href="../../dd/d76/Cartesian3D_8h.html" target="_top" xlink:title="MathUtils/Cartesian3D.h">
<polygon fill="none" stroke="#000000" points="849.5,-134.5 849.5,-153.5 984.5,-153.5 984.5,-134.5 849.5,-134.5"/>
<text text-anchor="middle" x="917" y="-141.5" font-family="Helvetica,sans-Serif" font-size="10.00" fill="#000000">MathUtils/Cartesian3D.h</text>
</a>
</g>
</g>
<!-- Node11&#45;&gt;Node22 -->
<g id="edge64" class="edge">
<title>Node11&#45;&gt;Node22</title>
<path fill="none" stroke="#191970" d="M868.3284,-470.3315C893.541,-453.0999 941,-414.4895 941,-368 941,-368 941,-368 941,-256 941,-222.8465 930.8211,-185.3737 923.7212,-163.2684"/>
<polygon fill="#191970" stroke="#191970" points="927.0264,-162.1157 920.5413,-153.7375 920.3862,-164.3312 927.0264,-162.1157"/>
</g>
<!-- Node30 -->
<g id="node31" class="node">
<title>Node30</title>
<g id="a_node31"><a xlink:href="../../de/d41/PadPos_8h.html" target="_top" xlink:title="TPCBase/PadPos.h">
<polygon fill="none" stroke="#000000" points="442,-302.5 442,-321.5 548,-321.5 548,-302.5 442,-302.5"/>
<text text-anchor="middle" x="495" y="-309.5" font-family="Helvetica,sans-Serif" font-size="10.00" fill="#000000">TPCBase/PadPos.h</text>
</a>
</g>
</g>
<!-- Node11&#45;&gt;Node30 -->
<g id="edge35" class="edge">
<title>Node11&#45;&gt;Node30</title>
<path fill="none" stroke="#191970" d="M799.3184,-478.6372C677.0553,-474.1915 384.5269,-455.5005 334,-378 307.7905,-337.7987 376.1094,-322.0758 431.7293,-315.932"/>
<polygon fill="#191970" stroke="#191970" points="432.3472,-319.3872 441.9413,-314.8925 431.6383,-312.4232 432.3472,-319.3872"/>
</g>
<!-- Node31 -->
<g id="node32" class="node">
<title>Node31</title>
<g id="a_node32"><a xlink:href="../../dd/d0b/PadSecPos_8h.html" target="_top" xlink:title="TPCBase/PadSecPos.h">
<polygon fill="none" stroke="#000000" points="343.5,-358.5 343.5,-377.5 466.5,-377.5 466.5,-358.5 343.5,-358.5"/>
<text text-anchor="middle" x="405" y="-365.5" font-family="Helvetica,sans-Serif" font-size="10.00" fill="#000000">TPCBase/PadSecPos.h</text>
</a>
</g>
</g>
<!-- Node11&#45;&gt;Node31 -->
<g id="edge36" class="edge">
<title>Node11&#45;&gt;Node31</title>
<path fill="none" stroke="#191970" d="M799.239,-476.0167C714.7722,-469.2457 555.1268,-454.2331 502,-434 471.6271,-422.4327 441.4329,-399.6445 422.9941,-384.117"/>
<polygon fill="#191970" stroke="#191970" points="425.2498,-381.4405 415.3911,-377.5601 420.6781,-386.7415 425.2498,-381.4405"/>
</g>
<!-- Node32 -->
<g id="node33" class="node">
<title>Node32</title>
<g id="a_node33"><a xlink:href="../../d3/dd6/Sector_8h.html" target="_top" xlink:title="TPCBase/Sector.h">
<polygon fill="none" stroke="#000000" points="511.5,-246.5 511.5,-265.5 612.5,-265.5 612.5,-246.5 511.5,-246.5"/>
<text text-anchor="middle" x="562" y="-253.5" font-family="Helvetica,sans-Serif" font-size="10.00" fill="#000000">TPCBase/Sector.h</text>
</a>
</g>
</g>
<!-- Node11&#45;&gt;Node32 -->
<g id="edge62" class="edge">
<title>Node11&#45;&gt;Node32</title>
<path fill="none" stroke="#191970" d="M799.3514,-476.889C683.2503,-469.8557 416.1278,-451.9421 379,-434 347.8691,-418.9559 337.9405,-410.0624 325,-378 294.1057,-301.454 421.3215,-272.3484 501.3156,-261.7353"/>
<polygon fill="#191970" stroke="#191970" points="501.8223,-265.1992 511.3044,-260.4727 500.9445,-258.2544 501.8223,-265.1992"/>
</g>
<!-- Node34 -->
<g id="node35" class="node">
<title>Node34</title>
<g id="a_node35"><a xlink:href="../../da/d61/PadROCPos_8h.html" target="_top" xlink:title="TPCBase/PadROCPos.h">
<polygon fill="none" stroke="#000000" points="671.5,-358.5 671.5,-377.5 798.5,-377.5 798.5,-358.5 671.5,-358.5"/>
<text text-anchor="middle" x="735" y="-365.5" font-family="Helvetica,sans-Serif" font-size="10.00" fill="#000000">TPCBase/PadROCPos.h</text>
</a>
</g>
</g>
<!-- Node11&#45;&gt;Node34 -->
<g id="edge41" class="edge">
<title>Node11&#45;&gt;Node34</title>
<path fill="none" stroke="#191970" d="M799.1582,-473.7812C751.0591,-466.9863 685.8129,-454.2796 670,-434 654.9841,-414.7425 680.6492,-395.11 704.0191,-382.3224"/>
<polygon fill="#191970" stroke="#191970" points="705.8394,-385.3211 713.1038,-377.6088 702.6155,-379.1076 705.8394,-385.3211"/>
</g>
<!-- Node36 -->
<g id="node37" class="node">
<title>Node36</title>
<g id="a_node37"><a xlink:href="../../d3/d54/DigitPos_8h.html" target="_top" xlink:title="TPCBase/DigitPos.h">
<polygon fill="none" stroke="#000000" points="511,-414.5 511,-433.5 623,-433.5 623,-414.5 511,-414.5"/>
<text text-anchor="middle" x="567" y="-421.5" font-family="Helvetica,sans-Serif" font-size="10.00" fill="#000000">TPCBase/DigitPos.h</text>
</a>
</g>
</g>
<!-- Node11&#45;&gt;Node36 -->
<g id="edge47" class="edge">
<title>Node11&#45;&gt;Node36</title>
<path fill="none" stroke="#191970" d="M804.1598,-470.4369C754.699,-460.7522 678.184,-445.7703 625.512,-435.4569"/>
<polygon fill="#191970" stroke="#191970" points="626.125,-432.0105 615.6387,-433.5237 624.7798,-438.8801 626.125,-432.0105"/>
</g>
<!-- Node38 -->
<g id="node39" class="node">
<title>Node38</title>
<g id="a_node39"><a xlink:href="../../d1/d1f/FECInfo_8h.html" target="_top" xlink:title="TPCBase/FECInfo.h">
<polygon fill="none" stroke="#000000" points="1165,-246.5 1165,-265.5 1273,-265.5 1273,-246.5 1165,-246.5"/>
<text text-anchor="middle" x="1219" y="-253.5" font-family="Helvetica,sans-Serif" font-size="10.00" fill="#000000">TPCBase/FECInfo.h</text>
</a>
</g>
</g>
<!-- Node11&#45;&gt;Node38 -->
<g id="edge55" class="edge">
<title>Node11&#45;&gt;Node38</title>
<path fill="none" stroke="#191970" d="M906.613,-471.1395C975.187,-459.6002 1085.9992,-440.1728 1093,-434 1139.2802,-393.1937 1096.7336,-349.5937 1136,-302 1147.7214,-287.7929 1165.0343,-277.2216 1180.8196,-269.8202"/>
<polygon fill="#191970" stroke="#191970" points="1182.6393,-272.8436 1190.3871,-265.6171 1179.8239,-266.4348 1182.6393,-272.8436"/>
</g>
<!-- Node39 -->
<g id="node40" class="node">
<title>Node39</title>
<g id="a_node40"><a xlink:href="../../da/d9d/PadRegionInfo_8h.html" target="_top" xlink:title="TPCBase/PadRegionInfo.h">
<polygon fill="none" stroke="#000000" points="679,-414.5 679,-433.5 819,-433.5 819,-414.5 679,-414.5"/>
<text text-anchor="middle" x="749" y="-421.5" font-family="Helvetica,sans-Serif" font-size="10.00" fill="#000000">TPCBase/PadRegionInfo.h</text>
</a>
</g>
</g>
<!-- Node11&#45;&gt;Node39 -->
<g id="edge57" class="edge">
<title>Node11&#45;&gt;Node39</title>
<path fill="none" stroke="#191970" d="M834.8846,-470.2455C818.555,-461.4527 794.329,-448.4079 775.7661,-438.4125"/>
<polygon fill="#191970" stroke="#191970" points="777.3719,-435.3021 766.9078,-433.6427 774.0532,-441.4654 777.3719,-435.3021"/>
</g>
<!-- Node40 -->
<g id="node41" class="node">
<title>Node40</title>
<g id="a_node41"><a xlink:href="../../d6/d42/PartitionInfo_8h.html" target="_top" xlink:title="TPCBase/PartitionInfo.h">
<polygon fill="none" stroke="#000000" points="117.5,-414.5 117.5,-433.5 248.5,-433.5 248.5,-414.5 117.5,-414.5"/>
<text text-anchor="middle" x="183" y="-421.5" font-family="Helvetica,sans-Serif" font-size="10.00" fill="#000000">TPCBase/PartitionInfo.h</text>
</a>
</g>
</g>
<!-- Node11&#45;&gt;Node40 -->
<g id="edge61" class="edge">
<title>Node11&#45;&gt;Node40</title>
<path fill="none" stroke="#191970" d="M799.2346,-476.649C695.4392,-469.9937 460.2788,-454.0095 263,-434 261.7075,-433.8689 260.4036,-433.7342 259.0908,-433.5962"/>
<polygon fill="#191970" stroke="#191970" points="259.2143,-430.089 248.8936,-432.4833 258.4548,-437.0477 259.2143,-430.089"/>
</g>
<!-- Node17&#45;&gt;Node16 -->
<g id="edge20" class="edge">
<title>Node17&#45;&gt;Node16</title>
<path fill="none" stroke="#191970" d="M840.4725,-190.4369C886.3958,-179.5858 960.4639,-162.0845 1003.3505,-151.9509"/>
<polygon fill="#191970" stroke="#191970" points="1004.3625,-155.3083 1013.2896,-149.6025 1002.7527,-148.4959 1004.3625,-155.3083"/>
</g>
<!-- Node18 -->
<g id="node19" class="node">
<title>Node18</title>
<g id="a_node19"><a xlink:href="../../d1/da8/GPUROOTCartesianFwd_8h.html" target="_top" xlink:title="GPUROOTCartesianFwd.h">
<polygon fill="none" stroke="#000000" points="632,-134.5 632,-153.5 772,-153.5 772,-134.5 632,-134.5"/>
<text text-anchor="middle" x="702" y="-141.5" font-family="Helvetica,sans-Serif" font-size="10.00" fill="#000000">GPUROOTCartesianFwd.h</text>
</a>
</g>
</g>
<!-- Node17&#45;&gt;Node18 -->
<g id="edge21" class="edge">
<title>Node17&#45;&gt;Node18</title>
<path fill="none" stroke="#191970" d="M782.9297,-190.2455C767.753,-181.5731 745.3379,-168.7645 727.9437,-158.825"/>
<polygon fill="#191970" stroke="#191970" points="729.2936,-155.5653 718.8747,-153.6427 725.8206,-161.643 729.2936,-155.5653"/>
</g>
<!-- Node17&#45;&gt;Node19 -->
<g id="edge22" class="edge">
<title>Node17&#45;&gt;Node19</title>
<path fill="none" stroke="#191970" d="M800.3867,-190.0623C800.3627,-175.2423 797.8813,-147.6367 781,-134 735.516,-97.2579 313.9496,-105.7858 256,-98 247.9291,-96.9156 239.4336,-95.4937 231.1507,-93.9507"/>
<polygon fill="#191970" stroke="#191970" points="231.6787,-90.488 221.1957,-92.0231 230.3479,-97.3604 231.6787,-90.488"/>
</g>
<!-- Node17&#45;&gt;Node22 -->
<g id="edge25" class="edge">
<title>Node17&#45;&gt;Node22</title>
<path fill="none" stroke="#191970" d="M820.113,-190.3733C838.8103,-181.4241 866.8744,-167.9917 887.9934,-157.8835"/>
<polygon fill="#191970" stroke="#191970" points="889.6405,-160.9755 897.1494,-153.5011 886.6183,-154.6614 889.6405,-160.9755"/>
</g>
<!-- Node20 -->
<g id="node21" class="node">
<title>Node20</title>
<polygon fill="none" stroke="#bfbfbf" points="0,-.5 0,-30.5 164,-30.5 164,-.5 0,-.5"/>
<text text-anchor="start" x="8" y="-18.5" font-family="Helvetica,sans-Serif" font-size="10.00" fill="#000000">Math/GenVector/Displacement</text>
<text text-anchor="middle" x="82" y="-7.5" font-family="Helvetica,sans-Serif" font-size="10.00" fill="#000000">Vector2D.h</text>
</g>
<!-- Node19&#45;&gt;Node20 -->
<g id="edge23" class="edge">
<title>Node19&#45;&gt;Node20</title>
<path fill="none" stroke="#191970" d="M165.1023,-72.9005C151.3265,-63.3853 129.7795,-48.5023 112.0779,-36.2755"/>
<polygon fill="#191970" stroke="#191970" points="113.9651,-33.3253 103.7479,-30.5218 109.9868,-39.0849 113.9651,-33.3253"/>
</g>
<!-- Node21 -->
<g id="node22" class="node">
<title>Node21</title>
<polygon fill="none" stroke="#bfbfbf" points="182.5,-6 182.5,-25 371.5,-25 371.5,-6 182.5,-6"/>
<text text-anchor="middle" x="277" y="-13" font-family="Helvetica,sans-Serif" font-size="10.00" fill="#000000">Math/GenVector/PositionVector2D.h</text>
</g>
<!-- Node19&#45;&gt;Node21 -->
<g id="edge24" class="edge">
<title>Node19&#45;&gt;Node21</title>
<path fill="none" stroke="#191970" d="M193.041,-72.9005C209.1238,-61.9052 235.6906,-43.7422 254.6316,-30.7927"/>
<polygon fill="#191970" stroke="#191970" points="256.7052,-33.6148 262.985,-25.0817 252.7545,-27.8362 256.7052,-33.6148"/>
</g>
<!-- Node22&#45;&gt;Node4 -->
<g id="edge31" class="edge">
<title>Node22&#45;&gt;Node4</title>
<path fill="none" stroke="#191970" d="M984.9046,-136.0878C991.3573,-135.3682 997.8018,-134.6618 1004,-134 1166.0879,-116.6924 1208.44,-126.152 1369,-98 1375.9419,-96.7828 1383.258,-95.1951 1390.3191,-93.5007"/>
<polygon fill="#191970" stroke="#191970" points="1391.5592,-96.7983 1400.4087,-90.9727 1389.8579,-90.0081 1391.5592,-96.7983"/>
</g>
<!-- Node22&#45;&gt;Node19 -->
<g id="edge34" class="edge">
<title>Node22&#45;&gt;Node19</title>
<path fill="none" stroke="#191970" d="M849.4341,-137.1248C837.6289,-136.0137 825.4609,-134.9258 814,-134 566.2913,-113.99 502.3688,-130.5944 256,-98 247.927,-96.9319 239.4303,-95.5187 231.1469,-93.9795"/>
<polygon fill="#191970" stroke="#191970" points="231.6742,-90.5167 221.1915,-92.0542 230.345,-97.3893 231.6742,-90.5167"/>
</g>
<!-- Node23 -->
<g id="node24" class="node">
<title>Node23</title>
<polygon fill="none" stroke="#bfbfbf" points="265,-67.5 265,-97.5 429,-97.5 429,-67.5 265,-67.5"/>
<text text-anchor="start" x="273" y="-85.5" font-family="Helvetica,sans-Serif" font-size="10.00" fill="#000000">Math/GenVector/Displacement</text>
<text text-anchor="middle" x="347" y="-74.5" font-family="Helvetica,sans-Serif" font-size="10.00" fill="#000000">Vector3D.h</text>
</g>
<!-- Node22&#45;&gt;Node23 -->
<g id="edge26" class="edge">
<title>Node22&#45;&gt;Node23</title>
<path fill="none" stroke="#191970" d="M849.4075,-137.4247C837.6053,-136.2802 825.4452,-135.1035 814,-134 650.1632,-118.2035 606.1203,-120.0292 439.4096,-98.1329"/>
<polygon fill="#191970" stroke="#191970" points="439.6714,-94.6371 429.2988,-96.7958 438.7536,-101.5767 439.6714,-94.6371"/>
</g>
<!-- Node24 -->
<g id="node25" class="node">
<title>Node24</title>
<polygon fill="none" stroke="#bfbfbf" points="447.5,-73 447.5,-92 636.5,-92 636.5,-73 447.5,-73"/>
<text text-anchor="middle" x="542" y="-80" font-family="Helvetica,sans-Serif" font-size="10.00" fill="#000000">Math/GenVector/PositionVector3D.h</text>
</g>
<!-- Node22&#45;&gt;Node24 -->
<g id="edge27" class="edge">
<title>Node22&#45;&gt;Node24</title>
<path fill="none" stroke="#191970" d="M858.8177,-134.4581C791.6602,-123.4443 681.3479,-105.3531 610.2117,-93.6867"/>
<polygon fill="#191970" stroke="#191970" points="610.4449,-90.1783 600.0102,-92.0137 609.312,-97.086 610.4449,-90.1783"/>
</g>
<!-- Node25 -->
<g id="node26" class="node">
<title>Node25</title>
<polygon fill="none" stroke="#bfbfbf" points="655,-73 655,-92 815,-92 815,-73 655,-73"/>
<text text-anchor="middle" x="735" y="-80" font-family="Helvetica,sans-Serif" font-size="10.00" fill="#000000">Math/GenVector/Rotation3D.h</text>
</g>
<!-- Node22&#45;&gt;Node25 -->
<g id="edge28" class="edge">
<title>Node22&#45;&gt;Node25</title>
<path fill="none" stroke="#191970" d="M888.5625,-134.3906C857.4428,-123.8749 807.4036,-106.966 772.9515,-95.3243"/>
<polygon fill="#191970" stroke="#191970" points="773.832,-91.9274 763.2378,-92.0419 771.5911,-98.5591 773.832,-91.9274"/>
</g>
<!-- Node26 -->
<g id="node27" class="node">
<title>Node26</title>
<polygon fill="none" stroke="#bfbfbf" points="833,-73 833,-92 1001,-92 1001,-73 833,-73"/>
<text text-anchor="middle" x="917" y="-80" font-family="Helvetica,sans-Serif" font-size="10.00" fill="#000000">Math/GenVector/Transform3D.h</text>
</g>
<!-- Node22&#45;&gt;Node26 -->
<g id="edge29" class="edge">
<title>Node22&#45;&gt;Node26</title>
<path fill="none" stroke="#191970" d="M917,-134.3906C917,-125.8657 917,-113.1392 917,-102.4235"/>
<polygon fill="#191970" stroke="#191970" points="920.5001,-102.2448 917,-92.2449 913.5001,-102.2449 920.5001,-102.2448"/>
</g>
<!-- Node27 -->
<g id="node28" class="node">
<title>Node27</title>
<polygon fill="none" stroke="#bfbfbf" points="1019.5,-73 1019.5,-92 1192.5,-92 1192.5,-73 1019.5,-73"/>
<text text-anchor="middle" x="1106" y="-80" font-family="Helvetica,sans-Serif" font-size="10.00" fill="#000000">Math/GenVector/Translation3D.h</text>
</g>
<!-- Node22&#45;&gt;Node27 -->
<g id="edge30" class="edge">
<title>Node22&#45;&gt;Node27</title>
<path fill="none" stroke="#191970" d="M946.5313,-134.3906C978.9866,-123.8298 1031.2581,-106.8208 1067.0486,-95.1747"/>
<polygon fill="#191970" stroke="#191970" points="1068.2499,-98.4645 1076.6761,-92.0419 1066.0839,-91.808 1068.2499,-98.4645"/>
</g>
<!-- Node28 -->
<g id="node29" class="node">
<title>Node28</title>
<polygon fill="none" stroke="#bfbfbf" points="1211,-73 1211,-92 1293,-92 1293,-73 1211,-73"/>
<text text-anchor="middle" x="1252" y="-80" font-family="Helvetica,sans-Serif" font-size="10.00" fill="#000000">TGeoMatrix.h</text>
</g>
<!-- Node22&#45;&gt;Node28 -->
<g id="edge32" class="edge">
<title>Node22&#45;&gt;Node28</title>
<path fill="none" stroke="#191970" d="M984.6335,-135.6521C1042.488,-127.8915 1127.7703,-114.9775 1201,-98 1205.0567,-97.0595 1209.2631,-95.9707 1213.4412,-94.8148"/>
<polygon fill="#191970" stroke="#191970" points="1214.4212,-98.1749 1223.055,-92.0342 1212.4762,-91.4505 1214.4212,-98.1749"/>
</g>
<!-- Node29 -->
<g id="node30" class="node">
<title>Node29</title>
<polygon fill="none" stroke="#bfbfbf" points="1311.5,-73 1311.5,-92 1360.5,-92 1360.5,-73 1311.5,-73"/>
<text text-anchor="middle" x="1336" y="-80" font-family="Helvetica,sans-Serif" font-size="10.00" fill="#000000">iosfwd</text>
</g>
<!-- Node22&#45;&gt;Node29 -->
<g id="edge33" class="edge">
<title>Node22&#45;&gt;Node29</title>
<path fill="none" stroke="#191970" d="M984.6142,-136.1886C1093.0259,-123.6267 1294.4347,-100.1209 1302,-98 1303.9676,-97.4484 1305.9658,-96.7979 1307.9572,-96.0811"/>
<polygon fill="#191970" stroke="#191970" points="1309.758,-99.1258 1317.6854,-92.0967 1307.1049,-92.648 1309.758,-99.1258"/>
</g>
<!-- Node31&#45;&gt;Node30 -->
<g id="edge40" class="edge">
<title>Node31&#45;&gt;Node30</title>
<path fill="none" stroke="#191970" d="M420.6768,-358.2455C434.4856,-349.6534 454.8193,-337.0014 470.7292,-327.1018"/>
<polygon fill="#191970" stroke="#191970" points="472.8613,-329.8974 479.5028,-321.6427 469.1632,-323.954 472.8613,-329.8974"/>
</g>
<!-- Node31&#45;&gt;Node32 -->
<g id="edge37" class="edge">
<title>Node31&#45;&gt;Node32</title>
<path fill="none" stroke="#191970" d="M406.6282,-358.0671C409.4789,-343.7557 416.6997,-317.3705 433,-302 451.7773,-284.2938 477.8228,-273.3327 501.5972,-266.5801"/>
<polygon fill="#191970" stroke="#191970" points="502.497,-269.9625 511.2697,-264.022 500.7072,-263.1952 502.497,-269.9625"/>
</g>
<!-- Node32&#45;&gt;Node17 -->
<g id="edge39" class="edge">
<title>Node32&#45;&gt;Node17</title>
<path fill="none" stroke="#191970" d="M602.6432,-246.4369C643.2895,-236.8731 705.8913,-222.1432 749.6587,-211.845"/>
<polygon fill="#191970" stroke="#191970" points="750.5919,-215.2211 759.5244,-209.5237 748.9886,-208.4072 750.5919,-215.2211"/>
</g>
<!-- Node33 -->
<g id="node34" class="node">
<title>Node33</title>
<g id="a_node34"><a xlink:href="../../d0/dda/DataFormats_2Detectors_2TPC_2include_2DataFormatsTPC_2Constants_8h.html" target="_top" xlink:title="DataFormatsTPC/Constants.h">
<polygon fill="none" stroke="#000000" points="482.5,-190.5 482.5,-209.5 641.5,-209.5 641.5,-190.5 482.5,-190.5"/>
<text text-anchor="middle" x="562" y="-197.5" font-family="Helvetica,sans-Serif" font-size="10.00" fill="#000000">DataFormatsTPC/Constants.h</text>
</a>
</g>
</g>
<!-- Node32&#45;&gt;Node33 -->
<g id="edge38" class="edge">
<title>Node32&#45;&gt;Node33</title>
<path fill="none" stroke="#191970" d="M562,-246.2455C562,-238.9382 562,-228.6944 562,-219.7046"/>
<polygon fill="#191970" stroke="#191970" points="565.5001,-219.6426 562,-209.6427 558.5001,-219.6427 565.5001,-219.6426"/>
</g>
<!-- Node34&#45;&gt;Node17 -->
<g id="edge42" class="edge">
<title>Node34&#45;&gt;Node17</title>
<path fill="none" stroke="#191970" d="M744.3797,-358.207C752.3178,-349.3989 763.4236,-335.7626 770,-322 786.2287,-288.038 794.2102,-244.4252 797.6889,-219.6057"/>
<polygon fill="#191970" stroke="#191970" points="801.1677,-219.994 798.9838,-209.6267 794.2259,-219.0931 801.1677,-219.994"/>
</g>
<!-- Node34&#45;&gt;Node30 -->
<g id="edge46" class="edge">
<title>Node34&#45;&gt;Node30</title>
<path fill="none" stroke="#191970" d="M694.0152,-358.4369C653.0274,-348.8731 589.8996,-334.1432 545.7643,-323.845"/>
<polygon fill="#191970" stroke="#191970" points="546.3495,-320.3876 535.8157,-321.5237 544.7588,-327.2045 546.3495,-320.3876"/>
</g>
<!-- Node35 -->
<g id="node36" class="node">
<title>Node35</title>
<g id="a_node36"><a xlink:href="../../dc/d14/ROC_8h.html" target="_top" xlink:title="TPCBase/ROC.h">
<polygon fill="none" stroke="#000000" points="669,-302.5 669,-321.5 761,-321.5 761,-302.5 669,-302.5"/>
<text text-anchor="middle" x="715" y="-309.5" font-family="Helvetica,sans-Serif" font-size="10.00" fill="#000000">TPCBase/ROC.h</text>
</a>
</g>
</g>
<!-- Node34&#45;&gt;Node35 -->
<g id="edge43" class="edge">
<title>Node34&#45;&gt;Node35</title>
<path fill="none" stroke="#191970" d="M731.5163,-358.2455C728.8492,-350.7776 725.0867,-340.2427 721.8263,-331.1137"/>
<polygon fill="#191970" stroke="#191970" points="725.1033,-329.8829 718.4438,-321.6427 718.5111,-332.2373 725.1033,-329.8829"/>
</g>
<!-- Node35&#45;&gt;Node17 -->
<g id="edge44" class="edge">
<title>Node35&#45;&gt;Node17</title>
<path fill="none" stroke="#191970" d="M722.2471,-302.4509C736.4868,-283.688 768.3111,-241.7548 786.523,-217.758"/>
<polygon fill="#191970" stroke="#191970" points="789.5138,-219.6065 792.7713,-209.5249 783.9378,-215.3747 789.5138,-219.6065"/>
</g>
<!-- Node35&#45;&gt;Node32 -->
<g id="edge45" class="edge">
<title>Node35&#45;&gt;Node32</title>
<path fill="none" stroke="#191970" d="M688.6984,-302.3733C663.5872,-293.1822 625.5562,-279.2624 597.7128,-269.0713"/>
<polygon fill="#191970" stroke="#191970" points="598.5522,-265.6516 587.9584,-265.5011 596.1462,-272.2251 598.5522,-265.6516"/>
</g>
<!-- Node36&#45;&gt;Node17 -->
<g id="edge48" class="edge">
<title>Node36&#45;&gt;Node17</title>
<path fill="none" stroke="#191970" d="M623.2229,-417.0119C690.4256,-408.0856 795.344,-392.1023 807,-378 844.8382,-332.2208 821.9671,-254.9559 808.1776,-219.2068"/>
<polygon fill="#191970" stroke="#191970" points="811.4123,-217.8696 804.4266,-209.904 804.9201,-220.4873 811.4123,-217.8696"/>
</g>
<!-- Node36&#45;&gt;Node30 -->
<g id="edge53" class="edge">
<title>Node36&#45;&gt;Node30</title>
<path fill="none" stroke="#191970" d="M553.9897,-414.3311C543.3095,-405.8036 528.4551,-392.5035 519,-378 509.648,-363.6546 503.3336,-345.1835 499.5387,-331.4319"/>
<polygon fill="#191970" stroke="#191970" points="502.8897,-330.4082 497.0255,-321.5842 496.1071,-332.1392 502.8897,-330.4082"/>
</g>
<!-- Node36&#45;&gt;Node31 -->
<g id="edge54" class="edge">
<title>Node36&#45;&gt;Node31</title>
<path fill="none" stroke="#191970" d="M539.1512,-414.3733C512.3297,-405.1016 471.5873,-391.0178 442.0402,-380.804"/>
<polygon fill="#191970" stroke="#191970" points="443.0802,-377.4603 432.4854,-377.5011 440.7931,-384.0762 443.0802,-377.4603"/>
</g>
<!-- Node37 -->
<g id="node38" class="node">
<title>Node37</title>
<g id="a_node38"><a xlink:href="../../df/d26/CRU_8h.html" target="_top" xlink:title="TPCBase/CRU.h">
<polygon fill="none" stroke="#000000" points="561,-358.5 561,-377.5 653,-377.5 653,-358.5 561,-358.5"/>
<text text-anchor="middle" x="607" y="-365.5" font-family="Helvetica,sans-Serif" font-size="10.00" fill="#000000">TPCBase/CRU.h</text>
</a>
</g>
</g>
<!-- Node36&#45;&gt;Node37 -->
<g id="edge49" class="edge">
<title>Node36&#45;&gt;Node37</title>
<path fill="none" stroke="#191970" d="M573.9675,-414.2455C579.5311,-406.4564 587.478,-395.3308 594.1829,-385.9439"/>
<polygon fill="#191970" stroke="#191970" points="597.148,-387.8144 600.1124,-377.6427 591.4519,-383.7457 597.148,-387.8144"/>
</g>
<!-- Node37&#45;&gt;Node17 -->
<g id="edge50" class="edge">
<title>Node37&#45;&gt;Node17</title>
<path fill="none" stroke="#191970" d="M613.4916,-358.3815C622.8439,-344.912 641.0745,-320.0574 660,-302 696.9096,-266.7835 746.3786,-233.4502 775.5542,-214.9683"/>
<polygon fill="#191970" stroke="#191970" points="777.6563,-217.7815 784.272,-209.506 773.9397,-211.8497 777.6563,-217.7815"/>
</g>
<!-- Node37&#45;&gt;Node32 -->
<g id="edge51" class="edge">
<title>Node37&#45;&gt;Node32</title>
<path fill="none" stroke="#191970" d="M603.1633,-358.4509C595.7575,-340.0186 579.3673,-299.2254 569.6512,-275.043"/>
<polygon fill="#191970" stroke="#191970" points="572.8029,-273.499 565.827,-265.5249 566.3075,-276.1088 572.8029,-273.499"/>
</g>
<!-- Node37&#45;&gt;Node35 -->
<g id="edge52" class="edge">
<title>Node37&#45;&gt;Node35</title>
<path fill="none" stroke="#191970" d="M625.8122,-358.2455C642.8473,-349.4125 668.1575,-336.2887 687.4681,-326.2758"/>
<polygon fill="#191970" stroke="#191970" points="689.137,-329.353 696.4034,-321.6427 685.9147,-323.1388 689.137,-329.353"/>
</g>
<!-- Node38&#45;&gt;Node29 -->
<g id="edge56" class="edge">
<title>Node38&#45;&gt;Node29</title>
<path fill="none" stroke="#191970" d="M1225.4571,-246.4248C1244.1909,-218.6443 1298.7938,-137.6733 1323.5452,-100.9693"/>
<polygon fill="#191970" stroke="#191970" points="1326.7294,-102.5074 1329.4186,-92.2595 1320.9257,-98.5936 1326.7294,-102.5074"/>
</g>
<!-- Node39&#45;&gt;Node13 -->
<g id="edge58" class="edge">
<title>Node39&#45;&gt;Node13</title>
<path fill="none" stroke="#191970" d="M790.6679,-414.4369C838.2996,-403.505 915.3403,-385.8235 959.3374,-375.7258"/>
<polygon fill="#191970" stroke="#191970" points="960.286,-379.0992 969.2496,-373.4509 958.7201,-372.2766 960.286,-379.0992"/>
</g>
<!-- Node39&#45;&gt;Node17 -->
<g id="edge59" class="edge">
<title>Node39&#45;&gt;Node17</title>
<path fill="none" stroke="#191970" d="M789.2925,-414.4495C808.4658,-407.6623 829.6402,-396.3805 841,-378 871.8429,-328.0952 861.8859,-300.8229 841,-246 836.7725,-234.9034 828.5029,-224.7814 820.4912,-216.8751"/>
<polygon fill="#191970" stroke="#191970" points="822.4607,-213.9323 812.7248,-209.7534 817.7297,-219.0916 822.4607,-213.9323"/>
</g>
<!-- Node39&#45;&gt;Node30 -->
<g id="edge60" class="edge">
<title>Node39&#45;&gt;Node30</title>
<path fill="none" stroke="#191970" d="M690.6383,-414.4909C641.2982,-405.7088 575.0657,-391.9493 552,-378 532.4741,-366.1914 516.1824,-345.4104 506.0847,-330.3149"/>
<polygon fill="#191970" stroke="#191970" points="508.9624,-328.3183 500.6244,-321.7817 503.0662,-332.0913 508.9624,-328.3183"/>
</g>
<!-- Node43 -->
<g id="node44" class="node">
<title>Node43</title>
<polygon fill="none" stroke="#bfbfbf" points="1400,-470.5 1400,-489.5 1508,-489.5 1508,-470.5 1400,-470.5"/>
<text text-anchor="middle" x="1454" y="-477.5" font-family="Helvetica,sans-Serif" font-size="10.00" fill="#000000">fairlogger/Logger.h</text>
</g>
<!-- Node42&#45;&gt;Node43 -->
<g id="edge69" class="edge">
<title>Node42&#45;&gt;Node43</title>
<path fill="none" stroke="#191970" d="M1403.375,-531.8906C1412.4799,-522.5581 1426.4974,-508.1902 1437.4757,-496.9374"/>
<polygon fill="#191970" stroke="#191970" points="1440.0148,-499.3468 1444.4928,-489.7449 1435.0043,-494.4586 1440.0148,-499.3468"/>
</g>
</g>
</svg>
        <g id="navigator" transform="translate(0 0)" fill="#404254">
                <rect fill="#f2f5e9" fill-opacity="0.5" stroke="#606060" stroke-width=".5" x="0" y="0" width="60" height="60"/>
                <use id="zoomplus" xlink:href="#zoomPlus" x="17" y="9" onmousedown="handleZoom(evt,'in')"/>
                <use id="zoomminus" xlink:href="#zoomMin" x="42" y="9" onmousedown="handleZoom(evt,'out')"/>
                <use id="reset" xlink:href="#resetDef" x="30" y="36" onmousedown="handleReset()"/>
                <g id="arrowUp" xlink:href="#dirArrow" transform="translate(30 24)" onmousedown="handlePan(0,-1)">
                  <use xlink:href="#rim" fill="#404040">
                        <set attributeName="fill" to="#808080" begin="arrowUp.mouseover" end="arrowUp.mouseout"/>
                  </use>
                  <path fill="none" stroke="white" stroke-width="1.5" d="M0,-3.0v7 M-2.5,-0.5L0,-3.0L2.5,-0.5"/>
                </g>
                <g id="arrowRight" xlink:href="#dirArrow" transform="rotate(90) translate(36 -43)" onmousedown="handlePan(1,0)">
                  <use xlink:href="#rim" fill="#404040">
                        <set attributeName="fill" to="#808080" begin="arrowRight.mouseover" end="arrowRight.mouseout"/>
                  </use>
                  <path fill="none" stroke="white" stroke-width="1.5" d="M0,-3.0v7 M-2.5,-0.5L0,-3.0L2.5,-0.5"/>
                </g>
                <g id="arrowDown" xlink:href="#dirArrow" transform="rotate(180) translate(-30 -48)" onmousedown="handlePan(0,1)">
                  <use xlink:href="#rim" fill="#404040">
                        <set attributeName="fill" to="#808080" begin="arrowDown.mouseover" end="arrowDown.mouseout"/>
                  </use>
                  <path fill="none" stroke="white" stroke-width="1.5" d="M0,-3.0v7 M-2.5,-0.5L0,-3.0L2.5,-0.5"/>
                </g>
                <g id="arrowLeft" xlink:href="#dirArrow" transform="rotate(270) translate(-36 17)" onmousedown="handlePan(-1,0)">
                  <use xlink:href="#rim" fill="#404040">
                        <set attributeName="fill" to="#808080" begin="arrowLeft.mouseover" end="arrowLeft.mouseout"/>
                  </use>
                  <path fill="none" stroke="white" stroke-width="1.5" d="M0,-3.0v7 M-2.5,-0.5L0,-3.0L2.5,-0.5"/>
                </g>
        </g>
        <svg viewBox="0 0 15 15" width="100%" height="30px" preserveAspectRatio="xMaxYMin meet">
         <g id="arrow_out" transform="scale(0.3 0.3)">
          <a xlink:href="KrBoxClusterFinder_8cxx__incl_org.svg" target="_base">
           <rect id="button" ry="5" rx="5" y="6" x="6" height="38" width="38"
                fill="#f2f5e9" fill-opacity="0.5" stroke="#606060" stroke-width="1.0"/>
           <path id="arrow"
             d="M 11.500037,31.436501 C 11.940474,20.09759 22.043105,11.32322 32.158766,21.979434 L 37.068811,17.246167 C 37.068811,17.246167 37.088388,32 37.088388,32 L 22.160133,31.978069 C 22.160133,31.978069 26.997745,27.140456 26.997745,27.140456 C 18.528582,18.264221 13.291696,25.230495 11.500037,31.436501 z"
             style="fill:#404040;"/>
          </a>
         </g>
        </svg>
</svg>
