<?xml version="1.0" encoding="UTF-8" standalone="no"?>
<!DOCTYPE svg PUBLIC "-//W3C//DTD SVG 1.1//EN"
 "http://www.w3.org/Graphics/SVG/1.1/DTD/svg11.dtd">
<!-- Generated by graphviz version 2.40.1 (20161225.0304)
 -->
<!-- Title: /home/travis/build/AliceO2Group/AliceO2/Detectors/TPC/base/test/testTPCMapper.cxx Pages: 1 -->
<svg width="1608pt" height="587pt"
 viewBox="0.00 0.00 1607.50 587.00" xmlns="http://www.w3.org/2000/svg" xmlns:xlink="http://www.w3.org/1999/xlink">
<g id="graph0" class="graph" transform="scale(1 1) rotate(0) translate(4 583)">
<title>/home/travis/build/AliceO2Group/AliceO2/Detectors/TPC/base/test/testTPCMapper.cxx</title>
<!-- Node0 -->
<g id="node1" class="node">
<title>Node0</title>
<polygon fill="#bfbfbf" stroke="#000000" points="252.5,-526.5 252.5,-578.5 389.5,-578.5 389.5,-526.5 252.5,-526.5"/>
<text text-anchor="start" x="260.5" y="-566.5" font-family="Helvetica,sans-Serif" font-size="10.00" fill="#000000">/home/travis/build</text>
<text text-anchor="start" x="260.5" y="-555.5" font-family="Helvetica,sans-Serif" font-size="10.00" fill="#000000">/AliceO2Group/AliceO2</text>
<text text-anchor="start" x="260.5" y="-544.5" font-family="Helvetica,sans-Serif" font-size="10.00" fill="#000000">/Detectors/TPC/base/test</text>
<text text-anchor="middle" x="321" y="-533.5" font-family="Helvetica,sans-Serif" font-size="10.00" fill="#000000">/testTPCMapper.cxx</text>
</g>
<!-- Node1 -->
<g id="node2" class="node">
<title>Node1</title>
<polygon fill="none" stroke="#bfbfbf" points="0,-470.5 0,-489.5 132,-489.5 132,-470.5 0,-470.5"/>
<text text-anchor="middle" x="66" y="-477.5" font-family="Helvetica,sans-Serif" font-size="10.00" fill="#000000">boost/test/unit_test.hpp</text>
</g>
<!-- Node0&#45;&gt;Node1 -->
<g id="edge1" class="edge">
<title>Node0&#45;&gt;Node1</title>
<path fill="none" stroke="#191970" d="M252.3292,-532.976C206.8693,-520.0511 148.6297,-503.4928 109.4642,-492.3575"/>
<polygon fill="#191970" stroke="#191970" points="110.2669,-488.947 99.6909,-489.5788 108.3525,-495.6802 110.2669,-488.947"/>
</g>
<!-- Node2 -->
<g id="node3" class="node">
<title>Node2</title>
<polygon fill="none" stroke="#bfbfbf" points="150.5,-470.5 150.5,-489.5 199.5,-489.5 199.5,-470.5 150.5,-470.5"/>
<text text-anchor="middle" x="175" y="-477.5" font-family="Helvetica,sans-Serif" font-size="10.00" fill="#000000">cstdlib</text>
</g>
<!-- Node0&#45;&gt;Node2 -->
<g id="edge2" class="edge">
<title>Node0&#45;&gt;Node2</title>
<path fill="none" stroke="#191970" d="M268.2906,-526.3258C246.3112,-515.4114 221.6659,-503.1731 203.2283,-494.0175"/>
<polygon fill="#191970" stroke="#191970" points="204.7127,-490.8469 194.1995,-489.534 201.5994,-497.1164 204.7127,-490.8469"/>
</g>
<!-- Node3 -->
<g id="node4" class="node">
<title>Node3</title>
<polygon fill="none" stroke="#bfbfbf" points="217.5,-470.5 217.5,-489.5 272.5,-489.5 272.5,-470.5 217.5,-470.5"/>
<text text-anchor="middle" x="245" y="-477.5" font-family="Helvetica,sans-Serif" font-size="10.00" fill="#000000">fstream</text>
</g>
<!-- Node0&#45;&gt;Node3 -->
<g id="edge3" class="edge">
<title>Node0&#45;&gt;Node3</title>
<path fill="none" stroke="#191970" d="M293.5623,-526.3258C283.1706,-516.4127 271.6341,-505.4075 262.4138,-496.6118"/>
<polygon fill="#191970" stroke="#191970" points="264.6459,-493.904 254.9943,-489.534 259.8141,-498.969 264.6459,-493.904"/>
</g>
<!-- Node4 -->
<g id="node5" class="node">
<title>Node4</title>
<polygon fill="none" stroke="#bfbfbf" points="291,-470.5 291,-489.5 351,-489.5 351,-470.5 291,-470.5"/>
<text text-anchor="middle" x="321" y="-477.5" font-family="Helvetica,sans-Serif" font-size="10.00" fill="#000000">iostream</text>
</g>
<!-- Node0&#45;&gt;Node4 -->
<g id="edge4" class="edge">
<title>Node0&#45;&gt;Node4</title>
<path fill="none" stroke="#191970" d="M321,-526.3258C321,-517.5142 321,-507.8397 321,-499.621"/>
<polygon fill="#191970" stroke="#191970" points="324.5001,-499.534 321,-489.534 317.5001,-499.534 324.5001,-499.534"/>
</g>
<!-- Node5 -->
<g id="node6" class="node">
<title>Node5</title>
<polygon fill="none" stroke="#bfbfbf" points="369,-470.5 369,-489.5 425,-489.5 425,-470.5 369,-470.5"/>
<text text-anchor="middle" x="397" y="-477.5" font-family="Helvetica,sans-Serif" font-size="10.00" fill="#000000">sstream</text>
</g>
<!-- Node0&#45;&gt;Node5 -->
<g id="edge5" class="edge">
<title>Node0&#45;&gt;Node5</title>
<path fill="none" stroke="#191970" d="M348.4377,-526.3258C358.8294,-516.4127 370.3659,-505.4075 379.5862,-496.6118"/>
<polygon fill="#191970" stroke="#191970" points="382.1859,-498.969 387.0057,-489.534 377.3541,-493.904 382.1859,-498.969"/>
</g>
<!-- Node6 -->
<g id="node7" class="node">
<title>Node6</title>
<polygon fill="none" stroke="#bfbfbf" points="248,-414.5 248,-433.5 292,-433.5 292,-414.5 248,-414.5"/>
<text text-anchor="middle" x="270" y="-421.5" font-family="Helvetica,sans-Serif" font-size="10.00" fill="#000000">string</text>
</g>
<!-- Node0&#45;&gt;Node6 -->
<g id="edge6" class="edge">
<title>Node0&#45;&gt;Node6</title>
<path fill="none" stroke="#191970" d="M389.6519,-530.6708C423.4117,-516.2055 453.15,-495.2604 434,-470 433.7438,-469.6621 349.5617,-446.1655 301.9227,-432.89"/>
<polygon fill="#191970" stroke="#191970" points="302.6465,-429.4584 292.074,-430.146 300.7677,-436.2016 302.6465,-429.4584"/>
</g>
<!-- Node7 -->
<g id="node8" class="node">
<title>Node7</title>
<g id="a_node8"><a xlink:href="../../d5/d1d/TPC_2base_2include_2TPCBase_2Mapper_8h.html" target="_top" xlink:title="TPCBase/Mapper.h">
<polygon fill="none" stroke="#000000" points="664.5,-470.5 664.5,-489.5 771.5,-489.5 771.5,-470.5 664.5,-470.5"/>
<text text-anchor="middle" x="718" y="-477.5" font-family="Helvetica,sans-Serif" font-size="10.00" fill="#000000">TPCBase/Mapper.h</text>
</a>
</g>
</g>
<!-- Node0&#45;&gt;Node7 -->
<g id="edge7" class="edge">
<title>Node0&#45;&gt;Node7</title>
<path fill="none" stroke="#191970" d="M389.6989,-539.9542C464.7319,-526.2517 583.8276,-504.5025 656.074,-491.3089"/>
<polygon fill="#191970" stroke="#191970" points="656.7393,-494.7454 665.9478,-489.5057 655.4817,-487.8593 656.7393,-494.7454"/>
</g>
<!-- Node7&#45;&gt;Node6 -->
<g id="edge11" class="edge">
<title>Node7&#45;&gt;Node6</title>
<path fill="none" stroke="#191970" d="M664.2556,-476.7496C585.207,-471.3495 433.1924,-458.6026 306,-434 304.7462,-433.7575 303.4723,-433.4931 302.1888,-433.2117"/>
<polygon fill="#191970" stroke="#191970" points="302.8824,-429.7782 292.337,-430.8002 301.2181,-436.5775 302.8824,-429.7782"/>
</g>
<!-- Node8 -->
<g id="node9" class="node">
<title>Node8</title>
<polygon fill="none" stroke="#bfbfbf" points="1304,-414.5 1304,-433.5 1342,-433.5 1342,-414.5 1304,-414.5"/>
<text text-anchor="middle" x="1323" y="-421.5" font-family="Helvetica,sans-Serif" font-size="10.00" fill="#000000">map</text>
</g>
<!-- Node7&#45;&gt;Node8 -->
<g id="edge8" class="edge">
<title>Node7&#45;&gt;Node8</title>
<path fill="none" stroke="#191970" d="M771.8586,-477.5202C891.7565,-471.7148 1178.5433,-456.1798 1293.9429,-433.627"/>
<polygon fill="#191970" stroke="#191970" points="1294.8294,-437.0178 1303.9139,-431.5659 1293.4124,-430.1627 1294.8294,-437.0178"/>
</g>
<!-- Node9 -->
<g id="node10" class="node">
<title>Node9</title>
<polygon fill="none" stroke="#bfbfbf" points="424.5,-358.5 424.5,-377.5 471.5,-377.5 471.5,-358.5 424.5,-358.5"/>
<text text-anchor="middle" x="448" y="-365.5" font-family="Helvetica,sans-Serif" font-size="10.00" fill="#000000">vector</text>
</g>
<!-- Node7&#45;&gt;Node9 -->
<g id="edge9" class="edge">
<title>Node7&#45;&gt;Node9</title>
<path fill="none" stroke="#191970" d="M664.4088,-477.1491C598.3089,-472.5099 491.2086,-460.9668 463,-434 450.6814,-422.2237 447.5062,-402.6076 447.0681,-387.8144"/>
<polygon fill="#191970" stroke="#191970" points="450.5693,-387.6831 447.1604,-377.6516 443.5696,-387.6194 450.5693,-387.6831"/>
</g>
<!-- Node10 -->
<g id="node11" class="node">
<title>Node10</title>
<polygon fill="none" stroke="#bfbfbf" points="1398,-414.5 1398,-433.5 1440,-433.5 1440,-414.5 1398,-414.5"/>
<text text-anchor="middle" x="1419" y="-421.5" font-family="Helvetica,sans-Serif" font-size="10.00" fill="#000000">array</text>
</g>
<!-- Node7&#45;&gt;Node10 -->
<g id="edge10" class="edge">
<title>Node7&#45;&gt;Node10</title>
<path fill="none" stroke="#191970" d="M771.8313,-477.7379C908.5639,-471.7585 1266.7028,-454.5734 1384,-434 1385.2605,-433.7789 1386.5405,-433.5302 1387.8292,-433.2597"/>
<polygon fill="#191970" stroke="#191970" points="1388.8082,-436.6236 1397.694,-430.8537 1387.1495,-429.823 1388.8082,-436.6236"/>
</g>
<!-- Node11 -->
<g id="node12" class="node">
<title>Node11</title>
<polygon fill="none" stroke="#bfbfbf" points="474.5,-134.5 474.5,-153.5 521.5,-153.5 521.5,-134.5 474.5,-134.5"/>
<text text-anchor="middle" x="498" y="-141.5" font-family="Helvetica,sans-Serif" font-size="10.00" fill="#000000">cmath</text>
</g>
<!-- Node7&#45;&gt;Node11 -->
<g id="edge12" class="edge">
<title>Node7&#45;&gt;Node11</title>
<path fill="none" stroke="#191970" d="M664.445,-476.748C588.0097,-471.3153 452.2012,-458.493 410,-434 377.7018,-415.2546 358,-405.3439 358,-368 358,-368 358,-368 358,-256 358,-201.5375 423.4016,-169.2025 464.8025,-154.1897"/>
<polygon fill="#191970" stroke="#191970" points="465.9513,-157.4959 474.2509,-150.9106 463.6561,-150.8829 465.9513,-157.4959"/>
</g>
<!-- Node12 -->
<g id="node13" class="node">
<title>Node12</title>
<g id="a_node13"><a xlink:href="../../d1/d73/Defs_8h.html" target="_top" xlink:title="Common definitions for 2D coordinates. ">
<polygon fill="none" stroke="#000000" points="818.5,-190.5 818.5,-209.5 951.5,-209.5 951.5,-190.5 818.5,-190.5"/>
<text text-anchor="middle" x="885" y="-197.5" font-family="Helvetica,sans-Serif" font-size="10.00" fill="#000000">DataFormatsTPC/Defs.h</text>
</a>
</g>
</g>
<!-- Node7&#45;&gt;Node12 -->
<g id="edge13" class="edge">
<title>Node7&#45;&gt;Node12</title>
<path fill="none" stroke="#191970" d="M771.8012,-475.0147C874.4198,-464.011 1088,-433.2689 1088,-368 1088,-368 1088,-368 1088,-312 1088,-251.9762 1019.118,-223.8777 961.6032,-210.878"/>
<polygon fill="#191970" stroke="#191970" points="962.2619,-207.4398 951.751,-208.7702 960.7974,-214.2849 962.2619,-207.4398"/>
</g>
<!-- Node14 -->
<g id="node15" class="node">
<title>Node14</title>
<g id="a_node15"><a xlink:href="../../d2/dd0/Cartesian2D_8h.html" target="_top" xlink:title="MathUtils/Cartesian2D.h">
<polygon fill="none" stroke="#000000" points="275.5,-73 275.5,-92 410.5,-92 410.5,-73 275.5,-73"/>
<text text-anchor="middle" x="343" y="-80" font-family="Helvetica,sans-Serif" font-size="10.00" fill="#000000">MathUtils/Cartesian2D.h</text>
</a>
</g>
</g>
<!-- Node7&#45;&gt;Node14 -->
<g id="edge57" class="edge">
<title>Node7&#45;&gt;Node14</title>
<path fill="none" stroke="#191970" d="M664.2149,-477.4451C580.7251,-472.7056 424.4894,-460.5177 376,-434 342.248,-415.5418 320,-406.4695 320,-368 320,-368 320,-368 320,-200 320,-164.8287 330.0477,-124.8199 336.861,-101.7331"/>
<polygon fill="#191970" stroke="#191970" points="340.222,-102.7104 339.8019,-92.1239 333.5285,-100.6617 340.222,-102.7104"/>
</g>
<!-- Node17 -->
<g id="node18" class="node">
<title>Node17</title>
<g id="a_node18"><a xlink:href="../../dd/d76/Cartesian3D_8h.html" target="_top" xlink:title="MathUtils/Cartesian3D.h">
<polygon fill="none" stroke="#000000" points="895.5,-134.5 895.5,-153.5 1030.5,-153.5 1030.5,-134.5 895.5,-134.5"/>
<text text-anchor="middle" x="963" y="-141.5" font-family="Helvetica,sans-Serif" font-size="10.00" fill="#000000">MathUtils/Cartesian3D.h</text>
</a>
</g>
</g>
<!-- Node7&#45;&gt;Node17 -->
<g id="edge58" class="edge">
<title>Node7&#45;&gt;Node17</title>
<path fill="none" stroke="#191970" d="M771.7584,-476.5234C882.5481,-467.8811 1126,-440.6274 1126,-368 1126,-368 1126,-368 1126,-256 1126,-201.2319 1062.7169,-171.2317 1015.0127,-156.3974"/>
<polygon fill="#191970" stroke="#191970" points="1015.9834,-153.0346 1005.4008,-153.5442 1013.9914,-159.7452 1015.9834,-153.0346"/>
</g>
<!-- Node26 -->
<g id="node27" class="node">
<title>Node26</title>
<g id="a_node27"><a xlink:href="../../de/d41/PadPos_8h.html" target="_top" xlink:title="TPCBase/PadPos.h">
<polygon fill="none" stroke="#000000" points="656,-302.5 656,-321.5 762,-321.5 762,-302.5 656,-302.5"/>
<text text-anchor="middle" x="709" y="-309.5" font-family="Helvetica,sans-Serif" font-size="10.00" fill="#000000">TPCBase/PadPos.h</text>
</a>
</g>
</g>
<!-- Node7&#45;&gt;Node26 -->
<g id="edge29" class="edge">
<title>Node7&#45;&gt;Node26</title>
<path fill="none" stroke="#191970" d="M717.4903,-470.4862C716.0676,-443.9293 712.0303,-368.5651 710.0803,-332.1655"/>
<polygon fill="#191970" stroke="#191970" points="713.5565,-331.6263 709.5265,-321.8279 706.5665,-332.0008 713.5565,-331.6263"/>
</g>
<!-- Node27 -->
<g id="node28" class="node">
<title>Node27</title>
<g id="a_node28"><a xlink:href="../../dd/d0b/PadSecPos_8h.html" target="_top" xlink:title="TPCBase/PadSecPos.h">
<polygon fill="none" stroke="#000000" points="566.5,-358.5 566.5,-377.5 689.5,-377.5 689.5,-358.5 566.5,-358.5"/>
<text text-anchor="middle" x="628" y="-365.5" font-family="Helvetica,sans-Serif" font-size="10.00" fill="#000000">TPCBase/PadSecPos.h</text>
</a>
</g>
</g>
<!-- Node7&#45;&gt;Node27 -->
<g id="edge30" class="edge">
<title>Node7&#45;&gt;Node27</title>
<path fill="none" stroke="#191970" d="M710.3267,-470.4509C695.1829,-451.6054 661.2557,-409.3849 642.0158,-385.4419"/>
<polygon fill="#191970" stroke="#191970" points="644.6462,-383.1276 635.6539,-377.5249 639.1896,-387.5124 644.6462,-383.1276"/>
</g>
<!-- Node28 -->
<g id="node29" class="node">
<title>Node28</title>
<g id="a_node29"><a xlink:href="../../d3/dd6/Sector_8h.html" target="_top" xlink:title="TPCBase/Sector.h">
<polygon fill="none" stroke="#000000" points="687.5,-246.5 687.5,-265.5 788.5,-265.5 788.5,-246.5 687.5,-246.5"/>
<text text-anchor="middle" x="738" y="-253.5" font-family="Helvetica,sans-Serif" font-size="10.00" fill="#000000">TPCBase/Sector.h</text>
</a>
</g>
</g>
<!-- Node7&#45;&gt;Node28 -->
<g id="edge56" class="edge">
<title>Node7&#45;&gt;Node28</title>
<path fill="none" stroke="#191970" d="M664.2495,-477.7618C560.7324,-471.415 349.4647,-447.4206 415,-358 446.2328,-315.3839 592.765,-282.3386 677.3424,-266.4254"/>
<polygon fill="#191970" stroke="#191970" points="678.1444,-269.8364 687.3377,-264.5702 676.8669,-262.9539 678.1444,-269.8364"/>
</g>
<!-- Node30 -->
<g id="node31" class="node">
<title>Node30</title>
<g id="a_node31"><a xlink:href="../../da/d61/PadROCPos_8h.html" target="_top" xlink:title="TPCBase/PadROCPos.h">
<polygon fill="none" stroke="#000000" points="894.5,-358.5 894.5,-377.5 1021.5,-377.5 1021.5,-358.5 894.5,-358.5"/>
<text text-anchor="middle" x="958" y="-365.5" font-family="Helvetica,sans-Serif" font-size="10.00" fill="#000000">TPCBase/PadROCPos.h</text>
</a>
</g>
</g>
<!-- Node7&#45;&gt;Node30 -->
<g id="edge35" class="edge">
<title>Node7&#45;&gt;Node30</title>
<path fill="none" stroke="#191970" d="M761.8268,-470.4994C792.3039,-462.9388 833.3386,-450.823 867,-434 894.1547,-420.4288 921.9065,-398.9834 939.5047,-384.2428"/>
<polygon fill="#191970" stroke="#191970" points="941.9447,-386.7618 947.281,-377.609 937.4016,-381.4363 941.9447,-386.7618"/>
</g>
<!-- Node32 -->
<g id="node33" class="node">
<title>Node32</title>
<g id="a_node33"><a xlink:href="../../d3/d54/DigitPos_8h.html" target="_top" xlink:title="TPCBase/DigitPos.h">
<polygon fill="none" stroke="#000000" points="746,-414.5 746,-433.5 858,-433.5 858,-414.5 746,-414.5"/>
<text text-anchor="middle" x="802" y="-421.5" font-family="Helvetica,sans-Serif" font-size="10.00" fill="#000000">TPCBase/DigitPos.h</text>
</a>
</g>
</g>
<!-- Node7&#45;&gt;Node32 -->
<g id="edge41" class="edge">
<title>Node7&#45;&gt;Node32</title>
<path fill="none" stroke="#191970" d="M732.6317,-470.2455C745.3994,-461.7337 764.1438,-449.2375 778.9299,-439.3801"/>
<polygon fill="#191970" stroke="#191970" points="781.1569,-442.1019 787.536,-433.6427 777.274,-436.2775 781.1569,-442.1019"/>
</g>
<!-- Node34 -->
<g id="node35" class="node">
<title>Node34</title>
<g id="a_node35"><a xlink:href="../../d1/d1f/FECInfo_8h.html" target="_top" xlink:title="TPCBase/FECInfo.h">
<polygon fill="none" stroke="#000000" points="1367,-246.5 1367,-265.5 1475,-265.5 1475,-246.5 1367,-246.5"/>
<text text-anchor="middle" x="1421" y="-253.5" font-family="Helvetica,sans-Serif" font-size="10.00" fill="#000000">TPCBase/FECInfo.h</text>
</a>
</g>
</g>
<!-- Node7&#45;&gt;Node34 -->
<g id="edge49" class="edge">
<title>Node7&#45;&gt;Node34</title>
<path fill="none" stroke="#191970" d="M771.5491,-479.3362C915.8146,-477.1007 1304.8494,-467.956 1351,-434 1402.6297,-396.0126 1416.198,-314.1089 1419.7491,-276.1152"/>
<polygon fill="#191970" stroke="#191970" points="1423.2631,-276.0754 1420.5607,-265.831 1416.2848,-275.5247 1423.2631,-276.0754"/>
</g>
<!-- Node35 -->
<g id="node36" class="node">
<title>Node35</title>
<g id="a_node36"><a xlink:href="../../da/d9d/PadRegionInfo_8h.html" target="_top" xlink:title="TPCBase/PadRegionInfo.h">
<polygon fill="none" stroke="#000000" points="472,-414.5 472,-433.5 612,-433.5 612,-414.5 472,-414.5"/>
<text text-anchor="middle" x="542" y="-421.5" font-family="Helvetica,sans-Serif" font-size="10.00" fill="#000000">TPCBase/PadRegionInfo.h</text>
</a>
</g>
</g>
<!-- Node7&#45;&gt;Node35 -->
<g id="edge51" class="edge">
<title>Node7&#45;&gt;Node35</title>
<path fill="none" stroke="#191970" d="M687.7445,-470.3733C658.3517,-461.021 613.5708,-446.7725 581.4066,-436.5385"/>
<polygon fill="#191970" stroke="#191970" points="582.4512,-433.198 571.8607,-433.5011 580.3287,-439.8685 582.4512,-433.198"/>
</g>
<!-- Node36 -->
<g id="node37" class="node">
<title>Node36</title>
<g id="a_node37"><a xlink:href="../../d6/d42/PartitionInfo_8h.html" target="_top" xlink:title="TPCBase/PartitionInfo.h">
<polygon fill="none" stroke="#000000" points="1154.5,-414.5 1154.5,-433.5 1285.5,-433.5 1285.5,-414.5 1154.5,-414.5"/>
<text text-anchor="middle" x="1220" y="-421.5" font-family="Helvetica,sans-Serif" font-size="10.00" fill="#000000">TPCBase/PartitionInfo.h</text>
</a>
</g>
</g>
<!-- Node7&#45;&gt;Node36 -->
<g id="edge55" class="edge">
<title>Node7&#45;&gt;Node36</title>
<path fill="none" stroke="#191970" d="M771.656,-474.4253C851.8457,-466.0317 1007.6935,-449.4792 1140,-434 1141.2903,-433.849 1142.5922,-433.6959 1143.9031,-433.5409"/>
<polygon fill="#191970" stroke="#191970" points="1144.5754,-436.9855 1154.0888,-432.3225 1143.7439,-430.0351 1144.5754,-436.9855"/>
</g>
<!-- Node12&#45;&gt;Node11 -->
<g id="edge14" class="edge">
<title>Node12&#45;&gt;Node11</title>
<path fill="none" stroke="#191970" d="M818.9121,-190.4369C735.6814,-178.3932 595.8354,-158.1571 531.8298,-148.8953"/>
<polygon fill="#191970" stroke="#191970" points="532.2664,-145.4221 521.8682,-147.4538 531.2638,-152.3499 532.2664,-145.4221"/>
</g>
<!-- Node13 -->
<g id="node14" class="node">
<title>Node13</title>
<g id="a_node14"><a xlink:href="../../d1/da8/GPUROOTCartesianFwd_8h.html" target="_top" xlink:title="GPUROOTCartesianFwd.h">
<polygon fill="none" stroke="#000000" points="737,-134.5 737,-153.5 877,-153.5 877,-134.5 737,-134.5"/>
<text text-anchor="middle" x="807" y="-141.5" font-family="Helvetica,sans-Serif" font-size="10.00" fill="#000000">GPUROOTCartesianFwd.h</text>
</a>
</g>
</g>
<!-- Node12&#45;&gt;Node13 -->
<g id="edge15" class="edge">
<title>Node12&#45;&gt;Node13</title>
<path fill="none" stroke="#191970" d="M871.4134,-190.2455C859.6695,-181.814 842.4801,-169.4729 828.8118,-159.6598"/>
<polygon fill="#191970" stroke="#191970" points="830.5954,-156.6316 820.4309,-153.6427 826.5129,-162.3179 830.5954,-156.6316"/>
</g>
<!-- Node12&#45;&gt;Node14 -->
<g id="edge16" class="edge">
<title>Node12&#45;&gt;Node14</title>
<path fill="none" stroke="#191970" d="M841.105,-190.484C742.5948,-169.128 504.1717,-117.4404 396.8896,-94.1827"/>
<polygon fill="#191970" stroke="#191970" points="397.4405,-90.7209 386.9259,-92.0227 395.9573,-97.562 397.4405,-90.7209"/>
</g>
<!-- Node12&#45;&gt;Node17 -->
<g id="edge19" class="edge">
<title>Node12&#45;&gt;Node17</title>
<path fill="none" stroke="#191970" d="M898.5866,-190.2455C910.3305,-181.814 927.5199,-169.4729 941.1882,-159.6598"/>
<polygon fill="#191970" stroke="#191970" points="943.4871,-162.3179 949.5691,-153.6427 939.4046,-156.6316 943.4871,-162.3179"/>
</g>
<!-- Node15 -->
<g id="node16" class="node">
<title>Node15</title>
<polygon fill="none" stroke="#bfbfbf" points="164,-.5 164,-30.5 328,-30.5 328,-.5 164,-.5"/>
<text text-anchor="start" x="172" y="-18.5" font-family="Helvetica,sans-Serif" font-size="10.00" fill="#000000">Math/GenVector/Displacement</text>
<text text-anchor="middle" x="246" y="-7.5" font-family="Helvetica,sans-Serif" font-size="10.00" fill="#000000">Vector2D.h</text>
</g>
<!-- Node14&#45;&gt;Node15 -->
<g id="edge17" class="edge">
<title>Node14&#45;&gt;Node15</title>
<path fill="none" stroke="#191970" d="M329.1023,-72.9005C315.3265,-63.3853 293.7795,-48.5023 276.0779,-36.2755"/>
<polygon fill="#191970" stroke="#191970" points="277.9651,-33.3253 267.7479,-30.5218 273.9868,-39.0849 277.9651,-33.3253"/>
</g>
<!-- Node16 -->
<g id="node17" class="node">
<title>Node16</title>
<polygon fill="none" stroke="#bfbfbf" points="346.5,-6 346.5,-25 535.5,-25 535.5,-6 346.5,-6"/>
<text text-anchor="middle" x="441" y="-13" font-family="Helvetica,sans-Serif" font-size="10.00" fill="#000000">Math/GenVector/PositionVector2D.h</text>
</g>
<!-- Node14&#45;&gt;Node16 -->
<g id="edge18" class="edge">
<title>Node14&#45;&gt;Node16</title>
<path fill="none" stroke="#191970" d="M357.041,-72.9005C373.1238,-61.9052 399.6906,-43.7422 418.6316,-30.7927"/>
<polygon fill="#191970" stroke="#191970" points="420.7052,-33.6148 426.985,-25.0817 416.7545,-27.8362 420.7052,-33.6148"/>
</g>
<!-- Node17&#45;&gt;Node14 -->
<g id="edge28" class="edge">
<title>Node17&#45;&gt;Node14</title>
<path fill="none" stroke="#191970" d="M895.4172,-135.0202C892.2354,-134.6612 889.084,-134.3189 886,-134 678.9328,-112.5877 625.1618,-126.8555 419,-98 411.2172,-96.9107 403.0332,-95.5125 395.0353,-94.0029"/>
<polygon fill="#191970" stroke="#191970" points="395.535,-90.5343 385.0486,-92.046 394.1889,-97.4037 395.535,-90.5343"/>
</g>
<!-- Node18 -->
<g id="node19" class="node">
<title>Node18</title>
<polygon fill="none" stroke="#bfbfbf" points="797,-67.5 797,-97.5 961,-97.5 961,-67.5 797,-67.5"/>
<text text-anchor="start" x="805" y="-85.5" font-family="Helvetica,sans-Serif" font-size="10.00" fill="#000000">Math/GenVector/Displacement</text>
<text text-anchor="middle" x="879" y="-74.5" font-family="Helvetica,sans-Serif" font-size="10.00" fill="#000000">Vector3D.h</text>
</g>
<!-- Node17&#45;&gt;Node18 -->
<g id="edge20" class="edge">
<title>Node17&#45;&gt;Node18</title>
<path fill="none" stroke="#191970" d="M949.875,-134.3906C938.6119,-126.1444 921.9791,-113.9669 907.6566,-103.4807"/>
<polygon fill="#191970" stroke="#191970" points="909.685,-100.628 899.5487,-97.5446 905.5498,-106.276 909.685,-100.628"/>
</g>
<!-- Node19 -->
<g id="node20" class="node">
<title>Node19</title>
<polygon fill="none" stroke="#bfbfbf" points="979.5,-73 979.5,-92 1168.5,-92 1168.5,-73 979.5,-73"/>
<text text-anchor="middle" x="1074" y="-80" font-family="Helvetica,sans-Serif" font-size="10.00" fill="#000000">Math/GenVector/PositionVector3D.h</text>
</g>
<!-- Node17&#45;&gt;Node19 -->
<g id="edge21" class="edge">
<title>Node17&#45;&gt;Node19</title>
<path fill="none" stroke="#191970" d="M980.3438,-134.3906C998.4273,-124.3713 1026.9859,-108.5483 1047.8165,-97.0071"/>
<polygon fill="#191970" stroke="#191970" points="1049.7271,-99.9498 1056.778,-92.0419 1046.3346,-93.8268 1049.7271,-99.9498"/>
</g>
<!-- Node20 -->
<g id="node21" class="node">
<title>Node20</title>
<polygon fill="none" stroke="#bfbfbf" points="1187,-73 1187,-92 1347,-92 1347,-73 1187,-73"/>
<text text-anchor="middle" x="1267" y="-80" font-family="Helvetica,sans-Serif" font-size="10.00" fill="#000000">Math/GenVector/Rotation3D.h</text>
</g>
<!-- Node17&#45;&gt;Node20 -->
<g id="edge22" class="edge">
<title>Node17&#45;&gt;Node20</title>
<path fill="none" stroke="#191970" d="M1010.1665,-134.4581C1063.9723,-123.573 1151.9491,-105.7751 1209.6676,-94.0985"/>
<polygon fill="#191970" stroke="#191970" points="1210.6155,-97.4777 1219.7229,-92.0643 1209.2274,-90.6167 1210.6155,-97.4777"/>
</g>
<!-- Node21 -->
<g id="node22" class="node">
<title>Node21</title>
<polygon fill="none" stroke="#bfbfbf" points="1365,-73 1365,-92 1533,-92 1533,-73 1365,-73"/>
<text text-anchor="middle" x="1449" y="-80" font-family="Helvetica,sans-Serif" font-size="10.00" fill="#000000">Math/GenVector/Transform3D.h</text>
</g>
<!-- Node17&#45;&gt;Node21 -->
<g id="edge23" class="edge">
<title>Node17&#45;&gt;Node21</title>
<path fill="none" stroke="#191970" d="M1030.5836,-137.0993C1108.9866,-128.8599 1242.0752,-114.1513 1356,-98 1365.2618,-96.6869 1375.023,-95.1877 1384.5991,-93.6508"/>
<polygon fill="#191970" stroke="#191970" points="1385.1751,-97.1032 1394.4828,-92.0419 1384.0503,-90.1942 1385.1751,-97.1032"/>
</g>
<!-- Node22 -->
<g id="node23" class="node">
<title>Node22</title>
<polygon fill="none" stroke="#bfbfbf" points="428.5,-73 428.5,-92 601.5,-92 601.5,-73 428.5,-73"/>
<text text-anchor="middle" x="515" y="-80" font-family="Helvetica,sans-Serif" font-size="10.00" fill="#000000">Math/GenVector/Translation3D.h</text>
</g>
<!-- Node17&#45;&gt;Node22 -->
<g id="edge24" class="edge">
<title>Node17&#45;&gt;Node22</title>
<path fill="none" stroke="#191970" d="M895.2453,-135.1991C796.9329,-122.4212 624.8738,-100.0261 611,-98 601.6392,-96.633 591.7767,-95.1218 582.0808,-93.595"/>
<polygon fill="#191970" stroke="#191970" points="582.4902,-90.1162 572.0649,-92.0037 581.3918,-97.0295 582.4902,-90.1162"/>
</g>
<!-- Node23 -->
<g id="node24" class="node">
<title>Node23</title>
<polygon fill="none" stroke="#bfbfbf" points="619.5,-73 619.5,-92 678.5,-92 678.5,-73 619.5,-73"/>
<text text-anchor="middle" x="649" y="-80" font-family="Helvetica,sans-Serif" font-size="10.00" fill="#000000">Rtypes.h</text>
</g>
<!-- Node17&#45;&gt;Node23 -->
<g id="edge25" class="edge">
<title>Node17&#45;&gt;Node23</title>
<path fill="none" stroke="#191970" d="M896.165,-134.4873C827.7186,-124.4468 726.1172,-108.632 688,-98 685.3923,-97.2726 682.7201,-96.4299 680.0569,-95.5206"/>
<polygon fill="#191970" stroke="#191970" points="681.1767,-92.2032 670.5834,-92.0232 678.7524,-98.77 681.1767,-92.2032"/>
</g>
<!-- Node24 -->
<g id="node25" class="node">
<title>Node24</title>
<polygon fill="none" stroke="#bfbfbf" points="697,-73 697,-92 779,-92 779,-73 697,-73"/>
<text text-anchor="middle" x="738" y="-80" font-family="Helvetica,sans-Serif" font-size="10.00" fill="#000000">TGeoMatrix.h</text>
</g>
<!-- Node17&#45;&gt;Node24 -->
<g id="edge26" class="edge">
<title>Node17&#45;&gt;Node24</title>
<path fill="none" stroke="#191970" d="M924.6341,-134.4273C889.0907,-125.4376 834.8112,-111.4012 788,-98 784.6662,-97.0456 781.2155,-96.0314 777.7567,-94.9964"/>
<polygon fill="#191970" stroke="#191970" points="778.6638,-91.614 768.0782,-92.0568 776.6294,-98.3119 778.6638,-91.614"/>
</g>
<!-- Node25 -->
<g id="node26" class="node">
<title>Node25</title>
<polygon fill="none" stroke="#bfbfbf" points="1550.5,-73 1550.5,-92 1599.5,-92 1599.5,-73 1550.5,-73"/>
<text text-anchor="middle" x="1575" y="-80" font-family="Helvetica,sans-Serif" font-size="10.00" fill="#000000">iosfwd</text>
</g>
<!-- Node17&#45;&gt;Node25 -->
<g id="edge27" class="edge">
<title>Node17&#45;&gt;Node25</title>
<path fill="none" stroke="#191970" d="M1030.5268,-141.6726C1161.8664,-136.6468 1447.1503,-123.1505 1542,-98 1543.9731,-97.4768 1545.9728,-96.8394 1547.9611,-96.125"/>
<polygon fill="#191970" stroke="#191970" points="1549.7553,-99.1685 1557.6312,-92.0818 1547.055,-92.7102 1549.7553,-99.1685"/>
</g>
<!-- Node27&#45;&gt;Node26 -->
<g id="edge34" class="edge">
<title>Node27&#45;&gt;Node26</title>
<path fill="none" stroke="#191970" d="M642.1091,-358.2455C654.4209,-349.7337 672.4958,-337.2375 686.7538,-327.3801"/>
<polygon fill="#191970" stroke="#191970" points="688.8174,-330.2085 695.0526,-321.6427 684.8366,-324.4506 688.8174,-330.2085"/>
</g>
<!-- Node27&#45;&gt;Node28 -->
<g id="edge31" class="edge">
<title>Node27&#45;&gt;Node28</title>
<path fill="none" stroke="#191970" d="M628.4105,-358.3742C629.48,-344.4453 633.3129,-318.532 647,-302 659.2681,-287.1819 677.5188,-276.6552 694.4621,-269.4467"/>
<polygon fill="#191970" stroke="#191970" points="696.2226,-272.514 704.2319,-265.5785 693.6457,-266.0056 696.2226,-272.514"/>
</g>
<!-- Node28&#45;&gt;Node12 -->
<g id="edge33" class="edge">
<title>Node28&#45;&gt;Node12</title>
<path fill="none" stroke="#191970" d="M763.2702,-246.3733C787.3966,-237.1822 823.9362,-223.2624 850.6877,-213.0713"/>
<polygon fill="#191970" stroke="#191970" points="851.9607,-216.3318 860.0596,-209.5011 849.4687,-209.7904 851.9607,-216.3318"/>
</g>
<!-- Node29 -->
<g id="node30" class="node">
<title>Node29</title>
<g id="a_node30"><a xlink:href="../../d0/dda/DataFormats_2Detectors_2TPC_2include_2DataFormatsTPC_2Constants_8h.html" target="_top" xlink:title="DataFormatsTPC/Constants.h">
<polygon fill="none" stroke="#000000" points="641.5,-190.5 641.5,-209.5 800.5,-209.5 800.5,-190.5 641.5,-190.5"/>
<text text-anchor="middle" x="721" y="-197.5" font-family="Helvetica,sans-Serif" font-size="10.00" fill="#000000">DataFormatsTPC/Constants.h</text>
</a>
</g>
</g>
<!-- Node28&#45;&gt;Node29 -->
<g id="edge32" class="edge">
<title>Node28&#45;&gt;Node29</title>
<path fill="none" stroke="#191970" d="M735.0388,-246.2455C732.7962,-238.8579 729.6423,-228.4689 726.8919,-219.4087"/>
<polygon fill="#191970" stroke="#191970" points="730.1812,-218.1948 723.9272,-209.6427 723.483,-220.2282 730.1812,-218.1948"/>
</g>
<!-- Node30&#45;&gt;Node12 -->
<g id="edge36" class="edge">
<title>Node30&#45;&gt;Node12</title>
<path fill="none" stroke="#191970" d="M959.5982,-358.3107C961.377,-345.181 963.2469,-321.1772 957,-302 946.0055,-268.2483 919.6131,-235.9379 902.0225,-217.0369"/>
<polygon fill="#191970" stroke="#191970" points="904.3134,-214.3687 894.8699,-209.5656 899.257,-219.2094 904.3134,-214.3687"/>
</g>
<!-- Node30&#45;&gt;Node26 -->
<g id="edge40" class="edge">
<title>Node30&#45;&gt;Node26</title>
<path fill="none" stroke="#191970" d="M915.4783,-358.4369C872.8639,-348.8529 807.1824,-334.0812 761.379,-323.78"/>
<polygon fill="#191970" stroke="#191970" points="761.8706,-320.3032 751.3463,-321.5237 760.3346,-327.1326 761.8706,-320.3032"/>
</g>
<!-- Node31 -->
<g id="node32" class="node">
<title>Node31</title>
<g id="a_node32"><a xlink:href="../../dc/d14/ROC_8h.html" target="_top" xlink:title="TPCBase/ROC.h">
<polygon fill="none" stroke="#000000" points="856,-302.5 856,-321.5 948,-321.5 948,-302.5 856,-302.5"/>
<text text-anchor="middle" x="902" y="-309.5" font-family="Helvetica,sans-Serif" font-size="10.00" fill="#000000">TPCBase/ROC.h</text>
</a>
</g>
</g>
<!-- Node30&#45;&gt;Node31 -->
<g id="edge37" class="edge">
<title>Node30&#45;&gt;Node31</title>
<path fill="none" stroke="#191970" d="M948.2455,-358.2455C940.1352,-350.1352 928.4075,-338.4075 918.7919,-328.7919"/>
<polygon fill="#191970" stroke="#191970" points="921.1887,-326.2389 911.6427,-321.6427 916.2389,-331.1887 921.1887,-326.2389"/>
</g>
<!-- Node31&#45;&gt;Node12 -->
<g id="edge38" class="edge">
<title>Node31&#45;&gt;Node12</title>
<path fill="none" stroke="#191970" d="M900.5506,-302.4509C897.7779,-284.184 891.6718,-243.9553 887.9898,-219.6976"/>
<polygon fill="#191970" stroke="#191970" points="891.4069,-218.8864 886.4457,-209.5249 884.4861,-219.9369 891.4069,-218.8864"/>
</g>
<!-- Node31&#45;&gt;Node28 -->
<g id="edge39" class="edge">
<title>Node31&#45;&gt;Node28</title>
<path fill="none" stroke="#191970" d="M873.8074,-302.3733C846.6547,-293.1016 805.4093,-279.0178 775.4975,-268.804"/>
<polygon fill="#191970" stroke="#191970" points="776.4192,-265.4204 765.8247,-265.5011 774.1572,-272.0449 776.4192,-265.4204"/>
</g>
<!-- Node32&#45;&gt;Node12 -->
<g id="edge42" class="edge">
<title>Node32&#45;&gt;Node12</title>
<path fill="none" stroke="#191970" d="M858.0094,-420.6844C918.6299,-415.7888 1009.544,-404.1945 1031,-378 1080.7982,-317.204 967.9705,-244.7919 912.9547,-214.4727"/>
<polygon fill="#191970" stroke="#191970" points="914.4904,-211.3242 904.0296,-209.6437 911.1592,-217.4808 914.4904,-211.3242"/>
</g>
<!-- Node32&#45;&gt;Node26 -->
<g id="edge47" class="edge">
<title>Node32&#45;&gt;Node26</title>
<path fill="none" stroke="#191970" d="M794.0709,-414.4509C778.4223,-395.6054 743.3642,-353.3849 723.483,-329.4419"/>
<polygon fill="#191970" stroke="#191970" points="725.9901,-326.9824 716.9091,-321.5249 720.6047,-331.4543 725.9901,-326.9824"/>
</g>
<!-- Node32&#45;&gt;Node27 -->
<g id="edge48" class="edge">
<title>Node32&#45;&gt;Node27</title>
<path fill="none" stroke="#191970" d="M772.0883,-414.3733C743.1548,-405.0613 699.1389,-390.8953 667.3707,-380.671"/>
<polygon fill="#191970" stroke="#191970" points="668.1128,-377.2331 657.5213,-377.5011 665.9682,-383.8965 668.1128,-377.2331"/>
</g>
<!-- Node33 -->
<g id="node34" class="node">
<title>Node33</title>
<g id="a_node34"><a xlink:href="../../df/d26/CRU_8h.html" target="_top" xlink:title="TPCBase/CRU.h">
<polygon fill="none" stroke="#000000" points="784,-358.5 784,-377.5 876,-377.5 876,-358.5 784,-358.5"/>
<text text-anchor="middle" x="830" y="-365.5" font-family="Helvetica,sans-Serif" font-size="10.00" fill="#000000">TPCBase/CRU.h</text>
</a>
</g>
</g>
<!-- Node32&#45;&gt;Node33 -->
<g id="edge43" class="edge">
<title>Node32&#45;&gt;Node33</title>
<path fill="none" stroke="#191970" d="M806.8772,-414.2455C810.6513,-406.6973 815.9921,-396.0158 820.5901,-386.8197"/>
<polygon fill="#191970" stroke="#191970" points="823.837,-388.1522 825.1787,-377.6427 817.576,-385.0217 823.837,-388.1522"/>
</g>
<!-- Node33&#45;&gt;Node12 -->
<g id="edge44" class="edge">
<title>Node33&#45;&gt;Node12</title>
<path fill="none" stroke="#191970" d="M832.2161,-358.0691C835.1938,-345.0735 840.8301,-321.642 847,-302 856.211,-272.6765 869.0569,-239.4404 877.2007,-219.1002"/>
<polygon fill="#191970" stroke="#191970" points="880.4863,-220.3112 880.9866,-209.7282 873.9958,-217.6893 880.4863,-220.3112"/>
</g>
<!-- Node33&#45;&gt;Node28 -->
<g id="edge45" class="edge">
<title>Node33&#45;&gt;Node28</title>
<path fill="none" stroke="#191970" d="M822.1561,-358.4509C806.6758,-339.6054 771.9947,-297.3849 752.3273,-273.4419"/>
<polygon fill="#191970" stroke="#191970" points="754.876,-271.0306 745.824,-265.5249 749.4669,-275.4738 754.876,-271.0306"/>
</g>
<!-- Node33&#45;&gt;Node31 -->
<g id="edge46" class="edge">
<title>Node33&#45;&gt;Node31</title>
<path fill="none" stroke="#191970" d="M842.5414,-358.2455C853.2787,-349.8943 868.9473,-337.7076 881.5047,-327.9408"/>
<polygon fill="#191970" stroke="#191970" points="883.8575,-330.5449 889.6023,-321.6427 879.5599,-325.0194 883.8575,-330.5449"/>
</g>
<!-- Node34&#45;&gt;Node25 -->
<g id="edge50" class="edge">
<title>Node34&#45;&gt;Node25</title>
<path fill="none" stroke="#191970" d="M1429.4991,-246.4248C1454.3671,-218.4079 1527.2545,-136.2912 1559.4297,-100.0418"/>
<polygon fill="#191970" stroke="#191970" points="1562.3167,-102.0618 1566.3374,-92.2595 1557.0814,-97.415 1562.3167,-102.0618"/>
</g>
<!-- Node35&#45;&gt;Node9 -->
<g id="edge52" class="edge">
<title>Node35&#45;&gt;Node9</title>
<path fill="none" stroke="#191970" d="M525.6264,-414.2455C511.0692,-405.5731 489.569,-392.7645 472.8848,-382.825"/>
<polygon fill="#191970" stroke="#191970" points="474.5683,-379.7539 464.1859,-377.6427 470.9856,-385.7676 474.5683,-379.7539"/>
</g>
<!-- Node35&#45;&gt;Node12 -->
<g id="edge53" class="edge">
<title>Node35&#45;&gt;Node12</title>
<path fill="none" stroke="#191970" d="M539.7585,-414.4715C537.1265,-401.109 534.1549,-376.3807 543,-358 576.9541,-287.4417 608.6398,-280.3627 679,-246 703.3098,-234.1275 768.1083,-220.6475 818.6018,-211.3641"/>
<polygon fill="#191970" stroke="#191970" points="819.2813,-214.798 828.4936,-209.5651 818.0287,-207.911 819.2813,-214.798"/>
</g>
<!-- Node35&#45;&gt;Node26 -->
<g id="edge54" class="edge">
<title>Node35&#45;&gt;Node26</title>
<path fill="none" stroke="#191970" d="M541.5419,-414.084C541.4412,-399.7936 543.4339,-373.4344 558,-358 570.8517,-344.3822 613.009,-332.1955 649.5234,-323.7922"/>
<polygon fill="#191970" stroke="#191970" points="650.651,-327.1264 659.6436,-321.5244 649.1202,-320.2958 650.651,-327.1264"/>
</g>
</g>
</svg>
