<?xml version="1.0" encoding="UTF-8" standalone="no"?>
<!DOCTYPE svg PUBLIC "-//W3C//DTD SVG 1.1//EN"
 "http://www.w3.org/Graphics/SVG/1.1/DTD/svg11.dtd">
<!-- Generated by graphviz version 2.40.1 (20161225.0304)
 -->
<!-- Title: /home/travis/build/AliceO2Group/AliceO2/Framework/Core/include/Framework/ASoA.h Pages: 1 -->
<svg width="2932pt" height="486pt"
 viewBox="0.00 0.00 2932.00 486.00" xmlns="http://www.w3.org/2000/svg" xmlns:xlink="http://www.w3.org/1999/xlink">
<g id="graph0" class="graph" transform="scale(1 1) rotate(0) translate(4 482)">
<title>/home/travis/build/AliceO2Group/AliceO2/Framework/Core/include/Framework/ASoA.h</title>
<!-- Node0 -->
<g id="node1" class="node">
<title>Node0</title>
<polygon fill="#bfbfbf" stroke="#000000" points="2226,-425.5 2226,-477.5 2363,-477.5 2363,-425.5 2226,-425.5"/>
<text text-anchor="start" x="2234" y="-465.5" font-family="Helvetica,sans-Serif" font-size="10.00" fill="#000000">/home/travis/build</text>
<text text-anchor="start" x="2234" y="-454.5" font-family="Helvetica,sans-Serif" font-size="10.00" fill="#000000">/AliceO2Group/AliceO2</text>
<text text-anchor="start" x="2234" y="-443.5" font-family="Helvetica,sans-Serif" font-size="10.00" fill="#000000">/Framework/Core/include</text>
<text text-anchor="middle" x="2294.5" y="-432.5" font-family="Helvetica,sans-Serif" font-size="10.00" fill="#000000">/Framework/ASoA.h</text>
</g>
<!-- Node1 -->
<g id="node2" class="node">
<title>Node1</title>
<g id="a_node2"><a xlink:href="../../dd/dce/Pack_8h.html" target="_top" xlink:title="Framework/Pack.h">
<polygon fill="none" stroke="#000000" points="83,-313.5 83,-332.5 188,-332.5 188,-313.5 83,-313.5"/>
<text text-anchor="middle" x="135.5" y="-320.5" font-family="Helvetica,sans-Serif" font-size="10.00" fill="#000000">Framework/Pack.h</text>
</a>
</g>
</g>
<!-- Node0&#45;&gt;Node1 -->
<g id="edge1" class="edge">
<title>Node0&#45;&gt;Node1</title>
<path fill="none" stroke="#191970" d="M2225.8242,-450.2778C2008.0071,-446.072 1313.1804,-430.1248 739.5,-389 501.2511,-371.9209 439.267,-364.9299 198.3573,-333.0551"/>
<polygon fill="#191970" stroke="#191970" points="198.608,-329.5579 188.2352,-331.7152 197.6893,-336.4973 198.608,-329.5579"/>
</g>
<!-- Node5 -->
<g id="node6" class="node">
<title>Node5</title>
<g id="a_node6"><a xlink:href="../../d1/d00/CheckTypes_8h.html" target="_top" xlink:title="Framework/CheckTypes.h">
<polygon fill="none" stroke="#000000" points="206.5,-313.5 206.5,-332.5 346.5,-332.5 346.5,-313.5 206.5,-313.5"/>
<text text-anchor="middle" x="276.5" y="-320.5" font-family="Helvetica,sans-Serif" font-size="10.00" fill="#000000">Framework/CheckTypes.h</text>
</a>
</g>
</g>
<!-- Node0&#45;&gt;Node5 -->
<g id="edge5" class="edge">
<title>Node0&#45;&gt;Node5</title>
<path fill="none" stroke="#191970" d="M2225.6918,-448.9787C2034.3462,-441.7835 1479.7252,-419.6776 1019.5,-389 727.3156,-369.5236 651.7163,-364.1669 356.8272,-333.1081"/>
<polygon fill="#191970" stroke="#191970" points="357.0055,-329.6076 346.6936,-332.0398 356.2715,-336.569 357.0055,-329.6076"/>
</g>
<!-- Node6 -->
<g id="node7" class="node">
<title>Node6</title>
<g id="a_node7"><a xlink:href="../../de/d9b/FunctionalHelpers_8h.html" target="_top" xlink:title="Framework/FunctionalHelpers.h">
<polygon fill="none" stroke="#000000" points="50.5,-369.5 50.5,-388.5 220.5,-388.5 220.5,-369.5 50.5,-369.5"/>
<text text-anchor="middle" x="135.5" y="-376.5" font-family="Helvetica,sans-Serif" font-size="10.00" fill="#000000">Framework/FunctionalHelpers.h</text>
</a>
</g>
</g>
<!-- Node0&#45;&gt;Node6 -->
<g id="edge6" class="edge">
<title>Node0&#45;&gt;Node6</title>
<path fill="none" stroke="#191970" d="M2225.6866,-449.631C1974.8162,-442.7436 1085.6259,-417.6881 352.5,-389 312.5446,-387.4365 268.4632,-385.4528 230.527,-383.6651"/>
<polygon fill="#191970" stroke="#191970" points="230.6658,-380.1679 220.5114,-383.191 230.3347,-387.16 230.6658,-380.1679"/>
</g>
<!-- Node8 -->
<g id="node9" class="node">
<title>Node8</title>
<g id="a_node9"><a xlink:href="../../d9/de8/CompilerBuiltins_8h.html" target="_top" xlink:title="Framework/CompilerBuiltins.h">
<polygon fill="none" stroke="#000000" points="364.5,-313.5 364.5,-332.5 528.5,-332.5 528.5,-313.5 364.5,-313.5"/>
<text text-anchor="middle" x="446.5" y="-320.5" font-family="Helvetica,sans-Serif" font-size="10.00" fill="#000000">Framework/CompilerBuiltins.h</text>
</a>
</g>
</g>
<!-- Node0&#45;&gt;Node8 -->
<g id="edge9" class="edge">
<title>Node0&#45;&gt;Node8</title>
<path fill="none" stroke="#191970" d="M2225.9575,-447.9479C1991.046,-435.543 1196.8496,-391.6946 542.5,-333 541.2326,-332.8863 539.9559,-332.7706 538.6717,-332.653"/>
<polygon fill="#191970" stroke="#191970" points="538.987,-329.1673 528.7041,-331.7194 538.3341,-336.1368 538.987,-329.1673"/>
</g>
<!-- Node9 -->
<g id="node10" class="node">
<title>Node9</title>
<g id="a_node10"><a xlink:href="../../db/d31/Traits_8h.html" target="_top" xlink:title="Framework/Traits.h">
<polygon fill="none" stroke="#000000" points="2248,-185 2248,-204 2357,-204 2357,-185 2248,-185"/>
<text text-anchor="middle" x="2302.5" y="-192" font-family="Helvetica,sans-Serif" font-size="10.00" fill="#000000">Framework/Traits.h</text>
</a>
</g>
</g>
<!-- Node0&#45;&gt;Node9 -->
<g id="edge10" class="edge">
<title>Node0&#45;&gt;Node9</title>
<path fill="none" stroke="#191970" d="M2363.1835,-441.5032C2395.9507,-433.0722 2432.6791,-417.5516 2454.5,-389 2469.6997,-369.1119 2459.1648,-357.9957 2460.5,-333 2460.9742,-324.1238 2464.4752,-320.9505 2460.5,-313 2434.5601,-261.1203 2373.9111,-226.0611 2335.751,-208.246"/>
<polygon fill="#191970" stroke="#191970" points="2337.1221,-205.0248 2326.5687,-204.0885 2334.2348,-211.4016 2337.1221,-205.0248"/>
</g>
<!-- Node11 -->
<g id="node12" class="node">
<title>Node11</title>
<g id="a_node12"><a xlink:href="../../d0/d91/Expressions_8h.html" target="_top" xlink:title="Framework/Expressions.h">
<polygon fill="none" stroke="#000000" points="1296,-369.5 1296,-388.5 1437,-388.5 1437,-369.5 1296,-369.5"/>
<text text-anchor="middle" x="1366.5" y="-376.5" font-family="Helvetica,sans-Serif" font-size="10.00" fill="#000000">Framework/Expressions.h</text>
</a>
</g>
</g>
<!-- Node0&#45;&gt;Node11 -->
<g id="edge12" class="edge">
<title>Node0&#45;&gt;Node11</title>
<path fill="none" stroke="#191970" d="M2225.8851,-446.1395C2058.0628,-433.0283 1627.4823,-399.3892 1447.4885,-385.3272"/>
<polygon fill="#191970" stroke="#191970" points="1447.5353,-381.8203 1437.2931,-384.5307 1446.9901,-388.799 1447.5353,-381.8203"/>
</g>
<!-- Node16 -->
<g id="node17" class="node">
<title>Node16</title>
<g id="a_node17"><a xlink:href="../../d1/d76/RuntimeError_8h.html" target="_top" xlink:title="Framework/RuntimeError.h">
<polygon fill="none" stroke="#000000" points="1954.5,-.5 1954.5,-19.5 2100.5,-19.5 2100.5,-.5 1954.5,-.5"/>
<text text-anchor="middle" x="2027.5" y="-7.5" font-family="Helvetica,sans-Serif" font-size="10.00" fill="#000000">Framework/RuntimeError.h</text>
</a>
</g>
</g>
<!-- Node0&#45;&gt;Node16 -->
<g id="edge68" class="edge">
<title>Node0&#45;&gt;Node16</title>
<path fill="none" stroke="#191970" d="M2363.2002,-444.3002C2434.746,-432.5531 2536.5,-401.9654 2536.5,-323 2536.5,-323 2536.5,-323 2536.5,-127.5 2536.5,-41.2031 2255.2127,-18.2768 2110.8499,-12.1931"/>
<polygon fill="#191970" stroke="#191970" points="2110.8311,-8.6896 2100.6981,-11.7836 2110.5489,-15.684 2110.8311,-8.6896"/>
</g>
<!-- Node32 -->
<g id="node33" class="node">
<title>Node32</title>
<polygon fill="none" stroke="#bfbfbf" points="1845.5,-252 1845.5,-271 1897.5,-271 1897.5,-252 1845.5,-252"/>
<text text-anchor="middle" x="1871.5" y="-259" font-family="Helvetica,sans-Serif" font-size="10.00" fill="#000000">cassert</text>
</g>
<!-- Node0&#45;&gt;Node32 -->
<g id="edge74" class="edge">
<title>Node0&#45;&gt;Node32</title>
<path fill="none" stroke="#191970" d="M2363.2502,-436.2748C2389.5404,-426.9674 2417.3077,-412.2053 2434.5,-389 2454.6929,-361.7445 2464.381,-338.0415 2441.5,-313 2405.4731,-273.5712 2027.8806,-264.0453 1907.8883,-262.0056"/>
<polygon fill="#191970" stroke="#191970" points="1907.7998,-258.5038 1897.7442,-261.8408 1907.686,-265.5029 1907.7998,-258.5038"/>
</g>
<!-- Node40 -->
<g id="node41" class="node">
<title>Node40</title>
<polygon fill="none" stroke="#bfbfbf" points="2067,-313.5 2067,-332.5 2148,-332.5 2148,-313.5 2067,-313.5"/>
<text text-anchor="middle" x="2107.5" y="-320.5" font-family="Helvetica,sans-Serif" font-size="10.00" fill="#000000">arrow/table.h</text>
</g>
<!-- Node0&#45;&gt;Node40 -->
<g id="edge69" class="edge">
<title>Node0&#45;&gt;Node40</title>
<path fill="none" stroke="#191970" d="M2256.6578,-425.4961C2218.5812,-399.3312 2161.1424,-359.8613 2129.8155,-338.3345"/>
<polygon fill="#191970" stroke="#191970" points="2131.5694,-335.293 2121.3455,-332.5142 2127.605,-341.0622 2131.5694,-335.293"/>
</g>
<!-- Node41 -->
<g id="node42" class="node">
<title>Node41</title>
<polygon fill="none" stroke="#bfbfbf" points="2166,-313.5 2166,-332.5 2313,-332.5 2313,-313.5 2166,-313.5"/>
<text text-anchor="middle" x="2239.5" y="-320.5" font-family="Helvetica,sans-Serif" font-size="10.00" fill="#000000">gandiva/selection_vector.h</text>
</g>
<!-- Node0&#45;&gt;Node41 -->
<g id="edge73" class="edge">
<title>Node0&#45;&gt;Node41</title>
<path fill="none" stroke="#191970" d="M2283.3699,-425.4961C2272.7477,-400.6787 2257.0022,-363.8915 2247.5463,-341.799"/>
<polygon fill="#191970" stroke="#191970" points="2250.7248,-340.3302 2243.5722,-332.5142 2244.2895,-343.0847 2250.7248,-340.3302"/>
</g>
<!-- Node46 -->
<g id="node47" class="node">
<title>Node46</title>
<g id="a_node47"><a xlink:href="../../d4/de7/ArrowTypes_8h.html" target="_top" xlink:title="Framework/ArrowTypes.h">
<polygon fill="none" stroke="#000000" points="2286,-369.5 2286,-388.5 2425,-388.5 2425,-369.5 2286,-369.5"/>
<text text-anchor="middle" x="2355.5" y="-376.5" font-family="Helvetica,sans-Serif" font-size="10.00" fill="#000000">Framework/ArrowTypes.h</text>
</a>
</g>
</g>
<!-- Node0&#45;&gt;Node46 -->
<g id="edge66" class="edge">
<title>Node0&#45;&gt;Node46</title>
<path fill="none" stroke="#191970" d="M2316.5224,-425.3258C2324.6104,-415.7131 2333.5623,-405.0735 2340.8453,-396.4174"/>
<polygon fill="#191970" stroke="#191970" points="2343.7183,-398.4392 2347.4783,-388.534 2338.362,-393.9325 2343.7183,-398.4392"/>
</g>
<!-- Node47 -->
<g id="node48" class="node">
<title>Node47</title>
<polygon fill="none" stroke="#bfbfbf" points="2564.5,-369.5 2564.5,-388.5 2644.5,-388.5 2644.5,-369.5 2564.5,-369.5"/>
<text text-anchor="middle" x="2604.5" y="-376.5" font-family="Helvetica,sans-Serif" font-size="10.00" fill="#000000">arrow/array.h</text>
</g>
<!-- Node0&#45;&gt;Node47 -->
<g id="edge70" class="edge">
<title>Node0&#45;&gt;Node47</title>
<path fill="none" stroke="#191970" d="M2363.299,-435.4099C2421.1598,-421.878 2502.5188,-402.8504 2554.3776,-390.7222"/>
<polygon fill="#191970" stroke="#191970" points="2555.4001,-394.0776 2564.3403,-388.3922 2553.806,-387.2615 2555.4001,-394.0776"/>
</g>
<!-- Node48 -->
<g id="node49" class="node">
<title>Node48</title>
<polygon fill="none" stroke="#bfbfbf" points="2662.5,-369.5 2662.5,-388.5 2772.5,-388.5 2772.5,-369.5 2662.5,-369.5"/>
<text text-anchor="middle" x="2717.5" y="-376.5" font-family="Helvetica,sans-Serif" font-size="10.00" fill="#000000">arrow/util/variant.h</text>
</g>
<!-- Node0&#45;&gt;Node48 -->
<g id="edge71" class="edge">
<title>Node0&#45;&gt;Node48</title>
<path fill="none" stroke="#191970" d="M2363.4037,-439.6903C2443.2762,-426.0005 2573.9357,-403.6062 2652.2289,-390.1871"/>
<polygon fill="#191970" stroke="#191970" points="2653.1835,-393.5746 2662.4485,-388.4355 2652.0009,-386.6752 2653.1835,-393.5746"/>
</g>
<!-- Node49 -->
<g id="node50" class="node">
<title>Node49</title>
<polygon fill="none" stroke="#bfbfbf" points="2791,-369.5 2791,-388.5 2924,-388.5 2924,-369.5 2791,-369.5"/>
<text text-anchor="middle" x="2857.5" y="-376.5" font-family="Helvetica,sans-Serif" font-size="10.00" fill="#000000">arrow/compute/kernel.h</text>
</g>
<!-- Node0&#45;&gt;Node49 -->
<g id="edge72" class="edge">
<title>Node0&#45;&gt;Node49</title>
<path fill="none" stroke="#191970" d="M2363.0621,-442.7709C2455.3155,-431.0099 2624.8218,-409.3455 2780.5377,-389.1219"/>
<polygon fill="#191970" stroke="#191970" points="2781.3078,-392.5514 2790.7735,-387.792 2780.4059,-385.6097 2781.3078,-392.5514"/>
</g>
<!-- Node2 -->
<g id="node3" class="node">
<title>Node2</title>
<polygon fill="none" stroke="#bfbfbf" points="177,-252 177,-271 230,-271 230,-252 177,-252"/>
<text text-anchor="middle" x="203.5" y="-259" font-family="Helvetica,sans-Serif" font-size="10.00" fill="#000000">cstddef</text>
</g>
<!-- Node1&#45;&gt;Node2 -->
<g id="edge2" class="edge">
<title>Node1&#45;&gt;Node2</title>
<path fill="none" stroke="#191970" d="M146.125,-313.3906C156.5431,-303.9683 172.6364,-289.4134 185.1304,-278.1137"/>
<polygon fill="#191970" stroke="#191970" points="187.6562,-280.5484 192.7252,-271.2449 182.9608,-275.3568 187.6562,-280.5484"/>
</g>
<!-- Node3 -->
<g id="node4" class="node">
<title>Node3</title>
<polygon fill="none" stroke="#bfbfbf" points="49,-252 49,-271 94,-271 94,-252 49,-252"/>
<text text-anchor="middle" x="71.5" y="-259" font-family="Helvetica,sans-Serif" font-size="10.00" fill="#000000">utility</text>
</g>
<!-- Node1&#45;&gt;Node3 -->
<g id="edge3" class="edge">
<title>Node1&#45;&gt;Node3</title>
<path fill="none" stroke="#191970" d="M125.5,-313.3906C115.7881,-304.0581 100.8361,-289.6902 89.1259,-278.4374"/>
<polygon fill="#191970" stroke="#191970" points="91.2766,-275.65 81.641,-271.2449 86.4264,-280.6974 91.2766,-275.65"/>
</g>
<!-- Node4 -->
<g id="node5" class="node">
<title>Node4</title>
<polygon fill="none" stroke="#bfbfbf" points="112.5,-252 112.5,-271 158.5,-271 158.5,-252 112.5,-252"/>
<text text-anchor="middle" x="135.5" y="-259" font-family="Helvetica,sans-Serif" font-size="10.00" fill="#000000">cstdio</text>
</g>
<!-- Node1&#45;&gt;Node4 -->
<g id="edge4" class="edge">
<title>Node1&#45;&gt;Node4</title>
<path fill="none" stroke="#191970" d="M135.5,-313.3906C135.5,-304.8657 135.5,-292.1392 135.5,-281.4235"/>
<polygon fill="#191970" stroke="#191970" points="139.0001,-281.2448 135.5,-271.2449 132.0001,-281.2449 139.0001,-281.2448"/>
</g>
<!-- Node6&#45;&gt;Node1 -->
<g id="edge7" class="edge">
<title>Node6&#45;&gt;Node1</title>
<path fill="none" stroke="#191970" d="M135.5,-369.2455C135.5,-361.9382 135.5,-351.6944 135.5,-342.7046"/>
<polygon fill="#191970" stroke="#191970" points="139.0001,-342.6426 135.5,-332.6427 132.0001,-342.6427 139.0001,-342.6426"/>
</g>
<!-- Node7 -->
<g id="node8" class="node">
<title>Node7</title>
<polygon fill="none" stroke="#bfbfbf" points="0,-313.5 0,-332.5 65,-332.5 65,-313.5 0,-313.5"/>
<text text-anchor="middle" x="32.5" y="-320.5" font-family="Helvetica,sans-Serif" font-size="10.00" fill="#000000">functional</text>
</g>
<!-- Node6&#45;&gt;Node7 -->
<g id="edge8" class="edge">
<title>Node6&#45;&gt;Node7</title>
<path fill="none" stroke="#191970" d="M117.5588,-369.2455C101.46,-360.4928 77.6121,-347.527 59.2609,-337.5496"/>
<polygon fill="#191970" stroke="#191970" points="60.6929,-334.3444 50.2356,-332.6427 57.3493,-340.4942 60.6929,-334.3444"/>
</g>
<!-- Node10 -->
<g id="node11" class="node">
<title>Node10</title>
<polygon fill="none" stroke="#bfbfbf" points="1826,-.5 1826,-19.5 1895,-19.5 1895,-.5 1826,-.5"/>
<text text-anchor="middle" x="1860.5" y="-7.5" font-family="Helvetica,sans-Serif" font-size="10.00" fill="#000000">type_traits</text>
</g>
<!-- Node9&#45;&gt;Node10 -->
<g id="edge11" class="edge">
<title>Node9&#45;&gt;Node10</title>
<path fill="none" stroke="#191970" d="M2279.6669,-184.969C2206.5483,-154.4478 1978.0061,-59.0495 1892.8801,-23.5161"/>
<polygon fill="#191970" stroke="#191970" points="1894.0383,-20.207 1883.4618,-19.5847 1891.3418,-26.6668 1894.0383,-20.207"/>
</g>
<!-- Node11&#45;&gt;Node1 -->
<g id="edge15" class="edge">
<title>Node11&#45;&gt;Node1</title>
<path fill="none" stroke="#191970" d="M1295.6985,-377.3354C1079.9398,-372.0881 431.7276,-354.9867 198.3395,-332.9317"/>
<polygon fill="#191970" stroke="#191970" points="198.5008,-329.4309 188.2085,-331.9448 197.822,-336.3979 198.5008,-329.4309"/>
</g>
<!-- Node11&#45;&gt;Node5 -->
<g id="edge16" class="edge">
<title>Node11&#45;&gt;Node5</title>
<path fill="none" stroke="#191970" d="M1295.8947,-377.7406C1132.5251,-374.4041 715.6337,-363.4686 356.7466,-333.041"/>
<polygon fill="#191970" stroke="#191970" points="356.9417,-329.545 346.6801,-332.181 356.3459,-336.5196 356.9417,-329.545"/>
</g>
<!-- Node11&#45;&gt;Node8 -->
<g id="edge14" class="edge">
<title>Node11&#45;&gt;Node8</title>
<path fill="none" stroke="#191970" d="M1295.7182,-375.4873C1123.8601,-366.8874 688.0005,-344.6327 542.5,-333 541.2316,-332.8986 539.9539,-332.7944 538.6687,-332.6877"/>
<polygon fill="#191970" stroke="#191970" points="538.9599,-329.1999 528.6952,-331.8242 538.356,-336.1738 538.9599,-329.1999"/>
</g>
<!-- Node12 -->
<g id="node13" class="node">
<title>Node12</title>
<g id="a_node13"><a xlink:href="../../dd/dc2/BasicOps_8h.html" target="_top" xlink:title="Framework/BasicOps.h">
<polygon fill="none" stroke="#000000" points="1210.5,-313.5 1210.5,-332.5 1338.5,-332.5 1338.5,-313.5 1210.5,-313.5"/>
<text text-anchor="middle" x="1274.5" y="-320.5" font-family="Helvetica,sans-Serif" font-size="10.00" fill="#000000">Framework/BasicOps.h</text>
</a>
</g>
</g>
<!-- Node11&#45;&gt;Node12 -->
<g id="edge13" class="edge">
<title>Node11&#45;&gt;Node12</title>
<path fill="none" stroke="#191970" d="M1350.4748,-369.2455C1336.3592,-360.6534 1315.5737,-348.0014 1299.3101,-338.1018"/>
<polygon fill="#191970" stroke="#191970" points="1300.7034,-334.8525 1290.3415,-332.6427 1297.0637,-340.8319 1300.7034,-334.8525"/>
</g>
<!-- Node13 -->
<g id="node14" class="node">
<title>Node13</title>
<g id="a_node14"><a xlink:href="../../d9/dff/Configurable_8h.html" target="_top" xlink:title="Framework/Configurable.h">
<polygon fill="none" stroke="#000000" points="1151.5,-56.5 1151.5,-75.5 1295.5,-75.5 1295.5,-56.5 1151.5,-56.5"/>
<text text-anchor="middle" x="1223.5" y="-63.5" font-family="Helvetica,sans-Serif" font-size="10.00" fill="#000000">Framework/Configurable.h</text>
</a>
</g>
</g>
<!-- Node11&#45;&gt;Node13 -->
<g id="edge17" class="edge">
<title>Node11&#45;&gt;Node13</title>
<path fill="none" stroke="#191970" d="M1364.3325,-369.4183C1361.2574,-356.4105 1355.1432,-332.5443 1347.5,-313 1338.3267,-289.543 1260.7855,-138.4058 1233.1962,-84.8113"/>
<polygon fill="#191970" stroke="#191970" points="1236.2065,-83.0121 1228.516,-75.7247 1229.9835,-86.2174 1236.2065,-83.0121"/>
</g>
<!-- Node14 -->
<g id="node15" class="node">
<title>Node14</title>
<polygon fill="none" stroke="#bfbfbf" points="1301.5,-.5 1301.5,-19.5 1345.5,-19.5 1345.5,-.5 1301.5,-.5"/>
<text text-anchor="middle" x="1323.5" y="-7.5" font-family="Helvetica,sans-Serif" font-size="10.00" fill="#000000">string</text>
</g>
<!-- Node11&#45;&gt;Node14 -->
<g id="edge64" class="edge">
<title>Node11&#45;&gt;Node14</title>
<path fill="none" stroke="#191970" d="M1295.9993,-375.9925C1104.7319,-367.6917 589.3784,-344.3284 575.5,-333 550.0278,-312.2081 556.5,-294.3806 556.5,-261.5 556.5,-261.5 556.5,-261.5 556.5,-127.5 556.5,-51.931 1145.7535,-18.5647 1291.2956,-11.4759"/>
<polygon fill="#191970" stroke="#191970" points="1291.5515,-14.9678 1301.3724,-10.9928 1291.2162,-7.9758 1291.5515,-14.9678"/>
</g>
<!-- Node15 -->
<g id="node16" class="node">
<title>Node15</title>
<g id="a_node16"><a xlink:href="../../de/d56/Variant_8h.html" target="_top" xlink:title="Framework/Variant.h">
<polygon fill="none" stroke="#000000" points="1518,-56.5 1518,-75.5 1635,-75.5 1635,-56.5 1518,-56.5"/>
<text text-anchor="middle" x="1576.5" y="-63.5" font-family="Helvetica,sans-Serif" font-size="10.00" fill="#000000">Framework/Variant.h</text>
</a>
</g>
</g>
<!-- Node11&#45;&gt;Node15 -->
<g id="edge19" class="edge">
<title>Node11&#45;&gt;Node15</title>
<path fill="none" stroke="#191970" d="M1366.6097,-369.4891C1367.0956,-334.8154 1369.5454,-215.3239 1380.5,-179 1390.3845,-146.2243 1391.6475,-133.2342 1418.5,-112 1443.9689,-91.8599 1477.9649,-80.5359 1507.8968,-74.1698"/>
<polygon fill="#191970" stroke="#191970" points="1508.7434,-77.5702 1517.8736,-72.1953 1507.3844,-70.7034 1508.7434,-77.5702"/>
</g>
<!-- Node11&#45;&gt;Node16 -->
<g id="edge53" class="edge">
<title>Node11&#45;&gt;Node16</title>
<path fill="none" stroke="#191970" d="M1437.194,-376.5155C1602.0064,-370.3891 1999.3482,-353.5546 2019.5,-333 2101.9666,-248.8853 2054.5197,-85.4205 2034.8059,-29.3912"/>
<polygon fill="#191970" stroke="#191970" points="2037.9807,-27.8796 2031.2796,-19.6732 2031.4005,-30.2673 2037.9807,-27.8796"/>
</g>
<!-- Node23 -->
<g id="node24" class="node">
<title>Node23</title>
<g id="a_node24"><a xlink:href="../../d4/d2b/InitContext_8h.html" target="_top" xlink:title="Framework/InitContext.h">
<polygon fill="none" stroke="#000000" points="1633,-313.5 1633,-332.5 1770,-332.5 1770,-313.5 1633,-313.5"/>
<text text-anchor="middle" x="1701.5" y="-320.5" font-family="Helvetica,sans-Serif" font-size="10.00" fill="#000000">Framework/InitContext.h</text>
</a>
</g>
</g>
<!-- Node11&#45;&gt;Node23 -->
<g id="edge29" class="edge">
<title>Node11&#45;&gt;Node23</title>
<path fill="none" stroke="#191970" d="M1423.7079,-369.4369C1482.1246,-359.6717 1572.7599,-344.5207 1634.4966,-334.2006"/>
<polygon fill="#191970" stroke="#191970" points="1635.242,-337.6246 1644.528,-332.5237 1634.0878,-330.7204 1635.242,-337.6246"/>
</g>
<!-- Node24 -->
<g id="node25" class="node">
<title>Node24</title>
<g id="a_node25"><a xlink:href="../../de/dc6/ConfigParamRegistry_8h.html" target="_top" xlink:title="Framework/ConfigParamRegistry.h">
<polygon fill="none" stroke="#000000" points="1432.5,-313.5 1432.5,-332.5 1614.5,-332.5 1614.5,-313.5 1432.5,-313.5"/>
<text text-anchor="middle" x="1523.5" y="-320.5" font-family="Helvetica,sans-Serif" font-size="10.00" fill="#000000">Framework/ConfigParamRegistry.h</text>
</a>
</g>
</g>
<!-- Node11&#45;&gt;Node24 -->
<g id="edge30" class="edge">
<title>Node11&#45;&gt;Node24</title>
<path fill="none" stroke="#191970" d="M1393.4893,-369.3733C1419.3699,-360.1419 1458.6248,-346.1402 1487.2289,-335.9375"/>
<polygon fill="#191970" stroke="#191970" points="1488.62,-339.1573 1496.8629,-332.5011 1486.2683,-332.5642 1488.62,-339.1573"/>
</g>
<!-- Node31 -->
<g id="node32" class="node">
<title>Node31</title>
<polygon fill="none" stroke="#bfbfbf" points="1769.5,-252 1769.5,-271 1827.5,-271 1827.5,-252 1769.5,-252"/>
<text text-anchor="middle" x="1798.5" y="-259" font-family="Helvetica,sans-Serif" font-size="10.00" fill="#000000">memory</text>
</g>
<!-- Node11&#45;&gt;Node31 -->
<g id="edge65" class="edge">
<title>Node11&#45;&gt;Node31</title>
<path fill="none" stroke="#191970" d="M1437.243,-375.3745C1548.1702,-369.0605 1753.0714,-354.6198 1778.5,-333 1793.3406,-320.3823 1797.6293,-297.7447 1798.6525,-281.3145"/>
<polygon fill="#191970" stroke="#191970" points="1802.1562,-281.2221 1798.9287,-271.1309 1795.1588,-281.0323 1802.1562,-281.2221"/>
</g>
<!-- Node33 -->
<g id="node34" class="node">
<title>Node33</title>
<g id="a_node34"><a xlink:href="../../da/d88/RootConfigParamHelpers_8h.html" target="_top" xlink:title="Framework/RootConfigParam\lHelpers.h">
<polygon fill="none" stroke="#000000" points="1798,-179.5 1798,-209.5 1955,-209.5 1955,-179.5 1798,-179.5"/>
<text text-anchor="start" x="1806" y="-197.5" font-family="Helvetica,sans-Serif" font-size="10.00" fill="#000000">Framework/RootConfigParam</text>
<text text-anchor="middle" x="1876.5" y="-186.5" font-family="Helvetica,sans-Serif" font-size="10.00" fill="#000000">Helpers.h</text>
</a>
</g>
</g>
<!-- Node11&#45;&gt;Node33 -->
<g id="edge46" class="edge">
<title>Node11&#45;&gt;Node33</title>
<path fill="none" stroke="#191970" d="M1437.1875,-374.7168C1542.0583,-367.8156 1733.5684,-352.9625 1799.5,-333 1825.1859,-325.2229 1892.6027,-299.9589 1906.5,-277 1917.7233,-258.4586 1907.2195,-235.0582 1895.6644,-217.919"/>
<polygon fill="#191970" stroke="#191970" points="1898.3329,-215.6363 1889.6356,-209.5859 1892.6616,-219.7395 1898.3329,-215.6363"/>
</g>
<!-- Node36 -->
<g id="node37" class="node">
<title>Node36</title>
<polygon fill="none" stroke="#bfbfbf" points="2331,-313.5 2331,-332.5 2432,-332.5 2432,-313.5 2331,-313.5"/>
<text text-anchor="middle" x="2381.5" y="-320.5" font-family="Helvetica,sans-Serif" font-size="10.00" fill="#000000">arrow/type_fwd.h</text>
</g>
<!-- Node11&#45;&gt;Node36 -->
<g id="edge54" class="edge">
<title>Node11&#45;&gt;Node36</title>
<path fill="none" stroke="#191970" d="M1437.1871,-378.4914C1594.3201,-376.7348 1984.6148,-368.9133 2320.2901,-333.1278"/>
<polygon fill="#191970" stroke="#191970" points="2321.1372,-336.5569 2330.7051,-332.0065 2320.3879,-329.5971 2321.1372,-336.5569"/>
</g>
<!-- Node37 -->
<g id="node38" class="node">
<title>Node37</title>
<polygon fill="none" stroke="#bfbfbf" points="1864.5,-313.5 1864.5,-332.5 2010.5,-332.5 2010.5,-313.5 1864.5,-313.5"/>
<text text-anchor="middle" x="1937.5" y="-320.5" font-family="Helvetica,sans-Serif" font-size="10.00" fill="#000000">gandiva/gandiva_aliases.h</text>
</g>
<!-- Node11&#45;&gt;Node37 -->
<g id="edge55" class="edge">
<title>Node11&#45;&gt;Node37</title>
<path fill="none" stroke="#191970" d="M1437.0803,-372.7305C1531.3639,-364.2552 1703.5961,-348.4222 1850.5,-333 1851.7758,-332.8661 1853.062,-332.7301 1854.3565,-332.5924"/>
<polygon fill="#191970" stroke="#191970" points="1854.8437,-336.0602 1864.4101,-331.5068 1854.0921,-329.1007 1854.8437,-336.0602"/>
</g>
<!-- Node38 -->
<g id="node39" class="node">
<title>Node38</title>
<polygon fill="none" stroke="#bfbfbf" points="584.5,-313.5 584.5,-332.5 662.5,-332.5 662.5,-313.5 584.5,-313.5"/>
<text text-anchor="middle" x="623.5" y="-320.5" font-family="Helvetica,sans-Serif" font-size="10.00" fill="#000000">arrow/type.h</text>
</g>
<!-- Node11&#45;&gt;Node38 -->
<g id="edge56" class="edge">
<title>Node11&#45;&gt;Node38</title>
<path fill="none" stroke="#191970" d="M1295.9219,-375.5815C1147.96,-368.2152 808.457,-350.2171 672.8888,-332.9796"/>
<polygon fill="#191970" stroke="#191970" points="673.0882,-329.4755 662.7156,-331.6341 672.1703,-336.4151 673.0882,-329.4755"/>
</g>
<!-- Node39 -->
<g id="node40" class="node">
<title>Node39</title>
<polygon fill="none" stroke="#bfbfbf" points="681,-313.5 681,-332.5 776,-332.5 776,-313.5 681,-313.5"/>
<text text-anchor="middle" x="728.5" y="-320.5" font-family="Helvetica,sans-Serif" font-size="10.00" fill="#000000">gandiva/arrow.h</text>
</g>
<!-- Node11&#45;&gt;Node39 -->
<g id="edge57" class="edge">
<title>Node11&#45;&gt;Node39</title>
<path fill="none" stroke="#191970" d="M1295.624,-375.5558C1187.8897,-369.841 976.2937,-356.7392 786.2163,-332.9722"/>
<polygon fill="#191970" stroke="#191970" points="786.3945,-329.4669 776.0347,-331.6861 785.5172,-336.4118 786.3945,-329.4669"/>
</g>
<!-- Node11&#45;&gt;Node40 -->
<g id="edge58" class="edge">
<title>Node11&#45;&gt;Node40</title>
<path fill="none" stroke="#191970" d="M1437.3596,-376.886C1562.1071,-372.5769 1828.9125,-360.7326 2052.5,-333 2053.8002,-332.8387 2055.1163,-332.6667 2056.4429,-332.4854"/>
<polygon fill="#191970" stroke="#191970" points="2057.3616,-335.8868 2066.7315,-330.9415 2056.3228,-328.9643 2057.3616,-335.8868"/>
</g>
<!-- Node11&#45;&gt;Node41 -->
<g id="edge59" class="edge">
<title>Node11&#45;&gt;Node41</title>
<path fill="none" stroke="#191970" d="M1437.1553,-376.3507C1573.7676,-370.9081 1883.8513,-356.9977 2155.6981,-333.0177"/>
<polygon fill="#191970" stroke="#191970" points="2156.1075,-336.4952 2165.7586,-332.1241 2155.4881,-329.5227 2156.1075,-336.4952"/>
</g>
<!-- Node42 -->
<g id="node43" class="node">
<title>Node42</title>
<polygon fill="none" stroke="#bfbfbf" points="794.5,-313.5 794.5,-332.5 886.5,-332.5 886.5,-313.5 794.5,-313.5"/>
<text text-anchor="middle" x="840.5" y="-320.5" font-family="Helvetica,sans-Serif" font-size="10.00" fill="#000000">gandiva/node.h</text>
</g>
<!-- Node11&#45;&gt;Node42 -->
<g id="edge60" class="edge">
<title>Node11&#45;&gt;Node42</title>
<path fill="none" stroke="#191970" d="M1295.6664,-373.9137C1205.3899,-367.0217 1044.3228,-353.3545 896.8144,-333.0872"/>
<polygon fill="#191970" stroke="#191970" points="897.0551,-329.5871 886.669,-331.6797 896.0931,-336.5207 897.0551,-329.5871"/>
</g>
<!-- Node43 -->
<g id="node44" class="node">
<title>Node43</title>
<polygon fill="none" stroke="#bfbfbf" points="905,-313.5 905,-332.5 994,-332.5 994,-313.5 905,-313.5"/>
<text text-anchor="middle" x="949.5" y="-320.5" font-family="Helvetica,sans-Serif" font-size="10.00" fill="#000000">gandiva/filter.h</text>
</g>
<!-- Node11&#45;&gt;Node43 -->
<g id="edge61" class="edge">
<title>Node11&#45;&gt;Node43</title>
<path fill="none" stroke="#191970" d="M1295.7247,-371.2417C1224.6605,-363.1768 1111.7998,-349.6229 1004.3058,-333.0521"/>
<polygon fill="#191970" stroke="#191970" points="1004.6741,-329.5674 994.2555,-331.4914 1003.5999,-336.4845 1004.6741,-329.5674"/>
</g>
<!-- Node44 -->
<g id="node45" class="node">
<title>Node44</title>
<polygon fill="none" stroke="#bfbfbf" points="1012.5,-313.5 1012.5,-332.5 1122.5,-332.5 1122.5,-313.5 1012.5,-313.5"/>
<text text-anchor="middle" x="1067.5" y="-320.5" font-family="Helvetica,sans-Serif" font-size="10.00" fill="#000000">gandiva/projector.h</text>
</g>
<!-- Node11&#45;&gt;Node44 -->
<g id="edge62" class="edge">
<title>Node11&#45;&gt;Node44</title>
<path fill="none" stroke="#191970" d="M1315.4398,-369.4369C1263.6232,-359.7321 1183.405,-344.708 1128.3285,-334.3926"/>
<polygon fill="#191970" stroke="#191970" points="1128.823,-330.9245 1118.3496,-332.5237 1127.5344,-337.8048 1128.823,-330.9245"/>
</g>
<!-- Node45 -->
<g id="node46" class="node">
<title>Node45</title>
<polygon fill="none" stroke="#bfbfbf" points="1141,-313.5 1141,-332.5 1192,-332.5 1192,-313.5 1141,-313.5"/>
<text text-anchor="middle" x="1166.5" y="-320.5" font-family="Helvetica,sans-Serif" font-size="10.00" fill="#000000">variant</text>
</g>
<!-- Node11&#45;&gt;Node45 -->
<g id="edge63" class="edge">
<title>Node11&#45;&gt;Node45</title>
<path fill="none" stroke="#191970" d="M1332.0356,-369.461C1300.6644,-360.7628 1252.813,-347.457 1201.9724,-333.121"/>
<polygon fill="#191970" stroke="#191970" points="1202.6836,-329.6851 1192.1088,-330.3373 1200.7822,-336.4219 1202.6836,-329.6851"/>
</g>
<!-- Node13&#45;&gt;Node14 -->
<g id="edge18" class="edge">
<title>Node13&#45;&gt;Node14</title>
<path fill="none" stroke="#191970" d="M1240.9187,-56.2455C1256.5485,-47.4928 1279.7019,-34.527 1297.5185,-24.5496"/>
<polygon fill="#191970" stroke="#191970" points="1299.266,-27.5825 1306.2809,-19.6427 1295.8457,-21.475 1299.266,-27.5825"/>
</g>
<!-- Node15&#45;&gt;Node10 -->
<g id="edge21" class="edge">
<title>Node15&#45;&gt;Node10</title>
<path fill="none" stroke="#191970" d="M1629.0392,-56.4631C1675.5442,-47.9009 1745.5041,-34.7274 1815.9902,-20.0525"/>
<polygon fill="#191970" stroke="#191970" points="1816.8655,-23.4453 1825.9372,-17.9722 1815.4324,-16.5935 1816.8655,-23.4453"/>
</g>
<!-- Node15&#45;&gt;Node14 -->
<g id="edge28" class="edge">
<title>Node15&#45;&gt;Node14</title>
<path fill="none" stroke="#191970" d="M1522.2891,-56.457C1479.3996,-48.5245 1417.8429,-36.2946 1355.7359,-20.1279"/>
<polygon fill="#191970" stroke="#191970" points="1356.328,-16.6645 1345.7662,-17.4995 1354.5435,-23.4332 1356.328,-16.6645"/>
</g>
<!-- Node15&#45;&gt;Node16 -->
<g id="edge20" class="edge">
<title>Node15&#45;&gt;Node16</title>
<path fill="none" stroke="#191970" d="M1635.4604,-58.679C1714.3184,-48.8873 1854.5693,-31.4725 1944.1955,-20.3438"/>
<polygon fill="#191970" stroke="#191970" points="1944.8335,-23.7915 1954.326,-19.0859 1943.9709,-16.8449 1944.8335,-23.7915"/>
</g>
<!-- Node17 -->
<g id="node18" class="node">
<title>Node17</title>
<polygon fill="none" stroke="#bfbfbf" points="1363.5,-.5 1363.5,-19.5 1413.5,-19.5 1413.5,-.5 1363.5,-.5"/>
<text text-anchor="middle" x="1388.5" y="-7.5" font-family="Helvetica,sans-Serif" font-size="10.00" fill="#000000">cstring</text>
</g>
<!-- Node15&#45;&gt;Node17 -->
<g id="edge22" class="edge">
<title>Node15&#45;&gt;Node17</title>
<path fill="none" stroke="#191970" d="M1544.1816,-56.3733C1510.5473,-46.3545 1458.0494,-30.7168 1423.4642,-20.4149"/>
<polygon fill="#191970" stroke="#191970" points="1424.3643,-17.0311 1413.7813,-17.5306 1422.366,-23.7398 1424.3643,-17.0311"/>
</g>
<!-- Node18 -->
<g id="node19" class="node">
<title>Node18</title>
<polygon fill="none" stroke="#bfbfbf" points="1431.5,-.5 1431.5,-19.5 1481.5,-19.5 1481.5,-.5 1431.5,-.5"/>
<text text-anchor="middle" x="1456.5" y="-7.5" font-family="Helvetica,sans-Serif" font-size="10.00" fill="#000000">cstdint</text>
</g>
<!-- Node15&#45;&gt;Node18 -->
<g id="edge23" class="edge">
<title>Node15&#45;&gt;Node18</title>
<path fill="none" stroke="#191970" d="M1555.8713,-56.3733C1536.6081,-47.3838 1507.6514,-33.8706 1485.9581,-23.7471"/>
<polygon fill="#191970" stroke="#191970" points="1487.4015,-20.5584 1476.8595,-19.5011 1484.4413,-26.9017 1487.4015,-20.5584"/>
</g>
<!-- Node19 -->
<g id="node20" class="node">
<title>Node19</title>
<polygon fill="none" stroke="#bfbfbf" points="1500,-.5 1500,-19.5 1549,-19.5 1549,-.5 1500,-.5"/>
<text text-anchor="middle" x="1524.5" y="-7.5" font-family="Helvetica,sans-Serif" font-size="10.00" fill="#000000">cstdlib</text>
</g>
<!-- Node15&#45;&gt;Node19 -->
<g id="edge24" class="edge">
<title>Node15&#45;&gt;Node19</title>
<path fill="none" stroke="#191970" d="M1567.4423,-56.2455C1559.9858,-48.2155 1549.2366,-36.6394 1540.3583,-27.0781"/>
<polygon fill="#191970" stroke="#191970" points="1542.8232,-24.589 1533.4539,-19.6427 1537.6937,-29.3522 1542.8232,-24.589"/>
</g>
<!-- Node20 -->
<g id="node21" class="node">
<title>Node20</title>
<polygon fill="none" stroke="#bfbfbf" points="1567,-.5 1567,-19.5 1616,-19.5 1616,-.5 1567,-.5"/>
<text text-anchor="middle" x="1591.5" y="-7.5" font-family="Helvetica,sans-Serif" font-size="10.00" fill="#000000">iosfwd</text>
</g>
<!-- Node15&#45;&gt;Node20 -->
<g id="edge25" class="edge">
<title>Node15&#45;&gt;Node20</title>
<path fill="none" stroke="#191970" d="M1579.1128,-56.2455C1581.0916,-48.8579 1583.8744,-38.4689 1586.3012,-29.4087"/>
<polygon fill="#191970" stroke="#191970" points="1589.7105,-30.2078 1588.9171,-19.6427 1582.9489,-28.3966 1589.7105,-30.2078"/>
</g>
<!-- Node21 -->
<g id="node22" class="node">
<title>Node21</title>
<polygon fill="none" stroke="#bfbfbf" points="1634,-.5 1634,-19.5 1717,-19.5 1717,-.5 1634,-.5"/>
<text text-anchor="middle" x="1675.5" y="-7.5" font-family="Helvetica,sans-Serif" font-size="10.00" fill="#000000">initializer_list</text>
</g>
<!-- Node15&#45;&gt;Node21 -->
<g id="edge26" class="edge">
<title>Node15&#45;&gt;Node21</title>
<path fill="none" stroke="#191970" d="M1593.7445,-56.2455C1609.0761,-47.5731 1631.7199,-34.7645 1649.2916,-24.825"/>
<polygon fill="#191970" stroke="#191970" points="1651.4724,-27.6126 1658.4531,-19.6427 1648.0259,-21.5198 1651.4724,-27.6126"/>
</g>
<!-- Node22 -->
<g id="node23" class="node">
<title>Node22</title>
<polygon fill="none" stroke="#bfbfbf" points="1735,-.5 1735,-19.5 1808,-19.5 1808,-.5 1735,-.5"/>
<text text-anchor="middle" x="1771.5" y="-7.5" font-family="Helvetica,sans-Serif" font-size="10.00" fill="#000000">string_view</text>
</g>
<!-- Node15&#45;&gt;Node22 -->
<g id="edge27" class="edge">
<title>Node15&#45;&gt;Node22</title>
<path fill="none" stroke="#191970" d="M1610.0217,-56.3733C1642.8683,-46.9404 1693.0595,-32.5265 1728.7578,-22.2747"/>
<polygon fill="#191970" stroke="#191970" points="1729.7703,-25.6255 1738.4157,-19.5011 1727.8381,-18.8974 1729.7703,-25.6255"/>
</g>
<!-- Node24&#45;&gt;Node14 -->
<g id="edge44" class="edge">
<title>Node24&#45;&gt;Node14</title>
<path fill="none" stroke="#191970" d="M1497.3789,-313.4364C1478.1385,-305.5683 1452.0331,-293.102 1432.5,-277 1403.4145,-253.0235 1397.5316,-243.6268 1380.5,-210 1349.1576,-148.1182 1332.7552,-66.473 1326.5212,-29.5826"/>
<polygon fill="#191970" stroke="#191970" points="1329.9648,-28.9522 1324.9077,-19.6422 1323.0552,-30.0738 1329.9648,-28.9522"/>
</g>
<!-- Node25 -->
<g id="node26" class="node">
<title>Node25</title>
<g id="a_node26"><a xlink:href="../../df/d72/ParamRetriever_8h.html" target="_top" xlink:title="Framework/ParamRetriever.h">
<polygon fill="none" stroke="#000000" points="1390,-185 1390,-204 1547,-204 1547,-185 1390,-185"/>
<text text-anchor="middle" x="1468.5" y="-192" font-family="Helvetica,sans-Serif" font-size="10.00" fill="#000000">Framework/ParamRetriever.h</text>
</a>
</g>
</g>
<!-- Node24&#45;&gt;Node25 -->
<g id="edge31" class="edge">
<title>Node24&#45;&gt;Node25</title>
<path fill="none" stroke="#191970" d="M1489.6035,-313.4632C1471.6299,-306.4893 1451.1198,-295.0275 1440.5,-277 1428.3401,-256.3583 1441.9458,-229.6776 1454.0889,-212.3326"/>
<polygon fill="#191970" stroke="#191970" points="1456.986,-214.3025 1460.1614,-204.1947 1451.3758,-210.1161 1456.986,-214.3025"/>
</g>
<!-- Node29 -->
<g id="node30" class="node">
<title>Node29</title>
<g id="a_node30"><a xlink:href="../../dd/daf/ConfigParamStore_8h.html" target="_top" xlink:title="Framework/ConfigParamStore.h">
<polygon fill="none" stroke="#000000" points="1449.5,-252 1449.5,-271 1619.5,-271 1619.5,-252 1449.5,-252"/>
<text text-anchor="middle" x="1534.5" y="-259" font-family="Helvetica,sans-Serif" font-size="10.00" fill="#000000">Framework/ConfigParamStore.h</text>
</a>
</g>
</g>
<!-- Node24&#45;&gt;Node29 -->
<g id="edge38" class="edge">
<title>Node24&#45;&gt;Node29</title>
<path fill="none" stroke="#191970" d="M1525.2188,-313.3906C1526.7435,-304.8657 1529.0198,-292.1392 1530.9364,-281.4235"/>
<polygon fill="#191970" stroke="#191970" points="1534.4416,-281.7049 1532.757,-271.2449 1527.5509,-280.4724 1534.4416,-281.7049"/>
</g>
<!-- Node30 -->
<g id="node31" class="node">
<title>Node30</title>
<polygon fill="none" stroke="#bfbfbf" points="1638,-246.5 1638,-276.5 1751,-276.5 1751,-246.5 1638,-246.5"/>
<text text-anchor="start" x="1646" y="-264.5" font-family="Helvetica,sans-Serif" font-size="10.00" fill="#000000">boost/property_tree</text>
<text text-anchor="middle" x="1694.5" y="-253.5" font-family="Helvetica,sans-Serif" font-size="10.00" fill="#000000">/ptree.hpp</text>
</g>
<!-- Node24&#45;&gt;Node30 -->
<g id="edge42" class="edge">
<title>Node24&#45;&gt;Node30</title>
<path fill="none" stroke="#191970" d="M1550.2188,-313.3906C1574.9687,-304.4893 1612.4553,-291.0073 1643.015,-280.0165"/>
<polygon fill="#191970" stroke="#191970" points="1644.4433,-283.2224 1652.6687,-276.5446 1642.0742,-276.6355 1644.4433,-283.2224"/>
</g>
<!-- Node24&#45;&gt;Node31 -->
<g id="edge43" class="edge">
<title>Node24&#45;&gt;Node31</title>
<path fill="none" stroke="#191970" d="M1589.6487,-313.4828C1637.3993,-305.7989 1703.1229,-293.5415 1759.5,-277 1761.9469,-276.282 1764.4538,-275.4707 1766.9584,-274.6049"/>
<polygon fill="#191970" stroke="#191970" points="1768.3153,-277.8347 1776.4761,-271.0781 1765.883,-271.2708 1768.3153,-277.8347"/>
</g>
<!-- Node24&#45;&gt;Node32 -->
<g id="edge45" class="edge">
<title>Node24&#45;&gt;Node32</title>
<path fill="none" stroke="#191970" d="M1605.8244,-313.4596C1683.622,-303.9807 1794.487,-289.1451 1836.5,-277 1838.6267,-276.3852 1840.7926,-275.6679 1842.9515,-274.8853"/>
<polygon fill="#191970" stroke="#191970" points="1844.2587,-278.1321 1852.2279,-271.1505 1841.6443,-271.6386 1844.2587,-278.1321"/>
</g>
<!-- Node25&#45;&gt;Node14 -->
<g id="edge36" class="edge">
<title>Node25&#45;&gt;Node14</title>
<path fill="none" stroke="#191970" d="M1458.0692,-184.6633C1447.6126,-174.5985 1431.2751,-158.3084 1418.5,-143 1385.9534,-103.9993 1352.4709,-54.5075 1335.2764,-28.268"/>
<polygon fill="#191970" stroke="#191970" points="1338.0986,-26.1877 1329.7105,-19.7153 1332.2316,-30.0059 1338.0986,-26.1877"/>
</g>
<!-- Node26 -->
<g id="node27" class="node">
<title>Node26</title>
<g id="a_node27"><a xlink:href="../../d0/d1c/ConfigParamSpec_8h.html" target="_top" xlink:title="Framework/ConfigParamSpec.h">
<polygon fill="none" stroke="#000000" points="1493,-118 1493,-137 1660,-137 1660,-118 1493,-118"/>
<text text-anchor="middle" x="1576.5" y="-125" font-family="Helvetica,sans-Serif" font-size="10.00" fill="#000000">Framework/ConfigParamSpec.h</text>
</a>
</g>
</g>
<!-- Node25&#45;&gt;Node26 -->
<g id="edge32" class="edge">
<title>Node25&#45;&gt;Node26</title>
<path fill="none" stroke="#191970" d="M1483.9738,-184.9005C1501.858,-173.8057 1531.5062,-155.4128 1552.4138,-142.4424"/>
<polygon fill="#191970" stroke="#191970" points="1554.4024,-145.3275 1561.0549,-137.0817 1550.7122,-139.3792 1554.4024,-145.3275"/>
</g>
<!-- Node27 -->
<g id="node28" class="node">
<title>Node27</title>
<polygon fill="none" stroke="#bfbfbf" points="1678,-112.5 1678,-142.5 1791,-142.5 1791,-112.5 1678,-112.5"/>
<text text-anchor="start" x="1686" y="-130.5" font-family="Helvetica,sans-Serif" font-size="10.00" fill="#000000">boost/property_tree</text>
<text text-anchor="middle" x="1734.5" y="-119.5" font-family="Helvetica,sans-Serif" font-size="10.00" fill="#000000">/ptree_fwd.hpp</text>
</g>
<!-- Node25&#45;&gt;Node27 -->
<g id="edge35" class="edge">
<title>Node25&#45;&gt;Node27</title>
<path fill="none" stroke="#191970" d="M1506.3288,-184.9717C1548.2831,-174.4043 1616.7698,-157.1538 1667.7809,-144.3052"/>
<polygon fill="#191970" stroke="#191970" points="1668.8949,-147.634 1677.7371,-141.7974 1667.1851,-140.846 1668.8949,-147.634"/>
</g>
<!-- Node28 -->
<g id="node29" class="node">
<title>Node28</title>
<polygon fill="none" stroke="#bfbfbf" points="1428,-118 1428,-137 1475,-137 1475,-118 1428,-118"/>
<text text-anchor="middle" x="1451.5" y="-125" font-family="Helvetica,sans-Serif" font-size="10.00" fill="#000000">vector</text>
</g>
<!-- Node25&#45;&gt;Node28 -->
<g id="edge37" class="edge">
<title>Node25&#45;&gt;Node28</title>
<path fill="none" stroke="#191970" d="M1466.0643,-184.9005C1463.5648,-175.0495 1459.6055,-159.4451 1456.4455,-146.9912"/>
<polygon fill="#191970" stroke="#191970" points="1459.7831,-145.9137 1453.9312,-137.0817 1452.9981,-147.6353 1459.7831,-145.9137"/>
</g>
<!-- Node26&#45;&gt;Node14 -->
<g id="edge34" class="edge">
<title>Node26&#45;&gt;Node14</title>
<path fill="none" stroke="#191970" d="M1555.7959,-117.8845C1511.1154,-97.1336 1405.4961,-48.0812 1353.4915,-23.9289"/>
<polygon fill="#191970" stroke="#191970" points="1354.6792,-20.6214 1344.1353,-19.5836 1351.7306,-26.9702 1354.6792,-20.6214"/>
</g>
<!-- Node26&#45;&gt;Node15 -->
<g id="edge33" class="edge">
<title>Node26&#45;&gt;Node15</title>
<path fill="none" stroke="#191970" d="M1576.5,-117.8906C1576.5,-109.3657 1576.5,-96.6392 1576.5,-85.9235"/>
<polygon fill="#191970" stroke="#191970" points="1580.0001,-85.7448 1576.5,-75.7449 1573.0001,-85.7449 1580.0001,-85.7448"/>
</g>
<!-- Node29&#45;&gt;Node25 -->
<g id="edge39" class="edge">
<title>Node29&#45;&gt;Node25</title>
<path fill="none" stroke="#191970" d="M1525.0438,-251.9005C1514.6537,-241.353 1497.7662,-224.2096 1485.1476,-211.3998"/>
<polygon fill="#191970" stroke="#191970" points="1487.4498,-208.7495 1477.9386,-204.0817 1482.463,-213.6619 1487.4498,-208.7495"/>
</g>
<!-- Node29&#45;&gt;Node26 -->
<g id="edge40" class="edge">
<title>Node29&#45;&gt;Node26</title>
<path fill="none" stroke="#191970" d="M1538.9352,-251.7778C1543.4964,-241.5338 1550.6059,-224.857 1555.5,-210 1562.4796,-188.812 1568.5291,-163.9295 1572.3189,-147.0747"/>
<polygon fill="#191970" stroke="#191970" points="1575.7439,-147.7954 1574.4701,-137.2774 1568.9068,-146.2941 1575.7439,-147.7954"/>
</g>
<!-- Node29&#45;&gt;Node27 -->
<g id="edge41" class="edge">
<title>Node29&#45;&gt;Node27</title>
<path fill="none" stroke="#191970" d="M1548.8835,-251.8631C1581.0604,-230.3045 1659.4668,-177.7722 1703.3864,-148.3461"/>
<polygon fill="#191970" stroke="#191970" points="1705.5867,-151.0849 1711.9462,-142.611 1701.6903,-145.2695 1705.5867,-151.0849"/>
</g>
<!-- Node33&#45;&gt;Node10 -->
<g id="edge51" class="edge">
<title>Node33&#45;&gt;Node10</title>
<path fill="none" stroke="#191970" d="M1861.226,-179.3254C1852.743,-169.7875 1843.0143,-156.7214 1838.5,-143 1825.5787,-103.7253 1840.9674,-55.3201 1851.7471,-29.0889"/>
<polygon fill="#191970" stroke="#191970" points="1855.0975,-30.1591 1855.8541,-19.5913 1848.6725,-27.3807 1855.0975,-30.1591"/>
</g>
<!-- Node33&#45;&gt;Node16 -->
<g id="edge48" class="edge">
<title>Node33&#45;&gt;Node16</title>
<path fill="none" stroke="#191970" d="M1932.6763,-179.4058C1952.7366,-171.5002 1973.9492,-159.8427 1988.5,-143 2016.7047,-110.3527 2024.5321,-58.1959 2026.6907,-29.8721"/>
<polygon fill="#191970" stroke="#191970" points="2030.1995,-29.8254 2027.2985,-19.6355 2023.2118,-29.4104 2030.1995,-29.8254"/>
</g>
<!-- Node33&#45;&gt;Node26 -->
<g id="edge47" class="edge">
<title>Node33&#45;&gt;Node26</title>
<path fill="none" stroke="#191970" d="M1809.1741,-179.4639C1754.7084,-167.2999 1679.094,-150.4127 1629.0293,-139.2315"/>
<polygon fill="#191970" stroke="#191970" points="1629.5835,-135.7692 1619.061,-137.0053 1628.0577,-142.6008 1629.5835,-135.7692"/>
</g>
<!-- Node33&#45;&gt;Node27 -->
<g id="edge50" class="edge">
<title>Node33&#45;&gt;Node27</title>
<path fill="none" stroke="#191970" d="M1844.6324,-179.4639C1824.3125,-169.8763 1797.7738,-157.3545 1775.8395,-147.0052"/>
<polygon fill="#191970" stroke="#191970" points="1777.2899,-143.8196 1766.7525,-142.7177 1774.3028,-150.1503 1777.2899,-143.8196"/>
</g>
<!-- Node34 -->
<g id="node35" class="node">
<title>Node34</title>
<polygon fill="none" stroke="#bfbfbf" points="1923,-118 1923,-137 1980,-137 1980,-118 1923,-118"/>
<text text-anchor="middle" x="1951.5" y="-125" font-family="Helvetica,sans-Serif" font-size="10.00" fill="#000000">TClass.h</text>
</g>
<!-- Node33&#45;&gt;Node34 -->
<g id="edge49" class="edge">
<title>Node33&#45;&gt;Node34</title>
<path fill="none" stroke="#191970" d="M1893.5187,-179.2967C1905.3175,-168.7564 1921.0184,-154.7303 1933.1057,-143.9323"/>
<polygon fill="#191970" stroke="#191970" points="1935.6783,-146.3273 1940.8041,-137.055 1931.0147,-141.107 1935.6783,-146.3273"/>
</g>
<!-- Node35 -->
<g id="node36" class="node">
<title>Node35</title>
<polygon fill="none" stroke="#bfbfbf" points="1848,-118 1848,-137 1905,-137 1905,-118 1848,-118"/>
<text text-anchor="middle" x="1876.5" y="-125" font-family="Helvetica,sans-Serif" font-size="10.00" fill="#000000">typeinfo</text>
</g>
<!-- Node33&#45;&gt;Node35 -->
<g id="edge52" class="edge">
<title>Node33&#45;&gt;Node35</title>
<path fill="none" stroke="#191970" d="M1876.5,-179.2967C1876.5,-169.7699 1876.5,-157.3954 1876.5,-147.1306"/>
<polygon fill="#191970" stroke="#191970" points="1880.0001,-147.0549 1876.5,-137.055 1873.0001,-147.055 1880.0001,-147.0549"/>
</g>
<!-- Node46&#45;&gt;Node36 -->
<g id="edge67" class="edge">
<title>Node46&#45;&gt;Node36</title>
<path fill="none" stroke="#191970" d="M2360.0289,-369.2455C2363.5334,-361.6973 2368.4927,-351.0158 2372.7623,-341.8197"/>
<polygon fill="#191970" stroke="#191970" points="2375.9864,-343.1867 2377.023,-332.6427 2369.6373,-340.2389 2375.9864,-343.1867"/>
</g>
</g>
</svg>
