<?xml version="1.0" encoding="UTF-8" standalone="no"?>
<!DOCTYPE svg PUBLIC "-//W3C//DTD SVG 1.1//EN"
 "http://www.w3.org/Graphics/SVG/1.1/DTD/svg11.dtd">
<!-- Generated by graphviz version 2.40.1 (20161225.0304)
 -->
<!-- Title: /home/travis/build/AliceO2Group/AliceO2/Detectors/EMCAL/simulation/include/EMCALSimulation/Detector.h Pages: 1 -->
<svg width="2595pt" height="374pt"
 viewBox="0.00 0.00 2595.00 374.00" xmlns="http://www.w3.org/2000/svg" xmlns:xlink="http://www.w3.org/1999/xlink">
<g id="graph0" class="graph" transform="scale(1 1) rotate(0) translate(4 370)">
<title>/home/travis/build/AliceO2Group/AliceO2/Detectors/EMCAL/simulation/include/EMCALSimulation/Detector.h</title>
<!-- Node0 -->
<g id="node1" class="node">
<title>Node0</title>
<polygon fill="#bfbfbf" stroke="#000000" points="1888.5,-313.5 1888.5,-365.5 2085.5,-365.5 2085.5,-313.5 1888.5,-313.5"/>
<text text-anchor="start" x="1896.5" y="-353.5" font-family="Helvetica,sans-Serif" font-size="10.00" fill="#000000">/home/travis/build</text>
<text text-anchor="start" x="1896.5" y="-342.5" font-family="Helvetica,sans-Serif" font-size="10.00" fill="#000000">/AliceO2Group/AliceO2</text>
<text text-anchor="start" x="1896.5" y="-331.5" font-family="Helvetica,sans-Serif" font-size="10.00" fill="#000000">/Detectors/EMCAL/simulation</text>
<text text-anchor="middle" x="1987" y="-320.5" font-family="Helvetica,sans-Serif" font-size="10.00" fill="#000000">/include/EMCALSimulation/Detector.h</text>
</g>
<!-- Node1 -->
<g id="node2" class="node">
<title>Node1</title>
<g id="a_node2"><a xlink:href="../../d1/d3a/Base_2include_2DetectorsBase_2Detector_8h.html" target="_top" xlink:title="DetectorsBase/Detector.h">
<polygon fill="none" stroke="#000000" points="1574.5,-257.5 1574.5,-276.5 1715.5,-276.5 1715.5,-257.5 1574.5,-257.5"/>
<text text-anchor="middle" x="1645" y="-264.5" font-family="Helvetica,sans-Serif" font-size="10.00" fill="#000000">DetectorsBase/Detector.h</text>
</a>
</g>
</g>
<!-- Node0&#45;&gt;Node1 -->
<g id="edge1" class="edge">
<title>Node0&#45;&gt;Node1</title>
<path fill="none" stroke="#191970" d="M1888.0794,-318.53C1826.9896,-305.5797 1750.8769,-289.4447 1700.2603,-278.7145"/>
<polygon fill="#191970" stroke="#191970" points="1700.6835,-275.2266 1690.1751,-276.5766 1699.2318,-282.0744 1700.6835,-275.2266"/>
</g>
<!-- Node3 -->
<g id="node4" class="node">
<title>Node3</title>
<polygon fill="none" stroke="#bfbfbf" points="1117.5,-196 1117.5,-215 1164.5,-215 1164.5,-196 1117.5,-196"/>
<text text-anchor="middle" x="1141" y="-203" font-family="Helvetica,sans-Serif" font-size="10.00" fill="#000000">vector</text>
</g>
<!-- Node0&#45;&gt;Node3 -->
<g id="edge52" class="edge">
<title>Node0&#45;&gt;Node3</title>
<path fill="none" stroke="#191970" d="M1888.3444,-336.6279C1731.9117,-329.5685 1419.0646,-305.1816 1169,-221 1167.7559,-220.5812 1166.503,-220.1077 1165.2535,-219.5931"/>
<polygon fill="#191970" stroke="#191970" points="1166.4685,-216.2923 1155.9441,-215.0721 1163.4105,-222.5891 1166.4685,-216.2923"/>
</g>
<!-- Node9 -->
<g id="node10" class="node">
<title>Node9</title>
<polygon fill="none" stroke="#bfbfbf" points="1803.5,-73 1803.5,-92 1862.5,-92 1862.5,-73 1803.5,-73"/>
<text text-anchor="middle" x="1833" y="-80" font-family="Helvetica,sans-Serif" font-size="10.00" fill="#000000">Rtypes.h</text>
</g>
<!-- Node0&#45;&gt;Node9 -->
<g id="edge51" class="edge">
<title>Node0&#45;&gt;Node9</title>
<path fill="none" stroke="#191970" d="M2085.5178,-327.9646C2178.0441,-316.213 2309.197,-296.9299 2357,-277 2404.9326,-257.0161 2465.8202,-231.7972 2435,-190 2385.0252,-122.2262 2336.3411,-151.6268 2254,-134 2115.885,-104.4337 1948.3845,-90.2611 1873.0759,-85.0129"/>
<polygon fill="#191970" stroke="#191970" points="1872.863,-81.4904 1862.6482,-84.3026 1872.3872,-88.4742 1872.863,-81.4904"/>
</g>
<!-- Node10 -->
<g id="node11" class="node">
<title>Node10</title>
<polygon fill="none" stroke="#bfbfbf" points="2151.5,-134.5 2151.5,-153.5 2244.5,-153.5 2244.5,-134.5 2151.5,-134.5"/>
<text text-anchor="middle" x="2198" y="-141.5" font-family="Helvetica,sans-Serif" font-size="10.00" fill="#000000">unordered_map</text>
</g>
<!-- Node0&#45;&gt;Node10 -->
<g id="edge53" class="edge">
<title>Node0&#45;&gt;Node10</title>
<path fill="none" stroke="#191970" d="M2085.6188,-326.6761C2200.3622,-309.4468 2379.1193,-274.6454 2418,-221 2426.0854,-209.8442 2426.6884,-200.6929 2418,-190 2397.8048,-165.1454 2313.0602,-153.2521 2254.8457,-147.9172"/>
<polygon fill="#191970" stroke="#191970" points="2254.9338,-144.4116 2244.6665,-147.0257 2254.3231,-151.3849 2254.9338,-144.4116"/>
</g>
<!-- Node27 -->
<g id="node28" class="node">
<title>Node27</title>
<g id="a_node28"><a xlink:href="../../d8/d16/Detectors_2EMCAL_2base_2include_2EMCALBase_2Hit_8h.html" target="_top" xlink:title="EMCALBase/Hit.h">
<polygon fill="none" stroke="#000000" points="969,-257.5 969,-276.5 1069,-276.5 1069,-257.5 969,-257.5"/>
<text text-anchor="middle" x="1019" y="-264.5" font-family="Helvetica,sans-Serif" font-size="10.00" fill="#000000">EMCALBase/Hit.h</text>
</a>
</g>
</g>
<!-- Node0&#45;&gt;Node27 -->
<g id="edge32" class="edge">
<title>Node0&#45;&gt;Node27</title>
<path fill="none" stroke="#191970" d="M1888.4064,-332.1157C1688.7381,-317.1612 1241.7785,-283.6854 1079.4145,-271.5248"/>
<polygon fill="#191970" stroke="#191970" points="1079.3706,-268.0118 1069.1371,-270.7551 1078.8478,-274.9923 1079.3706,-268.0118"/>
</g>
<!-- Node29 -->
<g id="node30" class="node">
<title>Node29</title>
<g id="a_node30"><a xlink:href="../../dd/d76/Cartesian3D_8h.html" target="_top" xlink:title="MathUtils/Cartesian3D.h">
<polygon fill="none" stroke="#000000" points="697.5,-134.5 697.5,-153.5 832.5,-153.5 832.5,-134.5 697.5,-134.5"/>
<text text-anchor="middle" x="765" y="-141.5" font-family="Helvetica,sans-Serif" font-size="10.00" fill="#000000">MathUtils/Cartesian3D.h</text>
</a>
</g>
</g>
<!-- Node0&#45;&gt;Node29 -->
<g id="edge49" class="edge">
<title>Node0&#45;&gt;Node29</title>
<path fill="none" stroke="#191970" d="M1888.3559,-336.6043C1666.9596,-329.6008 1136.1483,-309.8581 960,-277 879.3055,-261.9475 840.0932,-280.931 784,-221 769.5668,-205.5793 765.6087,-180.9918 764.7543,-163.7602"/>
<polygon fill="#191970" stroke="#191970" points="768.252,-163.6006 764.5622,-153.6691 761.2533,-163.7339 768.252,-163.6006"/>
</g>
<!-- Node39 -->
<g id="node40" class="node">
<title>Node39</title>
<g id="a_node40"><a xlink:href="../../d5/d5e/GeometryBase_8h.html" target="_top" xlink:title="EMCALBase/GeometryBase.h">
<polygon fill="none" stroke="#000000" points="2080,-257.5 2080,-276.5 2238,-276.5 2238,-257.5 2080,-257.5"/>
<text text-anchor="middle" x="2159" y="-264.5" font-family="Helvetica,sans-Serif" font-size="10.00" fill="#000000">EMCALBase/GeometryBase.h</text>
</a>
</g>
</g>
<!-- Node0&#45;&gt;Node39 -->
<g id="edge47" class="edge">
<title>Node0&#45;&gt;Node39</title>
<path fill="none" stroke="#191970" d="M2049.0959,-313.3258C2075.4647,-302.2111 2105.0903,-289.7236 2126.9329,-280.5167"/>
<polygon fill="#191970" stroke="#191970" points="2128.526,-283.6434 2136.3814,-276.534 2125.8071,-277.193 2128.526,-283.6434"/>
</g>
<!-- Node40 -->
<g id="node41" class="node">
<title>Node40</title>
<polygon fill="none" stroke="#bfbfbf" points="2503,-257.5 2503,-276.5 2587,-276.5 2587,-257.5 2503,-257.5"/>
<text text-anchor="middle" x="2545" y="-264.5" font-family="Helvetica,sans-Serif" font-size="10.00" fill="#000000">RStringView.h</text>
</g>
<!-- Node0&#45;&gt;Node40 -->
<g id="edge50" class="edge">
<title>Node0&#45;&gt;Node40</title>
<path fill="none" stroke="#191970" d="M2085.7987,-328.7604C2187.1902,-317.3729 2349.4116,-298.1377 2489,-277 2490.2633,-276.8087 2491.542,-276.6112 2492.8312,-276.4086"/>
<polygon fill="#191970" stroke="#191970" points="2493.5368,-279.8398 2502.8422,-274.7743 2492.4089,-272.9313 2493.5368,-279.8398"/>
</g>
<!-- Node2 -->
<g id="node3" class="node">
<title>Node2</title>
<polygon fill="none" stroke="#bfbfbf" points="1892,-134.5 1892,-153.5 1930,-153.5 1930,-134.5 1892,-134.5"/>
<text text-anchor="middle" x="1911" y="-141.5" font-family="Helvetica,sans-Serif" font-size="10.00" fill="#000000">map</text>
</g>
<!-- Node1&#45;&gt;Node2 -->
<g id="edge2" class="edge">
<title>Node1&#45;&gt;Node2</title>
<path fill="none" stroke="#191970" d="M1715.8415,-260.7561C1798.4353,-252.7458 1925.5676,-237.8573 1940,-221 1954.7148,-203.8129 1940.1197,-178.4175 1926.8507,-161.5503"/>
<polygon fill="#191970" stroke="#191970" points="1929.2965,-159.0192 1920.195,-153.5959 1923.9279,-163.5113 1929.2965,-159.0192"/>
</g>
<!-- Node1&#45;&gt;Node3 -->
<g id="edge3" class="edge">
<title>Node1&#45;&gt;Node3</title>
<path fill="none" stroke="#191970" d="M1574.1926,-262.5205C1462.8481,-255.0529 1251.9923,-239.0826 1179,-221 1176.3676,-220.3479 1173.678,-219.547 1171.0063,-218.6561"/>
<polygon fill="#191970" stroke="#191970" points="1172.1366,-215.3423 1161.5437,-215.1397 1169.6982,-221.9039 1172.1366,-215.3423"/>
</g>
<!-- Node4 -->
<g id="node5" class="node">
<title>Node4</title>
<polygon fill="none" stroke="#bfbfbf" points="1643.5,-134.5 1643.5,-153.5 1726.5,-153.5 1726.5,-134.5 1643.5,-134.5"/>
<text text-anchor="middle" x="1685" y="-141.5" font-family="Helvetica,sans-Serif" font-size="10.00" fill="#000000">initializer_list</text>
</g>
<!-- Node1&#45;&gt;Node4 -->
<g id="edge4" class="edge">
<title>Node1&#45;&gt;Node4</title>
<path fill="none" stroke="#191970" d="M1646.7791,-257.3502C1649.6325,-242.6001 1655.759,-213.6658 1664,-190 1667.2019,-180.8051 1671.5709,-170.9436 1675.4948,-162.7189"/>
<polygon fill="#191970" stroke="#191970" points="1678.6808,-164.1713 1679.952,-153.653 1672.399,-161.0829 1678.6808,-164.1713"/>
</g>
<!-- Node5 -->
<g id="node6" class="node">
<title>Node5</title>
<polygon fill="none" stroke="#bfbfbf" points="1873,-196 1873,-215 1931,-215 1931,-196 1873,-196"/>
<text text-anchor="middle" x="1902" y="-203" font-family="Helvetica,sans-Serif" font-size="10.00" fill="#000000">memory</text>
</g>
<!-- Node1&#45;&gt;Node5 -->
<g id="edge5" class="edge">
<title>Node1&#45;&gt;Node5</title>
<path fill="none" stroke="#191970" d="M1703.5115,-257.4493C1747.7974,-249.5501 1809.8609,-237.0385 1863,-221 1865.4413,-220.2632 1867.9441,-219.4381 1870.4458,-218.5626"/>
<polygon fill="#191970" stroke="#191970" points="1871.8103,-221.7894 1879.9579,-215.0169 1869.3652,-215.2303 1871.8103,-221.7894"/>
</g>
<!-- Node6 -->
<g id="node7" class="node">
<title>Node6</title>
<polygon fill="none" stroke="#bfbfbf" points="1987,-196 1987,-215 2071,-215 2071,-196 1987,-196"/>
<text text-anchor="middle" x="2029" y="-203" font-family="Helvetica,sans-Serif" font-size="10.00" fill="#000000">FairDetector.h</text>
</g>
<!-- Node1&#45;&gt;Node6 -->
<g id="edge6" class="edge">
<title>Node1&#45;&gt;Node6</title>
<path fill="none" stroke="#191970" d="M1715.5197,-259.8084C1782.255,-252.3676 1885.029,-239.2617 1973,-221 1977.6917,-220.0261 1982.5702,-218.8799 1987.4048,-217.659"/>
<polygon fill="#191970" stroke="#191970" points="1988.4151,-221.0124 1997.1927,-215.0791 1986.6309,-214.2435 1988.4151,-221.0124"/>
</g>
<!-- Node7 -->
<g id="node8" class="node">
<title>Node7</title>
<polygon fill="none" stroke="#bfbfbf" points="2089,-196 2089,-215 2195,-215 2195,-196 2089,-196"/>
<text text-anchor="middle" x="2142" y="-203" font-family="Helvetica,sans-Serif" font-size="10.00" fill="#000000">FairRootManager.h</text>
</g>
<!-- Node1&#45;&gt;Node7 -->
<g id="edge7" class="edge">
<title>Node1&#45;&gt;Node7</title>
<path fill="none" stroke="#191970" d="M1715.87,-262.5583C1802.32,-256.4394 1952.6874,-243.5319 2080,-221 2085.7392,-219.9843 2091.7337,-218.7327 2097.6371,-217.3849"/>
<polygon fill="#191970" stroke="#191970" points="2098.5096,-220.7751 2107.4247,-215.0504 2096.8855,-213.9661 2098.5096,-220.7751"/>
</g>
<!-- Node8 -->
<g id="node9" class="node">
<title>Node8</title>
<g id="a_node9"><a xlink:href="../../d0/d9a/MaterialManager_8h.html" target="_top" xlink:title="DetectorsBase/MaterialManager.h">
<polygon fill="none" stroke="#000000" points="1673.5,-196 1673.5,-215 1854.5,-215 1854.5,-196 1673.5,-196"/>
<text text-anchor="middle" x="1764" y="-203" font-family="Helvetica,sans-Serif" font-size="10.00" fill="#000000">DetectorsBase/MaterialManager.h</text>
</a>
</g>
</g>
<!-- Node1&#45;&gt;Node8 -->
<g id="edge8" class="edge">
<title>Node1&#45;&gt;Node8</title>
<path fill="none" stroke="#191970" d="M1663.5938,-257.3906C1683.1553,-247.2811 1714.1501,-231.2628 1736.5309,-219.6962"/>
<polygon fill="#191970" stroke="#191970" points="1738.26,-222.7425 1745.5368,-215.0419 1735.0461,-216.5238 1738.26,-222.7425"/>
</g>
<!-- Node1&#45;&gt;Node9 -->
<g id="edge14" class="edge">
<title>Node1&#45;&gt;Node9</title>
<path fill="none" stroke="#191970" d="M1640.1681,-257.3351C1628.9901,-233.4501 1604.4738,-170.9078 1634,-134 1679.5333,-77.0833 1724.3624,-119.5265 1794,-98 1796.2906,-97.2919 1798.6367,-96.5098 1800.9862,-95.6843"/>
<polygon fill="#191970" stroke="#191970" points="1802.3832,-98.8989 1810.5303,-92.1257 1799.9376,-92.34 1802.3832,-98.8989"/>
</g>
<!-- Node12 -->
<g id="node13" class="node">
<title>Node12</title>
<polygon fill="none" stroke="#bfbfbf" points="2213,-196 2213,-215 2271,-215 2271,-196 2213,-196"/>
<text text-anchor="middle" x="2242" y="-203" font-family="Helvetica,sans-Serif" font-size="10.00" fill="#000000">cxxabi.h</text>
</g>
<!-- Node1&#45;&gt;Node12 -->
<g id="edge15" class="edge">
<title>Node1&#45;&gt;Node12</title>
<path fill="none" stroke="#191970" d="M1715.5482,-263.8766C1844.4533,-257.7251 2113.1405,-242.725 2204,-221 2206.7935,-220.3321 2209.6495,-219.4901 2212.479,-218.5456"/>
<polygon fill="#191970" stroke="#191970" points="2213.7224,-221.8174 2221.868,-215.0425 2211.2754,-215.259 2213.7224,-221.8174"/>
</g>
<!-- Node13 -->
<g id="node14" class="node">
<title>Node13</title>
<polygon fill="none" stroke="#bfbfbf" points="2289.5,-196 2289.5,-215 2346.5,-215 2346.5,-196 2289.5,-196"/>
<text text-anchor="middle" x="2318" y="-203" font-family="Helvetica,sans-Serif" font-size="10.00" fill="#000000">typeinfo</text>
</g>
<!-- Node1&#45;&gt;Node13 -->
<g id="edge16" class="edge">
<title>Node1&#45;&gt;Node13</title>
<path fill="none" stroke="#191970" d="M1715.6402,-264.6799C1857.9305,-259.548 2174.4591,-245.6899 2280,-221 2282.7967,-220.3457 2285.6549,-219.5132 2288.4859,-218.5747"/>
<polygon fill="#191970" stroke="#191970" points="2289.725,-221.8482 2297.8772,-215.0811 2287.2843,-215.2874 2289.725,-221.8482"/>
</g>
<!-- Node14 -->
<g id="node15" class="node">
<title>Node14</title>
<polygon fill="none" stroke="#bfbfbf" points="1221.5,-196 1221.5,-215 1290.5,-215 1290.5,-196 1221.5,-196"/>
<text text-anchor="middle" x="1256" y="-203" font-family="Helvetica,sans-Serif" font-size="10.00" fill="#000000">type_traits</text>
</g>
<!-- Node1&#45;&gt;Node14 -->
<g id="edge17" class="edge">
<title>Node1&#45;&gt;Node14</title>
<path fill="none" stroke="#191970" d="M1574.1788,-261.8526C1503.883,-255.742 1393.4224,-243.4293 1300,-221 1296.7712,-220.2248 1293.448,-219.3003 1290.1434,-218.2943"/>
<polygon fill="#191970" stroke="#191970" points="1290.9917,-214.8892 1280.399,-215.0992 1288.8107,-221.5407 1290.9917,-214.8892"/>
</g>
<!-- Node15 -->
<g id="node16" class="node">
<title>Node15</title>
<polygon fill="none" stroke="#bfbfbf" points="2365,-196 2365,-215 2409,-215 2409,-196 2365,-196"/>
<text text-anchor="middle" x="2387" y="-203" font-family="Helvetica,sans-Serif" font-size="10.00" fill="#000000">string</text>
</g>
<!-- Node1&#45;&gt;Node15 -->
<g id="edge18" class="edge">
<title>Node1&#45;&gt;Node15</title>
<path fill="none" stroke="#191970" d="M1715.6226,-265.9848C1870.7166,-263.1795 2236.7434,-253.2525 2356,-221 2357.7171,-220.5356 2359.4511,-219.9718 2361.1751,-219.3376"/>
<polygon fill="#191970" stroke="#191970" points="2362.999,-222.3597 2370.7534,-215.1403 2360.1894,-215.9483 2362.999,-222.3597"/>
</g>
<!-- Node16 -->
<g id="node17" class="node">
<title>Node16</title>
<polygon fill="none" stroke="#bfbfbf" points="1309,-196 1309,-215 1383,-215 1383,-196 1309,-196"/>
<text text-anchor="middle" x="1346" y="-203" font-family="Helvetica,sans-Serif" font-size="10.00" fill="#000000">TMessage.h</text>
</g>
<!-- Node1&#45;&gt;Node16 -->
<g id="edge19" class="edge">
<title>Node1&#45;&gt;Node16</title>
<path fill="none" stroke="#191970" d="M1577.5726,-257.4686C1526.2683,-249.5603 1454.1415,-237.0283 1392,-221 1388.6339,-220.1318 1385.1583,-219.1409 1381.6958,-218.0895"/>
<polygon fill="#191970" stroke="#191970" points="1382.6651,-214.725 1372.0743,-215.0174 1380.5359,-221.3933 1382.6651,-214.725"/>
</g>
<!-- Node17 -->
<g id="node18" class="node">
<title>Node17</title>
<g id="a_node18"><a xlink:href="../../de/d61/ShmManager_8h.html" target="_top" xlink:title="CommonUtils/ShmManager.h">
<polygon fill="none" stroke="#000000" points="1421,-134.5 1421,-153.5 1579,-153.5 1579,-134.5 1421,-134.5"/>
<text text-anchor="middle" x="1500" y="-141.5" font-family="Helvetica,sans-Serif" font-size="10.00" fill="#000000">CommonUtils/ShmManager.h</text>
</a>
</g>
</g>
<!-- Node1&#45;&gt;Node17 -->
<g id="edge20" class="edge">
<title>Node1&#45;&gt;Node17</title>
<path fill="none" stroke="#191970" d="M1633.6221,-257.3484C1608.8459,-236.3314 1549.7856,-186.2319 1519.1576,-160.251"/>
<polygon fill="#191970" stroke="#191970" points="1521.2151,-157.4066 1511.3251,-153.6068 1516.6868,-162.7447 1521.2151,-157.4066"/>
</g>
<!-- Node23 -->
<g id="node24" class="node">
<title>Node23</title>
<g id="a_node24"><a xlink:href="../../d0/d91/ShmAllocator_8h.html" target="_top" xlink:title="CommonUtils/ShmAllocator.h">
<polygon fill="none" stroke="#000000" points="939,-196 939,-215 1099,-215 1099,-196 939,-196"/>
<text text-anchor="middle" x="1019" y="-203" font-family="Helvetica,sans-Serif" font-size="10.00" fill="#000000">CommonUtils/ShmAllocator.h</text>
</a>
</g>
</g>
<!-- Node1&#45;&gt;Node23 -->
<g id="edge26" class="edge">
<title>Node1&#45;&gt;Node23</title>
<path fill="none" stroke="#191970" d="M1574.4219,-262.9175C1471.5603,-256.523 1274.5649,-242.5967 1108,-221 1098.6495,-219.7876 1088.7826,-218.2899 1079.1574,-216.7077"/>
<polygon fill="#191970" stroke="#191970" points="1079.6891,-213.248 1069.2463,-215.0367 1078.5252,-220.1506 1079.6891,-213.248"/>
</g>
<!-- Node24 -->
<g id="node25" class="node">
<title>Node24</title>
<polygon fill="none" stroke="#bfbfbf" points="1080,-134.5 1080,-153.5 1132,-153.5 1132,-134.5 1080,-134.5"/>
<text text-anchor="middle" x="1106" y="-141.5" font-family="Helvetica,sans-Serif" font-size="10.00" fill="#000000">cassert</text>
</g>
<!-- Node1&#45;&gt;Node24 -->
<g id="edge31" class="edge">
<title>Node1&#45;&gt;Node24</title>
<path fill="none" stroke="#191970" d="M1574.2029,-264.2672C1468.7118,-259.3905 1275.8355,-247.1446 1212,-221 1191.5099,-212.608 1190.8045,-203.1632 1173,-190 1158.6195,-179.3682 1142.0546,-167.9879 1128.9937,-159.2066"/>
<polygon fill="#191970" stroke="#191970" points="1130.8399,-156.2308 1120.5811,-153.5835 1126.95,-162.0505 1130.8399,-156.2308"/>
</g>
<!-- Node25 -->
<g id="node26" class="node">
<title>Node25</title>
<polygon fill="none" stroke="#bfbfbf" points="1401,-196 1401,-215 1467,-215 1467,-196 1401,-196"/>
<text text-anchor="middle" x="1434" y="-203" font-family="Helvetica,sans-Serif" font-size="10.00" fill="#000000">sys/shm.h</text>
</g>
<!-- Node1&#45;&gt;Node25 -->
<g id="edge29" class="edge">
<title>Node1&#45;&gt;Node25</title>
<path fill="none" stroke="#191970" d="M1606.1223,-257.452C1571.6844,-248.7495 1520.1664,-235.1305 1476,-221 1473.4507,-220.1844 1470.8272,-219.3077 1468.1957,-218.4012"/>
<polygon fill="#191970" stroke="#191970" points="1469.3433,-215.0946 1458.7485,-215.0432 1466.9988,-221.6903 1469.3433,-215.0946"/>
</g>
<!-- Node26 -->
<g id="node27" class="node">
<title>Node26</title>
<polygon fill="none" stroke="#bfbfbf" points="1485,-196 1485,-215 1541,-215 1541,-196 1485,-196"/>
<text text-anchor="middle" x="1513" y="-203" font-family="Helvetica,sans-Serif" font-size="10.00" fill="#000000">unistd.h</text>
</g>
<!-- Node1&#45;&gt;Node26 -->
<g id="edge30" class="edge">
<title>Node1&#45;&gt;Node26</title>
<path fill="none" stroke="#191970" d="M1624.375,-257.3906C1602.4827,-247.1908 1567.6807,-230.9763 1542.8073,-219.3875"/>
<polygon fill="#191970" stroke="#191970" points="1544.0228,-216.0926 1533.4802,-215.0419 1541.0665,-222.4377 1544.0228,-216.0926"/>
</g>
<!-- Node8&#45;&gt;Node2 -->
<g id="edge10" class="edge">
<title>Node8&#45;&gt;Node2</title>
<path fill="none" stroke="#191970" d="M1786.9688,-195.8906C1812.7152,-185.1191 1854.4951,-167.6398 1882.3544,-155.9844"/>
<polygon fill="#191970" stroke="#191970" points="1884.0587,-159.0654 1891.933,-151.977 1881.357,-152.6078 1884.0587,-159.0654"/>
</g>
<!-- Node8&#45;&gt;Node4 -->
<g id="edge12" class="edge">
<title>Node8&#45;&gt;Node4</title>
<path fill="none" stroke="#191970" d="M1751.6563,-195.8906C1739.2497,-186.2324 1719.9157,-171.1812 1705.2587,-159.771"/>
<polygon fill="#191970" stroke="#191970" points="1707.2979,-156.923 1697.2571,-153.5419 1702.9979,-162.4466 1707.2979,-156.923"/>
</g>
<!-- Node8&#45;&gt;Node9 -->
<g id="edge9" class="edge">
<title>Node8&#45;&gt;Node9</title>
<path fill="none" stroke="#191970" d="M1769.4143,-195.8484C1780.8517,-175.4601 1807.6421,-127.7033 1822.5401,-101.1459"/>
<polygon fill="#191970" stroke="#191970" points="1825.7708,-102.5406 1827.6108,-92.1068 1819.6658,-99.1158 1825.7708,-102.5406"/>
</g>
<!-- Node8&#45;&gt;Node10 -->
<g id="edge11" class="edge">
<title>Node8&#45;&gt;Node10</title>
<path fill="none" stroke="#191970" d="M1824.2585,-195.9912C1837.3539,-193.972 1851.1364,-191.8826 1864,-190 1961.3065,-175.759 2074.7512,-160.3973 2141.2389,-151.5199"/>
<polygon fill="#191970" stroke="#191970" points="2142.0474,-154.9431 2151.497,-150.152 2141.1221,-148.0046 2142.0474,-154.9431"/>
</g>
<!-- Node11 -->
<g id="node12" class="node">
<title>Node11</title>
<polygon fill="none" stroke="#bfbfbf" points="1665.5,-73 1665.5,-92 1714.5,-92 1714.5,-73 1665.5,-73"/>
<text text-anchor="middle" x="1690" y="-80" font-family="Helvetica,sans-Serif" font-size="10.00" fill="#000000">iosfwd</text>
</g>
<!-- Node8&#45;&gt;Node11 -->
<g id="edge13" class="edge">
<title>Node8&#45;&gt;Node11</title>
<path fill="none" stroke="#191970" d="M1761.1915,-195.7659C1756.8412,-181.5405 1747.6384,-154.5339 1735,-134 1727.3178,-121.5186 1716.5817,-109.1001 1707.5228,-99.5859"/>
<polygon fill="#191970" stroke="#191970" points="1709.9138,-97.0253 1700.4116,-92.3393 1704.9176,-101.9282 1709.9138,-97.0253"/>
</g>
<!-- Node18 -->
<g id="node19" class="node">
<title>Node18</title>
<polygon fill="none" stroke="#bfbfbf" points="1615,-73 1615,-92 1647,-92 1647,-73 1615,-73"/>
<text text-anchor="middle" x="1631" y="-80" font-family="Helvetica,sans-Serif" font-size="10.00" fill="#000000">list</text>
</g>
<!-- Node17&#45;&gt;Node18 -->
<g id="edge21" class="edge">
<title>Node17&#45;&gt;Node18</title>
<path fill="none" stroke="#191970" d="M1524.8926,-134.3943C1546.6808,-125.7062 1578.9845,-112.1408 1606,-98 1606.5373,-97.7188 1607.0785,-97.4303 1607.6222,-97.1358"/>
<polygon fill="#191970" stroke="#191970" points="1609.5077,-100.0884 1616.4018,-92.0434 1605.9955,-94.0332 1609.5077,-100.0884"/>
</g>
<!-- Node19 -->
<g id="node20" class="node">
<title>Node19</title>
<polygon fill="none" stroke="#bfbfbf" points="1732.5,-73 1732.5,-92 1785.5,-92 1785.5,-73 1732.5,-73"/>
<text text-anchor="middle" x="1759" y="-80" font-family="Helvetica,sans-Serif" font-size="10.00" fill="#000000">cstddef</text>
</g>
<!-- Node17&#45;&gt;Node19 -->
<g id="edge22" class="edge">
<title>Node17&#45;&gt;Node19</title>
<path fill="none" stroke="#191970" d="M1563.3504,-134.4615C1608.4674,-126.8181 1670.2116,-114.6188 1723,-98 1725.1095,-97.3359 1727.2635,-96.5906 1729.4169,-95.7954"/>
<polygon fill="#191970" stroke="#191970" points="1730.7212,-99.0434 1738.7124,-92.0871 1728.1273,-92.5417 1730.7212,-99.0434"/>
</g>
<!-- Node20 -->
<g id="node21" class="node">
<title>Node20</title>
<polygon fill="none" stroke="#bfbfbf" points="1211,-73 1211,-92 1261,-92 1261,-73 1211,-73"/>
<text text-anchor="middle" x="1236" y="-80" font-family="Helvetica,sans-Serif" font-size="10.00" fill="#000000">atomic</text>
</g>
<!-- Node17&#45;&gt;Node20 -->
<g id="edge23" class="edge">
<title>Node17&#45;&gt;Node20</title>
<path fill="none" stroke="#191970" d="M1431.0133,-134.4609C1384.7694,-127.0353 1322.8914,-115.0923 1270,-98 1268.1481,-97.4016 1266.2634,-96.7305 1264.3789,-96.0121"/>
<polygon fill="#191970" stroke="#191970" points="1265.6883,-92.766 1255.1119,-92.1421 1262.9908,-99.2254 1265.6883,-92.766"/>
</g>
<!-- Node21 -->
<g id="node22" class="node">
<title>Node21</title>
<polygon fill="none" stroke="#bfbfbf" points="1279.5,-67.5 1279.5,-97.5 1444.5,-97.5 1444.5,-67.5 1279.5,-67.5"/>
<text text-anchor="start" x="1287.5" y="-85.5" font-family="Helvetica,sans-Serif" font-size="10.00" fill="#000000">boost/interprocess</text>
<text text-anchor="middle" x="1362" y="-74.5" font-family="Helvetica,sans-Serif" font-size="10.00" fill="#000000">/managed_external_buffer.hpp</text>
</g>
<!-- Node17&#45;&gt;Node21 -->
<g id="edge24" class="edge">
<title>Node17&#45;&gt;Node21</title>
<path fill="none" stroke="#191970" d="M1478.4375,-134.3906C1458.8962,-125.682 1429.5163,-112.5888 1405.1584,-101.7336"/>
<polygon fill="#191970" stroke="#191970" points="1406.3174,-98.4183 1395.7586,-97.5446 1403.4679,-104.8122 1406.3174,-98.4183"/>
</g>
<!-- Node22 -->
<g id="node23" class="node">
<title>Node22</title>
<polygon fill="none" stroke="#bfbfbf" points="1463,-67.5 1463,-97.5 1597,-97.5 1597,-67.5 1463,-67.5"/>
<text text-anchor="start" x="1471" y="-85.5" font-family="Helvetica,sans-Serif" font-size="10.00" fill="#000000">boost/interprocess</text>
<text text-anchor="middle" x="1530" y="-74.5" font-family="Helvetica,sans-Serif" font-size="10.00" fill="#000000">/allocators/allocator.hpp</text>
</g>
<!-- Node17&#45;&gt;Node22 -->
<g id="edge25" class="edge">
<title>Node17&#45;&gt;Node22</title>
<path fill="none" stroke="#191970" d="M1504.6875,-134.3906C1508.2965,-126.9922 1513.4492,-116.4291 1518.1647,-106.7623"/>
<polygon fill="#191970" stroke="#191970" points="1521.4226,-108.0668 1522.6612,-97.5446 1515.1312,-104.9978 1521.4226,-108.0668"/>
</g>
<!-- Node23&#45;&gt;Node17 -->
<g id="edge27" class="edge">
<title>Node23&#45;&gt;Node17</title>
<path fill="none" stroke="#191970" d="M1070.69,-195.997C1082.9031,-193.8907 1095.8942,-191.7631 1108,-190 1211.7165,-174.895 1331.4362,-161.4184 1411.0091,-153.0167"/>
<polygon fill="#191970" stroke="#191970" points="1411.4152,-156.4934 1420.9943,-151.9668 1410.6831,-149.5318 1411.4152,-156.4934"/>
</g>
<!-- Node23&#45;&gt;Node24 -->
<g id="edge28" class="edge">
<title>Node23&#45;&gt;Node24</title>
<path fill="none" stroke="#191970" d="M1032.5938,-195.8906C1046.3843,-186.1421 1067.9472,-170.8994 1084.141,-159.4521"/>
<polygon fill="#191970" stroke="#191970" points="1086.3563,-162.1723 1092.5017,-153.5419 1082.3156,-156.4563 1086.3563,-162.1723"/>
</g>
<!-- Node27&#45;&gt;Node23 -->
<g id="edge46" class="edge">
<title>Node27&#45;&gt;Node23</title>
<path fill="none" stroke="#191970" d="M1019,-257.3906C1019,-248.8657 1019,-236.1392 1019,-225.4235"/>
<polygon fill="#191970" stroke="#191970" points="1022.5001,-225.2448 1019,-215.2449 1015.5001,-225.2449 1022.5001,-225.2448"/>
</g>
<!-- Node28 -->
<g id="node29" class="node">
<title>Node28</title>
<g id="a_node29"><a xlink:href="../../d4/d25/BaseHits_8h.html" target="_top" xlink:title="SimulationDataFormat\l/BaseHits.h">
<polygon fill="none" stroke="#000000" points="793.5,-190.5 793.5,-220.5 920.5,-220.5 920.5,-190.5 793.5,-190.5"/>
<text text-anchor="start" x="801.5" y="-208.5" font-family="Helvetica,sans-Serif" font-size="10.00" fill="#000000">SimulationDataFormat</text>
<text text-anchor="middle" x="857" y="-197.5" font-family="Helvetica,sans-Serif" font-size="10.00" fill="#000000">/BaseHits.h</text>
</a>
</g>
</g>
<!-- Node27&#45;&gt;Node28 -->
<g id="edge33" class="edge">
<title>Node27&#45;&gt;Node28</title>
<path fill="none" stroke="#191970" d="M993.6875,-257.3906C970.3417,-248.5279 935.0338,-235.1239 906.1516,-224.1594"/>
<polygon fill="#191970" stroke="#191970" points="907.2209,-220.8217 896.6297,-220.5446 904.7364,-227.366 907.2209,-220.8217"/>
</g>
<!-- Node28&#45;&gt;Node29 -->
<g id="edge34" class="edge">
<title>Node28&#45;&gt;Node29</title>
<path fill="none" stroke="#191970" d="M834.2584,-190.2977C820.2033,-180.9022 802.217,-168.8787 788.0964,-159.4395"/>
<polygon fill="#191970" stroke="#191970" points="789.7143,-156.311 779.4556,-153.6633 785.8241,-162.1305 789.7143,-156.311"/>
</g>
<!-- Node29&#45;&gt;Node9 -->
<g id="edge40" class="edge">
<title>Node29&#45;&gt;Node9</title>
<path fill="none" stroke="#191970" d="M832.8846,-141.5868C1054.7695,-133.6174 1747.0664,-108.0764 1794,-98 1797.0365,-97.3481 1800.143,-96.4836 1803.212,-95.4953"/>
<polygon fill="#191970" stroke="#191970" points="1804.5537,-98.7317 1812.7562,-92.0257 1802.1621,-92.1529 1804.5537,-98.7317"/>
</g>
<!-- Node29&#45;&gt;Node11 -->
<g id="edge42" class="edge">
<title>Node29&#45;&gt;Node11</title>
<path fill="none" stroke="#191970" d="M832.6205,-141.9694C1026.7384,-135.9352 1576.911,-117.3257 1656,-98 1658.3395,-97.4283 1660.7156,-96.6965 1663.0683,-95.8629"/>
<polygon fill="#191970" stroke="#191970" points="1664.531,-99.0461 1672.4555,-92.0138 1661.8753,-92.5694 1664.531,-99.0461"/>
</g>
<!-- Node30 -->
<g id="node31" class="node">
<title>Node30</title>
<polygon fill="none" stroke="#bfbfbf" points="265,-67.5 265,-97.5 429,-97.5 429,-67.5 265,-67.5"/>
<text text-anchor="start" x="273" y="-85.5" font-family="Helvetica,sans-Serif" font-size="10.00" fill="#000000">Math/GenVector/Displacement</text>
<text text-anchor="middle" x="347" y="-74.5" font-family="Helvetica,sans-Serif" font-size="10.00" fill="#000000">Vector3D.h</text>
</g>
<!-- Node29&#45;&gt;Node30 -->
<g id="edge35" class="edge">
<title>Node29&#45;&gt;Node30</title>
<path fill="none" stroke="#191970" d="M697.278,-135.0555C633.3512,-126.4797 534.543,-112.8839 439.4073,-98.1952"/>
<polygon fill="#191970" stroke="#191970" points="439.7406,-94.7051 429.3225,-96.6318 438.6682,-101.6225 439.7406,-94.7051"/>
</g>
<!-- Node31 -->
<g id="node32" class="node">
<title>Node31</title>
<polygon fill="none" stroke="#bfbfbf" points="447.5,-73 447.5,-92 636.5,-92 636.5,-73 447.5,-73"/>
<text text-anchor="middle" x="542" y="-80" font-family="Helvetica,sans-Serif" font-size="10.00" fill="#000000">Math/GenVector/PositionVector3D.h</text>
</g>
<!-- Node29&#45;&gt;Node31 -->
<g id="edge36" class="edge">
<title>Node29&#45;&gt;Node31</title>
<path fill="none" stroke="#191970" d="M730.1563,-134.3906C691.3714,-123.6944 628.6023,-106.3836 586.3441,-94.7294"/>
<polygon fill="#191970" stroke="#191970" points="587.1697,-91.3265 576.5991,-92.0419 585.3087,-98.0746 587.1697,-91.3265"/>
</g>
<!-- Node32 -->
<g id="node33" class="node">
<title>Node32</title>
<polygon fill="none" stroke="#bfbfbf" points="655,-73 655,-92 815,-92 815,-73 655,-73"/>
<text text-anchor="middle" x="735" y="-80" font-family="Helvetica,sans-Serif" font-size="10.00" fill="#000000">Math/GenVector/Rotation3D.h</text>
</g>
<!-- Node29&#45;&gt;Node32 -->
<g id="edge37" class="edge">
<title>Node29&#45;&gt;Node32</title>
<path fill="none" stroke="#191970" d="M760.3125,-134.3906C756.0227,-125.5965 749.5518,-112.3312 744.2266,-101.4145"/>
<polygon fill="#191970" stroke="#191970" points="747.2836,-99.6981 739.7536,-92.2449 740.9922,-102.7671 747.2836,-99.6981"/>
</g>
<!-- Node33 -->
<g id="node34" class="node">
<title>Node33</title>
<polygon fill="none" stroke="#bfbfbf" points="833,-73 833,-92 1001,-92 1001,-73 833,-73"/>
<text text-anchor="middle" x="917" y="-80" font-family="Helvetica,sans-Serif" font-size="10.00" fill="#000000">Math/GenVector/Transform3D.h</text>
</g>
<!-- Node29&#45;&gt;Node33 -->
<g id="edge38" class="edge">
<title>Node29&#45;&gt;Node33</title>
<path fill="none" stroke="#191970" d="M788.75,-134.3906C814.2939,-124.0554 855.1009,-107.5447 883.811,-95.9284"/>
<polygon fill="#191970" stroke="#191970" points="885.4596,-99.0371 893.4168,-92.0419 882.834,-92.5481 885.4596,-99.0371"/>
</g>
<!-- Node34 -->
<g id="node35" class="node">
<title>Node34</title>
<polygon fill="none" stroke="#bfbfbf" points="1019.5,-73 1019.5,-92 1192.5,-92 1192.5,-73 1019.5,-73"/>
<text text-anchor="middle" x="1106" y="-80" font-family="Helvetica,sans-Serif" font-size="10.00" fill="#000000">Math/GenVector/Translation3D.h</text>
</g>
<!-- Node29&#45;&gt;Node34 -->
<g id="edge39" class="edge">
<title>Node29&#45;&gt;Node34</title>
<path fill="none" stroke="#191970" d="M817.9071,-134.4581C878.7254,-123.4894 978.4647,-105.5012 1043.1757,-93.8305"/>
<polygon fill="#191970" stroke="#191970" points="1044.0294,-97.2331 1053.2494,-92.0137 1042.7869,-90.3442 1044.0294,-97.2331"/>
</g>
<!-- Node35 -->
<g id="node36" class="node">
<title>Node35</title>
<polygon fill="none" stroke="#bfbfbf" points="11,-73 11,-92 93,-92 93,-73 11,-73"/>
<text text-anchor="middle" x="52" y="-80" font-family="Helvetica,sans-Serif" font-size="10.00" fill="#000000">TGeoMatrix.h</text>
</g>
<!-- Node29&#45;&gt;Node35 -->
<g id="edge41" class="edge">
<title>Node29&#45;&gt;Node35</title>
<path fill="none" stroke="#191970" d="M697.2668,-141.2907C552.0295,-135.1566 214.7045,-119.0843 102,-98 97.5586,-97.1691 92.9564,-96.0763 88.4233,-94.8547"/>
<polygon fill="#191970" stroke="#191970" points="89.2793,-91.4587 78.6997,-92.0262 87.3241,-98.1801 89.2793,-91.4587"/>
</g>
<!-- Node36 -->
<g id="node37" class="node">
<title>Node36</title>
<g id="a_node37"><a xlink:href="../../d2/dd0/Cartesian2D_8h.html" target="_top" xlink:title="MathUtils/Cartesian2D.h">
<polygon fill="none" stroke="#000000" points="111.5,-73 111.5,-92 246.5,-92 246.5,-73 111.5,-73"/>
<text text-anchor="middle" x="179" y="-80" font-family="Helvetica,sans-Serif" font-size="10.00" fill="#000000">MathUtils/Cartesian2D.h</text>
</a>
</g>
</g>
<!-- Node29&#45;&gt;Node36 -->
<g id="edge43" class="edge">
<title>Node29&#45;&gt;Node36</title>
<path fill="none" stroke="#191970" d="M697.212,-140.221C599.4017,-134.2368 413.1708,-120.8523 256,-98 248.2197,-96.8688 240.0382,-95.4609 232.0309,-93.9583"/>
<polygon fill="#191970" stroke="#191970" points="232.5081,-90.4857 222.0247,-92.0181 231.1756,-97.3577 232.5081,-90.4857"/>
</g>
<!-- Node37 -->
<g id="node38" class="node">
<title>Node37</title>
<polygon fill="none" stroke="#bfbfbf" points="0,-.5 0,-30.5 164,-30.5 164,-.5 0,-.5"/>
<text text-anchor="start" x="8" y="-18.5" font-family="Helvetica,sans-Serif" font-size="10.00" fill="#000000">Math/GenVector/Displacement</text>
<text text-anchor="middle" x="82" y="-7.5" font-family="Helvetica,sans-Serif" font-size="10.00" fill="#000000">Vector2D.h</text>
</g>
<!-- Node36&#45;&gt;Node37 -->
<g id="edge44" class="edge">
<title>Node36&#45;&gt;Node37</title>
<path fill="none" stroke="#191970" d="M165.1023,-72.9005C151.3265,-63.3853 129.7795,-48.5023 112.0779,-36.2755"/>
<polygon fill="#191970" stroke="#191970" points="113.9651,-33.3253 103.7479,-30.5218 109.9868,-39.0849 113.9651,-33.3253"/>
</g>
<!-- Node38 -->
<g id="node39" class="node">
<title>Node38</title>
<polygon fill="none" stroke="#bfbfbf" points="182.5,-6 182.5,-25 371.5,-25 371.5,-6 182.5,-6"/>
<text text-anchor="middle" x="277" y="-13" font-family="Helvetica,sans-Serif" font-size="10.00" fill="#000000">Math/GenVector/PositionVector2D.h</text>
</g>
<!-- Node36&#45;&gt;Node38 -->
<g id="edge45" class="edge">
<title>Node36&#45;&gt;Node38</title>
<path fill="none" stroke="#191970" d="M193.041,-72.9005C209.1238,-61.9052 235.6906,-43.7422 254.6316,-30.7927"/>
<polygon fill="#191970" stroke="#191970" points="256.7052,-33.6148 262.985,-25.0817 252.7545,-27.8362 256.7052,-33.6148"/>
</g>
<!-- Node39&#45;&gt;Node15 -->
<g id="edge48" class="edge">
<title>Node39&#45;&gt;Node15</title>
<path fill="none" stroke="#191970" d="M2215.631,-257.4294C2255.5609,-249.804 2309.9179,-237.6398 2356,-221 2357.4149,-220.4891 2358.8491,-219.9302 2360.2853,-219.3375"/>
<polygon fill="#191970" stroke="#191970" points="2361.9625,-222.4194 2369.61,-215.0868 2359.059,-216.05 2361.9625,-222.4194"/>
</g>
</g>
</svg>
