<?xml version="1.0" encoding="UTF-8" standalone="no"?>
<!DOCTYPE svg PUBLIC "-//W3C//DTD SVG 1.1//EN"
 "http://www.w3.org/Graphics/SVG/1.1/DTD/svg11.dtd">
<!-- Generated by graphviz version 2.40.1 (20161225.0304)
 -->
<!-- Title: /home/travis/build/AliceO2Group/AliceO2/Detectors/TPC/workflow/include/TPCWorkflow/TrackReaderSpec.h Pages: 1 -->
<svg width="981pt" height="172pt"
 viewBox="0.00 0.00 980.50 172.00" xmlns="http://www.w3.org/2000/svg" xmlns:xlink="http://www.w3.org/1999/xlink">
<g id="graph0" class="graph" transform="scale(1 1) rotate(0) translate(4 168)">
<title>/home/travis/build/AliceO2Group/AliceO2/Detectors/TPC/workflow/include/TPCWorkflow/TrackReaderSpec.h</title>
<!-- Node173 -->
<g id="node1" class="node">
<title>Node173</title>
<polygon fill="#bfbfbf" stroke="#000000" points="420.5,-100.5 420.5,-163.5 604.5,-163.5 604.5,-100.5 420.5,-100.5"/>
<text text-anchor="start" x="428.5" y="-151.5" font-family="Helvetica,sans-Serif" font-size="10.00" fill="#000000">/home/travis/build</text>
<text text-anchor="start" x="428.5" y="-140.5" font-family="Helvetica,sans-Serif" font-size="10.00" fill="#000000">/AliceO2Group/AliceO2</text>
<text text-anchor="start" x="428.5" y="-129.5" font-family="Helvetica,sans-Serif" font-size="10.00" fill="#000000">/Detectors/TPC/workflow</text>
<text text-anchor="start" x="428.5" y="-118.5" font-family="Helvetica,sans-Serif" font-size="10.00" fill="#000000">/include/TPCWorkflow/TrackReader</text>
<text text-anchor="middle" x="512.5" y="-107.5" font-family="Helvetica,sans-Serif" font-size="10.00" fill="#000000">Spec.h</text>
</g>
<!-- Node174 -->
<g id="node2" class="node">
<title>Node174</title>
<g id="a_node2"><a xlink:href="../../d5/db4/MatchTPCITSWorkflow_8cxx.html" target="_top" xlink:title="/home/travis/build\l/AliceO2Group/AliceO2\l/Detectors/GlobalTrackingWorkflow\l/src/MatchTPCITSWorkflow.cxx">
<polygon fill="none" stroke="#000000" points="0,-6 0,-58 187,-58 187,-6 0,-6"/>
<text text-anchor="start" x="8" y="-46" font-family="Helvetica,sans-Serif" font-size="10.00" fill="#000000">/home/travis/build</text>
<text text-anchor="start" x="8" y="-35" font-family="Helvetica,sans-Serif" font-size="10.00" fill="#000000">/AliceO2Group/AliceO2</text>
<text text-anchor="start" x="8" y="-24" font-family="Helvetica,sans-Serif" font-size="10.00" fill="#000000">/Detectors/GlobalTrackingWorkflow</text>
<text text-anchor="middle" x="93.5" y="-13" font-family="Helvetica,sans-Serif" font-size="10.00" fill="#000000">/src/MatchTPCITSWorkflow.cxx</text>
</a>
</g>
</g>
<!-- Node173&#45;&gt;Node174 -->
<g id="edge1" class="edge">
<title>Node173&#45;&gt;Node174</title>
<path fill="none" stroke="#191970" d="M410.5589,-112.6317C348.1291,-100.1526 266.7973,-82.7877 195.5,-64 188.5008,-62.1556 181.2669,-60.1305 174.0322,-58.0226"/>
<polygon fill="#191970" stroke="#191970" points="409.921,-116.0733 420.4118,-114.592 411.287,-109.2078 409.921,-116.0733"/>
</g>
<!-- Node175 -->
<g id="node3" class="node">
<title>Node175</title>
<g id="a_node3"><a xlink:href="../../d2/dfc/primary-vertexing-workflow_8cxx.html" target="_top" xlink:title="/home/travis/build\l/AliceO2Group/AliceO2\l/Detectors/GlobalTrackingWorkflow\l/src/primary&#45;vertexing&#45;workflow.cxx">
<polygon fill="none" stroke="#000000" points="205,-6 205,-58 398,-58 398,-6 205,-6"/>
<text text-anchor="start" x="213" y="-46" font-family="Helvetica,sans-Serif" font-size="10.00" fill="#000000">/home/travis/build</text>
<text text-anchor="start" x="213" y="-35" font-family="Helvetica,sans-Serif" font-size="10.00" fill="#000000">/AliceO2Group/AliceO2</text>
<text text-anchor="start" x="213" y="-24" font-family="Helvetica,sans-Serif" font-size="10.00" fill="#000000">/Detectors/GlobalTrackingWorkflow</text>
<text text-anchor="middle" x="301.5" y="-13" font-family="Helvetica,sans-Serif" font-size="10.00" fill="#000000">/src/primary&#45;vertexing&#45;workflow.cxx</text>
</a>
</g>
</g>
<!-- Node173&#45;&gt;Node175 -->
<g id="edge2" class="edge">
<title>Node173&#45;&gt;Node175</title>
<path fill="none" stroke="#191970" d="M436.7933,-96.12C410.3298,-83.5781 381.142,-69.745 356.6718,-58.1478"/>
<polygon fill="#191970" stroke="#191970" points="435.4924,-99.3767 446.0279,-100.4966 438.4903,-93.0511 435.4924,-99.3767"/>
</g>
<!-- Node176 -->
<g id="node4" class="node">
<title>Node176</title>
<g id="a_node4"><a xlink:href="../../da/d65/tof-matcher-tpc_8cxx.html" target="_top" xlink:title="/home/travis/build\l/AliceO2Group/AliceO2\l/Detectors/GlobalTrackingWorkflow\l/tofworkflow/src/tof&#45;matcher&#45;tpc.cxx">
<polygon fill="none" stroke="#000000" points="416,-6 416,-58 609,-58 609,-6 416,-6"/>
<text text-anchor="start" x="424" y="-46" font-family="Helvetica,sans-Serif" font-size="10.00" fill="#000000">/home/travis/build</text>
<text text-anchor="start" x="424" y="-35" font-family="Helvetica,sans-Serif" font-size="10.00" fill="#000000">/AliceO2Group/AliceO2</text>
<text text-anchor="start" x="424" y="-24" font-family="Helvetica,sans-Serif" font-size="10.00" fill="#000000">/Detectors/GlobalTrackingWorkflow</text>
<text text-anchor="middle" x="512.5" y="-13" font-family="Helvetica,sans-Serif" font-size="10.00" fill="#000000">/tofworkflow/src/tof&#45;matcher&#45;tpc.cxx</text>
</a>
</g>
</g>
<!-- Node173&#45;&gt;Node176 -->
<g id="edge3" class="edge">
<title>Node173&#45;&gt;Node176</title>
<path fill="none" stroke="#191970" d="M512.5,-90.1631C512.5,-79.2863 512.5,-67.8798 512.5,-58.078"/>
<polygon fill="#191970" stroke="#191970" points="509.0001,-90.3593 512.5,-100.3594 516.0001,-90.3594 509.0001,-90.3593"/>
</g>
<!-- Node177 -->
<g id="node5" class="node">
<title>Node177</title>
<g id="a_node5"><a xlink:href="../../d1/d67/TrackInterpolationWorkflow_8cxx.html" target="_top" xlink:title="/home/travis/build\l/AliceO2Group/AliceO2\l/Detectors/GlobalTrackingWorkflow\l/tpcinterpolationworkflow/src\l/TrackInterpolationWorkflow.cxx">
<polygon fill="none" stroke="#000000" points="627,-.5 627,-63.5 814,-63.5 814,-.5 627,-.5"/>
<text text-anchor="start" x="635" y="-51.5" font-family="Helvetica,sans-Serif" font-size="10.00" fill="#000000">/home/travis/build</text>
<text text-anchor="start" x="635" y="-40.5" font-family="Helvetica,sans-Serif" font-size="10.00" fill="#000000">/AliceO2Group/AliceO2</text>
<text text-anchor="start" x="635" y="-29.5" font-family="Helvetica,sans-Serif" font-size="10.00" fill="#000000">/Detectors/GlobalTrackingWorkflow</text>
<text text-anchor="start" x="635" y="-18.5" font-family="Helvetica,sans-Serif" font-size="10.00" fill="#000000">/tpcinterpolationworkflow/src</text>
<text text-anchor="middle" x="720.5" y="-7.5" font-family="Helvetica,sans-Serif" font-size="10.00" fill="#000000">/TrackInterpolationWorkflow.cxx</text>
</a>
</g>
</g>
<!-- Node173&#45;&gt;Node177 -->
<g id="edge4" class="edge">
<title>Node173&#45;&gt;Node177</title>
<path fill="none" stroke="#191970" d="M587.0729,-96.1476C609.2548,-85.4833 633.3829,-73.8832 654.9451,-63.5168"/>
<polygon fill="#191970" stroke="#191970" points="585.523,-93.0092 578.027,-100.4966 588.5561,-99.318 585.523,-93.0092"/>
</g>
<!-- Node178 -->
<g id="node6" class="node">
<title>Node178</title>
<g id="a_node6"><a xlink:href="../../d4/d3e/TPC_2workflow_2src_2TrackReaderSpec_8cxx.html" target="_top" xlink:title="/home/travis/build\l/AliceO2Group/AliceO2\l/Detectors/TPC/workflow\l/src/TrackReaderSpec.cxx">
<polygon fill="none" stroke="#000000" points="832.5,-6 832.5,-58 972.5,-58 972.5,-6 832.5,-6"/>
<text text-anchor="start" x="840.5" y="-46" font-family="Helvetica,sans-Serif" font-size="10.00" fill="#000000">/home/travis/build</text>
<text text-anchor="start" x="840.5" y="-35" font-family="Helvetica,sans-Serif" font-size="10.00" fill="#000000">/AliceO2Group/AliceO2</text>
<text text-anchor="start" x="840.5" y="-24" font-family="Helvetica,sans-Serif" font-size="10.00" fill="#000000">/Detectors/TPC/workflow</text>
<text text-anchor="middle" x="902.5" y="-13" font-family="Helvetica,sans-Serif" font-size="10.00" fill="#000000">/src/TrackReaderSpec.cxx</text>
</a>
</g>
</g>
<!-- Node173&#45;&gt;Node178 -->
<g id="edge5" class="edge">
<title>Node173&#45;&gt;Node178</title>
<path fill="none" stroke="#191970" d="M614.7905,-114.1697C676.0084,-102.3813 754.9797,-85.2005 823.5,-64 829.296,-62.2067 835.2618,-60.167 841.1944,-58.0059"/>
<polygon fill="#191970" stroke="#191970" points="613.9032,-110.7758 604.7364,-116.0881 615.2152,-117.6517 613.9032,-110.7758"/>
</g>
</g>
</svg>
