<?xml version="1.0" encoding="UTF-8" standalone="no"?>
<!DOCTYPE svg PUBLIC "-//W3C//DTD SVG 1.1//EN"
 "http://www.w3.org/Graphics/SVG/1.1/DTD/svg11.dtd">
<!-- Generated by graphviz version 2.40.1 (20161225.0304)
 -->
<!-- Title: o2::zdc::BCData Pages: 1 -->
<svg width="592pt" height="848pt"
 viewBox="0.00 0.00 592.00 848.00" xmlns="http://www.w3.org/2000/svg" xmlns:xlink="http://www.w3.org/1999/xlink">
<g id="graph0" class="graph" transform="scale(1 1) rotate(0) translate(4 844)">
<title>o2::zdc::BCData</title>
<!-- Node1 -->
<g id="node1" class="node">
<title>Node1</title>
<polygon fill="#bfbfbf" stroke="#000000" points="270,-.5 270,-101.5 414,-101.5 414,-.5 270,-.5"/>
<text text-anchor="middle" x="342" y="-89.5" font-family="Helvetica,sans-Serif" font-size="10.00" fill="#000000">o2::zdc::BCData</text>
<polyline fill="none" stroke="#000000" points="270,-82.5 414,-82.5 "/>
<text text-anchor="middle" x="342" y="-70.5" font-family="Helvetica,sans-Serif" font-size="10.00" fill="#000000"> </text>
<polyline fill="none" stroke="#000000" points="270,-63.5 414,-63.5 "/>
<text text-anchor="start" x="278" y="-51.5" font-family="Helvetica,sans-Serif" font-size="10.00" fill="#000000">+ BCData()</text>
<text text-anchor="start" x="278" y="-40.5" font-family="Helvetica,sans-Serif" font-size="10.00" fill="#000000">+ BCData()</text>
<text text-anchor="start" x="278" y="-29.5" font-family="Helvetica,sans-Serif" font-size="10.00" fill="#000000">+ getBunchChannelData()</text>
<text text-anchor="start" x="278" y="-18.5" font-family="Helvetica,sans-Serif" font-size="10.00" fill="#000000">+ print()</text>
<text text-anchor="start" x="278" y="-7.5" font-family="Helvetica,sans-Serif" font-size="10.00" fill="#000000">+ ClassDefNV()</text>
</g>
<!-- Node2 -->
<g id="node2" class="node">
<title>Node2</title>
<g id="a_node2"><a xlink:href="../../d1/d21/structo2_1_1InteractionRecord.html" target="_top" xlink:title="{o2::InteractionRecord\n||+ InteractionRecord()\l+ InteractionRecord()\l+ InteractionRecord()\l+ InteractionRecord()\l+ clear()\l+ isDummy()\l+ setFromNS()\l+ bc2ns()\l+ operator==()\l+ operator!=()\l+ differenceInBC()\l+ differenceInBCns()\l+ toLong()\l+ setFromLong()\l+ operator\&gt;()\l+ operator\&gt;=()\l+ operator\&lt;()\l+ operator\&lt;=()\l+ operator&#45;&#45;()\l+ operator&#45;&#45;()\l+ operator++()\l+ operator++()\l+ operator+=()\l+ operator&#45;=()\l+ operator+=()\l+ operator&#45;=()\l+ operator+()\l+ operator&#45;()\l+ operator+()\l+ operator&#45;()\l+ print()\l+ asString()\l+ ClassDefNV()\l+ bc2ns()\l+ ns2bc()\l}">
<polygon fill="none" stroke="#000000" points="102.5,-149.5 102.5,-580.5 223.5,-580.5 223.5,-149.5 102.5,-149.5"/>
<text text-anchor="middle" x="163" y="-568.5" font-family="Helvetica,sans-Serif" font-size="10.00" fill="#000000">o2::InteractionRecord</text>
<polyline fill="none" stroke="#000000" points="102.5,-561.5 223.5,-561.5 "/>
<text text-anchor="middle" x="163" y="-549.5" font-family="Helvetica,sans-Serif" font-size="10.00" fill="#000000"> </text>
<polyline fill="none" stroke="#000000" points="102.5,-542.5 223.5,-542.5 "/>
<text text-anchor="start" x="110.5" y="-530.5" font-family="Helvetica,sans-Serif" font-size="10.00" fill="#000000">+ InteractionRecord()</text>
<text text-anchor="start" x="110.5" y="-519.5" font-family="Helvetica,sans-Serif" font-size="10.00" fill="#000000">+ InteractionRecord()</text>
<text text-anchor="start" x="110.5" y="-508.5" font-family="Helvetica,sans-Serif" font-size="10.00" fill="#000000">+ InteractionRecord()</text>
<text text-anchor="start" x="110.5" y="-497.5" font-family="Helvetica,sans-Serif" font-size="10.00" fill="#000000">+ InteractionRecord()</text>
<text text-anchor="start" x="110.5" y="-486.5" font-family="Helvetica,sans-Serif" font-size="10.00" fill="#000000">+ clear()</text>
<text text-anchor="start" x="110.5" y="-475.5" font-family="Helvetica,sans-Serif" font-size="10.00" fill="#000000">+ isDummy()</text>
<text text-anchor="start" x="110.5" y="-464.5" font-family="Helvetica,sans-Serif" font-size="10.00" fill="#000000">+ setFromNS()</text>
<text text-anchor="start" x="110.5" y="-453.5" font-family="Helvetica,sans-Serif" font-size="10.00" fill="#000000">+ bc2ns()</text>
<text text-anchor="start" x="110.5" y="-442.5" font-family="Helvetica,sans-Serif" font-size="10.00" fill="#000000">+ operator==()</text>
<text text-anchor="start" x="110.5" y="-431.5" font-family="Helvetica,sans-Serif" font-size="10.00" fill="#000000">+ operator!=()</text>
<text text-anchor="start" x="110.5" y="-420.5" font-family="Helvetica,sans-Serif" font-size="10.00" fill="#000000">+ differenceInBC()</text>
<text text-anchor="start" x="110.5" y="-409.5" font-family="Helvetica,sans-Serif" font-size="10.00" fill="#000000">+ differenceInBCns()</text>
<text text-anchor="start" x="110.5" y="-398.5" font-family="Helvetica,sans-Serif" font-size="10.00" fill="#000000">+ toLong()</text>
<text text-anchor="start" x="110.5" y="-387.5" font-family="Helvetica,sans-Serif" font-size="10.00" fill="#000000">+ setFromLong()</text>
<text text-anchor="start" x="110.5" y="-376.5" font-family="Helvetica,sans-Serif" font-size="10.00" fill="#000000">+ operator&gt;()</text>
<text text-anchor="start" x="110.5" y="-365.5" font-family="Helvetica,sans-Serif" font-size="10.00" fill="#000000">+ operator&gt;=()</text>
<text text-anchor="start" x="110.5" y="-354.5" font-family="Helvetica,sans-Serif" font-size="10.00" fill="#000000">+ operator&lt;()</text>
<text text-anchor="start" x="110.5" y="-343.5" font-family="Helvetica,sans-Serif" font-size="10.00" fill="#000000">+ operator&lt;=()</text>
<text text-anchor="start" x="110.5" y="-332.5" font-family="Helvetica,sans-Serif" font-size="10.00" fill="#000000">+ operator&#45;&#45;()</text>
<text text-anchor="start" x="110.5" y="-321.5" font-family="Helvetica,sans-Serif" font-size="10.00" fill="#000000">+ operator&#45;&#45;()</text>
<text text-anchor="start" x="110.5" y="-310.5" font-family="Helvetica,sans-Serif" font-size="10.00" fill="#000000">+ operator++()</text>
<text text-anchor="start" x="110.5" y="-299.5" font-family="Helvetica,sans-Serif" font-size="10.00" fill="#000000">+ operator++()</text>
<text text-anchor="start" x="110.5" y="-288.5" font-family="Helvetica,sans-Serif" font-size="10.00" fill="#000000">+ operator+=()</text>
<text text-anchor="start" x="110.5" y="-277.5" font-family="Helvetica,sans-Serif" font-size="10.00" fill="#000000">+ operator&#45;=()</text>
<text text-anchor="start" x="110.5" y="-266.5" font-family="Helvetica,sans-Serif" font-size="10.00" fill="#000000">+ operator+=()</text>
<text text-anchor="start" x="110.5" y="-255.5" font-family="Helvetica,sans-Serif" font-size="10.00" fill="#000000">+ operator&#45;=()</text>
<text text-anchor="start" x="110.5" y="-244.5" font-family="Helvetica,sans-Serif" font-size="10.00" fill="#000000">+ operator+()</text>
<text text-anchor="start" x="110.5" y="-233.5" font-family="Helvetica,sans-Serif" font-size="10.00" fill="#000000">+ operator&#45;()</text>
<text text-anchor="start" x="110.5" y="-222.5" font-family="Helvetica,sans-Serif" font-size="10.00" fill="#000000">+ operator+()</text>
<text text-anchor="start" x="110.5" y="-211.5" font-family="Helvetica,sans-Serif" font-size="10.00" fill="#000000">+ operator&#45;()</text>
<text text-anchor="start" x="110.5" y="-200.5" font-family="Helvetica,sans-Serif" font-size="10.00" fill="#000000">+ print()</text>
<text text-anchor="start" x="110.5" y="-189.5" font-family="Helvetica,sans-Serif" font-size="10.00" fill="#000000">+ asString()</text>
<text text-anchor="start" x="110.5" y="-178.5" font-family="Helvetica,sans-Serif" font-size="10.00" fill="#000000">+ ClassDefNV()</text>
<text text-anchor="start" x="110.5" y="-167.5" font-family="Helvetica,sans-Serif" font-size="10.00" fill="#000000">+ bc2ns()</text>
<text text-anchor="start" x="110.5" y="-156.5" font-family="Helvetica,sans-Serif" font-size="10.00" fill="#000000">+ ns2bc()</text>
</a>
</g>
</g>
<!-- Node2&#45;&gt;Node1 -->
<g id="edge1" class="edge">
<title>Node2&#45;&gt;Node1</title>
<path fill="none" stroke="#404040" d="M223.5971,-191.7781C235.6004,-166.7058 249.3981,-141.9785 265,-120 267.1641,-116.9514 269.4858,-113.9421 271.9251,-110.9859"/>
<polygon fill="none" stroke="#404040" points="272.1351,-110.7475 273.0991,-103.6011 280.0665,-101.7423 279.1025,-108.8887 272.1351,-110.7475"/>
<text text-anchor="middle" x="274.5" y="-123" font-family="Helvetica,sans-Serif" font-size="10.00" fill="#000000"> +ir</text>
</g>
<!-- Node3 -->
<g id="node3" class="node">
<title>Node3</title>
<polygon fill="none" stroke="#bfbfbf" points="0,-711 0,-768 50,-768 50,-711 0,-711"/>
<text text-anchor="middle" x="25" y="-756" font-family="Helvetica,sans-Serif" font-size="10.00" fill="#000000">double</text>
<polyline fill="none" stroke="#bfbfbf" points="0,-749 50,-749 "/>
<text text-anchor="middle" x="25" y="-737" font-family="Helvetica,sans-Serif" font-size="10.00" fill="#000000"> </text>
<polyline fill="none" stroke="#bfbfbf" points="0,-730 50,-730 "/>
<text text-anchor="middle" x="25" y="-718" font-family="Helvetica,sans-Serif" font-size="10.00" fill="#000000"> </text>
</g>
<!-- Node3&#45;&gt;Node2 -->
<g id="edge2" class="edge">
<title>Node3&#45;&gt;Node2</title>
<path fill="none" stroke="#404040" d="M26.063,-710.9055C27.7805,-682.0795 32.2698,-636.5955 44,-599 56.9422,-557.5201 76.7492,-514.4813 96.513,-476.7977"/>
<polygon fill="none" stroke="#404040" points="96.7256,-476.3976 96.0097,-469.2221 102.3578,-465.8014 103.0738,-472.9769 96.7256,-476.3976"/>
<text text-anchor="middle" x="82" y="-607.5" font-family="Helvetica,sans-Serif" font-size="10.00" fill="#000000"> +DummyTime</text>
</g>
<!-- Node4 -->
<g id="node4" class="node">
<title>Node4</title>
<polygon fill="none" stroke="#bfbfbf" points="96,-711 96,-768 152,-768 152,-711 96,-711"/>
<text text-anchor="middle" x="124" y="-756" font-family="Helvetica,sans-Serif" font-size="10.00" fill="#000000">uint16_t</text>
<polyline fill="none" stroke="#bfbfbf" points="96,-749 152,-749 "/>
<text text-anchor="middle" x="124" y="-737" font-family="Helvetica,sans-Serif" font-size="10.00" fill="#000000"> </text>
<polyline fill="none" stroke="#bfbfbf" points="96,-730 152,-730 "/>
<text text-anchor="middle" x="124" y="-718" font-family="Helvetica,sans-Serif" font-size="10.00" fill="#000000"> </text>
</g>
<!-- Node4&#45;&gt;Node2 -->
<g id="edge3" class="edge">
<title>Node4&#45;&gt;Node2</title>
<path fill="none" stroke="#404040" d="M122.9195,-710.9176C122.1467,-682.4868 121.7439,-637.6479 125,-599 125.1752,-596.9206 125.3584,-594.8317 125.5491,-592.7346"/>
<polygon fill="none" stroke="#404040" points="125.5634,-592.5863 122.1613,-586.2282 126.7218,-580.6423 130.1239,-587.0004 125.5634,-592.5863"/>
<text text-anchor="middle" x="157" y="-613" font-family="Helvetica,sans-Serif" font-size="10.00" fill="#000000"> +DummyBC</text>
<text text-anchor="middle" x="157" y="-602" font-family="Helvetica,sans-Serif" font-size="10.00" fill="#000000">+bc</text>
</g>
<!-- Node5 -->
<g id="node5" class="node">
<title>Node5</title>
<g id="a_node5"><a xlink:href="../../d3/d87/classuint32__t.html" target="_top" xlink:title="{uint32_t\n||}">
<polygon fill="none" stroke="#000000" points="226,-711 226,-768 282,-768 282,-711 226,-711"/>
<text text-anchor="middle" x="254" y="-756" font-family="Helvetica,sans-Serif" font-size="10.00" fill="#000000">uint32_t</text>
<polyline fill="none" stroke="#000000" points="226,-749 282,-749 "/>
<text text-anchor="middle" x="254" y="-737" font-family="Helvetica,sans-Serif" font-size="10.00" fill="#000000"> </text>
<polyline fill="none" stroke="#000000" points="226,-730 282,-730 "/>
<text text-anchor="middle" x="254" y="-718" font-family="Helvetica,sans-Serif" font-size="10.00" fill="#000000"> </text>
</a>
</g>
</g>
<!-- Node5&#45;&gt;Node1 -->
<g id="edge5" class="edge">
<title>Node5&#45;&gt;Node1</title>
<path fill="none" stroke="#404040" d="M263.0347,-710.6097C270.0569,-686.816 279.3585,-652.0636 284,-621 315.0376,-413.2793 266.1273,-355.0112 307,-149 309.3468,-137.1712 312.8494,-124.8483 316.7453,-113.0931"/>
<polygon fill="none" stroke="#404040" points="316.811,-112.9036 314.9986,-105.924 320.7443,-101.5665 322.5567,-108.5461 316.811,-112.9036"/>
<text text-anchor="middle" x="333" y="-368" font-family="Helvetica,sans-Serif" font-size="10.00" fill="#000000"> +triggers</text>
<text text-anchor="middle" x="333" y="-357" font-family="Helvetica,sans-Serif" font-size="10.00" fill="#000000">+channels</text>
</g>
<!-- Node5&#45;&gt;Node2 -->
<g id="edge4" class="edge">
<title>Node5&#45;&gt;Node2</title>
<path fill="none" stroke="#404040" d="M242.3971,-710.6704C233.1728,-686.9119 220.4565,-652.1773 212,-621 209.4735,-611.6853 207.0278,-602.1458 204.6671,-592.4836"/>
<polygon fill="none" stroke="#404040" points="204.6264,-592.3134 199.3383,-587.4107 201.83,-580.6437 207.1181,-585.5464 204.6264,-592.3134"/>
<text text-anchor="middle" x="248" y="-613" font-family="Helvetica,sans-Serif" font-size="10.00" fill="#000000"> +orbit</text>
<text text-anchor="middle" x="248" y="-602" font-family="Helvetica,sans-Serif" font-size="10.00" fill="#000000">+DummyOrbit</text>
</g>
<!-- Node6 -->
<g id="node6" class="node">
<title>Node6</title>
<g id="a_node6"><a xlink:href="../../de/d0e/classo2_1_1dataformats_1_1RangeRefComp.html" target="_top" xlink:title="{o2::dataformats::RangeRef\lComp\&lt; 5 \&gt;\n||+ RangeRefComp()\l+ RangeRefComp()\l+ RangeRefComp()\l+ set()\l+ getFirstEntry()\l+ getEntries()\l+ setFirstEntry()\l+ setEntries()\l+ changeEntriesBy()\l+ operator==()\l+ ClassDefNV()\l+ getMaxFirstEntry()\l+ getMaxEntries()\l}">
<polygon fill="none" stroke="#000000" points="368.5,-265 368.5,-465 515.5,-465 515.5,-265 368.5,-265"/>
<text text-anchor="start" x="376.5" y="-453" font-family="Helvetica,sans-Serif" font-size="10.00" fill="#000000">o2::dataformats::RangeRef</text>
<text text-anchor="middle" x="442" y="-442" font-family="Helvetica,sans-Serif" font-size="10.00" fill="#000000">Comp&lt; 5 &gt;</text>
<polyline fill="none" stroke="#000000" points="368.5,-435 515.5,-435 "/>
<text text-anchor="middle" x="442" y="-423" font-family="Helvetica,sans-Serif" font-size="10.00" fill="#000000"> </text>
<polyline fill="none" stroke="#000000" points="368.5,-416 515.5,-416 "/>
<text text-anchor="start" x="376.5" y="-404" font-family="Helvetica,sans-Serif" font-size="10.00" fill="#000000">+ RangeRefComp()</text>
<text text-anchor="start" x="376.5" y="-393" font-family="Helvetica,sans-Serif" font-size="10.00" fill="#000000">+ RangeRefComp()</text>
<text text-anchor="start" x="376.5" y="-382" font-family="Helvetica,sans-Serif" font-size="10.00" fill="#000000">+ RangeRefComp()</text>
<text text-anchor="start" x="376.5" y="-371" font-family="Helvetica,sans-Serif" font-size="10.00" fill="#000000">+ set()</text>
<text text-anchor="start" x="376.5" y="-360" font-family="Helvetica,sans-Serif" font-size="10.00" fill="#000000">+ getFirstEntry()</text>
<text text-anchor="start" x="376.5" y="-349" font-family="Helvetica,sans-Serif" font-size="10.00" fill="#000000">+ getEntries()</text>
<text text-anchor="start" x="376.5" y="-338" font-family="Helvetica,sans-Serif" font-size="10.00" fill="#000000">+ setFirstEntry()</text>
<text text-anchor="start" x="376.5" y="-327" font-family="Helvetica,sans-Serif" font-size="10.00" fill="#000000">+ setEntries()</text>
<text text-anchor="start" x="376.5" y="-316" font-family="Helvetica,sans-Serif" font-size="10.00" fill="#000000">+ changeEntriesBy()</text>
<text text-anchor="start" x="376.5" y="-305" font-family="Helvetica,sans-Serif" font-size="10.00" fill="#000000">+ operator==()</text>
<text text-anchor="start" x="376.5" y="-294" font-family="Helvetica,sans-Serif" font-size="10.00" fill="#000000">+ ClassDefNV()</text>
<text text-anchor="start" x="376.5" y="-283" font-family="Helvetica,sans-Serif" font-size="10.00" fill="#000000">+ getMaxFirstEntry()</text>
<text text-anchor="start" x="376.5" y="-272" font-family="Helvetica,sans-Serif" font-size="10.00" fill="#000000">+ getMaxEntries()</text>
</a>
</g>
</g>
<!-- Node6&#45;&gt;Node1 -->
<g id="edge6" class="edge">
<title>Node6&#45;&gt;Node1</title>
<path fill="none" stroke="#404040" d="M410.0844,-264.7851C394.2196,-214.9697 375.5475,-156.3392 361.7739,-113.09"/>
<polygon fill="none" stroke="#404040" points="361.7564,-113.0349 356.1243,-108.5317 358.1149,-101.6007 363.747,-106.104 361.7564,-113.0349"/>
<text text-anchor="middle" x="379.5" y="-123" font-family="Helvetica,sans-Serif" font-size="10.00" fill="#000000"> +ref</text>
</g>
<!-- Node7 -->
<g id="node7" class="node">
<title>Node7</title>
<g id="a_node7"><a xlink:href="../../de/d0e/classo2_1_1dataformats_1_1RangeRefComp.html" target="_top" xlink:title="{o2::dataformats::RangeRef\lComp\&lt; NBitsN \&gt;\n||+ RangeRefComp()\l+ RangeRefComp()\l+ RangeRefComp()\l+ set()\l+ getFirstEntry()\l+ getEntries()\l+ setFirstEntry()\l+ setEntries()\l+ changeEntriesBy()\l+ operator==()\l+ ClassDefNV()\l+ getMaxFirstEntry()\l+ getMaxEntries()\l}">
<polygon fill="none" stroke="#000000" points="368.5,-639.5 368.5,-839.5 515.5,-839.5 515.5,-639.5 368.5,-639.5"/>
<text text-anchor="start" x="376.5" y="-827.5" font-family="Helvetica,sans-Serif" font-size="10.00" fill="#000000">o2::dataformats::RangeRef</text>
<text text-anchor="middle" x="442" y="-816.5" font-family="Helvetica,sans-Serif" font-size="10.00" fill="#000000">Comp&lt; NBitsN &gt;</text>
<polyline fill="none" stroke="#000000" points="368.5,-809.5 515.5,-809.5 "/>
<text text-anchor="middle" x="442" y="-797.5" font-family="Helvetica,sans-Serif" font-size="10.00" fill="#000000"> </text>
<polyline fill="none" stroke="#000000" points="368.5,-790.5 515.5,-790.5 "/>
<text text-anchor="start" x="376.5" y="-778.5" font-family="Helvetica,sans-Serif" font-size="10.00" fill="#000000">+ RangeRefComp()</text>
<text text-anchor="start" x="376.5" y="-767.5" font-family="Helvetica,sans-Serif" font-size="10.00" fill="#000000">+ RangeRefComp()</text>
<text text-anchor="start" x="376.5" y="-756.5" font-family="Helvetica,sans-Serif" font-size="10.00" fill="#000000">+ RangeRefComp()</text>
<text text-anchor="start" x="376.5" y="-745.5" font-family="Helvetica,sans-Serif" font-size="10.00" fill="#000000">+ set()</text>
<text text-anchor="start" x="376.5" y="-734.5" font-family="Helvetica,sans-Serif" font-size="10.00" fill="#000000">+ getFirstEntry()</text>
<text text-anchor="start" x="376.5" y="-723.5" font-family="Helvetica,sans-Serif" font-size="10.00" fill="#000000">+ getEntries()</text>
<text text-anchor="start" x="376.5" y="-712.5" font-family="Helvetica,sans-Serif" font-size="10.00" fill="#000000">+ setFirstEntry()</text>
<text text-anchor="start" x="376.5" y="-701.5" font-family="Helvetica,sans-Serif" font-size="10.00" fill="#000000">+ setEntries()</text>
<text text-anchor="start" x="376.5" y="-690.5" font-family="Helvetica,sans-Serif" font-size="10.00" fill="#000000">+ changeEntriesBy()</text>
<text text-anchor="start" x="376.5" y="-679.5" font-family="Helvetica,sans-Serif" font-size="10.00" fill="#000000">+ operator==()</text>
<text text-anchor="start" x="376.5" y="-668.5" font-family="Helvetica,sans-Serif" font-size="10.00" fill="#000000">+ ClassDefNV()</text>
<text text-anchor="start" x="376.5" y="-657.5" font-family="Helvetica,sans-Serif" font-size="10.00" fill="#000000">+ getMaxFirstEntry()</text>
<text text-anchor="start" x="376.5" y="-646.5" font-family="Helvetica,sans-Serif" font-size="10.00" fill="#000000">+ getMaxEntries()</text>
</a>
</g>
</g>
<!-- Node7&#45;&gt;Node6 -->
<g id="edge7" class="edge">
<title>Node7&#45;&gt;Node6</title>
<path fill="none" stroke="#ffa500" d="M442,-628.9074C442,-577.0788 442,-515.7799 442,-465.3111"/>
<polygon fill="#ffa500" stroke="#ffa500" points="438.5001,-629.1408 442,-639.1409 445.5001,-629.1409 438.5001,-629.1408"/>
<text text-anchor="middle" x="458" y="-607.5" font-family="Helvetica,sans-Serif" font-size="10.00" fill="#000000"> &lt; 5 &gt;</text>
</g>
<!-- Node8 -->
<g id="node8" class="node">
<title>Node8</title>
<polygon fill="none" stroke="#bfbfbf" points="534,-336.5 534,-393.5 584,-393.5 584,-336.5 534,-336.5"/>
<text text-anchor="middle" x="559" y="-381.5" font-family="Helvetica,sans-Serif" font-size="10.00" fill="#000000">uint8_t</text>
<polyline fill="none" stroke="#bfbfbf" points="534,-374.5 584,-374.5 "/>
<text text-anchor="middle" x="559" y="-362.5" font-family="Helvetica,sans-Serif" font-size="10.00" fill="#000000"> </text>
<polyline fill="none" stroke="#bfbfbf" points="534,-355.5 584,-355.5 "/>
<text text-anchor="middle" x="559" y="-343.5" font-family="Helvetica,sans-Serif" font-size="10.00" fill="#000000"> </text>
</g>
<!-- Node8&#45;&gt;Node1 -->
<g id="edge8" class="edge">
<title>Node8&#45;&gt;Node1</title>
<path fill="none" stroke="#404040" d="M562.0966,-336.1411C565.318,-291.6763 565.2305,-205.6355 525,-149 501.0825,-115.3296 461.9072,-92.1661 425.9271,-76.8499"/>
<polygon fill="none" stroke="#404040" points="425.4953,-76.6741 418.4299,-78.1165 414.381,-72.1494 421.4463,-70.707 425.4953,-76.6741"/>
<text text-anchor="middle" x="541" y="-123" font-family="Helvetica,sans-Serif" font-size="10.00" fill="#000000"> +ext_triggers</text>
</g>
</g>
</svg>
