<?xml version="1.0" encoding="UTF-8" standalone="no"?>
<!DOCTYPE svg PUBLIC "-//W3C//DTD SVG 1.1//EN"
 "http://www.w3.org/Graphics/SVG/1.1/DTD/svg11.dtd">
<!-- Generated by graphviz version 2.40.1 (20161225.0304)
 -->
<!-- Title: o2::globaltracking::ABDebugTrack Pages: 1 -->
<!--zoomable 881 -->
<svg id="main" version="1.1" xmlns="http://www.w3.org/2000/svg" xmlns:xlink="http://www.w3.org/1999/xlink" xml:space="preserve" onload="init(evt)">
<style type="text/css"><![CDATA[
.edge:hover path { stroke: red; }
.edge:hover polygon { stroke: red; fill: red; }
]]></style>
<script type="text/javascript"><![CDATA[
var edges = document.getElementsByTagName('g');
if (edges && edges.length) {
  for (var i=0;i<edges.length;i++) {
    if (edges[i].id.substr(0,4)=='edge') {
      edges[i].setAttribute('class','edge');
    }
  }
}
]]></script>
        <defs>
                <circle id="rim" cx="0" cy="0" r="7"/>
                <circle id="rim2" cx="0" cy="0" r="3.5"/>
                <g id="zoomPlus">
                        <use xlink:href="#rim" fill="#404040">
                                <set attributeName="fill" to="#808080" begin="zoomplus.mouseover" end="zoomplus.mouseout"/>
                        </use>
                        <path d="M-4,0h8M0,-4v8" fill="none" stroke="white" stroke-width="1.5" pointer-events="none"/>
                </g>
                <g id="zoomMin">
                        <use xlink:href="#rim" fill="#404040">
                                <set attributeName="fill" to="#808080" begin="zoomminus.mouseover" end="zoomminus.mouseout"/>
                        </use>
                        <path d="M-4,0h8" fill="none" stroke="white" stroke-width="1.5" pointer-events="none"/>
                </g>
                <g id="dirArrow">
                        <path fill="none" stroke="white" stroke-width="1.5" d="M0,-3.0v7 M-2.5,-0.5L0,-3.0L2.5,-0.5"/>
                </g>
               <g id="resetDef">
                       <use xlink:href="#rim2" fill="#404040">
                               <set attributeName="fill" to="#808080" begin="reset.mouseover" end="reset.mouseout"/>
                       </use>
               </g>
        </defs>

<script type="text/javascript">
var viewWidth = 865;
var viewHeight = 881;
var sectionId = 'dynsection-0';
</script>
<script xlink:href="../../svgpan.js"/>
<svg id="graph" class="graph">
<g id="viewport">
<title>o2::globaltracking::ABDebugTrack</title>
<!-- Node1 -->
<g id="node1" class="node">
<title>Node1</title>
<polygon fill="#bfbfbf" stroke="#000000" points="283,-.5 283,-68.5 387,-68.5 387,-.5 283,-.5"/>
<text text-anchor="start" x="291" y="-56.5" font-family="Helvetica,sans-Serif" font-size="10.00" fill="#000000">o2::globaltracking</text>
<text text-anchor="middle" x="335" y="-45.5" font-family="Helvetica,sans-Serif" font-size="10.00" fill="#000000">::ABDebugTrack</text>
<polyline fill="none" stroke="#000000" points="283,-38.5 387,-38.5 "/>
<text text-anchor="middle" x="335" y="-26.5" font-family="Helvetica,sans-Serif" font-size="10.00" fill="#000000"> </text>
<polyline fill="none" stroke="#000000" points="283,-19.5 387,-19.5 "/>
<text text-anchor="start" x="291" y="-7.5" font-family="Helvetica,sans-Serif" font-size="10.00" fill="#000000">+ ClassDefNV()</text>
</g>
<!-- Node2 -->
<g id="node2" class="node">
<title>Node2</title>
<polygon fill="none" stroke="#bfbfbf" points="0,-292.5 0,-349.5 50,-349.5 50,-292.5 0,-292.5"/>
<text text-anchor="middle" x="25" y="-337.5" font-family="Helvetica,sans-Serif" font-size="10.00" fill="#000000">uint8_t</text>
<polyline fill="none" stroke="#bfbfbf" points="0,-330.5 50,-330.5 "/>
<text text-anchor="middle" x="25" y="-318.5" font-family="Helvetica,sans-Serif" font-size="10.00" fill="#000000"> </text>
<polyline fill="none" stroke="#bfbfbf" points="0,-311.5 50,-311.5 "/>
<text text-anchor="middle" x="25" y="-299.5" font-family="Helvetica,sans-Serif" font-size="10.00" fill="#000000"> </text>
</g>
<!-- Node2&#45;&gt;Node1 -->
<g id="edge1" class="edge">
<title>Node2&#45;&gt;Node1</title>
<path fill="none" stroke="#404040" d="M20.5497,-292.3611C14.6749,-243.1668 10.6939,-142.5555 65,-87 92.947,-58.41 199.8485,-44.7597 270.4617,-38.7369"/>
<polygon fill="none" stroke="#404040" points="270.8033,-38.7091 276.458,-34.2343 282.7635,-37.733 277.1088,-42.2078 270.8033,-38.7091"/>
<text text-anchor="middle" x="102" y="-123" font-family="Helvetica,sans-Serif" font-size="10.00" fill="#000000"> +nClusITSCorr</text>
<text text-anchor="middle" x="102" y="-112" font-family="Helvetica,sans-Serif" font-size="10.00" fill="#000000">+nClusITS</text>
<text text-anchor="middle" x="102" y="-101" font-family="Helvetica,sans-Serif" font-size="10.00" fill="#000000">+sideAC</text>
<text text-anchor="middle" x="102" y="-90" font-family="Helvetica,sans-Serif" font-size="10.00" fill="#000000">+nClusTPC</text>
</g>
<!-- Node3 -->
<g id="node3" class="node">
<title>Node3</title>
<g id="a_node3"><a xlink:href="../../d4/dc3/classfloat.html" target="_top" xlink:title="{float\n||}">
<polygon fill="none" stroke="#000000" points="85,-292.5 85,-349.5 123,-349.5 123,-292.5 85,-292.5"/>
<text text-anchor="middle" x="104" y="-337.5" font-family="Helvetica,sans-Serif" font-size="10.00" fill="#000000">float</text>
<polyline fill="none" stroke="#000000" points="85,-330.5 123,-330.5 "/>
<text text-anchor="middle" x="104" y="-318.5" font-family="Helvetica,sans-Serif" font-size="10.00" fill="#000000"> </text>
<polyline fill="none" stroke="#000000" points="85,-311.5 123,-311.5 "/>
<text text-anchor="middle" x="104" y="-299.5" font-family="Helvetica,sans-Serif" font-size="10.00" fill="#000000"> </text>
</a>
</g>
</g>
<!-- Node3&#45;&gt;Node1 -->
<g id="edge2" class="edge">
<title>Node3&#45;&gt;Node1</title>
<path fill="none" stroke="#404040" d="M103.6588,-292.373C104.3278,-256.9347 109.1177,-195.5677 132,-149 148.6408,-115.1343 158.5008,-107.775 190,-87 214.6278,-70.757 244.9196,-58.7701 271.4363,-50.3848"/>
<polygon fill="none" stroke="#404040" points="271.4469,-50.3817 276.0266,-44.8116 282.9297,-46.8967 278.35,-52.4668 271.4469,-50.3817"/>
<text text-anchor="middle" x="206" y="-106.5" font-family="Helvetica,sans-Serif" font-size="10.00" fill="#000000"> +chi2</text>
</g>
<!-- Node4 -->
<g id="node4" class="node">
<title>Node4</title>
<g id="a_node4"><a xlink:href="../../df/d6b/classo2_1_1utils_1_1Bracket.html" target="_top" xlink:title="{o2::utils::Bracket\l\&lt; float \&gt;\n||+ Bracket()\l+ Bracket()\l+ Bracket()\l+ ~Bracket()\l+ set()\l+ operator\&lt;()\l+ operator\&lt;()\l+ operator\&gt;()\l+ operator\&gt;()\l+ operator==()\l+ setMax()\l+ setMin()\l+ max()\l+ max()\l+ min()\l+ min()\l+ mean()\l+ delta()\l+ isValid()\l+ isInvalid()\l+ update()\l+ isOutside()\l+ isOutside()\l}">
<polygon fill="none" stroke="#000000" points="141.5,-166 141.5,-476 240.5,-476 240.5,-166 141.5,-166"/>
<text text-anchor="start" x="149.5" y="-464" font-family="Helvetica,sans-Serif" font-size="10.00" fill="#000000">o2::utils::Bracket</text>
<text text-anchor="middle" x="191" y="-453" font-family="Helvetica,sans-Serif" font-size="10.00" fill="#000000">&lt; float &gt;</text>
<polyline fill="none" stroke="#000000" points="141.5,-446 240.5,-446 "/>
<text text-anchor="middle" x="191" y="-434" font-family="Helvetica,sans-Serif" font-size="10.00" fill="#000000"> </text>
<polyline fill="none" stroke="#000000" points="141.5,-427 240.5,-427 "/>
<text text-anchor="start" x="149.5" y="-415" font-family="Helvetica,sans-Serif" font-size="10.00" fill="#000000">+ Bracket()</text>
<text text-anchor="start" x="149.5" y="-404" font-family="Helvetica,sans-Serif" font-size="10.00" fill="#000000">+ Bracket()</text>
<text text-anchor="start" x="149.5" y="-393" font-family="Helvetica,sans-Serif" font-size="10.00" fill="#000000">+ Bracket()</text>
<text text-anchor="start" x="149.5" y="-382" font-family="Helvetica,sans-Serif" font-size="10.00" fill="#000000">+ ~Bracket()</text>
<text text-anchor="start" x="149.5" y="-371" font-family="Helvetica,sans-Serif" font-size="10.00" fill="#000000">+ set()</text>
<text text-anchor="start" x="149.5" y="-360" font-family="Helvetica,sans-Serif" font-size="10.00" fill="#000000">+ operator&lt;()</text>
<text text-anchor="start" x="149.5" y="-349" font-family="Helvetica,sans-Serif" font-size="10.00" fill="#000000">+ operator&lt;()</text>
<text text-anchor="start" x="149.5" y="-338" font-family="Helvetica,sans-Serif" font-size="10.00" fill="#000000">+ operator&gt;()</text>
<text text-anchor="start" x="149.5" y="-327" font-family="Helvetica,sans-Serif" font-size="10.00" fill="#000000">+ operator&gt;()</text>
<text text-anchor="start" x="149.5" y="-316" font-family="Helvetica,sans-Serif" font-size="10.00" fill="#000000">+ operator==()</text>
<text text-anchor="start" x="149.5" y="-305" font-family="Helvetica,sans-Serif" font-size="10.00" fill="#000000">+ setMax()</text>
<text text-anchor="start" x="149.5" y="-294" font-family="Helvetica,sans-Serif" font-size="10.00" fill="#000000">+ setMin()</text>
<text text-anchor="start" x="149.5" y="-283" font-family="Helvetica,sans-Serif" font-size="10.00" fill="#000000">+ max()</text>
<text text-anchor="start" x="149.5" y="-272" font-family="Helvetica,sans-Serif" font-size="10.00" fill="#000000">+ max()</text>
<text text-anchor="start" x="149.5" y="-261" font-family="Helvetica,sans-Serif" font-size="10.00" fill="#000000">+ min()</text>
<text text-anchor="start" x="149.5" y="-250" font-family="Helvetica,sans-Serif" font-size="10.00" fill="#000000">+ min()</text>
<text text-anchor="start" x="149.5" y="-239" font-family="Helvetica,sans-Serif" font-size="10.00" fill="#000000">+ mean()</text>
<text text-anchor="start" x="149.5" y="-228" font-family="Helvetica,sans-Serif" font-size="10.00" fill="#000000">+ delta()</text>
<text text-anchor="start" x="149.5" y="-217" font-family="Helvetica,sans-Serif" font-size="10.00" fill="#000000">+ isValid()</text>
<text text-anchor="start" x="149.5" y="-206" font-family="Helvetica,sans-Serif" font-size="10.00" fill="#000000">+ isInvalid()</text>
<text text-anchor="start" x="149.5" y="-195" font-family="Helvetica,sans-Serif" font-size="10.00" fill="#000000">+ update()</text>
<text text-anchor="start" x="149.5" y="-184" font-family="Helvetica,sans-Serif" font-size="10.00" fill="#000000">+ isOutside()</text>
<text text-anchor="start" x="149.5" y="-173" font-family="Helvetica,sans-Serif" font-size="10.00" fill="#000000">+ isOutside()</text>
</a>
</g>
</g>
<!-- Node4&#45;&gt;Node1 -->
<g id="edge3" class="edge">
<title>Node4&#45;&gt;Node1</title>
<path fill="none" stroke="#404040" d="M210.5664,-165.754C218.9988,-137.7721 230.9856,-110.1703 248,-87 254.5945,-78.0197 263.2302,-70.275 272.4987,-63.7029"/>
<polygon fill="none" stroke="#404040" points="272.6849,-63.5816 275.527,-56.9541 282.7378,-57.0286 279.8956,-63.6561 272.6849,-63.5816"/>
<text text-anchor="middle" x="278.5" y="-106.5" font-family="Helvetica,sans-Serif" font-size="10.00" fill="#000000"> +icTimeBin</text>
</g>
<!-- Node5 -->
<g id="node5" class="node">
<title>Node5</title>
<g id="a_node5"><a xlink:href="../../df/d6b/classo2_1_1utils_1_1Bracket.html" target="_top" xlink:title="{o2::utils::Bracket\&lt; T \&gt;\n||+ Bracket()\l+ Bracket()\l+ Bracket()\l+ ~Bracket()\l+ set()\l+ operator\&lt;()\l+ operator\&gt;()\l+ operator\&lt;()\l+ operator\&gt;()\l+ operator==()\l+ setMax()\l+ setMin()\l+ max()\l+ min()\l+ max()\l+ min()\l+ mean()\l+ delta()\l+ isValid()\l+ isInvalid()\l+ update()\l+ isOutside()\l+ isOutside()\l}">
<polygon fill="none" stroke="#000000" points="127,-573.5 127,-872.5 255,-872.5 255,-573.5 127,-573.5"/>
<text text-anchor="middle" x="191" y="-860.5" font-family="Helvetica,sans-Serif" font-size="10.00" fill="#000000">o2::utils::Bracket&lt; T &gt;</text>
<polyline fill="none" stroke="#000000" points="127,-853.5 255,-853.5 "/>
<text text-anchor="middle" x="191" y="-841.5" font-family="Helvetica,sans-Serif" font-size="10.00" fill="#000000"> </text>
<polyline fill="none" stroke="#000000" points="127,-834.5 255,-834.5 "/>
<text text-anchor="start" x="135" y="-822.5" font-family="Helvetica,sans-Serif" font-size="10.00" fill="#000000">+ Bracket()</text>
<text text-anchor="start" x="135" y="-811.5" font-family="Helvetica,sans-Serif" font-size="10.00" fill="#000000">+ Bracket()</text>
<text text-anchor="start" x="135" y="-800.5" font-family="Helvetica,sans-Serif" font-size="10.00" fill="#000000">+ Bracket()</text>
<text text-anchor="start" x="135" y="-789.5" font-family="Helvetica,sans-Serif" font-size="10.00" fill="#000000">+ ~Bracket()</text>
<text text-anchor="start" x="135" y="-778.5" font-family="Helvetica,sans-Serif" font-size="10.00" fill="#000000">+ set()</text>
<text text-anchor="start" x="135" y="-767.5" font-family="Helvetica,sans-Serif" font-size="10.00" fill="#000000">+ operator&lt;()</text>
<text text-anchor="start" x="135" y="-756.5" font-family="Helvetica,sans-Serif" font-size="10.00" fill="#000000">+ operator&gt;()</text>
<text text-anchor="start" x="135" y="-745.5" font-family="Helvetica,sans-Serif" font-size="10.00" fill="#000000">+ operator&lt;()</text>
<text text-anchor="start" x="135" y="-734.5" font-family="Helvetica,sans-Serif" font-size="10.00" fill="#000000">+ operator&gt;()</text>
<text text-anchor="start" x="135" y="-723.5" font-family="Helvetica,sans-Serif" font-size="10.00" fill="#000000">+ operator==()</text>
<text text-anchor="start" x="135" y="-712.5" font-family="Helvetica,sans-Serif" font-size="10.00" fill="#000000">+ setMax()</text>
<text text-anchor="start" x="135" y="-701.5" font-family="Helvetica,sans-Serif" font-size="10.00" fill="#000000">+ setMin()</text>
<text text-anchor="start" x="135" y="-690.5" font-family="Helvetica,sans-Serif" font-size="10.00" fill="#000000">+ max()</text>
<text text-anchor="start" x="135" y="-679.5" font-family="Helvetica,sans-Serif" font-size="10.00" fill="#000000">+ min()</text>
<text text-anchor="start" x="135" y="-668.5" font-family="Helvetica,sans-Serif" font-size="10.00" fill="#000000">+ max()</text>
<text text-anchor="start" x="135" y="-657.5" font-family="Helvetica,sans-Serif" font-size="10.00" fill="#000000">+ min()</text>
<text text-anchor="start" x="135" y="-646.5" font-family="Helvetica,sans-Serif" font-size="10.00" fill="#000000">+ mean()</text>
<text text-anchor="start" x="135" y="-635.5" font-family="Helvetica,sans-Serif" font-size="10.00" fill="#000000">+ delta()</text>
<text text-anchor="start" x="135" y="-624.5" font-family="Helvetica,sans-Serif" font-size="10.00" fill="#000000">+ isValid()</text>
<text text-anchor="start" x="135" y="-613.5" font-family="Helvetica,sans-Serif" font-size="10.00" fill="#000000">+ isInvalid()</text>
<text text-anchor="start" x="135" y="-602.5" font-family="Helvetica,sans-Serif" font-size="10.00" fill="#000000">+ update()</text>
<text text-anchor="start" x="135" y="-591.5" font-family="Helvetica,sans-Serif" font-size="10.00" fill="#000000">+ isOutside()</text>
<text text-anchor="start" x="135" y="-580.5" font-family="Helvetica,sans-Serif" font-size="10.00" fill="#000000">+ isOutside()</text>
</a>
</g>
</g>
<!-- Node5&#45;&gt;Node4 -->
<g id="edge4" class="edge">
<title>Node5&#45;&gt;Node4</title>
<path fill="none" stroke="#ffa500" d="M191,-563.2235C191,-534.558 191,-504.7236 191,-476.19"/>
<polygon fill="#ffa500" stroke="#ffa500" points="187.5001,-563.31 191,-573.31 194.5001,-563.3101 187.5001,-563.31"/>
<text text-anchor="middle" x="215" y="-530.5" font-family="Helvetica,sans-Serif" font-size="10.00" fill="#000000"> &lt; float &gt;</text>
</g>
<!-- Node6 -->
<g id="node6" class="node">
<title>Node6</title>
<g id="a_node6"><a xlink:href="../../dc/d10/classshort.html" target="_top" xlink:title="{short\n||}">
<polygon fill="none" stroke="#000000" points="258.5,-292.5 258.5,-349.5 299.5,-349.5 299.5,-292.5 258.5,-292.5"/>
<text text-anchor="middle" x="279" y="-337.5" font-family="Helvetica,sans-Serif" font-size="10.00" fill="#000000">short</text>
<polyline fill="none" stroke="#000000" points="258.5,-330.5 299.5,-330.5 "/>
<text text-anchor="middle" x="279" y="-318.5" font-family="Helvetica,sans-Serif" font-size="10.00" fill="#000000"> </text>
<polyline fill="none" stroke="#000000" points="258.5,-311.5 299.5,-311.5 "/>
<text text-anchor="middle" x="279" y="-299.5" font-family="Helvetica,sans-Serif" font-size="10.00" fill="#000000"> </text>
</a>
</g>
</g>
<!-- Node6&#45;&gt;Node1 -->
<g id="edge5" class="edge">
<title>Node6&#45;&gt;Node1</title>
<path fill="none" stroke="#404040" d="M283.5483,-292.3097C289.0772,-258.097 298.9239,-199.2264 309,-149 313.5416,-126.3616 319.1542,-101.3407 324.0011,-80.4775"/>
<polygon fill="none" stroke="#404040" points="324.0173,-80.4076 321.4902,-73.6538 326.7524,-68.7234 329.2796,-75.4772 324.0173,-80.4076"/>
<text text-anchor="middle" x="340" y="-112" font-family="Helvetica,sans-Serif" font-size="10.00" fill="#000000"> +valid</text>
<text text-anchor="middle" x="340" y="-101" font-family="Helvetica,sans-Serif" font-size="10.00" fill="#000000">+order</text>
</g>
<!-- Node7 -->
<g id="node7" class="node">
<title>Node7</title>
<polygon fill="none" stroke="#bfbfbf" points="318,-287 318,-355 464,-355 464,-287 318,-287"/>
<text text-anchor="start" x="326" y="-343" font-family="Helvetica,sans-Serif" font-size="10.00" fill="#000000">vector&lt; o2::globaltracking</text>
<text text-anchor="middle" x="391" y="-332" font-family="Helvetica,sans-Serif" font-size="10.00" fill="#000000">::ABDebugLink &gt;</text>
<polyline fill="none" stroke="#bfbfbf" points="318,-325 464,-325 "/>
<text text-anchor="middle" x="391" y="-313" font-family="Helvetica,sans-Serif" font-size="10.00" fill="#000000"> </text>
<polyline fill="none" stroke="#bfbfbf" points="318,-306 464,-306 "/>
<text text-anchor="middle" x="391" y="-294" font-family="Helvetica,sans-Serif" font-size="10.00" fill="#000000"> </text>
</g>
<!-- Node7&#45;&gt;Node1 -->
<g id="edge6" class="edge">
<title>Node7&#45;&gt;Node1</title>
<path fill="none" stroke="#404040" d="M390.4946,-286.8976C388.9778,-240.631 383.2333,-155.847 362,-87 361.2566,-84.5897 360.4067,-82.1577 359.4775,-79.7304"/>
<polygon fill="none" stroke="#404040" points="359.3918,-79.5307 353.348,-75.5971 354.6544,-68.5053 360.6982,-72.4389 359.3918,-79.5307"/>
<text text-anchor="middle" x="390.5" y="-106.5" font-family="Helvetica,sans-Serif" font-size="10.00" fill="#000000"> +links</text>
</g>
<!-- Node8 -->
<g id="node8" class="node">
<title>Node8</title>
<polygon fill="none" stroke="#bfbfbf" points="503.5,-694.5 503.5,-751.5 532.5,-751.5 532.5,-694.5 503.5,-694.5"/>
<text text-anchor="middle" x="518" y="-739.5" font-family="Helvetica,sans-Serif" font-size="10.00" fill="#000000">int</text>
<polyline fill="none" stroke="#bfbfbf" points="503.5,-732.5 532.5,-732.5 "/>
<text text-anchor="middle" x="518" y="-720.5" font-family="Helvetica,sans-Serif" font-size="10.00" fill="#000000"> </text>
<polyline fill="none" stroke="#bfbfbf" points="503.5,-713.5 532.5,-713.5 "/>
<text text-anchor="middle" x="518" y="-701.5" font-family="Helvetica,sans-Serif" font-size="10.00" fill="#000000"> </text>
</g>
<!-- Node8&#45;&gt;Node1 -->
<g id="edge7" class="edge">
<title>Node8&#45;&gt;Node1</title>
<path fill="none" stroke="#404040" d="M516.9042,-694.3654C512.5713,-585.2211 495.7542,-198.9101 473,-149 457.4625,-114.9193 426.0482,-87.5823 397.1125,-68.1779"/>
<polygon fill="none" stroke="#404040" points="397.0884,-68.1623 389.878,-68.2638 387.011,-61.6471 394.2215,-61.5456 397.0884,-68.1623"/>
<text text-anchor="middle" x="529.5" y="-324" font-family="Helvetica,sans-Serif" font-size="10.00" fill="#000000"> +trackID</text>
<text text-anchor="middle" x="529.5" y="-313" font-family="Helvetica,sans-Serif" font-size="10.00" fill="#000000">+icCand</text>
</g>
<!-- Node10 -->
<g id="node10" class="node">
<title>Node10</title>
<g id="a_node10"><a xlink:href="../../de/def/classo2_1_1MCCompLabel.html" target="_top" xlink:title="{o2::MCCompLabel\n||+ MCCompLabel()\l+ MCCompLabel()\l+ ~MCCompLabel()\l+ isSet()\l+ isEmpty()\l+ isNoise()\l+ isValid()\l+ isFake()\l+ isCorrect()\l+ compare()\l+ operator ULong64_t()\l+ getRawValue()\l+ operator==()\l+ unset()\l+ setNoise()\l+ setFakeFlag()\l+ set()\l+ getTrackID()\l+ getTrackIDSigned()\l+ getEventID()\l+ getSourceID()\l+ get()\l+ print()\l+ ClassDefNV()\l+ maxSourceID()\l+ maxEventID()\l+ maxTrackID()\l}">
<polygon fill="none" stroke="#000000" points="565.5,-149.5 565.5,-492.5 696.5,-492.5 696.5,-149.5 565.5,-149.5"/>
<text text-anchor="middle" x="631" y="-480.5" font-family="Helvetica,sans-Serif" font-size="10.00" fill="#000000">o2::MCCompLabel</text>
<polyline fill="none" stroke="#000000" points="565.5,-473.5 696.5,-473.5 "/>
<text text-anchor="middle" x="631" y="-461.5" font-family="Helvetica,sans-Serif" font-size="10.00" fill="#000000"> </text>
<polyline fill="none" stroke="#000000" points="565.5,-454.5 696.5,-454.5 "/>
<text text-anchor="start" x="573.5" y="-442.5" font-family="Helvetica,sans-Serif" font-size="10.00" fill="#000000">+ MCCompLabel()</text>
<text text-anchor="start" x="573.5" y="-431.5" font-family="Helvetica,sans-Serif" font-size="10.00" fill="#000000">+ MCCompLabel()</text>
<text text-anchor="start" x="573.5" y="-420.5" font-family="Helvetica,sans-Serif" font-size="10.00" fill="#000000">+ ~MCCompLabel()</text>
<text text-anchor="start" x="573.5" y="-409.5" font-family="Helvetica,sans-Serif" font-size="10.00" fill="#000000">+ isSet()</text>
<text text-anchor="start" x="573.5" y="-398.5" font-family="Helvetica,sans-Serif" font-size="10.00" fill="#000000">+ isEmpty()</text>
<text text-anchor="start" x="573.5" y="-387.5" font-family="Helvetica,sans-Serif" font-size="10.00" fill="#000000">+ isNoise()</text>
<text text-anchor="start" x="573.5" y="-376.5" font-family="Helvetica,sans-Serif" font-size="10.00" fill="#000000">+ isValid()</text>
<text text-anchor="start" x="573.5" y="-365.5" font-family="Helvetica,sans-Serif" font-size="10.00" fill="#000000">+ isFake()</text>
<text text-anchor="start" x="573.5" y="-354.5" font-family="Helvetica,sans-Serif" font-size="10.00" fill="#000000">+ isCorrect()</text>
<text text-anchor="start" x="573.5" y="-343.5" font-family="Helvetica,sans-Serif" font-size="10.00" fill="#000000">+ compare()</text>
<text text-anchor="start" x="573.5" y="-332.5" font-family="Helvetica,sans-Serif" font-size="10.00" fill="#000000">+ operator ULong64_t()</text>
<text text-anchor="start" x="573.5" y="-321.5" font-family="Helvetica,sans-Serif" font-size="10.00" fill="#000000">+ getRawValue()</text>
<text text-anchor="start" x="573.5" y="-310.5" font-family="Helvetica,sans-Serif" font-size="10.00" fill="#000000">+ operator==()</text>
<text text-anchor="start" x="573.5" y="-299.5" font-family="Helvetica,sans-Serif" font-size="10.00" fill="#000000">+ unset()</text>
<text text-anchor="start" x="573.5" y="-288.5" font-family="Helvetica,sans-Serif" font-size="10.00" fill="#000000">+ setNoise()</text>
<text text-anchor="start" x="573.5" y="-277.5" font-family="Helvetica,sans-Serif" font-size="10.00" fill="#000000">+ setFakeFlag()</text>
<text text-anchor="start" x="573.5" y="-266.5" font-family="Helvetica,sans-Serif" font-size="10.00" fill="#000000">+ set()</text>
<text text-anchor="start" x="573.5" y="-255.5" font-family="Helvetica,sans-Serif" font-size="10.00" fill="#000000">+ getTrackID()</text>
<text text-anchor="start" x="573.5" y="-244.5" font-family="Helvetica,sans-Serif" font-size="10.00" fill="#000000">+ getTrackIDSigned()</text>
<text text-anchor="start" x="573.5" y="-233.5" font-family="Helvetica,sans-Serif" font-size="10.00" fill="#000000">+ getEventID()</text>
<text text-anchor="start" x="573.5" y="-222.5" font-family="Helvetica,sans-Serif" font-size="10.00" fill="#000000">+ getSourceID()</text>
<text text-anchor="start" x="573.5" y="-211.5" font-family="Helvetica,sans-Serif" font-size="10.00" fill="#000000">+ get()</text>
<text text-anchor="start" x="573.5" y="-200.5" font-family="Helvetica,sans-Serif" font-size="10.00" fill="#000000">+ print()</text>
<text text-anchor="start" x="573.5" y="-189.5" font-family="Helvetica,sans-Serif" font-size="10.00" fill="#000000">+ ClassDefNV()</text>
<text text-anchor="start" x="573.5" y="-178.5" font-family="Helvetica,sans-Serif" font-size="10.00" fill="#000000">+ maxSourceID()</text>
<text text-anchor="start" x="573.5" y="-167.5" font-family="Helvetica,sans-Serif" font-size="10.00" fill="#000000">+ maxEventID()</text>
<text text-anchor="start" x="573.5" y="-156.5" font-family="Helvetica,sans-Serif" font-size="10.00" fill="#000000">+ maxTrackID()</text>
</a>
</g>
</g>
<!-- Node8&#45;&gt;Node10 -->
<g id="edge11" class="edge">
<title>Node8&#45;&gt;Node10</title>
<path fill="none" stroke="#404040" d="M521.7573,-694.1587C527.4962,-653.0107 539.7388,-575.3148 558,-511 559.2178,-506.711 560.4929,-502.3832 561.8166,-498.031"/>
<polygon fill="none" stroke="#404040" points="561.852,-497.9175 559.822,-490.998 565.4285,-486.4628 567.4585,-493.3823 561.852,-497.9175"/>
<text text-anchor="middle" x="592.5" y="-541.5" font-family="Helvetica,sans-Serif" font-size="10.00" fill="#000000"> +nbitsSrcID</text>
<text text-anchor="middle" x="592.5" y="-530.5" font-family="Helvetica,sans-Serif" font-size="10.00" fill="#000000">+nbitsTrackID</text>
<text text-anchor="middle" x="592.5" y="-519.5" font-family="Helvetica,sans-Serif" font-size="10.00" fill="#000000">+nbitsEvID</text>
</g>
<!-- Node9 -->
<g id="node9" class="node">
<title>Node9</title>
<polygon fill="none" stroke="#bfbfbf" points="715,-287 715,-355 857,-355 857,-287 715,-287"/>
<text text-anchor="start" x="723" y="-343" font-family="Helvetica,sans-Serif" font-size="10.00" fill="#000000">TrackParametrizationWith</text>
<text text-anchor="middle" x="786" y="-332" font-family="Helvetica,sans-Serif" font-size="10.00" fill="#000000">Error&lt; float &gt;</text>
<polyline fill="none" stroke="#bfbfbf" points="715,-325 857,-325 "/>
<text text-anchor="middle" x="786" y="-313" font-family="Helvetica,sans-Serif" font-size="10.00" fill="#000000"> </text>
<polyline fill="none" stroke="#bfbfbf" points="715,-306 857,-306 "/>
<text text-anchor="middle" x="786" y="-294" font-family="Helvetica,sans-Serif" font-size="10.00" fill="#000000"> </text>
</g>
<!-- Node9&#45;&gt;Node1 -->
<g id="edge8" class="edge">
<title>Node9&#45;&gt;Node1</title>
<path fill="none" stroke="#404040" d="M776.3866,-286.7861C764.601,-249.5888 741.6815,-189.9831 706,-149 672.6484,-110.693 657.1484,-105.8886 610,-87 540.9576,-59.3403 456.198,-45.9893 399.1794,-39.7239"/>
<polygon fill="none" stroke="#404040" points="399.028,-39.7081 392.6434,-43.0604 387.0934,-38.4563 393.4779,-35.104 399.028,-39.7081"/>
<text text-anchor="middle" x="712.5" y="-106.5" font-family="Helvetica,sans-Serif" font-size="10.00" fill="#000000"> +tpcSeed</text>
</g>
<!-- Node10&#45;&gt;Node1 -->
<g id="edge9" class="edge">
<title>Node10&#45;&gt;Node1</title>
<path fill="none" stroke="#404040" d="M568.5244,-149.47C553.7158,-125.7694 535.7248,-103.8267 514,-87 480.9903,-61.4326 435.8294,-48.302 399.1286,-41.5661"/>
<polygon fill="none" stroke="#404040" points="398.8679,-41.522 392.2841,-44.4639 387.0363,-39.5181 393.6201,-36.5762 398.8679,-41.522"/>
<text text-anchor="middle" x="579.5" y="-106.5" font-family="Helvetica,sans-Serif" font-size="10.00" fill="#000000"> +tpcLabel</text>
</g>
<!-- Node11 -->
<g id="node11" class="node">
<title>Node11</title>
<polygon fill="none" stroke="#bfbfbf" points="597,-694.5 597,-751.5 665,-751.5 665,-694.5 597,-694.5"/>
<text text-anchor="middle" x="631" y="-739.5" font-family="Helvetica,sans-Serif" font-size="10.00" fill="#000000">ULong64_t</text>
<polyline fill="none" stroke="#bfbfbf" points="597,-732.5 665,-732.5 "/>
<text text-anchor="middle" x="631" y="-720.5" font-family="Helvetica,sans-Serif" font-size="10.00" fill="#000000"> </text>
<polyline fill="none" stroke="#bfbfbf" points="597,-713.5 665,-713.5 "/>
<text text-anchor="middle" x="631" y="-701.5" font-family="Helvetica,sans-Serif" font-size="10.00" fill="#000000"> </text>
</g>
<!-- Node11&#45;&gt;Node10 -->
<g id="edge10" class="edge">
<title>Node11&#45;&gt;Node10</title>
<path fill="none" stroke="#404040" d="M631,-694.4114C631,-654.3111 631,-578.0394 631,-504.8283"/>
<polygon fill="none" stroke="#404040" points="631.0001,-504.6366 627,-498.6366 631,-492.6366 635,-498.6365 631.0001,-504.6366"/>
<text text-anchor="middle" x="667" y="-547" font-family="Helvetica,sans-Serif" font-size="10.00" fill="#000000"> +maskFull</text>
<text text-anchor="middle" x="667" y="-536" font-family="Helvetica,sans-Serif" font-size="10.00" fill="#000000">+maskSrcID</text>
<text text-anchor="middle" x="667" y="-525" font-family="Helvetica,sans-Serif" font-size="10.00" fill="#000000">+maskEvID</text>
<text text-anchor="middle" x="667" y="-514" font-family="Helvetica,sans-Serif" font-size="10.00" fill="#000000">+maskTrackID</text>
</g>
</g>
</svg>
        <g id="navigator" transform="translate(0 0)" fill="#404254">
                <rect fill="#f2f5e9" fill-opacity="0.5" stroke="#606060" stroke-width=".5" x="0" y="0" width="60" height="60"/>
                <use id="zoomplus" xlink:href="#zoomPlus" x="17" y="9" onmousedown="handleZoom(evt,'in')"/>
                <use id="zoomminus" xlink:href="#zoomMin" x="42" y="9" onmousedown="handleZoom(evt,'out')"/>
                <use id="reset" xlink:href="#resetDef" x="30" y="36" onmousedown="handleReset()"/>
                <g id="arrowUp" xlink:href="#dirArrow" transform="translate(30 24)" onmousedown="handlePan(0,-1)">
                  <use xlink:href="#rim" fill="#404040">
                        <set attributeName="fill" to="#808080" begin="arrowUp.mouseover" end="arrowUp.mouseout"/>
                  </use>
                  <path fill="none" stroke="white" stroke-width="1.5" d="M0,-3.0v7 M-2.5,-0.5L0,-3.0L2.5,-0.5"/>
                </g>
                <g id="arrowRight" xlink:href="#dirArrow" transform="rotate(90) translate(36 -43)" onmousedown="handlePan(1,0)">
                  <use xlink:href="#rim" fill="#404040">
                        <set attributeName="fill" to="#808080" begin="arrowRight.mouseover" end="arrowRight.mouseout"/>
                  </use>
                  <path fill="none" stroke="white" stroke-width="1.5" d="M0,-3.0v7 M-2.5,-0.5L0,-3.0L2.5,-0.5"/>
                </g>
                <g id="arrowDown" xlink:href="#dirArrow" transform="rotate(180) translate(-30 -48)" onmousedown="handlePan(0,1)">
                  <use xlink:href="#rim" fill="#404040">
                        <set attributeName="fill" to="#808080" begin="arrowDown.mouseover" end="arrowDown.mouseout"/>
                  </use>
                  <path fill="none" stroke="white" stroke-width="1.5" d="M0,-3.0v7 M-2.5,-0.5L0,-3.0L2.5,-0.5"/>
                </g>
                <g id="arrowLeft" xlink:href="#dirArrow" transform="rotate(270) translate(-36 17)" onmousedown="handlePan(-1,0)">
                  <use xlink:href="#rim" fill="#404040">
                        <set attributeName="fill" to="#808080" begin="arrowLeft.mouseover" end="arrowLeft.mouseout"/>
                  </use>
                  <path fill="none" stroke="white" stroke-width="1.5" d="M0,-3.0v7 M-2.5,-0.5L0,-3.0L2.5,-0.5"/>
                </g>
        </g>
        <svg viewBox="0 0 15 15" width="100%" height="30px" preserveAspectRatio="xMaxYMin meet">
         <g id="arrow_out" transform="scale(0.3 0.3)">
          <a xlink:href="structo2_1_1globaltracking_1_1ABDebugTrack__coll__graph_org.svg" target="_base">
           <rect id="button" ry="5" rx="5" y="6" x="6" height="38" width="38"
                fill="#f2f5e9" fill-opacity="0.5" stroke="#606060" stroke-width="1.0"/>
           <path id="arrow"
             d="M 11.500037,31.436501 C 11.940474,20.09759 22.043105,11.32322 32.158766,21.979434 L 37.068811,17.246167 C 37.068811,17.246167 37.088388,32 37.088388,32 L 22.160133,31.978069 C 22.160133,31.978069 26.997745,27.140456 26.997745,27.140456 C 18.528582,18.264221 13.291696,25.230495 11.500037,31.436501 z"
             style="fill:#404040;"/>
          </a>
         </g>
        </svg>
</svg>
