<?xml version="1.0" encoding="UTF-8" standalone="no"?>
<!DOCTYPE svg PUBLIC "-//W3C//DTD SVG 1.1//EN"
 "http://www.w3.org/Graphics/SVG/1.1/DTD/svg11.dtd">
<!-- Generated by graphviz version 2.40.1 (20161225.0304)
 -->
<!-- Title: /home/travis/build/AliceO2Group/AliceO2/Framework/Core/src/BoostOptionsRetriever.cxx Pages: 1 -->
<svg width="1337pt" height="374pt"
 viewBox="0.00 0.00 1337.00 374.00" xmlns="http://www.w3.org/2000/svg" xmlns:xlink="http://www.w3.org/1999/xlink">
<g id="graph0" class="graph" transform="scale(1 1) rotate(0) translate(4 370)">
<title>/home/travis/build/AliceO2Group/AliceO2/Framework/Core/src/BoostOptionsRetriever.cxx</title>
<!-- Node0 -->
<g id="node1" class="node">
<title>Node0</title>
<polygon fill="#bfbfbf" stroke="#000000" points="665.5,-313.5 665.5,-365.5 850.5,-365.5 850.5,-313.5 665.5,-313.5"/>
<text text-anchor="start" x="673.5" y="-353.5" font-family="Helvetica,sans-Serif" font-size="10.00" fill="#000000">/home/travis/build</text>
<text text-anchor="start" x="673.5" y="-342.5" font-family="Helvetica,sans-Serif" font-size="10.00" fill="#000000">/AliceO2Group/AliceO2</text>
<text text-anchor="start" x="673.5" y="-331.5" font-family="Helvetica,sans-Serif" font-size="10.00" fill="#000000">/Framework/Core/src/BoostOptions</text>
<text text-anchor="middle" x="758" y="-320.5" font-family="Helvetica,sans-Serif" font-size="10.00" fill="#000000">Retriever.cxx</text>
</g>
<!-- Node1 -->
<g id="node2" class="node">
<title>Node1</title>
<g id="a_node2"><a xlink:href="../../d3/d7e/BoostOptionsRetriever_8h.html" target="_top" xlink:title="Framework/BoostOptionsRetriever.h">
<polygon fill="none" stroke="#000000" points="252.5,-252 252.5,-271 443.5,-271 443.5,-252 252.5,-252"/>
<text text-anchor="middle" x="348" y="-259" font-family="Helvetica,sans-Serif" font-size="10.00" fill="#000000">Framework/BoostOptionsRetriever.h</text>
</a>
</g>
</g>
<!-- Node0&#45;&gt;Node1 -->
<g id="edge1" class="edge">
<title>Node0&#45;&gt;Node1</title>
<path fill="none" stroke="#191970" d="M665.4768,-321.898C586.737,-306.9183 475.9326,-285.8384 408.2057,-272.9538"/>
<polygon fill="#191970" stroke="#191970" points="408.6041,-269.4669 398.1262,-271.0362 407.2958,-276.3435 408.6041,-269.4669"/>
</g>
<!-- Node2 -->
<g id="node3" class="node">
<title>Node2</title>
<g id="a_node3"><a xlink:href="../../d0/d1c/ConfigParamSpec_8h.html" target="_top" xlink:title="Framework/ConfigParamSpec.h">
<polygon fill="none" stroke="#000000" points="446.5,-118 446.5,-137 613.5,-137 613.5,-118 446.5,-118"/>
<text text-anchor="middle" x="530" y="-125" font-family="Helvetica,sans-Serif" font-size="10.00" fill="#000000">Framework/ConfigParamSpec.h</text>
</a>
</g>
</g>
<!-- Node0&#45;&gt;Node2 -->
<g id="edge22" class="edge">
<title>Node0&#45;&gt;Node2</title>
<path fill="none" stroke="#191970" d="M679.6835,-313.4226C631.303,-293.0751 572.4539,-259.7848 540,-210 527.7913,-191.2717 526.6984,-164.9897 527.7377,-147.1599"/>
<polygon fill="#191970" stroke="#191970" points="531.2365,-147.3239 528.6065,-137.0607 524.2622,-146.7239 531.2365,-147.3239"/>
</g>
<!-- Node6 -->
<g id="node7" class="node">
<title>Node6</title>
<polygon fill="none" stroke="#bfbfbf" points="0,-.5 0,-19.5 50,-19.5 50,-.5 0,-.5"/>
<text text-anchor="middle" x="25" y="-7.5" font-family="Helvetica,sans-Serif" font-size="10.00" fill="#000000">cstring</text>
</g>
<!-- Node0&#45;&gt;Node6 -->
<g id="edge33" class="edge">
<title>Node0&#45;&gt;Node6</title>
<path fill="none" stroke="#191970" d="M665.2825,-334.1472C528.4842,-325.4141 279.6286,-306.102 195,-277 128.8633,-254.257 61,-264.4379 61,-194.5 61,-194.5 61,-194.5 61,-127.5 61,-91.4217 45.2921,-51.7379 34.6281,-28.9538"/>
<polygon fill="#191970" stroke="#191970" points="37.6746,-27.2149 30.1579,-19.7483 31.3778,-30.2727 37.6746,-27.2149"/>
</g>
<!-- Node8 -->
<g id="node9" class="node">
<title>Node8</title>
<polygon fill="none" stroke="#bfbfbf" points="841.5,-.5 841.5,-19.5 890.5,-19.5 890.5,-.5 841.5,-.5"/>
<text text-anchor="middle" x="866" y="-7.5" font-family="Helvetica,sans-Serif" font-size="10.00" fill="#000000">cstdlib</text>
</g>
<!-- Node0&#45;&gt;Node8 -->
<g id="edge32" class="edge">
<title>Node0&#45;&gt;Node8</title>
<path fill="none" stroke="#191970" d="M850.7457,-321.9205C917.9269,-303.1895 997,-265.9638 997,-194.5 997,-194.5 997,-194.5 997,-127.5 997,-75.3958 938.8595,-40.5662 900.0447,-23.1194"/>
<polygon fill="#191970" stroke="#191970" points="901.2083,-19.8096 890.6401,-19.0584 898.4332,-26.236 901.2083,-19.8096"/>
</g>
<!-- Node12 -->
<g id="node13" class="node">
<title>Node12</title>
<polygon fill="none" stroke="#bfbfbf" points="648,-.5 648,-19.5 692,-19.5 692,-.5 648,-.5"/>
<text text-anchor="middle" x="670" y="-7.5" font-family="Helvetica,sans-Serif" font-size="10.00" fill="#000000">string</text>
</g>
<!-- Node0&#45;&gt;Node12 -->
<g id="edge30" class="edge">
<title>Node0&#45;&gt;Node12</title>
<path fill="none" stroke="#191970" d="M846.454,-313.4455C900.3799,-291.5111 959,-253.9865 959,-194.5 959,-194.5 959,-194.5 959,-127.5 959,-72.538 777.3591,-30.8721 702.0833,-15.9647"/>
<polygon fill="#191970" stroke="#191970" points="702.682,-12.5156 692.1975,-14.0402 701.3444,-19.3866 702.682,-12.5156"/>
</g>
<!-- Node15 -->
<g id="node16" class="node">
<title>Node15</title>
<polygon fill="none" stroke="#bfbfbf" points="131.5,-118 131.5,-137 178.5,-137 178.5,-118 131.5,-118"/>
<text text-anchor="middle" x="155" y="-125" font-family="Helvetica,sans-Serif" font-size="10.00" fill="#000000">vector</text>
</g>
<!-- Node0&#45;&gt;Node15 -->
<g id="edge31" class="edge">
<title>Node0&#45;&gt;Node15</title>
<path fill="none" stroke="#191970" d="M665.4237,-335.4137C537.8417,-328.5752 315.5043,-311.9681 243,-277 204.7848,-258.5692 195.9089,-246.9177 175,-210 163.8587,-190.3284 158.8883,-164.6096 156.6938,-147.154"/>
<polygon fill="#191970" stroke="#191970" points="160.1543,-146.5964 155.6156,-137.023 153.1936,-147.3373 160.1543,-146.5964"/>
</g>
<!-- Node17 -->
<g id="node18" class="node">
<title>Node17</title>
<g id="a_node18"><a xlink:href="../../da/d3e/PropertyTreeHelpers_8h.html" target="_top" xlink:title="PropertyTreeHelpers.h">
<polygon fill="none" stroke="#000000" points="695.5,-252 695.5,-271 820.5,-271 820.5,-252 695.5,-252"/>
<text text-anchor="middle" x="758" y="-259" font-family="Helvetica,sans-Serif" font-size="10.00" fill="#000000">PropertyTreeHelpers.h</text>
</a>
</g>
</g>
<!-- Node0&#45;&gt;Node17 -->
<g id="edge23" class="edge">
<title>Node0&#45;&gt;Node17</title>
<path fill="none" stroke="#191970" d="M758,-313.0928C758,-302.6735 758,-290.911 758,-281.2512"/>
<polygon fill="#191970" stroke="#191970" points="761.5001,-281.0838 758,-271.0839 754.5001,-281.0839 761.5001,-281.0838"/>
</g>
<!-- Node21 -->
<g id="node22" class="node">
<title>Node21</title>
<polygon fill="none" stroke="#bfbfbf" points="1025,-252 1025,-271 1175,-271 1175,-252 1025,-252"/>
<text text-anchor="middle" x="1100" y="-259" font-family="Helvetica,sans-Serif" font-size="10.00" fill="#000000">boost/program_options.hpp</text>
</g>
<!-- Node0&#45;&gt;Node21 -->
<g id="edge28" class="edge">
<title>Node0&#45;&gt;Node21</title>
<path fill="none" stroke="#191970" d="M850.5501,-318.3921C913.9767,-303.9264 995.7876,-285.2677 1048.0846,-273.3404"/>
<polygon fill="#191970" stroke="#191970" points="1049.1649,-276.6839 1058.1363,-271.0479 1047.6084,-269.8592 1049.1649,-276.6839"/>
</g>
<!-- Node22 -->
<g id="node23" class="node">
<title>Node22</title>
<polygon fill="none" stroke="#bfbfbf" points="1193,-246.5 1193,-276.5 1329,-276.5 1329,-246.5 1193,-246.5"/>
<text text-anchor="start" x="1201" y="-264.5" font-family="Helvetica,sans-Serif" font-size="10.00" fill="#000000">boost/program_options</text>
<text text-anchor="middle" x="1261" y="-253.5" font-family="Helvetica,sans-Serif" font-size="10.00" fill="#000000">/options_description.hpp</text>
</g>
<!-- Node0&#45;&gt;Node22 -->
<g id="edge29" class="edge">
<title>Node0&#45;&gt;Node22</title>
<path fill="none" stroke="#191970" d="M850.8831,-327.316C934.9702,-315.9535 1062.4635,-297.9007 1182.4971,-277.2148"/>
<polygon fill="#191970" stroke="#191970" points="1183.346,-280.62 1192.6016,-275.4641 1182.1508,-273.7227 1183.346,-280.62"/>
</g>
<!-- Node1&#45;&gt;Node2 -->
<g id="edge2" class="edge">
<title>Node1&#45;&gt;Node2</title>
<path fill="none" stroke="#191970" d="M379.9896,-251.9414C404.6119,-243.5383 438.6127,-229.579 464,-210 487.3767,-191.9716 507.4467,-164.0034 519.128,-145.7193"/>
<polygon fill="#191970" stroke="#191970" points="522.1496,-147.4878 524.445,-137.1446 516.2005,-143.7988 522.1496,-147.4878"/>
</g>
<!-- Node13 -->
<g id="node14" class="node">
<title>Node13</title>
<g id="a_node14"><a xlink:href="../../df/d72/ParamRetriever_8h.html" target="_top" xlink:title="Framework/ParamRetriever.h">
<polygon fill="none" stroke="#000000" points="221.5,-185 221.5,-204 378.5,-204 378.5,-185 221.5,-185"/>
<text text-anchor="middle" x="300" y="-192" font-family="Helvetica,sans-Serif" font-size="10.00" fill="#000000">Framework/ParamRetriever.h</text>
</a>
</g>
</g>
<!-- Node1&#45;&gt;Node13 -->
<g id="edge14" class="edge">
<title>Node1&#45;&gt;Node13</title>
<path fill="none" stroke="#191970" d="M341.1228,-251.9005C333.7802,-241.6515 321.9759,-225.1747 312.8938,-212.4976"/>
<polygon fill="#191970" stroke="#191970" points="315.5336,-210.1724 306.8645,-204.0817 309.8432,-214.2492 315.5336,-210.1724"/>
</g>
<!-- Node14 -->
<g id="node15" class="node">
<title>Node14</title>
<polygon fill="none" stroke="#bfbfbf" points="220.5,-112.5 220.5,-142.5 333.5,-142.5 333.5,-112.5 220.5,-112.5"/>
<text text-anchor="start" x="228.5" y="-130.5" font-family="Helvetica,sans-Serif" font-size="10.00" fill="#000000">boost/property_tree</text>
<text text-anchor="middle" x="277" y="-119.5" font-family="Helvetica,sans-Serif" font-size="10.00" fill="#000000">/ptree_fwd.hpp</text>
</g>
<!-- Node1&#45;&gt;Node14 -->
<g id="edge19" class="edge">
<title>Node1&#45;&gt;Node14</title>
<path fill="none" stroke="#191970" d="M308.7926,-251.9438C272.7945,-242.2825 223.3702,-226.4638 212,-210 196.9572,-188.2185 219.8778,-164.6105 242.5428,-148.2519"/>
<polygon fill="#191970" stroke="#191970" points="244.5516,-151.1183 250.8107,-142.5699 240.5869,-145.3493 244.5516,-151.1183"/>
</g>
<!-- Node1&#45;&gt;Node15 -->
<g id="edge21" class="edge">
<title>Node1&#45;&gt;Node15</title>
<path fill="none" stroke="#191970" d="M295.6718,-251.9579C266.229,-244.4855 230.229,-231.6105 204,-210 183.4841,-193.0966 169.5063,-165.212 161.8869,-146.6033"/>
<polygon fill="#191970" stroke="#191970" points="165.0882,-145.1773 158.2203,-137.1099 158.5582,-147.6993 165.0882,-145.1773"/>
</g>
<!-- Node16 -->
<g id="node17" class="node">
<title>Node16</title>
<polygon fill="none" stroke="#bfbfbf" points="397,-185 397,-204 455,-204 455,-185 397,-185"/>
<text text-anchor="middle" x="426" y="-192" font-family="Helvetica,sans-Serif" font-size="10.00" fill="#000000">memory</text>
</g>
<!-- Node1&#45;&gt;Node16 -->
<g id="edge20" class="edge">
<title>Node1&#45;&gt;Node16</title>
<path fill="none" stroke="#191970" d="M359.1755,-251.9005C371.6864,-241.1539 392.1686,-223.5603 407.1642,-210.6794"/>
<polygon fill="#191970" stroke="#191970" points="409.5401,-213.2526 414.8452,-204.0817 404.9789,-207.9426 409.5401,-213.2526"/>
</g>
<!-- Node3 -->
<g id="node4" class="node">
<title>Node3</title>
<g id="a_node4"><a xlink:href="../../de/d56/Variant_8h.html" target="_top" xlink:title="Framework/Variant.h">
<polygon fill="none" stroke="#000000" points="273.5,-56.5 273.5,-75.5 390.5,-75.5 390.5,-56.5 273.5,-56.5"/>
<text text-anchor="middle" x="332" y="-63.5" font-family="Helvetica,sans-Serif" font-size="10.00" fill="#000000">Framework/Variant.h</text>
</a>
</g>
</g>
<!-- Node2&#45;&gt;Node3 -->
<g id="edge3" class="edge">
<title>Node2&#45;&gt;Node3</title>
<path fill="none" stroke="#191970" d="M499.0625,-117.8906C464.9163,-107.2846 409.8326,-90.1753 372.3265,-78.5257"/>
<polygon fill="#191970" stroke="#191970" points="373.3084,-75.1658 362.7203,-75.5419 371.232,-81.8507 373.3084,-75.1658"/>
</g>
<!-- Node2&#45;&gt;Node12 -->
<g id="edge13" class="edge">
<title>Node2&#45;&gt;Node12</title>
<path fill="none" stroke="#191970" d="M541.4568,-117.8845C565.3507,-97.8306 620.7385,-51.3445 650.4061,-26.4449"/>
<polygon fill="#191970" stroke="#191970" points="652.9752,-28.858 658.3849,-19.7484 648.4751,-23.4962 652.9752,-28.858"/>
</g>
<!-- Node4 -->
<g id="node5" class="node">
<title>Node4</title>
<g id="a_node5"><a xlink:href="../../d1/d76/RuntimeError_8h.html" target="_top" xlink:title="Framework/RuntimeError.h">
<polygon fill="none" stroke="#000000" points="396,-.5 396,-19.5 542,-19.5 542,-.5 396,-.5"/>
<text text-anchor="middle" x="469" y="-7.5" font-family="Helvetica,sans-Serif" font-size="10.00" fill="#000000">Framework/RuntimeError.h</text>
</a>
</g>
</g>
<!-- Node3&#45;&gt;Node4 -->
<g id="edge4" class="edge">
<title>Node3&#45;&gt;Node4</title>
<path fill="none" stroke="#191970" d="M355.5511,-56.3733C377.8391,-47.2629 411.4937,-33.5062 436.3637,-23.3404"/>
<polygon fill="#191970" stroke="#191970" points="437.8239,-26.5247 445.7562,-19.5011 435.1753,-20.0451 437.8239,-26.5247"/>
</g>
<!-- Node5 -->
<g id="node6" class="node">
<title>Node5</title>
<polygon fill="none" stroke="#bfbfbf" points="560.5,-.5 560.5,-19.5 629.5,-19.5 629.5,-.5 560.5,-.5"/>
<text text-anchor="middle" x="595" y="-7.5" font-family="Helvetica,sans-Serif" font-size="10.00" fill="#000000">type_traits</text>
</g>
<!-- Node3&#45;&gt;Node5 -->
<g id="edge5" class="edge">
<title>Node3&#45;&gt;Node5</title>
<path fill="none" stroke="#191970" d="M378.6141,-56.4404C420.8159,-47.7335 484.9588,-34.3711 550.3476,-20.1163"/>
<polygon fill="#191970" stroke="#191970" points="551.4024,-23.4684 560.4248,-17.9144 549.9082,-16.6298 551.4024,-23.4684"/>
</g>
<!-- Node3&#45;&gt;Node6 -->
<g id="edge6" class="edge">
<title>Node3&#45;&gt;Node6</title>
<path fill="none" stroke="#191970" d="M273.288,-58.172C220.0096,-50.6024 139.1491,-37.9555 60.2704,-20.0853"/>
<polygon fill="#191970" stroke="#191970" points="60.6924,-16.5912 50.1627,-17.7637 59.1254,-23.4135 60.6924,-16.5912"/>
</g>
<!-- Node7 -->
<g id="node8" class="node">
<title>Node7</title>
<polygon fill="none" stroke="#bfbfbf" points="68,-.5 68,-19.5 118,-19.5 118,-.5 68,-.5"/>
<text text-anchor="middle" x="93" y="-7.5" font-family="Helvetica,sans-Serif" font-size="10.00" fill="#000000">cstdint</text>
</g>
<!-- Node3&#45;&gt;Node7 -->
<g id="edge7" class="edge">
<title>Node3&#45;&gt;Node7</title>
<path fill="none" stroke="#191970" d="M285.3843,-56.4469C245.8962,-48.1505 187.5768,-35.4213 128.1349,-20.1794"/>
<polygon fill="#191970" stroke="#191970" points="128.7579,-16.7255 118.2001,-17.6109 127.0056,-23.5026 128.7579,-16.7255"/>
</g>
<!-- Node3&#45;&gt;Node8 -->
<g id="edge8" class="edge">
<title>Node3&#45;&gt;Node8</title>
<path fill="none" stroke="#191970" d="M390.6749,-59.8468C502.2355,-48.1476 741.7846,-23.0263 831.3055,-13.6384"/>
<polygon fill="#191970" stroke="#191970" points="831.8798,-17.0974 841.4602,-12.5735 831.1497,-10.1356 831.8798,-17.0974"/>
</g>
<!-- Node9 -->
<g id="node10" class="node">
<title>Node9</title>
<polygon fill="none" stroke="#bfbfbf" points="136.5,-.5 136.5,-19.5 185.5,-19.5 185.5,-.5 136.5,-.5"/>
<text text-anchor="middle" x="161" y="-7.5" font-family="Helvetica,sans-Serif" font-size="10.00" fill="#000000">iosfwd</text>
</g>
<!-- Node3&#45;&gt;Node9 -->
<g id="edge9" class="edge">
<title>Node3&#45;&gt;Node9</title>
<path fill="none" stroke="#191970" d="M302.6041,-56.3733C272.7907,-46.6098 226.6829,-31.5102 195.2387,-21.2127"/>
<polygon fill="#191970" stroke="#191970" points="196.1767,-17.837 185.584,-18.0509 193.9981,-24.4894 196.1767,-17.837"/>
</g>
<!-- Node10 -->
<g id="node11" class="node">
<title>Node10</title>
<polygon fill="none" stroke="#bfbfbf" points="203.5,-.5 203.5,-19.5 286.5,-19.5 286.5,-.5 203.5,-.5"/>
<text text-anchor="middle" x="245" y="-7.5" font-family="Helvetica,sans-Serif" font-size="10.00" fill="#000000">initializer_list</text>
</g>
<!-- Node3&#45;&gt;Node10 -->
<g id="edge10" class="edge">
<title>Node3&#45;&gt;Node10</title>
<path fill="none" stroke="#191970" d="M316.8458,-56.2455C303.4973,-47.6534 283.8414,-35.0014 268.4617,-25.1018"/>
<polygon fill="#191970" stroke="#191970" points="270.2836,-22.1121 259.9806,-19.6427 266.4949,-27.9982 270.2836,-22.1121"/>
</g>
<!-- Node11 -->
<g id="node12" class="node">
<title>Node11</title>
<polygon fill="none" stroke="#bfbfbf" points="304.5,-.5 304.5,-19.5 377.5,-19.5 377.5,-.5 304.5,-.5"/>
<text text-anchor="middle" x="341" y="-7.5" font-family="Helvetica,sans-Serif" font-size="10.00" fill="#000000">string_view</text>
</g>
<!-- Node3&#45;&gt;Node11 -->
<g id="edge11" class="edge">
<title>Node3&#45;&gt;Node11</title>
<path fill="none" stroke="#191970" d="M333.5677,-56.2455C334.7421,-48.9382 336.3884,-38.6944 337.8332,-29.7046"/>
<polygon fill="#191970" stroke="#191970" points="341.3191,-30.0714 339.4503,-19.6427 334.4078,-28.9606 341.3191,-30.0714"/>
</g>
<!-- Node3&#45;&gt;Node12 -->
<g id="edge12" class="edge">
<title>Node3&#45;&gt;Node12</title>
<path fill="none" stroke="#191970" d="M390.5211,-57.7575C466.22,-47.0214 592.9126,-28.7787 637.953,-19.7795"/>
<polygon fill="#191970" stroke="#191970" points="638.7403,-23.1902 647.7715,-17.6506 637.2569,-16.3492 638.7403,-23.1902"/>
</g>
<!-- Node13&#45;&gt;Node2 -->
<g id="edge15" class="edge">
<title>Node13&#45;&gt;Node2</title>
<path fill="none" stroke="#191970" d="M332.9534,-184.9005C373.6021,-173.0594 442.7873,-152.9054 487.4242,-139.9025"/>
<polygon fill="#191970" stroke="#191970" points="488.4857,-143.2389 497.1077,-137.0817 486.5279,-136.5182 488.4857,-143.2389"/>
</g>
<!-- Node13&#45;&gt;Node12 -->
<g id="edge17" class="edge">
<title>Node13&#45;&gt;Node12</title>
<path fill="none" stroke="#191970" d="M314.4423,-184.9491C339.0395,-168.8786 390.884,-135.8523 437,-112 507.1582,-75.7125 593.0293,-40.3365 638.4022,-22.3146"/>
<polygon fill="#191970" stroke="#191970" points="639.7002,-25.5651 647.7136,-18.6344 637.1272,-19.0552 639.7002,-25.5651"/>
</g>
<!-- Node13&#45;&gt;Node14 -->
<g id="edge16" class="edge">
<title>Node13&#45;&gt;Node14</title>
<path fill="none" stroke="#191970" d="M296.7047,-184.9005C293.7649,-176.3368 289.3325,-163.4252 285.4157,-152.0152"/>
<polygon fill="#191970" stroke="#191970" points="288.714,-150.8436 282.1567,-142.5218 282.0933,-153.1164 288.714,-150.8436"/>
</g>
<!-- Node13&#45;&gt;Node15 -->
<g id="edge18" class="edge">
<title>Node13&#45;&gt;Node15</title>
<path fill="none" stroke="#191970" d="M279.225,-184.9005C254.5677,-173.5072 213.2549,-154.4178 185.0982,-141.4075"/>
<polygon fill="#191970" stroke="#191970" points="186.2823,-138.099 175.7364,-137.0817 183.3461,-144.4535 186.2823,-138.099"/>
</g>
<!-- Node17&#45;&gt;Node2 -->
<g id="edge24" class="edge">
<title>Node17&#45;&gt;Node2</title>
<path fill="none" stroke="#191970" d="M808.6193,-251.895C861.8427,-239.6226 933.7939,-215.4987 902,-179 883.9455,-158.2738 728.2575,-142.5064 624.0966,-134.1584"/>
<polygon fill="#191970" stroke="#191970" points="624.1143,-130.649 613.8694,-133.3492 623.5621,-137.6272 624.1143,-130.649"/>
</g>
<!-- Node18 -->
<g id="node19" class="node">
<title>Node18</title>
<polygon fill="none" stroke="#bfbfbf" points="632.5,-179.5 632.5,-209.5 745.5,-209.5 745.5,-179.5 632.5,-179.5"/>
<text text-anchor="start" x="640.5" y="-197.5" font-family="Helvetica,sans-Serif" font-size="10.00" fill="#000000">boost/property_tree</text>
<text text-anchor="middle" x="689" y="-186.5" font-family="Helvetica,sans-Serif" font-size="10.00" fill="#000000">/ptree.hpp</text>
</g>
<!-- Node17&#45;&gt;Node18 -->
<g id="edge25" class="edge">
<title>Node17&#45;&gt;Node18</title>
<path fill="none" stroke="#191970" d="M748.114,-251.9005C738.6711,-242.7313 724.0949,-228.5776 711.7798,-216.6195"/>
<polygon fill="#191970" stroke="#191970" points="714.0827,-213.9771 704.4702,-209.5218 709.2063,-218.9991 714.0827,-213.9771"/>
</g>
<!-- Node19 -->
<g id="node20" class="node">
<title>Node19</title>
<polygon fill="none" stroke="#bfbfbf" points="763.5,-179.5 763.5,-209.5 892.5,-209.5 892.5,-179.5 763.5,-179.5"/>
<text text-anchor="start" x="771.5" y="-197.5" font-family="Helvetica,sans-Serif" font-size="10.00" fill="#000000">boost/program_options</text>
<text text-anchor="middle" x="828" y="-186.5" font-family="Helvetica,sans-Serif" font-size="10.00" fill="#000000">/variables_map.hpp</text>
</g>
<!-- Node17&#45;&gt;Node19 -->
<g id="edge26" class="edge">
<title>Node17&#45;&gt;Node19</title>
<path fill="none" stroke="#191970" d="M768.0293,-251.9005C777.6091,-242.7313 792.3965,-228.5776 804.8901,-216.6195"/>
<polygon fill="#191970" stroke="#191970" points="807.5015,-218.9648 812.3056,-209.5218 802.6613,-213.9079 807.5015,-218.9648"/>
</g>
<!-- Node20 -->
<g id="node21" class="node">
<title>Node20</title>
<polygon fill="none" stroke="#bfbfbf" points="549.5,-185 549.5,-204 614.5,-204 614.5,-185 549.5,-185"/>
<text text-anchor="middle" x="582" y="-192" font-family="Helvetica,sans-Serif" font-size="10.00" fill="#000000">functional</text>
</g>
<!-- Node17&#45;&gt;Node20 -->
<g id="edge27" class="edge">
<title>Node17&#45;&gt;Node20</title>
<path fill="none" stroke="#191970" d="M732.7835,-251.9005C702.3319,-240.3082 650.9515,-220.7486 616.757,-207.7313"/>
<polygon fill="#191970" stroke="#191970" points="617.7607,-204.3685 607.1697,-204.0817 615.2702,-210.9105 617.7607,-204.3685"/>
</g>
</g>
</svg>
