<?xml version="1.0" encoding="UTF-8" standalone="no"?>
<!DOCTYPE svg PUBLIC "-//W3C//DTD SVG 1.1//EN"
 "http://www.w3.org/Graphics/SVG/1.1/DTD/svg11.dtd">
<!-- Generated by graphviz version 2.40.1 (20161225.0304)
 -->
<!-- Title: Run3Matcher Pages: 1 -->
<!--zoomable 929 -->
<svg id="main" version="1.1" xmlns="http://www.w3.org/2000/svg" xmlns:xlink="http://www.w3.org/1999/xlink" xml:space="preserve" onload="init(evt)">
<style type="text/css"><![CDATA[
.edge:hover path { stroke: red; }
.edge:hover polygon { stroke: red; fill: red; }
]]></style>
<script type="text/javascript"><![CDATA[
var edges = document.getElementsByTagName('g');
if (edges && edges.length) {
  for (var i=0;i<edges.length;i++) {
    if (edges[i].id.substr(0,4)=='edge') {
      edges[i].setAttribute('class','edge');
    }
  }
}
]]></script>
        <defs>
                <circle id="rim" cx="0" cy="0" r="7"/>
                <circle id="rim2" cx="0" cy="0" r="3.5"/>
                <g id="zoomPlus">
                        <use xlink:href="#rim" fill="#404040">
                                <set attributeName="fill" to="#808080" begin="zoomplus.mouseover" end="zoomplus.mouseout"/>
                        </use>
                        <path d="M-4,0h8M0,-4v8" fill="none" stroke="white" stroke-width="1.5" pointer-events="none"/>
                </g>
                <g id="zoomMin">
                        <use xlink:href="#rim" fill="#404040">
                                <set attributeName="fill" to="#808080" begin="zoomminus.mouseover" end="zoomminus.mouseout"/>
                        </use>
                        <path d="M-4,0h8" fill="none" stroke="white" stroke-width="1.5" pointer-events="none"/>
                </g>
                <g id="dirArrow">
                        <path fill="none" stroke="white" stroke-width="1.5" d="M0,-3.0v7 M-2.5,-0.5L0,-3.0L2.5,-0.5"/>
                </g>
               <g id="resetDef">
                       <use xlink:href="#rim2" fill="#404040">
                               <set attributeName="fill" to="#808080" begin="reset.mouseover" end="reset.mouseout"/>
                       </use>
               </g>
        </defs>

<script type="text/javascript">
var viewWidth = 1381;
var viewHeight = 929;
var sectionId = 'dynsection-0';
</script>
<script xlink:href="../../svgpan.js"/>
<svg id="graph" class="graph">
<g id="viewport">
<title>Run3Matcher</title>
<!-- Node1 -->
<g id="node1" class="node">
<title>Node1</title>
<polygon fill="#bfbfbf" stroke="#000000" points="584.5,-.5 584.5,-57.5 664.5,-57.5 664.5,-.5 584.5,-.5"/>
<text text-anchor="middle" x="624.5" y="-45.5" font-family="Helvetica,sans-Serif" font-size="10.00" fill="#000000">Run3Matcher</text>
<polyline fill="none" stroke="#000000" points="584.5,-38.5 664.5,-38.5 "/>
<text text-anchor="middle" x="624.5" y="-26.5" font-family="Helvetica,sans-Serif" font-size="10.00" fill="#000000"> </text>
<polyline fill="none" stroke="#000000" points="584.5,-19.5 664.5,-19.5 "/>
<text text-anchor="start" x="592.5" y="-7.5" font-family="Helvetica,sans-Serif" font-size="10.00" fill="#000000">+ init()</text>
</g>
<!-- Node2 -->
<g id="node2" class="node">
<title>Node2</title>
<g id="a_node2"><a xlink:href="../../d5/df4/structo2_1_1framework_1_1Builds.html" target="_top" xlink:title="{o2::framework::Builds\l\&lt; aod::Run3MatchedSparse \&gt;\n||+ operator&#45;\&gt;()\l+ operator*()\l+ asArrowTable()\l+ pack()\l+ build()\l}">
<polygon fill="none" stroke="#000000" points="174,-105.5 174,-217.5 335,-217.5 335,-105.5 174,-105.5"/>
<text text-anchor="start" x="182" y="-205.5" font-family="Helvetica,sans-Serif" font-size="10.00" fill="#000000">o2::framework::Builds</text>
<text text-anchor="middle" x="254.5" y="-194.5" font-family="Helvetica,sans-Serif" font-size="10.00" fill="#000000">&lt; aod::Run3MatchedSparse &gt;</text>
<polyline fill="none" stroke="#000000" points="174,-187.5 335,-187.5 "/>
<text text-anchor="middle" x="254.5" y="-175.5" font-family="Helvetica,sans-Serif" font-size="10.00" fill="#000000"> </text>
<polyline fill="none" stroke="#000000" points="174,-168.5 335,-168.5 "/>
<text text-anchor="start" x="182" y="-156.5" font-family="Helvetica,sans-Serif" font-size="10.00" fill="#000000">+ operator&#45;&gt;()</text>
<text text-anchor="start" x="182" y="-145.5" font-family="Helvetica,sans-Serif" font-size="10.00" fill="#000000">+ operator*()</text>
<text text-anchor="start" x="182" y="-134.5" font-family="Helvetica,sans-Serif" font-size="10.00" fill="#000000">+ asArrowTable()</text>
<text text-anchor="start" x="182" y="-123.5" font-family="Helvetica,sans-Serif" font-size="10.00" fill="#000000">+ pack()</text>
<text text-anchor="start" x="182" y="-112.5" font-family="Helvetica,sans-Serif" font-size="10.00" fill="#000000">+ build()</text>
</a>
</g>
</g>
<!-- Node2&#45;&gt;Node1 -->
<g id="edge1" class="edge">
<title>Node2&#45;&gt;Node1</title>
<path fill="none" stroke="#404040" d="M335.2409,-132.586C407.5538,-106.6902 511.4217,-69.4942 573.0217,-47.4348"/>
<polygon fill="none" stroke="#404040" points="573.0879,-47.4111 577.3881,-41.6224 584.3854,-43.3654 580.0852,-49.1541 573.0879,-47.4111"/>
<text text-anchor="middle" x="516" y="-79" font-family="Helvetica,sans-Serif" font-size="10.00" fill="#000000"> +matched_s</text>
</g>
<!-- Node3 -->
<g id="node3" class="node">
<title>Node3</title>
<g id="a_node3"><a xlink:href="../../d6/dec/structo2_1_1framework_1_1TableTransform.html" target="_top" xlink:title="{o2::framework::TableTransform\l\&lt; aod::MetadataTrait\&lt; aod\l::Run3MatchedSparse \&gt;::metadata \&gt;\n||+ sources_pack()\l+ base_spec()\l+ base_specs_impl()\l+ base_specs()\l+ spec()\l+ output()\l+ ref()\l}">
<polygon fill="none" stroke="#000000" points="0,-402 0,-547 197,-547 197,-402 0,-402"/>
<text text-anchor="start" x="8" y="-535" font-family="Helvetica,sans-Serif" font-size="10.00" fill="#000000">o2::framework::TableTransform</text>
<text text-anchor="start" x="8" y="-524" font-family="Helvetica,sans-Serif" font-size="10.00" fill="#000000">&lt; aod::MetadataTrait&lt; aod</text>
<text text-anchor="middle" x="98.5" y="-513" font-family="Helvetica,sans-Serif" font-size="10.00" fill="#000000">::Run3MatchedSparse &gt;::metadata &gt;</text>
<polyline fill="none" stroke="#000000" points="0,-506 197,-506 "/>
<text text-anchor="middle" x="98.5" y="-494" font-family="Helvetica,sans-Serif" font-size="10.00" fill="#000000"> </text>
<polyline fill="none" stroke="#000000" points="0,-487 197,-487 "/>
<text text-anchor="start" x="8" y="-475" font-family="Helvetica,sans-Serif" font-size="10.00" fill="#000000">+ sources_pack()</text>
<text text-anchor="start" x="8" y="-464" font-family="Helvetica,sans-Serif" font-size="10.00" fill="#000000">+ base_spec()</text>
<text text-anchor="start" x="8" y="-453" font-family="Helvetica,sans-Serif" font-size="10.00" fill="#000000">+ base_specs_impl()</text>
<text text-anchor="start" x="8" y="-442" font-family="Helvetica,sans-Serif" font-size="10.00" fill="#000000">+ base_specs()</text>
<text text-anchor="start" x="8" y="-431" font-family="Helvetica,sans-Serif" font-size="10.00" fill="#000000">+ spec()</text>
<text text-anchor="start" x="8" y="-420" font-family="Helvetica,sans-Serif" font-size="10.00" fill="#000000">+ output()</text>
<text text-anchor="start" x="8" y="-409" font-family="Helvetica,sans-Serif" font-size="10.00" fill="#000000">+ ref()</text>
</a>
</g>
</g>
<!-- Node3&#45;&gt;Node2 -->
<g id="edge2" class="edge">
<title>Node3&#45;&gt;Node2</title>
<path fill="none" stroke="#191970" d="M75.6139,-391.938C69.0057,-351.355 68.4177,-303.1109 89.5,-265 107.7507,-232.0077 141.404,-208.1208 173.5806,-191.6662"/>
<polygon fill="none" stroke="#191970" points="72.172,-392.574 77.3625,-401.8103 79.0647,-391.3531 72.172,-392.574"/>
</g>
<!-- Node4 -->
<g id="node4" class="node">
<title>Node4</title>
<g id="a_node4"><a xlink:href="../../d6/dec/structo2_1_1framework_1_1TableTransform.html" target="_top" xlink:title="Helper template for table transformations. ">
<polygon fill="none" stroke="#000000" points="506.5,-786.5 506.5,-920.5 674.5,-920.5 674.5,-786.5 506.5,-786.5"/>
<text text-anchor="start" x="514.5" y="-908.5" font-family="Helvetica,sans-Serif" font-size="10.00" fill="#000000">o2::framework::TableTransform</text>
<text text-anchor="middle" x="590.5" y="-897.5" font-family="Helvetica,sans-Serif" font-size="10.00" fill="#000000">&lt; METADATA &gt;</text>
<polyline fill="none" stroke="#000000" points="506.5,-890.5 674.5,-890.5 "/>
<text text-anchor="middle" x="590.5" y="-878.5" font-family="Helvetica,sans-Serif" font-size="10.00" fill="#000000"> </text>
<polyline fill="none" stroke="#000000" points="506.5,-871.5 674.5,-871.5 "/>
<text text-anchor="start" x="514.5" y="-859.5" font-family="Helvetica,sans-Serif" font-size="10.00" fill="#000000">+ sources_pack()</text>
<text text-anchor="start" x="514.5" y="-848.5" font-family="Helvetica,sans-Serif" font-size="10.00" fill="#000000">+ base_spec()</text>
<text text-anchor="start" x="514.5" y="-837.5" font-family="Helvetica,sans-Serif" font-size="10.00" fill="#000000">+ base_specs_impl()</text>
<text text-anchor="start" x="514.5" y="-826.5" font-family="Helvetica,sans-Serif" font-size="10.00" fill="#000000">+ base_specs()</text>
<text text-anchor="start" x="514.5" y="-815.5" font-family="Helvetica,sans-Serif" font-size="10.00" fill="#000000">+ spec()</text>
<text text-anchor="start" x="514.5" y="-804.5" font-family="Helvetica,sans-Serif" font-size="10.00" fill="#000000">+ output()</text>
<text text-anchor="start" x="514.5" y="-793.5" font-family="Helvetica,sans-Serif" font-size="10.00" fill="#000000">+ ref()</text>
</a>
</g>
</g>
<!-- Node4&#45;&gt;Node3 -->
<g id="edge3" class="edge">
<title>Node4&#45;&gt;Node3</title>
<path fill="none" stroke="#ffa500" d="M496.5359,-845.5327C430.8584,-835.9261 344.0622,-814.7368 281.5,-768 206.0928,-711.6674 154.4201,-614.2821 125.6879,-547.2376"/>
<polygon fill="#ffa500" stroke="#ffa500" points="496.0892,-849.0042 506.4775,-846.9224 497.0584,-842.0716 496.0892,-849.0042"/>
<text text-anchor="start" x="281.5" y="-760" font-family="Helvetica,sans-Serif" font-size="10.00" fill="#000000"> &lt; aod::MetadataTrait</text>
<text text-anchor="start" x="281.5" y="-749" font-family="Helvetica,sans-Serif" font-size="10.00" fill="#000000">&lt; aod::Run3MatchedSparse</text>
<text text-anchor="middle" x="348.5" y="-738" font-family="Helvetica,sans-Serif" font-size="10.00" fill="#000000"> &gt;::metadata &gt;</text>
</g>
<!-- Node7 -->
<g id="node7" class="node">
<title>Node7</title>
<g id="a_node7"><a xlink:href="../../d6/dec/structo2_1_1framework_1_1TableTransform.html" target="_top" xlink:title="{o2::framework::TableTransform\l\&lt; aod::MetadataTrait\&lt; T \&gt;\l::metadata \&gt;\n||+ sources_pack()\l+ base_spec()\l+ base_specs_impl()\l+ base_specs()\l+ spec()\l+ output()\l+ ref()\l}">
<polygon fill="none" stroke="#000000" points="506.5,-571.5 506.5,-716.5 674.5,-716.5 674.5,-571.5 506.5,-571.5"/>
<text text-anchor="start" x="514.5" y="-704.5" font-family="Helvetica,sans-Serif" font-size="10.00" fill="#000000">o2::framework::TableTransform</text>
<text text-anchor="start" x="514.5" y="-693.5" font-family="Helvetica,sans-Serif" font-size="10.00" fill="#000000">&lt; aod::MetadataTrait&lt; T &gt;</text>
<text text-anchor="middle" x="590.5" y="-682.5" font-family="Helvetica,sans-Serif" font-size="10.00" fill="#000000">::metadata &gt;</text>
<polyline fill="none" stroke="#000000" points="506.5,-675.5 674.5,-675.5 "/>
<text text-anchor="middle" x="590.5" y="-663.5" font-family="Helvetica,sans-Serif" font-size="10.00" fill="#000000"> </text>
<polyline fill="none" stroke="#000000" points="506.5,-656.5 674.5,-656.5 "/>
<text text-anchor="start" x="514.5" y="-644.5" font-family="Helvetica,sans-Serif" font-size="10.00" fill="#000000">+ sources_pack()</text>
<text text-anchor="start" x="514.5" y="-633.5" font-family="Helvetica,sans-Serif" font-size="10.00" fill="#000000">+ base_spec()</text>
<text text-anchor="start" x="514.5" y="-622.5" font-family="Helvetica,sans-Serif" font-size="10.00" fill="#000000">+ base_specs_impl()</text>
<text text-anchor="start" x="514.5" y="-611.5" font-family="Helvetica,sans-Serif" font-size="10.00" fill="#000000">+ base_specs()</text>
<text text-anchor="start" x="514.5" y="-600.5" font-family="Helvetica,sans-Serif" font-size="10.00" fill="#000000">+ spec()</text>
<text text-anchor="start" x="514.5" y="-589.5" font-family="Helvetica,sans-Serif" font-size="10.00" fill="#000000">+ output()</text>
<text text-anchor="start" x="514.5" y="-578.5" font-family="Helvetica,sans-Serif" font-size="10.00" fill="#000000">+ ref()</text>
</a>
</g>
</g>
<!-- Node4&#45;&gt;Node7 -->
<g id="edge7" class="edge">
<title>Node4&#45;&gt;Node7</title>
<path fill="none" stroke="#ffa500" d="M590.5,-776.2784C590.5,-756.7521 590.5,-735.8521 590.5,-716.5645"/>
<polygon fill="#ffa500" stroke="#ffa500" points="587.0001,-776.3484 590.5,-786.3484 594.0001,-776.3485 587.0001,-776.3484"/>
<text text-anchor="start" x="590.5" y="-754.5" font-family="Helvetica,sans-Serif" font-size="10.00" fill="#000000"> &lt; aod::MetadataTrait</text>
<text text-anchor="middle" x="643.5" y="-743.5" font-family="Helvetica,sans-Serif" font-size="10.00" fill="#000000">&lt; T &gt;::metadata &gt;</text>
</g>
<!-- Node10 -->
<g id="node10" class="node">
<title>Node10</title>
<g id="a_node10"><a xlink:href="../../d6/dec/structo2_1_1framework_1_1TableTransform.html" target="_top" xlink:title="{o2::framework::TableTransform\l\&lt; aod::MetadataTrait\&lt; aod\l::Run3MatchedExclusive \&gt;::\lmetadata \&gt;\n||+ sources_pack()\l+ base_spec()\l+ base_specs_impl()\l+ base_specs()\l+ spec()\l+ output()\l+ ref()\l}">
<polygon fill="none" stroke="#000000" points="284.5,-396.5 284.5,-552.5 452.5,-552.5 452.5,-396.5 284.5,-396.5"/>
<text text-anchor="start" x="292.5" y="-540.5" font-family="Helvetica,sans-Serif" font-size="10.00" fill="#000000">o2::framework::TableTransform</text>
<text text-anchor="start" x="292.5" y="-529.5" font-family="Helvetica,sans-Serif" font-size="10.00" fill="#000000">&lt; aod::MetadataTrait&lt; aod</text>
<text text-anchor="start" x="292.5" y="-518.5" font-family="Helvetica,sans-Serif" font-size="10.00" fill="#000000">::Run3MatchedExclusive &gt;::</text>
<text text-anchor="middle" x="368.5" y="-507.5" font-family="Helvetica,sans-Serif" font-size="10.00" fill="#000000">metadata &gt;</text>
<polyline fill="none" stroke="#000000" points="284.5,-500.5 452.5,-500.5 "/>
<text text-anchor="middle" x="368.5" y="-488.5" font-family="Helvetica,sans-Serif" font-size="10.00" fill="#000000"> </text>
<polyline fill="none" stroke="#000000" points="284.5,-481.5 452.5,-481.5 "/>
<text text-anchor="start" x="292.5" y="-469.5" font-family="Helvetica,sans-Serif" font-size="10.00" fill="#000000">+ sources_pack()</text>
<text text-anchor="start" x="292.5" y="-458.5" font-family="Helvetica,sans-Serif" font-size="10.00" fill="#000000">+ base_spec()</text>
<text text-anchor="start" x="292.5" y="-447.5" font-family="Helvetica,sans-Serif" font-size="10.00" fill="#000000">+ base_specs_impl()</text>
<text text-anchor="start" x="292.5" y="-436.5" font-family="Helvetica,sans-Serif" font-size="10.00" fill="#000000">+ base_specs()</text>
<text text-anchor="start" x="292.5" y="-425.5" font-family="Helvetica,sans-Serif" font-size="10.00" fill="#000000">+ spec()</text>
<text text-anchor="start" x="292.5" y="-414.5" font-family="Helvetica,sans-Serif" font-size="10.00" fill="#000000">+ output()</text>
<text text-anchor="start" x="292.5" y="-403.5" font-family="Helvetica,sans-Serif" font-size="10.00" fill="#000000">+ ref()</text>
</a>
</g>
</g>
<!-- Node4&#45;&gt;Node10 -->
<g id="edge11" class="edge">
<title>Node4&#45;&gt;Node10</title>
<path fill="none" stroke="#ffa500" d="M497.4925,-817.0122C475.3776,-804.4378 453.7917,-788.2719 438.5,-768 391.4961,-705.688 375.4945,-616.4849 370.3296,-552.8024"/>
<polygon fill="#ffa500" stroke="#ffa500" points="495.8599,-820.1085 506.3138,-821.8311 499.2158,-813.9654 495.8599,-820.1085"/>
<text text-anchor="start" x="438.5" y="-760" font-family="Helvetica,sans-Serif" font-size="10.00" fill="#000000"> &lt; aod::MetadataTrait</text>
<text text-anchor="start" x="438.5" y="-749" font-family="Helvetica,sans-Serif" font-size="10.00" fill="#000000">&lt; aod::Run3MatchedExclusive</text>
<text text-anchor="middle" x="512.5" y="-738" font-family="Helvetica,sans-Serif" font-size="10.00" fill="#000000"> &gt;::metadata &gt;</text>
</g>
<!-- Node13 -->
<g id="node13" class="node">
<title>Node13</title>
<g id="a_node13"><a xlink:href="../../d6/dec/structo2_1_1framework_1_1TableTransform.html" target="_top" xlink:title="{o2::framework::TableTransform\l\&lt; aod::MetadataTrait\&lt; aod\l::BCCollisionsExclusive \&gt;\l::metadata \&gt;\n||+ sources_pack()\l+ base_spec()\l+ base_specs_impl()\l+ base_specs()\l+ spec()\l+ output()\l+ ref()\l}">
<polygon fill="none" stroke="#000000" points="891.5,-396.5 891.5,-552.5 1059.5,-552.5 1059.5,-396.5 891.5,-396.5"/>
<text text-anchor="start" x="899.5" y="-540.5" font-family="Helvetica,sans-Serif" font-size="10.00" fill="#000000">o2::framework::TableTransform</text>
<text text-anchor="start" x="899.5" y="-529.5" font-family="Helvetica,sans-Serif" font-size="10.00" fill="#000000">&lt; aod::MetadataTrait&lt; aod</text>
<text text-anchor="start" x="899.5" y="-518.5" font-family="Helvetica,sans-Serif" font-size="10.00" fill="#000000">::BCCollisionsExclusive &gt;</text>
<text text-anchor="middle" x="975.5" y="-507.5" font-family="Helvetica,sans-Serif" font-size="10.00" fill="#000000">::metadata &gt;</text>
<polyline fill="none" stroke="#000000" points="891.5,-500.5 1059.5,-500.5 "/>
<text text-anchor="middle" x="975.5" y="-488.5" font-family="Helvetica,sans-Serif" font-size="10.00" fill="#000000"> </text>
<polyline fill="none" stroke="#000000" points="891.5,-481.5 1059.5,-481.5 "/>
<text text-anchor="start" x="899.5" y="-469.5" font-family="Helvetica,sans-Serif" font-size="10.00" fill="#000000">+ sources_pack()</text>
<text text-anchor="start" x="899.5" y="-458.5" font-family="Helvetica,sans-Serif" font-size="10.00" fill="#000000">+ base_spec()</text>
<text text-anchor="start" x="899.5" y="-447.5" font-family="Helvetica,sans-Serif" font-size="10.00" fill="#000000">+ base_specs_impl()</text>
<text text-anchor="start" x="899.5" y="-436.5" font-family="Helvetica,sans-Serif" font-size="10.00" fill="#000000">+ base_specs()</text>
<text text-anchor="start" x="899.5" y="-425.5" font-family="Helvetica,sans-Serif" font-size="10.00" fill="#000000">+ spec()</text>
<text text-anchor="start" x="899.5" y="-414.5" font-family="Helvetica,sans-Serif" font-size="10.00" fill="#000000">+ output()</text>
<text text-anchor="start" x="899.5" y="-403.5" font-family="Helvetica,sans-Serif" font-size="10.00" fill="#000000">+ ref()</text>
</a>
</g>
</g>
<!-- Node4&#45;&gt;Node13 -->
<g id="edge16" class="edge">
<title>Node4&#45;&gt;Node13</title>
<path fill="none" stroke="#ffa500" d="M683.7356,-802.2733C721.612,-779.0212 764.3883,-749.4554 798.5,-717 849.6669,-668.3176 896.2563,-603.2325 928.7792,-552.747"/>
<polygon fill="#ffa500" stroke="#ffa500" points="681.4593,-799.5607 674.7276,-807.7421 685.092,-805.5443 681.4593,-799.5607"/>
<text text-anchor="start" x="776.5" y="-760" font-family="Helvetica,sans-Serif" font-size="10.00" fill="#000000"> &lt; aod::MetadataTrait</text>
<text text-anchor="start" x="776.5" y="-749" font-family="Helvetica,sans-Serif" font-size="10.00" fill="#000000">&lt; aod::BCCollisionsExclusive</text>
<text text-anchor="middle" x="848" y="-738" font-family="Helvetica,sans-Serif" font-size="10.00" fill="#000000"> &gt;::metadata &gt;</text>
</g>
<!-- Node16 -->
<g id="node16" class="node">
<title>Node16</title>
<g id="a_node16"><a xlink:href="../../d6/dec/structo2_1_1framework_1_1TableTransform.html" target="_top" xlink:title="{o2::framework::TableTransform\l\&lt; aod::MetadataTrait\&lt; aod\l::BCCollisionsSparse \&gt;::metadata \&gt;\n||+ sources_pack()\l+ base_spec()\l+ base_specs_impl()\l+ base_specs()\l+ spec()\l+ output()\l+ ref()\l}">
<polygon fill="none" stroke="#000000" points="1066.5,-571.5 1066.5,-716.5 1258.5,-716.5 1258.5,-571.5 1066.5,-571.5"/>
<text text-anchor="start" x="1074.5" y="-704.5" font-family="Helvetica,sans-Serif" font-size="10.00" fill="#000000">o2::framework::TableTransform</text>
<text text-anchor="start" x="1074.5" y="-693.5" font-family="Helvetica,sans-Serif" font-size="10.00" fill="#000000">&lt; aod::MetadataTrait&lt; aod</text>
<text text-anchor="middle" x="1162.5" y="-682.5" font-family="Helvetica,sans-Serif" font-size="10.00" fill="#000000">::BCCollisionsSparse &gt;::metadata &gt;</text>
<polyline fill="none" stroke="#000000" points="1066.5,-675.5 1258.5,-675.5 "/>
<text text-anchor="middle" x="1162.5" y="-663.5" font-family="Helvetica,sans-Serif" font-size="10.00" fill="#000000"> </text>
<polyline fill="none" stroke="#000000" points="1066.5,-656.5 1258.5,-656.5 "/>
<text text-anchor="start" x="1074.5" y="-644.5" font-family="Helvetica,sans-Serif" font-size="10.00" fill="#000000">+ sources_pack()</text>
<text text-anchor="start" x="1074.5" y="-633.5" font-family="Helvetica,sans-Serif" font-size="10.00" fill="#000000">+ base_spec()</text>
<text text-anchor="start" x="1074.5" y="-622.5" font-family="Helvetica,sans-Serif" font-size="10.00" fill="#000000">+ base_specs_impl()</text>
<text text-anchor="start" x="1074.5" y="-611.5" font-family="Helvetica,sans-Serif" font-size="10.00" fill="#000000">+ base_specs()</text>
<text text-anchor="start" x="1074.5" y="-600.5" font-family="Helvetica,sans-Serif" font-size="10.00" fill="#000000">+ spec()</text>
<text text-anchor="start" x="1074.5" y="-589.5" font-family="Helvetica,sans-Serif" font-size="10.00" fill="#000000">+ output()</text>
<text text-anchor="start" x="1074.5" y="-578.5" font-family="Helvetica,sans-Serif" font-size="10.00" fill="#000000">+ ref()</text>
</a>
</g>
</g>
<!-- Node4&#45;&gt;Node16 -->
<g id="edge21" class="edge">
<title>Node4&#45;&gt;Node16</title>
<path fill="none" stroke="#ffa500" d="M684.8062,-847.5864C773.1844,-839.0554 907.1059,-818.3075 1012.5,-768 1039.7905,-754.9735 1066.333,-735.8992 1089.3148,-716.5981"/>
<polygon fill="#ffa500" stroke="#ffa500" points="684.4272,-844.1064 674.7952,-848.5193 685.0768,-851.0762 684.4272,-844.1064"/>
<text text-anchor="start" x="1061.5" y="-760" font-family="Helvetica,sans-Serif" font-size="10.00" fill="#000000"> &lt; aod::MetadataTrait</text>
<text text-anchor="start" x="1061.5" y="-749" font-family="Helvetica,sans-Serif" font-size="10.00" fill="#000000">&lt; aod::BCCollisionsSparse</text>
<text text-anchor="middle" x="1126.5" y="-738" font-family="Helvetica,sans-Serif" font-size="10.00" fill="#000000"> &gt;::metadata &gt;</text>
</g>
<!-- Node5 -->
<g id="node5" class="node">
<title>Node5</title>
<polygon fill="none" stroke="#bfbfbf" points="98,-287.5 98,-355.5 267,-355.5 267,-287.5 98,-287.5"/>
<text text-anchor="start" x="106" y="-343.5" font-family="Helvetica,sans-Serif" font-size="10.00" fill="#000000">shared_ptr&lt; aod::Run3Matched</text>
<text text-anchor="middle" x="182.5" y="-332.5" font-family="Helvetica,sans-Serif" font-size="10.00" fill="#000000">Sparse &gt;</text>
<polyline fill="none" stroke="#bfbfbf" points="98,-325.5 267,-325.5 "/>
<text text-anchor="middle" x="182.5" y="-313.5" font-family="Helvetica,sans-Serif" font-size="10.00" fill="#000000"> </text>
<polyline fill="none" stroke="#bfbfbf" points="98,-306.5 267,-306.5 "/>
<text text-anchor="middle" x="182.5" y="-294.5" font-family="Helvetica,sans-Serif" font-size="10.00" fill="#000000"> </text>
</g>
<!-- Node5&#45;&gt;Node2 -->
<g id="edge4" class="edge">
<title>Node5&#45;&gt;Node2</title>
<path fill="none" stroke="#404040" d="M197.9458,-287.176C205.6159,-270.1314 215.158,-248.9267 224.2065,-228.8188"/>
<polygon fill="none" stroke="#404040" points="224.2433,-228.7371 223.0578,-221.624 229.1677,-217.794 230.3532,-224.907 224.2433,-228.7371"/>
<text text-anchor="middle" x="239" y="-239" font-family="Helvetica,sans-Serif" font-size="10.00" fill="#000000"> +table</text>
</g>
<!-- Node6 -->
<g id="node6" class="node">
<title>Node6</title>
<g id="a_node6"><a xlink:href="../../d5/df4/structo2_1_1framework_1_1Builds.html" target="_top" xlink:title="This helper struct allows you to declare index tables to be created in a task. ">
<polygon fill="none" stroke="#000000" points="661.5,-265.5 661.5,-377.5 785.5,-377.5 785.5,-265.5 661.5,-265.5"/>
<text text-anchor="start" x="669.5" y="-365.5" font-family="Helvetica,sans-Serif" font-size="10.00" fill="#000000">o2::framework::Builds</text>
<text text-anchor="middle" x="723.5" y="-354.5" font-family="Helvetica,sans-Serif" font-size="10.00" fill="#000000">&lt; T, IP &gt;</text>
<polyline fill="none" stroke="#000000" points="661.5,-347.5 785.5,-347.5 "/>
<text text-anchor="middle" x="723.5" y="-335.5" font-family="Helvetica,sans-Serif" font-size="10.00" fill="#000000"> </text>
<polyline fill="none" stroke="#000000" points="661.5,-328.5 785.5,-328.5 "/>
<text text-anchor="start" x="669.5" y="-316.5" font-family="Helvetica,sans-Serif" font-size="10.00" fill="#000000">+ operator&#45;&gt;()</text>
<text text-anchor="start" x="669.5" y="-305.5" font-family="Helvetica,sans-Serif" font-size="10.00" fill="#000000">+ operator*()</text>
<text text-anchor="start" x="669.5" y="-294.5" font-family="Helvetica,sans-Serif" font-size="10.00" fill="#000000">+ asArrowTable()</text>
<text text-anchor="start" x="669.5" y="-283.5" font-family="Helvetica,sans-Serif" font-size="10.00" fill="#000000">+ pack()</text>
<text text-anchor="start" x="669.5" y="-272.5" font-family="Helvetica,sans-Serif" font-size="10.00" fill="#000000">+ build()</text>
</a>
</g>
</g>
<!-- Node6&#45;&gt;Node2 -->
<g id="edge5" class="edge">
<title>Node6&#45;&gt;Node2</title>
<path fill="none" stroke="#ffa500" d="M651.258,-302.3819C607.6986,-291.0578 551.0399,-276.6861 500.5,-265 462.4534,-256.2026 451.2024,-260.337 414.5,-247 387.7108,-237.2653 359.8667,-223.7281 335.0614,-210.2935"/>
<polygon fill="#ffa500" stroke="#ffa500" points="650.6301,-305.8351 661.1896,-304.97 652.3953,-299.0614 650.6301,-305.8351"/>
<text text-anchor="middle" x="488.5" y="-239" font-family="Helvetica,sans-Serif" font-size="10.00" fill="#000000"> &lt; aod::Run3MatchedSparse &gt;</text>
</g>
<!-- Node9 -->
<g id="node9" class="node">
<title>Node9</title>
<g id="a_node9"><a xlink:href="../../d5/df4/structo2_1_1framework_1_1Builds.html" target="_top" xlink:title="{o2::framework::Builds\l\&lt; aod::Run3MatchedExclusive \&gt;\n||+ operator&#45;\&gt;()\l+ operator*()\l+ asArrowTable()\l+ pack()\l+ build()\l}">
<polygon fill="none" stroke="#000000" points="445,-105.5 445,-217.5 620,-217.5 620,-105.5 445,-105.5"/>
<text text-anchor="start" x="453" y="-205.5" font-family="Helvetica,sans-Serif" font-size="10.00" fill="#000000">o2::framework::Builds</text>
<text text-anchor="middle" x="532.5" y="-194.5" font-family="Helvetica,sans-Serif" font-size="10.00" fill="#000000">&lt; aod::Run3MatchedExclusive &gt;</text>
<polyline fill="none" stroke="#000000" points="445,-187.5 620,-187.5 "/>
<text text-anchor="middle" x="532.5" y="-175.5" font-family="Helvetica,sans-Serif" font-size="10.00" fill="#000000"> </text>
<polyline fill="none" stroke="#000000" points="445,-168.5 620,-168.5 "/>
<text text-anchor="start" x="453" y="-156.5" font-family="Helvetica,sans-Serif" font-size="10.00" fill="#000000">+ operator&#45;&gt;()</text>
<text text-anchor="start" x="453" y="-145.5" font-family="Helvetica,sans-Serif" font-size="10.00" fill="#000000">+ operator*()</text>
<text text-anchor="start" x="453" y="-134.5" font-family="Helvetica,sans-Serif" font-size="10.00" fill="#000000">+ asArrowTable()</text>
<text text-anchor="start" x="453" y="-123.5" font-family="Helvetica,sans-Serif" font-size="10.00" fill="#000000">+ pack()</text>
<text text-anchor="start" x="453" y="-112.5" font-family="Helvetica,sans-Serif" font-size="10.00" fill="#000000">+ build()</text>
</a>
</g>
</g>
<!-- Node6&#45;&gt;Node9 -->
<g id="edge13" class="edge">
<title>Node6&#45;&gt;Node9</title>
<path fill="none" stroke="#ffa500" d="M652.1387,-296.6507C625.6475,-284.7666 596.8758,-268.3835 575.5,-247 567.1599,-238.6569 560.1384,-228.3649 554.3456,-217.8469"/>
<polygon fill="#ffa500" stroke="#ffa500" points="650.831,-299.8985 661.3979,-300.6674 653.6169,-293.4767 650.831,-299.8985"/>
<text text-anchor="middle" x="656.5" y="-239" font-family="Helvetica,sans-Serif" font-size="10.00" fill="#000000"> &lt; aod::Run3MatchedExclusive &gt;</text>
</g>
<!-- Node12 -->
<g id="node12" class="node">
<title>Node12</title>
<g id="a_node12"><a xlink:href="../../d5/df4/structo2_1_1framework_1_1Builds.html" target="_top" xlink:title="{o2::framework::Builds\l\&lt; aod::BCCollisionsExclusive \&gt;\n||+ operator&#45;\&gt;()\l+ operator*()\l+ asArrowTable()\l+ pack()\l+ build()\l}">
<polygon fill="none" stroke="#000000" points="684.5,-105.5 684.5,-217.5 854.5,-217.5 854.5,-105.5 684.5,-105.5"/>
<text text-anchor="start" x="692.5" y="-205.5" font-family="Helvetica,sans-Serif" font-size="10.00" fill="#000000">o2::framework::Builds</text>
<text text-anchor="middle" x="769.5" y="-194.5" font-family="Helvetica,sans-Serif" font-size="10.00" fill="#000000">&lt; aod::BCCollisionsExclusive &gt;</text>
<polyline fill="none" stroke="#000000" points="684.5,-187.5 854.5,-187.5 "/>
<text text-anchor="middle" x="769.5" y="-175.5" font-family="Helvetica,sans-Serif" font-size="10.00" fill="#000000"> </text>
<polyline fill="none" stroke="#000000" points="684.5,-168.5 854.5,-168.5 "/>
<text text-anchor="start" x="692.5" y="-156.5" font-family="Helvetica,sans-Serif" font-size="10.00" fill="#000000">+ operator&#45;&gt;()</text>
<text text-anchor="start" x="692.5" y="-145.5" font-family="Helvetica,sans-Serif" font-size="10.00" fill="#000000">+ operator*()</text>
<text text-anchor="start" x="692.5" y="-134.5" font-family="Helvetica,sans-Serif" font-size="10.00" fill="#000000">+ asArrowTable()</text>
<text text-anchor="start" x="692.5" y="-123.5" font-family="Helvetica,sans-Serif" font-size="10.00" fill="#000000">+ pack()</text>
<text text-anchor="start" x="692.5" y="-112.5" font-family="Helvetica,sans-Serif" font-size="10.00" fill="#000000">+ build()</text>
</a>
</g>
</g>
<!-- Node6&#45;&gt;Node12 -->
<g id="edge18" class="edge">
<title>Node6&#45;&gt;Node12</title>
<path fill="none" stroke="#ffa500" d="M739.2407,-255.0743C740.9449,-248.6094 742.7117,-242.1656 744.5,-236 746.2102,-230.1037 748.0917,-223.9784 750.0313,-217.8867"/>
<polygon fill="#ffa500" stroke="#ffa500" points="735.7339,-254.656 736.6202,-265.2137 742.5112,-256.4076 735.7339,-254.656"/>
<text text-anchor="middle" x="823" y="-239" font-family="Helvetica,sans-Serif" font-size="10.00" fill="#000000"> &lt; aod::BCCollisionsExclusive &gt;</text>
</g>
<!-- Node15 -->
<g id="node15" class="node">
<title>Node15</title>
<g id="a_node15"><a xlink:href="../../d5/df4/structo2_1_1framework_1_1Builds.html" target="_top" xlink:title="{o2::framework::Builds\l\&lt; aod::BCCollisionsSparse \&gt;\n||+ operator&#45;\&gt;()\l+ operator*()\l+ asArrowTable()\l+ pack()\l+ build()\l}">
<polygon fill="none" stroke="#000000" points="1000,-105.5 1000,-217.5 1157,-217.5 1157,-105.5 1000,-105.5"/>
<text text-anchor="start" x="1008" y="-205.5" font-family="Helvetica,sans-Serif" font-size="10.00" fill="#000000">o2::framework::Builds</text>
<text text-anchor="middle" x="1078.5" y="-194.5" font-family="Helvetica,sans-Serif" font-size="10.00" fill="#000000">&lt; aod::BCCollisionsSparse &gt;</text>
<polyline fill="none" stroke="#000000" points="1000,-187.5 1157,-187.5 "/>
<text text-anchor="middle" x="1078.5" y="-175.5" font-family="Helvetica,sans-Serif" font-size="10.00" fill="#000000"> </text>
<polyline fill="none" stroke="#000000" points="1000,-168.5 1157,-168.5 "/>
<text text-anchor="start" x="1008" y="-156.5" font-family="Helvetica,sans-Serif" font-size="10.00" fill="#000000">+ operator&#45;&gt;()</text>
<text text-anchor="start" x="1008" y="-145.5" font-family="Helvetica,sans-Serif" font-size="10.00" fill="#000000">+ operator*()</text>
<text text-anchor="start" x="1008" y="-134.5" font-family="Helvetica,sans-Serif" font-size="10.00" fill="#000000">+ asArrowTable()</text>
<text text-anchor="start" x="1008" y="-123.5" font-family="Helvetica,sans-Serif" font-size="10.00" fill="#000000">+ pack()</text>
<text text-anchor="start" x="1008" y="-112.5" font-family="Helvetica,sans-Serif" font-size="10.00" fill="#000000">+ build()</text>
</a>
</g>
</g>
<!-- Node6&#45;&gt;Node15 -->
<g id="edge23" class="edge">
<title>Node6&#45;&gt;Node15</title>
<path fill="none" stroke="#ffa500" d="M795.2721,-293.9095C828.0959,-280.6705 867.2221,-264.0082 901.5,-247 910.2407,-242.663 911.8573,-240.5292 920.5,-236 946.0189,-222.6269 974.3562,-208.9197 999.906,-196.968"/>
<polygon fill="#ffa500" stroke="#ffa500" points="793.727,-290.758 785.7467,-297.727 796.3311,-297.2556 793.727,-290.758"/>
<text text-anchor="middle" x="992.5" y="-239" font-family="Helvetica,sans-Serif" font-size="10.00" fill="#000000"> &lt; aod::BCCollisionsSparse &gt;</text>
</g>
<!-- Node7&#45;&gt;Node6 -->
<g id="edge6" class="edge">
<title>Node7&#45;&gt;Node6</title>
<path fill="none" stroke="#191970" d="M624.4124,-561.7688C648.1861,-504.1222 679.3409,-428.5775 700.317,-377.7145"/>
<polygon fill="none" stroke="#191970" points="621.0906,-560.6435 620.5136,-571.2226 627.5619,-563.3123 621.0906,-560.6435"/>
</g>
<!-- Node8 -->
<g id="node8" class="node">
<title>Node8</title>
<polygon fill="none" stroke="#bfbfbf" points="692,-615.5 692,-672.5 789,-672.5 789,-615.5 692,-615.5"/>
<text text-anchor="middle" x="740.5" y="-660.5" font-family="Helvetica,sans-Serif" font-size="10.00" fill="#000000">shared_ptr&lt; T &gt;</text>
<polyline fill="none" stroke="#bfbfbf" points="692,-653.5 789,-653.5 "/>
<text text-anchor="middle" x="740.5" y="-641.5" font-family="Helvetica,sans-Serif" font-size="10.00" fill="#000000"> </text>
<polyline fill="none" stroke="#bfbfbf" points="692,-634.5 789,-634.5 "/>
<text text-anchor="middle" x="740.5" y="-622.5" font-family="Helvetica,sans-Serif" font-size="10.00" fill="#000000"> </text>
</g>
<!-- Node8&#45;&gt;Node6 -->
<g id="edge8" class="edge">
<title>Node8&#45;&gt;Node6</title>
<path fill="none" stroke="#404040" d="M738.9914,-615.3803C736.3428,-565.1361 730.7886,-459.7696 727.1014,-389.8215"/>
<polygon fill="none" stroke="#404040" points="727.0903,-389.6082 722.78,-383.8271 726.4585,-377.6248 730.7689,-383.4059 727.0903,-389.6082"/>
<text text-anchor="middle" x="753" y="-472" font-family="Helvetica,sans-Serif" font-size="10.00" fill="#000000"> +table</text>
</g>
<!-- Node9&#45;&gt;Node1 -->
<g id="edge9" class="edge">
<title>Node9&#45;&gt;Node1</title>
<path fill="none" stroke="#404040" d="M571.5163,-105.3081C580.304,-92.6518 589.4399,-79.4941 597.6006,-67.741"/>
<polygon fill="none" stroke="#404040" points="597.6437,-67.6789 597.7801,-60.4691 604.4878,-57.822 604.3513,-65.0318 597.6437,-67.6789"/>
<text text-anchor="middle" x="621.5" y="-79" font-family="Helvetica,sans-Serif" font-size="10.00" fill="#000000"> +matched_e</text>
</g>
<!-- Node10&#45;&gt;Node9 -->
<g id="edge10" class="edge">
<title>Node10&#45;&gt;Node9</title>
<path fill="none" stroke="#191970" d="M316.1984,-386.9389C315.1948,-383.9632 314.2895,-380.9795 313.5,-378 297.321,-316.9397 277.8876,-283.524 319.5,-236 336.7589,-216.2893 394.1252,-196.8388 444.9788,-182.757"/>
<polygon fill="none" stroke="#191970" points="312.9506,-388.2469 319.7165,-396.4001 319.5117,-385.8072 312.9506,-388.2469"/>
</g>
<!-- Node11 -->
<g id="node11" class="node">
<title>Node11</title>
<polygon fill="none" stroke="#bfbfbf" points="322,-287.5 322,-355.5 491,-355.5 491,-287.5 322,-287.5"/>
<text text-anchor="start" x="330" y="-343.5" font-family="Helvetica,sans-Serif" font-size="10.00" fill="#000000">shared_ptr&lt; aod::Run3Matched</text>
<text text-anchor="middle" x="406.5" y="-332.5" font-family="Helvetica,sans-Serif" font-size="10.00" fill="#000000">Exclusive &gt;</text>
<polyline fill="none" stroke="#bfbfbf" points="322,-325.5 491,-325.5 "/>
<text text-anchor="middle" x="406.5" y="-313.5" font-family="Helvetica,sans-Serif" font-size="10.00" fill="#000000"> </text>
<polyline fill="none" stroke="#bfbfbf" points="322,-306.5 491,-306.5 "/>
<text text-anchor="middle" x="406.5" y="-294.5" font-family="Helvetica,sans-Serif" font-size="10.00" fill="#000000"> </text>
</g>
<!-- Node11&#45;&gt;Node9 -->
<g id="edge12" class="edge">
<title>Node11&#45;&gt;Node9</title>
<path fill="none" stroke="#404040" d="M346.9673,-287.4647C328.4526,-272.4446 315.8327,-254.1117 328.5,-236 341.5706,-217.3117 387.8401,-199.65 433.0144,-186.2177"/>
<polygon fill="none" stroke="#404040" points="433.2395,-186.1524 437.887,-180.6387 444.764,-182.8081 440.1165,-188.3218 433.2395,-186.1524"/>
<text text-anchor="middle" x="347" y="-239" font-family="Helvetica,sans-Serif" font-size="10.00" fill="#000000"> +table</text>
</g>
<!-- Node12&#45;&gt;Node1 -->
<g id="edge14" class="edge">
<title>Node12&#45;&gt;Node1</title>
<path fill="none" stroke="#404040" d="M708.0069,-105.3081C693.4572,-92.0126 678.3019,-78.1638 664.9591,-65.9712"/>
<polygon fill="none" stroke="#404040" points="664.8996,-65.9169 657.772,-64.8223 656.041,-57.822 663.1686,-58.9166 664.8996,-65.9169"/>
<text text-anchor="middle" x="700.5" y="-79" font-family="Helvetica,sans-Serif" font-size="10.00" fill="#000000"> +bc_e</text>
</g>
<!-- Node13&#45;&gt;Node12 -->
<g id="edge15" class="edge">
<title>Node13&#45;&gt;Node12</title>
<path fill="none" stroke="#191970" d="M1068.6144,-433.6332C1090.4994,-419.347 1111.0523,-400.9762 1123.5,-378 1153.6233,-322.3978 1162.5562,-277.1049 1114.5,-236 1093.5074,-218.0439 1018.5887,-223.414 991.5,-218 945.9686,-208.9001 895.794,-196.3491 854.6811,-185.3874"/>
<polygon fill="none" stroke="#191970" points="1066.4741,-430.8432 1059.8445,-439.1076 1070.1808,-436.7813 1066.4741,-430.8432"/>
</g>
<!-- Node14 -->
<g id="node14" class="node">
<title>Node14</title>
<polygon fill="none" stroke="#bfbfbf" points="950.5,-287.5 950.5,-355.5 1114.5,-355.5 1114.5,-287.5 950.5,-287.5"/>
<text text-anchor="start" x="958.5" y="-343.5" font-family="Helvetica,sans-Serif" font-size="10.00" fill="#000000">shared_ptr&lt; aod::BCCollisions</text>
<text text-anchor="middle" x="1032.5" y="-332.5" font-family="Helvetica,sans-Serif" font-size="10.00" fill="#000000">Exclusive &gt;</text>
<polyline fill="none" stroke="#bfbfbf" points="950.5,-325.5 1114.5,-325.5 "/>
<text text-anchor="middle" x="1032.5" y="-313.5" font-family="Helvetica,sans-Serif" font-size="10.00" fill="#000000"> </text>
<polyline fill="none" stroke="#bfbfbf" points="950.5,-306.5 1114.5,-306.5 "/>
<text text-anchor="middle" x="1032.5" y="-294.5" font-family="Helvetica,sans-Serif" font-size="10.00" fill="#000000"> </text>
</g>
<!-- Node14&#45;&gt;Node12 -->
<g id="edge17" class="edge">
<title>Node14&#45;&gt;Node12</title>
<path fill="none" stroke="#404040" d="M1062.6285,-287.1499C1073.4691,-270.5465 1080.4105,-251.0159 1068.5,-236 1046.6597,-208.4653 1025.6423,-226.3345 991.5,-218 950.4464,-207.9784 905.2263,-196.5421 866.3712,-186.5921"/>
<polygon fill="none" stroke="#404040" points="866.1526,-186.5361 859.347,-188.9203 854.5287,-183.5551 861.3343,-181.171 866.1526,-186.5361"/>
<text text-anchor="middle" x="1092" y="-239" font-family="Helvetica,sans-Serif" font-size="10.00" fill="#000000"> +table</text>
</g>
<!-- Node15&#45;&gt;Node1 -->
<g id="edge19" class="edge">
<title>Node15&#45;&gt;Node1</title>
<path fill="none" stroke="#404040" d="M999.9375,-138.5715C907.1199,-111.4827 755.3414,-67.1861 676.1933,-44.0867"/>
<polygon fill="none" stroke="#404040" points="676.1156,-44.0641 669.2352,-46.2229 664.5961,-40.7021 671.4765,-38.5433 676.1156,-44.0641"/>
<text text-anchor="middle" x="822" y="-79" font-family="Helvetica,sans-Serif" font-size="10.00" fill="#000000"> +bc</text>
</g>
<!-- Node16&#45;&gt;Node15 -->
<g id="edge20" class="edge">
<title>Node16&#45;&gt;Node15</title>
<path fill="none" stroke="#191970" d="M1170.6046,-561.0036C1175.67,-483.0798 1176.8177,-364.0039 1149.5,-265 1144.9212,-248.4058 1136.4071,-232.197 1126.8225,-217.716"/>
<polygon fill="none" stroke="#191970" points="1167.0947,-561.0286 1169.9008,-571.245 1174.0782,-561.5085 1167.0947,-561.0286"/>
</g>
<!-- Node17 -->
<g id="node17" class="node">
<title>Node17</title>
<polygon fill="none" stroke="#bfbfbf" points="1208.5,-287.5 1208.5,-355.5 1372.5,-355.5 1372.5,-287.5 1208.5,-287.5"/>
<text text-anchor="start" x="1216.5" y="-343.5" font-family="Helvetica,sans-Serif" font-size="10.00" fill="#000000">shared_ptr&lt; aod::BCCollisions</text>
<text text-anchor="middle" x="1290.5" y="-332.5" font-family="Helvetica,sans-Serif" font-size="10.00" fill="#000000">Sparse &gt;</text>
<polyline fill="none" stroke="#bfbfbf" points="1208.5,-325.5 1372.5,-325.5 "/>
<text text-anchor="middle" x="1290.5" y="-313.5" font-family="Helvetica,sans-Serif" font-size="10.00" fill="#000000"> </text>
<polyline fill="none" stroke="#bfbfbf" points="1208.5,-306.5 1372.5,-306.5 "/>
<text text-anchor="middle" x="1290.5" y="-294.5" font-family="Helvetica,sans-Serif" font-size="10.00" fill="#000000"> </text>
</g>
<!-- Node17&#45;&gt;Node15 -->
<g id="edge22" class="edge">
<title>Node17&#45;&gt;Node15</title>
<path fill="none" stroke="#404040" d="M1254.7238,-287.216C1237.1393,-271.0033 1215.2996,-251.7875 1194.5,-236 1185.8196,-229.4113 1176.5575,-222.8096 1167.1953,-216.408"/>
<polygon fill="none" stroke="#404040" points="1166.9707,-216.2567 1159.7597,-216.2205 1157.0197,-209.5502 1164.2307,-209.5865 1166.9707,-216.2567"/>
<text text-anchor="middle" x="1226" y="-239" font-family="Helvetica,sans-Serif" font-size="10.00" fill="#000000"> +table</text>
</g>
</g>
</svg>
        <g id="navigator" transform="translate(0 0)" fill="#404254">
                <rect fill="#f2f5e9" fill-opacity="0.5" stroke="#606060" stroke-width=".5" x="0" y="0" width="60" height="60"/>
                <use id="zoomplus" xlink:href="#zoomPlus" x="17" y="9" onmousedown="handleZoom(evt,'in')"/>
                <use id="zoomminus" xlink:href="#zoomMin" x="42" y="9" onmousedown="handleZoom(evt,'out')"/>
                <use id="reset" xlink:href="#resetDef" x="30" y="36" onmousedown="handleReset()"/>
                <g id="arrowUp" xlink:href="#dirArrow" transform="translate(30 24)" onmousedown="handlePan(0,-1)">
                  <use xlink:href="#rim" fill="#404040">
                        <set attributeName="fill" to="#808080" begin="arrowUp.mouseover" end="arrowUp.mouseout"/>
                  </use>
                  <path fill="none" stroke="white" stroke-width="1.5" d="M0,-3.0v7 M-2.5,-0.5L0,-3.0L2.5,-0.5"/>
                </g>
                <g id="arrowRight" xlink:href="#dirArrow" transform="rotate(90) translate(36 -43)" onmousedown="handlePan(1,0)">
                  <use xlink:href="#rim" fill="#404040">
                        <set attributeName="fill" to="#808080" begin="arrowRight.mouseover" end="arrowRight.mouseout"/>
                  </use>
                  <path fill="none" stroke="white" stroke-width="1.5" d="M0,-3.0v7 M-2.5,-0.5L0,-3.0L2.5,-0.5"/>
                </g>
                <g id="arrowDown" xlink:href="#dirArrow" transform="rotate(180) translate(-30 -48)" onmousedown="handlePan(0,1)">
                  <use xlink:href="#rim" fill="#404040">
                        <set attributeName="fill" to="#808080" begin="arrowDown.mouseover" end="arrowDown.mouseout"/>
                  </use>
                  <path fill="none" stroke="white" stroke-width="1.5" d="M0,-3.0v7 M-2.5,-0.5L0,-3.0L2.5,-0.5"/>
                </g>
                <g id="arrowLeft" xlink:href="#dirArrow" transform="rotate(270) translate(-36 17)" onmousedown="handlePan(-1,0)">
                  <use xlink:href="#rim" fill="#404040">
                        <set attributeName="fill" to="#808080" begin="arrowLeft.mouseover" end="arrowLeft.mouseout"/>
                  </use>
                  <path fill="none" stroke="white" stroke-width="1.5" d="M0,-3.0v7 M-2.5,-0.5L0,-3.0L2.5,-0.5"/>
                </g>
        </g>
        <svg viewBox="0 0 15 15" width="100%" height="30px" preserveAspectRatio="xMaxYMin meet">
         <g id="arrow_out" transform="scale(0.3 0.3)">
          <a xlink:href="structRun3Matcher__coll__graph_org.svg" target="_base">
           <rect id="button" ry="5" rx="5" y="6" x="6" height="38" width="38"
                fill="#f2f5e9" fill-opacity="0.5" stroke="#606060" stroke-width="1.0"/>
           <path id="arrow"
             d="M 11.500037,31.436501 C 11.940474,20.09759 22.043105,11.32322 32.158766,21.979434 L 37.068811,17.246167 C 37.068811,17.246167 37.088388,32 37.088388,32 L 22.160133,31.978069 C 22.160133,31.978069 26.997745,27.140456 26.997745,27.140456 C 18.528582,18.264221 13.291696,25.230495 11.500037,31.436501 z"
             style="fill:#404040;"/>
          </a>
         </g>
        </svg>
</svg>
