<?xml version="1.0" encoding="UTF-8" standalone="no"?>
<!DOCTYPE svg PUBLIC "-//W3C//DTD SVG 1.1//EN"
 "http://www.w3.org/Graphics/SVG/1.1/DTD/svg11.dtd">
<!-- Generated by graphviz version 2.40.1 (20161225.0304)
 -->
<!-- Title: /home/travis/build/AliceO2Group/AliceO2/Framework/Core/src/StreamOperators.cxx Pages: 1 -->
<svg width="2881pt" height="419pt"
 viewBox="0.00 0.00 2881.00 419.00" xmlns="http://www.w3.org/2000/svg" xmlns:xlink="http://www.w3.org/1999/xlink">
<g id="graph0" class="graph" transform="scale(1 1) rotate(0) translate(4 415)">
<title>/home/travis/build/AliceO2Group/AliceO2/Framework/Core/src/StreamOperators.cxx</title>
<!-- Node0 -->
<g id="node1" class="node">
<title>Node0</title>
<polygon fill="#bfbfbf" stroke="#000000" points="1697.5,-369.5 1697.5,-410.5 1920.5,-410.5 1920.5,-369.5 1697.5,-369.5"/>
<text text-anchor="start" x="1705.5" y="-398.5" font-family="Helvetica,sans-Serif" font-size="10.00" fill="#000000">/home/travis/build</text>
<text text-anchor="start" x="1705.5" y="-387.5" font-family="Helvetica,sans-Serif" font-size="10.00" fill="#000000">/AliceO2Group/AliceO2</text>
<text text-anchor="middle" x="1809" y="-376.5" font-family="Helvetica,sans-Serif" font-size="10.00" fill="#000000">/Framework/Core/src/StreamOperators.cxx</text>
</g>
<!-- Node1 -->
<g id="node2" class="node">
<title>Node1</title>
<g id="a_node2"><a xlink:href="../../d5/d3f/InputSpec_8h.html" target="_top" xlink:title="Framework/InputSpec.h">
<polygon fill="none" stroke="#000000" points="1743.5,-257.5 1743.5,-276.5 1874.5,-276.5 1874.5,-257.5 1743.5,-257.5"/>
<text text-anchor="middle" x="1809" y="-264.5" font-family="Helvetica,sans-Serif" font-size="10.00" fill="#000000">Framework/InputSpec.h</text>
</a>
</g>
</g>
<!-- Node0&#45;&gt;Node1 -->
<g id="edge1" class="edge">
<title>Node0&#45;&gt;Node1</title>
<path fill="none" stroke="#191970" d="M1809,-369.4126C1809,-346.3618 1809,-309.2774 1809,-286.6259"/>
<polygon fill="#191970" stroke="#191970" points="1812.5001,-286.5181 1809,-276.5182 1805.5001,-286.5182 1812.5001,-286.5181"/>
</g>
<!-- Node11 -->
<g id="node12" class="node">
<title>Node11</title>
<polygon fill="none" stroke="#bfbfbf" points="2665,-6 2665,-25 2709,-25 2709,-6 2665,-6"/>
<text text-anchor="middle" x="2687" y="-13" font-family="Helvetica,sans-Serif" font-size="10.00" fill="#000000">string</text>
</g>
<!-- Node0&#45;&gt;Node11 -->
<g id="edge81" class="edge">
<title>Node0&#45;&gt;Node11</title>
<path fill="none" stroke="#191970" d="M1920.6449,-385.7911C2157.1231,-375.384 2687,-343.5266 2687,-267 2687,-267 2687,-267 2687,-138.5 2687,-101.9994 2687,-59.406 2687,-35.1285"/>
<polygon fill="#191970" stroke="#191970" points="2690.5001,-35.0691 2687,-25.0691 2683.5001,-35.0692 2690.5001,-35.0691"/>
</g>
<!-- Node43 -->
<g id="node44" class="node">
<title>Node43</title>
<polygon fill="none" stroke="#bfbfbf" points="2601.5,-196 2601.5,-215 2658.5,-215 2658.5,-196 2601.5,-196"/>
<text text-anchor="middle" x="2630" y="-203" font-family="Helvetica,sans-Serif" font-size="10.00" fill="#000000">ostream</text>
</g>
<!-- Node0&#45;&gt;Node43 -->
<g id="edge80" class="edge">
<title>Node0&#45;&gt;Node43</title>
<path fill="none" stroke="#191970" d="M1920.6251,-370.5532C2072.7527,-342.9644 2353.0372,-288.2603 2587,-221 2589.7885,-220.1984 2592.6575,-219.3095 2595.5273,-218.3748"/>
<polygon fill="#191970" stroke="#191970" points="2596.8398,-221.6251 2605.171,-215.0797 2594.5765,-215.0011 2596.8398,-221.6251"/>
</g>
<!-- Node44 -->
<g id="node45" class="node">
<title>Node44</title>
<g id="a_node45"><a xlink:href="../../db/d2d/OutputSpec_8h.html" target="_top" xlink:title="Framework/OutputSpec.h">
<polygon fill="none" stroke="#000000" points="1536.5,-196 1536.5,-215 1675.5,-215 1675.5,-196 1536.5,-196"/>
<text text-anchor="middle" x="1606" y="-203" font-family="Helvetica,sans-Serif" font-size="10.00" fill="#000000">Framework/OutputSpec.h</text>
</a>
</g>
</g>
<!-- Node0&#45;&gt;Node44 -->
<g id="edge66" class="edge">
<title>Node0&#45;&gt;Node44</title>
<path fill="none" stroke="#191970" d="M1697.4924,-379.418C1635.8695,-371.0113 1568.0095,-356.6284 1549,-333 1521.1767,-298.4162 1562.2926,-248.0961 1587.98,-222.2298"/>
<polygon fill="#191970" stroke="#191970" points="1590.646,-224.5187 1595.3632,-215.0319 1585.7596,-219.5064 1590.646,-224.5187"/>
</g>
<!-- Node45 -->
<g id="node46" class="node">
<title>Node45</title>
<g id="a_node46"><a xlink:href="../../d6/d68/DataSpecUtils_8h.html" target="_top" xlink:title="Framework/DataSpecUtils.h">
<polygon fill="none" stroke="#000000" points="1558,-313.5 1558,-332.5 1710,-332.5 1710,-313.5 1558,-313.5"/>
<text text-anchor="middle" x="1634" y="-320.5" font-family="Helvetica,sans-Serif" font-size="10.00" fill="#000000">Framework/DataSpecUtils.h</text>
</a>
</g>
</g>
<!-- Node0&#45;&gt;Node45 -->
<g id="edge71" class="edge">
<title>Node0&#45;&gt;Node45</title>
<path fill="none" stroke="#191970" d="M1755.0663,-369.3511C1726.9974,-358.6047 1693.4969,-345.7788 1668.8589,-336.346"/>
<polygon fill="#191970" stroke="#191970" points="1669.8077,-332.9615 1659.2173,-332.6546 1667.3048,-339.4988 1669.8077,-332.9615"/>
</g>
<!-- Node2 -->
<g id="node3" class="node">
<title>Node2</title>
<g id="a_node3"><a xlink:href="../../dc/dca/Lifetime_8h.html" target="_top" xlink:title="Framework/Lifetime.h">
<polygon fill="none" stroke="#000000" points="1242.5,-129 1242.5,-148 1365.5,-148 1365.5,-129 1242.5,-129"/>
<text text-anchor="middle" x="1304" y="-136" font-family="Helvetica,sans-Serif" font-size="10.00" fill="#000000">Framework/Lifetime.h</text>
</a>
</g>
</g>
<!-- Node1&#45;&gt;Node2 -->
<g id="edge2" class="edge">
<title>Node1&#45;&gt;Node2</title>
<path fill="none" stroke="#191970" d="M1743.2877,-259.9188C1685.6507,-252.8489 1599.9043,-240.2395 1527,-221 1456.645,-202.4333 1377.4509,-170.3212 1334.9457,-152.1198"/>
<polygon fill="#191970" stroke="#191970" points="1336.2707,-148.8796 1325.7022,-148.1326 1333.4981,-155.3072 1336.2707,-148.8796"/>
</g>
<!-- Node3 -->
<g id="node4" class="node">
<title>Node3</title>
<g id="a_node4"><a xlink:href="../../d0/d1b/ConcreteDataMatcher_8h.html" target="_top" xlink:title="Framework/ConcreteDataMatcher.h">
<polygon fill="none" stroke="#000000" points="1644,-129 1644,-148 1832,-148 1832,-129 1644,-129"/>
<text text-anchor="middle" x="1738" y="-136" font-family="Helvetica,sans-Serif" font-size="10.00" fill="#000000">Framework/ConcreteDataMatcher.h</text>
</a>
</g>
</g>
<!-- Node1&#45;&gt;Node3 -->
<g id="edge3" class="edge">
<title>Node1&#45;&gt;Node3</title>
<path fill="none" stroke="#191970" d="M1803.6635,-257.3416C1791.9447,-236.1323 1763.7854,-185.1679 1748.4245,-157.3669"/>
<polygon fill="#191970" stroke="#191970" points="1751.2982,-155.3306 1743.3985,-148.2705 1745.1712,-158.7159 1751.2982,-155.3306"/>
</g>
<!-- Node1&#45;&gt;Node11 -->
<g id="edge63" class="edge">
<title>Node1&#45;&gt;Node11</title>
<path fill="none" stroke="#191970" d="M1874.5025,-265.0609C2043.2386,-258.9348 2487.8886,-235.2938 2607,-154 2649.2837,-125.1412 2672.1556,-66.0189 2681.6454,-35.1886"/>
<polygon fill="#191970" stroke="#191970" points="2685.1131,-35.7983 2684.5474,-25.2186 2678.392,-33.842 2685.1131,-35.7983"/>
</g>
<!-- Node15 -->
<g id="node16" class="node">
<title>Node15</title>
<g id="a_node16"><a xlink:href="../../d3/da3/DataDescriptorMatcher_8h.html" target="_top" xlink:title="Framework/DataDescriptor\lMatcher.h">
<polygon fill="none" stroke="#000000" points="1873.5,-190.5 1873.5,-220.5 2020.5,-220.5 2020.5,-190.5 1873.5,-190.5"/>
<text text-anchor="start" x="1881.5" y="-208.5" font-family="Helvetica,sans-Serif" font-size="10.00" fill="#000000">Framework/DataDescriptor</text>
<text text-anchor="middle" x="1947" y="-197.5" font-family="Helvetica,sans-Serif" font-size="10.00" fill="#000000">Matcher.h</text>
</a>
</g>
</g>
<!-- Node1&#45;&gt;Node15 -->
<g id="edge15" class="edge">
<title>Node1&#45;&gt;Node15</title>
<path fill="none" stroke="#191970" d="M1830.5625,-257.3906C1850.1038,-248.682 1879.4837,-235.5888 1903.8416,-224.7336"/>
<polygon fill="#191970" stroke="#191970" points="1905.5321,-227.8122 1913.2414,-220.5446 1902.6826,-221.4183 1905.5321,-227.8122"/>
</g>
<!-- Node36 -->
<g id="node37" class="node">
<title>Node36</title>
<polygon fill="none" stroke="#bfbfbf" points="1574.5,-129 1574.5,-148 1625.5,-148 1625.5,-129 1574.5,-129"/>
<text text-anchor="middle" x="1600" y="-136" font-family="Helvetica,sans-Serif" font-size="10.00" fill="#000000">variant</text>
</g>
<!-- Node1&#45;&gt;Node36 -->
<g id="edge65" class="edge">
<title>Node1&#45;&gt;Node36</title>
<path fill="none" stroke="#191970" d="M1793.2206,-257.2652C1769.5169,-242.645 1723.305,-214.1548 1684,-190 1663.9563,-177.6822 1641.205,-163.7356 1624.4402,-153.4655"/>
<polygon fill="#191970" stroke="#191970" points="1626.1532,-150.4103 1615.7975,-148.1717 1622.4969,-156.3796 1626.1532,-150.4103"/>
</g>
<!-- Node38 -->
<g id="node39" class="node">
<title>Node38</title>
<g id="a_node39"><a xlink:href="../../d0/d1c/ConfigParamSpec_8h.html" target="_top" xlink:title="Framework/ConfigParamSpec.h">
<polygon fill="none" stroke="#000000" points="2430.5,-129 2430.5,-148 2597.5,-148 2597.5,-129 2430.5,-129"/>
<text text-anchor="middle" x="2514" y="-136" font-family="Helvetica,sans-Serif" font-size="10.00" fill="#000000">Framework/ConfigParamSpec.h</text>
</a>
</g>
</g>
<!-- Node1&#45;&gt;Node38 -->
<g id="edge51" class="edge">
<title>Node1&#45;&gt;Node38</title>
<path fill="none" stroke="#191970" d="M1861.1266,-257.4989C1988.3891,-234.3028 2314.5428,-174.855 2451.7251,-149.8508"/>
<polygon fill="#191970" stroke="#191970" points="2452.4527,-153.276 2461.663,-148.0394 2451.1974,-146.3894 2452.4527,-153.276"/>
</g>
<!-- Node1&#45;&gt;Node43 -->
<g id="edge64" class="edge">
<title>Node1&#45;&gt;Node43</title>
<path fill="none" stroke="#191970" d="M1874.6321,-265.5352C2036.5189,-261.534 2451.5604,-248.8094 2587,-221 2590.447,-220.2922 2593.99,-219.3646 2597.4923,-218.3145"/>
<polygon fill="#191970" stroke="#191970" points="2598.7534,-221.5838 2607.1416,-215.1117 2596.5482,-214.9402 2598.7534,-221.5838"/>
</g>
<!-- Node4 -->
<g id="node5" class="node">
<title>Node4</title>
<g id="a_node5"><a xlink:href="../../dc/dcd/DataHeader_8h.html" target="_top" xlink:title="Headers/DataHeader.h">
<polygon fill="none" stroke="#000000" points="1837.5,-67.5 1837.5,-86.5 1964.5,-86.5 1964.5,-67.5 1837.5,-67.5"/>
<text text-anchor="middle" x="1901" y="-74.5" font-family="Helvetica,sans-Serif" font-size="10.00" fill="#000000">Headers/DataHeader.h</text>
</a>
</g>
</g>
<!-- Node3&#45;&gt;Node4 -->
<g id="edge4" class="edge">
<title>Node3&#45;&gt;Node4</title>
<path fill="none" stroke="#191970" d="M1763.4688,-128.8906C1791.1005,-118.4652 1835.3869,-101.7559 1866.2128,-90.1252"/>
<polygon fill="#191970" stroke="#191970" points="1867.5894,-93.3467 1875.7101,-86.5419 1865.1183,-86.7974 1867.5894,-93.3467"/>
</g>
<!-- Node5 -->
<g id="node6" class="node">
<title>Node5</title>
<polygon fill="none" stroke="#bfbfbf" points="2270,-6 2270,-25 2320,-25 2320,-6 2270,-6"/>
<text text-anchor="middle" x="2295" y="-13" font-family="Helvetica,sans-Serif" font-size="10.00" fill="#000000">cstdint</text>
</g>
<!-- Node4&#45;&gt;Node5 -->
<g id="edge5" class="edge">
<title>Node4&#45;&gt;Node5</title>
<path fill="none" stroke="#191970" d="M1964.6792,-74.3958C2037.3143,-70.1566 2159.0779,-59.1668 2260,-31 2262.1843,-30.3904 2264.4082,-29.6678 2266.6223,-28.8734"/>
<polygon fill="#191970" stroke="#191970" points="2268.1415,-32.0349 2276.1135,-25.0565 2265.5297,-25.5404 2268.1415,-32.0349"/>
</g>
<!-- Node6 -->
<g id="node7" class="node">
<title>Node6</title>
<polygon fill="none" stroke="#bfbfbf" points="2036,-6 2036,-25 2094,-25 2094,-6 2036,-6"/>
<text text-anchor="middle" x="2065" y="-13" font-family="Helvetica,sans-Serif" font-size="10.00" fill="#000000">memory</text>
</g>
<!-- Node4&#45;&gt;Node6 -->
<g id="edge6" class="edge">
<title>Node4&#45;&gt;Node6</title>
<path fill="none" stroke="#191970" d="M1927.8966,-67.3279C1953.2613,-58.1533 1992.3085,-43.8919 2026,-31 2027.8373,-30.297 2029.7209,-29.5698 2031.6205,-28.8314"/>
<polygon fill="#191970" stroke="#191970" points="2033.0828,-32.0175 2041.1128,-25.1059 2030.5254,-25.5014 2033.0828,-32.0175"/>
</g>
<!-- Node7 -->
<g id="node8" class="node">
<title>Node7</title>
<polygon fill="none" stroke="#bfbfbf" points="2112,-6 2112,-25 2164,-25 2164,-6 2112,-6"/>
<text text-anchor="middle" x="2138" y="-13" font-family="Helvetica,sans-Serif" font-size="10.00" fill="#000000">cassert</text>
</g>
<!-- Node4&#45;&gt;Node7 -->
<g id="edge7" class="edge">
<title>Node4&#45;&gt;Node7</title>
<path fill="none" stroke="#191970" d="M1955.7937,-67.4929C1996.8754,-59.6537 2054.1843,-47.1988 2103,-31 2104.8922,-30.3721 2106.8216,-29.6785 2108.7534,-28.9432"/>
<polygon fill="#191970" stroke="#191970" points="2110.3539,-32.0696 2118.2726,-25.0308 2107.6928,-25.5951 2110.3539,-32.0696"/>
</g>
<!-- Node8 -->
<g id="node9" class="node">
<title>Node8</title>
<polygon fill="none" stroke="#bfbfbf" points="1668,-6 1668,-25 1718,-25 1718,-6 1668,-6"/>
<text text-anchor="middle" x="1693" y="-13" font-family="Helvetica,sans-Serif" font-size="10.00" fill="#000000">cstring</text>
</g>
<!-- Node4&#45;&gt;Node8 -->
<g id="edge8" class="edge">
<title>Node4&#45;&gt;Node8</title>
<path fill="none" stroke="#191970" d="M1856.7538,-67.4871C1821.2067,-59.3255 1770.2548,-46.4516 1727,-31 1725.362,-30.4149 1723.6941,-29.7823 1722.0206,-29.1186"/>
<polygon fill="#191970" stroke="#191970" points="1723.1154,-25.7809 1712.5431,-25.0912 1720.3777,-32.2234 1723.1154,-25.7809"/>
</g>
<!-- Node9 -->
<g id="node10" class="node">
<title>Node9</title>
<polygon fill="none" stroke="#bfbfbf" points="1870,-6 1870,-25 1934,-25 1934,-6 1870,-6"/>
<text text-anchor="middle" x="1902" y="-13" font-family="Helvetica,sans-Serif" font-size="10.00" fill="#000000">algorithm</text>
</g>
<!-- Node4&#45;&gt;Node9 -->
<g id="edge9" class="edge">
<title>Node4&#45;&gt;Node9</title>
<path fill="none" stroke="#191970" d="M1901.1563,-67.3906C1901.2949,-58.8657 1901.5018,-46.1392 1901.676,-35.4235"/>
<polygon fill="#191970" stroke="#191970" points="1905.1784,-35.3005 1901.8415,-25.2449 1898.1793,-35.1866 1905.1784,-35.3005"/>
</g>
<!-- Node10 -->
<g id="node11" class="node">
<title>Node10</title>
<polygon fill="none" stroke="#bfbfbf" points="1952.5,-6 1952.5,-25 2017.5,-25 2017.5,-6 1952.5,-6"/>
<text text-anchor="middle" x="1985" y="-13" font-family="Helvetica,sans-Serif" font-size="10.00" fill="#000000">stdexcept</text>
</g>
<!-- Node4&#45;&gt;Node10 -->
<g id="edge10" class="edge">
<title>Node4&#45;&gt;Node10</title>
<path fill="none" stroke="#191970" d="M1914.125,-67.3906C1927.44,-57.6421 1948.2594,-42.3994 1963.8947,-30.9521"/>
<polygon fill="#191970" stroke="#191970" points="1965.9661,-33.7734 1971.9672,-25.0419 1961.8309,-28.1253 1965.9661,-33.7734"/>
</g>
<!-- Node4&#45;&gt;Node11 -->
<g id="edge11" class="edge">
<title>Node4&#45;&gt;Node11</title>
<path fill="none" stroke="#191970" d="M1964.6507,-73.8172C2140.6116,-64.9258 2622.8658,-39.8943 2656,-31 2657.718,-30.5388 2659.4526,-29.9775 2661.1771,-29.3452"/>
<polygon fill="#191970" stroke="#191970" points="2662.9989,-32.3685 2670.7567,-25.1527 2660.1924,-25.9557 2662.9989,-32.3685"/>
</g>
<!-- Node12 -->
<g id="node13" class="node">
<title>Node12</title>
<polygon fill="none" stroke="#bfbfbf" points="1736,-6 1736,-25 1786,-25 1786,-6 1736,-6"/>
<text text-anchor="middle" x="1761" y="-13" font-family="Helvetica,sans-Serif" font-size="10.00" fill="#000000">climits</text>
</g>
<!-- Node4&#45;&gt;Node12 -->
<g id="edge12" class="edge">
<title>Node4&#45;&gt;Node12</title>
<path fill="none" stroke="#191970" d="M1878.6142,-67.4263C1857.1249,-58.2028 1823.7764,-43.802 1795,-31 1793.7998,-30.466 1792.5766,-29.9196 1791.3418,-29.3659"/>
<polygon fill="#191970" stroke="#191970" points="1792.3848,-25.9965 1781.8306,-25.0691 1789.5028,-32.3758 1792.3848,-25.9965"/>
</g>
<!-- Node13 -->
<g id="node14" class="node">
<title>Node13</title>
<g id="a_node14"><a xlink:href="../../d7/df8/Types_8h.html" target="_top" xlink:title="MemoryResources/Types.h">
<polygon fill="none" stroke="#000000" points="1504,-6 1504,-25 1650,-25 1650,-6 1504,-6"/>
<text text-anchor="middle" x="1577" y="-13" font-family="Helvetica,sans-Serif" font-size="10.00" fill="#000000">MemoryResources/Types.h</text>
</a>
</g>
</g>
<!-- Node4&#45;&gt;Node13 -->
<g id="edge13" class="edge">
<title>Node4&#45;&gt;Node13</title>
<path fill="none" stroke="#191970" d="M1850.7305,-67.4581C1793.0631,-56.512 1698.567,-38.5752 1637.0722,-26.9026"/>
<polygon fill="#191970" stroke="#191970" points="1637.5982,-23.44 1627.1209,-25.0137 1636.2927,-30.3172 1637.5982,-23.44"/>
</g>
<!-- Node14 -->
<g id="node15" class="node">
<title>Node14</title>
<polygon fill="none" stroke="#bfbfbf" points="1804.5,-6 1804.5,-25 1851.5,-25 1851.5,-6 1804.5,-6"/>
<text text-anchor="middle" x="1828" y="-13" font-family="Helvetica,sans-Serif" font-size="10.00" fill="#000000">cerrno</text>
</g>
<!-- Node4&#45;&gt;Node14 -->
<g id="edge14" class="edge">
<title>Node4&#45;&gt;Node14</title>
<path fill="none" stroke="#191970" d="M1889.5938,-67.3906C1878.3031,-57.8786 1860.8033,-43.1357 1847.3381,-31.7917"/>
<polygon fill="#191970" stroke="#191970" points="1849.4699,-29.0111 1839.5671,-25.2449 1844.9598,-34.3646 1849.4699,-29.0111"/>
</g>
<!-- Node15&#45;&gt;Node3 -->
<g id="edge16" class="edge">
<title>Node15&#45;&gt;Node3</title>
<path fill="none" stroke="#191970" d="M1900.0963,-190.4639C1863.1817,-178.63 1812.3223,-162.3258 1777.4739,-151.1543"/>
<polygon fill="#191970" stroke="#191970" points="1778.242,-147.7251 1767.6508,-148.0053 1776.105,-154.391 1778.242,-147.7251"/>
</g>
<!-- Node15&#45;&gt;Node4 -->
<g id="edge25" class="edge">
<title>Node15&#45;&gt;Node4</title>
<path fill="none" stroke="#191970" d="M1936.4364,-190.3799C1929.9514,-180.4497 1921.9645,-166.9462 1917,-154 1909.8405,-135.3295 1905.6362,-112.8207 1903.349,-96.9757"/>
<polygon fill="#191970" stroke="#191970" points="1906.7805,-96.2248 1902.0075,-86.766 1899.8401,-97.1367 1906.7805,-96.2248"/>
</g>
<!-- Node15&#45;&gt;Node5 -->
<g id="edge45" class="edge">
<title>Node15&#45;&gt;Node5</title>
<path fill="none" stroke="#191970" d="M2020.591,-196.2222C2124.7888,-182.9144 2303.3071,-159.4099 2308,-154 2337.0205,-120.5456 2317.7943,-63.9525 2304.5509,-34.5364"/>
<polygon fill="#191970" stroke="#191970" points="2307.6445,-32.8909 2300.205,-25.3474 2301.3165,-35.8838 2307.6445,-32.8909"/>
</g>
<!-- Node15&#45;&gt;Node11 -->
<g id="edge47" class="edge">
<title>Node15&#45;&gt;Node11</title>
<path fill="none" stroke="#191970" d="M2020.7925,-196.4474C2135.9262,-182.2834 2346.0569,-156.2566 2354,-154 2385.9503,-144.9231 2391.2781,-135.6244 2422,-123 2464.919,-105.3635 2476.761,-103.8368 2520,-87 2580.9131,-63.2811 2596.5046,-58.0793 2656,-31 2657.0132,-30.5389 2658.0418,-30.0634 2659.0784,-29.5782"/>
<polygon fill="#191970" stroke="#191970" points="2660.9363,-32.5677 2668.4184,-25.0664 2657.8915,-26.2645 2660.9363,-32.5677"/>
</g>
<!-- Node16 -->
<g id="node17" class="node">
<title>Node16</title>
<g id="a_node17"><a xlink:href="../../d6/dc9/DataProcessingHeader_8h.html" target="_top" xlink:title="Framework/DataProcessing\lHeader.h">
<polygon fill="none" stroke="#000000" points="2150.5,-123.5 2150.5,-153.5 2299.5,-153.5 2299.5,-123.5 2150.5,-123.5"/>
<text text-anchor="start" x="2158.5" y="-141.5" font-family="Helvetica,sans-Serif" font-size="10.00" fill="#000000">Framework/DataProcessing</text>
<text text-anchor="middle" x="2225" y="-130.5" font-family="Helvetica,sans-Serif" font-size="10.00" fill="#000000">Header.h</text>
</a>
</g>
</g>
<!-- Node15&#45;&gt;Node16 -->
<g id="edge17" class="edge">
<title>Node15&#45;&gt;Node16</title>
<path fill="none" stroke="#191970" d="M2009.3886,-190.4639C2051.805,-180.2412 2108.0627,-166.6827 2152.4765,-155.9787"/>
<polygon fill="#191970" stroke="#191970" points="2153.4377,-159.3473 2162.3393,-153.6017 2151.7975,-152.5422 2153.4377,-159.3473"/>
</g>
<!-- Node19 -->
<g id="node20" class="node">
<title>Node19</title>
<g id="a_node20"><a xlink:href="../../d1/d76/RuntimeError_8h.html" target="_top" xlink:title="Framework/RuntimeError.h">
<polygon fill="none" stroke="#000000" points="2727,-6 2727,-25 2873,-25 2873,-6 2727,-6"/>
<text text-anchor="middle" x="2800" y="-13" font-family="Helvetica,sans-Serif" font-size="10.00" fill="#000000">Framework/RuntimeError.h</text>
</a>
</g>
</g>
<!-- Node15&#45;&gt;Node19 -->
<g id="edge24" class="edge">
<title>Node15&#45;&gt;Node19</title>
<path fill="none" stroke="#191970" d="M2020.7652,-204.7158C2169.6833,-202.3249 2501.0669,-192.688 2607,-154 2680.9675,-126.9862 2751.962,-63.2225 2783.2709,-32.5562"/>
<polygon fill="#191970" stroke="#191970" points="2786.0666,-34.7119 2790.6874,-25.1778 2781.1296,-29.7494 2786.0666,-34.7119"/>
</g>
<!-- Node20 -->
<g id="node21" class="node">
<title>Node20</title>
<g id="a_node21"><a xlink:href="../../d4/d00/Headers_2include_2Headers_2Stack_8h.html" target="_top" xlink:title="Headers/Stack.h">
<polygon fill="none" stroke="#000000" points="1384,-129 1384,-148 1480,-148 1480,-129 1384,-129"/>
<text text-anchor="middle" x="1432" y="-136" font-family="Helvetica,sans-Serif" font-size="10.00" fill="#000000">Headers/Stack.h</text>
</a>
</g>
</g>
<!-- Node15&#45;&gt;Node20 -->
<g id="edge26" class="edge">
<title>Node15&#45;&gt;Node20</title>
<path fill="none" stroke="#191970" d="M1873.4867,-195.9361C1770.251,-182.5055 1584.4262,-158.3302 1490.1926,-146.0707"/>
<polygon fill="#191970" stroke="#191970" points="1490.633,-142.5986 1480.265,-144.7791 1489.7299,-149.5401 1490.633,-142.5986"/>
</g>
<!-- Node28 -->
<g id="node29" class="node">
<title>Node28</title>
<polygon fill="none" stroke="#bfbfbf" points="1438.5,-6 1438.5,-25 1485.5,-25 1485.5,-6 1438.5,-6"/>
<text text-anchor="middle" x="1462" y="-13" font-family="Helvetica,sans-Serif" font-size="10.00" fill="#000000">vector</text>
</g>
<!-- Node15&#45;&gt;Node28 -->
<g id="edge49" class="edge">
<title>Node15&#45;&gt;Node28</title>
<path fill="none" stroke="#191970" d="M1931.8568,-190.4406C1912.4288,-171.9422 1876.9294,-140.8292 1841,-123 1698.4635,-52.2692 1644.5014,-85.4872 1495,-31 1493.4055,-30.4189 1491.7829,-29.7894 1490.1558,-29.1282"/>
<polygon fill="#191970" stroke="#191970" points="1491.5135,-25.9019 1480.9484,-25.108 1488.7124,-32.3171 1491.5135,-25.9019"/>
</g>
<!-- Node34 -->
<g id="node35" class="node">
<title>Node34</title>
<polygon fill="none" stroke="#bfbfbf" points="1926,-129 1926,-148 1968,-148 1968,-129 1926,-129"/>
<text text-anchor="middle" x="1947" y="-136" font-family="Helvetica,sans-Serif" font-size="10.00" fill="#000000">array</text>
</g>
<!-- Node15&#45;&gt;Node34 -->
<g id="edge44" class="edge">
<title>Node15&#45;&gt;Node34</title>
<path fill="none" stroke="#191970" d="M1947,-190.2967C1947,-180.7699 1947,-168.3954 1947,-158.1306"/>
<polygon fill="#191970" stroke="#191970" points="1950.5001,-158.0549 1947,-148.055 1943.5001,-158.055 1950.5001,-158.0549"/>
</g>
<!-- Node35 -->
<g id="node36" class="node">
<title>Node35</title>
<polygon fill="none" stroke="#bfbfbf" points="2338.5,-6 2338.5,-25 2387.5,-25 2387.5,-6 2338.5,-6"/>
<text text-anchor="middle" x="2363" y="-13" font-family="Helvetica,sans-Serif" font-size="10.00" fill="#000000">iosfwd</text>
</g>
<!-- Node15&#45;&gt;Node35 -->
<g id="edge46" class="edge">
<title>Node15&#45;&gt;Node35</title>
<path fill="none" stroke="#191970" d="M2020.8735,-196.0652C2131.1126,-181.9133 2326.1457,-156.5649 2329,-154 2362.8029,-123.6248 2365.6116,-65.607 2364.494,-35.2011"/>
<polygon fill="#191970" stroke="#191970" points="2367.9775,-34.8061 2363.9298,-25.0149 2360.9882,-35.1932 2367.9775,-34.8061"/>
</g>
<!-- Node15&#45;&gt;Node36 -->
<g id="edge48" class="edge">
<title>Node15&#45;&gt;Node36</title>
<path fill="none" stroke="#191970" d="M1873.3165,-198.6604C1809.3326,-191.4693 1714.6942,-177.8029 1635,-154 1632.8788,-153.3664 1630.717,-152.6353 1628.561,-151.8427"/>
<polygon fill="#191970" stroke="#191970" points="1629.8734,-148.5981 1619.2909,-148.0865 1627.2446,-155.0858 1629.8734,-148.5981"/>
</g>
<!-- Node37 -->
<g id="node38" class="node">
<title>Node37</title>
<polygon fill="none" stroke="#bfbfbf" points="1986,-129 1986,-148 2132,-148 2132,-129 1986,-129"/>
<text text-anchor="middle" x="2059" y="-136" font-family="Helvetica,sans-Serif" font-size="10.00" fill="#000000">DataDescriptorMatcher.inc</text>
</g>
<!-- Node15&#45;&gt;Node37 -->
<g id="edge50" class="edge">
<title>Node15&#45;&gt;Node37</title>
<path fill="none" stroke="#191970" d="M1972.135,-190.4639C1990.6732,-179.3741 2015.774,-164.3584 2034.2262,-153.32"/>
<polygon fill="#191970" stroke="#191970" points="2036.1608,-156.2412 2042.9457,-148.1039 2032.5672,-150.2341 2036.1608,-156.2412"/>
</g>
<!-- Node16&#45;&gt;Node4 -->
<g id="edge18" class="edge">
<title>Node16&#45;&gt;Node4</title>
<path fill="none" stroke="#191970" d="M2150.261,-124.3134C2092.8498,-113.4159 2014.5976,-98.5625 1961.182,-88.4234"/>
<polygon fill="#191970" stroke="#191970" points="1961.6532,-84.9505 1951.1759,-86.5241 1960.3478,-91.8277 1961.6532,-84.9505"/>
</g>
<!-- Node16&#45;&gt;Node5 -->
<g id="edge19" class="edge">
<title>Node16&#45;&gt;Node5</title>
<path fill="none" stroke="#191970" d="M2226.703,-123.4001C2228.9181,-108.3042 2233.7867,-84.8327 2244,-67 2251.6979,-53.5592 2263.7843,-41.1371 2274.2591,-31.8616"/>
<polygon fill="#191970" stroke="#191970" points="2276.8296,-34.2712 2282.1996,-25.1381 2272.3062,-28.929 2276.8296,-34.2712"/>
</g>
<!-- Node16&#45;&gt;Node6 -->
<g id="edge21" class="edge">
<title>Node16&#45;&gt;Node6</title>
<path fill="none" stroke="#191970" d="M2164.6006,-123.4779C2142.2375,-115.5488 2117.9785,-103.8562 2100,-87 2084.927,-72.8679 2075.5225,-50.8575 2070.3063,-34.9899"/>
<polygon fill="#191970" stroke="#191970" points="2073.5806,-33.7246 2067.346,-25.1584 2066.8778,-35.7429 2073.5806,-33.7246"/>
</g>
<!-- Node16&#45;&gt;Node7 -->
<g id="edge22" class="edge">
<title>Node16&#45;&gt;Node7</title>
<path fill="none" stroke="#191970" d="M2214.3321,-123.4178C2198.2385,-100.6648 2167.8107,-57.6461 2150.632,-33.3591"/>
<polygon fill="#191970" stroke="#191970" points="2153.3865,-31.1923 2144.7544,-25.0493 2147.6716,-35.2346 2153.3865,-31.1923"/>
</g>
<!-- Node17 -->
<g id="node18" class="node">
<title>Node17</title>
<polygon fill="none" stroke="#bfbfbf" points="2253,-67.5 2253,-86.5 2299,-86.5 2299,-67.5 2253,-67.5"/>
<text text-anchor="middle" x="2276" y="-74.5" font-family="Helvetica,sans-Serif" font-size="10.00" fill="#000000">cstdio</text>
</g>
<!-- Node16&#45;&gt;Node17 -->
<g id="edge20" class="edge">
<title>Node16&#45;&gt;Node17</title>
<path fill="none" stroke="#191970" d="M2237.6067,-123.2977C2244.7598,-114.672 2253.7497,-103.8312 2261.2318,-94.8087"/>
<polygon fill="#191970" stroke="#191970" points="2264.145,-96.7787 2267.8343,-86.8469 2258.7567,-92.3103 2264.145,-96.7787"/>
</g>
<!-- Node18 -->
<g id="node19" class="node">
<title>Node18</title>
<polygon fill="none" stroke="#bfbfbf" points="2109,-67.5 2109,-86.5 2159,-86.5 2159,-67.5 2109,-67.5"/>
<text text-anchor="middle" x="2134" y="-74.5" font-family="Helvetica,sans-Serif" font-size="10.00" fill="#000000">chrono</text>
</g>
<!-- Node16&#45;&gt;Node18 -->
<g id="edge23" class="edge">
<title>Node16&#45;&gt;Node18</title>
<path fill="none" stroke="#191970" d="M2202.5056,-123.2977C2188.6033,-113.9022 2170.8124,-101.8787 2156.8454,-92.4395"/>
<polygon fill="#191970" stroke="#191970" points="2158.5436,-89.3629 2148.2985,-86.6633 2154.624,-95.1626 2158.5436,-89.3629"/>
</g>
<!-- Node20&#45;&gt;Node4 -->
<g id="edge43" class="edge">
<title>Node20&#45;&gt;Node4</title>
<path fill="none" stroke="#191970" d="M1466.5833,-128.9942C1475.4682,-126.7894 1485.0469,-124.6177 1494,-123 1609.4229,-102.1442 1745.0718,-89.0672 1826.9656,-82.4032"/>
<polygon fill="#191970" stroke="#191970" points="1827.485,-85.8729 1837.1726,-81.5832 1826.9244,-78.8953 1827.485,-85.8729"/>
</g>
<!-- Node21 -->
<g id="node22" class="node">
<title>Node21</title>
<g id="a_node22"><a xlink:href="../../dc/d03/MemoryResources_8h.html" target="_top" xlink:title="MemoryResources/MemoryResources.h">
<polygon fill="none" stroke="#000000" points="1054.5,-67.5 1054.5,-86.5 1261.5,-86.5 1261.5,-67.5 1054.5,-67.5"/>
<text text-anchor="middle" x="1158" y="-74.5" font-family="Helvetica,sans-Serif" font-size="10.00" fill="#000000">MemoryResources/MemoryResources.h</text>
</a>
</g>
</g>
<!-- Node20&#45;&gt;Node21 -->
<g id="edge27" class="edge">
<title>Node20&#45;&gt;Node21</title>
<path fill="none" stroke="#191970" d="M1397.4173,-128.9468C1389.727,-126.9094 1381.6014,-124.8238 1374,-123 1320.7337,-110.2195 1259.6458,-97.377 1216.0572,-88.5223"/>
<polygon fill="#191970" stroke="#191970" points="1216.6974,-85.081 1206.2018,-86.5276 1215.3087,-91.9419 1216.6974,-85.081"/>
</g>
<!-- Node21&#45;&gt;Node8 -->
<g id="edge32" class="edge">
<title>Node21&#45;&gt;Node8</title>
<path fill="none" stroke="#191970" d="M1261.5163,-71.59C1385.7822,-64.3801 1586.5067,-50.2574 1659,-31 1661.1905,-30.4181 1663.4164,-29.7063 1665.6272,-28.911"/>
<polygon fill="#191970" stroke="#191970" points="1667.1469,-32.0706 1675.0664,-25.0326 1664.4865,-25.5958 1667.1469,-32.0706"/>
</g>
<!-- Node21&#45;&gt;Node11 -->
<g id="edge33" class="edge">
<title>Node21&#45;&gt;Node11</title>
<path fill="none" stroke="#191970" d="M1261.7189,-75.039C1589.9893,-68.6716 2588.6125,-48.0041 2656,-31 2657.9253,-30.5142 2659.8694,-29.896 2661.7954,-29.1878"/>
<polygon fill="#191970" stroke="#191970" points="2663.3614,-32.3226 2671.1042,-25.0907 2660.5416,-25.9157 2663.3614,-32.3226"/>
</g>
<!-- Node21&#45;&gt;Node13 -->
<g id="edge42" class="edge">
<title>Node21&#45;&gt;Node13</title>
<path fill="none" stroke="#191970" d="M1235.5622,-67.4672C1303.7659,-58.8258 1405.6542,-45.288 1494,-31 1501.7328,-29.7494 1509.8539,-28.3455 1517.8641,-26.9068"/>
<polygon fill="#191970" stroke="#191970" points="1518.7035,-30.3116 1527.9136,-25.0748 1517.448,-23.4251 1518.7035,-30.3116"/>
</g>
<!-- Node22 -->
<g id="node23" class="node">
<title>Node22</title>
<polygon fill="none" stroke="#bfbfbf" points="356.5,-.5 356.5,-30.5 467.5,-30.5 467.5,-.5 356.5,-.5"/>
<text text-anchor="start" x="364.5" y="-18.5" font-family="Helvetica,sans-Serif" font-size="10.00" fill="#000000">boost/container/flat</text>
<text text-anchor="middle" x="412" y="-7.5" font-family="Helvetica,sans-Serif" font-size="10.00" fill="#000000">_map.hpp</text>
</g>
<!-- Node21&#45;&gt;Node22 -->
<g id="edge28" class="edge">
<title>Node21&#45;&gt;Node22</title>
<path fill="none" stroke="#191970" d="M1054.4284,-72.1791C896.3721,-64.4655 601.1327,-48.5625 477.7294,-31.069"/>
<polygon fill="#191970" stroke="#191970" points="478.1408,-27.5919 467.7361,-29.59 477.116,-34.5164 478.1408,-27.5919"/>
</g>
<!-- Node23 -->
<g id="node24" class="node">
<title>Node23</title>
<polygon fill="none" stroke="#bfbfbf" points="485.5,-.5 485.5,-30.5 614.5,-30.5 614.5,-.5 485.5,-.5"/>
<text text-anchor="start" x="493.5" y="-18.5" font-family="Helvetica,sans-Serif" font-size="10.00" fill="#000000">boost/container/pmr</text>
<text text-anchor="middle" x="550" y="-7.5" font-family="Helvetica,sans-Serif" font-size="10.00" fill="#000000">/memory_resource.hpp</text>
</g>
<!-- Node21&#45;&gt;Node23 -->
<g id="edge29" class="edge">
<title>Node21&#45;&gt;Node23</title>
<path fill="none" stroke="#191970" d="M1054.4975,-71.8971C948.7292,-65.8149 779.6105,-53.6956 624.9677,-31.1908"/>
<polygon fill="#191970" stroke="#191970" points="625.2068,-27.6883 614.8034,-29.6934 624.1865,-34.6136 625.2068,-27.6883"/>
</g>
<!-- Node24 -->
<g id="node25" class="node">
<title>Node24</title>
<polygon fill="none" stroke="#bfbfbf" points="632.5,-.5 632.5,-30.5 805.5,-30.5 805.5,-.5 632.5,-.5"/>
<text text-anchor="start" x="640.5" y="-18.5" font-family="Helvetica,sans-Serif" font-size="10.00" fill="#000000">boost/container/pmr</text>
<text text-anchor="middle" x="719" y="-7.5" font-family="Helvetica,sans-Serif" font-size="10.00" fill="#000000">/monotonic_buffer_resource.hpp</text>
</g>
<!-- Node21&#45;&gt;Node24 -->
<g id="edge30" class="edge">
<title>Node21&#45;&gt;Node24</title>
<path fill="none" stroke="#191970" d="M1082.0775,-67.4854C1014.6313,-58.8866 913.0978,-45.5851 815.7217,-31.2344"/>
<polygon fill="#191970" stroke="#191970" points="816.1099,-27.7538 805.7053,-29.7523 815.0852,-34.6784 816.1099,-27.7538"/>
</g>
<!-- Node25 -->
<g id="node26" class="node">
<title>Node25</title>
<polygon fill="none" stroke="#bfbfbf" points="823.5,-.5 823.5,-30.5 972.5,-30.5 972.5,-.5 823.5,-.5"/>
<text text-anchor="start" x="831.5" y="-18.5" font-family="Helvetica,sans-Serif" font-size="10.00" fill="#000000">boost/container/pmr</text>
<text text-anchor="middle" x="898" y="-7.5" font-family="Helvetica,sans-Serif" font-size="10.00" fill="#000000">/polymorphic_allocator.hpp</text>
</g>
<!-- Node21&#45;&gt;Node25 -->
<g id="edge31" class="edge">
<title>Node21&#45;&gt;Node25</title>
<path fill="none" stroke="#191970" d="M1117.6603,-67.4581C1078.7766,-58.2606 1019.0273,-44.1276 971.6551,-32.9223"/>
<polygon fill="#191970" stroke="#191970" points="972.2833,-29.4744 961.7462,-30.5784 970.672,-36.2864 972.2833,-29.4744"/>
</g>
<!-- Node26 -->
<g id="node27" class="node">
<title>Node26</title>
<polygon fill="none" stroke="#bfbfbf" points="2182.5,-6 2182.5,-25 2251.5,-25 2251.5,-6 2182.5,-6"/>
<text text-anchor="middle" x="2217" y="-13" font-family="Helvetica,sans-Serif" font-size="10.00" fill="#000000">type_traits</text>
</g>
<!-- Node21&#45;&gt;Node26 -->
<g id="edge34" class="edge">
<title>Node21&#45;&gt;Node26</title>
<path fill="none" stroke="#191970" d="M1261.7645,-76.1458C1484.2506,-73.6869 2000.9272,-64.4489 2173,-31 2176.7167,-30.2775 2180.5433,-29.302 2184.3157,-28.19"/>
<polygon fill="#191970" stroke="#191970" points="2185.6425,-31.4386 2194.0622,-25.0075 2183.4697,-24.7844 2185.6425,-31.4386"/>
</g>
<!-- Node27 -->
<g id="node28" class="node">
<title>Node27</title>
<polygon fill="none" stroke="#bfbfbf" points="990.5,-6 990.5,-25 1035.5,-25 1035.5,-6 990.5,-6"/>
<text text-anchor="middle" x="1013" y="-13" font-family="Helvetica,sans-Serif" font-size="10.00" fill="#000000">utility</text>
</g>
<!-- Node21&#45;&gt;Node27 -->
<g id="edge35" class="edge">
<title>Node21&#45;&gt;Node27</title>
<path fill="none" stroke="#191970" d="M1132.398,-67.3454C1109.1301,-58.4117 1073.9622,-44.5094 1044,-31 1042.9852,-30.5424 1041.9552,-30.0701 1040.9174,-29.5874"/>
<polygon fill="#191970" stroke="#191970" points="1042.1002,-26.2724 1031.5717,-25.0882 1039.0638,-32.5796 1042.1002,-26.2724"/>
</g>
<!-- Node21&#45;&gt;Node28 -->
<g id="edge36" class="edge">
<title>Node21&#45;&gt;Node28</title>
<path fill="none" stroke="#191970" d="M1251.3449,-67.4927C1304.2828,-60.5377 1371.2796,-49.0846 1429,-31 1430.8573,-30.4181 1432.7446,-29.7523 1434.6278,-29.0312"/>
<polygon fill="#191970" stroke="#191970" points="1436.0273,-32.2395 1443.8527,-25.0972 1433.2813,-25.8006 1436.0273,-32.2395"/>
</g>
<!-- Node29 -->
<g id="node30" class="node">
<title>Node29</title>
<polygon fill="none" stroke="#bfbfbf" points="1053.5,-6 1053.5,-25 1146.5,-25 1146.5,-6 1053.5,-6"/>
<text text-anchor="middle" x="1100" y="-13" font-family="Helvetica,sans-Serif" font-size="10.00" fill="#000000">unordered_map</text>
</g>
<!-- Node21&#45;&gt;Node29 -->
<g id="edge37" class="edge">
<title>Node21&#45;&gt;Node29</title>
<path fill="none" stroke="#191970" d="M1148.9375,-67.3906C1140.2207,-58.1478 1126.846,-43.966 1116.2804,-32.7628"/>
<polygon fill="#191970" stroke="#191970" points="1118.5976,-30.1186 1109.1903,-25.2449 1113.505,-34.9213 1118.5976,-30.1186"/>
</g>
<!-- Node30 -->
<g id="node31" class="node">
<title>Node30</title>
<polygon fill="none" stroke="#bfbfbf" points="1164.5,-6 1164.5,-25 1265.5,-25 1265.5,-6 1164.5,-6"/>
<text text-anchor="middle" x="1215" y="-13" font-family="Helvetica,sans-Serif" font-size="10.00" fill="#000000">FairMQMessage.h</text>
</g>
<!-- Node21&#45;&gt;Node30 -->
<g id="edge38" class="edge">
<title>Node21&#45;&gt;Node30</title>
<path fill="none" stroke="#191970" d="M1166.9063,-67.3906C1175.4728,-58.1478 1188.6169,-43.966 1199.0003,-32.7628"/>
<polygon fill="#191970" stroke="#191970" points="1201.7375,-34.9584 1205.9682,-25.2449 1196.6035,-30.2 1201.7375,-34.9584"/>
</g>
<!-- Node31 -->
<g id="node32" class="node">
<title>Node31</title>
<polygon fill="none" stroke="#bfbfbf" points="1283.5,-6 1283.5,-25 1420.5,-25 1420.5,-6 1283.5,-6"/>
<text text-anchor="middle" x="1352" y="-13" font-family="Helvetica,sans-Serif" font-size="10.00" fill="#000000">FairMQTransportFactory.h</text>
</g>
<!-- Node21&#45;&gt;Node31 -->
<g id="edge39" class="edge">
<title>Node21&#45;&gt;Node31</title>
<path fill="none" stroke="#191970" d="M1188.3125,-67.3906C1221.6265,-56.8298 1275.2808,-39.8208 1312.0181,-28.1747"/>
<polygon fill="#191970" stroke="#191970" points="1313.4256,-31.4002 1321.9004,-25.0419 1311.3102,-24.7275 1313.4256,-31.4002"/>
</g>
<!-- Node32 -->
<g id="node33" class="node">
<title>Node32</title>
<polygon fill="none" stroke="#bfbfbf" points="0,-6 0,-25 150,-25 150,-6 0,-6"/>
<text text-anchor="middle" x="75" y="-13" font-family="Helvetica,sans-Serif" font-size="10.00" fill="#000000">fairmq/MemoryResources.h</text>
</g>
<!-- Node21&#45;&gt;Node32 -->
<g id="edge40" class="edge">
<title>Node21&#45;&gt;Node32</title>
<path fill="none" stroke="#191970" d="M1054.1103,-74.0161C834.6218,-67.4171 329.8724,-50.6062 159,-31 149.5963,-29.921 139.66,-28.4165 130.0412,-26.7657"/>
<polygon fill="#191970" stroke="#191970" points="130.6273,-23.3151 120.168,-25.0043 129.3978,-30.2063 130.6273,-23.3151"/>
</g>
<!-- Node33 -->
<g id="node34" class="node">
<title>Node33</title>
<polygon fill="none" stroke="#bfbfbf" points="168,-6 168,-25 338,-25 338,-6 168,-6"/>
<text text-anchor="middle" x="253" y="-13" font-family="Helvetica,sans-Serif" font-size="10.00" fill="#000000">fairmq/MemoryResourceTools.h</text>
</g>
<!-- Node21&#45;&gt;Node33 -->
<g id="edge41" class="edge">
<title>Node21&#45;&gt;Node33</title>
<path fill="none" stroke="#191970" d="M1054.3285,-74.6602C899.8279,-70.3728 600.1856,-58.9739 347,-31 336.5351,-29.8438 325.4624,-28.3042 314.7314,-26.6433"/>
<polygon fill="#191970" stroke="#191970" points="315.0052,-23.1428 304.5785,-25.0224 313.9016,-30.0553 315.0052,-23.1428"/>
</g>
<!-- Node38&#45;&gt;Node11 -->
<g id="edge62" class="edge">
<title>Node38&#45;&gt;Node11</title>
<path fill="none" stroke="#191970" d="M2526.7483,-128.8528C2545.1811,-114.9613 2580.4214,-88.6177 2611,-67 2628.5677,-54.5804 2648.7392,-40.9397 2663.8843,-30.8186"/>
<polygon fill="#191970" stroke="#191970" points="2666.215,-33.4714 2672.5965,-25.014 2662.3337,-27.646 2666.215,-33.4714"/>
</g>
<!-- Node39 -->
<g id="node40" class="node">
<title>Node39</title>
<g id="a_node40"><a xlink:href="../../de/d56/Variant_8h.html" target="_top" xlink:title="Framework/Variant.h">
<polygon fill="none" stroke="#000000" points="2393.5,-67.5 2393.5,-86.5 2510.5,-86.5 2510.5,-67.5 2393.5,-67.5"/>
<text text-anchor="middle" x="2452" y="-74.5" font-family="Helvetica,sans-Serif" font-size="10.00" fill="#000000">Framework/Variant.h</text>
</a>
</g>
</g>
<!-- Node38&#45;&gt;Node39 -->
<g id="edge52" class="edge">
<title>Node38&#45;&gt;Node39</title>
<path fill="none" stroke="#191970" d="M2504.3125,-128.8906C2494.9041,-119.5581 2480.4193,-105.1902 2469.0751,-93.9374"/>
<polygon fill="#191970" stroke="#191970" points="2471.3886,-91.3024 2461.8241,-86.7449 2466.4589,-96.2722 2471.3886,-91.3024"/>
</g>
<!-- Node39&#45;&gt;Node5 -->
<g id="edge56" class="edge">
<title>Node39&#45;&gt;Node5</title>
<path fill="none" stroke="#191970" d="M2424.9151,-67.4859C2399.851,-58.5367 2361.6465,-44.5268 2329,-31 2327.6141,-30.4258 2326.2011,-29.8288 2324.7773,-29.2179"/>
<polygon fill="#191970" stroke="#191970" points="2325.9568,-25.9127 2315.3949,-25.077 2323.1304,-32.3168 2325.9568,-25.9127"/>
</g>
<!-- Node39&#45;&gt;Node8 -->
<g id="edge55" class="edge">
<title>Node39&#45;&gt;Node8</title>
<path fill="none" stroke="#191970" d="M2393.1551,-72.8141C2367.0704,-70.9842 2336.007,-68.8401 2308,-67 2049.8392,-50.0382 1978.0034,-93.7056 1727,-31 1724.8011,-30.4507 1722.5691,-29.7626 1720.3541,-28.9839"/>
<polygon fill="#191970" stroke="#191970" points="1721.488,-25.6666 1710.9063,-25.1387 1718.8492,-32.1502 1721.488,-25.6666"/>
</g>
<!-- Node39&#45;&gt;Node11 -->
<g id="edge61" class="edge">
<title>Node39&#45;&gt;Node11</title>
<path fill="none" stroke="#191970" d="M2510.6546,-67.6653C2552.0085,-60.1497 2608.2986,-48.0196 2656,-31 2657.4168,-30.4945 2658.8526,-29.9399 2660.29,-29.3506"/>
<polygon fill="#191970" stroke="#191970" points="2661.9628,-32.435 2669.6188,-25.1113 2659.0667,-26.0621 2661.9628,-32.435"/>
</g>
<!-- Node39&#45;&gt;Node19 -->
<g id="edge53" class="edge">
<title>Node39&#45;&gt;Node19</title>
<path fill="none" stroke="#191970" d="M2508.6055,-67.4739C2562.4867,-58.3441 2645.827,-44.0609 2718,-31 2725.1551,-29.7052 2732.6562,-28.3223 2740.0928,-26.9357"/>
<polygon fill="#191970" stroke="#191970" points="2740.9707,-30.3322 2750.1551,-25.0505 2739.6815,-23.4519 2740.9707,-30.3322"/>
</g>
<!-- Node39&#45;&gt;Node26 -->
<g id="edge54" class="edge">
<title>Node39&#45;&gt;Node26</title>
<path fill="none" stroke="#191970" d="M2406.5016,-67.4185C2367.5848,-58.896 2310.2252,-45.5564 2261,-31 2258.2332,-30.1818 2255.3843,-29.2912 2252.5299,-28.3641"/>
<polygon fill="#191970" stroke="#191970" points="2253.5084,-25.0005 2242.9143,-25.1241 2251.2731,-31.6341 2253.5084,-25.0005"/>
</g>
<!-- Node39&#45;&gt;Node35 -->
<g id="edge58" class="edge">
<title>Node39&#45;&gt;Node35</title>
<path fill="none" stroke="#191970" d="M2438.0938,-67.3906C2423.9862,-57.6421 2401.9276,-42.3994 2385.3615,-30.9521"/>
<polygon fill="#191970" stroke="#191970" points="2387.0253,-27.8474 2376.8086,-25.0419 2383.0458,-33.6063 2387.0253,-27.8474"/>
</g>
<!-- Node40 -->
<g id="node41" class="node">
<title>Node40</title>
<polygon fill="none" stroke="#bfbfbf" points="2405.5,-6 2405.5,-25 2454.5,-25 2454.5,-6 2405.5,-6"/>
<text text-anchor="middle" x="2430" y="-13" font-family="Helvetica,sans-Serif" font-size="10.00" fill="#000000">cstdlib</text>
</g>
<!-- Node39&#45;&gt;Node40 -->
<g id="edge57" class="edge">
<title>Node39&#45;&gt;Node40</title>
<path fill="none" stroke="#191970" d="M2448.5625,-67.3906C2445.4487,-58.6862 2440.768,-45.6015 2436.886,-34.7494"/>
<polygon fill="#191970" stroke="#191970" points="2440.1497,-33.4817 2433.486,-25.2449 2433.5588,-35.8394 2440.1497,-33.4817"/>
</g>
<!-- Node41 -->
<g id="node42" class="node">
<title>Node41</title>
<polygon fill="none" stroke="#bfbfbf" points="2472.5,-6 2472.5,-25 2555.5,-25 2555.5,-6 2472.5,-6"/>
<text text-anchor="middle" x="2514" y="-13" font-family="Helvetica,sans-Serif" font-size="10.00" fill="#000000">initializer_list</text>
</g>
<!-- Node39&#45;&gt;Node41 -->
<g id="edge59" class="edge">
<title>Node39&#45;&gt;Node41</title>
<path fill="none" stroke="#191970" d="M2461.6875,-67.3906C2471.0959,-58.0581 2485.5807,-43.6902 2496.9249,-32.4374"/>
<polygon fill="#191970" stroke="#191970" points="2499.5411,-34.7722 2504.1759,-25.2449 2494.6114,-29.8024 2499.5411,-34.7722"/>
</g>
<!-- Node42 -->
<g id="node43" class="node">
<title>Node42</title>
<polygon fill="none" stroke="#bfbfbf" points="2573.5,-6 2573.5,-25 2646.5,-25 2646.5,-6 2573.5,-6"/>
<text text-anchor="middle" x="2610" y="-13" font-family="Helvetica,sans-Serif" font-size="10.00" fill="#000000">string_view</text>
</g>
<!-- Node39&#45;&gt;Node42 -->
<g id="edge60" class="edge">
<title>Node39&#45;&gt;Node42</title>
<path fill="none" stroke="#191970" d="M2476.6875,-67.3906C2503.3557,-57.0103 2546.0282,-40.4004 2575.8911,-28.7766"/>
<polygon fill="#191970" stroke="#191970" points="2577.4365,-31.9309 2585.4859,-25.0419 2574.8973,-25.4076 2577.4365,-31.9309"/>
</g>
<!-- Node44&#45;&gt;Node2 -->
<g id="edge68" class="edge">
<title>Node44&#45;&gt;Node2</title>
<path fill="none" stroke="#191970" d="M1563.0515,-195.9717C1508.8647,-183.9501 1415.6938,-163.2797 1357.0975,-150.2799"/>
<polygon fill="#191970" stroke="#191970" points="1357.81,-146.853 1347.2893,-148.1039 1356.2939,-153.6868 1357.81,-146.853"/>
</g>
<!-- Node44&#45;&gt;Node3 -->
<g id="edge69" class="edge">
<title>Node44&#45;&gt;Node3</title>
<path fill="none" stroke="#191970" d="M1624.9124,-195.9005C1647.163,-184.6067 1684.3122,-165.7506 1709.9259,-152.7497"/>
<polygon fill="#191970" stroke="#191970" points="1711.7898,-155.7288 1719.1227,-148.0817 1708.6215,-149.4868 1711.7898,-155.7288"/>
</g>
<!-- Node44&#45;&gt;Node4 -->
<g id="edge67" class="edge">
<title>Node44&#45;&gt;Node4</title>
<path fill="none" stroke="#191970" d="M1594.6742,-195.9256C1576.6101,-179.5299 1545.2325,-145.6581 1565,-123 1581.9922,-103.523 1733.7673,-89.1224 1827.4232,-81.9982"/>
<polygon fill="#191970" stroke="#191970" points="1827.7098,-85.4866 1837.4201,-81.2486 1827.1863,-78.5062 1827.7098,-85.4866"/>
</g>
<!-- Node44&#45;&gt;Node36 -->
<g id="edge70" class="edge">
<title>Node44&#45;&gt;Node36</title>
<path fill="none" stroke="#191970" d="M1605.1403,-195.9005C1604.2671,-186.149 1602.8889,-170.7597 1601.7794,-158.3695"/>
<polygon fill="#191970" stroke="#191970" points="1605.2361,-157.7296 1600.8581,-148.0817 1598.2641,-158.354 1605.2361,-157.7296"/>
</g>
<!-- Node45&#45;&gt;Node1 -->
<g id="edge73" class="edge">
<title>Node45&#45;&gt;Node1</title>
<path fill="none" stroke="#191970" d="M1664.0836,-313.3733C1693.1834,-304.0613 1737.4523,-289.8953 1769.403,-279.671"/>
<polygon fill="#191970" stroke="#191970" points="1770.8515,-282.8824 1779.309,-276.5011 1768.718,-276.2155 1770.8515,-282.8824"/>
</g>
<!-- Node45&#45;&gt;Node4 -->
<g id="edge74" class="edge">
<title>Node45&#45;&gt;Node4</title>
<path fill="none" stroke="#191970" d="M1617.3709,-313.3798C1592.2227,-297.7442 1545.4908,-264.1729 1527,-221 1509.1658,-179.36 1519.0364,-150.5422 1555,-123 1576.1786,-106.7807 1731.9179,-91.1106 1827.0889,-82.9077"/>
<polygon fill="#191970" stroke="#191970" points="1827.5755,-86.379 1837.2415,-82.0411 1826.9801,-79.4044 1827.5755,-86.379"/>
</g>
<!-- Node45&#45;&gt;Node44 -->
<g id="edge72" class="edge">
<title>Node45&#45;&gt;Node44</title>
<path fill="none" stroke="#191970" d="M1631.7086,-313.3845C1627.135,-294.1913 1616.7916,-250.786 1610.7103,-225.2663"/>
<polygon fill="#191970" stroke="#191970" points="1614.0458,-224.1646 1608.323,-215.2484 1607.2365,-225.7874 1614.0458,-224.1646"/>
</g>
<!-- Node46 -->
<g id="node47" class="node">
<title>Node46</title>
<g id="a_node47"><a xlink:href="../../d3/ddf/Output_8h.html" target="_top" xlink:title="Framework/Output.h">
<polygon fill="none" stroke="#000000" points="1266,-196 1266,-215 1382,-215 1382,-196 1266,-196"/>
<text text-anchor="middle" x="1324" y="-203" font-family="Helvetica,sans-Serif" font-size="10.00" fill="#000000">Framework/Output.h</text>
</a>
</g>
</g>
<!-- Node45&#45;&gt;Node46 -->
<g id="edge75" class="edge">
<title>Node45&#45;&gt;Node46</title>
<path fill="none" stroke="#191970" d="M1602.6107,-313.4828C1574.0709,-304.6416 1530.9042,-290.7979 1494,-277 1444.5943,-258.5279 1388.377,-234.2213 1354.5738,-219.2387"/>
<polygon fill="#191970" stroke="#191970" points="1355.806,-215.9562 1345.2468,-215.0889 1352.9605,-222.3517 1355.806,-215.9562"/>
</g>
<!-- Node47 -->
<g id="node48" class="node">
<title>Node47</title>
<polygon fill="none" stroke="#bfbfbf" points="1634,-257.5 1634,-276.5 1690,-276.5 1690,-257.5 1634,-257.5"/>
<text text-anchor="middle" x="1662" y="-264.5" font-family="Helvetica,sans-Serif" font-size="10.00" fill="#000000">optional</text>
</g>
<!-- Node45&#45;&gt;Node47 -->
<g id="edge79" class="edge">
<title>Node45&#45;&gt;Node47</title>
<path fill="none" stroke="#191970" d="M1638.8772,-313.2455C1642.6513,-305.6973 1647.9921,-295.0158 1652.5901,-285.8197"/>
<polygon fill="#191970" stroke="#191970" points="1655.837,-287.1522 1657.1787,-276.6427 1649.576,-284.0217 1655.837,-287.1522"/>
</g>
<!-- Node46&#45;&gt;Node2 -->
<g id="edge77" class="edge">
<title>Node46&#45;&gt;Node2</title>
<path fill="none" stroke="#191970" d="M1321.1345,-195.9005C1318.1939,-186.0495 1313.5358,-170.4451 1309.8183,-157.9912"/>
<polygon fill="#191970" stroke="#191970" points="1313.0744,-156.6627 1306.8602,-148.0817 1306.3669,-158.665 1313.0744,-156.6627"/>
</g>
<!-- Node46&#45;&gt;Node4 -->
<g id="edge76" class="edge">
<title>Node46&#45;&gt;Node4</title>
<path fill="none" stroke="#191970" d="M1298.946,-195.9166C1263.6833,-181.0998 1206.516,-151.3705 1233,-123 1253.0416,-101.5308 1657.8443,-85.2882 1827.3501,-79.4021"/>
<polygon fill="#191970" stroke="#191970" points="1827.5651,-82.8969 1837.4385,-79.0544 1827.3239,-75.9011 1827.5651,-82.8969"/>
</g>
<!-- Node46&#45;&gt;Node20 -->
<g id="edge78" class="edge">
<title>Node46&#45;&gt;Node20</title>
<path fill="none" stroke="#191970" d="M1339.4738,-195.9005C1357.358,-184.8057 1387.0062,-166.4128 1407.9138,-153.4424"/>
<polygon fill="#191970" stroke="#191970" points="1409.9024,-156.3275 1416.5549,-148.0817 1406.2122,-150.3792 1409.9024,-156.3275"/>
</g>
</g>
</svg>
