<?xml version="1.0" encoding="UTF-8" standalone="no"?>
<!DOCTYPE svg PUBLIC "-//W3C//DTD SVG 1.1//EN"
 "http://www.w3.org/Graphics/SVG/1.1/DTD/svg11.dtd">
<!-- Generated by graphviz version 2.40.1 (20161225.0304)
 -->
<!-- Title: /home/travis/build/AliceO2Group/AliceO2/Framework/Core/src/ExpressionHelpers.h Pages: 1 -->
<svg width="2413pt" height="486pt"
 viewBox="0.00 0.00 2413.00 486.00" xmlns="http://www.w3.org/2000/svg" xmlns:xlink="http://www.w3.org/1999/xlink">
<g id="graph0" class="graph" transform="scale(1 1) rotate(0) translate(4 482)">
<title>/home/travis/build/AliceO2Group/AliceO2/Framework/Core/src/ExpressionHelpers.h</title>
<!-- Node0 -->
<g id="node1" class="node">
<title>Node0</title>
<polygon fill="#bfbfbf" stroke="#000000" points="551.5,-425.5 551.5,-477.5 724.5,-477.5 724.5,-425.5 551.5,-425.5"/>
<text text-anchor="start" x="559.5" y="-465.5" font-family="Helvetica,sans-Serif" font-size="10.00" fill="#000000">/home/travis/build</text>
<text text-anchor="start" x="559.5" y="-454.5" font-family="Helvetica,sans-Serif" font-size="10.00" fill="#000000">/AliceO2Group/AliceO2</text>
<text text-anchor="start" x="559.5" y="-443.5" font-family="Helvetica,sans-Serif" font-size="10.00" fill="#000000">/Framework/Core/src/Expression</text>
<text text-anchor="middle" x="638" y="-432.5" font-family="Helvetica,sans-Serif" font-size="10.00" fill="#000000">Helpers.h</text>
</g>
<!-- Node1 -->
<g id="node2" class="node">
<title>Node1</title>
<g id="a_node2"><a xlink:href="../../d0/d91/Expressions_8h.html" target="_top" xlink:title="Framework/Expressions.h">
<polygon fill="none" stroke="#000000" points="1161.5,-369.5 1161.5,-388.5 1302.5,-388.5 1302.5,-369.5 1161.5,-369.5"/>
<text text-anchor="middle" x="1232" y="-376.5" font-family="Helvetica,sans-Serif" font-size="10.00" fill="#000000">Framework/Expressions.h</text>
</a>
</g>
</g>
<!-- Node0&#45;&gt;Node1 -->
<g id="edge1" class="edge">
<title>Node0&#45;&gt;Node1</title>
<path fill="none" stroke="#191970" d="M724.6906,-440.9191C839.2892,-426.9319 1039.6851,-402.4728 1151.2339,-388.8578"/>
<polygon fill="#191970" stroke="#191970" points="1151.9137,-392.3009 1161.416,-387.6151 1151.0656,-385.3525 1151.9137,-392.3009"/>
</g>
<!-- Node17 -->
<g id="node18" class="node">
<title>Node17</title>
<polygon fill="none" stroke="#bfbfbf" points="54.5,-.5 54.5,-19.5 103.5,-19.5 103.5,-.5 54.5,-.5"/>
<text text-anchor="middle" x="79" y="-7.5" font-family="Helvetica,sans-Serif" font-size="10.00" fill="#000000">iosfwd</text>
</g>
<!-- Node0&#45;&gt;Node17 -->
<g id="edge59" class="edge">
<title>Node0&#45;&gt;Node17</title>
<path fill="none" stroke="#191970" d="M551.2925,-442.9673C376.8515,-424.6275 0,-378.5761 0,-323 0,-323 0,-323 0,-127.5 0,-85.2816 35.5583,-46.8244 58.9628,-26.0844"/>
<polygon fill="#191970" stroke="#191970" points="61.3276,-28.6674 66.6563,-19.5101 56.7801,-23.3458 61.3276,-28.6674"/>
</g>
<!-- Node25 -->
<g id="node26" class="node">
<title>Node25</title>
<polygon fill="none" stroke="#bfbfbf" points="194.5,-118 194.5,-137 241.5,-137 241.5,-118 194.5,-118"/>
<text text-anchor="middle" x="218" y="-125" font-family="Helvetica,sans-Serif" font-size="10.00" fill="#000000">vector</text>
</g>
<!-- Node0&#45;&gt;Node25 -->
<g id="edge58" class="edge">
<title>Node0&#45;&gt;Node25</title>
<path fill="none" stroke="#191970" d="M551.2472,-443.8968C420.8895,-430.4736 184.2495,-397.6674 133,-333 85.0904,-272.5469 163.7311,-181.2893 200.5759,-144.1284"/>
<polygon fill="#191970" stroke="#191970" points="203.0873,-146.5673 207.7432,-137.0503 198.1686,-141.5866 203.0873,-146.5673"/>
</g>
<!-- Node43 -->
<g id="node44" class="node">
<title>Node43</title>
<polygon fill="none" stroke="#bfbfbf" points="1320.5,-369.5 1320.5,-388.5 1399.5,-388.5 1399.5,-369.5 1320.5,-369.5"/>
<text text-anchor="middle" x="1360" y="-376.5" font-family="Helvetica,sans-Serif" font-size="10.00" fill="#000000">fmt/format.h</text>
</g>
<!-- Node0&#45;&gt;Node43 -->
<g id="edge60" class="edge">
<title>Node0&#45;&gt;Node43</title>
<path fill="none" stroke="#191970" d="M724.6781,-446.4739C851.2425,-438.4625 1094.1304,-420.5463 1310.5265,-388.9164"/>
<polygon fill="#191970" stroke="#191970" points="1311.1023,-392.3695 1320.4849,-387.4483 1310.0813,-385.4443 1311.1023,-392.3695"/>
</g>
<!-- Node2 -->
<g id="node3" class="node">
<title>Node2</title>
<g id="a_node3"><a xlink:href="../../dd/dc2/BasicOps_8h.html" target="_top" xlink:title="Framework/BasicOps.h">
<polygon fill="none" stroke="#000000" points="1671,-313.5 1671,-332.5 1799,-332.5 1799,-313.5 1671,-313.5"/>
<text text-anchor="middle" x="1735" y="-320.5" font-family="Helvetica,sans-Serif" font-size="10.00" fill="#000000">Framework/BasicOps.h</text>
</a>
</g>
</g>
<!-- Node1&#45;&gt;Node2 -->
<g id="edge2" class="edge">
<title>Node1&#45;&gt;Node2</title>
<path fill="none" stroke="#191970" d="M1302.6253,-369.9769C1305.4532,-369.642 1308.2531,-369.3151 1311,-369 1463.1715,-351.5454 1504.0555,-351.4687 1660.8383,-332.983"/>
<polygon fill="#191970" stroke="#191970" points="1661.3221,-336.4502 1670.8406,-331.7973 1660.4981,-329.4989 1661.3221,-336.4502"/>
</g>
<!-- Node3 -->
<g id="node4" class="node">
<title>Node3</title>
<g id="a_node4"><a xlink:href="../../d9/de8/CompilerBuiltins_8h.html" target="_top" xlink:title="Framework/CompilerBuiltins.h">
<polygon fill="none" stroke="#000000" points="1817,-313.5 1817,-332.5 1981,-332.5 1981,-313.5 1817,-313.5"/>
<text text-anchor="middle" x="1899" y="-320.5" font-family="Helvetica,sans-Serif" font-size="10.00" fill="#000000">Framework/CompilerBuiltins.h</text>
</a>
</g>
</g>
<!-- Node1&#45;&gt;Node3 -->
<g id="edge3" class="edge">
<title>Node1&#45;&gt;Node3</title>
<path fill="none" stroke="#191970" d="M1302.614,-369.8711C1305.445,-369.5655 1308.2486,-369.2736 1311,-369 1528.1525,-347.4072 1585.7685,-352.929 1806.7108,-333.0873"/>
<polygon fill="#191970" stroke="#191970" points="1807.0302,-336.5728 1816.6739,-332.1854 1806.399,-329.6013 1807.0302,-336.5728"/>
</g>
<!-- Node4 -->
<g id="node5" class="node">
<title>Node4</title>
<g id="a_node5"><a xlink:href="../../dd/dce/Pack_8h.html" target="_top" xlink:title="Framework/Pack.h">
<polygon fill="none" stroke="#000000" points="2195.5,-313.5 2195.5,-332.5 2300.5,-332.5 2300.5,-313.5 2195.5,-313.5"/>
<text text-anchor="middle" x="2248" y="-320.5" font-family="Helvetica,sans-Serif" font-size="10.00" fill="#000000">Framework/Pack.h</text>
</a>
</g>
</g>
<!-- Node1&#45;&gt;Node4 -->
<g id="edge4" class="edge">
<title>Node1&#45;&gt;Node4</title>
<path fill="none" stroke="#191970" d="M1302.604,-369.7616C1305.4377,-369.4863 1308.2447,-369.2306 1311,-369 1695.547,-336.8092 1797.0186,-371.4548 2185.1901,-332.9502"/>
<polygon fill="#191970" stroke="#191970" points="2185.6896,-336.4178 2195.2908,-331.9383 2184.9917,-329.4527 2185.6896,-336.4178"/>
</g>
<!-- Node8 -->
<g id="node9" class="node">
<title>Node8</title>
<g id="a_node9"><a xlink:href="../../d1/d00/CheckTypes_8h.html" target="_top" xlink:title="Framework/CheckTypes.h">
<polygon fill="none" stroke="#000000" points="2037,-313.5 2037,-332.5 2177,-332.5 2177,-313.5 2037,-313.5"/>
<text text-anchor="middle" x="2107" y="-320.5" font-family="Helvetica,sans-Serif" font-size="10.00" fill="#000000">Framework/CheckTypes.h</text>
</a>
</g>
</g>
<!-- Node1&#45;&gt;Node8 -->
<g id="edge8" class="edge">
<title>Node1&#45;&gt;Node8</title>
<path fill="none" stroke="#191970" d="M1302.6068,-369.7946C1305.4398,-369.5102 1308.2458,-369.2436 1311,-369 1626.6166,-341.0852 1707.282,-359.7432 2023,-333 2024.2759,-332.8919 2025.5623,-332.7796 2026.8571,-332.6635"/>
<polygon fill="#191970" stroke="#191970" points="2027.2873,-336.1384 2036.91,-331.7051 2026.6229,-329.17 2027.2873,-336.1384"/>
</g>
<!-- Node9 -->
<g id="node10" class="node">
<title>Node9</title>
<g id="a_node10"><a xlink:href="../../d9/dff/Configurable_8h.html" target="_top" xlink:title="Framework/Configurable.h">
<polygon fill="none" stroke="#000000" points="66,-56.5 66,-75.5 210,-75.5 210,-56.5 66,-56.5"/>
<text text-anchor="middle" x="138" y="-63.5" font-family="Helvetica,sans-Serif" font-size="10.00" fill="#000000">Framework/Configurable.h</text>
</a>
</g>
</g>
<!-- Node1&#45;&gt;Node9 -->
<g id="edge9" class="edge">
<title>Node1&#45;&gt;Node9</title>
<path fill="none" stroke="#191970" d="M1161.219,-377.6508C925.4217,-372.9457 178.8416,-356.2743 133,-333 96.763,-314.6021 76,-302.1399 76,-261.5 76,-261.5 76,-261.5 76,-194.5 76,-151.2308 104.868,-107.1806 123.2073,-83.5619"/>
<polygon fill="#191970" stroke="#191970" points="126.1054,-85.5428 129.6384,-75.5544 120.6477,-81.1595 126.1054,-85.5428"/>
</g>
<!-- Node10 -->
<g id="node11" class="node">
<title>Node10</title>
<polygon fill="none" stroke="#bfbfbf" points="237,-.5 237,-19.5 281,-19.5 281,-.5 237,-.5"/>
<text text-anchor="middle" x="259" y="-7.5" font-family="Helvetica,sans-Serif" font-size="10.00" fill="#000000">string</text>
</g>
<!-- Node1&#45;&gt;Node10 -->
<g id="edge56" class="edge">
<title>Node1&#45;&gt;Node10</title>
<path fill="none" stroke="#191970" d="M1161.4408,-377.7235C920.8248,-373.1647 144.723,-356.6859 97,-333 60.0955,-314.6836 38,-302.6999 38,-261.5 38,-261.5 38,-261.5 38,-127.5 38,-94.6194 33.3371,-78.8299 57,-56 80.9841,-32.8602 176.0983,-19.1168 226.792,-13.2916"/>
<polygon fill="#191970" stroke="#191970" points="227.3418,-16.7521 236.8937,-12.1682 226.5681,-9.795 227.3418,-16.7521"/>
</g>
<!-- Node11 -->
<g id="node12" class="node">
<title>Node11</title>
<g id="a_node12"><a xlink:href="../../de/d56/Variant_8h.html" target="_top" xlink:title="Framework/Variant.h">
<polygon fill="none" stroke="#000000" points="410.5,-56.5 410.5,-75.5 527.5,-75.5 527.5,-56.5 410.5,-56.5"/>
<text text-anchor="middle" x="469" y="-63.5" font-family="Helvetica,sans-Serif" font-size="10.00" fill="#000000">Framework/Variant.h</text>
</a>
</g>
</g>
<!-- Node1&#45;&gt;Node11 -->
<g id="edge11" class="edge">
<title>Node1&#45;&gt;Node11</title>
<path fill="none" stroke="#191970" d="M1302.6025,-369.7437C1305.4367,-369.4733 1308.2441,-369.2236 1311,-369 1366.3541,-364.5084 2271.4437,-372.9708 2310,-333 2336.8446,-305.1706 2335.9771,-274.6409 2310,-246 2279.5358,-212.4119 869.0368,-97.92 538.0094,-71.4796"/>
<polygon fill="#191970" stroke="#191970" points="537.8575,-67.9564 527.6107,-70.6496 537.3005,-74.9342 537.8575,-67.9564"/>
</g>
<!-- Node12 -->
<g id="node13" class="node">
<title>Node12</title>
<g id="a_node13"><a xlink:href="../../d1/d76/RuntimeError_8h.html" target="_top" xlink:title="Framework/RuntimeError.h">
<polygon fill="none" stroke="#000000" points="2218,-.5 2218,-19.5 2364,-19.5 2364,-.5 2218,-.5"/>
<text text-anchor="middle" x="2291" y="-7.5" font-family="Helvetica,sans-Serif" font-size="10.00" fill="#000000">Framework/RuntimeError.h</text>
</a>
</g>
</g>
<!-- Node1&#45;&gt;Node12 -->
<g id="edge45" class="edge">
<title>Node1&#45;&gt;Node12</title>
<path fill="none" stroke="#191970" d="M1302.602,-369.7373C1305.4363,-369.4687 1308.2439,-369.2211 1311,-369 1369.2913,-364.3232 2312.7507,-362.9126 2363,-333 2394.6684,-314.1483 2405,-298.3547 2405,-261.5 2405,-261.5 2405,-261.5 2405,-127.5 2405,-79.0473 2354.4485,-43.0212 2320.6708,-24.3573"/>
<polygon fill="#191970" stroke="#191970" points="2322.1172,-21.1624 2311.6445,-19.5577 2318.8307,-27.343 2322.1172,-21.1624"/>
</g>
<!-- Node20 -->
<g id="node21" class="node">
<title>Node20</title>
<g id="a_node21"><a xlink:href="../../d4/d2b/InitContext_8h.html" target="_top" xlink:title="Framework/InitContext.h">
<polygon fill="none" stroke="#000000" points="342.5,-313.5 342.5,-332.5 479.5,-332.5 479.5,-313.5 342.5,-313.5"/>
<text text-anchor="middle" x="411" y="-320.5" font-family="Helvetica,sans-Serif" font-size="10.00" fill="#000000">Framework/InitContext.h</text>
</a>
</g>
</g>
<!-- Node1&#45;&gt;Node20 -->
<g id="edge21" class="edge">
<title>Node1&#45;&gt;Node20</title>
<path fill="none" stroke="#191970" d="M1161.3517,-376.22C1030.7644,-370.7336 742.5875,-357.0025 489.9279,-333.1334"/>
<polygon fill="#191970" stroke="#191970" points="490.1077,-329.6348 479.821,-332.1713 489.4443,-336.6033 490.1077,-329.6348"/>
</g>
<!-- Node21 -->
<g id="node22" class="node">
<title>Node21</title>
<g id="a_node22"><a xlink:href="../../de/dc6/ConfigParamRegistry_8h.html" target="_top" xlink:title="Framework/ConfigParamRegistry.h">
<polygon fill="none" stroke="#000000" points="142,-313.5 142,-332.5 324,-332.5 324,-313.5 142,-313.5"/>
<text text-anchor="middle" x="233" y="-320.5" font-family="Helvetica,sans-Serif" font-size="10.00" fill="#000000">Framework/ConfigParamRegistry.h</text>
</a>
</g>
</g>
<!-- Node1&#45;&gt;Node21 -->
<g id="edge22" class="edge">
<title>Node1&#45;&gt;Node21</title>
<path fill="none" stroke="#191970" d="M1161.4121,-376.5547C1011.2997,-371.1009 649.0589,-356.5948 334.2405,-333.0593"/>
<polygon fill="#191970" stroke="#191970" points="334.2362,-329.5491 324.0019,-332.2894 333.7113,-336.5294 334.2362,-329.5491"/>
</g>
<!-- Node28 -->
<g id="node29" class="node">
<title>Node28</title>
<polygon fill="none" stroke="#bfbfbf" points="1310,-252 1310,-271 1368,-271 1368,-252 1310,-252"/>
<text text-anchor="middle" x="1339" y="-259" font-family="Helvetica,sans-Serif" font-size="10.00" fill="#000000">memory</text>
</g>
<!-- Node1&#45;&gt;Node28 -->
<g id="edge57" class="edge">
<title>Node1&#45;&gt;Node28</title>
<path fill="none" stroke="#191970" d="M1302.6076,-369.8032C1305.4403,-369.5164 1308.2461,-369.247 1311,-369 1348.6242,-365.6258 1964.0056,-360.4091 1990,-333 1996.1167,-326.5504 1996.0325,-319.5285 1990,-313 1969.1206,-290.4036 1515.4901,-269.0958 1378.0907,-263.1412"/>
<polygon fill="#191970" stroke="#191970" points="1378.1505,-259.6406 1368.0092,-262.7073 1377.8495,-266.6341 1378.1505,-259.6406"/>
</g>
<!-- Node30 -->
<g id="node31" class="node">
<title>Node30</title>
<g id="a_node31"><a xlink:href="../../da/d88/RootConfigParamHelpers_8h.html" target="_top" xlink:title="Framework/RootConfigParam\lHelpers.h">
<polygon fill="none" stroke="#000000" points="2167.5,-179.5 2167.5,-209.5 2324.5,-209.5 2324.5,-179.5 2167.5,-179.5"/>
<text text-anchor="start" x="2175.5" y="-197.5" font-family="Helvetica,sans-Serif" font-size="10.00" fill="#000000">Framework/RootConfigParam</text>
<text text-anchor="middle" x="2246" y="-186.5" font-family="Helvetica,sans-Serif" font-size="10.00" fill="#000000">Helpers.h</text>
</a>
</g>
</g>
<!-- Node1&#45;&gt;Node30 -->
<g id="edge38" class="edge">
<title>Node1&#45;&gt;Node30</title>
<path fill="none" stroke="#191970" d="M1302.6022,-369.7397C1305.4364,-369.4704 1308.244,-369.222 1311,-369 1368.1829,-364.3931 2303.1479,-374.2665 2343,-333 2369.8606,-305.186 2362.9249,-279.1377 2343,-246 2334.5789,-231.9946 2320.9233,-221.5945 2306.4824,-213.9554"/>
<polygon fill="#191970" stroke="#191970" points="2307.9523,-210.7783 2297.4291,-209.5483 2304.8884,-217.0722 2307.9523,-210.7783"/>
</g>
<!-- Node33 -->
<g id="node34" class="node">
<title>Node33</title>
<polygon fill="none" stroke="#bfbfbf" points="497.5,-313.5 497.5,-332.5 598.5,-332.5 598.5,-313.5 497.5,-313.5"/>
<text text-anchor="middle" x="548" y="-320.5" font-family="Helvetica,sans-Serif" font-size="10.00" fill="#000000">arrow/type_fwd.h</text>
</g>
<!-- Node1&#45;&gt;Node33 -->
<g id="edge46" class="edge">
<title>Node1&#45;&gt;Node33</title>
<path fill="none" stroke="#191970" d="M1161.1439,-375.8926C1047.0589,-370.4226 815.4189,-357.3922 608.8218,-332.9918"/>
<polygon fill="#191970" stroke="#191970" points="609.0362,-329.4927 598.6921,-331.7839 608.2073,-336.4435 609.0362,-329.4927"/>
</g>
<!-- Node34 -->
<g id="node35" class="node">
<title>Node34</title>
<polygon fill="none" stroke="#bfbfbf" points="617,-313.5 617,-332.5 763,-332.5 763,-313.5 617,-313.5"/>
<text text-anchor="middle" x="690" y="-320.5" font-family="Helvetica,sans-Serif" font-size="10.00" fill="#000000">gandiva/gandiva_aliases.h</text>
</g>
<!-- Node1&#45;&gt;Node34 -->
<g id="edge47" class="edge">
<title>Node1&#45;&gt;Node34</title>
<path fill="none" stroke="#191970" d="M1161.4197,-372.4212C1073.2087,-364.0916 917.3238,-349.0183 773.632,-333.1628"/>
<polygon fill="#191970" stroke="#191970" points="773.6328,-329.6416 763.3084,-332.0199 772.8625,-336.5991 773.6328,-329.6416"/>
</g>
<!-- Node35 -->
<g id="node36" class="node">
<title>Node35</title>
<polygon fill="none" stroke="#bfbfbf" points="781,-313.5 781,-332.5 859,-332.5 859,-313.5 781,-313.5"/>
<text text-anchor="middle" x="820" y="-320.5" font-family="Helvetica,sans-Serif" font-size="10.00" fill="#000000">arrow/type.h</text>
</g>
<!-- Node1&#45;&gt;Node35 -->
<g id="edge48" class="edge">
<title>Node1&#45;&gt;Node35</title>
<path fill="none" stroke="#191970" d="M1161.2959,-371.7533C1090.0009,-364.0632 976.5866,-350.7871 869.2757,-333.11"/>
<polygon fill="#191970" stroke="#191970" points="869.6835,-329.6299 859.2448,-331.4417 868.535,-336.535 869.6835,-329.6299"/>
</g>
<!-- Node36 -->
<g id="node37" class="node">
<title>Node36</title>
<polygon fill="none" stroke="#bfbfbf" points="877.5,-313.5 877.5,-332.5 972.5,-332.5 972.5,-313.5 877.5,-313.5"/>
<text text-anchor="middle" x="925" y="-320.5" font-family="Helvetica,sans-Serif" font-size="10.00" fill="#000000">gandiva/arrow.h</text>
</g>
<!-- Node1&#45;&gt;Node36 -->
<g id="edge49" class="edge">
<title>Node1&#45;&gt;Node36</title>
<path fill="none" stroke="#191970" d="M1179.5736,-369.4369C1124.8063,-359.4468 1039.1373,-343.8198 982.536,-333.4952"/>
<polygon fill="#191970" stroke="#191970" points="983.1338,-330.0465 972.6681,-331.6951 981.8776,-336.9329 983.1338,-330.0465"/>
</g>
<!-- Node37 -->
<g id="node38" class="node">
<title>Node37</title>
<polygon fill="none" stroke="#bfbfbf" points="990.5,-313.5 990.5,-332.5 1071.5,-332.5 1071.5,-313.5 990.5,-313.5"/>
<text text-anchor="middle" x="1031" y="-320.5" font-family="Helvetica,sans-Serif" font-size="10.00" fill="#000000">arrow/table.h</text>
</g>
<!-- Node1&#45;&gt;Node37 -->
<g id="edge50" class="edge">
<title>Node1&#45;&gt;Node37</title>
<path fill="none" stroke="#191970" d="M1197.4469,-369.3733C1163.5896,-359.9404 1111.854,-345.5265 1075.0574,-335.2747"/>
<polygon fill="#191970" stroke="#191970" points="1075.6747,-331.8135 1065.1022,-332.5011 1073.796,-338.5566 1075.6747,-331.8135"/>
</g>
<!-- Node38 -->
<g id="node39" class="node">
<title>Node38</title>
<polygon fill="none" stroke="#bfbfbf" points="1089.5,-313.5 1089.5,-332.5 1236.5,-332.5 1236.5,-313.5 1089.5,-313.5"/>
<text text-anchor="middle" x="1163" y="-320.5" font-family="Helvetica,sans-Serif" font-size="10.00" fill="#000000">gandiva/selection_vector.h</text>
</g>
<!-- Node1&#45;&gt;Node38 -->
<g id="edge51" class="edge">
<title>Node1&#45;&gt;Node38</title>
<path fill="none" stroke="#191970" d="M1219.9811,-369.2455C1209.7902,-360.9746 1194.9638,-348.9416 1182.9893,-339.2232"/>
<polygon fill="#191970" stroke="#191970" points="1184.8514,-336.2268 1174.8812,-332.6427 1180.4402,-341.662 1184.8514,-336.2268"/>
</g>
<!-- Node39 -->
<g id="node40" class="node">
<title>Node39</title>
<polygon fill="none" stroke="#bfbfbf" points="1255,-313.5 1255,-332.5 1347,-332.5 1347,-313.5 1255,-313.5"/>
<text text-anchor="middle" x="1301" y="-320.5" font-family="Helvetica,sans-Serif" font-size="10.00" fill="#000000">gandiva/node.h</text>
</g>
<!-- Node1&#45;&gt;Node39 -->
<g id="edge52" class="edge">
<title>Node1&#45;&gt;Node39</title>
<path fill="none" stroke="#191970" d="M1244.0189,-369.2455C1254.2098,-360.9746 1269.0362,-348.9416 1281.0107,-339.2232"/>
<polygon fill="#191970" stroke="#191970" points="1283.5598,-341.662 1289.1188,-332.6427 1279.1486,-336.2268 1283.5598,-341.662"/>
</g>
<!-- Node40 -->
<g id="node41" class="node">
<title>Node40</title>
<polygon fill="none" stroke="#bfbfbf" points="1365.5,-313.5 1365.5,-332.5 1454.5,-332.5 1454.5,-313.5 1365.5,-313.5"/>
<text text-anchor="middle" x="1410" y="-320.5" font-family="Helvetica,sans-Serif" font-size="10.00" fill="#000000">gandiva/filter.h</text>
</g>
<!-- Node1&#45;&gt;Node40 -->
<g id="edge53" class="edge">
<title>Node1&#45;&gt;Node40</title>
<path fill="none" stroke="#191970" d="M1262.5993,-369.3733C1292.3261,-360.021 1337.6159,-345.7725 1370.1456,-335.5385"/>
<polygon fill="#191970" stroke="#191970" points="1371.3113,-338.8409 1379.8,-332.5011 1369.2105,-332.1636 1371.3113,-338.8409"/>
</g>
<!-- Node41 -->
<g id="node42" class="node">
<title>Node41</title>
<polygon fill="none" stroke="#bfbfbf" points="1473,-313.5 1473,-332.5 1583,-332.5 1583,-313.5 1473,-313.5"/>
<text text-anchor="middle" x="1528" y="-320.5" font-family="Helvetica,sans-Serif" font-size="10.00" fill="#000000">gandiva/projector.h</text>
</g>
<!-- Node1&#45;&gt;Node41 -->
<g id="edge54" class="edge">
<title>Node1&#45;&gt;Node41</title>
<path fill="none" stroke="#191970" d="M1282.5479,-369.4369C1333.8445,-359.7321 1413.2579,-344.708 1467.7818,-334.3926"/>
<polygon fill="#191970" stroke="#191970" points="1468.4855,-337.8217 1477.6606,-332.5237 1467.1842,-330.9437 1468.4855,-337.8217"/>
</g>
<!-- Node42 -->
<g id="node43" class="node">
<title>Node42</title>
<polygon fill="none" stroke="#bfbfbf" points="1601.5,-313.5 1601.5,-332.5 1652.5,-332.5 1652.5,-313.5 1601.5,-313.5"/>
<text text-anchor="middle" x="1627" y="-320.5" font-family="Helvetica,sans-Serif" font-size="10.00" fill="#000000">variant</text>
</g>
<!-- Node1&#45;&gt;Node42 -->
<g id="edge55" class="edge">
<title>Node1&#45;&gt;Node42</title>
<path fill="none" stroke="#191970" d="M1302.6891,-370.0348C1395.1676,-358.2978 1549.6081,-338.6654 1591.4844,-332.4234"/>
<polygon fill="#191970" stroke="#191970" points="1592.2007,-335.8526 1601.4963,-330.769 1591.0594,-328.9462 1592.2007,-335.8526"/>
</g>
<!-- Node5 -->
<g id="node6" class="node">
<title>Node5</title>
<polygon fill="none" stroke="#bfbfbf" points="2247.5,-252 2247.5,-271 2300.5,-271 2300.5,-252 2247.5,-252"/>
<text text-anchor="middle" x="2274" y="-259" font-family="Helvetica,sans-Serif" font-size="10.00" fill="#000000">cstddef</text>
</g>
<!-- Node4&#45;&gt;Node5 -->
<g id="edge5" class="edge">
<title>Node4&#45;&gt;Node5</title>
<path fill="none" stroke="#191970" d="M2252.0625,-313.3906C2255.7424,-304.6862 2261.2742,-291.6015 2265.862,-280.7494"/>
<polygon fill="#191970" stroke="#191970" points="2269.21,-281.8185 2269.8802,-271.2449 2262.7625,-279.0927 2269.21,-281.8185"/>
</g>
<!-- Node6 -->
<g id="node7" class="node">
<title>Node6</title>
<polygon fill="none" stroke="#bfbfbf" points="2119.5,-252 2119.5,-271 2164.5,-271 2164.5,-252 2119.5,-252"/>
<text text-anchor="middle" x="2142" y="-259" font-family="Helvetica,sans-Serif" font-size="10.00" fill="#000000">utility</text>
</g>
<!-- Node4&#45;&gt;Node6 -->
<g id="edge6" class="edge">
<title>Node4&#45;&gt;Node6</title>
<path fill="none" stroke="#191970" d="M2231.4375,-313.3906C2214.2463,-303.4165 2187.1418,-287.6908 2167.2734,-276.1633"/>
<polygon fill="#191970" stroke="#191970" points="2168.8523,-273.033 2158.4462,-271.0419 2165.3394,-279.0877 2168.8523,-273.033"/>
</g>
<!-- Node7 -->
<g id="node8" class="node">
<title>Node7</title>
<polygon fill="none" stroke="#bfbfbf" points="2183,-252 2183,-271 2229,-271 2229,-252 2183,-252"/>
<text text-anchor="middle" x="2206" y="-259" font-family="Helvetica,sans-Serif" font-size="10.00" fill="#000000">cstdio</text>
</g>
<!-- Node4&#45;&gt;Node7 -->
<g id="edge7" class="edge">
<title>Node4&#45;&gt;Node7</title>
<path fill="none" stroke="#191970" d="M2241.4375,-313.3906C2235.3092,-304.417 2226.0015,-290.7879 2218.4628,-279.7491"/>
<polygon fill="#191970" stroke="#191970" points="2221.185,-277.529 2212.655,-271.2449 2215.4044,-281.4768 2221.185,-277.529"/>
</g>
<!-- Node9&#45;&gt;Node10 -->
<g id="edge10" class="edge">
<title>Node9&#45;&gt;Node10</title>
<path fill="none" stroke="#191970" d="M158.8006,-56.3733C178.2243,-47.3838 207.4224,-33.8706 229.2964,-23.7471"/>
<polygon fill="#191970" stroke="#191970" points="230.8656,-26.8776 238.4708,-19.5011 227.9255,-20.5249 230.8656,-26.8776"/>
</g>
<!-- Node11&#45;&gt;Node10 -->
<g id="edge20" class="edge">
<title>Node11&#45;&gt;Node10</title>
<path fill="none" stroke="#191970" d="M432.8997,-56.3733C393.0243,-45.7398 329.4131,-28.7768 291.1805,-18.5815"/>
<polygon fill="#191970" stroke="#191970" points="291.675,-15.0911 281.1108,-15.8962 289.8713,-21.8547 291.675,-15.0911"/>
</g>
<!-- Node11&#45;&gt;Node12 -->
<g id="edge12" class="edge">
<title>Node11&#45;&gt;Node12</title>
<path fill="none" stroke="#191970" d="M527.5576,-64.2002C794.2111,-56.0045 1894.0935,-22.1991 2207.3795,-12.5701"/>
<polygon fill="#191970" stroke="#191970" points="2207.8599,-16.0571 2217.7477,-12.2514 2207.6448,-9.0604 2207.8599,-16.0571"/>
</g>
<!-- Node13 -->
<g id="node14" class="node">
<title>Node13</title>
<polygon fill="none" stroke="#bfbfbf" points="1416.5,-.5 1416.5,-19.5 1485.5,-19.5 1485.5,-.5 1416.5,-.5"/>
<text text-anchor="middle" x="1451" y="-7.5" font-family="Helvetica,sans-Serif" font-size="10.00" fill="#000000">type_traits</text>
</g>
<!-- Node11&#45;&gt;Node13 -->
<g id="edge13" class="edge">
<title>Node11&#45;&gt;Node13</title>
<path fill="none" stroke="#191970" d="M527.8519,-62.6439C707.4465,-52.4022 1245.9379,-21.694 1405.7868,-12.5783"/>
<polygon fill="#191970" stroke="#191970" points="1406.4122,-16.0485 1416.1967,-11.9847 1406.0136,-9.0598 1406.4122,-16.0485"/>
</g>
<!-- Node14 -->
<g id="node15" class="node">
<title>Node14</title>
<polygon fill="none" stroke="#bfbfbf" points="308,-.5 308,-19.5 358,-19.5 358,-.5 308,-.5"/>
<text text-anchor="middle" x="333" y="-7.5" font-family="Helvetica,sans-Serif" font-size="10.00" fill="#000000">cstring</text>
</g>
<!-- Node11&#45;&gt;Node14 -->
<g id="edge14" class="edge">
<title>Node11&#45;&gt;Node14</title>
<path fill="none" stroke="#191970" d="M445.6208,-56.3733C423.4955,-47.2629 390.0866,-33.5062 365.3981,-23.3404"/>
<polygon fill="#191970" stroke="#191970" points="366.6536,-20.0723 356.0742,-19.5011 363.9883,-26.5451 366.6536,-20.0723"/>
</g>
<!-- Node15 -->
<g id="node16" class="node">
<title>Node15</title>
<polygon fill="none" stroke="#bfbfbf" points="376,-.5 376,-19.5 426,-19.5 426,-.5 376,-.5"/>
<text text-anchor="middle" x="401" y="-7.5" font-family="Helvetica,sans-Serif" font-size="10.00" fill="#000000">cstdint</text>
</g>
<!-- Node11&#45;&gt;Node15 -->
<g id="edge15" class="edge">
<title>Node11&#45;&gt;Node15</title>
<path fill="none" stroke="#191970" d="M457.1553,-56.2455C447.112,-47.9746 432.5005,-35.9416 420.6996,-26.2232"/>
<polygon fill="#191970" stroke="#191970" points="422.6533,-23.298 412.709,-19.6427 418.2033,-28.7015 422.6533,-23.298"/>
</g>
<!-- Node16 -->
<g id="node17" class="node">
<title>Node16</title>
<polygon fill="none" stroke="#bfbfbf" points="444.5,-.5 444.5,-19.5 493.5,-19.5 493.5,-.5 444.5,-.5"/>
<text text-anchor="middle" x="469" y="-7.5" font-family="Helvetica,sans-Serif" font-size="10.00" fill="#000000">cstdlib</text>
</g>
<!-- Node11&#45;&gt;Node16 -->
<g id="edge16" class="edge">
<title>Node11&#45;&gt;Node16</title>
<path fill="none" stroke="#191970" d="M469,-56.2455C469,-48.9382 469,-38.6944 469,-29.7046"/>
<polygon fill="#191970" stroke="#191970" points="472.5001,-29.6426 469,-19.6427 465.5001,-29.6427 472.5001,-29.6426"/>
</g>
<!-- Node11&#45;&gt;Node17 -->
<g id="edge17" class="edge">
<title>Node11&#45;&gt;Node17</title>
<path fill="none" stroke="#191970" d="M410.1908,-57.5556C327.78,-45.7223 180.5495,-24.5815 113.7114,-14.9842"/>
<polygon fill="#191970" stroke="#191970" points="114.0927,-11.5031 103.6968,-13.5462 113.0977,-18.4321 114.0927,-11.5031"/>
</g>
<!-- Node18 -->
<g id="node19" class="node">
<title>Node18</title>
<polygon fill="none" stroke="#bfbfbf" points="511.5,-.5 511.5,-19.5 594.5,-19.5 594.5,-.5 511.5,-.5"/>
<text text-anchor="middle" x="553" y="-7.5" font-family="Helvetica,sans-Serif" font-size="10.00" fill="#000000">initializer_list</text>
</g>
<!-- Node11&#45;&gt;Node18 -->
<g id="edge18" class="edge">
<title>Node11&#45;&gt;Node18</title>
<path fill="none" stroke="#191970" d="M483.6317,-56.2455C496.3994,-47.7337 515.1438,-35.2375 529.9299,-25.3801"/>
<polygon fill="#191970" stroke="#191970" points="532.1569,-28.1019 538.536,-19.6427 528.274,-22.2775 532.1569,-28.1019"/>
</g>
<!-- Node19 -->
<g id="node20" class="node">
<title>Node19</title>
<polygon fill="none" stroke="#bfbfbf" points="612.5,-.5 612.5,-19.5 685.5,-19.5 685.5,-.5 612.5,-.5"/>
<text text-anchor="middle" x="649" y="-7.5" font-family="Helvetica,sans-Serif" font-size="10.00" fill="#000000">string_view</text>
</g>
<!-- Node11&#45;&gt;Node19 -->
<g id="edge19" class="edge">
<title>Node11&#45;&gt;Node19</title>
<path fill="none" stroke="#191970" d="M499.9431,-56.3733C530.0039,-47.021 575.8026,-32.7725 608.6978,-22.5385"/>
<polygon fill="#191970" stroke="#191970" points="609.9519,-25.8139 618.4607,-19.5011 607.8723,-19.1299 609.9519,-25.8139"/>
</g>
<!-- Node21&#45;&gt;Node10 -->
<g id="edge36" class="edge">
<title>Node21&#45;&gt;Node10</title>
<path fill="none" stroke="#191970" d="M226.89,-313.4344C208.2979,-283.0499 155.4368,-186.3582 185,-112 193.1308,-91.5492 205.6663,-93.5088 219,-76 230.4966,-60.9036 241.515,-42.3109 249.0658,-28.7107"/>
<polygon fill="#191970" stroke="#191970" points="252.2029,-30.2681 253.9083,-19.8114 246.0543,-26.9223 252.2029,-30.2681"/>
</g>
<!-- Node22 -->
<g id="node23" class="node">
<title>Node22</title>
<g id="a_node23"><a xlink:href="../../df/d72/ParamRetriever_8h.html" target="_top" xlink:title="Framework/ParamRetriever.h">
<polygon fill="none" stroke="#000000" points="209.5,-185 209.5,-204 366.5,-204 366.5,-185 209.5,-185"/>
<text text-anchor="middle" x="288" y="-192" font-family="Helvetica,sans-Serif" font-size="10.00" fill="#000000">Framework/ParamRetriever.h</text>
</a>
</g>
</g>
<!-- Node21&#45;&gt;Node22 -->
<g id="edge23" class="edge">
<title>Node21&#45;&gt;Node22</title>
<path fill="none" stroke="#191970" d="M232.1251,-313.2616C231.1714,-298.1456 230.9343,-268.4412 241,-246 247.0979,-232.4049 258.1981,-219.9769 268.0803,-210.7368"/>
<polygon fill="#191970" stroke="#191970" points="270.4639,-213.301 275.6255,-204.0485 265.8206,-208.0627 270.4639,-213.301"/>
</g>
<!-- Node26 -->
<g id="node27" class="node">
<title>Node26</title>
<g id="a_node27"><a xlink:href="../../dd/daf/ConfigParamStore_8h.html" target="_top" xlink:title="Framework/ConfigParamStore.h">
<polygon fill="none" stroke="#000000" points="250,-252 250,-271 420,-271 420,-252 250,-252"/>
<text text-anchor="middle" x="335" y="-259" font-family="Helvetica,sans-Serif" font-size="10.00" fill="#000000">Framework/ConfigParamStore.h</text>
</a>
</g>
</g>
<!-- Node21&#45;&gt;Node26 -->
<g id="edge30" class="edge">
<title>Node21&#45;&gt;Node26</title>
<path fill="none" stroke="#191970" d="M248.9375,-313.3906C265.4051,-303.4616 291.3258,-287.833 310.4204,-276.3201"/>
<polygon fill="#191970" stroke="#191970" points="312.4178,-279.2027 319.1744,-271.0419 308.8034,-273.2081 312.4178,-279.2027"/>
</g>
<!-- Node27 -->
<g id="node28" class="node">
<title>Node27</title>
<polygon fill="none" stroke="#bfbfbf" points="438.5,-246.5 438.5,-276.5 551.5,-276.5 551.5,-246.5 438.5,-246.5"/>
<text text-anchor="start" x="446.5" y="-264.5" font-family="Helvetica,sans-Serif" font-size="10.00" fill="#000000">boost/property_tree</text>
<text text-anchor="middle" x="495" y="-253.5" font-family="Helvetica,sans-Serif" font-size="10.00" fill="#000000">/ptree.hpp</text>
</g>
<!-- Node21&#45;&gt;Node27 -->
<g id="edge34" class="edge">
<title>Node21&#45;&gt;Node27</title>
<path fill="none" stroke="#191970" d="M273.5416,-313.487C311.0872,-304.6765 368.754,-291.1434 428.4831,-277.1212"/>
<polygon fill="#191970" stroke="#191970" points="429.5391,-280.4685 438.4745,-274.7755 427.9392,-273.6538 429.5391,-280.4685"/>
</g>
<!-- Node21&#45;&gt;Node28 -->
<g id="edge35" class="edge">
<title>Node21&#45;&gt;Node28</title>
<path fill="none" stroke="#191970" d="M324.0019,-313.7107C327.0365,-313.4613 330.0423,-313.2235 333,-313 708.6526,-284.6188 1164.4244,-267.5358 1299.4908,-262.8327"/>
<polygon fill="#191970" stroke="#191970" points="1299.8775,-266.3215 1309.7505,-262.4779 1299.6354,-259.3257 1299.8775,-266.3215"/>
</g>
<!-- Node29 -->
<g id="node30" class="node">
<title>Node29</title>
<polygon fill="none" stroke="#bfbfbf" points="570,-252 570,-271 622,-271 622,-252 570,-252"/>
<text text-anchor="middle" x="596" y="-259" font-family="Helvetica,sans-Serif" font-size="10.00" fill="#000000">cassert</text>
</g>
<!-- Node21&#45;&gt;Node29 -->
<g id="edge37" class="edge">
<title>Node21&#45;&gt;Node29</title>
<path fill="none" stroke="#191970" d="M319.3621,-313.488C400.599,-304.0627 516.1127,-289.2957 560,-277 562.322,-276.3495 564.691,-275.582 567.0495,-274.7425"/>
<polygon fill="#191970" stroke="#191970" points="568.5195,-277.9252 576.5381,-271.0004 565.9513,-271.4133 568.5195,-277.9252"/>
</g>
<!-- Node22&#45;&gt;Node10 -->
<g id="edge28" class="edge">
<title>Node22&#45;&gt;Node10</title>
<path fill="none" stroke="#191970" d="M286.4817,-184.8402C281.9108,-155.76 268.2165,-68.636 262.0586,-29.459"/>
<polygon fill="#191970" stroke="#191970" points="265.5137,-28.8993 260.5033,-19.5641 258.5986,-29.9863 265.5137,-28.8993"/>
</g>
<!-- Node23 -->
<g id="node24" class="node">
<title>Node23</title>
<g id="a_node24"><a xlink:href="../../d0/d1c/ConfigParamSpec_8h.html" target="_top" xlink:title="Framework/ConfigParamSpec.h">
<polygon fill="none" stroke="#000000" points="306.5,-118 306.5,-137 473.5,-137 473.5,-118 306.5,-118"/>
<text text-anchor="middle" x="390" y="-125" font-family="Helvetica,sans-Serif" font-size="10.00" fill="#000000">Framework/ConfigParamSpec.h</text>
</a>
</g>
</g>
<!-- Node22&#45;&gt;Node23 -->
<g id="edge24" class="edge">
<title>Node22&#45;&gt;Node23</title>
<path fill="none" stroke="#191970" d="M302.6141,-184.9005C319.429,-173.8554 347.2549,-155.5776 366.9858,-142.6172"/>
<polygon fill="#191970" stroke="#191970" points="368.9764,-145.4972 375.413,-137.0817 365.1333,-139.6465 368.9764,-145.4972"/>
</g>
<!-- Node24 -->
<g id="node25" class="node">
<title>Node24</title>
<polygon fill="none" stroke="#bfbfbf" points="491.5,-112.5 491.5,-142.5 604.5,-142.5 604.5,-112.5 491.5,-112.5"/>
<text text-anchor="start" x="499.5" y="-130.5" font-family="Helvetica,sans-Serif" font-size="10.00" fill="#000000">boost/property_tree</text>
<text text-anchor="middle" x="548" y="-119.5" font-family="Helvetica,sans-Serif" font-size="10.00" fill="#000000">/ptree_fwd.hpp</text>
</g>
<!-- Node22&#45;&gt;Node24 -->
<g id="edge27" class="edge">
<title>Node22&#45;&gt;Node24</title>
<path fill="none" stroke="#191970" d="M324.9755,-184.9717C365.5892,-174.5059 431.6404,-157.485 481.3429,-144.677"/>
<polygon fill="#191970" stroke="#191970" points="482.2428,-148.0595 491.053,-142.1748 480.496,-141.281 482.2428,-148.0595"/>
</g>
<!-- Node22&#45;&gt;Node25 -->
<g id="edge29" class="edge">
<title>Node22&#45;&gt;Node25</title>
<path fill="none" stroke="#191970" d="M277.9707,-184.9005C266.8469,-174.2535 248.7013,-156.8856 235.279,-144.0385"/>
<polygon fill="#191970" stroke="#191970" points="237.655,-141.4678 228.0107,-137.0817 232.8148,-146.5247 237.655,-141.4678"/>
</g>
<!-- Node23&#45;&gt;Node10 -->
<g id="edge26" class="edge">
<title>Node23&#45;&gt;Node10</title>
<path fill="none" stroke="#191970" d="M379.2797,-117.8845C356.9218,-97.8306 305.0947,-51.3445 277.3343,-26.4449"/>
<polygon fill="#191970" stroke="#191970" points="279.6497,-23.82 269.8684,-19.7484 274.9757,-29.031 279.6497,-23.82"/>
</g>
<!-- Node23&#45;&gt;Node11 -->
<g id="edge25" class="edge">
<title>Node23&#45;&gt;Node11</title>
<path fill="none" stroke="#191970" d="M402.3438,-117.8906C414.7503,-108.2324 434.0843,-93.1812 448.7413,-81.771"/>
<polygon fill="#191970" stroke="#191970" points="451.0021,-84.4466 456.7429,-75.5419 446.7021,-78.923 451.0021,-84.4466"/>
</g>
<!-- Node26&#45;&gt;Node22 -->
<g id="edge31" class="edge">
<title>Node26&#45;&gt;Node22</title>
<path fill="none" stroke="#191970" d="M328.266,-251.9005C321.0764,-241.6515 309.5181,-225.1747 300.6252,-212.4976"/>
<polygon fill="#191970" stroke="#191970" points="303.3296,-210.2582 294.7215,-204.0817 297.599,-214.2783 303.3296,-210.2582"/>
</g>
<!-- Node26&#45;&gt;Node23 -->
<g id="edge32" class="edge">
<title>Node26&#45;&gt;Node23</title>
<path fill="none" stroke="#191970" d="M344.8901,-251.817C354.1775,-242.1215 367.7044,-226.3318 375,-210 384.0594,-189.7196 387.6482,-164.3076 389.0694,-147.0851"/>
<polygon fill="#191970" stroke="#191970" points="392.5631,-147.2942 389.726,-137.0863 385.5781,-146.8355 392.5631,-147.2942"/>
</g>
<!-- Node26&#45;&gt;Node24 -->
<g id="edge33" class="edge">
<title>Node26&#45;&gt;Node24</title>
<path fill="none" stroke="#191970" d="M350.3184,-251.8631C384.7299,-230.2145 468.7878,-177.333 515.4479,-147.9788"/>
<polygon fill="#191970" stroke="#191970" points="517.3797,-150.8986 523.9802,-142.611 513.6521,-144.9735 517.3797,-150.8986"/>
</g>
<!-- Node30&#45;&gt;Node12 -->
<g id="edge40" class="edge">
<title>Node30&#45;&gt;Node12</title>
<path fill="none" stroke="#191970" d="M2255.3432,-179.2823C2261.0385,-169.3131 2267.9734,-155.8029 2272,-143 2284.2524,-104.0421 2288.6327,-56.1595 2290.1776,-29.784"/>
<polygon fill="#191970" stroke="#191970" points="2293.6837,-29.7503 2290.6935,-19.5862 2286.6927,-29.3965 2293.6837,-29.7503"/>
</g>
<!-- Node30&#45;&gt;Node13 -->
<g id="edge43" class="edge">
<title>Node30&#45;&gt;Node13</title>
<path fill="none" stroke="#191970" d="M2230.9349,-179.1681C2209.4374,-157.6467 2170.6161,-120.1852 2153,-112 2034.6241,-56.9974 1630.9642,-23.1473 1495.6358,-13.1319"/>
<polygon fill="#191970" stroke="#191970" points="1495.8443,-9.6379 1485.6152,-12.3977 1495.3327,-16.6192 1495.8443,-9.6379"/>
</g>
<!-- Node30&#45;&gt;Node23 -->
<g id="edge39" class="edge">
<title>Node30&#45;&gt;Node23</title>
<path fill="none" stroke="#191970" d="M2167.2833,-193.6446C1870.0547,-190.1905 815.9706,-175.8507 482,-143 471.2629,-141.9439 459.8848,-140.388 448.9262,-138.6639"/>
<polygon fill="#191970" stroke="#191970" points="449.4442,-135.2022 439.0105,-137.0428 448.3147,-142.1105 449.4442,-135.2022"/>
</g>
<!-- Node30&#45;&gt;Node24 -->
<g id="edge42" class="edge">
<title>Node30&#45;&gt;Node24</title>
<path fill="none" stroke="#191970" d="M2167.2261,-191.3917C1878.8188,-180.0117 883.3602,-140.7327 615.0631,-130.1462"/>
<polygon fill="#191970" stroke="#191970" points="614.833,-126.6345 604.7027,-129.7374 614.5569,-133.629 614.833,-126.6345"/>
</g>
<!-- Node31 -->
<g id="node32" class="node">
<title>Node31</title>
<polygon fill="none" stroke="#bfbfbf" points="2319.5,-118 2319.5,-137 2376.5,-137 2376.5,-118 2319.5,-118"/>
<text text-anchor="middle" x="2348" y="-125" font-family="Helvetica,sans-Serif" font-size="10.00" fill="#000000">TClass.h</text>
</g>
<!-- Node30&#45;&gt;Node31 -->
<g id="edge41" class="edge">
<title>Node30&#45;&gt;Node31</title>
<path fill="none" stroke="#191970" d="M2268.8908,-179.4639C2285.5425,-168.526 2308.0083,-153.769 2324.7442,-142.7759"/>
<polygon fill="#191970" stroke="#191970" points="2326.9425,-145.5195 2333.3791,-137.1039 2323.0994,-139.6688 2326.9425,-145.5195"/>
</g>
<!-- Node32 -->
<g id="node33" class="node">
<title>Node32</title>
<polygon fill="none" stroke="#bfbfbf" points="2205.5,-118 2205.5,-137 2262.5,-137 2262.5,-118 2205.5,-118"/>
<text text-anchor="middle" x="2234" y="-125" font-family="Helvetica,sans-Serif" font-size="10.00" fill="#000000">typeinfo</text>
</g>
<!-- Node30&#45;&gt;Node32 -->
<g id="edge44" class="edge">
<title>Node30&#45;&gt;Node32</title>
<path fill="none" stroke="#191970" d="M2243.277,-179.2967C2241.5707,-169.7699 2239.3544,-157.3954 2237.5159,-147.1306"/>
<polygon fill="#191970" stroke="#191970" points="2240.9196,-146.2813 2235.7113,-137.055 2234.0292,-147.5154 2240.9196,-146.2813"/>
</g>
</g>
</svg>
