<?xml version="1.0" encoding="UTF-8" standalone="no"?>
<!DOCTYPE svg PUBLIC "-//W3C//DTD SVG 1.1//EN"
 "http://www.w3.org/Graphics/SVG/1.1/DTD/svg11.dtd">
<!-- Generated by graphviz version 2.40.1 (20161225.0304)
 -->
<!-- Title: /home/travis/build/AliceO2Group/AliceO2/GPU/GPUTracking/TPCClusterFinder/GPUTPCCFPeakFinder.cxx Pages: 1 -->
<svg width="2261pt" height="845pt"
 viewBox="0.00 0.00 2261.16 845.00" xmlns="http://www.w3.org/2000/svg" xmlns:xlink="http://www.w3.org/1999/xlink">
<g id="graph0" class="graph" transform="scale(1 1) rotate(0) translate(4 841)">
<title>/home/travis/build/AliceO2Group/AliceO2/GPU/GPUTracking/TPCClusterFinder/GPUTPCCFPeakFinder.cxx</title>
<!-- Node0 -->
<g id="node1" class="node">
<title>Node0</title>
<polygon fill="#bfbfbf" stroke="#000000" points="154.1624,-784.5 154.1624,-836.5 345.1624,-836.5 345.1624,-784.5 154.1624,-784.5"/>
<text text-anchor="start" x="162.1624" y="-824.5" font-family="Helvetica,sans-Serif" font-size="10.00" fill="#000000">/home/travis/build</text>
<text text-anchor="start" x="162.1624" y="-813.5" font-family="Helvetica,sans-Serif" font-size="10.00" fill="#000000">/AliceO2Group/AliceO2</text>
<text text-anchor="start" x="162.1624" y="-802.5" font-family="Helvetica,sans-Serif" font-size="10.00" fill="#000000">/GPU/GPUTracking/TPCClusterFinder</text>
<text text-anchor="middle" x="249.6624" y="-791.5" font-family="Helvetica,sans-Serif" font-size="10.00" fill="#000000">/GPUTPCCFPeakFinder.cxx</text>
</g>
<!-- Node1 -->
<g id="node2" class="node">
<title>Node1</title>
<g id="a_node2"><a xlink:href="../../d6/d92/GPUTPCCFPeakFinder_8h.html" target="_top" xlink:title="GPUTPCCFPeakFinder.h">
<polygon fill="none" stroke="#000000" points="683.6624,-616.5 683.6624,-635.5 813.6624,-635.5 813.6624,-616.5 683.6624,-616.5"/>
<text text-anchor="middle" x="748.6624" y="-623.5" font-family="Helvetica,sans-Serif" font-size="10.00" fill="#000000">GPUTPCCFPeakFinder.h</text>
</a>
</g>
</g>
<!-- Node0&#45;&gt;Node1 -->
<g id="edge1" class="edge">
<title>Node0&#45;&gt;Node1</title>
<path fill="none" stroke="#191970" d="M320.0986,-784.457C428.2856,-744.456 631.4104,-669.3527 713.2023,-639.111"/>
<polygon fill="#191970" stroke="#191970" points="714.6221,-642.3177 722.7878,-635.5669 712.1945,-635.7521 714.6221,-642.3177"/>
</g>
<!-- Node45 -->
<g id="node46" class="node">
<title>Node45</title>
<g id="a_node46"><a xlink:href="../../d7/d60/Array2D_8h.html" target="_top" xlink:title="Array2D.h">
<polygon fill="none" stroke="#000000" points="477.1624,-560.5 477.1624,-579.5 542.1624,-579.5 542.1624,-560.5 477.1624,-560.5"/>
<text text-anchor="middle" x="509.6624" y="-567.5" font-family="Helvetica,sans-Serif" font-size="10.00" fill="#000000">Array2D.h</text>
</a>
</g>
</g>
<!-- Node0&#45;&gt;Node45 -->
<g id="edge85" class="edge">
<title>Node0&#45;&gt;Node45</title>
<path fill="none" stroke="#191970" d="M226.5673,-784.3301C215.4271,-768.5641 205.4837,-747.77 210.6624,-728 225.1348,-672.7517 227.3616,-649.4373 273.6624,-616 303.9906,-594.0978 407.5397,-580.3156 466.9113,-574.0196"/>
<polygon fill="#191970" stroke="#191970" points="467.5152,-577.4759 477.1024,-572.9664 466.7956,-570.513 467.5152,-577.4759"/>
</g>
<!-- Node47 -->
<g id="node48" class="node">
<title>Node47</title>
<g id="a_node48"><a xlink:href="../../d1/d65/PackedCharge_8h.html" target="_top" xlink:title="PackedCharge.h">
<polygon fill="none" stroke="#000000" points="560.1624,-560.5 560.1624,-579.5 655.1624,-579.5 655.1624,-560.5 560.1624,-560.5"/>
<text text-anchor="middle" x="607.6624" y="-567.5" font-family="Helvetica,sans-Serif" font-size="10.00" fill="#000000">PackedCharge.h</text>
</a>
</g>
</g>
<!-- Node0&#45;&gt;Node47 -->
<g id="edge155" class="edge">
<title>Node0&#45;&gt;Node47</title>
<path fill="none" stroke="#191970" d="M267.7061,-784.2555C274.6209,-773.3816 282.1618,-760.4246 287.6624,-748 312.4267,-692.063 280.7296,-656.4029 326.6624,-616 362.5219,-584.4578 486.8288,-587.8682 550.11,-579.8523"/>
<polygon fill="#191970" stroke="#191970" points="550.6944,-583.3042 560.0855,-578.3993 549.6854,-576.3773 550.6944,-583.3042"/>
</g>
<!-- Node48 -->
<g id="node49" class="node">
<title>Node48</title>
<g id="a_node49"><a xlink:href="../../da/de7/CfUtils_8h.html" target="_top" xlink:title="CfUtils.h">
<polygon fill="none" stroke="#000000" points="220.1624,-728.5 220.1624,-747.5 279.1624,-747.5 279.1624,-728.5 220.1624,-728.5"/>
<text text-anchor="middle" x="249.6624" y="-735.5" font-family="Helvetica,sans-Serif" font-size="10.00" fill="#000000">CfUtils.h</text>
</a>
</g>
</g>
<!-- Node0&#45;&gt;Node48 -->
<g id="edge86" class="edge">
<title>Node0&#45;&gt;Node48</title>
<path fill="none" stroke="#191970" d="M249.6624,-784.3258C249.6624,-775.5142 249.6624,-765.8397 249.6624,-757.621"/>
<polygon fill="#191970" stroke="#191970" points="253.1625,-757.534 249.6624,-747.534 246.1625,-757.534 253.1625,-757.534"/>
</g>
<!-- Node55 -->
<g id="node56" class="node">
<title>Node55</title>
<g id="a_node56"><a xlink:href="../../d7/dbd/TPCCFCalibration_8h.html" target="_top" xlink:title="TPCCFCalibration.h">
<polygon fill="none" stroke="#000000" points="17.6624,-504.5 17.6624,-523.5 127.6624,-523.5 127.6624,-504.5 17.6624,-504.5"/>
<text text-anchor="middle" x="72.6624" y="-511.5" font-family="Helvetica,sans-Serif" font-size="10.00" fill="#000000">TPCCFCalibration.h</text>
</a>
</g>
</g>
<!-- Node0&#45;&gt;Node55 -->
<g id="edge156" class="edge">
<title>Node0&#45;&gt;Node55</title>
<path fill="none" stroke="#191970" d="M154.1271,-793.1305C94.7553,-776.2003 29.6624,-743.5937 29.6624,-682 29.6624,-682 29.6624,-682 29.6624,-626 29.6624,-591.1403 48.0418,-553.9899 60.7684,-532.444"/>
<polygon fill="#191970" stroke="#191970" points="63.883,-534.0603 66.1317,-523.7069 57.9173,-530.3983 63.883,-534.0603"/>
</g>
<!-- Node2 -->
<g id="node3" class="node">
<title>Node2</title>
<g id="a_node3"><a xlink:href="../../d9/de5/GPUGeneralKernels_8h.html" target="_top" xlink:title="GPUGeneralKernels.h">
<polygon fill="none" stroke="#000000" points="1128.1624,-560.5 1128.1624,-579.5 1249.1624,-579.5 1249.1624,-560.5 1128.1624,-560.5"/>
<text text-anchor="middle" x="1188.6624" y="-567.5" font-family="Helvetica,sans-Serif" font-size="10.00" fill="#000000">GPUGeneralKernels.h</text>
</a>
</g>
</g>
<!-- Node1&#45;&gt;Node2 -->
<g id="edge2" class="edge">
<title>Node1&#45;&gt;Node2</title>
<path fill="none" stroke="#191970" d="M814.0262,-617.1191C816.9444,-616.7377 819.8336,-616.3631 822.6624,-616 950.8996,-599.5379 985.6027,-597.4665 1117.8519,-580.0841"/>
<polygon fill="#191970" stroke="#191970" points="1118.5104,-583.5276 1127.9667,-578.7498 1117.5949,-576.5877 1118.5104,-583.5276"/>
</g>
<!-- Node15 -->
<g id="node16" class="node">
<title>Node15</title>
<g id="a_node16"><a xlink:href="../../db/df8/GPUConstantMem_8h.html" target="_top" xlink:title="GPUConstantMem.h">
<polygon fill="none" stroke="#000000" points="995.6624,-560.5 995.6624,-579.5 1109.6624,-579.5 1109.6624,-560.5 995.6624,-560.5"/>
<text text-anchor="middle" x="1052.6624" y="-567.5" font-family="Helvetica,sans-Serif" font-size="10.00" fill="#000000">GPUConstantMem.h</text>
</a>
</g>
</g>
<!-- Node1&#45;&gt;Node15 -->
<g id="edge17" class="edge">
<title>Node1&#45;&gt;Node15</title>
<path fill="none" stroke="#191970" d="M800.5765,-616.4369C853.2595,-606.7321 934.8192,-591.708 990.8167,-581.3926"/>
<polygon fill="#191970" stroke="#191970" points="991.7621,-584.7775 1000.9625,-579.5237 990.4939,-577.8933 991.7621,-584.7775"/>
</g>
<!-- Node44 -->
<g id="node45" class="node">
<title>Node44</title>
<g id="a_node45"><a xlink:href="../../d9/db0/clusterFinderDefs_8h.html" target="_top" xlink:title="clusterFinderDefs.h">
<polygon fill="none" stroke="#000000" points="526.6624,-448.5 526.6624,-467.5 636.6624,-467.5 636.6624,-448.5 526.6624,-448.5"/>
<text text-anchor="middle" x="581.6624" y="-455.5" font-family="Helvetica,sans-Serif" font-size="10.00" fill="#000000">clusterFinderDefs.h</text>
</a>
</g>
</g>
<!-- Node1&#45;&gt;Node44 -->
<g id="edge76" class="edge">
<title>Node1&#45;&gt;Node44</title>
<path fill="none" stroke="#191970" d="M739.2053,-616.4862C712.0065,-589.1246 633.306,-509.9528 598.5277,-474.9663"/>
<polygon fill="#191970" stroke="#191970" points="600.964,-472.4526 591.4318,-467.8279 595.9995,-477.3875 600.964,-472.4526"/>
</g>
<!-- Node1&#45;&gt;Node45 -->
<g id="edge78" class="edge">
<title>Node1&#45;&gt;Node45</title>
<path fill="none" stroke="#191970" d="M706.9134,-616.4406C668.935,-607.7132 611.0664,-594.3374 552.1708,-580.3436"/>
<polygon fill="#191970" stroke="#191970" points="552.867,-576.9116 542.3284,-578.0015 551.2464,-583.7214 552.867,-576.9116"/>
</g>
<!-- Node1&#45;&gt;Node47 -->
<g id="edge82" class="edge">
<title>Node1&#45;&gt;Node47</title>
<path fill="none" stroke="#191970" d="M724.4237,-616.3733C701.3835,-607.2226 666.541,-593.3844 640.9124,-583.2057"/>
<polygon fill="#191970" stroke="#191970" points="642.1707,-579.9395 631.5849,-579.5011 639.5868,-586.4452 642.1707,-579.9395"/>
</g>
<!-- Node3 -->
<g id="node4" class="node">
<title>Node3</title>
<g id="a_node4"><a xlink:href="../../d2/d6d/GPUDef_8h.html" target="_top" xlink:title="GPUDef.h">
<polygon fill="none" stroke="#000000" points="1244.1624,-224.5 1244.1624,-243.5 1307.1624,-243.5 1307.1624,-224.5 1244.1624,-224.5"/>
<text text-anchor="middle" x="1275.6624" y="-231.5" font-family="Helvetica,sans-Serif" font-size="10.00" fill="#000000">GPUDef.h</text>
</a>
</g>
</g>
<!-- Node2&#45;&gt;Node3 -->
<g id="edge3" class="edge">
<title>Node2&#45;&gt;Node3</title>
<path fill="none" stroke="#191970" d="M1249.2079,-568.1661C1360.0546,-564.1513 1591.0717,-552.5526 1665.6624,-524 1704.8468,-509.0006 1722.7398,-505.4477 1741.6624,-468 1787.3642,-377.5567 1704.5541,-322.715 1612.6624,-280 1560.9679,-255.9702 1395.5486,-242.0209 1317.3587,-236.6155"/>
<polygon fill="#191970" stroke="#191970" points="1317.5865,-233.123 1307.3727,-235.939 1317.1132,-240.107 1317.5865,-233.123"/>
</g>
<!-- Node13 -->
<g id="node14" class="node">
<title>Node13</title>
<g id="a_node14"><a xlink:href="../../d4/dc5/GPUDataTypes_8h.html" target="_top" xlink:title="GPUDataTypes.h">
<polygon fill="none" stroke="#000000" points="1788.6624,-448.5 1788.6624,-467.5 1886.6624,-467.5 1886.6624,-448.5 1788.6624,-448.5"/>
<text text-anchor="middle" x="1837.6624" y="-455.5" font-family="Helvetica,sans-Serif" font-size="10.00" fill="#000000">GPUDataTypes.h</text>
</a>
</g>
</g>
<!-- Node2&#45;&gt;Node13 -->
<g id="edge14" class="edge">
<title>Node2&#45;&gt;Node13</title>
<path fill="none" stroke="#191970" d="M1249.2191,-568.4118C1420.0532,-563.6388 1894.9041,-548.2397 1917.6624,-524 1936.679,-503.7457 1903.7082,-483.9301 1874.5109,-471.3827"/>
<polygon fill="#191970" stroke="#191970" points="1875.8145,-468.1344 1865.2345,-467.5729 1873.1551,-474.6096 1875.8145,-468.1344"/>
</g>
<!-- Node4 -->
<g id="node5" class="node">
<title>Node4</title>
<g id="a_node5"><a xlink:href="../../df/d21/GPUCommonDef_8h.html" target="_top" xlink:title="GPUCommonDef.h">
<polygon fill="none" stroke="#000000" points="1076.1624,-56.5 1076.1624,-75.5 1183.1624,-75.5 1183.1624,-56.5 1076.1624,-56.5"/>
<text text-anchor="middle" x="1129.6624" y="-63.5" font-family="Helvetica,sans-Serif" font-size="10.00" fill="#000000">GPUCommonDef.h</text>
</a>
</g>
</g>
<!-- Node3&#45;&gt;Node4 -->
<g id="edge4" class="edge">
<title>Node3&#45;&gt;Node4</title>
<path fill="none" stroke="#191970" d="M1243.8942,-226.4345C1210.4627,-217.8165 1160.998,-202.9798 1148.6624,-188 1124.6852,-158.883 1124.6929,-112.1545 1127.0415,-85.7812"/>
<polygon fill="#191970" stroke="#191970" points="1130.5543,-85.8557 1128.1678,-75.5331 1123.5962,-85.0909 1130.5543,-85.8557"/>
</g>
<!-- Node7 -->
<g id="node8" class="node">
<title>Node7</title>
<g id="a_node8"><a xlink:href="../../d2/d37/GPUDefConstantsAndSettings_8h.html" target="_top" xlink:title="GPUDefConstantsAndSettings.h">
<polygon fill="none" stroke="#000000" points="930.1624,-112.5 930.1624,-131.5 1101.1624,-131.5 1101.1624,-112.5 930.1624,-112.5"/>
<text text-anchor="middle" x="1015.6624" y="-119.5" font-family="Helvetica,sans-Serif" font-size="10.00" fill="#000000">GPUDefConstantsAndSettings.h</text>
</a>
</g>
</g>
<!-- Node3&#45;&gt;Node7 -->
<g id="edge7" class="edge">
<title>Node3&#45;&gt;Node7</title>
<path fill="none" stroke="#191970" d="M1243.9895,-227.8722C1210.9661,-220.807 1158.1903,-207.5898 1115.6624,-188 1086.0072,-174.3398 1055.1242,-152.6194 1035.6673,-137.8578"/>
<polygon fill="#191970" stroke="#191970" points="1037.6333,-134.9542 1027.577,-131.6191 1033.3587,-140.4974 1037.6333,-134.9542"/>
</g>
<!-- Node8 -->
<g id="node9" class="node">
<title>Node8</title>
<g id="a_node9"><a xlink:href="../../dc/de9/GPUDefGPUParameters_8h.html" target="_top" xlink:title="GPUDefGPUParameters.h">
<polygon fill="none" stroke="#000000" points="1339.6624,-168.5 1339.6624,-187.5 1479.6624,-187.5 1479.6624,-168.5 1339.6624,-168.5"/>
<text text-anchor="middle" x="1409.6624" y="-175.5" font-family="Helvetica,sans-Serif" font-size="10.00" fill="#000000">GPUDefGPUParameters.h</text>
</a>
</g>
</g>
<!-- Node3&#45;&gt;Node8 -->
<g id="edge9" class="edge">
<title>Node3&#45;&gt;Node8</title>
<path fill="none" stroke="#191970" d="M1298.6979,-224.3733C1320.4013,-215.3032 1353.1243,-201.6279 1377.4174,-191.4755"/>
<polygon fill="#191970" stroke="#191970" points="1379.0505,-194.5865 1386.9276,-187.5011 1376.3513,-188.1278 1379.0505,-194.5865"/>
</g>
<!-- Node10 -->
<g id="node11" class="node">
<title>Node10</title>
<g id="a_node11"><a xlink:href="../../d3/d4c/GPUDefOpenCL12Templates_8h.html" target="_top" xlink:title="GPUDefOpenCL12Templates.h">
<polygon fill="none" stroke="#000000" points="1157.6624,-168.5 1157.6624,-187.5 1321.6624,-187.5 1321.6624,-168.5 1157.6624,-168.5"/>
<text text-anchor="middle" x="1239.6624" y="-175.5" font-family="Helvetica,sans-Serif" font-size="10.00" fill="#000000">GPUDefOpenCL12Templates.h</text>
</a>
</g>
</g>
<!-- Node3&#45;&gt;Node10 -->
<g id="edge11" class="edge">
<title>Node3&#45;&gt;Node10</title>
<path fill="none" stroke="#191970" d="M1269.3917,-224.2455C1264.4361,-216.5367 1257.3795,-205.5598 1251.3848,-196.2348"/>
<polygon fill="#191970" stroke="#191970" points="1254.2131,-194.1618 1245.8613,-187.6427 1248.3248,-197.9471 1254.2131,-194.1618"/>
</g>
<!-- Node11 -->
<g id="node12" class="node">
<title>Node11</title>
<g id="a_node12"><a xlink:href="../../d2/d45/GPUCommonRtypes_8h.html" target="_top" xlink:title="GPUCommonRtypes.h">
<polygon fill="none" stroke="#000000" points="1498.1624,-168.5 1498.1624,-187.5 1623.1624,-187.5 1623.1624,-168.5 1498.1624,-168.5"/>
<text text-anchor="middle" x="1560.6624" y="-175.5" font-family="Helvetica,sans-Serif" font-size="10.00" fill="#000000">GPUCommonRtypes.h</text>
</a>
</g>
</g>
<!-- Node3&#45;&gt;Node11 -->
<g id="edge12" class="edge">
<title>Node3&#45;&gt;Node11</title>
<path fill="none" stroke="#191970" d="M1307.2514,-227.7931C1354.2432,-218.5596 1443.3472,-201.0514 1502.3792,-189.4521"/>
<polygon fill="#191970" stroke="#191970" points="1503.171,-192.8636 1512.3085,-187.5011 1501.8213,-185.9949 1503.171,-192.8636"/>
</g>
<!-- Node5 -->
<g id="node6" class="node">
<title>Node5</title>
<g id="a_node6"><a xlink:href="../../d5/d93/GPUCommonDefSettings_8h.html" target="_top" xlink:title="GPUCommonDefSettings.h">
<polygon fill="none" stroke="#000000" points="978.6624,-.5 978.6624,-19.5 1126.6624,-19.5 1126.6624,-.5 978.6624,-.5"/>
<text text-anchor="middle" x="1052.6624" y="-7.5" font-family="Helvetica,sans-Serif" font-size="10.00" fill="#000000">GPUCommonDefSettings.h</text>
</a>
</g>
</g>
<!-- Node4&#45;&gt;Node5 -->
<g id="edge5" class="edge">
<title>Node4&#45;&gt;Node5</title>
<path fill="none" stroke="#191970" d="M1116.2501,-56.2455C1104.6567,-47.814 1087.6877,-35.4729 1074.1946,-25.6598"/>
<polygon fill="#191970" stroke="#191970" points="1076.0671,-22.6938 1065.9211,-19.6427 1071.9499,-28.355 1076.0671,-22.6938"/>
</g>
<!-- Node6 -->
<g id="node7" class="node">
<title>Node6</title>
<g id="a_node7"><a xlink:href="../../da/d5a/GPUCommonDefAPI_8h.html" target="_top" xlink:title="GPUCommonDefAPI.h">
<polygon fill="none" stroke="#000000" points="1144.6624,-.5 1144.6624,-19.5 1268.6624,-19.5 1268.6624,-.5 1144.6624,-.5"/>
<text text-anchor="middle" x="1206.6624" y="-7.5" font-family="Helvetica,sans-Serif" font-size="10.00" fill="#000000">GPUCommonDefAPI.h</text>
</a>
</g>
</g>
<!-- Node4&#45;&gt;Node6 -->
<g id="edge6" class="edge">
<title>Node4&#45;&gt;Node6</title>
<path fill="none" stroke="#191970" d="M1143.0748,-56.2455C1154.6682,-47.814 1171.6372,-35.4729 1185.1303,-25.6598"/>
<polygon fill="#191970" stroke="#191970" points="1187.375,-28.355 1193.4038,-19.6427 1183.2578,-22.6938 1187.375,-28.355"/>
</g>
<!-- Node7&#45;&gt;Node4 -->
<g id="edge8" class="edge">
<title>Node7&#45;&gt;Node4</title>
<path fill="none" stroke="#191970" d="M1035.2597,-112.3733C1053.3956,-103.4644 1080.5759,-90.1127 1101.1211,-80.0203"/>
<polygon fill="#191970" stroke="#191970" points="1102.8885,-83.0517 1110.3209,-75.5011 1099.8021,-76.7688 1102.8885,-83.0517"/>
</g>
<!-- Node9 -->
<g id="node10" class="node">
<title>Node9</title>
<g id="a_node10"><a xlink:href="../../d6/dff/GPUDefMacros_8h.html" target="_top" xlink:title="GPUDefMacros.h">
<polygon fill="none" stroke="#000000" points="1360.6624,-112.5 1360.6624,-131.5 1458.6624,-131.5 1458.6624,-112.5 1360.6624,-112.5"/>
<text text-anchor="middle" x="1409.6624" y="-119.5" font-family="Helvetica,sans-Serif" font-size="10.00" fill="#000000">GPUDefMacros.h</text>
</a>
</g>
</g>
<!-- Node8&#45;&gt;Node9 -->
<g id="edge10" class="edge">
<title>Node8&#45;&gt;Node9</title>
<path fill="none" stroke="#191970" d="M1409.6624,-168.2455C1409.6624,-160.9382 1409.6624,-150.6944 1409.6624,-141.7046"/>
<polygon fill="#191970" stroke="#191970" points="1413.1625,-141.6426 1409.6624,-131.6427 1406.1625,-141.6427 1413.1625,-141.6426"/>
</g>
<!-- Node12 -->
<g id="node13" class="node">
<title>Node12</title>
<polygon fill="none" stroke="#bfbfbf" points="1531.1624,-112.5 1531.1624,-131.5 1590.1624,-131.5 1590.1624,-112.5 1531.1624,-112.5"/>
<text text-anchor="middle" x="1560.6624" y="-119.5" font-family="Helvetica,sans-Serif" font-size="10.00" fill="#000000">Rtypes.h</text>
</g>
<!-- Node11&#45;&gt;Node12 -->
<g id="edge13" class="edge">
<title>Node11&#45;&gt;Node12</title>
<path fill="none" stroke="#191970" d="M1560.6624,-168.2455C1560.6624,-160.9382 1560.6624,-150.6944 1560.6624,-141.7046"/>
<polygon fill="#191970" stroke="#191970" points="1564.1625,-141.6426 1560.6624,-131.6427 1557.1625,-141.6427 1564.1625,-141.6426"/>
</g>
<!-- Node13&#45;&gt;Node4 -->
<g id="edge15" class="edge">
<title>Node13&#45;&gt;Node4</title>
<path fill="none" stroke="#191970" d="M1837.6624,-448.4116C1837.6624,-429.0538 1837.6624,-383.9167 1837.6624,-346 1837.6624,-346 1837.6624,-346 1837.6624,-178 1837.6624,-100.6654 1751.8449,-130.1174 1676.6624,-112 1586.5474,-90.2841 1317.5332,-75.0098 1193.5414,-68.9266"/>
<polygon fill="#191970" stroke="#191970" points="1193.5934,-65.4251 1183.4353,-68.4355 1193.2535,-72.4169 1193.5934,-65.4251"/>
</g>
<!-- Node14 -->
<g id="node15" class="node">
<title>Node14</title>
<polygon fill="none" stroke="#bfbfbf" points="1756.1624,-280.5 1756.1624,-299.5 1809.1624,-299.5 1809.1624,-280.5 1756.1624,-280.5"/>
<text text-anchor="middle" x="1782.6624" y="-287.5" font-family="Helvetica,sans-Serif" font-size="10.00" fill="#000000">cstddef</text>
</g>
<!-- Node13&#45;&gt;Node14 -->
<g id="edge16" class="edge">
<title>Node13&#45;&gt;Node14</title>
<path fill="none" stroke="#191970" d="M1834.5478,-448.4862C1825.816,-421.8144 1800.9669,-345.9117 1789.1102,-309.695"/>
<polygon fill="#191970" stroke="#191970" points="1792.3176,-308.2426 1785.8799,-299.8279 1785.665,-310.4205 1792.3176,-308.2426"/>
</g>
<!-- Node15&#45;&gt;Node13 -->
<g id="edge67" class="edge">
<title>Node15&#45;&gt;Node13</title>
<path fill="none" stroke="#191970" d="M1109.8599,-561.0175C1112.8338,-560.6495 1115.7815,-560.3071 1118.6624,-560 1375.4817,-532.6279 1448.5876,-588.5598 1698.6624,-524 1741.4678,-512.9493 1787.0168,-488.6055 1813.8746,-472.7729"/>
<polygon fill="#191970" stroke="#191970" points="1815.7846,-475.7087 1822.5599,-467.5634 1812.1839,-469.7057 1815.7846,-475.7087"/>
</g>
<!-- Node16 -->
<g id="node17" class="node">
<title>Node16</title>
<g id="a_node17"><a xlink:href="../../d6/d25/GPUTPCTracker_8h.html" target="_top" xlink:title="GPUTPCTracker.h">
<polygon fill="none" stroke="#000000" points="1299.6624,-504.5 1299.6624,-523.5 1399.6624,-523.5 1399.6624,-504.5 1299.6624,-504.5"/>
<text text-anchor="middle" x="1349.6624" y="-511.5" font-family="Helvetica,sans-Serif" font-size="10.00" fill="#000000">GPUTPCTracker.h</text>
</a>
</g>
</g>
<!-- Node15&#45;&gt;Node16 -->
<g id="edge18" class="edge">
<title>Node15&#45;&gt;Node16</title>
<path fill="none" stroke="#191970" d="M1103.3811,-560.4369C1155.007,-550.7027 1235.0159,-535.6169 1289.7375,-525.299"/>
<polygon fill="#191970" stroke="#191970" points="1290.4701,-528.7226 1299.6484,-523.4303 1289.173,-521.8438 1290.4701,-528.7226"/>
</g>
<!-- Node26 -->
<g id="node27" class="node">
<title>Node26</title>
<g id="a_node27"><a xlink:href="../../df/d13/GPUParam_8h.html" target="_top" xlink:title="GPUParam.h">
<polygon fill="none" stroke="#000000" points="776.1624,-392.5 776.1624,-411.5 853.1624,-411.5 853.1624,-392.5 776.1624,-392.5"/>
<text text-anchor="middle" x="814.6624" y="-399.5" font-family="Helvetica,sans-Serif" font-size="10.00" fill="#000000">GPUParam.h</text>
</a>
</g>
</g>
<!-- Node15&#45;&gt;Node26 -->
<g id="edge66" class="edge">
<title>Node15&#45;&gt;Node26</title>
<path fill="none" stroke="#191970" d="M1044.521,-560.2587C1032.8372,-546.6433 1010.2264,-521.6164 987.6624,-504 940.8123,-467.4225 879.6438,-434.3292 844.0014,-416.2996"/>
<polygon fill="#191970" stroke="#191970" points="845.1674,-412.9693 834.6584,-411.6233 842.0344,-419.229 845.1674,-412.9693"/>
</g>
<!-- Node40 -->
<g id="node41" class="node">
<title>Node40</title>
<g id="a_node41"><a xlink:href="../../da/da4/GPUErrors_8h.html" target="_top" xlink:title="GPUErrors.h">
<polygon fill="none" stroke="#000000" points="1581.1624,-504.5 1581.1624,-523.5 1656.1624,-523.5 1656.1624,-504.5 1581.1624,-504.5"/>
<text text-anchor="middle" x="1618.6624" y="-511.5" font-family="Helvetica,sans-Serif" font-size="10.00" fill="#000000">GPUErrors.h</text>
</a>
</g>
</g>
<!-- Node15&#45;&gt;Node40 -->
<g id="edge68" class="edge">
<title>Node15&#45;&gt;Node40</title>
<path fill="none" stroke="#191970" d="M1109.867,-561.0815C1112.839,-560.6968 1115.7844,-560.3333 1118.6624,-560 1317.0896,-537.0238 1368.7293,-550.9019 1566.6624,-524 1568.1143,-523.8027 1569.5869,-523.5912 1571.072,-523.368"/>
<polygon fill="#191970" stroke="#191970" points="1571.6633,-526.8179 1580.9689,-521.7528 1570.5357,-519.9093 1571.6633,-526.8179"/>
</g>
<!-- Node42 -->
<g id="node43" class="node">
<title>Node42</title>
<g id="a_node43"><a xlink:href="../../d7/d4f/GPUTRDDef_8h.html" target="_top" xlink:title="GPUTRDDef.h">
<polygon fill="none" stroke="#000000" points="427.1624,-224.5 427.1624,-243.5 510.1624,-243.5 510.1624,-224.5 427.1624,-224.5"/>
<text text-anchor="middle" x="468.6624" y="-231.5" font-family="Helvetica,sans-Serif" font-size="10.00" fill="#000000">GPUTRDDef.h</text>
</a>
</g>
</g>
<!-- Node15&#45;&gt;Node42 -->
<g id="edge71" class="edge">
<title>Node15&#45;&gt;Node42</title>
<path fill="none" stroke="#191970" d="M1039.2719,-560.2693C1016.7499,-544.0255 972.0467,-512.3413 954.6624,-504 854.9824,-456.1718 549.1251,-442.0151 479.6624,-356 456.0465,-326.7565 459.7972,-279.7376 464.3827,-253.4288"/>
<polygon fill="#191970" stroke="#191970" points="467.8333,-254.0202 466.3216,-243.5338 460.9639,-252.6741 467.8333,-254.0202"/>
</g>
<!-- Node43 -->
<g id="node44" class="node">
<title>Node43</title>
<g id="a_node44"><a xlink:href="../../da/d28/GPUO2FakeClasses_8h.html" target="_top" xlink:title="GPUO2FakeClasses.h">
<polygon fill="none" stroke="#000000" points="1788.6624,-504.5 1788.6624,-523.5 1908.6624,-523.5 1908.6624,-504.5 1788.6624,-504.5"/>
<text text-anchor="middle" x="1848.6624" y="-511.5" font-family="Helvetica,sans-Serif" font-size="10.00" fill="#000000">GPUO2FakeClasses.h</text>
</a>
</g>
</g>
<!-- Node15&#45;&gt;Node43 -->
<g id="edge73" class="edge">
<title>Node15&#45;&gt;Node43</title>
<path fill="none" stroke="#191970" d="M1109.8584,-561.0041C1112.8327,-560.6396 1115.7809,-560.3016 1118.6624,-560 1392.3002,-531.3614 1462.2754,-544.2364 1736.6624,-524 1750.2139,-523.0006 1764.676,-521.8053 1778.5518,-520.5947"/>
<polygon fill="#191970" stroke="#191970" points="1778.8774,-524.0796 1788.5306,-519.713 1778.2613,-517.1068 1778.8774,-524.0796"/>
</g>
<!-- Node17 -->
<g id="node18" class="node">
<title>Node17</title>
<g id="a_node18"><a xlink:href="../../da/dab/GPUTPCDef_8h.html" target="_top" xlink:title="GPUTPCDef.h">
<polygon fill="none" stroke="#000000" points="1263.6624,-280.5 1263.6624,-299.5 1345.6624,-299.5 1345.6624,-280.5 1263.6624,-280.5"/>
<text text-anchor="middle" x="1304.6624" y="-287.5" font-family="Helvetica,sans-Serif" font-size="10.00" fill="#000000">GPUTPCDef.h</text>
</a>
</g>
</g>
<!-- Node16&#45;&gt;Node17 -->
<g id="edge19" class="edge">
<title>Node16&#45;&gt;Node17</title>
<path fill="none" stroke="#191970" d="M1347.7289,-504.375C1340.9062,-470.4133 1317.8706,-355.7472 1308.5877,-309.5392"/>
<polygon fill="#191970" stroke="#191970" points="1311.9899,-308.7039 1306.5888,-299.5891 1305.127,-310.0826 1311.9899,-308.7039"/>
</g>
<!-- Node18 -->
<g id="node19" class="node">
<title>Node18</title>
<polygon fill="none" stroke="#bfbfbf" points="1153.6624,-448.5 1153.6624,-467.5 1213.6624,-467.5 1213.6624,-448.5 1153.6624,-448.5"/>
<text text-anchor="middle" x="1183.6624" y="-455.5" font-family="Helvetica,sans-Serif" font-size="10.00" fill="#000000">iostream</text>
</g>
<!-- Node16&#45;&gt;Node18 -->
<g id="edge21" class="edge">
<title>Node16&#45;&gt;Node18</title>
<path fill="none" stroke="#191970" d="M1321.126,-504.3733C1293.6422,-495.1016 1251.8938,-481.0178 1221.6172,-470.804"/>
<polygon fill="#191970" stroke="#191970" points="1222.4206,-467.3813 1211.8265,-467.5011 1220.183,-474.0141 1222.4206,-467.3813"/>
</g>
<!-- Node19 -->
<g id="node20" class="node">
<title>Node19</title>
<g id="a_node20"><a xlink:href="../../dd/d7b/GPUTPCHitId_8h.html" target="_top" xlink:title="GPUTPCHitId.h">
<polygon fill="none" stroke="#000000" points="1232.1624,-448.5 1232.1624,-467.5 1321.1624,-467.5 1321.1624,-448.5 1232.1624,-448.5"/>
<text text-anchor="middle" x="1276.6624" y="-455.5" font-family="Helvetica,sans-Serif" font-size="10.00" fill="#000000">GPUTPCHitId.h</text>
</a>
</g>
</g>
<!-- Node16&#45;&gt;Node19 -->
<g id="edge22" class="edge">
<title>Node16&#45;&gt;Node19</title>
<path fill="none" stroke="#191970" d="M1336.9468,-504.2455C1326.0604,-495.8943 1310.1742,-483.7076 1297.4424,-473.9408"/>
<polygon fill="#191970" stroke="#191970" points="1299.297,-470.9523 1289.2324,-467.6427 1295.0364,-476.5063 1299.297,-470.9523"/>
</g>
<!-- Node20 -->
<g id="node21" class="node">
<title>Node20</title>
<g id="a_node21"><a xlink:href="../../df/d4a/GPUTPCSliceData_8h.html" target="_top" xlink:title="GPUTPCSliceData.h">
<polygon fill="none" stroke="#000000" points="1377.6624,-448.5 1377.6624,-467.5 1489.6624,-467.5 1489.6624,-448.5 1377.6624,-448.5"/>
<text text-anchor="middle" x="1433.6624" y="-455.5" font-family="Helvetica,sans-Serif" font-size="10.00" fill="#000000">GPUTPCSliceData.h</text>
</a>
</g>
</g>
<!-- Node16&#45;&gt;Node20 -->
<g id="edge23" class="edge">
<title>Node16&#45;&gt;Node20</title>
<path fill="none" stroke="#191970" d="M1364.2941,-504.2455C1377.0619,-495.7337 1395.8062,-483.2375 1410.5923,-473.3801"/>
<polygon fill="#191970" stroke="#191970" points="1412.8194,-476.1019 1419.1984,-467.6427 1408.9364,-470.2775 1412.8194,-476.1019"/>
</g>
<!-- Node36 -->
<g id="node37" class="node">
<title>Node36</title>
<g id="a_node37"><a xlink:href="../../d6/d57/GPUProcessor_8h.html" target="_top" xlink:title="GPUProcessor.h">
<polygon fill="none" stroke="#000000" points="1551.1624,-336.5 1551.1624,-355.5 1644.1624,-355.5 1644.1624,-336.5 1551.1624,-336.5"/>
<text text-anchor="middle" x="1597.6624" y="-343.5" font-family="Helvetica,sans-Serif" font-size="10.00" fill="#000000">GPUProcessor.h</text>
</a>
</g>
</g>
<!-- Node16&#45;&gt;Node36 -->
<g id="edge65" class="edge">
<title>Node16&#45;&gt;Node36</title>
<path fill="none" stroke="#191970" d="M1397.9637,-504.4543C1435.9457,-496.002 1484.7012,-482.7431 1498.6624,-468 1522.6025,-442.7192 1496.6755,-419.7812 1517.6624,-392 1528.4588,-377.7084 1545.0825,-367.1265 1560.3849,-359.7398"/>
<polygon fill="#191970" stroke="#191970" points="1562.001,-362.8504 1569.6781,-355.5488 1559.1233,-356.4693 1562.001,-362.8504"/>
</g>
<!-- Node37 -->
<g id="node38" class="node">
<title>Node37</title>
<g id="a_node38"><a xlink:href="../../de/d15/GPUTPCTrackParam_8h.html" target="_top" xlink:title="GPUTPCTrackParam.h">
<polygon fill="none" stroke="#000000" points="1039.6624,-392.5 1039.6624,-411.5 1161.6624,-411.5 1161.6624,-392.5 1039.6624,-392.5"/>
<text text-anchor="middle" x="1100.6624" y="-399.5" font-family="Helvetica,sans-Serif" font-size="10.00" fill="#000000">GPUTPCTrackParam.h</text>
</a>
</g>
</g>
<!-- Node16&#45;&gt;Node37 -->
<g id="edge57" class="edge">
<title>Node16&#45;&gt;Node37</title>
<path fill="none" stroke="#191970" d="M1299.6083,-505.4482C1240.8314,-495.0571 1149.6526,-477.7137 1136.6624,-468 1121.354,-456.5528 1111.7789,-436.6027 1106.3874,-421.6249"/>
<polygon fill="#191970" stroke="#191970" points="1109.6079,-420.2114 1103.1788,-411.7901 1102.9531,-422.3825 1109.6079,-420.2114"/>
</g>
<!-- Node39 -->
<g id="node40" class="node">
<title>Node39</title>
<g id="a_node40"><a xlink:href="../../db/d6e/GPUTPCTracklet_8h.html" target="_top" xlink:title="GPUTPCTracklet.h">
<polygon fill="none" stroke="#000000" points="1179.6624,-392.5 1179.6624,-411.5 1283.6624,-411.5 1283.6624,-392.5 1179.6624,-392.5"/>
<text text-anchor="middle" x="1231.6624" y="-399.5" font-family="Helvetica,sans-Serif" font-size="10.00" fill="#000000">GPUTPCTracklet.h</text>
</a>
</g>
</g>
<!-- Node16&#45;&gt;Node39 -->
<g id="edge62" class="edge">
<title>Node16&#45;&gt;Node39</title>
<path fill="none" stroke="#191970" d="M1299.5876,-506.0959C1242.0857,-496.5122 1154.3785,-480.1378 1144.6624,-468 1126.8625,-445.7633 1159.9201,-426.895 1190.2718,-415.1003"/>
<polygon fill="#191970" stroke="#191970" points="1191.7933,-418.2696 1199.9633,-411.5241 1189.37,-411.7025 1191.7933,-418.2696"/>
</g>
<!-- Node17&#45;&gt;Node3 -->
<g id="edge20" class="edge">
<title>Node17&#45;&gt;Node3</title>
<path fill="none" stroke="#191970" d="M1299.611,-280.2455C1295.6605,-272.617 1290.0527,-261.7881 1285.2567,-252.5267"/>
<polygon fill="#191970" stroke="#191970" points="1288.3626,-250.9131 1280.656,-243.6427 1282.1466,-254.1321 1288.3626,-250.9131"/>
</g>
<!-- Node20&#45;&gt;Node17 -->
<g id="edge24" class="edge">
<title>Node20&#45;&gt;Node17</title>
<path fill="none" stroke="#191970" d="M1443.5459,-448.2098C1464.549,-426.2174 1509.5103,-372.0102 1481.6624,-336 1466.3268,-316.1693 1402.5619,-303.3006 1355.95,-296.3505"/>
<polygon fill="#191970" stroke="#191970" points="1356.3894,-292.8778 1345.9925,-294.9158 1355.3911,-299.8062 1356.3894,-292.8778"/>
</g>
<!-- Node21 -->
<g id="node22" class="node">
<title>Node21</title>
<g id="a_node22"><a xlink:href="../../d8/dff/GPUTPCRow_8h.html" target="_top" xlink:title="GPUTPCRow.h">
<polygon fill="none" stroke="#000000" points="1346.1624,-392.5 1346.1624,-411.5 1431.1624,-411.5 1431.1624,-392.5 1346.1624,-392.5"/>
<text text-anchor="middle" x="1388.6624" y="-399.5" font-family="Helvetica,sans-Serif" font-size="10.00" fill="#000000">GPUTPCRow.h</text>
</a>
</g>
</g>
<!-- Node20&#45;&gt;Node21 -->
<g id="edge25" class="edge">
<title>Node20&#45;&gt;Node21</title>
<path fill="none" stroke="#191970" d="M1425.824,-448.2455C1419.5004,-440.3761 1410.44,-429.101 1402.8488,-419.6542"/>
<polygon fill="#191970" stroke="#191970" points="1405.4033,-417.2454 1396.411,-411.6427 1399.9467,-421.6302 1405.4033,-417.2454"/>
</g>
<!-- Node23 -->
<g id="node24" class="node">
<title>Node23</title>
<g id="a_node24"><a xlink:href="../../d6/da2/GPUCommonMath_8h.html" target="_top" xlink:title="GPUCommonMath.h">
<polygon fill="none" stroke="#000000" points="489.1624,-336.5 489.1624,-355.5 604.1624,-355.5 604.1624,-336.5 489.1624,-336.5"/>
<text text-anchor="middle" x="546.6624" y="-343.5" font-family="Helvetica,sans-Serif" font-size="10.00" fill="#000000">GPUCommonMath.h</text>
</a>
</g>
</g>
<!-- Node20&#45;&gt;Node23 -->
<g id="edge29" class="edge">
<title>Node20&#45;&gt;Node23</title>
<path fill="none" stroke="#191970" d="M1377.5585,-452.2737C1362.0512,-450.7813 1345.2121,-449.2444 1329.6624,-448 1079.7283,-427.9983 1013.4493,-456.3104 766.6624,-412 699.6233,-399.9632 624.1048,-374.6071 581.266,-359.0639"/>
<polygon fill="#191970" stroke="#191970" points="582.2081,-355.6815 571.6144,-355.5268 579.7993,-362.2541 582.2081,-355.6815"/>
</g>
<!-- Node20&#45;&gt;Node26 -->
<g id="edge33" class="edge">
<title>Node20&#45;&gt;Node26</title>
<path fill="none" stroke="#191970" d="M1377.5361,-452.533C1362.0287,-451.0416 1345.1952,-449.4404 1329.6624,-448 1158.3926,-432.1171 954.9851,-414.2394 863.5034,-406.2515"/>
<polygon fill="#191970" stroke="#191970" points="863.6998,-402.7554 853.4333,-405.3727 863.0911,-409.7289 863.6998,-402.7554"/>
</g>
<!-- Node35 -->
<g id="node36" class="node">
<title>Node35</title>
<g id="a_node36"><a xlink:href="../../d5/da6/GPUMemoryResource_8h.html" target="_top" xlink:title="GPUMemoryResource.h">
<polygon fill="none" stroke="#000000" points="1526.1624,-392.5 1526.1624,-411.5 1657.1624,-411.5 1657.1624,-392.5 1526.1624,-392.5"/>
<text text-anchor="middle" x="1591.6624" y="-399.5" font-family="Helvetica,sans-Serif" font-size="10.00" fill="#000000">GPUMemoryResource.h</text>
</a>
</g>
</g>
<!-- Node20&#45;&gt;Node35 -->
<g id="edge50" class="edge">
<title>Node20&#45;&gt;Node35</title>
<path fill="none" stroke="#191970" d="M1460.8236,-448.3733C1486.8691,-439.1419 1526.374,-425.1402 1555.1603,-414.9375"/>
<polygon fill="#191970" stroke="#191970" points="1556.5995,-418.1408 1564.8557,-411.5011 1554.2609,-411.5429 1556.5995,-418.1408"/>
</g>
<!-- Node21&#45;&gt;Node17 -->
<g id="edge26" class="edge">
<title>Node21&#45;&gt;Node17</title>
<path fill="none" stroke="#191970" d="M1415.7612,-392.4404C1444.5164,-380.7841 1483.528,-359.6849 1465.6624,-336 1452.3203,-318.3119 1397.7853,-305.379 1355.8433,-297.8097"/>
<polygon fill="#191970" stroke="#191970" points="1356.2088,-294.3207 1345.7556,-296.0472 1355.0039,-301.2162 1356.2088,-294.3207"/>
</g>
<!-- Node22 -->
<g id="node23" class="node">
<title>Node22</title>
<g id="a_node23"><a xlink:href="../../d3/da7/GPUTPCGrid_8h.html" target="_top" xlink:title="GPUTPCGrid.h">
<polygon fill="none" stroke="#000000" points="1370.6624,-336.5 1370.6624,-355.5 1456.6624,-355.5 1456.6624,-336.5 1370.6624,-336.5"/>
<text text-anchor="middle" x="1413.6624" y="-343.5" font-family="Helvetica,sans-Serif" font-size="10.00" fill="#000000">GPUTPCGrid.h</text>
</a>
</g>
</g>
<!-- Node21&#45;&gt;Node22 -->
<g id="edge27" class="edge">
<title>Node21&#45;&gt;Node22</title>
<path fill="none" stroke="#191970" d="M1393.0171,-392.2455C1396.3869,-384.6973 1401.1554,-374.0158 1405.2608,-364.8197"/>
<polygon fill="#191970" stroke="#191970" points="1408.4771,-366.2009 1409.3577,-355.6427 1402.0851,-363.3473 1408.4771,-366.2009"/>
</g>
<!-- Node22&#45;&gt;Node17 -->
<g id="edge28" class="edge">
<title>Node22&#45;&gt;Node17</title>
<path fill="none" stroke="#191970" d="M1394.6761,-336.2455C1377.4832,-327.4125 1351.9387,-314.2887 1332.4492,-304.2758"/>
<polygon fill="#191970" stroke="#191970" points="1333.9255,-301.0993 1323.4312,-299.6427 1330.7266,-307.3257 1333.9255,-301.0993"/>
</g>
<!-- Node23&#45;&gt;Node4 -->
<g id="edge30" class="edge">
<title>Node23&#45;&gt;Node4</title>
<path fill="none" stroke="#191970" d="M546.6624,-336.4116C546.6624,-317.0538 546.6624,-271.9167 546.6624,-234 546.6624,-234 546.6624,-234 546.6624,-178 546.6624,-140.9295 565.1225,-129.7589 597.6624,-112 637.912,-90.0335 933.6986,-74.5454 1066.0064,-68.6422"/>
<polygon fill="#191970" stroke="#191970" points="1066.1711,-72.1384 1076.0068,-68.2004 1065.8621,-65.1453 1066.1711,-72.1384"/>
</g>
<!-- Node24 -->
<g id="node25" class="node">
<title>Node24</title>
<polygon fill="none" stroke="#bfbfbf" points="575.1624,-280.5 575.1624,-299.5 622.1624,-299.5 622.1624,-280.5 575.1624,-280.5"/>
<text text-anchor="middle" x="598.6624" y="-287.5" font-family="Helvetica,sans-Serif" font-size="10.00" fill="#000000">cmath</text>
</g>
<!-- Node23&#45;&gt;Node24 -->
<g id="edge31" class="edge">
<title>Node23&#45;&gt;Node24</title>
<path fill="none" stroke="#191970" d="M555.7202,-336.2455C563.1766,-328.2155 573.9259,-316.6394 582.8042,-307.0781"/>
<polygon fill="#191970" stroke="#191970" points="585.4688,-309.3522 589.7085,-299.6427 580.3392,-304.589 585.4688,-309.3522"/>
</g>
<!-- Node25 -->
<g id="node26" class="node">
<title>Node25</title>
<polygon fill="none" stroke="#bfbfbf" points="1483.6624,-280.5 1483.6624,-299.5 1547.6624,-299.5 1547.6624,-280.5 1483.6624,-280.5"/>
<text text-anchor="middle" x="1515.6624" y="-287.5" font-family="Helvetica,sans-Serif" font-size="10.00" fill="#000000">algorithm</text>
</g>
<!-- Node23&#45;&gt;Node25 -->
<g id="edge32" class="edge">
<title>Node23&#45;&gt;Node25</title>
<path fill="none" stroke="#191970" d="M604.4741,-342.8114C737.0966,-335.4743 1073.4478,-316.7381 1354.6624,-300 1395.0236,-297.5977 1441.0673,-294.7244 1473.5469,-292.6755"/>
<polygon fill="#191970" stroke="#191970" points="1473.8318,-296.1646 1483.5912,-292.0409 1473.3904,-289.1785 1473.8318,-296.1646"/>
</g>
<!-- Node26&#45;&gt;Node3 -->
<g id="edge36" class="edge">
<title>Node26&#45;&gt;Node3</title>
<path fill="none" stroke="#191970" d="M819.9143,-392.0719C828.3068,-377.2646 846.2126,-349.6753 869.6624,-336 946.9265,-290.9416 982.3007,-326.7089 1067.6624,-300 1088.1633,-293.5855 1091.4841,-287.3667 1111.6624,-280 1152.5695,-265.0657 1200.6834,-252.0912 1234.1755,-243.7638"/>
<polygon fill="#191970" stroke="#191970" points="1235.1998,-247.1163 1244.076,-241.3315 1233.5298,-240.3184 1235.1998,-247.1163"/>
</g>
<!-- Node26&#45;&gt;Node4 -->
<g id="edge34" class="edge">
<title>Node26&#45;&gt;Node4</title>
<path fill="none" stroke="#191970" d="M788.5605,-392.4933C730.1445,-369.5406 596.5756,-306.8177 630.6624,-224 657.3367,-159.1919 678.6773,-142.7323 741.6624,-112 797.3207,-84.8427 970.9761,-73.0237 1065.9851,-68.4787"/>
<polygon fill="#191970" stroke="#191970" points="1066.2215,-71.9716 1076.0479,-68.0104 1065.896,-64.9791 1066.2215,-71.9716"/>
</g>
<!-- Node26&#45;&gt;Node23 -->
<g id="edge35" class="edge">
<title>Node26&#45;&gt;Node23</title>
<path fill="none" stroke="#191970" d="M775.9792,-393.9169C730.4539,-384.4042 654.4958,-368.5323 602.5696,-357.6821"/>
<polygon fill="#191970" stroke="#191970" points="603.0254,-354.2018 592.5209,-355.5824 601.5936,-361.0538 603.0254,-354.2018"/>
</g>
<!-- Node27 -->
<g id="node28" class="node">
<title>Node27</title>
<g id="a_node28"><a xlink:href="../../dd/dc6/GPUSettings_8h.html" target="_top" xlink:title="GPUSettings.h">
<polygon fill="none" stroke="#000000" points="736.6624,-336.5 736.6624,-355.5 822.6624,-355.5 822.6624,-336.5 736.6624,-336.5"/>
<text text-anchor="middle" x="779.6624" y="-343.5" font-family="Helvetica,sans-Serif" font-size="10.00" fill="#000000">GPUSettings.h</text>
</a>
</g>
</g>
<!-- Node26&#45;&gt;Node27 -->
<g id="edge37" class="edge">
<title>Node26&#45;&gt;Node27</title>
<path fill="none" stroke="#191970" d="M808.5659,-392.2455C803.7479,-384.5367 796.8873,-373.5598 791.0592,-364.2348"/>
<polygon fill="#191970" stroke="#191970" points="793.9572,-362.2677 785.6891,-355.6427 788.0212,-365.9777 793.9572,-362.2677"/>
</g>
<!-- Node33 -->
<g id="node34" class="node">
<title>Node33</title>
<g id="a_node34"><a xlink:href="../../d6/d1b/GPUTPCGeometry_8h.html" target="_top" xlink:title="GPUTPCGeometry.h">
<polygon fill="none" stroke="#000000" points="640.1624,-224.5 640.1624,-243.5 753.1624,-243.5 753.1624,-224.5 640.1624,-224.5"/>
<text text-anchor="middle" x="696.6624" y="-231.5" font-family="Helvetica,sans-Serif" font-size="10.00" fill="#000000">GPUTPCGeometry.h</text>
</a>
</g>
</g>
<!-- Node26&#45;&gt;Node33 -->
<g id="edge46" class="edge">
<title>Node26&#45;&gt;Node33</title>
<path fill="none" stroke="#191970" d="M782.5904,-392.39C763.9592,-385.2234 741.5021,-373.5902 727.6624,-356 704.0026,-325.9283 698.2056,-279.9222 696.9047,-253.8451"/>
<polygon fill="#191970" stroke="#191970" points="700.398,-253.5764 696.5792,-243.6937 693.4016,-253.8008 700.398,-253.5764"/>
</g>
<!-- Node34 -->
<g id="node35" class="node">
<title>Node34</title>
<g id="a_node35"><a xlink:href="../../d9/d9c/GPUTPCGMPolynomialField_8h.html" target="_top" xlink:title="GPUTPCGMPolynomialField.h">
<polygon fill="none" stroke="#000000" points="878.6624,-336.5 878.6624,-355.5 1036.6624,-355.5 1036.6624,-336.5 878.6624,-336.5"/>
<text text-anchor="middle" x="957.6624" y="-343.5" font-family="Helvetica,sans-Serif" font-size="10.00" fill="#000000">GPUTPCGMPolynomialField.h</text>
</a>
</g>
</g>
<!-- Node26&#45;&gt;Node34 -->
<g id="edge48" class="edge">
<title>Node26&#45;&gt;Node34</title>
<path fill="none" stroke="#191970" d="M839.245,-392.3733C862.612,-383.2226 897.9487,-369.3844 923.9409,-359.2057"/>
<polygon fill="#191970" stroke="#191970" points="925.3655,-362.4066 933.4006,-355.5011 922.8129,-355.8886 925.3655,-362.4066"/>
</g>
<!-- Node27&#45;&gt;Node4 -->
<g id="edge38" class="edge">
<title>Node27&#45;&gt;Node4</title>
<path fill="none" stroke="#191970" d="M779.3054,-336.4698C778.9091,-315.0097 780.2374,-261.8213 800.6624,-224 835.3284,-159.8085 856.0807,-145.9333 920.6624,-112 965.8784,-88.2421 1022.805,-76.7351 1065.8242,-71.1727"/>
<polygon fill="#191970" stroke="#191970" points="1066.3861,-74.6302 1075.8893,-69.9463 1065.5393,-67.6816 1066.3861,-74.6302"/>
</g>
<!-- Node28 -->
<g id="node29" class="node">
<title>Node28</title>
<polygon fill="none" stroke="#bfbfbf" points="1012.1624,-280.5 1012.1624,-299.5 1059.1624,-299.5 1059.1624,-280.5 1012.1624,-280.5"/>
<text text-anchor="middle" x="1035.6624" y="-287.5" font-family="Helvetica,sans-Serif" font-size="10.00" fill="#000000">vector</text>
</g>
<!-- Node27&#45;&gt;Node28 -->
<g id="edge39" class="edge">
<title>Node27&#45;&gt;Node28</title>
<path fill="none" stroke="#191970" d="M822.6767,-338.3276C865.6671,-330.3928 933.8301,-317.0922 1001.9019,-300.016"/>
<polygon fill="#191970" stroke="#191970" points="1003.1092,-303.3207 1011.9416,-297.4694 1001.388,-296.5356 1003.1092,-303.3207"/>
</g>
<!-- Node29 -->
<g id="node30" class="node">
<title>Node29</title>
<polygon fill="none" stroke="#bfbfbf" points="949.6624,-280.5 949.6624,-299.5 993.6624,-299.5 993.6624,-280.5 949.6624,-280.5"/>
<text text-anchor="middle" x="971.6624" y="-287.5" font-family="Helvetica,sans-Serif" font-size="10.00" fill="#000000">string</text>
</g>
<!-- Node27&#45;&gt;Node29 -->
<g id="edge40" class="edge">
<title>Node27&#45;&gt;Node29</title>
<path fill="none" stroke="#191970" d="M812.6684,-336.3733C848.287,-325.9845 904.6197,-309.5541 939.7909,-299.2959"/>
<polygon fill="#191970" stroke="#191970" points="940.9276,-302.6102 949.5476,-296.4502 938.9675,-295.8902 940.9276,-302.6102"/>
</g>
<!-- Node30 -->
<g id="node31" class="node">
<title>Node30</title>
<g id="a_node31"><a xlink:href="../../da/d08/qconfig_8h.html" target="_top" xlink:title="utils/qconfig.h">
<polygon fill="none" stroke="#000000" points="808.1624,-280.5 808.1624,-299.5 893.1624,-299.5 893.1624,-280.5 808.1624,-280.5"/>
<text text-anchor="middle" x="850.6624" y="-287.5" font-family="Helvetica,sans-Serif" font-size="10.00" fill="#000000">utils/qconfig.h</text>
</a>
</g>
</g>
<!-- Node27&#45;&gt;Node30 -->
<g id="edge41" class="edge">
<title>Node27&#45;&gt;Node30</title>
<path fill="none" stroke="#191970" d="M792.0297,-336.2455C802.6179,-327.8943 818.0689,-315.7076 830.4518,-305.9408"/>
<polygon fill="#191970" stroke="#191970" points="832.7527,-308.5837 838.4369,-299.6427 828.4177,-303.0875 832.7527,-308.5837"/>
</g>
<!-- Node31 -->
<g id="node32" class="node">
<title>Node31</title>
<g id="a_node32"><a xlink:href="../../d8/de9/qconfigoptions_8h.html" target="_top" xlink:title="qconfigoptions.h">
<polygon fill="none" stroke="#000000" points="810.1624,-224.5 810.1624,-243.5 907.1624,-243.5 907.1624,-224.5 810.1624,-224.5"/>
<text text-anchor="middle" x="858.6624" y="-231.5" font-family="Helvetica,sans-Serif" font-size="10.00" fill="#000000">qconfigoptions.h</text>
</a>
</g>
</g>
<!-- Node30&#45;&gt;Node31 -->
<g id="edge42" class="edge">
<title>Node30&#45;&gt;Node31</title>
<path fill="none" stroke="#191970" d="M852.0559,-280.2455C853.0998,-272.9382 854.5632,-262.6944 855.8475,-253.7046"/>
<polygon fill="#191970" stroke="#191970" points="859.3354,-254.0372 857.2849,-243.6427 852.4058,-253.0472 859.3354,-254.0372"/>
</g>
<!-- Node32 -->
<g id="node33" class="node">
<title>Node32</title>
<g id="a_node33"><a xlink:href="../../d4/d57/GPUSettingsList_8h.html" target="_top" xlink:title="GPUSettingsList.h">
<polygon fill="none" stroke="#000000" points="883.6624,-168.5 883.6624,-187.5 987.6624,-187.5 987.6624,-168.5 883.6624,-168.5"/>
<text text-anchor="middle" x="935.6624" y="-175.5" font-family="Helvetica,sans-Serif" font-size="10.00" fill="#000000">GPUSettingsList.h</text>
</a>
</g>
</g>
<!-- Node31&#45;&gt;Node32 -->
<g id="edge43" class="edge">
<title>Node31&#45;&gt;Node32</title>
<path fill="none" stroke="#191970" d="M872.0748,-224.2455C883.6682,-215.814 900.6372,-203.4729 914.1303,-193.6598"/>
<polygon fill="#191970" stroke="#191970" points="916.375,-196.355 922.4038,-187.6427 912.2578,-190.6938 916.375,-196.355"/>
</g>
<!-- Node32&#45;&gt;Node7 -->
<g id="edge44" class="edge">
<title>Node32&#45;&gt;Node7</title>
<path fill="none" stroke="#191970" d="M949.5974,-168.2455C961.7571,-159.7337 979.6089,-147.2375 993.6909,-137.3801"/>
<polygon fill="#191970" stroke="#191970" points="995.702,-140.2447 1001.8872,-131.6427 991.6877,-134.51 995.702,-140.2447"/>
</g>
<!-- Node32&#45;&gt;Node27 -->
<g id="edge45" class="edge">
<title>Node32&#45;&gt;Node27</title>
<path fill="none" stroke="#191970" d="M935.7643,-187.6208C935.4801,-210.216 931.6442,-267.2311 901.6624,-300 890.9201,-311.741 855.1749,-324.4613 825.1326,-333.5433"/>
<polygon fill="#191970" stroke="#191970" points="823.805,-330.286 815.2073,-336.4772 825.7893,-336.9989 823.805,-330.286"/>
</g>
<!-- Node33&#45;&gt;Node4 -->
<g id="edge47" class="edge">
<title>Node33&#45;&gt;Node4</title>
<path fill="none" stroke="#191970" d="M699.1019,-224.3613C705.6452,-200.6873 725.9848,-139.6088 767.6624,-112 815.2759,-80.4591 975.3877,-70.529 1065.9141,-67.4141"/>
<polygon fill="#191970" stroke="#191970" points="1066.1795,-70.9074 1076.0601,-67.0835 1065.9514,-63.9112 1066.1795,-70.9074"/>
</g>
<!-- Node34&#45;&gt;Node17 -->
<g id="edge49" class="edge">
<title>Node34&#45;&gt;Node17</title>
<path fill="none" stroke="#191970" d="M1016.9196,-336.4369C1083.4797,-325.6952 1190.4208,-308.4367 1253.4821,-298.2597"/>
<polygon fill="#191970" stroke="#191970" points="1254.2768,-301.6768 1263.5914,-296.6282 1253.1615,-294.7662 1254.2768,-301.6768"/>
</g>
<!-- Node35&#45;&gt;Node4 -->
<g id="edge51" class="edge">
<title>Node35&#45;&gt;Node4</title>
<path fill="none" stroke="#191970" d="M1608.0672,-392.3442C1644.2391,-369.6756 1727.6624,-309.2391 1727.6624,-234 1727.6624,-234 1727.6624,-234 1727.6624,-178 1727.6624,-125.1186 1678.5173,-129.6335 1628.6624,-112 1550.0406,-84.1918 1309.3242,-72.2358 1193.3859,-67.9847"/>
<polygon fill="#191970" stroke="#191970" points="1193.3564,-64.4814 1183.2373,-67.6206 1193.1054,-71.4769 1193.3564,-64.4814"/>
</g>
<!-- Node35&#45;&gt;Node36 -->
<g id="edge52" class="edge">
<title>Node35&#45;&gt;Node36</title>
<path fill="none" stroke="#191970" d="M1592.7076,-392.2455C1593.4905,-384.9382 1594.588,-374.6944 1595.5512,-365.7046"/>
<polygon fill="#191970" stroke="#191970" points="1599.044,-365.9587 1596.6293,-355.6427 1592.0838,-365.2129 1599.044,-365.9587"/>
</g>
<!-- Node36&#45;&gt;Node3 -->
<g id="edge54" class="edge">
<title>Node36&#45;&gt;Node3</title>
<path fill="none" stroke="#191970" d="M1594.484,-336.0606C1589.19,-321.2385 1577.0816,-293.6302 1556.6624,-280 1518.239,-254.3516 1386.136,-241.6349 1317.6254,-236.6388"/>
<polygon fill="#191970" stroke="#191970" points="1317.8206,-233.1439 1307.5986,-235.9297 1317.3267,-240.1265 1317.8206,-233.1439"/>
</g>
<!-- Node36&#45;&gt;Node4 -->
<g id="edge53" class="edge">
<title>Node36&#45;&gt;Node4</title>
<path fill="none" stroke="#191970" d="M1606.0999,-336.2711C1621.2874,-317.723 1651.6624,-275.4461 1651.6624,-234 1651.6624,-234 1651.6624,-234 1651.6624,-178 1651.6624,-140.6561 1632.4254,-129.9209 1599.6624,-112 1564.8471,-92.9565 1313.8724,-76.4074 1193.6043,-69.4718"/>
<polygon fill="#191970" stroke="#191970" points="1193.6136,-65.9667 1183.4301,-68.89 1193.214,-72.9553 1193.6136,-65.9667"/>
</g>
<!-- Node36&#45;&gt;Node14 -->
<g id="edge55" class="edge">
<title>Node36&#45;&gt;Node14</title>
<path fill="none" stroke="#191970" d="M1629.4651,-336.3733C1661.8589,-326.5676 1712.0343,-311.3793 1746.0615,-301.0792"/>
<polygon fill="#191970" stroke="#191970" points="1747.5086,-304.2981 1756.0657,-298.0509 1745.4805,-297.5983 1747.5086,-304.2981"/>
</g>
<!-- Node36&#45;&gt;Node25 -->
<g id="edge56" class="edge">
<title>Node36&#45;&gt;Node25</title>
<path fill="none" stroke="#191970" d="M1583.3791,-336.2455C1570.9154,-327.7337 1552.6173,-315.2375 1538.1833,-305.3801"/>
<polygon fill="#191970" stroke="#191970" points="1540.014,-302.392 1529.7821,-299.6427 1536.0662,-308.1726 1540.014,-302.392"/>
</g>
<!-- Node37&#45;&gt;Node17 -->
<g id="edge60" class="edge">
<title>Node37&#45;&gt;Node17</title>
<path fill="none" stroke="#191970" d="M1100.9151,-392.4013C1101.8301,-378.0241 1105.7173,-350.9892 1121.6624,-336 1140.5639,-318.2317 1206.1211,-304.8423 1253.3707,-297.2144"/>
<polygon fill="#191970" stroke="#191970" points="1254.1156,-300.6404 1263.4502,-295.6289 1253.0278,-293.7254 1254.1156,-300.6404"/>
</g>
<!-- Node37&#45;&gt;Node23 -->
<g id="edge61" class="edge">
<title>Node37&#45;&gt;Node23</title>
<path fill="none" stroke="#191970" d="M1039.5243,-395.82C935.1153,-385.266 723.2055,-363.8455 614.4303,-352.8502"/>
<polygon fill="#191970" stroke="#191970" points="614.534,-349.3429 604.2327,-351.8194 613.83,-356.3074 614.534,-349.3429"/>
</g>
<!-- Node38 -->
<g id="node39" class="node">
<title>Node38</title>
<g id="a_node39"><a xlink:href="../../df/d00/GPUTPCBaseTrackParam_8h.html" target="_top" xlink:title="GPUTPCBaseTrackParam.h">
<polygon fill="none" stroke="#000000" points="1130.6624,-336.5 1130.6624,-355.5 1276.6624,-355.5 1276.6624,-336.5 1130.6624,-336.5"/>
<text text-anchor="middle" x="1203.6624" y="-343.5" font-family="Helvetica,sans-Serif" font-size="10.00" fill="#000000">GPUTPCBaseTrackParam.h</text>
</a>
</g>
</g>
<!-- Node37&#45;&gt;Node38 -->
<g id="edge58" class="edge">
<title>Node37&#45;&gt;Node38</title>
<path fill="none" stroke="#191970" d="M1118.6037,-392.2455C1134.7024,-383.4928 1158.5504,-370.527 1176.9015,-360.5496"/>
<polygon fill="#191970" stroke="#191970" points="1178.8131,-363.4942 1185.9268,-355.6427 1175.4695,-357.3444 1178.8131,-363.4942"/>
</g>
<!-- Node38&#45;&gt;Node17 -->
<g id="edge59" class="edge">
<title>Node38&#45;&gt;Node17</title>
<path fill="none" stroke="#191970" d="M1221.2553,-336.2455C1237.0415,-327.4928 1260.4263,-314.527 1278.4212,-304.5496"/>
<polygon fill="#191970" stroke="#191970" points="1280.2227,-307.5528 1287.2712,-299.6427 1276.8283,-301.4308 1280.2227,-307.5528"/>
</g>
<!-- Node39&#45;&gt;Node17 -->
<g id="edge64" class="edge">
<title>Node39&#45;&gt;Node17</title>
<path fill="none" stroke="#191970" d="M1247.6072,-392.1894C1259.7243,-383.9477 1275.9178,-371.1109 1285.6624,-356 1294.7387,-341.9256 1299.5749,-323.4281 1302.0915,-309.5975"/>
<polygon fill="#191970" stroke="#191970" points="1305.5551,-310.1019 1303.6492,-299.6799 1298.6399,-309.0157 1305.5551,-310.1019"/>
</g>
<!-- Node39&#45;&gt;Node38 -->
<g id="edge63" class="edge">
<title>Node39&#45;&gt;Node38</title>
<path fill="none" stroke="#191970" d="M1226.7852,-392.2455C1223.0111,-384.6973 1217.6703,-374.0158 1213.0723,-364.8197"/>
<polygon fill="#191970" stroke="#191970" points="1216.0865,-363.0217 1208.4838,-355.6427 1209.8255,-366.1522 1216.0865,-363.0217"/>
</g>
<!-- Node40&#45;&gt;Node3 -->
<g id="edge69" class="edge">
<title>Node40&#45;&gt;Node3</title>
<path fill="none" stroke="#191970" d="M1616.8167,-504.2224C1614.7785,-490.564 1613.0506,-465.4862 1623.6624,-448 1639.4029,-422.0629 1666.9136,-438.5135 1681.6624,-412 1696.3178,-385.6547 1658.2324,-341.4999 1653.6624,-336 1627.3032,-304.2773 1617.6676,-296.0233 1579.6624,-280 1533.1338,-260.3832 1389.338,-244.6372 1317.4578,-237.755"/>
<polygon fill="#191970" stroke="#191970" points="1317.6793,-234.2605 1307.3944,-236.8045 1317.021,-241.2294 1317.6793,-234.2605"/>
</g>
<!-- Node41 -->
<g id="node42" class="node">
<title>Node41</title>
<g id="a_node42"><a xlink:href="../../de/d0d/GPUErrorCodes_8h.html" target="_top" xlink:title="GPUErrorCodes.h">
<polygon fill="none" stroke="#000000" points="1632.6624,-448.5 1632.6624,-467.5 1732.6624,-467.5 1732.6624,-448.5 1632.6624,-448.5"/>
<text text-anchor="middle" x="1682.6624" y="-455.5" font-family="Helvetica,sans-Serif" font-size="10.00" fill="#000000">GPUErrorCodes.h</text>
</a>
</g>
</g>
<!-- Node40&#45;&gt;Node41 -->
<g id="edge70" class="edge">
<title>Node40&#45;&gt;Node41</title>
<path fill="none" stroke="#191970" d="M1629.8104,-504.2455C1639.1711,-496.0549 1652.7482,-484.1749 1663.7974,-474.5069"/>
<polygon fill="#191970" stroke="#191970" points="1666.4212,-476.8618 1671.6422,-467.6427 1661.8117,-471.5937 1666.4212,-476.8618"/>
</g>
<!-- Node42&#45;&gt;Node4 -->
<g id="edge72" class="edge">
<title>Node42&#45;&gt;Node4</title>
<path fill="none" stroke="#191970" d="M470.4673,-224.2652C475.4663,-200.372 491.9103,-138.8328 532.6624,-112 576.4075,-83.1965 921.2812,-71.2349 1066.0394,-67.4491"/>
<polygon fill="#191970" stroke="#191970" points="1066.2025,-70.9461 1076.1093,-67.1905 1066.0227,-63.9484 1066.2025,-70.9461"/>
</g>
<!-- Node43&#45;&gt;Node4 -->
<g id="edge74" class="edge">
<title>Node43&#45;&gt;Node4</title>
<path fill="none" stroke="#191970" d="M1863.6589,-504.3308C1874.8222,-496.1671 1889.2006,-483.3661 1895.6624,-468 1899.1082,-459.8061 1896.2217,-456.8713 1895.6624,-448 1891.2092,-377.3577 1875.6624,-360.7826 1875.6624,-290 1875.6624,-290 1875.6624,-290 1875.6624,-178 1875.6624,-118.297 1815.8157,-129.2611 1758.6624,-112 1654.2315,-80.4603 1331.2844,-70.1501 1193.2662,-67.1293"/>
<polygon fill="#191970" stroke="#191970" points="1193.3305,-63.63 1183.2582,-66.916 1193.1813,-70.6284 1193.3305,-63.63"/>
</g>
<!-- Node43&#45;&gt;Node13 -->
<g id="edge75" class="edge">
<title>Node43&#45;&gt;Node13</title>
<path fill="none" stroke="#191970" d="M1846.7464,-504.2455C1845.311,-496.9382 1843.2988,-486.6944 1841.533,-477.7046"/>
<polygon fill="#191970" stroke="#191970" points="1844.9184,-476.7805 1839.5565,-467.6427 1838.0497,-478.1298 1844.9184,-476.7805"/>
</g>
<!-- Node44&#45;&gt;Node3 -->
<g id="edge77" class="edge">
<title>Node44&#45;&gt;Node3</title>
<path fill="none" stroke="#191970" d="M589.4553,-448.3374C615.2755,-417.1391 701.903,-318.8699 798.6624,-280 877.2318,-248.4373 1132.4144,-237.9851 1233.6876,-235.027"/>
<polygon fill="#191970" stroke="#191970" points="1233.9493,-238.5211 1243.8466,-234.7404 1233.7519,-231.5238 1233.9493,-238.5211"/>
</g>
<!-- Node45&#45;&gt;Node44 -->
<g id="edge79" class="edge">
<title>Node45&#45;&gt;Node44</title>
<path fill="none" stroke="#191970" d="M524.4753,-560.3636C536.1554,-552.0431 552.0303,-539.0146 561.6624,-524 570.7426,-509.8459 575.8794,-491.3562 578.6666,-477.5489"/>
<polygon fill="#191970" stroke="#191970" points="582.1216,-478.1105 580.4287,-467.6518 575.23,-476.8835 582.1216,-478.1105"/>
</g>
<!-- Node46 -->
<g id="node47" class="node">
<title>Node46</title>
<g id="a_node47"><a xlink:href="../../d1/d90/ChargePos_8h.html" target="_top" xlink:title="ChargePos.h">
<polygon fill="none" stroke="#000000" points="476.1624,-504.5 476.1624,-523.5 553.1624,-523.5 553.1624,-504.5 476.1624,-504.5"/>
<text text-anchor="middle" x="514.6624" y="-511.5" font-family="Helvetica,sans-Serif" font-size="10.00" fill="#000000">ChargePos.h</text>
</a>
</g>
</g>
<!-- Node45&#45;&gt;Node46 -->
<g id="edge80" class="edge">
<title>Node45&#45;&gt;Node46</title>
<path fill="none" stroke="#191970" d="M510.5334,-560.2455C511.1858,-552.9382 512.1004,-542.6944 512.9031,-533.7046"/>
<polygon fill="#191970" stroke="#191970" points="516.3982,-533.9143 513.8015,-523.6427 509.4259,-533.2918 516.3982,-533.9143"/>
</g>
<!-- Node46&#45;&gt;Node44 -->
<g id="edge81" class="edge">
<title>Node46&#45;&gt;Node44</title>
<path fill="none" stroke="#191970" d="M526.333,-504.2455C536.2285,-495.9746 550.6251,-483.9416 562.2525,-474.2232"/>
<polygon fill="#191970" stroke="#191970" points="564.6974,-476.7413 570.1257,-467.6427 560.2082,-471.3703 564.6974,-476.7413"/>
</g>
<!-- Node47&#45;&gt;Node23 -->
<g id="edge84" class="edge">
<title>Node47&#45;&gt;Node23</title>
<path fill="none" stroke="#191970" d="M560.1334,-561.2684C556.9337,-560.802 553.7546,-560.3728 550.6624,-560 490.7415,-552.7749 49.9014,-568.0689 8.6624,-524 -59.6642,-450.9845 319.774,-381.6879 478.9325,-356.2458"/>
<polygon fill="#191970" stroke="#191970" points="479.7625,-359.658 489.0904,-354.6338 478.6654,-352.7445 479.7625,-359.658"/>
</g>
<!-- Node47&#45;&gt;Node44 -->
<g id="edge83" class="edge">
<title>Node47&#45;&gt;Node44</title>
<path fill="none" stroke="#191970" d="M606.226,-560.0853C604.2623,-547.1074 600.433,-523.6948 595.6624,-504 593.5308,-495.1997 590.6922,-485.5987 588.1283,-477.4553"/>
<polygon fill="#191970" stroke="#191970" points="591.4065,-476.2173 584.9988,-467.7798 584.7462,-478.3716 591.4065,-476.2173"/>
</g>
<!-- Node48&#45;&gt;Node44 -->
<g id="edge87" class="edge">
<title>Node48&#45;&gt;Node44</title>
<path fill="none" stroke="#191970" d="M240.9124,-728.3262C225.1624,-709.87 193.6624,-667.7399 193.6624,-626 193.6624,-626 193.6624,-626 193.6624,-570 193.6624,-503.6259 405.905,-474.1672 516.4384,-463.326"/>
<polygon fill="#191970" stroke="#191970" points="516.8626,-466.8015 526.4836,-462.3646 516.1955,-459.8334 516.8626,-466.8015"/>
</g>
<!-- Node48&#45;&gt;Node45 -->
<g id="edge91" class="edge">
<title>Node48&#45;&gt;Node45</title>
<path fill="none" stroke="#191970" d="M250.1101,-728.341C251.7325,-705.1536 259.2164,-646.044 293.6624,-616 319.043,-593.8629 411.3094,-580.446 466.7096,-574.2058"/>
<polygon fill="#191970" stroke="#191970" points="467.3735,-577.6542 476.934,-573.0884 466.6128,-570.6957 467.3735,-577.6542"/>
</g>
<!-- Node49 -->
<g id="node50" class="node">
<title>Node49</title>
<g id="a_node50"><a xlink:href="../../dd/d0b/GPUCommonAlgorithm_8h.html" target="_top" xlink:title="GPUCommonAlgorithm.h">
<polygon fill="none" stroke="#000000" points="2114.1624,-336.5 2114.1624,-355.5 2253.1624,-355.5 2253.1624,-336.5 2114.1624,-336.5"/>
<text text-anchor="middle" x="2183.6624" y="-343.5" font-family="Helvetica,sans-Serif" font-size="10.00" fill="#000000">GPUCommonAlgorithm.h</text>
</a>
</g>
</g>
<!-- Node48&#45;&gt;Node49 -->
<g id="edge88" class="edge">
<title>Node48&#45;&gt;Node49</title>
<path fill="none" stroke="#191970" d="M279.5353,-737.8141C518.0035,-736.1411 2103.6624,-721.4285 2103.6624,-626 2103.6624,-626 2103.6624,-626 2103.6624,-458 2103.6624,-417.601 2138.5544,-381.7136 2162.2518,-361.9987"/>
<polygon fill="#191970" stroke="#191970" points="2164.4749,-364.7024 2170.0915,-355.7189 2160.0986,-359.2391 2164.4749,-364.7024"/>
</g>
<!-- Node50 -->
<g id="node51" class="node">
<title>Node50</title>
<g id="a_node51"><a xlink:href="../../d6/d63/CfConsts_8h.html" target="_top" xlink:title="CfConsts.h">
<polygon fill="none" stroke="#000000" points="58.1624,-672.5 58.1624,-691.5 127.1624,-691.5 127.1624,-672.5 58.1624,-672.5"/>
<text text-anchor="middle" x="92.6624" y="-679.5" font-family="Helvetica,sans-Serif" font-size="10.00" fill="#000000">CfConsts.h</text>
</a>
</g>
</g>
<!-- Node48&#45;&gt;Node50 -->
<g id="edge92" class="edge">
<title>Node48&#45;&gt;Node50</title>
<path fill="none" stroke="#191970" d="M222.6732,-728.3733C196.7925,-719.1419 157.5376,-705.1402 128.9336,-694.9375"/>
<polygon fill="#191970" stroke="#191970" points="129.8942,-691.5642 119.2995,-691.5011 127.5424,-698.1573 129.8942,-691.5642"/>
</g>
<!-- Node51 -->
<g id="node52" class="node">
<title>Node51</title>
<g id="a_node52"><a xlink:href="../../d1/d59/GPUTPCClusterFinderKernels_8h.html" target="_top" xlink:title="GPUTPCClusterFinderKernels.h">
<polygon fill="none" stroke="#000000" points="814.1624,-672.5 814.1624,-691.5 979.1624,-691.5 979.1624,-672.5 814.1624,-672.5"/>
<text text-anchor="middle" x="896.6624" y="-679.5" font-family="Helvetica,sans-Serif" font-size="10.00" fill="#000000">GPUTPCClusterFinderKernels.h</text>
</a>
</g>
</g>
<!-- Node48&#45;&gt;Node51 -->
<g id="edge94" class="edge">
<title>Node48&#45;&gt;Node51</title>
<path fill="none" stroke="#191970" d="M279.571,-735.4113C371.9503,-727.4156 655.4451,-702.8782 803.8676,-690.0317"/>
<polygon fill="#191970" stroke="#191970" points="804.2197,-693.5144 813.8806,-689.165 803.616,-686.5405 804.2197,-693.5144"/>
</g>
<!-- Node49&#45;&gt;Node4 -->
<g id="edge89" class="edge">
<title>Node49&#45;&gt;Node4</title>
<path fill="none" stroke="#191970" d="M2173.0584,-336.3425C2154.4017,-318.2361 2117.6624,-277.1076 2117.6624,-234 2117.6624,-234 2117.6624,-234 2117.6624,-178 2117.6624,-84.6452 1412.2292,-69.0893 1193.5251,-66.5097"/>
<polygon fill="#191970" stroke="#191970" points="1193.5221,-63.0096 1183.4833,-66.3964 1193.4431,-70.0091 1193.5221,-63.0096"/>
</g>
<!-- Node49&#45;&gt;Node25 -->
<g id="edge90" class="edge">
<title>Node49&#45;&gt;Node25</title>
<path fill="none" stroke="#191970" d="M2113.8964,-336.9846C2110.7772,-336.6396 2107.6881,-336.3095 2104.6624,-336 1900.1351,-315.0808 1654.7916,-298.7192 1557.9408,-292.6031"/>
<polygon fill="#191970" stroke="#191970" points="1558.1543,-289.1097 1547.9545,-291.9757 1557.7153,-296.096 1558.1543,-289.1097"/>
</g>
<!-- Node50&#45;&gt;Node44 -->
<g id="edge93" class="edge">
<title>Node50&#45;&gt;Node44</title>
<path fill="none" stroke="#191970" d="M94.1369,-672.1992C99.3325,-641.4265 119.8243,-546.2739 179.6624,-504 206.5497,-485.005 409.6029,-469.1638 516.4148,-462.0423"/>
<polygon fill="#191970" stroke="#191970" points="516.6941,-465.5316 526.4419,-461.3805 516.2331,-458.5468 516.6941,-465.5316"/>
</g>
<!-- Node51&#45;&gt;Node1 -->
<g id="edge112" class="edge">
<title>Node51&#45;&gt;Node1</title>
<path fill="none" stroke="#191970" d="M871.2203,-672.3733C846.9298,-663.1822 810.1416,-649.2624 783.2081,-639.0713"/>
<polygon fill="#191970" stroke="#191970" points="784.3641,-635.7666 773.7726,-635.5011 781.8868,-642.3136 784.3641,-635.7666"/>
</g>
<!-- Node51&#45;&gt;Node44 -->
<g id="edge95" class="edge">
<title>Node51&#45;&gt;Node44</title>
<path fill="none" stroke="#191970" d="M813.9407,-678.2551C659.8575,-670.8766 342.9347,-653.6383 326.6624,-636 255.1358,-558.4685 441.3218,-495.5999 533.5077,-470.1734"/>
<polygon fill="#191970" stroke="#191970" points="534.4594,-473.5418 543.1932,-467.5443 532.6256,-466.7863 534.4594,-473.5418"/>
</g>
<!-- Node52 -->
<g id="node53" class="node">
<title>Node52</title>
<g id="a_node53"><a xlink:href="../../dc/d10/GPUTPCCFChargeMapFiller_8h.html" target="_top" xlink:title="GPUTPCCFChargeMapFiller.h">
<polygon fill="none" stroke="#000000" points="979.1624,-616.5 979.1624,-635.5 1134.1624,-635.5 1134.1624,-616.5 979.1624,-616.5"/>
<text text-anchor="middle" x="1056.6624" y="-623.5" font-family="Helvetica,sans-Serif" font-size="10.00" fill="#000000">GPUTPCCFChargeMapFiller.h</text>
</a>
</g>
</g>
<!-- Node51&#45;&gt;Node52 -->
<g id="edge96" class="edge">
<title>Node51&#45;&gt;Node52</title>
<path fill="none" stroke="#191970" d="M924.1674,-672.3733C950.5426,-663.1419 990.5476,-649.1402 1019.6982,-638.9375"/>
<polygon fill="#191970" stroke="#191970" points="1021.234,-642.1082 1029.5164,-635.5011 1018.9215,-635.5012 1021.234,-642.1082"/>
</g>
<!-- Node56 -->
<g id="node57" class="node">
<title>Node56</title>
<g id="a_node57"><a xlink:href="../../d7/d30/GPUTPCCFNoiseSuppression_8h.html" target="_top" xlink:title="GPUTPCCFNoiseSuppression.h">
<polygon fill="none" stroke="#000000" points="501.6624,-616.5 501.6624,-635.5 665.6624,-635.5 665.6624,-616.5 501.6624,-616.5"/>
<text text-anchor="middle" x="583.6624" y="-623.5" font-family="Helvetica,sans-Serif" font-size="10.00" fill="#000000">GPUTPCCFNoiseSuppression.h</text>
</a>
</g>
</g>
<!-- Node51&#45;&gt;Node56 -->
<g id="edge113" class="edge">
<title>Node51&#45;&gt;Node56</title>
<path fill="none" stroke="#191970" d="M843.2115,-672.4369C788.8562,-662.712 704.6459,-647.6456 646.9806,-637.3285"/>
<polygon fill="#191970" stroke="#191970" points="647.3531,-633.8396 636.893,-635.5237 646.1202,-640.7302 647.3531,-633.8396"/>
</g>
<!-- Node57 -->
<g id="node58" class="node">
<title>Node57</title>
<g id="a_node58"><a xlink:href="../../dc/d21/GPUTPCCFDeconvolution_8h.html" target="_top" xlink:title="GPUTPCCFDeconvolution.h">
<polygon fill="none" stroke="#000000" points="335.6624,-616.5 335.6624,-635.5 483.6624,-635.5 483.6624,-616.5 335.6624,-616.5"/>
<text text-anchor="middle" x="409.6624" y="-623.5" font-family="Helvetica,sans-Serif" font-size="10.00" fill="#000000">GPUTPCCFDeconvolution.h</text>
</a>
</g>
</g>
<!-- Node51&#45;&gt;Node57 -->
<g id="edge120" class="edge">
<title>Node51&#45;&gt;Node57</title>
<path fill="none" stroke="#191970" d="M813.854,-672.7313C734.4914,-663.8117 611.0251,-649.8397 494.0789,-636.1604"/>
<polygon fill="#191970" stroke="#191970" points="494.2105,-632.652 483.8713,-634.9652 493.3964,-639.6045 494.2105,-632.652"/>
</g>
<!-- Node58 -->
<g id="node59" class="node">
<title>Node58</title>
<g id="a_node59"><a xlink:href="../../dc/deb/GPUTPCCFStreamCompaction_8h.html" target="_top" xlink:title="GPUTPCCFStreamCompaction.h">
<polygon fill="none" stroke="#000000" points="1152.1624,-616.5 1152.1624,-635.5 1323.1624,-635.5 1323.1624,-616.5 1152.1624,-616.5"/>
<text text-anchor="middle" x="1237.6624" y="-623.5" font-family="Helvetica,sans-Serif" font-size="10.00" fill="#000000">GPUTPCCFStreamCompaction.h</text>
</a>
</g>
</g>
<!-- Node51&#45;&gt;Node58 -->
<g id="edge127" class="edge">
<title>Node51&#45;&gt;Node58</title>
<path fill="none" stroke="#191970" d="M954.895,-672.4369C1014.3579,-662.6717 1106.6165,-647.5207 1169.459,-637.2006"/>
<polygon fill="#191970" stroke="#191970" points="1170.3695,-640.598 1179.6701,-635.5237 1169.2351,-633.6905 1170.3695,-640.598"/>
</g>
<!-- Node59 -->
<g id="node60" class="node">
<title>Node59</title>
<g id="a_node60"><a xlink:href="../../dd/d99/GPUTPCCFClusterizer_8h.html" target="_top" xlink:title="GPUTPCCFClusterizer.h">
<polygon fill="none" stroke="#000000" points="832.1624,-616.5 832.1624,-635.5 961.1624,-635.5 961.1624,-616.5 832.1624,-616.5"/>
<text text-anchor="middle" x="896.6624" y="-623.5" font-family="Helvetica,sans-Serif" font-size="10.00" fill="#000000">GPUTPCCFClusterizer.h</text>
</a>
</g>
</g>
<!-- Node51&#45;&gt;Node59 -->
<g id="edge132" class="edge">
<title>Node51&#45;&gt;Node59</title>
<path fill="none" stroke="#191970" d="M896.6624,-672.2455C896.6624,-664.9382 896.6624,-654.6944 896.6624,-645.7046"/>
<polygon fill="#191970" stroke="#191970" points="900.1625,-645.6426 896.6624,-635.6427 893.1625,-645.6427 900.1625,-645.6426"/>
</g>
<!-- Node60 -->
<g id="node61" class="node">
<title>Node60</title>
<g id="a_node61"><a xlink:href="../../dd/dd8/GPUTPCCFMCLabelFlattener_8h.html" target="_top" xlink:title="GPUTPCCFMCLabelFlattener.h">
<polygon fill="none" stroke="#000000" points="1470.1624,-616.5 1470.1624,-635.5 1631.1624,-635.5 1631.1624,-616.5 1470.1624,-616.5"/>
<text text-anchor="middle" x="1550.6624" y="-623.5" font-family="Helvetica,sans-Serif" font-size="10.00" fill="#000000">GPUTPCCFMCLabelFlattener.h</text>
</a>
</g>
</g>
<!-- Node51&#45;&gt;Node60 -->
<g id="edge139" class="edge">
<title>Node51&#45;&gt;Node60</title>
<path fill="none" stroke="#191970" d="M979.3967,-676.0141C1087.3437,-668.0329 1282.3704,-653.0288 1459.6841,-636.0705"/>
<polygon fill="#191970" stroke="#191970" points="1460.1014,-639.5466 1469.721,-635.1066 1459.4322,-632.5787 1460.1014,-639.5466"/>
</g>
<!-- Node61 -->
<g id="node62" class="node">
<title>Node61</title>
<g id="a_node62"><a xlink:href="../../dc/d65/GPUTPCCFDecodeZS_8h.html" target="_top" xlink:title="GPUTPCCFDecodeZS.h">
<polygon fill="none" stroke="#000000" points="1649.1624,-616.5 1649.1624,-635.5 1776.1624,-635.5 1776.1624,-616.5 1649.1624,-616.5"/>
<text text-anchor="middle" x="1712.6624" y="-623.5" font-family="Helvetica,sans-Serif" font-size="10.00" fill="#000000">GPUTPCCFDecodeZS.h</text>
</a>
</g>
</g>
<!-- Node51&#45;&gt;Node61 -->
<g id="edge144" class="edge">
<title>Node51&#45;&gt;Node61</title>
<path fill="none" stroke="#191970" d="M979.4006,-678.9465C1115.0482,-673.4846 1393.4089,-660.3666 1638.9015,-636.1123"/>
<polygon fill="#191970" stroke="#191970" points="1639.4869,-639.5714 1649.0907,-635.0972 1638.793,-632.6058 1639.4869,-639.5714"/>
</g>
<!-- Node64 -->
<g id="node65" class="node">
<title>Node64</title>
<g id="a_node65"><a xlink:href="../../d5/d54/GPUTPCCFGather_8h.html" target="_top" xlink:title="GPUTPCCFGather.h">
<polygon fill="none" stroke="#000000" points="1341.6624,-616.5 1341.6624,-635.5 1451.6624,-635.5 1451.6624,-616.5 1341.6624,-616.5"/>
<text text-anchor="middle" x="1396.6624" y="-623.5" font-family="Helvetica,sans-Serif" font-size="10.00" fill="#000000">GPUTPCCFGather.h</text>
</a>
</g>
</g>
<!-- Node51&#45;&gt;Node64 -->
<g id="edge152" class="edge">
<title>Node51&#45;&gt;Node64</title>
<path fill="none" stroke="#191970" d="M979.3821,-674.4268C1064.7696,-666.3419 1202.0919,-652.5956 1331.2894,-635.9921"/>
<polygon fill="#191970" stroke="#191970" points="1331.9008,-639.4422 1341.3694,-634.6886 1331.0031,-632.5 1331.9008,-639.4422"/>
</g>
<!-- Node52&#45;&gt;Node2 -->
<g id="edge98" class="edge">
<title>Node52&#45;&gt;Node2</title>
<path fill="none" stroke="#191970" d="M1079.3541,-616.3733C1100.7335,-607.3032 1132.9681,-593.6279 1156.8987,-583.4755"/>
<polygon fill="#191970" stroke="#191970" points="1158.4281,-586.6287 1166.2669,-579.5011 1155.6942,-580.1846 1158.4281,-586.6287"/>
</g>
<!-- Node52&#45;&gt;Node15 -->
<g id="edge99" class="edge">
<title>Node52&#45;&gt;Node15</title>
<path fill="none" stroke="#191970" d="M1055.9657,-616.2455C1055.4437,-608.9382 1054.712,-598.6944 1054.0699,-589.7046"/>
<polygon fill="#191970" stroke="#191970" points="1057.5549,-589.3679 1053.3512,-579.6427 1050.5727,-589.8667 1057.5549,-589.3679"/>
</g>
<!-- Node52&#45;&gt;Node44 -->
<g id="edge97" class="edge">
<title>Node52&#45;&gt;Node44</title>
<path fill="none" stroke="#191970" d="M988.0354,-616.4865C924.7412,-607.1852 835.7399,-592.6209 802.6624,-580 742.2704,-556.957 735.5015,-534.7814 678.6624,-504 657.0713,-492.3072 632.0138,-480.4668 612.7758,-471.7273"/>
<polygon fill="#191970" stroke="#191970" points="614.1232,-468.4956 603.5681,-467.579 611.2478,-474.8778 614.1232,-468.4956"/>
</g>
<!-- Node52&#45;&gt;Node45 -->
<g id="edge110" class="edge">
<title>Node52&#45;&gt;Node45</title>
<path fill="none" stroke="#191970" d="M978.8862,-616.9481C975.7717,-616.6211 972.688,-616.3038 969.6624,-616 786.9583,-597.6547 736.8597,-609.7896 552.2818,-580.0611"/>
<polygon fill="#191970" stroke="#191970" points="552.6763,-576.5792 542.2434,-578.4247 551.55,-583.488 552.6763,-576.5792"/>
</g>
<!-- Node52&#45;&gt;Node47 -->
<g id="edge111" class="edge">
<title>Node52&#45;&gt;Node47</title>
<path fill="none" stroke="#191970" d="M980.2414,-616.4686C891.0567,-605.3454 745.5933,-587.203 665.3523,-577.1952"/>
<polygon fill="#191970" stroke="#191970" points="665.7803,-573.7215 655.424,-575.9569 664.9139,-580.6677 665.7803,-573.7215"/>
</g>
<!-- Node53 -->
<g id="node54" class="node">
<title>Node53</title>
<g id="a_node54"><a xlink:href="../../d6/d4b/GPUTPCClusterFinder_8h.html" target="_top" xlink:title="GPUTPCClusterFinder.h">
<polygon fill="none" stroke="#000000" points="811.6624,-560.5 811.6624,-579.5 939.6624,-579.5 939.6624,-560.5 811.6624,-560.5"/>
<text text-anchor="middle" x="875.6624" y="-567.5" font-family="Helvetica,sans-Serif" font-size="10.00" fill="#000000">GPUTPCClusterFinder.h</text>
</a>
</g>
</g>
<!-- Node52&#45;&gt;Node53 -->
<g id="edge100" class="edge">
<title>Node52&#45;&gt;Node53</title>
<path fill="none" stroke="#191970" d="M1025.5474,-616.3733C995.3196,-607.021 949.2665,-592.7725 916.1886,-582.5385"/>
<polygon fill="#191970" stroke="#191970" points="916.9592,-579.1133 906.3714,-579.5011 914.8901,-585.8005 916.9592,-579.1133"/>
</g>
<!-- Node53&#45;&gt;Node3 -->
<g id="edge101" class="edge">
<title>Node53&#45;&gt;Node3</title>
<path fill="none" stroke="#191970" d="M898.8934,-560.4278C915.8795,-552.5553 938.6536,-540.0872 954.6624,-524 1002.4135,-476.0151 985.7245,-442.629 1030.6624,-392 1058.2775,-360.8877 1071.1159,-359.1755 1105.6624,-336 1155.3029,-302.6988 1215.8305,-267.6371 1249.6271,-248.53"/>
<polygon fill="#191970" stroke="#191970" points="1251.4235,-251.5352 1258.4194,-243.5786 1247.9886,-245.4359 1251.4235,-251.5352"/>
</g>
<!-- Node53&#45;&gt;Node13 -->
<g id="edge103" class="edge">
<title>Node53&#45;&gt;Node13</title>
<path fill="none" stroke="#191970" d="M939.9017,-563.8071C955.2163,-562.4431 971.5123,-561.0837 986.6624,-560 1137.3782,-549.2193 1521.262,-568.4969 1665.6624,-524 1682.052,-518.9496 1683.0896,-511.184 1698.6624,-504 1728.6755,-490.1544 1764.0608,-478.5062 1791.6177,-470.3953"/>
<polygon fill="#191970" stroke="#191970" points="1792.7571,-473.7093 1801.3916,-467.5696 1790.8129,-466.9847 1792.7571,-473.7093"/>
</g>
<!-- Node53&#45;&gt;Node36 -->
<g id="edge102" class="edge">
<title>Node53&#45;&gt;Node36</title>
<path fill="none" stroke="#191970" d="M939.9296,-564.158C955.2431,-562.7804 971.5316,-561.3269 986.6624,-560 1174.1795,-543.555 1226.1538,-570.0836 1408.6624,-524 1416.2375,-522.0873 1662.3768,-418.5325 1666.6624,-412 1680.2289,-391.321 1654.5467,-372.3284 1630.7557,-360.0801"/>
<polygon fill="#191970" stroke="#191970" points="1632.0017,-356.7942 1621.4777,-355.5708 1628.9418,-363.09 1632.0017,-356.7942"/>
</g>
<!-- Node54 -->
<g id="node55" class="node">
<title>Node54</title>
<g id="a_node55"><a xlink:href="../../d8/dcc/CfFragment_8h.html" target="_top" xlink:title="CfFragment.h">
<polygon fill="none" stroke="#000000" points="863.6624,-504.5 863.6624,-523.5 945.6624,-523.5 945.6624,-504.5 863.6624,-504.5"/>
<text text-anchor="middle" x="904.6624" y="-511.5" font-family="Helvetica,sans-Serif" font-size="10.00" fill="#000000">CfFragment.h</text>
</a>
</g>
</g>
<!-- Node53&#45;&gt;Node54 -->
<g id="edge104" class="edge">
<title>Node53&#45;&gt;Node54</title>
<path fill="none" stroke="#191970" d="M880.7139,-560.2455C884.6643,-552.617 890.2722,-541.7881 895.0682,-532.5267"/>
<polygon fill="#191970" stroke="#191970" points="898.1783,-534.1321 899.6689,-523.6427 891.9623,-530.9131 898.1783,-534.1321"/>
</g>
<!-- Node53&#45;&gt;Node55 -->
<g id="edge107" class="edge">
<title>Node53&#45;&gt;Node55</title>
<path fill="none" stroke="#191970" d="M811.6445,-565.5355C661.728,-555.0805 289.1742,-529.0992 137.9801,-518.5552"/>
<polygon fill="#191970" stroke="#191970" points="138.1334,-515.0574 127.9141,-517.8532 137.6464,-522.0405 138.1334,-515.0574"/>
</g>
<!-- Node54&#45;&gt;Node23 -->
<g id="edge106" class="edge">
<title>Node54&#45;&gt;Node23</title>
<path fill="none" stroke="#191970" d="M883.5831,-504.4114C844.2102,-486.4703 756.8544,-446.5177 683.6624,-412 646.0685,-394.2705 602.8992,-373.3859 575.2306,-359.9324"/>
<polygon fill="#191970" stroke="#191970" points="576.6483,-356.7299 566.1249,-355.501 573.5851,-363.0241 576.6483,-356.7299"/>
</g>
<!-- Node54&#45;&gt;Node44 -->
<g id="edge105" class="edge">
<title>Node54&#45;&gt;Node44</title>
<path fill="none" stroke="#191970" d="M863.525,-506.4747C858.8506,-505.6332 854.1543,-504.7938 849.6624,-504 780.5497,-491.786 701.3253,-478.2445 647.0422,-469.0366"/>
<polygon fill="#191970" stroke="#191970" points="647.3113,-465.5324 636.8669,-467.3118 646.1413,-472.4339 647.3113,-465.5324"/>
</g>
<!-- Node55&#45;&gt;Node23 -->
<g id="edge109" class="edge">
<title>Node55&#45;&gt;Node23</title>
<path fill="none" stroke="#191970" d="M99.5048,-504.4862C179.8251,-476.0183 418.3837,-391.4659 510.1375,-358.9455"/>
<polygon fill="#191970" stroke="#191970" points="511.5651,-362.153 519.8214,-355.5133 509.2266,-355.5551 511.5651,-362.153"/>
</g>
<!-- Node55&#45;&gt;Node44 -->
<g id="edge108" class="edge">
<title>Node55&#45;&gt;Node44</title>
<path fill="none" stroke="#191970" d="M127.9934,-505.7466C132.6139,-505.1287 137.2162,-504.5376 141.6624,-504 306.1279,-484.114 348.197,-487.886 512.6624,-468 513.774,-467.8656 514.8953,-467.7279 516.0242,-467.5872"/>
<polygon fill="#191970" stroke="#191970" points="516.8633,-471.0079 526.3315,-466.2534 515.965,-464.0658 516.8633,-471.0079"/>
</g>
<!-- Node56&#45;&gt;Node2 -->
<g id="edge115" class="edge">
<title>Node56&#45;&gt;Node2</title>
<path fill="none" stroke="#191970" d="M665.9915,-616.8463C668.9172,-616.555 671.8145,-616.2719 674.6624,-616 868.4754,-597.4975 920.2027,-601.8559 1117.8489,-580.0273"/>
<polygon fill="#191970" stroke="#191970" points="1118.4335,-583.4839 1127.985,-578.8991 1117.6591,-576.5269 1118.4335,-583.4839"/>
</g>
<!-- Node56&#45;&gt;Node15 -->
<g id="edge116" class="edge">
<title>Node56&#45;&gt;Node15</title>
<path fill="none" stroke="#191970" d="M663.4876,-616.4686C754.0705,-605.6528 900.2352,-588.2003 985.3012,-578.0431"/>
<polygon fill="#191970" stroke="#191970" points="985.85,-581.5026 995.3644,-576.8416 985.02,-574.5519 985.85,-581.5026"/>
</g>
<!-- Node56&#45;&gt;Node44 -->
<g id="edge114" class="edge">
<title>Node56&#45;&gt;Node44</title>
<path fill="none" stroke="#191970" d="M524.0166,-616.4823C502.6604,-609.9075 480.6727,-598.7919 467.6624,-580 448.4337,-552.2261 447.724,-531.9727 466.6624,-504 478.2645,-486.8633 497.3962,-476.1102 516.7564,-469.3628"/>
<polygon fill="#191970" stroke="#191970" points="518.0684,-472.6191 526.5535,-466.2745 515.9638,-465.9429 518.0684,-472.6191"/>
</g>
<!-- Node56&#45;&gt;Node45 -->
<g id="edge118" class="edge">
<title>Node56&#45;&gt;Node45</title>
<path fill="none" stroke="#191970" d="M570.7726,-616.2455C559.7371,-607.8943 543.6332,-595.7076 530.7271,-585.9408"/>
<polygon fill="#191970" stroke="#191970" points="532.4907,-582.8862 522.4045,-579.6427 528.2666,-588.4681 532.4907,-582.8862"/>
</g>
<!-- Node56&#45;&gt;Node47 -->
<g id="edge119" class="edge">
<title>Node56&#45;&gt;Node47</title>
<path fill="none" stroke="#191970" d="M587.8429,-616.2455C591.0435,-608.7776 595.5584,-598.2427 599.4709,-589.1137"/>
<polygon fill="#191970" stroke="#191970" points="602.8076,-590.2129 603.5299,-579.6427 596.3736,-587.4554 602.8076,-590.2129"/>
</g>
<!-- Node56&#45;&gt;Node53 -->
<g id="edge117" class="edge">
<title>Node56&#45;&gt;Node53</title>
<path fill="none" stroke="#191970" d="M633.5273,-616.4369C684.0257,-606.7522 762.146,-591.7703 815.9229,-581.4569"/>
<polygon fill="#191970" stroke="#191970" points="816.8415,-584.8446 826.0033,-579.5237 815.523,-577.9699 816.8415,-584.8446"/>
</g>
<!-- Node57&#45;&gt;Node2 -->
<g id="edge122" class="edge">
<title>Node57&#45;&gt;Node2</title>
<path fill="none" stroke="#191970" d="M483.8501,-616.829C486.8249,-616.535 489.7711,-616.2571 492.6624,-616 766.9964,-591.6096 839.6686,-607.3515 1118.0055,-579.9786"/>
<polygon fill="#191970" stroke="#191970" points="1118.3891,-583.4578 1127.9942,-578.9866 1117.6972,-576.4921 1118.3891,-583.4578"/>
</g>
<!-- Node57&#45;&gt;Node15 -->
<g id="edge123" class="edge">
<title>Node57&#45;&gt;Node15</title>
<path fill="none" stroke="#191970" d="M483.8575,-616.9076C486.8302,-616.5919 489.774,-616.2879 492.6624,-616 694.9573,-595.8368 746.1398,-597.7297 948.6624,-580 960.5207,-578.9619 973.1335,-577.7989 985.3349,-576.6432"/>
<polygon fill="#191970" stroke="#191970" points="985.8392,-580.1111 995.4616,-575.6771 985.1743,-573.1427 985.8392,-580.1111"/>
</g>
<!-- Node57&#45;&gt;Node44 -->
<g id="edge121" class="edge">
<title>Node57&#45;&gt;Node44</title>
<path fill="none" stroke="#191970" d="M410.3211,-616.2947C412.3819,-593.5171 420.6438,-536.1363 452.6624,-504 469.9165,-486.6825 494.1184,-475.8554 516.9044,-469.0986"/>
<polygon fill="#191970" stroke="#191970" points="517.844,-472.4702 526.5588,-466.445 515.9888,-465.7205 517.844,-472.4702"/>
</g>
<!-- Node57&#45;&gt;Node45 -->
<g id="edge125" class="edge">
<title>Node57&#45;&gt;Node45</title>
<path fill="none" stroke="#191970" d="M427.0811,-616.2455C442.711,-607.4928 465.8643,-594.527 483.681,-584.5496"/>
<polygon fill="#191970" stroke="#191970" points="485.4284,-587.5825 492.4434,-579.6427 482.0082,-581.475 485.4284,-587.5825"/>
</g>
<!-- Node57&#45;&gt;Node47 -->
<g id="edge126" class="edge">
<title>Node57&#45;&gt;Node47</title>
<path fill="none" stroke="#191970" d="M443.6999,-616.3733C477.0518,-606.9404 528.0152,-592.5265 564.2626,-582.2747"/>
<polygon fill="#191970" stroke="#191970" points="565.3992,-585.5906 574.0692,-579.5011 563.4941,-578.8548 565.3992,-585.5906"/>
</g>
<!-- Node57&#45;&gt;Node53 -->
<g id="edge124" class="edge">
<title>Node57&#45;&gt;Node53</title>
<path fill="none" stroke="#191970" d="M483.874,-617.0575C486.8421,-616.7002 489.7804,-616.3467 492.6624,-616 600.0457,-603.0825 724.3681,-588.1562 801.5212,-578.8964"/>
<polygon fill="#191970" stroke="#191970" points="802.1105,-582.3509 811.6222,-577.6841 801.2763,-575.4008 802.1105,-582.3509"/>
</g>
<!-- Node58&#45;&gt;Node2 -->
<g id="edge129" class="edge">
<title>Node58&#45;&gt;Node2</title>
<path fill="none" stroke="#191970" d="M1229.1273,-616.2455C1222.1713,-608.2958 1212.1742,-596.8706 1203.8573,-587.3656"/>
<polygon fill="#191970" stroke="#191970" points="1206.3189,-584.8637 1197.0998,-579.6427 1201.0508,-589.4732 1206.3189,-584.8637"/>
</g>
<!-- Node58&#45;&gt;Node15 -->
<g id="edge130" class="edge">
<title>Node58&#45;&gt;Node15</title>
<path fill="none" stroke="#191970" d="M1205.8598,-616.3733C1174.8308,-606.9807 1127.487,-592.6496 1093.6477,-582.4064"/>
<polygon fill="#191970" stroke="#191970" points="1094.6352,-579.0485 1084.0501,-579.5011 1092.6072,-585.7483 1094.6352,-579.0485"/>
</g>
<!-- Node58&#45;&gt;Node44 -->
<g id="edge128" class="edge">
<title>Node58&#45;&gt;Node44</title>
<path fill="none" stroke="#191970" d="M1152.0687,-616.8566C1102.7614,-609.9842 1040.1518,-598.4929 986.6624,-580 968.6248,-573.7638 966.4019,-567.0398 948.6624,-560 940.9912,-556.9557 721.997,-496.6017 626.0165,-470.1949"/>
<polygon fill="#191970" stroke="#191970" points="626.8737,-466.8007 616.3035,-467.5229 625.017,-473.55 626.8737,-466.8007"/>
</g>
<!-- Node58&#45;&gt;Node53 -->
<g id="edge131" class="edge">
<title>Node58&#45;&gt;Node53</title>
<path fill="none" stroke="#191970" d="M1175.8437,-616.4369C1112.4585,-606.6314 1013.9703,-591.3957 947.2424,-581.0731"/>
<polygon fill="#191970" stroke="#191970" points="947.6437,-577.5937 937.2262,-579.5237 946.5735,-584.5114 947.6437,-577.5937"/>
</g>
<!-- Node59&#45;&gt;Node2 -->
<g id="edge134" class="edge">
<title>Node59&#45;&gt;Node2</title>
<path fill="none" stroke="#191970" d="M946.5273,-616.4369C997.0257,-606.7522 1075.146,-591.7703 1128.9229,-581.4569"/>
<polygon fill="#191970" stroke="#191970" points="1129.8415,-584.8446 1139.0033,-579.5237 1128.523,-577.9699 1129.8415,-584.8446"/>
</g>
<!-- Node59&#45;&gt;Node15 -->
<g id="edge135" class="edge">
<title>Node59&#45;&gt;Node15</title>
<path fill="none" stroke="#191970" d="M923.4798,-616.3733C949.1956,-607.1419 988.2005,-593.1402 1016.6224,-582.9375"/>
<polygon fill="#191970" stroke="#191970" points="1017.9656,-586.174 1026.195,-579.5011 1015.6005,-579.5857 1017.9656,-586.174"/>
</g>
<!-- Node59&#45;&gt;Node44 -->
<g id="edge133" class="edge">
<title>Node59&#45;&gt;Node44</title>
<path fill="none" stroke="#191970" d="M848.9114,-616.4246C818.2505,-609.0959 778.2226,-597.2756 745.6624,-580 698.2042,-554.8199 695.0529,-535.6795 651.6624,-504 636.8714,-493.201 619.6925,-481.8946 606.0546,-473.1935"/>
<polygon fill="#191970" stroke="#191970" points="607.5737,-470.0129 597.2517,-467.6241 603.8311,-475.9285 607.5737,-470.0129"/>
</g>
<!-- Node59&#45;&gt;Node45 -->
<g id="edge137" class="edge">
<title>Node59&#45;&gt;Node45</title>
<path fill="none" stroke="#191970" d="M832.09,-617.2634C828.9024,-616.8355 825.7463,-616.4125 822.6624,-616 704.9825,-600.261 672.2274,-602.3537 552.2132,-580.1463"/>
<polygon fill="#191970" stroke="#191970" points="552.7402,-576.6843 542.2674,-578.2878 551.4544,-583.5652 552.7402,-576.6843"/>
</g>
<!-- Node59&#45;&gt;Node47 -->
<g id="edge138" class="edge">
<title>Node59&#45;&gt;Node47</title>
<path fill="none" stroke="#191970" d="M847.3099,-616.4369C796.8759,-606.6642 718.6046,-591.4974 665.3426,-581.1768"/>
<polygon fill="#191970" stroke="#191970" points="665.8536,-577.7108 655.3704,-579.2444 664.5219,-584.5829 665.8536,-577.7108"/>
</g>
<!-- Node59&#45;&gt;Node53 -->
<g id="edge136" class="edge">
<title>Node59&#45;&gt;Node53</title>
<path fill="none" stroke="#191970" d="M893.0045,-616.2455C890.2041,-608.7776 886.2534,-598.2427 882.8301,-589.1137"/>
<polygon fill="#191970" stroke="#191970" points="886.0669,-587.777 879.2784,-579.6427 879.5126,-590.2349 886.0669,-587.777"/>
</g>
<!-- Node60&#45;&gt;Node2 -->
<g id="edge140" class="edge">
<title>Node60&#45;&gt;Node2</title>
<path fill="none" stroke="#191970" d="M1488.8437,-616.4369C1425.1704,-606.5869 1326.0742,-591.2571 1259.3345,-580.9327"/>
<polygon fill="#191970" stroke="#191970" points="1259.7388,-577.4537 1249.3212,-579.3837 1258.6686,-584.3714 1259.7388,-577.4537"/>
</g>
<!-- Node60&#45;&gt;Node15 -->
<g id="edge143" class="edge">
<title>Node60&#45;&gt;Node15</title>
<path fill="none" stroke="#191970" d="M1469.7118,-616.9832C1466.6568,-616.65 1463.6321,-616.3213 1460.6624,-616 1311.9739,-599.914 1271.9637,-599.4653 1120.0481,-580.1328"/>
<polygon fill="#191970" stroke="#191970" points="1120.2409,-576.629 1109.8776,-578.8318 1119.3526,-583.5725 1120.2409,-576.629"/>
</g>
<!-- Node60&#45;&gt;Node44 -->
<g id="edge141" class="edge">
<title>Node60&#45;&gt;Node44</title>
<path fill="none" stroke="#191970" d="M1472.0809,-616.493C1422.4673,-609.269 1357.4377,-597.5381 1301.6624,-580 1281.1707,-573.5565 1278.4332,-565.4779 1257.6624,-560 1083.7835,-514.1426 1030.3059,-562.551 854.6624,-524 828.8483,-518.3342 824.0911,-511.2009 798.6624,-504 748.1297,-489.6901 689.8537,-477.5721 646.4253,-469.3717"/>
<polygon fill="#191970" stroke="#191970" points="647.0305,-465.9243 636.5577,-467.5276 645.7445,-472.8052 647.0305,-465.9243"/>
</g>
<!-- Node60&#45;&gt;Node53 -->
<g id="edge142" class="edge">
<title>Node60&#45;&gt;Node53</title>
<path fill="none" stroke="#191970" d="M1469.723,-616.8721C1466.6648,-616.57 1463.6365,-616.2781 1460.6624,-616 1250.3066,-596.3314 1197.2116,-597.4789 986.6624,-580 974.8368,-579.0183 962.3068,-577.933 950.0886,-576.8502"/>
<polygon fill="#191970" stroke="#191970" points="950.1923,-573.3456 939.921,-575.9435 949.5705,-580.318 950.1923,-573.3456"/>
</g>
<!-- Node61&#45;&gt;Node2 -->
<g id="edge146" class="edge">
<title>Node61&#45;&gt;Node2</title>
<path fill="none" stroke="#191970" d="M1649.0756,-617.04C1646.2335,-616.68 1643.419,-616.3316 1640.6624,-616 1506.0612,-599.809 1348.4541,-584.6238 1259.4065,-576.3921"/>
<polygon fill="#191970" stroke="#191970" points="1259.7007,-572.9045 1249.4216,-575.4717 1259.0581,-579.8749 1259.7007,-572.9045"/>
</g>
<!-- Node61&#45;&gt;Node15 -->
<g id="edge147" class="edge">
<title>Node61&#45;&gt;Node15</title>
<path fill="none" stroke="#191970" d="M1649.0882,-616.9274C1646.2427,-616.5979 1643.424,-616.2867 1640.6624,-616 1412.6295,-592.3298 1351.5384,-605.0664 1119.9484,-580.0595"/>
<polygon fill="#191970" stroke="#191970" points="1120.1833,-576.5644 1109.8625,-578.9583 1119.4235,-583.5231 1120.1833,-576.5644"/>
</g>
<!-- Node61&#45;&gt;Node44 -->
<g id="edge145" class="edge">
<title>Node61&#45;&gt;Node44</title>
<path fill="none" stroke="#191970" d="M1657.6053,-616.4239C1532.7786,-594.8697 1218.5932,-541.5013 954.6624,-504 847.0015,-488.7027 721.4319,-473.827 646.9011,-465.3075"/>
<polygon fill="#191970" stroke="#191970" points="647.0625,-461.8033 636.7304,-464.1481 646.2696,-468.7582 647.0625,-461.8033"/>
</g>
<!-- Node62 -->
<g id="node63" class="node">
<title>Node62</title>
<g id="a_node63"><a xlink:href="../../dd/d04/ZeroSuppression_8h.html" target="_top" xlink:title="Definitions of TPC Zero Suppression Data Headers. ">
<polygon fill="none" stroke="#000000" points="1903.6624,-336.5 1903.6624,-355.5 2095.6624,-355.5 2095.6624,-336.5 1903.6624,-336.5"/>
<text text-anchor="middle" x="1999.6624" y="-343.5" font-family="Helvetica,sans-Serif" font-size="10.00" fill="#000000">DataFormatsTPC/ZeroSuppression.h</text>
</a>
</g>
</g>
<!-- Node61&#45;&gt;Node62 -->
<g id="edge148" class="edge">
<title>Node61&#45;&gt;Node62</title>
<path fill="none" stroke="#191970" d="M1761.6482,-616.4487C1840.4603,-599.6633 1986.6624,-562.0497 1986.6624,-514 1986.6624,-514 1986.6624,-514 1986.6624,-458 1986.6624,-425.3457 1992.1825,-387.6911 1996.0285,-365.4184"/>
<polygon fill="#191970" stroke="#191970" points="1999.4789,-366.0059 1997.7999,-355.545 1992.5889,-364.7698 1999.4789,-366.0059"/>
</g>
<!-- Node62&#45;&gt;Node4 -->
<g id="edge151" class="edge">
<title>Node62&#45;&gt;Node4</title>
<path fill="none" stroke="#191970" d="M1988.5764,-336.4418C1969.0717,-318.4968 1930.6624,-277.6211 1930.6624,-234 1930.6624,-234 1930.6624,-234 1930.6624,-178 1930.6624,-143.4675 1919.3222,-129.6859 1889.6624,-112 1830.6246,-76.7962 1365.8008,-68.4314 1193.5704,-66.5322"/>
<polygon fill="#191970" stroke="#191970" points="1193.4242,-63.0305 1183.3875,-66.4237 1193.3496,-70.0302 1193.4242,-63.0305"/>
</g>
<!-- Node62&#45;&gt;Node14 -->
<g id="edge150" class="edge">
<title>Node62&#45;&gt;Node14</title>
<path fill="none" stroke="#191970" d="M1962.3588,-336.3733C1922.2278,-326.0169 1858.8312,-309.6565 1819.0562,-299.3919"/>
<polygon fill="#191970" stroke="#191970" points="1819.7943,-295.9678 1809.237,-296.8579 1818.0451,-302.7458 1819.7943,-295.9678"/>
</g>
<!-- Node63 -->
<g id="node64" class="node">
<title>Node63</title>
<polygon fill="none" stroke="#bfbfbf" points="1974.6624,-280.5 1974.6624,-299.5 2024.6624,-299.5 2024.6624,-280.5 1974.6624,-280.5"/>
<text text-anchor="middle" x="1999.6624" y="-287.5" font-family="Helvetica,sans-Serif" font-size="10.00" fill="#000000">cstdint</text>
</g>
<!-- Node62&#45;&gt;Node63 -->
<g id="edge149" class="edge">
<title>Node62&#45;&gt;Node63</title>
<path fill="none" stroke="#191970" d="M1999.6624,-336.2455C1999.6624,-328.9382 1999.6624,-318.6944 1999.6624,-309.7046"/>
<polygon fill="#191970" stroke="#191970" points="2003.1625,-309.6426 1999.6624,-299.6427 1996.1625,-309.6427 2003.1625,-309.6426"/>
</g>
<!-- Node64&#45;&gt;Node2 -->
<g id="edge153" class="edge">
<title>Node64&#45;&gt;Node2</title>
<path fill="none" stroke="#191970" d="M1360.906,-616.3733C1325.7198,-606.9001 1271.8744,-592.4032 1233.7668,-582.1435"/>
<polygon fill="#191970" stroke="#191970" points="1234.5184,-578.7213 1223.9523,-579.5011 1232.6986,-585.4806 1234.5184,-578.7213"/>
</g>
<!-- Node64&#45;&gt;Node15 -->
<g id="edge154" class="edge">
<title>Node64&#45;&gt;Node15</title>
<path fill="none" stroke="#191970" d="M1341.3929,-617.0026C1281.0896,-607.1858 1184.5402,-591.4685 1119.8917,-580.9443"/>
<polygon fill="#191970" stroke="#191970" points="1120.2328,-577.4538 1109.8004,-579.3015 1119.108,-584.3629 1120.2328,-577.4538"/>
</g>
</g>
</svg>
