<?xml version="1.0" encoding="UTF-8" standalone="no"?>
<!DOCTYPE svg PUBLIC "-//W3C//DTD SVG 1.1//EN"
 "http://www.w3.org/Graphics/SVG/1.1/DTD/svg11.dtd">
<!-- Generated by graphviz version 2.40.1 (20161225.0304)
 -->
<!-- Title: /home/travis/build/AliceO2Group/AliceO2/Analysis/Tasks Pages: 1 -->
<svg width="742pt" height="447pt"
 viewBox="0.00 0.00 742.00 447.00" xmlns="http://www.w3.org/2000/svg" xmlns:xlink="http://www.w3.org/1999/xlink">
<g id="graph0" class="graph" transform="scale(1 1) rotate(0) translate(4 443)">
<title>/home/travis/build/AliceO2Group/AliceO2/Analysis/Tasks</title>
<g id="clust1" class="cluster">
<title>clusterdir_19b17cb436010079e3d017a29cb7858f</title>
<g id="a_clust1"><a xlink:href="dir_19b17cb436010079e3d017a29cb7858f.html" target="_top" xlink:title="Analysis">
<polygon fill="#ddddee" stroke="#000000" points="71,-344 71,-431 666,-431 666,-344 71,-344"/>
<text text-anchor="middle" x="368.5" y="-419" font-family="Helvetica,sans-Serif" font-size="10.00" fill="#000000">Analysis</text>
</a>
</g>
</g>
<g id="clust2" class="cluster">
<title>clusterdir_eff7324435ca3301414fec6c28c4adf5</title>
<g id="a_clust2"><a xlink:href="dir_eff7324435ca3301414fec6c28c4adf5.html" target="_top">
<polygon fill="#eeeeff" stroke="#000000" points="79,-352 79,-404 658,-404 658,-352 79,-352"/>
</a>
</g>
</g>
<!-- dir_eff7324435ca3301414fec6c28c4adf5 -->
<g id="node1" class="node">
<title>dir_eff7324435ca3301414fec6c28c4adf5</title>
<text text-anchor="middle" x="186" y="-375.5" font-family="Helvetica,sans-Serif" font-size="10.00" fill="#000000">Tasks</text>
</g>
<!-- dir_6af676bf18881990e4083e191d0e63e0 -->
<g id="node9" class="node">
<title>dir_6af676bf18881990e4083e191d0e63e0</title>
<g id="a_node9"><a xlink:href="dir_6af676bf18881990e4083e191d0e63e0.html" target="_top" xlink:title="CCDB">
<polygon fill="none" stroke="#ff0000" points="158,-252 104,-252 104,-216 158,-216 158,-252"/>
<text text-anchor="middle" x="131" y="-231.5" font-family="Helvetica,sans-Serif" font-size="10.00" fill="#000000">CCDB</text>
</a>
</g>
</g>
<!-- dir_eff7324435ca3301414fec6c28c4adf5&#45;&gt;dir_6af676bf18881990e4083e191d0e63e0 -->
<g id="edge26" class="edge">
<title>dir_eff7324435ca3301414fec6c28c4adf5&#45;&gt;dir_6af676bf18881990e4083e191d0e63e0</title>
<path fill="none" stroke="#000000" d="M164.2433,-359.7162C154.4437,-350.1575 143.7929,-337.6204 138,-324 129.6935,-304.4695 128.2163,-280.417 128.6676,-262.092"/>
<polygon fill="#000000" stroke="#000000" points="132.1666,-262.1889 129.119,-252.0419 125.1737,-261.8747 132.1666,-262.1889"/>
<g id="a_edge26&#45;headlabel"><a xlink:href="dir_000015_000027.html" target="_top" xlink:title="5">
<text text-anchor="middle" x="134.8418" y="-263.4073" font-family="Helvetica,sans-Serif" font-size="10.00" fill="#000000">5</text>
</a>
</g>
</g>
<!-- dir_3569a90be80eaa72c08f21910e2b4e5e -->
<g id="node2" class="node">
<title>dir_3569a90be80eaa72c08f21910e2b4e5e</title>
<g id="a_node2"><a xlink:href="dir_3569a90be80eaa72c08f21910e2b4e5e.html" target="_top" xlink:title="PWGCF">
<polygon fill="#ffffff" stroke="#000000" points="504,-396 450,-396 450,-360 504,-360 504,-396"/>
<text text-anchor="middle" x="477" y="-375.5" font-family="Helvetica,sans-Serif" font-size="10.00" fill="#000000">PWGCF</text>
</a>
</g>
</g>
<!-- dir_f41dd59f861c855ea21b0dc3111cb7b0 -->
<g id="node11" class="node">
<title>dir_f41dd59f861c855ea21b0dc3111cb7b0</title>
<g id="a_node11"><a xlink:href="dir_f41dd59f861c855ea21b0dc3111cb7b0.html" target="_top" xlink:title="DataModel">
<polygon fill="none" stroke="#ff0000" points="439.5,-324 370.5,-324 370.5,-288 439.5,-288 439.5,-324"/>
<text text-anchor="middle" x="405" y="-303.5" font-family="Helvetica,sans-Serif" font-size="10.00" fill="#000000">DataModel</text>
</a>
</g>
</g>
<!-- dir_3569a90be80eaa72c08f21910e2b4e5e&#45;&gt;dir_f41dd59f861c855ea21b0dc3111cb7b0 -->
<g id="edge18" class="edge">
<title>dir_3569a90be80eaa72c08f21910e2b4e5e&#45;&gt;dir_f41dd59f861c855ea21b0dc3111cb7b0</title>
<path fill="none" stroke="#000000" d="M458.8314,-359.8314C450.2848,-351.2848 439.9443,-340.9443 430.6198,-331.6198"/>
<polygon fill="#000000" stroke="#000000" points="432.9592,-329.0095 423.4133,-324.4133 428.0095,-333.9592 432.9592,-329.0095"/>
<g id="a_edge18&#45;headlabel"><a xlink:href="dir_000016_000009.html" target="_top" xlink:title="17">
<text text-anchor="middle" x="437.5087" y="-327.0436" font-family="Helvetica,sans-Serif" font-size="10.00" fill="#000000">17</text>
</a>
</g>
</g>
<!-- dir_8d04f135a1eb0fdc4d561ef87bbea216 -->
<g id="node12" class="node">
<title>dir_8d04f135a1eb0fdc4d561ef87bbea216</title>
<g id="a_node12"><a xlink:href="dir_8d04f135a1eb0fdc4d561ef87bbea216.html" target="_top" xlink:title="Core">
<polygon fill="none" stroke="#ff0000" points="331,-252 277,-252 277,-216 331,-216 331,-252"/>
<text text-anchor="middle" x="304" y="-231.5" font-family="Helvetica,sans-Serif" font-size="10.00" fill="#000000">Core</text>
</a>
</g>
</g>
<!-- dir_3569a90be80eaa72c08f21910e2b4e5e&#45;&gt;dir_8d04f135a1eb0fdc4d561ef87bbea216 -->
<g id="edge19" class="edge">
<title>dir_3569a90be80eaa72c08f21910e2b4e5e&#45;&gt;dir_8d04f135a1eb0fdc4d561ef87bbea216</title>
<path fill="none" stroke="#000000" d="M475.9751,-359.7651C473.903,-339.7133 467.6734,-307.7275 449,-288 420.5895,-257.9858 373.9572,-244.544 341.2658,-238.5956"/>
<polygon fill="#000000" stroke="#000000" points="341.6216,-235.1067 331.1824,-236.9161 340.4714,-242.0115 341.6216,-235.1067"/>
<g id="a_edge19&#45;headlabel"><a xlink:href="dir_000016_000005.html" target="_top" xlink:title="8">
<text text-anchor="middle" x="345.6338" y="-230.3965" font-family="Helvetica,sans-Serif" font-size="10.00" fill="#000000">8</text>
</a>
</g>
</g>
<!-- dir_bcbb2cf9a3d3d83e5515c82071a07177 -->
<g id="node13" class="node">
<title>dir_bcbb2cf9a3d3d83e5515c82071a07177</title>
<g id="a_node13"><a xlink:href="dir_bcbb2cf9a3d3d83e5515c82071a07177.html" target="_top" xlink:title="Framework">
<polygon fill="none" stroke="#ff0000" points="458.5,-180 387.5,-180 387.5,-144 458.5,-144 458.5,-180"/>
<text text-anchor="middle" x="423" y="-159.5" font-family="Helvetica,sans-Serif" font-size="10.00" fill="#000000">Framework</text>
</a>
</g>
</g>
<!-- dir_3569a90be80eaa72c08f21910e2b4e5e&#45;&gt;dir_bcbb2cf9a3d3d83e5515c82071a07177 -->
<g id="edge20" class="edge">
<title>dir_3569a90be80eaa72c08f21910e2b4e5e&#45;&gt;dir_bcbb2cf9a3d3d83e5515c82071a07177</title>
<path fill="none" stroke="#000000" d="M478.6068,-359.7204C480.611,-328.8637 481.6771,-265.0166 462,-216 458.058,-206.1803 451.9516,-196.4816 445.7317,-188.0719"/>
<polygon fill="#000000" stroke="#000000" points="448.456,-185.8737 439.5499,-180.1352 442.9335,-190.1752 448.456,-185.8737"/>
<g id="a_edge20&#45;headlabel"><a xlink:href="dir_000016_000061.html" target="_top" xlink:title="20">
<text text-anchor="middle" x="452.9048" y="-184.4649" font-family="Helvetica,sans-Serif" font-size="10.00" fill="#000000">20</text>
</a>
</g>
</g>
<!-- dir_33cf0c601043fc8ee8b69130538d8a5b -->
<g id="node3" class="node">
<title>dir_33cf0c601043fc8ee8b69130538d8a5b</title>
<g id="a_node3"><a xlink:href="dir_33cf0c601043fc8ee8b69130538d8a5b.html" target="_top" xlink:title="PWGDQ">
<polygon fill="#ffffff" stroke="#000000" points="286.5,-396 231.5,-396 231.5,-360 286.5,-360 286.5,-396"/>
<text text-anchor="middle" x="259" y="-375.5" font-family="Helvetica,sans-Serif" font-size="10.00" fill="#000000">PWGDQ</text>
</a>
</g>
</g>
<!-- dir_33cf0c601043fc8ee8b69130538d8a5b&#45;&gt;dir_f41dd59f861c855ea21b0dc3111cb7b0 -->
<g id="edge7" class="edge">
<title>dir_33cf0c601043fc8ee8b69130538d8a5b&#45;&gt;dir_f41dd59f861c855ea21b0dc3111cb7b0</title>
<path fill="none" stroke="#000000" d="M275.3377,-359.7694C281.1144,-354.1269 287.9415,-348.2766 295,-344 315.1222,-331.8085 339.6978,-322.8457 360.5122,-316.6968"/>
<polygon fill="#000000" stroke="#000000" points="361.722,-319.992 370.392,-313.9025 359.8169,-313.2562 361.722,-319.992"/>
<g id="a_edge7&#45;headlabel"><a xlink:href="dir_000017_000009.html" target="_top" xlink:title="13">
<text text-anchor="middle" x="359.0358" y="-321.2023" font-family="Helvetica,sans-Serif" font-size="10.00" fill="#000000">13</text>
</a>
</g>
</g>
<!-- dir_33cf0c601043fc8ee8b69130538d8a5b&#45;&gt;dir_8d04f135a1eb0fdc4d561ef87bbea216 -->
<g id="edge8" class="edge">
<title>dir_33cf0c601043fc8ee8b69130538d8a5b&#45;&gt;dir_8d04f135a1eb0fdc4d561ef87bbea216</title>
<path fill="none" stroke="#000000" d="M264.6993,-359.7623C272.4085,-335.0928 286.2313,-290.8598 295.2584,-261.9731"/>
<polygon fill="#000000" stroke="#000000" points="298.7049,-262.6784 298.347,-252.0896 292.0235,-260.5904 298.7049,-262.6784"/>
<g id="a_edge8&#45;headlabel"><a xlink:href="dir_000017_000005.html" target="_top" xlink:title="20">
<text text-anchor="middle" x="300.3428" y="-264.4563" font-family="Helvetica,sans-Serif" font-size="10.00" fill="#000000">20</text>
</a>
</g>
</g>
<!-- dir_33cf0c601043fc8ee8b69130538d8a5b&#45;&gt;dir_bcbb2cf9a3d3d83e5515c82071a07177 -->
<g id="edge9" class="edge">
<title>dir_33cf0c601043fc8ee8b69130538d8a5b&#45;&gt;dir_bcbb2cf9a3d3d83e5515c82071a07177</title>
<path fill="none" stroke="#000000" d="M251.8872,-359.8583C240.4964,-327.4988 222.4697,-259.1755 254,-216 268.7351,-195.8228 332.6636,-179.5327 377.519,-170.3061"/>
<polygon fill="#000000" stroke="#000000" points="378.2236,-173.7346 387.3394,-168.3353 376.8462,-166.8714 378.2236,-173.7346"/>
<g id="a_edge9&#45;headlabel"><a xlink:href="dir_000017_000061.html" target="_top" xlink:title="20">
<text text-anchor="middle" x="375.2579" y="-174.7256" font-family="Helvetica,sans-Serif" font-size="10.00" fill="#000000">20</text>
</a>
</g>
</g>
<!-- dir_c7246ec393377c9a789f9275f686142f -->
<g id="node4" class="node">
<title>dir_c7246ec393377c9a789f9275f686142f</title>
<g id="a_node4"><a xlink:href="dir_c7246ec393377c9a789f9275f686142f.html" target="_top" xlink:title="PWGHF">
<polygon fill="#ffffff" stroke="#000000" points="650,-396 596,-396 596,-360 650,-360 650,-396"/>
<text text-anchor="middle" x="623" y="-375.5" font-family="Helvetica,sans-Serif" font-size="10.00" fill="#000000">PWGHF</text>
</a>
</g>
</g>
<!-- dir_051dca18e802f8e9474f2e30d29c04e0 -->
<g id="node10" class="node">
<title>dir_051dca18e802f8e9474f2e30d29c04e0</title>
<g id="a_node10"><a xlink:href="dir_051dca18e802f8e9474f2e30d29c04e0.html" target="_top" xlink:title="Detectors">
<polygon fill="none" stroke="#ff0000" points="507,-108 443,-108 443,-72 507,-72 507,-108"/>
<text text-anchor="middle" x="475" y="-87.5" font-family="Helvetica,sans-Serif" font-size="10.00" fill="#000000">Detectors</text>
</a>
</g>
</g>
<!-- dir_c7246ec393377c9a789f9275f686142f&#45;&gt;dir_051dca18e802f8e9474f2e30d29c04e0 -->
<g id="edge10" class="edge">
<title>dir_c7246ec393377c9a789f9275f686142f&#45;&gt;dir_051dca18e802f8e9474f2e30d29c04e0</title>
<path fill="none" stroke="#000000" d="M617.9707,-359.9957C612.5419,-341.5242 603.1571,-312.1544 592,-288 562.4418,-224.0084 518.0105,-154.1147 493.2759,-116.8907"/>
<polygon fill="#000000" stroke="#000000" points="495.9016,-114.5208 487.4329,-108.1543 490.083,-118.4123 495.9016,-114.5208"/>
<g id="a_edge10&#45;headlabel"><a xlink:href="dir_000018_000047.html" target="_top" xlink:title="3">
<text text-anchor="middle" x="500.26" y="-113.4302" font-family="Helvetica,sans-Serif" font-size="10.00" fill="#000000">3</text>
</a>
</g>
</g>
<!-- dir_c7246ec393377c9a789f9275f686142f&#45;&gt;dir_f41dd59f861c855ea21b0dc3111cb7b0 -->
<g id="edge11" class="edge">
<title>dir_c7246ec393377c9a789f9275f686142f&#45;&gt;dir_f41dd59f861c855ea21b0dc3111cb7b0</title>
<path fill="none" stroke="#000000" d="M607.6768,-359.9446C601.7801,-354.0386 594.62,-347.98 587,-344 563.5926,-331.7741 495.7557,-319.6529 449.8469,-312.4971"/>
<polygon fill="#000000" stroke="#000000" points="450.2508,-309.0182 439.8356,-310.9608 449.189,-315.9372 450.2508,-309.0182"/>
<g id="a_edge11&#45;headlabel"><a xlink:href="dir_000018_000009.html" target="_top" xlink:title="9">
<text text-anchor="middle" x="454.2345" y="-304.2569" font-family="Helvetica,sans-Serif" font-size="10.00" fill="#000000">9</text>
</a>
</g>
</g>
<!-- dir_c7246ec393377c9a789f9275f686142f&#45;&gt;dir_8d04f135a1eb0fdc4d561ef87bbea216 -->
<g id="edge12" class="edge">
<title>dir_c7246ec393377c9a789f9275f686142f&#45;&gt;dir_8d04f135a1eb0fdc4d561ef87bbea216</title>
<path fill="none" stroke="#000000" d="M605.9818,-359.9075C600.2659,-354.4011 593.6467,-348.5961 587,-344 508.0207,-289.3861 398.1479,-256.7989 341.3372,-242.5441"/>
<polygon fill="#000000" stroke="#000000" points="341.9126,-239.0814 331.3664,-240.0946 340.2426,-245.8793 341.9126,-239.0814"/>
<g id="a_edge12&#45;headlabel"><a xlink:href="dir_000018_000005.html" target="_top" xlink:title="3">
<text text-anchor="middle" x="346.0808" y="-234.6816" font-family="Helvetica,sans-Serif" font-size="10.00" fill="#000000">3</text>
</a>
</g>
</g>
<!-- dir_c7246ec393377c9a789f9275f686142f&#45;&gt;dir_bcbb2cf9a3d3d83e5515c82071a07177 -->
<g id="edge13" class="edge">
<title>dir_c7246ec393377c9a789f9275f686142f&#45;&gt;dir_bcbb2cf9a3d3d83e5515c82071a07177</title>
<path fill="none" stroke="#000000" d="M612.7612,-359.8464C594.2248,-328.0592 552.5851,-261.3915 505,-216 493.061,-204.6113 478.4271,-194.1147 464.8431,-185.4638"/>
<polygon fill="#000000" stroke="#000000" points="466.4517,-182.3433 456.107,-180.0546 462.7667,-188.2948 466.4517,-182.3433"/>
<g id="a_edge13&#45;headlabel"><a xlink:href="dir_000018_000061.html" target="_top" xlink:title="12">
<text text-anchor="middle" x="471.0026" y="-179.3216" font-family="Helvetica,sans-Serif" font-size="10.00" fill="#000000">12</text>
</a>
</g>
</g>
<!-- dir_2171f7ec022c5423887b07c69b2f5b48 -->
<g id="node14" class="node">
<title>dir_2171f7ec022c5423887b07c69b2f5b48</title>
<g id="a_node14"><a xlink:href="dir_2171f7ec022c5423887b07c69b2f5b48.html" target="_top" xlink:title="DataFormats">
<polygon fill="none" stroke="#ff0000" points="446,-36 366,-36 366,0 446,0 446,-36"/>
<text text-anchor="middle" x="406" y="-15.5" font-family="Helvetica,sans-Serif" font-size="10.00" fill="#000000">DataFormats</text>
</a>
</g>
</g>
<!-- dir_c7246ec393377c9a789f9275f686142f&#45;&gt;dir_2171f7ec022c5423887b07c69b2f5b48 -->
<g id="edge14" class="edge">
<title>dir_c7246ec393377c9a789f9275f686142f&#45;&gt;dir_2171f7ec022c5423887b07c69b2f5b48</title>
<path fill="none" stroke="#000000" d="M650.1537,-359.8367C683.015,-335.4409 734,-288.7657 734,-234 734,-234 734,-234 734,-162 734,-102.0565 548.0106,-50.7366 456.1397,-29.0432"/>
<polygon fill="#000000" stroke="#000000" points="456.7529,-25.5923 446.2192,-26.7295 455.1629,-32.4094 456.7529,-25.5923"/>
<g id="a_edge14&#45;headlabel"><a xlink:href="dir_000018_000088.html" target="_top" xlink:title="2">
<text text-anchor="middle" x="460.8984" y="-21.1436" font-family="Helvetica,sans-Serif" font-size="10.00" fill="#000000">2</text>
</a>
</g>
</g>
<!-- dir_2a7d1022434b02d1db0a9dbfc5e026be -->
<g id="node5" class="node">
<title>dir_2a7d1022434b02d1db0a9dbfc5e026be</title>
<g id="a_node5"><a xlink:href="dir_2a7d1022434b02d1db0a9dbfc5e026be.html" target="_top" xlink:title="PWGJE">
<polygon fill="#ffffff" stroke="#000000" points="432,-396 378,-396 378,-360 432,-360 432,-396"/>
<text text-anchor="middle" x="405" y="-375.5" font-family="Helvetica,sans-Serif" font-size="10.00" fill="#000000">PWGJE</text>
</a>
</g>
</g>
<!-- dir_2a7d1022434b02d1db0a9dbfc5e026be&#45;&gt;dir_f41dd59f861c855ea21b0dc3111cb7b0 -->
<g id="edge15" class="edge">
<title>dir_2a7d1022434b02d1db0a9dbfc5e026be&#45;&gt;dir_f41dd59f861c855ea21b0dc3111cb7b0</title>
<path fill="none" stroke="#000000" d="M405,-359.8314C405,-352.131 405,-342.9743 405,-334.4166"/>
<polygon fill="#000000" stroke="#000000" points="408.5001,-334.4132 405,-324.4133 401.5001,-334.4133 408.5001,-334.4132"/>
<g id="a_edge15&#45;headlabel"><a xlink:href="dir_000019_000009.html" target="_top" xlink:title="6">
<text text-anchor="middle" x="411.3393" y="-335.5079" font-family="Helvetica,sans-Serif" font-size="10.00" fill="#000000">6</text>
</a>
</g>
</g>
<!-- dir_2a7d1022434b02d1db0a9dbfc5e026be&#45;&gt;dir_8d04f135a1eb0fdc4d561ef87bbea216 -->
<g id="edge16" class="edge">
<title>dir_2a7d1022434b02d1db0a9dbfc5e026be&#45;&gt;dir_8d04f135a1eb0fdc4d561ef87bbea216</title>
<path fill="none" stroke="#000000" d="M389.8071,-359.858C381.3583,-349.541 370.804,-336.2679 362,-324 347.2333,-303.4234 331.7557,-279.2557 320.5068,-261.1482"/>
<polygon fill="#000000" stroke="#000000" points="323.266,-258.9547 315.036,-252.2826 317.309,-262.6308 323.266,-258.9547"/>
<g id="a_edge16&#45;headlabel"><a xlink:href="dir_000019_000005.html" target="_top" xlink:title="4">
<text text-anchor="middle" x="327.5699" y="-258.0227" font-family="Helvetica,sans-Serif" font-size="10.00" fill="#000000">4</text>
</a>
</g>
</g>
<!-- dir_2a7d1022434b02d1db0a9dbfc5e026be&#45;&gt;dir_bcbb2cf9a3d3d83e5515c82071a07177 -->
<g id="edge17" class="edge">
<title>dir_2a7d1022434b02d1db0a9dbfc5e026be&#45;&gt;dir_bcbb2cf9a3d3d83e5515c82071a07177</title>
<path fill="none" stroke="#000000" d="M425.4026,-359.5625C434.4941,-349.9675 444.2162,-337.4441 449,-324 465.1828,-278.5203 448.5461,-222.2618 435.4503,-189.4257"/>
<polygon fill="#000000" stroke="#000000" points="438.6123,-187.914 431.54,-180.0251 432.1491,-190.6024 438.6123,-187.914"/>
<g id="a_edge17&#45;headlabel"><a xlink:href="dir_000019_000061.html" target="_top" xlink:title="20">
<text text-anchor="middle" x="442.6143" y="-187.6425" font-family="Helvetica,sans-Serif" font-size="10.00" fill="#000000">20</text>
</a>
</g>
</g>
<!-- dir_2c68f3f7252dbc78e1323a34bf574d75 -->
<g id="node6" class="node">
<title>dir_2c68f3f7252dbc78e1323a34bf574d75</title>
<g id="a_node6"><a xlink:href="dir_2c68f3f7252dbc78e1323a34bf574d75.html" target="_top" xlink:title="PWGLF">
<polygon fill="#ffffff" stroke="#000000" points="141,-396 87,-396 87,-360 141,-360 141,-396"/>
<text text-anchor="middle" x="114" y="-375.5" font-family="Helvetica,sans-Serif" font-size="10.00" fill="#000000">PWGLF</text>
</a>
</g>
</g>
<!-- dir_2c68f3f7252dbc78e1323a34bf574d75&#45;&gt;dir_051dca18e802f8e9474f2e30d29c04e0 -->
<g id="edge29" class="edge">
<title>dir_2c68f3f7252dbc78e1323a34bf574d75&#45;&gt;dir_051dca18e802f8e9474f2e30d29c04e0</title>
<path fill="none" stroke="#000000" d="M97.6474,-359.9654C89.7936,-350.0988 81.1939,-337.2153 77,-324 62.48,-278.2467 48.9394,-255.6475 76,-216 117.1,-155.7829 339.0482,-112.5331 432.9768,-96.6638"/>
<polygon fill="#000000" stroke="#000000" points="433.6961,-100.0922 442.9842,-94.995 432.5447,-93.1876 433.6961,-100.0922"/>
<g id="a_edge29&#45;headlabel"><a xlink:href="dir_000020_000047.html" target="_top" xlink:title="4">
<text text-anchor="middle" x="430.6174" y="-100.984" font-family="Helvetica,sans-Serif" font-size="10.00" fill="#000000">4</text>
</a>
</g>
</g>
<!-- dir_2c68f3f7252dbc78e1323a34bf574d75&#45;&gt;dir_f41dd59f861c855ea21b0dc3111cb7b0 -->
<g id="edge30" class="edge">
<title>dir_2c68f3f7252dbc78e1323a34bf574d75&#45;&gt;dir_f41dd59f861c855ea21b0dc3111cb7b0</title>
<path fill="none" stroke="#000000" d="M129.1984,-359.697C135.0834,-353.7678 142.268,-347.7578 150,-344 168.5235,-334.9976 292.2195,-319.2979 360.2854,-311.1842"/>
<polygon fill="#000000" stroke="#000000" points="360.7877,-314.6493 370.3062,-309.9966 359.9638,-307.6979 360.7877,-314.6493"/>
<g id="a_edge30&#45;headlabel"><a xlink:href="dir_000020_000009.html" target="_top" xlink:title="36">
<text text-anchor="middle" x="357.5522" y="-315.3918" font-family="Helvetica,sans-Serif" font-size="10.00" fill="#000000">36</text>
</a>
</g>
</g>
<!-- dir_2c68f3f7252dbc78e1323a34bf574d75&#45;&gt;dir_8d04f135a1eb0fdc4d561ef87bbea216 -->
<g id="edge31" class="edge">
<title>dir_2c68f3f7252dbc78e1323a34bf574d75&#45;&gt;dir_8d04f135a1eb0fdc4d561ef87bbea216</title>
<path fill="none" stroke="#000000" d="M132.2439,-359.8535C137.8025,-354.5781 144.0256,-348.9163 150,-344 188.8438,-312.0359 236.3087,-278.9598 268.1888,-257.5349"/>
<polygon fill="#000000" stroke="#000000" points="270.3803,-260.2799 276.7473,-251.8116 266.4891,-254.4611 270.3803,-260.2799"/>
<g id="a_edge31&#45;headlabel"><a xlink:href="dir_000020_000005.html" target="_top" xlink:title="19">
<text text-anchor="middle" x="268.9706" y="-262.1383" font-family="Helvetica,sans-Serif" font-size="10.00" fill="#000000">19</text>
</a>
</g>
</g>
<!-- dir_2c68f3f7252dbc78e1323a34bf574d75&#45;&gt;dir_bcbb2cf9a3d3d83e5515c82071a07177 -->
<g id="edge32" class="edge">
<title>dir_2c68f3f7252dbc78e1323a34bf574d75&#45;&gt;dir_bcbb2cf9a3d3d83e5515c82071a07177</title>
<path fill="none" stroke="#000000" d="M104.1779,-359.9469C87.8024,-327.1178 59.9987,-257.2348 95,-216 113.0784,-194.7019 291.453,-174.7294 377.2972,-166.2616"/>
<polygon fill="#000000" stroke="#000000" points="377.6774,-169.7412 387.2903,-165.2866 376.9977,-162.7742 377.6774,-169.7412"/>
<g id="a_edge32&#45;headlabel"><a xlink:href="dir_000020_000061.html" target="_top" xlink:title="42">
<text text-anchor="middle" x="374.3755" y="-170.416" font-family="Helvetica,sans-Serif" font-size="10.00" fill="#000000">42</text>
</a>
</g>
</g>
<!-- dir_2c68f3f7252dbc78e1323a34bf574d75&#45;&gt;dir_2171f7ec022c5423887b07c69b2f5b48 -->
<g id="edge33" class="edge">
<title>dir_2c68f3f7252dbc78e1323a34bf574d75&#45;&gt;dir_2171f7ec022c5423887b07c69b2f5b48</title>
<path fill="none" stroke="#000000" d="M86.9836,-360.633C53.2722,-336.6024 0,-289.8003 0,-234 0,-234 0,-234 0,-162 0,-87.2847 247.319,-41.479 355.8984,-24.9693"/>
<polygon fill="#000000" stroke="#000000" points="356.5884,-28.4051 365.96,-23.4631 355.552,-21.4823 356.5884,-28.4051"/>
<g id="a_edge33&#45;headlabel"><a xlink:href="dir_000020_000088.html" target="_top" xlink:title="8">
<text text-anchor="middle" x="353.4538" y="-29.2452" font-family="Helvetica,sans-Serif" font-size="10.00" fill="#000000">8</text>
</a>
</g>
</g>
<!-- dir_032362cb8e4e063119218723e20381d8 -->
<g id="node7" class="node">
<title>dir_032362cb8e4e063119218723e20381d8</title>
<g id="a_node7"><a xlink:href="dir_032362cb8e4e063119218723e20381d8.html" target="_top" xlink:title="PWGMM">
<polygon fill="#ffffff" stroke="#000000" points="578,-396 522,-396 522,-360 578,-360 578,-396"/>
<text text-anchor="middle" x="550" y="-375.5" font-family="Helvetica,sans-Serif" font-size="10.00" fill="#000000">PWGMM</text>
</a>
</g>
</g>
<!-- dir_032362cb8e4e063119218723e20381d8&#45;&gt;dir_f41dd59f861c855ea21b0dc3111cb7b0 -->
<g id="edge1" class="edge">
<title>dir_032362cb8e4e063119218723e20381d8&#45;&gt;dir_f41dd59f861c855ea21b0dc3111cb7b0</title>
<path fill="none" stroke="#000000" d="M533.1211,-359.81C527.1781,-354.1702 520.18,-348.3112 513,-344 493.3764,-332.2171 469.5539,-323.3456 449.2809,-317.1505"/>
<polygon fill="#000000" stroke="#000000" points="450.2288,-313.7811 439.6478,-314.3233 448.2574,-320.4978 450.2288,-313.7811"/>
<g id="a_edge1&#45;headlabel"><a xlink:href="dir_000021_000009.html" target="_top" xlink:title="3">
<text text-anchor="middle" x="454.4774" y="-309.569" font-family="Helvetica,sans-Serif" font-size="10.00" fill="#000000">3</text>
</a>
</g>
</g>
<!-- dir_032362cb8e4e063119218723e20381d8&#45;&gt;dir_bcbb2cf9a3d3d83e5515c82071a07177 -->
<g id="edge2" class="edge">
<title>dir_032362cb8e4e063119218723e20381d8&#45;&gt;dir_bcbb2cf9a3d3d83e5515c82071a07177</title>
<path fill="none" stroke="#000000" d="M544.9687,-359.7396C535.7497,-328.36 514.0118,-263.0444 481,-216 473.5912,-205.4419 463.8304,-195.3748 454.4338,-186.8551"/>
<polygon fill="#000000" stroke="#000000" points="456.5194,-184.0296 446.686,-180.0856 451.9136,-189.3009 456.5194,-184.0296"/>
<g id="a_edge2&#45;headlabel"><a xlink:href="dir_000021_000061.html" target="_top" xlink:title="4">
<text text-anchor="middle" x="461.0944" y="-181.7565" font-family="Helvetica,sans-Serif" font-size="10.00" fill="#000000">4</text>
</a>
</g>
</g>
<!-- dir_af4863fa0f8d58f15705286c3835bfad -->
<g id="node8" class="node">
<title>dir_af4863fa0f8d58f15705286c3835bfad</title>
<g id="a_node8"><a xlink:href="dir_af4863fa0f8d58f15705286c3835bfad.html" target="_top" xlink:title="PWGUD">
<polygon fill="#ffffff" stroke="#000000" points="359.5,-396 304.5,-396 304.5,-360 359.5,-360 359.5,-396"/>
<text text-anchor="middle" x="332" y="-375.5" font-family="Helvetica,sans-Serif" font-size="10.00" fill="#000000">PWGUD</text>
</a>
</g>
</g>
<!-- dir_af4863fa0f8d58f15705286c3835bfad&#45;&gt;dir_f41dd59f861c855ea21b0dc3111cb7b0 -->
<g id="edge34" class="edge">
<title>dir_af4863fa0f8d58f15705286c3835bfad&#45;&gt;dir_f41dd59f861c855ea21b0dc3111cb7b0</title>
<path fill="none" stroke="#000000" d="M350.421,-359.8314C359.1529,-351.219 369.7317,-340.7851 379.2423,-331.4048"/>
<polygon fill="#000000" stroke="#000000" points="381.923,-333.6769 386.5849,-324.1628 377.0075,-328.6931 381.923,-333.6769"/>
<g id="a_edge34&#45;headlabel"><a xlink:href="dir_000022_000009.html" target="_top" xlink:title="2">
<text text-anchor="middle" x="381.3575" y="-335.7225" font-family="Helvetica,sans-Serif" font-size="10.00" fill="#000000">2</text>
</a>
</g>
</g>
<!-- dir_af4863fa0f8d58f15705286c3835bfad&#45;&gt;dir_8d04f135a1eb0fdc4d561ef87bbea216 -->
<g id="edge35" class="edge">
<title>dir_af4863fa0f8d58f15705286c3835bfad&#45;&gt;dir_8d04f135a1eb0fdc4d561ef87bbea216</title>
<path fill="none" stroke="#000000" d="M328.4538,-359.7623C323.6569,-335.0928 315.0561,-290.8598 309.4392,-261.9731"/>
<polygon fill="#000000" stroke="#000000" points="312.8619,-261.2377 307.5174,-252.0896 305.9905,-262.5738 312.8619,-261.2377"/>
<g id="a_edge35&#45;headlabel"><a xlink:href="dir_000022_000005.html" target="_top" xlink:title="1">
<text text-anchor="middle" x="316.335" y="-261.7243" font-family="Helvetica,sans-Serif" font-size="10.00" fill="#000000">1</text>
</a>
</g>
</g>
<!-- dir_af4863fa0f8d58f15705286c3835bfad&#45;&gt;dir_bcbb2cf9a3d3d83e5515c82071a07177 -->
<g id="edge36" class="edge">
<title>dir_af4863fa0f8d58f15705286c3835bfad&#45;&gt;dir_bcbb2cf9a3d3d83e5515c82071a07177</title>
<path fill="none" stroke="#000000" d="M313.8818,-359.5913C285.0216,-327.9877 235.07,-262.3436 268,-216 280.9993,-197.7057 336.6811,-181.4807 377.6005,-171.7044"/>
<polygon fill="#000000" stroke="#000000" points="378.446,-175.1013 387.3889,-169.4202 376.8551,-168.2844 378.446,-175.1013"/>
<g id="a_edge36&#45;headlabel"><a xlink:href="dir_000022_000061.html" target="_top" xlink:title="3">
<text text-anchor="middle" x="375.5906" y="-176.1831" font-family="Helvetica,sans-Serif" font-size="10.00" fill="#000000">3</text>
</a>
</g>
</g>
<!-- dir_6af676bf18881990e4083e191d0e63e0&#45;&gt;dir_bcbb2cf9a3d3d83e5515c82071a07177 -->
<g id="edge3" class="edge">
<title>dir_6af676bf18881990e4083e191d0e63e0&#45;&gt;dir_bcbb2cf9a3d3d83e5515c82071a07177</title>
<path fill="none" stroke="#000000" d="M158.0495,-221.2112C162.6447,-219.3037 167.4141,-217.4832 172,-216 242.2284,-193.2869 326.6232,-177.3635 377.4735,-168.9494"/>
<polygon fill="#000000" stroke="#000000" points="378.183,-172.38 387.49,-167.3175 377.0573,-165.4711 378.183,-172.38"/>
<g id="a_edge3&#45;headlabel"><a xlink:href="dir_000027_000061.html" target="_top" xlink:title="2">
<text text-anchor="middle" x="375.0917" y="-173.2603" font-family="Helvetica,sans-Serif" font-size="10.00" fill="#000000">2</text>
</a>
</g>
</g>
<!-- dir_051dca18e802f8e9474f2e30d29c04e0&#45;&gt;dir_6af676bf18881990e4083e191d0e63e0 -->
<g id="edge4" class="edge">
<title>dir_051dca18e802f8e9474f2e30d29c04e0&#45;&gt;dir_6af676bf18881990e4083e191d0e63e0</title>
<path fill="none" stroke="#000000" d="M442.6256,-103.2191C387.1082,-125.9423 270.2261,-174.0197 172,-216 170.615,-216.5919 169.2048,-217.1974 167.7812,-217.8109"/>
<polygon fill="#000000" stroke="#000000" points="166.0946,-214.7273 158.3147,-221.9193 168.8815,-221.1487 166.0946,-214.7273"/>
<g id="a_edge4&#45;headlabel"><a xlink:href="dir_000047_000027.html" target="_top" xlink:title="29">
<text text-anchor="middle" x="168.2617" y="-208.1917" font-family="Helvetica,sans-Serif" font-size="10.00" fill="#000000">29</text>
</a>
</g>
</g>
<!-- dir_051dca18e802f8e9474f2e30d29c04e0&#45;&gt;dir_bcbb2cf9a3d3d83e5515c82071a07177 -->
<g id="edge5" class="edge">
<title>dir_051dca18e802f8e9474f2e30d29c04e0&#45;&gt;dir_bcbb2cf9a3d3d83e5515c82071a07177</title>
<path fill="none" stroke="#000000" d="M467.6775,-108.4133C462.4607,-116.7389 455.4281,-126.7282 448.4337,-135.8144"/>
<polygon fill="#000000" stroke="#000000" points="445.5469,-133.8218 442.0742,-143.8314 451.031,-138.1721 445.5469,-133.8218"/>
<g id="a_edge5&#45;headlabel"><a xlink:href="dir_000047_000061.html" target="_top" xlink:title="955">
<text text-anchor="middle" x="445.5564" y="-126.7412" font-family="Helvetica,sans-Serif" font-size="10.00" fill="#000000">955</text>
</a>
</g>
</g>
<!-- dir_051dca18e802f8e9474f2e30d29c04e0&#45;&gt;dir_2171f7ec022c5423887b07c69b2f5b48 -->
<g id="edge6" class="edge">
<title>dir_051dca18e802f8e9474f2e30d29c04e0&#45;&gt;dir_2171f7ec022c5423887b07c69b2f5b48</title>
<path fill="none" stroke="#000000" d="M451.636,-71.8314C442.7019,-63.3694 432.7221,-53.1489 424.3101,-43.8971"/>
<polygon fill="#000000" stroke="#000000" points="426.9249,-41.5706 417.67,-36.4133 421.6888,-46.2164 426.9249,-41.5706"/>
<g id="a_edge6&#45;headlabel"><a xlink:href="dir_000047_000088.html" target="_top" xlink:title="1266">
<text text-anchor="middle" x="431.4344" y="-39.875" font-family="Helvetica,sans-Serif" font-size="10.00" fill="#000000">1266</text>
</a>
</g>
</g>
<!-- dir_f41dd59f861c855ea21b0dc3111cb7b0&#45;&gt;dir_6af676bf18881990e4083e191d0e63e0 -->
<g id="edge21" class="edge">
<title>dir_f41dd59f861c855ea21b0dc3111cb7b0&#45;&gt;dir_6af676bf18881990e4083e191d0e63e0</title>
<path fill="none" stroke="#000000" d="M370.2977,-296.8812C318.3486,-283.2303 220.8065,-257.5988 167.7101,-243.6465"/>
<polygon fill="#000000" stroke="#000000" points="168.5832,-240.2571 158.022,-241.1007 166.8042,-247.0273 168.5832,-240.2571"/>
<g id="a_edge21&#45;headlabel"><a xlink:href="dir_000009_000027.html" target="_top" xlink:title="2">
<text text-anchor="middle" x="172.7814" y="-235.9246" font-family="Helvetica,sans-Serif" font-size="10.00" fill="#000000">2</text>
</a>
</g>
</g>
<!-- dir_f41dd59f861c855ea21b0dc3111cb7b0&#45;&gt;dir_051dca18e802f8e9474f2e30d29c04e0 -->
<g id="edge22" class="edge">
<title>dir_f41dd59f861c855ea21b0dc3111cb7b0&#45;&gt;dir_051dca18e802f8e9474f2e30d29c04e0</title>
<path fill="none" stroke="#000000" d="M417.0059,-287.7111C431.8944,-263.9789 456.6886,-220.7706 468,-180 473.5777,-159.8958 475.2474,-136.3629 475.5651,-118.4039"/>
<polygon fill="#000000" stroke="#000000" points="479.0655,-118.2995 475.6133,-108.2829 472.0656,-118.2661 479.0655,-118.2995"/>
<g id="a_edge22&#45;headlabel"><a xlink:href="dir_000009_000047.html" target="_top" xlink:title="1">
<text text-anchor="middle" x="481.8878" y="-119.4075" font-family="Helvetica,sans-Serif" font-size="10.00" fill="#000000">1</text>
</a>
</g>
</g>
<!-- dir_f41dd59f861c855ea21b0dc3111cb7b0&#45;&gt;dir_8d04f135a1eb0fdc4d561ef87bbea216 -->
<g id="edge23" class="edge">
<title>dir_f41dd59f861c855ea21b0dc3111cb7b0&#45;&gt;dir_8d04f135a1eb0fdc4d561ef87bbea216</title>
<path fill="none" stroke="#000000" d="M379.5134,-287.8314C366.8341,-278.7927 351.3404,-267.7476 337.6945,-258.0198"/>
<polygon fill="#000000" stroke="#000000" points="339.6529,-255.1176 329.4784,-252.1628 335.5895,-260.8176 339.6529,-255.1176"/>
<g id="a_edge23&#45;headlabel"><a xlink:href="dir_000009_000005.html" target="_top" xlink:title="3">
<text text-anchor="middle" x="344.228" y="-252.3922" font-family="Helvetica,sans-Serif" font-size="10.00" fill="#000000">3</text>
</a>
</g>
</g>
<!-- dir_f41dd59f861c855ea21b0dc3111cb7b0&#45;&gt;dir_bcbb2cf9a3d3d83e5515c82071a07177 -->
<g id="edge24" class="edge">
<title>dir_f41dd59f861c855ea21b0dc3111cb7b0&#45;&gt;dir_bcbb2cf9a3d3d83e5515c82071a07177</title>
<path fill="none" stroke="#000000" d="M407.2797,-287.7623C410.3499,-263.201 415.8441,-219.2474 419.4557,-190.3541"/>
<polygon fill="#000000" stroke="#000000" points="422.9713,-190.4465 420.7388,-180.0896 416.0254,-189.5782 422.9713,-190.4465"/>
<g id="a_edge24&#45;headlabel"><a xlink:href="dir_000009_000061.html" target="_top" xlink:title="19">
<text text-anchor="middle" x="425.3429" y="-191.8655" font-family="Helvetica,sans-Serif" font-size="10.00" fill="#000000">19</text>
</a>
</g>
</g>
<!-- dir_f41dd59f861c855ea21b0dc3111cb7b0&#45;&gt;dir_2171f7ec022c5423887b07c69b2f5b48 -->
<g id="edge25" class="edge">
<title>dir_f41dd59f861c855ea21b0dc3111cb7b0&#45;&gt;dir_2171f7ec022c5423887b07c69b2f5b48</title>
<path fill="none" stroke="#000000" d="M398.8285,-287.6217C389.4986,-257.6694 373.4483,-196.4039 379,-144 382.6251,-109.782 391.6406,-71.1981 398.2606,-45.8464"/>
<polygon fill="#000000" stroke="#000000" points="401.6469,-46.7314 400.8401,-36.1673 394.8829,-44.9287 401.6469,-46.7314"/>
<g id="a_edge25&#45;headlabel"><a xlink:href="dir_000009_000088.html" target="_top" xlink:title="5">
<text text-anchor="middle" x="403.4648" y="-48.4359" font-family="Helvetica,sans-Serif" font-size="10.00" fill="#000000">5</text>
</a>
</g>
</g>
<!-- dir_8d04f135a1eb0fdc4d561ef87bbea216&#45;&gt;dir_bcbb2cf9a3d3d83e5515c82071a07177 -->
<g id="edge27" class="edge">
<title>dir_8d04f135a1eb0fdc4d561ef87bbea216&#45;&gt;dir_bcbb2cf9a3d3d83e5515c82071a07177</title>
<path fill="none" stroke="#000000" d="M331.0029,-217.6621C346.7696,-208.1226 366.9279,-195.926 384.3541,-185.3824"/>
<polygon fill="#000000" stroke="#000000" points="386.436,-188.2136 393.18,-180.0423 382.8123,-182.2245 386.436,-188.2136"/>
<g id="a_edge27&#45;headlabel"><a xlink:href="dir_000005_000061.html" target="_top" xlink:title="8">
<text text-anchor="middle" x="384.8303" y="-190.0036" font-family="Helvetica,sans-Serif" font-size="10.00" fill="#000000">8</text>
</a>
</g>
</g>
<!-- dir_8d04f135a1eb0fdc4d561ef87bbea216&#45;&gt;dir_2171f7ec022c5423887b07c69b2f5b48 -->
<g id="edge28" class="edge">
<title>dir_8d04f135a1eb0fdc4d561ef87bbea216&#45;&gt;dir_2171f7ec022c5423887b07c69b2f5b48</title>
<path fill="none" stroke="#000000" d="M305.1365,-215.6419C307.8166,-184.1148 316.6294,-118.5828 345,-72 351.6673,-61.0528 361.2585,-51.089 370.868,-42.7844"/>
<polygon fill="#000000" stroke="#000000" points="373.3675,-45.2611 378.8804,-36.2135 368.9286,-39.8484 373.3675,-45.2611"/>
<g id="a_edge28&#45;headlabel"><a xlink:href="dir_000005_000088.html" target="_top" xlink:title="2">
<text text-anchor="middle" x="372.3884" y="-47.2359" font-family="Helvetica,sans-Serif" font-size="10.00" fill="#000000">2</text>
</a>
</g>
</g>
<!-- dir_bcbb2cf9a3d3d83e5515c82071a07177&#45;&gt;dir_051dca18e802f8e9474f2e30d29c04e0 -->
<g id="edge37" class="edge">
<title>dir_bcbb2cf9a3d3d83e5515c82071a07177&#45;&gt;dir_051dca18e802f8e9474f2e30d29c04e0</title>
<path fill="none" stroke="#000000" d="M430.1694,-143.8314C435.3505,-135.5386 442.3654,-125.557 449.3603,-116.4533"/>
<polygon fill="#000000" stroke="#000000" points="452.2625,-118.4262 455.7255,-108.4133 446.7742,-114.0812 452.2625,-118.4262"/>
<g id="a_edge37&#45;headlabel"><a xlink:href="dir_000061_000047.html" target="_top" xlink:title="4">
<text text-anchor="middle" x="452.2574" y="-120.5068" font-family="Helvetica,sans-Serif" font-size="10.00" fill="#000000">4</text>
</a>
</g>
</g>
<!-- dir_bcbb2cf9a3d3d83e5515c82071a07177&#45;&gt;dir_2171f7ec022c5423887b07c69b2f5b48 -->
<g id="edge38" class="edge">
<title>dir_bcbb2cf9a3d3d83e5515c82071a07177&#45;&gt;dir_2171f7ec022c5423887b07c69b2f5b48</title>
<path fill="none" stroke="#000000" d="M416.1738,-143.7623C410.8144,-119.201 405.3506,-75.2474 403.8499,-46.3541"/>
<polygon fill="#000000" stroke="#000000" points="407.3379,-45.956 403.4773,-36.0896 400.3425,-46.21 407.3379,-45.956"/>
<g id="a_edge38&#45;headlabel"><a xlink:href="dir_000061_000088.html" target="_top" xlink:title="73">
<text text-anchor="middle" x="410.3056" y="-46.9453" font-family="Helvetica,sans-Serif" font-size="10.00" fill="#000000">73</text>
</a>
</g>
</g>
<!-- dir_2171f7ec022c5423887b07c69b2f5b48&#45;&gt;dir_051dca18e802f8e9474f2e30d29c04e0 -->
<g id="edge39" class="edge">
<title>dir_2171f7ec022c5423887b07c69b2f5b48&#45;&gt;dir_051dca18e802f8e9474f2e30d29c04e0</title>
<path fill="none" stroke="#000000" d="M429.3579,-36.1628C438.3602,-44.6891 448.425,-55.0016 456.878,-64.3099"/>
<polygon fill="#000000" stroke="#000000" points="454.29,-66.6667 463.5408,-71.8314 459.5298,-62.0251 454.29,-66.6667"/>
<g id="a_edge39&#45;headlabel"><a xlink:href="dir_000088_000047.html" target="_top" xlink:title="16">
<text text-anchor="middle" x="449.7812" y="-63.3587" font-family="Helvetica,sans-Serif" font-size="10.00" fill="#000000">16</text>
</a>
</g>
</g>
<!-- dir_2171f7ec022c5423887b07c69b2f5b48&#45;&gt;dir_bcbb2cf9a3d3d83e5515c82071a07177 -->
<g id="edge40" class="edge">
<title>dir_2171f7ec022c5423887b07c69b2f5b48&#45;&gt;dir_bcbb2cf9a3d3d83e5515c82071a07177</title>
<path fill="none" stroke="#000000" d="M412.7939,-36.0896C418.1528,-60.5727 423.6243,-104.5174 425.141,-133.4713"/>
<polygon fill="#000000" stroke="#000000" points="421.6542,-133.898 425.5201,-143.7623 428.6495,-133.6402 421.6542,-133.898"/>
<g id="a_edge40&#45;headlabel"><a xlink:href="dir_000088_000061.html" target="_top" xlink:title="21">
<text text-anchor="middle" x="418.6846" y="-127.9103" font-family="Helvetica,sans-Serif" font-size="10.00" fill="#000000">21</text>
</a>
</g>
</g>
</g>
</svg>
