<?xml version="1.0" encoding="UTF-8" standalone="no"?>
<!DOCTYPE svg PUBLIC "-//W3C//DTD SVG 1.1//EN"
 "http://www.w3.org/Graphics/SVG/1.1/DTD/svg11.dtd">
<!-- Generated by graphviz version 2.40.1 (20161225.0304)
 -->
<!-- Title: Graphical Class Hierarchy Pages: 1 -->
<svg width="391pt" height="137pt"
 viewBox="0.00 0.00 391.00 137.00" xmlns="http://www.w3.org/2000/svg" xmlns:xlink="http://www.w3.org/1999/xlink">
<g id="graph0" class="graph" transform="scale(1 1) rotate(0) translate(4 133)">
<title>Graphical Class Hierarchy</title>
<!-- Node3170 -->
<g id="node1" class="node">
<title>Node3170</title>
<polygon fill="none" stroke="#bfbfbf" points="0,-55 0,-74 29,-74 29,-55 0,-55"/>
<text text-anchor="middle" x="14.5" y="-62" font-family="Helvetica,sans-Serif" font-size="10.00" fill="#000000">T</text>
</g>
<!-- Node0 -->
<g id="node2" class="node">
<title>Node0</title>
<g id="a_node2"><a xlink:href="dd/d0d/classo2_1_1soa_1_1FilteredPolicy.html" target="_top" xlink:title="o2::soa::FilteredPolicy\l\&lt; T::table_t \&gt;">
<polygon fill="none" stroke="#000000" points="93.5,-98.5 93.5,-128.5 216.5,-128.5 216.5,-98.5 93.5,-98.5"/>
<text text-anchor="start" x="101.5" y="-116.5" font-family="Helvetica,sans-Serif" font-size="10.00" fill="#000000">o2::soa::FilteredPolicy</text>
<text text-anchor="middle" x="155" y="-105.5" font-family="Helvetica,sans-Serif" font-size="10.00" fill="#000000">&lt; T::table_t &gt;</text>
</a>
</g>
</g>
<!-- Node3170&#45;&gt;Node0 -->
<g id="edge1" class="edge">
<title>Node3170&#45;&gt;Node0</title>
<path fill="none" stroke="#191970" d="M38.275,-77.4854C46.5729,-81.6886 56.0507,-86.13 65,-89.5 74.0802,-92.9193 83.8478,-96.0541 93.482,-98.85"/>
<polygon fill="#191970" stroke="#191970" points="39.6632,-74.2619 29.1783,-72.739 36.425,-80.4679 39.6632,-74.2619"/>
</g>
<!-- Node3173 -->
<g id="node4" class="node">
<title>Node3173</title>
<g id="a_node4"><a xlink:href="df/d27/classGPUCA__NAMESPACE_1_1gpu_1_1GPUReconstructionKernels.html" target="_top" xlink:title="GPUCA_NAMESPACE::gpu\l::GPUReconstructionKernels\&lt; T \&gt;">
<polygon fill="none" stroke="#000000" points="65,-49.5 65,-79.5 245,-79.5 245,-49.5 65,-49.5"/>
<text text-anchor="start" x="73" y="-67.5" font-family="Helvetica,sans-Serif" font-size="10.00" fill="#000000">GPUCA_NAMESPACE::gpu</text>
<text text-anchor="middle" x="155" y="-56.5" font-family="Helvetica,sans-Serif" font-size="10.00" fill="#000000">::GPUReconstructionKernels&lt; T &gt;</text>
</a>
</g>
</g>
<!-- Node3170&#45;&gt;Node3173 -->
<g id="edge3" class="edge">
<title>Node3170&#45;&gt;Node3173</title>
<path fill="none" stroke="#191970" d="M39.1086,-64.5C46.6691,-64.5 55.4733,-64.5 64.7882,-64.5"/>
<polygon fill="#191970" stroke="#191970" points="39.0068,-61.0001 29.0068,-64.5 39.0067,-68.0001 39.0068,-61.0001"/>
</g>
<!-- Node3174 -->
<g id="node5" class="node">
<title>Node3174</title>
<g id="a_node5"><a xlink:href="d6/deb/classGPUCA__NAMESPACE_1_1gpu_1_1GPUTRDTrack__t.html" target="_top" xlink:title="GPUCA_NAMESPACE::gpu\l::GPUTRDTrack_t\&lt; T \&gt;">
<polygon fill="none" stroke="#000000" points="85,-.5 85,-30.5 225,-30.5 225,-.5 85,-.5"/>
<text text-anchor="start" x="93" y="-18.5" font-family="Helvetica,sans-Serif" font-size="10.00" fill="#000000">GPUCA_NAMESPACE::gpu</text>
<text text-anchor="middle" x="155" y="-7.5" font-family="Helvetica,sans-Serif" font-size="10.00" fill="#000000">::GPUTRDTrack_t&lt; T &gt;</text>
</a>
</g>
</g>
<!-- Node3170&#45;&gt;Node3174 -->
<g id="edge4" class="edge">
<title>Node3170&#45;&gt;Node3174</title>
<path fill="none" stroke="#191970" d="M38.3436,-52.1297C46.6469,-48.1021 56.1106,-43.8186 65,-40.5 74.5712,-36.9268 84.8822,-33.5983 94.9892,-30.6104"/>
<polygon fill="#191970" stroke="#191970" points="36.6241,-49.076 29.2332,-56.6671 39.7449,-55.3418 36.6241,-49.076"/>
</g>
<!-- Node1 -->
<g id="node3" class="node">
<title>Node1</title>
<g id="a_node3"><a xlink:href="d8/d07/classo2_1_1soa_1_1Filtered_3_01Filtered_3_01T_01_4_01_4.html" target="_top" xlink:title="o2::soa::Filtered\&lt;\l Filtered\&lt; T \&gt; \&gt;">
<polygon fill="none" stroke="#000000" points="281,-98.5 281,-128.5 383,-128.5 383,-98.5 281,-98.5"/>
<text text-anchor="start" x="289" y="-116.5" font-family="Helvetica,sans-Serif" font-size="10.00" fill="#000000">o2::soa::Filtered&lt;</text>
<text text-anchor="middle" x="332" y="-105.5" font-family="Helvetica,sans-Serif" font-size="10.00" fill="#000000"> Filtered&lt; T &gt; &gt;</text>
</a>
</g>
</g>
<!-- Node0&#45;&gt;Node1 -->
<g id="edge2" class="edge">
<title>Node0&#45;&gt;Node1</title>
<path fill="none" stroke="#191970" d="M227.1112,-113.5C245.1677,-113.5 264.1673,-113.5 280.9601,-113.5"/>
<polygon fill="#191970" stroke="#191970" points="226.906,-110.0001 216.906,-113.5 226.906,-117.0001 226.906,-110.0001"/>
</g>
</g>
</svg>
