<?xml version="1.0" encoding="UTF-8" standalone="no"?>
<!DOCTYPE svg PUBLIC "-//W3C//DTD SVG 1.1//EN"
 "http://www.w3.org/Graphics/SVG/1.1/DTD/svg11.dtd">
<!-- Generated by graphviz version 2.40.1 (20161225.0304)
 -->
<!-- Title: Graphical Class Hierarchy Pages: 1 -->
<svg width="383pt" height="28pt"
 viewBox="0.00 0.00 383.00 28.00" xmlns="http://www.w3.org/2000/svg" xmlns:xlink="http://www.w3.org/1999/xlink">
<g id="graph0" class="graph" transform="scale(1 1) rotate(0) translate(4 24)">
<title>Graphical Class Hierarchy</title>
<!-- Node0 -->
<g id="node1" class="node">
<title>Node0</title>
<g id="a_node1"><a xlink:href="d3/d5f/classo2_1_1soa_1_1T.html" target="_top" xlink:title="T">
<polygon fill="none" stroke="#000000" points="0,-.5 0,-19.5 29,-19.5 29,-.5 0,-.5"/>
<text text-anchor="middle" x="14.5" y="-7.5" font-family="Helvetica,sans-Serif" font-size="10.00" fill="#000000">T</text>
</a>
</g>
</g>
<!-- Node1 -->
<g id="node2" class="node">
<title>Node1</title>
<g id="a_node2"><a xlink:href="dd/d0d/classo2_1_1soa_1_1FilteredPolicy.html" target="_top" xlink:title="o2::soa::FilteredPolicy\&lt; T \&gt;">
<polygon fill="none" stroke="#000000" points="65,-.5 65,-19.5 217,-19.5 217,-.5 65,-.5"/>
<text text-anchor="middle" x="141" y="-7.5" font-family="Helvetica,sans-Serif" font-size="10.00" fill="#000000">o2::soa::FilteredPolicy&lt; T &gt;</text>
</a>
</g>
</g>
<!-- Node0&#45;&gt;Node1 -->
<g id="edge1" class="edge">
<title>Node0&#45;&gt;Node1</title>
<path fill="none" stroke="#191970" d="M39.1981,-10C46.8035,-10 55.6113,-10 64.8,-10"/>
<polygon fill="#191970" stroke="#191970" points="39.0112,-6.5001 29.0112,-10 39.0111,-13.5001 39.0112,-6.5001"/>
</g>
<!-- Node2 -->
<g id="node3" class="node">
<title>Node2</title>
<g id="a_node3"><a xlink:href="dd/ddc/classo2_1_1soa_1_1Filtered.html" target="_top" xlink:title="o2::soa::Filtered\&lt; T \&gt;">
<polygon fill="none" stroke="#000000" points="253,-.5 253,-19.5 375,-19.5 375,-.5 253,-.5"/>
<text text-anchor="middle" x="314" y="-7.5" font-family="Helvetica,sans-Serif" font-size="10.00" fill="#000000">o2::soa::Filtered&lt; T &gt;</text>
</a>
</g>
</g>
<!-- Node1&#45;&gt;Node2 -->
<g id="edge2" class="edge">
<title>Node1&#45;&gt;Node2</title>
<path fill="none" stroke="#191970" d="M227.2714,-10C235.9275,-10 244.5866,-10 252.9021,-10"/>
<polygon fill="#191970" stroke="#191970" points="227.1321,-6.5001 217.1321,-10 227.132,-13.5001 227.1321,-6.5001"/>
</g>
</g>
</svg>
