<?xml version="1.0" encoding="UTF-8" standalone="no"?>
<!DOCTYPE svg PUBLIC "-//W3C//DTD SVG 1.1//EN"
 "http://www.w3.org/Graphics/SVG/1.1/DTD/svg11.dtd">
<!-- Generated by graphviz version 2.40.1 (20161225.0304)
 -->
<!-- Title: Graphical Class Hierarchy Pages: 1 -->
<svg width="520pt" height="127pt"
 viewBox="0.00 0.00 520.00 126.50" xmlns="http://www.w3.org/2000/svg" xmlns:xlink="http://www.w3.org/1999/xlink">
<g id="graph0" class="graph" transform="scale(1 1) rotate(0) translate(4 122.5)">
<title>Graphical Class Hierarchy</title>
<!-- Node0 -->
<g id="node1" class="node">
<title>Node0</title>
<g id="a_node1"><a xlink:href="d0/dc6/classo2_1_1track_1_1TrackParametrization.html" target="_top" xlink:title="o2::track::TrackParametrization\l\&lt; value_T \&gt;">
<polygon fill="none" stroke="#000000" points="0,-61 0,-91 168,-91 168,-61 0,-61"/>
<text text-anchor="start" x="8" y="-79" font-family="Helvetica,sans-Serif" font-size="10.00" fill="#000000">o2::track::TrackParametrization</text>
<text text-anchor="middle" x="84" y="-68" font-family="Helvetica,sans-Serif" font-size="10.00" fill="#000000">&lt; value_T &gt;</text>
</a>
</g>
</g>
<!-- Node1 -->
<g id="node2" class="node">
<title>Node1</title>
<g id="a_node2"><a xlink:href="d8/d51/classo2_1_1tpc_1_1LaserTrack.html" target="_top" xlink:title="o2::tpc::LaserTrack">
<polygon fill="none" stroke="#000000" points="234.5,-88.5 234.5,-107.5 341.5,-107.5 341.5,-88.5 234.5,-88.5"/>
<text text-anchor="middle" x="288" y="-95.5" font-family="Helvetica,sans-Serif" font-size="10.00" fill="#000000">o2::tpc::LaserTrack</text>
</a>
</g>
</g>
<!-- Node0&#45;&gt;Node1 -->
<g id="edge1" class="edge">
<title>Node0&#45;&gt;Node1</title>
<path fill="none" stroke="#191970" d="M178.1864,-86.1574C197.4678,-88.2367 217.1236,-90.3565 234.3764,-92.2171"/>
<polygon fill="#191970" stroke="#191970" points="178.47,-82.6677 168.1524,-85.0753 177.7194,-89.6274 178.47,-82.6677"/>
</g>
<!-- Node2 -->
<g id="node3" class="node">
<title>Node2</title>
<g id="a_node3"><a xlink:href="dc/dbe/classo2_1_1track_1_1TrackParametrizationWithError.html" target="_top" xlink:title="o2::track::TrackParametrization\lWithError\&lt; value_T \&gt;">
<polygon fill="none" stroke="#000000" points="204,-39 204,-69 372,-69 372,-39 204,-39"/>
<text text-anchor="start" x="212" y="-57" font-family="Helvetica,sans-Serif" font-size="10.00" fill="#000000">o2::track::TrackParametrization</text>
<text text-anchor="middle" x="288" y="-46" font-family="Helvetica,sans-Serif" font-size="10.00" fill="#000000">WithError&lt; value_T &gt;</text>
</a>
</g>
</g>
<!-- Node0&#45;&gt;Node2 -->
<g id="edge2" class="edge">
<title>Node0&#45;&gt;Node2</title>
<path fill="none" stroke="#191970" d="M178.124,-65.8494C186.6596,-64.9289 195.2692,-64.0004 203.7117,-63.0899"/>
<polygon fill="#191970" stroke="#191970" points="177.7194,-62.3726 168.1524,-66.9247 178.47,-69.3323 177.7194,-62.3726"/>
</g>
<!-- Node3 -->
<g id="node4" class="node">
<title>Node3</title>
<g id="a_node4"><a xlink:href="d6/da6/structo2_1_1globaltracking_1_1ABTrackLink.html" target="_top" xlink:title="o2::globaltracking\l::ABTrackLink">
<polygon fill="none" stroke="#000000" points="408,-88 408,-118 512,-118 512,-88 408,-88"/>
<text text-anchor="start" x="416" y="-106" font-family="Helvetica,sans-Serif" font-size="10.00" fill="#000000">o2::globaltracking</text>
<text text-anchor="middle" x="460" y="-95" font-family="Helvetica,sans-Serif" font-size="10.00" fill="#000000">::ABTrackLink</text>
</a>
</g>
</g>
<!-- Node2&#45;&gt;Node3 -->
<g id="edge3" class="edge">
<title>Node2&#45;&gt;Node3</title>
<path fill="none" stroke="#191970" d="M350.6474,-71.8472C369.3978,-77.1889 389.7507,-82.9871 407.7568,-88.1168"/>
<polygon fill="#191970" stroke="#191970" points="351.5855,-68.4753 341.0091,-69.1014 349.6675,-75.2074 351.5855,-68.4753"/>
</g>
<!-- Node4 -->
<g id="node5" class="node">
<title>Node4</title>
<g id="a_node5"><a xlink:href="dc/d39/structo2_1_1globaltracking_1_1TrackLocTPCITS.html" target="_top" xlink:title="&lt; original track in the currently loaded TPC&#45;ITS reco output ">
<polygon fill="none" stroke="#000000" points="408,-39 408,-69 512,-69 512,-39 408,-39"/>
<text text-anchor="start" x="416" y="-57" font-family="Helvetica,sans-Serif" font-size="10.00" fill="#000000">o2::globaltracking</text>
<text text-anchor="middle" x="460" y="-46" font-family="Helvetica,sans-Serif" font-size="10.00" fill="#000000">::TrackLocTPCITS</text>
</a>
</g>
</g>
<!-- Node2&#45;&gt;Node4 -->
<g id="edge4" class="edge">
<title>Node2&#45;&gt;Node4</title>
<path fill="none" stroke="#191970" d="M382.4243,-54C391.0759,-54 399.6128,-54 407.6801,-54"/>
<polygon fill="#191970" stroke="#191970" points="382.2365,-50.5001 372.2364,-54 382.2364,-57.5001 382.2365,-50.5001"/>
</g>
<!-- Node5 -->
<g id="node6" class="node">
<title>Node5</title>
<g id="a_node6"><a xlink:href="d4/d76/classo2_1_1tpc_1_1TrackTPC.html" target="_top" xlink:title="o2::tpc::TrackTPC">
<polygon fill="none" stroke="#000000" points="410,-.5 410,-19.5 510,-19.5 510,-.5 410,-.5"/>
<text text-anchor="middle" x="460" y="-7.5" font-family="Helvetica,sans-Serif" font-size="10.00" fill="#000000">o2::tpc::TrackTPC</text>
</a>
</g>
</g>
<!-- Node2&#45;&gt;Node5 -->
<g id="edge5" class="edge">
<title>Node2&#45;&gt;Node5</title>
<path fill="none" stroke="#191970" d="M356.6116,-36.4482C379.207,-30.668 403.4737,-24.4602 422.8151,-19.5124"/>
<polygon fill="#191970" stroke="#191970" points="355.5322,-33.1115 346.7116,-38.9808 357.267,-39.8932 355.5322,-33.1115"/>
</g>
</g>
</svg>
