<?xml version="1.0" encoding="UTF-8" standalone="no"?>
<!DOCTYPE svg PUBLIC "-//W3C//DTD SVG 1.1//EN"
 "http://www.w3.org/Graphics/SVG/1.1/DTD/svg11.dtd">
<!-- Generated by graphviz version 2.40.1 (20161225.0304)
 -->
<!-- Title: /home/travis/build/AliceO2Group/AliceO2/Analysis/Tutorials/src/configurableCut.cxx Pages: 1 -->
<svg width="232pt" height="173pt"
 viewBox="0.00 0.00 232.00 173.00" xmlns="http://www.w3.org/2000/svg" xmlns:xlink="http://www.w3.org/1999/xlink">
<g id="graph0" class="graph" transform="scale(1 1) rotate(0) translate(4 169)">
<title>/home/travis/build/AliceO2Group/AliceO2/Analysis/Tutorials/src/configurableCut.cxx</title>
<!-- Node0 -->
<g id="node1" class="node">
<title>Node0</title>
<polygon fill="#bfbfbf" stroke="#000000" points="69.5,-112.5 69.5,-164.5 196.5,-164.5 196.5,-112.5 69.5,-112.5"/>
<text text-anchor="start" x="77.5" y="-152.5" font-family="Helvetica,sans-Serif" font-size="10.00" fill="#000000">/home/travis/build</text>
<text text-anchor="start" x="77.5" y="-141.5" font-family="Helvetica,sans-Serif" font-size="10.00" fill="#000000">/AliceO2Group/AliceO2</text>
<text text-anchor="start" x="77.5" y="-130.5" font-family="Helvetica,sans-Serif" font-size="10.00" fill="#000000">/Analysis/Tutorials/src</text>
<text text-anchor="middle" x="133" y="-119.5" font-family="Helvetica,sans-Serif" font-size="10.00" fill="#000000">/configurableCut.cxx</text>
</g>
<!-- Node1 -->
<g id="node2" class="node">
<title>Node1</title>
<g id="a_node2"><a xlink:href="../../d9/d08/configurableCut_8h.html" target="_top" xlink:title="Analysis/configurableCut.h">
<polygon fill="none" stroke="#000000" points="0,-56.5 0,-75.5 146,-75.5 146,-56.5 0,-56.5"/>
<text text-anchor="middle" x="73" y="-63.5" font-family="Helvetica,sans-Serif" font-size="10.00" fill="#000000">Analysis/configurableCut.h</text>
</a>
</g>
</g>
<!-- Node0&#45;&gt;Node1 -->
<g id="edge1" class="edge">
<title>Node0&#45;&gt;Node1</title>
<path fill="none" stroke="#191970" d="M111.3386,-112.3258C103.3833,-102.7131 94.5781,-92.0735 87.4144,-83.4174"/>
<polygon fill="#191970" stroke="#191970" points="89.9623,-81.0065 80.8902,-75.534 84.5695,-85.4695 89.9623,-81.0065"/>
</g>
<!-- Node4 -->
<g id="node5" class="node">
<title>Node4</title>
<polygon fill="none" stroke="#bfbfbf" points="164,-56.5 164,-75.5 224,-75.5 224,-56.5 164,-56.5"/>
<text text-anchor="middle" x="194" y="-63.5" font-family="Helvetica,sans-Serif" font-size="10.00" fill="#000000">iostream</text>
</g>
<!-- Node0&#45;&gt;Node4 -->
<g id="edge4" class="edge">
<title>Node0&#45;&gt;Node4</title>
<path fill="none" stroke="#191970" d="M155.0224,-112.3258C163.1104,-102.7131 172.0623,-92.0735 179.3453,-83.4174"/>
<polygon fill="#191970" stroke="#191970" points="182.2183,-85.4392 185.9783,-75.534 176.862,-80.9325 182.2183,-85.4392"/>
</g>
<!-- Node2 -->
<g id="node3" class="node">
<title>Node2</title>
<polygon fill="none" stroke="#bfbfbf" points="13.5,-.5 13.5,-19.5 62.5,-19.5 62.5,-.5 13.5,-.5"/>
<text text-anchor="middle" x="38" y="-7.5" font-family="Helvetica,sans-Serif" font-size="10.00" fill="#000000">iosfwd</text>
</g>
<!-- Node1&#45;&gt;Node2 -->
<g id="edge2" class="edge">
<title>Node1&#45;&gt;Node2</title>
<path fill="none" stroke="#191970" d="M66.9035,-56.2455C62.0855,-48.5367 55.2249,-37.5598 49.3968,-28.2348"/>
<polygon fill="#191970" stroke="#191970" points="52.2947,-26.2677 44.0267,-19.6427 46.3587,-29.9777 52.2947,-26.2677"/>
</g>
<!-- Node3 -->
<g id="node4" class="node">
<title>Node3</title>
<polygon fill="none" stroke="#bfbfbf" points="81,-.5 81,-19.5 137,-19.5 137,-.5 81,-.5"/>
<text text-anchor="middle" x="109" y="-7.5" font-family="Helvetica,sans-Serif" font-size="10.00" fill="#000000">TMath.h</text>
</g>
<!-- Node1&#45;&gt;Node3 -->
<g id="edge3" class="edge">
<title>Node1&#45;&gt;Node3</title>
<path fill="none" stroke="#191970" d="M79.2707,-56.2455C84.2264,-48.5367 91.283,-37.5598 97.2776,-28.2348"/>
<polygon fill="#191970" stroke="#191970" points="100.3376,-29.9471 102.8011,-19.6427 94.4494,-26.1618 100.3376,-29.9471"/>
</g>
</g>
</svg>
