<?xml version="1.0" encoding="UTF-8" standalone="no"?>
<!DOCTYPE svg PUBLIC "-//W3C//DTD SVG 1.1//EN"
 "http://www.w3.org/Graphics/SVG/1.1/DTD/svg11.dtd">
<!-- Generated by graphviz version 2.40.1 (20161225.0304)
 -->
<!-- Title: /home/travis/build/AliceO2Group/AliceO2/Detectors/MUON/MCH/Simulation/test/testResponse.cxx Pages: 1 -->
<svg width="2572pt" height="486pt"
 viewBox="0.00 0.00 2572.00 486.00" xmlns="http://www.w3.org/2000/svg" xmlns:xlink="http://www.w3.org/1999/xlink">
<g id="graph0" class="graph" transform="scale(1 1) rotate(0) translate(4 482)">
<title>/home/travis/build/AliceO2Group/AliceO2/Detectors/MUON/MCH/Simulation/test/testResponse.cxx</title>
<!-- Node0 -->
<g id="node1" class="node">
<title>Node0</title>
<polygon fill="#bfbfbf" stroke="#000000" points="2253.5,-425.5 2253.5,-477.5 2435.5,-477.5 2435.5,-425.5 2253.5,-425.5"/>
<text text-anchor="start" x="2261.5" y="-465.5" font-family="Helvetica,sans-Serif" font-size="10.00" fill="#000000">/home/travis/build</text>
<text text-anchor="start" x="2261.5" y="-454.5" font-family="Helvetica,sans-Serif" font-size="10.00" fill="#000000">/AliceO2Group/AliceO2</text>
<text text-anchor="start" x="2261.5" y="-443.5" font-family="Helvetica,sans-Serif" font-size="10.00" fill="#000000">/Detectors/MUON/MCH/Simulation</text>
<text text-anchor="middle" x="2344.5" y="-432.5" font-family="Helvetica,sans-Serif" font-size="10.00" fill="#000000">/test/testResponse.cxx</text>
</g>
<!-- Node1 -->
<g id="node2" class="node">
<title>Node1</title>
<polygon fill="none" stroke="#bfbfbf" points="1939.5,-369.5 1939.5,-388.5 2071.5,-388.5 2071.5,-369.5 1939.5,-369.5"/>
<text text-anchor="middle" x="2005.5" y="-376.5" font-family="Helvetica,sans-Serif" font-size="10.00" fill="#000000">boost/test/unit_test.hpp</text>
</g>
<!-- Node0&#45;&gt;Node1 -->
<g id="edge1" class="edge">
<title>Node0&#45;&gt;Node1</title>
<path fill="none" stroke="#191970" d="M2253.2083,-431.976C2191.6185,-418.8041 2112.3838,-401.8586 2060.3252,-390.7251"/>
<polygon fill="#191970" stroke="#191970" points="2060.7999,-387.2476 2050.2891,-388.5788 2059.3359,-394.0928 2060.7999,-387.2476"/>
</g>
<!-- Node2 -->
<g id="node3" class="node">
<title>Node2</title>
<polygon fill="none" stroke="#bfbfbf" points="2297.5,-196 2297.5,-215 2355.5,-215 2355.5,-196 2297.5,-196"/>
<text text-anchor="middle" x="2326.5" y="-203" font-family="Helvetica,sans-Serif" font-size="10.00" fill="#000000">memory</text>
</g>
<!-- Node0&#45;&gt;Node2 -->
<g id="edge2" class="edge">
<title>Node0&#45;&gt;Node2</title>
<path fill="none" stroke="#191970" d="M2367.3904,-425.4721C2388.6666,-398.0192 2415.2902,-353.2474 2402.5,-313 2391.0011,-276.8159 2362.4256,-242.3277 2343.7763,-222.5697"/>
<polygon fill="#191970" stroke="#191970" points="2346.178,-220.0187 2336.7039,-215.276 2341.1526,-224.8916 2346.178,-220.0187"/>
</g>
<!-- Node3 -->
<g id="node4" class="node">
<title>Node3</title>
<polygon fill="none" stroke="#bfbfbf" points="2232,-196 2232,-215 2279,-215 2279,-196 2232,-196"/>
<text text-anchor="middle" x="2255.5" y="-203" font-family="Helvetica,sans-Serif" font-size="10.00" fill="#000000">vector</text>
</g>
<!-- Node0&#45;&gt;Node3 -->
<g id="edge3" class="edge">
<title>Node0&#45;&gt;Node3</title>
<path fill="none" stroke="#191970" d="M2329.6734,-425.3933C2316.8032,-401.8481 2298.4127,-365.9578 2286.5,-333 2273.0765,-295.8624 2263.6181,-250.5585 2258.9099,-225.1759"/>
<polygon fill="#191970" stroke="#191970" points="2262.3498,-224.5294 2257.1343,-215.3072 2255.4605,-225.769 2262.3498,-224.5294"/>
</g>
<!-- Node4 -->
<g id="node5" class="node">
<title>Node4</title>
<g id="a_node5"><a xlink:href="../../df/d3f/Response_8h.html" target="_top" xlink:title="MCHSimulation/Response.h">
<polygon fill="none" stroke="#000000" points="2089.5,-369.5 2089.5,-388.5 2239.5,-388.5 2239.5,-369.5 2089.5,-369.5"/>
<text text-anchor="middle" x="2164.5" y="-376.5" font-family="Helvetica,sans-Serif" font-size="10.00" fill="#000000">MCHSimulation/Response.h</text>
</a>
</g>
</g>
<!-- Node0&#45;&gt;Node4 -->
<g id="edge4" class="edge">
<title>Node0&#45;&gt;Node4</title>
<path fill="none" stroke="#191970" d="M2279.7702,-425.4283C2251.9019,-414.2035 2220.5159,-401.5619 2197.5391,-392.3074"/>
<polygon fill="#191970" stroke="#191970" points="2198.8251,-389.0522 2188.2416,-388.5626 2196.2098,-395.5453 2198.8251,-389.0522"/>
</g>
<!-- Node43 -->
<g id="node44" class="node">
<title>Node43</title>
<polygon fill="none" stroke="#bfbfbf" points="2450,-369.5 2450,-388.5 2503,-388.5 2503,-369.5 2450,-369.5"/>
<text text-anchor="middle" x="2476.5" y="-376.5" font-family="Helvetica,sans-Serif" font-size="10.00" fill="#000000">TH1D.h</text>
</g>
<!-- Node0&#45;&gt;Node43 -->
<g id="edge57" class="edge">
<title>Node0&#45;&gt;Node43</title>
<path fill="none" stroke="#191970" d="M2392.155,-425.3258C2411.6623,-414.6116 2433.492,-402.6218 2450.0553,-393.5246"/>
<polygon fill="#191970" stroke="#191970" points="2452.0615,-396.4159 2459.1415,-388.534 2448.6916,-390.2804 2452.0615,-396.4159"/>
</g>
<!-- Node44 -->
<g id="node45" class="node">
<title>Node44</title>
<polygon fill="none" stroke="#bfbfbf" points="2521,-369.5 2521,-388.5 2564,-388.5 2564,-369.5 2521,-369.5"/>
<text text-anchor="middle" x="2542.5" y="-376.5" font-family="Helvetica,sans-Serif" font-size="10.00" fill="#000000">TF1.h</text>
</g>
<!-- Node0&#45;&gt;Node44 -->
<g id="edge58" class="edge">
<title>Node0&#45;&gt;Node44</title>
<path fill="none" stroke="#191970" d="M2415.7028,-425.4283C2448.3934,-413.4582 2485.4844,-399.8769 2511.0654,-390.5102"/>
<polygon fill="#191970" stroke="#191970" points="2512.42,-393.7415 2520.6068,-387.0164 2510.0131,-387.1683 2512.42,-393.7415"/>
</g>
<!-- Node5 -->
<g id="node6" class="node">
<title>Node5</title>
<g id="a_node6"><a xlink:href="../../d8/d72/Detectors_2MUON_2MCH_2Base_2include_2MCHBase_2Digit_8h.html" target="_top" xlink:title="MCHBase/Digit.h">
<polygon fill="none" stroke="#000000" points="2295.5,-313.5 2295.5,-332.5 2393.5,-332.5 2393.5,-313.5 2295.5,-313.5"/>
<text text-anchor="middle" x="2344.5" y="-320.5" font-family="Helvetica,sans-Serif" font-size="10.00" fill="#000000">MCHBase/Digit.h</text>
</a>
</g>
</g>
<!-- Node4&#45;&gt;Node5 -->
<g id="edge5" class="edge">
<title>Node4&#45;&gt;Node5</title>
<path fill="none" stroke="#191970" d="M2195.4431,-369.3733C2225.5039,-360.021 2271.3026,-345.7725 2304.1978,-335.5385"/>
<polygon fill="#191970" stroke="#191970" points="2305.4519,-338.8139 2313.9607,-332.5011 2303.3723,-332.1299 2305.4519,-338.8139"/>
</g>
<!-- Node7 -->
<g id="node8" class="node">
<title>Node7</title>
<g id="a_node8"><a xlink:href="../../dc/dab/MUON_2MCH_2Simulation_2include_2MCHSimulation_2Detector_8h.html" target="_top" xlink:title="MCHSimulation/Detector.h">
<polygon fill="none" stroke="#000000" points="2092,-313.5 2092,-332.5 2237,-332.5 2237,-313.5 2092,-313.5"/>
<text text-anchor="middle" x="2164.5" y="-320.5" font-family="Helvetica,sans-Serif" font-size="10.00" fill="#000000">MCHSimulation/Detector.h</text>
</a>
</g>
</g>
<!-- Node4&#45;&gt;Node7 -->
<g id="edge7" class="edge">
<title>Node4&#45;&gt;Node7</title>
<path fill="none" stroke="#191970" d="M2164.5,-369.2455C2164.5,-361.9382 2164.5,-351.6944 2164.5,-342.7046"/>
<polygon fill="#191970" stroke="#191970" points="2168.0001,-342.6426 2164.5,-332.6427 2161.0001,-342.6427 2168.0001,-342.6426"/>
</g>
<!-- Node31 -->
<g id="node32" class="node">
<title>Node31</title>
<g id="a_node32"><a xlink:href="../../d5/daf/Detectors_2MUON_2MCH_2Simulation_2include_2MCHSimulation_2Hit_8h.html" target="_top" xlink:title="MCHSimulation/Hit.h">
<polygon fill="none" stroke="#000000" points="1216.5,-257.5 1216.5,-276.5 1334.5,-276.5 1334.5,-257.5 1216.5,-257.5"/>
<text text-anchor="middle" x="1275.5" y="-264.5" font-family="Helvetica,sans-Serif" font-size="10.00" fill="#000000">MCHSimulation/Hit.h</text>
</a>
</g>
</g>
<!-- Node4&#45;&gt;Node31 -->
<g id="edge56" class="edge">
<title>Node4&#45;&gt;Node31</title>
<path fill="none" stroke="#191970" d="M2089.4705,-369.5475C1919.8244,-348.1747 1508.7668,-296.3879 1344.7555,-275.7251"/>
<polygon fill="#191970" stroke="#191970" points="1345.1422,-272.2462 1334.7831,-274.4687 1344.2671,-279.1913 1345.1422,-272.2462"/>
</g>
<!-- Node6 -->
<g id="node7" class="node">
<title>Node6</title>
<polygon fill="none" stroke="#bfbfbf" points="1956,-73 1956,-92 2015,-92 2015,-73 1956,-73"/>
<text text-anchor="middle" x="1985.5" y="-80" font-family="Helvetica,sans-Serif" font-size="10.00" fill="#000000">Rtypes.h</text>
</g>
<!-- Node5&#45;&gt;Node6 -->
<g id="edge6" class="edge">
<title>Node5&#45;&gt;Node6</title>
<path fill="none" stroke="#191970" d="M2350.1955,-313.4704C2363.4678,-289.8941 2393.2213,-228.0008 2364.5,-190 2323.0961,-135.2189 2113.4679,-100.237 2024.9901,-87.698"/>
<polygon fill="#191970" stroke="#191970" points="2025.4559,-84.2292 2015.0683,-86.3143 2024.489,-91.1621 2025.4559,-84.2292"/>
</g>
<!-- Node7&#45;&gt;Node2 -->
<g id="edge55" class="edge">
<title>Node7&#45;&gt;Node2</title>
<path fill="none" stroke="#191970" d="M2177.7571,-313.3845C2205.6432,-293.1585 2270.6003,-246.0445 2304.7045,-221.3085"/>
<polygon fill="#191970" stroke="#191970" points="2307.0197,-223.953 2313.0597,-215.2484 2302.9098,-218.2865 2307.0197,-223.953"/>
</g>
<!-- Node7&#45;&gt;Node3 -->
<g id="edge54" class="edge">
<title>Node7&#45;&gt;Node3</title>
<path fill="none" stroke="#191970" d="M2170.3298,-313.285C2178.3691,-300.1263 2193.5656,-276.0896 2208.5,-257 2217.8232,-245.0828 2229.2474,-232.525 2238.498,-222.7934"/>
<polygon fill="#191970" stroke="#191970" points="2241.2434,-224.9885 2245.6634,-215.3596 2236.2035,-220.1305 2241.2434,-224.9885"/>
</g>
<!-- Node8 -->
<g id="node9" class="node">
<title>Node8</title>
<g id="a_node9"><a xlink:href="../../d1/d3a/Base_2include_2DetectorsBase_2Detector_8h.html" target="_top" xlink:title="DetectorsBase/Detector.h">
<polygon fill="none" stroke="#000000" points="1661,-257.5 1661,-276.5 1802,-276.5 1802,-257.5 1661,-257.5"/>
<text text-anchor="middle" x="1731.5" y="-264.5" font-family="Helvetica,sans-Serif" font-size="10.00" fill="#000000">DetectorsBase/Detector.h</text>
</a>
</g>
</g>
<!-- Node7&#45;&gt;Node8 -->
<g id="edge8" class="edge">
<title>Node7&#45;&gt;Node8</title>
<path fill="none" stroke="#191970" d="M2091.5371,-313.5637C2014.223,-303.5646 1892.461,-287.8171 1812.2947,-277.4492"/>
<polygon fill="#191970" stroke="#191970" points="1812.61,-273.9609 1802.2436,-276.1493 1811.7121,-280.9031 1812.61,-273.9609"/>
</g>
<!-- Node7&#45;&gt;Node31 -->
<g id="edge39" class="edge">
<title>Node7&#45;&gt;Node31</title>
<path fill="none" stroke="#191970" d="M2091.7494,-318.4173C1923.4886,-307.8182 1509.2807,-281.7263 1344.6211,-271.3541"/>
<polygon fill="#191970" stroke="#191970" points="1344.8116,-267.8592 1334.6113,-270.7235 1344.3715,-274.8454 1344.8116,-267.8592"/>
</g>
<!-- Node8&#45;&gt;Node2 -->
<g id="edge12" class="edge">
<title>Node8&#45;&gt;Node2</title>
<path fill="none" stroke="#191970" d="M1802.0472,-263.8525C1930.5889,-257.6734 2198.0255,-242.647 2288.5,-221 2291.2934,-220.3316 2294.1493,-219.4894 2296.9788,-218.5447"/>
<polygon fill="#191970" stroke="#191970" points="2298.2224,-221.8165 2306.3678,-215.0413 2295.7751,-215.2582 2298.2224,-221.8165"/>
</g>
<!-- Node8&#45;&gt;Node3 -->
<g id="edge10" class="edge">
<title>Node8&#45;&gt;Node3</title>
<path fill="none" stroke="#191970" d="M1802.4493,-263.3668C1918.878,-256.8996 2145.2697,-242.0637 2222.5,-221 2224.4694,-220.4629 2226.4663,-219.8151 2228.4525,-219.0931"/>
<polygon fill="#191970" stroke="#191970" points="2230.2541,-222.1326 2238.118,-215.0327 2227.5429,-215.6789 2230.2541,-222.1326"/>
</g>
<!-- Node8&#45;&gt;Node6 -->
<g id="edge21" class="edge">
<title>Node8&#45;&gt;Node6</title>
<path fill="none" stroke="#191970" d="M1802.1975,-265.148C1887.0185,-261.5863 2022.7853,-251.2037 2062.5,-221 2094.9421,-196.3272 2113.1249,-168.5485 2091.5,-134 2076.9675,-110.7826 2048.6461,-97.7642 2024.9319,-90.6271"/>
<polygon fill="#191970" stroke="#191970" points="2025.675,-87.2015 2015.1043,-87.9159 2023.8133,-93.9494 2025.675,-87.2015"/>
</g>
<!-- Node9 -->
<g id="node10" class="node">
<title>Node9</title>
<polygon fill="none" stroke="#bfbfbf" points="1755.5,-134.5 1755.5,-153.5 1793.5,-153.5 1793.5,-134.5 1755.5,-134.5"/>
<text text-anchor="middle" x="1774.5" y="-141.5" font-family="Helvetica,sans-Serif" font-size="10.00" fill="#000000">map</text>
</g>
<!-- Node8&#45;&gt;Node9 -->
<g id="edge9" class="edge">
<title>Node8&#45;&gt;Node9</title>
<path fill="none" stroke="#191970" d="M1757.385,-257.4647C1773.2227,-250.1252 1792.1794,-238.2779 1801.5,-221 1811.7887,-201.9274 1800.1398,-178.1536 1789.0977,-162.1076"/>
<polygon fill="#191970" stroke="#191970" points="1791.5987,-159.6034 1782.8368,-153.647 1785.9718,-163.7674 1791.5987,-159.6034"/>
</g>
<!-- Node10 -->
<g id="node11" class="node">
<title>Node10</title>
<polygon fill="none" stroke="#bfbfbf" points="1999,-134.5 1999,-153.5 2082,-153.5 2082,-134.5 1999,-134.5"/>
<text text-anchor="middle" x="2040.5" y="-141.5" font-family="Helvetica,sans-Serif" font-size="10.00" fill="#000000">initializer_list</text>
</g>
<!-- Node8&#45;&gt;Node10 -->
<g id="edge11" class="edge">
<title>Node8&#45;&gt;Node10</title>
<path fill="none" stroke="#191970" d="M1802.0849,-261.4626C1889.4971,-253.8762 2028.8599,-239.1067 2044.5,-221 2058.0505,-205.3125 2053.7434,-180.4279 2048.225,-163.2137"/>
<polygon fill="#191970" stroke="#191970" points="2051.4588,-161.8631 2044.7813,-153.6375 2044.8718,-164.2319 2051.4588,-161.8631"/>
</g>
<!-- Node11 -->
<g id="node12" class="node">
<title>Node11</title>
<polygon fill="none" stroke="#bfbfbf" points="2129.5,-196 2129.5,-215 2213.5,-215 2213.5,-196 2129.5,-196"/>
<text text-anchor="middle" x="2171.5" y="-203" font-family="Helvetica,sans-Serif" font-size="10.00" fill="#000000">FairDetector.h</text>
</g>
<!-- Node8&#45;&gt;Node11 -->
<g id="edge13" class="edge">
<title>Node8&#45;&gt;Node11</title>
<path fill="none" stroke="#191970" d="M1802.0698,-261.7579C1879.4795,-255.2635 2007.1345,-242.361 2115.5,-221 2120.3188,-220.0501 2125.3301,-218.9009 2130.2866,-217.6625"/>
<polygon fill="#191970" stroke="#191970" points="2131.5215,-220.9569 2140.3039,-215.0307 2129.7428,-214.1867 2131.5215,-220.9569"/>
</g>
<!-- Node12 -->
<g id="node13" class="node">
<title>Node12</title>
<polygon fill="none" stroke="#bfbfbf" points="1102.5,-196 1102.5,-215 1208.5,-215 1208.5,-196 1102.5,-196"/>
<text text-anchor="middle" x="1155.5" y="-203" font-family="Helvetica,sans-Serif" font-size="10.00" fill="#000000">FairRootManager.h</text>
</g>
<!-- Node8&#45;&gt;Node12 -->
<g id="edge14" class="edge">
<title>Node8&#45;&gt;Node12</title>
<path fill="none" stroke="#191970" d="M1660.803,-264.1589C1561.299,-259.3708 1374.5325,-247.4899 1217.5,-221 1211.6827,-220.0187 1205.6072,-218.7763 1199.6318,-217.4237"/>
<polygon fill="#191970" stroke="#191970" points="1200.2717,-213.9783 1189.7332,-215.0699 1198.6522,-220.7884 1200.2717,-213.9783"/>
</g>
<!-- Node13 -->
<g id="node14" class="node">
<title>Node13</title>
<g id="a_node14"><a xlink:href="../../d0/d9a/MaterialManager_8h.html" target="_top" xlink:title="DetectorsBase/MaterialManager.h">
<polygon fill="none" stroke="#000000" points="1854,-196 1854,-215 2035,-215 2035,-196 1854,-196"/>
<text text-anchor="middle" x="1944.5" y="-203" font-family="Helvetica,sans-Serif" font-size="10.00" fill="#000000">DetectorsBase/MaterialManager.h</text>
</a>
</g>
</g>
<!-- Node8&#45;&gt;Node13 -->
<g id="edge15" class="edge">
<title>Node8&#45;&gt;Node13</title>
<path fill="none" stroke="#191970" d="M1764.7813,-257.3906C1801.6705,-246.7395 1861.2757,-229.5296 1901.6325,-217.8772"/>
<polygon fill="#191970" stroke="#191970" points="1902.8158,-221.1786 1911.4525,-215.0419 1900.874,-214.4533 1902.8158,-221.1786"/>
</g>
<!-- Node16 -->
<g id="node17" class="node">
<title>Node16</title>
<polygon fill="none" stroke="#bfbfbf" points="1226.5,-196 1226.5,-215 1284.5,-215 1284.5,-196 1226.5,-196"/>
<text text-anchor="middle" x="1255.5" y="-203" font-family="Helvetica,sans-Serif" font-size="10.00" fill="#000000">cxxabi.h</text>
</g>
<!-- Node8&#45;&gt;Node16 -->
<g id="edge22" class="edge">
<title>Node8&#45;&gt;Node16</title>
<path fill="none" stroke="#191970" d="M1660.8317,-261.9203C1555.4009,-253.9409 1362.0905,-237.6542 1294.5,-221 1291.7145,-220.3136 1288.8632,-219.4717 1286.0323,-218.5384"/>
<polygon fill="#191970" stroke="#191970" points="1287.205,-215.2407 1276.611,-215.1058 1284.8086,-221.8177 1287.205,-215.2407"/>
</g>
<!-- Node17 -->
<g id="node18" class="node">
<title>Node17</title>
<polygon fill="none" stroke="#bfbfbf" points="1303,-196 1303,-215 1360,-215 1360,-196 1303,-196"/>
<text text-anchor="middle" x="1331.5" y="-203" font-family="Helvetica,sans-Serif" font-size="10.00" fill="#000000">typeinfo</text>
</g>
<!-- Node8&#45;&gt;Node17 -->
<g id="edge23" class="edge">
<title>Node8&#45;&gt;Node17</title>
<path fill="none" stroke="#191970" d="M1660.73,-263.471C1586.9949,-258.5314 1468.6114,-247.0311 1369.5,-221 1366.877,-220.3111 1364.194,-219.4844 1361.5268,-218.5761"/>
<polygon fill="#191970" stroke="#191970" points="1362.664,-215.2646 1352.0718,-215.0298 1360.2057,-221.8188 1362.664,-215.2646"/>
</g>
<!-- Node18 -->
<g id="node19" class="node">
<title>Node18</title>
<polygon fill="none" stroke="#bfbfbf" points="1378,-196 1378,-215 1447,-215 1447,-196 1378,-196"/>
<text text-anchor="middle" x="1412.5" y="-203" font-family="Helvetica,sans-Serif" font-size="10.00" fill="#000000">type_traits</text>
</g>
<!-- Node8&#45;&gt;Node18 -->
<g id="edge24" class="edge">
<title>Node8&#45;&gt;Node18</title>
<path fill="none" stroke="#191970" d="M1660.7197,-258.5884C1604.7588,-251.1183 1524.9373,-238.6367 1456.5,-221 1453.3629,-220.1915 1450.1319,-219.2573 1446.913,-218.2564"/>
<polygon fill="#191970" stroke="#191970" points="1447.9915,-214.9267 1437.3983,-215.1123 1445.7952,-221.5732 1447.9915,-214.9267"/>
</g>
<!-- Node19 -->
<g id="node20" class="node">
<title>Node19</title>
<polygon fill="none" stroke="#bfbfbf" points="1465.5,-196 1465.5,-215 1509.5,-215 1509.5,-196 1465.5,-196"/>
<text text-anchor="middle" x="1487.5" y="-203" font-family="Helvetica,sans-Serif" font-size="10.00" fill="#000000">string</text>
</g>
<!-- Node8&#45;&gt;Node19 -->
<g id="edge25" class="edge">
<title>Node8&#45;&gt;Node19</title>
<path fill="none" stroke="#191970" d="M1667.438,-257.487C1624.5376,-250.0727 1567.2155,-238.1323 1518.5,-221 1517.0809,-220.5009 1515.6433,-219.9515 1514.2044,-219.3663"/>
<polygon fill="#191970" stroke="#191970" points="1515.4243,-216.0767 1504.8709,-215.1405 1512.5371,-222.4535 1515.4243,-216.0767"/>
</g>
<!-- Node20 -->
<g id="node21" class="node">
<title>Node20</title>
<polygon fill="none" stroke="#bfbfbf" points="1527.5,-196 1527.5,-215 1601.5,-215 1601.5,-196 1527.5,-196"/>
<text text-anchor="middle" x="1564.5" y="-203" font-family="Helvetica,sans-Serif" font-size="10.00" fill="#000000">TMessage.h</text>
</g>
<!-- Node8&#45;&gt;Node20 -->
<g id="edge26" class="edge">
<title>Node8&#45;&gt;Node20</title>
<path fill="none" stroke="#191970" d="M1705.4063,-257.3906C1677.0964,-246.9652 1631.7232,-230.2559 1600.1408,-218.6252"/>
<polygon fill="#191970" stroke="#191970" points="1601.004,-215.2133 1590.4105,-215.0419 1598.5849,-221.7821 1601.004,-215.2133"/>
</g>
<!-- Node21 -->
<g id="node22" class="node">
<title>Node21</title>
<g id="a_node22"><a xlink:href="../../de/d61/ShmManager_8h.html" target="_top" xlink:title="CommonUtils/ShmManager.h">
<polygon fill="none" stroke="#000000" points="1217.5,-134.5 1217.5,-153.5 1375.5,-153.5 1375.5,-134.5 1217.5,-134.5"/>
<text text-anchor="middle" x="1296.5" y="-141.5" font-family="Helvetica,sans-Serif" font-size="10.00" fill="#000000">CommonUtils/ShmManager.h</text>
</a>
</g>
</g>
<!-- Node8&#45;&gt;Node21 -->
<g id="edge27" class="edge">
<title>Node8&#45;&gt;Node21</title>
<path fill="none" stroke="#191970" d="M1660.863,-264.4634C1498.7897,-258.3008 1112.6014,-241.5282 1093.5,-221 1053.8334,-178.3704 1135.9641,-159.1508 1207.3391,-150.6112"/>
<polygon fill="#191970" stroke="#191970" points="1207.7847,-154.0832 1217.3253,-149.4758 1206.9938,-147.128 1207.7847,-154.0832"/>
</g>
<!-- Node27 -->
<g id="node28" class="node">
<title>Node27</title>
<g id="a_node28"><a xlink:href="../../d0/d91/ShmAllocator_8h.html" target="_top" xlink:title="CommonUtils/ShmAllocator.h">
<polygon fill="none" stroke="#000000" points="886.5,-196 886.5,-215 1046.5,-215 1046.5,-196 886.5,-196"/>
<text text-anchor="middle" x="966.5" y="-203" font-family="Helvetica,sans-Serif" font-size="10.00" fill="#000000">CommonUtils/ShmAllocator.h</text>
</a>
</g>
</g>
<!-- Node8&#45;&gt;Node27 -->
<g id="edge33" class="edge">
<title>Node8&#45;&gt;Node27</title>
<path fill="none" stroke="#191970" d="M1660.7748,-264.3624C1538.2124,-259.2983 1278.5473,-246.3932 1060.5,-221 1050.291,-219.8111 1039.4997,-218.2861 1029.0102,-216.6582"/>
<polygon fill="#191970" stroke="#191970" points="1029.5011,-213.1923 1019.0746,-215.0735 1028.3985,-220.105 1029.5011,-213.1923"/>
</g>
<!-- Node28 -->
<g id="node29" class="node">
<title>Node28</title>
<polygon fill="none" stroke="#bfbfbf" points="1544.5,-134.5 1544.5,-153.5 1596.5,-153.5 1596.5,-134.5 1544.5,-134.5"/>
<text text-anchor="middle" x="1570.5" y="-141.5" font-family="Helvetica,sans-Serif" font-size="10.00" fill="#000000">cassert</text>
</g>
<!-- Node8&#45;&gt;Node28 -->
<g id="edge38" class="edge">
<title>Node8&#45;&gt;Node28</title>
<path fill="none" stroke="#191970" d="M1742.3975,-257.4747C1758.6435,-242.1293 1785.5657,-211.4849 1768.5,-190 1748.6837,-165.0521 1658.322,-152.4129 1606.7864,-147.1302"/>
<polygon fill="#191970" stroke="#191970" points="1607.0179,-143.6361 1596.7235,-146.1415 1606.3333,-150.6026 1607.0179,-143.6361"/>
</g>
<!-- Node29 -->
<g id="node30" class="node">
<title>Node29</title>
<polygon fill="none" stroke="#bfbfbf" points="1619.5,-196 1619.5,-215 1685.5,-215 1685.5,-196 1619.5,-196"/>
<text text-anchor="middle" x="1652.5" y="-203" font-family="Helvetica,sans-Serif" font-size="10.00" fill="#000000">sys/shm.h</text>
</g>
<!-- Node8&#45;&gt;Node29 -->
<g id="edge36" class="edge">
<title>Node8&#45;&gt;Node29</title>
<path fill="none" stroke="#191970" d="M1719.1563,-257.3906C1706.7497,-247.7324 1687.4157,-232.6812 1672.7587,-221.271"/>
<polygon fill="#191970" stroke="#191970" points="1674.7979,-218.423 1664.7571,-215.0419 1670.4979,-223.9466 1674.7979,-218.423"/>
</g>
<!-- Node30 -->
<g id="node31" class="node">
<title>Node30</title>
<polygon fill="none" stroke="#bfbfbf" points="1703.5,-196 1703.5,-215 1759.5,-215 1759.5,-196 1703.5,-196"/>
<text text-anchor="middle" x="1731.5" y="-203" font-family="Helvetica,sans-Serif" font-size="10.00" fill="#000000">unistd.h</text>
</g>
<!-- Node8&#45;&gt;Node30 -->
<g id="edge37" class="edge">
<title>Node8&#45;&gt;Node30</title>
<path fill="none" stroke="#191970" d="M1731.5,-257.3906C1731.5,-248.8657 1731.5,-236.1392 1731.5,-225.4235"/>
<polygon fill="#191970" stroke="#191970" points="1735.0001,-225.2448 1731.5,-215.2449 1728.0001,-225.2449 1735.0001,-225.2448"/>
</g>
<!-- Node13&#45;&gt;Node6 -->
<g id="edge16" class="edge">
<title>Node13&#45;&gt;Node6</title>
<path fill="none" stroke="#191970" d="M1923.9983,-195.8077C1899.6069,-182.8821 1864.0127,-158.7429 1879.5,-134 1894.0325,-110.7826 1922.3539,-97.7642 1946.0681,-90.6271"/>
<polygon fill="#191970" stroke="#191970" points="1947.1867,-93.9494 1955.8957,-87.9159 1945.325,-87.2015 1947.1867,-93.9494"/>
</g>
<!-- Node13&#45;&gt;Node9 -->
<g id="edge17" class="edge">
<title>Node13&#45;&gt;Node9</title>
<path fill="none" stroke="#191970" d="M1917.9375,-195.8906C1886.7597,-184.6116 1835.2514,-165.9777 1803.1842,-154.3769"/>
<polygon fill="#191970" stroke="#191970" points="1804.1006,-150.9865 1793.5063,-150.8758 1801.7192,-157.569 1804.1006,-150.9865"/>
</g>
<!-- Node13&#45;&gt;Node10 -->
<g id="edge19" class="edge">
<title>Node13&#45;&gt;Node10</title>
<path fill="none" stroke="#191970" d="M1959.5,-195.8906C1974.8581,-186.0519 1998.9521,-170.6167 2016.8745,-159.1351"/>
<polygon fill="#191970" stroke="#191970" points="2019.073,-161.8833 2025.6053,-153.5419 2015.297,-155.9891 2019.073,-161.8833"/>
</g>
<!-- Node14 -->
<g id="node15" class="node">
<title>Node14</title>
<polygon fill="none" stroke="#bfbfbf" points="1888,-134.5 1888,-153.5 1981,-153.5 1981,-134.5 1888,-134.5"/>
<text text-anchor="middle" x="1934.5" y="-141.5" font-family="Helvetica,sans-Serif" font-size="10.00" fill="#000000">unordered_map</text>
</g>
<!-- Node13&#45;&gt;Node14 -->
<g id="edge18" class="edge">
<title>Node13&#45;&gt;Node14</title>
<path fill="none" stroke="#191970" d="M1942.9375,-195.8906C1941.5513,-187.3657 1939.482,-174.6392 1937.7396,-163.9235"/>
<polygon fill="#191970" stroke="#191970" points="1941.1442,-163.0535 1936.0845,-153.7449 1934.2349,-164.177 1941.1442,-163.0535"/>
</g>
<!-- Node15 -->
<g id="node16" class="node">
<title>Node15</title>
<polygon fill="none" stroke="#bfbfbf" points="1492,-73 1492,-92 1541,-92 1541,-73 1492,-73"/>
<text text-anchor="middle" x="1516.5" y="-80" font-family="Helvetica,sans-Serif" font-size="10.00" fill="#000000">iosfwd</text>
</g>
<!-- Node13&#45;&gt;Node15 -->
<g id="edge20" class="edge">
<title>Node13&#45;&gt;Node15</title>
<path fill="none" stroke="#191970" d="M1929.4419,-195.8348C1904.2479,-180.1534 1851.4821,-149.3765 1802.5,-134 1694.5567,-100.1143 1659.0792,-129.7894 1550.5,-98 1548.5388,-97.4258 1546.5455,-96.7583 1544.5577,-96.029"/>
<polygon fill="#191970" stroke="#191970" points="1545.4168,-92.5972 1534.838,-92.0152 1542.7449,-99.0672 1545.4168,-92.5972"/>
</g>
<!-- Node22 -->
<g id="node23" class="node">
<title>Node22</title>
<polygon fill="none" stroke="#bfbfbf" points="1742.5,-73 1742.5,-92 1774.5,-92 1774.5,-73 1742.5,-73"/>
<text text-anchor="middle" x="1758.5" y="-80" font-family="Helvetica,sans-Serif" font-size="10.00" fill="#000000">list</text>
</g>
<!-- Node21&#45;&gt;Node22 -->
<g id="edge28" class="edge">
<title>Node21&#45;&gt;Node22</title>
<path fill="none" stroke="#191970" d="M1375.5952,-139.9174C1483.0859,-133.6436 1669.2665,-119.997 1733.5,-98 1734.5387,-97.6443 1735.5793,-97.239 1736.6142,-96.7949"/>
<polygon fill="#191970" stroke="#191970" points="1738.3724,-99.8243 1745.5652,-92.0452 1735.0912,-93.6409 1738.3724,-99.8243"/>
</g>
<!-- Node23 -->
<g id="node24" class="node">
<title>Node23</title>
<polygon fill="none" stroke="#bfbfbf" points="1200,-73 1200,-92 1253,-92 1253,-73 1200,-73"/>
<text text-anchor="middle" x="1226.5" y="-80" font-family="Helvetica,sans-Serif" font-size="10.00" fill="#000000">cstddef</text>
</g>
<!-- Node21&#45;&gt;Node23 -->
<g id="edge29" class="edge">
<title>Node21&#45;&gt;Node23</title>
<path fill="none" stroke="#191970" d="M1285.5625,-134.3906C1274.838,-124.9683 1258.2713,-110.4134 1245.4099,-99.1137"/>
<polygon fill="#191970" stroke="#191970" points="1247.4143,-96.2158 1237.5917,-92.2449 1242.7941,-101.4745 1247.4143,-96.2158"/>
</g>
<!-- Node24 -->
<g id="node25" class="node">
<title>Node24</title>
<polygon fill="none" stroke="#bfbfbf" points="1271.5,-73 1271.5,-92 1321.5,-92 1321.5,-73 1271.5,-73"/>
<text text-anchor="middle" x="1296.5" y="-80" font-family="Helvetica,sans-Serif" font-size="10.00" fill="#000000">atomic</text>
</g>
<!-- Node21&#45;&gt;Node24 -->
<g id="edge30" class="edge">
<title>Node21&#45;&gt;Node24</title>
<path fill="none" stroke="#191970" d="M1296.5,-134.3906C1296.5,-125.8657 1296.5,-113.1392 1296.5,-102.4235"/>
<polygon fill="#191970" stroke="#191970" points="1300.0001,-102.2448 1296.5,-92.2449 1293.0001,-102.2449 1300.0001,-102.2448"/>
</g>
<!-- Node25 -->
<g id="node26" class="node">
<title>Node25</title>
<polygon fill="none" stroke="#bfbfbf" points="1559,-67.5 1559,-97.5 1724,-97.5 1724,-67.5 1559,-67.5"/>
<text text-anchor="start" x="1567" y="-85.5" font-family="Helvetica,sans-Serif" font-size="10.00" fill="#000000">boost/interprocess</text>
<text text-anchor="middle" x="1641.5" y="-74.5" font-family="Helvetica,sans-Serif" font-size="10.00" fill="#000000">/managed_external_buffer.hpp</text>
</g>
<!-- Node21&#45;&gt;Node25 -->
<g id="edge31" class="edge">
<title>Node21&#45;&gt;Node25</title>
<path fill="none" stroke="#191970" d="M1350.0277,-134.4581C1403.0258,-125.0106 1485.2367,-110.3556 1548.8541,-99.0151"/>
<polygon fill="#191970" stroke="#191970" points="1549.6668,-102.4255 1558.8973,-97.2248 1548.4383,-95.5342 1549.6668,-102.4255"/>
</g>
<!-- Node26 -->
<g id="node27" class="node">
<title>Node26</title>
<polygon fill="none" stroke="#bfbfbf" points="1339.5,-67.5 1339.5,-97.5 1473.5,-97.5 1473.5,-67.5 1339.5,-67.5"/>
<text text-anchor="start" x="1347.5" y="-85.5" font-family="Helvetica,sans-Serif" font-size="10.00" fill="#000000">boost/interprocess</text>
<text text-anchor="middle" x="1406.5" y="-74.5" font-family="Helvetica,sans-Serif" font-size="10.00" fill="#000000">/allocators/allocator.hpp</text>
</g>
<!-- Node21&#45;&gt;Node26 -->
<g id="edge32" class="edge">
<title>Node21&#45;&gt;Node26</title>
<path fill="none" stroke="#191970" d="M1313.6875,-134.3906C1328.9193,-125.8747 1351.6503,-113.166 1370.804,-102.4573"/>
<polygon fill="#191970" stroke="#191970" points="1372.5705,-105.4796 1379.591,-97.5446 1369.1545,-99.3697 1372.5705,-105.4796"/>
</g>
<!-- Node27&#45;&gt;Node21 -->
<g id="edge34" class="edge">
<title>Node27&#45;&gt;Node21</title>
<path fill="none" stroke="#191970" d="M1017.7004,-195.9581C1076.4357,-185.012 1172.6817,-167.0752 1235.3153,-155.4026"/>
<polygon fill="#191970" stroke="#191970" points="1236.2615,-158.7866 1245.451,-153.5137 1234.979,-151.9051 1236.2615,-158.7866"/>
</g>
<!-- Node27&#45;&gt;Node28 -->
<g id="edge35" class="edge">
<title>Node27&#45;&gt;Node28</title>
<path fill="none" stroke="#191970" d="M1042.0133,-195.965C1058.9449,-193.9159 1076.8289,-191.8209 1093.5,-190 1257.9364,-172.0396 1454.6744,-154.2305 1534.3533,-147.1712"/>
<polygon fill="#191970" stroke="#191970" points="1534.7112,-150.6533 1544.3642,-146.2863 1534.0948,-143.6805 1534.7112,-150.6533"/>
</g>
<!-- Node31&#45;&gt;Node27 -->
<g id="edge53" class="edge">
<title>Node31&#45;&gt;Node27</title>
<path fill="none" stroke="#191970" d="M1227.5578,-257.4581C1172.6736,-246.5345 1082.8104,-228.6492 1024.1543,-216.9749"/>
<polygon fill="#191970" stroke="#191970" points="1024.7913,-213.5331 1014.3004,-215.0137 1023.4248,-220.3984 1024.7913,-213.5331"/>
</g>
<!-- Node32 -->
<g id="node33" class="node">
<title>Node32</title>
<g id="a_node33"><a xlink:href="../../d4/d25/BaseHits_8h.html" target="_top" xlink:title="SimulationDataFormat\l/BaseHits.h">
<polygon fill="none" stroke="#000000" points="741,-190.5 741,-220.5 868,-220.5 868,-190.5 741,-190.5"/>
<text text-anchor="start" x="749" y="-208.5" font-family="Helvetica,sans-Serif" font-size="10.00" fill="#000000">SimulationDataFormat</text>
<text text-anchor="middle" x="804.5" y="-197.5" font-family="Helvetica,sans-Serif" font-size="10.00" fill="#000000">/BaseHits.h</text>
</a>
</g>
</g>
<!-- Node31&#45;&gt;Node32 -->
<g id="edge40" class="edge">
<title>Node31&#45;&gt;Node32</title>
<path fill="none" stroke="#191970" d="M1216.2556,-261.9092C1140.3445,-254.9957 1004.5145,-241.3125 878.3611,-221.0414"/>
<polygon fill="#191970" stroke="#191970" points="878.5665,-217.529 868.1347,-219.38 877.444,-224.4384 878.5665,-217.529"/>
</g>
<!-- Node33 -->
<g id="node34" class="node">
<title>Node33</title>
<g id="a_node34"><a xlink:href="../../dd/d76/Cartesian3D_8h.html" target="_top" xlink:title="MathUtils/Cartesian3D.h">
<polygon fill="none" stroke="#000000" points="737,-134.5 737,-153.5 872,-153.5 872,-134.5 737,-134.5"/>
<text text-anchor="middle" x="804.5" y="-141.5" font-family="Helvetica,sans-Serif" font-size="10.00" fill="#000000">MathUtils/Cartesian3D.h</text>
</a>
</g>
</g>
<!-- Node32&#45;&gt;Node33 -->
<g id="edge41" class="edge">
<title>Node32&#45;&gt;Node33</title>
<path fill="none" stroke="#191970" d="M804.5,-190.2977C804.5,-182.3834 804.5,-172.6043 804.5,-164.0759"/>
<polygon fill="#191970" stroke="#191970" points="808.0001,-163.8469 804.5,-153.8469 801.0001,-163.847 808.0001,-163.8469"/>
</g>
<!-- Node33&#45;&gt;Node6 -->
<g id="edge47" class="edge">
<title>Node33&#45;&gt;Node6</title>
<path fill="none" stroke="#191970" d="M872.1912,-141.5108C1031.2651,-135.5101 1441.2959,-119.164 1783.5,-98 1839.8535,-94.5148 1904.9597,-89.3058 1945.6835,-85.9053"/>
<polygon fill="#191970" stroke="#191970" points="1946.0702,-89.3852 1955.7423,-85.0607 1945.4845,-82.4098 1946.0702,-89.3852"/>
</g>
<!-- Node33&#45;&gt;Node15 -->
<g id="edge49" class="edge">
<title>Node33&#45;&gt;Node15</title>
<path fill="none" stroke="#191970" d="M872.0482,-142.4912C1019.9514,-138.6887 1368.3375,-126.8757 1482.5,-98 1484.6973,-97.4442 1486.9281,-96.7515 1489.1423,-95.9695"/>
<polygon fill="#191970" stroke="#191970" points="1490.6502,-99.1345 1498.5884,-92.1177 1488.0071,-92.6526 1490.6502,-99.1345"/>
</g>
<!-- Node34 -->
<g id="node35" class="node">
<title>Node34</title>
<polygon fill="none" stroke="#bfbfbf" points="1017.5,-67.5 1017.5,-97.5 1181.5,-97.5 1181.5,-67.5 1017.5,-67.5"/>
<text text-anchor="start" x="1025.5" y="-85.5" font-family="Helvetica,sans-Serif" font-size="10.00" fill="#000000">Math/GenVector/Displacement</text>
<text text-anchor="middle" x="1099.5" y="-74.5" font-family="Helvetica,sans-Serif" font-size="10.00" fill="#000000">Vector3D.h</text>
</g>
<!-- Node33&#45;&gt;Node34 -->
<g id="edge42" class="edge">
<title>Node33&#45;&gt;Node34</title>
<path fill="none" stroke="#191970" d="M850.2701,-134.4581C894.8334,-125.1678 963.5516,-110.8418 1017.5533,-99.5838"/>
<polygon fill="#191970" stroke="#191970" points="1018.3809,-102.9866 1027.4561,-97.5193 1016.9523,-96.1339 1018.3809,-102.9866"/>
</g>
<!-- Node35 -->
<g id="node36" class="node">
<title>Node35</title>
<polygon fill="none" stroke="#bfbfbf" points="0,-73 0,-92 189,-92 189,-73 0,-73"/>
<text text-anchor="middle" x="94.5" y="-80" font-family="Helvetica,sans-Serif" font-size="10.00" fill="#000000">Math/GenVector/PositionVector3D.h</text>
</g>
<!-- Node33&#45;&gt;Node35 -->
<g id="edge43" class="edge">
<title>Node33&#45;&gt;Node35</title>
<path fill="none" stroke="#191970" d="M736.6426,-140.4514C624.4346,-134.2243 393.2619,-119.8766 198.5,-98 187.135,-96.7234 175.1041,-95.1434 163.4139,-93.4849"/>
<polygon fill="#191970" stroke="#191970" points="163.6523,-89.983 153.2537,-92.0129 162.6485,-96.9106 163.6523,-89.983"/>
</g>
<!-- Node36 -->
<g id="node37" class="node">
<title>Node36</title>
<polygon fill="none" stroke="#bfbfbf" points="207.5,-73 207.5,-92 367.5,-92 367.5,-73 207.5,-73"/>
<text text-anchor="middle" x="287.5" y="-80" font-family="Helvetica,sans-Serif" font-size="10.00" fill="#000000">Math/GenVector/Rotation3D.h</text>
</g>
<!-- Node33&#45;&gt;Node36 -->
<g id="edge44" class="edge">
<title>Node33&#45;&gt;Node36</title>
<path fill="none" stroke="#191970" d="M736.874,-138.1085C652.3704,-130.4302 503.4185,-115.8528 376.5,-98 367.4896,-96.7326 357.9922,-95.2435 348.6913,-93.6984"/>
<polygon fill="#191970" stroke="#191970" points="349.1525,-90.2268 338.7084,-92.0077 347.9835,-97.1285 349.1525,-90.2268"/>
</g>
<!-- Node37 -->
<g id="node38" class="node">
<title>Node37</title>
<polygon fill="none" stroke="#bfbfbf" points="385.5,-73 385.5,-92 553.5,-92 553.5,-73 385.5,-73"/>
<text text-anchor="middle" x="469.5" y="-80" font-family="Helvetica,sans-Serif" font-size="10.00" fill="#000000">Math/GenVector/Transform3D.h</text>
</g>
<!-- Node33&#45;&gt;Node37 -->
<g id="edge45" class="edge">
<title>Node33&#45;&gt;Node37</title>
<path fill="none" stroke="#191970" d="M752.5238,-134.4581C692.7756,-123.4894 594.7913,-105.5012 531.2189,-93.8305"/>
<polygon fill="#191970" stroke="#191970" points="531.7901,-90.3769 521.3225,-92.0137 530.5261,-97.2619 531.7901,-90.3769"/>
</g>
<!-- Node38 -->
<g id="node39" class="node">
<title>Node38</title>
<polygon fill="none" stroke="#bfbfbf" points="572,-73 572,-92 745,-92 745,-73 572,-73"/>
<text text-anchor="middle" x="658.5" y="-80" font-family="Helvetica,sans-Serif" font-size="10.00" fill="#000000">Math/GenVector/Translation3D.h</text>
</g>
<!-- Node33&#45;&gt;Node38 -->
<g id="edge46" class="edge">
<title>Node33&#45;&gt;Node38</title>
<path fill="none" stroke="#191970" d="M781.6875,-134.3906C757.1519,-124.0554 717.9558,-107.5447 690.3789,-95.9284"/>
<polygon fill="#191970" stroke="#191970" points="691.7268,-92.6984 681.1523,-92.0419 689.0094,-99.1495 691.7268,-92.6984"/>
</g>
<!-- Node39 -->
<g id="node40" class="node">
<title>Node39</title>
<polygon fill="none" stroke="#bfbfbf" points="763.5,-73 763.5,-92 845.5,-92 845.5,-73 763.5,-73"/>
<text text-anchor="middle" x="804.5" y="-80" font-family="Helvetica,sans-Serif" font-size="10.00" fill="#000000">TGeoMatrix.h</text>
</g>
<!-- Node33&#45;&gt;Node39 -->
<g id="edge48" class="edge">
<title>Node33&#45;&gt;Node39</title>
<path fill="none" stroke="#191970" d="M804.5,-134.3906C804.5,-125.8657 804.5,-113.1392 804.5,-102.4235"/>
<polygon fill="#191970" stroke="#191970" points="808.0001,-102.2448 804.5,-92.2449 801.0001,-102.2449 808.0001,-102.2448"/>
</g>
<!-- Node40 -->
<g id="node41" class="node">
<title>Node40</title>
<g id="a_node41"><a xlink:href="../../d2/dd0/Cartesian2D_8h.html" target="_top" xlink:title="MathUtils/Cartesian2D.h">
<polygon fill="none" stroke="#000000" points="864,-73 864,-92 999,-92 999,-73 864,-73"/>
<text text-anchor="middle" x="931.5" y="-80" font-family="Helvetica,sans-Serif" font-size="10.00" fill="#000000">MathUtils/Cartesian2D.h</text>
</a>
</g>
</g>
<!-- Node33&#45;&gt;Node40 -->
<g id="edge50" class="edge">
<title>Node33&#45;&gt;Node40</title>
<path fill="none" stroke="#191970" d="M824.3438,-134.3906C845.3136,-124.2359 878.5944,-108.1196 902.5036,-96.5416"/>
<polygon fill="#191970" stroke="#191970" points="904.3208,-99.5504 911.7956,-92.0419 901.2699,-93.2502 904.3208,-99.5504"/>
</g>
<!-- Node41 -->
<g id="node42" class="node">
<title>Node41</title>
<polygon fill="none" stroke="#bfbfbf" points="751.5,-.5 751.5,-30.5 915.5,-30.5 915.5,-.5 751.5,-.5"/>
<text text-anchor="start" x="759.5" y="-18.5" font-family="Helvetica,sans-Serif" font-size="10.00" fill="#000000">Math/GenVector/Displacement</text>
<text text-anchor="middle" x="833.5" y="-7.5" font-family="Helvetica,sans-Serif" font-size="10.00" fill="#000000">Vector2D.h</text>
</g>
<!-- Node40&#45;&gt;Node41 -->
<g id="edge51" class="edge">
<title>Node40&#45;&gt;Node41</title>
<path fill="none" stroke="#191970" d="M917.459,-72.9005C903.5412,-63.3853 881.772,-48.5023 863.888,-36.2755"/>
<polygon fill="#191970" stroke="#191970" points="865.7026,-33.2763 855.4721,-30.5218 861.7519,-39.0549 865.7026,-33.2763"/>
</g>
<!-- Node42 -->
<g id="node43" class="node">
<title>Node42</title>
<polygon fill="none" stroke="#bfbfbf" points="934,-6 934,-25 1123,-25 1123,-6 934,-6"/>
<text text-anchor="middle" x="1028.5" y="-13" font-family="Helvetica,sans-Serif" font-size="10.00" fill="#000000">Math/GenVector/PositionVector2D.h</text>
</g>
<!-- Node40&#45;&gt;Node42 -->
<g id="edge52" class="edge">
<title>Node40&#45;&gt;Node42</title>
<path fill="none" stroke="#191970" d="M945.3977,-72.9005C961.3164,-61.9052 987.6121,-43.7422 1006.3599,-30.7927"/>
<polygon fill="#191970" stroke="#191970" points="1008.3892,-33.6448 1014.628,-25.0817 1004.4108,-27.8852 1008.3892,-33.6448"/>
</g>
</g>
</svg>
