<?xml version="1.0" encoding="UTF-8" standalone="no"?>
<!DOCTYPE svg PUBLIC "-//W3C//DTD SVG 1.1//EN"
 "http://www.w3.org/Graphics/SVG/1.1/DTD/svg11.dtd">
<!-- Generated by graphviz version 2.40.1 (20161225.0304)
 -->
<!-- Title: /home/travis/build/AliceO2Group/AliceO2/Framework/Core/include/Framework/ChannelMatching.h Pages: 1 -->
<svg width="2881pt" height="374pt"
 viewBox="0.00 0.00 2881.00 374.00" xmlns="http://www.w3.org/2000/svg" xmlns:xlink="http://www.w3.org/1999/xlink">
<g id="graph0" class="graph" transform="scale(1 1) rotate(0) translate(4 370)">
<title>/home/travis/build/AliceO2Group/AliceO2/Framework/Core/include/Framework/ChannelMatching.h</title>
<!-- Node0 -->
<g id="node1" class="node">
<title>Node0</title>
<polygon fill="#bfbfbf" stroke="#000000" points="1397,-313.5 1397,-365.5 1567,-365.5 1567,-313.5 1397,-313.5"/>
<text text-anchor="start" x="1405" y="-353.5" font-family="Helvetica,sans-Serif" font-size="10.00" fill="#000000">/home/travis/build</text>
<text text-anchor="start" x="1405" y="-342.5" font-family="Helvetica,sans-Serif" font-size="10.00" fill="#000000">/AliceO2Group/AliceO2</text>
<text text-anchor="start" x="1405" y="-331.5" font-family="Helvetica,sans-Serif" font-size="10.00" fill="#000000">/Framework/Core/include</text>
<text text-anchor="middle" x="1482" y="-320.5" font-family="Helvetica,sans-Serif" font-size="10.00" fill="#000000">/Framework/ChannelMatching.h</text>
</g>
<!-- Node1 -->
<g id="node2" class="node">
<title>Node1</title>
<g id="a_node2"><a xlink:href="../../d5/d3f/InputSpec_8h.html" target="_top" xlink:title="Framework/InputSpec.h">
<polygon fill="none" stroke="#000000" points="1416.5,-257.5 1416.5,-276.5 1547.5,-276.5 1547.5,-257.5 1416.5,-257.5"/>
<text text-anchor="middle" x="1482" y="-264.5" font-family="Helvetica,sans-Serif" font-size="10.00" fill="#000000">Framework/InputSpec.h</text>
</a>
</g>
</g>
<!-- Node0&#45;&gt;Node1 -->
<g id="edge1" class="edge">
<title>Node0&#45;&gt;Node1</title>
<path fill="none" stroke="#191970" d="M1482,-313.3258C1482,-304.5142 1482,-294.8397 1482,-286.621"/>
<polygon fill="#191970" stroke="#191970" points="1485.5001,-286.534 1482,-276.534 1478.5001,-286.534 1485.5001,-286.534"/>
</g>
<!-- Node11 -->
<g id="node12" class="node">
<title>Node11</title>
<polygon fill="none" stroke="#bfbfbf" points="0,-6 0,-25 44,-25 44,-6 0,-6"/>
<text text-anchor="middle" x="22" y="-13" font-family="Helvetica,sans-Serif" font-size="10.00" fill="#000000">string</text>
</g>
<!-- Node0&#45;&gt;Node11 -->
<g id="edge71" class="edge">
<title>Node0&#45;&gt;Node11</title>
<path fill="none" stroke="#191970" d="M1396.926,-336.1807C1084.9855,-323.4571 22,-275.0007 22,-205.5 22,-205.5 22,-205.5 22,-138.5 22,-101.9994 22,-59.406 22,-35.1285"/>
<polygon fill="#191970" stroke="#191970" points="25.5001,-35.0691 22,-25.0691 18.5001,-35.0692 25.5001,-35.0691"/>
</g>
<!-- Node44 -->
<g id="node45" class="node">
<title>Node44</title>
<g id="a_node45"><a xlink:href="../../db/d2d/OutputSpec_8h.html" target="_top" xlink:title="Framework/OutputSpec.h">
<polygon fill="none" stroke="#000000" points="1618.5,-196 1618.5,-215 1757.5,-215 1757.5,-196 1618.5,-196"/>
<text text-anchor="middle" x="1688" y="-203" font-family="Helvetica,sans-Serif" font-size="10.00" fill="#000000">Framework/OutputSpec.h</text>
</a>
</g>
</g>
<!-- Node0&#45;&gt;Node44 -->
<g id="edge66" class="edge">
<title>Node0&#45;&gt;Node44</title>
<path fill="none" stroke="#191970" d="M1522.2079,-313.3453C1564.5567,-285.798 1629.8064,-243.3541 1664.4699,-220.806"/>
<polygon fill="#191970" stroke="#191970" points="1666.5176,-223.6493 1672.9918,-215.2626 1662.7007,-217.7815 1666.5176,-223.6493"/>
</g>
<!-- Node2 -->
<g id="node3" class="node">
<title>Node2</title>
<g id="a_node3"><a xlink:href="../../dc/dca/Lifetime_8h.html" target="_top" xlink:title="Framework/Lifetime.h">
<polygon fill="none" stroke="#000000" points="2710.5,-129 2710.5,-148 2833.5,-148 2833.5,-129 2710.5,-129"/>
<text text-anchor="middle" x="2772" y="-136" font-family="Helvetica,sans-Serif" font-size="10.00" fill="#000000">Framework/Lifetime.h</text>
</a>
</g>
</g>
<!-- Node1&#45;&gt;Node2 -->
<g id="edge2" class="edge">
<title>Node1&#45;&gt;Node2</title>
<path fill="none" stroke="#191970" d="M1547.769,-263.3924C1730.6084,-252.8223 2260.2029,-218.528 2696,-154 2703.6803,-152.8628 2711.7561,-151.4516 2719.6597,-149.9475"/>
<polygon fill="#191970" stroke="#191970" points="2720.3988,-153.3693 2729.536,-148.0063 2719.0487,-146.5007 2720.3988,-153.3693"/>
</g>
<!-- Node3 -->
<g id="node4" class="node">
<title>Node3</title>
<g id="a_node4"><a xlink:href="../../d0/d1b/ConcreteDataMatcher_8h.html" target="_top" xlink:title="Framework/ConcreteDataMatcher.h">
<polygon fill="none" stroke="#000000" points="1456,-129 1456,-148 1644,-148 1644,-129 1456,-129"/>
<text text-anchor="middle" x="1550" y="-136" font-family="Helvetica,sans-Serif" font-size="10.00" fill="#000000">Framework/ConcreteDataMatcher.h</text>
</a>
</g>
</g>
<!-- Node1&#45;&gt;Node3 -->
<g id="edge3" class="edge">
<title>Node1&#45;&gt;Node3</title>
<path fill="none" stroke="#191970" d="M1491.2162,-257.4407C1499.3784,-248.5712 1511.1793,-234.7096 1519,-221 1530.5677,-200.7219 1539.3585,-175.3095 1544.5734,-158.0863"/>
<polygon fill="#191970" stroke="#191970" points="1548.0495,-158.6663 1547.4772,-148.087 1541.3272,-156.7142 1548.0495,-158.6663"/>
</g>
<!-- Node1&#45;&gt;Node11 -->
<g id="edge63" class="edge">
<title>Node1&#45;&gt;Node11</title>
<path fill="none" stroke="#191970" d="M1416.4421,-265.871C1153.5795,-260.7906 184.9428,-236.5666 78,-154 58.4564,-138.9111 37.0077,-69.6575 27.2978,-35.153"/>
<polygon fill="#191970" stroke="#191970" points="30.6086,-33.993 24.575,-25.284 23.8607,-35.8547 30.6086,-33.993"/>
</g>
<!-- Node15 -->
<g id="node16" class="node">
<title>Node15</title>
<g id="a_node16"><a xlink:href="../../d3/da3/DataDescriptorMatcher_8h.html" target="_top" xlink:title="Framework/DataDescriptor\lMatcher.h">
<polygon fill="none" stroke="#000000" points="1278.5,-190.5 1278.5,-220.5 1425.5,-220.5 1425.5,-190.5 1278.5,-190.5"/>
<text text-anchor="start" x="1286.5" y="-208.5" font-family="Helvetica,sans-Serif" font-size="10.00" fill="#000000">Framework/DataDescriptor</text>
<text text-anchor="middle" x="1352" y="-197.5" font-family="Helvetica,sans-Serif" font-size="10.00" fill="#000000">Matcher.h</text>
</a>
</g>
</g>
<!-- Node1&#45;&gt;Node15 -->
<g id="edge15" class="edge">
<title>Node1&#45;&gt;Node15</title>
<path fill="none" stroke="#191970" d="M1461.6875,-257.3906C1443.3605,-248.7205 1415.8471,-235.7046 1392.9613,-224.8779"/>
<polygon fill="#191970" stroke="#191970" points="1394.3378,-221.6572 1383.8016,-220.5446 1391.3443,-227.9849 1394.3378,-221.6572"/>
</g>
<!-- Node36 -->
<g id="node37" class="node">
<title>Node36</title>
<polygon fill="none" stroke="#bfbfbf" points="1662.5,-129 1662.5,-148 1713.5,-148 1713.5,-129 1662.5,-129"/>
<text text-anchor="middle" x="1688" y="-136" font-family="Helvetica,sans-Serif" font-size="10.00" fill="#000000">variant</text>
</g>
<!-- Node1&#45;&gt;Node36 -->
<g id="edge65" class="edge">
<title>Node1&#45;&gt;Node36</title>
<path fill="none" stroke="#191970" d="M1497.4835,-257.3416C1533.1374,-235.1012 1621.2429,-180.1422 1663.9814,-153.4825"/>
<polygon fill="#191970" stroke="#191970" points="1665.9857,-156.3574 1672.6179,-148.0952 1662.2808,-150.4182 1665.9857,-156.3574"/>
</g>
<!-- Node38 -->
<g id="node39" class="node">
<title>Node38</title>
<g id="a_node39"><a xlink:href="../../d0/d1c/ConfigParamSpec_8h.html" target="_top" xlink:title="Framework/ConfigParamSpec.h">
<polygon fill="none" stroke="#000000" points="87.5,-129 87.5,-148 254.5,-148 254.5,-129 87.5,-129"/>
<text text-anchor="middle" x="171" y="-136" font-family="Helvetica,sans-Serif" font-size="10.00" fill="#000000">Framework/ConfigParamSpec.h</text>
</a>
</g>
</g>
<!-- Node1&#45;&gt;Node38 -->
<g id="edge51" class="edge">
<title>Node1&#45;&gt;Node38</title>
<path fill="none" stroke="#191970" d="M1416.3652,-262.414C1233.87,-249.3343 705.0763,-209.2023 268,-154 257.8067,-152.7126 247.0389,-151.1727 236.5316,-149.5704"/>
<polygon fill="#191970" stroke="#191970" points="236.9835,-146.0987 226.5646,-148.0214 235.9084,-153.0157 236.9835,-146.0987"/>
</g>
<!-- Node43 -->
<g id="node44" class="node">
<title>Node43</title>
<polygon fill="none" stroke="#bfbfbf" points="1453.5,-196 1453.5,-215 1510.5,-215 1510.5,-196 1453.5,-196"/>
<text text-anchor="middle" x="1482" y="-203" font-family="Helvetica,sans-Serif" font-size="10.00" fill="#000000">ostream</text>
</g>
<!-- Node1&#45;&gt;Node43 -->
<g id="edge64" class="edge">
<title>Node1&#45;&gt;Node43</title>
<path fill="none" stroke="#191970" d="M1482,-257.3906C1482,-248.8657 1482,-236.1392 1482,-225.4235"/>
<polygon fill="#191970" stroke="#191970" points="1485.5001,-225.2448 1482,-215.2449 1478.5001,-225.2449 1485.5001,-225.2448"/>
</g>
<!-- Node4 -->
<g id="node5" class="node">
<title>Node4</title>
<g id="a_node5"><a xlink:href="../../dc/dcd/DataHeader_8h.html" target="_top" xlink:title="Headers/DataHeader.h">
<polygon fill="none" stroke="#000000" points="2280.5,-67.5 2280.5,-86.5 2407.5,-86.5 2407.5,-67.5 2280.5,-67.5"/>
<text text-anchor="middle" x="2344" y="-74.5" font-family="Helvetica,sans-Serif" font-size="10.00" fill="#000000">Headers/DataHeader.h</text>
</a>
</g>
</g>
<!-- Node3&#45;&gt;Node4 -->
<g id="edge4" class="edge">
<title>Node3&#45;&gt;Node4</title>
<path fill="none" stroke="#191970" d="M1607.6352,-128.9656C1622.3922,-126.7614 1638.258,-124.5971 1653,-123 1877.0968,-98.7215 2143.5629,-85.3324 2270.1521,-79.9043"/>
<polygon fill="#191970" stroke="#191970" points="2270.6501,-83.3864 2280.4926,-79.4653 2270.3531,-76.3927 2270.6501,-83.3864"/>
</g>
<!-- Node5 -->
<g id="node6" class="node">
<title>Node5</title>
<polygon fill="none" stroke="#bfbfbf" points="2823,-6 2823,-25 2873,-25 2873,-6 2823,-6"/>
<text text-anchor="middle" x="2848" y="-13" font-family="Helvetica,sans-Serif" font-size="10.00" fill="#000000">cstdint</text>
</g>
<!-- Node4&#45;&gt;Node5 -->
<g id="edge5" class="edge">
<title>Node4&#45;&gt;Node5</title>
<path fill="none" stroke="#191970" d="M2407.6797,-68.1023C2410.8296,-67.7169 2413.9496,-67.3471 2417,-67 2593.0328,-46.9722 2642.7446,-76.3897 2814,-31 2816.1908,-30.4193 2818.4169,-29.7085 2820.6279,-28.9138"/>
<polygon fill="#191970" stroke="#191970" points="2822.1471,-32.0736 2830.0675,-25.0367 2819.4875,-25.5985 2822.1471,-32.0736"/>
</g>
<!-- Node6 -->
<g id="node7" class="node">
<title>Node6</title>
<polygon fill="none" stroke="#bfbfbf" points="2677,-6 2677,-25 2735,-25 2735,-6 2677,-6"/>
<text text-anchor="middle" x="2706" y="-13" font-family="Helvetica,sans-Serif" font-size="10.00" fill="#000000">memory</text>
</g>
<!-- Node4&#45;&gt;Node6 -->
<g id="edge6" class="edge">
<title>Node4&#45;&gt;Node6</title>
<path fill="none" stroke="#191970" d="M2407.6211,-68.1673C2500.1904,-55.2874 2661.753,-32.6897 2668,-31 2670.4674,-30.3326 2672.9895,-29.5479 2675.5025,-28.6918"/>
<polygon fill="#191970" stroke="#191970" points="2676.875,-31.9153 2685.0151,-25.1337 2674.4226,-25.359 2676.875,-31.9153"/>
</g>
<!-- Node7 -->
<g id="node8" class="node">
<title>Node7</title>
<polygon fill="none" stroke="#bfbfbf" points="2753,-6 2753,-25 2805,-25 2805,-6 2753,-6"/>
<text text-anchor="middle" x="2779" y="-13" font-family="Helvetica,sans-Serif" font-size="10.00" fill="#000000">cassert</text>
</g>
<!-- Node4&#45;&gt;Node7 -->
<g id="edge7" class="edge">
<title>Node4&#45;&gt;Node7</title>
<path fill="none" stroke="#191970" d="M2407.6883,-68.1745C2410.8359,-67.77 2413.9531,-67.3763 2417,-67 2562.1087,-49.0766 2602.8266,-69.0505 2744,-31 2746.1897,-30.4098 2748.4175,-29.7016 2750.6344,-28.9172"/>
<polygon fill="#191970" stroke="#191970" points="2752.1446,-32.0828 2760.1313,-25.1213 2749.5465,-25.5828 2752.1446,-32.0828"/>
</g>
<!-- Node8 -->
<g id="node9" class="node">
<title>Node8</title>
<polygon fill="none" stroke="#bfbfbf" points="980,-6 980,-25 1030,-25 1030,-6 980,-6"/>
<text text-anchor="middle" x="1005" y="-13" font-family="Helvetica,sans-Serif" font-size="10.00" fill="#000000">cstring</text>
</g>
<!-- Node4&#45;&gt;Node8 -->
<g id="edge8" class="edge">
<title>Node4&#45;&gt;Node8</title>
<path fill="none" stroke="#191970" d="M2280.2027,-76.213C2034.9172,-72.9871 1160.2231,-59.5735 1039,-31 1036.6559,-30.4475 1034.2766,-29.7292 1031.9216,-28.9049"/>
<polygon fill="#191970" stroke="#191970" points="1033.1116,-25.6104 1022.5304,-25.0724 1030.4666,-32.0914 1033.1116,-25.6104"/>
</g>
<!-- Node9 -->
<g id="node10" class="node">
<title>Node9</title>
<polygon fill="none" stroke="#bfbfbf" points="2511,-6 2511,-25 2575,-25 2575,-6 2511,-6"/>
<text text-anchor="middle" x="2543" y="-13" font-family="Helvetica,sans-Serif" font-size="10.00" fill="#000000">algorithm</text>
</g>
<!-- Node4&#45;&gt;Node9 -->
<g id="edge9" class="edge">
<title>Node4&#45;&gt;Node9</title>
<path fill="none" stroke="#191970" d="M2379.7003,-67.4642C2411.8855,-58.6644 2460.405,-44.8938 2502,-31 2504.2533,-30.2473 2506.5667,-29.4478 2508.8921,-28.6239"/>
<polygon fill="#191970" stroke="#191970" points="2510.2,-31.8725 2518.3957,-25.1582 2507.8017,-25.2961 2510.2,-31.8725"/>
</g>
<!-- Node10 -->
<g id="node11" class="node">
<title>Node10</title>
<polygon fill="none" stroke="#bfbfbf" points="2593.5,-6 2593.5,-25 2658.5,-25 2658.5,-6 2593.5,-6"/>
<text text-anchor="middle" x="2626" y="-13" font-family="Helvetica,sans-Serif" font-size="10.00" fill="#000000">stdexcept</text>
</g>
<!-- Node4&#45;&gt;Node10 -->
<g id="edge10" class="edge">
<title>Node4&#45;&gt;Node10</title>
<path fill="none" stroke="#191970" d="M2407.5678,-67.7369C2456.3262,-59.9314 2525.0428,-47.4093 2584,-31 2586.8079,-30.2185 2589.6944,-29.3333 2592.5762,-28.3917"/>
<polygon fill="#191970" stroke="#191970" points="2593.9346,-31.6251 2602.2351,-25.0409 2591.6403,-25.0118 2593.9346,-31.6251"/>
</g>
<!-- Node4&#45;&gt;Node11 -->
<g id="edge11" class="edge">
<title>Node4&#45;&gt;Node11</title>
<path fill="none" stroke="#191970" d="M2280.2193,-76.1052C1915.5127,-70.9414 108.5528,-44.7044 53,-31 51.0721,-30.5244 49.1262,-29.9139 47.1988,-29.2111"/>
<polygon fill="#191970" stroke="#191970" points="48.4506,-25.9383 37.887,-25.126 45.6384,-32.3486 48.4506,-25.9383"/>
</g>
<!-- Node12 -->
<g id="node13" class="node">
<title>Node12</title>
<polygon fill="none" stroke="#bfbfbf" points="2377,-6 2377,-25 2427,-25 2427,-6 2377,-6"/>
<text text-anchor="middle" x="2402" y="-13" font-family="Helvetica,sans-Serif" font-size="10.00" fill="#000000">climits</text>
</g>
<!-- Node4&#45;&gt;Node12 -->
<g id="edge12" class="edge">
<title>Node4&#45;&gt;Node12</title>
<path fill="none" stroke="#191970" d="M2353.0625,-67.3906C2361.7793,-58.1478 2375.154,-43.966 2385.7196,-32.7628"/>
<polygon fill="#191970" stroke="#191970" points="2388.495,-34.9213 2392.8097,-25.2449 2383.4024,-30.1186 2388.495,-34.9213"/>
</g>
<!-- Node13 -->
<g id="node14" class="node">
<title>Node13</title>
<g id="a_node14"><a xlink:href="../../d7/df8/Types_8h.html" target="_top" xlink:title="MemoryResources/Types.h">
<polygon fill="none" stroke="#000000" points="2213,-6 2213,-25 2359,-25 2359,-6 2213,-6"/>
<text text-anchor="middle" x="2286" y="-13" font-family="Helvetica,sans-Serif" font-size="10.00" fill="#000000">MemoryResources/Types.h</text>
</a>
</g>
</g>
<!-- Node4&#45;&gt;Node13 -->
<g id="edge13" class="edge">
<title>Node4&#45;&gt;Node13</title>
<path fill="none" stroke="#191970" d="M2334.9375,-67.3906C2326.2207,-58.1478 2312.846,-43.966 2302.2804,-32.7628"/>
<polygon fill="#191970" stroke="#191970" points="2304.5976,-30.1186 2295.1903,-25.2449 2299.505,-34.9213 2304.5976,-30.1186"/>
</g>
<!-- Node14 -->
<g id="node15" class="node">
<title>Node14</title>
<polygon fill="none" stroke="#bfbfbf" points="2445.5,-6 2445.5,-25 2492.5,-25 2492.5,-6 2445.5,-6"/>
<text text-anchor="middle" x="2469" y="-13" font-family="Helvetica,sans-Serif" font-size="10.00" fill="#000000">cerrno</text>
</g>
<!-- Node4&#45;&gt;Node14 -->
<g id="edge14" class="edge">
<title>Node4&#45;&gt;Node14</title>
<path fill="none" stroke="#191970" d="M2363.5313,-67.3906C2384.1708,-57.2359 2416.9276,-41.1196 2440.4602,-29.5416"/>
<polygon fill="#191970" stroke="#191970" points="2442.1782,-32.5971 2449.6059,-25.0419 2439.088,-26.3161 2442.1782,-32.5971"/>
</g>
<!-- Node15&#45;&gt;Node3 -->
<g id="edge16" class="edge">
<title>Node15&#45;&gt;Node3</title>
<path fill="none" stroke="#191970" d="M1396.4351,-190.4639C1431.2567,-178.6808 1479.1761,-162.4657 1512.1778,-151.2984"/>
<polygon fill="#191970" stroke="#191970" points="1513.5592,-154.526 1521.9098,-148.0053 1511.3155,-147.8953 1513.5592,-154.526"/>
</g>
<!-- Node15&#45;&gt;Node4 -->
<g id="edge25" class="edge">
<title>Node15&#45;&gt;Node4</title>
<path fill="none" stroke="#191970" d="M1368.7876,-190.4182C1394.7892,-167.1317 1442.3148,-124.8885 1447,-123 1522.3421,-92.6306 2069.3398,-81.2236 2270.2458,-78.0305"/>
<polygon fill="#191970" stroke="#191970" points="2270.4631,-81.5276 2280.4071,-77.8713 2270.3534,-74.5285 2270.4631,-81.5276"/>
</g>
<!-- Node15&#45;&gt;Node5 -->
<g id="edge45" class="edge">
<title>Node15&#45;&gt;Node5</title>
<path fill="none" stroke="#191970" d="M1425.697,-192.1787C1431.8748,-191.3376 1438.0364,-190.5925 1444,-190 1699.5331,-164.6103 2351.4699,-222.3419 2599,-154 2691.8439,-128.3662 2787.5027,-61.603 2827.9834,-31.1056"/>
<polygon fill="#191970" stroke="#191970" points="2830.1499,-33.8551 2835.9802,-25.0087 2825.9057,-28.2885 2830.1499,-33.8551"/>
</g>
<!-- Node15&#45;&gt;Node11 -->
<g id="edge47" class="edge">
<title>Node15&#45;&gt;Node11</title>
<path fill="none" stroke="#191970" d="M1278.2147,-200.7428C1105.9726,-188.8643 664.4254,-153.9358 301,-87 189.8718,-66.5324 159.4204,-68.9882 53,-31 51.5833,-30.4943 50.1476,-29.9395 48.7102,-29.3501"/>
<polygon fill="#191970" stroke="#191970" points="49.9336,-26.0617 39.3816,-25.1103 47.0372,-32.4343 49.9336,-26.0617"/>
</g>
<!-- Node16 -->
<g id="node17" class="node">
<title>Node16</title>
<g id="a_node17"><a xlink:href="../../d6/dc9/DataProcessingHeader_8h.html" target="_top" xlink:title="Framework/DataProcessing\lHeader.h">
<polygon fill="none" stroke="#000000" points="2440.5,-123.5 2440.5,-153.5 2589.5,-153.5 2589.5,-123.5 2440.5,-123.5"/>
<text text-anchor="start" x="2448.5" y="-141.5" font-family="Helvetica,sans-Serif" font-size="10.00" fill="#000000">Framework/DataProcessing</text>
<text text-anchor="middle" x="2515" y="-130.5" font-family="Helvetica,sans-Serif" font-size="10.00" fill="#000000">Header.h</text>
</a>
</g>
</g>
<!-- Node15&#45;&gt;Node16 -->
<g id="edge17" class="edge">
<title>Node15&#45;&gt;Node16</title>
<path fill="none" stroke="#191970" d="M1425.7085,-192.2892C1431.8837,-191.4237 1438.0416,-190.6429 1444,-190 1809.7858,-150.5333 2249.1208,-141.31 2430.4243,-139.1558"/>
<polygon fill="#191970" stroke="#191970" points="2430.4691,-142.6556 2440.4283,-139.0411 2430.3888,-135.6561 2430.4691,-142.6556"/>
</g>
<!-- Node19 -->
<g id="node20" class="node">
<title>Node19</title>
<g id="a_node20"><a xlink:href="../../d1/d76/RuntimeError_8h.html" target="_top" xlink:title="Framework/RuntimeError.h">
<polygon fill="none" stroke="#000000" points="389,-6 389,-25 535,-25 535,-6 389,-6"/>
<text text-anchor="middle" x="462" y="-13" font-family="Helvetica,sans-Serif" font-size="10.00" fill="#000000">Framework/RuntimeError.h</text>
</a>
</g>
</g>
<!-- Node15&#45;&gt;Node19 -->
<g id="edge24" class="edge">
<title>Node15&#45;&gt;Node19</title>
<path fill="none" stroke="#191970" d="M1335.1029,-190.4081C1312.6255,-171.2676 1270.8381,-138.8512 1229,-123 941.7475,-14.1685 847.2465,-79.9888 544,-31 536.2564,-29.749 528.1205,-28.3339 520.1047,-26.8801"/>
<polygon fill="#191970" stroke="#191970" points="520.5229,-23.3983 510.054,-25.0272 519.2537,-30.2823 520.5229,-23.3983"/>
</g>
<!-- Node20 -->
<g id="node21" class="node">
<title>Node20</title>
<g id="a_node21"><a xlink:href="../../d4/d00/Headers_2include_2Headers_2Stack_8h.html" target="_top" xlink:title="Headers/Stack.h">
<polygon fill="none" stroke="#000000" points="1304,-129 1304,-148 1400,-148 1400,-129 1304,-129"/>
<text text-anchor="middle" x="1352" y="-136" font-family="Helvetica,sans-Serif" font-size="10.00" fill="#000000">Headers/Stack.h</text>
</a>
</g>
</g>
<!-- Node15&#45;&gt;Node20 -->
<g id="edge26" class="edge">
<title>Node15&#45;&gt;Node20</title>
<path fill="none" stroke="#191970" d="M1352,-190.2967C1352,-180.7699 1352,-168.3954 1352,-158.1306"/>
<polygon fill="#191970" stroke="#191970" points="1355.5001,-158.0549 1352,-148.055 1348.5001,-158.055 1355.5001,-158.0549"/>
</g>
<!-- Node28 -->
<g id="node29" class="node">
<title>Node28</title>
<polygon fill="none" stroke="#bfbfbf" points="640.5,-6 640.5,-25 687.5,-25 687.5,-6 640.5,-6"/>
<text text-anchor="middle" x="664" y="-13" font-family="Helvetica,sans-Serif" font-size="10.00" fill="#000000">vector</text>
</g>
<!-- Node15&#45;&gt;Node28 -->
<g id="edge49" class="edge">
<title>Node15&#45;&gt;Node28</title>
<path fill="none" stroke="#191970" d="M1278.3965,-196.564C1206.318,-187.0526 1102.0829,-171.0485 1065,-154 1045.1967,-144.8956 1046.356,-133.0204 1027,-123 891.4048,-52.8038 838.8416,-84.9432 696,-31 694.5924,-30.4684 693.1627,-29.8975 691.7279,-29.2997"/>
<polygon fill="#191970" stroke="#191970" points="692.9211,-25.9988 682.3651,-25.0929 690.0522,-32.3839 692.9211,-25.9988"/>
</g>
<!-- Node34 -->
<g id="node35" class="node">
<title>Node34</title>
<polygon fill="none" stroke="#bfbfbf" points="976,-129 976,-148 1018,-148 1018,-129 976,-129"/>
<text text-anchor="middle" x="997" y="-136" font-family="Helvetica,sans-Serif" font-size="10.00" fill="#000000">array</text>
</g>
<!-- Node15&#45;&gt;Node34 -->
<g id="edge44" class="edge">
<title>Node15&#45;&gt;Node34</title>
<path fill="none" stroke="#191970" d="M1278.3649,-199.0831C1212.7224,-192.0885 1114.5422,-178.4729 1032,-154 1029.8775,-153.3707 1027.7148,-152.6427 1025.5582,-151.8524"/>
<polygon fill="#191970" stroke="#191970" points="1026.8693,-148.6073 1016.2866,-148.101 1024.2438,-155.0963 1026.8693,-148.6073"/>
</g>
<!-- Node35 -->
<g id="node36" class="node">
<title>Node35</title>
<polygon fill="none" stroke="#bfbfbf" points="321.5,-6 321.5,-25 370.5,-25 370.5,-6 321.5,-6"/>
<text text-anchor="middle" x="346" y="-13" font-family="Helvetica,sans-Serif" font-size="10.00" fill="#000000">iosfwd</text>
</g>
<!-- Node15&#45;&gt;Node35 -->
<g id="edge46" class="edge">
<title>Node15&#45;&gt;Node35</title>
<path fill="none" stroke="#191970" d="M1278.3072,-197.2759C1200.6355,-188.2262 1074.8414,-172.4855 967,-154 704.277,-108.9656 633.2618,-114.1261 380,-31 378.1509,-30.3931 376.2682,-29.7155 374.3853,-28.9923"/>
<polygon fill="#191970" stroke="#191970" points="375.698,-25.7475 365.1223,-25.1101 372.9922,-32.2035 375.698,-25.7475"/>
</g>
<!-- Node15&#45;&gt;Node36 -->
<g id="edge48" class="edge">
<title>Node15&#45;&gt;Node36</title>
<path fill="none" stroke="#191970" d="M1425.5392,-193.0309C1513.76,-178.0561 1650.2561,-154.8283 1653,-154 1655.1193,-153.3602 1657.2798,-152.6245 1659.4347,-151.8286"/>
<polygon fill="#191970" stroke="#191970" points="1660.7542,-155.0704 1668.7027,-148.0653 1658.1206,-148.5847 1660.7542,-155.0704"/>
</g>
<!-- Node37 -->
<g id="node38" class="node">
<title>Node37</title>
<polygon fill="none" stroke="#bfbfbf" points="1074,-129 1074,-148 1220,-148 1220,-129 1074,-129"/>
<text text-anchor="middle" x="1147" y="-136" font-family="Helvetica,sans-Serif" font-size="10.00" fill="#000000">DataDescriptorMatcher.inc</text>
</g>
<!-- Node15&#45;&gt;Node37 -->
<g id="edge50" class="edge">
<title>Node15&#45;&gt;Node37</title>
<path fill="none" stroke="#191970" d="M1305.994,-190.4639C1269.7859,-178.63 1219.8999,-162.3258 1185.7184,-151.1543"/>
<polygon fill="#191970" stroke="#191970" points="1186.6759,-147.7851 1176.0833,-148.0053 1184.5012,-154.4388 1186.6759,-147.7851"/>
</g>
<!-- Node16&#45;&gt;Node4 -->
<g id="edge18" class="edge">
<title>Node16&#45;&gt;Node4</title>
<path fill="none" stroke="#191970" d="M2473.1687,-123.4554C2444.6369,-113.194 2407.2365,-99.7429 2380.0271,-89.9571"/>
<polygon fill="#191970" stroke="#191970" points="2381.0934,-86.6212 2370.4989,-86.5303 2378.7243,-93.2081 2381.0934,-86.6212"/>
</g>
<!-- Node16&#45;&gt;Node5 -->
<g id="edge19" class="edge">
<title>Node16&#45;&gt;Node5</title>
<path fill="none" stroke="#191970" d="M2547.2418,-123.4093C2591.8975,-102.5115 2667.2224,-67.2746 2668,-67 2731.0186,-44.7464 2750.8772,-52.9563 2814,-31 2815.6428,-30.4286 2817.3145,-29.8068 2818.991,-29.1515"/>
<polygon fill="#191970" stroke="#191970" points="2820.6244,-32.2612 2828.4773,-25.149 2817.9032,-25.8117 2820.6244,-32.2612"/>
</g>
<!-- Node16&#45;&gt;Node6 -->
<g id="edge21" class="edge">
<title>Node16&#45;&gt;Node6</title>
<path fill="none" stroke="#191970" d="M2528.564,-123.2733C2543.0873,-107.641 2567.3833,-83.3523 2592,-67 2605.9166,-57.7556 2644.2838,-41.0205 2672.6844,-29.138"/>
<polygon fill="#191970" stroke="#191970" points="2674.368,-32.2286 2682.258,-25.1576 2671.6806,-25.765 2674.368,-32.2286"/>
</g>
<!-- Node16&#45;&gt;Node7 -->
<g id="edge22" class="edge">
<title>Node16&#45;&gt;Node7</title>
<path fill="none" stroke="#191970" d="M2535.7198,-123.387C2558.0824,-107.6205 2595.1849,-83.0118 2630,-67 2678.2724,-44.799 2694.2991,-49.7864 2744,-31 2745.624,-30.3861 2747.2811,-29.7361 2748.9475,-29.0638"/>
<polygon fill="#191970" stroke="#191970" points="2750.576,-32.1756 2758.4296,-25.0643 2747.8555,-25.7258 2750.576,-32.1756"/>
</g>
<!-- Node17 -->
<g id="node18" class="node">
<title>Node17</title>
<polygon fill="none" stroke="#bfbfbf" points="2426,-67.5 2426,-86.5 2472,-86.5 2472,-67.5 2426,-67.5"/>
<text text-anchor="middle" x="2449" y="-74.5" font-family="Helvetica,sans-Serif" font-size="10.00" fill="#000000">cstdio</text>
</g>
<!-- Node16&#45;&gt;Node17 -->
<g id="edge20" class="edge">
<title>Node16&#45;&gt;Node17</title>
<path fill="none" stroke="#191970" d="M2498.6854,-123.2977C2489.0467,-114.3163 2476.8309,-102.9334 2466.9241,-93.702"/>
<polygon fill="#191970" stroke="#191970" points="2469.2696,-91.1036 2459.5674,-86.8469 2464.4975,-96.2249 2469.2696,-91.1036"/>
</g>
<!-- Node18 -->
<g id="node19" class="node">
<title>Node18</title>
<polygon fill="none" stroke="#bfbfbf" points="2490,-67.5 2490,-86.5 2540,-86.5 2540,-67.5 2490,-67.5"/>
<text text-anchor="middle" x="2515" y="-74.5" font-family="Helvetica,sans-Serif" font-size="10.00" fill="#000000">chrono</text>
</g>
<!-- Node16&#45;&gt;Node18 -->
<g id="edge23" class="edge">
<title>Node16&#45;&gt;Node18</title>
<path fill="none" stroke="#191970" d="M2515,-123.2977C2515,-115.3834 2515,-105.6043 2515,-97.0759"/>
<polygon fill="#191970" stroke="#191970" points="2518.5001,-96.8469 2515,-86.8469 2511.5001,-96.847 2518.5001,-96.8469"/>
</g>
<!-- Node20&#45;&gt;Node4 -->
<g id="edge43" class="edge">
<title>Node20&#45;&gt;Node4</title>
<path fill="none" stroke="#191970" d="M1385.2235,-128.9239C1394.4673,-126.6079 1404.5613,-124.3995 1414,-123 1578.6732,-98.5834 2080.3411,-83.6801 2270.168,-78.7868"/>
<polygon fill="#191970" stroke="#191970" points="2270.4179,-82.2817 2280.325,-78.5269 2270.2387,-75.284 2270.4179,-82.2817"/>
</g>
<!-- Node21 -->
<g id="node22" class="node">
<title>Node21</title>
<g id="a_node22"><a xlink:href="../../dc/d03/MemoryResources_8h.html" target="_top" xlink:title="MemoryResources/MemoryResources.h">
<polygon fill="none" stroke="#000000" points="1276.5,-67.5 1276.5,-86.5 1483.5,-86.5 1483.5,-67.5 1276.5,-67.5"/>
<text text-anchor="middle" x="1380" y="-74.5" font-family="Helvetica,sans-Serif" font-size="10.00" fill="#000000">MemoryResources/MemoryResources.h</text>
</a>
</g>
</g>
<!-- Node20&#45;&gt;Node21 -->
<g id="edge27" class="edge">
<title>Node20&#45;&gt;Node21</title>
<path fill="none" stroke="#191970" d="M1356.375,-128.8906C1360.3788,-120.0965 1366.4183,-106.8312 1371.3885,-95.9145"/>
<polygon fill="#191970" stroke="#191970" points="1374.6051,-97.2963 1375.5633,-86.7449 1368.2343,-94.3957 1374.6051,-97.2963"/>
</g>
<!-- Node21&#45;&gt;Node8 -->
<g id="edge32" class="edge">
<title>Node21&#45;&gt;Node8</title>
<path fill="none" stroke="#191970" d="M1286.2622,-67.4716C1201.727,-58.3106 1083.9842,-43.9798 1039,-31 1037.0366,-30.4335 1035.0416,-29.7717 1033.0526,-29.0467"/>
<polygon fill="#191970" stroke="#191970" points="1033.9094,-25.6144 1023.33,-25.0428 1031.2438,-32.0871 1033.9094,-25.6144"/>
</g>
<!-- Node21&#45;&gt;Node11 -->
<g id="edge33" class="edge">
<title>Node21&#45;&gt;Node11</title>
<path fill="none" stroke="#191970" d="M1276.4013,-75.948C984.7002,-72.629 170.0419,-60.7797 53,-31 51.0756,-30.5104 49.1323,-29.8894 47.2068,-29.1791"/>
<polygon fill="#191970" stroke="#191970" points="48.4614,-25.9073 37.8991,-25.0776 45.6387,-32.3129 48.4614,-25.9073"/>
</g>
<!-- Node21&#45;&gt;Node13 -->
<g id="edge42" class="edge">
<title>Node21&#45;&gt;Node13</title>
<path fill="none" stroke="#191970" d="M1483.7987,-75.5616C1640.4076,-72.4085 1946.2161,-62.4218 2204,-31 2212.8819,-29.9174 2222.2506,-28.455 2231.3543,-26.8592"/>
<polygon fill="#191970" stroke="#191970" points="2232.2697,-30.2501 2241.4801,-25.0138 2231.0146,-23.3635 2232.2697,-30.2501"/>
</g>
<!-- Node22 -->
<g id="node23" class="node">
<title>Node22</title>
<polygon fill="none" stroke="#bfbfbf" points="1404.5,-.5 1404.5,-30.5 1515.5,-30.5 1515.5,-.5 1404.5,-.5"/>
<text text-anchor="start" x="1412.5" y="-18.5" font-family="Helvetica,sans-Serif" font-size="10.00" fill="#000000">boost/container/flat</text>
<text text-anchor="middle" x="1460" y="-7.5" font-family="Helvetica,sans-Serif" font-size="10.00" fill="#000000">_map.hpp</text>
</g>
<!-- Node21&#45;&gt;Node22 -->
<g id="edge28" class="edge">
<title>Node21&#45;&gt;Node22</title>
<path fill="none" stroke="#191970" d="M1392.5,-67.3906C1403.1265,-59.2215 1418.7719,-47.1941 1432.325,-36.7752"/>
<polygon fill="#191970" stroke="#191970" points="1434.6349,-39.4142 1440.4298,-30.5446 1430.3685,-33.8645 1434.6349,-39.4142"/>
</g>
<!-- Node23 -->
<g id="node24" class="node">
<title>Node23</title>
<polygon fill="none" stroke="#bfbfbf" points="1533.5,-.5 1533.5,-30.5 1662.5,-30.5 1662.5,-.5 1533.5,-.5"/>
<text text-anchor="start" x="1541.5" y="-18.5" font-family="Helvetica,sans-Serif" font-size="10.00" fill="#000000">boost/container/pmr</text>
<text text-anchor="middle" x="1598" y="-7.5" font-family="Helvetica,sans-Serif" font-size="10.00" fill="#000000">/memory_resource.hpp</text>
</g>
<!-- Node21&#45;&gt;Node23 -->
<g id="edge29" class="edge">
<title>Node21&#45;&gt;Node23</title>
<path fill="none" stroke="#191970" d="M1414.0625,-67.3906C1446.298,-58.2967 1495.4814,-44.4215 1534.8813,-33.3064"/>
<polygon fill="#191970" stroke="#191970" points="1535.9972,-36.6283 1544.6712,-30.5446 1534.0965,-29.8913 1535.9972,-36.6283"/>
</g>
<!-- Node24 -->
<g id="node25" class="node">
<title>Node24</title>
<polygon fill="none" stroke="#bfbfbf" points="1680.5,-.5 1680.5,-30.5 1853.5,-30.5 1853.5,-.5 1680.5,-.5"/>
<text text-anchor="start" x="1688.5" y="-18.5" font-family="Helvetica,sans-Serif" font-size="10.00" fill="#000000">boost/container/pmr</text>
<text text-anchor="middle" x="1767" y="-7.5" font-family="Helvetica,sans-Serif" font-size="10.00" fill="#000000">/monotonic_buffer_resource.hpp</text>
</g>
<!-- Node21&#45;&gt;Node24 -->
<g id="edge30" class="edge">
<title>Node21&#45;&gt;Node24</title>
<path fill="none" stroke="#191970" d="M1440.4801,-67.4991C1497.1609,-58.5815 1584.5433,-44.7991 1670.4688,-31.0819"/>
<polygon fill="#191970" stroke="#191970" points="1671.0723,-34.53 1680.3951,-29.4966 1669.9682,-27.6176 1671.0723,-34.53"/>
</g>
<!-- Node25 -->
<g id="node26" class="node">
<title>Node25</title>
<polygon fill="none" stroke="#bfbfbf" points="1871.5,-.5 1871.5,-30.5 2020.5,-30.5 2020.5,-.5 1871.5,-.5"/>
<text text-anchor="start" x="1879.5" y="-18.5" font-family="Helvetica,sans-Serif" font-size="10.00" fill="#000000">boost/container/pmr</text>
<text text-anchor="middle" x="1946" y="-7.5" font-family="Helvetica,sans-Serif" font-size="10.00" fill="#000000">/polymorphic_allocator.hpp</text>
</g>
<!-- Node21&#45;&gt;Node25 -->
<g id="edge31" class="edge">
<title>Node21&#45;&gt;Node25</title>
<path fill="none" stroke="#191970" d="M1483.9563,-69.8076C1579.5922,-62.5665 1725.5411,-49.9439 1861.2286,-31.1791"/>
<polygon fill="#191970" stroke="#191970" points="1861.9756,-34.6088 1871.3952,-29.7587 1861.0071,-27.6761 1861.9756,-34.6088"/>
</g>
<!-- Node26 -->
<g id="node27" class="node">
<title>Node26</title>
<polygon fill="none" stroke="#bfbfbf" points="553.5,-6 553.5,-25 622.5,-25 622.5,-6 553.5,-6"/>
<text text-anchor="middle" x="588" y="-13" font-family="Helvetica,sans-Serif" font-size="10.00" fill="#000000">type_traits</text>
</g>
<!-- Node21&#45;&gt;Node26 -->
<g id="edge34" class="edge">
<title>Node21&#45;&gt;Node26</title>
<path fill="none" stroke="#191970" d="M1276.4084,-68.0586C1271.5386,-67.6894 1266.7169,-67.3344 1262,-67 981.8026,-47.1381 906.2184,-87.2134 631,-31 627.5523,-30.2958 624.0088,-29.3705 620.5062,-28.3218"/>
<polygon fill="#191970" stroke="#191970" points="621.4499,-24.9474 610.8565,-25.1208 619.2459,-31.5914 621.4499,-24.9474"/>
</g>
<!-- Node27 -->
<g id="node28" class="node">
<title>Node27</title>
<polygon fill="none" stroke="#bfbfbf" points="2038.5,-6 2038.5,-25 2083.5,-25 2083.5,-6 2038.5,-6"/>
<text text-anchor="middle" x="2061" y="-13" font-family="Helvetica,sans-Serif" font-size="10.00" fill="#000000">utility</text>
</g>
<!-- Node21&#45;&gt;Node27 -->
<g id="edge35" class="edge">
<title>Node21&#45;&gt;Node27</title>
<path fill="none" stroke="#191970" d="M1483.7423,-74.587C1640.5128,-70.1064 1930.0903,-58.3445 2030,-31 2031.7157,-30.5304 2033.4486,-29.9626 2035.1718,-29.3255"/>
<polygon fill="#191970" stroke="#191970" points="2036.9991,-32.3457 2044.748,-25.1203 2034.1846,-25.9364 2036.9991,-32.3457"/>
</g>
<!-- Node21&#45;&gt;Node28 -->
<g id="edge36" class="edge">
<title>Node21&#45;&gt;Node28</title>
<path fill="none" stroke="#191970" d="M1276.4056,-68.0968C1271.5366,-67.7174 1266.7157,-67.3498 1262,-67 1010.6265,-48.3564 939.7665,-95.1414 696,-31 694.0748,-30.4934 692.1267,-29.8685 690.1922,-29.1631"/>
<polygon fill="#191970" stroke="#191970" points="691.3708,-25.8604 680.8004,-25.1404 688.6147,-32.295 691.3708,-25.8604"/>
</g>
<!-- Node29 -->
<g id="node30" class="node">
<title>Node29</title>
<polygon fill="none" stroke="#bfbfbf" points="2101.5,-6 2101.5,-25 2194.5,-25 2194.5,-6 2101.5,-6"/>
<text text-anchor="middle" x="2148" y="-13" font-family="Helvetica,sans-Serif" font-size="10.00" fill="#000000">unordered_map</text>
</g>
<!-- Node21&#45;&gt;Node29 -->
<g id="edge37" class="edge">
<title>Node21&#45;&gt;Node29</title>
<path fill="none" stroke="#191970" d="M1483.5708,-72.9996C1652.2443,-66.0328 1978.9132,-50.5322 2093,-31 2098.1244,-30.1227 2103.4557,-28.955 2108.6943,-27.6526"/>
<polygon fill="#191970" stroke="#191970" points="2109.8121,-30.977 2118.5756,-25.0229 2108.0118,-24.2125 2109.8121,-30.977"/>
</g>
<!-- Node30 -->
<g id="node31" class="node">
<title>Node30</title>
<polygon fill="none" stroke="#bfbfbf" points="705.5,-6 705.5,-25 806.5,-25 806.5,-6 705.5,-6"/>
<text text-anchor="middle" x="756" y="-13" font-family="Helvetica,sans-Serif" font-size="10.00" fill="#000000">FairMQMessage.h</text>
</g>
<!-- Node21&#45;&gt;Node30 -->
<g id="edge38" class="edge">
<title>Node21&#45;&gt;Node30</title>
<path fill="none" stroke="#191970" d="M1276.3979,-68.1955C1271.5309,-67.7897 1266.7126,-67.3895 1262,-67 1063.3672,-50.5848 1011.4827,-64.4516 815,-31 809.5188,-30.0668 803.8044,-28.8645 798.1829,-27.5427"/>
<polygon fill="#191970" stroke="#191970" points="798.7845,-24.0857 788.2351,-25.0667 797.0937,-30.8784 798.7845,-24.0857"/>
</g>
<!-- Node31 -->
<g id="node32" class="node">
<title>Node31</title>
<polygon fill="none" stroke="#bfbfbf" points="824.5,-6 824.5,-25 961.5,-25 961.5,-6 824.5,-6"/>
<text text-anchor="middle" x="893" y="-13" font-family="Helvetica,sans-Serif" font-size="10.00" fill="#000000">FairMQTransportFactory.h</text>
</g>
<!-- Node21&#45;&gt;Node31 -->
<g id="edge39" class="edge">
<title>Node21&#45;&gt;Node31</title>
<path fill="none" stroke="#191970" d="M1276.3019,-67.7695C1193.433,-59.808 1074.4409,-47.0656 971,-31 963.3259,-29.8081 955.2583,-28.3917 947.3408,-26.9069"/>
<polygon fill="#191970" stroke="#191970" points="947.9141,-23.4531 937.433,-25.0014 946.592,-30.3271 947.9141,-23.4531"/>
</g>
<!-- Node32 -->
<g id="node33" class="node">
<title>Node32</title>
<polygon fill="none" stroke="#bfbfbf" points="1048,-6 1048,-25 1198,-25 1198,-6 1048,-6"/>
<text text-anchor="middle" x="1123" y="-13" font-family="Helvetica,sans-Serif" font-size="10.00" fill="#000000">fairmq/MemoryResources.h</text>
</g>
<!-- Node21&#45;&gt;Node32 -->
<g id="edge40" class="edge">
<title>Node21&#45;&gt;Node32</title>
<path fill="none" stroke="#191970" d="M1340.1257,-67.4581C1295.1094,-56.6857 1221.8002,-39.1428 1172.9921,-27.4631"/>
<polygon fill="#191970" stroke="#191970" points="1173.5078,-23.9877 1162.9678,-25.0643 1171.8787,-30.7955 1173.5078,-23.9877"/>
</g>
<!-- Node33 -->
<g id="node34" class="node">
<title>Node33</title>
<polygon fill="none" stroke="#bfbfbf" points="1216,-6 1216,-25 1386,-25 1386,-6 1216,-6"/>
<text text-anchor="middle" x="1301" y="-13" font-family="Helvetica,sans-Serif" font-size="10.00" fill="#000000">fairmq/MemoryResourceTools.h</text>
</g>
<!-- Node21&#45;&gt;Node33 -->
<g id="edge41" class="edge">
<title>Node21&#45;&gt;Node33</title>
<path fill="none" stroke="#191970" d="M1367.6563,-67.3906C1355.2497,-57.7324 1335.9157,-42.6812 1321.2587,-31.271"/>
<polygon fill="#191970" stroke="#191970" points="1323.2979,-28.423 1313.2571,-25.0419 1318.9979,-33.9466 1323.2979,-28.423"/>
</g>
<!-- Node38&#45;&gt;Node11 -->
<g id="edge62" class="edge">
<title>Node38&#45;&gt;Node11</title>
<path fill="none" stroke="#191970" d="M159.3082,-128.8484C133.8486,-107.8314 73.159,-57.7319 41.6861,-31.751"/>
<polygon fill="#191970" stroke="#191970" points="43.5775,-28.7738 33.6375,-25.1068 39.1212,-34.1721 43.5775,-28.7738"/>
</g>
<!-- Node39 -->
<g id="node40" class="node">
<title>Node39</title>
<g id="a_node40"><a xlink:href="../../de/d56/Variant_8h.html" target="_top" xlink:title="Framework/Variant.h">
<polygon fill="none" stroke="#000000" points="310.5,-67.5 310.5,-86.5 427.5,-86.5 427.5,-67.5 310.5,-67.5"/>
<text text-anchor="middle" x="369" y="-74.5" font-family="Helvetica,sans-Serif" font-size="10.00" fill="#000000">Framework/Variant.h</text>
</a>
</g>
</g>
<!-- Node38&#45;&gt;Node39 -->
<g id="edge52" class="edge">
<title>Node38&#45;&gt;Node39</title>
<path fill="none" stroke="#191970" d="M201.9375,-128.8906C236.0837,-118.2846 291.1674,-101.1753 328.6735,-89.5257"/>
<polygon fill="#191970" stroke="#191970" points="329.768,-92.8507 338.2797,-86.5419 327.6916,-86.1658 329.768,-92.8507"/>
</g>
<!-- Node39&#45;&gt;Node5 -->
<g id="edge56" class="edge">
<title>Node39&#45;&gt;Node5</title>
<path fill="none" stroke="#191970" d="M427.5595,-76.2263C793.6364,-71.3495 2753.9515,-44.6345 2814,-31 2816.3486,-30.4667 2818.7311,-29.7622 2821.0882,-28.9472"/>
<polygon fill="#191970" stroke="#191970" points="2822.5353,-32.1372 2830.4832,-25.1314 2819.9012,-25.6516 2822.5353,-32.1372"/>
</g>
<!-- Node39&#45;&gt;Node8 -->
<g id="edge55" class="edge">
<title>Node39&#45;&gt;Node8</title>
<path fill="none" stroke="#191970" d="M427.6376,-75.0451C558.0072,-70.2882 868.3946,-56.5812 970,-31 972.3381,-30.4113 974.7165,-29.6782 977.0768,-28.8533"/>
<polygon fill="#191970" stroke="#191970" points="978.5375,-32.0389 986.5279,-25.0816 975.9429,-25.5375 978.5375,-32.0389"/>
</g>
<!-- Node39&#45;&gt;Node11 -->
<g id="edge61" class="edge">
<title>Node39&#45;&gt;Node11</title>
<path fill="none" stroke="#191970" d="M310.2412,-68.9377C222.2323,-56.7914 65.1329,-34.8077 53,-31 51.3423,-30.4797 49.6641,-29.8797 47.9912,-29.2244"/>
<polygon fill="#191970" stroke="#191970" points="49.2036,-25.9324 38.6465,-25.0391 46.3423,-32.3209 49.2036,-25.9324"/>
</g>
<!-- Node39&#45;&gt;Node19 -->
<g id="edge53" class="edge">
<title>Node39&#45;&gt;Node19</title>
<path fill="none" stroke="#191970" d="M383.5313,-67.3906C398.4094,-57.5519 421.7504,-42.1167 439.1128,-30.6351"/>
<polygon fill="#191970" stroke="#191970" points="441.1602,-33.4773 447.5708,-25.0419 437.299,-27.6385 441.1602,-33.4773"/>
</g>
<!-- Node39&#45;&gt;Node26 -->
<g id="edge54" class="edge">
<title>Node39&#45;&gt;Node26</title>
<path fill="none" stroke="#191970" d="M409.2275,-67.4173C444.8681,-58.6923 498.2032,-45.0598 544,-31 546.7582,-30.1532 549.6008,-29.2419 552.451,-28.3005"/>
<polygon fill="#191970" stroke="#191970" points="553.7176,-31.5667 562.0584,-25.0336 551.464,-24.9394 553.7176,-31.5667"/>
</g>
<!-- Node39&#45;&gt;Node35 -->
<g id="edge58" class="edge">
<title>Node39&#45;&gt;Node35</title>
<path fill="none" stroke="#191970" d="M365.4063,-67.3906C362.1509,-58.6862 357.2575,-45.6015 353.199,-34.7494"/>
<polygon fill="#191970" stroke="#191970" points="356.4256,-33.3852 349.6444,-25.2449 349.8691,-35.8373 356.4256,-33.3852"/>
</g>
<!-- Node40 -->
<g id="node41" class="node">
<title>Node40</title>
<polygon fill="none" stroke="#bfbfbf" points="62.5,-6 62.5,-25 111.5,-25 111.5,-6 62.5,-6"/>
<text text-anchor="middle" x="87" y="-13" font-family="Helvetica,sans-Serif" font-size="10.00" fill="#000000">cstdlib</text>
</g>
<!-- Node39&#45;&gt;Node40 -->
<g id="edge57" class="edge">
<title>Node39&#45;&gt;Node40</title>
<path fill="none" stroke="#191970" d="M310.3498,-67.9456C248.2709,-58.0452 154.5812,-42.1115 120,-31 118.1469,-30.4046 116.2629,-29.7286 114.3821,-28.9999"/>
<polygon fill="#191970" stroke="#191970" points="115.7332,-25.7711 105.1631,-25.0473 112.9748,-32.2047 115.7332,-25.7711"/>
</g>
<!-- Node41 -->
<g id="node42" class="node">
<title>Node41</title>
<polygon fill="none" stroke="#bfbfbf" points="129.5,-6 129.5,-25 212.5,-25 212.5,-6 129.5,-6"/>
<text text-anchor="middle" x="171" y="-13" font-family="Helvetica,sans-Serif" font-size="10.00" fill="#000000">initializer_list</text>
</g>
<!-- Node39&#45;&gt;Node41 -->
<g id="edge59" class="edge">
<title>Node39&#45;&gt;Node41</title>
<path fill="none" stroke="#191970" d="M338.0625,-67.3906C303.9163,-56.7846 248.8326,-39.6753 211.3265,-28.0257"/>
<polygon fill="#191970" stroke="#191970" points="212.3084,-24.6658 201.7203,-25.0419 210.232,-31.3507 212.3084,-24.6658"/>
</g>
<!-- Node42 -->
<g id="node43" class="node">
<title>Node42</title>
<polygon fill="none" stroke="#bfbfbf" points="230.5,-6 230.5,-25 303.5,-25 303.5,-6 230.5,-6"/>
<text text-anchor="middle" x="267" y="-13" font-family="Helvetica,sans-Serif" font-size="10.00" fill="#000000">string_view</text>
</g>
<!-- Node39&#45;&gt;Node42 -->
<g id="edge60" class="edge">
<title>Node39&#45;&gt;Node42</title>
<path fill="none" stroke="#191970" d="M353.0625,-67.3906C336.5949,-57.4616 310.6742,-41.833 291.5796,-30.3201"/>
<polygon fill="#191970" stroke="#191970" points="293.1966,-27.2081 282.8256,-25.0419 289.5822,-33.2027 293.1966,-27.2081"/>
</g>
<!-- Node44&#45;&gt;Node2 -->
<g id="edge68" class="edge">
<title>Node44&#45;&gt;Node2</title>
<path fill="none" stroke="#191970" d="M1757.6664,-203.305C1954.779,-196.8775 2513.9062,-177.0878 2696,-154 2704.1678,-152.9644 2712.7693,-151.5393 2721.1313,-149.9699"/>
<polygon fill="#191970" stroke="#191970" points="2722.0283,-153.3607 2731.1671,-148.0005 2720.6802,-146.4918 2722.0283,-153.3607"/>
</g>
<!-- Node44&#45;&gt;Node3 -->
<g id="edge69" class="edge">
<title>Node44&#45;&gt;Node3</title>
<path fill="none" stroke="#191970" d="M1668.228,-195.9005C1644.8635,-184.5569 1605.7857,-165.5844 1578.997,-152.5783"/>
<polygon fill="#191970" stroke="#191970" points="1580.2598,-149.3007 1569.7354,-148.0817 1577.2025,-155.5978 1580.2598,-149.3007"/>
</g>
<!-- Node44&#45;&gt;Node4 -->
<g id="edge67" class="edge">
<title>Node44&#45;&gt;Node4</title>
<path fill="none" stroke="#191970" d="M1736.5037,-195.9989C1854.6838,-172.8493 2157.1914,-113.5928 2285.2847,-88.5014"/>
<polygon fill="#191970" stroke="#191970" points="2286.1599,-91.8966 2295.3006,-86.5394 2284.8142,-85.0271 2286.1599,-91.8966"/>
</g>
<!-- Node44&#45;&gt;Node36 -->
<g id="edge70" class="edge">
<title>Node44&#45;&gt;Node36</title>
<path fill="none" stroke="#191970" d="M1688,-195.9005C1688,-186.149 1688,-170.7597 1688,-158.3695"/>
<polygon fill="#191970" stroke="#191970" points="1691.5001,-158.0816 1688,-148.0817 1684.5001,-158.0817 1691.5001,-158.0816"/>
</g>
</g>
</svg>
