<?xml version="1.0" encoding="UTF-8" standalone="no"?>
<!DOCTYPE svg PUBLIC "-//W3C//DTD SVG 1.1//EN"
 "http://www.w3.org/Graphics/SVG/1.1/DTD/svg11.dtd">
<!-- Generated by graphviz version 2.40.1 (20161225.0304)
 -->
<!-- Title: /home/travis/build/AliceO2Group/AliceO2/Detectors/Vertexing/include/DetectorsVertexing/DCAFitterN.h Pages: 1 -->
<svg width="1472pt" height="150pt"
 viewBox="0.00 0.00 1472.00 150.00" xmlns="http://www.w3.org/2000/svg" xmlns:xlink="http://www.w3.org/1999/xlink">
<g id="graph0" class="graph" transform="scale(1 1) rotate(0) translate(4 146)">
<title>/home/travis/build/AliceO2Group/AliceO2/Detectors/Vertexing/include/DetectorsVertexing/DCAFitterN.h</title>
<!-- Node59 -->
<g id="node1" class="node">
<title>Node59</title>
<polygon fill="#bfbfbf" stroke="#000000" points="688.5,-89.5 688.5,-141.5 867.5,-141.5 867.5,-89.5 688.5,-89.5"/>
<text text-anchor="start" x="696.5" y="-129.5" font-family="Helvetica,sans-Serif" font-size="10.00" fill="#000000">/home/travis/build</text>
<text text-anchor="start" x="696.5" y="-118.5" font-family="Helvetica,sans-Serif" font-size="10.00" fill="#000000">/AliceO2Group/AliceO2</text>
<text text-anchor="start" x="696.5" y="-107.5" font-family="Helvetica,sans-Serif" font-size="10.00" fill="#000000">/Detectors/Vertexing/include</text>
<text text-anchor="middle" x="778" y="-96.5" font-family="Helvetica,sans-Serif" font-size="10.00" fill="#000000">/DetectorsVertexing/DCAFitterN.h</text>
</g>
<!-- Node60 -->
<g id="node2" class="node">
<title>Node60</title>
<g id="a_node2"><a xlink:href="../../d3/d9f/HFCandidateCreator2Prong_8cxx.html" target="_top" xlink:title="Reconstruction of heavy&#45;flavour 2&#45;prong decay candidates. ">
<polygon fill="none" stroke="#000000" points="0,-.5 0,-52.5 172,-52.5 172,-.5 0,-.5"/>
<text text-anchor="start" x="8" y="-40.5" font-family="Helvetica,sans-Serif" font-size="10.00" fill="#000000">/home/travis/build</text>
<text text-anchor="start" x="8" y="-29.5" font-family="Helvetica,sans-Serif" font-size="10.00" fill="#000000">/AliceO2Group/AliceO2</text>
<text text-anchor="start" x="8" y="-18.5" font-family="Helvetica,sans-Serif" font-size="10.00" fill="#000000">/Analysis/Tasks/PWGHF</text>
<text text-anchor="middle" x="86" y="-7.5" font-family="Helvetica,sans-Serif" font-size="10.00" fill="#000000">/HFCandidateCreator2Prong.cxx</text>
</a>
</g>
</g>
<!-- Node59&#45;&gt;Node60 -->
<g id="edge1" class="edge">
<title>Node59&#45;&gt;Node60</title>
<path fill="none" stroke="#191970" d="M678.1125,-110.1757C558.9441,-102.6446 354.0839,-85.9593 181,-53 178.0564,-52.4395 175.0713,-51.8317 172.0642,-51.1859"/>
<polygon fill="#191970" stroke="#191970" points="678.1127,-113.6824 688.311,-110.8111 678.548,-106.696 678.1127,-113.6824"/>
</g>
<!-- Node61 -->
<g id="node3" class="node">
<title>Node61</title>
<g id="a_node3"><a xlink:href="../../da/d3e/HFCandidateCreator3Prong_8cxx.html" target="_top" xlink:title="Reconstruction of heavy&#45;flavour 3&#45;prong decay candidates. ">
<polygon fill="none" stroke="#000000" points="190,-.5 190,-52.5 362,-52.5 362,-.5 190,-.5"/>
<text text-anchor="start" x="198" y="-40.5" font-family="Helvetica,sans-Serif" font-size="10.00" fill="#000000">/home/travis/build</text>
<text text-anchor="start" x="198" y="-29.5" font-family="Helvetica,sans-Serif" font-size="10.00" fill="#000000">/AliceO2Group/AliceO2</text>
<text text-anchor="start" x="198" y="-18.5" font-family="Helvetica,sans-Serif" font-size="10.00" fill="#000000">/Analysis/Tasks/PWGHF</text>
<text text-anchor="middle" x="276" y="-7.5" font-family="Helvetica,sans-Serif" font-size="10.00" fill="#000000">/HFCandidateCreator3Prong.cxx</text>
</a>
</g>
</g>
<!-- Node59&#45;&gt;Node61 -->
<g id="edge2" class="edge">
<title>Node59&#45;&gt;Node61</title>
<path fill="none" stroke="#191970" d="M677.959,-103.5326C595.1968,-92.8211 474.8162,-75.3668 371,-53 368.0707,-52.3689 365.098,-51.7003 362.1015,-51.0021"/>
<polygon fill="#191970" stroke="#191970" points="677.75,-107.0344 688.1146,-104.8376 678.6422,-100.0915 677.75,-107.0344"/>
</g>
<!-- Node62 -->
<g id="node4" class="node">
<title>Node62</title>
<g id="a_node4"><a xlink:href="../../d2/d43/HFTrackIndexSkimsCreator_8cxx.html" target="_top" xlink:title="Pre&#45;selection of 2&#45;prong and 3&#45;prong secondary vertices of heavy&#45;flavour decay candidates. ">
<polygon fill="none" stroke="#000000" points="380,-.5 380,-52.5 550,-52.5 550,-.5 380,-.5"/>
<text text-anchor="start" x="388" y="-40.5" font-family="Helvetica,sans-Serif" font-size="10.00" fill="#000000">/home/travis/build</text>
<text text-anchor="start" x="388" y="-29.5" font-family="Helvetica,sans-Serif" font-size="10.00" fill="#000000">/AliceO2Group/AliceO2</text>
<text text-anchor="start" x="388" y="-18.5" font-family="Helvetica,sans-Serif" font-size="10.00" fill="#000000">/Analysis/Tasks/PWGHF</text>
<text text-anchor="middle" x="465" y="-7.5" font-family="Helvetica,sans-Serif" font-size="10.00" fill="#000000">/HFTrackIndexSkimsCreator.cxx</text>
</a>
</g>
</g>
<!-- Node59&#45;&gt;Node62 -->
<g id="edge3" class="edge">
<title>Node59&#45;&gt;Node62</title>
<path fill="none" stroke="#191970" d="M678.5008,-87.2079C637.2072,-75.4663 589.7811,-61.9809 550.1321,-50.7069"/>
<polygon fill="#191970" stroke="#191970" points="677.7308,-90.6276 688.3068,-89.9962 679.6453,-83.8945 677.7308,-90.6276"/>
</g>
<!-- Node63 -->
<g id="node5" class="node">
<title>Node63</title>
<g id="a_node5"><a xlink:href="../../d0/dd5/cascadefinder_8cxx.html" target="_top" xlink:title="/home/travis/build\l/AliceO2Group/AliceO2\l/Analysis/Tasks/PWGLF\l/cascadefinder.cxx">
<polygon fill="none" stroke="#000000" points="568,-.5 568,-52.5 696,-52.5 696,-.5 568,-.5"/>
<text text-anchor="start" x="576" y="-40.5" font-family="Helvetica,sans-Serif" font-size="10.00" fill="#000000">/home/travis/build</text>
<text text-anchor="start" x="576" y="-29.5" font-family="Helvetica,sans-Serif" font-size="10.00" fill="#000000">/AliceO2Group/AliceO2</text>
<text text-anchor="start" x="576" y="-18.5" font-family="Helvetica,sans-Serif" font-size="10.00" fill="#000000">/Analysis/Tasks/PWGLF</text>
<text text-anchor="middle" x="632" y="-7.5" font-family="Helvetica,sans-Serif" font-size="10.00" fill="#000000">/cascadefinder.cxx</text>
</a>
</g>
</g>
<!-- Node59&#45;&gt;Node63 -->
<g id="edge4" class="edge">
<title>Node59&#45;&gt;Node63</title>
<path fill="none" stroke="#191970" d="M726.3241,-83.9989C709.4299,-73.7004 690.8654,-62.3837 674.7077,-52.5341"/>
<polygon fill="#191970" stroke="#191970" points="724.6245,-87.0619 734.9848,-89.2784 728.268,-81.0848 724.6245,-87.0619"/>
</g>
<!-- Node64 -->
<g id="node6" class="node">
<title>Node64</title>
<g id="a_node6"><a xlink:href="../../d1/db8/cascadeproducer_8cxx.html" target="_top" xlink:title="/home/travis/build\l/AliceO2Group/AliceO2\l/Analysis/Tasks/PWGLF\l/cascadeproducer.cxx">
<polygon fill="none" stroke="#000000" points="714,-.5 714,-52.5 842,-52.5 842,-.5 714,-.5"/>
<text text-anchor="start" x="722" y="-40.5" font-family="Helvetica,sans-Serif" font-size="10.00" fill="#000000">/home/travis/build</text>
<text text-anchor="start" x="722" y="-29.5" font-family="Helvetica,sans-Serif" font-size="10.00" fill="#000000">/AliceO2Group/AliceO2</text>
<text text-anchor="start" x="722" y="-18.5" font-family="Helvetica,sans-Serif" font-size="10.00" fill="#000000">/Analysis/Tasks/PWGLF</text>
<text text-anchor="middle" x="778" y="-7.5" font-family="Helvetica,sans-Serif" font-size="10.00" fill="#000000">/cascadeproducer.cxx</text>
</a>
</g>
</g>
<!-- Node59&#45;&gt;Node64 -->
<g id="edge5" class="edge">
<title>Node59&#45;&gt;Node64</title>
<path fill="none" stroke="#191970" d="M778,-79.1155C778,-70.2061 778,-60.8475 778,-52.5341"/>
<polygon fill="#191970" stroke="#191970" points="774.5001,-79.2784 778,-89.2784 781.5001,-79.2785 774.5001,-79.2784"/>
</g>
<!-- Node65 -->
<g id="node7" class="node">
<title>Node65</title>
<g id="a_node7"><a xlink:href="../../d5/d6e/lambdakzerofinder_8cxx.html" target="_top" xlink:title="/home/travis/build\l/AliceO2Group/AliceO2\l/Analysis/Tasks/PWGLF\l/lambdakzerofinder.cxx">
<polygon fill="none" stroke="#000000" points="860.5,-.5 860.5,-52.5 991.5,-52.5 991.5,-.5 860.5,-.5"/>
<text text-anchor="start" x="868.5" y="-40.5" font-family="Helvetica,sans-Serif" font-size="10.00" fill="#000000">/home/travis/build</text>
<text text-anchor="start" x="868.5" y="-29.5" font-family="Helvetica,sans-Serif" font-size="10.00" fill="#000000">/AliceO2Group/AliceO2</text>
<text text-anchor="start" x="868.5" y="-18.5" font-family="Helvetica,sans-Serif" font-size="10.00" fill="#000000">/Analysis/Tasks/PWGLF</text>
<text text-anchor="middle" x="926" y="-7.5" font-family="Helvetica,sans-Serif" font-size="10.00" fill="#000000">/lambdakzerofinder.cxx</text>
</a>
</g>
</g>
<!-- Node59&#45;&gt;Node65 -->
<g id="edge6" class="edge">
<title>Node59&#45;&gt;Node65</title>
<path fill="none" stroke="#191970" d="M830.3838,-83.9989C847.5094,-73.7004 866.3282,-62.3837 882.7073,-52.5341"/>
<polygon fill="#191970" stroke="#191970" points="828.3705,-81.1255 821.6044,-89.2784 831.978,-87.1244 828.3705,-81.1255"/>
</g>
<!-- Node66 -->
<g id="node8" class="node">
<title>Node66</title>
<g id="a_node8"><a xlink:href="../../d6/d2a/lambdakzeroproducer_8cxx.html" target="_top" xlink:title="/home/travis/build\l/AliceO2Group/AliceO2\l/Analysis/Tasks/PWGLF\l/lambdakzeroproducer.cxx">
<polygon fill="none" stroke="#000000" points="1010,-.5 1010,-52.5 1156,-52.5 1156,-.5 1010,-.5"/>
<text text-anchor="start" x="1018" y="-40.5" font-family="Helvetica,sans-Serif" font-size="10.00" fill="#000000">/home/travis/build</text>
<text text-anchor="start" x="1018" y="-29.5" font-family="Helvetica,sans-Serif" font-size="10.00" fill="#000000">/AliceO2Group/AliceO2</text>
<text text-anchor="start" x="1018" y="-18.5" font-family="Helvetica,sans-Serif" font-size="10.00" fill="#000000">/Analysis/Tasks/PWGLF</text>
<text text-anchor="middle" x="1083" y="-7.5" font-family="Helvetica,sans-Serif" font-size="10.00" fill="#000000">/lambdakzeroproducer.cxx</text>
</a>
</g>
</g>
<!-- Node59&#45;&gt;Node66 -->
<g id="edge7" class="edge">
<title>Node59&#45;&gt;Node66</title>
<path fill="none" stroke="#191970" d="M877.4487,-88.5284C916.1162,-77.806 960.7221,-65.1475 1001,-53 1003.8648,-52.136 1006.7824,-51.2453 1009.7271,-50.3372"/>
<polygon fill="#191970" stroke="#191970" points="876.4568,-85.1713 867.7522,-91.2113 878.3234,-91.9178 876.4568,-85.1713"/>
</g>
<!-- Node67 -->
<g id="node9" class="node">
<title>Node67</title>
<g id="a_node9"><a xlink:href="../../dd/dce/DCAFitterN_8cxx.html" target="_top" xlink:title="Defintions for N&#45;prongs secondary vertex fit. ">
<polygon fill="none" stroke="#000000" points="1174,-.5 1174,-52.5 1308,-52.5 1308,-.5 1174,-.5"/>
<text text-anchor="start" x="1182" y="-40.5" font-family="Helvetica,sans-Serif" font-size="10.00" fill="#000000">/home/travis/build</text>
<text text-anchor="start" x="1182" y="-29.5" font-family="Helvetica,sans-Serif" font-size="10.00" fill="#000000">/AliceO2Group/AliceO2</text>
<text text-anchor="start" x="1182" y="-18.5" font-family="Helvetica,sans-Serif" font-size="10.00" fill="#000000">/Detectors/Vertexing/src</text>
<text text-anchor="middle" x="1241" y="-7.5" font-family="Helvetica,sans-Serif" font-size="10.00" fill="#000000">/DCAFitterN.cxx</text>
</a>
</g>
</g>
<!-- Node59&#45;&gt;Node67 -->
<g id="edge8" class="edge">
<title>Node59&#45;&gt;Node67</title>
<path fill="none" stroke="#191970" d="M878.0693,-104.2378C956.792,-94.2058 1068.8633,-77.3235 1165,-53 1167.8448,-52.2802 1170.7343,-51.5002 1173.642,-50.6747"/>
<polygon fill="#191970" stroke="#191970" points="877.156,-100.8251 867.6719,-105.5476 878.031,-107.7702 877.156,-100.8251"/>
</g>
<!-- Node68 -->
<g id="node10" class="node">
<title>Node68</title>
<g id="a_node10"><a xlink:href="../../dd/de2/testDCAFitterN_8cxx.html" target="_top" xlink:title="/home/travis/build\l/AliceO2Group/AliceO2\l/Detectors/Vertexing/test\l/testDCAFitterN.cxx">
<polygon fill="none" stroke="#000000" points="1326,-.5 1326,-52.5 1464,-52.5 1464,-.5 1326,-.5"/>
<text text-anchor="start" x="1334" y="-40.5" font-family="Helvetica,sans-Serif" font-size="10.00" fill="#000000">/home/travis/build</text>
<text text-anchor="start" x="1334" y="-29.5" font-family="Helvetica,sans-Serif" font-size="10.00" fill="#000000">/AliceO2Group/AliceO2</text>
<text text-anchor="start" x="1334" y="-18.5" font-family="Helvetica,sans-Serif" font-size="10.00" fill="#000000">/Detectors/Vertexing/test</text>
<text text-anchor="middle" x="1395" y="-7.5" font-family="Helvetica,sans-Serif" font-size="10.00" fill="#000000">/testDCAFitterN.cxx</text>
</a>
</g>
</g>
<!-- Node59&#45;&gt;Node68 -->
<g id="edge9" class="edge">
<title>Node59&#45;&gt;Node68</title>
<path fill="none" stroke="#191970" d="M877.6715,-110.2834C986.6601,-103.1148 1165.9412,-87.0136 1317,-53 1319.93,-52.3403 1322.9042,-51.6104 1325.8956,-50.8264"/>
<polygon fill="#191970" stroke="#191970" points="877.4263,-106.7918 867.6726,-110.9289 877.8774,-113.7773 877.4263,-106.7918"/>
</g>
</g>
</svg>
