<?xml version="1.0" encoding="UTF-8" standalone="no"?>
<!DOCTYPE svg PUBLIC "-//W3C//DTD SVG 1.1//EN"
 "http://www.w3.org/Graphics/SVG/1.1/DTD/svg11.dtd">
<!-- Generated by graphviz version 2.40.1 (20161225.0304)
 -->
<!-- Title: /home/travis/build/AliceO2Group/AliceO2/Detectors/TPC/simulation/include/TPCSimulation/CommonMode.h Pages: 1 -->
<svg width="1458pt" height="307pt"
 viewBox="0.00 0.00 1458.00 307.00" xmlns="http://www.w3.org/2000/svg" xmlns:xlink="http://www.w3.org/1999/xlink">
<g id="graph0" class="graph" transform="scale(1 1) rotate(0) translate(4 303)">
<title>/home/travis/build/AliceO2Group/AliceO2/Detectors/TPC/simulation/include/TPCSimulation/CommonMode.h</title>
<!-- Node0 -->
<g id="node1" class="node">
<title>Node0</title>
<polygon fill="#bfbfbf" stroke="#000000" points="330.5,-246.5 330.5,-298.5 542.5,-298.5 542.5,-246.5 330.5,-246.5"/>
<text text-anchor="start" x="338.5" y="-286.5" font-family="Helvetica,sans-Serif" font-size="10.00" fill="#000000">/home/travis/build</text>
<text text-anchor="start" x="338.5" y="-275.5" font-family="Helvetica,sans-Serif" font-size="10.00" fill="#000000">/AliceO2Group/AliceO2</text>
<text text-anchor="start" x="338.5" y="-264.5" font-family="Helvetica,sans-Serif" font-size="10.00" fill="#000000">/Detectors/TPC/simulation</text>
<text text-anchor="middle" x="436.5" y="-253.5" font-family="Helvetica,sans-Serif" font-size="10.00" fill="#000000">/include/TPCSimulation/CommonMode.h</text>
</g>
<!-- Node1 -->
<g id="node2" class="node">
<title>Node1</title>
<polygon fill="none" stroke="#bfbfbf" points="0,-73 0,-92 59,-92 59,-73 0,-73"/>
<text text-anchor="middle" x="29.5" y="-80" font-family="Helvetica,sans-Serif" font-size="10.00" fill="#000000">Rtypes.h</text>
</g>
<!-- Node0&#45;&gt;Node1 -->
<g id="edge1" class="edge">
<title>Node0&#45;&gt;Node1</title>
<path fill="none" stroke="#191970" d="M380.7618,-246.4797C293.4026,-205.6978 127.222,-128.1196 59.4259,-96.4703"/>
<polygon fill="#191970" stroke="#191970" points="60.7,-93.2025 50.1582,-92.1439 57.7389,-99.5454 60.7,-93.2025"/>
</g>
<!-- Node2 -->
<g id="node3" class="node">
<title>Node2</title>
<g id="a_node3"><a xlink:href="../../d1/d73/Defs_8h.html" target="_top" xlink:title="Common definitions for 2D coordinates. ">
<polygon fill="none" stroke="#000000" points="778,-190.5 778,-209.5 911,-209.5 911,-190.5 778,-190.5"/>
<text text-anchor="middle" x="844.5" y="-197.5" font-family="Helvetica,sans-Serif" font-size="10.00" fill="#000000">DataFormatsTPC/Defs.h</text>
</a>
</g>
</g>
<!-- Node0&#45;&gt;Node2 -->
<g id="edge2" class="edge">
<title>Node0&#45;&gt;Node2</title>
<path fill="none" stroke="#191970" d="M542.6321,-253.6407C618.2728,-240.1997 717.4394,-222.5782 781.0775,-211.2699"/>
<polygon fill="#191970" stroke="#191970" points="781.7435,-214.7065 790.9769,-209.5108 780.5188,-207.8145 781.7435,-214.7065"/>
</g>
<!-- Node3 -->
<g id="node4" class="node">
<title>Node3</title>
<polygon fill="none" stroke="#bfbfbf" points="821,-134.5 821,-153.5 868,-153.5 868,-134.5 821,-134.5"/>
<text text-anchor="middle" x="844.5" y="-141.5" font-family="Helvetica,sans-Serif" font-size="10.00" fill="#000000">cmath</text>
</g>
<!-- Node2&#45;&gt;Node3 -->
<g id="edge3" class="edge">
<title>Node2&#45;&gt;Node3</title>
<path fill="none" stroke="#191970" d="M844.5,-190.2455C844.5,-182.9382 844.5,-172.6944 844.5,-163.7046"/>
<polygon fill="#191970" stroke="#191970" points="848.0001,-163.6426 844.5,-153.6427 841.0001,-163.6427 848.0001,-163.6426"/>
</g>
<!-- Node4 -->
<g id="node5" class="node">
<title>Node4</title>
<g id="a_node5"><a xlink:href="../../d1/da8/GPUROOTCartesianFwd_8h.html" target="_top" xlink:title="GPUROOTCartesianFwd.h">
<polygon fill="none" stroke="#000000" points="886.5,-134.5 886.5,-153.5 1026.5,-153.5 1026.5,-134.5 886.5,-134.5"/>
<text text-anchor="middle" x="956.5" y="-141.5" font-family="Helvetica,sans-Serif" font-size="10.00" fill="#000000">GPUROOTCartesianFwd.h</text>
</a>
</g>
</g>
<!-- Node2&#45;&gt;Node4 -->
<g id="edge4" class="edge">
<title>Node2&#45;&gt;Node4</title>
<path fill="none" stroke="#191970" d="M863.7535,-190.3733C881.5712,-181.4644 908.2747,-168.1127 928.4594,-158.0203"/>
<polygon fill="#191970" stroke="#191970" points="930.1187,-161.1038 937.4978,-153.5011 926.9882,-154.8428 930.1187,-161.1038"/>
</g>
<!-- Node5 -->
<g id="node6" class="node">
<title>Node5</title>
<g id="a_node6"><a xlink:href="../../d2/dd0/Cartesian2D_8h.html" target="_top" xlink:title="MathUtils/Cartesian2D.h">
<polygon fill="none" stroke="#000000" points="1191,-73 1191,-92 1326,-92 1326,-73 1191,-73"/>
<text text-anchor="middle" x="1258.5" y="-80" font-family="Helvetica,sans-Serif" font-size="10.00" fill="#000000">MathUtils/Cartesian2D.h</text>
</a>
</g>
</g>
<!-- Node2&#45;&gt;Node5 -->
<g id="edge5" class="edge">
<title>Node2&#45;&gt;Node5</title>
<path fill="none" stroke="#191970" d="M887.9747,-190.4931C926.8421,-181.7653 985.2519,-168.0855 1035.5,-154 1101.4182,-135.5219 1177.0985,-110.4184 1221.1804,-95.3994"/>
<polygon fill="#191970" stroke="#191970" points="1222.5568,-98.6278 1230.8869,-92.0812 1220.2924,-92.0042 1222.5568,-98.6278"/>
</g>
<!-- Node8 -->
<g id="node9" class="node">
<title>Node8</title>
<g id="a_node9"><a xlink:href="../../dd/d76/Cartesian3D_8h.html" target="_top" xlink:title="MathUtils/Cartesian3D.h">
<polygon fill="none" stroke="#000000" points="668,-134.5 668,-153.5 803,-153.5 803,-134.5 668,-134.5"/>
<text text-anchor="middle" x="735.5" y="-141.5" font-family="Helvetica,sans-Serif" font-size="10.00" fill="#000000">MathUtils/Cartesian3D.h</text>
</a>
</g>
</g>
<!-- Node2&#45;&gt;Node8 -->
<g id="edge8" class="edge">
<title>Node2&#45;&gt;Node8</title>
<path fill="none" stroke="#191970" d="M825.5136,-190.2455C808.3208,-181.4125 782.7762,-168.2887 763.2868,-158.2758"/>
<polygon fill="#191970" stroke="#191970" points="764.763,-155.0993 754.2688,-153.6427 761.5641,-161.3257 764.763,-155.0993"/>
</g>
<!-- Node6 -->
<g id="node7" class="node">
<title>Node6</title>
<polygon fill="none" stroke="#bfbfbf" points="1078.5,-.5 1078.5,-30.5 1242.5,-30.5 1242.5,-.5 1078.5,-.5"/>
<text text-anchor="start" x="1086.5" y="-18.5" font-family="Helvetica,sans-Serif" font-size="10.00" fill="#000000">Math/GenVector/Displacement</text>
<text text-anchor="middle" x="1160.5" y="-7.5" font-family="Helvetica,sans-Serif" font-size="10.00" fill="#000000">Vector2D.h</text>
</g>
<!-- Node5&#45;&gt;Node6 -->
<g id="edge6" class="edge">
<title>Node5&#45;&gt;Node6</title>
<path fill="none" stroke="#191970" d="M1244.459,-72.9005C1230.5412,-63.3853 1208.772,-48.5023 1190.888,-36.2755"/>
<polygon fill="#191970" stroke="#191970" points="1192.7026,-33.2763 1182.4721,-30.5218 1188.7519,-39.0549 1192.7026,-33.2763"/>
</g>
<!-- Node7 -->
<g id="node8" class="node">
<title>Node7</title>
<polygon fill="none" stroke="#bfbfbf" points="1261,-6 1261,-25 1450,-25 1450,-6 1261,-6"/>
<text text-anchor="middle" x="1355.5" y="-13" font-family="Helvetica,sans-Serif" font-size="10.00" fill="#000000">Math/GenVector/PositionVector2D.h</text>
</g>
<!-- Node5&#45;&gt;Node7 -->
<g id="edge7" class="edge">
<title>Node5&#45;&gt;Node7</title>
<path fill="none" stroke="#191970" d="M1272.3977,-72.9005C1288.3164,-61.9052 1314.6121,-43.7422 1333.3599,-30.7927"/>
<polygon fill="#191970" stroke="#191970" points="1335.3892,-33.6448 1341.628,-25.0817 1331.4108,-27.8852 1335.3892,-33.6448"/>
</g>
<!-- Node8&#45;&gt;Node1 -->
<g id="edge14" class="edge">
<title>Node8&#45;&gt;Node1</title>
<path fill="none" stroke="#191970" d="M667.9302,-142.0715C521.7506,-137.4562 180.2424,-124.163 67.5,-98 64.7021,-97.3507 61.8431,-96.5216 59.0116,-95.5853"/>
<polygon fill="#191970" stroke="#191970" points="60.2125,-92.2978 49.6196,-92.0951 57.7741,-98.8593 60.2125,-92.2978"/>
</g>
<!-- Node8&#45;&gt;Node5 -->
<g id="edge17" class="edge">
<title>Node8&#45;&gt;Node5</title>
<path fill="none" stroke="#191970" d="M803.0912,-135.098C806.2708,-134.7182 809.4194,-134.3502 812.5,-134 976.224,-115.3868 1018.5215,-122.2899 1181.5,-98 1189.1814,-96.8552 1197.2561,-95.4526 1205.1688,-93.9636"/>
<polygon fill="#191970" stroke="#191970" points="1205.9128,-97.3846 1215.0632,-92.0442 1204.5797,-90.5127 1205.9128,-97.3846"/>
</g>
<!-- Node9 -->
<g id="node10" class="node">
<title>Node9</title>
<polygon fill="none" stroke="#bfbfbf" points="1008.5,-67.5 1008.5,-97.5 1172.5,-97.5 1172.5,-67.5 1008.5,-67.5"/>
<text text-anchor="start" x="1016.5" y="-85.5" font-family="Helvetica,sans-Serif" font-size="10.00" fill="#000000">Math/GenVector/Displacement</text>
<text text-anchor="middle" x="1090.5" y="-74.5" font-family="Helvetica,sans-Serif" font-size="10.00" fill="#000000">Vector3D.h</text>
</g>
<!-- Node8&#45;&gt;Node9 -->
<g id="edge9" class="edge">
<title>Node8&#45;&gt;Node9</title>
<path fill="none" stroke="#191970" d="M790.5792,-134.4581C845.9667,-124.8628 932.3615,-109.8958 998.2269,-98.4853"/>
<polygon fill="#191970" stroke="#191970" points="998.9453,-101.9131 1008.2011,-96.7574 997.7504,-95.0158 998.9453,-101.9131"/>
</g>
<!-- Node10 -->
<g id="node11" class="node">
<title>Node10</title>
<polygon fill="none" stroke="#bfbfbf" points="77,-73 77,-92 266,-92 266,-73 77,-73"/>
<text text-anchor="middle" x="171.5" y="-80" font-family="Helvetica,sans-Serif" font-size="10.00" fill="#000000">Math/GenVector/PositionVector3D.h</text>
</g>
<!-- Node8&#45;&gt;Node10 -->
<g id="edge10" class="edge">
<title>Node8&#45;&gt;Node10</title>
<path fill="none" stroke="#191970" d="M667.9625,-138.2744C578.191,-130.4288 414.6798,-115.3203 275.5,-98 264.6818,-96.6537 253.2514,-95.0921 242.0831,-93.4888"/>
<polygon fill="#191970" stroke="#191970" points="242.3253,-89.9872 231.9253,-92.0097 241.3166,-96.9142 242.3253,-89.9872"/>
</g>
<!-- Node11 -->
<g id="node12" class="node">
<title>Node11</title>
<polygon fill="none" stroke="#bfbfbf" points="284.5,-73 284.5,-92 444.5,-92 444.5,-73 284.5,-73"/>
<text text-anchor="middle" x="364.5" y="-80" font-family="Helvetica,sans-Serif" font-size="10.00" fill="#000000">Math/GenVector/Rotation3D.h</text>
</g>
<!-- Node8&#45;&gt;Node11 -->
<g id="edge11" class="edge">
<title>Node8&#45;&gt;Node11</title>
<path fill="none" stroke="#191970" d="M676.053,-134.4929C618.9612,-125.3176 530.2962,-110.9504 453.5,-98 445.4736,-96.6465 437.0438,-95.2047 428.7039,-93.7661"/>
<polygon fill="#191970" stroke="#191970" points="429.0594,-90.2757 418.609,-92.0191 427.8657,-97.1732 429.0594,-90.2757"/>
</g>
<!-- Node12 -->
<g id="node13" class="node">
<title>Node12</title>
<polygon fill="none" stroke="#bfbfbf" points="462.5,-73 462.5,-92 630.5,-92 630.5,-73 462.5,-73"/>
<text text-anchor="middle" x="546.5" y="-80" font-family="Helvetica,sans-Serif" font-size="10.00" fill="#000000">Math/GenVector/Transform3D.h</text>
</g>
<!-- Node8&#45;&gt;Node12 -->
<g id="edge12" class="edge">
<title>Node8&#45;&gt;Node12</title>
<path fill="none" stroke="#191970" d="M705.9688,-134.3906C673.5134,-123.8298 621.2419,-106.8208 585.4514,-95.1747"/>
<polygon fill="#191970" stroke="#191970" points="586.4161,-91.808 575.8239,-92.0419 584.2501,-98.4645 586.4161,-91.808"/>
</g>
<!-- Node13 -->
<g id="node14" class="node">
<title>Node13</title>
<polygon fill="none" stroke="#bfbfbf" points="649,-73 649,-92 822,-92 822,-73 649,-73"/>
<text text-anchor="middle" x="735.5" y="-80" font-family="Helvetica,sans-Serif" font-size="10.00" fill="#000000">Math/GenVector/Translation3D.h</text>
</g>
<!-- Node8&#45;&gt;Node13 -->
<g id="edge13" class="edge">
<title>Node8&#45;&gt;Node13</title>
<path fill="none" stroke="#191970" d="M735.5,-134.3906C735.5,-125.8657 735.5,-113.1392 735.5,-102.4235"/>
<polygon fill="#191970" stroke="#191970" points="739.0001,-102.2448 735.5,-92.2449 732.0001,-102.2449 739.0001,-102.2448"/>
</g>
<!-- Node14 -->
<g id="node15" class="node">
<title>Node14</title>
<polygon fill="none" stroke="#bfbfbf" points="840.5,-73 840.5,-92 922.5,-92 922.5,-73 840.5,-73"/>
<text text-anchor="middle" x="881.5" y="-80" font-family="Helvetica,sans-Serif" font-size="10.00" fill="#000000">TGeoMatrix.h</text>
</g>
<!-- Node8&#45;&gt;Node14 -->
<g id="edge15" class="edge">
<title>Node8&#45;&gt;Node14</title>
<path fill="none" stroke="#191970" d="M758.3125,-134.3906C782.8481,-124.0554 822.0442,-107.5447 849.6211,-95.9284"/>
<polygon fill="#191970" stroke="#191970" points="850.9906,-99.1495 858.8477,-92.0419 848.2732,-92.6984 850.9906,-99.1495"/>
</g>
<!-- Node15 -->
<g id="node16" class="node">
<title>Node15</title>
<polygon fill="none" stroke="#bfbfbf" points="941,-73 941,-92 990,-92 990,-73 941,-73"/>
<text text-anchor="middle" x="965.5" y="-80" font-family="Helvetica,sans-Serif" font-size="10.00" fill="#000000">iosfwd</text>
</g>
<!-- Node8&#45;&gt;Node15 -->
<g id="edge16" class="edge">
<title>Node8&#45;&gt;Node15</title>
<path fill="none" stroke="#191970" d="M788.7051,-134.4674C828.5865,-126.6151 884.2009,-114.1551 931.5,-98 933.3417,-97.371 935.2187,-96.6765 937.0974,-95.9406"/>
<polygon fill="#191970" stroke="#191970" points="938.5035,-99.1461 946.3497,-92.0265 935.7762,-92.6992 938.5035,-99.1461"/>
</g>
</g>
</svg>
