<?xml version="1.0" encoding="UTF-8" standalone="no"?>
<!DOCTYPE svg PUBLIC "-//W3C//DTD SVG 1.1//EN"
 "http://www.w3.org/Graphics/SVG/1.1/DTD/svg11.dtd">
<!-- Generated by graphviz version 2.40.1 (20161225.0304)
 -->
<!-- Title: /home/travis/build/AliceO2Group/AliceO2/Framework/Core/include/Framework/ServiceRegistry.h Pages: 1 -->
<!--zoomable 307 -->
<svg id="main" version="1.1" xmlns="http://www.w3.org/2000/svg" xmlns:xlink="http://www.w3.org/1999/xlink" xml:space="preserve" onload="init(evt)">
<style type="text/css"><![CDATA[
.edge:hover path { stroke: red; }
.edge:hover polygon { stroke: red; fill: red; }
]]></style>
<script type="text/javascript"><![CDATA[
var edges = document.getElementsByTagName('g');
if (edges && edges.length) {
  for (var i=0;i<edges.length;i++) {
    if (edges[i].id.substr(0,4)=='edge') {
      edges[i].setAttribute('class','edge');
    }
  }
}
]]></script>
        <defs>
                <circle id="rim" cx="0" cy="0" r="7"/>
                <circle id="rim2" cx="0" cy="0" r="3.5"/>
                <g id="zoomPlus">
                        <use xlink:href="#rim" fill="#404040">
                                <set attributeName="fill" to="#808080" begin="zoomplus.mouseover" end="zoomplus.mouseout"/>
                        </use>
                        <path d="M-4,0h8M0,-4v8" fill="none" stroke="white" stroke-width="1.5" pointer-events="none"/>
                </g>
                <g id="zoomMin">
                        <use xlink:href="#rim" fill="#404040">
                                <set attributeName="fill" to="#808080" begin="zoomminus.mouseover" end="zoomminus.mouseout"/>
                        </use>
                        <path d="M-4,0h8" fill="none" stroke="white" stroke-width="1.5" pointer-events="none"/>
                </g>
                <g id="dirArrow">
                        <path fill="none" stroke="white" stroke-width="1.5" d="M0,-3.0v7 M-2.5,-0.5L0,-3.0L2.5,-0.5"/>
                </g>
               <g id="resetDef">
                       <use xlink:href="#rim2" fill="#404040">
                               <set attributeName="fill" to="#808080" begin="reset.mouseover" end="reset.mouseout"/>
                       </use>
               </g>
        </defs>

<script type="text/javascript">
var viewWidth = 1444;
var viewHeight = 307;
var sectionId = 'dynsection-0';
</script>
<script xlink:href="../../svgpan.js"/>
<svg id="graph" class="graph">
<g id="viewport">
<title>/home/travis/build/AliceO2Group/AliceO2/Framework/Core/include/Framework/ServiceRegistry.h</title>
<!-- Node0 -->
<g id="node1" class="node">
<title>Node0</title>
<polygon fill="#bfbfbf" stroke="#000000" points="752.3549,-246.5 752.3549,-298.5 912.3549,-298.5 912.3549,-246.5 752.3549,-246.5"/>
<text text-anchor="start" x="760.3549" y="-286.5" font-family="Helvetica,sans-Serif" font-size="10.00" fill="#000000">/home/travis/build</text>
<text text-anchor="start" x="760.3549" y="-275.5" font-family="Helvetica,sans-Serif" font-size="10.00" fill="#000000">/AliceO2Group/AliceO2</text>
<text text-anchor="start" x="760.3549" y="-264.5" font-family="Helvetica,sans-Serif" font-size="10.00" fill="#000000">/Framework/Core/include</text>
<text text-anchor="middle" x="832.3549" y="-253.5" font-family="Helvetica,sans-Serif" font-size="10.00" fill="#000000">/Framework/ServiceRegistry.h</text>
</g>
<!-- Node1 -->
<g id="node2" class="node">
<title>Node1</title>
<g id="a_node2"><a xlink:href="../../d3/d28/ServiceHandle_8h.html" target="_top" xlink:title="Framework/ServiceHandle.h">
<polygon fill="none" stroke="#000000" points="266.8549,-118 266.8549,-137 419.8549,-137 419.8549,-118 266.8549,-118"/>
<text text-anchor="middle" x="343.3549" y="-125" font-family="Helvetica,sans-Serif" font-size="10.00" fill="#000000">Framework/ServiceHandle.h</text>
</a>
</g>
</g>
<!-- Node0&#45;&gt;Node1 -->
<g id="edge1" class="edge">
<title>Node0&#45;&gt;Node1</title>
<path fill="none" stroke="#191970" d="M752.3159,-259.5107C693.0501,-248.8981 610.7257,-232.0558 540.3549,-210 478.8058,-190.7091 409.9413,-159.5417 372.1227,-141.5456"/>
<polygon fill="#191970" stroke="#191970" points="373.2856,-138.2217 362.7552,-137.0545 370.2593,-144.5338 373.2856,-138.2217"/>
</g>
<!-- Node2 -->
<g id="node3" class="node">
<title>Node2</title>
<polygon fill="none" stroke="#bfbfbf" points="269.3549,-56.5 269.3549,-75.5 313.3549,-75.5 313.3549,-56.5 269.3549,-56.5"/>
<text text-anchor="middle" x="291.3549" y="-63.5" font-family="Helvetica,sans-Serif" font-size="10.00" fill="#000000">string</text>
</g>
<!-- Node0&#45;&gt;Node2 -->
<g id="edge28" class="edge">
<title>Node0&#45;&gt;Node2</title>
<path fill="none" stroke="#191970" d="M752.2465,-267.4543C603.3677,-257.6353 289.5313,-234.7412 183.3549,-210 101.4356,-190.9112 54.1589,-212.2094 6.3549,-143 -1.4753,-131.6636 -2.5776,-122.4899 6.3549,-112 22.6199,-92.8993 187.7787,-75.5381 258.9775,-68.8794"/>
<polygon fill="#191970" stroke="#191970" points="259.5304,-72.3433 269.1667,-67.9397 258.8875,-65.3729 259.5304,-72.3433"/>
</g>
<!-- Node3 -->
<g id="node4" class="node">
<title>Node3</title>
<g id="a_node4"><a xlink:href="../../d4/d61/ServiceSpec_8h.html" target="_top" xlink:title="Framework/ServiceSpec.h">
<polygon fill="none" stroke="#000000" points="192.3549,-185 192.3549,-204 334.3549,-204 334.3549,-185 192.3549,-185"/>
<text text-anchor="middle" x="263.3549" y="-192" font-family="Helvetica,sans-Serif" font-size="10.00" fill="#000000">Framework/ServiceSpec.h</text>
</a>
</g>
</g>
<!-- Node0&#45;&gt;Node3 -->
<g id="edge3" class="edge">
<title>Node0&#45;&gt;Node3</title>
<path fill="none" stroke="#191970" d="M752.3242,-261.7174C660.7214,-249.349 506.1914,-228.4027 373.3549,-210 362.751,-208.531 351.574,-206.9703 340.5709,-205.4267"/>
<polygon fill="#191970" stroke="#191970" points="340.9261,-201.9423 330.5364,-204.0171 339.9523,-208.8743 340.9261,-201.9423"/>
</g>
<!-- Node4 -->
<g id="node5" class="node">
<title>Node4</title>
<polygon fill="none" stroke="#bfbfbf" points="437.8549,-118 437.8549,-137 502.8549,-137 502.8549,-118 437.8549,-118"/>
<text text-anchor="middle" x="470.3549" y="-125" font-family="Helvetica,sans-Serif" font-size="10.00" fill="#000000">functional</text>
</g>
<!-- Node0&#45;&gt;Node4 -->
<g id="edge27" class="edge">
<title>Node0&#45;&gt;Node4</title>
<path fill="none" stroke="#191970" d="M752.2668,-257.5907C706.0708,-247.4126 647.5708,-231.7876 598.3549,-210 557.4461,-191.8899 514.6919,-161.6746 490.4065,-143.2704"/>
<polygon fill="#191970" stroke="#191970" points="492.395,-140.3845 482.3324,-137.0685 488.1309,-145.9358 492.395,-140.3845"/>
</g>
<!-- Node7 -->
<g id="node8" class="node">
<title>Node7</title>
<g id="a_node8"><a xlink:href="../../d0/d6d/ServiceRegistryHelpers_8h.html" target="_top" xlink:title="Framework/ServiceRegistry\lHelpers.h">
<polygon fill="none" stroke="#000000" points="617.8549,-179.5 617.8549,-209.5 766.8549,-209.5 766.8549,-179.5 617.8549,-179.5"/>
<text text-anchor="start" x="625.8549" y="-197.5" font-family="Helvetica,sans-Serif" font-size="10.00" fill="#000000">Framework/ServiceRegistry</text>
<text text-anchor="middle" x="692.3549" y="-186.5" font-family="Helvetica,sans-Serif" font-size="10.00" fill="#000000">Helpers.h</text>
</a>
</g>
</g>
<!-- Node0&#45;&gt;Node7 -->
<g id="edge9" class="edge">
<title>Node0&#45;&gt;Node7</title>
<path fill="none" stroke="#191970" d="M785.3475,-246.3101C766.8487,-236.0037 745.94,-224.3545 728.6404,-214.7162"/>
<polygon fill="#191970" stroke="#191970" points="729.8782,-211.3993 719.4391,-209.5897 726.4713,-217.5143 729.8782,-211.3993"/>
</g>
<!-- Node8 -->
<g id="node9" class="node">
<title>Node8</title>
<g id="a_node9"><a xlink:href="../../d2/d9a/TypeIdHelpers_8h.html" target="_top" xlink:title="Framework/TypeIdHelpers.h">
<polygon fill="none" stroke="#000000" points="559.3549,-118 559.3549,-137 711.3549,-137 711.3549,-118 559.3549,-118"/>
<text text-anchor="middle" x="635.3549" y="-125" font-family="Helvetica,sans-Serif" font-size="10.00" fill="#000000">Framework/TypeIdHelpers.h</text>
</a>
</g>
</g>
<!-- Node0&#45;&gt;Node8 -->
<g id="edge23" class="edge">
<title>Node0&#45;&gt;Node8</title>
<path fill="none" stroke="#191970" d="M752.2242,-260.5349C695.3269,-250.2101 626.0239,-233.2738 608.3549,-210 593.7662,-190.7835 607.9833,-163.3374 620.6832,-145.4699"/>
<polygon fill="#191970" stroke="#191970" points="623.7792,-147.1791 627.0256,-137.0938 618.1986,-142.9534 623.7792,-147.1791"/>
</g>
<!-- Node12 -->
<g id="node13" class="node">
<title>Node12</title>
<polygon fill="none" stroke="#bfbfbf" points="729.3549,-118 729.3549,-137 793.3549,-137 793.3549,-118 729.3549,-118"/>
<text text-anchor="middle" x="761.3549" y="-125" font-family="Helvetica,sans-Serif" font-size="10.00" fill="#000000">algorithm</text>
</g>
<!-- Node0&#45;&gt;Node12 -->
<g id="edge25" class="edge">
<title>Node0&#45;&gt;Node12</title>
<path fill="none" stroke="#191970" d="M819.4974,-246.2416C805.3782,-217.4066 783.0578,-171.8227 770.5788,-146.3374"/>
<polygon fill="#191970" stroke="#191970" points="773.5695,-144.4864 766.0284,-137.0445 767.2828,-147.5648 773.5695,-144.4864"/>
</g>
<!-- Node13 -->
<g id="node14" class="node">
<title>Node13</title>
<polygon fill="none" stroke="#bfbfbf" points="811.3549,-118 811.3549,-137 853.3549,-137 853.3549,-118 811.3549,-118"/>
<text text-anchor="middle" x="832.3549" y="-125" font-family="Helvetica,sans-Serif" font-size="10.00" fill="#000000">array</text>
</g>
<!-- Node0&#45;&gt;Node13 -->
<g id="edge26" class="edge">
<title>Node0&#45;&gt;Node13</title>
<path fill="none" stroke="#191970" d="M832.3549,-246.2416C832.3549,-217.7911 832.3549,-173.0353 832.3549,-147.3675"/>
<polygon fill="#191970" stroke="#191970" points="835.855,-147.0445 832.3549,-137.0445 828.855,-147.0445 835.855,-147.0445"/>
</g>
<!-- Node14 -->
<g id="node15" class="node">
<title>Node14</title>
<polygon fill="none" stroke="#bfbfbf" points="871.8549,-118 871.8549,-137 940.8549,-137 940.8549,-118 871.8549,-118"/>
<text text-anchor="middle" x="906.3549" y="-125" font-family="Helvetica,sans-Serif" font-size="10.00" fill="#000000">type_traits</text>
</g>
<!-- Node0&#45;&gt;Node14 -->
<g id="edge29" class="edge">
<title>Node0&#45;&gt;Node14</title>
<path fill="none" stroke="#191970" d="M845.7558,-246.2416C860.5369,-217.2785 883.942,-171.4172 896.9141,-145.9988"/>
<polygon fill="#191970" stroke="#191970" points="900.0557,-147.5426 901.4839,-137.0445 893.8207,-144.3606 900.0557,-147.5426"/>
</g>
<!-- Node15 -->
<g id="node16" class="node">
<title>Node15</title>
<polygon fill="none" stroke="#bfbfbf" points="958.8549,-118 958.8549,-137 1015.8549,-137 1015.8549,-118 958.8549,-118"/>
<text text-anchor="middle" x="987.3549" y="-125" font-family="Helvetica,sans-Serif" font-size="10.00" fill="#000000">typeinfo</text>
</g>
<!-- Node0&#45;&gt;Node15 -->
<g id="edge30" class="edge">
<title>Node0&#45;&gt;Node15</title>
<path fill="none" stroke="#191970" d="M860.4243,-246.2416C892.2068,-216.5096 943.0248,-168.9701 969.6974,-144.0183"/>
<polygon fill="#191970" stroke="#191970" points="972.2405,-146.4321 977.1522,-137.0445 967.4584,-141.3201 972.2405,-146.4321"/>
</g>
<!-- Node16 -->
<g id="node17" class="node">
<title>Node16</title>
<polygon fill="none" stroke="#bfbfbf" points="1034.3549,-118 1034.3549,-137 1082.3549,-137 1082.3549,-118 1034.3549,-118"/>
<text text-anchor="middle" x="1058.3549" y="-125" font-family="Helvetica,sans-Serif" font-size="10.00" fill="#000000">thread</text>
</g>
<!-- Node0&#45;&gt;Node16 -->
<g id="edge31" class="edge">
<title>Node0&#45;&gt;Node16</title>
<path fill="none" stroke="#191970" d="M874.6797,-246.4958C891.6747,-235.657 911.2517,-222.6611 928.3549,-210 945.5978,-197.2355 947.6676,-191.1411 965.3549,-179 985.9218,-164.8823 1010.6961,-151.3159 1029.5015,-141.6542"/>
<polygon fill="#191970" stroke="#191970" points="1031.135,-144.7503 1038.4728,-137.1078 1027.9707,-138.5063 1031.135,-144.7503"/>
</g>
<!-- Node17 -->
<g id="node18" class="node">
<title>Node17</title>
<g id="a_node18"><a xlink:href="../../d9/de8/CompilerBuiltins_8h.html" target="_top" xlink:title="Framework/CompilerBuiltins.h">
<polygon fill="none" stroke="#000000" points="974.3549,-185 974.3549,-204 1138.3549,-204 1138.3549,-185 974.3549,-185"/>
<text text-anchor="middle" x="1056.3549" y="-192" font-family="Helvetica,sans-Serif" font-size="10.00" fill="#000000">Framework/CompilerBuiltins.h</text>
</a>
</g>
</g>
<!-- Node0&#45;&gt;Node17 -->
<g id="edge22" class="edge">
<title>Node0&#45;&gt;Node17</title>
<path fill="none" stroke="#191970" d="M907.2551,-246.4187C944.849,-233.3279 988.7299,-218.048 1019.1087,-207.4697"/>
<polygon fill="#191970" stroke="#191970" points="1020.5721,-210.6663 1028.8649,-204.0724 1018.2701,-204.0556 1020.5721,-210.6663"/>
</g>
<!-- Node18 -->
<g id="node19" class="node">
<title>Node18</title>
<g id="a_node19"><a xlink:href="../../d1/d76/RuntimeError_8h.html" target="_top" xlink:title="Framework/RuntimeError.h">
<polygon fill="none" stroke="#000000" points="1156.3549,-185 1156.3549,-204 1302.3549,-204 1302.3549,-185 1156.3549,-185"/>
<text text-anchor="middle" x="1229.3549" y="-192" font-family="Helvetica,sans-Serif" font-size="10.00" fill="#000000">Framework/RuntimeError.h</text>
</a>
</g>
</g>
<!-- Node0&#45;&gt;Node18 -->
<g id="edge24" class="edge">
<title>Node0&#45;&gt;Node18</title>
<path fill="none" stroke="#191970" d="M912.6938,-256.7155C989.1993,-241.6842 1102.5237,-219.419 1170.8269,-205.9992"/>
<polygon fill="#191970" stroke="#191970" points="1171.8413,-209.3669 1180.9789,-204.0046 1170.4917,-202.4982 1171.8413,-209.3669"/>
</g>
<!-- Node19 -->
<g id="node20" class="node">
<title>Node19</title>
<polygon fill="none" stroke="#bfbfbf" points="1320.3549,-185 1320.3549,-204 1370.3549,-204 1370.3549,-185 1320.3549,-185"/>
<text text-anchor="middle" x="1345.3549" y="-192" font-family="Helvetica,sans-Serif" font-size="10.00" fill="#000000">atomic</text>
</g>
<!-- Node0&#45;&gt;Node19 -->
<g id="edge32" class="edge">
<title>Node0&#45;&gt;Node19</title>
<path fill="none" stroke="#191970" d="M912.6518,-269.3115C1009.0118,-263.8305 1174.691,-249.1121 1311.3549,-210 1313.3195,-209.4377 1315.3154,-208.7792 1317.3052,-208.0565"/>
<polygon fill="#191970" stroke="#191970" points="1319.1117,-211.0981 1327.0294,-204.0582 1316.4497,-204.624 1319.1117,-211.0981"/>
</g>
<!-- Node20 -->
<g id="node21" class="node">
<title>Node20</title>
<polygon fill="none" stroke="#bfbfbf" points="1388.3549,-185 1388.3549,-204 1436.3549,-204 1436.3549,-185 1388.3549,-185"/>
<text text-anchor="middle" x="1412.3549" y="-192" font-family="Helvetica,sans-Serif" font-size="10.00" fill="#000000">mutex</text>
</g>
<!-- Node0&#45;&gt;Node20 -->
<g id="edge33" class="edge">
<title>Node0&#45;&gt;Node20</title>
<path fill="none" stroke="#191970" d="M912.4528,-266.5606C1042.4848,-256.3796 1293.6076,-234.3268 1379.3549,-210 1381.2731,-209.4558 1383.2188,-208.8109 1385.1563,-208.0982"/>
<polygon fill="#191970" stroke="#191970" points="1386.7476,-211.226 1394.6093,-204.1235 1384.0344,-204.7732 1386.7476,-211.226"/>
</g>
<!-- Node1&#45;&gt;Node2 -->
<g id="edge2" class="edge">
<title>Node1&#45;&gt;Node2</title>
<path fill="none" stroke="#191970" d="M335.2299,-117.8906C327.4907,-108.7376 315.6562,-94.7409 306.2278,-83.59"/>
<polygon fill="#191970" stroke="#191970" points="308.7238,-81.1213 299.5945,-75.7449 303.3785,-85.6409 308.7238,-81.1213"/>
</g>
<!-- Node3&#45;&gt;Node1 -->
<g id="edge4" class="edge">
<title>Node3&#45;&gt;Node1</title>
<path fill="none" stroke="#191970" d="M274.817,-184.9005C287.6487,-174.1539 308.656,-156.5603 324.0362,-143.6794"/>
<polygon fill="#191970" stroke="#191970" points="326.4949,-146.1856 331.9141,-137.0817 322.0004,-140.8191 326.4949,-146.1856"/>
</g>
<!-- Node3&#45;&gt;Node2 -->
<g id="edge6" class="edge">
<title>Node3&#45;&gt;Node2</title>
<path fill="none" stroke="#191970" d="M260.236,-184.5488C255.8037,-168.7366 249.0867,-137.0969 257.3549,-112 260.8605,-101.3594 267.879,-91.164 274.6336,-83.0877"/>
<polygon fill="#191970" stroke="#191970" points="277.3563,-85.2937 281.4187,-75.5087 272.1409,-80.6247 277.3563,-85.2937"/>
</g>
<!-- Node3&#45;&gt;Node4 -->
<g id="edge5" class="edge">
<title>Node3&#45;&gt;Node4</title>
<path fill="none" stroke="#191970" d="M295.7618,-184.9183C329.1476,-174.9225 382.6172,-158.5663 428.3549,-143 430.737,-142.1893 433.1884,-141.3357 435.6533,-140.4631"/>
<polygon fill="#191970" stroke="#191970" points="436.8901,-143.7378 445.1103,-137.0535 434.5159,-137.1527 436.8901,-143.7378"/>
</g>
<!-- Node5 -->
<g id="node6" class="node">
<title>Node5</title>
<polygon fill="none" stroke="#bfbfbf" points="15.8549,-118 15.8549,-137 62.8549,-137 62.8549,-118 15.8549,-118"/>
<text text-anchor="middle" x="39.3549" y="-125" font-family="Helvetica,sans-Serif" font-size="10.00" fill="#000000">vector</text>
</g>
<!-- Node3&#45;&gt;Node5 -->
<g id="edge7" class="edge">
<title>Node3&#45;&gt;Node5</title>
<path fill="none" stroke="#191970" d="M218.3776,-184.9733C178.9834,-176.0332 120.5131,-161.3107 71.3549,-143 69.9449,-142.4748 68.5133,-141.9091 67.077,-141.3153"/>
<polygon fill="#191970" stroke="#191970" points="68.2662,-138.0131 57.7089,-137.1224 65.4065,-144.4023 68.2662,-138.0131"/>
</g>
<!-- Node6 -->
<g id="node7" class="node">
<title>Node6</title>
<polygon fill="none" stroke="#bfbfbf" points="80.8549,-112.5 80.8549,-142.5 209.8549,-142.5 209.8549,-112.5 80.8549,-112.5"/>
<text text-anchor="start" x="88.8549" y="-130.5" font-family="Helvetica,sans-Serif" font-size="10.00" fill="#000000">boost/program_options</text>
<text text-anchor="middle" x="145.3549" y="-119.5" font-family="Helvetica,sans-Serif" font-size="10.00" fill="#000000">/variables_map.hpp</text>
</g>
<!-- Node3&#45;&gt;Node6 -->
<g id="edge8" class="edge">
<title>Node3&#45;&gt;Node6</title>
<path fill="none" stroke="#191970" d="M246.4484,-184.9005C229.3856,-175.2123 202.5221,-159.9593 180.7747,-147.6113"/>
<polygon fill="#191970" stroke="#191970" points="182.2353,-144.4158 171.8112,-142.5218 178.779,-150.503 182.2353,-144.4158"/>
</g>
<!-- Node7&#45;&gt;Node1 -->
<g id="edge10" class="edge">
<title>Node7&#45;&gt;Node1</title>
<path fill="none" stroke="#191970" d="M617.4857,-180.1268C553.301,-167.8048 462.0717,-150.2909 402.7967,-138.9115"/>
<polygon fill="#191970" stroke="#191970" points="403.3221,-135.4485 392.8415,-137.0003 402.0023,-142.323 403.3221,-135.4485"/>
</g>
<!-- Node7&#45;&gt;Node2 -->
<g id="edge18" class="edge">
<title>Node7&#45;&gt;Node2</title>
<path fill="none" stroke="#191970" d="M638.3038,-179.4493C611.0151,-170.7338 577.9373,-158.4199 550.3549,-143 531.028,-132.1953 531.3987,-121.4084 511.3549,-112 449.0277,-82.744 368.1019,-71.9643 323.8267,-68.0899"/>
<polygon fill="#191970" stroke="#191970" points="323.9034,-64.5847 313.6534,-67.2659 323.3382,-71.5619 323.9034,-64.5847"/>
</g>
<!-- Node7&#45;&gt;Node4 -->
<g id="edge17" class="edge">
<title>Node7&#45;&gt;Node4</title>
<path fill="none" stroke="#191970" d="M639.3802,-179.3934C604.6039,-169.3575 558.17,-155.7321 517.3549,-143 514.5867,-142.1365 511.7315,-141.2312 508.8603,-140.3103"/>
<polygon fill="#191970" stroke="#191970" points="509.7324,-136.9137 499.1404,-137.1564 507.5719,-143.5719 509.7324,-136.9137"/>
</g>
<!-- Node7&#45;&gt;Node8 -->
<g id="edge11" class="edge">
<title>Node7&#45;&gt;Node8</title>
<path fill="none" stroke="#191970" d="M679.4207,-179.2967C670.7123,-169.0605 659.2069,-155.5366 650.1363,-144.8746"/>
<polygon fill="#191970" stroke="#191970" points="652.6294,-142.4036 643.4838,-137.055 647.2978,-146.9395 652.6294,-142.4036"/>
</g>
<!-- Node7&#45;&gt;Node12 -->
<g id="edge15" class="edge">
<title>Node7&#45;&gt;Node12</title>
<path fill="none" stroke="#191970" d="M708.0121,-179.2967C718.7626,-168.8578 733.0344,-154.9997 744.1105,-144.2446"/>
<polygon fill="#191970" stroke="#191970" points="746.7787,-146.5323 751.5147,-137.055 741.9022,-141.5103 746.7787,-146.5323"/>
</g>
<!-- Node7&#45;&gt;Node13 -->
<g id="edge16" class="edge">
<title>Node7&#45;&gt;Node13</title>
<path fill="none" stroke="#191970" d="M725.7299,-179.2854C747.6208,-169.2052 776.8141,-155.571 802.3549,-143 803.1834,-142.5923 804.0234,-142.176 804.8705,-141.7539"/>
<polygon fill="#191970" stroke="#191970" points="806.6709,-144.7653 814.0085,-137.1227 803.5064,-138.5214 806.6709,-144.7653"/>
</g>
<!-- Node7&#45;&gt;Node14 -->
<g id="edge19" class="edge">
<title>Node7&#45;&gt;Node14</title>
<path fill="none" stroke="#191970" d="M744.2483,-179.4316C778.0121,-169.4671 822.9364,-155.9067 862.3549,-143 864.9358,-142.155 867.5955,-141.2654 870.269,-140.3574"/>
<polygon fill="#191970" stroke="#191970" points="871.5841,-143.6062 879.8954,-137.0356 869.3007,-136.989 871.5841,-143.6062"/>
</g>
<!-- Node7&#45;&gt;Node15 -->
<g id="edge20" class="edge">
<title>Node7&#45;&gt;Node15</title>
<path fill="none" stroke="#191970" d="M767.0043,-183.6529C819.0533,-175.1101 889.7526,-161.5386 950.3549,-143 952.5194,-142.3379 954.7306,-141.5941 956.9418,-140.8"/>
<polygon fill="#191970" stroke="#191970" points="958.435,-143.9749 966.4912,-137.094 955.9023,-137.4491 958.435,-143.9749"/>
</g>
<!-- Node7&#45;&gt;Node16 -->
<g id="edge21" class="edge">
<title>Node7&#45;&gt;Node16</title>
<path fill="none" stroke="#191970" d="M767.1205,-189.0769C835.5184,-182.6828 938.9107,-169.388 1025.3549,-143 1027.2165,-142.4317 1029.107,-141.7764 1030.9926,-141.063"/>
<polygon fill="#191970" stroke="#191970" points="1032.3839,-144.2747 1040.2233,-137.1477 1029.6505,-137.8305 1032.3839,-144.2747"/>
</g>
<!-- Node9 -->
<g id="node10" class="node">
<title>Node9</title>
<polygon fill="none" stroke="#bfbfbf" points="533.8549,-56.5 533.8549,-75.5 606.8549,-75.5 606.8549,-56.5 533.8549,-56.5"/>
<text text-anchor="middle" x="570.3549" y="-63.5" font-family="Helvetica,sans-Serif" font-size="10.00" fill="#000000">string_view</text>
</g>
<!-- Node8&#45;&gt;Node9 -->
<g id="edge12" class="edge">
<title>Node8&#45;&gt;Node9</title>
<path fill="none" stroke="#191970" d="M625.1987,-117.8906C615.335,-108.5581 600.1494,-94.1902 588.2562,-82.9374"/>
<polygon fill="#191970" stroke="#191970" points="590.3238,-80.0753 580.6544,-75.7449 585.5128,-85.1601 590.3238,-80.0753"/>
</g>
<!-- Node10 -->
<g id="node11" class="node">
<title>Node10</title>
<g id="a_node11"><a xlink:href="../../db/dff/StringHelpers_8h.html" target="_top" xlink:title="Framework/StringHelpers.h">
<polygon fill="none" stroke="#000000" points="624.8549,-56.5 624.8549,-75.5 773.8549,-75.5 773.8549,-56.5 624.8549,-56.5"/>
<text text-anchor="middle" x="699.3549" y="-63.5" font-family="Helvetica,sans-Serif" font-size="10.00" fill="#000000">Framework/StringHelpers.h</text>
</a>
</g>
</g>
<!-- Node8&#45;&gt;Node10 -->
<g id="edge13" class="edge">
<title>Node8&#45;&gt;Node10</title>
<path fill="none" stroke="#191970" d="M645.3549,-117.8906C655.0668,-108.5581 670.0188,-94.1902 681.729,-82.9374"/>
<polygon fill="#191970" stroke="#191970" points="684.4285,-85.1974 689.2139,-75.7449 679.5783,-80.15 684.4285,-85.1974"/>
</g>
<!-- Node11 -->
<g id="node12" class="node">
<title>Node11</title>
<polygon fill="none" stroke="#bfbfbf" points="674.3549,-.5 674.3549,-19.5 724.3549,-19.5 724.3549,-.5 674.3549,-.5"/>
<text text-anchor="middle" x="699.3549" y="-7.5" font-family="Helvetica,sans-Serif" font-size="10.00" fill="#000000">cstdint</text>
</g>
<!-- Node10&#45;&gt;Node11 -->
<g id="edge14" class="edge">
<title>Node10&#45;&gt;Node11</title>
<path fill="none" stroke="#191970" d="M699.3549,-56.2455C699.3549,-48.9382 699.3549,-38.6944 699.3549,-29.7046"/>
<polygon fill="#191970" stroke="#191970" points="702.855,-29.6426 699.3549,-19.6427 695.855,-29.6427 702.855,-29.6426"/>
</g>
</g>
</svg>
        <g id="navigator" transform="translate(0 0)" fill="#404254">
                <rect fill="#f2f5e9" fill-opacity="0.5" stroke="#606060" stroke-width=".5" x="0" y="0" width="60" height="60"/>
                <use id="zoomplus" xlink:href="#zoomPlus" x="17" y="9" onmousedown="handleZoom(evt,'in')"/>
                <use id="zoomminus" xlink:href="#zoomMin" x="42" y="9" onmousedown="handleZoom(evt,'out')"/>
                <use id="reset" xlink:href="#resetDef" x="30" y="36" onmousedown="handleReset()"/>
                <g id="arrowUp" xlink:href="#dirArrow" transform="translate(30 24)" onmousedown="handlePan(0,-1)">
                  <use xlink:href="#rim" fill="#404040">
                        <set attributeName="fill" to="#808080" begin="arrowUp.mouseover" end="arrowUp.mouseout"/>
                  </use>
                  <path fill="none" stroke="white" stroke-width="1.5" d="M0,-3.0v7 M-2.5,-0.5L0,-3.0L2.5,-0.5"/>
                </g>
                <g id="arrowRight" xlink:href="#dirArrow" transform="rotate(90) translate(36 -43)" onmousedown="handlePan(1,0)">
                  <use xlink:href="#rim" fill="#404040">
                        <set attributeName="fill" to="#808080" begin="arrowRight.mouseover" end="arrowRight.mouseout"/>
                  </use>
                  <path fill="none" stroke="white" stroke-width="1.5" d="M0,-3.0v7 M-2.5,-0.5L0,-3.0L2.5,-0.5"/>
                </g>
                <g id="arrowDown" xlink:href="#dirArrow" transform="rotate(180) translate(-30 -48)" onmousedown="handlePan(0,1)">
                  <use xlink:href="#rim" fill="#404040">
                        <set attributeName="fill" to="#808080" begin="arrowDown.mouseover" end="arrowDown.mouseout"/>
                  </use>
                  <path fill="none" stroke="white" stroke-width="1.5" d="M0,-3.0v7 M-2.5,-0.5L0,-3.0L2.5,-0.5"/>
                </g>
                <g id="arrowLeft" xlink:href="#dirArrow" transform="rotate(270) translate(-36 17)" onmousedown="handlePan(-1,0)">
                  <use xlink:href="#rim" fill="#404040">
                        <set attributeName="fill" to="#808080" begin="arrowLeft.mouseover" end="arrowLeft.mouseout"/>
                  </use>
                  <path fill="none" stroke="white" stroke-width="1.5" d="M0,-3.0v7 M-2.5,-0.5L0,-3.0L2.5,-0.5"/>
                </g>
        </g>
        <svg viewBox="0 0 15 15" width="100%" height="30px" preserveAspectRatio="xMaxYMin meet">
         <g id="arrow_out" transform="scale(0.3 0.3)">
          <a xlink:href="ServiceRegistry_8h__incl_org.svg" target="_base">
           <rect id="button" ry="5" rx="5" y="6" x="6" height="38" width="38"
                fill="#f2f5e9" fill-opacity="0.5" stroke="#606060" stroke-width="1.0"/>
           <path id="arrow"
             d="M 11.500037,31.436501 C 11.940474,20.09759 22.043105,11.32322 32.158766,21.979434 L 37.068811,17.246167 C 37.068811,17.246167 37.088388,32 37.088388,32 L 22.160133,31.978069 C 22.160133,31.978069 26.997745,27.140456 26.997745,27.140456 C 18.528582,18.264221 13.291696,25.230495 11.500037,31.436501 z"
             style="fill:#404040;"/>
          </a>
         </g>
        </svg>
</svg>
