<?xml version="1.0" encoding="UTF-8" standalone="no"?>
<!DOCTYPE svg PUBLIC "-//W3C//DTD SVG 1.1//EN"
 "http://www.w3.org/Graphics/SVG/1.1/DTD/svg11.dtd">
<!-- Generated by graphviz version 2.40.1 (20161225.0304)
 -->
<!-- Title: /home/travis/build/AliceO2Group/AliceO2/Analysis/Core/include/Analysis/TriggerAliases.h Pages: 1 -->
<!--zoomable 328 -->
<svg id="main" version="1.1" xmlns="http://www.w3.org/2000/svg" xmlns:xlink="http://www.w3.org/1999/xlink" xml:space="preserve" onload="init(evt)">
<style type="text/css"><![CDATA[
.edge:hover path { stroke: red; }
.edge:hover polygon { stroke: red; fill: red; }
]]></style>
<script type="text/javascript"><![CDATA[
var edges = document.getElementsByTagName('g');
if (edges && edges.length) {
  for (var i=0;i<edges.length;i++) {
    if (edges[i].id.substr(0,4)=='edge') {
      edges[i].setAttribute('class','edge');
    }
  }
}
]]></script>
        <defs>
                <circle id="rim" cx="0" cy="0" r="7"/>
                <circle id="rim2" cx="0" cy="0" r="3.5"/>
                <g id="zoomPlus">
                        <use xlink:href="#rim" fill="#404040">
                                <set attributeName="fill" to="#808080" begin="zoomplus.mouseover" end="zoomplus.mouseout"/>
                        </use>
                        <path d="M-4,0h8M0,-4v8" fill="none" stroke="white" stroke-width="1.5" pointer-events="none"/>
                </g>
                <g id="zoomMin">
                        <use xlink:href="#rim" fill="#404040">
                                <set attributeName="fill" to="#808080" begin="zoomminus.mouseover" end="zoomminus.mouseout"/>
                        </use>
                        <path d="M-4,0h8" fill="none" stroke="white" stroke-width="1.5" pointer-events="none"/>
                </g>
                <g id="dirArrow">
                        <path fill="none" stroke="white" stroke-width="1.5" d="M0,-3.0v7 M-2.5,-0.5L0,-3.0L2.5,-0.5"/>
                </g>
               <g id="resetDef">
                       <use xlink:href="#rim2" fill="#404040">
                               <set attributeName="fill" to="#808080" begin="reset.mouseover" end="reset.mouseout"/>
                       </use>
               </g>
        </defs>

<script type="text/javascript">
var viewWidth = 3381;
var viewHeight = 328;
var sectionId = 'dynsection-1';
</script>
<script xlink:href="../../svgpan.js"/>
<svg id="graph" class="graph">
<g id="viewport">
<title>/home/travis/build/AliceO2Group/AliceO2/Analysis/Core/include/Analysis/TriggerAliases.h</title>
<!-- Node5 -->
<g id="node1" class="node">
<title>Node5</title>
<polygon fill="#bfbfbf" stroke="#000000" points="1558.3164,-267.5 1558.3164,-319.5 1699.3164,-319.5 1699.3164,-267.5 1558.3164,-267.5"/>
<text text-anchor="start" x="1566.3164" y="-307.5" font-family="Helvetica,sans-Serif" font-size="10.00" fill="#000000">/home/travis/build</text>
<text text-anchor="start" x="1566.3164" y="-296.5" font-family="Helvetica,sans-Serif" font-size="10.00" fill="#000000">/AliceO2Group/AliceO2</text>
<text text-anchor="start" x="1566.3164" y="-285.5" font-family="Helvetica,sans-Serif" font-size="10.00" fill="#000000">/Analysis/Core/include</text>
<text text-anchor="middle" x="1628.8164" y="-274.5" font-family="Helvetica,sans-Serif" font-size="10.00" fill="#000000">/Analysis/TriggerAliases.h</text>
</g>
<!-- Node6 -->
<g id="node2" class="node">
<title>Node6</title>
<g id="a_node2"><a xlink:href="../../d4/d30/VarManager_8h.html" target="_top" xlink:title="/home/travis/build\l/AliceO2Group/AliceO2\l/Analysis/Core/include\l/Analysis/VarManager.h">
<polygon fill="none" stroke="#000000" points="3148.8164,-89.5 3148.8164,-141.5 3278.8164,-141.5 3278.8164,-89.5 3148.8164,-89.5"/>
<text text-anchor="start" x="3156.8164" y="-129.5" font-family="Helvetica,sans-Serif" font-size="10.00" fill="#000000">/home/travis/build</text>
<text text-anchor="start" x="3156.8164" y="-118.5" font-family="Helvetica,sans-Serif" font-size="10.00" fill="#000000">/AliceO2Group/AliceO2</text>
<text text-anchor="start" x="3156.8164" y="-107.5" font-family="Helvetica,sans-Serif" font-size="10.00" fill="#000000">/Analysis/Core/include</text>
<text text-anchor="middle" x="3213.8164" y="-96.5" font-family="Helvetica,sans-Serif" font-size="10.00" fill="#000000">/Analysis/VarManager.h</text>
</a>
</g>
</g>
<!-- Node5&#45;&gt;Node6 -->
<g id="edge1" class="edge">
<title>Node5&#45;&gt;Node6</title>
<path fill="none" stroke="#191970" d="M1709.64,-292.2952C1937.4619,-287.4297 2603.1702,-263.0785 3139.8164,-142 3142.745,-141.3393 3145.7167,-140.5964 3148.7025,-139.7903"/>
<polygon fill="#191970" stroke="#191970" points="1709.3734,-288.7999 1699.4479,-292.5061 1709.5182,-295.7984 1709.3734,-288.7999"/>
</g>
<!-- Node10 -->
<g id="node6" class="node">
<title>Node10</title>
<g id="a_node6"><a xlink:href="../../d9/d14/tableMaker_8cxx.html" target="_top" xlink:title="/home/travis/build\l/AliceO2Group/AliceO2\l/Analysis/Tasks/PWGDQ\l/tableMaker.cxx">
<polygon fill="none" stroke="#000000" points="1185.8164,-.5 1185.8164,-52.5 1317.8164,-52.5 1317.8164,-.5 1185.8164,-.5"/>
<text text-anchor="start" x="1193.8164" y="-40.5" font-family="Helvetica,sans-Serif" font-size="10.00" fill="#000000">/home/travis/build</text>
<text text-anchor="start" x="1193.8164" y="-29.5" font-family="Helvetica,sans-Serif" font-size="10.00" fill="#000000">/AliceO2Group/AliceO2</text>
<text text-anchor="start" x="1193.8164" y="-18.5" font-family="Helvetica,sans-Serif" font-size="10.00" fill="#000000">/Analysis/Tasks/PWGDQ</text>
<text text-anchor="middle" x="1251.8164" y="-7.5" font-family="Helvetica,sans-Serif" font-size="10.00" fill="#000000">/tableMaker.cxx</text>
</a>
</g>
</g>
<!-- Node5&#45;&gt;Node10 -->
<g id="edge37" class="edge">
<title>Node5&#45;&gt;Node10</title>
<path fill="none" stroke="#191970" d="M1547.7778,-292.4198C1233.9619,-287.3803 111.1501,-261.0884 11.8164,-142 -3.2718,-123.9111 -4.4152,-106.0704 11.8164,-89 52.5466,-46.1652 934.0463,-30.8476 1185.4386,-27.3415"/>
<polygon fill="#191970" stroke="#191970" points="1548.101,-295.9252 1558.155,-292.5834 1548.2114,-288.9261 1548.101,-295.9252"/>
</g>
<!-- Node11 -->
<g id="node7" class="node">
<title>Node11</title>
<g id="a_node7"><a xlink:href="../../d8/d04/tableMaker__pp_8cxx.html" target="_top" xlink:title="/home/travis/build\l/AliceO2Group/AliceO2\l/Analysis/Tasks/PWGDQ\l/tableMaker_pp.cxx">
<polygon fill="none" stroke="#000000" points="3240.8164,-.5 3240.8164,-52.5 3372.8164,-52.5 3372.8164,-.5 3240.8164,-.5"/>
<text text-anchor="start" x="3248.8164" y="-40.5" font-family="Helvetica,sans-Serif" font-size="10.00" fill="#000000">/home/travis/build</text>
<text text-anchor="start" x="3248.8164" y="-29.5" font-family="Helvetica,sans-Serif" font-size="10.00" fill="#000000">/AliceO2Group/AliceO2</text>
<text text-anchor="start" x="3248.8164" y="-18.5" font-family="Helvetica,sans-Serif" font-size="10.00" fill="#000000">/Analysis/Tasks/PWGDQ</text>
<text text-anchor="middle" x="3306.8164" y="-7.5" font-family="Helvetica,sans-Serif" font-size="10.00" fill="#000000">/tableMaker_pp.cxx</text>
</a>
</g>
</g>
<!-- Node5&#45;&gt;Node11 -->
<g id="edge38" class="edge">
<title>Node5&#45;&gt;Node11</title>
<path fill="none" stroke="#191970" d="M1709.5289,-292.2698C1898.2216,-288.7108 2382.7033,-275.6161 2784.8164,-231 3021.342,-204.7565 3159.1613,-323.7229 3312.8164,-142 3333.5597,-117.4676 3326.0301,-78.4835 3317.4659,-52.6953"/>
<polygon fill="#191970" stroke="#191970" points="1709.3501,-288.7724 1699.4165,-292.4567 1709.4795,-295.7712 1709.3501,-288.7724"/>
</g>
<!-- Node13 -->
<g id="node9" class="node">
<title>Node13</title>
<g id="a_node9"><a xlink:href="../../dd/df9/TriggerAliases_8cxx.html" target="_top" xlink:title="/home/travis/build\l/AliceO2Group/AliceO2\l/Analysis/Core/src/TriggerAliases.cxx">
<polygon fill="none" stroke="#000000" points="1628.3164,-184 1628.3164,-225 1823.3164,-225 1823.3164,-184 1628.3164,-184"/>
<text text-anchor="start" x="1636.3164" y="-213" font-family="Helvetica,sans-Serif" font-size="10.00" fill="#000000">/home/travis/build</text>
<text text-anchor="start" x="1636.3164" y="-202" font-family="Helvetica,sans-Serif" font-size="10.00" fill="#000000">/AliceO2Group/AliceO2</text>
<text text-anchor="middle" x="1725.8164" y="-191" font-family="Helvetica,sans-Serif" font-size="10.00" fill="#000000">/Analysis/Core/src/TriggerAliases.cxx</text>
</a>
</g>
</g>
<!-- Node5&#45;&gt;Node13 -->
<g id="edge8" class="edge">
<title>Node5&#45;&gt;Node13</title>
<path fill="none" stroke="#191970" d="M1664.808,-260.4768C1677.6978,-248.6501 1691.8529,-235.6625 1703.2807,-225.1771"/>
<polygon fill="#191970" stroke="#191970" points="1662.3972,-257.9388 1657.395,-267.2784 1667.1297,-263.0967 1662.3972,-257.9388"/>
</g>
<!-- Node14 -->
<g id="node10" class="node">
<title>Node14</title>
<g id="a_node10"><a xlink:href="../../d2/d47/EventSelection_8h.html" target="_top" xlink:title="/home/travis/build\l/AliceO2Group/AliceO2\l/Analysis/DataModel/include\l/Analysis/EventSelection.h">
<polygon fill="none" stroke="#000000" points="1455.3164,-178.5 1455.3164,-230.5 1610.3164,-230.5 1610.3164,-178.5 1455.3164,-178.5"/>
<text text-anchor="start" x="1463.3164" y="-218.5" font-family="Helvetica,sans-Serif" font-size="10.00" fill="#000000">/home/travis/build</text>
<text text-anchor="start" x="1463.3164" y="-207.5" font-family="Helvetica,sans-Serif" font-size="10.00" fill="#000000">/AliceO2Group/AliceO2</text>
<text text-anchor="start" x="1463.3164" y="-196.5" font-family="Helvetica,sans-Serif" font-size="10.00" fill="#000000">/Analysis/DataModel/include</text>
<text text-anchor="middle" x="1532.8164" y="-185.5" font-family="Helvetica,sans-Serif" font-size="10.00" fill="#000000">/Analysis/EventSelection.h</text>
</a>
</g>
</g>
<!-- Node5&#45;&gt;Node14 -->
<g id="edge9" class="edge">
<title>Node5&#45;&gt;Node14</title>
<path fill="none" stroke="#191970" d="M1592.9938,-260.2894C1582.3902,-250.459 1570.9376,-239.8415 1560.8982,-230.5341"/>
<polygon fill="#191970" stroke="#191970" points="1590.8196,-263.0464 1600.5325,-267.2784 1595.5786,-257.9131 1590.8196,-263.0464"/>
</g>
<!-- Node17 -->
<g id="node13" class="node">
<title>Node17</title>
<g id="a_node13"><a xlink:href="../../d9/df1/eventSelection_8cxx.html" target="_top" xlink:title="/home/travis/build\l/AliceO2Group/AliceO2\l/Analysis/Tasks/eventSelection.cxx">
<polygon fill="none" stroke="#000000" points="21.3164,-95 21.3164,-136 208.3164,-136 208.3164,-95 21.3164,-95"/>
<text text-anchor="start" x="29.3164" y="-124" font-family="Helvetica,sans-Serif" font-size="10.00" fill="#000000">/home/travis/build</text>
<text text-anchor="start" x="29.3164" y="-113" font-family="Helvetica,sans-Serif" font-size="10.00" fill="#000000">/AliceO2Group/AliceO2</text>
<text text-anchor="middle" x="114.8164" y="-102" font-family="Helvetica,sans-Serif" font-size="10.00" fill="#000000">/Analysis/Tasks/eventSelection.cxx</text>
</a>
</g>
</g>
<!-- Node5&#45;&gt;Node17 -->
<g id="edge36" class="edge">
<title>Node5&#45;&gt;Node17</title>
<path fill="none" stroke="#191970" d="M1547.7302,-287.5707C1333.1662,-271.2534 733.1195,-221.5439 238.8164,-142 228.058,-140.2687 216.8239,-138.2162 205.7004,-136.0314"/>
<polygon fill="#191970" stroke="#191970" points="1547.7239,-291.0802 1557.9597,-288.3455 1548.2526,-284.1002 1547.7239,-291.0802"/>
</g>
<!-- Node7 -->
<g id="node3" class="node">
<title>Node7</title>
<g id="a_node3"><a xlink:href="../../d6/dd7/VarManager_8cxx.html" target="_top" xlink:title="/home/travis/build\l/AliceO2Group/AliceO2\l/Analysis/Core/src/VarManager.cxx">
<polygon fill="none" stroke="#000000" points="3038.8164,-6 3038.8164,-47 3222.8164,-47 3222.8164,-6 3038.8164,-6"/>
<text text-anchor="start" x="3046.8164" y="-35" font-family="Helvetica,sans-Serif" font-size="10.00" fill="#000000">/home/travis/build</text>
<text text-anchor="start" x="3046.8164" y="-24" font-family="Helvetica,sans-Serif" font-size="10.00" fill="#000000">/AliceO2Group/AliceO2</text>
<text text-anchor="middle" x="3130.8164" y="-13" font-family="Helvetica,sans-Serif" font-size="10.00" fill="#000000">/Analysis/Core/src/VarManager.cxx</text>
</a>
</g>
</g>
<!-- Node6&#45;&gt;Node7 -->
<g id="edge2" class="edge">
<title>Node6&#45;&gt;Node7</title>
<path fill="none" stroke="#191970" d="M3182.4,-81.8125C3171.5381,-70.1654 3159.6953,-57.4665 3150.0996,-47.1771"/>
<polygon fill="#191970" stroke="#191970" points="3179.9827,-84.3522 3189.3626,-89.2784 3185.102,-79.578 3179.9827,-84.3522"/>
</g>
<!-- Node8 -->
<g id="node4" class="node">
<title>Node8</title>
<g id="a_node4"><a xlink:href="../../d4/d14/dileptonEE_8cxx.html" target="_top" xlink:title="/home/travis/build\l/AliceO2Group/AliceO2\l/Analysis/Tasks/PWGDQ\l/dileptonEE.cxx">
<polygon fill="none" stroke="#000000" points="2500.8164,-.5 2500.8164,-52.5 2632.8164,-52.5 2632.8164,-.5 2500.8164,-.5"/>
<text text-anchor="start" x="2508.8164" y="-40.5" font-family="Helvetica,sans-Serif" font-size="10.00" fill="#000000">/home/travis/build</text>
<text text-anchor="start" x="2508.8164" y="-29.5" font-family="Helvetica,sans-Serif" font-size="10.00" fill="#000000">/AliceO2Group/AliceO2</text>
<text text-anchor="start" x="2508.8164" y="-18.5" font-family="Helvetica,sans-Serif" font-size="10.00" fill="#000000">/Analysis/Tasks/PWGDQ</text>
<text text-anchor="middle" x="2566.8164" y="-7.5" font-family="Helvetica,sans-Serif" font-size="10.00" fill="#000000">/dileptonEE.cxx</text>
</a>
</g>
</g>
<!-- Node6&#45;&gt;Node8 -->
<g id="edge3" class="edge">
<title>Node6&#45;&gt;Node8</title>
<path fill="none" stroke="#191970" d="M3138.7637,-88.979C2990.3171,-55.8205 2948.1907,-69.1699 2800.8164,-53 2744.1225,-46.7795 2679.7322,-39.4695 2632.868,-34.1045"/>
<polygon fill="#191970" stroke="#191970" points="3138.1712,-92.4335 3148.6976,-91.2312 3139.719,-85.6067 3138.1712,-92.4335"/>
</g>
<!-- Node9 -->
<g id="node5" class="node">
<title>Node9</title>
<g id="a_node5"><a xlink:href="../../d7/deb/dileptonMuMu_8cxx.html" target="_top" xlink:title="/home/travis/build\l/AliceO2Group/AliceO2\l/Analysis/Tasks/PWGDQ\l/dileptonMuMu.cxx">
<polygon fill="none" stroke="#000000" points="2809.8164,-.5 2809.8164,-52.5 2941.8164,-52.5 2941.8164,-.5 2809.8164,-.5"/>
<text text-anchor="start" x="2817.8164" y="-40.5" font-family="Helvetica,sans-Serif" font-size="10.00" fill="#000000">/home/travis/build</text>
<text text-anchor="start" x="2817.8164" y="-29.5" font-family="Helvetica,sans-Serif" font-size="10.00" fill="#000000">/AliceO2Group/AliceO2</text>
<text text-anchor="start" x="2817.8164" y="-18.5" font-family="Helvetica,sans-Serif" font-size="10.00" fill="#000000">/Analysis/Tasks/PWGDQ</text>
<text text-anchor="middle" x="2875.8164" y="-7.5" font-family="Helvetica,sans-Serif" font-size="10.00" fill="#000000">/dileptonMuMu.cxx</text>
</a>
</g>
</g>
<!-- Node6&#45;&gt;Node9 -->
<g id="edge4" class="edge">
<title>Node6&#45;&gt;Node9</title>
<path fill="none" stroke="#191970" d="M3138.8515,-88.8261C3066.5925,-67.7428 2993.4061,-51.0216 2941.9912,-40.0242"/>
<polygon fill="#191970" stroke="#191970" points="3137.9952,-92.2224 3148.5767,-91.6921 3139.974,-85.5079 3137.9952,-92.2224"/>
</g>
<!-- Node6&#45;&gt;Node10 -->
<g id="edge5" class="edge">
<title>Node6&#45;&gt;Node10</title>
<path fill="none" stroke="#191970" d="M3138.6389,-89.4585C2977.882,-69.8207 1633.4069,-35.8819 1317.8848,-28.112"/>
<polygon fill="#191970" stroke="#191970" points="3138.3475,-92.9536 3148.7537,-90.9635 3139.3778,-86.0298 3138.3475,-92.9536"/>
</g>
<!-- Node6&#45;&gt;Node11 -->
<g id="edge6" class="edge">
<title>Node6&#45;&gt;Node11</title>
<path fill="none" stroke="#191970" d="M3248.5196,-82.2894C3258.7919,-72.459 3269.8865,-61.8415 3279.6122,-52.5341"/>
<polygon fill="#191970" stroke="#191970" points="3246.0213,-79.8357 3241.2165,-89.2784 3250.8612,-84.8931 3246.0213,-79.8357"/>
</g>
<!-- Node12 -->
<g id="node8" class="node">
<title>Node12</title>
<g id="a_node8"><a xlink:href="../../d8/d43/tableReader_8cxx.html" target="_top" xlink:title="/home/travis/build\l/AliceO2Group/AliceO2\l/Analysis/Tasks/PWGDQ\l/tableReader.cxx">
<polygon fill="none" stroke="#000000" points="2310.8164,-.5 2310.8164,-52.5 2442.8164,-52.5 2442.8164,-.5 2310.8164,-.5"/>
<text text-anchor="start" x="2318.8164" y="-40.5" font-family="Helvetica,sans-Serif" font-size="10.00" fill="#000000">/home/travis/build</text>
<text text-anchor="start" x="2318.8164" y="-29.5" font-family="Helvetica,sans-Serif" font-size="10.00" fill="#000000">/AliceO2Group/AliceO2</text>
<text text-anchor="start" x="2318.8164" y="-18.5" font-family="Helvetica,sans-Serif" font-size="10.00" fill="#000000">/Analysis/Tasks/PWGDQ</text>
<text text-anchor="middle" x="2376.8164" y="-7.5" font-family="Helvetica,sans-Serif" font-size="10.00" fill="#000000">/tableReader.cxx</text>
</a>
</g>
</g>
<!-- Node6&#45;&gt;Node12 -->
<g id="edge7" class="edge">
<title>Node6&#45;&gt;Node12</title>
<path fill="none" stroke="#191970" d="M3138.5714,-89.0122C2855.2078,-33.2161 2774.0517,-93.0581 2491.8164,-53 2475.8925,-50.7399 2458.9212,-47.3741 2443.0421,-43.7933"/>
<polygon fill="#191970" stroke="#191970" points="3138.2451,-92.5162 3148.7375,-91.0462 3139.6185,-85.6523 3138.2451,-92.5162"/>
</g>
<!-- Node14&#45;&gt;Node10 -->
<g id="edge26" class="edge">
<title>Node14&#45;&gt;Node10</title>
<path fill="none" stroke="#191970" d="M1444.651,-200.991C1157.2189,-189.4505 265.0957,-152.7943 254.8164,-142 238.572,-124.9418 238.6896,-106.1694 254.8164,-89 286.7265,-55.0269 968.2591,-34.0344 1185.7441,-28.1816"/>
<polygon fill="#191970" stroke="#191970" points="1444.895,-204.5036 1455.0273,-201.4073 1445.1756,-197.5092 1444.895,-204.5036"/>
</g>
<!-- Node14&#45;&gt;Node11 -->
<g id="edge27" class="edge">
<title>Node14&#45;&gt;Node11</title>
<path fill="none" stroke="#191970" d="M1620.7203,-178.5899C1786.9152,-165.2945 3219.5855,-201.2024 3287.8164,-142 3312.8355,-120.2915 3313.6972,-79.4025 3311.0214,-52.559"/>
<polygon fill="#191970" stroke="#191970" points="1619.9128,-175.1576 1610.3563,-179.7317 1620.6795,-182.1155 1619.9128,-175.1576"/>
</g>
<!-- Node15 -->
<g id="node11" class="node">
<title>Node15</title>
<g id="a_node11"><a xlink:href="../../d4/dbd/ReducedInfoTables_8h.html" target="_top" xlink:title="/home/travis/build\l/AliceO2Group/AliceO2\l/Analysis/DataModel/include\l/Analysis/ReducedInfoTables.h">
<polygon fill="none" stroke="#000000" points="2254.8164,-89.5 2254.8164,-141.5 2418.8164,-141.5 2418.8164,-89.5 2254.8164,-89.5"/>
<text text-anchor="start" x="2262.8164" y="-129.5" font-family="Helvetica,sans-Serif" font-size="10.00" fill="#000000">/home/travis/build</text>
<text text-anchor="start" x="2262.8164" y="-118.5" font-family="Helvetica,sans-Serif" font-size="10.00" fill="#000000">/AliceO2Group/AliceO2</text>
<text text-anchor="start" x="2262.8164" y="-107.5" font-family="Helvetica,sans-Serif" font-size="10.00" fill="#000000">/Analysis/DataModel/include</text>
<text text-anchor="middle" x="2336.8164" y="-96.5" font-family="Helvetica,sans-Serif" font-size="10.00" fill="#000000">/Analysis/ReducedInfoTables.h</text>
</a>
</g>
</g>
<!-- Node14&#45;&gt;Node15 -->
<g id="edge10" class="edge">
<title>Node14&#45;&gt;Node15</title>
<path fill="none" stroke="#191970" d="M1620.2727,-178.1327C1895.998,-130.4483 1974.3896,-188.7064 2245.8164,-142 2248.7354,-141.4977 2251.6938,-140.935 2254.6716,-140.323"/>
<polygon fill="#191970" stroke="#191970" points="1619.6222,-174.6934 1610.3804,-179.8741 1620.8358,-181.5874 1619.6222,-174.6934"/>
</g>
<!-- Node16 -->
<g id="node12" class="node">
<title>Node16</title>
<g id="a_node12"><a xlink:href="../../d5/d75/centralityQa_8cxx.html" target="_top" xlink:title="/home/travis/build\l/AliceO2Group/AliceO2\l/Analysis/Tasks/centralityQa.cxx">
<polygon fill="none" stroke="#000000" points="2436.8164,-95 2436.8164,-136 2610.8164,-136 2610.8164,-95 2436.8164,-95"/>
<text text-anchor="start" x="2444.8164" y="-124" font-family="Helvetica,sans-Serif" font-size="10.00" fill="#000000">/home/travis/build</text>
<text text-anchor="start" x="2444.8164" y="-113" font-family="Helvetica,sans-Serif" font-size="10.00" fill="#000000">/AliceO2Group/AliceO2</text>
<text text-anchor="middle" x="2523.8164" y="-102" font-family="Helvetica,sans-Serif" font-size="10.00" fill="#000000">/Analysis/Tasks/centralityQa.cxx</text>
</a>
</g>
</g>
<!-- Node14&#45;&gt;Node16 -->
<g id="edge16" class="edge">
<title>Node14&#45;&gt;Node16</title>
<path fill="none" stroke="#191970" d="M1620.4266,-178.1154C1975.9489,-118.6417 2076.0602,-197.6587 2427.8164,-142 2437.2945,-140.5003 2447.175,-138.4053 2456.838,-136.0437"/>
<polygon fill="#191970" stroke="#191970" points="1619.6443,-174.6981 1610.3714,-179.8228 1620.8163,-181.5993 1619.6443,-174.6981"/>
</g>
<!-- Node14&#45;&gt;Node17 -->
<g id="edge17" class="edge">
<title>Node14&#45;&gt;Node17</title>
<path fill="none" stroke="#191970" d="M1444.9596,-201.3075C1170.7679,-191.2053 341.9521,-159.5683 221.8164,-142 211.4015,-140.477 200.5229,-138.3852 189.8605,-136.0393"/>
<polygon fill="#191970" stroke="#191970" points="1445.137,-204.8163 1455.259,-201.6865 1445.3945,-197.8211 1445.137,-204.8163"/>
</g>
<!-- Node18 -->
<g id="node14" class="node">
<title>Node18</title>
<g id="a_node14"><a xlink:href="../../dd/d91/eventSelectionQa_8cxx.html" target="_top" xlink:title="/home/travis/build\l/AliceO2Group/AliceO2\l/Analysis/Tasks/eventSelection\lQa.cxx">
<polygon fill="none" stroke="#000000" points="2629.3164,-89.5 2629.3164,-141.5 2796.3164,-141.5 2796.3164,-89.5 2629.3164,-89.5"/>
<text text-anchor="start" x="2637.3164" y="-129.5" font-family="Helvetica,sans-Serif" font-size="10.00" fill="#000000">/home/travis/build</text>
<text text-anchor="start" x="2637.3164" y="-118.5" font-family="Helvetica,sans-Serif" font-size="10.00" fill="#000000">/AliceO2Group/AliceO2</text>
<text text-anchor="start" x="2637.3164" y="-107.5" font-family="Helvetica,sans-Serif" font-size="10.00" fill="#000000">/Analysis/Tasks/eventSelection</text>
<text text-anchor="middle" x="2712.8164" y="-96.5" font-family="Helvetica,sans-Serif" font-size="10.00" fill="#000000">Qa.cxx</text>
</a>
</g>
</g>
<!-- Node14&#45;&gt;Node18 -->
<g id="edge18" class="edge">
<title>Node14&#45;&gt;Node18</title>
<path fill="none" stroke="#191970" d="M1620.4837,-178.1127C2060.3143,-106.1962 2183.8637,-210.9173 2619.8164,-142 2622.8842,-141.515 2625.9943,-140.9618 2629.1245,-140.3526"/>
<polygon fill="#191970" stroke="#191970" points="1619.6591,-174.7015 1610.3657,-179.7889 1620.8033,-181.6073 1619.6591,-174.7015"/>
</g>
<!-- Node19 -->
<g id="node15" class="node">
<title>Node19</title>
<g id="a_node15"><a xlink:href="../../d3/d6a/multiplicityQa_8cxx.html" target="_top" xlink:title="/home/travis/build\l/AliceO2Group/AliceO2\l/Analysis/Tasks/multiplicity\lQa.cxx">
<polygon fill="none" stroke="#000000" points="2814.3164,-89.5 2814.3164,-141.5 2963.3164,-141.5 2963.3164,-89.5 2814.3164,-89.5"/>
<text text-anchor="start" x="2822.3164" y="-129.5" font-family="Helvetica,sans-Serif" font-size="10.00" fill="#000000">/home/travis/build</text>
<text text-anchor="start" x="2822.3164" y="-118.5" font-family="Helvetica,sans-Serif" font-size="10.00" fill="#000000">/AliceO2Group/AliceO2</text>
<text text-anchor="start" x="2822.3164" y="-107.5" font-family="Helvetica,sans-Serif" font-size="10.00" fill="#000000">/Analysis/Tasks/multiplicity</text>
<text text-anchor="middle" x="2888.8164" y="-96.5" font-family="Helvetica,sans-Serif" font-size="10.00" fill="#000000">Qa.cxx</text>
</a>
</g>
</g>
<!-- Node14&#45;&gt;Node19 -->
<g id="edge19" class="edge">
<title>Node14&#45;&gt;Node19</title>
<path fill="none" stroke="#191970" d="M1620.405,-178.1304C2142.0463,-94.1687 2289.3367,-230.4956 2805.8164,-142 2808.5001,-141.5402 2811.2167,-141.014 2813.9483,-140.4331"/>
<polygon fill="#191970" stroke="#191970" points="1619.669,-174.704 1610.362,-179.7665 1620.7946,-181.613 1619.669,-174.704"/>
</g>
<!-- Node20 -->
<g id="node16" class="node">
<title>Node20</title>
<g id="a_node16"><a xlink:href="../../d4/d23/multiplicityTable_8cxx.html" target="_top" xlink:title="/home/travis/build\l/AliceO2Group/AliceO2\l/Analysis/Tasks/multiplicity\lTable.cxx">
<polygon fill="none" stroke="#000000" points="2981.3164,-89.5 2981.3164,-141.5 3130.3164,-141.5 3130.3164,-89.5 2981.3164,-89.5"/>
<text text-anchor="start" x="2989.3164" y="-129.5" font-family="Helvetica,sans-Serif" font-size="10.00" fill="#000000">/home/travis/build</text>
<text text-anchor="start" x="2989.3164" y="-118.5" font-family="Helvetica,sans-Serif" font-size="10.00" fill="#000000">/AliceO2Group/AliceO2</text>
<text text-anchor="start" x="2989.3164" y="-107.5" font-family="Helvetica,sans-Serif" font-size="10.00" fill="#000000">/Analysis/Tasks/multiplicity</text>
<text text-anchor="middle" x="3055.8164" y="-96.5" font-family="Helvetica,sans-Serif" font-size="10.00" fill="#000000">Table.cxx</text>
</a>
</g>
</g>
<!-- Node14&#45;&gt;Node20 -->
<g id="edge20" class="edge">
<title>Node14&#45;&gt;Node20</title>
<path fill="none" stroke="#191970" d="M1620.4798,-178.1208C2215.4494,-83.2883 2383.052,-241.9165 2972.8164,-142 2975.5009,-141.5452 2978.2182,-141.0233 2980.9505,-140.4461"/>
<polygon fill="#191970" stroke="#191970" points="1619.6753,-174.7052 1610.3595,-179.7517 1620.789,-181.6161 1619.6753,-174.7052"/>
</g>
<!-- Node21 -->
<g id="node17" class="node">
<title>Node21</title>
<g id="a_node17"><a xlink:href="../../d9/d61/correlations_8cxx.html" target="_top" xlink:title="/home/travis/build\l/AliceO2Group/AliceO2\l/Analysis/Tasks/PWGCF\l/correlations.cxx">
<polygon fill="none" stroke="#000000" points="264.3164,-89.5 264.3164,-141.5 393.3164,-141.5 393.3164,-89.5 264.3164,-89.5"/>
<text text-anchor="start" x="272.3164" y="-129.5" font-family="Helvetica,sans-Serif" font-size="10.00" fill="#000000">/home/travis/build</text>
<text text-anchor="start" x="272.3164" y="-118.5" font-family="Helvetica,sans-Serif" font-size="10.00" fill="#000000">/AliceO2Group/AliceO2</text>
<text text-anchor="start" x="272.3164" y="-107.5" font-family="Helvetica,sans-Serif" font-size="10.00" fill="#000000">/Analysis/Tasks/PWGCF</text>
<text text-anchor="middle" x="328.8164" y="-96.5" font-family="Helvetica,sans-Serif" font-size="10.00" fill="#000000">/correlations.cxx</text>
</a>
</g>
</g>
<!-- Node14&#45;&gt;Node21 -->
<g id="edge21" class="edge">
<title>Node14&#45;&gt;Node21</title>
<path fill="none" stroke="#191970" d="M1445.2703,-201.1127C1197.6752,-191.3283 503.7856,-162.4219 402.8164,-142 399.7401,-141.3778 396.6192,-140.6535 393.4867,-139.8504"/>
<polygon fill="#191970" stroke="#191970" points="1445.1761,-204.6116 1455.3063,-201.5085 1445.452,-197.6171 1445.1761,-204.6116"/>
</g>
<!-- Node22 -->
<g id="node18" class="node">
<title>Node22</title>
<g id="a_node18"><a xlink:href="../../d8/dc5/correlationsFiltered_8cxx.html" target="_top" xlink:title="/home/travis/build\l/AliceO2Group/AliceO2\l/Analysis/Tasks/PWGCF\l/correlationsFiltered.cxx">
<polygon fill="none" stroke="#000000" points="411.8164,-89.5 411.8164,-141.5 545.8164,-141.5 545.8164,-89.5 411.8164,-89.5"/>
<text text-anchor="start" x="419.8164" y="-129.5" font-family="Helvetica,sans-Serif" font-size="10.00" fill="#000000">/home/travis/build</text>
<text text-anchor="start" x="419.8164" y="-118.5" font-family="Helvetica,sans-Serif" font-size="10.00" fill="#000000">/AliceO2Group/AliceO2</text>
<text text-anchor="start" x="419.8164" y="-107.5" font-family="Helvetica,sans-Serif" font-size="10.00" fill="#000000">/Analysis/Tasks/PWGCF</text>
<text text-anchor="middle" x="478.8164" y="-96.5" font-family="Helvetica,sans-Serif" font-size="10.00" fill="#000000">/correlationsFiltered.cxx</text>
</a>
</g>
</g>
<!-- Node14&#45;&gt;Node22 -->
<g id="edge22" class="edge">
<title>Node14&#45;&gt;Node22</title>
<path fill="none" stroke="#191970" d="M1444.8966,-201.9363C1237.7338,-195.4023 723.7257,-176.1799 554.8164,-142 551.9403,-141.418 549.0246,-140.7531 546.0952,-140.023"/>
<polygon fill="#191970" stroke="#191970" points="1445.0184,-205.4417 1455.123,-202.2564 1445.2374,-198.4452 1445.0184,-205.4417"/>
</g>
<!-- Node23 -->
<g id="node19" class="node">
<title>Node23</title>
<g id="a_node19"><a xlink:href="../../d4/d39/correlationsMixed_8cxx.html" target="_top" xlink:title="/home/travis/build\l/AliceO2Group/AliceO2\l/Analysis/Tasks/PWGCF\l/correlationsMixed.cxx">
<polygon fill="none" stroke="#000000" points="564.3164,-89.5 564.3164,-141.5 693.3164,-141.5 693.3164,-89.5 564.3164,-89.5"/>
<text text-anchor="start" x="572.3164" y="-129.5" font-family="Helvetica,sans-Serif" font-size="10.00" fill="#000000">/home/travis/build</text>
<text text-anchor="start" x="572.3164" y="-118.5" font-family="Helvetica,sans-Serif" font-size="10.00" fill="#000000">/AliceO2Group/AliceO2</text>
<text text-anchor="start" x="572.3164" y="-107.5" font-family="Helvetica,sans-Serif" font-size="10.00" fill="#000000">/Analysis/Tasks/PWGCF</text>
<text text-anchor="middle" x="628.8164" y="-96.5" font-family="Helvetica,sans-Serif" font-size="10.00" fill="#000000">/correlationsMixed.cxx</text>
</a>
</g>
</g>
<!-- Node14&#45;&gt;Node23 -->
<g id="edge23" class="edge">
<title>Node14&#45;&gt;Node23</title>
<path fill="none" stroke="#191970" d="M1444.8515,-200.8671C1261.2011,-192.7935 842.4925,-171.7008 702.8164,-142 699.7465,-141.3472 696.6308,-140.5978 693.5024,-139.7744"/>
<polygon fill="#191970" stroke="#191970" points="1444.8687,-204.3711 1455.012,-201.311 1445.1743,-197.3778 1444.8687,-204.3711"/>
</g>
<!-- Node24 -->
<g id="node20" class="node">
<title>Node24</title>
<g id="a_node20"><a xlink:href="../../dc/db0/dptdptcorrelations_8cxx.html" target="_top" xlink:title="/home/travis/build\l/AliceO2Group/AliceO2\l/Analysis/Tasks/PWGCF\l/dptdptcorrelations.cxx">
<polygon fill="none" stroke="#000000" points="711.3164,-89.5 711.3164,-141.5 840.3164,-141.5 840.3164,-89.5 711.3164,-89.5"/>
<text text-anchor="start" x="719.3164" y="-129.5" font-family="Helvetica,sans-Serif" font-size="10.00" fill="#000000">/home/travis/build</text>
<text text-anchor="start" x="719.3164" y="-118.5" font-family="Helvetica,sans-Serif" font-size="10.00" fill="#000000">/AliceO2Group/AliceO2</text>
<text text-anchor="start" x="719.3164" y="-107.5" font-family="Helvetica,sans-Serif" font-size="10.00" fill="#000000">/Analysis/Tasks/PWGCF</text>
<text text-anchor="middle" x="775.8164" y="-96.5" font-family="Helvetica,sans-Serif" font-size="10.00" fill="#000000">/dptdptcorrelations.cxx</text>
</a>
</g>
</g>
<!-- Node14&#45;&gt;Node24 -->
<g id="edge24" class="edge">
<title>Node14&#45;&gt;Node24</title>
<path fill="none" stroke="#191970" d="M1444.9955,-199.2332C1287.0015,-189.2978 960.9525,-166.5684 849.8164,-142 846.7518,-141.3225 843.6405,-140.5529 840.5157,-139.7131"/>
<polygon fill="#191970" stroke="#191970" points="1444.956,-202.7375 1455.1552,-199.8691 1445.3933,-195.7512 1444.956,-202.7375"/>
</g>
<!-- Node25 -->
<g id="node21" class="node">
<title>Node25</title>
<g id="a_node21"><a xlink:href="../../d9/d63/filterCF_8cxx.html" target="_top" xlink:title="/home/travis/build\l/AliceO2Group/AliceO2\l/Analysis/Tasks/PWGCF\l/filterCF.cxx">
<polygon fill="none" stroke="#000000" points="858.3164,-89.5 858.3164,-141.5 987.3164,-141.5 987.3164,-89.5 858.3164,-89.5"/>
<text text-anchor="start" x="866.3164" y="-129.5" font-family="Helvetica,sans-Serif" font-size="10.00" fill="#000000">/home/travis/build</text>
<text text-anchor="start" x="866.3164" y="-118.5" font-family="Helvetica,sans-Serif" font-size="10.00" fill="#000000">/AliceO2Group/AliceO2</text>
<text text-anchor="start" x="866.3164" y="-107.5" font-family="Helvetica,sans-Serif" font-size="10.00" fill="#000000">/Analysis/Tasks/PWGCF</text>
<text text-anchor="middle" x="922.8164" y="-96.5" font-family="Helvetica,sans-Serif" font-size="10.00" fill="#000000">/filterCF.cxx</text>
</a>
</g>
</g>
<!-- Node14&#45;&gt;Node25 -->
<g id="edge25" class="edge">
<title>Node14&#45;&gt;Node25</title>
<path fill="none" stroke="#191970" d="M1444.9774,-200.3998C1337.9335,-194.0017 1152.1245,-178.3611 996.8164,-142 993.7605,-141.2845 990.6563,-140.4837 987.5372,-139.6187"/>
<polygon fill="#191970" stroke="#191970" points="1444.8997,-203.9012 1455.0869,-200.9905 1445.3081,-196.9131 1444.8997,-203.9012"/>
</g>
<!-- Node26 -->
<g id="node22" class="node">
<title>Node26</title>
<g id="a_node22"><a xlink:href="../../d2/d15/cascadeconsumer_8cxx.html" target="_top" xlink:title="/home/travis/build\l/AliceO2Group/AliceO2\l/Analysis/Tasks/PWGLF\l/cascadeconsumer.cxx">
<polygon fill="none" stroke="#000000" points="1005.8164,-89.5 1005.8164,-141.5 1133.8164,-141.5 1133.8164,-89.5 1005.8164,-89.5"/>
<text text-anchor="start" x="1013.8164" y="-129.5" font-family="Helvetica,sans-Serif" font-size="10.00" fill="#000000">/home/travis/build</text>
<text text-anchor="start" x="1013.8164" y="-118.5" font-family="Helvetica,sans-Serif" font-size="10.00" fill="#000000">/AliceO2Group/AliceO2</text>
<text text-anchor="start" x="1013.8164" y="-107.5" font-family="Helvetica,sans-Serif" font-size="10.00" fill="#000000">/Analysis/Tasks/PWGLF</text>
<text text-anchor="middle" x="1069.8164" y="-96.5" font-family="Helvetica,sans-Serif" font-size="10.00" fill="#000000">/cascadeconsumer.cxx</text>
</a>
</g>
</g>
<!-- Node14&#45;&gt;Node26 -->
<g id="edge28" class="edge">
<title>Node14&#45;&gt;Node26</title>
<path fill="none" stroke="#191970" d="M1444.9697,-195.2415C1365.2792,-185.7084 1244.986,-168.4763 1142.8164,-142 1139.9451,-141.2559 1137.0281,-140.444 1134.0945,-139.5814"/>
<polygon fill="#191970" stroke="#191970" points="1444.6258,-198.7251 1454.9674,-196.4225 1445.447,-191.7734 1444.6258,-198.7251"/>
</g>
<!-- Node27 -->
<g id="node23" class="node">
<title>Node27</title>
<g id="a_node23"><a xlink:href="../../d0/dd5/cascadefinder_8cxx.html" target="_top" xlink:title="/home/travis/build\l/AliceO2Group/AliceO2\l/Analysis/Tasks/PWGLF\l/cascadefinder.cxx">
<polygon fill="none" stroke="#000000" points="1151.8164,-89.5 1151.8164,-141.5 1279.8164,-141.5 1279.8164,-89.5 1151.8164,-89.5"/>
<text text-anchor="start" x="1159.8164" y="-129.5" font-family="Helvetica,sans-Serif" font-size="10.00" fill="#000000">/home/travis/build</text>
<text text-anchor="start" x="1159.8164" y="-118.5" font-family="Helvetica,sans-Serif" font-size="10.00" fill="#000000">/AliceO2Group/AliceO2</text>
<text text-anchor="start" x="1159.8164" y="-107.5" font-family="Helvetica,sans-Serif" font-size="10.00" fill="#000000">/Analysis/Tasks/PWGLF</text>
<text text-anchor="middle" x="1215.8164" y="-96.5" font-family="Helvetica,sans-Serif" font-size="10.00" fill="#000000">/cascadefinder.cxx</text>
</a>
</g>
</g>
<!-- Node14&#45;&gt;Node27 -->
<g id="edge29" class="edge">
<title>Node14&#45;&gt;Node27</title>
<path fill="none" stroke="#191970" d="M1445.4125,-184.0858C1398.9153,-172.7072 1340.9406,-157.6921 1289.8164,-142 1286.5551,-140.999 1283.225,-139.9407 1279.8707,-138.846"/>
<polygon fill="#191970" stroke="#191970" points="1444.6095,-187.4925 1455.1537,-186.4577 1446.2656,-180.6912 1444.6095,-187.4925"/>
</g>
<!-- Node28 -->
<g id="node24" class="node">
<title>Node28</title>
<g id="a_node24"><a xlink:href="../../d4/d77/lambdakzeroconsumer_8cxx.html" target="_top" xlink:title="/home/travis/build\l/AliceO2Group/AliceO2\l/Analysis/Tasks/PWGLF\l/lambdakzeroconsumer.cxx">
<polygon fill="none" stroke="#000000" points="1298.3164,-89.5 1298.3164,-141.5 1449.3164,-141.5 1449.3164,-89.5 1298.3164,-89.5"/>
<text text-anchor="start" x="1306.3164" y="-129.5" font-family="Helvetica,sans-Serif" font-size="10.00" fill="#000000">/home/travis/build</text>
<text text-anchor="start" x="1306.3164" y="-118.5" font-family="Helvetica,sans-Serif" font-size="10.00" fill="#000000">/AliceO2Group/AliceO2</text>
<text text-anchor="start" x="1306.3164" y="-107.5" font-family="Helvetica,sans-Serif" font-size="10.00" fill="#000000">/Analysis/Tasks/PWGLF</text>
<text text-anchor="middle" x="1373.8164" y="-96.5" font-family="Helvetica,sans-Serif" font-size="10.00" fill="#000000">/lambdakzeroconsumer.cxx</text>
</a>
</g>
</g>
<!-- Node14&#45;&gt;Node28 -->
<g id="edge30" class="edge">
<title>Node14&#45;&gt;Node28</title>
<path fill="none" stroke="#191970" d="M1477.0452,-173.2821C1458.512,-162.9082 1438.0847,-151.4741 1420.3269,-141.5341"/>
<polygon fill="#191970" stroke="#191970" points="1475.5356,-176.4481 1485.9712,-178.2784 1478.9547,-170.3399 1475.5356,-176.4481"/>
</g>
<!-- Node29 -->
<g id="node25" class="node">
<title>Node29</title>
<g id="a_node25"><a xlink:href="../../d5/d6e/lambdakzerofinder_8cxx.html" target="_top" xlink:title="/home/travis/build\l/AliceO2Group/AliceO2\l/Analysis/Tasks/PWGLF\l/lambdakzerofinder.cxx">
<polygon fill="none" stroke="#000000" points="1467.3164,-89.5 1467.3164,-141.5 1598.3164,-141.5 1598.3164,-89.5 1467.3164,-89.5"/>
<text text-anchor="start" x="1475.3164" y="-129.5" font-family="Helvetica,sans-Serif" font-size="10.00" fill="#000000">/home/travis/build</text>
<text text-anchor="start" x="1475.3164" y="-118.5" font-family="Helvetica,sans-Serif" font-size="10.00" fill="#000000">/AliceO2Group/AliceO2</text>
<text text-anchor="start" x="1475.3164" y="-107.5" font-family="Helvetica,sans-Serif" font-size="10.00" fill="#000000">/Analysis/Tasks/PWGLF</text>
<text text-anchor="middle" x="1532.8164" y="-96.5" font-family="Helvetica,sans-Serif" font-size="10.00" fill="#000000">/lambdakzerofinder.cxx</text>
</a>
</g>
</g>
<!-- Node14&#45;&gt;Node29 -->
<g id="edge31" class="edge">
<title>Node14&#45;&gt;Node29</title>
<path fill="none" stroke="#191970" d="M1532.8164,-168.1155C1532.8164,-159.2061 1532.8164,-149.8475 1532.8164,-141.5341"/>
<polygon fill="#191970" stroke="#191970" points="1529.3165,-168.2784 1532.8164,-178.2784 1536.3165,-168.2785 1529.3165,-168.2784"/>
</g>
<!-- Node30 -->
<g id="node26" class="node">
<title>Node30</title>
<g id="a_node26"><a xlink:href="../../df/dc5/raacharged_8cxx.html" target="_top" xlink:title="/home/travis/build\l/AliceO2Group/AliceO2\l/Analysis/Tasks/PWGLF\l/raacharged.cxx">
<polygon fill="none" stroke="#000000" points="1616.8164,-89.5 1616.8164,-141.5 1744.8164,-141.5 1744.8164,-89.5 1616.8164,-89.5"/>
<text text-anchor="start" x="1624.8164" y="-129.5" font-family="Helvetica,sans-Serif" font-size="10.00" fill="#000000">/home/travis/build</text>
<text text-anchor="start" x="1624.8164" y="-118.5" font-family="Helvetica,sans-Serif" font-size="10.00" fill="#000000">/AliceO2Group/AliceO2</text>
<text text-anchor="start" x="1624.8164" y="-107.5" font-family="Helvetica,sans-Serif" font-size="10.00" fill="#000000">/Analysis/Tasks/PWGLF</text>
<text text-anchor="middle" x="1680.8164" y="-96.5" font-family="Helvetica,sans-Serif" font-size="10.00" fill="#000000">/raacharged.cxx</text>
</a>
</g>
</g>
<!-- Node14&#45;&gt;Node30 -->
<g id="edge32" class="edge">
<title>Node14&#45;&gt;Node30</title>
<path fill="none" stroke="#191970" d="M1585.2002,-172.9989C1602.3258,-162.7004 1621.1447,-151.3837 1637.5237,-141.5341"/>
<polygon fill="#191970" stroke="#191970" points="1583.1869,-170.1255 1576.4208,-178.2784 1586.7944,-176.1244 1583.1869,-170.1255"/>
</g>
<!-- Node31 -->
<g id="node27" class="node">
<title>Node31</title>
<g id="a_node27"><a xlink:href="../../dc/d19/dNdetaRun2Tracklets_8cxx.html" target="_top" xlink:title="/home/travis/build\l/AliceO2Group/AliceO2\l/Analysis/Tasks/PWGMM\l/dNdetaRun2Tracklets.cxx">
<polygon fill="none" stroke="#000000" points="1763.3164,-89.5 1763.3164,-141.5 1906.3164,-141.5 1906.3164,-89.5 1763.3164,-89.5"/>
<text text-anchor="start" x="1771.3164" y="-129.5" font-family="Helvetica,sans-Serif" font-size="10.00" fill="#000000">/home/travis/build</text>
<text text-anchor="start" x="1771.3164" y="-118.5" font-family="Helvetica,sans-Serif" font-size="10.00" fill="#000000">/AliceO2Group/AliceO2</text>
<text text-anchor="start" x="1771.3164" y="-107.5" font-family="Helvetica,sans-Serif" font-size="10.00" fill="#000000">/Analysis/Tasks/PWGMM</text>
<text text-anchor="middle" x="1834.8164" y="-96.5" font-family="Helvetica,sans-Serif" font-size="10.00" fill="#000000">/dNdetaRun2Tracklets.cxx</text>
</a>
</g>
</g>
<!-- Node14&#45;&gt;Node31 -->
<g id="edge33" class="edge">
<title>Node14&#45;&gt;Node31</title>
<path fill="none" stroke="#191970" d="M1620.2382,-177.9237C1680.7266,-160.8361 1697.5981,-158.7348 1753.8164,-142 1756.7944,-141.1135 1759.8289,-140.1942 1762.8906,-139.2533"/>
<polygon fill="#191970" stroke="#191970" points="1619.2258,-174.5727 1610.5667,-180.6777 1621.1429,-181.3051 1619.2258,-174.5727"/>
</g>
<!-- Node32 -->
<g id="node28" class="node">
<title>Node32</title>
<g id="a_node28"><a xlink:href="../../d2/d9d/upcAnalysis_8cxx.html" target="_top" xlink:title="/home/travis/build\l/AliceO2Group/AliceO2\l/Analysis/Tasks/PWGUD\l/upcAnalysis.cxx">
<polygon fill="none" stroke="#000000" points="1924.8164,-89.5 1924.8164,-141.5 2056.8164,-141.5 2056.8164,-89.5 1924.8164,-89.5"/>
<text text-anchor="start" x="1932.8164" y="-129.5" font-family="Helvetica,sans-Serif" font-size="10.00" fill="#000000">/home/travis/build</text>
<text text-anchor="start" x="1932.8164" y="-118.5" font-family="Helvetica,sans-Serif" font-size="10.00" fill="#000000">/AliceO2Group/AliceO2</text>
<text text-anchor="start" x="1932.8164" y="-107.5" font-family="Helvetica,sans-Serif" font-size="10.00" fill="#000000">/Analysis/Tasks/PWGUD</text>
<text text-anchor="middle" x="1990.8164" y="-96.5" font-family="Helvetica,sans-Serif" font-size="10.00" fill="#000000">/upcAnalysis.cxx</text>
</a>
</g>
</g>
<!-- Node14&#45;&gt;Node32 -->
<g id="edge34" class="edge">
<title>Node14&#45;&gt;Node32</title>
<path fill="none" stroke="#191970" d="M1620.4343,-178.052C1751.3521,-151.615 1789.9415,-171.5172 1915.8164,-142 1918.7743,-141.3064 1921.7777,-140.5363 1924.797,-139.7079"/>
<polygon fill="#191970" stroke="#191970" points="1619.5111,-174.6688 1610.4293,-180.1253 1620.9315,-181.5232 1619.5111,-174.6688"/>
</g>
<!-- Node33 -->
<g id="node29" class="node">
<title>Node33</title>
<g id="a_node29"><a xlink:href="../../d4/d5e/reducedEventAnalysis_8cxx.html" target="_top" xlink:title="/home/travis/build\l/AliceO2Group/AliceO2\l/Analysis/Tasks/reducedEvent\lAnalysis.cxx">
<polygon fill="none" stroke="#000000" points="2075.3164,-89.5 2075.3164,-141.5 2236.3164,-141.5 2236.3164,-89.5 2075.3164,-89.5"/>
<text text-anchor="start" x="2083.3164" y="-129.5" font-family="Helvetica,sans-Serif" font-size="10.00" fill="#000000">/home/travis/build</text>
<text text-anchor="start" x="2083.3164" y="-118.5" font-family="Helvetica,sans-Serif" font-size="10.00" fill="#000000">/AliceO2Group/AliceO2</text>
<text text-anchor="start" x="2083.3164" y="-107.5" font-family="Helvetica,sans-Serif" font-size="10.00" fill="#000000">/Analysis/Tasks/reducedEvent</text>
<text text-anchor="middle" x="2155.8164" y="-96.5" font-family="Helvetica,sans-Serif" font-size="10.00" fill="#000000">Analysis.cxx</text>
</a>
</g>
</g>
<!-- Node14&#45;&gt;Node33 -->
<g id="edge35" class="edge">
<title>Node14&#45;&gt;Node33</title>
<path fill="none" stroke="#191970" d="M1620.4737,-178.0782C1817.0439,-142.0358 1873.5325,-177.6751 2065.8164,-142 2068.8593,-141.4355 2071.9462,-140.8087 2075.0539,-140.1322"/>
<polygon fill="#191970" stroke="#191970" points="1619.5819,-174.6842 1610.3972,-179.9655 1620.8707,-181.5646 1619.5819,-174.6842"/>
</g>
<!-- Node15&#45;&gt;Node8 -->
<g id="edge11" class="edge">
<title>Node15&#45;&gt;Node8</title>
<path fill="none" stroke="#191970" d="M2413.6731,-85.7598C2441.8227,-74.8671 2473.4109,-62.6439 2500.5543,-52.1406"/>
<polygon fill="#191970" stroke="#191970" points="2412.333,-82.5254 2404.2699,-89.3984 2414.8592,-89.0537 2412.333,-82.5254"/>
</g>
<!-- Node15&#45;&gt;Node9 -->
<g id="edge12" class="edge">
<title>Node15&#45;&gt;Node9</title>
<path fill="none" stroke="#191970" d="M2428.974,-88.9193C2515.0295,-71.6881 2707.5194,-47.1298 2809.6648,-34.5326"/>
<polygon fill="#191970" stroke="#191970" points="2428.1015,-85.5257 2419.0203,-90.983 2429.5227,-92.3799 2428.1015,-85.5257"/>
</g>
<!-- Node15&#45;&gt;Node10 -->
<g id="edge13" class="edge">
<title>Node15&#45;&gt;Node10</title>
<path fill="none" stroke="#191970" d="M2244.7041,-89.013C2047.6323,-56.9085 1506.7439,-35.4843 1317.8656,-28.751"/>
<polygon fill="#191970" stroke="#191970" points="2244.2246,-92.4815 2254.6681,-90.6973 2245.3913,-85.5794 2244.2246,-92.4815"/>
</g>
<!-- Node15&#45;&gt;Node11 -->
<g id="edge14" class="edge">
<title>Node15&#45;&gt;Node11</title>
<path fill="none" stroke="#191970" d="M2428.9542,-88.9964C2782.5821,-32.2504 2883.9684,-120.6897 3231.8164,-53 3234.6631,-52.4461 3237.5474,-51.8047 3240.444,-51.0939"/>
<polygon fill="#191970" stroke="#191970" points="2428.2586,-85.5635 2418.9531,-90.6289 2429.3864,-92.4721 2428.2586,-85.5635"/>
</g>
<!-- Node15&#45;&gt;Node12 -->
<g id="edge15" class="edge">
<title>Node15&#45;&gt;Node12</title>
<path fill="none" stroke="#191970" d="M2352.778,-79.9856C2356.8984,-70.8176 2361.2575,-61.1186 2365.1157,-52.5341"/>
<polygon fill="#191970" stroke="#191970" points="2349.5084,-78.7225 2348.6014,-89.2784 2355.8932,-81.5921 2349.5084,-78.7225"/>
</g>
</g>
</svg>
        <g id="navigator" transform="translate(0 0)" fill="#404254">
                <rect fill="#f2f5e9" fill-opacity="0.5" stroke="#606060" stroke-width=".5" x="0" y="0" width="60" height="60"/>
                <use id="zoomplus" xlink:href="#zoomPlus" x="17" y="9" onmousedown="handleZoom(evt,'in')"/>
                <use id="zoomminus" xlink:href="#zoomMin" x="42" y="9" onmousedown="handleZoom(evt,'out')"/>
                <use id="reset" xlink:href="#resetDef" x="30" y="36" onmousedown="handleReset()"/>
                <g id="arrowUp" xlink:href="#dirArrow" transform="translate(30 24)" onmousedown="handlePan(0,-1)">
                  <use xlink:href="#rim" fill="#404040">
                        <set attributeName="fill" to="#808080" begin="arrowUp.mouseover" end="arrowUp.mouseout"/>
                  </use>
                  <path fill="none" stroke="white" stroke-width="1.5" d="M0,-3.0v7 M-2.5,-0.5L0,-3.0L2.5,-0.5"/>
                </g>
                <g id="arrowRight" xlink:href="#dirArrow" transform="rotate(90) translate(36 -43)" onmousedown="handlePan(1,0)">
                  <use xlink:href="#rim" fill="#404040">
                        <set attributeName="fill" to="#808080" begin="arrowRight.mouseover" end="arrowRight.mouseout"/>
                  </use>
                  <path fill="none" stroke="white" stroke-width="1.5" d="M0,-3.0v7 M-2.5,-0.5L0,-3.0L2.5,-0.5"/>
                </g>
                <g id="arrowDown" xlink:href="#dirArrow" transform="rotate(180) translate(-30 -48)" onmousedown="handlePan(0,1)">
                  <use xlink:href="#rim" fill="#404040">
                        <set attributeName="fill" to="#808080" begin="arrowDown.mouseover" end="arrowDown.mouseout"/>
                  </use>
                  <path fill="none" stroke="white" stroke-width="1.5" d="M0,-3.0v7 M-2.5,-0.5L0,-3.0L2.5,-0.5"/>
                </g>
                <g id="arrowLeft" xlink:href="#dirArrow" transform="rotate(270) translate(-36 17)" onmousedown="handlePan(-1,0)">
                  <use xlink:href="#rim" fill="#404040">
                        <set attributeName="fill" to="#808080" begin="arrowLeft.mouseover" end="arrowLeft.mouseout"/>
                  </use>
                  <path fill="none" stroke="white" stroke-width="1.5" d="M0,-3.0v7 M-2.5,-0.5L0,-3.0L2.5,-0.5"/>
                </g>
        </g>
        <svg viewBox="0 0 15 15" width="100%" height="30px" preserveAspectRatio="xMaxYMin meet">
         <g id="arrow_out" transform="scale(0.3 0.3)">
          <a xlink:href="TriggerAliases_8h__dep__incl_org.svg" target="_base">
           <rect id="button" ry="5" rx="5" y="6" x="6" height="38" width="38"
                fill="#f2f5e9" fill-opacity="0.5" stroke="#606060" stroke-width="1.0"/>
           <path id="arrow"
             d="M 11.500037,31.436501 C 11.940474,20.09759 22.043105,11.32322 32.158766,21.979434 L 37.068811,17.246167 C 37.068811,17.246167 37.088388,32 37.088388,32 L 22.160133,31.978069 C 22.160133,31.978069 26.997745,27.140456 26.997745,27.140456 C 18.528582,18.264221 13.291696,25.230495 11.500037,31.436501 z"
             style="fill:#404040;"/>
          </a>
         </g>
        </svg>
</svg>
