<?xml version="1.0" encoding="UTF-8" standalone="no"?>
<!DOCTYPE svg PUBLIC "-//W3C//DTD SVG 1.1//EN"
 "http://www.w3.org/Graphics/SVG/1.1/DTD/svg11.dtd">
<!-- Generated by graphviz version 2.40.1 (20161225.0304)
 -->
<!-- Title: /home/travis/build/AliceO2Group/AliceO2/Detectors/TPC/simulation/include/TPCSimulation/Detector.h Pages: 1 -->
<svg width="2510pt" height="374pt"
 viewBox="0.00 0.00 2509.65 374.00" xmlns="http://www.w3.org/2000/svg" xmlns:xlink="http://www.w3.org/1999/xlink">
<g id="graph0" class="graph" transform="scale(1 1) rotate(0) translate(4 370)">
<title>/home/travis/build/AliceO2Group/AliceO2/Detectors/TPC/simulation/include/TPCSimulation/Detector.h</title>
<!-- Node0 -->
<g id="node1" class="node">
<title>Node0</title>
<polygon fill="#bfbfbf" stroke="#000000" points="1387.1495,-313.5 1387.1495,-365.5 1569.1495,-365.5 1569.1495,-313.5 1387.1495,-313.5"/>
<text text-anchor="start" x="1395.1495" y="-353.5" font-family="Helvetica,sans-Serif" font-size="10.00" fill="#000000">/home/travis/build</text>
<text text-anchor="start" x="1395.1495" y="-342.5" font-family="Helvetica,sans-Serif" font-size="10.00" fill="#000000">/AliceO2Group/AliceO2</text>
<text text-anchor="start" x="1395.1495" y="-331.5" font-family="Helvetica,sans-Serif" font-size="10.00" fill="#000000">/Detectors/TPC/simulation</text>
<text text-anchor="middle" x="1478.1495" y="-320.5" font-family="Helvetica,sans-Serif" font-size="10.00" fill="#000000">/include/TPCSimulation/Detector.h</text>
</g>
<!-- Node1 -->
<g id="node2" class="node">
<title>Node1</title>
<g id="a_node2"><a xlink:href="../../d1/d3a/Base_2include_2DetectorsBase_2Detector_8h.html" target="_top" xlink:title="DetectorsBase/Detector.h">
<polygon fill="none" stroke="#000000" points="654.6495,-257.5 654.6495,-276.5 795.6495,-276.5 795.6495,-257.5 654.6495,-257.5"/>
<text text-anchor="middle" x="725.1495" y="-264.5" font-family="Helvetica,sans-Serif" font-size="10.00" fill="#000000">DetectorsBase/Detector.h</text>
</a>
</g>
</g>
<!-- Node0&#45;&gt;Node1 -->
<g id="edge1" class="edge">
<title>Node0&#45;&gt;Node1</title>
<path fill="none" stroke="#191970" d="M1386.9452,-330.7187C1238.6356,-316.4392 947.5699,-288.415 806.1342,-274.7973"/>
<polygon fill="#191970" stroke="#191970" points="806.091,-271.2771 795.8016,-273.8025 805.4201,-278.2449 806.091,-271.2771"/>
</g>
<!-- Node9 -->
<g id="node10" class="node">
<title>Node9</title>
<polygon fill="none" stroke="#bfbfbf" points="1052.6495,-73 1052.6495,-92 1111.6495,-92 1111.6495,-73 1052.6495,-73"/>
<text text-anchor="middle" x="1082.1495" y="-80" font-family="Helvetica,sans-Serif" font-size="10.00" fill="#000000">Rtypes.h</text>
</g>
<!-- Node0&#45;&gt;Node9 -->
<g id="edge32" class="edge">
<title>Node0&#45;&gt;Node9</title>
<path fill="none" stroke="#191970" d="M1419.1498,-313.371C1402.3487,-303.7893 1385.1111,-291.6324 1372.1495,-277 1344.1714,-245.4156 1362.4774,-221.271 1334.1495,-190 1299.9506,-152.2482 1280.8776,-154.2791 1234.1495,-134 1185.7972,-113.016 1170.7822,-115.7445 1121.1495,-98 1119.2456,-97.3193 1117.2963,-96.6041 1115.3337,-95.8698"/>
<polygon fill="#191970" stroke="#191970" points="1116.1491,-92.4336 1105.5591,-92.1111 1113.6366,-98.9672 1116.1491,-92.4336"/>
</g>
<!-- Node27 -->
<g id="node28" class="node">
<title>Node27</title>
<polygon fill="none" stroke="#bfbfbf" points="1381.1495,-257.5 1381.1495,-276.5 1479.1495,-276.5 1479.1495,-257.5 1381.1495,-257.5"/>
<text text-anchor="middle" x="1430.1495" y="-264.5" font-family="Helvetica,sans-Serif" font-size="10.00" fill="#000000">TLorentzVector.h</text>
</g>
<!-- Node0&#45;&gt;Node27 -->
<g id="edge33" class="edge">
<title>Node0&#45;&gt;Node27</title>
<path fill="none" stroke="#191970" d="M1460.8204,-313.3258C1454.5887,-303.9134 1447.7052,-293.5164 1442.0409,-284.961"/>
<polygon fill="#191970" stroke="#191970" points="1444.9005,-282.94 1436.4616,-276.534 1439.0638,-286.8043 1444.9005,-282.94"/>
</g>
<!-- Node28 -->
<g id="node29" class="node">
<title>Node28</title>
<polygon fill="none" stroke="#bfbfbf" points="1497.1495,-257.5 1497.1495,-276.5 1557.1495,-276.5 1557.1495,-257.5 1497.1495,-257.5"/>
<text text-anchor="middle" x="1527.1495" y="-264.5" font-family="Helvetica,sans-Serif" font-size="10.00" fill="#000000">TString.h</text>
</g>
<!-- Node0&#45;&gt;Node28 -->
<g id="edge34" class="edge">
<title>Node0&#45;&gt;Node28</title>
<path fill="none" stroke="#191970" d="M1495.8396,-313.3258C1502.2011,-303.9134 1509.2281,-293.5164 1515.0103,-284.961"/>
<polygon fill="#191970" stroke="#191970" points="1518.0059,-286.7791 1520.7058,-276.534 1512.2063,-282.8593 1518.0059,-286.7791"/>
</g>
<!-- Node29 -->
<g id="node30" class="node">
<title>Node29</title>
<g id="a_node30"><a xlink:href="../../d4/de5/Point_8h.html" target="_top" xlink:title="Class for TPC Point. ">
<polygon fill="none" stroke="#000000" points="1575.6495,-257.5 1575.6495,-276.5 1700.6495,-276.5 1700.6495,-257.5 1575.6495,-257.5"/>
<text text-anchor="middle" x="1638.1495" y="-264.5" font-family="Helvetica,sans-Serif" font-size="10.00" fill="#000000">TPCSimulation/Point.h</text>
</a>
</g>
</g>
<!-- Node0&#45;&gt;Node29 -->
<g id="edge35" class="edge">
<title>Node0&#45;&gt;Node29</title>
<path fill="none" stroke="#191970" d="M1535.9132,-313.3258C1560.2212,-302.3112 1587.5046,-289.9485 1607.7687,-280.7663"/>
<polygon fill="#191970" stroke="#191970" points="1609.445,-283.8494 1617.1089,-276.534 1606.5558,-277.4734 1609.445,-283.8494"/>
</g>
<!-- Node41 -->
<g id="node42" class="node">
<title>Node41</title>
<g id="a_node42"><a xlink:href="../../d3/dd6/Sector_8h.html" target="_top" xlink:title="TPCBase/Sector.h">
<polygon fill="none" stroke="#000000" points="1733.6495,-257.5 1733.6495,-276.5 1834.6495,-276.5 1834.6495,-257.5 1733.6495,-257.5"/>
<text text-anchor="middle" x="1784.1495" y="-264.5" font-family="Helvetica,sans-Serif" font-size="10.00" fill="#000000">TPCBase/Sector.h</text>
</a>
</g>
</g>
<!-- Node0&#45;&gt;Node41 -->
<g id="edge51" class="edge">
<title>Node0&#45;&gt;Node41</title>
<path fill="none" stroke="#191970" d="M1569.5451,-317.8458C1623.2979,-305.1103 1689.2293,-289.4893 1733.716,-278.9491"/>
<polygon fill="#191970" stroke="#191970" points="1734.782,-282.2935 1743.7056,-276.5823 1733.1681,-275.4821 1734.782,-282.2935"/>
</g>
<!-- Node2 -->
<g id="node3" class="node">
<title>Node2</title>
<polygon fill="none" stroke="#bfbfbf" points="31.1495,-134.5 31.1495,-153.5 69.1495,-153.5 69.1495,-134.5 31.1495,-134.5"/>
<text text-anchor="middle" x="50.1495" y="-141.5" font-family="Helvetica,sans-Serif" font-size="10.00" fill="#000000">map</text>
</g>
<!-- Node1&#45;&gt;Node2 -->
<g id="edge2" class="edge">
<title>Node1&#45;&gt;Node2</title>
<path fill="none" stroke="#191970" d="M654.4947,-265.0623C477.5859,-259.8681 28.1184,-244.4194 6.1495,-221 -10.9021,-202.8226 11.2033,-176.846 29.7636,-160.2014"/>
<polygon fill="#191970" stroke="#191970" points="32.0525,-162.8493 37.3765,-153.6893 27.5023,-157.5299 32.0525,-162.8493"/>
</g>
<!-- Node3 -->
<g id="node4" class="node">
<title>Node3</title>
<polygon fill="none" stroke="#bfbfbf" points="1438.6495,-196 1438.6495,-215 1485.6495,-215 1485.6495,-196 1438.6495,-196"/>
<text text-anchor="middle" x="1462.1495" y="-203" font-family="Helvetica,sans-Serif" font-size="10.00" fill="#000000">vector</text>
</g>
<!-- Node1&#45;&gt;Node3 -->
<g id="edge3" class="edge">
<title>Node1&#45;&gt;Node3</title>
<path fill="none" stroke="#191970" d="M796.0322,-262.6874C909.6996,-255.5374 1139.725,-240.1048 1334.1495,-221 1366.2601,-217.8447 1402.7901,-213.3287 1428.583,-209.9846"/>
<polygon fill="#191970" stroke="#191970" points="1429.1312,-213.4428 1438.593,-208.6757 1428.2236,-206.5019 1429.1312,-213.4428"/>
</g>
<!-- Node4 -->
<g id="node5" class="node">
<title>Node4</title>
<polygon fill="none" stroke="#bfbfbf" points="322.6495,-134.5 322.6495,-153.5 405.6495,-153.5 405.6495,-134.5 322.6495,-134.5"/>
<text text-anchor="middle" x="364.1495" y="-141.5" font-family="Helvetica,sans-Serif" font-size="10.00" fill="#000000">initializer_list</text>
</g>
<!-- Node1&#45;&gt;Node4 -->
<g id="edge4" class="edge">
<title>Node1&#45;&gt;Node4</title>
<path fill="none" stroke="#191970" d="M654.518,-264.9964C479.4083,-259.6865 37.7642,-244.0626 16.1495,-221 6.7278,-210.9472 7.0679,-200.3611 16.1495,-190 35.3441,-168.1012 219.8644,-153.2603 312.1409,-147.1455"/>
<polygon fill="#191970" stroke="#191970" points="312.633,-150.6209 322.384,-146.4774 312.1774,-143.6357 312.633,-150.6209"/>
</g>
<!-- Node5 -->
<g id="node6" class="node">
<title>Node5</title>
<polygon fill="none" stroke="#bfbfbf" points="194.1495,-196 194.1495,-215 252.1495,-215 252.1495,-196 194.1495,-196"/>
<text text-anchor="middle" x="223.1495" y="-203" font-family="Helvetica,sans-Serif" font-size="10.00" fill="#000000">memory</text>
</g>
<!-- Node1&#45;&gt;Node5 -->
<g id="edge5" class="edge">
<title>Node1&#45;&gt;Node5</title>
<path fill="none" stroke="#191970" d="M654.6458,-262.5063C543.7789,-255.0187 333.8278,-239.021 261.1495,-221 258.5173,-220.3473 255.8277,-219.5461 253.1561,-218.6549"/>
<polygon fill="#191970" stroke="#191970" points="254.2865,-215.3411 243.6936,-215.1381 251.8478,-221.9026 254.2865,-215.3411"/>
</g>
<!-- Node6 -->
<g id="node7" class="node">
<title>Node6</title>
<polygon fill="none" stroke="#bfbfbf" points="270.1495,-196 270.1495,-215 354.1495,-215 354.1495,-196 270.1495,-196"/>
<text text-anchor="middle" x="312.1495" y="-203" font-family="Helvetica,sans-Serif" font-size="10.00" fill="#000000">FairDetector.h</text>
</g>
<!-- Node1&#45;&gt;Node6 -->
<g id="edge6" class="edge">
<title>Node1&#45;&gt;Node6</title>
<path fill="none" stroke="#191970" d="M654.4841,-261.5716C581.0855,-255.107 463.2007,-242.4008 363.1495,-221 358.9755,-220.1072 354.6499,-219.0329 350.363,-217.8716"/>
<polygon fill="#191970" stroke="#191970" points="351.097,-214.441 340.5196,-215.0481 349.1669,-221.1697 351.097,-214.441"/>
</g>
<!-- Node7 -->
<g id="node8" class="node">
<title>Node7</title>
<polygon fill="none" stroke="#bfbfbf" points="372.1495,-196 372.1495,-215 478.1495,-215 478.1495,-196 372.1495,-196"/>
<text text-anchor="middle" x="425.1495" y="-203" font-family="Helvetica,sans-Serif" font-size="10.00" fill="#000000">FairRootManager.h</text>
</g>
<!-- Node1&#45;&gt;Node7 -->
<g id="edge7" class="edge">
<title>Node1&#45;&gt;Node7</title>
<path fill="none" stroke="#191970" d="M671.5728,-257.5C623.2239,-248.7239 550.2204,-234.9682 487.1495,-221 482.1326,-219.8889 476.9018,-218.6726 471.6986,-217.4254"/>
<polygon fill="#191970" stroke="#191970" points="472.3349,-213.978 461.7903,-215.0086 470.6761,-220.7787 472.3349,-213.978"/>
</g>
<!-- Node8 -->
<g id="node9" class="node">
<title>Node8</title>
<g id="a_node9"><a xlink:href="../../d0/d9a/MaterialManager_8h.html" target="_top" xlink:title="DetectorsBase/MaterialManager.h">
<polygon fill="none" stroke="#000000" points="496.6495,-196 496.6495,-215 677.6495,-215 677.6495,-196 496.6495,-196"/>
<text text-anchor="middle" x="587.1495" y="-203" font-family="Helvetica,sans-Serif" font-size="10.00" fill="#000000">DetectorsBase/MaterialManager.h</text>
</a>
</g>
</g>
<!-- Node1&#45;&gt;Node8 -->
<g id="edge8" class="edge">
<title>Node1&#45;&gt;Node8</title>
<path fill="none" stroke="#191970" d="M703.587,-257.3906C680.5983,-247.1457 643.9935,-230.8326 617.9671,-219.2339"/>
<polygon fill="#191970" stroke="#191970" points="619.1193,-215.9156 608.5606,-215.0419 616.2699,-222.3095 619.1193,-215.9156"/>
</g>
<!-- Node1&#45;&gt;Node9 -->
<g id="edge14" class="edge">
<title>Node1&#45;&gt;Node9</title>
<path fill="none" stroke="#191970" d="M795.9238,-262.736C894.0582,-256.0957 1061.5633,-241.8445 1080.1495,-221 1109.5121,-188.0697 1097.8151,-131.2033 1088.8299,-101.6233"/>
<polygon fill="#191970" stroke="#191970" points="1092.1404,-100.4853 1085.7234,-92.0549 1085.4825,-102.647 1092.1404,-100.4853"/>
</g>
<!-- Node12 -->
<g id="node13" class="node">
<title>Node12</title>
<polygon fill="none" stroke="#bfbfbf" points="696.1495,-196 696.1495,-215 754.1495,-215 754.1495,-196 696.1495,-196"/>
<text text-anchor="middle" x="725.1495" y="-203" font-family="Helvetica,sans-Serif" font-size="10.00" fill="#000000">cxxabi.h</text>
</g>
<!-- Node1&#45;&gt;Node12 -->
<g id="edge15" class="edge">
<title>Node1&#45;&gt;Node12</title>
<path fill="none" stroke="#191970" d="M725.1495,-257.3906C725.1495,-248.8657 725.1495,-236.1392 725.1495,-225.4235"/>
<polygon fill="#191970" stroke="#191970" points="728.6496,-225.2448 725.1495,-215.2449 721.6496,-225.2449 728.6496,-225.2448"/>
</g>
<!-- Node13 -->
<g id="node14" class="node">
<title>Node13</title>
<polygon fill="none" stroke="#bfbfbf" points="772.6495,-196 772.6495,-215 829.6495,-215 829.6495,-196 772.6495,-196"/>
<text text-anchor="middle" x="801.1495" y="-203" font-family="Helvetica,sans-Serif" font-size="10.00" fill="#000000">typeinfo</text>
</g>
<!-- Node1&#45;&gt;Node13 -->
<g id="edge16" class="edge">
<title>Node1&#45;&gt;Node13</title>
<path fill="none" stroke="#191970" d="M737.0245,-257.3906C748.7792,-247.8786 766.9981,-233.1357 781.0166,-221.7917"/>
<polygon fill="#191970" stroke="#191970" points="783.5351,-224.2562 789.1071,-215.2449 779.1317,-218.8146 783.5351,-224.2562"/>
</g>
<!-- Node14 -->
<g id="node15" class="node">
<title>Node14</title>
<polygon fill="none" stroke="#bfbfbf" points="847.6495,-196 847.6495,-215 916.6495,-215 916.6495,-196 847.6495,-196"/>
<text text-anchor="middle" x="882.1495" y="-203" font-family="Helvetica,sans-Serif" font-size="10.00" fill="#000000">type_traits</text>
</g>
<!-- Node1&#45;&gt;Node14 -->
<g id="edge17" class="edge">
<title>Node1&#45;&gt;Node14</title>
<path fill="none" stroke="#191970" d="M749.6807,-257.3906C776.1801,-247.0103 818.5826,-230.4004 848.2565,-218.7766"/>
<polygon fill="#191970" stroke="#191970" points="849.756,-221.9482 857.7905,-215.0419 847.2028,-215.4304 849.756,-221.9482"/>
</g>
<!-- Node15 -->
<g id="node16" class="node">
<title>Node15</title>
<polygon fill="none" stroke="#bfbfbf" points="935.1495,-196 935.1495,-215 979.1495,-215 979.1495,-196 935.1495,-196"/>
<text text-anchor="middle" x="957.1495" y="-203" font-family="Helvetica,sans-Serif" font-size="10.00" fill="#000000">string</text>
</g>
<!-- Node1&#45;&gt;Node15 -->
<g id="edge18" class="edge">
<title>Node1&#45;&gt;Node15</title>
<path fill="none" stroke="#191970" d="M783.3756,-257.4827C824.0781,-249.9144 879.3108,-237.7963 926.1495,-221 927.5655,-220.4922 929.0006,-219.9358 930.4375,-219.3451"/>
<polygon fill="#191970" stroke="#191970" points="932.1122,-222.4284 939.7646,-215.101 929.2129,-216.057 932.1122,-222.4284"/>
</g>
<!-- Node16 -->
<g id="node17" class="node">
<title>Node16</title>
<polygon fill="none" stroke="#bfbfbf" points="997.1495,-196 997.1495,-215 1071.1495,-215 1071.1495,-196 997.1495,-196"/>
<text text-anchor="middle" x="1034.1495" y="-203" font-family="Helvetica,sans-Serif" font-size="10.00" fill="#000000">TMessage.h</text>
</g>
<!-- Node1&#45;&gt;Node16 -->
<g id="edge19" class="edge">
<title>Node1&#45;&gt;Node16</title>
<path fill="none" stroke="#191970" d="M795.8119,-257.6164C849.1147,-249.8219 923.7982,-237.3686 988.1495,-221 991.5185,-220.1431 994.9961,-219.1598 998.4598,-218.1133"/>
<polygon fill="#191970" stroke="#191970" points="999.6168,-221.4181 1008.0831,-215.0484 997.4925,-214.7482 999.6168,-221.4181"/>
</g>
<!-- Node17 -->
<g id="node18" class="node">
<title>Node17</title>
<g id="a_node18"><a xlink:href="../../de/d61/ShmManager_8h.html" target="_top" xlink:title="CommonUtils/ShmManager.h">
<polygon fill="none" stroke="#000000" points="661.1495,-134.5 661.1495,-153.5 819.1495,-153.5 819.1495,-134.5 661.1495,-134.5"/>
<text text-anchor="middle" x="740.1495" y="-141.5" font-family="Helvetica,sans-Serif" font-size="10.00" fill="#000000">CommonUtils/ShmManager.h</text>
</a>
</g>
</g>
<!-- Node1&#45;&gt;Node17 -->
<g id="edge20" class="edge">
<title>Node1&#45;&gt;Node17</title>
<path fill="none" stroke="#191970" d="M654.3465,-264.9155C481.0984,-259.4716 48.3669,-243.6617 27.1495,-221 17.7329,-210.9424 17.6961,-200.023 27.1495,-190 74.1157,-140.2042 573.9185,-159.4756 642.1495,-154 645.0262,-153.7691 647.9496,-153.5253 650.9008,-153.2711"/>
<polygon fill="#191970" stroke="#191970" points="651.3651,-156.7437 661.0155,-152.3712 650.7447,-149.7712 651.3651,-156.7437"/>
</g>
<!-- Node23 -->
<g id="node24" class="node">
<title>Node23</title>
<g id="a_node24"><a xlink:href="../../d0/d91/ShmAllocator_8h.html" target="_top" xlink:title="CommonUtils/ShmAllocator.h">
<polygon fill="none" stroke="#000000" points="1165.1495,-196 1165.1495,-215 1325.1495,-215 1325.1495,-196 1165.1495,-196"/>
<text text-anchor="middle" x="1245.1495" y="-203" font-family="Helvetica,sans-Serif" font-size="10.00" fill="#000000">CommonUtils/ShmAllocator.h</text>
</a>
</g>
</g>
<!-- Node1&#45;&gt;Node23 -->
<g id="edge26" class="edge">
<title>Node1&#45;&gt;Node23</title>
<path fill="none" stroke="#191970" d="M795.7752,-260.592C880.4002,-252.6325 1026.4013,-238.0068 1151.1495,-221 1160.6367,-219.7066 1170.6401,-218.2056 1180.4409,-216.6569"/>
<polygon fill="#191970" stroke="#191970" points="1181.2329,-220.0746 1190.551,-215.0325 1180.1224,-213.1633 1181.2329,-220.0746"/>
</g>
<!-- Node24 -->
<g id="node25" class="node">
<title>Node24</title>
<polygon fill="none" stroke="#bfbfbf" points="1173.1495,-134.5 1173.1495,-153.5 1225.1495,-153.5 1225.1495,-134.5 1173.1495,-134.5"/>
<text text-anchor="middle" x="1199.1495" y="-141.5" font-family="Helvetica,sans-Serif" font-size="10.00" fill="#000000">cassert</text>
</g>
<!-- Node1&#45;&gt;Node24 -->
<g id="edge31" class="edge">
<title>Node1&#45;&gt;Node24</title>
<path fill="none" stroke="#191970" d="M795.9353,-263.7103C892.038,-258.3785 1058.1271,-245.8441 1113.1495,-221 1128.9405,-213.8699 1162.6338,-181.2437 1182.8419,-160.8159"/>
<polygon fill="#191970" stroke="#191970" points="1185.3554,-163.2516 1189.8612,-153.6626 1180.3591,-158.3489 1185.3554,-163.2516"/>
</g>
<!-- Node25 -->
<g id="node26" class="node">
<title>Node25</title>
<polygon fill="none" stroke="#bfbfbf" points="36.1495,-196 36.1495,-215 102.1495,-215 102.1495,-196 36.1495,-196"/>
<text text-anchor="middle" x="69.1495" y="-203" font-family="Helvetica,sans-Serif" font-size="10.00" fill="#000000">sys/shm.h</text>
</g>
<!-- Node1&#45;&gt;Node25 -->
<g id="edge29" class="edge">
<title>Node1&#45;&gt;Node25</title>
<path fill="none" stroke="#191970" d="M654.5255,-264.1823C515.9361,-258.2459 212.9921,-243.1503 111.1495,-221 107.8837,-220.2897 104.5301,-219.3807 101.2102,-218.3598"/>
<polygon fill="#191970" stroke="#191970" points="102.0681,-214.9548 91.4737,-215.0482 99.814,-221.5819 102.0681,-214.9548"/>
</g>
<!-- Node26 -->
<g id="node27" class="node">
<title>Node26</title>
<polygon fill="none" stroke="#bfbfbf" points="120.1495,-196 120.1495,-215 176.1495,-215 176.1495,-196 120.1495,-196"/>
<text text-anchor="middle" x="148.1495" y="-203" font-family="Helvetica,sans-Serif" font-size="10.00" fill="#000000">unistd.h</text>
</g>
<!-- Node1&#45;&gt;Node26 -->
<g id="edge30" class="edge">
<title>Node1&#45;&gt;Node26</title>
<path fill="none" stroke="#191970" d="M654.28,-263.7051C528.7086,-257.411 272.183,-242.3765 185.1495,-221 182.5138,-220.3527 179.8233,-219.5432 177.1555,-218.6361"/>
<polygon fill="#191970" stroke="#191970" points="178.3238,-215.3357 167.7332,-215.0376 175.8263,-221.8751 178.3238,-215.3357"/>
</g>
<!-- Node8&#45;&gt;Node2 -->
<g id="edge10" class="edge">
<title>Node8&#45;&gt;Node2</title>
<path fill="none" stroke="#191970" d="M528.7878,-195.9627C515.143,-193.8693 500.6513,-191.7559 487.1495,-190 334.1973,-170.1082 150.2626,-152.9441 79.6883,-146.6067"/>
<polygon fill="#191970" stroke="#191970" points="79.6288,-143.0875 69.357,-145.6838 79.0059,-150.0597 79.6288,-143.0875"/>
</g>
<!-- Node8&#45;&gt;Node4 -->
<g id="edge12" class="edge">
<title>Node8&#45;&gt;Node4</title>
<path fill="none" stroke="#191970" d="M552.3057,-195.8906C513.5209,-185.1944 450.7518,-167.8836 408.4935,-156.2294"/>
<polygon fill="#191970" stroke="#191970" points="409.3192,-152.8265 398.7486,-153.5419 407.4581,-159.5746 409.3192,-152.8265"/>
</g>
<!-- Node8&#45;&gt;Node9 -->
<g id="edge9" class="edge">
<title>Node8&#45;&gt;Node9</title>
<path fill="none" stroke="#191970" d="M635.7956,-195.9212C684.5983,-186.1199 761.8308,-170.0873 828.1495,-154 920.3537,-131.6335 943.2029,-125.0296 1034.1495,-98 1037.2553,-97.0769 1040.4661,-96.0969 1043.6865,-95.0957"/>
<polygon fill="#191970" stroke="#191970" points="1044.8008,-98.4142 1053.2817,-92.0641 1042.6919,-91.7394 1044.8008,-98.4142"/>
</g>
<!-- Node10 -->
<g id="node11" class="node">
<title>Node10</title>
<polygon fill="none" stroke="#bfbfbf" points="540.6495,-134.5 540.6495,-153.5 633.6495,-153.5 633.6495,-134.5 540.6495,-134.5"/>
<text text-anchor="middle" x="587.1495" y="-141.5" font-family="Helvetica,sans-Serif" font-size="10.00" fill="#000000">unordered_map</text>
</g>
<!-- Node8&#45;&gt;Node10 -->
<g id="edge11" class="edge">
<title>Node8&#45;&gt;Node10</title>
<path fill="none" stroke="#191970" d="M587.1495,-195.8906C587.1495,-187.3657 587.1495,-174.6392 587.1495,-163.9235"/>
<polygon fill="#191970" stroke="#191970" points="590.6496,-163.7448 587.1495,-153.7449 583.6496,-163.7449 590.6496,-163.7448"/>
</g>
<!-- Node11 -->
<g id="node12" class="node">
<title>Node11</title>
<polygon fill="none" stroke="#bfbfbf" points="1129.6495,-73 1129.6495,-92 1178.6495,-92 1178.6495,-73 1129.6495,-73"/>
<text text-anchor="middle" x="1154.1495" y="-80" font-family="Helvetica,sans-Serif" font-size="10.00" fill="#000000">iosfwd</text>
</g>
<!-- Node8&#45;&gt;Node11 -->
<g id="edge13" class="edge">
<title>Node8&#45;&gt;Node11</title>
<path fill="none" stroke="#191970" d="M647.302,-195.9721C706.8553,-186.3019 800.5485,-170.4495 881.1495,-154 988.4692,-132.0976 1017.6767,-133.9251 1121.1495,-98 1122.7938,-97.4291 1124.4657,-96.802 1126.1403,-96.1373"/>
<polygon fill="#191970" stroke="#191970" points="1127.7986,-99.2334 1135.5863,-92.05 1125.0187,-92.8091 1127.7986,-99.2334"/>
</g>
<!-- Node18 -->
<g id="node19" class="node">
<title>Node18</title>
<polygon fill="none" stroke="#bfbfbf" points="993.1495,-73 993.1495,-92 1025.1495,-92 1025.1495,-73 993.1495,-73"/>
<text text-anchor="middle" x="1009.1495" y="-80" font-family="Helvetica,sans-Serif" font-size="10.00" fill="#000000">list</text>
</g>
<!-- Node17&#45;&gt;Node18 -->
<g id="edge21" class="edge">
<title>Node17&#45;&gt;Node18</title>
<path fill="none" stroke="#191970" d="M819.3793,-136.5493C868.137,-130.1538 931.2127,-118.5728 984.1495,-98 985.0033,-97.6682 985.8602,-97.3068 986.7156,-96.9215"/>
<polygon fill="#191970" stroke="#191970" points="988.456,-99.9597 995.6108,-92.1456 985.1447,-93.7924 988.456,-99.9597"/>
</g>
<!-- Node19 -->
<g id="node20" class="node">
<title>Node19</title>
<polygon fill="none" stroke="#bfbfbf" points="517.6495,-73 517.6495,-92 570.6495,-92 570.6495,-73 517.6495,-73"/>
<text text-anchor="middle" x="544.1495" y="-80" font-family="Helvetica,sans-Serif" font-size="10.00" fill="#000000">cstddef</text>
</g>
<!-- Node17&#45;&gt;Node19 -->
<g id="edge22" class="edge">
<title>Node17&#45;&gt;Node19</title>
<path fill="none" stroke="#191970" d="M701.8959,-134.4611C669.2091,-125.9648 621.1109,-112.6399 580.1495,-98 578.3233,-97.3473 576.4575,-96.6478 574.5836,-95.9201"/>
<polygon fill="#191970" stroke="#191970" points="575.8734,-92.6662 565.292,-92.1314 573.2303,-99.1481 575.8734,-92.6662"/>
</g>
<!-- Node20 -->
<g id="node21" class="node">
<title>Node20</title>
<polygon fill="none" stroke="#bfbfbf" points="589.1495,-73 589.1495,-92 639.1495,-92 639.1495,-73 589.1495,-73"/>
<text text-anchor="middle" x="614.1495" y="-80" font-family="Helvetica,sans-Serif" font-size="10.00" fill="#000000">atomic</text>
</g>
<!-- Node17&#45;&gt;Node20 -->
<g id="edge23" class="edge">
<title>Node17&#45;&gt;Node20</title>
<path fill="none" stroke="#191970" d="M720.462,-134.3906C699.6573,-124.2359 666.6385,-108.1196 642.9176,-96.5416"/>
<polygon fill="#191970" stroke="#191970" points="644.2206,-93.283 633.6987,-92.0419 641.1502,-99.5736 644.2206,-93.283"/>
</g>
<!-- Node21 -->
<g id="node22" class="node">
<title>Node21</title>
<polygon fill="none" stroke="#bfbfbf" points="657.6495,-67.5 657.6495,-97.5 822.6495,-97.5 822.6495,-67.5 657.6495,-67.5"/>
<text text-anchor="start" x="665.6495" y="-85.5" font-family="Helvetica,sans-Serif" font-size="10.00" fill="#000000">boost/interprocess</text>
<text text-anchor="middle" x="740.1495" y="-74.5" font-family="Helvetica,sans-Serif" font-size="10.00" fill="#000000">/managed_external_buffer.hpp</text>
</g>
<!-- Node17&#45;&gt;Node21 -->
<g id="edge24" class="edge">
<title>Node17&#45;&gt;Node21</title>
<path fill="none" stroke="#191970" d="M740.1495,-134.3906C740.1495,-127.2234 740.1495,-117.0862 740.1495,-107.671"/>
<polygon fill="#191970" stroke="#191970" points="743.6496,-107.5446 740.1495,-97.5446 736.6496,-107.5446 743.6496,-107.5446"/>
</g>
<!-- Node22 -->
<g id="node23" class="node">
<title>Node22</title>
<polygon fill="none" stroke="#bfbfbf" points="841.1495,-67.5 841.1495,-97.5 975.1495,-97.5 975.1495,-67.5 841.1495,-67.5"/>
<text text-anchor="start" x="849.1495" y="-85.5" font-family="Helvetica,sans-Serif" font-size="10.00" fill="#000000">boost/interprocess</text>
<text text-anchor="middle" x="908.1495" y="-74.5" font-family="Helvetica,sans-Serif" font-size="10.00" fill="#000000">/allocators/allocator.hpp</text>
</g>
<!-- Node17&#45;&gt;Node22 -->
<g id="edge25" class="edge">
<title>Node17&#45;&gt;Node22</title>
<path fill="none" stroke="#191970" d="M766.3995,-134.3906C790.7152,-125.4893 827.5442,-112.0073 857.5678,-101.0165"/>
<polygon fill="#191970" stroke="#191970" points="858.8647,-104.269 867.0521,-97.5446 856.4583,-97.6956 858.8647,-104.269"/>
</g>
<!-- Node23&#45;&gt;Node17 -->
<g id="edge27" class="edge">
<title>Node23&#45;&gt;Node17</title>
<path fill="none" stroke="#191970" d="M1167.0738,-195.9918C1075.4911,-184.8386 924.0411,-166.3947 828.3105,-154.7364"/>
<polygon fill="#191970" stroke="#191970" points="828.7113,-151.2595 818.3615,-153.5248 827.865,-158.2081 828.7113,-151.2595"/>
</g>
<!-- Node23&#45;&gt;Node24 -->
<g id="edge28" class="edge">
<title>Node23&#45;&gt;Node24</title>
<path fill="none" stroke="#191970" d="M1237.962,-195.8906C1231.1829,-186.8273 1220.8517,-173.0149 1212.5521,-161.9188"/>
<polygon fill="#191970" stroke="#191970" points="1215.2307,-159.6563 1206.4383,-153.7449 1209.6252,-163.849 1215.2307,-159.6563"/>
</g>
<!-- Node29&#45;&gt;Node3 -->
<g id="edge49" class="edge">
<title>Node29&#45;&gt;Node3</title>
<path fill="none" stroke="#191970" d="M1610.6495,-257.3906C1579.5458,-246.522 1528.8979,-228.824 1495.5481,-217.1705"/>
<polygon fill="#191970" stroke="#191970" points="1496.3891,-213.7569 1485.7942,-213.7622 1494.0799,-220.3651 1496.3891,-213.7569"/>
</g>
<!-- Node29&#45;&gt;Node23 -->
<g id="edge50" class="edge">
<title>Node29&#45;&gt;Node23</title>
<path fill="none" stroke="#191970" d="M1577.1744,-257.4581C1506.6491,-246.4217 1390.7121,-228.2789 1316.1776,-216.6151"/>
<polygon fill="#191970" stroke="#191970" points="1316.3651,-213.1019 1305.9442,-215.0137 1315.2828,-220.0177 1316.3651,-213.1019"/>
</g>
<!-- Node30 -->
<g id="node31" class="node">
<title>Node30</title>
<g id="a_node31"><a xlink:href="../../d4/d25/BaseHits_8h.html" target="_top" xlink:title="SimulationDataFormat\l/BaseHits.h">
<polygon fill="none" stroke="#000000" points="1559.6495,-190.5 1559.6495,-220.5 1686.6495,-220.5 1686.6495,-190.5 1559.6495,-190.5"/>
<text text-anchor="start" x="1567.6495" y="-208.5" font-family="Helvetica,sans-Serif" font-size="10.00" fill="#000000">SimulationDataFormat</text>
<text text-anchor="middle" x="1623.1495" y="-197.5" font-family="Helvetica,sans-Serif" font-size="10.00" fill="#000000">/BaseHits.h</text>
</a>
</g>
</g>
<!-- Node29&#45;&gt;Node30 -->
<g id="edge36" class="edge">
<title>Node29&#45;&gt;Node30</title>
<path fill="none" stroke="#191970" d="M1635.8057,-257.3906C1634.0388,-250.1463 1631.5319,-239.8679 1629.2147,-230.3676"/>
<polygon fill="#191970" stroke="#191970" points="1632.5889,-229.4304 1626.8189,-220.5446 1625.7882,-231.0892 1632.5889,-229.4304"/>
</g>
<!-- Node31 -->
<g id="node32" class="node">
<title>Node31</title>
<g id="a_node32"><a xlink:href="../../dd/d76/Cartesian3D_8h.html" target="_top" xlink:title="MathUtils/Cartesian3D.h">
<polygon fill="none" stroke="#000000" points="1555.6495,-134.5 1555.6495,-153.5 1690.6495,-153.5 1690.6495,-134.5 1555.6495,-134.5"/>
<text text-anchor="middle" x="1623.1495" y="-141.5" font-family="Helvetica,sans-Serif" font-size="10.00" fill="#000000">MathUtils/Cartesian3D.h</text>
</a>
</g>
</g>
<!-- Node30&#45;&gt;Node31 -->
<g id="edge37" class="edge">
<title>Node30&#45;&gt;Node31</title>
<path fill="none" stroke="#191970" d="M1623.1495,-190.2977C1623.1495,-182.3834 1623.1495,-172.6043 1623.1495,-164.0759"/>
<polygon fill="#191970" stroke="#191970" points="1626.6496,-163.8469 1623.1495,-153.8469 1619.6496,-163.847 1626.6496,-163.8469"/>
</g>
<!-- Node31&#45;&gt;Node9 -->
<g id="edge43" class="edge">
<title>Node31&#45;&gt;Node9</title>
<path fill="none" stroke="#191970" d="M1555.4517,-140.2066C1438.1176,-133.2298 1201.7967,-117.2949 1121.1495,-98 1118.3594,-97.3325 1115.5049,-96.5036 1112.6719,-95.5788"/>
<polygon fill="#191970" stroke="#191970" points="1113.8415,-92.2799 1103.2473,-92.1601 1111.4545,-98.8604 1113.8415,-92.2799"/>
</g>
<!-- Node31&#45;&gt;Node11 -->
<g id="edge45" class="edge">
<title>Node31&#45;&gt;Node11</title>
<path fill="none" stroke="#191970" d="M1555.2713,-139.4978C1450.7833,-132.1153 1255.5488,-116.4029 1188.1495,-98 1186.1782,-97.4617 1184.1772,-96.8213 1182.1837,-96.1119"/>
<polygon fill="#191970" stroke="#191970" points="1183.0322,-92.6782 1172.4508,-92.1449 1180.3901,-99.1605 1183.0322,-92.6782"/>
</g>
<!-- Node32 -->
<g id="node33" class="node">
<title>Node32</title>
<polygon fill="none" stroke="#bfbfbf" points="1488.1495,-67.5 1488.1495,-97.5 1652.1495,-97.5 1652.1495,-67.5 1488.1495,-67.5"/>
<text text-anchor="start" x="1496.1495" y="-85.5" font-family="Helvetica,sans-Serif" font-size="10.00" fill="#000000">Math/GenVector/Displacement</text>
<text text-anchor="middle" x="1570.1495" y="-74.5" font-family="Helvetica,sans-Serif" font-size="10.00" fill="#000000">Vector3D.h</text>
</g>
<!-- Node31&#45;&gt;Node32 -->
<g id="edge38" class="edge">
<title>Node31&#45;&gt;Node32</title>
<path fill="none" stroke="#191970" d="M1614.8682,-134.3906C1608.1602,-126.6068 1598.4336,-115.3202 1589.7635,-105.2597"/>
<polygon fill="#191970" stroke="#191970" points="1592.2943,-102.8349 1583.1147,-97.5446 1586.9916,-107.4046 1592.2943,-102.8349"/>
</g>
<!-- Node33 -->
<g id="node34" class="node">
<title>Node33</title>
<polygon fill="none" stroke="#bfbfbf" points="1670.6495,-73 1670.6495,-92 1859.6495,-92 1859.6495,-73 1670.6495,-73"/>
<text text-anchor="middle" x="1765.1495" y="-80" font-family="Helvetica,sans-Serif" font-size="10.00" fill="#000000">Math/GenVector/PositionVector3D.h</text>
</g>
<!-- Node31&#45;&gt;Node33 -->
<g id="edge39" class="edge">
<title>Node31&#45;&gt;Node33</title>
<path fill="none" stroke="#191970" d="M1645.337,-134.3906C1669.0962,-124.1005 1706.99,-107.6888 1733.7919,-96.0809"/>
<polygon fill="#191970" stroke="#191970" points="1735.3324,-99.2279 1743.1178,-92.0419 1732.5504,-92.8045 1735.3324,-99.2279"/>
</g>
<!-- Node34 -->
<g id="node35" class="node">
<title>Node34</title>
<polygon fill="none" stroke="#bfbfbf" points="1878.1495,-73 1878.1495,-92 2038.1495,-92 2038.1495,-73 1878.1495,-73"/>
<text text-anchor="middle" x="1958.1495" y="-80" font-family="Helvetica,sans-Serif" font-size="10.00" fill="#000000">Math/GenVector/Rotation3D.h</text>
</g>
<!-- Node31&#45;&gt;Node34 -->
<g id="edge40" class="edge">
<title>Node31&#45;&gt;Node34</title>
<path fill="none" stroke="#191970" d="M1675.1257,-134.4581C1734.8739,-123.4894 1832.8582,-105.5012 1896.4306,-93.8305"/>
<polygon fill="#191970" stroke="#191970" points="1897.1234,-97.2619 1906.327,-92.0137 1895.8594,-90.3769 1897.1234,-97.2619"/>
</g>
<!-- Node35 -->
<g id="node36" class="node">
<title>Node35</title>
<polygon fill="none" stroke="#bfbfbf" points="2056.1495,-73 2056.1495,-92 2224.1495,-92 2224.1495,-73 2056.1495,-73"/>
<text text-anchor="middle" x="2140.1495" y="-80" font-family="Helvetica,sans-Serif" font-size="10.00" fill="#000000">Math/GenVector/Transform3D.h</text>
</g>
<!-- Node31&#45;&gt;Node35 -->
<g id="edge41" class="edge">
<title>Node31&#45;&gt;Node35</title>
<path fill="none" stroke="#191970" d="M1690.8547,-137.8566C1774.6722,-129.9746 1921.7154,-115.2427 2047.1495,-98 2056.5371,-96.7095 2066.4347,-95.2101 2076.1316,-93.6622"/>
<polygon fill="#191970" stroke="#191970" points="2076.8245,-97.0956 2086.1343,-92.0382 2075.7027,-90.1861 2076.8245,-97.0956"/>
</g>
<!-- Node36 -->
<g id="node37" class="node">
<title>Node36</title>
<polygon fill="none" stroke="#bfbfbf" points="1196.6495,-73 1196.6495,-92 1369.6495,-92 1369.6495,-73 1196.6495,-73"/>
<text text-anchor="middle" x="1283.1495" y="-80" font-family="Helvetica,sans-Serif" font-size="10.00" fill="#000000">Math/GenVector/Translation3D.h</text>
</g>
<!-- Node31&#45;&gt;Node36 -->
<g id="edge42" class="edge">
<title>Node31&#45;&gt;Node36</title>
<path fill="none" stroke="#191970" d="M1570.3975,-134.4581C1509.7576,-123.4894 1410.3108,-105.5012 1345.7895,-93.8305"/>
<polygon fill="#191970" stroke="#191970" points="1346.2088,-90.3496 1335.7454,-92.0137 1344.9627,-97.2378 1346.2088,-90.3496"/>
</g>
<!-- Node37 -->
<g id="node38" class="node">
<title>Node37</title>
<polygon fill="none" stroke="#bfbfbf" points="1388.1495,-73 1388.1495,-92 1470.1495,-92 1470.1495,-73 1388.1495,-73"/>
<text text-anchor="middle" x="1429.1495" y="-80" font-family="Helvetica,sans-Serif" font-size="10.00" fill="#000000">TGeoMatrix.h</text>
</g>
<!-- Node31&#45;&gt;Node37 -->
<g id="edge44" class="edge">
<title>Node31&#45;&gt;Node37</title>
<path fill="none" stroke="#191970" d="M1592.837,-134.3906C1559.523,-123.8298 1505.8687,-106.8208 1469.1314,-95.1747"/>
<polygon fill="#191970" stroke="#191970" points="1469.8393,-91.7275 1459.2491,-92.0419 1467.7239,-98.4002 1469.8393,-91.7275"/>
</g>
<!-- Node38 -->
<g id="node39" class="node">
<title>Node38</title>
<g id="a_node39"><a xlink:href="../../d2/dd0/Cartesian2D_8h.html" target="_top" xlink:title="MathUtils/Cartesian2D.h">
<polygon fill="none" stroke="#000000" points="2242.6495,-73 2242.6495,-92 2377.6495,-92 2377.6495,-73 2242.6495,-73"/>
<text text-anchor="middle" x="2310.1495" y="-80" font-family="Helvetica,sans-Serif" font-size="10.00" fill="#000000">MathUtils/Cartesian2D.h</text>
</a>
</g>
</g>
<!-- Node31&#45;&gt;Node38 -->
<g id="edge46" class="edge">
<title>Node31&#45;&gt;Node38</title>
<path fill="none" stroke="#191970" d="M1690.7157,-139.9615C1826.862,-131.6499 2129.9789,-112.2188 2233.1495,-98 2241.1206,-96.9014 2249.508,-95.4858 2257.6963,-93.9576"/>
<polygon fill="#191970" stroke="#191970" points="2258.3915,-97.3881 2267.5442,-92.0515 2257.0613,-90.5157 2258.3915,-97.3881"/>
</g>
<!-- Node39 -->
<g id="node40" class="node">
<title>Node39</title>
<polygon fill="none" stroke="#bfbfbf" points="2130.1495,-.5 2130.1495,-30.5 2294.1495,-30.5 2294.1495,-.5 2130.1495,-.5"/>
<text text-anchor="start" x="2138.1495" y="-18.5" font-family="Helvetica,sans-Serif" font-size="10.00" fill="#000000">Math/GenVector/Displacement</text>
<text text-anchor="middle" x="2212.1495" y="-7.5" font-family="Helvetica,sans-Serif" font-size="10.00" fill="#000000">Vector2D.h</text>
</g>
<!-- Node38&#45;&gt;Node39 -->
<g id="edge47" class="edge">
<title>Node38&#45;&gt;Node39</title>
<path fill="none" stroke="#191970" d="M2296.1085,-72.9005C2282.1907,-63.3853 2260.4215,-48.5023 2242.5375,-36.2755"/>
<polygon fill="#191970" stroke="#191970" points="2244.3521,-33.2763 2234.1216,-30.5218 2240.4014,-39.0549 2244.3521,-33.2763"/>
</g>
<!-- Node40 -->
<g id="node41" class="node">
<title>Node40</title>
<polygon fill="none" stroke="#bfbfbf" points="2312.6495,-6 2312.6495,-25 2501.6495,-25 2501.6495,-6 2312.6495,-6"/>
<text text-anchor="middle" x="2407.1495" y="-13" font-family="Helvetica,sans-Serif" font-size="10.00" fill="#000000">Math/GenVector/PositionVector2D.h</text>
</g>
<!-- Node38&#45;&gt;Node40 -->
<g id="edge48" class="edge">
<title>Node38&#45;&gt;Node40</title>
<path fill="none" stroke="#191970" d="M2324.0472,-72.9005C2339.9659,-61.9052 2366.2616,-43.7422 2385.0094,-30.7927"/>
<polygon fill="#191970" stroke="#191970" points="2387.0386,-33.6448 2393.2775,-25.0817 2383.0603,-27.8852 2387.0386,-33.6448"/>
</g>
<!-- Node42 -->
<g id="node43" class="node">
<title>Node42</title>
<g id="a_node43"><a xlink:href="../../d0/dda/DataFormats_2Detectors_2TPC_2include_2DataFormatsTPC_2Constants_8h.html" target="_top" xlink:title="DataFormatsTPC/Constants.h">
<polygon fill="none" stroke="#000000" points="1704.6495,-196 1704.6495,-215 1863.6495,-215 1863.6495,-196 1704.6495,-196"/>
<text text-anchor="middle" x="1784.1495" y="-203" font-family="Helvetica,sans-Serif" font-size="10.00" fill="#000000">DataFormatsTPC/Constants.h</text>
</a>
</g>
</g>
<!-- Node41&#45;&gt;Node42 -->
<g id="edge52" class="edge">
<title>Node41&#45;&gt;Node42</title>
<path fill="none" stroke="#191970" d="M1784.1495,-257.3906C1784.1495,-248.8657 1784.1495,-236.1392 1784.1495,-225.4235"/>
<polygon fill="#191970" stroke="#191970" points="1787.6496,-225.2448 1784.1495,-215.2449 1780.6496,-225.2449 1787.6496,-225.2448"/>
</g>
<!-- Node43 -->
<g id="node44" class="node">
<title>Node43</title>
<g id="a_node44"><a xlink:href="../../d1/d73/Defs_8h.html" target="_top" xlink:title="Common definitions for 2D coordinates. ">
<polygon fill="none" stroke="#000000" points="1881.6495,-196 1881.6495,-215 2014.6495,-215 2014.6495,-196 1881.6495,-196"/>
<text text-anchor="middle" x="1948.1495" y="-203" font-family="Helvetica,sans-Serif" font-size="10.00" fill="#000000">DataFormatsTPC/Defs.h</text>
</a>
</g>
</g>
<!-- Node41&#45;&gt;Node43 -->
<g id="edge53" class="edge">
<title>Node41&#45;&gt;Node43</title>
<path fill="none" stroke="#191970" d="M1809.7745,-257.3906C1837.5757,-246.9652 1882.1339,-230.2559 1913.1489,-218.6252"/>
<polygon fill="#191970" stroke="#191970" points="1914.5701,-221.8303 1922.7044,-215.0419 1912.1122,-215.276 1914.5701,-221.8303"/>
</g>
<!-- Node43&#45;&gt;Node31 -->
<g id="edge57" class="edge">
<title>Node43&#45;&gt;Node31</title>
<path fill="none" stroke="#191970" d="M1902.9691,-195.9964C1893.1467,-193.9768 1882.8061,-191.886 1873.1495,-190 1809.9362,-177.6539 1737.5454,-164.4342 1686.9863,-155.3496"/>
<polygon fill="#191970" stroke="#191970" points="1687.3187,-151.8534 1676.8578,-153.5325 1686.0826,-158.7434 1687.3187,-151.8534"/>
</g>
<!-- Node43&#45;&gt;Node38 -->
<g id="edge56" class="edge">
<title>Node43&#45;&gt;Node38</title>
<path fill="none" stroke="#191970" d="M1954.2628,-195.9898C1964.9413,-180.2457 1988.5984,-149.0156 2017.1495,-134 2103.2874,-88.6982 2137.4309,-115.6055 2233.1495,-98 2239.9075,-96.757 2246.9884,-95.4028 2254.0033,-94.0293"/>
<polygon fill="#191970" stroke="#191970" points="2255.058,-97.3886 2264.1884,-92.0139 2253.6991,-90.5217 2255.058,-97.3886"/>
</g>
<!-- Node44 -->
<g id="node45" class="node">
<title>Node44</title>
<polygon fill="none" stroke="#bfbfbf" points="2025.6495,-134.5 2025.6495,-153.5 2072.6495,-153.5 2072.6495,-134.5 2025.6495,-134.5"/>
<text text-anchor="middle" x="2049.1495" y="-141.5" font-family="Helvetica,sans-Serif" font-size="10.00" fill="#000000">cmath</text>
</g>
<!-- Node43&#45;&gt;Node44 -->
<g id="edge54" class="edge">
<title>Node43&#45;&gt;Node44</title>
<path fill="none" stroke="#191970" d="M1963.9307,-195.8906C1980.2369,-185.9616 2005.9035,-170.333 2024.8108,-158.8201"/>
<polygon fill="#191970" stroke="#191970" points="2026.7582,-161.7322 2033.479,-153.5419 2023.1176,-155.7533 2026.7582,-161.7322"/>
</g>
<!-- Node45 -->
<g id="node46" class="node">
<title>Node45</title>
<g id="a_node46"><a xlink:href="../../d1/da8/GPUROOTCartesianFwd_8h.html" target="_top" xlink:title="GPUROOTCartesianFwd.h">
<polygon fill="none" stroke="#000000" points="1829.1495,-134.5 1829.1495,-153.5 1969.1495,-153.5 1969.1495,-134.5 1829.1495,-134.5"/>
<text text-anchor="middle" x="1899.1495" y="-141.5" font-family="Helvetica,sans-Serif" font-size="10.00" fill="#000000">GPUROOTCartesianFwd.h</text>
</a>
</g>
</g>
<!-- Node43&#45;&gt;Node45 -->
<g id="edge55" class="edge">
<title>Node43&#45;&gt;Node45</title>
<path fill="none" stroke="#191970" d="M1940.4932,-195.8906C1933.2005,-186.7376 1922.0487,-172.7409 1913.1643,-161.59"/>
<polygon fill="#191970" stroke="#191970" points="1915.8825,-159.3849 1906.9137,-153.7449 1910.4078,-163.747 1915.8825,-159.3849"/>
</g>
</g>
</svg>
