<?xml version="1.0" encoding="UTF-8" standalone="no"?>
<!DOCTYPE svg PUBLIC "-//W3C//DTD SVG 1.1//EN"
 "http://www.w3.org/Graphics/SVG/1.1/DTD/svg11.dtd">
<!-- Generated by graphviz version 2.40.1 (20161225.0304)
 -->
<!-- Title: /home/travis/build/AliceO2Group/AliceO2/Detectors/MUON/MCH/Simulation/test/testDigitization.cxx Pages: 1 -->
<!--zoomable 452 -->
<svg id="main" version="1.1" xmlns="http://www.w3.org/2000/svg" xmlns:xlink="http://www.w3.org/1999/xlink" xml:space="preserve" onload="init(evt)">
<style type="text/css"><![CDATA[
.edge:hover path { stroke: red; }
.edge:hover polygon { stroke: red; fill: red; }
]]></style>
<script type="text/javascript"><![CDATA[
var edges = document.getElementsByTagName('g');
if (edges && edges.length) {
  for (var i=0;i<edges.length;i++) {
    if (edges[i].id.substr(0,4)=='edge') {
      edges[i].setAttribute('class','edge');
    }
  }
}
]]></script>
        <defs>
                <circle id="rim" cx="0" cy="0" r="7"/>
                <circle id="rim2" cx="0" cy="0" r="3.5"/>
                <g id="zoomPlus">
                        <use xlink:href="#rim" fill="#404040">
                                <set attributeName="fill" to="#808080" begin="zoomplus.mouseover" end="zoomplus.mouseout"/>
                        </use>
                        <path d="M-4,0h8M0,-4v8" fill="none" stroke="white" stroke-width="1.5" pointer-events="none"/>
                </g>
                <g id="zoomMin">
                        <use xlink:href="#rim" fill="#404040">
                                <set attributeName="fill" to="#808080" begin="zoomminus.mouseover" end="zoomminus.mouseout"/>
                        </use>
                        <path d="M-4,0h8" fill="none" stroke="white" stroke-width="1.5" pointer-events="none"/>
                </g>
                <g id="dirArrow">
                        <path fill="none" stroke="white" stroke-width="1.5" d="M0,-3.0v7 M-2.5,-0.5L0,-3.0L2.5,-0.5"/>
                </g>
               <g id="resetDef">
                       <use xlink:href="#rim2" fill="#404040">
                               <set attributeName="fill" to="#808080" begin="reset.mouseover" end="reset.mouseout"/>
                       </use>
               </g>
        </defs>

<script type="text/javascript">
var viewWidth = 1956;
var viewHeight = 452;
var sectionId = 'dynsection-0';
</script>
<script xlink:href="../../svgpan.js"/>
<svg id="graph" class="graph">
<g id="viewport">
<title>/home/travis/build/AliceO2Group/AliceO2/Detectors/MUON/MCH/Simulation/test/testDigitization.cxx</title>
<!-- Node0 -->
<g id="node1" class="node">
<title>Node0</title>
<polygon fill="#bfbfbf" stroke="#000000" points="964,-391.5 964,-443.5 1146,-443.5 1146,-391.5 964,-391.5"/>
<text text-anchor="start" x="972" y="-431.5" font-family="Helvetica,sans-Serif" font-size="10.00" fill="#000000">/home/travis/build</text>
<text text-anchor="start" x="972" y="-420.5" font-family="Helvetica,sans-Serif" font-size="10.00" fill="#000000">/AliceO2Group/AliceO2</text>
<text text-anchor="start" x="972" y="-409.5" font-family="Helvetica,sans-Serif" font-size="10.00" fill="#000000">/Detectors/MUON/MCH/Simulation</text>
<text text-anchor="middle" x="1055" y="-398.5" font-family="Helvetica,sans-Serif" font-size="10.00" fill="#000000">/test/testDigitization.cxx</text>
</g>
<!-- Node1 -->
<g id="node2" class="node">
<title>Node1</title>
<polygon fill="none" stroke="#bfbfbf" points="528,-330 528,-349 660,-349 660,-330 528,-330"/>
<text text-anchor="middle" x="594" y="-337" font-family="Helvetica,sans-Serif" font-size="10.00" fill="#000000">boost/test/unit_test.hpp</text>
</g>
<!-- Node0&#45;&gt;Node1 -->
<g id="edge1" class="edge">
<title>Node0&#45;&gt;Node1</title>
<path fill="none" stroke="#191970" d="M963.9489,-403.8946C885.6088,-391.917 769.6459,-373.5392 669,-355 662.4109,-353.7863 655.5099,-352.4498 648.6751,-351.086"/>
<polygon fill="#191970" stroke="#191970" points="649.248,-347.631 638.7526,-349.0793 647.8603,-354.4921 649.248,-347.631"/>
</g>
<!-- Node2 -->
<g id="node3" class="node">
<title>Node2</title>
<polygon fill="none" stroke="#bfbfbf" points="678,-330 678,-349 770,-349 770,-330 678,-330"/>
<text text-anchor="middle" x="724" y="-337" font-family="Helvetica,sans-Serif" font-size="10.00" fill="#000000">TGeoManager.h</text>
</g>
<!-- Node0&#45;&gt;Node2 -->
<g id="edge2" class="edge">
<title>Node0&#45;&gt;Node2</title>
<path fill="none" stroke="#191970" d="M963.9079,-397.1159C911.2564,-385.1778 843.801,-369.6175 784,-355 779.5894,-353.9219 775.0023,-352.778 770.4169,-351.6193"/>
<polygon fill="#191970" stroke="#191970" points="771.005,-348.1574 760.4503,-349.0789 769.276,-354.9405 771.005,-348.1574"/>
</g>
<!-- Node3 -->
<g id="node4" class="node">
<title>Node3</title>
<g id="a_node4"><a xlink:href="../../d8/d72/Detectors_2MUON_2MCH_2Base_2include_2MCHBase_2Digit_8h.html" target="_top" xlink:title="MCHBase/Digit.h">
<polygon fill="none" stroke="#000000" points="617,-263 617,-282 715,-282 715,-263 617,-263"/>
<text text-anchor="middle" x="666" y="-270" font-family="Helvetica,sans-Serif" font-size="10.00" fill="#000000">MCHBase/Digit.h</text>
</a>
</g>
</g>
<!-- Node0&#45;&gt;Node3 -->
<g id="edge3" class="edge">
<title>Node0&#45;&gt;Node3</title>
<path fill="none" stroke="#191970" d="M963.8593,-401.4736C919.3731,-391.5977 865.9019,-376.6026 821,-355 800.0931,-344.9415 798.9974,-335.7634 779,-324 753.6346,-309.0789 723.1925,-295.428 700.299,-285.9349"/>
<polygon fill="#191970" stroke="#191970" points="701.5674,-282.6723 690.9865,-282.1294 698.9195,-289.1522 701.5674,-282.6723"/>
</g>
<!-- Node5 -->
<g id="node6" class="node">
<title>Node5</title>
<g id="a_node6"><a xlink:href="../../da/d5e/MUON_2MCH_2Simulation_2include_2MCHSimulation_2Digitizer_8h.html" target="_top" xlink:title="MCHSimulation/Digitizer.h">
<polygon fill="none" stroke="#000000" points="864,-330 864,-349 1008,-349 1008,-330 864,-330"/>
<text text-anchor="middle" x="936" y="-337" font-family="Helvetica,sans-Serif" font-size="10.00" fill="#000000">MCHSimulation/Digitizer.h</text>
</a>
</g>
</g>
<!-- Node0&#45;&gt;Node5 -->
<g id="edge5" class="edge">
<title>Node0&#45;&gt;Node5</title>
<path fill="none" stroke="#191970" d="M1015.0437,-391.3101C996.5303,-379.1753 975.1771,-365.1791 959.335,-354.7952"/>
<polygon fill="#191970" stroke="#191970" points="960.9896,-351.6949 950.7074,-349.1401 957.1522,-357.5493 960.9896,-351.6949"/>
</g>
<!-- Node6 -->
<g id="node7" class="node">
<title>Node6</title>
<g id="a_node7"><a xlink:href="../../d5/daf/Detectors_2MUON_2MCH_2Simulation_2include_2MCHSimulation_2Hit_8h.html" target="_top" xlink:title="MCHSimulation/Hit.h">
<polygon fill="none" stroke="#000000" points="733,-263 733,-282 851,-282 851,-263 733,-263"/>
<text text-anchor="middle" x="792" y="-270" font-family="Helvetica,sans-Serif" font-size="10.00" fill="#000000">MCHSimulation/Hit.h</text>
</a>
</g>
</g>
<!-- Node0&#45;&gt;Node6 -->
<g id="edge42" class="edge">
<title>Node0&#45;&gt;Node6</title>
<path fill="none" stroke="#191970" d="M963.7738,-401.5119C927.6223,-392.1077 887.1112,-377.4792 855,-355 831.1131,-338.2782 812.2549,-309.7389 801.6106,-290.9994"/>
<polygon fill="#191970" stroke="#191970" points="804.6743,-289.307 796.8098,-282.2076 798.5305,-292.6618 804.6743,-289.307"/>
</g>
<!-- Node27 -->
<g id="node28" class="node">
<title>Node27</title>
<g id="a_node28"><a xlink:href="../../d7/dcd/MCCompLabel_8h.html" target="_top" xlink:title="SimulationDataFormat\l/MCCompLabel.h">
<polygon fill="none" stroke="#000000" points="869.5,-257.5 869.5,-287.5 996.5,-287.5 996.5,-257.5 869.5,-257.5"/>
<text text-anchor="start" x="877.5" y="-275.5" font-family="Helvetica,sans-Serif" font-size="10.00" fill="#000000">SimulationDataFormat</text>
<text text-anchor="middle" x="933" y="-264.5" font-family="Helvetica,sans-Serif" font-size="10.00" fill="#000000">/MCCompLabel.h</text>
</a>
</g>
</g>
<!-- Node0&#45;&gt;Node27 -->
<g id="edge60" class="edge">
<title>Node0&#45;&gt;Node27</title>
<path fill="none" stroke="#191970" d="M1049.1468,-391.3528C1043.58,-371.1778 1033.5472,-343.5099 1017,-324 1006.1991,-311.2652 991.4215,-300.7541 977.2704,-292.6226"/>
<polygon fill="#191970" stroke="#191970" points="978.5643,-289.3415 968.1097,-287.6232 975.2109,-295.486 978.5643,-289.3415"/>
</g>
<!-- Node29 -->
<g id="node30" class="node">
<title>Node29</title>
<g id="a_node30"><a xlink:href="../../db/d14/MCTruthContainer_8h.html" target="_top" xlink:title="Definition of a container to keep Monte Carlo truth external to simulation objects. ">
<polygon fill="none" stroke="#000000" points="1014.5,-257.5 1014.5,-287.5 1141.5,-287.5 1141.5,-257.5 1014.5,-257.5"/>
<text text-anchor="start" x="1022.5" y="-275.5" font-family="Helvetica,sans-Serif" font-size="10.00" fill="#000000">SimulationDataFormat</text>
<text text-anchor="middle" x="1078" y="-264.5" font-family="Helvetica,sans-Serif" font-size="10.00" fill="#000000">/MCTruthContainer.h</text>
</a>
</g>
</g>
<!-- Node0&#45;&gt;Node29 -->
<g id="edge61" class="edge">
<title>Node0&#45;&gt;Node29</title>
<path fill="none" stroke="#191970" d="M1059.1651,-391.2416C1063.3749,-364.702 1069.8352,-323.9737 1073.989,-297.787"/>
<polygon fill="#191970" stroke="#191970" points="1077.4527,-298.2912 1075.5626,-287.8663 1070.5391,-297.1945 1077.4527,-298.2912"/>
</g>
<!-- Node37 -->
<g id="node38" class="node">
<title>Node37</title>
<g id="a_node38"><a xlink:href="../../d5/dc1/MUON_2MCH_2Simulation_2include_2MCHSimulation_2Geometry_8h.html" target="_top" xlink:title="MCHSimulation/Geometry.h">
<polygon fill="none" stroke="#000000" points="1159.5,-263 1159.5,-282 1310.5,-282 1310.5,-263 1159.5,-263"/>
<text text-anchor="middle" x="1235" y="-270" font-family="Helvetica,sans-Serif" font-size="10.00" fill="#000000">MCHSimulation/Geometry.h</text>
</a>
</g>
</g>
<!-- Node0&#45;&gt;Node37 -->
<g id="edge43" class="edge">
<title>Node0&#45;&gt;Node37</title>
<path fill="none" stroke="#191970" d="M1071.8201,-391.1048C1085.774,-370.793 1107.1378,-343.0622 1131,-324 1151.3402,-307.7513 1177.642,-294.7853 1198.7058,-285.9276"/>
<polygon fill="#191970" stroke="#191970" points="1200.0354,-289.1653 1207.9749,-282.1499 1197.3934,-282.683 1200.0354,-289.1653"/>
</g>
<!-- Node39 -->
<g id="node40" class="node">
<title>Node39</title>
<g id="a_node40"><a xlink:href="../../de/d04/GeometryTest_8h.html" target="_top" xlink:title="MCHSimulation/GeometryTest.h">
<polygon fill="none" stroke="#000000" points="1140,-330 1140,-349 1312,-349 1312,-330 1140,-330"/>
<text text-anchor="middle" x="1226" y="-337" font-family="Helvetica,sans-Serif" font-size="10.00" fill="#000000">MCHSimulation/GeometryTest.h</text>
</a>
</g>
</g>
<!-- Node0&#45;&gt;Node39 -->
<g id="edge47" class="edge">
<title>Node0&#45;&gt;Node39</title>
<path fill="none" stroke="#191970" d="M1112.4162,-391.3101C1140.2627,-378.6083 1172.5801,-363.867 1195.6064,-353.3637"/>
<polygon fill="#191970" stroke="#191970" points="1197.2202,-356.4746 1204.8659,-349.1401 1194.3152,-350.1059 1197.2202,-356.4746"/>
</g>
<!-- Node40 -->
<g id="node41" class="node">
<title>Node40</title>
<g id="a_node41"><a xlink:href="../../d6/d1f/MUON_2MCH_2Mapping_2Interface_2include_2MCHMappingInterface_2Segmentation_8h.html" target="_top" xlink:title="MCHMappingInterface\l/Segmentation.h">
<polygon fill="none" stroke="#000000" points="1330,-324.5 1330,-354.5 1454,-354.5 1454,-324.5 1330,-324.5"/>
<text text-anchor="start" x="1338" y="-342.5" font-family="Helvetica,sans-Serif" font-size="10.00" fill="#000000">MCHMappingInterface</text>
<text text-anchor="middle" x="1392" y="-331.5" font-family="Helvetica,sans-Serif" font-size="10.00" fill="#000000">/Segmentation.h</text>
</a>
</g>
</g>
<!-- Node0&#45;&gt;Node40 -->
<g id="edge49" class="edge">
<title>Node0&#45;&gt;Node40</title>
<path fill="none" stroke="#191970" d="M1146.1971,-396.3921C1200.7469,-383.7663 1269.097,-367.9464 1319.8655,-356.1958"/>
<polygon fill="#191970" stroke="#191970" points="1320.8223,-359.567 1329.7755,-353.9021 1319.2438,-352.7472 1320.8223,-359.567"/>
</g>
<!-- Node47 -->
<g id="node48" class="node">
<title>Node47</title>
<polygon fill="none" stroke="#bfbfbf" points="1472.5,-330 1472.5,-349 1573.5,-349 1573.5,-330 1472.5,-330"/>
<text text-anchor="middle" x="1523" y="-337" font-family="Helvetica,sans-Serif" font-size="10.00" fill="#000000">boost/format.hpp</text>
</g>
<!-- Node0&#45;&gt;Node47 -->
<g id="edge62" class="edge">
<title>Node0&#45;&gt;Node47</title>
<path fill="none" stroke="#191970" d="M1146.2138,-406.206C1229.2095,-395.2955 1354.897,-377.1844 1463,-355 1468.0735,-353.9588 1473.3607,-352.7611 1478.6017,-351.5026"/>
<polygon fill="#191970" stroke="#191970" points="1479.6926,-354.8381 1488.5552,-349.0325 1478.0066,-348.0442 1479.6926,-354.8381"/>
</g>
<!-- Node48 -->
<g id="node49" class="node">
<title>Node48</title>
<polygon fill="none" stroke="#bfbfbf" points="1592,-324.5 1592,-354.5 1704,-354.5 1704,-324.5 1592,-324.5"/>
<text text-anchor="start" x="1600" y="-342.5" font-family="Helvetica,sans-Serif" font-size="10.00" fill="#000000">boost/test/data/test</text>
<text text-anchor="middle" x="1648" y="-331.5" font-family="Helvetica,sans-Serif" font-size="10.00" fill="#000000">_case.hpp</text>
</g>
<!-- Node0&#45;&gt;Node48 -->
<g id="edge63" class="edge">
<title>Node0&#45;&gt;Node48</title>
<path fill="none" stroke="#191970" d="M1146.098,-409.9599C1249.5448,-400.6641 1423.4602,-382.8162 1581.79,-355.0992"/>
<polygon fill="#191970" stroke="#191970" points="1582.4755,-358.5324 1591.7136,-353.3453 1581.2571,-351.6392 1582.4755,-358.5324"/>
</g>
<!-- Node4 -->
<g id="node5" class="node">
<title>Node4</title>
<polygon fill="none" stroke="#bfbfbf" points="622.5,-73 622.5,-92 681.5,-92 681.5,-73 622.5,-73"/>
<text text-anchor="middle" x="652" y="-80" font-family="Helvetica,sans-Serif" font-size="10.00" fill="#000000">Rtypes.h</text>
</g>
<!-- Node3&#45;&gt;Node4 -->
<g id="edge4" class="edge">
<title>Node3&#45;&gt;Node4</title>
<path fill="none" stroke="#191970" d="M616.6799,-267.8165C533.2679,-259.394 371.725,-240.7223 355,-221 279.5552,-132.0345 515.4631,-96.7346 612.3945,-86.2047"/>
<polygon fill="#191970" stroke="#191970" points="612.8358,-89.6776 622.4149,-85.1509 612.1036,-82.716 612.8358,-89.6776"/>
</g>
<!-- Node5&#45;&gt;Node3 -->
<g id="edge6" class="edge">
<title>Node5&#45;&gt;Node3</title>
<path fill="none" stroke="#191970" d="M895.6846,-329.9958C852.9852,-319.8618 783.6393,-303.2109 724,-288 719.8529,-286.9423 715.5439,-285.8251 711.2318,-284.6947"/>
<polygon fill="#191970" stroke="#191970" points="711.8011,-281.2251 701.2388,-282.0551 710.0133,-287.993 711.8011,-281.2251"/>
</g>
<!-- Node5&#45;&gt;Node6 -->
<g id="edge7" class="edge">
<title>Node5&#45;&gt;Node6</title>
<path fill="none" stroke="#191970" d="M915.3683,-329.9005C890.8811,-318.5072 849.8532,-299.4178 821.8907,-286.4075"/>
<polygon fill="#191970" stroke="#191970" points="823.1366,-283.1269 812.5934,-282.0817 820.1836,-289.4736 823.1366,-283.1269"/>
</g>
<!-- Node5&#45;&gt;Node27 -->
<g id="edge29" class="edge">
<title>Node5&#45;&gt;Node27</title>
<path fill="none" stroke="#191970" d="M935.5702,-329.9005C935.1945,-321.5099 934.6319,-308.9451 934.1287,-297.7085"/>
<polygon fill="#191970" stroke="#191970" points="937.6165,-297.3552 933.6726,-287.5218 930.6235,-297.6683 937.6165,-297.3552"/>
</g>
<!-- Node5&#45;&gt;Node29 -->
<g id="edge32" class="edge">
<title>Node5&#45;&gt;Node29</title>
<path fill="none" stroke="#191970" d="M956.3451,-329.9005C977.245,-320.0393 1010.3639,-304.4128 1036.7721,-291.9526"/>
<polygon fill="#191970" stroke="#191970" points="1038.6125,-294.9543 1046.1628,-287.5218 1035.6254,-288.6236 1038.6125,-294.9543"/>
</g>
<!-- Node7 -->
<g id="node8" class="node">
<title>Node7</title>
<g id="a_node8"><a xlink:href="../../d4/d25/BaseHits_8h.html" target="_top" xlink:title="SimulationDataFormat\l/BaseHits.h">
<polygon fill="none" stroke="#000000" points="542.5,-190.5 542.5,-220.5 669.5,-220.5 669.5,-190.5 542.5,-190.5"/>
<text text-anchor="start" x="550.5" y="-208.5" font-family="Helvetica,sans-Serif" font-size="10.00" fill="#000000">SimulationDataFormat</text>
<text text-anchor="middle" x="606" y="-197.5" font-family="Helvetica,sans-Serif" font-size="10.00" fill="#000000">/BaseHits.h</text>
</a>
</g>
</g>
<!-- Node6&#45;&gt;Node7 -->
<g id="edge8" class="edge">
<title>Node6&#45;&gt;Node7</title>
<path fill="none" stroke="#191970" d="M765.3507,-262.9005C737.2544,-252.7798 692.2995,-236.5864 657.2905,-223.9756"/>
<polygon fill="#191970" stroke="#191970" points="658.2966,-220.6179 647.7022,-220.5218 655.9243,-227.2037 658.2966,-220.6179"/>
</g>
<!-- Node19 -->
<g id="node20" class="node">
<title>Node19</title>
<g id="a_node20"><a xlink:href="../../d0/d91/ShmAllocator_8h.html" target="_top" xlink:title="CommonUtils/ShmAllocator.h">
<polygon fill="none" stroke="#000000" points="364,-196 364,-215 524,-215 524,-196 364,-196"/>
<text text-anchor="middle" x="444" y="-203" font-family="Helvetica,sans-Serif" font-size="10.00" fill="#000000">CommonUtils/ShmAllocator.h</text>
</a>
</g>
</g>
<!-- Node6&#45;&gt;Node19 -->
<g id="edge21" class="edge">
<title>Node6&#45;&gt;Node19</title>
<path fill="none" stroke="#191970" d="M751.429,-262.9574C742.4143,-260.9194 732.8948,-258.8309 724,-257 683.5678,-248.6775 576.6933,-229.2904 507.2944,-216.8207"/>
<polygon fill="#191970" stroke="#191970" points="507.8007,-213.3557 497.3395,-215.0332 506.5635,-220.2455 507.8007,-213.3557"/>
</g>
<!-- Node8 -->
<g id="node9" class="node">
<title>Node8</title>
<g id="a_node9"><a xlink:href="../../dd/d76/Cartesian3D_8h.html" target="_top" xlink:title="MathUtils/Cartesian3D.h">
<polygon fill="none" stroke="#000000" points="1058.5,-134.5 1058.5,-153.5 1193.5,-153.5 1193.5,-134.5 1058.5,-134.5"/>
<text text-anchor="middle" x="1126" y="-141.5" font-family="Helvetica,sans-Serif" font-size="10.00" fill="#000000">MathUtils/Cartesian3D.h</text>
</a>
</g>
</g>
<!-- Node7&#45;&gt;Node8 -->
<g id="edge9" class="edge">
<title>Node7&#45;&gt;Node8</title>
<path fill="none" stroke="#191970" d="M669.5322,-191.4274C672.3891,-190.9195 675.2217,-190.4403 678,-190 807.0097,-169.5535 958.428,-156.2033 1048.0671,-149.395"/>
<polygon fill="#191970" stroke="#191970" points="1048.4415,-152.8768 1058.1509,-148.6369 1047.9167,-145.8965 1048.4415,-152.8768"/>
</g>
<!-- Node8&#45;&gt;Node4 -->
<g id="edge15" class="edge">
<title>Node8&#45;&gt;Node4</title>
<path fill="none" stroke="#191970" d="M1058.477,-139.2126C953.9713,-131.4081 758.006,-115.0901 690,-98 687.3699,-97.339 684.6818,-96.532 682.0111,-95.6369"/>
<polygon fill="#191970" stroke="#191970" points="683.1431,-92.3236 672.5503,-92.1133 680.6999,-98.8834 683.1431,-92.3236"/>
</g>
<!-- Node9 -->
<g id="node10" class="node">
<title>Node9</title>
<polygon fill="none" stroke="#bfbfbf" points="1212,-67.5 1212,-97.5 1376,-97.5 1376,-67.5 1212,-67.5"/>
<text text-anchor="start" x="1220" y="-85.5" font-family="Helvetica,sans-Serif" font-size="10.00" fill="#000000">Math/GenVector/Displacement</text>
<text text-anchor="middle" x="1294" y="-74.5" font-family="Helvetica,sans-Serif" font-size="10.00" fill="#000000">Vector3D.h</text>
</g>
<!-- Node8&#45;&gt;Node9 -->
<g id="edge10" class="edge">
<title>Node8&#45;&gt;Node9</title>
<path fill="none" stroke="#191970" d="M1152.25,-134.3906C1176.5657,-125.4893 1213.3947,-112.0073 1243.4183,-101.0165"/>
<polygon fill="#191970" stroke="#191970" points="1244.7152,-104.269 1252.9026,-97.5446 1242.3088,-97.6956 1244.7152,-104.269"/>
</g>
<!-- Node10 -->
<g id="node11" class="node">
<title>Node10</title>
<polygon fill="none" stroke="#bfbfbf" points="1394.5,-73 1394.5,-92 1583.5,-92 1583.5,-73 1394.5,-73"/>
<text text-anchor="middle" x="1489" y="-80" font-family="Helvetica,sans-Serif" font-size="10.00" fill="#000000">Math/GenVector/PositionVector3D.h</text>
</g>
<!-- Node8&#45;&gt;Node10 -->
<g id="edge11" class="edge">
<title>Node8&#45;&gt;Node10</title>
<path fill="none" stroke="#191970" d="M1182.3205,-134.4581C1247.329,-123.4443 1354.1112,-105.3531 1422.9711,-93.6867"/>
<polygon fill="#191970" stroke="#191970" points="1423.5713,-97.135 1432.8461,-92.0137 1422.4019,-90.2333 1423.5713,-97.135"/>
</g>
<!-- Node11 -->
<g id="node12" class="node">
<title>Node11</title>
<polygon fill="none" stroke="#bfbfbf" points="1602,-73 1602,-92 1762,-92 1762,-73 1602,-73"/>
<text text-anchor="middle" x="1682" y="-80" font-family="Helvetica,sans-Serif" font-size="10.00" fill="#000000">Math/GenVector/Rotation3D.h</text>
</g>
<!-- Node8&#45;&gt;Node11 -->
<g id="edge12" class="edge">
<title>Node8&#45;&gt;Node11</title>
<path fill="none" stroke="#191970" d="M1193.8544,-138.9056C1284.8997,-131.7072 1451.5309,-117.2593 1593,-98 1602.1301,-96.757 1611.757,-95.2683 1621.1717,-93.7119"/>
<polygon fill="#191970" stroke="#191970" points="1621.9941,-97.1227 1631.271,-92.0051 1620.8275,-90.2205 1621.9941,-97.1227"/>
</g>
<!-- Node12 -->
<g id="node13" class="node">
<title>Node12</title>
<polygon fill="none" stroke="#bfbfbf" points="1780,-73 1780,-92 1948,-92 1948,-73 1780,-73"/>
<text text-anchor="middle" x="1864" y="-80" font-family="Helvetica,sans-Serif" font-size="10.00" fill="#000000">Math/GenVector/Transform3D.h</text>
</g>
<!-- Node8&#45;&gt;Node12 -->
<g id="edge13" class="edge">
<title>Node8&#45;&gt;Node12</title>
<path fill="none" stroke="#191970" d="M1193.5186,-141.2752C1311.142,-136.0622 1561.1377,-122.9161 1771,-98 1780.9964,-96.8132 1791.5572,-95.302 1801.8342,-93.6909"/>
<polygon fill="#191970" stroke="#191970" points="1802.6695,-97.1015 1811.9851,-92.0547 1801.5556,-90.1907 1802.6695,-97.1015"/>
</g>
<!-- Node13 -->
<g id="node14" class="node">
<title>Node13</title>
<polygon fill="none" stroke="#bfbfbf" points="699.5,-73 699.5,-92 872.5,-92 872.5,-73 699.5,-73"/>
<text text-anchor="middle" x="786" y="-80" font-family="Helvetica,sans-Serif" font-size="10.00" fill="#000000">Math/GenVector/Translation3D.h</text>
</g>
<!-- Node8&#45;&gt;Node13 -->
<g id="edge14" class="edge">
<title>Node8&#45;&gt;Node13</title>
<path fill="none" stroke="#191970" d="M1073.248,-134.4581C1012.6081,-123.4894 913.1613,-105.5012 848.64,-93.8305"/>
<polygon fill="#191970" stroke="#191970" points="849.0593,-90.3496 838.596,-92.0137 847.8133,-97.2378 849.0593,-90.3496"/>
</g>
<!-- Node14 -->
<g id="node15" class="node">
<title>Node14</title>
<polygon fill="none" stroke="#bfbfbf" points="891,-73 891,-92 973,-92 973,-73 891,-73"/>
<text text-anchor="middle" x="932" y="-80" font-family="Helvetica,sans-Serif" font-size="10.00" fill="#000000">TGeoMatrix.h</text>
</g>
<!-- Node8&#45;&gt;Node14 -->
<g id="edge16" class="edge">
<title>Node8&#45;&gt;Node14</title>
<path fill="none" stroke="#191970" d="M1095.6875,-134.3906C1062.3735,-123.8298 1008.7192,-106.8208 971.9819,-95.1747"/>
<polygon fill="#191970" stroke="#191970" points="972.6898,-91.7275 962.0996,-92.0419 970.5744,-98.4002 972.6898,-91.7275"/>
</g>
<!-- Node15 -->
<g id="node16" class="node">
<title>Node15</title>
<polygon fill="none" stroke="#bfbfbf" points="991.5,-73 991.5,-92 1040.5,-92 1040.5,-73 991.5,-73"/>
<text text-anchor="middle" x="1016" y="-80" font-family="Helvetica,sans-Serif" font-size="10.00" fill="#000000">iosfwd</text>
</g>
<!-- Node8&#45;&gt;Node15 -->
<g id="edge17" class="edge">
<title>Node8&#45;&gt;Node15</title>
<path fill="none" stroke="#191970" d="M1108.8125,-134.3906C1090.8918,-124.3713 1062.5905,-108.5483 1041.9477,-97.0071"/>
<polygon fill="#191970" stroke="#191970" points="1043.5033,-93.867 1033.0668,-92.0419 1040.0872,-99.9769 1043.5033,-93.867"/>
</g>
<!-- Node16 -->
<g id="node17" class="node">
<title>Node16</title>
<g id="a_node17"><a xlink:href="../../d2/dd0/Cartesian2D_8h.html" target="_top" xlink:title="MathUtils/Cartesian2D.h">
<polygon fill="none" stroke="#000000" points="1058.5,-73 1058.5,-92 1193.5,-92 1193.5,-73 1058.5,-73"/>
<text text-anchor="middle" x="1126" y="-80" font-family="Helvetica,sans-Serif" font-size="10.00" fill="#000000">MathUtils/Cartesian2D.h</text>
</a>
</g>
</g>
<!-- Node8&#45;&gt;Node16 -->
<g id="edge18" class="edge">
<title>Node8&#45;&gt;Node16</title>
<path fill="none" stroke="#191970" d="M1126,-134.3906C1126,-125.8657 1126,-113.1392 1126,-102.4235"/>
<polygon fill="#191970" stroke="#191970" points="1129.5001,-102.2448 1126,-92.2449 1122.5001,-102.2449 1129.5001,-102.2448"/>
</g>
<!-- Node17 -->
<g id="node18" class="node">
<title>Node17</title>
<polygon fill="none" stroke="#bfbfbf" points="946,-.5 946,-30.5 1110,-30.5 1110,-.5 946,-.5"/>
<text text-anchor="start" x="954" y="-18.5" font-family="Helvetica,sans-Serif" font-size="10.00" fill="#000000">Math/GenVector/Displacement</text>
<text text-anchor="middle" x="1028" y="-7.5" font-family="Helvetica,sans-Serif" font-size="10.00" fill="#000000">Vector2D.h</text>
</g>
<!-- Node16&#45;&gt;Node17 -->
<g id="edge19" class="edge">
<title>Node16&#45;&gt;Node17</title>
<path fill="none" stroke="#191970" d="M1111.959,-72.9005C1098.0412,-63.3853 1076.272,-48.5023 1058.388,-36.2755"/>
<polygon fill="#191970" stroke="#191970" points="1060.2026,-33.2763 1049.9721,-30.5218 1056.2519,-39.0549 1060.2026,-33.2763"/>
</g>
<!-- Node18 -->
<g id="node19" class="node">
<title>Node18</title>
<polygon fill="none" stroke="#bfbfbf" points="1128.5,-6 1128.5,-25 1317.5,-25 1317.5,-6 1128.5,-6"/>
<text text-anchor="middle" x="1223" y="-13" font-family="Helvetica,sans-Serif" font-size="10.00" fill="#000000">Math/GenVector/PositionVector2D.h</text>
</g>
<!-- Node16&#45;&gt;Node18 -->
<g id="edge20" class="edge">
<title>Node16&#45;&gt;Node18</title>
<path fill="none" stroke="#191970" d="M1139.8977,-72.9005C1155.8164,-61.9052 1182.1121,-43.7422 1200.8599,-30.7927"/>
<polygon fill="#191970" stroke="#191970" points="1202.8892,-33.6448 1209.128,-25.0817 1198.9108,-27.8852 1202.8892,-33.6448"/>
</g>
<!-- Node20 -->
<g id="node21" class="node">
<title>Node20</title>
<g id="a_node21"><a xlink:href="../../de/d61/ShmManager_8h.html" target="_top" xlink:title="CommonUtils/ShmManager.h">
<polygon fill="none" stroke="#000000" points="150,-134.5 150,-153.5 308,-153.5 308,-134.5 150,-134.5"/>
<text text-anchor="middle" x="229" y="-141.5" font-family="Helvetica,sans-Serif" font-size="10.00" fill="#000000">CommonUtils/ShmManager.h</text>
</a>
</g>
</g>
<!-- Node19&#45;&gt;Node20 -->
<g id="edge22" class="edge">
<title>Node19&#45;&gt;Node20</title>
<path fill="none" stroke="#191970" d="M410.4063,-195.8906C373.0917,-185.2169 312.7508,-167.9566 272.0114,-156.3033"/>
<polygon fill="#191970" stroke="#191970" points="272.9348,-152.9271 262.3579,-153.5419 271.0097,-159.6572 272.9348,-152.9271"/>
</g>
<!-- Node26 -->
<g id="node27" class="node">
<title>Node26</title>
<polygon fill="none" stroke="#bfbfbf" points="834,-134.5 834,-153.5 886,-153.5 886,-134.5 834,-134.5"/>
<text text-anchor="middle" x="860" y="-141.5" font-family="Helvetica,sans-Serif" font-size="10.00" fill="#000000">cassert</text>
</g>
<!-- Node19&#45;&gt;Node26 -->
<g id="edge28" class="edge">
<title>Node19&#45;&gt;Node26</title>
<path fill="none" stroke="#191970" d="M497.1329,-195.954C508.9297,-193.9162 521.38,-191.8287 533,-190 638.2474,-173.437 763.0148,-156.6798 823.4964,-148.7391"/>
<polygon fill="#191970" stroke="#191970" points="824.2162,-152.1748 833.6772,-147.406 823.3074,-145.234 824.2162,-152.1748"/>
</g>
<!-- Node21 -->
<g id="node22" class="node">
<title>Node21</title>
<polygon fill="none" stroke="#bfbfbf" points="152,-73 152,-92 184,-92 184,-73 152,-73"/>
<text text-anchor="middle" x="168" y="-80" font-family="Helvetica,sans-Serif" font-size="10.00" fill="#000000">list</text>
</g>
<!-- Node20&#45;&gt;Node21 -->
<g id="edge23" class="edge">
<title>Node20&#45;&gt;Node21</title>
<path fill="none" stroke="#191970" d="M219.4688,-134.3906C210.2121,-125.0581 195.961,-110.6902 184.7997,-99.4374"/>
<polygon fill="#191970" stroke="#191970" points="187.1928,-96.88 177.6656,-92.2449 182.2228,-101.8095 187.1928,-96.88"/>
</g>
<!-- Node22 -->
<g id="node23" class="node">
<title>Node22</title>
<polygon fill="none" stroke="#bfbfbf" points="202.5,-73 202.5,-92 255.5,-92 255.5,-73 202.5,-73"/>
<text text-anchor="middle" x="229" y="-80" font-family="Helvetica,sans-Serif" font-size="10.00" fill="#000000">cstddef</text>
</g>
<!-- Node20&#45;&gt;Node22 -->
<g id="edge24" class="edge">
<title>Node20&#45;&gt;Node22</title>
<path fill="none" stroke="#191970" d="M229,-134.3906C229,-125.8657 229,-113.1392 229,-102.4235"/>
<polygon fill="#191970" stroke="#191970" points="232.5001,-102.2448 229,-92.2449 225.5001,-102.2449 232.5001,-102.2448"/>
</g>
<!-- Node23 -->
<g id="node24" class="node">
<title>Node23</title>
<polygon fill="none" stroke="#bfbfbf" points="274,-73 274,-92 324,-92 324,-73 274,-73"/>
<text text-anchor="middle" x="299" y="-80" font-family="Helvetica,sans-Serif" font-size="10.00" fill="#000000">atomic</text>
</g>
<!-- Node20&#45;&gt;Node23 -->
<g id="edge25" class="edge">
<title>Node20&#45;&gt;Node23</title>
<path fill="none" stroke="#191970" d="M239.9375,-134.3906C250.662,-124.9683 267.2287,-110.4134 280.0901,-99.1137"/>
<polygon fill="#191970" stroke="#191970" points="282.7059,-101.4745 287.9083,-92.2449 278.0857,-96.2158 282.7059,-101.4745"/>
</g>
<!-- Node24 -->
<g id="node25" class="node">
<title>Node24</title>
<polygon fill="none" stroke="#bfbfbf" points="342.5,-67.5 342.5,-97.5 507.5,-97.5 507.5,-67.5 342.5,-67.5"/>
<text text-anchor="start" x="350.5" y="-85.5" font-family="Helvetica,sans-Serif" font-size="10.00" fill="#000000">boost/interprocess</text>
<text text-anchor="middle" x="425" y="-74.5" font-family="Helvetica,sans-Serif" font-size="10.00" fill="#000000">/managed_external_buffer.hpp</text>
</g>
<!-- Node20&#45;&gt;Node24 -->
<g id="edge26" class="edge">
<title>Node20&#45;&gt;Node24</title>
<path fill="none" stroke="#191970" d="M259.625,-134.3906C288.3617,-125.3737 332.079,-111.6563 367.3486,-100.5896"/>
<polygon fill="#191970" stroke="#191970" points="368.5595,-103.878 377.053,-97.5446 366.4638,-97.199 368.5595,-103.878"/>
</g>
<!-- Node25 -->
<g id="node26" class="node">
<title>Node25</title>
<polygon fill="none" stroke="#bfbfbf" points="0,-67.5 0,-97.5 134,-97.5 134,-67.5 0,-67.5"/>
<text text-anchor="start" x="8" y="-85.5" font-family="Helvetica,sans-Serif" font-size="10.00" fill="#000000">boost/interprocess</text>
<text text-anchor="middle" x="67" y="-74.5" font-family="Helvetica,sans-Serif" font-size="10.00" fill="#000000">/allocators/allocator.hpp</text>
</g>
<!-- Node20&#45;&gt;Node25 -->
<g id="edge27" class="edge">
<title>Node20&#45;&gt;Node25</title>
<path fill="none" stroke="#191970" d="M203.6875,-134.3906C180.3417,-125.5279 145.0338,-112.1239 116.1516,-101.1594"/>
<polygon fill="#191970" stroke="#191970" points="117.2209,-97.8217 106.6297,-97.5446 114.7364,-104.366 117.2209,-97.8217"/>
</g>
<!-- Node28 -->
<g id="node29" class="node">
<title>Node28</title>
<g id="a_node29"><a xlink:href="../../d2/d45/GPUCommonRtypes_8h.html" target="_top" xlink:title="GPUCommonRtypes.h">
<polygon fill="none" stroke="#000000" points="687.5,-196 687.5,-215 812.5,-215 812.5,-196 687.5,-196"/>
<text text-anchor="middle" x="750" y="-203" font-family="Helvetica,sans-Serif" font-size="10.00" fill="#000000">GPUCommonRtypes.h</text>
</a>
</g>
</g>
<!-- Node27&#45;&gt;Node28 -->
<g id="edge30" class="edge">
<title>Node27&#45;&gt;Node28</title>
<path fill="none" stroke="#191970" d="M891.9312,-257.4639C860.025,-245.7824 816.2212,-229.7449 785.7488,-218.5884"/>
<polygon fill="#191970" stroke="#191970" points="786.556,-215.1567 775.9622,-215.0053 784.1493,-221.73 786.556,-215.1567"/>
</g>
<!-- Node28&#45;&gt;Node4 -->
<g id="edge31" class="edge">
<title>Node28&#45;&gt;Node4</title>
<path fill="none" stroke="#191970" d="M742.3101,-195.8484C725.8511,-175.1906 687.0061,-126.4362 666.0261,-100.1042"/>
<polygon fill="#191970" stroke="#191970" points="668.623,-97.7469 659.6542,-92.1068 663.1483,-102.1089 668.623,-97.7469"/>
</g>
<!-- Node29&#45;&gt;Node26 -->
<g id="edge35" class="edge">
<title>Node29&#45;&gt;Node26</title>
<path fill="none" stroke="#191970" d="M1092.9213,-257.3579C1108.5797,-239.6199 1128.7682,-210.1062 1112,-190 1085.0064,-157.633 959.8495,-147.9783 896.6806,-145.1468"/>
<polygon fill="#191970" stroke="#191970" points="896.5067,-141.6367 886.3707,-144.7208 896.2177,-148.6308 896.5067,-141.6367"/>
</g>
<!-- Node29&#45;&gt;Node28 -->
<g id="edge33" class="edge">
<title>Node29&#45;&gt;Node28</title>
<path fill="none" stroke="#191970" d="M1014.3105,-258.9182C1011.1632,-258.2655 1008.0464,-257.623 1005,-257 923.7888,-240.3912 903.1877,-237.7232 822,-221 816.1433,-219.7936 810.0237,-218.5108 803.9326,-217.2196"/>
<polygon fill="#191970" stroke="#191970" points="804.2702,-213.713 793.7602,-215.0509 802.8106,-220.5591 804.2702,-213.713"/>
</g>
<!-- Node30 -->
<g id="node31" class="node">
<title>Node30</title>
<polygon fill="none" stroke="#bfbfbf" points="831,-196 831,-215 881,-215 881,-196 831,-196"/>
<text text-anchor="middle" x="856" y="-203" font-family="Helvetica,sans-Serif" font-size="10.00" fill="#000000">cstdint</text>
</g>
<!-- Node29&#45;&gt;Node30 -->
<g id="edge34" class="edge">
<title>Node29&#45;&gt;Node30</title>
<path fill="none" stroke="#191970" d="M1014.1133,-257.7075C977.3598,-248.5282 930.5679,-235.6962 890,-221 888.3646,-220.4076 886.6988,-219.7692 885.0269,-219.101"/>
<polygon fill="#191970" stroke="#191970" points="886.1256,-215.7646 875.5541,-215.0604 883.3791,-222.2033 886.1256,-215.7646"/>
</g>
<!-- Node31 -->
<g id="node32" class="node">
<title>Node31</title>
<polygon fill="none" stroke="#bfbfbf" points="1263.5,-196 1263.5,-215 1328.5,-215 1328.5,-196 1263.5,-196"/>
<text text-anchor="middle" x="1296" y="-203" font-family="Helvetica,sans-Serif" font-size="10.00" fill="#000000">stdexcept</text>
</g>
<!-- Node29&#45;&gt;Node31 -->
<g id="edge36" class="edge">
<title>Node29&#45;&gt;Node31</title>
<path fill="none" stroke="#191970" d="M1126.9235,-257.4639C1165.593,-245.5792 1218.9328,-229.1858 1255.2934,-218.0108"/>
<polygon fill="#191970" stroke="#191970" points="1256.5419,-221.2887 1265.0724,-215.0053 1254.4854,-214.5976 1256.5419,-221.2887"/>
</g>
<!-- Node32 -->
<g id="node33" class="node">
<title>Node32</title>
<polygon fill="none" stroke="#bfbfbf" points="899,-196 899,-215 947,-215 947,-196 899,-196"/>
<text text-anchor="middle" x="923" y="-203" font-family="Helvetica,sans-Serif" font-size="10.00" fill="#000000">gsl/gsl</text>
</g>
<!-- Node29&#45;&gt;Node32 -->
<g id="edge37" class="edge">
<title>Node29&#45;&gt;Node32</title>
<path fill="none" stroke="#191970" d="M1041.2679,-257.4401C1016.9654,-247.3668 984.4537,-233.6819 956,-221 954.8293,-220.4782 953.6373,-219.942 952.4347,-219.3968"/>
<polygon fill="#191970" stroke="#191970" points="953.7331,-216.1415 943.186,-215.1361 950.8041,-222.4993 953.7331,-216.1415"/>
</g>
<!-- Node33 -->
<g id="node34" class="node">
<title>Node33</title>
<polygon fill="none" stroke="#bfbfbf" points="965.5,-196 965.5,-215 1034.5,-215 1034.5,-196 965.5,-196"/>
<text text-anchor="middle" x="1000" y="-203" font-family="Helvetica,sans-Serif" font-size="10.00" fill="#000000">type_traits</text>
</g>
<!-- Node29&#45;&gt;Node33 -->
<g id="edge38" class="edge">
<title>Node29&#45;&gt;Node33</title>
<path fill="none" stroke="#191970" d="M1060.3006,-257.2967C1047.9119,-246.6551 1031.3865,-232.4602 1018.7685,-221.6217"/>
<polygon fill="#191970" stroke="#191970" points="1020.99,-218.9159 1011.1237,-215.055 1016.4288,-224.2259 1020.99,-218.9159"/>
</g>
<!-- Node34 -->
<g id="node35" class="node">
<title>Node34</title>
<polygon fill="none" stroke="#bfbfbf" points="1053,-196 1053,-215 1103,-215 1103,-196 1053,-196"/>
<text text-anchor="middle" x="1078" y="-203" font-family="Helvetica,sans-Serif" font-size="10.00" fill="#000000">cstring</text>
</g>
<!-- Node29&#45;&gt;Node34 -->
<g id="edge39" class="edge">
<title>Node29&#45;&gt;Node34</title>
<path fill="none" stroke="#191970" d="M1078,-257.2967C1078,-247.7699 1078,-235.3954 1078,-225.1306"/>
<polygon fill="#191970" stroke="#191970" points="1081.5001,-225.0549 1078,-215.055 1074.5001,-225.055 1081.5001,-225.0549"/>
</g>
<!-- Node35 -->
<g id="node36" class="node">
<title>Node35</title>
<polygon fill="none" stroke="#bfbfbf" points="1347,-196 1347,-215 1405,-215 1405,-196 1347,-196"/>
<text text-anchor="middle" x="1376" y="-203" font-family="Helvetica,sans-Serif" font-size="10.00" fill="#000000">memory</text>
</g>
<!-- Node29&#45;&gt;Node35 -->
<g id="edge40" class="edge">
<title>Node29&#45;&gt;Node35</title>
<path fill="none" stroke="#191970" d="M1141.6864,-258.903C1144.8345,-258.2543 1147.9523,-257.6169 1151,-257 1233.9551,-240.2097 1256.8665,-245.1 1338,-221 1340.3051,-220.3153 1342.6629,-219.5417 1345.0194,-218.7146"/>
<polygon fill="#191970" stroke="#191970" points="1346.4474,-221.9165 1354.5612,-215.1036 1343.9697,-215.3696 1346.4474,-221.9165"/>
</g>
<!-- Node36 -->
<g id="node37" class="node">
<title>Node36</title>
<polygon fill="none" stroke="#bfbfbf" points="1159.5,-196 1159.5,-215 1206.5,-215 1206.5,-196 1159.5,-196"/>
<text text-anchor="middle" x="1183" y="-203" font-family="Helvetica,sans-Serif" font-size="10.00" fill="#000000">vector</text>
</g>
<!-- Node29&#45;&gt;Node36 -->
<g id="edge41" class="edge">
<title>Node29&#45;&gt;Node36</title>
<path fill="none" stroke="#191970" d="M1101.564,-257.4639C1118.7056,-246.526 1141.8321,-231.769 1159.0602,-220.7759"/>
<polygon fill="#191970" stroke="#191970" points="1161.4018,-223.4336 1167.9491,-215.1039 1157.6364,-217.5326 1161.4018,-223.4336"/>
</g>
<!-- Node37&#45;&gt;Node8 -->
<g id="edge46" class="edge">
<title>Node37&#45;&gt;Node8</title>
<path fill="none" stroke="#191970" d="M1235.2872,-262.7418C1235.274,-246.0685 1232.9924,-211.7895 1216,-190 1204.3635,-175.0783 1186.5609,-164.5655 1169.8518,-157.3949"/>
<polygon fill="#191970" stroke="#191970" points="1170.7803,-153.9975 1160.1949,-153.5512 1168.1916,-160.5013 1170.7803,-153.9975"/>
</g>
<!-- Node37&#45;&gt;Node36 -->
<g id="edge44" class="edge">
<title>Node37&#45;&gt;Node36</title>
<path fill="none" stroke="#191970" d="M1227.5497,-262.9005C1219.5179,-252.552 1206.5585,-235.8542 1196.6826,-223.1295"/>
<polygon fill="#191970" stroke="#191970" points="1199.3328,-220.8356 1190.4365,-215.0817 1193.8028,-225.1275 1199.3328,-220.8356"/>
</g>
<!-- Node38 -->
<g id="node39" class="node">
<title>Node38</title>
<polygon fill="none" stroke="#bfbfbf" points="1423,-196 1423,-215 1483,-215 1483,-196 1423,-196"/>
<text text-anchor="middle" x="1453" y="-203" font-family="Helvetica,sans-Serif" font-size="10.00" fill="#000000">iostream</text>
</g>
<!-- Node37&#45;&gt;Node38 -->
<g id="edge45" class="edge">
<title>Node37&#45;&gt;Node38</title>
<path fill="none" stroke="#191970" d="M1272.0101,-262.9903C1308.4384,-253.3639 1365.4984,-237.5707 1414,-221 1416.1287,-220.2727 1418.3113,-219.4954 1420.5037,-218.6907"/>
<polygon fill="#191970" stroke="#191970" points="1421.9432,-221.8878 1430.0426,-215.0576 1419.4517,-215.3462 1421.9432,-221.8878"/>
</g>
<!-- Node39&#45;&gt;Node38 -->
<g id="edge48" class="edge">
<title>Node39&#45;&gt;Node38</title>
<path fill="none" stroke="#191970" d="M1244.1825,-329.9137C1263.2368,-319.7805 1293.9632,-303.1929 1320,-288 1340.8261,-275.8477 1396.7007,-240.8924 1429.0169,-220.5929"/>
<polygon fill="#191970" stroke="#191970" points="1431.238,-223.3309 1437.8419,-215.046 1427.5129,-217.4044 1431.238,-223.3309"/>
</g>
<!-- Node41 -->
<g id="node42" class="node">
<title>Node41</title>
<g id="a_node42"><a xlink:href="../../df/db6/CathodeSegmentation_8h.html" target="_top" xlink:title="MCHMappingInterface\l/CathodeSegmentation.h">
<polygon fill="none" stroke="#000000" points="1379.5,-257.5 1379.5,-287.5 1516.5,-287.5 1516.5,-257.5 1379.5,-257.5"/>
<text text-anchor="start" x="1387.5" y="-275.5" font-family="Helvetica,sans-Serif" font-size="10.00" fill="#000000">MCHMappingInterface</text>
<text text-anchor="middle" x="1448" y="-264.5" font-family="Helvetica,sans-Serif" font-size="10.00" fill="#000000">/CathodeSegmentation.h</text>
</a>
</g>
</g>
<!-- Node40&#45;&gt;Node41 -->
<g id="edge50" class="edge">
<title>Node40&#45;&gt;Node41</title>
<path fill="none" stroke="#191970" d="M1404.7073,-324.2967C1411.7956,-315.816 1420.7702,-305.0785 1428.7079,-295.5817"/>
<polygon fill="#191970" stroke="#191970" points="1431.6154,-297.5606 1435.343,-287.6432 1426.2444,-293.0714 1431.6154,-297.5606"/>
</g>
<!-- Node46 -->
<g id="node47" class="node">
<title>Node46</title>
<g id="a_node47"><a xlink:href="../../d0/d5f/Segmentation_8inl.html" target="_top" xlink:title="Segmentation.inl">
<polygon fill="none" stroke="#000000" points="1535,-263 1535,-282 1635,-282 1635,-263 1535,-263"/>
<text text-anchor="middle" x="1585" y="-270" font-family="Helvetica,sans-Serif" font-size="10.00" fill="#000000">Segmentation.inl</text>
</a>
</g>
</g>
<!-- Node40&#45;&gt;Node46 -->
<g id="edge59" class="edge">
<title>Node40&#45;&gt;Node46</title>
<path fill="none" stroke="#191970" d="M1435.313,-324.4639C1469.2553,-312.6808 1515.9645,-296.4657 1548.1329,-285.2984"/>
<polygon fill="#191970" stroke="#191970" points="1549.32,-288.5913 1557.6191,-282.0053 1547.0243,-281.9784 1549.32,-288.5913"/>
</g>
<!-- Node41&#45;&gt;Node31 -->
<g id="edge52" class="edge">
<title>Node41&#45;&gt;Node31</title>
<path fill="none" stroke="#191970" d="M1413.8882,-257.4639C1387.9251,-246.0196 1352.477,-230.3945 1327.2485,-219.274"/>
<polygon fill="#191970" stroke="#191970" points="1328.3502,-215.9347 1317.788,-215.1039 1325.5268,-222.3401 1328.3502,-215.9347"/>
</g>
<!-- Node41&#45;&gt;Node35 -->
<g id="edge53" class="edge">
<title>Node41&#45;&gt;Node35</title>
<path fill="none" stroke="#191970" d="M1431.6621,-257.2967C1420.3352,-246.7564 1405.2624,-232.7303 1393.6586,-221.9323"/>
<polygon fill="#191970" stroke="#191970" points="1395.9731,-219.3051 1386.268,-215.055 1391.2044,-224.4296 1395.9731,-219.3051"/>
</g>
<!-- Node41&#45;&gt;Node36 -->
<g id="edge55" class="edge">
<title>Node41&#45;&gt;Node36</title>
<path fill="none" stroke="#191970" d="M1388.5288,-257.4639C1335.41,-244.0338 1259.5187,-224.8462 1216.3723,-213.9375"/>
<polygon fill="#191970" stroke="#191970" points="1217.2082,-210.5388 1206.6553,-211.4808 1215.4923,-217.3253 1217.2082,-210.5388"/>
</g>
<!-- Node41&#45;&gt;Node38 -->
<g id="edge54" class="edge">
<title>Node41&#45;&gt;Node38</title>
<path fill="none" stroke="#191970" d="M1449.1346,-257.2967C1449.8455,-247.7699 1450.769,-235.3954 1451.535,-225.1306"/>
<polygon fill="#191970" stroke="#191970" points="1455.0329,-225.2877 1452.2869,-215.055 1448.0524,-224.7667 1455.0329,-225.2877"/>
</g>
<!-- Node42 -->
<g id="node43" class="node">
<title>Node42</title>
<g id="a_node43"><a xlink:href="../../d0/dc7/CathodeSegmentationCInterface_8h.html" target="_top" xlink:title="CathodeSegmentationCInterface.h">
<polygon fill="none" stroke="#000000" points="1501.5,-196 1501.5,-215 1686.5,-215 1686.5,-196 1501.5,-196"/>
<text text-anchor="middle" x="1594" y="-203" font-family="Helvetica,sans-Serif" font-size="10.00" fill="#000000">CathodeSegmentationCInterface.h</text>
</a>
</g>
</g>
<!-- Node41&#45;&gt;Node42 -->
<g id="edge51" class="edge">
<title>Node41&#45;&gt;Node42</title>
<path fill="none" stroke="#191970" d="M1480.7652,-257.4639C1505.5932,-246.0702 1539.4512,-230.5327 1563.6628,-219.4219"/>
<polygon fill="#191970" stroke="#191970" points="1565.4432,-222.4559 1573.0721,-215.1039 1562.5236,-216.0938 1565.4432,-222.4559"/>
</g>
<!-- Node43 -->
<g id="node44" class="node">
<title>Node43</title>
<polygon fill="none" stroke="#bfbfbf" points="1704,-196 1704,-215 1760,-215 1760,-196 1704,-196"/>
<text text-anchor="middle" x="1732" y="-203" font-family="Helvetica,sans-Serif" font-size="10.00" fill="#000000">sstream</text>
</g>
<!-- Node41&#45;&gt;Node43 -->
<g id="edge56" class="edge">
<title>Node41&#45;&gt;Node43</title>
<path fill="none" stroke="#191970" d="M1516.7732,-258.5736C1587.131,-244.2721 1687.3638,-223.7251 1696,-221 1698.109,-220.3345 1700.2628,-219.5882 1702.4159,-218.7922"/>
<polygon fill="#191970" stroke="#191970" points="1703.7209,-222.0399 1711.7109,-215.0822 1701.1259,-215.5387 1703.7209,-222.0399"/>
</g>
<!-- Node44 -->
<g id="node45" class="node">
<title>Node44</title>
<polygon fill="none" stroke="#bfbfbf" points="1778.5,-196 1778.5,-215 1843.5,-215 1843.5,-196 1778.5,-196"/>
<text text-anchor="middle" x="1811" y="-203" font-family="Helvetica,sans-Serif" font-size="10.00" fill="#000000">functional</text>
</g>
<!-- Node41&#45;&gt;Node44 -->
<g id="edge57" class="edge">
<title>Node41&#45;&gt;Node44</title>
<path fill="none" stroke="#191970" d="M1516.8693,-258.6239C1519.9527,-258.0628 1523.0072,-257.5187 1526,-257 1633.5748,-238.3545 1663.2237,-248.0441 1769,-221 1771.9909,-220.2353 1775.0647,-219.3348 1778.1237,-218.359"/>
<polygon fill="#191970" stroke="#191970" points="1779.4049,-221.6197 1787.7247,-215.0599 1777.1301,-214.9996 1779.4049,-221.6197"/>
</g>
<!-- Node45 -->
<g id="node46" class="node">
<title>Node45</title>
<polygon fill="none" stroke="#bfbfbf" points="1862,-196 1862,-215 1918,-215 1918,-196 1862,-196"/>
<text text-anchor="middle" x="1890" y="-203" font-family="Helvetica,sans-Serif" font-size="10.00" fill="#000000">iomanip</text>
</g>
<!-- Node41&#45;&gt;Node45 -->
<g id="edge58" class="edge">
<title>Node41&#45;&gt;Node45</title>
<path fill="none" stroke="#191970" d="M1516.8463,-258.4833C1519.936,-257.9602 1522.998,-257.4626 1526,-257 1670.5055,-234.7304 1711.4497,-257.6235 1853,-221 1855.4779,-220.3589 1858.0068,-219.5824 1860.5211,-218.7227"/>
<polygon fill="#191970" stroke="#191970" points="1861.9109,-221.9386 1870.0067,-215.1042 1859.4159,-215.3983 1861.9109,-221.9386"/>
</g>
</g>
</svg>
        <g id="navigator" transform="translate(0 0)" fill="#404254">
                <rect fill="#f2f5e9" fill-opacity="0.5" stroke="#606060" stroke-width=".5" x="0" y="0" width="60" height="60"/>
                <use id="zoomplus" xlink:href="#zoomPlus" x="17" y="9" onmousedown="handleZoom(evt,'in')"/>
                <use id="zoomminus" xlink:href="#zoomMin" x="42" y="9" onmousedown="handleZoom(evt,'out')"/>
                <use id="reset" xlink:href="#resetDef" x="30" y="36" onmousedown="handleReset()"/>
                <g id="arrowUp" xlink:href="#dirArrow" transform="translate(30 24)" onmousedown="handlePan(0,-1)">
                  <use xlink:href="#rim" fill="#404040">
                        <set attributeName="fill" to="#808080" begin="arrowUp.mouseover" end="arrowUp.mouseout"/>
                  </use>
                  <path fill="none" stroke="white" stroke-width="1.5" d="M0,-3.0v7 M-2.5,-0.5L0,-3.0L2.5,-0.5"/>
                </g>
                <g id="arrowRight" xlink:href="#dirArrow" transform="rotate(90) translate(36 -43)" onmousedown="handlePan(1,0)">
                  <use xlink:href="#rim" fill="#404040">
                        <set attributeName="fill" to="#808080" begin="arrowRight.mouseover" end="arrowRight.mouseout"/>
                  </use>
                  <path fill="none" stroke="white" stroke-width="1.5" d="M0,-3.0v7 M-2.5,-0.5L0,-3.0L2.5,-0.5"/>
                </g>
                <g id="arrowDown" xlink:href="#dirArrow" transform="rotate(180) translate(-30 -48)" onmousedown="handlePan(0,1)">
                  <use xlink:href="#rim" fill="#404040">
                        <set attributeName="fill" to="#808080" begin="arrowDown.mouseover" end="arrowDown.mouseout"/>
                  </use>
                  <path fill="none" stroke="white" stroke-width="1.5" d="M0,-3.0v7 M-2.5,-0.5L0,-3.0L2.5,-0.5"/>
                </g>
                <g id="arrowLeft" xlink:href="#dirArrow" transform="rotate(270) translate(-36 17)" onmousedown="handlePan(-1,0)">
                  <use xlink:href="#rim" fill="#404040">
                        <set attributeName="fill" to="#808080" begin="arrowLeft.mouseover" end="arrowLeft.mouseout"/>
                  </use>
                  <path fill="none" stroke="white" stroke-width="1.5" d="M0,-3.0v7 M-2.5,-0.5L0,-3.0L2.5,-0.5"/>
                </g>
        </g>
        <svg viewBox="0 0 15 15" width="100%" height="30px" preserveAspectRatio="xMaxYMin meet">
         <g id="arrow_out" transform="scale(0.3 0.3)">
          <a xlink:href="testDigitization_8cxx__incl_org.svg" target="_base">
           <rect id="button" ry="5" rx="5" y="6" x="6" height="38" width="38"
                fill="#f2f5e9" fill-opacity="0.5" stroke="#606060" stroke-width="1.0"/>
           <path id="arrow"
             d="M 11.500037,31.436501 C 11.940474,20.09759 22.043105,11.32322 32.158766,21.979434 L 37.068811,17.246167 C 37.068811,17.246167 37.088388,32 37.088388,32 L 22.160133,31.978069 C 22.160133,31.978069 26.997745,27.140456 26.997745,27.140456 C 18.528582,18.264221 13.291696,25.230495 11.500037,31.436501 z"
             style="fill:#404040;"/>
          </a>
         </g>
        </svg>
</svg>
