<?xml version="1.0" encoding="UTF-8" standalone="no"?>
<!DOCTYPE svg PUBLIC "-//W3C//DTD SVG 1.1//EN"
 "http://www.w3.org/Graphics/SVG/1.1/DTD/svg11.dtd">
<!-- Generated by graphviz version 2.40.1 (20161225.0304)
 -->
<!-- Title: /home/travis/build/AliceO2Group/AliceO2/Detectors/TPC/base/src/ParameterDetector.cxx Pages: 1 -->
<svg width="1973pt" height="385pt"
 viewBox="0.00 0.00 1973.00 385.00" xmlns="http://www.w3.org/2000/svg" xmlns:xlink="http://www.w3.org/1999/xlink">
<g id="graph0" class="graph" transform="scale(1 1) rotate(0) translate(4 381)">
<title>/home/travis/build/AliceO2Group/AliceO2/Detectors/TPC/base/src/ParameterDetector.cxx</title>
<!-- Node0 -->
<g id="node1" class="node">
<title>Node0</title>
<polygon fill="#bfbfbf" stroke="#000000" points="1205,-324.5 1205,-376.5 1337,-376.5 1337,-324.5 1205,-324.5"/>
<text text-anchor="start" x="1213" y="-364.5" font-family="Helvetica,sans-Serif" font-size="10.00" fill="#000000">/home/travis/build</text>
<text text-anchor="start" x="1213" y="-353.5" font-family="Helvetica,sans-Serif" font-size="10.00" fill="#000000">/AliceO2Group/AliceO2</text>
<text text-anchor="start" x="1213" y="-342.5" font-family="Helvetica,sans-Serif" font-size="10.00" fill="#000000">/Detectors/TPC/base/src</text>
<text text-anchor="middle" x="1271" y="-331.5" font-family="Helvetica,sans-Serif" font-size="10.00" fill="#000000">/ParameterDetector.cxx</text>
</g>
<!-- Node1 -->
<g id="node2" class="node">
<title>Node1</title>
<g id="a_node2"><a xlink:href="../../db/dad/ParameterDetector_8h.html" target="_top" xlink:title="Definition of the parameter class for the detector. ">
<polygon fill="none" stroke="#000000" points="1189.5,-268.5 1189.5,-287.5 1352.5,-287.5 1352.5,-268.5 1189.5,-268.5"/>
<text text-anchor="middle" x="1271" y="-275.5" font-family="Helvetica,sans-Serif" font-size="10.00" fill="#000000">TPCBase/ParameterDetector.h</text>
</a>
</g>
</g>
<!-- Node0&#45;&gt;Node1 -->
<g id="edge1" class="edge">
<title>Node0&#45;&gt;Node1</title>
<path fill="none" stroke="#191970" d="M1271,-324.3258C1271,-315.5142 1271,-305.8397 1271,-297.621"/>
<polygon fill="#191970" stroke="#191970" points="1274.5001,-297.534 1271,-287.534 1267.5001,-297.534 1274.5001,-297.534"/>
</g>
<!-- Node2 -->
<g id="node3" class="node">
<title>Node2</title>
<polygon fill="none" stroke="#bfbfbf" points="837,-207 837,-226 879,-226 879,-207 837,-207"/>
<text text-anchor="middle" x="858" y="-214" font-family="Helvetica,sans-Serif" font-size="10.00" fill="#000000">array</text>
</g>
<!-- Node1&#45;&gt;Node2 -->
<g id="edge2" class="edge">
<title>Node1&#45;&gt;Node2</title>
<path fill="none" stroke="#191970" d="M1189.2136,-271.6121C1093.898,-263.5659 942.4928,-248.7499 888,-232 886.529,-231.5479 885.0443,-231.0255 883.5641,-230.452"/>
<polygon fill="#191970" stroke="#191970" points="884.6071,-227.0815 874.0552,-226.1293 881.7102,-233.454 884.6071,-227.0815"/>
</g>
<!-- Node3 -->
<g id="node4" class="node">
<title>Node3</title>
<g id="a_node4"><a xlink:href="../../d1/d73/Defs_8h.html" target="_top" xlink:title="Common definitions for 2D coordinates. ">
<polygon fill="none" stroke="#000000" points="897.5,-207 897.5,-226 1030.5,-226 1030.5,-207 897.5,-207"/>
<text text-anchor="middle" x="964" y="-214" font-family="Helvetica,sans-Serif" font-size="10.00" fill="#000000">DataFormatsTPC/Defs.h</text>
</a>
</g>
</g>
<!-- Node1&#45;&gt;Node3 -->
<g id="edge3" class="edge">
<title>Node1&#45;&gt;Node3</title>
<path fill="none" stroke="#191970" d="M1223.3681,-268.4581C1168.9518,-257.5571 1079.9264,-239.723 1021.6427,-228.0473"/>
<polygon fill="#191970" stroke="#191970" points="1021.9838,-224.5462 1011.4911,-226.0137 1020.6087,-231.4098 1021.9838,-224.5462"/>
</g>
<!-- Node18 -->
<g id="node19" class="node">
<title>Node18</title>
<g id="a_node19"><a xlink:href="../../db/d2c/ConfigurableParam_8h.html" target="_top" xlink:title="CommonUtils/Configurable\lParam.h">
<polygon fill="none" stroke="#000000" points="1550,-134.5 1550,-164.5 1698,-164.5 1698,-134.5 1550,-134.5"/>
<text text-anchor="start" x="1558" y="-152.5" font-family="Helvetica,sans-Serif" font-size="10.00" fill="#000000">CommonUtils/Configurable</text>
<text text-anchor="middle" x="1624" y="-141.5" font-family="Helvetica,sans-Serif" font-size="10.00" fill="#000000">Param.h</text>
</a>
</g>
</g>
<!-- Node1&#45;&gt;Node18 -->
<g id="edge19" class="edge">
<title>Node1&#45;&gt;Node18</title>
<path fill="none" stroke="#191970" d="M1297.244,-268.4466C1355.6242,-247.1949 1497.0832,-195.7006 1573.3175,-167.9496"/>
<polygon fill="#191970" stroke="#191970" points="1574.53,-171.233 1582.7295,-164.5234 1572.1355,-164.6552 1574.53,-171.233"/>
</g>
<!-- Node25 -->
<g id="node26" class="node">
<title>Node25</title>
<g id="a_node26"><a xlink:href="../../da/d6b/ConfigurableParamHelper_8h.html" target="_top" xlink:title="CommonUtils/Configurable\lParamHelper.h">
<polygon fill="none" stroke="#000000" points="1680,-201.5 1680,-231.5 1828,-231.5 1828,-201.5 1680,-201.5"/>
<text text-anchor="start" x="1688" y="-219.5" font-family="Helvetica,sans-Serif" font-size="10.00" fill="#000000">CommonUtils/Configurable</text>
<text text-anchor="middle" x="1754" y="-208.5" font-family="Helvetica,sans-Serif" font-size="10.00" fill="#000000">ParamHelper.h</text>
</a>
</g>
</g>
<!-- Node1&#45;&gt;Node25 -->
<g id="edge26" class="edge">
<title>Node1&#45;&gt;Node25</title>
<path fill="none" stroke="#191970" d="M1345.6743,-268.4918C1433.3454,-257.3287 1578.3779,-238.8618 1669.9244,-227.2053"/>
<polygon fill="#191970" stroke="#191970" points="1670.5108,-230.659 1679.9886,-225.9238 1669.6266,-223.715 1670.5108,-230.659"/>
</g>
<!-- Node4 -->
<g id="node5" class="node">
<title>Node4</title>
<polygon fill="none" stroke="#bfbfbf" points="682.5,-140 682.5,-159 729.5,-159 729.5,-140 682.5,-140"/>
<text text-anchor="middle" x="706" y="-147" font-family="Helvetica,sans-Serif" font-size="10.00" fill="#000000">cmath</text>
</g>
<!-- Node3&#45;&gt;Node4 -->
<g id="edge4" class="edge">
<title>Node3&#45;&gt;Node4</title>
<path fill="none" stroke="#191970" d="M916.7695,-206.9315C860.9003,-195.3955 771.3905,-176.1692 739,-165 737.3544,-164.4326 735.6816,-163.8082 734.0064,-163.1456"/>
<polygon fill="#191970" stroke="#191970" points="735.1263,-159.8168 724.5582,-159.0643 732.3504,-166.2429 735.1263,-159.8168"/>
</g>
<!-- Node5 -->
<g id="node6" class="node">
<title>Node5</title>
<g id="a_node6"><a xlink:href="../../d1/da8/GPUROOTCartesianFwd_8h.html" target="_top" xlink:title="GPUROOTCartesianFwd.h">
<polygon fill="none" stroke="#000000" points="748,-140 748,-159 888,-159 888,-140 748,-140"/>
<text text-anchor="middle" x="818" y="-147" font-family="Helvetica,sans-Serif" font-size="10.00" fill="#000000">GPUROOTCartesianFwd.h</text>
</a>
</g>
</g>
<!-- Node3&#45;&gt;Node5 -->
<g id="edge5" class="edge">
<title>Node3&#45;&gt;Node5</title>
<path fill="none" stroke="#191970" d="M943.0818,-206.9005C918.2544,-195.5072 876.6567,-176.4178 848.3058,-163.4075"/>
<polygon fill="#191970" stroke="#191970" points="849.4279,-160.0715 838.8794,-159.0817 846.5083,-166.4336 849.4279,-160.0715"/>
</g>
<!-- Node6 -->
<g id="node7" class="node">
<title>Node6</title>
<g id="a_node7"><a xlink:href="../../d2/dd0/Cartesian2D_8h.html" target="_top" xlink:title="MathUtils/Cartesian2D.h">
<polygon fill="none" stroke="#000000" points="111.5,-73 111.5,-92 246.5,-92 246.5,-73 111.5,-73"/>
<text text-anchor="middle" x="179" y="-80" font-family="Helvetica,sans-Serif" font-size="10.00" fill="#000000">MathUtils/Cartesian2D.h</text>
</a>
</g>
</g>
<!-- Node3&#45;&gt;Node6 -->
<g id="edge6" class="edge">
<title>Node3&#45;&gt;Node6</title>
<path fill="none" stroke="#191970" d="M959.5855,-206.9141C950.6887,-188.8663 928.7106,-150.204 897,-134 769.9567,-69.0814 397.5131,-116.1232 256,-98 247.8264,-96.9532 239.2211,-95.537 230.8434,-93.984"/>
<polygon fill="#191970" stroke="#191970" points="231.2642,-90.5006 220.7815,-92.0375 229.9347,-97.3732 231.2642,-90.5006"/>
</g>
<!-- Node9 -->
<g id="node10" class="node">
<title>Node9</title>
<g id="a_node10"><a xlink:href="../../dd/d76/Cartesian3D_8h.html" target="_top" xlink:title="MathUtils/Cartesian3D.h">
<polygon fill="none" stroke="#000000" points="944.5,-140 944.5,-159 1079.5,-159 1079.5,-140 944.5,-140"/>
<text text-anchor="middle" x="1012" y="-147" font-family="Helvetica,sans-Serif" font-size="10.00" fill="#000000">MathUtils/Cartesian3D.h</text>
</a>
</g>
</g>
<!-- Node3&#45;&gt;Node9 -->
<g id="edge9" class="edge">
<title>Node3&#45;&gt;Node9</title>
<path fill="none" stroke="#191970" d="M970.8772,-206.9005C978.2198,-196.6515 990.0241,-180.1747 999.1062,-167.4976"/>
<polygon fill="#191970" stroke="#191970" points="1002.1568,-169.2492 1005.1355,-159.0817 996.4664,-165.1724 1002.1568,-169.2492"/>
</g>
<!-- Node7 -->
<g id="node8" class="node">
<title>Node7</title>
<polygon fill="none" stroke="#bfbfbf" points="0,-.5 0,-30.5 164,-30.5 164,-.5 0,-.5"/>
<text text-anchor="start" x="8" y="-18.5" font-family="Helvetica,sans-Serif" font-size="10.00" fill="#000000">Math/GenVector/Displacement</text>
<text text-anchor="middle" x="82" y="-7.5" font-family="Helvetica,sans-Serif" font-size="10.00" fill="#000000">Vector2D.h</text>
</g>
<!-- Node6&#45;&gt;Node7 -->
<g id="edge7" class="edge">
<title>Node6&#45;&gt;Node7</title>
<path fill="none" stroke="#191970" d="M165.1023,-72.9005C151.3265,-63.3853 129.7795,-48.5023 112.0779,-36.2755"/>
<polygon fill="#191970" stroke="#191970" points="113.9651,-33.3253 103.7479,-30.5218 109.9868,-39.0849 113.9651,-33.3253"/>
</g>
<!-- Node8 -->
<g id="node9" class="node">
<title>Node8</title>
<polygon fill="none" stroke="#bfbfbf" points="182.5,-6 182.5,-25 371.5,-25 371.5,-6 182.5,-6"/>
<text text-anchor="middle" x="277" y="-13" font-family="Helvetica,sans-Serif" font-size="10.00" fill="#000000">Math/GenVector/PositionVector2D.h</text>
</g>
<!-- Node6&#45;&gt;Node8 -->
<g id="edge8" class="edge">
<title>Node6&#45;&gt;Node8</title>
<path fill="none" stroke="#191970" d="M193.041,-72.9005C209.1238,-61.9052 235.6906,-43.7422 254.6316,-30.7927"/>
<polygon fill="#191970" stroke="#191970" points="256.7052,-33.6148 262.985,-25.0817 252.7545,-27.8362 256.7052,-33.6148"/>
</g>
<!-- Node9&#45;&gt;Node6 -->
<g id="edge18" class="edge">
<title>Node9&#45;&gt;Node6</title>
<path fill="none" stroke="#191970" d="M967.4825,-139.9665C955.3736,-137.6798 942.2263,-135.4754 930,-134 632.178,-98.0613 553.6043,-135.6987 256,-98 247.825,-96.9644 239.219,-95.5541 230.8409,-94.0036"/>
<polygon fill="#191970" stroke="#191970" points="231.2613,-90.5202 220.7788,-92.0586 229.9328,-97.393 231.2613,-90.5202"/>
</g>
<!-- Node10 -->
<g id="node11" class="node">
<title>Node10</title>
<polygon fill="none" stroke="#bfbfbf" points="265,-67.5 265,-97.5 429,-97.5 429,-67.5 265,-67.5"/>
<text text-anchor="start" x="273" y="-85.5" font-family="Helvetica,sans-Serif" font-size="10.00" fill="#000000">Math/GenVector/Displacement</text>
<text text-anchor="middle" x="347" y="-74.5" font-family="Helvetica,sans-Serif" font-size="10.00" fill="#000000">Vector3D.h</text>
</g>
<!-- Node9&#45;&gt;Node10 -->
<g id="edge10" class="edge">
<title>Node9&#45;&gt;Node10</title>
<path fill="none" stroke="#191970" d="M966.6058,-139.9661C954.7355,-137.7351 941.9239,-135.558 930,-134 715.8876,-106.0227 657.4122,-123.878 439.4521,-98.0988"/>
<polygon fill="#191970" stroke="#191970" points="439.6341,-94.5956 429.2883,-96.8789 438.7999,-101.5457 439.6341,-94.5956"/>
</g>
<!-- Node11 -->
<g id="node12" class="node">
<title>Node11</title>
<polygon fill="none" stroke="#bfbfbf" points="447.5,-73 447.5,-92 636.5,-92 636.5,-73 447.5,-73"/>
<text text-anchor="middle" x="542" y="-80" font-family="Helvetica,sans-Serif" font-size="10.00" fill="#000000">Math/GenVector/PositionVector3D.h</text>
</g>
<!-- Node9&#45;&gt;Node11 -->
<g id="edge11" class="edge">
<title>Node9&#45;&gt;Node11</title>
<path fill="none" stroke="#191970" d="M964.3887,-139.9939C953.1357,-137.8876 941.1628,-135.7609 930,-134 804.3217,-114.1751 772.0398,-115.3787 646,-98 635.7904,-96.5923 625.0258,-95.0516 614.4476,-93.5051"/>
<polygon fill="#191970" stroke="#191970" points="614.7899,-90.0178 604.3869,-92.0247 613.7708,-96.9433 614.7899,-90.0178"/>
</g>
<!-- Node12 -->
<g id="node13" class="node">
<title>Node12</title>
<polygon fill="none" stroke="#bfbfbf" points="655,-73 655,-92 815,-92 815,-73 655,-73"/>
<text text-anchor="middle" x="735" y="-80" font-family="Helvetica,sans-Serif" font-size="10.00" fill="#000000">Math/GenVector/Rotation3D.h</text>
</g>
<!-- Node9&#45;&gt;Node12 -->
<g id="edge12" class="edge">
<title>Node9&#45;&gt;Node12</title>
<path fill="none" stroke="#191970" d="M972.6068,-139.9717C923.2138,-128.0246 838.5056,-107.5357 784.7051,-94.5225"/>
<polygon fill="#191970" stroke="#191970" points="785.2483,-91.0531 774.7058,-92.1039 783.6026,-97.8569 785.2483,-91.0531"/>
</g>
<!-- Node13 -->
<g id="node14" class="node">
<title>Node13</title>
<polygon fill="none" stroke="#bfbfbf" points="833,-73 833,-92 1001,-92 1001,-73 833,-73"/>
<text text-anchor="middle" x="917" y="-80" font-family="Helvetica,sans-Serif" font-size="10.00" fill="#000000">Math/GenVector/Transform3D.h</text>
</g>
<!-- Node9&#45;&gt;Node13 -->
<g id="edge13" class="edge">
<title>Node9&#45;&gt;Node13</title>
<path fill="none" stroke="#191970" d="M998.3888,-139.9005C982.8689,-128.9549 957.2777,-110.9064 938.9333,-97.9688"/>
<polygon fill="#191970" stroke="#191970" points="940.7752,-94.9849 930.5859,-92.0817 936.7408,-100.7054 940.7752,-94.9849"/>
</g>
<!-- Node14 -->
<g id="node15" class="node">
<title>Node14</title>
<polygon fill="none" stroke="#bfbfbf" points="1019.5,-73 1019.5,-92 1192.5,-92 1192.5,-73 1019.5,-73"/>
<text text-anchor="middle" x="1106" y="-80" font-family="Helvetica,sans-Serif" font-size="10.00" fill="#000000">Math/GenVector/Translation3D.h</text>
</g>
<!-- Node9&#45;&gt;Node14 -->
<g id="edge14" class="edge">
<title>Node9&#45;&gt;Node14</title>
<path fill="none" stroke="#191970" d="M1025.4679,-139.9005C1040.8244,-128.9549 1066.1463,-110.9064 1084.2976,-97.9688"/>
<polygon fill="#191970" stroke="#191970" points="1086.4454,-100.736 1092.5571,-92.0817 1082.3824,-95.0358 1086.4454,-100.736"/>
</g>
<!-- Node15 -->
<g id="node16" class="node">
<title>Node15</title>
<polygon fill="none" stroke="#bfbfbf" points="1210.5,-73 1210.5,-92 1269.5,-92 1269.5,-73 1210.5,-73"/>
<text text-anchor="middle" x="1240" y="-80" font-family="Helvetica,sans-Serif" font-size="10.00" fill="#000000">Rtypes.h</text>
</g>
<!-- Node9&#45;&gt;Node15 -->
<g id="edge15" class="edge">
<title>Node9&#45;&gt;Node15</title>
<path fill="none" stroke="#191970" d="M1052.2113,-139.9359C1090.7422,-130.4452 1150.3531,-114.9054 1201,-98 1203.1338,-97.2878 1205.3202,-96.5219 1207.5155,-95.7256"/>
<polygon fill="#191970" stroke="#191970" points="1208.9476,-98.9259 1217.0611,-92.1126 1206.4696,-92.3792 1208.9476,-98.9259"/>
</g>
<!-- Node16 -->
<g id="node17" class="node">
<title>Node16</title>
<polygon fill="none" stroke="#bfbfbf" points="1288,-73 1288,-92 1370,-92 1370,-73 1288,-73"/>
<text text-anchor="middle" x="1329" y="-80" font-family="Helvetica,sans-Serif" font-size="10.00" fill="#000000">TGeoMatrix.h</text>
</g>
<!-- Node9&#45;&gt;Node16 -->
<g id="edge16" class="edge">
<title>Node9&#45;&gt;Node16</title>
<path fill="none" stroke="#191970" d="M1070.4976,-139.9735C1124.6488,-130.7303 1207.2355,-115.5534 1278,-98 1281.8313,-97.0496 1285.8018,-95.9856 1289.7587,-94.8722"/>
<polygon fill="#191970" stroke="#191970" points="1290.8582,-98.1975 1299.4797,-92.0395 1288.8998,-91.477 1290.8582,-98.1975"/>
</g>
<!-- Node17 -->
<g id="node18" class="node">
<title>Node17</title>
<polygon fill="none" stroke="#bfbfbf" points="1388.5,-73 1388.5,-92 1437.5,-92 1437.5,-73 1388.5,-73"/>
<text text-anchor="middle" x="1413" y="-80" font-family="Helvetica,sans-Serif" font-size="10.00" fill="#000000">iosfwd</text>
</g>
<!-- Node9&#45;&gt;Node17 -->
<g id="edge17" class="edge">
<title>Node9&#45;&gt;Node17</title>
<path fill="none" stroke="#191970" d="M1079.5162,-145.8636C1154.0817,-140.5109 1277.0797,-127.7026 1379,-98 1380.9619,-97.4283 1382.9557,-96.7625 1384.9439,-96.0346"/>
<polygon fill="#191970" stroke="#191970" points="1386.7554,-99.0735 1394.6646,-92.0239 1384.0855,-92.6026 1386.7554,-99.0735"/>
</g>
<!-- Node19 -->
<g id="node20" class="node">
<title>Node19</title>
<polygon fill="none" stroke="#bfbfbf" points="1455.5,-73 1455.5,-92 1502.5,-92 1502.5,-73 1455.5,-73"/>
<text text-anchor="middle" x="1479" y="-80" font-family="Helvetica,sans-Serif" font-size="10.00" fill="#000000">vector</text>
</g>
<!-- Node18&#45;&gt;Node19 -->
<g id="edge20" class="edge">
<title>Node18&#45;&gt;Node19</title>
<path fill="none" stroke="#191970" d="M1591.1325,-134.4718C1568.7953,-124.2375 1538.5889,-110.3572 1512,-98 1510.8376,-97.4598 1509.6527,-96.9081 1508.456,-96.35"/>
<polygon fill="#191970" stroke="#191970" points="1509.7731,-93.1022 1499.2322,-92.0347 1506.8067,-99.4426 1509.7731,-93.1022"/>
</g>
<!-- Node20 -->
<g id="node21" class="node">
<title>Node20</title>
<polygon fill="none" stroke="#bfbfbf" points="1521,-73 1521,-92 1559,-92 1559,-73 1521,-73"/>
<text text-anchor="middle" x="1540" y="-80" font-family="Helvetica,sans-Serif" font-size="10.00" fill="#000000">map</text>
</g>
<!-- Node18&#45;&gt;Node20 -->
<g id="edge21" class="edge">
<title>Node18&#45;&gt;Node20</title>
<path fill="none" stroke="#191970" d="M1604.9391,-134.2967C1591.4703,-123.5537 1573.4615,-109.1895 1559.8252,-98.3129"/>
<polygon fill="#191970" stroke="#191970" points="1561.9796,-95.5544 1551.9794,-92.055 1557.6147,-101.0268 1561.9796,-95.5544"/>
</g>
<!-- Node21 -->
<g id="node22" class="node">
<title>Node21</title>
<polygon fill="none" stroke="#bfbfbf" points="1577.5,-73 1577.5,-92 1670.5,-92 1670.5,-73 1577.5,-73"/>
<text text-anchor="middle" x="1624" y="-80" font-family="Helvetica,sans-Serif" font-size="10.00" fill="#000000">unordered_map</text>
</g>
<!-- Node18&#45;&gt;Node21 -->
<g id="edge22" class="edge">
<title>Node18&#45;&gt;Node21</title>
<path fill="none" stroke="#191970" d="M1624,-134.2967C1624,-124.7699 1624,-112.3954 1624,-102.1306"/>
<polygon fill="#191970" stroke="#191970" points="1627.5001,-102.0549 1624,-92.055 1620.5001,-102.055 1627.5001,-102.0549"/>
</g>
<!-- Node22 -->
<g id="node23" class="node">
<title>Node22</title>
<polygon fill="none" stroke="#bfbfbf" points="1688.5,-67.5 1688.5,-97.5 1801.5,-97.5 1801.5,-67.5 1688.5,-67.5"/>
<text text-anchor="start" x="1696.5" y="-85.5" font-family="Helvetica,sans-Serif" font-size="10.00" fill="#000000">boost/property_tree</text>
<text text-anchor="middle" x="1745" y="-74.5" font-family="Helvetica,sans-Serif" font-size="10.00" fill="#000000">/ptree.hpp</text>
</g>
<!-- Node18&#45;&gt;Node22 -->
<g id="edge23" class="edge">
<title>Node18&#45;&gt;Node22</title>
<path fill="none" stroke="#191970" d="M1651.1548,-134.4639C1668.0831,-125.0903 1690.0767,-112.9121 1708.5168,-102.7015"/>
<polygon fill="#191970" stroke="#191970" points="1710.4643,-105.6239 1717.5172,-97.7177 1707.0734,-99.5 1710.4643,-105.6239"/>
</g>
<!-- Node23 -->
<g id="node24" class="node">
<title>Node23</title>
<polygon fill="none" stroke="#bfbfbf" points="1898.5,-73 1898.5,-92 1955.5,-92 1955.5,-73 1898.5,-73"/>
<text text-anchor="middle" x="1927" y="-80" font-family="Helvetica,sans-Serif" font-size="10.00" fill="#000000">typeinfo</text>
</g>
<!-- Node18&#45;&gt;Node23 -->
<g id="edge24" class="edge">
<title>Node18&#45;&gt;Node23</title>
<path fill="none" stroke="#191970" d="M1698.2577,-135.8373C1770.1458,-122.4859 1870.8653,-103.4041 1889,-98 1891.3045,-97.3133 1893.6619,-96.5382 1896.0181,-95.71"/>
<polygon fill="#191970" stroke="#191970" points="1897.4469,-98.9116 1905.5592,-92.0968 1894.9678,-92.3652 1897.4469,-98.9116"/>
</g>
<!-- Node24 -->
<g id="node25" class="node">
<title>Node24</title>
<polygon fill="none" stroke="#bfbfbf" points="1820,-73 1820,-92 1880,-92 1880,-73 1820,-73"/>
<text text-anchor="middle" x="1850" y="-80" font-family="Helvetica,sans-Serif" font-size="10.00" fill="#000000">iostream</text>
</g>
<!-- Node18&#45;&gt;Node24 -->
<g id="edge25" class="edge">
<title>Node18&#45;&gt;Node24</title>
<path fill="none" stroke="#191970" d="M1685.1451,-134.4673C1721.921,-124.9796 1769.4948,-111.9165 1811,-98 1813.1328,-97.2849 1815.3185,-96.5168 1817.5132,-95.7189"/>
<polygon fill="#191970" stroke="#191970" points="1818.9468,-98.9186 1827.0576,-92.102 1816.4662,-92.3728 1818.9468,-98.9186"/>
</g>
<!-- Node25&#45;&gt;Node18 -->
<g id="edge27" class="edge">
<title>Node25&#45;&gt;Node18</title>
<path fill="none" stroke="#191970" d="M1724.8255,-201.4639C1706.4719,-192.0047 1682.5765,-179.6894 1662.655,-169.4222"/>
<polygon fill="#191970" stroke="#191970" points="1664.0193,-166.1879 1653.527,-164.7177 1660.8124,-172.4101 1664.0193,-166.1879"/>
</g>
<!-- Node25&#45;&gt;Node23 -->
<g id="edge30" class="edge">
<title>Node25&#45;&gt;Node23</title>
<path fill="none" stroke="#191970" d="M1746.532,-201.3603C1738.8413,-183.3519 1729.9265,-153.3058 1745,-134 1785.5986,-82.0023 1826.2995,-118.5097 1889,-98 1891.1458,-97.2981 1893.3427,-96.5325 1895.545,-95.7296"/>
<polygon fill="#191970" stroke="#191970" points="1897.0191,-98.9126 1905.0944,-92.0541 1894.5046,-92.3798 1897.0191,-98.9126"/>
</g>
<!-- Node26 -->
<g id="node27" class="node">
<title>Node26</title>
<polygon fill="none" stroke="#bfbfbf" points="1754.5,-140 1754.5,-159 1811.5,-159 1811.5,-140 1754.5,-140"/>
<text text-anchor="middle" x="1783" y="-147" font-family="Helvetica,sans-Serif" font-size="10.00" fill="#000000">TClass.h</text>
</g>
<!-- Node25&#45;&gt;Node26 -->
<g id="edge28" class="edge">
<title>Node25&#45;&gt;Node26</title>
<path fill="none" stroke="#191970" d="M1760.5805,-201.2967C1764.7918,-191.5672 1770.2887,-178.8675 1774.7855,-168.4784"/>
<polygon fill="#191970" stroke="#191970" points="1778.104,-169.6225 1778.8643,-159.055 1771.6799,-166.8419 1778.104,-169.6225"/>
</g>
<!-- Node27 -->
<g id="node28" class="node">
<title>Node27</title>
<polygon fill="none" stroke="#bfbfbf" points="1829.5,-140 1829.5,-159 1898.5,-159 1898.5,-140 1829.5,-140"/>
<text text-anchor="middle" x="1864" y="-147" font-family="Helvetica,sans-Serif" font-size="10.00" fill="#000000">type_traits</text>
</g>
<!-- Node25&#45;&gt;Node27 -->
<g id="edge29" class="edge">
<title>Node25&#45;&gt;Node27</title>
<path fill="none" stroke="#191970" d="M1778.6861,-201.4639C1796.8102,-190.4247 1821.3209,-175.4954 1839.42,-164.4715"/>
<polygon fill="#191970" stroke="#191970" points="1841.5126,-167.2951 1848.2324,-159.1039 1837.8712,-161.3167 1841.5126,-167.2951"/>
</g>
<!-- Node28 -->
<g id="node29" class="node">
<title>Node28</title>
<polygon fill="none" stroke="#bfbfbf" points="1917,-140 1917,-159 1965,-159 1965,-140 1917,-140"/>
<text text-anchor="middle" x="1941" y="-147" font-family="Helvetica,sans-Serif" font-size="10.00" fill="#000000">TFile.h</text>
</g>
<!-- Node25&#45;&gt;Node28 -->
<g id="edge31" class="edge">
<title>Node25&#45;&gt;Node28</title>
<path fill="none" stroke="#191970" d="M1803.7718,-201.4755C1834.1939,-191.8937 1873.7162,-178.7299 1908,-165 1909.3955,-164.4411 1910.8162,-163.8525 1912.2452,-163.2445"/>
<polygon fill="#191970" stroke="#191970" points="1913.9161,-166.3317 1921.6218,-159.0603 1911.0635,-159.9392 1913.9161,-166.3317"/>
</g>
</g>
</svg>
