<?xml version="1.0" encoding="UTF-8" standalone="no"?>
<!DOCTYPE svg PUBLIC "-//W3C//DTD SVG 1.1//EN"
 "http://www.w3.org/Graphics/SVG/1.1/DTD/svg11.dtd">
<!-- Generated by graphviz version 2.40.1 (20161225.0304)
 -->
<!-- Title: DTask Pages: 1 -->
<!--zoomable 1083 -->
<svg id="main" version="1.1" xmlns="http://www.w3.org/2000/svg" xmlns:xlink="http://www.w3.org/1999/xlink" xml:space="preserve" onload="init(evt)">
<style type="text/css"><![CDATA[
.edge:hover path { stroke: red; }
.edge:hover polygon { stroke: red; fill: red; }
]]></style>
<script type="text/javascript"><![CDATA[
var edges = document.getElementsByTagName('g');
if (edges && edges.length) {
  for (var i=0;i<edges.length;i++) {
    if (edges[i].id.substr(0,4)=='edge') {
      edges[i].setAttribute('class','edge');
    }
  }
}
]]></script>
        <defs>
                <circle id="rim" cx="0" cy="0" r="7"/>
                <circle id="rim2" cx="0" cy="0" r="3.5"/>
                <g id="zoomPlus">
                        <use xlink:href="#rim" fill="#404040">
                                <set attributeName="fill" to="#808080" begin="zoomplus.mouseover" end="zoomplus.mouseout"/>
                        </use>
                        <path d="M-4,0h8M0,-4v8" fill="none" stroke="white" stroke-width="1.5" pointer-events="none"/>
                </g>
                <g id="zoomMin">
                        <use xlink:href="#rim" fill="#404040">
                                <set attributeName="fill" to="#808080" begin="zoomminus.mouseover" end="zoomminus.mouseout"/>
                        </use>
                        <path d="M-4,0h8" fill="none" stroke="white" stroke-width="1.5" pointer-events="none"/>
                </g>
                <g id="dirArrow">
                        <path fill="none" stroke="white" stroke-width="1.5" d="M0,-3.0v7 M-2.5,-0.5L0,-3.0L2.5,-0.5"/>
                </g>
               <g id="resetDef">
                       <use xlink:href="#rim2" fill="#404040">
                               <set attributeName="fill" to="#808080" begin="reset.mouseover" end="reset.mouseout"/>
                       </use>
               </g>
        </defs>

<script type="text/javascript">
var viewWidth = 897;
var viewHeight = 1083;
var sectionId = 'dynsection-0';
</script>
<script xlink:href="../../svgpan.js"/>
<svg id="graph" class="graph">
<g id="viewport">
<title>DTask</title>
<!-- Node1 -->
<g id="node1" class="node">
<title>Node1</title>
<polygon fill="#bfbfbf" stroke="#000000" points="680.7462,-.5 680.7462,-123.5 753.7462,-123.5 753.7462,-.5 680.7462,-.5"/>
<text text-anchor="middle" x="717.2462" y="-111.5" font-family="Helvetica,sans-Serif" font-size="10.00" fill="#000000">DTask</text>
<polyline fill="none" stroke="#000000" points="680.7462,-104.5 753.7462,-104.5 "/>
<text text-anchor="middle" x="717.2462" y="-92.5" font-family="Helvetica,sans-Serif" font-size="10.00" fill="#000000"> </text>
<polyline fill="none" stroke="#000000" points="680.7462,-85.5 753.7462,-85.5 "/>
<text text-anchor="start" x="688.7462" y="-73.5" font-family="Helvetica,sans-Serif" font-size="10.00" fill="#000000">+ process()</text>
<text text-anchor="start" x="688.7462" y="-62.5" font-family="Helvetica,sans-Serif" font-size="10.00" fill="#000000">+ init()</text>
<text text-anchor="start" x="688.7462" y="-51.5" font-family="Helvetica,sans-Serif" font-size="10.00" fill="#000000">+ process()</text>
<text text-anchor="start" x="688.7462" y="-40.5" font-family="Helvetica,sans-Serif" font-size="10.00" fill="#000000">+ init()</text>
<text text-anchor="start" x="688.7462" y="-29.5" font-family="Helvetica,sans-Serif" font-size="10.00" fill="#000000">+ process()</text>
<text text-anchor="start" x="688.7462" y="-18.5" font-family="Helvetica,sans-Serif" font-size="10.00" fill="#000000">+ process()</text>
<text text-anchor="start" x="688.7462" y="-7.5" font-family="Helvetica,sans-Serif" font-size="10.00" fill="#000000">+ process()</text>
</g>
<!-- Node2 -->
<g id="node2" class="node">
<title>Node2</title>
<g id="a_node2"><a xlink:href="../../d8/d34/classo2_1_1framework_1_1HistogramRegistry.html" target="_top" xlink:title="{o2::framework::Histogram\lRegistry\n||+ HistogramRegistry()\l+ add()\l+ add()\l+ add()\l+ get()\l+ operator()()\l+ spec()\l+ ref()\l+ setHash()\l+ operator*()\l+ fill()\l+ fillWeight()\l+ fill()\l+ fillWeight()\l+ fillTable()\l}">
<polygon fill="none" stroke="#000000" points="743.7462,-368.5 743.7462,-590.5 888.7462,-590.5 888.7462,-368.5 743.7462,-368.5"/>
<text text-anchor="start" x="751.7462" y="-578.5" font-family="Helvetica,sans-Serif" font-size="10.00" fill="#000000">o2::framework::Histogram</text>
<text text-anchor="middle" x="816.2462" y="-567.5" font-family="Helvetica,sans-Serif" font-size="10.00" fill="#000000">Registry</text>
<polyline fill="none" stroke="#000000" points="743.7462,-560.5 888.7462,-560.5 "/>
<text text-anchor="middle" x="816.2462" y="-548.5" font-family="Helvetica,sans-Serif" font-size="10.00" fill="#000000"> </text>
<polyline fill="none" stroke="#000000" points="743.7462,-541.5 888.7462,-541.5 "/>
<text text-anchor="start" x="751.7462" y="-529.5" font-family="Helvetica,sans-Serif" font-size="10.00" fill="#000000">+ HistogramRegistry()</text>
<text text-anchor="start" x="751.7462" y="-518.5" font-family="Helvetica,sans-Serif" font-size="10.00" fill="#000000">+ add()</text>
<text text-anchor="start" x="751.7462" y="-507.5" font-family="Helvetica,sans-Serif" font-size="10.00" fill="#000000">+ add()</text>
<text text-anchor="start" x="751.7462" y="-496.5" font-family="Helvetica,sans-Serif" font-size="10.00" fill="#000000">+ add()</text>
<text text-anchor="start" x="751.7462" y="-485.5" font-family="Helvetica,sans-Serif" font-size="10.00" fill="#000000">+ get()</text>
<text text-anchor="start" x="751.7462" y="-474.5" font-family="Helvetica,sans-Serif" font-size="10.00" fill="#000000">+ operator()()</text>
<text text-anchor="start" x="751.7462" y="-463.5" font-family="Helvetica,sans-Serif" font-size="10.00" fill="#000000">+ spec()</text>
<text text-anchor="start" x="751.7462" y="-452.5" font-family="Helvetica,sans-Serif" font-size="10.00" fill="#000000">+ ref()</text>
<text text-anchor="start" x="751.7462" y="-441.5" font-family="Helvetica,sans-Serif" font-size="10.00" fill="#000000">+ setHash()</text>
<text text-anchor="start" x="751.7462" y="-430.5" font-family="Helvetica,sans-Serif" font-size="10.00" fill="#000000">+ operator*()</text>
<text text-anchor="start" x="751.7462" y="-419.5" font-family="Helvetica,sans-Serif" font-size="10.00" fill="#000000">+ fill()</text>
<text text-anchor="start" x="751.7462" y="-408.5" font-family="Helvetica,sans-Serif" font-size="10.00" fill="#000000">+ fillWeight()</text>
<text text-anchor="start" x="751.7462" y="-397.5" font-family="Helvetica,sans-Serif" font-size="10.00" fill="#000000">+ fill()</text>
<text text-anchor="start" x="751.7462" y="-386.5" font-family="Helvetica,sans-Serif" font-size="10.00" fill="#000000">+ fillWeight()</text>
<text text-anchor="start" x="751.7462" y="-375.5" font-family="Helvetica,sans-Serif" font-size="10.00" fill="#000000">+ fillTable()</text>
</a>
</g>
</g>
<!-- Node2&#45;&gt;Node1 -->
<g id="edge1" class="edge">
<title>Node2&#45;&gt;Node1</title>
<path fill="none" stroke="#404040" d="M743.7179,-375.8176C734.4949,-362.2225 727.9668,-352.1861 727.2462,-350 704.1793,-280.0222 704.3431,-195.2433 708.6431,-135.8529"/>
<polygon fill="none" stroke="#404040" points="708.6677,-135.5419 705.1546,-129.2444 709.6165,-123.5795 713.1296,-129.877 708.6677,-135.5419"/>
<text text-anchor="middle" x="754.7462" y="-263.5" font-family="Helvetica,sans-Serif" font-size="10.00" fill="#000000"> +etaStudy</text>
<text text-anchor="middle" x="754.7462" y="-252.5" font-family="Helvetica,sans-Serif" font-size="10.00" fill="#000000">+spectra</text>
</g>
<!-- Node3 -->
<g id="node3" class="node">
<title>Node3</title>
<polygon fill="none" stroke="#bfbfbf" points="696.2462,-852 696.2462,-909 752.2462,-909 752.2462,-852 696.2462,-852"/>
<text text-anchor="middle" x="724.2462" y="-897" font-family="Helvetica,sans-Serif" font-size="10.00" fill="#000000">uint32_t</text>
<polyline fill="none" stroke="#bfbfbf" points="696.2462,-890 752.2462,-890 "/>
<text text-anchor="middle" x="724.2462" y="-878" font-family="Helvetica,sans-Serif" font-size="10.00" fill="#000000"> </text>
<polyline fill="none" stroke="#bfbfbf" points="696.2462,-871 752.2462,-871 "/>
<text text-anchor="middle" x="724.2462" y="-859" font-family="Helvetica,sans-Serif" font-size="10.00" fill="#000000"> </text>
</g>
<!-- Node3&#45;&gt;Node2 -->
<g id="edge2" class="edge">
<title>Node3&#45;&gt;Node2</title>
<path fill="none" stroke="#404040" d="M750.7387,-851.6787C766.9748,-832.141 786.4623,-804.8834 796.2462,-777 815.5666,-721.9384 821.7501,-657.6848 822.6198,-603.0102"/>
<polygon fill="none" stroke="#404040" points="822.6218,-602.7771 818.6757,-596.7415 822.7293,-590.7776 826.6754,-596.8132 822.6218,-602.7771"/>
<text text-anchor="middle" x="809.7462" y="-798" font-family="Helvetica,sans-Serif" font-size="10.00" fill="#000000"> +lookup</text>
</g>
<!-- Node5 -->
<g id="node5" class="node">
<title>Node5</title>
<g id="a_node5"><a xlink:href="../../d4/d79/structo2_1_1framework_1_1OutputObj.html" target="_top" xlink:title="{o2::framework::OutputObj\l\&lt; TList \&gt;\n||+ spec()\l+ OutputObj()\l+ OutputObj()\l+ setObject()\l+ setObject()\l+ setObject()\l+ setObject()\l+ setHash()\l+ operator&#45;\&gt;()\l+ operator*()\l+ ref()\l}">
<polygon fill="none" stroke="#000000" points="410.7462,-171.5 410.7462,-349.5 553.7462,-349.5 553.7462,-171.5 410.7462,-171.5"/>
<text text-anchor="start" x="418.7462" y="-337.5" font-family="Helvetica,sans-Serif" font-size="10.00" fill="#000000">o2::framework::OutputObj</text>
<text text-anchor="middle" x="482.2462" y="-326.5" font-family="Helvetica,sans-Serif" font-size="10.00" fill="#000000">&lt; TList &gt;</text>
<polyline fill="none" stroke="#000000" points="410.7462,-319.5 553.7462,-319.5 "/>
<text text-anchor="middle" x="482.2462" y="-307.5" font-family="Helvetica,sans-Serif" font-size="10.00" fill="#000000"> </text>
<polyline fill="none" stroke="#000000" points="410.7462,-300.5 553.7462,-300.5 "/>
<text text-anchor="start" x="418.7462" y="-288.5" font-family="Helvetica,sans-Serif" font-size="10.00" fill="#000000">+ spec()</text>
<text text-anchor="start" x="418.7462" y="-277.5" font-family="Helvetica,sans-Serif" font-size="10.00" fill="#000000">+ OutputObj()</text>
<text text-anchor="start" x="418.7462" y="-266.5" font-family="Helvetica,sans-Serif" font-size="10.00" fill="#000000">+ OutputObj()</text>
<text text-anchor="start" x="418.7462" y="-255.5" font-family="Helvetica,sans-Serif" font-size="10.00" fill="#000000">+ setObject()</text>
<text text-anchor="start" x="418.7462" y="-244.5" font-family="Helvetica,sans-Serif" font-size="10.00" fill="#000000">+ setObject()</text>
<text text-anchor="start" x="418.7462" y="-233.5" font-family="Helvetica,sans-Serif" font-size="10.00" fill="#000000">+ setObject()</text>
<text text-anchor="start" x="418.7462" y="-222.5" font-family="Helvetica,sans-Serif" font-size="10.00" fill="#000000">+ setObject()</text>
<text text-anchor="start" x="418.7462" y="-211.5" font-family="Helvetica,sans-Serif" font-size="10.00" fill="#000000">+ setHash()</text>
<text text-anchor="start" x="418.7462" y="-200.5" font-family="Helvetica,sans-Serif" font-size="10.00" fill="#000000">+ operator&#45;&gt;()</text>
<text text-anchor="start" x="418.7462" y="-189.5" font-family="Helvetica,sans-Serif" font-size="10.00" fill="#000000">+ operator*()</text>
<text text-anchor="start" x="418.7462" y="-178.5" font-family="Helvetica,sans-Serif" font-size="10.00" fill="#000000">+ ref()</text>
</a>
</g>
</g>
<!-- Node3&#45;&gt;Node5 -->
<g id="edge7" class="edge">
<title>Node3&#45;&gt;Node5</title>
<path fill="none" stroke="#404040" d="M719.3464,-851.8607C704.8395,-771.718 657.3847,-539.8148 567.2462,-368 565.0701,-363.852 562.7259,-359.7063 560.2525,-355.5869"/>
<polygon fill="none" stroke="#404040" points="560.2454,-355.5756 553.666,-352.624 553.86,-345.4155 560.4394,-348.3671 560.2454,-355.5756"/>
<text text-anchor="middle" x="738.2462" y="-690.5" font-family="Helvetica,sans-Serif" font-size="10.00" fill="#000000"> +mTaskHash</text>
</g>
<!-- Node14 -->
<g id="node14" class="node">
<title>Node14</title>
<g id="a_node14"><a xlink:href="../../d4/d79/structo2_1_1framework_1_1OutputObj.html" target="_top" xlink:title="{o2::framework::OutputObj\&lt; T \&gt;\n||+ OutputObj()\l+ OutputObj()\l+ setObject()\l+ setObject()\l+ setObject()\l+ setObject()\l+ setHash()\l+ spec()\l+ operator&#45;\&gt;()\l+ operator*()\l+ ref()\l}">
<polygon fill="none" stroke="#000000" points="306.2462,-609.5 306.2462,-776.5 478.2462,-776.5 478.2462,-609.5 306.2462,-609.5"/>
<text text-anchor="middle" x="392.2462" y="-764.5" font-family="Helvetica,sans-Serif" font-size="10.00" fill="#000000">o2::framework::OutputObj&lt; T &gt;</text>
<polyline fill="none" stroke="#000000" points="306.2462,-757.5 478.2462,-757.5 "/>
<text text-anchor="middle" x="392.2462" y="-745.5" font-family="Helvetica,sans-Serif" font-size="10.00" fill="#000000"> </text>
<polyline fill="none" stroke="#000000" points="306.2462,-738.5 478.2462,-738.5 "/>
<text text-anchor="start" x="314.2462" y="-726.5" font-family="Helvetica,sans-Serif" font-size="10.00" fill="#000000">+ OutputObj()</text>
<text text-anchor="start" x="314.2462" y="-715.5" font-family="Helvetica,sans-Serif" font-size="10.00" fill="#000000">+ OutputObj()</text>
<text text-anchor="start" x="314.2462" y="-704.5" font-family="Helvetica,sans-Serif" font-size="10.00" fill="#000000">+ setObject()</text>
<text text-anchor="start" x="314.2462" y="-693.5" font-family="Helvetica,sans-Serif" font-size="10.00" fill="#000000">+ setObject()</text>
<text text-anchor="start" x="314.2462" y="-682.5" font-family="Helvetica,sans-Serif" font-size="10.00" fill="#000000">+ setObject()</text>
<text text-anchor="start" x="314.2462" y="-671.5" font-family="Helvetica,sans-Serif" font-size="10.00" fill="#000000">+ setObject()</text>
<text text-anchor="start" x="314.2462" y="-660.5" font-family="Helvetica,sans-Serif" font-size="10.00" fill="#000000">+ setHash()</text>
<text text-anchor="start" x="314.2462" y="-649.5" font-family="Helvetica,sans-Serif" font-size="10.00" fill="#000000">+ spec()</text>
<text text-anchor="start" x="314.2462" y="-638.5" font-family="Helvetica,sans-Serif" font-size="10.00" fill="#000000">+ operator&#45;&gt;()</text>
<text text-anchor="start" x="314.2462" y="-627.5" font-family="Helvetica,sans-Serif" font-size="10.00" fill="#000000">+ operator*()</text>
<text text-anchor="start" x="314.2462" y="-616.5" font-family="Helvetica,sans-Serif" font-size="10.00" fill="#000000">+ ref()</text>
</a>
</g>
</g>
<!-- Node3&#45;&gt;Node14 -->
<g id="edge17" class="edge">
<title>Node3&#45;&gt;Node14</title>
<path fill="none" stroke="#404040" d="M702.0998,-851.9992C692.9169,-841.8596 681.5355,-831.1873 669.2462,-824 634.1166,-803.4548 528.3605,-795.7604 492.2462,-777 491.2339,-776.4741 490.2227,-775.9365 489.2131,-775.3877"/>
<polygon fill="none" stroke="#404040" points="488.8315,-775.1649 481.6331,-775.5934 478.4691,-769.1135 485.6675,-768.6851 488.8315,-775.1649"/>
<text text-anchor="middle" x="645.2462" y="-798" font-family="Helvetica,sans-Serif" font-size="10.00" fill="#000000"> +mTaskHash</text>
</g>
<!-- Node4 -->
<g id="node4" class="node">
<title>Node4</title>
<polygon fill="none" stroke="#bfbfbf" points="790.7462,-232 790.7462,-289 831.7462,-289 831.7462,-232 790.7462,-232"/>
<text text-anchor="middle" x="811.2462" y="-277" font-family="Helvetica,sans-Serif" font-size="10.00" fill="#000000">Filter</text>
<polyline fill="none" stroke="#bfbfbf" points="790.7462,-270 831.7462,-270 "/>
<text text-anchor="middle" x="811.2462" y="-258" font-family="Helvetica,sans-Serif" font-size="10.00" fill="#000000"> </text>
<polyline fill="none" stroke="#bfbfbf" points="790.7462,-251 831.7462,-251 "/>
<text text-anchor="middle" x="811.2462" y="-239" font-family="Helvetica,sans-Serif" font-size="10.00" fill="#000000"> </text>
</g>
<!-- Node4&#45;&gt;Node1 -->
<g id="edge3" class="edge">
<title>Node4&#45;&gt;Node1</title>
<path fill="none" stroke="#404040" d="M801.0908,-231.908C794.5317,-214.1481 785.516,-190.977 776.2462,-171 770.6987,-159.0446 764.4283,-146.5705 758.0985,-134.5101"/>
<polygon fill="none" stroke="#404040" points="757.9198,-134.1737 751.5717,-130.7529 752.2879,-123.5774 758.6359,-126.9982 757.9198,-134.1737"/>
<text text-anchor="middle" x="800.2462" y="-145" font-family="Helvetica,sans-Serif" font-size="10.00" fill="#000000"> +notTracklet</text>
</g>
<!-- Node5&#45;&gt;Node1 -->
<g id="edge4" class="edge">
<title>Node5&#45;&gt;Node1</title>
<path fill="none" stroke="#404040" d="M554.0309,-199.8649C592.115,-167.696 637.7901,-129.1151 671.1245,-100.9581"/>
<polygon fill="none" stroke="#404040" points="671.4488,-100.6842 673.4513,-93.7567 680.6162,-92.9407 678.6137,-99.8682 671.4488,-100.6842"/>
<text text-anchor="middle" x="634.7462" y="-145" font-family="Helvetica,sans-Serif" font-size="10.00" fill="#000000"> +list</text>
</g>
<!-- Node6 -->
<g id="node6" class="node">
<title>Node6</title>
<polygon fill="none" stroke="#bfbfbf" points="174.2462,-664.5 174.2462,-721.5 288.2462,-721.5 288.2462,-664.5 174.2462,-664.5"/>
<text text-anchor="middle" x="231.2462" y="-709.5" font-family="Helvetica,sans-Serif" font-size="10.00" fill="#000000">shared_ptr&lt; TList &gt;</text>
<polyline fill="none" stroke="#bfbfbf" points="174.2462,-702.5 288.2462,-702.5 "/>
<text text-anchor="middle" x="231.2462" y="-690.5" font-family="Helvetica,sans-Serif" font-size="10.00" fill="#000000"> </text>
<polyline fill="none" stroke="#bfbfbf" points="174.2462,-683.5 288.2462,-683.5 "/>
<text text-anchor="middle" x="231.2462" y="-671.5" font-family="Helvetica,sans-Serif" font-size="10.00" fill="#000000"> </text>
</g>
<!-- Node6&#45;&gt;Node5 -->
<g id="edge5" class="edge">
<title>Node6&#45;&gt;Node5</title>
<path fill="none" stroke="#404040" d="M238.1983,-664.3767C253.5641,-605.0461 294.5976,-466.0198 363.2462,-368 374.1579,-352.4198 387.721,-337.499 401.7431,-323.9955"/>
<polygon fill="none" stroke="#404040" points="401.7569,-323.9826 403.4002,-316.9612 410.5136,-315.7776 408.8702,-322.7989 401.7569,-323.9826"/>
<text text-anchor="middle" x="384.2462" y="-477" font-family="Helvetica,sans-Serif" font-size="10.00" fill="#000000"> +object</text>
</g>
<!-- Node7 -->
<g id="node7" class="node">
<title>Node7</title>
<polygon fill="none" stroke="#bfbfbf" points="97.7462,-852 97.7462,-909 236.7462,-909 236.7462,-852 97.7462,-852"/>
<text text-anchor="middle" x="167.2462" y="-897" font-family="Helvetica,sans-Serif" font-size="10.00" fill="#000000">OutputObjHandlingPolicy</text>
<polyline fill="none" stroke="#bfbfbf" points="97.7462,-890 236.7462,-890 "/>
<text text-anchor="middle" x="167.2462" y="-878" font-family="Helvetica,sans-Serif" font-size="10.00" fill="#000000"> </text>
<polyline fill="none" stroke="#bfbfbf" points="97.7462,-871 236.7462,-871 "/>
<text text-anchor="middle" x="167.2462" y="-859" font-family="Helvetica,sans-Serif" font-size="10.00" fill="#000000"> </text>
</g>
<!-- Node7&#45;&gt;Node5 -->
<g id="edge6" class="edge">
<title>Node7&#45;&gt;Node5</title>
<path fill="none" stroke="#404040" d="M151.6085,-851.5865C141.5837,-831.3517 129.4987,-803.333 124.2462,-777 109.6406,-703.7758 105.6188,-681.3058 124.2462,-609 154.7668,-490.5289 168.2436,-451.9372 257.2462,-368 297.3139,-330.2126 353.124,-303.4341 399.135,-286.0546"/>
<polygon fill="none" stroke="#404040" points="399.343,-285.9781 403.5943,-280.1535 410.6061,-281.8376 406.3547,-287.6622 399.343,-285.9781"/>
<text text-anchor="middle" x="144.7462" y="-690.5" font-family="Helvetica,sans-Serif" font-size="10.00" fill="#000000"> +policy</text>
</g>
<!-- Node7&#45;&gt;Node14 -->
<g id="edge16" class="edge">
<title>Node7&#45;&gt;Node14</title>
<path fill="none" stroke="#404040" d="M204.076,-851.9987C228.2788,-833.0861 260.7465,-807.3709 296.9264,-777.1938"/>
<polygon fill="none" stroke="#404040" points="297.0014,-777.131 299.0336,-770.2122 306.2018,-769.427 304.1696,-776.3459 297.0014,-777.131"/>
<text text-anchor="middle" x="293.7462" y="-798" font-family="Helvetica,sans-Serif" font-size="10.00" fill="#000000"> +policy</text>
</g>
<!-- Node8 -->
<g id="node8" class="node">
<title>Node8</title>
<polygon fill="none" stroke="#bfbfbf" points="377.7462,-1001 377.7462,-1058 406.7462,-1058 406.7462,-1001 377.7462,-1001"/>
<text text-anchor="middle" x="392.2462" y="-1046" font-family="Helvetica,sans-Serif" font-size="10.00" fill="#000000">int</text>
<polyline fill="none" stroke="#bfbfbf" points="377.7462,-1039 406.7462,-1039 "/>
<text text-anchor="middle" x="392.2462" y="-1027" font-family="Helvetica,sans-Serif" font-size="10.00" fill="#000000"> </text>
<polyline fill="none" stroke="#bfbfbf" points="377.7462,-1020 406.7462,-1020 "/>
<text text-anchor="middle" x="392.2462" y="-1008" font-family="Helvetica,sans-Serif" font-size="10.00" fill="#000000"> </text>
</g>
<!-- Node8&#45;&gt;Node5 -->
<g id="edge8" class="edge">
<title>Node8&#45;&gt;Node5</title>
<path fill="none" stroke="#404040" d="M377.6671,-1027.3617C322.0174,-1018.8752 124.2925,-985.6461 88.2462,-937 11.3507,-833.2262 -79.4946,-620.5587 125.2462,-368 159.694,-325.5068 304.2758,-292.2641 398.5459,-274.5802"/>
<polygon fill="none" stroke="#404040" points="398.553,-274.5789 403.7257,-269.5547 410.353,-272.397 405.1803,-277.4213 398.553,-274.5789"/>
<text text-anchor="middle" x="38.2462" y="-798" font-family="Helvetica,sans-Serif" font-size="10.00" fill="#000000"> +label</text>
</g>
<!-- Node10 -->
<g id="node10" class="node">
<title>Node10</title>
<g id="a_node10"><a xlink:href="../../da/d96/structo2_1_1framework_1_1InputSpec.html" target="_top" xlink:title="{o2::framework::InputSpec\n||+ InputSpec()\l+ InputSpec()\l+ InputSpec()\l+ InputSpec()\l+ InputSpec()\l+ operator==()\l}">
<polygon fill="none" stroke="#000000" points="518.2462,-824.5 518.2462,-936.5 660.2462,-936.5 660.2462,-824.5 518.2462,-824.5"/>
<text text-anchor="middle" x="589.2462" y="-924.5" font-family="Helvetica,sans-Serif" font-size="10.00" fill="#000000">o2::framework::InputSpec</text>
<polyline fill="none" stroke="#000000" points="518.2462,-917.5 660.2462,-917.5 "/>
<text text-anchor="middle" x="589.2462" y="-905.5" font-family="Helvetica,sans-Serif" font-size="10.00" fill="#000000"> </text>
<polyline fill="none" stroke="#000000" points="518.2462,-898.5 660.2462,-898.5 "/>
<text text-anchor="start" x="526.2462" y="-886.5" font-family="Helvetica,sans-Serif" font-size="10.00" fill="#000000">+ InputSpec()</text>
<text text-anchor="start" x="526.2462" y="-875.5" font-family="Helvetica,sans-Serif" font-size="10.00" fill="#000000">+ InputSpec()</text>
<text text-anchor="start" x="526.2462" y="-864.5" font-family="Helvetica,sans-Serif" font-size="10.00" fill="#000000">+ InputSpec()</text>
<text text-anchor="start" x="526.2462" y="-853.5" font-family="Helvetica,sans-Serif" font-size="10.00" fill="#000000">+ InputSpec()</text>
<text text-anchor="start" x="526.2462" y="-842.5" font-family="Helvetica,sans-Serif" font-size="10.00" fill="#000000">+ InputSpec()</text>
<text text-anchor="start" x="526.2462" y="-831.5" font-family="Helvetica,sans-Serif" font-size="10.00" fill="#000000">+ operator==()</text>
</a>
</g>
</g>
<!-- Node8&#45;&gt;Node10 -->
<g id="edge14" class="edge">
<title>Node8&#45;&gt;Node10</title>
<path fill="none" stroke="#404040" d="M406.7865,-1008.7639C413.1355,-1000.519 421.0079,-991.283 429.2462,-984 458.7183,-957.9452 471.1963,-958.3344 504.2462,-937 505.3627,-936.2792 506.4868,-935.5522 507.617,-934.8199"/>
<polygon fill="none" stroke="#404040" points="507.8607,-934.6613 510.7061,-928.0353 517.9168,-928.1134 515.0714,-934.7394 507.8607,-934.6613"/>
<text text-anchor="middle" x="496.2462" y="-958" font-family="Helvetica,sans-Serif" font-size="10.00" fill="#000000"> +binding</text>
</g>
<!-- Node8&#45;&gt;Node14 -->
<g id="edge18" class="edge">
<title>Node8&#45;&gt;Node14</title>
<path fill="none" stroke="#404040" d="M392.2462,-1000.8102C392.2462,-954.3848 392.2462,-860.7449 392.2462,-788.874"/>
<polygon fill="none" stroke="#404040" points="392.2463,-788.6324 388.2463,-782.6324 392.2462,-776.6324 396.2463,-782.6324 392.2463,-788.6324"/>
<text text-anchor="middle" x="410.2462" y="-878" font-family="Helvetica,sans-Serif" font-size="10.00" fill="#000000"> +label</text>
</g>
<!-- Node9 -->
<g id="node9" class="node">
<title>Node9</title>
<polygon fill="none" stroke="#bfbfbf" points="457.2462,-852 457.2462,-909 495.2462,-909 495.2462,-852 457.2462,-852"/>
<text text-anchor="middle" x="476.2462" y="-897" font-family="Helvetica,sans-Serif" font-size="10.00" fill="#000000">bool</text>
<polyline fill="none" stroke="#bfbfbf" points="457.2462,-890 495.2462,-890 "/>
<text text-anchor="middle" x="476.2462" y="-878" font-family="Helvetica,sans-Serif" font-size="10.00" fill="#000000"> </text>
<polyline fill="none" stroke="#bfbfbf" points="457.2462,-871 495.2462,-871 "/>
<text text-anchor="middle" x="476.2462" y="-859" font-family="Helvetica,sans-Serif" font-size="10.00" fill="#000000"> </text>
</g>
<!-- Node9&#45;&gt;Node5 -->
<g id="edge9" class="edge">
<title>Node9&#45;&gt;Node5</title>
<path fill="none" stroke="#404040" d="M487.7339,-851.9983C492.6428,-838.3282 497.7999,-821.5718 500.2462,-806 530.4575,-613.6919 516.3756,-561.9973 500.2462,-368 500.0737,-365.9256 499.8829,-363.831 499.6755,-361.7218"/>
<polygon fill="none" stroke="#404040" points="499.645,-361.4469 495.0071,-355.9252 498.3204,-349.5203 502.9583,-355.0421 499.645,-361.4469"/>
<text text-anchor="middle" x="549.2462" y="-690.5" font-family="Helvetica,sans-Serif" font-size="10.00" fill="#000000"> +isdangling</text>
</g>
<!-- Node9&#45;&gt;Node14 -->
<g id="edge20" class="edge">
<title>Node9&#45;&gt;Node14</title>
<path fill="none" stroke="#404040" d="M460.8697,-851.7682C453.7133,-838.0477 445.254,-821.3153 438.2462,-806 435.5472,-800.1014 432.8356,-793.997 430.1531,-787.8203"/>
<polygon fill="none" stroke="#404040" points="430.094,-787.6822 424.0532,-783.744 425.365,-776.6532 431.4058,-780.5914 430.094,-787.6822"/>
<text text-anchor="middle" x="469.2462" y="-798" font-family="Helvetica,sans-Serif" font-size="10.00" fill="#000000"> +isdangling</text>
</g>
<!-- Node10&#45;&gt;Node5 -->
<g id="edge10" class="edge">
<title>Node10&#45;&gt;Node5</title>
<path fill="none" stroke="#404040" d="M591.9483,-824.3192C593.721,-769.2164 594.1512,-682.944 584.2462,-609 569.577,-499.4892 556.5449,-473.3518 523.2462,-368 522.5351,-365.7502 521.8023,-363.4792 521.0514,-361.1936"/>
<polygon fill="none" stroke="#404040" points="521.0014,-361.0453 515.2919,-356.6407 517.1618,-349.6762 522.8713,-354.0809 521.0014,-361.0453"/>
<text text-anchor="middle" x="610.2462" y="-690.5" font-family="Helvetica,sans-Serif" font-size="10.00" fill="#000000"> +spec</text>
</g>
<!-- Node10&#45;&gt;Node14 -->
<g id="edge21" class="edge">
<title>Node10&#45;&gt;Node14</title>
<path fill="none" stroke="#404040" d="M534.3161,-824.4472C524.3919,-814.5498 514.0747,-804.4075 504.2462,-795 498.7602,-789.749 493.0869,-784.3849 487.3383,-778.9999"/>
<polygon fill="none" stroke="#404040" points="487.0356,-778.7177 479.9194,-777.5514 478.2589,-770.5341 485.3751,-771.7003 487.0356,-778.7177"/>
<text text-anchor="middle" x="531.2462" y="-798" font-family="Helvetica,sans-Serif" font-size="10.00" fill="#000000"> +spec</text>
</g>
<!-- Node11 -->
<g id="node11" class="node">
<title>Node11</title>
<polygon fill="none" stroke="#bfbfbf" points="726.2462,-995.5 726.2462,-1063.5 856.2462,-1063.5 856.2462,-995.5 726.2462,-995.5"/>
<text text-anchor="start" x="734.2462" y="-1051.5" font-family="Helvetica,sans-Serif" font-size="10.00" fill="#000000">vector&lt; o2::framework</text>
<text text-anchor="middle" x="791.2462" y="-1040.5" font-family="Helvetica,sans-Serif" font-size="10.00" fill="#000000">::ConfigParamSpec &gt;</text>
<polyline fill="none" stroke="#bfbfbf" points="726.2462,-1033.5 856.2462,-1033.5 "/>
<text text-anchor="middle" x="791.2462" y="-1021.5" font-family="Helvetica,sans-Serif" font-size="10.00" fill="#000000"> </text>
<polyline fill="none" stroke="#bfbfbf" points="726.2462,-1014.5 856.2462,-1014.5 "/>
<text text-anchor="middle" x="791.2462" y="-1002.5" font-family="Helvetica,sans-Serif" font-size="10.00" fill="#000000"> </text>
</g>
<!-- Node11&#45;&gt;Node10 -->
<g id="edge11" class="edge">
<title>Node11&#45;&gt;Node10</title>
<path fill="none" stroke="#404040" d="M744.9033,-995.3164C722.795,-979.0088 695.6868,-959.0131 670.324,-940.3049"/>
<polygon fill="none" stroke="#404040" points="669.9889,-940.0577 662.7859,-939.7151 660.3318,-932.9344 667.5348,-933.277 669.9889,-940.0577"/>
<text text-anchor="middle" x="732.7462" y="-958" font-family="Helvetica,sans-Serif" font-size="10.00" fill="#000000"> +metadata</text>
</g>
<!-- Node12 -->
<g id="node12" class="node">
<title>Node12</title>
<polygon fill="none" stroke="#bfbfbf" points="438.2462,-1001 438.2462,-1058 526.2462,-1058 526.2462,-1001 438.2462,-1001"/>
<text text-anchor="middle" x="482.2462" y="-1046" font-family="Helvetica,sans-Serif" font-size="10.00" fill="#000000">enum Lifetime</text>
<polyline fill="none" stroke="#bfbfbf" points="438.2462,-1039 526.2462,-1039 "/>
<text text-anchor="middle" x="482.2462" y="-1027" font-family="Helvetica,sans-Serif" font-size="10.00" fill="#000000"> </text>
<polyline fill="none" stroke="#bfbfbf" points="438.2462,-1020 526.2462,-1020 "/>
<text text-anchor="middle" x="482.2462" y="-1008" font-family="Helvetica,sans-Serif" font-size="10.00" fill="#000000"> </text>
</g>
<!-- Node12&#45;&gt;Node10 -->
<g id="edge12" class="edge">
<title>Node12&#45;&gt;Node10</title>
<path fill="none" stroke="#404040" d="M502.8769,-1000.7713C513.9954,-985.2885 528.2063,-965.4995 541.8762,-946.4639"/>
<polygon fill="none" stroke="#404040" points="541.9565,-946.352 542.2072,-939.1453 548.9561,-936.6049 548.7053,-943.8117 541.9565,-946.352"/>
<text text-anchor="middle" x="561.2462" y="-958" font-family="Helvetica,sans-Serif" font-size="10.00" fill="#000000"> +lifetime</text>
</g>
<!-- Node13 -->
<g id="node13" class="node">
<title>Node13</title>
<polygon fill="none" stroke="#bfbfbf" points="544.2462,-984.5 544.2462,-1074.5 708.2462,-1074.5 708.2462,-984.5 544.2462,-984.5"/>
<text text-anchor="start" x="552.2462" y="-1062.5" font-family="Helvetica,sans-Serif" font-size="10.00" fill="#000000">variant&lt; o2::framework</text>
<text text-anchor="start" x="552.2462" y="-1051.5" font-family="Helvetica,sans-Serif" font-size="10.00" fill="#000000">::ConcreteDataMatcher,</text>
<text text-anchor="start" x="552.2462" y="-1040.5" font-family="Helvetica,sans-Serif" font-size="10.00" fill="#000000"> o2::framework::data_matcher</text>
<text text-anchor="middle" x="626.2462" y="-1029.5" font-family="Helvetica,sans-Serif" font-size="10.00" fill="#000000">::DataDescriptorMatcher &gt;</text>
<polyline fill="none" stroke="#bfbfbf" points="544.2462,-1022.5 708.2462,-1022.5 "/>
<text text-anchor="middle" x="626.2462" y="-1010.5" font-family="Helvetica,sans-Serif" font-size="10.00" fill="#000000"> </text>
<polyline fill="none" stroke="#bfbfbf" points="544.2462,-1003.5 708.2462,-1003.5 "/>
<text text-anchor="middle" x="626.2462" y="-991.5" font-family="Helvetica,sans-Serif" font-size="10.00" fill="#000000"> </text>
</g>
<!-- Node13&#45;&gt;Node10 -->
<g id="edge13" class="edge">
<title>Node13&#45;&gt;Node10</title>
<path fill="none" stroke="#404040" d="M615.0446,-984.3907C612.2077,-972.9667 609.0982,-960.4446 606.0506,-948.1718"/>
<polygon fill="none" stroke="#404040" points="606.0506,-948.1716 600.7225,-943.3125 603.1585,-936.5254 608.4867,-941.3845 606.0506,-948.1716"/>
<text text-anchor="middle" x="636.2462" y="-958" font-family="Helvetica,sans-Serif" font-size="10.00" fill="#000000"> +matcher</text>
</g>
<!-- Node14&#45;&gt;Node5 -->
<g id="edge15" class="edge">
<title>Node14&#45;&gt;Node5</title>
<path fill="none" stroke="#ffa500" d="M406.7077,-599.1086C417.378,-533.9187 433.1461,-445.2449 451.2462,-368 452.6421,-362.0429 454.1638,-355.9242 455.7593,-349.7738"/>
<polygon fill="#ffa500" stroke="#ffa500" points="403.1905,-598.9319 405.0393,-609.3641 410.0996,-600.0559 403.1905,-598.9319"/>
<text text-anchor="middle" x="475.7462" y="-477" font-family="Helvetica,sans-Serif" font-size="10.00" fill="#000000"> &lt; TList &gt;</text>
</g>
<!-- Node15 -->
<g id="node15" class="node">
<title>Node15</title>
<polygon fill="none" stroke="#bfbfbf" points="258.7462,-852 258.7462,-909 355.7462,-909 355.7462,-852 258.7462,-852"/>
<text text-anchor="middle" x="307.2462" y="-897" font-family="Helvetica,sans-Serif" font-size="10.00" fill="#000000">shared_ptr&lt; T &gt;</text>
<polyline fill="none" stroke="#bfbfbf" points="258.7462,-890 355.7462,-890 "/>
<text text-anchor="middle" x="307.2462" y="-878" font-family="Helvetica,sans-Serif" font-size="10.00" fill="#000000"> </text>
<polyline fill="none" stroke="#bfbfbf" points="258.7462,-871 355.7462,-871 "/>
<text text-anchor="middle" x="307.2462" y="-859" font-family="Helvetica,sans-Serif" font-size="10.00" fill="#000000"> </text>
</g>
<!-- Node15&#45;&gt;Node14 -->
<g id="edge19" class="edge">
<title>Node15&#45;&gt;Node14</title>
<path fill="none" stroke="#404040" d="M315.5633,-851.9154C320.802,-835.073 328.1021,-813.5073 336.2462,-795 337.3205,-792.5587 338.433,-790.0978 339.5768,-787.626"/>
<polygon fill="none" stroke="#404040" points="339.6018,-787.5735 338.5769,-780.4356 344.7716,-776.7442 345.7964,-783.8821 339.6018,-787.5735"/>
<text text-anchor="middle" x="357.2462" y="-798" font-family="Helvetica,sans-Serif" font-size="10.00" fill="#000000"> +object</text>
</g>
</g>
</svg>
        <g id="navigator" transform="translate(0 0)" fill="#404254">
                <rect fill="#f2f5e9" fill-opacity="0.5" stroke="#606060" stroke-width=".5" x="0" y="0" width="60" height="60"/>
                <use id="zoomplus" xlink:href="#zoomPlus" x="17" y="9" onmousedown="handleZoom(evt,'in')"/>
                <use id="zoomminus" xlink:href="#zoomMin" x="42" y="9" onmousedown="handleZoom(evt,'out')"/>
                <use id="reset" xlink:href="#resetDef" x="30" y="36" onmousedown="handleReset()"/>
                <g id="arrowUp" xlink:href="#dirArrow" transform="translate(30 24)" onmousedown="handlePan(0,-1)">
                  <use xlink:href="#rim" fill="#404040">
                        <set attributeName="fill" to="#808080" begin="arrowUp.mouseover" end="arrowUp.mouseout"/>
                  </use>
                  <path fill="none" stroke="white" stroke-width="1.5" d="M0,-3.0v7 M-2.5,-0.5L0,-3.0L2.5,-0.5"/>
                </g>
                <g id="arrowRight" xlink:href="#dirArrow" transform="rotate(90) translate(36 -43)" onmousedown="handlePan(1,0)">
                  <use xlink:href="#rim" fill="#404040">
                        <set attributeName="fill" to="#808080" begin="arrowRight.mouseover" end="arrowRight.mouseout"/>
                  </use>
                  <path fill="none" stroke="white" stroke-width="1.5" d="M0,-3.0v7 M-2.5,-0.5L0,-3.0L2.5,-0.5"/>
                </g>
                <g id="arrowDown" xlink:href="#dirArrow" transform="rotate(180) translate(-30 -48)" onmousedown="handlePan(0,1)">
                  <use xlink:href="#rim" fill="#404040">
                        <set attributeName="fill" to="#808080" begin="arrowDown.mouseover" end="arrowDown.mouseout"/>
                  </use>
                  <path fill="none" stroke="white" stroke-width="1.5" d="M0,-3.0v7 M-2.5,-0.5L0,-3.0L2.5,-0.5"/>
                </g>
                <g id="arrowLeft" xlink:href="#dirArrow" transform="rotate(270) translate(-36 17)" onmousedown="handlePan(-1,0)">
                  <use xlink:href="#rim" fill="#404040">
                        <set attributeName="fill" to="#808080" begin="arrowLeft.mouseover" end="arrowLeft.mouseout"/>
                  </use>
                  <path fill="none" stroke="white" stroke-width="1.5" d="M0,-3.0v7 M-2.5,-0.5L0,-3.0L2.5,-0.5"/>
                </g>
        </g>
        <svg viewBox="0 0 15 15" width="100%" height="30px" preserveAspectRatio="xMaxYMin meet">
         <g id="arrow_out" transform="scale(0.3 0.3)">
          <a xlink:href="structDTask__coll__graph_org.svg" target="_base">
           <rect id="button" ry="5" rx="5" y="6" x="6" height="38" width="38"
                fill="#f2f5e9" fill-opacity="0.5" stroke="#606060" stroke-width="1.0"/>
           <path id="arrow"
             d="M 11.500037,31.436501 C 11.940474,20.09759 22.043105,11.32322 32.158766,21.979434 L 37.068811,17.246167 C 37.068811,17.246167 37.088388,32 37.088388,32 L 22.160133,31.978069 C 22.160133,31.978069 26.997745,27.140456 26.997745,27.140456 C 18.528582,18.264221 13.291696,25.230495 11.500037,31.436501 z"
             style="fill:#404040;"/>
          </a>
         </g>
        </svg>
</svg>
