<?xml version="1.0" encoding="UTF-8" standalone="no"?>
<!DOCTYPE svg PUBLIC "-//W3C//DTD SVG 1.1//EN"
 "http://www.w3.org/Graphics/SVG/1.1/DTD/svg11.dtd">
<!-- Generated by graphviz version 2.40.1 (20161225.0304)
 -->
<!-- Title: /home/travis/build/AliceO2Group/AliceO2/Analysis/Core/include/Analysis/RecoDecay.h Pages: 1 -->
<svg width="665pt" height="117pt"
 viewBox="0.00 0.00 664.50 117.00" xmlns="http://www.w3.org/2000/svg" xmlns:xlink="http://www.w3.org/1999/xlink">
<g id="graph0" class="graph" transform="scale(1 1) rotate(0) translate(4 113)">
<title>/home/travis/build/AliceO2Group/AliceO2/Analysis/Core/include/Analysis/RecoDecay.h</title>
<!-- Node0 -->
<g id="node1" class="node">
<title>Node0</title>
<polygon fill="#bfbfbf" stroke="#000000" points="145,-56.5 145,-108.5 272,-108.5 272,-56.5 145,-56.5"/>
<text text-anchor="start" x="153" y="-96.5" font-family="Helvetica,sans-Serif" font-size="10.00" fill="#000000">/home/travis/build</text>
<text text-anchor="start" x="153" y="-85.5" font-family="Helvetica,sans-Serif" font-size="10.00" fill="#000000">/AliceO2Group/AliceO2</text>
<text text-anchor="start" x="153" y="-74.5" font-family="Helvetica,sans-Serif" font-size="10.00" fill="#000000">/Analysis/Core/include</text>
<text text-anchor="middle" x="208.5" y="-63.5" font-family="Helvetica,sans-Serif" font-size="10.00" fill="#000000">/Analysis/RecoDecay.h</text>
</g>
<!-- Node1 -->
<g id="node2" class="node">
<title>Node1</title>
<polygon fill="none" stroke="#bfbfbf" points="0,-.5 0,-19.5 41,-19.5 41,-.5 0,-.5"/>
<text text-anchor="middle" x="20.5" y="-7.5" font-family="Helvetica,sans-Serif" font-size="10.00" fill="#000000">tuple</text>
</g>
<!-- Node0&#45;&gt;Node1 -->
<g id="edge1" class="edge">
<title>Node0&#45;&gt;Node1</title>
<path fill="none" stroke="#191970" d="M144.8518,-57.9548C113.066,-45.697 76.0934,-31.439 50.7757,-21.6755"/>
<polygon fill="#191970" stroke="#191970" points="51.9385,-18.3727 41.3489,-18.0401 49.4198,-24.9039 51.9385,-18.3727"/>
</g>
<!-- Node2 -->
<g id="node3" class="node">
<title>Node2</title>
<polygon fill="none" stroke="#bfbfbf" points="59,-.5 59,-19.5 106,-19.5 106,-.5 59,-.5"/>
<text text-anchor="middle" x="82.5" y="-7.5" font-family="Helvetica,sans-Serif" font-size="10.00" fill="#000000">vector</text>
</g>
<!-- Node0&#45;&gt;Node2 -->
<g id="edge2" class="edge">
<title>Node0&#45;&gt;Node2</title>
<path fill="none" stroke="#191970" d="M163.0111,-56.3258C144.3906,-45.6116 123.5531,-33.6218 107.7427,-24.5246"/>
<polygon fill="#191970" stroke="#191970" points="109.4826,-21.4877 99.0694,-19.534 105.9915,-27.555 109.4826,-21.4877"/>
</g>
<!-- Node3 -->
<g id="node4" class="node">
<title>Node3</title>
<polygon fill="none" stroke="#bfbfbf" points="124.5,-.5 124.5,-19.5 166.5,-19.5 166.5,-.5 124.5,-.5"/>
<text text-anchor="middle" x="145.5" y="-7.5" font-family="Helvetica,sans-Serif" font-size="10.00" fill="#000000">array</text>
</g>
<!-- Node0&#45;&gt;Node3 -->
<g id="edge3" class="edge">
<title>Node0&#45;&gt;Node3</title>
<path fill="none" stroke="#191970" d="M185.7556,-56.3258C177.3154,-46.613 167.9643,-35.8518 160.4007,-27.1476"/>
<polygon fill="#191970" stroke="#191970" points="162.9859,-24.7866 153.7847,-19.534 157.7021,-29.3781 162.9859,-24.7866"/>
</g>
<!-- Node4 -->
<g id="node5" class="node">
<title>Node4</title>
<polygon fill="none" stroke="#bfbfbf" points="185,-.5 185,-19.5 232,-19.5 232,-.5 185,-.5"/>
<text text-anchor="middle" x="208.5" y="-7.5" font-family="Helvetica,sans-Serif" font-size="10.00" fill="#000000">cmath</text>
</g>
<!-- Node0&#45;&gt;Node4 -->
<g id="edge4" class="edge">
<title>Node0&#45;&gt;Node4</title>
<path fill="none" stroke="#191970" d="M208.5,-56.3258C208.5,-47.5142 208.5,-37.8397 208.5,-29.621"/>
<polygon fill="#191970" stroke="#191970" points="212.0001,-29.534 208.5,-19.534 205.0001,-29.534 212.0001,-29.534"/>
</g>
<!-- Node5 -->
<g id="node6" class="node">
<title>Node5</title>
<polygon fill="none" stroke="#bfbfbf" points="250,-.5 250,-19.5 349,-19.5 349,-.5 250,-.5"/>
<text text-anchor="middle" x="299.5" y="-7.5" font-family="Helvetica,sans-Serif" font-size="10.00" fill="#000000">TDatabasePDG.h</text>
</g>
<!-- Node0&#45;&gt;Node5 -->
<g id="edge5" class="edge">
<title>Node0&#45;&gt;Node5</title>
<path fill="none" stroke="#191970" d="M241.3531,-56.3258C254.1728,-46.1123 268.4476,-34.7396 279.6452,-25.8184"/>
<polygon fill="#191970" stroke="#191970" points="281.8929,-28.5027 287.5332,-19.534 277.531,-23.0278 281.8929,-28.5027"/>
</g>
<!-- Node6 -->
<g id="node7" class="node">
<title>Node6</title>
<polygon fill="none" stroke="#bfbfbf" points="367,-.5 367,-19.5 444,-19.5 444,-.5 367,-.5"/>
<text text-anchor="middle" x="405.5" y="-7.5" font-family="Helvetica,sans-Serif" font-size="10.00" fill="#000000">TPDGCode.h</text>
</g>
<!-- Node0&#45;&gt;Node6 -->
<g id="edge6" class="edge">
<title>Node0&#45;&gt;Node6</title>
<path fill="none" stroke="#191970" d="M272.1882,-59.0614C304.6269,-47.1234 342.8464,-33.0578 370.0267,-23.0549"/>
<polygon fill="#191970" stroke="#191970" points="371.334,-26.3034 379.5098,-19.5649 368.9163,-19.7341 371.334,-26.3034"/>
</g>
<!-- Node7 -->
<g id="node8" class="node">
<title>Node7</title>
<g id="a_node8"><a xlink:href="../../d6/d84/MathConstants_8h.html" target="_top" xlink:title="useful math constants ">
<polygon fill="none" stroke="#000000" points="462.5,-.5 462.5,-19.5 656.5,-19.5 656.5,-.5 462.5,-.5"/>
<text text-anchor="middle" x="559.5" y="-7.5" font-family="Helvetica,sans-Serif" font-size="10.00" fill="#000000">CommonConstants/MathConstants.h</text>
</a>
</g>
</g>
<!-- Node0&#45;&gt;Node7 -->
<g id="edge7" class="edge">
<title>Node0&#45;&gt;Node7</title>
<path fill="none" stroke="#191970" d="M272.0635,-69.3708C338.0295,-55.7453 440.2076,-34.6402 503.3078,-21.6066"/>
<polygon fill="#191970" stroke="#191970" points="504.3846,-24.9582 513.4699,-19.5076 502.9686,-18.1029 504.3846,-24.9582"/>
</g>
</g>
</svg>
