<?xml version="1.0" encoding="UTF-8" standalone="no"?>
<!DOCTYPE svg PUBLIC "-//W3C//DTD SVG 1.1//EN"
 "http://www.w3.org/Graphics/SVG/1.1/DTD/svg11.dtd">
<!-- Generated by graphviz version 2.40.1 (20161225.0304)
 -->
<!-- Title: TrackQATask Pages: 1 -->
<svg width="646pt" height="844pt"
 viewBox="0.00 0.00 646.00 844.00" xmlns="http://www.w3.org/2000/svg" xmlns:xlink="http://www.w3.org/1999/xlink">
<g id="graph0" class="graph" transform="scale(1 1) rotate(0) translate(4 840)">
<title>TrackQATask</title>
<!-- Node1 -->
<g id="node1" class="node">
<title>Node1</title>
<polygon fill="#bfbfbf" stroke="#000000" points="304,-.5 304,-68.5 381,-68.5 381,-.5 304,-.5"/>
<text text-anchor="middle" x="342.5" y="-56.5" font-family="Helvetica,sans-Serif" font-size="10.00" fill="#000000">TrackQATask</text>
<polyline fill="none" stroke="#000000" points="304,-49.5 381,-49.5 "/>
<text text-anchor="middle" x="342.5" y="-37.5" font-family="Helvetica,sans-Serif" font-size="10.00" fill="#000000"> </text>
<polyline fill="none" stroke="#000000" points="304,-30.5 381,-30.5 "/>
<text text-anchor="start" x="312" y="-18.5" font-family="Helvetica,sans-Serif" font-size="10.00" fill="#000000">+ init()</text>
<text text-anchor="start" x="312" y="-7.5" font-family="Helvetica,sans-Serif" font-size="10.00" fill="#000000">+ process()</text>
</g>
<!-- Node2 -->
<g id="node2" class="node">
<title>Node2</title>
<g id="a_node2"><a xlink:href="../../d8/d34/classo2_1_1framework_1_1HistogramRegistry.html" target="_top" xlink:title="{o2::framework::Histogram\lRegistry\n||+ HistogramRegistry()\l+ add()\l+ add()\l+ add()\l+ get()\l+ operator()()\l+ spec()\l+ ref()\l+ setHash()\l+ operator*()\l+ fill()\l+ fillWeight()\l+ fill()\l+ fillWeight()\l+ fillTable()\l}">
<polygon fill="none" stroke="#000000" points="38,-149.5 38,-371.5 183,-371.5 183,-149.5 38,-149.5"/>
<text text-anchor="start" x="46" y="-359.5" font-family="Helvetica,sans-Serif" font-size="10.00" fill="#000000">o2::framework::Histogram</text>
<text text-anchor="middle" x="110.5" y="-348.5" font-family="Helvetica,sans-Serif" font-size="10.00" fill="#000000">Registry</text>
<polyline fill="none" stroke="#000000" points="38,-341.5 183,-341.5 "/>
<text text-anchor="middle" x="110.5" y="-329.5" font-family="Helvetica,sans-Serif" font-size="10.00" fill="#000000"> </text>
<polyline fill="none" stroke="#000000" points="38,-322.5 183,-322.5 "/>
<text text-anchor="start" x="46" y="-310.5" font-family="Helvetica,sans-Serif" font-size="10.00" fill="#000000">+ HistogramRegistry()</text>
<text text-anchor="start" x="46" y="-299.5" font-family="Helvetica,sans-Serif" font-size="10.00" fill="#000000">+ add()</text>
<text text-anchor="start" x="46" y="-288.5" font-family="Helvetica,sans-Serif" font-size="10.00" fill="#000000">+ add()</text>
<text text-anchor="start" x="46" y="-277.5" font-family="Helvetica,sans-Serif" font-size="10.00" fill="#000000">+ add()</text>
<text text-anchor="start" x="46" y="-266.5" font-family="Helvetica,sans-Serif" font-size="10.00" fill="#000000">+ get()</text>
<text text-anchor="start" x="46" y="-255.5" font-family="Helvetica,sans-Serif" font-size="10.00" fill="#000000">+ operator()()</text>
<text text-anchor="start" x="46" y="-244.5" font-family="Helvetica,sans-Serif" font-size="10.00" fill="#000000">+ spec()</text>
<text text-anchor="start" x="46" y="-233.5" font-family="Helvetica,sans-Serif" font-size="10.00" fill="#000000">+ ref()</text>
<text text-anchor="start" x="46" y="-222.5" font-family="Helvetica,sans-Serif" font-size="10.00" fill="#000000">+ setHash()</text>
<text text-anchor="start" x="46" y="-211.5" font-family="Helvetica,sans-Serif" font-size="10.00" fill="#000000">+ operator*()</text>
<text text-anchor="start" x="46" y="-200.5" font-family="Helvetica,sans-Serif" font-size="10.00" fill="#000000">+ fill()</text>
<text text-anchor="start" x="46" y="-189.5" font-family="Helvetica,sans-Serif" font-size="10.00" fill="#000000">+ fillWeight()</text>
<text text-anchor="start" x="46" y="-178.5" font-family="Helvetica,sans-Serif" font-size="10.00" fill="#000000">+ fill()</text>
<text text-anchor="start" x="46" y="-167.5" font-family="Helvetica,sans-Serif" font-size="10.00" fill="#000000">+ fillWeight()</text>
<text text-anchor="start" x="46" y="-156.5" font-family="Helvetica,sans-Serif" font-size="10.00" fill="#000000">+ fillTable()</text>
</a>
</g>
</g>
<!-- Node2&#45;&gt;Node1 -->
<g id="edge1" class="edge">
<title>Node2&#45;&gt;Node1</title>
<path fill="none" stroke="#404040" d="M183.2697,-189.6123C221.1673,-152.6947 266.2487,-108.7792 298.7531,-77.1155"/>
<polygon fill="none" stroke="#404040" points="298.9753,-76.899 300.4821,-69.8471 307.5711,-68.5256 306.0643,-75.5776 298.9753,-76.899"/>
<text text-anchor="middle" x="311" y="-123" font-family="Helvetica,sans-Serif" font-size="10.00" fill="#000000"> +tpc</text>
<text text-anchor="middle" x="311" y="-112" font-family="Helvetica,sans-Serif" font-size="10.00" fill="#000000">+its</text>
<text text-anchor="middle" x="311" y="-101" font-family="Helvetica,sans-Serif" font-size="10.00" fill="#000000">+trackpar</text>
<text text-anchor="middle" x="311" y="-90" font-family="Helvetica,sans-Serif" font-size="10.00" fill="#000000">+kine</text>
</g>
<!-- Node3 -->
<g id="node3" class="node">
<title>Node3</title>
<polygon fill="none" stroke="#bfbfbf" points="66.5,-425 66.5,-482 122.5,-482 122.5,-425 66.5,-425"/>
<text text-anchor="middle" x="94.5" y="-470" font-family="Helvetica,sans-Serif" font-size="10.00" fill="#000000">uint32_t</text>
<polyline fill="none" stroke="#bfbfbf" points="66.5,-463 122.5,-463 "/>
<text text-anchor="middle" x="94.5" y="-451" font-family="Helvetica,sans-Serif" font-size="10.00" fill="#000000"> </text>
<polyline fill="none" stroke="#bfbfbf" points="66.5,-444 122.5,-444 "/>
<text text-anchor="middle" x="94.5" y="-432" font-family="Helvetica,sans-Serif" font-size="10.00" fill="#000000"> </text>
</g>
<!-- Node3&#45;&gt;Node2 -->
<g id="edge2" class="edge">
<title>Node3&#45;&gt;Node2</title>
<path fill="none" stroke="#404040" d="M96.8954,-424.6059C97.8515,-413.0723 99.0223,-398.9494 100.272,-383.8758"/>
<polygon fill="none" stroke="#404040" points="100.2969,-383.5735 96.8064,-377.2635 101.2884,-371.6146 104.779,-377.9245 100.2969,-383.5735"/>
<text text-anchor="middle" x="123" y="-393" font-family="Helvetica,sans-Serif" font-size="10.00" fill="#000000"> +lookup</text>
</g>
<!-- Node4 -->
<g id="node4" class="node">
<title>Node4</title>
<g id="a_node4"><a xlink:href="../../d8/d71/structo2_1_1framework_1_1Configurable.html" target="_top" xlink:title="{o2::framework::Configurable\l\&lt; int \&gt;\n||+ Configurable()\l}">
<polygon fill="none" stroke="#000000" points="265,-226.5 265,-294.5 420,-294.5 420,-226.5 265,-226.5"/>
<text text-anchor="start" x="273" y="-282.5" font-family="Helvetica,sans-Serif" font-size="10.00" fill="#000000">o2::framework::Configurable</text>
<text text-anchor="middle" x="342.5" y="-271.5" font-family="Helvetica,sans-Serif" font-size="10.00" fill="#000000">&lt; int &gt;</text>
<polyline fill="none" stroke="#000000" points="265,-264.5 420,-264.5 "/>
<text text-anchor="middle" x="342.5" y="-252.5" font-family="Helvetica,sans-Serif" font-size="10.00" fill="#000000"> </text>
<polyline fill="none" stroke="#000000" points="265,-245.5 420,-245.5 "/>
<text text-anchor="start" x="273" y="-233.5" font-family="Helvetica,sans-Serif" font-size="10.00" fill="#000000">+ Configurable()</text>
</a>
</g>
</g>
<!-- Node4&#45;&gt;Node1 -->
<g id="edge3" class="edge">
<title>Node4&#45;&gt;Node1</title>
<path fill="none" stroke="#404040" d="M342.5,-226.1755C342.5,-187.4016 342.5,-124.0933 342.5,-80.9277"/>
<polygon fill="none" stroke="#404040" points="342.5001,-80.7766 338.5,-74.7766 342.5,-68.7766 346.5,-74.7765 342.5001,-80.7766"/>
<text text-anchor="middle" x="384.5" y="-106.5" font-family="Helvetica,sans-Serif" font-size="10.00" fill="#000000"> +selectedTracks</text>
</g>
<!-- Node5 -->
<g id="node5" class="node">
<title>Node5</title>
<g id="a_node5"><a xlink:href="../../da/def/structo2_1_1framework_1_1ConfigurablePolicyConst.html" target="_top" xlink:title="{o2::framework::Configurable\lPolicyConst\&lt; int \&gt;\n||+ ConfigurablePolicyConst()\l}">
<polygon fill="none" stroke="#000000" points="141,-419.5 141,-487.5 296,-487.5 296,-419.5 141,-419.5"/>
<text text-anchor="start" x="149" y="-475.5" font-family="Helvetica,sans-Serif" font-size="10.00" fill="#000000">o2::framework::Configurable</text>
<text text-anchor="middle" x="218.5" y="-464.5" font-family="Helvetica,sans-Serif" font-size="10.00" fill="#000000">PolicyConst&lt; int &gt;</text>
<polyline fill="none" stroke="#000000" points="141,-457.5 296,-457.5 "/>
<text text-anchor="middle" x="218.5" y="-445.5" font-family="Helvetica,sans-Serif" font-size="10.00" fill="#000000"> </text>
<polyline fill="none" stroke="#000000" points="141,-438.5 296,-438.5 "/>
<text text-anchor="start" x="149" y="-426.5" font-family="Helvetica,sans-Serif" font-size="10.00" fill="#000000">+ ConfigurablePolicyConst()</text>
</a>
</g>
</g>
<!-- Node5&#45;&gt;Node4 -->
<g id="edge4" class="edge">
<title>Node5&#45;&gt;Node4</title>
<path fill="none" stroke="#191970" d="M245.8955,-410.8602C268.3809,-375.8627 299.7999,-326.9607 320.6273,-294.5438"/>
<polygon fill="none" stroke="#191970" points="242.8441,-409.1346 240.3833,-419.4397 248.7333,-412.9184 242.8441,-409.1346"/>
</g>
<!-- Node6 -->
<g id="node6" class="node">
<title>Node6</title>
<g id="a_node6"><a xlink:href="../../da/d2f/structo2_1_1framework_1_1ConfigurableBase.html" target="_top" xlink:title="{o2::framework::Configurable\lBase\&lt; int \&gt;\n||+ ConfigurableBase()\l}">
<polygon fill="none" stroke="#000000" points="0,-535.5 0,-603.5 155,-603.5 155,-535.5 0,-535.5"/>
<text text-anchor="start" x="8" y="-591.5" font-family="Helvetica,sans-Serif" font-size="10.00" fill="#000000">o2::framework::Configurable</text>
<text text-anchor="middle" x="77.5" y="-580.5" font-family="Helvetica,sans-Serif" font-size="10.00" fill="#000000">Base&lt; int &gt;</text>
<polyline fill="none" stroke="#000000" points="0,-573.5 155,-573.5 "/>
<text text-anchor="middle" x="77.5" y="-561.5" font-family="Helvetica,sans-Serif" font-size="10.00" fill="#000000"> </text>
<polyline fill="none" stroke="#000000" points="0,-554.5 155,-554.5 "/>
<text text-anchor="start" x="8" y="-542.5" font-family="Helvetica,sans-Serif" font-size="10.00" fill="#000000">+ ConfigurableBase()</text>
</a>
</g>
</g>
<!-- Node6&#45;&gt;Node5 -->
<g id="edge5" class="edge">
<title>Node6&#45;&gt;Node5</title>
<path fill="none" stroke="#191970" d="M126.8861,-528.8703C143.171,-515.4728 161.1116,-500.7131 176.7677,-487.833"/>
<polygon fill="none" stroke="#191970" points="124.5409,-526.2674 119.042,-535.3236 128.9882,-531.6732 124.5409,-526.2674"/>
</g>
<!-- Node7 -->
<g id="node7" class="node">
<title>Node7</title>
<polygon fill="none" stroke="#bfbfbf" points="81,-778.5 81,-835.5 110,-835.5 110,-778.5 81,-778.5"/>
<text text-anchor="middle" x="95.5" y="-823.5" font-family="Helvetica,sans-Serif" font-size="10.00" fill="#000000">int</text>
<polyline fill="none" stroke="#bfbfbf" points="81,-816.5 110,-816.5 "/>
<text text-anchor="middle" x="95.5" y="-804.5" font-family="Helvetica,sans-Serif" font-size="10.00" fill="#000000"> </text>
<polyline fill="none" stroke="#bfbfbf" points="81,-797.5 110,-797.5 "/>
<text text-anchor="middle" x="95.5" y="-785.5" font-family="Helvetica,sans-Serif" font-size="10.00" fill="#000000"> </text>
</g>
<!-- Node7&#45;&gt;Node6 -->
<g id="edge6" class="edge">
<title>Node7&#45;&gt;Node6</title>
<path fill="none" stroke="#404040" d="M92.2288,-778.4245C90.3657,-761.4621 88.0928,-739.5235 86.5,-720 83.6505,-685.0741 81.32,-645.519 79.745,-615.7278"/>
<polygon fill="none" stroke="#404040" points="79.7376,-615.5838 75.4326,-609.7988 79.1169,-603.5999 83.4219,-609.3849 79.7376,-615.5838"/>
<text text-anchor="middle" x="106" y="-694" font-family="Helvetica,sans-Serif" font-size="10.00" fill="#000000"> +value</text>
<text text-anchor="middle" x="106" y="-683" font-family="Helvetica,sans-Serif" font-size="10.00" fill="#000000">+name</text>
<text text-anchor="middle" x="106" y="-672" font-family="Helvetica,sans-Serif" font-size="10.00" fill="#000000">+help</text>
</g>
<!-- Node8 -->
<g id="node8" class="node">
<title>Node8</title>
<g id="a_node8"><a xlink:href="../../da/d2f/structo2_1_1framework_1_1ConfigurableBase.html" target="_top" xlink:title="{o2::framework::Configurable\lBase\&lt; T \&gt;\n||+ ConfigurableBase()\l}">
<polygon fill="none" stroke="#000000" points="135,-651.5 135,-719.5 290,-719.5 290,-651.5 135,-651.5"/>
<text text-anchor="start" x="143" y="-707.5" font-family="Helvetica,sans-Serif" font-size="10.00" fill="#000000">o2::framework::Configurable</text>
<text text-anchor="middle" x="212.5" y="-696.5" font-family="Helvetica,sans-Serif" font-size="10.00" fill="#000000">Base&lt; T &gt;</text>
<polyline fill="none" stroke="#000000" points="135,-689.5 290,-689.5 "/>
<text text-anchor="middle" x="212.5" y="-677.5" font-family="Helvetica,sans-Serif" font-size="10.00" fill="#000000"> </text>
<polyline fill="none" stroke="#000000" points="135,-670.5 290,-670.5 "/>
<text text-anchor="start" x="143" y="-658.5" font-family="Helvetica,sans-Serif" font-size="10.00" fill="#000000">+ ConfigurableBase()</text>
</a>
</g>
</g>
<!-- Node7&#45;&gt;Node8 -->
<g id="edge8" class="edge">
<title>Node7&#45;&gt;Node8</title>
<path fill="none" stroke="#404040" d="M110.3181,-791.6119C125.5586,-775.7853 149.9888,-750.4154 171.1402,-728.4506"/>
<polygon fill="none" stroke="#404040" points="171.3396,-728.2435 172.6202,-721.1469 179.6634,-719.5996 178.3828,-726.6961 171.3396,-728.2435"/>
<text text-anchor="middle" x="181.5" y="-752" font-family="Helvetica,sans-Serif" font-size="10.00" fill="#000000"> +name</text>
<text text-anchor="middle" x="181.5" y="-741" font-family="Helvetica,sans-Serif" font-size="10.00" fill="#000000">+help</text>
</g>
<!-- Node8&#45;&gt;Node6 -->
<g id="edge7" class="edge">
<title>Node8&#45;&gt;Node6</title>
<path fill="none" stroke="#ffa500" d="M164.7898,-644.5046C149.3114,-631.2046 132.31,-616.596 117.4565,-603.833"/>
<polygon fill="#ffa500" stroke="#ffa500" points="162.86,-647.461 172.7257,-651.3236 167.4221,-642.1518 162.86,-647.461"/>
<text text-anchor="middle" x="169" y="-625" font-family="Helvetica,sans-Serif" font-size="10.00" fill="#000000"> &lt; int &gt;</text>
</g>
<!-- Node10 -->
<g id="node10" class="node">
<title>Node10</title>
<g id="a_node10"><a xlink:href="../../da/def/structo2_1_1framework_1_1ConfigurablePolicyConst.html" target="_top" xlink:title="{o2::framework::Configurable\lPolicyConst\&lt; T \&gt;\n||+ ConfigurablePolicyConst()\l}">
<polygon fill="none" stroke="#000000" points="173,-535.5 173,-603.5 328,-603.5 328,-535.5 173,-535.5"/>
<text text-anchor="start" x="181" y="-591.5" font-family="Helvetica,sans-Serif" font-size="10.00" fill="#000000">o2::framework::Configurable</text>
<text text-anchor="middle" x="250.5" y="-580.5" font-family="Helvetica,sans-Serif" font-size="10.00" fill="#000000">PolicyConst&lt; T &gt;</text>
<polyline fill="none" stroke="#000000" points="173,-573.5 328,-573.5 "/>
<text text-anchor="middle" x="250.5" y="-561.5" font-family="Helvetica,sans-Serif" font-size="10.00" fill="#000000"> </text>
<polyline fill="none" stroke="#000000" points="173,-554.5 328,-554.5 "/>
<text text-anchor="start" x="181" y="-542.5" font-family="Helvetica,sans-Serif" font-size="10.00" fill="#000000">+ ConfigurablePolicyConst()</text>
</a>
</g>
</g>
<!-- Node8&#45;&gt;Node10 -->
<g id="edge11" class="edge">
<title>Node8&#45;&gt;Node10</title>
<path fill="none" stroke="#191970" d="M226.8954,-641.5562C230.9856,-629.0702 235.3788,-615.6593 239.253,-603.833"/>
<polygon fill="none" stroke="#191970" points="223.4828,-640.7309 223.6957,-651.3236 230.135,-642.9101 223.4828,-640.7309"/>
</g>
<!-- Node9 -->
<g id="node9" class="node">
<title>Node9</title>
<polygon fill="none" stroke="#bfbfbf" points="198,-778.5 198,-835.5 227,-835.5 227,-778.5 198,-778.5"/>
<text text-anchor="middle" x="212.5" y="-823.5" font-family="Helvetica,sans-Serif" font-size="10.00" fill="#000000">T</text>
<polyline fill="none" stroke="#bfbfbf" points="198,-816.5 227,-816.5 "/>
<text text-anchor="middle" x="212.5" y="-804.5" font-family="Helvetica,sans-Serif" font-size="10.00" fill="#000000"> </text>
<polyline fill="none" stroke="#bfbfbf" points="198,-797.5 227,-797.5 "/>
<text text-anchor="middle" x="212.5" y="-785.5" font-family="Helvetica,sans-Serif" font-size="10.00" fill="#000000"> </text>
</g>
<!-- Node9&#45;&gt;Node8 -->
<g id="edge9" class="edge">
<title>Node9&#45;&gt;Node8</title>
<path fill="none" stroke="#404040" d="M212.5,-778.2062C212.5,-764.3632 212.5,-747.4255 212.5,-731.8327"/>
<polygon fill="none" stroke="#404040" points="212.5001,-731.7007 208.5,-725.7008 212.5,-719.7007 216.5,-725.7007 212.5001,-731.7007"/>
<text text-anchor="middle" x="232" y="-746.5" font-family="Helvetica,sans-Serif" font-size="10.00" fill="#000000"> +value</text>
</g>
<!-- Node10&#45;&gt;Node5 -->
<g id="edge10" class="edge">
<title>Node10&#45;&gt;Node5</title>
<path fill="none" stroke="#ffa500" d="M238.3776,-525.5562C234.9332,-513.0702 231.2336,-499.6593 227.9712,-487.833"/>
<polygon fill="#ffa500" stroke="#ffa500" points="235.0387,-526.6144 241.072,-535.3236 241.7866,-524.7529 235.0387,-526.6144"/>
<text text-anchor="middle" x="255" y="-509" font-family="Helvetica,sans-Serif" font-size="10.00" fill="#000000"> &lt; int &gt;</text>
</g>
<!-- Node11 -->
<g id="node11" class="node">
<title>Node11</title>
<g id="a_node11"><a xlink:href="../../d8/d71/structo2_1_1framework_1_1Configurable.html" target="_top" xlink:title="{o2::framework::Configurable\l\&lt; T, IP \&gt;\n||+ Configurable()\l}">
<polygon fill="none" stroke="#000000" points="314,-419.5 314,-487.5 469,-487.5 469,-419.5 314,-419.5"/>
<text text-anchor="start" x="322" y="-475.5" font-family="Helvetica,sans-Serif" font-size="10.00" fill="#000000">o2::framework::Configurable</text>
<text text-anchor="middle" x="391.5" y="-464.5" font-family="Helvetica,sans-Serif" font-size="10.00" fill="#000000">&lt; T, IP &gt;</text>
<polyline fill="none" stroke="#000000" points="314,-457.5 469,-457.5 "/>
<text text-anchor="middle" x="391.5" y="-445.5" font-family="Helvetica,sans-Serif" font-size="10.00" fill="#000000"> </text>
<polyline fill="none" stroke="#000000" points="314,-438.5 469,-438.5 "/>
<text text-anchor="start" x="322" y="-426.5" font-family="Helvetica,sans-Serif" font-size="10.00" fill="#000000">+ Configurable()</text>
</a>
</g>
</g>
<!-- Node11&#45;&gt;Node4 -->
<g id="edge12" class="edge">
<title>Node11&#45;&gt;Node4</title>
<path fill="none" stroke="#ffa500" d="M380.3338,-409.5188C371.474,-374.6221 359.2688,-326.5486 351.1432,-294.5438"/>
<polygon fill="#ffa500" stroke="#ffa500" points="376.9993,-410.6085 382.8526,-419.4397 383.7841,-408.8859 376.9993,-410.6085"/>
<text text-anchor="middle" x="397" y="-393" font-family="Helvetica,sans-Serif" font-size="10.00" fill="#000000"> &lt; int &gt;</text>
</g>
<!-- Node12 -->
<g id="node12" class="node">
<title>Node12</title>
<polygon fill="none" stroke="#bfbfbf" points="377,-541 377,-598 406,-598 406,-541 377,-541"/>
<text text-anchor="middle" x="391.5" y="-586" font-family="Helvetica,sans-Serif" font-size="10.00" fill="#000000">IP</text>
<polyline fill="none" stroke="#bfbfbf" points="377,-579 406,-579 "/>
<text text-anchor="middle" x="391.5" y="-567" font-family="Helvetica,sans-Serif" font-size="10.00" fill="#000000"> </text>
<polyline fill="none" stroke="#bfbfbf" points="377,-560 406,-560 "/>
<text text-anchor="middle" x="391.5" y="-548" font-family="Helvetica,sans-Serif" font-size="10.00" fill="#000000"> </text>
</g>
<!-- Node12&#45;&gt;Node11 -->
<g id="edge13" class="edge">
<title>Node12&#45;&gt;Node11</title>
<path fill="none" stroke="#191970" d="M391.5,-530.569C391.5,-516.6554 391.5,-501.0944 391.5,-487.6178"/>
<polygon fill="none" stroke="#191970" points="388.0001,-530.8258 391.5,-540.8258 395.0001,-530.8259 388.0001,-530.8258"/>
</g>
<!-- Node13 -->
<g id="node13" class="node">
<title>Node13</title>
<g id="a_node13"><a xlink:href="../../d1/d9a/structo2_1_1framework_1_1expressions_1_1Filter.html" target="_top" xlink:title="A struct, containing the root of the expression tree. ">
<polygon fill="none" stroke="#000000" points="470.5,-221 470.5,-300 622.5,-300 622.5,-221 470.5,-221"/>
<text text-anchor="start" x="478.5" y="-288" font-family="Helvetica,sans-Serif" font-size="10.00" fill="#000000">o2::framework::expressions</text>
<text text-anchor="middle" x="546.5" y="-277" font-family="Helvetica,sans-Serif" font-size="10.00" fill="#000000">::Filter</text>
<polyline fill="none" stroke="#000000" points="470.5,-270 622.5,-270 "/>
<text text-anchor="middle" x="546.5" y="-258" font-family="Helvetica,sans-Serif" font-size="10.00" fill="#000000"> </text>
<polyline fill="none" stroke="#000000" points="470.5,-251 622.5,-251 "/>
<text text-anchor="start" x="478.5" y="-239" font-family="Helvetica,sans-Serif" font-size="10.00" fill="#000000">+ Filter()</text>
<text text-anchor="start" x="478.5" y="-228" font-family="Helvetica,sans-Serif" font-size="10.00" fill="#000000">+ Filter()</text>
</a>
</g>
</g>
<!-- Node13&#45;&gt;Node1 -->
<g id="edge14" class="edge">
<title>Node13&#45;&gt;Node1</title>
<path fill="none" stroke="#404040" d="M526.5728,-220.6643C506.2487,-182.9165 471.8773,-126.3025 430.5,-87 419.2025,-76.269 405.3347,-66.7355 391.9778,-58.8362"/>
<polygon fill="none" stroke="#404040" points="391.8737,-58.7773 384.6815,-59.2984 381.4342,-52.8598 388.6264,-52.3387 391.8737,-58.7773"/>
<text text-anchor="middle" x="499" y="-106.5" font-family="Helvetica,sans-Serif" font-size="10.00" fill="#000000"> +trackFilter</text>
</g>
<!-- Node14 -->
<g id="node14" class="node">
<title>Node14</title>
<polygon fill="none" stroke="#bfbfbf" points="487,-419.5 487,-487.5 638,-487.5 638,-419.5 487,-419.5"/>
<text text-anchor="start" x="495" y="-475.5" font-family="Helvetica,sans-Serif" font-size="10.00" fill="#000000">unique_ptr&lt; o2::framework</text>
<text text-anchor="middle" x="562.5" y="-464.5" font-family="Helvetica,sans-Serif" font-size="10.00" fill="#000000">::expressions::Node &gt;</text>
<polyline fill="none" stroke="#bfbfbf" points="487,-457.5 638,-457.5 "/>
<text text-anchor="middle" x="562.5" y="-445.5" font-family="Helvetica,sans-Serif" font-size="10.00" fill="#000000"> </text>
<polyline fill="none" stroke="#bfbfbf" points="487,-438.5 638,-438.5 "/>
<text text-anchor="middle" x="562.5" y="-426.5" font-family="Helvetica,sans-Serif" font-size="10.00" fill="#000000"> </text>
</g>
<!-- Node14&#45;&gt;Node13 -->
<g id="edge15" class="edge">
<title>Node14&#45;&gt;Node13</title>
<path fill="none" stroke="#404040" d="M559.6764,-419.4397C557.2154,-389.7548 553.6092,-346.2553 550.7914,-312.2649"/>
<polygon fill="none" stroke="#404040" points="550.784,-312.1745 546.3019,-306.5255 549.7925,-300.2155 554.2746,-305.8645 550.784,-312.1745"/>
<text text-anchor="middle" x="576.5" y="-393" font-family="Helvetica,sans-Serif" font-size="10.00" fill="#000000"> +node</text>
</g>
</g>
</svg>
