<?xml version="1.0" encoding="UTF-8" standalone="no"?>
<!DOCTYPE svg PUBLIC "-//W3C//DTD SVG 1.1//EN"
 "http://www.w3.org/Graphics/SVG/1.1/DTD/svg11.dtd">
<!-- Generated by graphviz version 2.40.1 (20161225.0304)
 -->
<!-- Title: /home/travis/build/AliceO2Group/AliceO2/Detectors/TPC/base/src/Mapper.cxx Pages: 1 -->
<!--zoomable 587 -->
<svg id="main" version="1.1" xmlns="http://www.w3.org/2000/svg" xmlns:xlink="http://www.w3.org/1999/xlink" xml:space="preserve" onload="init(evt)">
<style type="text/css"><![CDATA[
.edge:hover path { stroke: red; }
.edge:hover polygon { stroke: red; fill: red; }
]]></style>
<script type="text/javascript"><![CDATA[
var edges = document.getElementsByTagName('g');
if (edges && edges.length) {
  for (var i=0;i<edges.length;i++) {
    if (edges[i].id.substr(0,4)=='edge') {
      edges[i].setAttribute('class','edge');
    }
  }
}
]]></script>
        <defs>
                <circle id="rim" cx="0" cy="0" r="7"/>
                <circle id="rim2" cx="0" cy="0" r="3.5"/>
                <g id="zoomPlus">
                        <use xlink:href="#rim" fill="#404040">
                                <set attributeName="fill" to="#808080" begin="zoomplus.mouseover" end="zoomplus.mouseout"/>
                        </use>
                        <path d="M-4,0h8M0,-4v8" fill="none" stroke="white" stroke-width="1.5" pointer-events="none"/>
                </g>
                <g id="zoomMin">
                        <use xlink:href="#rim" fill="#404040">
                                <set attributeName="fill" to="#808080" begin="zoomminus.mouseover" end="zoomminus.mouseout"/>
                        </use>
                        <path d="M-4,0h8" fill="none" stroke="white" stroke-width="1.5" pointer-events="none"/>
                </g>
                <g id="dirArrow">
                        <path fill="none" stroke="white" stroke-width="1.5" d="M0,-3.0v7 M-2.5,-0.5L0,-3.0L2.5,-0.5"/>
                </g>
               <g id="resetDef">
                       <use xlink:href="#rim2" fill="#404040">
                               <set attributeName="fill" to="#808080" begin="reset.mouseover" end="reset.mouseout"/>
                       </use>
               </g>
        </defs>

<script type="text/javascript">
var viewWidth = 1884;
var viewHeight = 587;
var sectionId = 'dynsection-0';
</script>
<script xlink:href="../../svgpan.js"/>
<svg id="graph" class="graph">
<g id="viewport">
<title>/home/travis/build/AliceO2Group/AliceO2/Detectors/TPC/base/src/Mapper.cxx</title>
<!-- Node0 -->
<g id="node1" class="node">
<title>Node0</title>
<polygon fill="#bfbfbf" stroke="#000000" points="145.5,-526.5 145.5,-578.5 277.5,-578.5 277.5,-526.5 145.5,-526.5"/>
<text text-anchor="start" x="153.5" y="-566.5" font-family="Helvetica,sans-Serif" font-size="10.00" fill="#000000">/home/travis/build</text>
<text text-anchor="start" x="153.5" y="-555.5" font-family="Helvetica,sans-Serif" font-size="10.00" fill="#000000">/AliceO2Group/AliceO2</text>
<text text-anchor="start" x="153.5" y="-544.5" font-family="Helvetica,sans-Serif" font-size="10.00" fill="#000000">/Detectors/TPC/base/src</text>
<text text-anchor="middle" x="211.5" y="-533.5" font-family="Helvetica,sans-Serif" font-size="10.00" fill="#000000">/Mapper.cxx</text>
</g>
<!-- Node1 -->
<g id="node2" class="node">
<title>Node1</title>
<polygon fill="none" stroke="#bfbfbf" points="0,-470.5 0,-489.5 55,-489.5 55,-470.5 0,-470.5"/>
<text text-anchor="middle" x="27.5" y="-477.5" font-family="Helvetica,sans-Serif" font-size="10.00" fill="#000000">fstream</text>
</g>
<!-- Node0&#45;&gt;Node1 -->
<g id="edge1" class="edge">
<title>Node0&#45;&gt;Node1</title>
<path fill="none" stroke="#191970" d="M145.3317,-526.4283C116.8441,-515.2035 84.7607,-502.5619 61.2733,-493.3074"/>
<polygon fill="#191970" stroke="#191970" points="62.3561,-489.9722 51.7692,-489.5626 59.7899,-496.4849 62.3561,-489.9722"/>
</g>
<!-- Node2 -->
<g id="node3" class="node">
<title>Node2</title>
<polygon fill="none" stroke="#bfbfbf" points="73.5,-470.5 73.5,-489.5 133.5,-489.5 133.5,-470.5 73.5,-470.5"/>
<text text-anchor="middle" x="103.5" y="-477.5" font-family="Helvetica,sans-Serif" font-size="10.00" fill="#000000">iostream</text>
</g>
<!-- Node0&#45;&gt;Node2 -->
<g id="edge2" class="edge">
<title>Node0&#45;&gt;Node2</title>
<path fill="none" stroke="#191970" d="M172.5095,-526.3258C156.9966,-515.912 139.6884,-504.2931 126.2865,-495.2965"/>
<polygon fill="#191970" stroke="#191970" points="127.9559,-492.2017 117.7024,-489.534 124.0543,-498.0136 127.9559,-492.2017"/>
</g>
<!-- Node3 -->
<g id="node4" class="node">
<title>Node3</title>
<polygon fill="none" stroke="#bfbfbf" points="189.5,-414.5 189.5,-433.5 233.5,-433.5 233.5,-414.5 189.5,-414.5"/>
<text text-anchor="middle" x="211.5" y="-421.5" font-family="Helvetica,sans-Serif" font-size="10.00" fill="#000000">string</text>
</g>
<!-- Node0&#45;&gt;Node3 -->
<g id="edge3" class="edge">
<title>Node0&#45;&gt;Node3</title>
<path fill="none" stroke="#191970" d="M211.5,-526.4961C211.5,-502.0156 211.5,-465.8881 211.5,-443.7068"/>
<polygon fill="#191970" stroke="#191970" points="215.0001,-443.5141 211.5,-433.5142 208.0001,-443.5142 215.0001,-443.5141"/>
</g>
<!-- Node4 -->
<g id="node5" class="node">
<title>Node4</title>
<polygon fill="none" stroke="#bfbfbf" points="615.5,-470.5 615.5,-489.5 671.5,-489.5 671.5,-470.5 615.5,-470.5"/>
<text text-anchor="middle" x="643.5" y="-477.5" font-family="Helvetica,sans-Serif" font-size="10.00" fill="#000000">sstream</text>
</g>
<!-- Node0&#45;&gt;Node4 -->
<g id="edge4" class="edge">
<title>Node0&#45;&gt;Node4</title>
<path fill="none" stroke="#191970" d="M277.595,-544.2437C354.2873,-534.1705 484.6525,-515.527 605.4982,-490.0425"/>
<polygon fill="#191970" stroke="#191970" points="606.242,-493.4627 615.294,-487.957 604.7844,-486.6161 606.242,-493.4627"/>
</g>
<!-- Node5 -->
<g id="node6" class="node">
<title>Node5</title>
<polygon fill="none" stroke="#bfbfbf" points="690,-470.5 690,-489.5 739,-489.5 739,-470.5 690,-470.5"/>
<text text-anchor="middle" x="714.5" y="-477.5" font-family="Helvetica,sans-Serif" font-size="10.00" fill="#000000">cstdlib</text>
</g>
<!-- Node0&#45;&gt;Node5 -->
<g id="edge5" class="edge">
<title>Node0&#45;&gt;Node5</title>
<path fill="none" stroke="#191970" d="M277.679,-546.9111C366.9488,-538.6574 530.9051,-520.9792 679.5119,-489.9249"/>
<polygon fill="#191970" stroke="#191970" points="680.6711,-493.2572 689.7301,-487.7631 679.2222,-486.4088 680.6711,-493.2572"/>
</g>
<!-- Node6 -->
<g id="node7" class="node">
<title>Node6</title>
<polygon fill="none" stroke="#bfbfbf" points="238,-134.5 238,-153.5 285,-153.5 285,-134.5 238,-134.5"/>
<text text-anchor="middle" x="261.5" y="-141.5" font-family="Helvetica,sans-Serif" font-size="10.00" fill="#000000">cmath</text>
</g>
<!-- Node0&#45;&gt;Node6 -->
<g id="edge6" class="edge">
<title>Node0&#45;&gt;Node6</title>
<path fill="none" stroke="#191970" d="M194.5723,-526.0904C180.0669,-500.8918 161.5,-461.3438 161.5,-424 161.5,-424 161.5,-424 161.5,-256 161.5,-212.0606 204.8553,-177.4269 234.4715,-158.8942"/>
<polygon fill="#191970" stroke="#191970" points="236.3945,-161.8219 243.1585,-153.6672 232.7855,-155.824 236.3945,-161.8219"/>
</g>
<!-- Node7 -->
<g id="node8" class="node">
<title>Node7</title>
<g id="a_node8"><a xlink:href="../../d5/d1d/TPC_2base_2include_2TPCBase_2Mapper_8h.html" target="_top" xlink:title="TPCBase/Mapper.h">
<polygon fill="none" stroke="#000000" points="490,-470.5 490,-489.5 597,-489.5 597,-470.5 490,-470.5"/>
<text text-anchor="middle" x="543.5" y="-477.5" font-family="Helvetica,sans-Serif" font-size="10.00" fill="#000000">TPCBase/Mapper.h</text>
</a>
</g>
</g>
<!-- Node0&#45;&gt;Node7 -->
<g id="edge7" class="edge">
<title>Node0&#45;&gt;Node7</title>
<path fill="none" stroke="#191970" d="M277.8872,-538.0028C340.1881,-524.3979 432.1943,-504.3062 489.9421,-491.6956"/>
<polygon fill="#191970" stroke="#191970" points="490.9365,-495.061 499.9596,-489.5081 489.4431,-488.2222 490.9365,-495.061"/>
</g>
<!-- Node7&#45;&gt;Node3 -->
<g id="edge11" class="edge">
<title>Node7&#45;&gt;Node3</title>
<path fill="none" stroke="#191970" d="M489.9512,-473.5915C430.3958,-466.0212 331.5053,-452.13 247.5,-434 246.2517,-433.7306 244.9825,-433.4435 243.7029,-433.143"/>
<polygon fill="#191970" stroke="#191970" points="244.4215,-429.7145 233.8679,-430.6488 242.7007,-436.4997 244.4215,-429.7145"/>
</g>
<!-- Node7&#45;&gt;Node6 -->
<g id="edge12" class="edge">
<title>Node7&#45;&gt;Node6</title>
<path fill="none" stroke="#191970" d="M489.979,-472.7968C433.7731,-464.5531 349.7019,-450.0967 321.5,-434 287.0706,-414.3488 261.5,-407.6428 261.5,-368 261.5,-368 261.5,-368 261.5,-256 261.5,-223.7116 261.5,-186.1872 261.5,-163.8048"/>
<polygon fill="#191970" stroke="#191970" points="265.0001,-163.5883 261.5,-153.5884 258.0001,-163.5884 265.0001,-163.5883"/>
</g>
<!-- Node8 -->
<g id="node9" class="node">
<title>Node8</title>
<polygon fill="none" stroke="#bfbfbf" points="571.5,-414.5 571.5,-433.5 609.5,-433.5 609.5,-414.5 571.5,-414.5"/>
<text text-anchor="middle" x="590.5" y="-421.5" font-family="Helvetica,sans-Serif" font-size="10.00" fill="#000000">map</text>
</g>
<!-- Node7&#45;&gt;Node8 -->
<g id="edge8" class="edge">
<title>Node7&#45;&gt;Node8</title>
<path fill="none" stroke="#191970" d="M551.6868,-470.2455C558.3589,-462.2958 567.9479,-450.8706 575.9253,-441.3656"/>
<polygon fill="#191970" stroke="#191970" points="578.6592,-443.5525 582.407,-433.6427 573.2974,-439.0524 578.6592,-443.5525"/>
</g>
<!-- Node9 -->
<g id="node10" class="node">
<title>Node9</title>
<polygon fill="none" stroke="#bfbfbf" points="952,-358.5 952,-377.5 999,-377.5 999,-358.5 952,-358.5"/>
<text text-anchor="middle" x="975.5" y="-365.5" font-family="Helvetica,sans-Serif" font-size="10.00" fill="#000000">vector</text>
</g>
<!-- Node7&#45;&gt;Node9 -->
<g id="edge9" class="edge">
<title>Node7&#45;&gt;Node9</title>
<path fill="none" stroke="#191970" d="M597.0834,-471.2595C600.2667,-470.8134 603.4237,-470.3895 606.5,-470 648.5754,-464.673 957.9599,-465.3717 986.5,-434 997.9325,-421.4332 992.7124,-401.6845 986.1353,-387.0612"/>
<polygon fill="#191970" stroke="#191970" points="989.1593,-385.2829 981.5532,-377.9074 982.8997,-388.4164 989.1593,-385.2829"/>
</g>
<!-- Node10 -->
<g id="node11" class="node">
<title>Node10</title>
<polygon fill="none" stroke="#bfbfbf" points="627.5,-414.5 627.5,-433.5 669.5,-433.5 669.5,-414.5 627.5,-414.5"/>
<text text-anchor="middle" x="648.5" y="-421.5" font-family="Helvetica,sans-Serif" font-size="10.00" fill="#000000">array</text>
</g>
<!-- Node7&#45;&gt;Node10 -->
<g id="edge10" class="edge">
<title>Node7&#45;&gt;Node10</title>
<path fill="none" stroke="#191970" d="M561.7896,-470.2455C578.2762,-461.4527 602.7352,-448.4079 621.4765,-438.4125"/>
<polygon fill="#191970" stroke="#191970" points="623.2435,-441.4368 630.42,-433.6427 619.9494,-435.2604 623.2435,-441.4368"/>
</g>
<!-- Node11 -->
<g id="node12" class="node">
<title>Node11</title>
<g id="a_node12"><a xlink:href="../../d1/d73/Defs_8h.html" target="_top" xlink:title="Common definitions for 2D coordinates. ">
<polygon fill="none" stroke="#000000" points="684,-190.5 684,-209.5 817,-209.5 817,-190.5 684,-190.5"/>
<text text-anchor="middle" x="750.5" y="-197.5" font-family="Helvetica,sans-Serif" font-size="10.00" fill="#000000">DataFormatsTPC/Defs.h</text>
</a>
</g>
</g>
<!-- Node7&#45;&gt;Node11 -->
<g id="edge13" class="edge">
<title>Node7&#45;&gt;Node11</title>
<path fill="none" stroke="#191970" d="M597.0816,-471.2448C600.2653,-470.8024 603.4229,-470.3833 606.5,-470 694.4049,-459.0503 928.3612,-480.9182 1003.5,-434 1032.594,-415.8331 1043.5,-402.3001 1043.5,-368 1043.5,-368 1043.5,-368 1043.5,-312 1043.5,-263.6106 902.3018,-228.4311 815.9433,-211.4401"/>
<polygon fill="#191970" stroke="#191970" points="816.4383,-207.971 805.9555,-209.5077 815.1086,-214.8436 816.4383,-207.971"/>
</g>
<!-- Node13 -->
<g id="node14" class="node">
<title>Node13</title>
<g id="a_node14"><a xlink:href="../../d2/dd0/Cartesian2D_8h.html" target="_top" xlink:title="MathUtils/Cartesian2D.h">
<polygon fill="none" stroke="#000000" points="551,-73 551,-92 686,-92 686,-73 551,-73"/>
<text text-anchor="middle" x="618.5" y="-80" font-family="Helvetica,sans-Serif" font-size="10.00" fill="#000000">MathUtils/Cartesian2D.h</text>
</a>
</g>
</g>
<!-- Node7&#45;&gt;Node13 -->
<g id="edge57" class="edge">
<title>Node7&#45;&gt;Node13</title>
<path fill="none" stroke="#191970" d="M597.0791,-471.2246C600.2635,-470.7872 603.4219,-470.3748 606.5,-470 700.1482,-458.5978 946.4479,-478.7476 1029.5,-434 1062.3757,-416.2869 1081.5,-405.3439 1081.5,-368 1081.5,-368 1081.5,-368 1081.5,-200 1081.5,-179.3051 799.9301,-119.4307 675.9463,-94.0693"/>
<polygon fill="#191970" stroke="#191970" points="676.3712,-90.5839 665.8733,-92.0138 674.9716,-97.4426 676.3712,-90.5839"/>
</g>
<!-- Node16 -->
<g id="node17" class="node">
<title>Node16</title>
<g id="a_node17"><a xlink:href="../../dd/d76/Cartesian3D_8h.html" target="_top" xlink:title="MathUtils/Cartesian3D.h">
<polygon fill="none" stroke="#000000" points="1110,-134.5 1110,-153.5 1245,-153.5 1245,-134.5 1110,-134.5"/>
<text text-anchor="middle" x="1177.5" y="-141.5" font-family="Helvetica,sans-Serif" font-size="10.00" fill="#000000">MathUtils/Cartesian3D.h</text>
</a>
</g>
</g>
<!-- Node7&#45;&gt;Node16 -->
<g id="edge58" class="edge">
<title>Node7&#45;&gt;Node16</title>
<path fill="none" stroke="#191970" d="M597.0741,-471.1827C600.2597,-470.7559 603.4198,-470.3572 606.5,-470 714.7354,-457.4482 999.0467,-484.6874 1095.5,-434 1128.8022,-416.4993 1148.5,-405.6206 1148.5,-368 1148.5,-368 1148.5,-368 1148.5,-256 1148.5,-222.5134 1160.7995,-185.1413 1169.3785,-163.1469"/>
<polygon fill="#191970" stroke="#191970" points="1172.7072,-164.2517 1173.221,-153.6693 1166.2201,-161.6216 1172.7072,-164.2517"/>
</g>
<!-- Node25 -->
<g id="node26" class="node">
<title>Node25</title>
<g id="a_node26"><a xlink:href="../../de/d41/PadPos_8h.html" target="_top" xlink:title="TPCBase/PadPos.h">
<polygon fill="none" stroke="#000000" points="461.5,-302.5 461.5,-321.5 567.5,-321.5 567.5,-302.5 461.5,-302.5"/>
<text text-anchor="middle" x="514.5" y="-309.5" font-family="Helvetica,sans-Serif" font-size="10.00" fill="#000000">TPCBase/PadPos.h</text>
</a>
</g>
</g>
<!-- Node7&#45;&gt;Node25 -->
<g id="edge29" class="edge">
<title>Node7&#45;&gt;Node25</title>
<path fill="none" stroke="#191970" d="M490.3272,-470.463C452.4073,-462.4538 406.1534,-449.7939 394.5,-434 363.9658,-392.6171 440.5026,-393.7088 459.5,-378 476.284,-364.1214 491.8146,-344.6033 502.0614,-330.394"/>
<polygon fill="#191970" stroke="#191970" points="505.1167,-332.1329 507.992,-321.9356 499.3852,-328.1141 505.1167,-332.1329"/>
</g>
<!-- Node26 -->
<g id="node27" class="node">
<title>Node26</title>
<g id="a_node27"><a xlink:href="../../dd/d0b/PadSecPos_8h.html" target="_top" xlink:title="TPCBase/PadSecPos.h">
<polygon fill="none" stroke="#000000" points="328,-358.5 328,-377.5 451,-377.5 451,-358.5 328,-358.5"/>
<text text-anchor="middle" x="389.5" y="-365.5" font-family="Helvetica,sans-Serif" font-size="10.00" fill="#000000">TPCBase/PadSecPos.h</text>
</a>
</g>
</g>
<!-- Node7&#45;&gt;Node26 -->
<g id="edge30" class="edge">
<title>Node7&#45;&gt;Node26</title>
<path fill="none" stroke="#191970" d="M489.9488,-473.739C442.11,-466.9136 377.2185,-454.1856 361.5,-434 350.1211,-419.3873 361.4294,-399.4643 372.8957,-385.3407"/>
<polygon fill="#191970" stroke="#191970" points="375.5565,-387.6148 379.4949,-377.7791 370.2825,-383.012 375.5565,-387.6148"/>
</g>
<!-- Node27 -->
<g id="node28" class="node">
<title>Node27</title>
<g id="a_node28"><a xlink:href="../../d3/dd6/Sector_8h.html" target="_top" xlink:title="TPCBase/Sector.h">
<polygon fill="none" stroke="#000000" points="504,-246.5 504,-265.5 605,-265.5 605,-246.5 504,-246.5"/>
<text text-anchor="middle" x="554.5" y="-253.5" font-family="Helvetica,sans-Serif" font-size="10.00" fill="#000000">TPCBase/Sector.h</text>
</a>
</g>
</g>
<!-- Node7&#45;&gt;Node27 -->
<g id="edge56" class="edge">
<title>Node7&#45;&gt;Node27</title>
<path fill="none" stroke="#191970" d="M489.7159,-473.0043C410.479,-460.2357 276.086,-427.7692 318.5,-358 355.2468,-297.5532 436.9444,-272.8567 493.8531,-262.8127"/>
<polygon fill="#191970" stroke="#191970" points="494.529,-266.2485 503.8205,-261.1575 493.3822,-259.3431 494.529,-266.2485"/>
</g>
<!-- Node29 -->
<g id="node30" class="node">
<title>Node29</title>
<g id="a_node30"><a xlink:href="../../da/d61/PadROCPos_8h.html" target="_top" xlink:title="TPCBase/PadROCPos.h">
<polygon fill="none" stroke="#000000" points="694,-358.5 694,-377.5 821,-377.5 821,-358.5 694,-358.5"/>
<text text-anchor="middle" x="757.5" y="-365.5" font-family="Helvetica,sans-Serif" font-size="10.00" fill="#000000">TPCBase/PadROCPos.h</text>
</a>
</g>
</g>
<!-- Node7&#45;&gt;Node29 -->
<g id="edge35" class="edge">
<title>Node7&#45;&gt;Node29</title>
<path fill="none" stroke="#191970" d="M543.406,-470.3958C543.8124,-456.0115 546.7864,-428.9673 562.5,-414 572.2603,-404.7032 641.6953,-389.7996 694.9596,-379.4876"/>
<polygon fill="#191970" stroke="#191970" points="695.8752,-382.8759 705.0363,-377.5538 694.5558,-376.0013 695.8752,-382.8759"/>
</g>
<!-- Node31 -->
<g id="node32" class="node">
<title>Node31</title>
<g id="a_node32"><a xlink:href="../../d3/d54/DigitPos_8h.html" target="_top" xlink:title="TPCBase/DigitPos.h">
<polygon fill="none" stroke="#000000" points="403.5,-414.5 403.5,-433.5 515.5,-433.5 515.5,-414.5 403.5,-414.5"/>
<text text-anchor="middle" x="459.5" y="-421.5" font-family="Helvetica,sans-Serif" font-size="10.00" fill="#000000">TPCBase/DigitPos.h</text>
</a>
</g>
</g>
<!-- Node7&#45;&gt;Node31 -->
<g id="edge41" class="edge">
<title>Node7&#45;&gt;Node31</title>
<path fill="none" stroke="#191970" d="M528.8683,-470.2455C516.1006,-461.7337 497.3562,-449.2375 482.5701,-439.3801"/>
<polygon fill="#191970" stroke="#191970" points="484.226,-436.2775 473.964,-433.6427 480.3431,-442.1019 484.226,-436.2775"/>
</g>
<!-- Node33 -->
<g id="node34" class="node">
<title>Node33</title>
<g id="a_node34"><a xlink:href="../../d1/d1f/FECInfo_8h.html" target="_top" xlink:title="TPCBase/FECInfo.h">
<polygon fill="none" stroke="#000000" points="1373.5,-246.5 1373.5,-265.5 1481.5,-265.5 1481.5,-246.5 1373.5,-246.5"/>
<text text-anchor="middle" x="1427.5" y="-253.5" font-family="Helvetica,sans-Serif" font-size="10.00" fill="#000000">TPCBase/FECInfo.h</text>
</a>
</g>
</g>
<!-- Node7&#45;&gt;Node33 -->
<g id="edge49" class="edge">
<title>Node7&#45;&gt;Node33</title>
<path fill="none" stroke="#191970" d="M597.0704,-471.1504C600.257,-470.7317 603.4183,-470.3436 606.5,-470 729.5518,-456.2802 1045.2892,-473.8948 1162.5,-434 1267.5413,-398.2473 1370.3639,-309.5484 1410.1931,-272.5843"/>
<polygon fill="#191970" stroke="#191970" points="1412.6141,-275.1122 1417.5082,-265.7154 1407.8225,-270.0092 1412.6141,-275.1122"/>
</g>
<!-- Node34 -->
<g id="node35" class="node">
<title>Node34</title>
<g id="a_node35"><a xlink:href="../../da/d9d/PadRegionInfo_8h.html" target="_top" xlink:title="TPCBase/PadRegionInfo.h">
<polygon fill="none" stroke="#000000" points="837.5,-414.5 837.5,-433.5 977.5,-433.5 977.5,-414.5 837.5,-414.5"/>
<text text-anchor="middle" x="907.5" y="-421.5" font-family="Helvetica,sans-Serif" font-size="10.00" fill="#000000">TPCBase/PadRegionInfo.h</text>
</a>
</g>
</g>
<!-- Node7&#45;&gt;Node34 -->
<g id="edge51" class="edge">
<title>Node7&#45;&gt;Node34</title>
<path fill="none" stroke="#191970" d="M597.1129,-471.4685C600.2888,-470.9698 603.4361,-470.4773 606.5,-470 684.306,-457.8797 773.4755,-444.2901 834.4419,-435.0446"/>
<polygon fill="#191970" stroke="#191970" points="834.9925,-438.5012 844.3549,-433.5419 833.9432,-431.5802 834.9925,-438.5012"/>
</g>
<!-- Node35 -->
<g id="node36" class="node">
<title>Node35</title>
<g id="a_node36"><a xlink:href="../../d6/d42/PartitionInfo_8h.html" target="_top" xlink:title="TPCBase/PartitionInfo.h">
<polygon fill="none" stroke="#000000" points="688,-414.5 688,-433.5 819,-433.5 819,-414.5 688,-414.5"/>
<text text-anchor="middle" x="753.5" y="-421.5" font-family="Helvetica,sans-Serif" font-size="10.00" fill="#000000">TPCBase/PartitionInfo.h</text>
</a>
</g>
</g>
<!-- Node7&#45;&gt;Node35 -->
<g id="edge55" class="edge">
<title>Node7&#45;&gt;Node35</title>
<path fill="none" stroke="#191970" d="M579.6003,-470.3733C615.1248,-460.9001 669.488,-446.4032 707.9619,-436.1435"/>
<polygon fill="#191970" stroke="#191970" points="709.1103,-439.4596 717.8708,-433.5011 707.3066,-432.696 709.1103,-439.4596"/>
</g>
<!-- Node11&#45;&gt;Node6 -->
<g id="edge14" class="edge">
<title>Node11&#45;&gt;Node6</title>
<path fill="none" stroke="#191970" d="M683.7874,-192.3601C577.8596,-180.2293 375.0154,-156.9997 295.0729,-147.8447"/>
<polygon fill="#191970" stroke="#191970" points="295.4016,-144.3596 285.0682,-146.699 294.6051,-151.3141 295.4016,-144.3596"/>
</g>
<!-- Node12 -->
<g id="node13" class="node">
<title>Node12</title>
<g id="a_node13"><a xlink:href="../../d1/da8/GPUROOTCartesianFwd_8h.html" target="_top" xlink:title="GPUROOTCartesianFwd.h">
<polygon fill="none" stroke="#000000" points="582.5,-134.5 582.5,-153.5 722.5,-153.5 722.5,-134.5 582.5,-134.5"/>
<text text-anchor="middle" x="652.5" y="-141.5" font-family="Helvetica,sans-Serif" font-size="10.00" fill="#000000">GPUROOTCartesianFwd.h</text>
</a>
</g>
</g>
<!-- Node11&#45;&gt;Node12 -->
<g id="edge15" class="edge">
<title>Node11&#45;&gt;Node12</title>
<path fill="none" stroke="#191970" d="M733.4297,-190.2455C718.253,-181.5731 695.8379,-168.7645 678.4437,-158.825"/>
<polygon fill="#191970" stroke="#191970" points="679.7936,-155.5653 669.3747,-153.6427 676.3206,-161.643 679.7936,-155.5653"/>
</g>
<!-- Node11&#45;&gt;Node13 -->
<g id="edge16" class="edge">
<title>Node11&#45;&gt;Node13</title>
<path fill="none" stroke="#191970" d="M750.1771,-190.3002C749.2167,-176.2791 745.5183,-150.2522 731.5,-134 715.4311,-115.3705 691.235,-103.1165 669.35,-95.2557"/>
<polygon fill="#191970" stroke="#191970" points="670.414,-91.921 659.8199,-92.0482 668.181,-98.5553 670.414,-91.921"/>
</g>
<!-- Node11&#45;&gt;Node16 -->
<g id="edge19" class="edge">
<title>Node11&#45;&gt;Node16</title>
<path fill="none" stroke="#191970" d="M817.2188,-191.25C893.6975,-181.22 1018.8799,-164.8026 1099.7188,-154.2008"/>
<polygon fill="#191970" stroke="#191970" points="1100.3806,-157.6441 1109.8406,-152.8734 1099.4703,-150.7035 1100.3806,-157.6441"/>
</g>
<!-- Node14 -->
<g id="node15" class="node">
<title>Node14</title>
<polygon fill="none" stroke="#bfbfbf" points="439.5,-.5 439.5,-30.5 603.5,-30.5 603.5,-.5 439.5,-.5"/>
<text text-anchor="start" x="447.5" y="-18.5" font-family="Helvetica,sans-Serif" font-size="10.00" fill="#000000">Math/GenVector/Displacement</text>
<text text-anchor="middle" x="521.5" y="-7.5" font-family="Helvetica,sans-Serif" font-size="10.00" fill="#000000">Vector2D.h</text>
</g>
<!-- Node13&#45;&gt;Node14 -->
<g id="edge17" class="edge">
<title>Node13&#45;&gt;Node14</title>
<path fill="none" stroke="#191970" d="M604.6023,-72.9005C590.8265,-63.3853 569.2795,-48.5023 551.5779,-36.2755"/>
<polygon fill="#191970" stroke="#191970" points="553.4651,-33.3253 543.2479,-30.5218 549.4868,-39.0849 553.4651,-33.3253"/>
</g>
<!-- Node15 -->
<g id="node16" class="node">
<title>Node15</title>
<polygon fill="none" stroke="#bfbfbf" points="622,-6 622,-25 811,-25 811,-6 622,-6"/>
<text text-anchor="middle" x="716.5" y="-13" font-family="Helvetica,sans-Serif" font-size="10.00" fill="#000000">Math/GenVector/PositionVector2D.h</text>
</g>
<!-- Node13&#45;&gt;Node15 -->
<g id="edge18" class="edge">
<title>Node13&#45;&gt;Node15</title>
<path fill="none" stroke="#191970" d="M632.541,-72.9005C648.6238,-61.9052 675.1906,-43.7422 694.1316,-30.7927"/>
<polygon fill="#191970" stroke="#191970" points="696.2052,-33.6148 702.485,-25.0817 692.2545,-27.8362 696.2052,-33.6148"/>
</g>
<!-- Node16&#45;&gt;Node13 -->
<g id="edge28" class="edge">
<title>Node16&#45;&gt;Node13</title>
<path fill="none" stroke="#191970" d="M1109.9501,-135.5908C1105.062,-135.0349 1100.2064,-134.4986 1095.5,-134 917.9971,-115.1938 872.1437,-123.6503 695.5,-98 687.7195,-96.8702 679.5379,-95.4631 671.5305,-93.9609"/>
<polygon fill="#191970" stroke="#191970" points="672.0077,-90.4883 661.5243,-92.0209 670.6753,-97.3603 672.0077,-90.4883"/>
</g>
<!-- Node17 -->
<g id="node18" class="node">
<title>Node17</title>
<polygon fill="none" stroke="#bfbfbf" points="804.5,-67.5 804.5,-97.5 968.5,-97.5 968.5,-67.5 804.5,-67.5"/>
<text text-anchor="start" x="812.5" y="-85.5" font-family="Helvetica,sans-Serif" font-size="10.00" fill="#000000">Math/GenVector/Displacement</text>
<text text-anchor="middle" x="886.5" y="-74.5" font-family="Helvetica,sans-Serif" font-size="10.00" fill="#000000">Vector3D.h</text>
</g>
<!-- Node16&#45;&gt;Node17 -->
<g id="edge20" class="edge">
<title>Node16&#45;&gt;Node17</title>
<path fill="none" stroke="#191970" d="M1132.3505,-134.4581C1088.4826,-125.187 1020.8862,-110.9012 967.6673,-99.6539"/>
<polygon fill="#191970" stroke="#191970" points="968.0746,-96.1628 957.567,-97.5193 966.6271,-103.0115 968.0746,-96.1628"/>
</g>
<!-- Node18 -->
<g id="node19" class="node">
<title>Node18</title>
<polygon fill="none" stroke="#bfbfbf" points="987,-73 987,-92 1176,-92 1176,-73 987,-73"/>
<text text-anchor="middle" x="1081.5" y="-80" font-family="Helvetica,sans-Serif" font-size="10.00" fill="#000000">Math/GenVector/PositionVector3D.h</text>
</g>
<!-- Node16&#45;&gt;Node18 -->
<g id="edge21" class="edge">
<title>Node16&#45;&gt;Node18</title>
<path fill="none" stroke="#191970" d="M1162.5,-134.3906C1147.1419,-124.5519 1123.0479,-109.1167 1105.1255,-97.6351"/>
<polygon fill="#191970" stroke="#191970" points="1106.703,-94.4891 1096.3947,-92.0419 1102.927,-100.3833 1106.703,-94.4891"/>
</g>
<!-- Node19 -->
<g id="node20" class="node">
<title>Node19</title>
<polygon fill="none" stroke="#bfbfbf" points="1194.5,-73 1194.5,-92 1354.5,-92 1354.5,-73 1194.5,-73"/>
<text text-anchor="middle" x="1274.5" y="-80" font-family="Helvetica,sans-Serif" font-size="10.00" fill="#000000">Math/GenVector/Rotation3D.h</text>
</g>
<!-- Node16&#45;&gt;Node19 -->
<g id="edge22" class="edge">
<title>Node16&#45;&gt;Node19</title>
<path fill="none" stroke="#191970" d="M1192.6563,-134.3906C1208.1743,-124.5519 1232.5193,-109.1167 1250.6284,-97.6351"/>
<polygon fill="#191970" stroke="#191970" points="1252.8787,-100.3526 1259.4502,-92.0419 1249.1304,-94.4407 1252.8787,-100.3526"/>
</g>
<!-- Node20 -->
<g id="node21" class="node">
<title>Node20</title>
<polygon fill="none" stroke="#bfbfbf" points="1372.5,-73 1372.5,-92 1540.5,-92 1540.5,-73 1372.5,-73"/>
<text text-anchor="middle" x="1456.5" y="-80" font-family="Helvetica,sans-Serif" font-size="10.00" fill="#000000">Math/GenVector/Transform3D.h</text>
</g>
<!-- Node16&#45;&gt;Node20 -->
<g id="edge23" class="edge">
<title>Node16&#45;&gt;Node20</title>
<path fill="none" stroke="#191970" d="M1220.7876,-134.4581C1269.9642,-123.6181 1350.2424,-105.9224 1403.223,-94.2439"/>
<polygon fill="#191970" stroke="#191970" points="1404.0987,-97.6349 1413.1108,-92.0643 1402.5918,-90.799 1404.0987,-97.6349"/>
</g>
<!-- Node21 -->
<g id="node22" class="node">
<title>Node21</title>
<polygon fill="none" stroke="#bfbfbf" points="1559,-73 1559,-92 1732,-92 1732,-73 1559,-73"/>
<text text-anchor="middle" x="1645.5" y="-80" font-family="Helvetica,sans-Serif" font-size="10.00" fill="#000000">Math/GenVector/Translation3D.h</text>
</g>
<!-- Node16&#45;&gt;Node21 -->
<g id="edge24" class="edge">
<title>Node16&#45;&gt;Node21</title>
<path fill="none" stroke="#191970" d="M1245.1416,-136.3984C1319.7659,-127.8344 1443.3609,-113.1256 1549.5,-98 1558.9275,-96.6565 1568.8613,-95.1526 1578.6204,-93.6241"/>
<polygon fill="#191970" stroke="#191970" points="1579.3693,-97.0492 1588.6987,-92.0281 1578.2743,-90.1353 1579.3693,-97.0492"/>
</g>
<!-- Node22 -->
<g id="node23" class="node">
<title>Node22</title>
<polygon fill="none" stroke="#bfbfbf" points="1750,-73 1750,-92 1809,-92 1809,-73 1750,-73"/>
<text text-anchor="middle" x="1779.5" y="-80" font-family="Helvetica,sans-Serif" font-size="10.00" fill="#000000">Rtypes.h</text>
</g>
<!-- Node16&#45;&gt;Node22 -->
<g id="edge25" class="edge">
<title>Node16&#45;&gt;Node22</title>
<path fill="none" stroke="#191970" d="M1245.405,-141.0598C1374.1315,-135.0573 1649.0489,-120.0702 1741.5,-98 1744.2937,-97.3331 1747.1499,-96.4918 1749.9795,-95.5477"/>
<polygon fill="#191970" stroke="#191970" points="1751.2226,-98.8197 1759.3687,-92.0453 1748.7761,-92.2611 1751.2226,-98.8197"/>
</g>
<!-- Node23 -->
<g id="node24" class="node">
<title>Node23</title>
<polygon fill="none" stroke="#bfbfbf" points="704.5,-73 704.5,-92 786.5,-92 786.5,-73 704.5,-73"/>
<text text-anchor="middle" x="745.5" y="-80" font-family="Helvetica,sans-Serif" font-size="10.00" fill="#000000">TGeoMatrix.h</text>
</g>
<!-- Node16&#45;&gt;Node23 -->
<g id="edge26" class="edge">
<title>Node16&#45;&gt;Node23</title>
<path fill="none" stroke="#191970" d="M1109.9321,-135.7496C1105.0482,-135.1564 1100.1985,-134.5684 1095.5,-134 962.1821,-117.8718 926.8392,-125.9963 795.5,-98 791.3502,-97.1154 787.0511,-96.038 782.795,-94.8674"/>
<polygon fill="#191970" stroke="#191970" points="783.6135,-91.4603 773.0331,-92.0141 781.6496,-98.1791 783.6135,-91.4603"/>
</g>
<!-- Node24 -->
<g id="node25" class="node">
<title>Node24</title>
<polygon fill="none" stroke="#bfbfbf" points="1827,-73 1827,-92 1876,-92 1876,-73 1827,-73"/>
<text text-anchor="middle" x="1851.5" y="-80" font-family="Helvetica,sans-Serif" font-size="10.00" fill="#000000">iosfwd</text>
</g>
<!-- Node16&#45;&gt;Node24 -->
<g id="edge27" class="edge">
<title>Node16&#45;&gt;Node24</title>
<path fill="none" stroke="#191970" d="M1245.1108,-142.2752C1387.0337,-138.1451 1711.6945,-125.8844 1818.5,-98 1820.4751,-97.4843 1822.4763,-96.8526 1824.4657,-96.1423"/>
<polygon fill="#191970" stroke="#191970" points="1826.2559,-99.1879 1834.1382,-92.1084 1823.5615,-92.7272 1826.2559,-99.1879"/>
</g>
<!-- Node26&#45;&gt;Node25 -->
<g id="edge34" class="edge">
<title>Node26&#45;&gt;Node25</title>
<path fill="none" stroke="#191970" d="M410.9883,-358.3733C431.144,-349.3435 461.488,-335.7494 484.118,-325.6111"/>
<polygon fill="#191970" stroke="#191970" points="485.5971,-328.7838 493.2921,-321.5011 482.7351,-322.3955 485.5971,-328.7838"/>
</g>
<!-- Node26&#45;&gt;Node27 -->
<g id="edge31" class="edge">
<title>Node26&#45;&gt;Node27</title>
<path fill="none" stroke="#191970" d="M396.7081,-358.3599C407.5375,-344.4131 429.2305,-318.4778 452.5,-302 471.9825,-288.2039 496.265,-277.053 516.2496,-269.1868"/>
<polygon fill="#191970" stroke="#191970" points="517.5789,-272.4258 525.6751,-265.5919 515.0844,-265.8854 517.5789,-272.4258"/>
</g>
<!-- Node27&#45;&gt;Node11 -->
<g id="edge33" class="edge">
<title>Node27&#45;&gt;Node11</title>
<path fill="none" stroke="#191970" d="M588.1936,-246.3733C621.2087,-236.9404 671.6573,-222.5265 707.5386,-212.2747"/>
<polygon fill="#191970" stroke="#191970" points="708.5924,-215.6137 717.2461,-209.5011 706.6693,-208.8831 708.5924,-215.6137"/>
</g>
<!-- Node28 -->
<g id="node29" class="node">
<title>Node28</title>
<g id="a_node29"><a xlink:href="../../d0/dda/DataFormats_2Detectors_2TPC_2include_2DataFormatsTPC_2Constants_8h.html" target="_top" xlink:title="DataFormatsTPC/Constants.h">
<polygon fill="none" stroke="#000000" points="475,-190.5 475,-209.5 634,-209.5 634,-190.5 475,-190.5"/>
<text text-anchor="middle" x="554.5" y="-197.5" font-family="Helvetica,sans-Serif" font-size="10.00" fill="#000000">DataFormatsTPC/Constants.h</text>
</a>
</g>
</g>
<!-- Node27&#45;&gt;Node28 -->
<g id="edge32" class="edge">
<title>Node27&#45;&gt;Node28</title>
<path fill="none" stroke="#191970" d="M554.5,-246.2455C554.5,-238.9382 554.5,-228.6944 554.5,-219.7046"/>
<polygon fill="#191970" stroke="#191970" points="558.0001,-219.6426 554.5,-209.6427 551.0001,-219.6427 558.0001,-219.6426"/>
</g>
<!-- Node29&#45;&gt;Node11 -->
<g id="edge36" class="edge">
<title>Node29&#45;&gt;Node11</title>
<path fill="none" stroke="#191970" d="M758.8824,-358.1547C760.1136,-348.8576 761.8219,-334.5134 762.5,-322 764.4585,-285.8582 758.5189,-243.8945 754.3107,-219.7944"/>
<polygon fill="#191970" stroke="#191970" points="757.7217,-218.9895 752.4799,-209.7823 750.8359,-220.2488 757.7217,-218.9895"/>
</g>
<!-- Node29&#45;&gt;Node25 -->
<g id="edge40" class="edge">
<title>Node29&#45;&gt;Node25</title>
<path fill="none" stroke="#191970" d="M716.0029,-358.4369C674.4153,-348.8529 610.3166,-334.0812 565.6169,-323.78"/>
<polygon fill="#191970" stroke="#191970" points="566.3565,-320.3588 555.8259,-321.5237 564.7845,-327.18 566.3565,-320.3588"/>
</g>
<!-- Node30 -->
<g id="node31" class="node">
<title>Node30</title>
<g id="a_node31"><a xlink:href="../../dc/d14/ROC_8h.html" target="_top" xlink:title="TPCBase/ROC.h">
<polygon fill="none" stroke="#000000" points="661.5,-302.5 661.5,-321.5 753.5,-321.5 753.5,-302.5 661.5,-302.5"/>
<text text-anchor="middle" x="707.5" y="-309.5" font-family="Helvetica,sans-Serif" font-size="10.00" fill="#000000">TPCBase/ROC.h</text>
</a>
</g>
</g>
<!-- Node29&#45;&gt;Node30 -->
<g id="edge37" class="edge">
<title>Node29&#45;&gt;Node30</title>
<path fill="none" stroke="#191970" d="M748.7907,-358.2455C741.6927,-350.2958 731.4916,-338.8706 723.005,-329.3656"/>
<polygon fill="#191970" stroke="#191970" points="725.3805,-326.771 716.1095,-321.6427 720.1589,-331.4331 725.3805,-326.771"/>
</g>
<!-- Node30&#45;&gt;Node11 -->
<g id="edge38" class="edge">
<title>Node30&#45;&gt;Node11</title>
<path fill="none" stroke="#191970" d="M711.1662,-302.4509C718.2428,-284.0186 733.9045,-243.2254 743.1888,-219.043"/>
<polygon fill="#191970" stroke="#191970" points="746.5263,-220.115 746.8431,-209.5249 739.9914,-217.606 746.5263,-220.115"/>
</g>
<!-- Node30&#45;&gt;Node27 -->
<g id="edge39" class="edge">
<title>Node30&#45;&gt;Node27</title>
<path fill="none" stroke="#191970" d="M681.1984,-302.3733C656.0872,-293.1822 618.0562,-279.2624 590.2128,-269.0713"/>
<polygon fill="#191970" stroke="#191970" points="591.0522,-265.6516 580.4584,-265.5011 588.6462,-272.2251 591.0522,-265.6516"/>
</g>
<!-- Node31&#45;&gt;Node11 -->
<g id="edge42" class="edge">
<title>Node31&#45;&gt;Node11</title>
<path fill="none" stroke="#191970" d="M515.7013,-417.9934C618.159,-406.9128 825.3293,-383.8514 830.5,-378 874.509,-328.1974 804.0997,-250.2038 768.7814,-216.465"/>
<polygon fill="#191970" stroke="#191970" points="771.1312,-213.8705 761.4348,-209.6008 766.3521,-218.9854 771.1312,-213.8705"/>
</g>
<!-- Node31&#45;&gt;Node25 -->
<g id="edge47" class="edge">
<title>Node31&#45;&gt;Node25</title>
<path fill="none" stroke="#191970" d="M468.0781,-414.3977C475.6521,-405.4992 486.5427,-391.6193 493.5,-378 501.0214,-363.2764 506.5214,-345.329 510.0016,-331.8685"/>
<polygon fill="#191970" stroke="#191970" points="513.4912,-332.3298 512.4499,-321.7863 506.6889,-330.6779 513.4912,-332.3298"/>
</g>
<!-- Node31&#45;&gt;Node26 -->
<g id="edge48" class="edge">
<title>Node31&#45;&gt;Node26</title>
<path fill="none" stroke="#191970" d="M447.3069,-414.2455C436.8679,-405.8943 421.6345,-393.7076 409.426,-383.9408"/>
<polygon fill="#191970" stroke="#191970" points="411.5485,-381.1566 401.5533,-377.6427 407.1756,-386.6227 411.5485,-381.1566"/>
</g>
<!-- Node32 -->
<g id="node33" class="node">
<title>Node32</title>
<g id="a_node33"><a xlink:href="../../df/d26/CRU_8h.html" target="_top" xlink:title="TPCBase/CRU.h">
<polygon fill="none" stroke="#000000" points="583.5,-358.5 583.5,-377.5 675.5,-377.5 675.5,-358.5 583.5,-358.5"/>
<text text-anchor="middle" x="629.5" y="-365.5" font-family="Helvetica,sans-Serif" font-size="10.00" fill="#000000">TPCBase/CRU.h</text>
</a>
</g>
</g>
<!-- Node31&#45;&gt;Node32 -->
<g id="edge43" class="edge">
<title>Node31&#45;&gt;Node32</title>
<path fill="none" stroke="#191970" d="M488.724,-414.3733C516.9925,-405.0613 559.9965,-390.8953 591.0344,-380.671"/>
<polygon fill="#191970" stroke="#191970" points="592.2544,-383.9542 600.6573,-377.5011 590.0643,-377.3056 592.2544,-383.9542"/>
</g>
<!-- Node32&#45;&gt;Node11 -->
<g id="edge44" class="edge">
<title>Node32&#45;&gt;Node11</title>
<path fill="none" stroke="#191970" d="M631.4584,-358.4795C634.4969,-345.1266 641.2039,-320.4094 652.5,-302 673.7964,-267.293 708.6196,-234.7536 730.5118,-216.1349"/>
<polygon fill="#191970" stroke="#191970" points="732.7802,-218.8005 738.2139,-209.7051 728.2942,-213.4268 732.7802,-218.8005"/>
</g>
<!-- Node32&#45;&gt;Node27 -->
<g id="edge45" class="edge">
<title>Node32&#45;&gt;Node27</title>
<path fill="none" stroke="#191970" d="M623.1055,-358.4509C610.5964,-339.7707 582.7079,-298.1238 566.6046,-274.0761"/>
<polygon fill="#191970" stroke="#191970" points="569.3506,-271.8865 560.8783,-265.5249 563.5342,-275.7814 569.3506,-271.8865"/>
</g>
<!-- Node32&#45;&gt;Node30 -->
<g id="edge46" class="edge">
<title>Node32&#45;&gt;Node30</title>
<path fill="none" stroke="#191970" d="M643.0866,-358.2455C654.8305,-349.814 672.0199,-337.4729 685.6882,-327.6598"/>
<polygon fill="#191970" stroke="#191970" points="687.9871,-330.3179 694.0691,-321.6427 683.9046,-324.6316 687.9871,-330.3179"/>
</g>
<!-- Node33&#45;&gt;Node24 -->
<g id="edge50" class="edge">
<title>Node33&#45;&gt;Node24</title>
<path fill="none" stroke="#191970" d="M1452.4002,-246.4871C1514.6014,-222.6052 1681.6144,-157.7506 1818.5,-98 1819.8415,-97.4144 1821.2099,-96.8082 1822.5894,-96.1898"/>
<polygon fill="#191970" stroke="#191970" points="1824.0534,-99.3689 1831.6872,-92.0221 1821.1381,-93.0049 1824.0534,-99.3689"/>
</g>
<!-- Node34&#45;&gt;Node9 -->
<g id="edge52" class="edge">
<title>Node34&#45;&gt;Node9</title>
<path fill="none" stroke="#191970" d="M919.3447,-414.2455C929.388,-405.9746 943.9995,-393.9416 955.8004,-384.2232"/>
<polygon fill="#191970" stroke="#191970" points="958.2967,-386.7015 963.791,-377.6427 953.8467,-381.298 958.2967,-386.7015"/>
</g>
<!-- Node34&#45;&gt;Node11 -->
<g id="edge53" class="edge">
<title>Node34&#45;&gt;Node11</title>
<path fill="none" stroke="#191970" d="M907.9732,-414.142C908.8414,-384.7791 907.4482,-296.7939 863.5,-246 849.747,-230.1048 829.6769,-219.6206 810.2536,-212.741"/>
<polygon fill="#191970" stroke="#191970" points="811.0904,-209.3324 800.4979,-209.554 808.9167,-215.9863 811.0904,-209.3324"/>
</g>
<!-- Node34&#45;&gt;Node25 -->
<g id="edge54" class="edge">
<title>Node34&#45;&gt;Node25</title>
<path fill="none" stroke="#191970" d="M837.2136,-414.8975C741.2291,-402.3808 580.2839,-381.0489 574.5,-378 553.6266,-366.9967 536.3447,-345.7095 525.7739,-330.279"/>
<polygon fill="#191970" stroke="#191970" points="528.486,-328.0308 520.0872,-321.5724 522.6253,-331.8587 528.486,-328.0308"/>
</g>
</g>
</svg>
        <g id="navigator" transform="translate(0 0)" fill="#404254">
                <rect fill="#f2f5e9" fill-opacity="0.5" stroke="#606060" stroke-width=".5" x="0" y="0" width="60" height="60"/>
                <use id="zoomplus" xlink:href="#zoomPlus" x="17" y="9" onmousedown="handleZoom(evt,'in')"/>
                <use id="zoomminus" xlink:href="#zoomMin" x="42" y="9" onmousedown="handleZoom(evt,'out')"/>
                <use id="reset" xlink:href="#resetDef" x="30" y="36" onmousedown="handleReset()"/>
                <g id="arrowUp" xlink:href="#dirArrow" transform="translate(30 24)" onmousedown="handlePan(0,-1)">
                  <use xlink:href="#rim" fill="#404040">
                        <set attributeName="fill" to="#808080" begin="arrowUp.mouseover" end="arrowUp.mouseout"/>
                  </use>
                  <path fill="none" stroke="white" stroke-width="1.5" d="M0,-3.0v7 M-2.5,-0.5L0,-3.0L2.5,-0.5"/>
                </g>
                <g id="arrowRight" xlink:href="#dirArrow" transform="rotate(90) translate(36 -43)" onmousedown="handlePan(1,0)">
                  <use xlink:href="#rim" fill="#404040">
                        <set attributeName="fill" to="#808080" begin="arrowRight.mouseover" end="arrowRight.mouseout"/>
                  </use>
                  <path fill="none" stroke="white" stroke-width="1.5" d="M0,-3.0v7 M-2.5,-0.5L0,-3.0L2.5,-0.5"/>
                </g>
                <g id="arrowDown" xlink:href="#dirArrow" transform="rotate(180) translate(-30 -48)" onmousedown="handlePan(0,1)">
                  <use xlink:href="#rim" fill="#404040">
                        <set attributeName="fill" to="#808080" begin="arrowDown.mouseover" end="arrowDown.mouseout"/>
                  </use>
                  <path fill="none" stroke="white" stroke-width="1.5" d="M0,-3.0v7 M-2.5,-0.5L0,-3.0L2.5,-0.5"/>
                </g>
                <g id="arrowLeft" xlink:href="#dirArrow" transform="rotate(270) translate(-36 17)" onmousedown="handlePan(-1,0)">
                  <use xlink:href="#rim" fill="#404040">
                        <set attributeName="fill" to="#808080" begin="arrowLeft.mouseover" end="arrowLeft.mouseout"/>
                  </use>
                  <path fill="none" stroke="white" stroke-width="1.5" d="M0,-3.0v7 M-2.5,-0.5L0,-3.0L2.5,-0.5"/>
                </g>
        </g>
        <svg viewBox="0 0 15 15" width="100%" height="30px" preserveAspectRatio="xMaxYMin meet">
         <g id="arrow_out" transform="scale(0.3 0.3)">
          <a xlink:href="TPC_2base_2src_2Mapper_8cxx__incl_org.svg" target="_base">
           <rect id="button" ry="5" rx="5" y="6" x="6" height="38" width="38"
                fill="#f2f5e9" fill-opacity="0.5" stroke="#606060" stroke-width="1.0"/>
           <path id="arrow"
             d="M 11.500037,31.436501 C 11.940474,20.09759 22.043105,11.32322 32.158766,21.979434 L 37.068811,17.246167 C 37.068811,17.246167 37.088388,32 37.088388,32 L 22.160133,31.978069 C 22.160133,31.978069 26.997745,27.140456 26.997745,27.140456 C 18.528582,18.264221 13.291696,25.230495 11.500037,31.436501 z"
             style="fill:#404040;"/>
          </a>
         </g>
        </svg>
</svg>
