<?xml version="1.0" encoding="UTF-8" standalone="no"?>
<!DOCTYPE svg PUBLIC "-//W3C//DTD SVG 1.1//EN"
 "http://www.w3.org/Graphics/SVG/1.1/DTD/svg11.dtd">
<!-- Generated by graphviz version 2.40.1 (20161225.0304)
 -->
<!-- Title: /home/travis/build/AliceO2Group/AliceO2/Detectors/HMPID/simulation/include/HMPIDSimulation/Detector.h Pages: 1 -->
<!--zoomable 374 -->
<svg id="main" version="1.1" xmlns="http://www.w3.org/2000/svg" xmlns:xlink="http://www.w3.org/1999/xlink" xml:space="preserve" onload="init(evt)">
<style type="text/css"><![CDATA[
.edge:hover path { stroke: red; }
.edge:hover polygon { stroke: red; fill: red; }
]]></style>
<script type="text/javascript"><![CDATA[
var edges = document.getElementsByTagName('g');
if (edges && edges.length) {
  for (var i=0;i<edges.length;i++) {
    if (edges[i].id.substr(0,4)=='edge') {
      edges[i].setAttribute('class','edge');
    }
  }
}
]]></script>
        <defs>
                <circle id="rim" cx="0" cy="0" r="7"/>
                <circle id="rim2" cx="0" cy="0" r="3.5"/>
                <g id="zoomPlus">
                        <use xlink:href="#rim" fill="#404040">
                                <set attributeName="fill" to="#808080" begin="zoomplus.mouseover" end="zoomplus.mouseout"/>
                        </use>
                        <path d="M-4,0h8M0,-4v8" fill="none" stroke="white" stroke-width="1.5" pointer-events="none"/>
                </g>
                <g id="zoomMin">
                        <use xlink:href="#rim" fill="#404040">
                                <set attributeName="fill" to="#808080" begin="zoomminus.mouseover" end="zoomminus.mouseout"/>
                        </use>
                        <path d="M-4,0h8" fill="none" stroke="white" stroke-width="1.5" pointer-events="none"/>
                </g>
                <g id="dirArrow">
                        <path fill="none" stroke="white" stroke-width="1.5" d="M0,-3.0v7 M-2.5,-0.5L0,-3.0L2.5,-0.5"/>
                </g>
               <g id="resetDef">
                       <use xlink:href="#rim2" fill="#404040">
                               <set attributeName="fill" to="#808080" begin="reset.mouseover" end="reset.mouseout"/>
                       </use>
               </g>
        </defs>

<script type="text/javascript">
var viewWidth = 2207;
var viewHeight = 374;
var sectionId = 'dynsection-0';
</script>
<script xlink:href="../../svgpan.js"/>
<svg id="graph" class="graph">
<g id="viewport">
<title>/home/travis/build/AliceO2Group/AliceO2/Detectors/HMPID/simulation/include/HMPIDSimulation/Detector.h</title>
<!-- Node0 -->
<g id="node1" class="node">
<title>Node0</title>
<polygon fill="#bfbfbf" stroke="#000000" points="834,-313.5 834,-365.5 1030,-365.5 1030,-313.5 834,-313.5"/>
<text text-anchor="start" x="842" y="-353.5" font-family="Helvetica,sans-Serif" font-size="10.00" fill="#000000">/home/travis/build</text>
<text text-anchor="start" x="842" y="-342.5" font-family="Helvetica,sans-Serif" font-size="10.00" fill="#000000">/AliceO2Group/AliceO2</text>
<text text-anchor="start" x="842" y="-331.5" font-family="Helvetica,sans-Serif" font-size="10.00" fill="#000000">/Detectors/HMPID/simulation</text>
<text text-anchor="middle" x="932" y="-320.5" font-family="Helvetica,sans-Serif" font-size="10.00" fill="#000000">/include/HMPIDSimulation/Detector.h</text>
</g>
<!-- Node1 -->
<g id="node2" class="node">
<title>Node1</title>
<polygon fill="none" stroke="#bfbfbf" points="908.5,-196 908.5,-215 955.5,-215 955.5,-196 908.5,-196"/>
<text text-anchor="middle" x="932" y="-203" font-family="Helvetica,sans-Serif" font-size="10.00" fill="#000000">vector</text>
</g>
<!-- Node0&#45;&gt;Node1 -->
<g id="edge1" class="edge">
<title>Node0&#45;&gt;Node1</title>
<path fill="none" stroke="#191970" d="M932,-313.3453C932,-287.5564 932,-248.7118 932,-225.3578"/>
<polygon fill="#191970" stroke="#191970" points="935.5001,-225.2626 932,-215.2626 928.5001,-225.2627 935.5001,-225.2626"/>
</g>
<!-- Node2 -->
<g id="node3" class="node">
<title>Node2</title>
<g id="a_node3"><a xlink:href="../../d1/d3a/Base_2include_2DetectorsBase_2Detector_8h.html" target="_top" xlink:title="DetectorsBase/Detector.h">
<polygon fill="none" stroke="#000000" points="1403.5,-257.5 1403.5,-276.5 1544.5,-276.5 1544.5,-257.5 1403.5,-257.5"/>
<text text-anchor="middle" x="1474" y="-264.5" font-family="Helvetica,sans-Serif" font-size="10.00" fill="#000000">DetectorsBase/Detector.h</text>
</a>
</g>
</g>
<!-- Node0&#45;&gt;Node2 -->
<g id="edge2" class="edge">
<title>Node0&#45;&gt;Node2</title>
<path fill="none" stroke="#191970" d="M1030.1521,-326.3708C1134.1568,-312.4587 1296.4557,-290.749 1393.2976,-277.7951"/>
<polygon fill="#191970" stroke="#191970" points="1393.88,-281.2484 1403.3276,-276.4534 1392.9519,-274.3102 1393.88,-281.2484"/>
</g>
<!-- Node27 -->
<g id="node28" class="node">
<title>Node27</title>
<g id="a_node28"><a xlink:href="../../d5/deb/Detectors_2HMPID_2base_2include_2HMPIDBase_2Hit_8h.html" target="_top" xlink:title="HMPIDBase/Hit.h">
<polygon fill="none" stroke="#000000" points="760.5,-257.5 760.5,-276.5 859.5,-276.5 859.5,-257.5 760.5,-257.5"/>
<text text-anchor="middle" x="810" y="-264.5" font-family="Helvetica,sans-Serif" font-size="10.00" fill="#000000">HMPIDBase/Hit.h</text>
</a>
</g>
</g>
<!-- Node0&#45;&gt;Node27 -->
<g id="edge33" class="edge">
<title>Node0&#45;&gt;Node27</title>
<path fill="none" stroke="#191970" d="M887.9552,-313.3258C870.0943,-302.7118 850.1267,-290.8458 834.8718,-281.7804"/>
<polygon fill="#191970" stroke="#191970" points="836.4281,-278.6339 826.0434,-276.534 832.852,-284.6515 836.4281,-278.6339"/>
</g>
<!-- Node2&#45;&gt;Node1 -->
<g id="edge4" class="edge">
<title>Node2&#45;&gt;Node1</title>
<path fill="none" stroke="#191970" d="M1403.1945,-263.1286C1284.4387,-256.2018 1050.2412,-240.5646 970,-221 967.2095,-220.3196 964.3556,-219.4692 961.5274,-218.5191"/>
<polygon fill="#191970" stroke="#191970" points="962.7329,-215.2332 952.1404,-215.0073 960.2801,-221.7894 962.7329,-215.2332"/>
</g>
<!-- Node3 -->
<g id="node4" class="node">
<title>Node3</title>
<polygon fill="none" stroke="#bfbfbf" points="1945,-134.5 1945,-153.5 1983,-153.5 1983,-134.5 1945,-134.5"/>
<text text-anchor="middle" x="1964" y="-141.5" font-family="Helvetica,sans-Serif" font-size="10.00" fill="#000000">map</text>
</g>
<!-- Node2&#45;&gt;Node3 -->
<g id="edge3" class="edge">
<title>Node2&#45;&gt;Node3</title>
<path fill="none" stroke="#191970" d="M1544.5704,-265.0168C1670.8859,-260.7791 1925.188,-248.8597 1954,-221 1969.0163,-206.4801 1969.518,-181.327 1967.5745,-163.7327"/>
<polygon fill="#191970" stroke="#191970" points="1971.016,-163.0763 1966.1145,-153.6835 1964.0887,-164.0828 1971.016,-163.0763"/>
</g>
<!-- Node4 -->
<g id="node5" class="node">
<title>Node4</title>
<polygon fill="none" stroke="#bfbfbf" points="1655.5,-134.5 1655.5,-153.5 1738.5,-153.5 1738.5,-134.5 1655.5,-134.5"/>
<text text-anchor="middle" x="1697" y="-141.5" font-family="Helvetica,sans-Serif" font-size="10.00" fill="#000000">initializer_list</text>
</g>
<!-- Node2&#45;&gt;Node4 -->
<g id="edge5" class="edge">
<title>Node2&#45;&gt;Node4</title>
<path fill="none" stroke="#191970" d="M1544.6162,-261.6828C1601.8215,-255.7525 1675.94,-243.8239 1695,-221 1708.1486,-205.2549 1706.2577,-180.7318 1702.6299,-163.6039"/>
<polygon fill="#191970" stroke="#191970" points="1705.9475,-162.4415 1700.1358,-153.5829 1699.1547,-164.1322 1705.9475,-162.4415"/>
</g>
<!-- Node5 -->
<g id="node6" class="node">
<title>Node5</title>
<polygon fill="none" stroke="#bfbfbf" points="2039,-196 2039,-215 2097,-215 2097,-196 2039,-196"/>
<text text-anchor="middle" x="2068" y="-203" font-family="Helvetica,sans-Serif" font-size="10.00" fill="#000000">memory</text>
</g>
<!-- Node2&#45;&gt;Node5 -->
<g id="edge6" class="edge">
<title>Node2&#45;&gt;Node5</title>
<path fill="none" stroke="#191970" d="M1544.7042,-263.4124C1672.1103,-256.5631 1935.3133,-240.5505 2025,-221 2028.4381,-220.2505 2031.9754,-219.2956 2035.4742,-218.229"/>
<polygon fill="#191970" stroke="#191970" points="2036.7447,-221.4947 2045.119,-215.0046 2034.5252,-214.8559 2036.7447,-221.4947"/>
</g>
<!-- Node6 -->
<g id="node7" class="node">
<title>Node6</title>
<polygon fill="none" stroke="#bfbfbf" points="2115,-196 2115,-215 2199,-215 2199,-196 2115,-196"/>
<text text-anchor="middle" x="2157" y="-203" font-family="Helvetica,sans-Serif" font-size="10.00" fill="#000000">FairDetector.h</text>
</g>
<!-- Node2&#45;&gt;Node6 -->
<g id="edge7" class="edge">
<title>Node2&#45;&gt;Node6</title>
<path fill="none" stroke="#191970" d="M1544.6802,-263.8393C1686.2486,-257.1825 2000.0724,-240.6976 2106,-221 2110.5235,-220.1588 2115.2136,-219.0598 2119.8349,-217.8347"/>
<polygon fill="#191970" stroke="#191970" points="2121.0964,-221.1144 2129.7508,-215.0027 2119.1741,-214.3836 2121.0964,-221.1144"/>
</g>
<!-- Node7 -->
<g id="node8" class="node">
<title>Node7</title>
<polygon fill="none" stroke="#bfbfbf" points="1012,-196 1012,-215 1118,-215 1118,-196 1012,-196"/>
<text text-anchor="middle" x="1065" y="-203" font-family="Helvetica,sans-Serif" font-size="10.00" fill="#000000">FairRootManager.h</text>
</g>
<!-- Node2&#45;&gt;Node7 -->
<g id="edge8" class="edge">
<title>Node2&#45;&gt;Node7</title>
<path fill="none" stroke="#191970" d="M1403.1778,-259.986C1332.7855,-252.4577 1221.9149,-239.0954 1127,-221 1121.5506,-219.9611 1115.8647,-218.7367 1110.2427,-217.439"/>
<polygon fill="#191970" stroke="#191970" points="1110.7969,-213.9728 1100.2567,-215.048 1109.1668,-220.7804 1110.7969,-213.9728"/>
</g>
<!-- Node8 -->
<g id="node9" class="node">
<title>Node8</title>
<g id="a_node9"><a xlink:href="../../d0/d9a/MaterialManager_8h.html" target="_top" xlink:title="DetectorsBase/MaterialManager.h">
<polygon fill="none" stroke="#000000" points="1763.5,-196 1763.5,-215 1944.5,-215 1944.5,-196 1763.5,-196"/>
<text text-anchor="middle" x="1854" y="-203" font-family="Helvetica,sans-Serif" font-size="10.00" fill="#000000">DetectorsBase/MaterialManager.h</text>
</a>
</g>
</g>
<!-- Node2&#45;&gt;Node8 -->
<g id="edge9" class="edge">
<title>Node2&#45;&gt;Node8</title>
<path fill="none" stroke="#191970" d="M1532.9581,-257.4581C1601.1505,-246.4217 1713.2524,-228.2789 1785.3215,-216.6151"/>
<polygon fill="#191970" stroke="#191970" points="1785.9039,-220.0664 1795.2163,-215.0137 1784.7855,-213.1564 1785.9039,-220.0664"/>
</g>
<!-- Node9 -->
<g id="node10" class="node">
<title>Node9</title>
<polygon fill="none" stroke="#bfbfbf" points="1803.5,-73 1803.5,-92 1862.5,-92 1862.5,-73 1803.5,-73"/>
<text text-anchor="middle" x="1833" y="-80" font-family="Helvetica,sans-Serif" font-size="10.00" fill="#000000">Rtypes.h</text>
</g>
<!-- Node2&#45;&gt;Node9 -->
<g id="edge15" class="edge">
<title>Node2&#45;&gt;Node9</title>
<path fill="none" stroke="#191970" d="M1544.6001,-264.9195C1674.6732,-260.4501 1941.873,-248.0623 1974,-221 2004.1992,-195.5615 2015.2238,-165.9338 1992,-134 1977.8105,-114.4888 1914.9671,-98.5955 1872.6648,-89.8525"/>
<polygon fill="#191970" stroke="#191970" points="1873.1529,-86.3806 1862.6587,-87.8376 1871.771,-93.2428 1873.1529,-86.3806"/>
</g>
<!-- Node12 -->
<g id="node13" class="node">
<title>Node12</title>
<polygon fill="none" stroke="#bfbfbf" points="1136,-196 1136,-215 1194,-215 1194,-196 1136,-196"/>
<text text-anchor="middle" x="1165" y="-203" font-family="Helvetica,sans-Serif" font-size="10.00" fill="#000000">cxxabi.h</text>
</g>
<!-- Node2&#45;&gt;Node12 -->
<g id="edge16" class="edge">
<title>Node2&#45;&gt;Node12</title>
<path fill="none" stroke="#191970" d="M1403.4625,-259.0965C1348.4569,-251.9509 1270.4995,-239.6567 1204,-221 1201.3934,-220.2687 1198.7219,-219.4232 1196.0593,-218.512"/>
<polygon fill="#191970" stroke="#191970" points="1197.18,-215.1949 1186.5868,-215.0112 1194.7534,-221.7608 1197.18,-215.1949"/>
</g>
<!-- Node13 -->
<g id="node14" class="node">
<title>Node13</title>
<polygon fill="none" stroke="#bfbfbf" points="1212.5,-196 1212.5,-215 1269.5,-215 1269.5,-196 1212.5,-196"/>
<text text-anchor="middle" x="1241" y="-203" font-family="Helvetica,sans-Serif" font-size="10.00" fill="#000000">typeinfo</text>
</g>
<!-- Node2&#45;&gt;Node13 -->
<g id="edge17" class="edge">
<title>Node2&#45;&gt;Node13</title>
<path fill="none" stroke="#191970" d="M1424.1309,-257.4699C1384.3818,-249.3411 1327.5368,-236.5197 1279,-221 1276.8495,-220.3124 1274.6492,-219.5575 1272.4444,-218.7626"/>
<polygon fill="#191970" stroke="#191970" points="1273.4795,-215.4112 1262.8891,-215.1052 1270.9772,-221.9487 1273.4795,-215.4112"/>
</g>
<!-- Node14 -->
<g id="node15" class="node">
<title>Node14</title>
<polygon fill="none" stroke="#bfbfbf" points="1287.5,-196 1287.5,-215 1356.5,-215 1356.5,-196 1287.5,-196"/>
<text text-anchor="middle" x="1322" y="-203" font-family="Helvetica,sans-Serif" font-size="10.00" fill="#000000">type_traits</text>
</g>
<!-- Node2&#45;&gt;Node14 -->
<g id="edge18" class="edge">
<title>Node2&#45;&gt;Node14</title>
<path fill="none" stroke="#191970" d="M1450.25,-257.3906C1424.7061,-247.0554 1383.8991,-230.5447 1355.189,-218.9284"/>
<polygon fill="#191970" stroke="#191970" points="1356.166,-215.5481 1345.5832,-215.0419 1353.5404,-222.0371 1356.166,-215.5481"/>
</g>
<!-- Node15 -->
<g id="node16" class="node">
<title>Node15</title>
<polygon fill="none" stroke="#bfbfbf" points="1375,-196 1375,-215 1419,-215 1419,-196 1375,-196"/>
<text text-anchor="middle" x="1397" y="-203" font-family="Helvetica,sans-Serif" font-size="10.00" fill="#000000">string</text>
</g>
<!-- Node2&#45;&gt;Node15 -->
<g id="edge19" class="edge">
<title>Node2&#45;&gt;Node15</title>
<path fill="none" stroke="#191970" d="M1461.9688,-257.3906C1449.9893,-247.8227 1431.3834,-232.9621 1417.1475,-221.5919"/>
<polygon fill="#191970" stroke="#191970" points="1418.9447,-218.5479 1408.9468,-215.0419 1414.5761,-224.0175 1418.9447,-218.5479"/>
</g>
<!-- Node16 -->
<g id="node17" class="node">
<title>Node16</title>
<polygon fill="none" stroke="#bfbfbf" points="1437,-196 1437,-215 1511,-215 1511,-196 1437,-196"/>
<text text-anchor="middle" x="1474" y="-203" font-family="Helvetica,sans-Serif" font-size="10.00" fill="#000000">TMessage.h</text>
</g>
<!-- Node2&#45;&gt;Node16 -->
<g id="edge20" class="edge">
<title>Node2&#45;&gt;Node16</title>
<path fill="none" stroke="#191970" d="M1474,-257.3906C1474,-248.8657 1474,-236.1392 1474,-225.4235"/>
<polygon fill="#191970" stroke="#191970" points="1477.5001,-225.2448 1474,-215.2449 1470.5001,-225.2449 1477.5001,-225.2448"/>
</g>
<!-- Node17 -->
<g id="node18" class="node">
<title>Node17</title>
<g id="a_node18"><a xlink:href="../../de/d61/ShmManager_8h.html" target="_top" xlink:title="CommonUtils/ShmManager.h">
<polygon fill="none" stroke="#000000" points="1451,-134.5 1451,-153.5 1609,-153.5 1609,-134.5 1451,-134.5"/>
<text text-anchor="middle" x="1530" y="-141.5" font-family="Helvetica,sans-Serif" font-size="10.00" fill="#000000">CommonUtils/ShmManager.h</text>
</a>
</g>
</g>
<!-- Node2&#45;&gt;Node17 -->
<g id="edge21" class="edge">
<title>Node2&#45;&gt;Node17</title>
<path fill="none" stroke="#191970" d="M1544.6585,-260.3852C1596.7646,-253.874 1661.3633,-241.8058 1678,-221 1704.7086,-187.5983 1651.3708,-167.1114 1601.4399,-155.7533"/>
<polygon fill="#191970" stroke="#191970" points="1602.0386,-152.3018 1591.5239,-153.6023 1600.5546,-159.1427 1602.0386,-152.3018"/>
</g>
<!-- Node23 -->
<g id="node24" class="node">
<title>Node23</title>
<g id="a_node24"><a xlink:href="../../d0/d91/ShmAllocator_8h.html" target="_top" xlink:title="CommonUtils/ShmAllocator.h">
<polygon fill="none" stroke="#000000" points="730,-196 730,-215 890,-215 890,-196 730,-196"/>
<text text-anchor="middle" x="810" y="-203" font-family="Helvetica,sans-Serif" font-size="10.00" fill="#000000">CommonUtils/ShmAllocator.h</text>
</a>
</g>
</g>
<!-- Node2&#45;&gt;Node23 -->
<g id="edge27" class="edge">
<title>Node2&#45;&gt;Node23</title>
<path fill="none" stroke="#191970" d="M1403.4135,-263.463C1294.747,-257.5424 1080.065,-243.9594 899,-221 889.5307,-219.7993 879.5337,-218.2934 869.7951,-216.6954"/>
<polygon fill="#191970" stroke="#191970" points="870.2157,-213.217 859.773,-215.0057 869.0519,-220.1196 870.2157,-213.217"/>
</g>
<!-- Node24 -->
<g id="node25" class="node">
<title>Node24</title>
<polygon fill="none" stroke="#bfbfbf" points="871,-134.5 871,-153.5 923,-153.5 923,-134.5 871,-134.5"/>
<text text-anchor="middle" x="897" y="-141.5" font-family="Helvetica,sans-Serif" font-size="10.00" fill="#000000">cassert</text>
</g>
<!-- Node2&#45;&gt;Node24 -->
<g id="edge32" class="edge">
<title>Node2&#45;&gt;Node24</title>
<path fill="none" stroke="#191970" d="M1403.4989,-264.9913C1290.373,-260.9561 1073.8303,-249.6592 1003,-221 982.4744,-212.695 981.8045,-203.1632 964,-190 949.6195,-179.3682 933.0546,-167.9879 919.9937,-159.2066"/>
<polygon fill="#191970" stroke="#191970" points="921.8399,-156.2308 911.5811,-153.5835 917.95,-162.0505 921.8399,-156.2308"/>
</g>
<!-- Node25 -->
<g id="node26" class="node">
<title>Node25</title>
<polygon fill="none" stroke="#bfbfbf" points="1529,-196 1529,-215 1595,-215 1595,-196 1529,-196"/>
<text text-anchor="middle" x="1562" y="-203" font-family="Helvetica,sans-Serif" font-size="10.00" fill="#000000">sys/shm.h</text>
</g>
<!-- Node2&#45;&gt;Node25 -->
<g id="edge30" class="edge">
<title>Node2&#45;&gt;Node25</title>
<path fill="none" stroke="#191970" d="M1487.75,-257.3906C1501.6991,-247.6421 1523.5098,-232.3994 1539.8897,-220.9521"/>
<polygon fill="#191970" stroke="#191970" points="1542.1548,-223.6392 1548.3466,-215.0419 1538.1449,-217.9015 1542.1548,-223.6392"/>
</g>
<!-- Node26 -->
<g id="node27" class="node">
<title>Node26</title>
<polygon fill="none" stroke="#bfbfbf" points="1613,-196 1613,-215 1669,-215 1669,-196 1613,-196"/>
<text text-anchor="middle" x="1641" y="-203" font-family="Helvetica,sans-Serif" font-size="10.00" fill="#000000">unistd.h</text>
</g>
<!-- Node2&#45;&gt;Node26 -->
<g id="edge31" class="edge">
<title>Node2&#45;&gt;Node26</title>
<path fill="none" stroke="#191970" d="M1502.3175,-257.4967C1528.7666,-248.4986 1569.27,-234.4067 1604,-221 1605.803,-220.304 1607.6498,-219.5768 1609.5099,-218.8332"/>
<polygon fill="#191970" stroke="#191970" points="1610.8428,-222.0696 1618.7777,-215.0491 1608.1967,-215.589 1610.8428,-222.0696"/>
</g>
<!-- Node8&#45;&gt;Node3 -->
<g id="edge11" class="edge">
<title>Node8&#45;&gt;Node3</title>
<path fill="none" stroke="#191970" d="M1871.1875,-195.8906C1889.1082,-185.8713 1917.4095,-170.0483 1938.0523,-158.5071"/>
<polygon fill="#191970" stroke="#191970" points="1939.9128,-161.4769 1946.9332,-153.5419 1936.4967,-155.367 1939.9128,-161.4769"/>
</g>
<!-- Node8&#45;&gt;Node4 -->
<g id="edge13" class="edge">
<title>Node8&#45;&gt;Node4</title>
<path fill="none" stroke="#191970" d="M1829.4688,-195.8906C1802.9693,-185.5103 1760.5669,-168.9004 1730.893,-157.2766"/>
<polygon fill="#191970" stroke="#191970" points="1731.9467,-153.9304 1721.359,-153.5419 1729.3935,-160.4482 1731.9467,-153.9304"/>
</g>
<!-- Node8&#45;&gt;Node9 -->
<g id="edge10" class="edge">
<title>Node8&#45;&gt;Node9</title>
<path fill="none" stroke="#191970" d="M1846.5809,-195.9048C1839.4511,-186.0279 1829.1639,-169.8809 1825,-154 1820.5065,-136.8621 1823.4485,-116.765 1826.9658,-102.2494"/>
<polygon fill="#191970" stroke="#191970" points="1830.4033,-102.9469 1829.6541,-92.3786 1823.6493,-101.1074 1830.4033,-102.9469"/>
</g>
<!-- Node10 -->
<g id="node11" class="node">
<title>Node10</title>
<polygon fill="none" stroke="#bfbfbf" points="1833.5,-134.5 1833.5,-153.5 1926.5,-153.5 1926.5,-134.5 1833.5,-134.5"/>
<text text-anchor="middle" x="1880" y="-141.5" font-family="Helvetica,sans-Serif" font-size="10.00" fill="#000000">unordered_map</text>
</g>
<!-- Node8&#45;&gt;Node10 -->
<g id="edge12" class="edge">
<title>Node8&#45;&gt;Node10</title>
<path fill="none" stroke="#191970" d="M1858.0625,-195.8906C1861.7424,-187.1862 1867.2742,-174.1015 1871.862,-163.2494"/>
<polygon fill="#191970" stroke="#191970" points="1875.21,-164.3185 1875.8802,-153.7449 1868.7625,-161.5927 1875.21,-164.3185"/>
</g>
<!-- Node11 -->
<g id="node12" class="node">
<title>Node11</title>
<polygon fill="none" stroke="#bfbfbf" points="1665.5,-73 1665.5,-92 1714.5,-92 1714.5,-73 1665.5,-73"/>
<text text-anchor="middle" x="1690" y="-80" font-family="Helvetica,sans-Serif" font-size="10.00" fill="#000000">iosfwd</text>
</g>
<!-- Node8&#45;&gt;Node11 -->
<g id="edge14" class="edge">
<title>Node8&#45;&gt;Node11</title>
<path fill="none" stroke="#191970" d="M1841.1312,-195.8484C1812.9887,-174.7415 1745.7376,-124.3032 1711.2256,-98.4192"/>
<polygon fill="#191970" stroke="#191970" points="1712.9091,-95.3068 1702.809,-92.1068 1708.709,-100.9068 1712.9091,-95.3068"/>
</g>
<!-- Node18 -->
<g id="node19" class="node">
<title>Node18</title>
<polygon fill="none" stroke="#bfbfbf" points="1615,-73 1615,-92 1647,-92 1647,-73 1615,-73"/>
<text text-anchor="middle" x="1631" y="-80" font-family="Helvetica,sans-Serif" font-size="10.00" fill="#000000">list</text>
</g>
<!-- Node17&#45;&gt;Node18 -->
<g id="edge22" class="edge">
<title>Node17&#45;&gt;Node18</title>
<path fill="none" stroke="#191970" d="M1546.0432,-134.3577C1561.4456,-125.0844 1585.3522,-110.649 1606,-98 1606.2939,-97.8199 1606.5898,-97.6386 1606.8871,-97.4561"/>
<polygon fill="#191970" stroke="#191970" points="1609.0045,-100.2625 1615.6794,-92.0347 1605.3305,-94.3041 1609.0045,-100.2625"/>
</g>
<!-- Node19 -->
<g id="node20" class="node">
<title>Node19</title>
<polygon fill="none" stroke="#bfbfbf" points="1732.5,-73 1732.5,-92 1785.5,-92 1785.5,-73 1732.5,-73"/>
<text text-anchor="middle" x="1759" y="-80" font-family="Helvetica,sans-Serif" font-size="10.00" fill="#000000">cstddef</text>
</g>
<!-- Node17&#45;&gt;Node19 -->
<g id="edge23" class="edge">
<title>Node17&#45;&gt;Node19</title>
<path fill="none" stroke="#191970" d="M1581.7824,-134.4253C1621.2842,-126.4751 1676.7623,-113.9091 1724,-98 1725.8422,-97.3796 1727.7203,-96.6986 1729.6021,-95.979"/>
<polygon fill="#191970" stroke="#191970" points="1730.9739,-99.1993 1738.8925,-92.1605 1728.3127,-92.7249 1730.9739,-99.1993"/>
</g>
<!-- Node20 -->
<g id="node21" class="node">
<title>Node20</title>
<polygon fill="none" stroke="#bfbfbf" points="1211,-73 1211,-92 1261,-92 1261,-73 1211,-73"/>
<text text-anchor="middle" x="1236" y="-80" font-family="Helvetica,sans-Serif" font-size="10.00" fill="#000000">atomic</text>
</g>
<!-- Node17&#45;&gt;Node20 -->
<g id="edge24" class="edge">
<title>Node17&#45;&gt;Node20</title>
<path fill="none" stroke="#191970" d="M1450.92,-134.9908C1399.0217,-127.8551 1330.075,-116.0371 1271,-98 1268.8827,-97.3535 1266.7237,-96.6128 1264.5699,-95.8134"/>
<polygon fill="#191970" stroke="#191970" points="1265.8859,-92.5703 1255.3042,-92.0424 1263.2471,-99.0539 1265.8859,-92.5703"/>
</g>
<!-- Node21 -->
<g id="node22" class="node">
<title>Node21</title>
<polygon fill="none" stroke="#bfbfbf" points="1279.5,-67.5 1279.5,-97.5 1444.5,-97.5 1444.5,-67.5 1279.5,-67.5"/>
<text text-anchor="start" x="1287.5" y="-85.5" font-family="Helvetica,sans-Serif" font-size="10.00" fill="#000000">boost/interprocess</text>
<text text-anchor="middle" x="1362" y="-74.5" font-family="Helvetica,sans-Serif" font-size="10.00" fill="#000000">/managed_external_buffer.hpp</text>
</g>
<!-- Node17&#45;&gt;Node21 -->
<g id="edge25" class="edge">
<title>Node17&#45;&gt;Node21</title>
<path fill="none" stroke="#191970" d="M1503.75,-134.3906C1479.4343,-125.4893 1442.6053,-112.0073 1412.5817,-101.0165"/>
<polygon fill="#191970" stroke="#191970" points="1413.6912,-97.6956 1403.0974,-97.5446 1411.2848,-104.269 1413.6912,-97.6956"/>
</g>
<!-- Node22 -->
<g id="node23" class="node">
<title>Node22</title>
<polygon fill="none" stroke="#bfbfbf" points="1463,-67.5 1463,-97.5 1597,-97.5 1597,-67.5 1463,-67.5"/>
<text text-anchor="start" x="1471" y="-85.5" font-family="Helvetica,sans-Serif" font-size="10.00" fill="#000000">boost/interprocess</text>
<text text-anchor="middle" x="1530" y="-74.5" font-family="Helvetica,sans-Serif" font-size="10.00" fill="#000000">/allocators/allocator.hpp</text>
</g>
<!-- Node17&#45;&gt;Node22 -->
<g id="edge26" class="edge">
<title>Node17&#45;&gt;Node22</title>
<path fill="none" stroke="#191970" d="M1530,-134.3906C1530,-127.2234 1530,-117.0862 1530,-107.671"/>
<polygon fill="#191970" stroke="#191970" points="1533.5001,-107.5446 1530,-97.5446 1526.5001,-107.5446 1533.5001,-107.5446"/>
</g>
<!-- Node23&#45;&gt;Node17 -->
<g id="edge28" class="edge">
<title>Node23&#45;&gt;Node17</title>
<path fill="none" stroke="#191970" d="M859.7652,-195.9319C872.5171,-193.7283 886.2357,-191.5728 899,-190 1091.1866,-166.3192 1317.9184,-153.439 1440.4746,-147.7141"/>
<polygon fill="#191970" stroke="#191970" points="1440.7328,-151.206 1450.5606,-147.2481 1440.4097,-144.2134 1440.7328,-151.206"/>
</g>
<!-- Node23&#45;&gt;Node24 -->
<g id="edge29" class="edge">
<title>Node23&#45;&gt;Node24</title>
<path fill="none" stroke="#191970" d="M823.5938,-195.8906C837.3843,-186.1421 858.9472,-170.8994 875.141,-159.4521"/>
<polygon fill="#191970" stroke="#191970" points="877.3563,-162.1723 883.5017,-153.5419 873.3156,-156.4563 877.3563,-162.1723"/>
</g>
<!-- Node27&#45;&gt;Node23 -->
<g id="edge47" class="edge">
<title>Node27&#45;&gt;Node23</title>
<path fill="none" stroke="#191970" d="M810,-257.3906C810,-248.8657 810,-236.1392 810,-225.4235"/>
<polygon fill="#191970" stroke="#191970" points="813.5001,-225.2448 810,-215.2449 806.5001,-225.2449 813.5001,-225.2448"/>
</g>
<!-- Node28 -->
<g id="node29" class="node">
<title>Node28</title>
<g id="a_node29"><a xlink:href="../../d4/d25/BaseHits_8h.html" target="_top" xlink:title="SimulationDataFormat\l/BaseHits.h">
<polygon fill="none" stroke="#000000" points="584.5,-190.5 584.5,-220.5 711.5,-220.5 711.5,-190.5 584.5,-190.5"/>
<text text-anchor="start" x="592.5" y="-208.5" font-family="Helvetica,sans-Serif" font-size="10.00" fill="#000000">SimulationDataFormat</text>
<text text-anchor="middle" x="648" y="-197.5" font-family="Helvetica,sans-Serif" font-size="10.00" fill="#000000">/BaseHits.h</text>
</a>
</g>
</g>
<!-- Node27&#45;&gt;Node28 -->
<g id="edge34" class="edge">
<title>Node27&#45;&gt;Node28</title>
<path fill="none" stroke="#191970" d="M784.6875,-257.3906C761.3417,-248.5279 726.0338,-235.1239 697.1516,-224.1594"/>
<polygon fill="#191970" stroke="#191970" points="698.2209,-220.8217 687.6297,-220.5446 695.7364,-227.366 698.2209,-220.8217"/>
</g>
<!-- Node29 -->
<g id="node30" class="node">
<title>Node29</title>
<g id="a_node30"><a xlink:href="../../dd/d76/Cartesian3D_8h.html" target="_top" xlink:title="MathUtils/Cartesian3D.h">
<polygon fill="none" stroke="#000000" points="605.5,-134.5 605.5,-153.5 740.5,-153.5 740.5,-134.5 605.5,-134.5"/>
<text text-anchor="middle" x="673" y="-141.5" font-family="Helvetica,sans-Serif" font-size="10.00" fill="#000000">MathUtils/Cartesian3D.h</text>
</a>
</g>
</g>
<!-- Node28&#45;&gt;Node29 -->
<g id="edge35" class="edge">
<title>Node28&#45;&gt;Node29</title>
<path fill="none" stroke="#191970" d="M654.1798,-190.2977C657.5054,-182.1166 661.6411,-171.943 665.1879,-163.2179"/>
<polygon fill="#191970" stroke="#191970" points="668.4737,-164.4288 668.9972,-153.8469 661.989,-161.7927 668.4737,-164.4288"/>
</g>
<!-- Node29&#45;&gt;Node9 -->
<g id="edge41" class="edge">
<title>Node29&#45;&gt;Node9</title>
<path fill="none" stroke="#191970" d="M740.7827,-140.1786C776.7861,-138.2082 821.7905,-135.8394 862,-134 1069.2709,-124.5183 1592.1983,-141.8472 1795,-98 1797.8727,-97.3789 1800.8062,-96.5555 1803.7064,-95.6112"/>
<polygon fill="#191970" stroke="#191970" points="1805.1425,-98.8116 1813.3014,-92.0527 1802.7084,-92.2484 1805.1425,-98.8116"/>
</g>
<!-- Node29&#45;&gt;Node11 -->
<g id="edge43" class="edge">
<title>Node29&#45;&gt;Node11</title>
<path fill="none" stroke="#191970" d="M740.7879,-140.2892C776.7928,-138.3496 821.7969,-135.9749 862,-134 1038.413,-125.3338 1484.2918,-139.3874 1656,-98 1658.3413,-97.4357 1660.7186,-96.709 1663.0722,-95.879"/>
<polygon fill="#191970" stroke="#191970" points="1664.532,-99.0635 1672.461,-92.0363 1661.8804,-92.5851 1664.532,-99.0635"/>
</g>
<!-- Node30 -->
<g id="node31" class="node">
<title>Node30</title>
<polygon fill="none" stroke="#bfbfbf" points="265,-67.5 265,-97.5 429,-97.5 429,-67.5 265,-67.5"/>
<text text-anchor="start" x="273" y="-85.5" font-family="Helvetica,sans-Serif" font-size="10.00" fill="#000000">Math/GenVector/Displacement</text>
<text text-anchor="middle" x="347" y="-74.5" font-family="Helvetica,sans-Serif" font-size="10.00" fill="#000000">Vector3D.h</text>
</g>
<!-- Node29&#45;&gt;Node30 -->
<g id="edge36" class="edge">
<title>Node29&#45;&gt;Node30</title>
<path fill="none" stroke="#191970" d="M622.4202,-134.4581C572.8674,-125.11 496.2881,-110.6633 436.4457,-99.374"/>
<polygon fill="#191970" stroke="#191970" points="437.0901,-95.9339 426.6146,-97.5193 435.7924,-102.8125 437.0901,-95.9339"/>
</g>
<!-- Node31 -->
<g id="node32" class="node">
<title>Node31</title>
<polygon fill="none" stroke="#bfbfbf" points="447.5,-73 447.5,-92 636.5,-92 636.5,-73 447.5,-73"/>
<text text-anchor="middle" x="542" y="-80" font-family="Helvetica,sans-Serif" font-size="10.00" fill="#000000">Math/GenVector/PositionVector3D.h</text>
</g>
<!-- Node29&#45;&gt;Node31 -->
<g id="edge37" class="edge">
<title>Node29&#45;&gt;Node31</title>
<path fill="none" stroke="#191970" d="M652.5313,-134.3906C630.8048,-124.1908 596.2665,-107.9763 571.5815,-96.3875"/>
<polygon fill="#191970" stroke="#191970" points="572.8645,-93.1234 562.325,-92.0419 569.8897,-99.4598 572.8645,-93.1234"/>
</g>
<!-- Node32 -->
<g id="node33" class="node">
<title>Node32</title>
<polygon fill="none" stroke="#bfbfbf" points="655,-73 655,-92 815,-92 815,-73 655,-73"/>
<text text-anchor="middle" x="735" y="-80" font-family="Helvetica,sans-Serif" font-size="10.00" fill="#000000">Math/GenVector/Rotation3D.h</text>
</g>
<!-- Node29&#45;&gt;Node32 -->
<g id="edge38" class="edge">
<title>Node29&#45;&gt;Node32</title>
<path fill="none" stroke="#191970" d="M682.6875,-134.3906C692.0959,-125.0581 706.5807,-110.6902 717.9249,-99.4374"/>
<polygon fill="#191970" stroke="#191970" points="720.5411,-101.7722 725.1759,-92.2449 715.6114,-96.8024 720.5411,-101.7722"/>
</g>
<!-- Node33 -->
<g id="node34" class="node">
<title>Node33</title>
<polygon fill="none" stroke="#bfbfbf" points="833,-73 833,-92 1001,-92 1001,-73 833,-73"/>
<text text-anchor="middle" x="917" y="-80" font-family="Helvetica,sans-Serif" font-size="10.00" fill="#000000">Math/GenVector/Transform3D.h</text>
</g>
<!-- Node29&#45;&gt;Node33 -->
<g id="edge39" class="edge">
<title>Node29&#45;&gt;Node33</title>
<path fill="none" stroke="#191970" d="M710.8573,-134.4581C753.5071,-123.7082 822.9064,-106.2162 869.2456,-94.5365"/>
<polygon fill="#191970" stroke="#191970" points="870.2126,-97.9023 879.0539,-92.0643 868.5017,-91.1146 870.2126,-97.9023"/>
</g>
<!-- Node34 -->
<g id="node35" class="node">
<title>Node34</title>
<polygon fill="none" stroke="#bfbfbf" points="1019.5,-73 1019.5,-92 1192.5,-92 1192.5,-73 1019.5,-73"/>
<text text-anchor="middle" x="1106" y="-80" font-family="Helvetica,sans-Serif" font-size="10.00" fill="#000000">Math/GenVector/Translation3D.h</text>
</g>
<!-- Node29&#45;&gt;Node34 -->
<g id="edge40" class="edge">
<title>Node29&#45;&gt;Node34</title>
<path fill="none" stroke="#191970" d="M740.5248,-135.2759C808.6116,-126.3632 916.6979,-111.8979 1010,-98 1019.233,-96.6247 1028.956,-95.1204 1038.5267,-93.607"/>
<polygon fill="#191970" stroke="#191970" points="1039.0932,-97.061 1048.4182,-92.0316 1037.9922,-90.1481 1039.0932,-97.061"/>
</g>
<!-- Node35 -->
<g id="node36" class="node">
<title>Node35</title>
<polygon fill="none" stroke="#bfbfbf" points="11,-73 11,-92 93,-92 93,-73 11,-73"/>
<text text-anchor="middle" x="52" y="-80" font-family="Helvetica,sans-Serif" font-size="10.00" fill="#000000">TGeoMatrix.h</text>
</g>
<!-- Node29&#45;&gt;Node35 -->
<g id="edge42" class="edge">
<title>Node29&#45;&gt;Node35</title>
<path fill="none" stroke="#191970" d="M605.4151,-140.4267C475.7959,-133.2645 196.7244,-116.2661 102,-98 97.6148,-97.1544 93.0708,-96.0623 88.5906,-94.8495"/>
<polygon fill="#191970" stroke="#191970" points="89.5504,-91.4837 78.9707,-92.0505 87.5947,-98.205 89.5504,-91.4837"/>
</g>
<!-- Node36 -->
<g id="node37" class="node">
<title>Node36</title>
<g id="a_node37"><a xlink:href="../../d2/dd0/Cartesian2D_8h.html" target="_top" xlink:title="MathUtils/Cartesian2D.h">
<polygon fill="none" stroke="#000000" points="111.5,-73 111.5,-92 246.5,-92 246.5,-73 111.5,-73"/>
<text text-anchor="middle" x="179" y="-80" font-family="Helvetica,sans-Serif" font-size="10.00" fill="#000000">MathUtils/Cartesian2D.h</text>
</a>
</g>
</g>
<!-- Node29&#45;&gt;Node36 -->
<g id="edge44" class="edge">
<title>Node29&#45;&gt;Node36</title>
<path fill="none" stroke="#191970" d="M605.2257,-138.387C522.5145,-131.1082 378.5292,-117.0522 256,-98 248.5049,-96.8346 240.6316,-95.4438 232.8983,-93.9807"/>
<polygon fill="#191970" stroke="#191970" points="233.3404,-90.5012 222.8562,-92.0284 232.0045,-97.3725 233.3404,-90.5012"/>
</g>
<!-- Node37 -->
<g id="node38" class="node">
<title>Node37</title>
<polygon fill="none" stroke="#bfbfbf" points="0,-.5 0,-30.5 164,-30.5 164,-.5 0,-.5"/>
<text text-anchor="start" x="8" y="-18.5" font-family="Helvetica,sans-Serif" font-size="10.00" fill="#000000">Math/GenVector/Displacement</text>
<text text-anchor="middle" x="82" y="-7.5" font-family="Helvetica,sans-Serif" font-size="10.00" fill="#000000">Vector2D.h</text>
</g>
<!-- Node36&#45;&gt;Node37 -->
<g id="edge45" class="edge">
<title>Node36&#45;&gt;Node37</title>
<path fill="none" stroke="#191970" d="M165.1023,-72.9005C151.3265,-63.3853 129.7795,-48.5023 112.0779,-36.2755"/>
<polygon fill="#191970" stroke="#191970" points="113.9651,-33.3253 103.7479,-30.5218 109.9868,-39.0849 113.9651,-33.3253"/>
</g>
<!-- Node38 -->
<g id="node39" class="node">
<title>Node38</title>
<polygon fill="none" stroke="#bfbfbf" points="182.5,-6 182.5,-25 371.5,-25 371.5,-6 182.5,-6"/>
<text text-anchor="middle" x="277" y="-13" font-family="Helvetica,sans-Serif" font-size="10.00" fill="#000000">Math/GenVector/PositionVector2D.h</text>
</g>
<!-- Node36&#45;&gt;Node38 -->
<g id="edge46" class="edge">
<title>Node36&#45;&gt;Node38</title>
<path fill="none" stroke="#191970" d="M193.041,-72.9005C209.1238,-61.9052 235.6906,-43.7422 254.6316,-30.7927"/>
<polygon fill="#191970" stroke="#191970" points="256.7052,-33.6148 262.985,-25.0817 252.7545,-27.8362 256.7052,-33.6148"/>
</g>
</g>
</svg>
        <g id="navigator" transform="translate(0 0)" fill="#404254">
                <rect fill="#f2f5e9" fill-opacity="0.5" stroke="#606060" stroke-width=".5" x="0" y="0" width="60" height="60"/>
                <use id="zoomplus" xlink:href="#zoomPlus" x="17" y="9" onmousedown="handleZoom(evt,'in')"/>
                <use id="zoomminus" xlink:href="#zoomMin" x="42" y="9" onmousedown="handleZoom(evt,'out')"/>
                <use id="reset" xlink:href="#resetDef" x="30" y="36" onmousedown="handleReset()"/>
                <g id="arrowUp" xlink:href="#dirArrow" transform="translate(30 24)" onmousedown="handlePan(0,-1)">
                  <use xlink:href="#rim" fill="#404040">
                        <set attributeName="fill" to="#808080" begin="arrowUp.mouseover" end="arrowUp.mouseout"/>
                  </use>
                  <path fill="none" stroke="white" stroke-width="1.5" d="M0,-3.0v7 M-2.5,-0.5L0,-3.0L2.5,-0.5"/>
                </g>
                <g id="arrowRight" xlink:href="#dirArrow" transform="rotate(90) translate(36 -43)" onmousedown="handlePan(1,0)">
                  <use xlink:href="#rim" fill="#404040">
                        <set attributeName="fill" to="#808080" begin="arrowRight.mouseover" end="arrowRight.mouseout"/>
                  </use>
                  <path fill="none" stroke="white" stroke-width="1.5" d="M0,-3.0v7 M-2.5,-0.5L0,-3.0L2.5,-0.5"/>
                </g>
                <g id="arrowDown" xlink:href="#dirArrow" transform="rotate(180) translate(-30 -48)" onmousedown="handlePan(0,1)">
                  <use xlink:href="#rim" fill="#404040">
                        <set attributeName="fill" to="#808080" begin="arrowDown.mouseover" end="arrowDown.mouseout"/>
                  </use>
                  <path fill="none" stroke="white" stroke-width="1.5" d="M0,-3.0v7 M-2.5,-0.5L0,-3.0L2.5,-0.5"/>
                </g>
                <g id="arrowLeft" xlink:href="#dirArrow" transform="rotate(270) translate(-36 17)" onmousedown="handlePan(-1,0)">
                  <use xlink:href="#rim" fill="#404040">
                        <set attributeName="fill" to="#808080" begin="arrowLeft.mouseover" end="arrowLeft.mouseout"/>
                  </use>
                  <path fill="none" stroke="white" stroke-width="1.5" d="M0,-3.0v7 M-2.5,-0.5L0,-3.0L2.5,-0.5"/>
                </g>
        </g>
        <svg viewBox="0 0 15 15" width="100%" height="30px" preserveAspectRatio="xMaxYMin meet">
         <g id="arrow_out" transform="scale(0.3 0.3)">
          <a xlink:href="HMPID_2simulation_2include_2HMPIDSimulation_2Detector_8h__incl_org.svg" target="_base">
           <rect id="button" ry="5" rx="5" y="6" x="6" height="38" width="38"
                fill="#f2f5e9" fill-opacity="0.5" stroke="#606060" stroke-width="1.0"/>
           <path id="arrow"
             d="M 11.500037,31.436501 C 11.940474,20.09759 22.043105,11.32322 32.158766,21.979434 L 37.068811,17.246167 C 37.068811,17.246167 37.088388,32 37.088388,32 L 22.160133,31.978069 C 22.160133,31.978069 26.997745,27.140456 26.997745,27.140456 C 18.528582,18.264221 13.291696,25.230495 11.500037,31.436501 z"
             style="fill:#404040;"/>
          </a>
         </g>
        </svg>
</svg>
