<?xml version="1.0" encoding="UTF-8" standalone="no"?>
<!DOCTYPE svg PUBLIC "-//W3C//DTD SVG 1.1//EN"
 "http://www.w3.org/Graphics/SVG/1.1/DTD/svg11.dtd">
<!-- Generated by graphviz version 2.40.1 (20161225.0304)
 -->
<!-- Title: /home/travis/build/AliceO2Group/AliceO2/Analysis/Core/include/Analysis/trackUtilities.h Pages: 1 -->
<svg width="1681pt" height="150pt"
 viewBox="0.00 0.00 1680.50 150.00" xmlns="http://www.w3.org/2000/svg" xmlns:xlink="http://www.w3.org/1999/xlink">
<g id="graph0" class="graph" transform="scale(1 1) rotate(0) translate(4 146)">
<title>/home/travis/build/AliceO2Group/AliceO2/Analysis/Core/include/Analysis/trackUtilities.h</title>
<!-- Node61 -->
<g id="node1" class="node">
<title>Node61</title>
<polygon fill="#bfbfbf" stroke="#000000" points="783,-89.5 783,-141.5 919,-141.5 919,-89.5 783,-89.5"/>
<text text-anchor="start" x="791" y="-129.5" font-family="Helvetica,sans-Serif" font-size="10.00" fill="#000000">/home/travis/build</text>
<text text-anchor="start" x="791" y="-118.5" font-family="Helvetica,sans-Serif" font-size="10.00" fill="#000000">/AliceO2Group/AliceO2</text>
<text text-anchor="start" x="791" y="-107.5" font-family="Helvetica,sans-Serif" font-size="10.00" fill="#000000">/Analysis/Core/include</text>
<text text-anchor="middle" x="851" y="-96.5" font-family="Helvetica,sans-Serif" font-size="10.00" fill="#000000">/Analysis/trackUtilities.h</text>
</g>
<!-- Node62 -->
<g id="node2" class="node">
<title>Node62</title>
<g id="a_node2"><a xlink:href="../../d3/d9f/HFCandidateCreator2Prong_8cxx.html" target="_top" xlink:title="Reconstruction of heavy&#45;flavour 2&#45;prong decay candidates. ">
<polygon fill="none" stroke="#000000" points="0,-.5 0,-52.5 172,-52.5 172,-.5 0,-.5"/>
<text text-anchor="start" x="8" y="-40.5" font-family="Helvetica,sans-Serif" font-size="10.00" fill="#000000">/home/travis/build</text>
<text text-anchor="start" x="8" y="-29.5" font-family="Helvetica,sans-Serif" font-size="10.00" fill="#000000">/AliceO2Group/AliceO2</text>
<text text-anchor="start" x="8" y="-18.5" font-family="Helvetica,sans-Serif" font-size="10.00" fill="#000000">/Analysis/Tasks/PWGHF</text>
<text text-anchor="middle" x="86" y="-7.5" font-family="Helvetica,sans-Serif" font-size="10.00" fill="#000000">/HFCandidateCreator2Prong.cxx</text>
</a>
</g>
</g>
<!-- Node61&#45;&gt;Node62 -->
<g id="edge1" class="edge">
<title>Node61&#45;&gt;Node62</title>
<path fill="none" stroke="#191970" d="M772.6328,-112.7367C646.9057,-107.2874 392.752,-92.0847 181,-53 178.0533,-52.4561 175.0655,-51.8627 172.0561,-51.2292"/>
<polygon fill="#191970" stroke="#191970" points="772.7887,-116.2463 782.9281,-113.1734 773.0854,-109.2526 772.7887,-116.2463"/>
</g>
<!-- Node63 -->
<g id="node3" class="node">
<title>Node63</title>
<g id="a_node3"><a xlink:href="../../da/d3e/HFCandidateCreator3Prong_8cxx.html" target="_top" xlink:title="Reconstruction of heavy&#45;flavour 3&#45;prong decay candidates. ">
<polygon fill="none" stroke="#000000" points="190,-.5 190,-52.5 362,-52.5 362,-.5 190,-.5"/>
<text text-anchor="start" x="198" y="-40.5" font-family="Helvetica,sans-Serif" font-size="10.00" fill="#000000">/home/travis/build</text>
<text text-anchor="start" x="198" y="-29.5" font-family="Helvetica,sans-Serif" font-size="10.00" fill="#000000">/AliceO2Group/AliceO2</text>
<text text-anchor="start" x="198" y="-18.5" font-family="Helvetica,sans-Serif" font-size="10.00" fill="#000000">/Analysis/Tasks/PWGHF</text>
<text text-anchor="middle" x="276" y="-7.5" font-family="Helvetica,sans-Serif" font-size="10.00" fill="#000000">/HFCandidateCreator3Prong.cxx</text>
</a>
</g>
</g>
<!-- Node61&#45;&gt;Node63 -->
<g id="edge2" class="edge">
<title>Node61&#45;&gt;Node63</title>
<path fill="none" stroke="#191970" d="M772.7787,-108.7708C677.303,-99.7649 511.2362,-81.5377 371,-53 368.0637,-52.4025 365.0849,-51.7628 362.0832,-51.0895"/>
<polygon fill="#191970" stroke="#191970" points="772.6474,-112.2737 782.9295,-109.7185 773.2982,-105.304 772.6474,-112.2737"/>
</g>
<!-- Node64 -->
<g id="node4" class="node">
<title>Node64</title>
<g id="a_node4"><a xlink:href="../../d2/d43/HFTrackIndexSkimsCreator_8cxx.html" target="_top" xlink:title="Pre&#45;selection of 2&#45;prong and 3&#45;prong secondary vertices of heavy&#45;flavour decay candidates. ">
<polygon fill="none" stroke="#000000" points="380,-.5 380,-52.5 550,-52.5 550,-.5 380,-.5"/>
<text text-anchor="start" x="388" y="-40.5" font-family="Helvetica,sans-Serif" font-size="10.00" fill="#000000">/home/travis/build</text>
<text text-anchor="start" x="388" y="-29.5" font-family="Helvetica,sans-Serif" font-size="10.00" fill="#000000">/AliceO2Group/AliceO2</text>
<text text-anchor="start" x="388" y="-18.5" font-family="Helvetica,sans-Serif" font-size="10.00" fill="#000000">/Analysis/Tasks/PWGHF</text>
<text text-anchor="middle" x="465" y="-7.5" font-family="Helvetica,sans-Serif" font-size="10.00" fill="#000000">/HFTrackIndexSkimsCreator.cxx</text>
</a>
</g>
</g>
<!-- Node61&#45;&gt;Node64 -->
<g id="edge3" class="edge">
<title>Node61&#45;&gt;Node64</title>
<path fill="none" stroke="#191970" d="M772.8743,-100.1908C713.8877,-88.2903 631.0683,-70.852 559,-53 556.1198,-52.2866 553.1942,-51.5468 550.2427,-50.7877"/>
<polygon fill="#191970" stroke="#191970" points="772.3719,-103.6597 782.8656,-102.1995 773.7517,-96.7971 772.3719,-103.6597"/>
</g>
<!-- Node65 -->
<g id="node5" class="node">
<title>Node65</title>
<g id="a_node5"><a xlink:href="../../d2/d15/cascadeconsumer_8cxx.html" target="_top" xlink:title="/home/travis/build\l/AliceO2Group/AliceO2\l/Analysis/Tasks/PWGLF\l/cascadeconsumer.cxx">
<polygon fill="none" stroke="#000000" points="568,-.5 568,-52.5 696,-52.5 696,-.5 568,-.5"/>
<text text-anchor="start" x="576" y="-40.5" font-family="Helvetica,sans-Serif" font-size="10.00" fill="#000000">/home/travis/build</text>
<text text-anchor="start" x="576" y="-29.5" font-family="Helvetica,sans-Serif" font-size="10.00" fill="#000000">/AliceO2Group/AliceO2</text>
<text text-anchor="start" x="576" y="-18.5" font-family="Helvetica,sans-Serif" font-size="10.00" fill="#000000">/Analysis/Tasks/PWGLF</text>
<text text-anchor="middle" x="632" y="-7.5" font-family="Helvetica,sans-Serif" font-size="10.00" fill="#000000">/cascadeconsumer.cxx</text>
</a>
</g>
</g>
<!-- Node61&#45;&gt;Node65 -->
<g id="edge4" class="edge">
<title>Node61&#45;&gt;Node65</title>
<path fill="none" stroke="#191970" d="M777.2476,-85.5276C750.9803,-74.8527 721.6303,-62.9251 696.2263,-52.6011"/>
<polygon fill="#191970" stroke="#191970" points="776.1906,-88.8759 786.7725,-89.3984 778.826,-82.391 776.1906,-88.8759"/>
</g>
<!-- Node66 -->
<g id="node6" class="node">
<title>Node66</title>
<g id="a_node6"><a xlink:href="../../d0/dd5/cascadefinder_8cxx.html" target="_top" xlink:title="/home/travis/build\l/AliceO2Group/AliceO2\l/Analysis/Tasks/PWGLF\l/cascadefinder.cxx">
<polygon fill="none" stroke="#000000" points="714,-.5 714,-52.5 842,-52.5 842,-.5 714,-.5"/>
<text text-anchor="start" x="722" y="-40.5" font-family="Helvetica,sans-Serif" font-size="10.00" fill="#000000">/home/travis/build</text>
<text text-anchor="start" x="722" y="-29.5" font-family="Helvetica,sans-Serif" font-size="10.00" fill="#000000">/AliceO2Group/AliceO2</text>
<text text-anchor="start" x="722" y="-18.5" font-family="Helvetica,sans-Serif" font-size="10.00" fill="#000000">/Analysis/Tasks/PWGLF</text>
<text text-anchor="middle" x="778" y="-7.5" font-family="Helvetica,sans-Serif" font-size="10.00" fill="#000000">/cascadefinder.cxx</text>
</a>
</g>
</g>
<!-- Node61&#45;&gt;Node66 -->
<g id="edge5" class="edge">
<title>Node61&#45;&gt;Node66</title>
<path fill="none" stroke="#191970" d="M823.0537,-81.4285C815.1903,-71.8416 806.7656,-61.5704 799.3539,-52.5341"/>
<polygon fill="#191970" stroke="#191970" points="820.4444,-83.7662 829.4924,-89.2784 825.8567,-79.3269 820.4444,-83.7662"/>
</g>
<!-- Node67 -->
<g id="node7" class="node">
<title>Node67</title>
<g id="a_node7"><a xlink:href="../../d1/db8/cascadeproducer_8cxx.html" target="_top" xlink:title="/home/travis/build\l/AliceO2Group/AliceO2\l/Analysis/Tasks/PWGLF\l/cascadeproducer.cxx">
<polygon fill="none" stroke="#000000" points="860,-.5 860,-52.5 988,-52.5 988,-.5 860,-.5"/>
<text text-anchor="start" x="868" y="-40.5" font-family="Helvetica,sans-Serif" font-size="10.00" fill="#000000">/home/travis/build</text>
<text text-anchor="start" x="868" y="-29.5" font-family="Helvetica,sans-Serif" font-size="10.00" fill="#000000">/AliceO2Group/AliceO2</text>
<text text-anchor="start" x="868" y="-18.5" font-family="Helvetica,sans-Serif" font-size="10.00" fill="#000000">/Analysis/Tasks/PWGLF</text>
<text text-anchor="middle" x="924" y="-7.5" font-family="Helvetica,sans-Serif" font-size="10.00" fill="#000000">/cascadeproducer.cxx</text>
</a>
</g>
</g>
<!-- Node61&#45;&gt;Node67 -->
<g id="edge6" class="edge">
<title>Node61&#45;&gt;Node67</title>
<path fill="none" stroke="#191970" d="M878.9463,-81.4285C886.8097,-71.8416 895.2344,-61.5704 902.6461,-52.5341"/>
<polygon fill="#191970" stroke="#191970" points="876.1433,-79.3269 872.5076,-89.2784 881.5556,-83.7662 876.1433,-79.3269"/>
</g>
<!-- Node68 -->
<g id="node8" class="node">
<title>Node68</title>
<g id="a_node8"><a xlink:href="../../d4/d77/lambdakzeroconsumer_8cxx.html" target="_top" xlink:title="/home/travis/build\l/AliceO2Group/AliceO2\l/Analysis/Tasks/PWGLF\l/lambdakzeroconsumer.cxx">
<polygon fill="none" stroke="#000000" points="1006.5,-.5 1006.5,-52.5 1157.5,-52.5 1157.5,-.5 1006.5,-.5"/>
<text text-anchor="start" x="1014.5" y="-40.5" font-family="Helvetica,sans-Serif" font-size="10.00" fill="#000000">/home/travis/build</text>
<text text-anchor="start" x="1014.5" y="-29.5" font-family="Helvetica,sans-Serif" font-size="10.00" fill="#000000">/AliceO2Group/AliceO2</text>
<text text-anchor="start" x="1014.5" y="-18.5" font-family="Helvetica,sans-Serif" font-size="10.00" fill="#000000">/Analysis/Tasks/PWGLF</text>
<text text-anchor="middle" x="1082" y="-7.5" font-family="Helvetica,sans-Serif" font-size="10.00" fill="#000000">/lambdakzeroconsumer.cxx</text>
</a>
</g>
</g>
<!-- Node61&#45;&gt;Node68 -->
<g id="edge7" class="edge">
<title>Node61&#45;&gt;Node68</title>
<path fill="none" stroke="#191970" d="M928.4293,-85.6679C956.2286,-74.9574 987.3409,-62.9704 1014.2544,-52.6011"/>
<polygon fill="#191970" stroke="#191970" points="926.8198,-82.5372 918.7468,-89.3984 929.3365,-89.0691 926.8198,-82.5372"/>
</g>
<!-- Node69 -->
<g id="node9" class="node">
<title>Node69</title>
<g id="a_node9"><a xlink:href="../../d5/d6e/lambdakzerofinder_8cxx.html" target="_top" xlink:title="/home/travis/build\l/AliceO2Group/AliceO2\l/Analysis/Tasks/PWGLF\l/lambdakzerofinder.cxx">
<polygon fill="none" stroke="#000000" points="1175.5,-.5 1175.5,-52.5 1306.5,-52.5 1306.5,-.5 1175.5,-.5"/>
<text text-anchor="start" x="1183.5" y="-40.5" font-family="Helvetica,sans-Serif" font-size="10.00" fill="#000000">/home/travis/build</text>
<text text-anchor="start" x="1183.5" y="-29.5" font-family="Helvetica,sans-Serif" font-size="10.00" fill="#000000">/AliceO2Group/AliceO2</text>
<text text-anchor="start" x="1183.5" y="-18.5" font-family="Helvetica,sans-Serif" font-size="10.00" fill="#000000">/Analysis/Tasks/PWGLF</text>
<text text-anchor="middle" x="1241" y="-7.5" font-family="Helvetica,sans-Serif" font-size="10.00" fill="#000000">/lambdakzerofinder.cxx</text>
</a>
</g>
</g>
<!-- Node61&#45;&gt;Node69 -->
<g id="edge8" class="edge">
<title>Node61&#45;&gt;Node69</title>
<path fill="none" stroke="#191970" d="M929.2624,-103.3528C993.6738,-92.562 1087.0518,-75.0895 1167,-53 1169.7622,-52.2368 1172.5692,-51.4205 1175.395,-50.5649"/>
<polygon fill="#191970" stroke="#191970" points="928.4715,-99.9362 919.1799,-105.027 929.6182,-106.8416 928.4715,-99.9362"/>
</g>
<!-- Node70 -->
<g id="node10" class="node">
<title>Node70</title>
<g id="a_node10"><a xlink:href="../../d6/d2a/lambdakzeroproducer_8cxx.html" target="_top" xlink:title="/home/travis/build\l/AliceO2Group/AliceO2\l/Analysis/Tasks/PWGLF\l/lambdakzeroproducer.cxx">
<polygon fill="none" stroke="#000000" points="1325,-.5 1325,-52.5 1471,-52.5 1471,-.5 1325,-.5"/>
<text text-anchor="start" x="1333" y="-40.5" font-family="Helvetica,sans-Serif" font-size="10.00" fill="#000000">/home/travis/build</text>
<text text-anchor="start" x="1333" y="-29.5" font-family="Helvetica,sans-Serif" font-size="10.00" fill="#000000">/AliceO2Group/AliceO2</text>
<text text-anchor="start" x="1333" y="-18.5" font-family="Helvetica,sans-Serif" font-size="10.00" fill="#000000">/Analysis/Tasks/PWGLF</text>
<text text-anchor="middle" x="1398" y="-7.5" font-family="Helvetica,sans-Serif" font-size="10.00" fill="#000000">/lambdakzeroproducer.cxx</text>
</a>
</g>
</g>
<!-- Node61&#45;&gt;Node70 -->
<g id="edge9" class="edge">
<title>Node61&#45;&gt;Node70</title>
<path fill="none" stroke="#191970" d="M929.233,-109.2916C1022.2591,-100.9218 1181.8177,-83.4417 1316,-53 1318.9181,-52.338 1321.8807,-51.6177 1324.863,-50.8522"/>
<polygon fill="#191970" stroke="#191970" points="928.7079,-105.8243 919.0565,-110.1946 929.3267,-112.7969 928.7079,-105.8243"/>
</g>
<!-- Node71 -->
<g id="node11" class="node">
<title>Node71</title>
<g id="a_node11"><a xlink:href="../../db/d90/trackselection_8cxx.html" target="_top" xlink:title="/home/travis/build\l/AliceO2Group/AliceO2\l/Analysis/Tasks/trackselection.cxx">
<polygon fill="none" stroke="#000000" points="1489.5,-6 1489.5,-47 1672.5,-47 1672.5,-6 1489.5,-6"/>
<text text-anchor="start" x="1497.5" y="-35" font-family="Helvetica,sans-Serif" font-size="10.00" fill="#000000">/home/travis/build</text>
<text text-anchor="start" x="1497.5" y="-24" font-family="Helvetica,sans-Serif" font-size="10.00" fill="#000000">/AliceO2Group/AliceO2</text>
<text text-anchor="middle" x="1581" y="-13" font-family="Helvetica,sans-Serif" font-size="10.00" fill="#000000">/Analysis/Tasks/trackselection.cxx</text>
</a>
</g>
</g>
<!-- Node61&#45;&gt;Node71 -->
<g id="edge10" class="edge">
<title>Node61&#45;&gt;Node71</title>
<path fill="none" stroke="#191970" d="M929.595,-111.675C1049.2016,-104.9589 1283.7435,-88.27 1480,-53 1489.1888,-51.3486 1498.7681,-49.2892 1508.2088,-47.0528"/>
<polygon fill="#191970" stroke="#191970" points="929.225,-108.1901 919.4336,-112.2371 929.6116,-115.1794 929.225,-108.1901"/>
</g>
</g>
</svg>
