<?xml version="1.0" encoding="UTF-8" standalone="no"?>
<!DOCTYPE svg PUBLIC "-//W3C//DTD SVG 1.1//EN"
 "http://www.w3.org/Graphics/SVG/1.1/DTD/svg11.dtd">
<!-- Generated by graphviz version 2.40.1 (20161225.0304)
 -->
<!-- Title: /home/travis/build/AliceO2Group/AliceO2/Framework/Core/include/Framework/DanglingContext.h Pages: 1 -->
<svg width="1444pt" height="363pt"
 viewBox="0.00 0.00 1444.35 363.00" xmlns="http://www.w3.org/2000/svg" xmlns:xlink="http://www.w3.org/1999/xlink">
<g id="graph0" class="graph" transform="scale(1 1) rotate(0) translate(4 359)">
<title>/home/travis/build/AliceO2Group/AliceO2/Framework/Core/include/Framework/DanglingContext.h</title>
<!-- Node0 -->
<g id="node1" class="node">
<title>Node0</title>
<polygon fill="#bfbfbf" stroke="#000000" points="748.8549,-302.5 748.8549,-354.5 915.8549,-354.5 915.8549,-302.5 748.8549,-302.5"/>
<text text-anchor="start" x="756.8549" y="-342.5" font-family="Helvetica,sans-Serif" font-size="10.00" fill="#000000">/home/travis/build</text>
<text text-anchor="start" x="756.8549" y="-331.5" font-family="Helvetica,sans-Serif" font-size="10.00" fill="#000000">/AliceO2Group/AliceO2</text>
<text text-anchor="start" x="756.8549" y="-320.5" font-family="Helvetica,sans-Serif" font-size="10.00" fill="#000000">/Framework/Core/include</text>
<text text-anchor="middle" x="832.3549" y="-309.5" font-family="Helvetica,sans-Serif" font-size="10.00" fill="#000000">/Framework/DanglingContext.h</text>
</g>
<!-- Node1 -->
<g id="node2" class="node">
<title>Node1</title>
<g id="a_node2"><a xlink:href="../../d8/d17/ServiceRegistry_8h.html" target="_top" xlink:title="Framework/ServiceRegistry.h">
<polygon fill="none" stroke="#000000" points="753.8549,-246.5 753.8549,-265.5 910.8549,-265.5 910.8549,-246.5 753.8549,-246.5"/>
<text text-anchor="middle" x="832.3549" y="-253.5" font-family="Helvetica,sans-Serif" font-size="10.00" fill="#000000">Framework/ServiceRegistry.h</text>
</a>
</g>
</g>
<!-- Node0&#45;&gt;Node1 -->
<g id="edge1" class="edge">
<title>Node0&#45;&gt;Node1</title>
<path fill="none" stroke="#191970" d="M832.3549,-302.3258C832.3549,-293.5142 832.3549,-283.8397 832.3549,-275.621"/>
<polygon fill="#191970" stroke="#191970" points="835.855,-275.534 832.3549,-265.534 828.855,-275.534 835.855,-275.534"/>
</g>
<!-- Node2 -->
<g id="node3" class="node">
<title>Node2</title>
<g id="a_node3"><a xlink:href="../../d3/d28/ServiceHandle_8h.html" target="_top" xlink:title="Framework/ServiceHandle.h">
<polygon fill="none" stroke="#000000" points="266.8549,-118 266.8549,-137 419.8549,-137 419.8549,-118 266.8549,-118"/>
<text text-anchor="middle" x="343.3549" y="-125" font-family="Helvetica,sans-Serif" font-size="10.00" fill="#000000">Framework/ServiceHandle.h</text>
</a>
</g>
</g>
<!-- Node1&#45;&gt;Node2 -->
<g id="edge2" class="edge">
<title>Node1&#45;&gt;Node2</title>
<path fill="none" stroke="#191970" d="M753.8226,-248.9017C694.1755,-242.2596 610.5505,-230.2467 539.3549,-210 477.0923,-192.2937 408.1771,-160.1424 370.9278,-141.6382"/>
<polygon fill="#191970" stroke="#191970" points="372.2357,-138.3787 361.7277,-137.0245 369.0977,-144.636 372.2357,-138.3787"/>
</g>
<!-- Node3 -->
<g id="node4" class="node">
<title>Node3</title>
<polygon fill="none" stroke="#bfbfbf" points="269.3549,-56.5 269.3549,-75.5 313.3549,-75.5 313.3549,-56.5 269.3549,-56.5"/>
<text text-anchor="middle" x="291.3549" y="-63.5" font-family="Helvetica,sans-Serif" font-size="10.00" fill="#000000">string</text>
</g>
<!-- Node1&#45;&gt;Node3 -->
<g id="edge29" class="edge">
<title>Node1&#45;&gt;Node3</title>
<path fill="none" stroke="#191970" d="M753.7048,-253.2859C605.4455,-247.6969 289.9554,-233.4254 183.3549,-210 101.2012,-191.9468 54.1589,-212.2094 6.3549,-143 -1.4753,-131.6636 -2.5776,-122.4899 6.3549,-112 22.6199,-92.8993 187.7787,-75.5381 258.9775,-68.8794"/>
<polygon fill="#191970" stroke="#191970" points="259.5304,-72.3433 269.1667,-67.9397 258.8875,-65.3729 259.5304,-72.3433"/>
</g>
<!-- Node4 -->
<g id="node5" class="node">
<title>Node4</title>
<g id="a_node5"><a xlink:href="../../d4/d61/ServiceSpec_8h.html" target="_top" xlink:title="Framework/ServiceSpec.h">
<polygon fill="none" stroke="#000000" points="192.3549,-185 192.3549,-204 334.3549,-204 334.3549,-185 192.3549,-185"/>
<text text-anchor="middle" x="263.3549" y="-192" font-family="Helvetica,sans-Serif" font-size="10.00" fill="#000000">Framework/ServiceSpec.h</text>
</a>
</g>
</g>
<!-- Node1&#45;&gt;Node4 -->
<g id="edge4" class="edge">
<title>Node1&#45;&gt;Node4</title>
<path fill="none" stroke="#191970" d="M753.466,-249.0631C661.9374,-240.7901 506.5364,-226.0503 373.3549,-210 361.9518,-208.6258 349.9011,-207.0521 338.1212,-205.4461"/>
<polygon fill="#191970" stroke="#191970" points="338.2466,-201.9303 327.862,-204.0307 337.2898,-208.8646 338.2466,-201.9303"/>
</g>
<!-- Node5 -->
<g id="node6" class="node">
<title>Node5</title>
<polygon fill="none" stroke="#bfbfbf" points="437.8549,-118 437.8549,-137 502.8549,-137 502.8549,-118 437.8549,-118"/>
<text text-anchor="middle" x="470.3549" y="-125" font-family="Helvetica,sans-Serif" font-size="10.00" fill="#000000">functional</text>
</g>
<!-- Node1&#45;&gt;Node5 -->
<g id="edge28" class="edge">
<title>Node1&#45;&gt;Node5</title>
<path fill="none" stroke="#191970" d="M753.8365,-248.0931C707.3767,-241.5884 648.0803,-230.0522 598.3549,-210 556.645,-193.18 513.8487,-162.2859 489.8267,-143.4486"/>
<polygon fill="#191970" stroke="#191970" points="491.8646,-140.5972 481.8627,-137.1025 487.5023,-146.0717 491.8646,-140.5972"/>
</g>
<!-- Node8 -->
<g id="node9" class="node">
<title>Node8</title>
<g id="a_node9"><a xlink:href="../../d0/d6d/ServiceRegistryHelpers_8h.html" target="_top" xlink:title="Framework/ServiceRegistry\lHelpers.h">
<polygon fill="none" stroke="#000000" points="617.8549,-179.5 617.8549,-209.5 766.8549,-209.5 766.8549,-179.5 617.8549,-179.5"/>
<text text-anchor="start" x="625.8549" y="-197.5" font-family="Helvetica,sans-Serif" font-size="10.00" fill="#000000">Framework/ServiceRegistry</text>
<text text-anchor="middle" x="692.3549" y="-186.5" font-family="Helvetica,sans-Serif" font-size="10.00" fill="#000000">Helpers.h</text>
</a>
</g>
</g>
<!-- Node1&#45;&gt;Node8 -->
<g id="edge10" class="edge">
<title>Node1&#45;&gt;Node8</title>
<path fill="none" stroke="#191970" d="M810.4799,-246.3906C790.5677,-237.6435 760.5858,-224.4728 735.8111,-213.5897"/>
<polygon fill="#191970" stroke="#191970" points="737.166,-210.3621 726.6028,-209.5446 734.3507,-216.771 737.166,-210.3621"/>
</g>
<!-- Node9 -->
<g id="node10" class="node">
<title>Node9</title>
<g id="a_node10"><a xlink:href="../../d2/d9a/TypeIdHelpers_8h.html" target="_top" xlink:title="Framework/TypeIdHelpers.h">
<polygon fill="none" stroke="#000000" points="559.3549,-118 559.3549,-137 711.3549,-137 711.3549,-118 559.3549,-118"/>
<text text-anchor="middle" x="635.3549" y="-125" font-family="Helvetica,sans-Serif" font-size="10.00" fill="#000000">Framework/TypeIdHelpers.h</text>
</a>
</g>
</g>
<!-- Node1&#45;&gt;Node9 -->
<g id="edge24" class="edge">
<title>Node1&#45;&gt;Node9</title>
<path fill="none" stroke="#191970" d="M753.6764,-250.229C696.7122,-244.2226 626.6397,-232.4212 608.3549,-210 592.9669,-191.1309 607.7556,-163.2194 620.7607,-145.1944"/>
<polygon fill="#191970" stroke="#191970" points="623.5634,-147.2912 626.8617,-137.2228 618.0046,-143.0367 623.5634,-147.2912"/>
</g>
<!-- Node13 -->
<g id="node14" class="node">
<title>Node13</title>
<polygon fill="none" stroke="#bfbfbf" points="729.3549,-118 729.3549,-137 793.3549,-137 793.3549,-118 729.3549,-118"/>
<text text-anchor="middle" x="761.3549" y="-125" font-family="Helvetica,sans-Serif" font-size="10.00" fill="#000000">algorithm</text>
</g>
<!-- Node1&#45;&gt;Node13 -->
<g id="edge26" class="edge">
<title>Node1&#45;&gt;Node13</title>
<path fill="none" stroke="#191970" d="M827.0184,-246.3416C815.2996,-225.1323 787.1403,-174.1679 771.7794,-146.3669"/>
<polygon fill="#191970" stroke="#191970" points="774.6531,-144.3306 766.7534,-137.2705 768.5261,-147.7159 774.6531,-144.3306"/>
</g>
<!-- Node14 -->
<g id="node15" class="node">
<title>Node14</title>
<polygon fill="none" stroke="#bfbfbf" points="811.3549,-118 811.3549,-137 853.3549,-137 853.3549,-118 811.3549,-118"/>
<text text-anchor="middle" x="832.3549" y="-125" font-family="Helvetica,sans-Serif" font-size="10.00" fill="#000000">array</text>
</g>
<!-- Node1&#45;&gt;Node14 -->
<g id="edge27" class="edge">
<title>Node1&#45;&gt;Node14</title>
<path fill="none" stroke="#191970" d="M832.3549,-246.3416C832.3549,-225.4114 832.3549,-175.504 832.3549,-147.4762"/>
<polygon fill="#191970" stroke="#191970" points="835.855,-147.2704 832.3549,-137.2705 828.855,-147.2705 835.855,-147.2704"/>
</g>
<!-- Node15 -->
<g id="node16" class="node">
<title>Node15</title>
<polygon fill="none" stroke="#bfbfbf" points="871.8549,-118 871.8549,-137 940.8549,-137 940.8549,-118 871.8549,-118"/>
<text text-anchor="middle" x="906.3549" y="-125" font-family="Helvetica,sans-Serif" font-size="10.00" fill="#000000">type_traits</text>
</g>
<!-- Node1&#45;&gt;Node15 -->
<g id="edge30" class="edge">
<title>Node1&#45;&gt;Node15</title>
<path fill="none" stroke="#191970" d="M837.917,-246.3416C850.1844,-225.0393 879.7378,-173.7203 895.6998,-146.0025"/>
<polygon fill="#191970" stroke="#191970" points="898.7709,-147.6829 900.7284,-137.2705 892.7049,-144.1896 898.7709,-147.6829"/>
</g>
<!-- Node16 -->
<g id="node17" class="node">
<title>Node16</title>
<polygon fill="none" stroke="#bfbfbf" points="958.8549,-118 958.8549,-137 1015.8549,-137 1015.8549,-118 958.8549,-118"/>
<text text-anchor="middle" x="987.3549" y="-125" font-family="Helvetica,sans-Serif" font-size="10.00" fill="#000000">typeinfo</text>
</g>
<!-- Node1&#45;&gt;Node16 -->
<g id="edge31" class="edge">
<title>Node1&#45;&gt;Node16</title>
<path fill="none" stroke="#191970" d="M844.0051,-246.3416C870.3737,-224.4812 934.8714,-171.0105 967.605,-143.8733"/>
<polygon fill="#191970" stroke="#191970" points="970.1049,-146.3473 975.5695,-137.2705 965.6372,-140.9583 970.1049,-146.3473"/>
</g>
<!-- Node17 -->
<g id="node18" class="node">
<title>Node17</title>
<polygon fill="none" stroke="#bfbfbf" points="1034.3549,-118 1034.3549,-137 1082.3549,-137 1082.3549,-118 1034.3549,-118"/>
<text text-anchor="middle" x="1058.3549" y="-125" font-family="Helvetica,sans-Serif" font-size="10.00" fill="#000000">thread</text>
</g>
<!-- Node1&#45;&gt;Node17 -->
<g id="edge32" class="edge">
<title>Node1&#45;&gt;Node17</title>
<path fill="none" stroke="#191970" d="M852.9349,-246.357C871.2575,-237.5397 898.6042,-223.8051 921.3549,-210 941.806,-197.5903 945.084,-191.7018 965.3549,-179 986.7615,-165.5866 1011.8632,-151.7944 1030.5891,-141.8628"/>
<polygon fill="#191970" stroke="#191970" points="1032.2669,-144.935 1039.4858,-137.1801 1029.0065,-138.7406 1032.2669,-144.935"/>
</g>
<!-- Node18 -->
<g id="node19" class="node">
<title>Node18</title>
<g id="a_node19"><a xlink:href="../../d9/de8/CompilerBuiltins_8h.html" target="_top" xlink:title="Framework/CompilerBuiltins.h">
<polygon fill="none" stroke="#000000" points="974.3549,-185 974.3549,-204 1138.3549,-204 1138.3549,-185 974.3549,-185"/>
<text text-anchor="middle" x="1056.3549" y="-192" font-family="Helvetica,sans-Serif" font-size="10.00" fill="#000000">Framework/CompilerBuiltins.h</text>
</a>
</g>
</g>
<!-- Node1&#45;&gt;Node18 -->
<g id="edge23" class="edge">
<title>Node1&#45;&gt;Node18</title>
<path fill="none" stroke="#191970" d="M867.3549,-246.3906C906.3137,-235.6944 969.3643,-218.3836 1011.812,-206.7294"/>
<polygon fill="#191970" stroke="#191970" points="1012.8842,-210.0646 1021.6007,-204.0419 1011.0309,-203.3144 1012.8842,-210.0646"/>
</g>
<!-- Node19 -->
<g id="node20" class="node">
<title>Node19</title>
<g id="a_node20"><a xlink:href="../../d1/d76/RuntimeError_8h.html" target="_top" xlink:title="Framework/RuntimeError.h">
<polygon fill="none" stroke="#000000" points="1156.3549,-185 1156.3549,-204 1302.3549,-204 1302.3549,-185 1156.3549,-185"/>
<text text-anchor="middle" x="1229.3549" y="-192" font-family="Helvetica,sans-Serif" font-size="10.00" fill="#000000">Framework/RuntimeError.h</text>
</a>
</g>
</g>
<!-- Node1&#45;&gt;Node19 -->
<g id="edge25" class="edge">
<title>Node1&#45;&gt;Node19</title>
<path fill="none" stroke="#191970" d="M903.4843,-246.4776C967.4152,-237.7133 1063.8205,-223.9881 1147.3549,-210 1154.9907,-208.7214 1163.0117,-207.3012 1170.9243,-205.8542"/>
<polygon fill="#191970" stroke="#191970" points="1171.6564,-209.2782 1180.8518,-204.0157 1170.3817,-202.3953 1171.6564,-209.2782"/>
</g>
<!-- Node20 -->
<g id="node21" class="node">
<title>Node20</title>
<polygon fill="none" stroke="#bfbfbf" points="1320.3549,-185 1320.3549,-204 1370.3549,-204 1370.3549,-185 1320.3549,-185"/>
<text text-anchor="middle" x="1345.3549" y="-192" font-family="Helvetica,sans-Serif" font-size="10.00" fill="#000000">atomic</text>
</g>
<!-- Node1&#45;&gt;Node20 -->
<g id="edge33" class="edge">
<title>Node1&#45;&gt;Node20</title>
<path fill="none" stroke="#191970" d="M910.8798,-251.6224C1026.7987,-244.6226 1237.9206,-229.6718 1311.3549,-210 1313.5442,-209.4135 1315.7692,-208.6984 1317.9793,-207.9008"/>
<polygon fill="#191970" stroke="#191970" points="1319.5012,-211.0594 1327.4173,-204.0177 1316.8377,-204.5859 1319.5012,-211.0594"/>
</g>
<!-- Node21 -->
<g id="node22" class="node">
<title>Node21</title>
<polygon fill="none" stroke="#bfbfbf" points="1388.3549,-185 1388.3549,-204 1436.3549,-204 1436.3549,-185 1388.3549,-185"/>
<text text-anchor="middle" x="1412.3549" y="-192" font-family="Helvetica,sans-Serif" font-size="10.00" fill="#000000">mutex</text>
</g>
<!-- Node1&#45;&gt;Node21 -->
<g id="edge34" class="edge">
<title>Node1&#45;&gt;Node21</title>
<path fill="none" stroke="#191970" d="M910.8684,-252.8202C1040.4089,-247.0005 1293.1633,-233.0678 1379.3549,-210 1381.3268,-209.4722 1383.3256,-208.8315 1385.3133,-208.1145"/>
<polygon fill="#191970" stroke="#191970" points="1387.1099,-211.1567 1394.9819,-204.0657 1384.406,-204.7 1387.1099,-211.1567"/>
</g>
<!-- Node2&#45;&gt;Node3 -->
<g id="edge3" class="edge">
<title>Node2&#45;&gt;Node3</title>
<path fill="none" stroke="#191970" d="M335.2299,-117.8906C327.4907,-108.7376 315.6562,-94.7409 306.2278,-83.59"/>
<polygon fill="#191970" stroke="#191970" points="308.7238,-81.1213 299.5945,-75.7449 303.3785,-85.6409 308.7238,-81.1213"/>
</g>
<!-- Node4&#45;&gt;Node2 -->
<g id="edge5" class="edge">
<title>Node4&#45;&gt;Node2</title>
<path fill="none" stroke="#191970" d="M274.817,-184.9005C287.6487,-174.1539 308.656,-156.5603 324.0362,-143.6794"/>
<polygon fill="#191970" stroke="#191970" points="326.4949,-146.1856 331.9141,-137.0817 322.0004,-140.8191 326.4949,-146.1856"/>
</g>
<!-- Node4&#45;&gt;Node3 -->
<g id="edge7" class="edge">
<title>Node4&#45;&gt;Node3</title>
<path fill="none" stroke="#191970" d="M260.236,-184.5488C255.8037,-168.7366 249.0867,-137.0969 257.3549,-112 260.8605,-101.3594 267.879,-91.164 274.6336,-83.0877"/>
<polygon fill="#191970" stroke="#191970" points="277.3563,-85.2937 281.4187,-75.5087 272.1409,-80.6247 277.3563,-85.2937"/>
</g>
<!-- Node4&#45;&gt;Node5 -->
<g id="edge6" class="edge">
<title>Node4&#45;&gt;Node5</title>
<path fill="none" stroke="#191970" d="M295.7618,-184.9183C329.1476,-174.9225 382.6172,-158.5663 428.3549,-143 430.737,-142.1893 433.1884,-141.3357 435.6533,-140.4631"/>
<polygon fill="#191970" stroke="#191970" points="436.8901,-143.7378 445.1103,-137.0535 434.5159,-137.1527 436.8901,-143.7378"/>
</g>
<!-- Node6 -->
<g id="node7" class="node">
<title>Node6</title>
<polygon fill="none" stroke="#bfbfbf" points="15.8549,-118 15.8549,-137 62.8549,-137 62.8549,-118 15.8549,-118"/>
<text text-anchor="middle" x="39.3549" y="-125" font-family="Helvetica,sans-Serif" font-size="10.00" fill="#000000">vector</text>
</g>
<!-- Node4&#45;&gt;Node6 -->
<g id="edge8" class="edge">
<title>Node4&#45;&gt;Node6</title>
<path fill="none" stroke="#191970" d="M218.3776,-184.9733C178.9834,-176.0332 120.5131,-161.3107 71.3549,-143 69.9449,-142.4748 68.5133,-141.9091 67.077,-141.3153"/>
<polygon fill="#191970" stroke="#191970" points="68.2662,-138.0131 57.7089,-137.1224 65.4065,-144.4023 68.2662,-138.0131"/>
</g>
<!-- Node7 -->
<g id="node8" class="node">
<title>Node7</title>
<polygon fill="none" stroke="#bfbfbf" points="80.8549,-112.5 80.8549,-142.5 209.8549,-142.5 209.8549,-112.5 80.8549,-112.5"/>
<text text-anchor="start" x="88.8549" y="-130.5" font-family="Helvetica,sans-Serif" font-size="10.00" fill="#000000">boost/program_options</text>
<text text-anchor="middle" x="145.3549" y="-119.5" font-family="Helvetica,sans-Serif" font-size="10.00" fill="#000000">/variables_map.hpp</text>
</g>
<!-- Node4&#45;&gt;Node7 -->
<g id="edge9" class="edge">
<title>Node4&#45;&gt;Node7</title>
<path fill="none" stroke="#191970" d="M246.4484,-184.9005C229.3856,-175.2123 202.5221,-159.9593 180.7747,-147.6113"/>
<polygon fill="#191970" stroke="#191970" points="182.2353,-144.4158 171.8112,-142.5218 178.779,-150.503 182.2353,-144.4158"/>
</g>
<!-- Node8&#45;&gt;Node2 -->
<g id="edge11" class="edge">
<title>Node8&#45;&gt;Node2</title>
<path fill="none" stroke="#191970" d="M617.4857,-180.1268C553.301,-167.8048 462.0717,-150.2909 402.7967,-138.9115"/>
<polygon fill="#191970" stroke="#191970" points="403.3221,-135.4485 392.8415,-137.0003 402.0023,-142.323 403.3221,-135.4485"/>
</g>
<!-- Node8&#45;&gt;Node3 -->
<g id="edge19" class="edge">
<title>Node8&#45;&gt;Node3</title>
<path fill="none" stroke="#191970" d="M638.3038,-179.4493C611.0151,-170.7338 577.9373,-158.4199 550.3549,-143 531.028,-132.1953 531.3987,-121.4084 511.3549,-112 449.0277,-82.744 368.1019,-71.9643 323.8267,-68.0899"/>
<polygon fill="#191970" stroke="#191970" points="323.9034,-64.5847 313.6534,-67.2659 323.3382,-71.5619 323.9034,-64.5847"/>
</g>
<!-- Node8&#45;&gt;Node5 -->
<g id="edge18" class="edge">
<title>Node8&#45;&gt;Node5</title>
<path fill="none" stroke="#191970" d="M639.3802,-179.3934C604.6039,-169.3575 558.17,-155.7321 517.3549,-143 514.5867,-142.1365 511.7315,-141.2312 508.8603,-140.3103"/>
<polygon fill="#191970" stroke="#191970" points="509.7324,-136.9137 499.1404,-137.1564 507.5719,-143.5719 509.7324,-136.9137"/>
</g>
<!-- Node8&#45;&gt;Node9 -->
<g id="edge12" class="edge">
<title>Node8&#45;&gt;Node9</title>
<path fill="none" stroke="#191970" d="M679.4207,-179.2967C670.7123,-169.0605 659.2069,-155.5366 650.1363,-144.8746"/>
<polygon fill="#191970" stroke="#191970" points="652.6294,-142.4036 643.4838,-137.055 647.2978,-146.9395 652.6294,-142.4036"/>
</g>
<!-- Node8&#45;&gt;Node13 -->
<g id="edge16" class="edge">
<title>Node8&#45;&gt;Node13</title>
<path fill="none" stroke="#191970" d="M708.0121,-179.2967C718.7626,-168.8578 733.0344,-154.9997 744.1105,-144.2446"/>
<polygon fill="#191970" stroke="#191970" points="746.7787,-146.5323 751.5147,-137.055 741.9022,-141.5103 746.7787,-146.5323"/>
</g>
<!-- Node8&#45;&gt;Node14 -->
<g id="edge17" class="edge">
<title>Node8&#45;&gt;Node14</title>
<path fill="none" stroke="#191970" d="M725.7299,-179.2854C747.6208,-169.2052 776.8141,-155.571 802.3549,-143 803.1834,-142.5923 804.0234,-142.176 804.8705,-141.7539"/>
<polygon fill="#191970" stroke="#191970" points="806.6709,-144.7653 814.0085,-137.1227 803.5064,-138.5214 806.6709,-144.7653"/>
</g>
<!-- Node8&#45;&gt;Node15 -->
<g id="edge20" class="edge">
<title>Node8&#45;&gt;Node15</title>
<path fill="none" stroke="#191970" d="M744.2483,-179.4316C778.0121,-169.4671 822.9364,-155.9067 862.3549,-143 864.9358,-142.155 867.5955,-141.2654 870.269,-140.3574"/>
<polygon fill="#191970" stroke="#191970" points="871.5841,-143.6062 879.8954,-137.0356 869.3007,-136.989 871.5841,-143.6062"/>
</g>
<!-- Node8&#45;&gt;Node16 -->
<g id="edge21" class="edge">
<title>Node8&#45;&gt;Node16</title>
<path fill="none" stroke="#191970" d="M767.0043,-183.6529C819.0533,-175.1101 889.7526,-161.5386 950.3549,-143 952.5194,-142.3379 954.7306,-141.5941 956.9418,-140.8"/>
<polygon fill="#191970" stroke="#191970" points="958.435,-143.9749 966.4912,-137.094 955.9023,-137.4491 958.435,-143.9749"/>
</g>
<!-- Node8&#45;&gt;Node17 -->
<g id="edge22" class="edge">
<title>Node8&#45;&gt;Node17</title>
<path fill="none" stroke="#191970" d="M767.1205,-189.0769C835.5184,-182.6828 938.9107,-169.388 1025.3549,-143 1027.2165,-142.4317 1029.107,-141.7764 1030.9926,-141.063"/>
<polygon fill="#191970" stroke="#191970" points="1032.3839,-144.2747 1040.2233,-137.1477 1029.6505,-137.8305 1032.3839,-144.2747"/>
</g>
<!-- Node10 -->
<g id="node11" class="node">
<title>Node10</title>
<polygon fill="none" stroke="#bfbfbf" points="533.8549,-56.5 533.8549,-75.5 606.8549,-75.5 606.8549,-56.5 533.8549,-56.5"/>
<text text-anchor="middle" x="570.3549" y="-63.5" font-family="Helvetica,sans-Serif" font-size="10.00" fill="#000000">string_view</text>
</g>
<!-- Node9&#45;&gt;Node10 -->
<g id="edge13" class="edge">
<title>Node9&#45;&gt;Node10</title>
<path fill="none" stroke="#191970" d="M625.1987,-117.8906C615.335,-108.5581 600.1494,-94.1902 588.2562,-82.9374"/>
<polygon fill="#191970" stroke="#191970" points="590.3238,-80.0753 580.6544,-75.7449 585.5128,-85.1601 590.3238,-80.0753"/>
</g>
<!-- Node11 -->
<g id="node12" class="node">
<title>Node11</title>
<g id="a_node12"><a xlink:href="../../db/dff/StringHelpers_8h.html" target="_top" xlink:title="Framework/StringHelpers.h">
<polygon fill="none" stroke="#000000" points="624.8549,-56.5 624.8549,-75.5 773.8549,-75.5 773.8549,-56.5 624.8549,-56.5"/>
<text text-anchor="middle" x="699.3549" y="-63.5" font-family="Helvetica,sans-Serif" font-size="10.00" fill="#000000">Framework/StringHelpers.h</text>
</a>
</g>
</g>
<!-- Node9&#45;&gt;Node11 -->
<g id="edge14" class="edge">
<title>Node9&#45;&gt;Node11</title>
<path fill="none" stroke="#191970" d="M645.3549,-117.8906C655.0668,-108.5581 670.0188,-94.1902 681.729,-82.9374"/>
<polygon fill="#191970" stroke="#191970" points="684.4285,-85.1974 689.2139,-75.7449 679.5783,-80.15 684.4285,-85.1974"/>
</g>
<!-- Node12 -->
<g id="node13" class="node">
<title>Node12</title>
<polygon fill="none" stroke="#bfbfbf" points="674.3549,-.5 674.3549,-19.5 724.3549,-19.5 724.3549,-.5 674.3549,-.5"/>
<text text-anchor="middle" x="699.3549" y="-7.5" font-family="Helvetica,sans-Serif" font-size="10.00" fill="#000000">cstdint</text>
</g>
<!-- Node11&#45;&gt;Node12 -->
<g id="edge15" class="edge">
<title>Node11&#45;&gt;Node12</title>
<path fill="none" stroke="#191970" d="M699.3549,-56.2455C699.3549,-48.9382 699.3549,-38.6944 699.3549,-29.7046"/>
<polygon fill="#191970" stroke="#191970" points="702.855,-29.6426 699.3549,-19.6427 695.855,-29.6427 702.855,-29.6426"/>
</g>
</g>
</svg>
