<?xml version="1.0" encoding="UTF-8" standalone="no"?>
<!DOCTYPE svg PUBLIC "-//W3C//DTD SVG 1.1//EN"
 "http://www.w3.org/Graphics/SVG/1.1/DTD/svg11.dtd">
<!-- Generated by graphviz version 2.40.1 (20161225.0304)
 -->
<!-- Title: /home/travis/build/AliceO2Group/AliceO2/Framework/Core/include/Framework/RootConfigParamHelpers.h Pages: 1 -->
<svg width="767pt" height="240pt"
 viewBox="0.00 0.00 767.00 240.00" xmlns="http://www.w3.org/2000/svg" xmlns:xlink="http://www.w3.org/1999/xlink">
<g id="graph0" class="graph" transform="scale(1 1) rotate(0) translate(4 236)">
<title>/home/travis/build/AliceO2Group/AliceO2/Framework/Core/include/Framework/RootConfigParamHelpers.h</title>
<!-- Node0 -->
<g id="node1" class="node">
<title>Node0</title>
<polygon fill="#bfbfbf" stroke="#000000" points="345,-179.5 345,-231.5 551,-231.5 551,-179.5 345,-179.5"/>
<text text-anchor="start" x="353" y="-219.5" font-family="Helvetica,sans-Serif" font-size="10.00" fill="#000000">/home/travis/build</text>
<text text-anchor="start" x="353" y="-208.5" font-family="Helvetica,sans-Serif" font-size="10.00" fill="#000000">/AliceO2Group/AliceO2</text>
<text text-anchor="start" x="353" y="-197.5" font-family="Helvetica,sans-Serif" font-size="10.00" fill="#000000">/Framework/Core/include</text>
<text text-anchor="middle" x="448" y="-186.5" font-family="Helvetica,sans-Serif" font-size="10.00" fill="#000000">/Framework/RootConfigParamHelpers.h</text>
</g>
<!-- Node1 -->
<g id="node2" class="node">
<title>Node1</title>
<g id="a_node2"><a xlink:href="../../d0/d1c/ConfigParamSpec_8h.html" target="_top" xlink:title="Framework/ConfigParamSpec.h">
<polygon fill="none" stroke="#000000" points="299.5,-118 299.5,-137 466.5,-137 466.5,-118 299.5,-118"/>
<text text-anchor="middle" x="383" y="-125" font-family="Helvetica,sans-Serif" font-size="10.00" fill="#000000">Framework/ConfigParamSpec.h</text>
</a>
</g>
</g>
<!-- Node0&#45;&gt;Node1 -->
<g id="edge1" class="edge">
<title>Node0&#45;&gt;Node1</title>
<path fill="none" stroke="#191970" d="M425.994,-179.0928C416.5563,-167.7675 405.796,-154.8552 397.401,-144.7812"/>
<polygon fill="#191970" stroke="#191970" points="400.0772,-142.5254 390.9866,-137.0839 394.6997,-147.0068 400.0772,-142.5254"/>
</g>
<!-- Node3 -->
<g id="node4" class="node">
<title>Node3</title>
<g id="a_node4"><a xlink:href="../../d1/d76/RuntimeError_8h.html" target="_top" xlink:title="Framework/RuntimeError.h">
<polygon fill="none" stroke="#000000" points="0,-.5 0,-19.5 146,-19.5 146,-.5 0,-.5"/>
<text text-anchor="middle" x="73" y="-7.5" font-family="Helvetica,sans-Serif" font-size="10.00" fill="#000000">Framework/RuntimeError.h</text>
</a>
</g>
</g>
<!-- Node0&#45;&gt;Node3 -->
<g id="edge13" class="edge">
<title>Node0&#45;&gt;Node3</title>
<path fill="none" stroke="#191970" d="M347.9407,-179.4529C317.6076,-169.8441 284.7303,-157.6514 256,-143 190.4789,-109.5866 122.8924,-53.8889 91.3227,-26.3887"/>
<polygon fill="#191970" stroke="#191970" points="93.5698,-23.704 83.7493,-19.7279 88.9468,-28.9602 93.5698,-23.704"/>
</g>
<!-- Node4 -->
<g id="node5" class="node">
<title>Node4</title>
<polygon fill="none" stroke="#bfbfbf" points="164.5,-.5 164.5,-19.5 233.5,-19.5 233.5,-.5 164.5,-.5"/>
<text text-anchor="middle" x="199" y="-7.5" font-family="Helvetica,sans-Serif" font-size="10.00" fill="#000000">type_traits</text>
</g>
<!-- Node0&#45;&gt;Node4 -->
<g id="edge16" class="edge">
<title>Node0&#45;&gt;Node4</title>
<path fill="none" stroke="#191970" d="M355.2711,-179.3773C332.47,-170.2154 309.1344,-158.2753 290,-143 250.2742,-111.2862 221.1,-57.5962 207.5099,-29.0979"/>
<polygon fill="#191970" stroke="#191970" points="210.5948,-27.4301 203.2175,-19.8257 204.2424,-30.3709 210.5948,-27.4301"/>
</g>
<!-- Node12 -->
<g id="node13" class="node">
<title>Node12</title>
<polygon fill="none" stroke="#bfbfbf" points="484.5,-118 484.5,-137 541.5,-137 541.5,-118 484.5,-118"/>
<text text-anchor="middle" x="513" y="-125" font-family="Helvetica,sans-Serif" font-size="10.00" fill="#000000">TClass.h</text>
</g>
<!-- Node0&#45;&gt;Node12 -->
<g id="edge14" class="edge">
<title>Node0&#45;&gt;Node12</title>
<path fill="none" stroke="#191970" d="M470.006,-179.0928C479.4437,-167.7675 490.204,-154.8552 498.599,-144.7812"/>
<polygon fill="#191970" stroke="#191970" points="501.3003,-147.0068 505.0134,-137.0839 495.9228,-142.5254 501.3003,-147.0068"/>
</g>
<!-- Node13 -->
<g id="node14" class="node">
<title>Node13</title>
<polygon fill="none" stroke="#bfbfbf" points="559.5,-112.5 559.5,-142.5 672.5,-142.5 672.5,-112.5 559.5,-112.5"/>
<text text-anchor="start" x="567.5" y="-130.5" font-family="Helvetica,sans-Serif" font-size="10.00" fill="#000000">boost/property_tree</text>
<text text-anchor="middle" x="616" y="-119.5" font-family="Helvetica,sans-Serif" font-size="10.00" fill="#000000">/ptree_fwd.hpp</text>
</g>
<!-- Node0&#45;&gt;Node13 -->
<g id="edge15" class="edge">
<title>Node0&#45;&gt;Node13</title>
<path fill="none" stroke="#191970" d="M504.4089,-179.3101C527.2241,-168.7174 553.0941,-156.7063 574.1772,-146.9177"/>
<polygon fill="#191970" stroke="#191970" points="575.9028,-149.9754 583.499,-142.5897 572.955,-143.6264 575.9028,-149.9754"/>
</g>
<!-- Node14 -->
<g id="node15" class="node">
<title>Node14</title>
<polygon fill="none" stroke="#bfbfbf" points="690.5,-118 690.5,-137 747.5,-137 747.5,-118 690.5,-118"/>
<text text-anchor="middle" x="719" y="-125" font-family="Helvetica,sans-Serif" font-size="10.00" fill="#000000">typeinfo</text>
</g>
<!-- Node0&#45;&gt;Node14 -->
<g id="edge17" class="edge">
<title>Node0&#45;&gt;Node14</title>
<path fill="none" stroke="#191970" d="M551.1291,-181.1734C592.2239,-170.6468 639.7169,-157.4289 682,-143 684.0886,-142.2873 686.2271,-141.5135 688.371,-140.7047"/>
<polygon fill="#191970" stroke="#191970" points="689.6642,-143.9571 697.6682,-137.0155 687.0823,-137.4507 689.6642,-143.9571"/>
</g>
<!-- Node2 -->
<g id="node3" class="node">
<title>Node2</title>
<g id="a_node3"><a xlink:href="../../de/d56/Variant_8h.html" target="_top" xlink:title="Framework/Variant.h">
<polygon fill="none" stroke="#000000" points="349.5,-56.5 349.5,-75.5 466.5,-75.5 466.5,-56.5 349.5,-56.5"/>
<text text-anchor="middle" x="408" y="-63.5" font-family="Helvetica,sans-Serif" font-size="10.00" fill="#000000">Framework/Variant.h</text>
</a>
</g>
</g>
<!-- Node1&#45;&gt;Node2 -->
<g id="edge2" class="edge">
<title>Node1&#45;&gt;Node2</title>
<path fill="none" stroke="#191970" d="M386.9063,-117.8906C390.4446,-109.1862 395.7636,-96.1015 400.175,-85.2494"/>
<polygon fill="#191970" stroke="#191970" points="403.5152,-86.3268 404.0387,-75.7449 397.0305,-83.6907 403.5152,-86.3268"/>
</g>
<!-- Node11 -->
<g id="node12" class="node">
<title>Node11</title>
<polygon fill="none" stroke="#bfbfbf" points="715,-.5 715,-19.5 759,-19.5 759,-.5 715,-.5"/>
<text text-anchor="middle" x="737" y="-7.5" font-family="Helvetica,sans-Serif" font-size="10.00" fill="#000000">string</text>
</g>
<!-- Node1&#45;&gt;Node11 -->
<g id="edge12" class="edge">
<title>Node1&#45;&gt;Node11</title>
<path fill="none" stroke="#191970" d="M411.6694,-117.984C476.9562,-96.314 636.3324,-43.4137 704.8378,-20.6753"/>
<polygon fill="#191970" stroke="#191970" points="706.2562,-23.8923 714.6444,-17.4203 704.051,-17.2488 706.2562,-23.8923"/>
</g>
<!-- Node2&#45;&gt;Node3 -->
<g id="edge3" class="edge">
<title>Node2&#45;&gt;Node3</title>
<path fill="none" stroke="#191970" d="M350.7921,-56.4369C292.3754,-46.6717 201.7401,-31.5207 140.0034,-21.2006"/>
<polygon fill="#191970" stroke="#191970" points="140.4122,-17.7204 129.972,-19.5237 139.258,-24.6246 140.4122,-17.7204"/>
</g>
<!-- Node2&#45;&gt;Node4 -->
<g id="edge4" class="edge">
<title>Node2&#45;&gt;Node4</title>
<path fill="none" stroke="#191970" d="M372.0716,-56.3733C336.502,-46.8426 281.9555,-32.2273 243.6268,-21.9574"/>
<polygon fill="#191970" stroke="#191970" points="244.3302,-18.5225 233.7651,-19.315 242.5185,-25.284 244.3302,-18.5225"/>
</g>
<!-- Node5 -->
<g id="node6" class="node">
<title>Node5</title>
<polygon fill="none" stroke="#bfbfbf" points="511,-.5 511,-19.5 561,-19.5 561,-.5 511,-.5"/>
<text text-anchor="middle" x="536" y="-7.5" font-family="Helvetica,sans-Serif" font-size="10.00" fill="#000000">cstring</text>
</g>
<!-- Node2&#45;&gt;Node5 -->
<g id="edge5" class="edge">
<title>Node2&#45;&gt;Node5</title>
<path fill="none" stroke="#191970" d="M430.004,-56.3733C450.6435,-47.3435 481.7158,-33.7494 504.8889,-23.6111"/>
<polygon fill="#191970" stroke="#191970" points="506.5245,-26.7159 514.2831,-19.5011 503.7187,-20.3028 506.5245,-26.7159"/>
</g>
<!-- Node6 -->
<g id="node7" class="node">
<title>Node6</title>
<polygon fill="none" stroke="#bfbfbf" points="579,-.5 579,-19.5 629,-19.5 629,-.5 579,-.5"/>
<text text-anchor="middle" x="604" y="-7.5" font-family="Helvetica,sans-Serif" font-size="10.00" fill="#000000">cstdint</text>
</g>
<!-- Node2&#45;&gt;Node6 -->
<g id="edge6" class="edge">
<title>Node2&#45;&gt;Node6</title>
<path fill="none" stroke="#191970" d="M441.8465,-56.489C472.5893,-47.8281 519.4438,-34.5735 568.8463,-20.3168"/>
<polygon fill="#191970" stroke="#191970" points="570.1213,-23.5916 578.7567,-17.4531 568.1781,-16.8667 570.1213,-23.5916"/>
</g>
<!-- Node7 -->
<g id="node8" class="node">
<title>Node7</title>
<polygon fill="none" stroke="#bfbfbf" points="647.5,-.5 647.5,-19.5 696.5,-19.5 696.5,-.5 647.5,-.5"/>
<text text-anchor="middle" x="672" y="-7.5" font-family="Helvetica,sans-Serif" font-size="10.00" fill="#000000">cstdlib</text>
</g>
<!-- Node2&#45;&gt;Node7 -->
<g id="edge7" class="edge">
<title>Node2&#45;&gt;Node7</title>
<path fill="none" stroke="#191970" d="M462.6727,-56.4766C507.1795,-48.4043 571.8078,-35.9595 637.1248,-20.0513"/>
<polygon fill="#191970" stroke="#191970" points="638.3134,-23.3632 647.1867,-17.5741 636.6399,-16.5662 638.3134,-23.3632"/>
</g>
<!-- Node8 -->
<g id="node9" class="node">
<title>Node8</title>
<polygon fill="none" stroke="#bfbfbf" points="251.5,-.5 251.5,-19.5 300.5,-19.5 300.5,-.5 251.5,-.5"/>
<text text-anchor="middle" x="276" y="-7.5" font-family="Helvetica,sans-Serif" font-size="10.00" fill="#000000">iosfwd</text>
</g>
<!-- Node2&#45;&gt;Node8 -->
<g id="edge8" class="edge">
<title>Node2&#45;&gt;Node8</title>
<path fill="none" stroke="#191970" d="M385.3084,-56.3733C363.9289,-47.3032 331.6943,-33.6279 307.7638,-23.4755"/>
<polygon fill="#191970" stroke="#191970" points="308.9683,-20.1846 298.3955,-19.5011 306.2344,-26.6287 308.9683,-20.1846"/>
</g>
<!-- Node9 -->
<g id="node10" class="node">
<title>Node9</title>
<polygon fill="none" stroke="#bfbfbf" points="318.5,-.5 318.5,-19.5 401.5,-19.5 401.5,-.5 318.5,-.5"/>
<text text-anchor="middle" x="360" y="-7.5" font-family="Helvetica,sans-Serif" font-size="10.00" fill="#000000">initializer_list</text>
</g>
<!-- Node2&#45;&gt;Node9 -->
<g id="edge9" class="edge">
<title>Node2&#45;&gt;Node9</title>
<path fill="none" stroke="#191970" d="M399.639,-56.2455C392.825,-48.2958 383.0319,-36.8706 374.8848,-27.3656"/>
<polygon fill="#191970" stroke="#191970" points="377.4305,-24.9575 368.2651,-19.6427 372.1157,-29.513 377.4305,-24.9575"/>
</g>
<!-- Node10 -->
<g id="node11" class="node">
<title>Node10</title>
<polygon fill="none" stroke="#bfbfbf" points="419.5,-.5 419.5,-19.5 492.5,-19.5 492.5,-.5 419.5,-.5"/>
<text text-anchor="middle" x="456" y="-7.5" font-family="Helvetica,sans-Serif" font-size="10.00" fill="#000000">string_view</text>
</g>
<!-- Node2&#45;&gt;Node10 -->
<g id="edge10" class="edge">
<title>Node2&#45;&gt;Node10</title>
<path fill="none" stroke="#191970" d="M416.361,-56.2455C423.175,-48.2958 432.9681,-36.8706 441.1152,-27.3656"/>
<polygon fill="#191970" stroke="#191970" points="443.8843,-29.513 447.7349,-19.6427 438.5695,-24.9575 443.8843,-29.513"/>
</g>
<!-- Node2&#45;&gt;Node11 -->
<g id="edge11" class="edge">
<title>Node2&#45;&gt;Node11</title>
<path fill="none" stroke="#191970" d="M466.7738,-59.7236C525.0801,-52.8698 617.0456,-40.3724 704.9069,-19.9668"/>
<polygon fill="#191970" stroke="#191970" points="705.8405,-23.3427 714.7686,-17.6385 704.232,-16.53 705.8405,-23.3427"/>
</g>
</g>
</svg>
