<?xml version="1.0" encoding="UTF-8" standalone="no"?>
<!DOCTYPE svg PUBLIC "-//W3C//DTD SVG 1.1//EN"
 "http://www.w3.org/Graphics/SVG/1.1/DTD/svg11.dtd">
<!-- Generated by graphviz version 2.40.1 (20161225.0304)
 -->
<!-- Title: /home/travis/build/AliceO2Group/AliceO2/DataFormats/Detectors/FIT/FT0/include/DataFormatsFT0/RecPoints.h Pages: 1 -->
<!--zoomable 461 -->
<svg id="main" version="1.1" xmlns="http://www.w3.org/2000/svg" xmlns:xlink="http://www.w3.org/1999/xlink" xml:space="preserve" onload="init(evt)">
<style type="text/css"><![CDATA[
.edge:hover path { stroke: red; }
.edge:hover polygon { stroke: red; fill: red; }
]]></style>
<script type="text/javascript"><![CDATA[
var edges = document.getElementsByTagName('g');
if (edges && edges.length) {
  for (var i=0;i<edges.length;i++) {
    if (edges[i].id.substr(0,4)=='edge') {
      edges[i].setAttribute('class','edge');
    }
  }
}
]]></script>
        <defs>
                <circle id="rim" cx="0" cy="0" r="7"/>
                <circle id="rim2" cx="0" cy="0" r="3.5"/>
                <g id="zoomPlus">
                        <use xlink:href="#rim" fill="#404040">
                                <set attributeName="fill" to="#808080" begin="zoomplus.mouseover" end="zoomplus.mouseout"/>
                        </use>
                        <path d="M-4,0h8M0,-4v8" fill="none" stroke="white" stroke-width="1.5" pointer-events="none"/>
                </g>
                <g id="zoomMin">
                        <use xlink:href="#rim" fill="#404040">
                                <set attributeName="fill" to="#808080" begin="zoomminus.mouseover" end="zoomminus.mouseout"/>
                        </use>
                        <path d="M-4,0h8" fill="none" stroke="white" stroke-width="1.5" pointer-events="none"/>
                </g>
                <g id="dirArrow">
                        <path fill="none" stroke="white" stroke-width="1.5" d="M0,-3.0v7 M-2.5,-0.5L0,-3.0L2.5,-0.5"/>
                </g>
               <g id="resetDef">
                       <use xlink:href="#rim2" fill="#404040">
                               <set attributeName="fill" to="#808080" begin="reset.mouseover" end="reset.mouseout"/>
                       </use>
               </g>
        </defs>

<script type="text/javascript">
var viewWidth = 2637;
var viewHeight = 461;
var sectionId = 'dynsection-1';
</script>
<script xlink:href="../../svgpan.js"/>
<svg id="graph" class="graph">
<g id="viewport">
<title>/home/travis/build/AliceO2Group/AliceO2/DataFormats/Detectors/FIT/FT0/include/DataFormatsFT0/RecPoints.h</title>
<!-- Node20 -->
<g id="node1" class="node">
<title>Node20</title>
<polygon fill="#bfbfbf" stroke="#000000" points="708.5,-389.5 708.5,-452.5 884.5,-452.5 884.5,-389.5 708.5,-389.5"/>
<text text-anchor="start" x="716.5" y="-440.5" font-family="Helvetica,sans-Serif" font-size="10.00" fill="#000000">/home/travis/build</text>
<text text-anchor="start" x="716.5" y="-429.5" font-family="Helvetica,sans-Serif" font-size="10.00" fill="#000000">/AliceO2Group/AliceO2</text>
<text text-anchor="start" x="716.5" y="-418.5" font-family="Helvetica,sans-Serif" font-size="10.00" fill="#000000">/DataFormats/Detectors</text>
<text text-anchor="start" x="716.5" y="-407.5" font-family="Helvetica,sans-Serif" font-size="10.00" fill="#000000">/FIT/FT0/include/DataFormatsFT0</text>
<text text-anchor="middle" x="796.5" y="-396.5" font-family="Helvetica,sans-Serif" font-size="10.00" fill="#000000">/RecPoints.h</text>
</g>
<!-- Node21 -->
<g id="node2" class="node">
<title>Node21</title>
<g id="a_node2"><a xlink:href="../../d3/d21/RecPoints_8cxx.html" target="_top" xlink:title="/home/travis/build\l/AliceO2Group/AliceO2\l/DataFormats/Detectors\l/FIT/FT0/src/RecPoints.cxx">
<polygon fill="none" stroke="#000000" points="14.5,-295 14.5,-347 156.5,-347 156.5,-295 14.5,-295"/>
<text text-anchor="start" x="22.5" y="-335" font-family="Helvetica,sans-Serif" font-size="10.00" fill="#000000">/home/travis/build</text>
<text text-anchor="start" x="22.5" y="-324" font-family="Helvetica,sans-Serif" font-size="10.00" fill="#000000">/AliceO2Group/AliceO2</text>
<text text-anchor="start" x="22.5" y="-313" font-family="Helvetica,sans-Serif" font-size="10.00" fill="#000000">/DataFormats/Detectors</text>
<text text-anchor="middle" x="85.5" y="-302" font-family="Helvetica,sans-Serif" font-size="10.00" fill="#000000">/FIT/FT0/src/RecPoints.cxx</text>
</a>
</g>
</g>
<!-- Node20&#45;&gt;Node21 -->
<g id="edge1" class="edge">
<title>Node20&#45;&gt;Node21</title>
<path fill="none" stroke="#191970" d="M698.2211,-417.9582C573.8345,-412.3749 353.6996,-396.694 170.5,-353 163.598,-351.3538 156.496,-349.2976 149.4777,-347.0264"/>
<polygon fill="#191970" stroke="#191970" points="698.3386,-421.4665 708.4816,-418.4055 698.6436,-414.4732 698.3386,-421.4665"/>
</g>
<!-- Node22 -->
<g id="node3" class="node">
<title>Node22</title>
<g id="a_node3"><a xlink:href="../../d1/d6c/CollisionTimeRecoTask_8h.html" target="_top" xlink:title="Definition of the FDD reconstruction. ">
<polygon fill="none" stroke="#000000" points="213,-289.5 213,-352.5 430,-352.5 430,-289.5 213,-289.5"/>
<text text-anchor="start" x="221" y="-340.5" font-family="Helvetica,sans-Serif" font-size="10.00" fill="#000000">/home/travis/build</text>
<text text-anchor="start" x="221" y="-329.5" font-family="Helvetica,sans-Serif" font-size="10.00" fill="#000000">/AliceO2Group/AliceO2</text>
<text text-anchor="start" x="221" y="-318.5" font-family="Helvetica,sans-Serif" font-size="10.00" fill="#000000">/Detectors/FIT/FT0/reconstruction</text>
<text text-anchor="start" x="221" y="-307.5" font-family="Helvetica,sans-Serif" font-size="10.00" fill="#000000">/include/FT0Reconstruction/CollisionTime</text>
<text text-anchor="middle" x="321.5" y="-296.5" font-family="Helvetica,sans-Serif" font-size="10.00" fill="#000000">RecoTask.h</text>
</a>
</g>
</g>
<!-- Node20&#45;&gt;Node22 -->
<g id="edge2" class="edge">
<title>Node20&#45;&gt;Node22</title>
<path fill="none" stroke="#191970" d="M698.4161,-400.3508C620.2532,-383.8954 510.9028,-360.8743 430.1047,-343.8641"/>
<polygon fill="#191970" stroke="#191970" points="697.7628,-403.7899 708.2693,-402.4251 699.2049,-396.94 697.7628,-403.7899"/>
</g>
<!-- Node23 -->
<g id="node4" class="node">
<title>Node23</title>
<g id="a_node4"><a xlink:href="../../d9/d2f/CollisionTimeRecoTask_8cxx.html" target="_top" xlink:title="Implementation of the FIT reconstruction task. ">
<polygon fill="none" stroke="#000000" points="0,-200.5 0,-252.5 177,-252.5 177,-200.5 0,-200.5"/>
<text text-anchor="start" x="8" y="-240.5" font-family="Helvetica,sans-Serif" font-size="10.00" fill="#000000">/home/travis/build</text>
<text text-anchor="start" x="8" y="-229.5" font-family="Helvetica,sans-Serif" font-size="10.00" fill="#000000">/AliceO2Group/AliceO2</text>
<text text-anchor="start" x="8" y="-218.5" font-family="Helvetica,sans-Serif" font-size="10.00" fill="#000000">/Detectors/FIT/FT0/reconstruction</text>
<text text-anchor="middle" x="88.5" y="-207.5" font-family="Helvetica,sans-Serif" font-size="10.00" fill="#000000">/src/CollisionTimeRecoTask.cxx</text>
</a>
</g>
</g>
<!-- Node20&#45;&gt;Node23 -->
<g id="edge24" class="edge">
<title>Node20&#45;&gt;Node23</title>
<path fill="none" stroke="#191970" d="M698.1548,-414.4971C540.341,-403.3552 244.0636,-379.2628 203.5,-353 175.7315,-335.0214 187.1229,-314.0354 165.5,-289 154.0208,-275.7092 139.4651,-263.0874 126.1069,-252.7116"/>
<polygon fill="#191970" stroke="#191970" points="698.1248,-418.0035 708.3453,-415.2121 698.6149,-411.0207 698.1248,-418.0035"/>
</g>
<!-- Node24 -->
<g id="node5" class="node">
<title>Node24</title>
<g id="a_node5"><a xlink:href="../../d9/d69/ReconstructionSpec_8h.html" target="_top" xlink:title="/home/travis/build\l/AliceO2Group/AliceO2\l/Detectors/FIT/FT0/workflow\l/include/FT0Workflow/ReconstructionSpec.h">
<polygon fill="none" stroke="#000000" points="195,-200.5 195,-252.5 422,-252.5 422,-200.5 195,-200.5"/>
<text text-anchor="start" x="203" y="-240.5" font-family="Helvetica,sans-Serif" font-size="10.00" fill="#000000">/home/travis/build</text>
<text text-anchor="start" x="203" y="-229.5" font-family="Helvetica,sans-Serif" font-size="10.00" fill="#000000">/AliceO2Group/AliceO2</text>
<text text-anchor="start" x="203" y="-218.5" font-family="Helvetica,sans-Serif" font-size="10.00" fill="#000000">/Detectors/FIT/FT0/workflow</text>
<text text-anchor="middle" x="308.5" y="-207.5" font-family="Helvetica,sans-Serif" font-size="10.00" fill="#000000">/include/FT0Workflow/ReconstructionSpec.h</text>
</a>
</g>
</g>
<!-- Node20&#45;&gt;Node24 -->
<g id="edge25" class="edge">
<title>Node20&#45;&gt;Node24</title>
<path fill="none" stroke="#191970" d="M698.597,-398.2595C654.7081,-386.7699 602.7495,-371.3528 557.5,-353 501.8505,-330.429 492.0195,-316.2394 438.5,-289 414.285,-276.6755 387.2441,-263.571 364.1224,-252.5616"/>
<polygon fill="#191970" stroke="#191970" points="697.8522,-401.682 708.4102,-400.7985 699.6057,-394.9051 697.8522,-401.682"/>
</g>
<!-- Node27 -->
<g id="node8" class="node">
<title>Node27</title>
<g id="a_node8"><a xlink:href="../../da/d63/InteractionTag_8h.html" target="_top" xlink:title="/home/travis/build\l/AliceO2Group/AliceO2\l/Detectors/FIT/FT0/reconstruction\l/include/FT0Reconstruction/InteractionTag.h">
<polygon fill="none" stroke="#000000" points="611.5,-295 611.5,-347 839.5,-347 839.5,-295 611.5,-295"/>
<text text-anchor="start" x="619.5" y="-335" font-family="Helvetica,sans-Serif" font-size="10.00" fill="#000000">/home/travis/build</text>
<text text-anchor="start" x="619.5" y="-324" font-family="Helvetica,sans-Serif" font-size="10.00" fill="#000000">/AliceO2Group/AliceO2</text>
<text text-anchor="start" x="619.5" y="-313" font-family="Helvetica,sans-Serif" font-size="10.00" fill="#000000">/Detectors/FIT/FT0/reconstruction</text>
<text text-anchor="middle" x="725.5" y="-302" font-family="Helvetica,sans-Serif" font-size="10.00" fill="#000000">/include/FT0Reconstruction/InteractionTag.h</text>
</a>
</g>
</g>
<!-- Node20&#45;&gt;Node27 -->
<g id="edge7" class="edge">
<title>Node20&#45;&gt;Node27</title>
<path fill="none" stroke="#191970" d="M768.2241,-381.1749C760.0795,-369.7035 751.4051,-357.486 744.0154,-347.078"/>
<polygon fill="#191970" stroke="#191970" points="765.392,-383.2318 774.0352,-389.3594 771.0997,-379.1793 765.392,-383.2318"/>
</g>
<!-- Node29 -->
<g id="node10" class="node">
<title>Node29</title>
<g id="a_node10"><a xlink:href="../../d3/dac/MatchTPCITS_8h.html" target="_top" xlink:title="Class to perform TPC ITS matching. ">
<polygon fill="none" stroke="#000000" points="440,-200.5 440,-252.5 645,-252.5 645,-200.5 440,-200.5"/>
<text text-anchor="start" x="448" y="-240.5" font-family="Helvetica,sans-Serif" font-size="10.00" fill="#000000">/home/travis/build</text>
<text text-anchor="start" x="448" y="-229.5" font-family="Helvetica,sans-Serif" font-size="10.00" fill="#000000">/AliceO2Group/AliceO2</text>
<text text-anchor="start" x="448" y="-218.5" font-family="Helvetica,sans-Serif" font-size="10.00" fill="#000000">/Detectors/GlobalTracking</text>
<text text-anchor="middle" x="542.5" y="-207.5" font-family="Helvetica,sans-Serif" font-size="10.00" fill="#000000">/include/GlobalTracking/MatchTPCITS.h</text>
</a>
</g>
</g>
<!-- Node20&#45;&gt;Node29 -->
<g id="edge35" class="edge">
<title>Node20&#45;&gt;Node29</title>
<path fill="none" stroke="#191970" d="M698.3112,-402.7839C664.847,-392.6426 629.1867,-377.004 602.5,-353 572.5909,-326.0976 556.2768,-281.1095 548.4801,-252.6636"/>
<polygon fill="#191970" stroke="#191970" points="697.5675,-406.2122 708.1463,-405.6292 699.5129,-399.488 697.5675,-406.2122"/>
</g>
<!-- Node30 -->
<g id="node11" class="node">
<title>Node30</title>
<g id="a_node11"><a xlink:href="../../d0/d74/MatchTOF_8h.html" target="_top" xlink:title="Class to perform TOF matching to global tracks. ">
<polygon fill="none" stroke="#000000" points="627.5,-106 627.5,-158 815.5,-158 815.5,-106 627.5,-106"/>
<text text-anchor="start" x="635.5" y="-146" font-family="Helvetica,sans-Serif" font-size="10.00" fill="#000000">/home/travis/build</text>
<text text-anchor="start" x="635.5" y="-135" font-family="Helvetica,sans-Serif" font-size="10.00" fill="#000000">/AliceO2Group/AliceO2</text>
<text text-anchor="start" x="635.5" y="-124" font-family="Helvetica,sans-Serif" font-size="10.00" fill="#000000">/Detectors/GlobalTracking</text>
<text text-anchor="middle" x="721.5" y="-113" font-family="Helvetica,sans-Serif" font-size="10.00" fill="#000000">/include/GlobalTracking/MatchTOF.h</text>
</a>
</g>
</g>
<!-- Node20&#45;&gt;Node30 -->
<g id="edge34" class="edge">
<title>Node20&#45;&gt;Node30</title>
<path fill="none" stroke="#191970" d="M833.5551,-381.2547C839.691,-372.5332 845.1414,-362.921 848.5,-353 870.3047,-288.5907 883.4381,-258.3381 848.5,-200 837.5774,-181.7619 819.907,-168.1384 801.1739,-158.0757"/>
<polygon fill="#191970" stroke="#191970" points="830.7037,-379.2233 827.508,-389.3247 836.3055,-383.4209 830.7037,-379.2233"/>
</g>
<!-- Node32 -->
<g id="node13" class="node">
<title>Node32</title>
<g id="a_node13"><a xlink:href="../../d8/d84/RecoWorkflowSpec_8cxx.html" target="_top" xlink:title="/home/travis/build\l/AliceO2Group/AliceO2\l/Detectors/GlobalTrackingWorkflow\l/tofworkflow/src/RecoWorkflowSpec.cxx">
<polygon fill="none" stroke="#000000" points="513,-6 513,-58 722,-58 722,-6 513,-6"/>
<text text-anchor="start" x="521" y="-46" font-family="Helvetica,sans-Serif" font-size="10.00" fill="#000000">/home/travis/build</text>
<text text-anchor="start" x="521" y="-35" font-family="Helvetica,sans-Serif" font-size="10.00" fill="#000000">/AliceO2Group/AliceO2</text>
<text text-anchor="start" x="521" y="-24" font-family="Helvetica,sans-Serif" font-size="10.00" fill="#000000">/Detectors/GlobalTrackingWorkflow</text>
<text text-anchor="middle" x="617.5" y="-13" font-family="Helvetica,sans-Serif" font-size="10.00" fill="#000000">/tofworkflow/src/RecoWorkflowSpec.cxx</text>
</a>
</g>
</g>
<!-- Node20&#45;&gt;Node32 -->
<g id="edge36" class="edge">
<title>Node20&#45;&gt;Node32</title>
<path fill="none" stroke="#191970" d="M851.5309,-382.2752C860.0229,-373.6667 867.5904,-363.8351 872.5,-353 900.5662,-291.0606 888.8576,-266.2446 873.5,-200 862.3223,-151.7855 861.8302,-132.4968 824.5,-100 814.96,-91.6952 758.8847,-73.5066 707.504,-58.029"/>
<polygon fill="#191970" stroke="#191970" points="849.0632,-379.7917 844.2181,-389.2139 853.8814,-384.8697 849.0632,-379.7917"/>
</g>
<!-- Node33 -->
<g id="node14" class="node">
<title>Node33</title>
<g id="a_node14"><a xlink:href="../../d4/d76/RecoWorkflowWithTPCSpec_8cxx.html" target="_top" xlink:title="/home/travis/build\l/AliceO2Group/AliceO2\l/Detectors/GlobalTrackingWorkflow\l/tofworkflow/src/RecoWorkflowWithTPCSpec.cxx">
<polygon fill="none" stroke="#000000" points="740,-6 740,-58 991,-58 991,-6 740,-6"/>
<text text-anchor="start" x="748" y="-46" font-family="Helvetica,sans-Serif" font-size="10.00" fill="#000000">/home/travis/build</text>
<text text-anchor="start" x="748" y="-35" font-family="Helvetica,sans-Serif" font-size="10.00" fill="#000000">/AliceO2Group/AliceO2</text>
<text text-anchor="start" x="748" y="-24" font-family="Helvetica,sans-Serif" font-size="10.00" fill="#000000">/Detectors/GlobalTrackingWorkflow</text>
<text text-anchor="middle" x="865.5" y="-13" font-family="Helvetica,sans-Serif" font-size="10.00" fill="#000000">/tofworkflow/src/RecoWorkflowWithTPCSpec.cxx</text>
</a>
</g>
</g>
<!-- Node20&#45;&gt;Node33 -->
<g id="edge37" class="edge">
<title>Node20&#45;&gt;Node33</title>
<path fill="none" stroke="#191970" d="M890.7947,-383.5632C902.229,-375.1837 912.368,-365.0922 919.5,-353 976.6241,-256.1466 956.529,-206.1725 919.5,-100 914.0888,-84.4846 903.4959,-69.8538 893.1149,-58.1671"/>
<polygon fill="#191970" stroke="#191970" points="888.5639,-380.8476 882.2644,-389.3663 892.5013,-386.6354 888.5639,-380.8476"/>
</g>
<!-- Node38 -->
<g id="node19" class="node">
<title>Node38</title>
<g id="a_node19"><a xlink:href="../../d4/d02/PVertexer_8h.html" target="_top" xlink:title="Primary vertex finder. ">
<polygon fill="none" stroke="#000000" points="971.5,-200.5 971.5,-252.5 1143.5,-252.5 1143.5,-200.5 971.5,-200.5"/>
<text text-anchor="start" x="979.5" y="-240.5" font-family="Helvetica,sans-Serif" font-size="10.00" fill="#000000">/home/travis/build</text>
<text text-anchor="start" x="979.5" y="-229.5" font-family="Helvetica,sans-Serif" font-size="10.00" fill="#000000">/AliceO2Group/AliceO2</text>
<text text-anchor="start" x="979.5" y="-218.5" font-family="Helvetica,sans-Serif" font-size="10.00" fill="#000000">/Detectors/Vertexing/include</text>
<text text-anchor="middle" x="1057.5" y="-207.5" font-family="Helvetica,sans-Serif" font-size="10.00" fill="#000000">/DetectorsVertexing/PVertexer.h</text>
</a>
</g>
</g>
<!-- Node20&#45;&gt;Node38 -->
<g id="edge38" class="edge">
<title>Node20&#45;&gt;Node38</title>
<path fill="none" stroke="#191970" d="M894.1947,-389.0012C916.1892,-379.3456 938.5944,-367.3945 957.5,-353 994.1404,-325.1025 1024.9828,-280.8249 1042.3495,-252.7373"/>
<polygon fill="#191970" stroke="#191970" points="892.6346,-385.8614 884.8051,-392.9992 895.3769,-392.3019 892.6346,-385.8614"/>
</g>
<!-- Node43 -->
<g id="node24" class="node">
<title>Node43</title>
<g id="a_node24"><a xlink:href="../../db/d8e/FT0_2workflow_2include_2FT0Workflow_2RecPointReaderSpec_8h.html" target="_top" xlink:title="/home/travis/build\l/AliceO2Group/AliceO2\l/Detectors/FIT/FT0/workflow\l/include/FT0Workflow/RecPointReaderSpec.h">
<polygon fill="none" stroke="#000000" points="1813,-106 1813,-158 2044,-158 2044,-106 1813,-106"/>
<text text-anchor="start" x="1821" y="-146" font-family="Helvetica,sans-Serif" font-size="10.00" fill="#000000">/home/travis/build</text>
<text text-anchor="start" x="1821" y="-135" font-family="Helvetica,sans-Serif" font-size="10.00" fill="#000000">/AliceO2Group/AliceO2</text>
<text text-anchor="start" x="1821" y="-124" font-family="Helvetica,sans-Serif" font-size="10.00" fill="#000000">/Detectors/FIT/FT0/workflow</text>
<text text-anchor="middle" x="1928.5" y="-113" font-family="Helvetica,sans-Serif" font-size="10.00" fill="#000000">/include/FT0Workflow/RecPointReaderSpec.h</text>
</a>
</g>
</g>
<!-- Node20&#45;&gt;Node43 -->
<g id="edge26" class="edge">
<title>Node20&#45;&gt;Node43</title>
<path fill="none" stroke="#191970" d="M894.4588,-388.4167C928.0835,-377.2138 965.9465,-364.5784 1000.5,-353 1084.9892,-324.6888 1104.557,-312.532 1190.5,-289 1407.9658,-229.4559 1666.629,-179.007 1812.78,-152.3409"/>
<polygon fill="#191970" stroke="#191970" points="893.0137,-385.2089 884.6324,-391.69 895.226,-391.8501 893.0137,-385.2089"/>
</g>
<!-- Node48 -->
<g id="node29" class="node">
<title>Node48</title>
<g id="a_node29"><a xlink:href="../../d4/d66/FT0_2workflow_2src_2RecPointWriterSpec_8cxx.html" target="_top" xlink:title="/home/travis/build\l/AliceO2Group/AliceO2\l/Detectors/FIT/FT0/workflow\l/src/RecPointWriterSpec.cxx">
<polygon fill="none" stroke="#000000" points="1199.5,-295 1199.5,-347 1351.5,-347 1351.5,-295 1199.5,-295"/>
<text text-anchor="start" x="1207.5" y="-335" font-family="Helvetica,sans-Serif" font-size="10.00" fill="#000000">/home/travis/build</text>
<text text-anchor="start" x="1207.5" y="-324" font-family="Helvetica,sans-Serif" font-size="10.00" fill="#000000">/AliceO2Group/AliceO2</text>
<text text-anchor="start" x="1207.5" y="-313" font-family="Helvetica,sans-Serif" font-size="10.00" fill="#000000">/Detectors/FIT/FT0/workflow</text>
<text text-anchor="middle" x="1275.5" y="-302" font-family="Helvetica,sans-Serif" font-size="10.00" fill="#000000">/src/RecPointWriterSpec.cxx</text>
</a>
</g>
</g>
<!-- Node20&#45;&gt;Node48 -->
<g id="edge33" class="edge">
<title>Node20&#45;&gt;Node48</title>
<path fill="none" stroke="#191970" d="M894.6746,-408.5113C973.9244,-397.3153 1087.9019,-378.6851 1185.5,-353 1192.0753,-351.2696 1198.8529,-349.2726 1205.5994,-347.1389"/>
<polygon fill="#191970" stroke="#191970" points="894.1191,-405.0548 884.7006,-409.907 895.0892,-411.9873 894.1191,-405.0548"/>
</g>
<!-- Node22&#45;&gt;Node23 -->
<g id="edge3" class="edge">
<title>Node22&#45;&gt;Node23</title>
<path fill="none" stroke="#191970" d="M234.1421,-285.5694C207.1375,-274.6169 177.9006,-262.759 152.7579,-252.5617"/>
<polygon fill="#191970" stroke="#191970" points="233.0081,-288.8864 243.5904,-289.4015 235.6391,-282.3996 233.0081,-288.8864"/>
</g>
<!-- Node22&#45;&gt;Node24 -->
<g id="edge4" class="edge">
<title>Node22&#45;&gt;Node24</title>
<path fill="none" stroke="#191970" d="M315.756,-279.2457C314.5118,-270.2008 313.23,-260.8836 312.0965,-252.6442"/>
<polygon fill="#191970" stroke="#191970" points="312.3048,-279.8403 317.135,-289.27 319.2395,-278.8863 312.3048,-279.8403"/>
</g>
<!-- Node25 -->
<g id="node6" class="node">
<title>Node25</title>
<g id="a_node6"><a xlink:href="../../d1/d6b/ReconstructionSpec_8cxx.html" target="_top" xlink:title="/home/travis/build\l/AliceO2Group/AliceO2\l/Detectors/FIT/FT0/workflow\l/src/ReconstructionSpec.cxx">
<polygon fill="none" stroke="#000000" points="240.5,-106 240.5,-158 392.5,-158 392.5,-106 240.5,-106"/>
<text text-anchor="start" x="248.5" y="-146" font-family="Helvetica,sans-Serif" font-size="10.00" fill="#000000">/home/travis/build</text>
<text text-anchor="start" x="248.5" y="-135" font-family="Helvetica,sans-Serif" font-size="10.00" fill="#000000">/AliceO2Group/AliceO2</text>
<text text-anchor="start" x="248.5" y="-124" font-family="Helvetica,sans-Serif" font-size="10.00" fill="#000000">/Detectors/FIT/FT0/workflow</text>
<text text-anchor="middle" x="316.5" y="-113" font-family="Helvetica,sans-Serif" font-size="10.00" fill="#000000">/src/ReconstructionSpec.cxx</text>
</a>
</g>
</g>
<!-- Node24&#45;&gt;Node25 -->
<g id="edge5" class="edge">
<title>Node24&#45;&gt;Node25</title>
<path fill="none" stroke="#191970" d="M311.576,-190.1645C312.474,-179.5577 313.4376,-168.1746 314.2722,-158.3157"/>
<polygon fill="#191970" stroke="#191970" points="308.0633,-190.1677 310.7072,-200.4273 315.0384,-190.7582 308.0633,-190.1677"/>
</g>
<!-- Node26 -->
<g id="node7" class="node">
<title>Node26</title>
<g id="a_node7"><a xlink:href="../../d3/d63/FIT_2FT0_2workflow_2src_2RecoWorkflow_8cxx.html" target="_top" xlink:title="/home/travis/build\l/AliceO2Group/AliceO2\l/Detectors/FIT/FT0/workflow\l/src/RecoWorkflow.cxx">
<polygon fill="none" stroke="#000000" points="70.5,-106 70.5,-158 222.5,-158 222.5,-106 70.5,-106"/>
<text text-anchor="start" x="78.5" y="-146" font-family="Helvetica,sans-Serif" font-size="10.00" fill="#000000">/home/travis/build</text>
<text text-anchor="start" x="78.5" y="-135" font-family="Helvetica,sans-Serif" font-size="10.00" fill="#000000">/AliceO2Group/AliceO2</text>
<text text-anchor="start" x="78.5" y="-124" font-family="Helvetica,sans-Serif" font-size="10.00" fill="#000000">/Detectors/FIT/FT0/workflow</text>
<text text-anchor="middle" x="146.5" y="-113" font-family="Helvetica,sans-Serif" font-size="10.00" fill="#000000">/src/RecoWorkflow.cxx</text>
</a>
</g>
</g>
<!-- Node24&#45;&gt;Node26 -->
<g id="edge6" class="edge">
<title>Node24&#45;&gt;Node26</title>
<path fill="none" stroke="#191970" d="M255.1361,-195.3711C234.4789,-183.321 211.097,-169.6816 191.3311,-158.1515"/>
<polygon fill="#191970" stroke="#191970" points="253.4026,-198.4118 263.804,-200.4273 256.9297,-192.3653 253.4026,-198.4118"/>
</g>
<!-- Node28 -->
<g id="node9" class="node">
<title>Node28</title>
<g id="a_node9"><a xlink:href="../../d6/d6c/InteractionTag_8cxx.html" target="_top" xlink:title="/home/travis/build\l/AliceO2Group/AliceO2\l/Detectors/FIT/FT0/reconstruction\l/src/InteractionTag.cxx">
<polygon fill="none" stroke="#000000" points="663,-200.5 663,-252.5 840,-252.5 840,-200.5 663,-200.5"/>
<text text-anchor="start" x="671" y="-240.5" font-family="Helvetica,sans-Serif" font-size="10.00" fill="#000000">/home/travis/build</text>
<text text-anchor="start" x="671" y="-229.5" font-family="Helvetica,sans-Serif" font-size="10.00" fill="#000000">/AliceO2Group/AliceO2</text>
<text text-anchor="start" x="671" y="-218.5" font-family="Helvetica,sans-Serif" font-size="10.00" fill="#000000">/Detectors/FIT/FT0/reconstruction</text>
<text text-anchor="middle" x="751.5" y="-207.5" font-family="Helvetica,sans-Serif" font-size="10.00" fill="#000000">/src/InteractionTag.cxx</text>
</a>
</g>
</g>
<!-- Node27&#45;&gt;Node28 -->
<g id="edge8" class="edge">
<title>Node27&#45;&gt;Node28</title>
<path fill="none" stroke="#191970" d="M735.406,-284.9957C738.3501,-274.295 741.5189,-262.7773 744.2597,-252.8157"/>
<polygon fill="#191970" stroke="#191970" points="731.9517,-284.3571 732.6734,-294.9273 738.7009,-286.2141 731.9517,-284.3571"/>
</g>
<!-- Node27&#45;&gt;Node29 -->
<g id="edge9" class="edge">
<title>Node27&#45;&gt;Node29</title>
<path fill="none" stroke="#191970" d="M665.8429,-290.1935C642.3556,-278.0648 615.6701,-264.2845 593.1426,-252.6515"/>
<polygon fill="#191970" stroke="#191970" points="664.5188,-293.4488 675.01,-294.9273 667.7307,-287.2291 664.5188,-293.4488"/>
</g>
<!-- Node27&#45;&gt;Node38 -->
<g id="edge19" class="edge">
<title>Node27&#45;&gt;Node38</title>
<path fill="none" stroke="#191970" d="M826.8298,-292.1576C873.0228,-279.0093 927.135,-263.6069 971.3353,-251.0258"/>
<polygon fill="#191970" stroke="#191970" points="825.7591,-288.8233 817.0993,-294.9273 827.6755,-295.5559 825.7591,-288.8233"/>
</g>
<!-- Node29&#45;&gt;Node30 -->
<g id="edge10" class="edge">
<title>Node29&#45;&gt;Node30</title>
<path fill="none" stroke="#191970" d="M600.8531,-195.6935C623.8271,-183.5648 649.9293,-169.7845 671.9644,-158.1515"/>
<polygon fill="#191970" stroke="#191970" points="599.0956,-192.6634 591.8864,-200.4273 602.3637,-198.8537 599.0956,-192.6634"/>
</g>
<!-- Node31 -->
<g id="node12" class="node">
<title>Node31</title>
<g id="a_node12"><a xlink:href="../../db/d6a/MatchTOF_8cxx.html" target="_top" xlink:title="/home/travis/build\l/AliceO2Group/AliceO2\l/Detectors/GlobalTracking\l/src/MatchTOF.cxx">
<polygon fill="none" stroke="#000000" points="352.5,-6 352.5,-58 494.5,-58 494.5,-6 352.5,-6"/>
<text text-anchor="start" x="360.5" y="-46" font-family="Helvetica,sans-Serif" font-size="10.00" fill="#000000">/home/travis/build</text>
<text text-anchor="start" x="360.5" y="-35" font-family="Helvetica,sans-Serif" font-size="10.00" fill="#000000">/AliceO2Group/AliceO2</text>
<text text-anchor="start" x="360.5" y="-24" font-family="Helvetica,sans-Serif" font-size="10.00" fill="#000000">/Detectors/GlobalTracking</text>
<text text-anchor="middle" x="423.5" y="-13" font-family="Helvetica,sans-Serif" font-size="10.00" fill="#000000">/src/MatchTOF.cxx</text>
</a>
</g>
</g>
<!-- Node29&#45;&gt;Node31 -->
<g id="edge14" class="edge">
<title>Node29&#45;&gt;Node31</title>
<path fill="none" stroke="#191970" d="M487.9948,-194.3726C476.9184,-185.7141 466.2904,-175.5065 458.5,-164 436.6349,-131.705 428.4182,-86.4105 425.3377,-58.1576"/>
<polygon fill="#191970" stroke="#191970" points="485.9911,-197.2442 496.1051,-200.3999 490.1666,-191.6258 485.9911,-197.2442"/>
</g>
<!-- Node34 -->
<g id="node15" class="node">
<title>Node34</title>
<g id="a_node15"><a xlink:href="../../dc/d59/MatchTPCITS_8cxx.html" target="_top" xlink:title="/home/travis/build\l/AliceO2Group/AliceO2\l/Detectors/GlobalTracking\l/src/MatchTPCITS.cxx">
<polygon fill="none" stroke="#000000" points="467.5,-106 467.5,-158 609.5,-158 609.5,-106 467.5,-106"/>
<text text-anchor="start" x="475.5" y="-146" font-family="Helvetica,sans-Serif" font-size="10.00" fill="#000000">/home/travis/build</text>
<text text-anchor="start" x="475.5" y="-135" font-family="Helvetica,sans-Serif" font-size="10.00" fill="#000000">/AliceO2Group/AliceO2</text>
<text text-anchor="start" x="475.5" y="-124" font-family="Helvetica,sans-Serif" font-size="10.00" fill="#000000">/Detectors/GlobalTracking</text>
<text text-anchor="middle" x="538.5" y="-113" font-family="Helvetica,sans-Serif" font-size="10.00" fill="#000000">/src/MatchTPCITS.cxx</text>
</a>
</g>
</g>
<!-- Node29&#45;&gt;Node34 -->
<g id="edge15" class="edge">
<title>Node29&#45;&gt;Node34</title>
<path fill="none" stroke="#191970" d="M540.962,-190.1645C540.513,-179.5577 540.0312,-168.1746 539.6139,-158.3157"/>
<polygon fill="#191970" stroke="#191970" points="537.4765,-190.5843 541.3964,-200.4273 544.4703,-190.2882 537.4765,-190.5843"/>
</g>
<!-- Node35 -->
<g id="node16" class="node">
<title>Node35</title>
<g id="a_node16"><a xlink:href="../../da/d20/TPCITSMatchingSpec_8h.html" target="_top" xlink:title="/home/travis/build\l/AliceO2Group/AliceO2\l/Detectors/GlobalTrackingWorkflow\l/include/GlobalTrackingWorkflow\l/TPCITSMatchingSpec.h">
<polygon fill="none" stroke="#000000" points="984,-100.5 984,-163.5 1171,-163.5 1171,-100.5 984,-100.5"/>
<text text-anchor="start" x="992" y="-151.5" font-family="Helvetica,sans-Serif" font-size="10.00" fill="#000000">/home/travis/build</text>
<text text-anchor="start" x="992" y="-140.5" font-family="Helvetica,sans-Serif" font-size="10.00" fill="#000000">/AliceO2Group/AliceO2</text>
<text text-anchor="start" x="992" y="-129.5" font-family="Helvetica,sans-Serif" font-size="10.00" fill="#000000">/Detectors/GlobalTrackingWorkflow</text>
<text text-anchor="start" x="992" y="-118.5" font-family="Helvetica,sans-Serif" font-size="10.00" fill="#000000">/include/GlobalTrackingWorkflow</text>
<text text-anchor="middle" x="1077.5" y="-107.5" font-family="Helvetica,sans-Serif" font-size="10.00" fill="#000000">/TPCITSMatchingSpec.h</text>
</a>
</g>
</g>
<!-- Node29&#45;&gt;Node35 -->
<g id="edge16" class="edge">
<title>Node29&#45;&gt;Node35</title>
<path fill="none" stroke="#191970" d="M655.2121,-199.707C773.5948,-176.3969 899.865,-157.044 983.668,-144.9769"/>
<polygon fill="#191970" stroke="#191970" points="654.3763,-196.3045 645.2478,-201.6822 655.7375,-203.1709 654.3763,-196.3045"/>
</g>
<!-- Node30&#45;&gt;Node31 -->
<g id="edge11" class="edge">
<title>Node30&#45;&gt;Node31</title>
<path fill="none" stroke="#191970" d="M628.2683,-103.0071C570.5286,-85.0369 506.7401,-65.1514 503.5,-64 498.2847,-62.1467 492.9059,-60.1607 487.5196,-58.1191"/>
<polygon fill="#191970" stroke="#191970" points="627.2554,-106.3573 637.8437,-105.9869 629.3354,-99.6735 627.2554,-106.3573"/>
</g>
<!-- Node30&#45;&gt;Node32 -->
<g id="edge12" class="edge">
<title>Node30&#45;&gt;Node32</title>
<path fill="none" stroke="#191970" d="M687.0335,-98.8591C673.2956,-85.6496 657.7087,-70.6622 644.7791,-58.2299"/>
<polygon fill="#191970" stroke="#191970" points="684.8125,-101.579 694.4467,-105.9872 689.6642,-96.5332 684.8125,-101.579"/>
</g>
<!-- Node30&#45;&gt;Node33 -->
<g id="edge13" class="edge">
<title>Node30&#45;&gt;Node33</title>
<path fill="none" stroke="#191970" d="M767.4159,-100.114C786.9559,-86.5445 809.4596,-70.9169 827.9793,-58.0561"/>
<polygon fill="#191970" stroke="#191970" points="765.1757,-97.4084 758.9584,-105.9872 769.1685,-103.158 765.1757,-97.4084"/>
</g>
<!-- Node36 -->
<g id="node17" class="node">
<title>Node36</title>
<g id="a_node17"><a xlink:href="../../d5/db4/MatchTPCITSWorkflow_8cxx.html" target="_top" xlink:title="/home/travis/build\l/AliceO2Group/AliceO2\l/Detectors/GlobalTrackingWorkflow\l/src/MatchTPCITSWorkflow.cxx">
<polygon fill="none" stroke="#000000" points="1214,-6 1214,-58 1401,-58 1401,-6 1214,-6"/>
<text text-anchor="start" x="1222" y="-46" font-family="Helvetica,sans-Serif" font-size="10.00" fill="#000000">/home/travis/build</text>
<text text-anchor="start" x="1222" y="-35" font-family="Helvetica,sans-Serif" font-size="10.00" fill="#000000">/AliceO2Group/AliceO2</text>
<text text-anchor="start" x="1222" y="-24" font-family="Helvetica,sans-Serif" font-size="10.00" fill="#000000">/Detectors/GlobalTrackingWorkflow</text>
<text text-anchor="middle" x="1307.5" y="-13" font-family="Helvetica,sans-Serif" font-size="10.00" fill="#000000">/src/MatchTPCITSWorkflow.cxx</text>
</a>
</g>
</g>
<!-- Node35&#45;&gt;Node36 -->
<g id="edge17" class="edge">
<title>Node35&#45;&gt;Node36</title>
<path fill="none" stroke="#191970" d="M1159.2688,-96.4483C1188.3142,-83.8199 1220.4535,-69.8463 1247.3601,-58.1478"/>
<polygon fill="#191970" stroke="#191970" points="1157.7329,-93.2996 1149.9577,-100.4966 1160.524,-99.7191 1157.7329,-93.2996"/>
</g>
<!-- Node37 -->
<g id="node18" class="node">
<title>Node37</title>
<g id="a_node18"><a xlink:href="../../d6/d73/TPCITSMatchingSpec_8cxx.html" target="_top" xlink:title="/home/travis/build\l/AliceO2Group/AliceO2\l/Detectors/GlobalTrackingWorkflow\l/src/TPCITSMatchingSpec.cxx">
<polygon fill="none" stroke="#000000" points="1009,-6 1009,-58 1196,-58 1196,-6 1009,-6"/>
<text text-anchor="start" x="1017" y="-46" font-family="Helvetica,sans-Serif" font-size="10.00" fill="#000000">/home/travis/build</text>
<text text-anchor="start" x="1017" y="-35" font-family="Helvetica,sans-Serif" font-size="10.00" fill="#000000">/AliceO2Group/AliceO2</text>
<text text-anchor="start" x="1017" y="-24" font-family="Helvetica,sans-Serif" font-size="10.00" fill="#000000">/Detectors/GlobalTrackingWorkflow</text>
<text text-anchor="middle" x="1102.5" y="-13" font-family="Helvetica,sans-Serif" font-size="10.00" fill="#000000">/src/TPCITSMatchingSpec.cxx</text>
</a>
</g>
</g>
<!-- Node35&#45;&gt;Node37 -->
<g id="edge18" class="edge">
<title>Node35&#45;&gt;Node37</title>
<path fill="none" stroke="#191970" d="M1087.8752,-90.4993C1090.6196,-79.5216 1093.5048,-67.9808 1095.9805,-58.078"/>
<polygon fill="#191970" stroke="#191970" points="1084.4401,-89.809 1085.4102,-100.3594 1091.2311,-91.5068 1084.4401,-89.809"/>
</g>
<!-- Node39 -->
<g id="node20" class="node">
<title>Node39</title>
<g id="a_node20"><a xlink:href="../../d8/d11/PrimaryVertexingSpec_8h.html" target="_top" xlink:title="/home/travis/build\l/AliceO2Group/AliceO2\l/Detectors/GlobalTrackingWorkflow\l/include/GlobalTrackingWorkflow\l/PrimaryVertexingSpec.h">
<polygon fill="none" stroke="#000000" points="1419,-100.5 1419,-163.5 1606,-163.5 1606,-100.5 1419,-100.5"/>
<text text-anchor="start" x="1427" y="-151.5" font-family="Helvetica,sans-Serif" font-size="10.00" fill="#000000">/home/travis/build</text>
<text text-anchor="start" x="1427" y="-140.5" font-family="Helvetica,sans-Serif" font-size="10.00" fill="#000000">/AliceO2Group/AliceO2</text>
<text text-anchor="start" x="1427" y="-129.5" font-family="Helvetica,sans-Serif" font-size="10.00" fill="#000000">/Detectors/GlobalTrackingWorkflow</text>
<text text-anchor="start" x="1427" y="-118.5" font-family="Helvetica,sans-Serif" font-size="10.00" fill="#000000">/include/GlobalTrackingWorkflow</text>
<text text-anchor="middle" x="1512.5" y="-107.5" font-family="Helvetica,sans-Serif" font-size="10.00" fill="#000000">/PrimaryVertexingSpec.h</text>
</a>
</g>
</g>
<!-- Node38&#45;&gt;Node39 -->
<g id="edge20" class="edge">
<title>Node38&#45;&gt;Node39</title>
<path fill="none" stroke="#191970" d="M1153.6347,-200.8901C1154.9306,-200.5888 1156.2195,-200.2919 1157.5,-200 1206.0637,-188.9283 1330.9106,-165.4391 1418.7567,-149.1905"/>
<polygon fill="#191970" stroke="#191970" points="1152.5093,-197.56 1143.5899,-203.278 1154.1283,-204.3702 1152.5093,-197.56"/>
</g>
<!-- Node42 -->
<g id="node23" class="node">
<title>Node42</title>
<g id="a_node23"><a xlink:href="../../da/d7a/PVertexer_8cxx.html" target="_top" xlink:title="Primary vertex finder. ">
<polygon fill="none" stroke="#000000" points="1189.5,-106 1189.5,-158 1323.5,-158 1323.5,-106 1189.5,-106"/>
<text text-anchor="start" x="1197.5" y="-146" font-family="Helvetica,sans-Serif" font-size="10.00" fill="#000000">/home/travis/build</text>
<text text-anchor="start" x="1197.5" y="-135" font-family="Helvetica,sans-Serif" font-size="10.00" fill="#000000">/AliceO2Group/AliceO2</text>
<text text-anchor="start" x="1197.5" y="-124" font-family="Helvetica,sans-Serif" font-size="10.00" fill="#000000">/Detectors/Vertexing/src</text>
<text text-anchor="middle" x="1256.5" y="-113" font-family="Helvetica,sans-Serif" font-size="10.00" fill="#000000">/PVertexer.cxx</text>
</a>
</g>
</g>
<!-- Node38&#45;&gt;Node42 -->
<g id="edge23" class="edge">
<title>Node38&#45;&gt;Node42</title>
<path fill="none" stroke="#191970" d="M1121.6957,-196.0151C1147.3999,-183.8088 1176.7158,-169.8875 1201.4297,-158.1515"/>
<polygon fill="#191970" stroke="#191970" points="1119.9362,-192.976 1112.4044,-200.4273 1122.939,-199.2992 1119.9362,-192.976"/>
</g>
<!-- Node40 -->
<g id="node21" class="node">
<title>Node40</title>
<g id="a_node21"><a xlink:href="../../d2/dfc/primary-vertexing-workflow_8cxx.html" target="_top" xlink:title="/home/travis/build\l/AliceO2Group/AliceO2\l/Detectors/GlobalTrackingWorkflow\l/src/primary&#45;vertexing&#45;workflow.cxx">
<polygon fill="none" stroke="#000000" points="1624,-6 1624,-58 1817,-58 1817,-6 1624,-6"/>
<text text-anchor="start" x="1632" y="-46" font-family="Helvetica,sans-Serif" font-size="10.00" fill="#000000">/home/travis/build</text>
<text text-anchor="start" x="1632" y="-35" font-family="Helvetica,sans-Serif" font-size="10.00" fill="#000000">/AliceO2Group/AliceO2</text>
<text text-anchor="start" x="1632" y="-24" font-family="Helvetica,sans-Serif" font-size="10.00" fill="#000000">/Detectors/GlobalTrackingWorkflow</text>
<text text-anchor="middle" x="1720.5" y="-13" font-family="Helvetica,sans-Serif" font-size="10.00" fill="#000000">/src/primary&#45;vertexing&#45;workflow.cxx</text>
</a>
</g>
</g>
<!-- Node39&#45;&gt;Node40 -->
<g id="edge21" class="edge">
<title>Node39&#45;&gt;Node40</title>
<path fill="none" stroke="#191970" d="M1587.1303,-96.12C1613.2175,-83.5781 1641.9904,-69.745 1666.1126,-58.1478"/>
<polygon fill="#191970" stroke="#191970" points="1585.523,-93.0092 1578.027,-100.4966 1588.5561,-99.318 1585.523,-93.0092"/>
</g>
<!-- Node41 -->
<g id="node22" class="node">
<title>Node41</title>
<g id="a_node22"><a xlink:href="../../db/d2d/PrimaryVertexingSpec_8cxx.html" target="_top" xlink:title="/home/travis/build\l/AliceO2Group/AliceO2\l/Detectors/GlobalTrackingWorkflow\l/src/PrimaryVertexingSpec.cxx">
<polygon fill="none" stroke="#000000" points="1419,-6 1419,-58 1606,-58 1606,-6 1419,-6"/>
<text text-anchor="start" x="1427" y="-46" font-family="Helvetica,sans-Serif" font-size="10.00" fill="#000000">/home/travis/build</text>
<text text-anchor="start" x="1427" y="-35" font-family="Helvetica,sans-Serif" font-size="10.00" fill="#000000">/AliceO2Group/AliceO2</text>
<text text-anchor="start" x="1427" y="-24" font-family="Helvetica,sans-Serif" font-size="10.00" fill="#000000">/Detectors/GlobalTrackingWorkflow</text>
<text text-anchor="middle" x="1512.5" y="-13" font-family="Helvetica,sans-Serif" font-size="10.00" fill="#000000">/src/PrimaryVertexingSpec.cxx</text>
</a>
</g>
</g>
<!-- Node39&#45;&gt;Node41 -->
<g id="edge22" class="edge">
<title>Node39&#45;&gt;Node41</title>
<path fill="none" stroke="#191970" d="M1512.5,-90.1631C1512.5,-79.2863 1512.5,-67.8798 1512.5,-58.078"/>
<polygon fill="#191970" stroke="#191970" points="1509.0001,-90.3593 1512.5,-100.3594 1516.0001,-90.3594 1509.0001,-90.3593"/>
</g>
<!-- Node43&#45;&gt;Node36 -->
<g id="edge28" class="edge">
<title>Node43&#45;&gt;Node36</title>
<path fill="none" stroke="#191970" d="M1802.7633,-121.5523C1697.2167,-111.3405 1542.89,-93.0323 1410.5,-64 1402.6351,-62.2753 1394.5063,-60.2271 1386.4242,-58.0128"/>
<polygon fill="#191970" stroke="#191970" points="1802.5348,-125.0463 1812.8229,-122.5154 1803.202,-118.0782 1802.5348,-125.0463"/>
</g>
<!-- Node43&#45;&gt;Node40 -->
<g id="edge29" class="edge">
<title>Node43&#45;&gt;Node40</title>
<path fill="none" stroke="#191970" d="M1865.1977,-101.5662C1836.2922,-87.6693 1802.4069,-71.3783 1774.6966,-58.0561"/>
<polygon fill="#191970" stroke="#191970" points="1863.8643,-104.8086 1874.3934,-105.9872 1866.8974,-98.4998 1863.8643,-104.8086"/>
</g>
<!-- Node44 -->
<g id="node25" class="node">
<title>Node44</title>
<g id="a_node25"><a xlink:href="../../d8/df2/FT0_2workflow_2src_2RecPointReaderSpec_8cxx.html" target="_top" xlink:title="/home/travis/build\l/AliceO2Group/AliceO2\l/Detectors/FIT/FT0/workflow\l/src/RecPointReaderSpec.cxx">
<polygon fill="none" stroke="#000000" points="2472.5,-6 2472.5,-58 2628.5,-58 2628.5,-6 2472.5,-6"/>
<text text-anchor="start" x="2480.5" y="-46" font-family="Helvetica,sans-Serif" font-size="10.00" fill="#000000">/home/travis/build</text>
<text text-anchor="start" x="2480.5" y="-35" font-family="Helvetica,sans-Serif" font-size="10.00" fill="#000000">/AliceO2Group/AliceO2</text>
<text text-anchor="start" x="2480.5" y="-24" font-family="Helvetica,sans-Serif" font-size="10.00" fill="#000000">/Detectors/FIT/FT0/workflow</text>
<text text-anchor="middle" x="2550.5" y="-13" font-family="Helvetica,sans-Serif" font-size="10.00" fill="#000000">/src/RecPointReaderSpec.cxx</text>
</a>
</g>
</g>
<!-- Node43&#45;&gt;Node44 -->
<g id="edge27" class="edge">
<title>Node43&#45;&gt;Node44</title>
<path fill="none" stroke="#191970" d="M2054.2324,-124.0782C2163.5862,-115.2843 2325.6806,-97.6451 2463.5,-64 2470.3791,-62.3206 2477.4636,-60.2732 2484.4796,-58.0339"/>
<polygon fill="#191970" stroke="#191970" points="2053.8401,-120.5982 2044.1474,-124.8761 2054.3923,-127.5764 2053.8401,-120.5982"/>
</g>
<!-- Node45 -->
<g id="node26" class="node">
<title>Node45</title>
<g id="a_node26"><a xlink:href="../../de/d48/tof-matcher-global_8cxx.html" target="_top" xlink:title="/home/travis/build\l/AliceO2Group/AliceO2\l/Detectors/GlobalTrackingWorkflow\l/tofworkflow/src/tof&#45;matcher\l&#45;global.cxx">
<polygon fill="none" stroke="#000000" points="1835,-.5 1835,-63.5 2022,-63.5 2022,-.5 1835,-.5"/>
<text text-anchor="start" x="1843" y="-51.5" font-family="Helvetica,sans-Serif" font-size="10.00" fill="#000000">/home/travis/build</text>
<text text-anchor="start" x="1843" y="-40.5" font-family="Helvetica,sans-Serif" font-size="10.00" fill="#000000">/AliceO2Group/AliceO2</text>
<text text-anchor="start" x="1843" y="-29.5" font-family="Helvetica,sans-Serif" font-size="10.00" fill="#000000">/Detectors/GlobalTrackingWorkflow</text>
<text text-anchor="start" x="1843" y="-18.5" font-family="Helvetica,sans-Serif" font-size="10.00" fill="#000000">/tofworkflow/src/tof&#45;matcher</text>
<text text-anchor="middle" x="1928.5" y="-7.5" font-family="Helvetica,sans-Serif" font-size="10.00" fill="#000000">&#45;global.cxx</text>
</a>
</g>
</g>
<!-- Node43&#45;&gt;Node45 -->
<g id="edge30" class="edge">
<title>Node43&#45;&gt;Node45</title>
<path fill="none" stroke="#191970" d="M1928.5,-95.8138C1928.5,-85.2664 1928.5,-73.829 1928.5,-63.5891"/>
<polygon fill="#191970" stroke="#191970" points="1925.0001,-95.9872 1928.5,-105.9872 1932.0001,-95.9873 1925.0001,-95.9872"/>
</g>
<!-- Node46 -->
<g id="node27" class="node">
<title>Node46</title>
<g id="a_node27"><a xlink:href="../../da/d65/tof-matcher-tpc_8cxx.html" target="_top" xlink:title="/home/travis/build\l/AliceO2Group/AliceO2\l/Detectors/GlobalTrackingWorkflow\l/tofworkflow/src/tof&#45;matcher&#45;tpc.cxx">
<polygon fill="none" stroke="#000000" points="2040,-6 2040,-58 2233,-58 2233,-6 2040,-6"/>
<text text-anchor="start" x="2048" y="-46" font-family="Helvetica,sans-Serif" font-size="10.00" fill="#000000">/home/travis/build</text>
<text text-anchor="start" x="2048" y="-35" font-family="Helvetica,sans-Serif" font-size="10.00" fill="#000000">/AliceO2Group/AliceO2</text>
<text text-anchor="start" x="2048" y="-24" font-family="Helvetica,sans-Serif" font-size="10.00" fill="#000000">/Detectors/GlobalTrackingWorkflow</text>
<text text-anchor="middle" x="2136.5" y="-13" font-family="Helvetica,sans-Serif" font-size="10.00" fill="#000000">/tofworkflow/src/tof&#45;matcher&#45;tpc.cxx</text>
</a>
</g>
</g>
<!-- Node43&#45;&gt;Node46 -->
<g id="edge31" class="edge">
<title>Node43&#45;&gt;Node46</title>
<path fill="none" stroke="#191970" d="M1991.8023,-101.5662C2020.7078,-87.6693 2054.5931,-71.3783 2082.3034,-58.0561"/>
<polygon fill="#191970" stroke="#191970" points="1990.1026,-98.4998 1982.6066,-105.9872 1993.1357,-104.8086 1990.1026,-98.4998"/>
</g>
<!-- Node47 -->
<g id="node28" class="node">
<title>Node47</title>
<g id="a_node28"><a xlink:href="../../da/dfd/tof-reco-workflow_8cxx.html" target="_top" xlink:title="Basic DPL workflow for TOF reconstruction starting from digits. ">
<polygon fill="none" stroke="#000000" points="2251,-6 2251,-58 2454,-58 2454,-6 2251,-6"/>
<text text-anchor="start" x="2259" y="-46" font-family="Helvetica,sans-Serif" font-size="10.00" fill="#000000">/home/travis/build</text>
<text text-anchor="start" x="2259" y="-35" font-family="Helvetica,sans-Serif" font-size="10.00" fill="#000000">/AliceO2Group/AliceO2</text>
<text text-anchor="start" x="2259" y="-24" font-family="Helvetica,sans-Serif" font-size="10.00" fill="#000000">/Detectors/GlobalTrackingWorkflow</text>
<text text-anchor="middle" x="2352.5" y="-13" font-family="Helvetica,sans-Serif" font-size="10.00" fill="#000000">/tofworkflow/src/tof&#45;reco&#45;workflow.cxx</text>
</a>
</g>
</g>
<!-- Node43&#45;&gt;Node47 -->
<g id="edge32" class="edge">
<title>Node43&#45;&gt;Node47</title>
<path fill="none" stroke="#191970" d="M2054.039,-106.9079C2111.6756,-94.8515 2180.7826,-79.6395 2242.5,-64 2249.8262,-62.1435 2257.4012,-60.1331 2264.9896,-58.0553"/>
<polygon fill="#191970" stroke="#191970" points="2053.2302,-103.5011 2044.1548,-108.9681 2054.6586,-110.3539 2053.2302,-103.5011"/>
</g>
</g>
</svg>
        <g id="navigator" transform="translate(0 0)" fill="#404254">
                <rect fill="#f2f5e9" fill-opacity="0.5" stroke="#606060" stroke-width=".5" x="0" y="0" width="60" height="60"/>
                <use id="zoomplus" xlink:href="#zoomPlus" x="17" y="9" onmousedown="handleZoom(evt,'in')"/>
                <use id="zoomminus" xlink:href="#zoomMin" x="42" y="9" onmousedown="handleZoom(evt,'out')"/>
                <use id="reset" xlink:href="#resetDef" x="30" y="36" onmousedown="handleReset()"/>
                <g id="arrowUp" xlink:href="#dirArrow" transform="translate(30 24)" onmousedown="handlePan(0,-1)">
                  <use xlink:href="#rim" fill="#404040">
                        <set attributeName="fill" to="#808080" begin="arrowUp.mouseover" end="arrowUp.mouseout"/>
                  </use>
                  <path fill="none" stroke="white" stroke-width="1.5" d="M0,-3.0v7 M-2.5,-0.5L0,-3.0L2.5,-0.5"/>
                </g>
                <g id="arrowRight" xlink:href="#dirArrow" transform="rotate(90) translate(36 -43)" onmousedown="handlePan(1,0)">
                  <use xlink:href="#rim" fill="#404040">
                        <set attributeName="fill" to="#808080" begin="arrowRight.mouseover" end="arrowRight.mouseout"/>
                  </use>
                  <path fill="none" stroke="white" stroke-width="1.5" d="M0,-3.0v7 M-2.5,-0.5L0,-3.0L2.5,-0.5"/>
                </g>
                <g id="arrowDown" xlink:href="#dirArrow" transform="rotate(180) translate(-30 -48)" onmousedown="handlePan(0,1)">
                  <use xlink:href="#rim" fill="#404040">
                        <set attributeName="fill" to="#808080" begin="arrowDown.mouseover" end="arrowDown.mouseout"/>
                  </use>
                  <path fill="none" stroke="white" stroke-width="1.5" d="M0,-3.0v7 M-2.5,-0.5L0,-3.0L2.5,-0.5"/>
                </g>
                <g id="arrowLeft" xlink:href="#dirArrow" transform="rotate(270) translate(-36 17)" onmousedown="handlePan(-1,0)">
                  <use xlink:href="#rim" fill="#404040">
                        <set attributeName="fill" to="#808080" begin="arrowLeft.mouseover" end="arrowLeft.mouseout"/>
                  </use>
                  <path fill="none" stroke="white" stroke-width="1.5" d="M0,-3.0v7 M-2.5,-0.5L0,-3.0L2.5,-0.5"/>
                </g>
        </g>
        <svg viewBox="0 0 15 15" width="100%" height="30px" preserveAspectRatio="xMaxYMin meet">
         <g id="arrow_out" transform="scale(0.3 0.3)">
          <a xlink:href="RecPoints_8h__dep__incl_org.svg" target="_base">
           <rect id="button" ry="5" rx="5" y="6" x="6" height="38" width="38"
                fill="#f2f5e9" fill-opacity="0.5" stroke="#606060" stroke-width="1.0"/>
           <path id="arrow"
             d="M 11.500037,31.436501 C 11.940474,20.09759 22.043105,11.32322 32.158766,21.979434 L 37.068811,17.246167 C 37.068811,17.246167 37.088388,32 37.088388,32 L 22.160133,31.978069 C 22.160133,31.978069 26.997745,27.140456 26.997745,27.140456 C 18.528582,18.264221 13.291696,25.230495 11.500037,31.436501 z"
             style="fill:#404040;"/>
          </a>
         </g>
        </svg>
</svg>
