<?xml version="1.0" encoding="UTF-8" standalone="no"?>
<!DOCTYPE svg PUBLIC "-//W3C//DTD SVG 1.1//EN"
 "http://www.w3.org/Graphics/SVG/1.1/DTD/svg11.dtd">
<!-- Generated by graphviz version 2.40.1 (20161225.0304)
 -->
<!-- Title: /home/travis/build/AliceO2Group/AliceO2/Detectors/TPC/base/src/DigitPos.cxx Pages: 1 -->
<svg width="1426pt" height="587pt"
 viewBox="0.00 0.00 1425.50 587.00" xmlns="http://www.w3.org/2000/svg" xmlns:xlink="http://www.w3.org/1999/xlink">
<g id="graph0" class="graph" transform="scale(1 1) rotate(0) translate(4 583)">
<title>/home/travis/build/AliceO2Group/AliceO2/Detectors/TPC/base/src/DigitPos.cxx</title>
<!-- Node0 -->
<g id="node1" class="node">
<title>Node0</title>
<polygon fill="#bfbfbf" stroke="#000000" points="579.5,-526.5 579.5,-578.5 711.5,-578.5 711.5,-526.5 579.5,-526.5"/>
<text text-anchor="start" x="587.5" y="-566.5" font-family="Helvetica,sans-Serif" font-size="10.00" fill="#000000">/home/travis/build</text>
<text text-anchor="start" x="587.5" y="-555.5" font-family="Helvetica,sans-Serif" font-size="10.00" fill="#000000">/AliceO2Group/AliceO2</text>
<text text-anchor="start" x="587.5" y="-544.5" font-family="Helvetica,sans-Serif" font-size="10.00" fill="#000000">/Detectors/TPC/base/src</text>
<text text-anchor="middle" x="645.5" y="-533.5" font-family="Helvetica,sans-Serif" font-size="10.00" fill="#000000">/DigitPos.cxx</text>
</g>
<!-- Node1 -->
<g id="node2" class="node">
<title>Node1</title>
<g id="a_node2"><a xlink:href="../../d3/d54/DigitPos_8h.html" target="_top" xlink:title="TPCBase/DigitPos.h">
<polygon fill="none" stroke="#000000" points="398.5,-414.5 398.5,-433.5 510.5,-433.5 510.5,-414.5 398.5,-414.5"/>
<text text-anchor="middle" x="454.5" y="-421.5" font-family="Helvetica,sans-Serif" font-size="10.00" fill="#000000">TPCBase/DigitPos.h</text>
</a>
</g>
</g>
<!-- Node0&#45;&gt;Node1 -->
<g id="edge1" class="edge">
<title>Node0&#45;&gt;Node1</title>
<path fill="none" stroke="#191970" d="M606.8483,-526.4961C567.9572,-500.3312 509.2899,-460.8613 477.2929,-439.3345"/>
<polygon fill="#191970" stroke="#191970" points="478.8925,-436.1923 468.6417,-433.5142 474.985,-442.0002 478.8925,-436.1923"/>
</g>
<!-- Node23 -->
<g id="node24" class="node">
<title>Node23</title>
<g id="a_node24"><a xlink:href="../../d5/d1d/TPC_2base_2include_2TPCBase_2Mapper_8h.html" target="_top" xlink:title="TPCBase/Mapper.h">
<polygon fill="none" stroke="#000000" points="786,-470.5 786,-489.5 893,-489.5 893,-470.5 786,-470.5"/>
<text text-anchor="middle" x="839.5" y="-477.5" font-family="Helvetica,sans-Serif" font-size="10.00" fill="#000000">TPCBase/Mapper.h</text>
</a>
</g>
</g>
<!-- Node0&#45;&gt;Node23 -->
<g id="edge30" class="edge">
<title>Node0&#45;&gt;Node23</title>
<path fill="none" stroke="#191970" d="M711.7212,-527.7524C742.7302,-516.164 778.4208,-502.826 804.1865,-493.197"/>
<polygon fill="#191970" stroke="#191970" points="805.7464,-496.3506 813.8884,-489.5713 803.2959,-489.7935 805.7464,-496.3506"/>
</g>
<!-- Node2 -->
<g id="node3" class="node">
<title>Node2</title>
<g id="a_node3"><a xlink:href="../../d1/d73/Defs_8h.html" target="_top" xlink:title="Common definitions for 2D coordinates. ">
<polygon fill="none" stroke="#000000" points="667,-190.5 667,-209.5 800,-209.5 800,-190.5 667,-190.5"/>
<text text-anchor="middle" x="733.5" y="-197.5" font-family="Helvetica,sans-Serif" font-size="10.00" fill="#000000">DataFormatsTPC/Defs.h</text>
</a>
</g>
</g>
<!-- Node1&#45;&gt;Node2 -->
<g id="edge2" class="edge">
<title>Node1&#45;&gt;Node2</title>
<path fill="none" stroke="#191970" d="M410.4278,-414.4185C376.259,-405.9919 333.0069,-392.788 322.5,-378 288.5208,-330.1754 283.3915,-289.7298 322.5,-246 344.3147,-221.6075 543.4967,-208.6281 656.361,-203.1769"/>
<polygon fill="#191970" stroke="#191970" points="656.8479,-206.6578 666.6709,-202.6882 656.5164,-199.6657 656.8479,-206.6578"/>
</g>
<!-- Node17 -->
<g id="node18" class="node">
<title>Node17</title>
<g id="a_node18"><a xlink:href="../../df/d26/CRU_8h.html" target="_top" xlink:title="TPCBase/CRU.h">
<polygon fill="none" stroke="#000000" points="331.5,-358.5 331.5,-377.5 423.5,-377.5 423.5,-358.5 331.5,-358.5"/>
<text text-anchor="middle" x="377.5" y="-365.5" font-family="Helvetica,sans-Serif" font-size="10.00" fill="#000000">TPCBase/CRU.h</text>
</a>
</g>
</g>
<!-- Node1&#45;&gt;Node17 -->
<g id="edge18" class="edge">
<title>Node1&#45;&gt;Node17</title>
<path fill="none" stroke="#191970" d="M441.0876,-414.2455C429.4943,-405.814 412.5252,-393.4729 399.0322,-383.6598"/>
<polygon fill="#191970" stroke="#191970" points="400.9047,-380.6938 390.7587,-377.6427 396.7874,-386.355 400.9047,-380.6938"/>
</g>
<!-- Node21 -->
<g id="node22" class="node">
<title>Node21</title>
<g id="a_node22"><a xlink:href="../../de/d41/PadPos_8h.html" target="_top" xlink:title="TPCBase/PadPos.h">
<polygon fill="none" stroke="#000000" points="599.5,-302.5 599.5,-321.5 705.5,-321.5 705.5,-302.5 599.5,-302.5"/>
<text text-anchor="middle" x="652.5" y="-309.5" font-family="Helvetica,sans-Serif" font-size="10.00" fill="#000000">TPCBase/PadPos.h</text>
</a>
</g>
</g>
<!-- Node1&#45;&gt;Node21 -->
<g id="edge26" class="edge">
<title>Node1&#45;&gt;Node21</title>
<path fill="none" stroke="#191970" d="M453.9529,-414.4659C453.6838,-400.1731 455.4007,-373.2469 470.5,-358 479.3769,-349.0363 544.0921,-334.0885 593.8546,-323.674"/>
<polygon fill="#191970" stroke="#191970" points="594.8229,-327.0478 603.9035,-321.5896 593.401,-320.1937 594.8229,-327.0478"/>
</g>
<!-- Node22 -->
<g id="node23" class="node">
<title>Node22</title>
<g id="a_node23"><a xlink:href="../../dd/d0b/PadSecPos_8h.html" target="_top" xlink:title="TPCBase/PadSecPos.h">
<polygon fill="none" stroke="#000000" points="480,-358.5 480,-377.5 603,-377.5 603,-358.5 480,-358.5"/>
<text text-anchor="middle" x="541.5" y="-365.5" font-family="Helvetica,sans-Serif" font-size="10.00" fill="#000000">TPCBase/PadSecPos.h</text>
</a>
</g>
</g>
<!-- Node1&#45;&gt;Node22 -->
<g id="edge27" class="edge">
<title>Node1&#45;&gt;Node22</title>
<path fill="none" stroke="#191970" d="M469.6542,-414.2455C483.0027,-405.6534 502.6586,-393.0014 518.0383,-383.1018"/>
<polygon fill="#191970" stroke="#191970" points="520.0051,-385.9982 526.5194,-377.6427 516.2164,-380.1121 520.0051,-385.9982"/>
</g>
<!-- Node3 -->
<g id="node4" class="node">
<title>Node3</title>
<polygon fill="none" stroke="#bfbfbf" points="1120,-134.5 1120,-153.5 1167,-153.5 1167,-134.5 1120,-134.5"/>
<text text-anchor="middle" x="1143.5" y="-141.5" font-family="Helvetica,sans-Serif" font-size="10.00" fill="#000000">cmath</text>
</g>
<!-- Node2&#45;&gt;Node3 -->
<g id="edge3" class="edge">
<title>Node2&#45;&gt;Node3</title>
<path fill="none" stroke="#191970" d="M800.2861,-190.878C888.8106,-178.7868 1041.6986,-157.9046 1109.4668,-148.6484"/>
<polygon fill="#191970" stroke="#191970" points="1110.1551,-152.087 1119.5894,-147.2658 1109.2077,-145.1514 1110.1551,-152.087"/>
</g>
<!-- Node4 -->
<g id="node5" class="node">
<title>Node4</title>
<g id="a_node5"><a xlink:href="../../d1/da8/GPUROOTCartesianFwd_8h.html" target="_top" xlink:title="GPUROOTCartesianFwd.h">
<polygon fill="none" stroke="#000000" points="706.5,-134.5 706.5,-153.5 846.5,-153.5 846.5,-134.5 706.5,-134.5"/>
<text text-anchor="middle" x="776.5" y="-141.5" font-family="Helvetica,sans-Serif" font-size="10.00" fill="#000000">GPUROOTCartesianFwd.h</text>
</a>
</g>
</g>
<!-- Node2&#45;&gt;Node4 -->
<g id="edge4" class="edge">
<title>Node2&#45;&gt;Node4</title>
<path fill="none" stroke="#191970" d="M740.99,-190.2455C747.0326,-182.3761 755.6903,-171.101 762.9441,-161.6542"/>
<polygon fill="#191970" stroke="#191970" points="765.7815,-163.7058 769.0958,-153.6427 760.2295,-159.4426 765.7815,-163.7058"/>
</g>
<!-- Node5 -->
<g id="node6" class="node">
<title>Node5</title>
<g id="a_node6"><a xlink:href="../../d2/dd0/Cartesian2D_8h.html" target="_top" xlink:title="MathUtils/Cartesian2D.h">
<polygon fill="none" stroke="#000000" points="1123,-73 1123,-92 1258,-92 1258,-73 1123,-73"/>
<text text-anchor="middle" x="1190.5" y="-80" font-family="Helvetica,sans-Serif" font-size="10.00" fill="#000000">MathUtils/Cartesian2D.h</text>
</a>
</g>
</g>
<!-- Node2&#45;&gt;Node5 -->
<g id="edge5" class="edge">
<title>Node2&#45;&gt;Node5</title>
<path fill="none" stroke="#191970" d="M770.5111,-190.484C853.1536,-169.2357 1052.5807,-117.9606 1143.6856,-94.5365"/>
<polygon fill="#191970" stroke="#191970" points="1144.6494,-97.9026 1153.4628,-92.0227 1142.9063,-91.1231 1144.6494,-97.9026"/>
</g>
<!-- Node8 -->
<g id="node9" class="node">
<title>Node8</title>
<g id="a_node9"><a xlink:href="../../dd/d76/Cartesian3D_8h.html" target="_top" xlink:title="MathUtils/Cartesian3D.h">
<polygon fill="none" stroke="#000000" points="553,-134.5 553,-153.5 688,-153.5 688,-134.5 553,-134.5"/>
<text text-anchor="middle" x="620.5" y="-141.5" font-family="Helvetica,sans-Serif" font-size="10.00" fill="#000000">MathUtils/Cartesian3D.h</text>
</a>
</g>
</g>
<!-- Node2&#45;&gt;Node8 -->
<g id="edge8" class="edge">
<title>Node2&#45;&gt;Node8</title>
<path fill="none" stroke="#191970" d="M714.0746,-190.3733C696.0979,-181.4644 669.1559,-168.1127 648.791,-158.0203"/>
<polygon fill="#191970" stroke="#191970" points="650.1861,-154.8055 639.6719,-153.5011 647.0778,-161.0776 650.1861,-154.8055"/>
</g>
<!-- Node6 -->
<g id="node7" class="node">
<title>Node6</title>
<polygon fill="none" stroke="#bfbfbf" points="1010.5,-.5 1010.5,-30.5 1174.5,-30.5 1174.5,-.5 1010.5,-.5"/>
<text text-anchor="start" x="1018.5" y="-18.5" font-family="Helvetica,sans-Serif" font-size="10.00" fill="#000000">Math/GenVector/Displacement</text>
<text text-anchor="middle" x="1092.5" y="-7.5" font-family="Helvetica,sans-Serif" font-size="10.00" fill="#000000">Vector2D.h</text>
</g>
<!-- Node5&#45;&gt;Node6 -->
<g id="edge6" class="edge">
<title>Node5&#45;&gt;Node6</title>
<path fill="none" stroke="#191970" d="M1176.459,-72.9005C1162.5412,-63.3853 1140.772,-48.5023 1122.888,-36.2755"/>
<polygon fill="#191970" stroke="#191970" points="1124.7026,-33.2763 1114.4721,-30.5218 1120.7519,-39.0549 1124.7026,-33.2763"/>
</g>
<!-- Node7 -->
<g id="node8" class="node">
<title>Node7</title>
<polygon fill="none" stroke="#bfbfbf" points="1193,-6 1193,-25 1382,-25 1382,-6 1193,-6"/>
<text text-anchor="middle" x="1287.5" y="-13" font-family="Helvetica,sans-Serif" font-size="10.00" fill="#000000">Math/GenVector/PositionVector2D.h</text>
</g>
<!-- Node5&#45;&gt;Node7 -->
<g id="edge7" class="edge">
<title>Node5&#45;&gt;Node7</title>
<path fill="none" stroke="#191970" d="M1204.3977,-72.9005C1220.3164,-61.9052 1246.6121,-43.7422 1265.3599,-30.7927"/>
<polygon fill="#191970" stroke="#191970" points="1267.3892,-33.6448 1273.628,-25.0817 1263.4108,-27.8852 1267.3892,-33.6448"/>
</g>
<!-- Node8&#45;&gt;Node5 -->
<g id="edge17" class="edge">
<title>Node8&#45;&gt;Node5</title>
<path fill="none" stroke="#191970" d="M688.0866,-135.0562C691.2674,-134.6876 694.4175,-134.3334 697.5,-134 882.0039,-114.0451 929.8007,-124.3527 1113.5,-98 1121.2825,-96.8836 1129.4651,-95.4838 1137.473,-93.9849"/>
<polygon fill="#191970" stroke="#191970" points="1138.3273,-97.3846 1147.4795,-92.0473 1136.9965,-90.5123 1138.3273,-97.3846"/>
</g>
<!-- Node9 -->
<g id="node10" class="node">
<title>Node9</title>
<polygon fill="none" stroke="#bfbfbf" points="368.5,-67.5 368.5,-97.5 532.5,-97.5 532.5,-67.5 368.5,-67.5"/>
<text text-anchor="start" x="376.5" y="-85.5" font-family="Helvetica,sans-Serif" font-size="10.00" fill="#000000">Math/GenVector/Displacement</text>
<text text-anchor="middle" x="450.5" y="-74.5" font-family="Helvetica,sans-Serif" font-size="10.00" fill="#000000">Vector3D.h</text>
</g>
<!-- Node8&#45;&gt;Node9 -->
<g id="edge9" class="edge">
<title>Node8&#45;&gt;Node9</title>
<path fill="none" stroke="#191970" d="M593.9375,-134.3906C569.3323,-125.4893 532.0649,-112.0073 501.6839,-101.0165"/>
<polygon fill="#191970" stroke="#191970" points="502.6809,-97.6553 492.0867,-97.5446 500.2996,-104.2378 502.6809,-97.6553"/>
</g>
<!-- Node10 -->
<g id="node11" class="node">
<title>Node10</title>
<polygon fill="none" stroke="#bfbfbf" points="551,-73 551,-92 740,-92 740,-73 551,-73"/>
<text text-anchor="middle" x="645.5" y="-80" font-family="Helvetica,sans-Serif" font-size="10.00" fill="#000000">Math/GenVector/PositionVector3D.h</text>
</g>
<!-- Node8&#45;&gt;Node10 -->
<g id="edge10" class="edge">
<title>Node8&#45;&gt;Node10</title>
<path fill="none" stroke="#191970" d="M624.4063,-134.3906C627.9446,-125.6862 633.2636,-112.6015 637.675,-101.7494"/>
<polygon fill="#191970" stroke="#191970" points="641.0152,-102.8268 641.5387,-92.2449 634.5305,-100.1907 641.0152,-102.8268"/>
</g>
<!-- Node11 -->
<g id="node12" class="node">
<title>Node11</title>
<polygon fill="none" stroke="#bfbfbf" points="758.5,-73 758.5,-92 918.5,-92 918.5,-73 758.5,-73"/>
<text text-anchor="middle" x="838.5" y="-80" font-family="Helvetica,sans-Serif" font-size="10.00" fill="#000000">Math/GenVector/Rotation3D.h</text>
</g>
<!-- Node8&#45;&gt;Node11 -->
<g id="edge11" class="edge">
<title>Node8&#45;&gt;Node11</title>
<path fill="none" stroke="#191970" d="M654.5625,-134.3906C692.3977,-123.7169 753.5806,-106.4566 794.8885,-94.8033"/>
<polygon fill="#191970" stroke="#191970" points="796.0027,-98.1256 804.6767,-92.0419 794.102,-91.3886 796.0027,-98.1256"/>
</g>
<!-- Node12 -->
<g id="node13" class="node">
<title>Node12</title>
<polygon fill="none" stroke="#bfbfbf" points="936.5,-73 936.5,-92 1104.5,-92 1104.5,-73 936.5,-73"/>
<text text-anchor="middle" x="1020.5" y="-80" font-family="Helvetica,sans-Serif" font-size="10.00" fill="#000000">Math/GenVector/Transform3D.h</text>
</g>
<!-- Node8&#45;&gt;Node12 -->
<g id="edge12" class="edge">
<title>Node8&#45;&gt;Node12</title>
<path fill="none" stroke="#191970" d="M686.1244,-134.4854C748.3165,-125.3931 844.3262,-111.1615 927.5,-98 936.075,-96.6431 945.0889,-95.1831 953.9916,-93.721"/>
<polygon fill="#191970" stroke="#191970" points="954.6701,-97.1564 963.9666,-92.0747 953.5301,-90.2499 954.6701,-97.1564"/>
</g>
<!-- Node13 -->
<g id="node14" class="node">
<title>Node13</title>
<polygon fill="none" stroke="#bfbfbf" points="0,-73 0,-92 173,-92 173,-73 0,-73"/>
<text text-anchor="middle" x="86.5" y="-80" font-family="Helvetica,sans-Serif" font-size="10.00" fill="#000000">Math/GenVector/Translation3D.h</text>
</g>
<!-- Node8&#45;&gt;Node13 -->
<g id="edge13" class="edge">
<title>Node8&#45;&gt;Node13</title>
<path fill="none" stroke="#191970" d="M552.6719,-138.1086C466.2972,-130.3272 312.5225,-115.5385 181.5,-98 171.7483,-96.6946 161.4573,-95.1699 151.391,-93.5957"/>
<polygon fill="#191970" stroke="#191970" points="151.8533,-90.1253 141.4277,-92.0113 150.7539,-97.0385 151.8533,-90.1253"/>
</g>
<!-- Node14 -->
<g id="node15" class="node">
<title>Node14</title>
<polygon fill="none" stroke="#bfbfbf" points="191,-73 191,-92 250,-92 250,-73 191,-73"/>
<text text-anchor="middle" x="220.5" y="-80" font-family="Helvetica,sans-Serif" font-size="10.00" fill="#000000">Rtypes.h</text>
</g>
<!-- Node8&#45;&gt;Node14 -->
<g id="edge14" class="edge">
<title>Node8&#45;&gt;Node14</title>
<path fill="none" stroke="#191970" d="M552.6782,-140.4546C479.401,-135.4497 359.6769,-123.8482 259.5,-98 256.7221,-97.2832 253.8761,-96.4203 251.0487,-95.4731"/>
<polygon fill="#191970" stroke="#191970" points="252.2268,-92.1772 241.6332,-92.0179 249.8153,-98.7487 252.2268,-92.1772"/>
</g>
<!-- Node15 -->
<g id="node16" class="node">
<title>Node15</title>
<polygon fill="none" stroke="#bfbfbf" points="268.5,-73 268.5,-92 350.5,-92 350.5,-73 268.5,-73"/>
<text text-anchor="middle" x="309.5" y="-80" font-family="Helvetica,sans-Serif" font-size="10.00" fill="#000000">TGeoMatrix.h</text>
</g>
<!-- Node8&#45;&gt;Node15 -->
<g id="edge15" class="edge">
<title>Node8&#45;&gt;Node15</title>
<path fill="none" stroke="#191970" d="M552.9641,-134.4921C499.9818,-126.4583 424.5661,-113.7525 359.5,-98 355.6839,-97.0761 351.7318,-96.0226 347.7983,-94.9096"/>
<polygon fill="#191970" stroke="#191970" points="348.7287,-91.535 338.1469,-92.06 346.7465,-98.2485 348.7287,-91.535"/>
</g>
<!-- Node16 -->
<g id="node17" class="node">
<title>Node16</title>
<polygon fill="none" stroke="#bfbfbf" points="1292,-73 1292,-92 1341,-92 1341,-73 1292,-73"/>
<text text-anchor="middle" x="1316.5" y="-80" font-family="Helvetica,sans-Serif" font-size="10.00" fill="#000000">iosfwd</text>
</g>
<!-- Node8&#45;&gt;Node16 -->
<g id="edge16" class="edge">
<title>Node8&#45;&gt;Node16</title>
<path fill="none" stroke="#191970" d="M688.0775,-134.9671C691.2607,-134.6223 694.4138,-134.2975 697.5,-134 950.1666,-109.641 1017.9803,-144.6229 1267.5,-98 1272.291,-97.1048 1277.2683,-95.8859 1282.1344,-94.5222"/>
<polygon fill="#191970" stroke="#191970" points="1283.3128,-97.8225 1291.8711,-91.577 1281.286,-91.1223 1283.3128,-97.8225"/>
</g>
<!-- Node17&#45;&gt;Node2 -->
<g id="edge19" class="edge">
<title>Node17&#45;&gt;Node2</title>
<path fill="none" stroke="#191970" d="M390.6811,-358.4119C409.8214,-344.7582 446.7194,-319.4385 480.5,-302 554.0785,-264.0166 645.1672,-230.3377 695.5258,-212.8015"/>
<polygon fill="#191970" stroke="#191970" points="696.7299,-216.0886 705.0372,-209.513 694.4425,-209.4728 696.7299,-216.0886"/>
</g>
<!-- Node18 -->
<g id="node19" class="node">
<title>Node18</title>
<g id="a_node19"><a xlink:href="../../d3/dd6/Sector_8h.html" target="_top" xlink:title="TPCBase/Sector.h">
<polygon fill="none" stroke="#000000" points="332,-246.5 332,-265.5 433,-265.5 433,-246.5 332,-246.5"/>
<text text-anchor="middle" x="382.5" y="-253.5" font-family="Helvetica,sans-Serif" font-size="10.00" fill="#000000">TPCBase/Sector.h</text>
</a>
</g>
</g>
<!-- Node17&#45;&gt;Node18 -->
<g id="edge20" class="edge">
<title>Node17&#45;&gt;Node18</title>
<path fill="none" stroke="#191970" d="M377.9263,-358.4509C378.7418,-340.184 380.5377,-299.9553 381.6206,-275.6976"/>
<polygon fill="#191970" stroke="#191970" points="385.1252,-275.6711 382.0748,-265.5249 378.1322,-275.3588 385.1252,-275.6711"/>
</g>
<!-- Node20 -->
<g id="node21" class="node">
<title>Node20</title>
<g id="a_node21"><a xlink:href="../../dc/d14/ROC_8h.html" target="_top" xlink:title="TPCBase/ROC.h">
<polygon fill="none" stroke="#000000" points="489.5,-302.5 489.5,-321.5 581.5,-321.5 581.5,-302.5 489.5,-302.5"/>
<text text-anchor="middle" x="535.5" y="-309.5" font-family="Helvetica,sans-Serif" font-size="10.00" fill="#000000">TPCBase/ROC.h</text>
</a>
</g>
</g>
<!-- Node17&#45;&gt;Node20 -->
<g id="edge23" class="edge">
<title>Node17&#45;&gt;Node20</title>
<path fill="none" stroke="#191970" d="M404.6612,-358.3733C430.7067,-349.1419 470.2116,-335.1402 498.9979,-324.9375"/>
<polygon fill="#191970" stroke="#191970" points="500.437,-328.1408 508.6933,-321.5011 498.0985,-321.5429 500.437,-328.1408"/>
</g>
<!-- Node18&#45;&gt;Node2 -->
<g id="edge22" class="edge">
<title>Node18&#45;&gt;Node2</title>
<path fill="none" stroke="#191970" d="M433.1636,-247.9169C493.7478,-238.2511 595.4837,-222.0197 663.5379,-211.162"/>
<polygon fill="#191970" stroke="#191970" points="664.4185,-214.5659 673.7421,-209.534 663.3155,-207.6533 664.4185,-214.5659"/>
</g>
<!-- Node19 -->
<g id="node20" class="node">
<title>Node19</title>
<g id="a_node20"><a xlink:href="../../d0/dda/DataFormats_2Detectors_2TPC_2include_2DataFormatsTPC_2Constants_8h.html" target="_top" xlink:title="DataFormatsTPC/Constants.h">
<polygon fill="none" stroke="#000000" points="303,-190.5 303,-209.5 462,-209.5 462,-190.5 303,-190.5"/>
<text text-anchor="middle" x="382.5" y="-197.5" font-family="Helvetica,sans-Serif" font-size="10.00" fill="#000000">DataFormatsTPC/Constants.h</text>
</a>
</g>
</g>
<!-- Node18&#45;&gt;Node19 -->
<g id="edge21" class="edge">
<title>Node18&#45;&gt;Node19</title>
<path fill="none" stroke="#191970" d="M382.5,-246.2455C382.5,-238.9382 382.5,-228.6944 382.5,-219.7046"/>
<polygon fill="#191970" stroke="#191970" points="386.0001,-219.6426 382.5,-209.6427 379.0001,-219.6427 386.0001,-219.6426"/>
</g>
<!-- Node20&#45;&gt;Node2 -->
<g id="edge24" class="edge">
<title>Node20&#45;&gt;Node2</title>
<path fill="none" stroke="#191970" d="M552.3814,-302.4509C587.0858,-282.8201 666.6292,-237.8259 707.7826,-214.5472"/>
<polygon fill="#191970" stroke="#191970" points="709.6806,-217.4948 716.6614,-209.5249 706.2341,-211.402 709.6806,-217.4948"/>
</g>
<!-- Node20&#45;&gt;Node18 -->
<g id="edge25" class="edge">
<title>Node20&#45;&gt;Node18</title>
<path fill="none" stroke="#191970" d="M509.1984,-302.3733C484.0872,-293.1822 446.0562,-279.2624 418.2128,-269.0713"/>
<polygon fill="#191970" stroke="#191970" points="419.0522,-265.6516 408.4584,-265.5011 416.6462,-272.2251 419.0522,-265.6516"/>
</g>
<!-- Node22&#45;&gt;Node18 -->
<g id="edge28" class="edge">
<title>Node22&#45;&gt;Node18</title>
<path fill="none" stroke="#191970" d="M527.9437,-358.4509C500.3684,-339.0268 437.54,-294.7703 404.2056,-271.2895"/>
<polygon fill="#191970" stroke="#191970" points="406.2129,-268.4223 396.0219,-265.5249 402.1818,-274.1451 406.2129,-268.4223"/>
</g>
<!-- Node22&#45;&gt;Node21 -->
<g id="edge29" class="edge">
<title>Node22&#45;&gt;Node21</title>
<path fill="none" stroke="#191970" d="M560.5816,-358.3733C578.2402,-349.4644 604.7053,-336.1127 624.7098,-326.0203"/>
<polygon fill="#191970" stroke="#191970" points="626.3158,-329.1303 633.6674,-321.5011 623.1628,-322.8806 626.3158,-329.1303"/>
</g>
<!-- Node23&#45;&gt;Node1 -->
<g id="edge43" class="edge">
<title>Node23&#45;&gt;Node1</title>
<path fill="none" stroke="#191970" d="M785.9674,-472.2134C716.703,-462.1386 596.0408,-444.5878 520.9799,-433.6698"/>
<polygon fill="#191970" stroke="#191970" points="521.1009,-430.1506 510.7012,-432.1747 520.0933,-437.0778 521.1009,-430.1506"/>
</g>
<!-- Node23&#45;&gt;Node2 -->
<g id="edge36" class="edge">
<title>Node23&#45;&gt;Node2</title>
<path fill="none" stroke="#191970" d="M893.1646,-476.1046C985.0306,-468.9682 1164.6884,-452.7912 1186.5,-434 1209.6259,-414.0765 1205.5,-398.5246 1205.5,-368 1205.5,-368 1205.5,-368 1205.5,-312 1205.5,-231.7654 944.0331,-208.9221 810.3094,-202.4859"/>
<polygon fill="#191970" stroke="#191970" points="810.2758,-198.9807 800.125,-202.0155 809.9528,-205.9733 810.2758,-198.9807"/>
</g>
<!-- Node23&#45;&gt;Node3 -->
<g id="edge35" class="edge">
<title>Node23&#45;&gt;Node3</title>
<path fill="none" stroke="#191970" d="M893.3344,-475.9861C989.2429,-468.4393 1182.056,-451.329 1207.5,-434 1235.1167,-415.1914 1243.5,-401.4132 1243.5,-368 1243.5,-368 1243.5,-368 1243.5,-256 1243.5,-212.0606 1200.1447,-177.4269 1170.5285,-158.8942"/>
<polygon fill="#191970" stroke="#191970" points="1172.2145,-155.824 1161.8415,-153.6672 1168.6055,-161.8219 1172.2145,-155.824"/>
</g>
<!-- Node23&#45;&gt;Node5 -->
<g id="edge52" class="edge">
<title>Node23&#45;&gt;Node5</title>
<path fill="none" stroke="#191970" d="M893.1312,-478.9189C986.8899,-476.1852 1176.0072,-466.672 1232.5,-434 1264.1256,-415.7097 1281.5,-404.5338 1281.5,-368 1281.5,-368 1281.5,-368 1281.5,-200 1281.5,-155.7642 1240.6857,-118.0787 1213.7244,-98.0101"/>
<polygon fill="#191970" stroke="#191970" points="1215.6919,-95.1142 1205.5268,-92.1274 1211.6107,-100.8013 1215.6919,-95.1142"/>
</g>
<!-- Node23&#45;&gt;Node8 -->
<g id="edge53" class="edge">
<title>Node23&#45;&gt;Node8</title>
<path fill="none" stroke="#191970" d="M785.9243,-477.116C683.2245,-471.162 462.3746,-456.1835 389.5,-434 329.7745,-415.8192 265.5,-430.4314 265.5,-368 265.5,-368 265.5,-368 265.5,-256 265.5,-224.1361 268.2238,-209.4016 293.5,-190 331.4103,-160.9006 458.6355,-150.1933 542.7617,-146.2643"/>
<polygon fill="#191970" stroke="#191970" points="542.9639,-149.7588 552.7985,-145.8179 542.6528,-142.7657 542.9639,-149.7588"/>
</g>
<!-- Node23&#45;&gt;Node18 -->
<g id="edge51" class="edge">
<title>Node23&#45;&gt;Node18</title>
<path fill="none" stroke="#191970" d="M785.8518,-478.4347C682.4979,-474.7815 459.7819,-463.6349 389.5,-434 348.0082,-416.5047 310.6689,-401.4474 322.5,-358 331.3472,-325.5103 353.4595,-292.8132 368.2251,-273.4916"/>
<polygon fill="#191970" stroke="#191970" points="370.9954,-275.6308 374.4183,-265.6041 365.4897,-271.3078 370.9954,-275.6308"/>
</g>
<!-- Node23&#45;&gt;Node21 -->
<g id="edge37" class="edge">
<title>Node23&#45;&gt;Node21</title>
<path fill="none" stroke="#191970" d="M785.8614,-473.6698C737.4334,-466.7619 671.2743,-453.9476 654.5,-434 630.2948,-405.2158 638.7009,-357.679 646.1273,-331.2439"/>
<polygon fill="#191970" stroke="#191970" points="649.492,-332.2091 649.0533,-321.6233 642.7949,-330.1722 649.492,-332.2091"/>
</g>
<!-- Node23&#45;&gt;Node22 -->
<g id="edge38" class="edge">
<title>Node23&#45;&gt;Node22</title>
<path fill="none" stroke="#191970" d="M785.8955,-474.626C723.019,-467.5412 623.3148,-453.6344 591.5,-434 573.2364,-422.7287 559.2695,-402.1566 550.7994,-386.9656"/>
<polygon fill="#191970" stroke="#191970" points="553.7901,-385.1328 546.0372,-377.9118 547.5949,-388.3915 553.7901,-385.1328"/>
</g>
<!-- Node24 -->
<g id="node25" class="node">
<title>Node24</title>
<polygon fill="none" stroke="#bfbfbf" points="867.5,-414.5 867.5,-433.5 905.5,-433.5 905.5,-414.5 867.5,-414.5"/>
<text text-anchor="middle" x="886.5" y="-421.5" font-family="Helvetica,sans-Serif" font-size="10.00" fill="#000000">map</text>
</g>
<!-- Node23&#45;&gt;Node24 -->
<g id="edge31" class="edge">
<title>Node23&#45;&gt;Node24</title>
<path fill="none" stroke="#191970" d="M847.6868,-470.2455C854.3589,-462.2958 863.9479,-450.8706 871.9253,-441.3656"/>
<polygon fill="#191970" stroke="#191970" points="874.6592,-443.5525 878.407,-433.6427 869.2974,-439.0524 874.6592,-443.5525"/>
</g>
<!-- Node25 -->
<g id="node26" class="node">
<title>Node25</title>
<polygon fill="none" stroke="#bfbfbf" points="882,-358.5 882,-377.5 929,-377.5 929,-358.5 882,-358.5"/>
<text text-anchor="middle" x="905.5" y="-365.5" font-family="Helvetica,sans-Serif" font-size="10.00" fill="#000000">vector</text>
</g>
<!-- Node23&#45;&gt;Node25 -->
<g id="edge32" class="edge">
<title>Node23&#45;&gt;Node25</title>
<path fill="none" stroke="#191970" d="M840.6867,-470.4278C842.6844,-457.0133 847.6202,-432.2235 858.5,-414 865.2901,-402.6267 875.5786,-392.1144 884.8001,-384.0187"/>
<polygon fill="#191970" stroke="#191970" points="887.09,-386.6662 892.5144,-377.5653 882.5986,-381.2972 887.09,-386.6662"/>
</g>
<!-- Node26 -->
<g id="node27" class="node">
<title>Node26</title>
<polygon fill="none" stroke="#bfbfbf" points="923.5,-414.5 923.5,-433.5 965.5,-433.5 965.5,-414.5 923.5,-414.5"/>
<text text-anchor="middle" x="944.5" y="-421.5" font-family="Helvetica,sans-Serif" font-size="10.00" fill="#000000">array</text>
</g>
<!-- Node23&#45;&gt;Node26 -->
<g id="edge33" class="edge">
<title>Node23&#45;&gt;Node26</title>
<path fill="none" stroke="#191970" d="M857.7896,-470.2455C874.2762,-461.4527 898.7352,-448.4079 917.4765,-438.4125"/>
<polygon fill="#191970" stroke="#191970" points="919.2435,-441.4368 926.42,-433.6427 915.9494,-435.2604 919.2435,-441.4368"/>
</g>
<!-- Node27 -->
<g id="node28" class="node">
<title>Node27</title>
<polygon fill="none" stroke="#bfbfbf" points="983.5,-414.5 983.5,-433.5 1027.5,-433.5 1027.5,-414.5 983.5,-414.5"/>
<text text-anchor="middle" x="1005.5" y="-421.5" font-family="Helvetica,sans-Serif" font-size="10.00" fill="#000000">string</text>
</g>
<!-- Node23&#45;&gt;Node27 -->
<g id="edge34" class="edge">
<title>Node23&#45;&gt;Node27</title>
<path fill="none" stroke="#191970" d="M868.0364,-470.3733C897.4357,-460.4554 943.1574,-445.0313 973.6999,-434.7278"/>
<polygon fill="#191970" stroke="#191970" points="975.0738,-437.9581 983.4304,-431.4452 972.8362,-431.3254 975.0738,-437.9581"/>
</g>
<!-- Node28 -->
<g id="node29" class="node">
<title>Node28</title>
<g id="a_node29"><a xlink:href="../../da/d61/PadROCPos_8h.html" target="_top" xlink:title="TPCBase/PadROCPos.h">
<polygon fill="none" stroke="#000000" points="660,-358.5 660,-377.5 787,-377.5 787,-358.5 660,-358.5"/>
<text text-anchor="middle" x="723.5" y="-365.5" font-family="Helvetica,sans-Serif" font-size="10.00" fill="#000000">TPCBase/PadROCPos.h</text>
</a>
</g>
</g>
<!-- Node23&#45;&gt;Node28 -->
<g id="edge39" class="edge">
<title>Node23&#45;&gt;Node28</title>
<path fill="none" stroke="#191970" d="M785.6158,-473.2588C739.2644,-466.2222 677.5528,-453.4648 662.5,-434 647.9868,-415.2329 672.233,-395.4761 694.3164,-382.5257"/>
<polygon fill="#191970" stroke="#191970" points="696.1733,-385.498 703.214,-377.5809 692.7729,-379.3794 696.1733,-385.498"/>
</g>
<!-- Node29 -->
<g id="node30" class="node">
<title>Node29</title>
<g id="a_node30"><a xlink:href="../../d1/d1f/FECInfo_8h.html" target="_top" xlink:title="TPCBase/FECInfo.h">
<polygon fill="none" stroke="#000000" points="1309.5,-246.5 1309.5,-265.5 1417.5,-265.5 1417.5,-246.5 1309.5,-246.5"/>
<text text-anchor="middle" x="1363.5" y="-253.5" font-family="Helvetica,sans-Serif" font-size="10.00" fill="#000000">TPCBase/FECInfo.h</text>
</a>
</g>
</g>
<!-- Node23&#45;&gt;Node29 -->
<g id="edge44" class="edge">
<title>Node23&#45;&gt;Node29</title>
<path fill="none" stroke="#191970" d="M893.0053,-477.7323C1006.6052,-472.4729 1264.1033,-458.0273 1295.5,-434 1346.2109,-395.1918 1359.1089,-313.7051 1362.3859,-275.9663"/>
<polygon fill="#191970" stroke="#191970" points="1365.8939,-275.981 1363.1252,-265.7544 1358.9121,-275.4755 1365.8939,-275.981"/>
</g>
<!-- Node30 -->
<g id="node31" class="node">
<title>Node30</title>
<g id="a_node31"><a xlink:href="../../da/d9d/PadRegionInfo_8h.html" target="_top" xlink:title="TPCBase/PadRegionInfo.h">
<polygon fill="none" stroke="#000000" points="671.5,-414.5 671.5,-433.5 811.5,-433.5 811.5,-414.5 671.5,-414.5"/>
<text text-anchor="middle" x="741.5" y="-421.5" font-family="Helvetica,sans-Serif" font-size="10.00" fill="#000000">TPCBase/PadRegionInfo.h</text>
</a>
</g>
</g>
<!-- Node23&#45;&gt;Node30 -->
<g id="edge46" class="edge">
<title>Node23&#45;&gt;Node30</title>
<path fill="none" stroke="#191970" d="M822.4297,-470.2455C807.253,-461.5731 784.8379,-448.7645 767.4437,-438.825"/>
<polygon fill="#191970" stroke="#191970" points="768.7936,-435.5653 758.3747,-433.6427 765.3206,-441.643 768.7936,-435.5653"/>
</g>
<!-- Node31 -->
<g id="node32" class="node">
<title>Node31</title>
<g id="a_node32"><a xlink:href="../../d6/d42/PartitionInfo_8h.html" target="_top" xlink:title="TPCBase/PartitionInfo.h">
<polygon fill="none" stroke="#000000" points="1046,-414.5 1046,-433.5 1177,-433.5 1177,-414.5 1046,-414.5"/>
<text text-anchor="middle" x="1111.5" y="-421.5" font-family="Helvetica,sans-Serif" font-size="10.00" fill="#000000">TPCBase/PartitionInfo.h</text>
</a>
</g>
</g>
<!-- Node23&#45;&gt;Node31 -->
<g id="edge50" class="edge">
<title>Node23&#45;&gt;Node31</title>
<path fill="none" stroke="#191970" d="M885.9494,-470.4369C932.7935,-460.7925 1005.1539,-445.8948 1055.2262,-435.5858"/>
<polygon fill="#191970" stroke="#191970" points="1056.1534,-438.9684 1065.2422,-433.5237 1054.7418,-432.1122 1056.1534,-438.9684"/>
</g>
<!-- Node28&#45;&gt;Node2 -->
<g id="edge40" class="edge">
<title>Node28&#45;&gt;Node2</title>
<path fill="none" stroke="#191970" d="M724.0663,-358.4862C725.6471,-331.9293 730.133,-256.5651 732.2997,-220.1655"/>
<polygon fill="#191970" stroke="#191970" points="735.8145,-220.0182 732.915,-209.8279 728.8269,-219.6022 735.8145,-220.0182"/>
</g>
<!-- Node28&#45;&gt;Node20 -->
<g id="edge41" class="edge">
<title>Node28&#45;&gt;Node20</title>
<path fill="none" stroke="#191970" d="M691.1816,-358.3733C659.6494,-348.9807 611.5379,-334.6496 577.1499,-324.4064"/>
<polygon fill="#191970" stroke="#191970" points="577.9797,-321.0016 567.3966,-321.5011 575.9813,-327.7103 577.9797,-321.0016"/>
</g>
<!-- Node28&#45;&gt;Node21 -->
<g id="edge42" class="edge">
<title>Node28&#45;&gt;Node21</title>
<path fill="none" stroke="#191970" d="M711.1327,-358.2455C700.5446,-349.8943 685.0936,-337.7076 672.7107,-327.9408"/>
<polygon fill="#191970" stroke="#191970" points="674.7447,-325.0875 664.7255,-321.6427 670.4097,-330.5837 674.7447,-325.0875"/>
</g>
<!-- Node29&#45;&gt;Node16 -->
<g id="edge45" class="edge">
<title>Node29&#45;&gt;Node16</title>
<path fill="none" stroke="#191970" d="M1360.9061,-246.4248C1353.4446,-218.8807 1331.8184,-139.0477 1321.7597,-101.916"/>
<polygon fill="#191970" stroke="#191970" points="1325.1368,-100.9965 1319.1438,-92.2595 1318.3803,-102.8268 1325.1368,-100.9965"/>
</g>
<!-- Node30&#45;&gt;Node2 -->
<g id="edge48" class="edge">
<title>Node30&#45;&gt;Node2</title>
<path fill="none" stroke="#191970" d="M768.101,-414.397C784.0873,-407.0839 803.0998,-395.291 812.5,-378 816.7456,-370.1906 814.5422,-366.6511 812.5,-358 799.6491,-303.5626 765.0117,-246.4966 746.1533,-218.1777"/>
<polygon fill="#191970" stroke="#191970" points="748.9272,-216.0322 740.417,-209.7213 743.1342,-219.9618 748.9272,-216.0322"/>
</g>
<!-- Node30&#45;&gt;Node21 -->
<g id="edge49" class="edge">
<title>Node30&#45;&gt;Node21</title>
<path fill="none" stroke="#191970" d="M759.2419,-414.4312C780.273,-401.8272 810.6722,-378.8184 795.5,-358 785.2597,-343.9488 746.8928,-332.0556 712.477,-323.8843"/>
<polygon fill="#191970" stroke="#191970" points="712.9615,-320.4045 702.4315,-321.5748 711.393,-327.2265 712.9615,-320.4045"/>
</g>
<!-- Node30&#45;&gt;Node25 -->
<g id="edge47" class="edge">
<title>Node30&#45;&gt;Node25</title>
<path fill="none" stroke="#191970" d="M769.6926,-414.3733C798.1618,-404.6521 842.1233,-389.6408 872.2705,-379.3467"/>
<polygon fill="#191970" stroke="#191970" points="873.5899,-382.5946 881.9224,-376.0509 871.3278,-375.9702 873.5899,-382.5946"/>
</g>
</g>
</svg>
