<?xml version="1.0" encoding="UTF-8" standalone="no"?>
<!DOCTYPE svg PUBLIC "-//W3C//DTD SVG 1.1//EN"
 "http://www.w3.org/Graphics/SVG/1.1/DTD/svg11.dtd">
<!-- Generated by graphviz version 2.40.1 (20161225.0304)
 -->
<!-- Title: /home/travis/build/AliceO2Group/AliceO2/Detectors/ITSMFT/common/simulation/include/ITSMFTSimulation/Hit.h Pages: 1 -->
<svg width="1860pt" height="318pt"
 viewBox="0.00 0.00 1859.50 318.00" xmlns="http://www.w3.org/2000/svg" xmlns:xlink="http://www.w3.org/1999/xlink">
<g id="graph0" class="graph" transform="scale(1 1) rotate(0) translate(4 314)">
<title>/home/travis/build/AliceO2Group/AliceO2/Detectors/ITSMFT/common/simulation/include/ITSMFTSimulation/Hit.h</title>
<!-- Node0 -->
<g id="node1" class="node">
<title>Node0</title>
<polygon fill="#bfbfbf" stroke="#000000" points="1177,-257.5 1177,-309.5 1403,-309.5 1403,-257.5 1177,-257.5"/>
<text text-anchor="start" x="1185" y="-297.5" font-family="Helvetica,sans-Serif" font-size="10.00" fill="#000000">/home/travis/build</text>
<text text-anchor="start" x="1185" y="-286.5" font-family="Helvetica,sans-Serif" font-size="10.00" fill="#000000">/AliceO2Group/AliceO2</text>
<text text-anchor="start" x="1185" y="-275.5" font-family="Helvetica,sans-Serif" font-size="10.00" fill="#000000">/Detectors/ITSMFT/common</text>
<text text-anchor="middle" x="1290" y="-264.5" font-family="Helvetica,sans-Serif" font-size="10.00" fill="#000000">/simulation/include/ITSMFTSimulation/Hit.h</text>
</g>
<!-- Node1 -->
<g id="node2" class="node">
<title>Node1</title>
<g id="a_node2"><a xlink:href="../../d4/d25/BaseHits_8h.html" target="_top" xlink:title="SimulationDataFormat\l/BaseHits.h">
<polygon fill="none" stroke="#000000" points="1004.5,-190.5 1004.5,-220.5 1131.5,-220.5 1131.5,-190.5 1004.5,-190.5"/>
<text text-anchor="start" x="1012.5" y="-208.5" font-family="Helvetica,sans-Serif" font-size="10.00" fill="#000000">SimulationDataFormat</text>
<text text-anchor="middle" x="1068" y="-197.5" font-family="Helvetica,sans-Serif" font-size="10.00" fill="#000000">/BaseHits.h</text>
</a>
</g>
</g>
<!-- Node0&#45;&gt;Node1 -->
<g id="edge1" class="edge">
<title>Node0&#45;&gt;Node1</title>
<path fill="none" stroke="#191970" d="M1215.7686,-257.4187C1184.5355,-246.4449 1148.924,-233.9328 1120.4871,-223.9414"/>
<polygon fill="#191970" stroke="#191970" points="1121.3417,-220.532 1110.7468,-220.5192 1119.0212,-227.1362 1121.3417,-220.532"/>
</g>
<!-- Node8 -->
<g id="node9" class="node">
<title>Node8</title>
<polygon fill="none" stroke="#bfbfbf" points="1199.5,-73 1199.5,-92 1258.5,-92 1258.5,-73 1199.5,-73"/>
<text text-anchor="middle" x="1229" y="-80" font-family="Helvetica,sans-Serif" font-size="10.00" fill="#000000">Rtypes.h</text>
</g>
<!-- Node0&#45;&gt;Node8 -->
<g id="edge14" class="edge">
<title>Node0&#45;&gt;Node8</title>
<path fill="none" stroke="#191970" d="M1282.0253,-257.2228C1269.6162,-216.3336 1245.9673,-138.4085 1234.9385,-102.0677"/>
<polygon fill="#191970" stroke="#191970" points="1238.2006,-100.7642 1231.9473,-92.2116 1231.5022,-102.7971 1238.2006,-100.7642"/>
</g>
<!-- Node10 -->
<g id="node11" class="node">
<title>Node10</title>
<polygon fill="none" stroke="#bfbfbf" points="1276.5,-73 1276.5,-92 1325.5,-92 1325.5,-73 1276.5,-73"/>
<text text-anchor="middle" x="1301" y="-80" font-family="Helvetica,sans-Serif" font-size="10.00" fill="#000000">iosfwd</text>
</g>
<!-- Node0&#45;&gt;Node10 -->
<g id="edge16" class="edge">
<title>Node0&#45;&gt;Node10</title>
<path fill="none" stroke="#191970" d="M1291.4381,-257.2228C1293.6661,-216.5098 1297.9036,-139.0796 1299.9033,-102.5399"/>
<polygon fill="#191970" stroke="#191970" points="1303.4168,-102.388 1300.4685,-92.2116 1296.4272,-102.0054 1303.4168,-102.388"/>
</g>
<!-- Node14 -->
<g id="node15" class="node">
<title>Node14</title>
<polygon fill="none" stroke="#bfbfbf" points="1318,-196 1318,-215 1386,-215 1386,-196 1318,-196"/>
<text text-anchor="middle" x="1352" y="-203" font-family="Helvetica,sans-Serif" font-size="10.00" fill="#000000">TVector3.h</text>
</g>
<!-- Node0&#45;&gt;Node14 -->
<g id="edge15" class="edge">
<title>Node0&#45;&gt;Node14</title>
<path fill="none" stroke="#191970" d="M1310.9904,-257.0928C1319.9025,-245.8808 1330.051,-233.1133 1338.0227,-223.0843"/>
<polygon fill="#191970" stroke="#191970" points="1340.8995,-225.09 1344.3821,-215.0839 1335.4197,-220.7343 1340.8995,-225.09"/>
</g>
<!-- Node15 -->
<g id="node16" class="node">
<title>Node15</title>
<g id="a_node16"><a xlink:href="../../d0/d91/ShmAllocator_8h.html" target="_top" xlink:title="CommonUtils/ShmAllocator.h">
<polygon fill="none" stroke="#000000" points="1443,-196 1443,-215 1603,-215 1603,-196 1443,-196"/>
<text text-anchor="middle" x="1523" y="-203" font-family="Helvetica,sans-Serif" font-size="10.00" fill="#000000">CommonUtils/ShmAllocator.h</text>
</a>
</g>
</g>
<!-- Node0&#45;&gt;Node15 -->
<g id="edge17" class="edge">
<title>Node0&#45;&gt;Node15</title>
<path fill="none" stroke="#191970" d="M1367.9096,-257.4187C1407.184,-244.271 1453.0549,-228.9151 1484.6687,-218.332"/>
<polygon fill="#191970" stroke="#191970" points="1486.0338,-221.5659 1494.4055,-215.0724 1483.8116,-214.928 1486.0338,-221.5659"/>
</g>
<!-- Node2 -->
<g id="node3" class="node">
<title>Node2</title>
<g id="a_node3"><a xlink:href="../../dd/d76/Cartesian3D_8h.html" target="_top" xlink:title="MathUtils/Cartesian3D.h">
<polygon fill="none" stroke="#000000" points="846.5,-134.5 846.5,-153.5 981.5,-153.5 981.5,-134.5 846.5,-134.5"/>
<text text-anchor="middle" x="914" y="-141.5" font-family="Helvetica,sans-Serif" font-size="10.00" fill="#000000">MathUtils/Cartesian3D.h</text>
</a>
</g>
</g>
<!-- Node1&#45;&gt;Node2 -->
<g id="edge2" class="edge">
<title>Node1&#45;&gt;Node2</title>
<path fill="none" stroke="#191970" d="M1030.3274,-190.4554C1004.9702,-180.329 971.8348,-167.0964 947.4174,-157.3453"/>
<polygon fill="#191970" stroke="#191970" points="948.4495,-153.9887 937.8645,-153.5303 945.8533,-160.4895 948.4495,-153.9887"/>
</g>
<!-- Node3 -->
<g id="node4" class="node">
<title>Node3</title>
<polygon fill="none" stroke="#bfbfbf" points="0,-67.5 0,-97.5 164,-97.5 164,-67.5 0,-67.5"/>
<text text-anchor="start" x="8" y="-85.5" font-family="Helvetica,sans-Serif" font-size="10.00" fill="#000000">Math/GenVector/Displacement</text>
<text text-anchor="middle" x="82" y="-74.5" font-family="Helvetica,sans-Serif" font-size="10.00" fill="#000000">Vector3D.h</text>
</g>
<!-- Node2&#45;&gt;Node3 -->
<g id="edge3" class="edge">
<title>Node2&#45;&gt;Node3</title>
<path fill="none" stroke="#191970" d="M846.3548,-142.2157C717.5119,-138.2902 427.8787,-126.9372 174.4219,-98.0857"/>
<polygon fill="#191970" stroke="#191970" points="174.6178,-94.5852 164.2834,-96.92 173.8181,-101.5394 174.6178,-94.5852"/>
</g>
<!-- Node4 -->
<g id="node5" class="node">
<title>Node4</title>
<polygon fill="none" stroke="#bfbfbf" points="182.5,-73 182.5,-92 371.5,-92 371.5,-73 182.5,-73"/>
<text text-anchor="middle" x="277" y="-80" font-family="Helvetica,sans-Serif" font-size="10.00" fill="#000000">Math/GenVector/PositionVector3D.h</text>
</g>
<!-- Node2&#45;&gt;Node4 -->
<g id="edge4" class="edge">
<title>Node2&#45;&gt;Node4</title>
<path fill="none" stroke="#191970" d="M846.1329,-139.4935C744.7266,-132.4544 547.7301,-117.6003 381,-98 369.8521,-96.6895 358.0596,-95.1143 346.5752,-93.4772"/>
<polygon fill="#191970" stroke="#191970" points="346.9852,-90.0001 336.5862,-92.0277 345.9799,-96.9276 346.9852,-90.0001"/>
</g>
<!-- Node5 -->
<g id="node6" class="node">
<title>Node5</title>
<polygon fill="none" stroke="#bfbfbf" points="390,-73 390,-92 550,-92 550,-73 390,-73"/>
<text text-anchor="middle" x="470" y="-80" font-family="Helvetica,sans-Serif" font-size="10.00" fill="#000000">Math/GenVector/Rotation3D.h</text>
</g>
<!-- Node2&#45;&gt;Node5 -->
<g id="edge5" class="edge">
<title>Node2&#45;&gt;Node5</title>
<path fill="none" stroke="#191970" d="M846.4819,-136.1389C774.9732,-127.6056 658.8455,-113.1559 559,-98 550.4376,-96.7003 541.4282,-95.2401 532.563,-93.7492"/>
<polygon fill="#191970" stroke="#191970" points="533.0925,-90.289 522.6467,-92.0597 531.9168,-97.1896 533.0925,-90.289"/>
</g>
<!-- Node6 -->
<g id="node7" class="node">
<title>Node6</title>
<polygon fill="none" stroke="#bfbfbf" points="568,-73 568,-92 736,-92 736,-73 568,-73"/>
<text text-anchor="middle" x="652" y="-80" font-family="Helvetica,sans-Serif" font-size="10.00" fill="#000000">Math/GenVector/Transform3D.h</text>
</g>
<!-- Node2&#45;&gt;Node6 -->
<g id="edge6" class="edge">
<title>Node2&#45;&gt;Node6</title>
<path fill="none" stroke="#191970" d="M873.35,-134.4581C827.3618,-123.6632 752.4095,-106.0694 702.6527,-94.3899"/>
<polygon fill="#191970" stroke="#191970" points="703.2806,-90.9422 692.7454,-92.0643 701.6809,-97.757 703.2806,-90.9422"/>
</g>
<!-- Node7 -->
<g id="node8" class="node">
<title>Node7</title>
<polygon fill="none" stroke="#bfbfbf" points="754.5,-73 754.5,-92 927.5,-92 927.5,-73 754.5,-73"/>
<text text-anchor="middle" x="841" y="-80" font-family="Helvetica,sans-Serif" font-size="10.00" fill="#000000">Math/GenVector/Translation3D.h</text>
</g>
<!-- Node2&#45;&gt;Node7 -->
<g id="edge7" class="edge">
<title>Node2&#45;&gt;Node7</title>
<path fill="none" stroke="#191970" d="M902.5938,-134.3906C891.3031,-124.8786 873.8033,-110.1357 860.3381,-98.7917"/>
<polygon fill="#191970" stroke="#191970" points="862.4699,-96.0111 852.5671,-92.2449 857.9598,-101.3646 862.4699,-96.0111"/>
</g>
<!-- Node2&#45;&gt;Node8 -->
<g id="edge8" class="edge">
<title>Node2&#45;&gt;Node8</title>
<path fill="none" stroke="#191970" d="M981.5176,-136.8256C1037.941,-129.8637 1120.158,-117.4588 1190,-98 1192.6079,-97.2734 1195.2803,-96.4312 1197.9436,-95.5223"/>
<polygon fill="#191970" stroke="#191970" points="1199.2478,-98.7718 1207.4172,-92.0256 1196.8239,-92.2048 1199.2478,-98.7718"/>
</g>
<!-- Node9 -->
<g id="node10" class="node">
<title>Node9</title>
<polygon fill="none" stroke="#bfbfbf" points="946,-73 946,-92 1028,-92 1028,-73 946,-73"/>
<text text-anchor="middle" x="987" y="-80" font-family="Helvetica,sans-Serif" font-size="10.00" fill="#000000">TGeoMatrix.h</text>
</g>
<!-- Node2&#45;&gt;Node9 -->
<g id="edge9" class="edge">
<title>Node2&#45;&gt;Node9</title>
<path fill="none" stroke="#191970" d="M925.4063,-134.3906C936.6969,-124.8786 954.1967,-110.1357 967.6619,-98.7917"/>
<polygon fill="#191970" stroke="#191970" points="970.0402,-101.3646 975.4329,-92.2449 965.5301,-96.0111 970.0402,-101.3646"/>
</g>
<!-- Node2&#45;&gt;Node10 -->
<g id="edge10" class="edge">
<title>Node2&#45;&gt;Node10</title>
<path fill="none" stroke="#191970" d="M981.5657,-141.1693C1053.5204,-136.7818 1170.1473,-125.7098 1267,-98 1268.9647,-97.4379 1270.9606,-96.7795 1272.9504,-96.0569"/>
<polygon fill="#191970" stroke="#191970" points="1274.7568,-99.0985 1282.6746,-92.0588 1272.0949,-92.6244 1274.7568,-99.0985"/>
</g>
<!-- Node11 -->
<g id="node12" class="node">
<title>Node11</title>
<g id="a_node12"><a xlink:href="../../d2/dd0/Cartesian2D_8h.html" target="_top" xlink:title="MathUtils/Cartesian2D.h">
<polygon fill="none" stroke="#000000" points="1046.5,-73 1046.5,-92 1181.5,-92 1181.5,-73 1046.5,-73"/>
<text text-anchor="middle" x="1114" y="-80" font-family="Helvetica,sans-Serif" font-size="10.00" fill="#000000">MathUtils/Cartesian2D.h</text>
</a>
</g>
</g>
<!-- Node2&#45;&gt;Node11 -->
<g id="edge11" class="edge">
<title>Node2&#45;&gt;Node11</title>
<path fill="none" stroke="#191970" d="M945.25,-134.3906C979.7411,-123.7846 1035.3812,-106.6753 1073.2662,-95.0257"/>
<polygon fill="#191970" stroke="#191970" points="1074.4399,-98.3266 1082.9694,-92.0419 1072.3824,-91.6357 1074.4399,-98.3266"/>
</g>
<!-- Node12 -->
<g id="node13" class="node">
<title>Node12</title>
<polygon fill="none" stroke="#bfbfbf" points="934,-.5 934,-30.5 1098,-30.5 1098,-.5 934,-.5"/>
<text text-anchor="start" x="942" y="-18.5" font-family="Helvetica,sans-Serif" font-size="10.00" fill="#000000">Math/GenVector/Displacement</text>
<text text-anchor="middle" x="1016" y="-7.5" font-family="Helvetica,sans-Serif" font-size="10.00" fill="#000000">Vector2D.h</text>
</g>
<!-- Node11&#45;&gt;Node12 -->
<g id="edge12" class="edge">
<title>Node11&#45;&gt;Node12</title>
<path fill="none" stroke="#191970" d="M1099.959,-72.9005C1086.0412,-63.3853 1064.272,-48.5023 1046.388,-36.2755"/>
<polygon fill="#191970" stroke="#191970" points="1048.2026,-33.2763 1037.9721,-30.5218 1044.2519,-39.0549 1048.2026,-33.2763"/>
</g>
<!-- Node13 -->
<g id="node14" class="node">
<title>Node13</title>
<polygon fill="none" stroke="#bfbfbf" points="1116.5,-6 1116.5,-25 1305.5,-25 1305.5,-6 1116.5,-6"/>
<text text-anchor="middle" x="1211" y="-13" font-family="Helvetica,sans-Serif" font-size="10.00" fill="#000000">Math/GenVector/PositionVector2D.h</text>
</g>
<!-- Node11&#45;&gt;Node13 -->
<g id="edge13" class="edge">
<title>Node11&#45;&gt;Node13</title>
<path fill="none" stroke="#191970" d="M1127.8977,-72.9005C1143.8164,-61.9052 1170.1121,-43.7422 1188.8599,-30.7927"/>
<polygon fill="#191970" stroke="#191970" points="1190.8892,-33.6448 1197.128,-25.0817 1186.9108,-27.8852 1190.8892,-33.6448"/>
</g>
<!-- Node16 -->
<g id="node17" class="node">
<title>Node16</title>
<g id="a_node17"><a xlink:href="../../de/d61/ShmManager_8h.html" target="_top" xlink:title="CommonUtils/ShmManager.h">
<polygon fill="none" stroke="#000000" points="1578,-134.5 1578,-153.5 1736,-153.5 1736,-134.5 1578,-134.5"/>
<text text-anchor="middle" x="1657" y="-141.5" font-family="Helvetica,sans-Serif" font-size="10.00" fill="#000000">CommonUtils/ShmManager.h</text>
</a>
</g>
</g>
<!-- Node15&#45;&gt;Node16 -->
<g id="edge18" class="edge">
<title>Node15&#45;&gt;Node16</title>
<path fill="none" stroke="#191970" d="M1543.9375,-195.8906C1566.2598,-185.6457 1601.8037,-169.3326 1627.0757,-157.7339"/>
<polygon fill="#191970" stroke="#191970" points="1628.581,-160.8942 1636.2095,-153.5419 1625.6611,-154.5322 1628.581,-160.8942"/>
</g>
<!-- Node22 -->
<g id="node23" class="node">
<title>Node22</title>
<polygon fill="none" stroke="#bfbfbf" points="1497,-134.5 1497,-153.5 1549,-153.5 1549,-134.5 1497,-134.5"/>
<text text-anchor="middle" x="1523" y="-141.5" font-family="Helvetica,sans-Serif" font-size="10.00" fill="#000000">cassert</text>
</g>
<!-- Node15&#45;&gt;Node22 -->
<g id="edge24" class="edge">
<title>Node15&#45;&gt;Node22</title>
<path fill="none" stroke="#191970" d="M1523,-195.8906C1523,-187.3657 1523,-174.6392 1523,-163.9235"/>
<polygon fill="#191970" stroke="#191970" points="1526.5001,-163.7448 1523,-153.7449 1519.5001,-163.7449 1526.5001,-163.7448"/>
</g>
<!-- Node17 -->
<g id="node18" class="node">
<title>Node17</title>
<polygon fill="none" stroke="#bfbfbf" points="1748,-73 1748,-92 1780,-92 1780,-73 1748,-73"/>
<text text-anchor="middle" x="1764" y="-80" font-family="Helvetica,sans-Serif" font-size="10.00" fill="#000000">list</text>
</g>
<!-- Node16&#45;&gt;Node17 -->
<g id="edge19" class="edge">
<title>Node16&#45;&gt;Node17</title>
<path fill="none" stroke="#191970" d="M1674.7225,-134.3505C1691.4172,-125.1919 1717.0696,-110.9413 1739,-98 1739.2969,-97.8248 1739.5955,-97.6481 1739.8955,-97.47"/>
<polygon fill="#191970" stroke="#191970" points="1741.9911,-100.2926 1748.7279,-92.1154 1738.3622,-94.3067 1741.9911,-100.2926"/>
</g>
<!-- Node18 -->
<g id="node19" class="node">
<title>Node18</title>
<polygon fill="none" stroke="#bfbfbf" points="1798.5,-73 1798.5,-92 1851.5,-92 1851.5,-73 1798.5,-73"/>
<text text-anchor="middle" x="1825" y="-80" font-family="Helvetica,sans-Serif" font-size="10.00" fill="#000000">cstddef</text>
</g>
<!-- Node16&#45;&gt;Node18 -->
<g id="edge20" class="edge">
<title>Node16&#45;&gt;Node18</title>
<path fill="none" stroke="#191970" d="M1686.317,-134.4504C1713.2117,-125.5324 1754.0556,-111.5917 1789,-98 1790.6132,-97.3725 1792.2613,-96.7167 1793.9213,-96.0444"/>
<polygon fill="#191970" stroke="#191970" points="1795.5158,-99.1718 1803.4011,-92.0956 1792.8241,-92.71 1795.5158,-99.1718"/>
</g>
<!-- Node19 -->
<g id="node20" class="node">
<title>Node19</title>
<polygon fill="none" stroke="#bfbfbf" points="1344,-73 1344,-92 1394,-92 1394,-73 1344,-73"/>
<text text-anchor="middle" x="1369" y="-80" font-family="Helvetica,sans-Serif" font-size="10.00" fill="#000000">atomic</text>
</g>
<!-- Node16&#45;&gt;Node19 -->
<g id="edge21" class="edge">
<title>Node16&#45;&gt;Node19</title>
<path fill="none" stroke="#191970" d="M1577.969,-134.842C1527.2142,-127.7064 1460.3078,-115.9441 1403,-98 1401.0963,-97.4039 1399.1594,-96.7274 1397.2247,-95.9984"/>
<polygon fill="#191970" stroke="#191970" points="1398.3109,-92.6594 1387.7339,-92.0449 1395.6192,-99.1212 1398.3109,-92.6594"/>
</g>
<!-- Node20 -->
<g id="node21" class="node">
<title>Node20</title>
<polygon fill="none" stroke="#bfbfbf" points="1412.5,-67.5 1412.5,-97.5 1577.5,-97.5 1577.5,-67.5 1412.5,-67.5"/>
<text text-anchor="start" x="1420.5" y="-85.5" font-family="Helvetica,sans-Serif" font-size="10.00" fill="#000000">boost/interprocess</text>
<text text-anchor="middle" x="1495" y="-74.5" font-family="Helvetica,sans-Serif" font-size="10.00" fill="#000000">/managed_external_buffer.hpp</text>
</g>
<!-- Node16&#45;&gt;Node20 -->
<g id="edge22" class="edge">
<title>Node16&#45;&gt;Node20</title>
<path fill="none" stroke="#191970" d="M1631.6875,-134.3906C1608.3417,-125.5279 1573.0338,-112.1239 1544.1516,-101.1594"/>
<polygon fill="#191970" stroke="#191970" points="1545.2209,-97.8217 1534.6297,-97.5446 1542.7364,-104.366 1545.2209,-97.8217"/>
</g>
<!-- Node21 -->
<g id="node22" class="node">
<title>Node21</title>
<polygon fill="none" stroke="#bfbfbf" points="1596,-67.5 1596,-97.5 1730,-97.5 1730,-67.5 1596,-67.5"/>
<text text-anchor="start" x="1604" y="-85.5" font-family="Helvetica,sans-Serif" font-size="10.00" fill="#000000">boost/interprocess</text>
<text text-anchor="middle" x="1663" y="-74.5" font-family="Helvetica,sans-Serif" font-size="10.00" fill="#000000">/allocators/allocator.hpp</text>
</g>
<!-- Node16&#45;&gt;Node21 -->
<g id="edge23" class="edge">
<title>Node16&#45;&gt;Node21</title>
<path fill="none" stroke="#191970" d="M1657.9375,-134.3906C1658.6367,-127.2234 1659.6257,-117.0862 1660.5443,-107.671"/>
<polygon fill="#191970" stroke="#191970" points="1664.0446,-107.8372 1661.5322,-97.5446 1657.0777,-107.1575 1664.0446,-107.8372"/>
</g>
</g>
</svg>
