<?xml version="1.0" encoding="UTF-8" standalone="no"?>
<!DOCTYPE svg PUBLIC "-//W3C//DTD SVG 1.1//EN"
 "http://www.w3.org/Graphics/SVG/1.1/DTD/svg11.dtd">
<!-- Generated by graphviz version 2.40.1 (20161225.0304)
 -->
<!-- Title: /home/travis/build/AliceO2Group/AliceO2/Detectors/TPC/base/src/PadSecPos.cxx Pages: 1 -->
<svg width="1446pt" height="419pt"
 viewBox="0.00 0.00 1445.50 419.00" xmlns="http://www.w3.org/2000/svg" xmlns:xlink="http://www.w3.org/1999/xlink">
<g id="graph0" class="graph" transform="scale(1 1) rotate(0) translate(4 415)">
<title>/home/travis/build/AliceO2Group/AliceO2/Detectors/TPC/base/src/PadSecPos.cxx</title>
<!-- Node0 -->
<g id="node1" class="node">
<title>Node0</title>
<polygon fill="#bfbfbf" stroke="#000000" points="273,-358.5 273,-410.5 405,-410.5 405,-358.5 273,-358.5"/>
<text text-anchor="start" x="281" y="-398.5" font-family="Helvetica,sans-Serif" font-size="10.00" fill="#000000">/home/travis/build</text>
<text text-anchor="start" x="281" y="-387.5" font-family="Helvetica,sans-Serif" font-size="10.00" fill="#000000">/AliceO2Group/AliceO2</text>
<text text-anchor="start" x="281" y="-376.5" font-family="Helvetica,sans-Serif" font-size="10.00" fill="#000000">/Detectors/TPC/base/src</text>
<text text-anchor="middle" x="339" y="-365.5" font-family="Helvetica,sans-Serif" font-size="10.00" fill="#000000">/PadSecPos.cxx</text>
</g>
<!-- Node1 -->
<g id="node2" class="node">
<title>Node1</title>
<g id="a_node2"><a xlink:href="../../dd/d0b/PadSecPos_8h.html" target="_top" xlink:title="TPCBase/PadSecPos.h">
<polygon fill="none" stroke="#000000" points="277.5,-302.5 277.5,-321.5 400.5,-321.5 400.5,-302.5 277.5,-302.5"/>
<text text-anchor="middle" x="339" y="-309.5" font-family="Helvetica,sans-Serif" font-size="10.00" fill="#000000">TPCBase/PadSecPos.h</text>
</a>
</g>
</g>
<!-- Node0&#45;&gt;Node1 -->
<g id="edge1" class="edge">
<title>Node0&#45;&gt;Node1</title>
<path fill="none" stroke="#191970" d="M339,-358.3258C339,-349.5142 339,-339.8397 339,-331.621"/>
<polygon fill="#191970" stroke="#191970" points="342.5001,-331.534 339,-321.534 335.5001,-331.534 342.5001,-331.534"/>
</g>
<!-- Node2 -->
<g id="node3" class="node">
<title>Node2</title>
<g id="a_node3"><a xlink:href="../../d3/dd6/Sector_8h.html" target="_top" xlink:title="TPCBase/Sector.h">
<polygon fill="none" stroke="#000000" points="227.5,-246.5 227.5,-265.5 328.5,-265.5 328.5,-246.5 227.5,-246.5"/>
<text text-anchor="middle" x="278" y="-253.5" font-family="Helvetica,sans-Serif" font-size="10.00" fill="#000000">TPCBase/Sector.h</text>
</a>
</g>
</g>
<!-- Node1&#45;&gt;Node2 -->
<g id="edge2" class="edge">
<title>Node1&#45;&gt;Node2</title>
<path fill="none" stroke="#191970" d="M328.3746,-302.2455C319.4527,-294.0549 306.512,-282.1749 295.9808,-272.5069"/>
<polygon fill="#191970" stroke="#191970" points="298.2371,-269.8271 288.5036,-265.6427 293.5032,-274.9837 298.2371,-269.8271"/>
</g>
<!-- Node19 -->
<g id="node20" class="node">
<title>Node19</title>
<g id="a_node20"><a xlink:href="../../de/d41/PadPos_8h.html" target="_top" xlink:title="TPCBase/PadPos.h">
<polygon fill="none" stroke="#000000" points="347,-246.5 347,-265.5 453,-265.5 453,-246.5 347,-246.5"/>
<text text-anchor="middle" x="400" y="-253.5" font-family="Helvetica,sans-Serif" font-size="10.00" fill="#000000">TPCBase/PadPos.h</text>
</a>
</g>
</g>
<!-- Node1&#45;&gt;Node19 -->
<g id="edge20" class="edge">
<title>Node1&#45;&gt;Node19</title>
<path fill="none" stroke="#191970" d="M349.6254,-302.2455C358.5473,-294.0549 371.488,-282.1749 382.0192,-272.5069"/>
<polygon fill="#191970" stroke="#191970" points="384.4968,-274.9837 389.4964,-265.6427 379.7629,-269.8271 384.4968,-274.9837"/>
</g>
<!-- Node3 -->
<g id="node4" class="node">
<title>Node3</title>
<g id="a_node4"><a xlink:href="../../d0/dda/DataFormats_2Detectors_2TPC_2include_2DataFormatsTPC_2Constants_8h.html" target="_top" xlink:title="DataFormatsTPC/Constants.h">
<polygon fill="none" stroke="#000000" points="116.5,-190.5 116.5,-209.5 275.5,-209.5 275.5,-190.5 116.5,-190.5"/>
<text text-anchor="middle" x="196" y="-197.5" font-family="Helvetica,sans-Serif" font-size="10.00" fill="#000000">DataFormatsTPC/Constants.h</text>
</a>
</g>
</g>
<!-- Node2&#45;&gt;Node3 -->
<g id="edge3" class="edge">
<title>Node2&#45;&gt;Node3</title>
<path fill="none" stroke="#191970" d="M263.7167,-246.2455C251.253,-237.7337 232.9549,-225.2375 218.5208,-215.3801"/>
<polygon fill="#191970" stroke="#191970" points="220.3515,-212.392 210.1196,-209.6427 216.4038,-218.1726 220.3515,-212.392"/>
</g>
<!-- Node4 -->
<g id="node5" class="node">
<title>Node4</title>
<g id="a_node5"><a xlink:href="../../d1/d73/Defs_8h.html" target="_top" xlink:title="Common definitions for 2D coordinates. ">
<polygon fill="none" stroke="#000000" points="293.5,-190.5 293.5,-209.5 426.5,-209.5 426.5,-190.5 293.5,-190.5"/>
<text text-anchor="middle" x="360" y="-197.5" font-family="Helvetica,sans-Serif" font-size="10.00" fill="#000000">DataFormatsTPC/Defs.h</text>
</a>
</g>
</g>
<!-- Node2&#45;&gt;Node4 -->
<g id="edge4" class="edge">
<title>Node2&#45;&gt;Node4</title>
<path fill="none" stroke="#191970" d="M292.2833,-246.2455C304.747,-237.7337 323.0451,-225.2375 337.4792,-215.3801"/>
<polygon fill="#191970" stroke="#191970" points="339.5962,-218.1726 345.8804,-209.6427 335.6485,-212.392 339.5962,-218.1726"/>
</g>
<!-- Node5 -->
<g id="node6" class="node">
<title>Node5</title>
<polygon fill="none" stroke="#bfbfbf" points="175.5,-134.5 175.5,-153.5 222.5,-153.5 222.5,-134.5 175.5,-134.5"/>
<text text-anchor="middle" x="199" y="-141.5" font-family="Helvetica,sans-Serif" font-size="10.00" fill="#000000">cmath</text>
</g>
<!-- Node4&#45;&gt;Node5 -->
<g id="edge5" class="edge">
<title>Node4&#45;&gt;Node5</title>
<path fill="none" stroke="#191970" d="M332.3231,-190.3733C304.5363,-180.7083 261.7157,-165.8142 232.1362,-155.5256"/>
<polygon fill="#191970" stroke="#191970" points="233.2482,-152.2068 222.6534,-152.2273 230.9485,-158.8183 233.2482,-152.2068"/>
</g>
<!-- Node6 -->
<g id="node7" class="node">
<title>Node6</title>
<g id="a_node7"><a xlink:href="../../d1/da8/GPUROOTCartesianFwd_8h.html" target="_top" xlink:title="GPUROOTCartesianFwd.h">
<polygon fill="none" stroke="#000000" points="241,-134.5 241,-153.5 381,-153.5 381,-134.5 241,-134.5"/>
<text text-anchor="middle" x="311" y="-141.5" font-family="Helvetica,sans-Serif" font-size="10.00" fill="#000000">GPUROOTCartesianFwd.h</text>
</a>
</g>
</g>
<!-- Node4&#45;&gt;Node6 -->
<g id="edge6" class="edge">
<title>Node4&#45;&gt;Node6</title>
<path fill="none" stroke="#191970" d="M351.4649,-190.2455C344.5088,-182.2958 334.5117,-170.8706 326.1949,-161.3656"/>
<polygon fill="#191970" stroke="#191970" points="328.6564,-158.8637 319.4373,-153.6427 323.3884,-163.4732 328.6564,-158.8637"/>
</g>
<!-- Node7 -->
<g id="node8" class="node">
<title>Node7</title>
<g id="a_node8"><a xlink:href="../../d2/dd0/Cartesian2D_8h.html" target="_top" xlink:title="MathUtils/Cartesian2D.h">
<polygon fill="none" stroke="#000000" points="111.5,-73 111.5,-92 246.5,-92 246.5,-73 111.5,-73"/>
<text text-anchor="middle" x="179" y="-80" font-family="Helvetica,sans-Serif" font-size="10.00" fill="#000000">MathUtils/Cartesian2D.h</text>
</a>
</g>
</g>
<!-- Node4&#45;&gt;Node7 -->
<g id="edge7" class="edge">
<title>Node4&#45;&gt;Node7</title>
<path fill="none" stroke="#191970" d="M370.5116,-190.2598C383.9281,-176.6457 403.8369,-151.6204 390,-134 385.0847,-127.7407 294.8613,-107.3341 234.0016,-94.1654"/>
<polygon fill="#191970" stroke="#191970" points="234.6432,-90.7234 224.1302,-92.0371 233.1679,-97.5662 234.6432,-90.7234"/>
</g>
<!-- Node10 -->
<g id="node11" class="node">
<title>Node10</title>
<g id="a_node11"><a xlink:href="../../dd/d76/Cartesian3D_8h.html" target="_top" xlink:title="MathUtils/Cartesian3D.h">
<polygon fill="none" stroke="#000000" points="758.5,-134.5 758.5,-153.5 893.5,-153.5 893.5,-134.5 758.5,-134.5"/>
<text text-anchor="middle" x="826" y="-141.5" font-family="Helvetica,sans-Serif" font-size="10.00" fill="#000000">MathUtils/Cartesian3D.h</text>
</a>
</g>
</g>
<!-- Node4&#45;&gt;Node10 -->
<g id="edge10" class="edge">
<title>Node4&#45;&gt;Node10</title>
<path fill="none" stroke="#191970" d="M426.7664,-191.9766C511.7021,-181.7697 658.1314,-164.1731 748.0807,-153.3637"/>
<polygon fill="#191970" stroke="#191970" points="748.7111,-156.8132 758.2221,-152.145 747.8759,-149.8632 748.7111,-156.8132"/>
</g>
<!-- Node8 -->
<g id="node9" class="node">
<title>Node8</title>
<polygon fill="none" stroke="#bfbfbf" points="0,-.5 0,-30.5 164,-30.5 164,-.5 0,-.5"/>
<text text-anchor="start" x="8" y="-18.5" font-family="Helvetica,sans-Serif" font-size="10.00" fill="#000000">Math/GenVector/Displacement</text>
<text text-anchor="middle" x="82" y="-7.5" font-family="Helvetica,sans-Serif" font-size="10.00" fill="#000000">Vector2D.h</text>
</g>
<!-- Node7&#45;&gt;Node8 -->
<g id="edge8" class="edge">
<title>Node7&#45;&gt;Node8</title>
<path fill="none" stroke="#191970" d="M165.1023,-72.9005C151.3265,-63.3853 129.7795,-48.5023 112.0779,-36.2755"/>
<polygon fill="#191970" stroke="#191970" points="113.9651,-33.3253 103.7479,-30.5218 109.9868,-39.0849 113.9651,-33.3253"/>
</g>
<!-- Node9 -->
<g id="node10" class="node">
<title>Node9</title>
<polygon fill="none" stroke="#bfbfbf" points="182.5,-6 182.5,-25 371.5,-25 371.5,-6 182.5,-6"/>
<text text-anchor="middle" x="277" y="-13" font-family="Helvetica,sans-Serif" font-size="10.00" fill="#000000">Math/GenVector/PositionVector2D.h</text>
</g>
<!-- Node7&#45;&gt;Node9 -->
<g id="edge9" class="edge">
<title>Node7&#45;&gt;Node9</title>
<path fill="none" stroke="#191970" d="M193.041,-72.9005C209.1238,-61.9052 235.6906,-43.7422 254.6316,-30.7927"/>
<polygon fill="#191970" stroke="#191970" points="256.7052,-33.6148 262.985,-25.0817 252.7545,-27.8362 256.7052,-33.6148"/>
</g>
<!-- Node10&#45;&gt;Node7 -->
<g id="edge19" class="edge">
<title>Node10&#45;&gt;Node7</title>
<path fill="none" stroke="#191970" d="M758.1532,-141.1203C651.0484,-135.9914 436.407,-123.3471 256,-98 248.0318,-96.8805 239.646,-95.4535 231.4583,-93.9204"/>
<polygon fill="#191970" stroke="#191970" points="232.0943,-90.4786 221.6109,-92.0111 230.7619,-97.3506 232.0943,-90.4786"/>
</g>
<!-- Node11 -->
<g id="node12" class="node">
<title>Node11</title>
<polygon fill="none" stroke="#bfbfbf" points="265,-67.5 265,-97.5 429,-97.5 429,-67.5 265,-67.5"/>
<text text-anchor="start" x="273" y="-85.5" font-family="Helvetica,sans-Serif" font-size="10.00" fill="#000000">Math/GenVector/Displacement</text>
<text text-anchor="middle" x="347" y="-74.5" font-family="Helvetica,sans-Serif" font-size="10.00" fill="#000000">Vector3D.h</text>
</g>
<!-- Node10&#45;&gt;Node11 -->
<g id="edge11" class="edge">
<title>Node10&#45;&gt;Node11</title>
<path fill="none" stroke="#191970" d="M758.2256,-137.0177C682.8003,-129.0097 557.0605,-114.955 439.228,-98.1371"/>
<polygon fill="#191970" stroke="#191970" points="439.7065,-94.67 429.3104,-96.7122 438.711,-101.5988 439.7065,-94.67"/>
</g>
<!-- Node12 -->
<g id="node13" class="node">
<title>Node12</title>
<polygon fill="none" stroke="#bfbfbf" points="447.5,-73 447.5,-92 636.5,-92 636.5,-73 447.5,-73"/>
<text text-anchor="middle" x="542" y="-80" font-family="Helvetica,sans-Serif" font-size="10.00" fill="#000000">Math/GenVector/PositionVector3D.h</text>
</g>
<!-- Node10&#45;&gt;Node12 -->
<g id="edge12" class="edge">
<title>Node10&#45;&gt;Node12</title>
<path fill="none" stroke="#191970" d="M781.9366,-134.4581C731.8787,-123.6181 650.1618,-105.9224 596.2318,-94.2439"/>
<polygon fill="#191970" stroke="#191970" points="596.681,-90.7601 586.1668,-92.0643 595.1995,-97.6015 596.681,-90.7601"/>
</g>
<!-- Node13 -->
<g id="node14" class="node">
<title>Node13</title>
<polygon fill="none" stroke="#bfbfbf" points="655,-73 655,-92 815,-92 815,-73 655,-73"/>
<text text-anchor="middle" x="735" y="-80" font-family="Helvetica,sans-Serif" font-size="10.00" fill="#000000">Math/GenVector/Rotation3D.h</text>
</g>
<!-- Node10&#45;&gt;Node13 -->
<g id="edge13" class="edge">
<title>Node10&#45;&gt;Node13</title>
<path fill="none" stroke="#191970" d="M811.7813,-134.3906C797.3566,-124.6421 774.8024,-109.3994 757.864,-97.9521"/>
<polygon fill="#191970" stroke="#191970" points="759.3641,-94.7415 749.1189,-92.0419 755.4444,-100.5412 759.3641,-94.7415"/>
</g>
<!-- Node14 -->
<g id="node15" class="node">
<title>Node14</title>
<polygon fill="none" stroke="#bfbfbf" points="833,-73 833,-92 1001,-92 1001,-73 833,-73"/>
<text text-anchor="middle" x="917" y="-80" font-family="Helvetica,sans-Serif" font-size="10.00" fill="#000000">Math/GenVector/Transform3D.h</text>
</g>
<!-- Node10&#45;&gt;Node14 -->
<g id="edge14" class="edge">
<title>Node10&#45;&gt;Node14</title>
<path fill="none" stroke="#191970" d="M840.2188,-134.3906C854.6434,-124.6421 877.1976,-109.3994 894.136,-97.9521"/>
<polygon fill="#191970" stroke="#191970" points="896.5556,-100.5412 902.8811,-92.0419 892.6359,-94.7415 896.5556,-100.5412"/>
</g>
<!-- Node15 -->
<g id="node16" class="node">
<title>Node15</title>
<polygon fill="none" stroke="#bfbfbf" points="1019.5,-73 1019.5,-92 1192.5,-92 1192.5,-73 1019.5,-73"/>
<text text-anchor="middle" x="1106" y="-80" font-family="Helvetica,sans-Serif" font-size="10.00" fill="#000000">Math/GenVector/Translation3D.h</text>
</g>
<!-- Node10&#45;&gt;Node15 -->
<g id="edge15" class="edge">
<title>Node10&#45;&gt;Node15</title>
<path fill="none" stroke="#191970" d="M869.4428,-134.4581C918.7956,-123.6181 999.3616,-105.9224 1052.532,-94.2439"/>
<polygon fill="#191970" stroke="#191970" points="1053.439,-97.6282 1062.4553,-92.0643 1051.9372,-90.7911 1053.439,-97.6282"/>
</g>
<!-- Node16 -->
<g id="node17" class="node">
<title>Node16</title>
<polygon fill="none" stroke="#bfbfbf" points="1210.5,-73 1210.5,-92 1269.5,-92 1269.5,-73 1210.5,-73"/>
<text text-anchor="middle" x="1240" y="-80" font-family="Helvetica,sans-Serif" font-size="10.00" fill="#000000">Rtypes.h</text>
</g>
<!-- Node10&#45;&gt;Node16 -->
<g id="edge16" class="edge">
<title>Node10&#45;&gt;Node16</title>
<path fill="none" stroke="#191970" d="M893.5661,-141.1328C969.6161,-136.6678 1096.3478,-125.4861 1202,-98 1204.6246,-97.3172 1207.3087,-96.4948 1209.9767,-95.5894"/>
<polygon fill="#191970" stroke="#191970" points="1211.2957,-98.8329 1219.433,-92.048 1208.8406,-92.2775 1211.2957,-98.8329"/>
</g>
<!-- Node17 -->
<g id="node18" class="node">
<title>Node17</title>
<polygon fill="none" stroke="#bfbfbf" points="1288,-73 1288,-92 1370,-92 1370,-73 1288,-73"/>
<text text-anchor="middle" x="1329" y="-80" font-family="Helvetica,sans-Serif" font-size="10.00" fill="#000000">TGeoMatrix.h</text>
</g>
<!-- Node10&#45;&gt;Node17 -->
<g id="edge17" class="edge">
<title>Node10&#45;&gt;Node17</title>
<path fill="none" stroke="#191970" d="M893.789,-141.3325C982.919,-136.8674 1144.0254,-125.4875 1279,-98 1283.2078,-97.1431 1287.5656,-96.0745 1291.8747,-94.9015"/>
<polygon fill="#191970" stroke="#191970" points="1293.1254,-98.1827 1301.7475,-92.0256 1291.1677,-91.462 1293.1254,-98.1827"/>
</g>
<!-- Node18 -->
<g id="node19" class="node">
<title>Node18</title>
<polygon fill="none" stroke="#bfbfbf" points="1388.5,-73 1388.5,-92 1437.5,-92 1437.5,-73 1388.5,-73"/>
<text text-anchor="middle" x="1413" y="-80" font-family="Helvetica,sans-Serif" font-size="10.00" fill="#000000">iosfwd</text>
</g>
<!-- Node10&#45;&gt;Node18 -->
<g id="edge18" class="edge">
<title>Node10&#45;&gt;Node18</title>
<path fill="none" stroke="#191970" d="M893.6458,-141.2801C1020.4156,-135.7033 1289.0481,-121.4831 1379,-98 1381.193,-97.4275 1383.4206,-96.7226 1385.6327,-95.932"/>
<polygon fill="#191970" stroke="#191970" points="1387.1482,-99.0935 1395.0744,-92.0632 1384.494,-92.6162 1387.1482,-99.0935"/>
</g>
</g>
</svg>
