<?xml version="1.0" encoding="UTF-8" standalone="no"?>
<!DOCTYPE svg PUBLIC "-//W3C//DTD SVG 1.1//EN"
 "http://www.w3.org/Graphics/SVG/1.1/DTD/svg11.dtd">
<!-- Generated by graphviz version 2.40.1 (20161225.0304)
 -->
<!-- Title: /home/travis/build/AliceO2Group/AliceO2/Detectors/TPC/simulation/include/TPCSimulation/SpaceCharge.h Pages: 1 -->
<svg width="2632pt" height="318pt"
 viewBox="0.00 0.00 2631.50 318.00" xmlns="http://www.w3.org/2000/svg" xmlns:xlink="http://www.w3.org/1999/xlink">
<g id="graph0" class="graph" transform="scale(1 1) rotate(0) translate(4 314)">
<title>/home/travis/build/AliceO2Group/AliceO2/Detectors/TPC/simulation/include/TPCSimulation/SpaceCharge.h</title>
<!-- Node0 -->
<g id="node1" class="node">
<title>Node0</title>
<polygon fill="#bfbfbf" stroke="#000000" points="519.5,-257.5 519.5,-309.5 724.5,-309.5 724.5,-257.5 519.5,-257.5"/>
<text text-anchor="start" x="527.5" y="-297.5" font-family="Helvetica,sans-Serif" font-size="10.00" fill="#000000">/home/travis/build</text>
<text text-anchor="start" x="527.5" y="-286.5" font-family="Helvetica,sans-Serif" font-size="10.00" fill="#000000">/AliceO2Group/AliceO2</text>
<text text-anchor="start" x="527.5" y="-275.5" font-family="Helvetica,sans-Serif" font-size="10.00" fill="#000000">/Detectors/TPC/simulation</text>
<text text-anchor="middle" x="622" y="-264.5" font-family="Helvetica,sans-Serif" font-size="10.00" fill="#000000">/include/TPCSimulation/SpaceCharge.h</text>
</g>
<!-- Node1 -->
<g id="node2" class="node">
<title>Node1</title>
<g id="a_node2"><a xlink:href="../../d9/d9a/AliTPCSpaceCharge3DCalc_8h.html" target="_top" xlink:title="This class provides distortion and correction map calculation with integration following electron dri...">
<polygon fill="none" stroke="#000000" points="544.5,-201.5 544.5,-220.5 699.5,-220.5 699.5,-201.5 544.5,-201.5"/>
<text text-anchor="middle" x="622" y="-208.5" font-family="Helvetica,sans-Serif" font-size="10.00" fill="#000000">AliTPCSpaceCharge3DCalc.h</text>
</a>
</g>
</g>
<!-- Node0&#45;&gt;Node1 -->
<g id="edge1" class="edge">
<title>Node0&#45;&gt;Node1</title>
<path fill="none" stroke="#191970" d="M622,-257.3258C622,-248.5142 622,-238.8397 622,-230.621"/>
<polygon fill="#191970" stroke="#191970" points="625.5001,-230.534 622,-220.534 618.5001,-230.534 625.5001,-230.534"/>
</g>
<!-- Node13 -->
<g id="node14" class="node">
<title>Node13</title>
<g id="a_node14"><a xlink:href="../../d1/d73/Defs_8h.html" target="_top" xlink:title="Common definitions for 2D coordinates. ">
<polygon fill="none" stroke="#000000" points="1227.5,-201.5 1227.5,-220.5 1360.5,-220.5 1360.5,-201.5 1227.5,-201.5"/>
<text text-anchor="middle" x="1294" y="-208.5" font-family="Helvetica,sans-Serif" font-size="10.00" fill="#000000">DataFormatsTPC/Defs.h</text>
</a>
</g>
</g>
<!-- Node0&#45;&gt;Node13 -->
<g id="edge20" class="edge">
<title>Node0&#45;&gt;Node13</title>
<path fill="none" stroke="#191970" d="M724.7938,-272.4099C860.3732,-257.7827 1095.9152,-232.3708 1217.1026,-219.2962"/>
<polygon fill="#191970" stroke="#191970" points="1217.8353,-222.7376 1227.4021,-218.185 1217.0844,-215.778 1217.8353,-222.7376"/>
</g>
<!-- Node28 -->
<g id="node29" class="node">
<title>Node28</title>
<g id="a_node29"><a xlink:href="../../db/dac/RandomRing_8h.html" target="_top" xlink:title="MathUtils/RandomRing.h">
<polygon fill="none" stroke="#000000" points="133.5,-201.5 133.5,-220.5 270.5,-220.5 270.5,-201.5 133.5,-201.5"/>
<text text-anchor="middle" x="202" y="-208.5" font-family="Helvetica,sans-Serif" font-size="10.00" fill="#000000">MathUtils/RandomRing.h</text>
</a>
</g>
</g>
<!-- Node0&#45;&gt;Node28 -->
<g id="edge36" class="edge">
<title>Node0&#45;&gt;Node28</title>
<path fill="none" stroke="#191970" d="M519.2564,-265.7645C440.6029,-252.1874 334.5094,-233.8737 267.1637,-222.2485"/>
<polygon fill="#191970" stroke="#191970" points="267.5571,-218.7647 257.1074,-220.5126 266.3663,-225.6627 267.5571,-218.7647"/>
</g>
<!-- Node2 -->
<g id="node3" class="node">
<title>Node2</title>
<polygon fill="none" stroke="#bfbfbf" points="295.5,-140 295.5,-159 338.5,-159 338.5,-140 295.5,-140"/>
<text text-anchor="middle" x="317" y="-147" font-family="Helvetica,sans-Serif" font-size="10.00" fill="#000000">TF1.h</text>
</g>
<!-- Node1&#45;&gt;Node2 -->
<g id="edge2" class="edge">
<title>Node1&#45;&gt;Node2</title>
<path fill="none" stroke="#191970" d="M544.2824,-204.5081C488.3342,-198.2789 411.645,-186.5171 347,-165 345.5746,-164.5256 344.134,-163.9908 342.6955,-163.4126"/>
<polygon fill="#191970" stroke="#191970" points="343.964,-160.1435 333.4164,-159.1438 341.0384,-166.5029 343.964,-160.1435"/>
</g>
<!-- Node3 -->
<g id="node4" class="node">
<title>Node3</title>
<polygon fill="none" stroke="#bfbfbf" points="356.5,-140 356.5,-159 399.5,-159 399.5,-140 356.5,-140"/>
<text text-anchor="middle" x="378" y="-147" font-family="Helvetica,sans-Serif" font-size="10.00" fill="#000000">TF2.h</text>
</g>
<!-- Node1&#45;&gt;Node3 -->
<g id="edge3" class="edge">
<title>Node1&#45;&gt;Node3</title>
<path fill="none" stroke="#191970" d="M556.1337,-201.4908C513.1615,-194.1621 456.2909,-182.3169 408,-165 406.7584,-164.5548 405.5033,-164.068 404.2466,-163.5506"/>
<polygon fill="#191970" stroke="#191970" points="405.3265,-160.1933 394.7821,-159.1603 402.3808,-166.5434 405.3265,-160.1933"/>
</g>
<!-- Node4 -->
<g id="node5" class="node">
<title>Node4</title>
<polygon fill="none" stroke="#bfbfbf" points="417.5,-140 417.5,-159 466.5,-159 466.5,-140 417.5,-140"/>
<text text-anchor="middle" x="442" y="-147" font-family="Helvetica,sans-Serif" font-size="10.00" fill="#000000">TH3F.h</text>
</g>
<!-- Node1&#45;&gt;Node4 -->
<g id="edge4" class="edge">
<title>Node1&#45;&gt;Node4</title>
<path fill="none" stroke="#191970" d="M590.7249,-201.4177C562.0242,-192.4775 518.4134,-178.5224 481,-165 479.0985,-164.3127 477.151,-163.5924 475.1898,-162.8541"/>
<polygon fill="#191970" stroke="#191970" points="476.0088,-159.4187 465.4192,-159.0845 473.4891,-165.9495 476.0088,-159.4187"/>
</g>
<!-- Node5 -->
<g id="node6" class="node">
<title>Node5</title>
<polygon fill="none" stroke="#bfbfbf" points="722,-6 722,-25 792,-25 792,-6 722,-6"/>
<text text-anchor="middle" x="757" y="-13" font-family="Helvetica,sans-Serif" font-size="10.00" fill="#000000">TMatrixD.h</text>
</g>
<!-- Node1&#45;&gt;Node5 -->
<g id="edge5" class="edge">
<title>Node1&#45;&gt;Node5</title>
<path fill="none" stroke="#191970" d="M568.7467,-201.4288C548.0403,-194.8245 526.3618,-183.7016 514,-165 506.4026,-153.5062 508.3714,-146.5756 514,-134 547.9865,-58.0658 651.3983,-30.4747 711.8075,-20.6851"/>
<polygon fill="#191970" stroke="#191970" points="712.4785,-24.1233 721.8383,-19.1589 711.4255,-17.203 712.4785,-24.1233"/>
</g>
<!-- Node6 -->
<g id="node7" class="node">
<title>Node6</title>
<g id="a_node7"><a xlink:href="../../dd/d13/AliTPCPoissonSolver_8h.html" target="_top" xlink:title="This class provides implementation of Poisson Eq solver by MultiGrid Method. ">
<polygon fill="none" stroke="#000000" points="1015.5,-140 1015.5,-159 1140.5,-159 1140.5,-140 1015.5,-140"/>
<text text-anchor="middle" x="1078" y="-147" font-family="Helvetica,sans-Serif" font-size="10.00" fill="#000000">AliTPCPoissonSolver.h</text>
</a>
</g>
</g>
<!-- Node1&#45;&gt;Node6 -->
<g id="edge6" class="edge">
<title>Node1&#45;&gt;Node6</title>
<path fill="none" stroke="#191970" d="M699.5528,-203.3733C776.3308,-195.4029 897.1173,-181.7339 1001,-165 1008.395,-163.8088 1016.1616,-162.4151 1023.7999,-160.9608"/>
<polygon fill="#191970" stroke="#191970" points="1024.5797,-164.3747 1033.7252,-159.0258 1023.2402,-157.5041 1024.5797,-164.3747"/>
</g>
<!-- Node9 -->
<g id="node10" class="node">
<title>Node9</title>
<g id="a_node10"><a xlink:href="../../d1/dc0/AliTPCLookUpTable3DInterpolatorD_8h.html" target="_top" xlink:title="Wrap up look&#45;up table for correction/distortion integral or derivative (electric field) assume 3 comp...">
<polygon fill="none" stroke="#000000" points="523.5,-140 523.5,-159 720.5,-159 720.5,-140 523.5,-140"/>
<text text-anchor="middle" x="622" y="-147" font-family="Helvetica,sans-Serif" font-size="10.00" fill="#000000">AliTPCLookUpTable3DInterpolatorD.h</text>
</a>
</g>
</g>
<!-- Node1&#45;&gt;Node9 -->
<g id="edge10" class="edge">
<title>Node1&#45;&gt;Node9</title>
<path fill="none" stroke="#191970" d="M622,-201.3906C622,-192.8657 622,-180.1392 622,-169.4235"/>
<polygon fill="#191970" stroke="#191970" points="625.5001,-169.2448 622,-159.2449 618.5001,-169.2449 625.5001,-169.2448"/>
</g>
<!-- Node10 -->
<g id="node11" class="node">
<title>Node10</title>
<g id="a_node11"><a xlink:href="../../d2/d9a/AliTPC3DCylindricalInterpolator_8h.html" target="_top" xlink:title="Interpolator for cylindrical coordinate this class provides: cubic spline, quadratic and linear inter...">
<polygon fill="none" stroke="#000000" points="608.5,-73 608.5,-92 787.5,-92 787.5,-73 608.5,-73"/>
<text text-anchor="middle" x="698" y="-80" font-family="Helvetica,sans-Serif" font-size="10.00" fill="#000000">AliTPC3DCylindricalInterpolator.h</text>
</a>
</g>
</g>
<!-- Node1&#45;&gt;Node10 -->
<g id="edge14" class="edge">
<title>Node1&#45;&gt;Node10</title>
<path fill="none" stroke="#191970" d="M674.2142,-201.4856C694.8991,-194.8822 716.6551,-183.7446 729,-165 742.4013,-144.6514 727.1354,-117.6961 713.6811,-100.2269"/>
<polygon fill="#191970" stroke="#191970" points="716.0181,-97.5568 706.972,-92.0415 710.6043,-101.9943 716.0181,-97.5568"/>
</g>
<!-- Node11 -->
<g id="node12" class="node">
<title>Node11</title>
<g id="a_node12"><a xlink:href="../../df/d79/AliTPCLookUpTable3DInterpolatorIrregularD_8h.html" target="_top" xlink:title="Wrap up look&#45;up table with irregular grid. ">
<polygon fill="none" stroke="#000000" points="777.5,-134.5 777.5,-164.5 958.5,-164.5 958.5,-134.5 777.5,-134.5"/>
<text text-anchor="start" x="785.5" y="-152.5" font-family="Helvetica,sans-Serif" font-size="10.00" fill="#000000">AliTPCLookUpTable3DInterpolator</text>
<text text-anchor="middle" x="868" y="-141.5" font-family="Helvetica,sans-Serif" font-size="10.00" fill="#000000">IrregularD.h</text>
</a>
</g>
</g>
<!-- Node1&#45;&gt;Node11 -->
<g id="edge15" class="edge">
<title>Node1&#45;&gt;Node11</title>
<path fill="none" stroke="#191970" d="M660.1676,-201.4581C696.8036,-192.2991 753.0168,-178.2458 797.7477,-167.0631"/>
<polygon fill="#191970" stroke="#191970" points="798.8338,-170.3994 807.6863,-164.5784 797.136,-163.6084 798.8338,-170.3994"/>
</g>
<!-- Node12 -->
<g id="node13" class="node">
<title>Node12</title>
<g id="a_node13"><a xlink:href="../../d9/d86/AliTPC3DCylindricalInterpolatorIrregular_8h.html" target="_top" xlink:title="Irregular grid interpolator for cylindrical coordinate with r,phi,z different coordinates RBF&#45;based i...">
<polygon fill="none" stroke="#000000" points="844,-67.5 844,-97.5 1014,-97.5 1014,-67.5 844,-67.5"/>
<text text-anchor="start" x="852" y="-85.5" font-family="Helvetica,sans-Serif" font-size="10.00" fill="#000000">AliTPC3DCylindricalInterpolator</text>
<text text-anchor="middle" x="929" y="-74.5" font-family="Helvetica,sans-Serif" font-size="10.00" fill="#000000">Irregular.h</text>
</a>
</g>
</g>
<!-- Node1&#45;&gt;Node12 -->
<g id="edge19" class="edge">
<title>Node1&#45;&gt;Node12</title>
<path fill="none" stroke="#191970" d="M699.7705,-205.9822C796.0859,-198.9609 949.6604,-184.805 967,-165 982.2235,-147.612 967.5629,-123.0946 952.245,-105.3093"/>
<polygon fill="#191970" stroke="#191970" points="954.5918,-102.6887 945.2658,-97.6612 949.4211,-107.4071 954.5918,-102.6887"/>
</g>
<!-- Node6&#45;&gt;Node5 -->
<g id="edge8" class="edge">
<title>Node6&#45;&gt;Node5</title>
<path fill="none" stroke="#191970" d="M1074.4577,-139.767C1067.5173,-122.1718 1050.3747,-85.2109 1023,-67 987.405,-43.3206 868.2459,-27.3032 802.1402,-20.0057"/>
<polygon fill="#191970" stroke="#191970" points="802.3255,-16.5054 792.0071,-18.9095 801.5726,-23.4648 802.3255,-16.5054"/>
</g>
<!-- Node7 -->
<g id="node8" class="node">
<title>Node7</title>
<polygon fill="none" stroke="#bfbfbf" points="1070.5,-73 1070.5,-92 1137.5,-92 1137.5,-73 1070.5,-73"/>
<text text-anchor="middle" x="1104" y="-80" font-family="Helvetica,sans-Serif" font-size="10.00" fill="#000000">TNamed.h</text>
</g>
<!-- Node6&#45;&gt;Node7 -->
<g id="edge7" class="edge">
<title>Node6&#45;&gt;Node7</title>
<path fill="none" stroke="#191970" d="M1081.7252,-139.9005C1085.5866,-129.95 1091.726,-114.1292 1096.5823,-101.6147"/>
<polygon fill="#191970" stroke="#191970" points="1099.9269,-102.6706 1100.2817,-92.0817 1093.401,-100.1381 1099.9269,-102.6706"/>
</g>
<!-- Node8 -->
<g id="node9" class="node">
<title>Node8</title>
<polygon fill="none" stroke="#bfbfbf" points="1156,-73 1156,-92 1226,-92 1226,-73 1156,-73"/>
<text text-anchor="middle" x="1191" y="-80" font-family="Helvetica,sans-Serif" font-size="10.00" fill="#000000">TVectorD.h</text>
</g>
<!-- Node6&#45;&gt;Node8 -->
<g id="edge9" class="edge">
<title>Node6&#45;&gt;Node8</title>
<path fill="none" stroke="#191970" d="M1094.1901,-139.9005C1112.9863,-128.7559 1144.2016,-110.2477 1166.0924,-97.2682"/>
<polygon fill="#191970" stroke="#191970" points="1168.0233,-100.1924 1174.8399,-92.0817 1164.4531,-94.1712 1168.0233,-100.1924"/>
</g>
<!-- Node9&#45;&gt;Node5 -->
<g id="edge11" class="edge">
<title>Node9&#45;&gt;Node5</title>
<path fill="none" stroke="#191970" d="M614.518,-139.9182C602.6807,-123.5112 582.5796,-89.6228 599,-67 612.4645,-48.4496 670.0861,-33.0864 711.861,-24.1007"/>
<polygon fill="#191970" stroke="#191970" points="712.7681,-27.4867 721.8375,-22.0098 711.3322,-20.6355 712.7681,-27.4867"/>
</g>
<!-- Node9&#45;&gt;Node10 -->
<g id="edge12" class="edge">
<title>Node9&#45;&gt;Node10</title>
<path fill="none" stroke="#191970" d="M632.8889,-139.9005C644.9662,-129.2535 664.6671,-111.8856 679.24,-99.0385"/>
<polygon fill="#191970" stroke="#191970" points="681.9445,-101.3201 687.1313,-92.0817 677.3154,-96.0692 681.9445,-101.3201"/>
</g>
<!-- Node10&#45;&gt;Node5 -->
<g id="edge13" class="edge">
<title>Node10&#45;&gt;Node5</title>
<path fill="none" stroke="#191970" d="M706.4533,-72.9005C715.6538,-62.4525 730.5535,-45.5325 741.7978,-32.7635"/>
<polygon fill="#191970" stroke="#191970" points="744.5803,-34.8997 748.5624,-25.0817 739.3269,-30.2735 744.5803,-34.8997"/>
</g>
<!-- Node11&#45;&gt;Node5 -->
<g id="edge16" class="edge">
<title>Node11&#45;&gt;Node5</title>
<path fill="none" stroke="#191970" d="M855.4827,-134.389C834.8012,-109.4222 793.6021,-59.6864 771.6174,-33.1462"/>
<polygon fill="#191970" stroke="#191970" points="774.0303,-30.5725 764.9557,-25.1042 768.6396,-35.0379 774.0303,-30.5725"/>
</g>
<!-- Node11&#45;&gt;Node12 -->
<g id="edge17" class="edge">
<title>Node11&#45;&gt;Node12</title>
<path fill="none" stroke="#191970" d="M881.8418,-134.2967C889.6411,-125.7303 899.5366,-114.8614 908.247,-105.2943"/>
<polygon fill="#191970" stroke="#191970" points="911.0687,-107.3939 915.2129,-97.6432 905.8926,-102.6813 911.0687,-107.3939"/>
</g>
<!-- Node12&#45;&gt;Node5 -->
<g id="edge18" class="edge">
<title>Node12&#45;&gt;Node5</title>
<path fill="none" stroke="#191970" d="M890.3998,-67.4639C860.5419,-55.8332 819.5985,-39.8843 790.9742,-28.7342"/>
<polygon fill="#191970" stroke="#191970" points="791.9901,-25.3737 781.4016,-25.0053 789.4492,-31.8963 791.9901,-25.3737"/>
</g>
<!-- Node14 -->
<g id="node15" class="node">
<title>Node14</title>
<polygon fill="none" stroke="#bfbfbf" points="1158.5,-140 1158.5,-159 1205.5,-159 1205.5,-140 1158.5,-140"/>
<text text-anchor="middle" x="1182" y="-147" font-family="Helvetica,sans-Serif" font-size="10.00" fill="#000000">cmath</text>
</g>
<!-- Node13&#45;&gt;Node14 -->
<g id="edge21" class="edge">
<title>Node13&#45;&gt;Node14</title>
<path fill="none" stroke="#191970" d="M1276.5,-201.3906C1258.2535,-191.3713 1229.4376,-175.5483 1208.4194,-164.0071"/>
<polygon fill="#191970" stroke="#191970" points="1209.8272,-160.7872 1199.3771,-159.0419 1206.458,-166.923 1209.8272,-160.7872"/>
</g>
<!-- Node15 -->
<g id="node16" class="node">
<title>Node15</title>
<g id="a_node16"><a xlink:href="../../d1/da8/GPUROOTCartesianFwd_8h.html" target="_top" xlink:title="GPUROOTCartesianFwd.h">
<polygon fill="none" stroke="#000000" points="1224,-140 1224,-159 1364,-159 1364,-140 1224,-140"/>
<text text-anchor="middle" x="1294" y="-147" font-family="Helvetica,sans-Serif" font-size="10.00" fill="#000000">GPUROOTCartesianFwd.h</text>
</a>
</g>
</g>
<!-- Node13&#45;&gt;Node15 -->
<g id="edge22" class="edge">
<title>Node13&#45;&gt;Node15</title>
<path fill="none" stroke="#191970" d="M1294,-201.3906C1294,-192.8657 1294,-180.1392 1294,-169.4235"/>
<polygon fill="#191970" stroke="#191970" points="1297.5001,-169.2448 1294,-159.2449 1290.5001,-169.2449 1297.5001,-169.2448"/>
</g>
<!-- Node16 -->
<g id="node17" class="node">
<title>Node16</title>
<g id="a_node17"><a xlink:href="../../d2/dd0/Cartesian2D_8h.html" target="_top" xlink:title="MathUtils/Cartesian2D.h">
<polygon fill="none" stroke="#000000" points="1297.5,-73 1297.5,-92 1432.5,-92 1432.5,-73 1297.5,-73"/>
<text text-anchor="middle" x="1365" y="-80" font-family="Helvetica,sans-Serif" font-size="10.00" fill="#000000">MathUtils/Cartesian2D.h</text>
</a>
</g>
</g>
<!-- Node13&#45;&gt;Node16 -->
<g id="edge23" class="edge">
<title>Node13&#45;&gt;Node16</title>
<path fill="none" stroke="#191970" d="M1325.5032,-201.3744C1342.8159,-194.2912 1362.796,-182.7494 1373,-165 1384.1066,-145.6806 1378.8486,-119.5456 1372.9603,-101.9102"/>
<polygon fill="#191970" stroke="#191970" points="1376.1069,-100.3282 1369.3532,-92.165 1369.5421,-102.7581 1376.1069,-100.3282"/>
</g>
<!-- Node19 -->
<g id="node20" class="node">
<title>Node19</title>
<g id="a_node20"><a xlink:href="../../dd/d76/Cartesian3D_8h.html" target="_top" xlink:title="MathUtils/Cartesian3D.h">
<polygon fill="none" stroke="#000000" points="1944.5,-140 1944.5,-159 2079.5,-159 2079.5,-140 1944.5,-140"/>
<text text-anchor="middle" x="2012" y="-147" font-family="Helvetica,sans-Serif" font-size="10.00" fill="#000000">MathUtils/Cartesian3D.h</text>
</a>
</g>
</g>
<!-- Node13&#45;&gt;Node19 -->
<g id="edge26" class="edge">
<title>Node13&#45;&gt;Node19</title>
<path fill="none" stroke="#191970" d="M1360.5815,-205.297C1493.7021,-193.8946 1792.0646,-168.3385 1934.0461,-156.1771"/>
<polygon fill="#191970" stroke="#191970" points="1934.7418,-159.6304 1944.4066,-155.2897 1934.1443,-152.656 1934.7418,-159.6304"/>
</g>
<!-- Node17 -->
<g id="node18" class="node">
<title>Node17</title>
<polygon fill="none" stroke="#bfbfbf" points="1185,-.5 1185,-30.5 1349,-30.5 1349,-.5 1185,-.5"/>
<text text-anchor="start" x="1193" y="-18.5" font-family="Helvetica,sans-Serif" font-size="10.00" fill="#000000">Math/GenVector/Displacement</text>
<text text-anchor="middle" x="1267" y="-7.5" font-family="Helvetica,sans-Serif" font-size="10.00" fill="#000000">Vector2D.h</text>
</g>
<!-- Node16&#45;&gt;Node17 -->
<g id="edge24" class="edge">
<title>Node16&#45;&gt;Node17</title>
<path fill="none" stroke="#191970" d="M1350.959,-72.9005C1337.0412,-63.3853 1315.272,-48.5023 1297.388,-36.2755"/>
<polygon fill="#191970" stroke="#191970" points="1299.2026,-33.2763 1288.9721,-30.5218 1295.2519,-39.0549 1299.2026,-33.2763"/>
</g>
<!-- Node18 -->
<g id="node19" class="node">
<title>Node18</title>
<polygon fill="none" stroke="#bfbfbf" points="1367.5,-6 1367.5,-25 1556.5,-25 1556.5,-6 1367.5,-6"/>
<text text-anchor="middle" x="1462" y="-13" font-family="Helvetica,sans-Serif" font-size="10.00" fill="#000000">Math/GenVector/PositionVector2D.h</text>
</g>
<!-- Node16&#45;&gt;Node18 -->
<g id="edge25" class="edge">
<title>Node16&#45;&gt;Node18</title>
<path fill="none" stroke="#191970" d="M1378.8977,-72.9005C1394.8164,-61.9052 1421.1121,-43.7422 1439.8599,-30.7927"/>
<polygon fill="#191970" stroke="#191970" points="1441.8892,-33.6448 1448.128,-25.0817 1437.9108,-27.8852 1441.8892,-33.6448"/>
</g>
<!-- Node19&#45;&gt;Node16 -->
<g id="edge35" class="edge">
<title>Node19&#45;&gt;Node16</title>
<path fill="none" stroke="#191970" d="M1944.1591,-145.7598C1837.0621,-139.3187 1622.4313,-124.2323 1442,-98 1434.2197,-96.8688 1426.0382,-95.461 1418.0308,-93.9584"/>
<polygon fill="#191970" stroke="#191970" points="1418.5081,-90.4859 1408.0247,-92.0183 1417.1756,-97.3579 1418.5081,-90.4859"/>
</g>
<!-- Node20 -->
<g id="node21" class="node">
<title>Node20</title>
<polygon fill="none" stroke="#bfbfbf" points="1451,-67.5 1451,-97.5 1615,-97.5 1615,-67.5 1451,-67.5"/>
<text text-anchor="start" x="1459" y="-85.5" font-family="Helvetica,sans-Serif" font-size="10.00" fill="#000000">Math/GenVector/Displacement</text>
<text text-anchor="middle" x="1533" y="-74.5" font-family="Helvetica,sans-Serif" font-size="10.00" fill="#000000">Vector3D.h</text>
</g>
<!-- Node19&#45;&gt;Node20 -->
<g id="edge27" class="edge">
<title>Node19&#45;&gt;Node20</title>
<path fill="none" stroke="#191970" d="M1944.2551,-141.2739C1868.8559,-131.9455 1743.1399,-115.8791 1625.2415,-98.1589"/>
<polygon fill="#191970" stroke="#191970" points="1625.7285,-94.6929 1615.318,-96.6606 1624.6834,-101.6144 1625.7285,-94.6929"/>
</g>
<!-- Node21 -->
<g id="node22" class="node">
<title>Node21</title>
<polygon fill="none" stroke="#bfbfbf" points="1633.5,-73 1633.5,-92 1822.5,-92 1822.5,-73 1633.5,-73"/>
<text text-anchor="middle" x="1728" y="-80" font-family="Helvetica,sans-Serif" font-size="10.00" fill="#000000">Math/GenVector/PositionVector3D.h</text>
</g>
<!-- Node19&#45;&gt;Node21 -->
<g id="edge28" class="edge">
<title>Node19&#45;&gt;Node21</title>
<path fill="none" stroke="#191970" d="M1971.6113,-139.9717C1920.8648,-127.9998 1833.76,-107.4504 1778.6175,-94.4415"/>
<polygon fill="#191970" stroke="#191970" points="1779.2456,-90.9936 1768.7092,-92.1039 1777.6383,-97.8066 1779.2456,-90.9936"/>
</g>
<!-- Node22 -->
<g id="node23" class="node">
<title>Node22</title>
<polygon fill="none" stroke="#bfbfbf" points="1841,-73 1841,-92 2001,-92 2001,-73 1841,-73"/>
<text text-anchor="middle" x="1921" y="-80" font-family="Helvetica,sans-Serif" font-size="10.00" fill="#000000">Math/GenVector/Rotation3D.h</text>
</g>
<!-- Node19&#45;&gt;Node22 -->
<g id="edge29" class="edge">
<title>Node19&#45;&gt;Node22</title>
<path fill="none" stroke="#191970" d="M1998.9619,-139.9005C1984.2307,-129.0544 1960.0267,-111.2339 1942.4908,-98.3229"/>
<polygon fill="#191970" stroke="#191970" points="1944.1418,-95.1922 1934.0139,-92.0817 1939.9915,-100.8291 1944.1418,-95.1922"/>
</g>
<!-- Node23 -->
<g id="node24" class="node">
<title>Node23</title>
<polygon fill="none" stroke="#bfbfbf" points="2019,-73 2019,-92 2187,-92 2187,-73 2019,-73"/>
<text text-anchor="middle" x="2103" y="-80" font-family="Helvetica,sans-Serif" font-size="10.00" fill="#000000">Math/GenVector/Transform3D.h</text>
</g>
<!-- Node19&#45;&gt;Node23 -->
<g id="edge30" class="edge">
<title>Node19&#45;&gt;Node23</title>
<path fill="none" stroke="#191970" d="M2025.0381,-139.9005C2039.7693,-129.0544 2063.9733,-111.2339 2081.5092,-98.3229"/>
<polygon fill="#191970" stroke="#191970" points="2084.0085,-100.8291 2089.9861,-92.0817 2079.8582,-95.1922 2084.0085,-100.8291"/>
</g>
<!-- Node24 -->
<g id="node25" class="node">
<title>Node24</title>
<polygon fill="none" stroke="#bfbfbf" points="2205.5,-73 2205.5,-92 2378.5,-92 2378.5,-73 2205.5,-73"/>
<text text-anchor="middle" x="2292" y="-80" font-family="Helvetica,sans-Serif" font-size="10.00" fill="#000000">Math/GenVector/Translation3D.h</text>
</g>
<!-- Node19&#45;&gt;Node24 -->
<g id="edge31" class="edge">
<title>Node19&#45;&gt;Node24</title>
<path fill="none" stroke="#191970" d="M2051.8198,-139.9717C2101.8516,-127.9998 2187.7296,-107.4504 2242.0954,-94.4415"/>
<polygon fill="#191970" stroke="#191970" points="2242.9533,-97.8351 2251.8642,-92.1039 2241.3242,-91.0272 2242.9533,-97.8351"/>
</g>
<!-- Node25 -->
<g id="node26" class="node">
<title>Node25</title>
<polygon fill="none" stroke="#bfbfbf" points="2396.5,-73 2396.5,-92 2455.5,-92 2455.5,-73 2396.5,-73"/>
<text text-anchor="middle" x="2426" y="-80" font-family="Helvetica,sans-Serif" font-size="10.00" fill="#000000">Rtypes.h</text>
</g>
<!-- Node19&#45;&gt;Node25 -->
<g id="edge32" class="edge">
<title>Node19&#45;&gt;Node25</title>
<path fill="none" stroke="#191970" d="M2079.5675,-145.3725C2155.6186,-139.5513 2282.3514,-126.298 2388,-98 2390.469,-97.3387 2392.9923,-96.5583 2395.5062,-95.7052"/>
<polygon fill="#191970" stroke="#191970" points="2396.8762,-98.9298 2405.0202,-92.1529 2394.4276,-92.372 2396.8762,-98.9298"/>
</g>
<!-- Node26 -->
<g id="node27" class="node">
<title>Node26</title>
<polygon fill="none" stroke="#bfbfbf" points="2474,-73 2474,-92 2556,-92 2556,-73 2474,-73"/>
<text text-anchor="middle" x="2515" y="-80" font-family="Helvetica,sans-Serif" font-size="10.00" fill="#000000">TGeoMatrix.h</text>
</g>
<!-- Node19&#45;&gt;Node26 -->
<g id="edge33" class="edge">
<title>Node19&#45;&gt;Node26</title>
<path fill="none" stroke="#191970" d="M2079.7869,-145.7669C2168.9146,-139.956 2330.0185,-126.3336 2465,-98 2469.1525,-97.1284 2473.4534,-96.0591 2477.7104,-94.8933"/>
<polygon fill="#191970" stroke="#191970" points="2478.8537,-98.2058 2487.4735,-92.0455 2476.8935,-91.4858 2478.8537,-98.2058"/>
</g>
<!-- Node27 -->
<g id="node28" class="node">
<title>Node27</title>
<polygon fill="none" stroke="#bfbfbf" points="2574.5,-73 2574.5,-92 2623.5,-92 2623.5,-73 2574.5,-73"/>
<text text-anchor="middle" x="2599" y="-80" font-family="Helvetica,sans-Serif" font-size="10.00" fill="#000000">iosfwd</text>
</g>
<!-- Node19&#45;&gt;Node27 -->
<g id="edge34" class="edge">
<title>Node19&#45;&gt;Node27</title>
<path fill="none" stroke="#191970" d="M2079.6528,-146.0292C2206.4347,-139.058 2475.0869,-121.9475 2565,-98 2567.1901,-97.4167 2569.4157,-96.7039 2571.6263,-95.9078"/>
<polygon fill="#191970" stroke="#191970" points="2573.1467,-99.0671 2581.0652,-92.028 2570.4854,-92.5927 2573.1467,-99.0671"/>
</g>
<!-- Node28&#45;&gt;Node2 -->
<g id="edge39" class="edge">
<title>Node28&#45;&gt;Node2</title>
<path fill="none" stroke="#191970" d="M219.9688,-201.3906C238.7884,-191.3262 268.5585,-175.4057 290.1641,-163.8514"/>
<polygon fill="#191970" stroke="#191970" points="291.9898,-166.8442 299.1574,-159.0419 288.6886,-160.6714 291.9898,-166.8442"/>
</g>
<!-- Node29 -->
<g id="node30" class="node">
<title>Node29</title>
<polygon fill="none" stroke="#bfbfbf" points="0,-140 0,-159 44,-159 44,-140 0,-140"/>
<text text-anchor="middle" x="22" y="-147" font-family="Helvetica,sans-Serif" font-size="10.00" fill="#000000">Vc/Vc</text>
</g>
<!-- Node28&#45;&gt;Node29 -->
<g id="edge37" class="edge">
<title>Node28&#45;&gt;Node29</title>
<path fill="none" stroke="#191970" d="M165.2903,-201.4814C134.7709,-193.1389 90.4377,-180.0202 53,-165 51.6388,-164.4539 50.2557,-163.8712 48.8674,-163.264"/>
<polygon fill="#191970" stroke="#191970" points="50.3435,-160.0905 39.8024,-159.0253 47.3785,-166.4316 50.3435,-160.0905"/>
</g>
<!-- Node30 -->
<g id="node31" class="node">
<title>Node30</title>
<polygon fill="none" stroke="#bfbfbf" points="62,-140 62,-159 104,-159 104,-140 62,-140"/>
<text text-anchor="middle" x="83" y="-147" font-family="Helvetica,sans-Serif" font-size="10.00" fill="#000000">array</text>
</g>
<!-- Node28&#45;&gt;Node30 -->
<g id="edge38" class="edge">
<title>Node28&#45;&gt;Node30</title>
<path fill="none" stroke="#191970" d="M183.4063,-201.3906C163.8447,-191.2811 132.8499,-175.2628 110.4691,-163.6962"/>
<polygon fill="#191970" stroke="#191970" points="111.9539,-160.5238 101.4632,-159.0419 108.74,-166.7425 111.9539,-160.5238"/>
</g>
<!-- Node31 -->
<g id="node32" class="node">
<title>Node31</title>
<polygon fill="none" stroke="#bfbfbf" points="122,-140 122,-159 194,-159 194,-140 122,-140"/>
<text text-anchor="middle" x="158" y="-147" font-family="Helvetica,sans-Serif" font-size="10.00" fill="#000000">TRandom.h</text>
</g>
<!-- Node28&#45;&gt;Node31 -->
<g id="edge40" class="edge">
<title>Node28&#45;&gt;Node31</title>
<path fill="none" stroke="#191970" d="M195.125,-201.3906C188.6407,-192.3273 178.7586,-178.5149 170.8199,-167.4188"/>
<polygon fill="#191970" stroke="#191970" points="173.6371,-165.3412 164.9719,-159.2449 167.9441,-169.4143 173.6371,-165.3412"/>
</g>
<!-- Node32 -->
<g id="node33" class="node">
<title>Node32</title>
<polygon fill="none" stroke="#bfbfbf" points="212.5,-140 212.5,-159 277.5,-159 277.5,-140 212.5,-140"/>
<text text-anchor="middle" x="245" y="-147" font-family="Helvetica,sans-Serif" font-size="10.00" fill="#000000">functional</text>
</g>
<!-- Node28&#45;&gt;Node32 -->
<g id="edge41" class="edge">
<title>Node28&#45;&gt;Node32</title>
<path fill="none" stroke="#191970" d="M208.7188,-201.3906C214.993,-192.417 224.5223,-178.7879 232.2404,-167.7491"/>
<polygon fill="#191970" stroke="#191970" points="235.3247,-169.4459 238.1865,-159.2449 229.5879,-165.4348 235.3247,-169.4459"/>
</g>
</g>
</svg>
