<?xml version="1.0" encoding="UTF-8" standalone="no"?>
<!DOCTYPE svg PUBLIC "-//W3C//DTD SVG 1.1//EN"
 "http://www.w3.org/Graphics/SVG/1.1/DTD/svg11.dtd">
<!-- Generated by graphviz version 2.40.1 (20161225.0304)
 -->
<!-- Title: /home/travis/build/AliceO2Group/AliceO2/Framework/Core/src/ConfigurationOptionsRetriever.h Pages: 1 -->
<!--zoomable 296 -->
<svg id="main" version="1.1" xmlns="http://www.w3.org/2000/svg" xmlns:xlink="http://www.w3.org/1999/xlink" xml:space="preserve" onload="init(evt)">
<style type="text/css"><![CDATA[
.edge:hover path { stroke: red; }
.edge:hover polygon { stroke: red; fill: red; }
]]></style>
<script type="text/javascript"><![CDATA[
var edges = document.getElementsByTagName('g');
if (edges && edges.length) {
  for (var i=0;i<edges.length;i++) {
    if (edges[i].id.substr(0,4)=='edge') {
      edges[i].setAttribute('class','edge');
    }
  }
}
]]></script>
        <defs>
                <circle id="rim" cx="0" cy="0" r="7"/>
                <circle id="rim2" cx="0" cy="0" r="3.5"/>
                <g id="zoomPlus">
                        <use xlink:href="#rim" fill="#404040">
                                <set attributeName="fill" to="#808080" begin="zoomplus.mouseover" end="zoomplus.mouseout"/>
                        </use>
                        <path d="M-4,0h8M0,-4v8" fill="none" stroke="white" stroke-width="1.5" pointer-events="none"/>
                </g>
                <g id="zoomMin">
                        <use xlink:href="#rim" fill="#404040">
                                <set attributeName="fill" to="#808080" begin="zoomminus.mouseover" end="zoomminus.mouseout"/>
                        </use>
                        <path d="M-4,0h8" fill="none" stroke="white" stroke-width="1.5" pointer-events="none"/>
                </g>
                <g id="dirArrow">
                        <path fill="none" stroke="white" stroke-width="1.5" d="M0,-3.0v7 M-2.5,-0.5L0,-3.0L2.5,-0.5"/>
                </g>
               <g id="resetDef">
                       <use xlink:href="#rim2" fill="#404040">
                               <set attributeName="fill" to="#808080" begin="reset.mouseover" end="reset.mouseout"/>
                       </use>
               </g>
        </defs>

<script type="text/javascript">
var viewWidth = 790;
var viewHeight = 296;
var sectionId = 'dynsection-0';
</script>
<script xlink:href="../../svgpan.js"/>
<svg id="graph" class="graph">
<g id="viewport">
<title>/home/travis/build/AliceO2Group/AliceO2/Framework/Core/src/ConfigurationOptionsRetriever.h</title>
<!-- Node0 -->
<g id="node1" class="node">
<title>Node0</title>
<polygon fill="#bfbfbf" stroke="#000000" points="584.5,-235.5 584.5,-287.5 769.5,-287.5 769.5,-235.5 584.5,-235.5"/>
<text text-anchor="start" x="592.5" y="-275.5" font-family="Helvetica,sans-Serif" font-size="10.00" fill="#000000">/home/travis/build</text>
<text text-anchor="start" x="592.5" y="-264.5" font-family="Helvetica,sans-Serif" font-size="10.00" fill="#000000">/AliceO2Group/AliceO2</text>
<text text-anchor="start" x="592.5" y="-253.5" font-family="Helvetica,sans-Serif" font-size="10.00" fill="#000000">/Framework/Core/src/Configuration</text>
<text text-anchor="middle" x="677" y="-242.5" font-family="Helvetica,sans-Serif" font-size="10.00" fill="#000000">OptionsRetriever.h</text>
</g>
<!-- Node1 -->
<g id="node2" class="node">
<title>Node1</title>
<g id="a_node2"><a xlink:href="../../df/d72/ParamRetriever_8h.html" target="_top" xlink:title="Framework/ParamRetriever.h">
<polygon fill="none" stroke="#000000" points="491.5,-179.5 491.5,-198.5 648.5,-198.5 648.5,-179.5 491.5,-179.5"/>
<text text-anchor="middle" x="570" y="-186.5" font-family="Helvetica,sans-Serif" font-size="10.00" fill="#000000">Framework/ParamRetriever.h</text>
</a>
</g>
</g>
<!-- Node0&#45;&gt;Node1 -->
<g id="edge1" class="edge">
<title>Node0&#45;&gt;Node1</title>
<path fill="none" stroke="#191970" d="M638.3705,-235.3258C623.0012,-224.912 605.8533,-213.2931 592.5755,-204.2965"/>
<polygon fill="#191970" stroke="#191970" points="594.3128,-201.2459 584.0709,-198.534 590.3862,-207.0409 594.3128,-201.2459"/>
</g>
<!-- Node2 -->
<g id="node3" class="node">
<title>Node2</title>
<g id="a_node3"><a xlink:href="../../d0/d1c/ConfigParamSpec_8h.html" target="_top" xlink:title="Framework/ConfigParamSpec.h">
<polygon fill="none" stroke="#000000" points="366.5,-118 366.5,-137 533.5,-137 533.5,-118 366.5,-118"/>
<text text-anchor="middle" x="450" y="-125" font-family="Helvetica,sans-Serif" font-size="10.00" fill="#000000">Framework/ConfigParamSpec.h</text>
</a>
</g>
</g>
<!-- Node0&#45;&gt;Node2 -->
<g id="edge17" class="edge">
<title>Node0&#45;&gt;Node2</title>
<path fill="none" stroke="#191970" d="M584.0291,-248.2848C548.6985,-239.3088 510.2114,-224.2507 482,-199 466.8505,-185.4404 458.4819,-163.3338 454.1409,-147.2871"/>
<polygon fill="#191970" stroke="#191970" points="457.4865,-146.23 451.7452,-137.3256 450.6806,-147.8668 457.4865,-146.23"/>
</g>
<!-- Node12 -->
<g id="node13" class="node">
<title>Node12</title>
<polygon fill="none" stroke="#bfbfbf" points="715,-.5 715,-19.5 759,-19.5 759,-.5 715,-.5"/>
<text text-anchor="middle" x="737" y="-7.5" font-family="Helvetica,sans-Serif" font-size="10.00" fill="#000000">string</text>
</g>
<!-- Node0&#45;&gt;Node12 -->
<g id="edge19" class="edge">
<title>Node0&#45;&gt;Node12</title>
<path fill="none" stroke="#191970" d="M709.0485,-235.1117C732.8781,-213.2652 763.5061,-179.9132 777,-143 791.746,-102.6614 766.6059,-54.0676 749.9462,-28.236"/>
<polygon fill="#191970" stroke="#191970" points="752.7642,-26.1544 744.2816,-19.8065 746.9541,-30.0587 752.7642,-26.1544"/>
</g>
<!-- Node13 -->
<g id="node14" class="node">
<title>Node13</title>
<polygon fill="none" stroke="#bfbfbf" points="589.5,-112.5 589.5,-142.5 702.5,-142.5 702.5,-112.5 589.5,-112.5"/>
<text text-anchor="start" x="597.5" y="-130.5" font-family="Helvetica,sans-Serif" font-size="10.00" fill="#000000">boost/property_tree</text>
<text text-anchor="middle" x="646" y="-119.5" font-family="Helvetica,sans-Serif" font-size="10.00" fill="#000000">/ptree_fwd.hpp</text>
</g>
<!-- Node0&#45;&gt;Node13 -->
<g id="edge18" class="edge">
<title>Node0&#45;&gt;Node13</title>
<path fill="none" stroke="#191970" d="M670.9493,-235.3453C665.4179,-211.4355 657.2903,-176.3033 651.8295,-152.6986"/>
<polygon fill="#191970" stroke="#191970" points="655.191,-151.6999 649.5271,-142.7461 648.3711,-153.2777 655.191,-151.6999"/>
</g>
<!-- Node14 -->
<g id="node15" class="node">
<title>Node14</title>
<polygon fill="none" stroke="#bfbfbf" points="720.5,-118 720.5,-137 767.5,-137 767.5,-118 720.5,-118"/>
<text text-anchor="middle" x="744" y="-125" font-family="Helvetica,sans-Serif" font-size="10.00" fill="#000000">vector</text>
</g>
<!-- Node0&#45;&gt;Node14 -->
<g id="edge20" class="edge">
<title>Node0&#45;&gt;Node14</title>
<path fill="none" stroke="#191970" d="M690.0773,-235.3453C703.1476,-209.2047 722.925,-169.6499 734.5444,-146.4112"/>
<polygon fill="#191970" stroke="#191970" points="737.777,-147.7722 739.1187,-137.2626 731.516,-144.6417 737.777,-147.7722"/>
</g>
<!-- Node1&#45;&gt;Node2 -->
<g id="edge2" class="edge">
<title>Node1&#45;&gt;Node2</title>
<path fill="none" stroke="#191970" d="M551.25,-179.3906C531.524,-169.2811 500.2688,-153.2628 477.7,-141.6962"/>
<polygon fill="#191970" stroke="#191970" points="479.114,-138.4881 468.6183,-137.0419 475.9213,-144.7176 479.114,-138.4881"/>
</g>
<!-- Node1&#45;&gt;Node12 -->
<g id="edge15" class="edge">
<title>Node1&#45;&gt;Node12</title>
<path fill="none" stroke="#191970" d="M568.7921,-179.1347C567.4004,-163.5853 566.7847,-132.9901 580,-112 609.285,-65.4859 668.3853,-35.9162 705.1337,-21.201"/>
<polygon fill="#191970" stroke="#191970" points="706.7957,-24.3112 714.8626,-17.4428 704.2732,-17.7814 706.7957,-24.3112"/>
</g>
<!-- Node1&#45;&gt;Node13 -->
<g id="edge14" class="edge">
<title>Node1&#45;&gt;Node13</title>
<path fill="none" stroke="#191970" d="M581.875,-179.3906C591.875,-171.2986 606.5533,-159.4207 619.3438,-149.0705"/>
<polygon fill="#191970" stroke="#191970" points="621.8363,-151.5559 627.4083,-142.5446 617.433,-146.1144 621.8363,-151.5559"/>
</g>
<!-- Node1&#45;&gt;Node14 -->
<g id="edge16" class="edge">
<title>Node1&#45;&gt;Node14</title>
<path fill="none" stroke="#191970" d="M603.7456,-179.4974C632.8127,-170.975 675.6928,-157.5931 712,-143 713.3603,-142.4532 714.7436,-141.8745 716.134,-141.2745"/>
<polygon fill="#191970" stroke="#191970" points="717.5981,-144.4536 725.2425,-137.1179 714.692,-138.0854 717.5981,-144.4536"/>
</g>
<!-- Node3 -->
<g id="node4" class="node">
<title>Node3</title>
<g id="a_node4"><a xlink:href="../../de/d56/Variant_8h.html" target="_top" xlink:title="Framework/Variant.h">
<polygon fill="none" stroke="#000000" points="350.5,-56.5 350.5,-75.5 467.5,-75.5 467.5,-56.5 350.5,-56.5"/>
<text text-anchor="middle" x="409" y="-63.5" font-family="Helvetica,sans-Serif" font-size="10.00" fill="#000000">Framework/Variant.h</text>
</a>
</g>
</g>
<!-- Node2&#45;&gt;Node3 -->
<g id="edge3" class="edge">
<title>Node2&#45;&gt;Node3</title>
<path fill="none" stroke="#191970" d="M443.5938,-117.8906C437.6114,-108.917 428.5253,-95.2879 421.1661,-84.2491"/>
<polygon fill="#191970" stroke="#191970" points="423.9558,-82.1239 415.4966,-75.7449 418.1314,-86.0068 423.9558,-82.1239"/>
</g>
<!-- Node2&#45;&gt;Node12 -->
<g id="edge13" class="edge">
<title>Node2&#45;&gt;Node12</title>
<path fill="none" stroke="#191970" d="M460.1228,-117.7659C476.8199,-102.2683 511.8025,-72.0968 547,-56 610.0604,-27.1607 634.0439,-38.0804 704.8872,-20.0586"/>
<polygon fill="#191970" stroke="#191970" points="705.9523,-23.3972 714.7205,-17.4499 704.1573,-16.6312 705.9523,-23.3972"/>
</g>
<!-- Node4 -->
<g id="node5" class="node">
<title>Node4</title>
<g id="a_node5"><a xlink:href="../../d1/d76/RuntimeError_8h.html" target="_top" xlink:title="Framework/RuntimeError.h">
<polygon fill="none" stroke="#000000" points="395,-.5 395,-19.5 541,-19.5 541,-.5 395,-.5"/>
<text text-anchor="middle" x="468" y="-7.5" font-family="Helvetica,sans-Serif" font-size="10.00" fill="#000000">Framework/RuntimeError.h</text>
</a>
</g>
</g>
<!-- Node3&#45;&gt;Node4 -->
<g id="edge4" class="edge">
<title>Node3&#45;&gt;Node4</title>
<path fill="none" stroke="#191970" d="M419.277,-56.2455C427.8218,-48.1352 440.1778,-36.4075 450.3085,-26.7919"/>
<polygon fill="#191970" stroke="#191970" points="452.9972,-29.0655 457.8408,-19.6427 448.1782,-23.9884 452.9972,-29.0655"/>
</g>
<!-- Node5 -->
<g id="node6" class="node">
<title>Node5</title>
<polygon fill="none" stroke="#bfbfbf" points="559.5,-.5 559.5,-19.5 628.5,-19.5 628.5,-.5 559.5,-.5"/>
<text text-anchor="middle" x="594" y="-7.5" font-family="Helvetica,sans-Serif" font-size="10.00" fill="#000000">type_traits</text>
</g>
<!-- Node3&#45;&gt;Node5 -->
<g id="edge5" class="edge">
<title>Node3&#45;&gt;Node5</title>
<path fill="none" stroke="#191970" d="M440.8026,-56.3733C471.8317,-46.9807 519.1754,-32.6496 553.0147,-22.4064"/>
<polygon fill="#191970" stroke="#191970" points="554.0553,-25.7483 562.6124,-19.5011 552.0272,-19.0485 554.0553,-25.7483"/>
</g>
<!-- Node6 -->
<g id="node7" class="node">
<title>Node6</title>
<polygon fill="none" stroke="#bfbfbf" points="647,-.5 647,-19.5 697,-19.5 697,-.5 647,-.5"/>
<text text-anchor="middle" x="672" y="-7.5" font-family="Helvetica,sans-Serif" font-size="10.00" fill="#000000">cstring</text>
</g>
<!-- Node3&#45;&gt;Node6 -->
<g id="edge6" class="edge">
<title>Node3&#45;&gt;Node6</title>
<path fill="none" stroke="#191970" d="M462.2435,-56.4933C508.6197,-47.9189 577.5574,-34.4641 637,-20 637.0998,-19.9757 637.1997,-19.9513 637.2998,-19.9269"/>
<polygon fill="#191970" stroke="#191970" points="638.0307,-23.3533 646.8284,-17.4497 636.2694,-16.5785 638.0307,-23.3533"/>
</g>
<!-- Node7 -->
<g id="node8" class="node">
<title>Node7</title>
<polygon fill="none" stroke="#bfbfbf" points="0,-.5 0,-19.5 50,-19.5 50,-.5 0,-.5"/>
<text text-anchor="middle" x="25" y="-7.5" font-family="Helvetica,sans-Serif" font-size="10.00" fill="#000000">cstdint</text>
</g>
<!-- Node3&#45;&gt;Node7 -->
<g id="edge7" class="edge">
<title>Node3&#45;&gt;Node7</title>
<path fill="none" stroke="#191970" d="M350.3167,-61.0964C282.5239,-54.8061 167.5579,-42.2176 60.1732,-19.9784"/>
<polygon fill="#191970" stroke="#191970" points="60.6462,-16.5013 50.1398,-17.8672 59.2049,-23.3513 60.6462,-16.5013"/>
</g>
<!-- Node8 -->
<g id="node9" class="node">
<title>Node8</title>
<polygon fill="none" stroke="#bfbfbf" points="68.5,-.5 68.5,-19.5 117.5,-19.5 117.5,-.5 68.5,-.5"/>
<text text-anchor="middle" x="93" y="-7.5" font-family="Helvetica,sans-Serif" font-size="10.00" fill="#000000">cstdlib</text>
</g>
<!-- Node3&#45;&gt;Node8 -->
<g id="edge8" class="edge">
<title>Node3&#45;&gt;Node8</title>
<path fill="none" stroke="#191970" d="M350.292,-58.7787C294.993,-51.4541 209.721,-38.8168 127.7488,-20.1934"/>
<polygon fill="#191970" stroke="#191970" points="128.3015,-16.7291 117.7708,-17.8926 126.7286,-23.5501 128.3015,-16.7291"/>
</g>
<!-- Node9 -->
<g id="node10" class="node">
<title>Node9</title>
<polygon fill="none" stroke="#bfbfbf" points="135.5,-.5 135.5,-19.5 184.5,-19.5 184.5,-.5 135.5,-.5"/>
<text text-anchor="middle" x="160" y="-7.5" font-family="Helvetica,sans-Serif" font-size="10.00" fill="#000000">iosfwd</text>
</g>
<!-- Node3&#45;&gt;Node9 -->
<g id="edge9" class="edge">
<title>Node3&#45;&gt;Node9</title>
<path fill="none" stroke="#191970" d="M358.0916,-56.4188C316.3731,-48.2825 255.6206,-35.7868 194.5964,-20.2762"/>
<polygon fill="#191970" stroke="#191970" points="195.3593,-16.8586 184.8029,-17.7611 193.618,-23.6386 195.3593,-16.8586"/>
</g>
<!-- Node10 -->
<g id="node11" class="node">
<title>Node10</title>
<polygon fill="none" stroke="#bfbfbf" points="202.5,-.5 202.5,-19.5 285.5,-19.5 285.5,-.5 202.5,-.5"/>
<text text-anchor="middle" x="244" y="-7.5" font-family="Helvetica,sans-Serif" font-size="10.00" fill="#000000">initializer_list</text>
</g>
<!-- Node3&#45;&gt;Node10 -->
<g id="edge10" class="edge">
<title>Node3&#45;&gt;Node10</title>
<path fill="none" stroke="#191970" d="M380.6355,-56.3733C353.3173,-47.1016 311.8204,-33.0178 281.7262,-22.804"/>
<polygon fill="#191970" stroke="#191970" points="282.5887,-19.4008 271.9944,-19.5011 280.339,-26.0294 282.5887,-19.4008"/>
</g>
<!-- Node11 -->
<g id="node12" class="node">
<title>Node11</title>
<polygon fill="none" stroke="#bfbfbf" points="303.5,-.5 303.5,-19.5 376.5,-19.5 376.5,-.5 303.5,-.5"/>
<text text-anchor="middle" x="340" y="-7.5" font-family="Helvetica,sans-Serif" font-size="10.00" fill="#000000">string_view</text>
</g>
<!-- Node3&#45;&gt;Node11 -->
<g id="edge11" class="edge">
<title>Node3&#45;&gt;Node11</title>
<path fill="none" stroke="#191970" d="M396.9811,-56.2455C386.7902,-47.9746 371.9638,-35.9416 359.9893,-26.2232"/>
<polygon fill="#191970" stroke="#191970" points="361.8514,-23.2268 351.8812,-19.6427 357.4402,-28.662 361.8514,-23.2268"/>
</g>
<!-- Node3&#45;&gt;Node12 -->
<g id="edge12" class="edge">
<title>Node3&#45;&gt;Node12</title>
<path fill="none" stroke="#191970" d="M467.5759,-59.7058C525.6861,-52.8384 617.3426,-40.3302 704.9365,-19.9612"/>
<polygon fill="#191970" stroke="#191970" points="705.8416,-23.3437 714.7683,-17.6372 704.2313,-16.5314 705.8416,-23.3437"/>
</g>
</g>
</svg>
        <g id="navigator" transform="translate(0 0)" fill="#404254">
                <rect fill="#f2f5e9" fill-opacity="0.5" stroke="#606060" stroke-width=".5" x="0" y="0" width="60" height="60"/>
                <use id="zoomplus" xlink:href="#zoomPlus" x="17" y="9" onmousedown="handleZoom(evt,'in')"/>
                <use id="zoomminus" xlink:href="#zoomMin" x="42" y="9" onmousedown="handleZoom(evt,'out')"/>
                <use id="reset" xlink:href="#resetDef" x="30" y="36" onmousedown="handleReset()"/>
                <g id="arrowUp" xlink:href="#dirArrow" transform="translate(30 24)" onmousedown="handlePan(0,-1)">
                  <use xlink:href="#rim" fill="#404040">
                        <set attributeName="fill" to="#808080" begin="arrowUp.mouseover" end="arrowUp.mouseout"/>
                  </use>
                  <path fill="none" stroke="white" stroke-width="1.5" d="M0,-3.0v7 M-2.5,-0.5L0,-3.0L2.5,-0.5"/>
                </g>
                <g id="arrowRight" xlink:href="#dirArrow" transform="rotate(90) translate(36 -43)" onmousedown="handlePan(1,0)">
                  <use xlink:href="#rim" fill="#404040">
                        <set attributeName="fill" to="#808080" begin="arrowRight.mouseover" end="arrowRight.mouseout"/>
                  </use>
                  <path fill="none" stroke="white" stroke-width="1.5" d="M0,-3.0v7 M-2.5,-0.5L0,-3.0L2.5,-0.5"/>
                </g>
                <g id="arrowDown" xlink:href="#dirArrow" transform="rotate(180) translate(-30 -48)" onmousedown="handlePan(0,1)">
                  <use xlink:href="#rim" fill="#404040">
                        <set attributeName="fill" to="#808080" begin="arrowDown.mouseover" end="arrowDown.mouseout"/>
                  </use>
                  <path fill="none" stroke="white" stroke-width="1.5" d="M0,-3.0v7 M-2.5,-0.5L0,-3.0L2.5,-0.5"/>
                </g>
                <g id="arrowLeft" xlink:href="#dirArrow" transform="rotate(270) translate(-36 17)" onmousedown="handlePan(-1,0)">
                  <use xlink:href="#rim" fill="#404040">
                        <set attributeName="fill" to="#808080" begin="arrowLeft.mouseover" end="arrowLeft.mouseout"/>
                  </use>
                  <path fill="none" stroke="white" stroke-width="1.5" d="M0,-3.0v7 M-2.5,-0.5L0,-3.0L2.5,-0.5"/>
                </g>
        </g>
        <svg viewBox="0 0 15 15" width="100%" height="30px" preserveAspectRatio="xMaxYMin meet">
         <g id="arrow_out" transform="scale(0.3 0.3)">
          <a xlink:href="ConfigurationOptionsRetriever_8h__incl_org.svg" target="_base">
           <rect id="button" ry="5" rx="5" y="6" x="6" height="38" width="38"
                fill="#f2f5e9" fill-opacity="0.5" stroke="#606060" stroke-width="1.0"/>
           <path id="arrow"
             d="M 11.500037,31.436501 C 11.940474,20.09759 22.043105,11.32322 32.158766,21.979434 L 37.068811,17.246167 C 37.068811,17.246167 37.088388,32 37.088388,32 L 22.160133,31.978069 C 22.160133,31.978069 26.997745,27.140456 26.997745,27.140456 C 18.528582,18.264221 13.291696,25.230495 11.500037,31.436501 z"
             style="fill:#404040;"/>
          </a>
         </g>
        </svg>
</svg>
