<?xml version="1.0" encoding="UTF-8" standalone="no"?>
<!DOCTYPE svg PUBLIC "-//W3C//DTD SVG 1.1//EN"
 "http://www.w3.org/Graphics/SVG/1.1/DTD/svg11.dtd">
<!-- Generated by graphviz version 2.40.1 (20161225.0304)
 -->
<!-- Title: /home/travis/build/AliceO2Group/AliceO2/Detectors/TPC/base/src/CalArray.cxx Pages: 1 -->
<svg width="1652pt" height="643pt"
 viewBox="0.00 0.00 1651.50 643.00" xmlns="http://www.w3.org/2000/svg" xmlns:xlink="http://www.w3.org/1999/xlink">
<g id="graph0" class="graph" transform="scale(1 1) rotate(0) translate(4 639)">
<title>/home/travis/build/AliceO2Group/AliceO2/Detectors/TPC/base/src/CalArray.cxx</title>
<!-- Node0 -->
<g id="node1" class="node">
<title>Node0</title>
<polygon fill="#bfbfbf" stroke="#000000" points="366,-582.5 366,-634.5 498,-634.5 498,-582.5 366,-582.5"/>
<text text-anchor="start" x="374" y="-622.5" font-family="Helvetica,sans-Serif" font-size="10.00" fill="#000000">/home/travis/build</text>
<text text-anchor="start" x="374" y="-611.5" font-family="Helvetica,sans-Serif" font-size="10.00" fill="#000000">/AliceO2Group/AliceO2</text>
<text text-anchor="start" x="374" y="-600.5" font-family="Helvetica,sans-Serif" font-size="10.00" fill="#000000">/Detectors/TPC/base/src</text>
<text text-anchor="middle" x="432" y="-589.5" font-family="Helvetica,sans-Serif" font-size="10.00" fill="#000000">/CalArray.cxx</text>
</g>
<!-- Node1 -->
<g id="node2" class="node">
<title>Node1</title>
<g id="a_node2"><a xlink:href="../../d5/d1d/TPC_2base_2include_2TPCBase_2Mapper_8h.html" target="_top" xlink:title="TPCBase/Mapper.h">
<polygon fill="none" stroke="#000000" points="941.5,-470.5 941.5,-489.5 1048.5,-489.5 1048.5,-470.5 941.5,-470.5"/>
<text text-anchor="middle" x="995" y="-477.5" font-family="Helvetica,sans-Serif" font-size="10.00" fill="#000000">TPCBase/Mapper.h</text>
</a>
</g>
</g>
<!-- Node0&#45;&gt;Node1 -->
<g id="edge1" class="edge">
<title>Node0&#45;&gt;Node1</title>
<path fill="none" stroke="#191970" d="M498.2388,-593.3816C611.7456,-567.4746 841.0747,-515.1322 943.5272,-491.7482"/>
<polygon fill="#191970" stroke="#191970" points="944.3606,-495.1481 953.331,-489.5106 942.8029,-488.3236 944.3606,-495.1481"/>
</g>
<!-- Node32 -->
<g id="node33" class="node">
<title>Node32</title>
<g id="a_node33"><a xlink:href="../../db/d9b/CalArray_8h.html" target="_top" xlink:title="TPCBase/CalArray.h">
<polygon fill="none" stroke="#000000" points="334,-526.5 334,-545.5 446,-545.5 446,-526.5 334,-526.5"/>
<text text-anchor="middle" x="390" y="-533.5" font-family="Helvetica,sans-Serif" font-size="10.00" fill="#000000">TPCBase/CalArray.h</text>
</a>
</g>
</g>
<!-- Node0&#45;&gt;Node32 -->
<g id="edge53" class="edge">
<title>Node0&#45;&gt;Node32</title>
<path fill="none" stroke="#191970" d="M416.837,-582.3258C411.4423,-573.0135 405.4893,-562.7375 400.5635,-554.2347"/>
<polygon fill="#191970" stroke="#191970" points="403.5644,-552.4324 395.5231,-545.534 397.5074,-555.9414 403.5644,-552.4324"/>
</g>
<!-- Node2 -->
<g id="node3" class="node">
<title>Node2</title>
<polygon fill="none" stroke="#bfbfbf" points="1132,-414.5 1132,-433.5 1170,-433.5 1170,-414.5 1132,-414.5"/>
<text text-anchor="middle" x="1151" y="-421.5" font-family="Helvetica,sans-Serif" font-size="10.00" fill="#000000">map</text>
</g>
<!-- Node1&#45;&gt;Node2 -->
<g id="edge2" class="edge">
<title>Node1&#45;&gt;Node2</title>
<path fill="none" stroke="#191970" d="M1021.8174,-470.3733C1049.871,-460.3027 1093.7396,-444.555 1122.431,-434.2555"/>
<polygon fill="#191970" stroke="#191970" points="1123.6663,-437.5308 1131.8957,-430.8579 1121.3012,-430.9425 1123.6663,-437.5308"/>
</g>
<!-- Node3 -->
<g id="node4" class="node">
<title>Node3</title>
<polygon fill="none" stroke="#bfbfbf" points="688.5,-358.5 688.5,-377.5 735.5,-377.5 735.5,-358.5 688.5,-358.5"/>
<text text-anchor="middle" x="712" y="-365.5" font-family="Helvetica,sans-Serif" font-size="10.00" fill="#000000">vector</text>
</g>
<!-- Node1&#45;&gt;Node3 -->
<g id="edge3" class="edge">
<title>Node1&#45;&gt;Node3</title>
<path fill="none" stroke="#191970" d="M941.2467,-474.6733C864.7278,-466.5628 731.9461,-450.3289 717,-434 705.8712,-421.8416 705.6437,-402.588 707.5952,-388.0071"/>
<polygon fill="#191970" stroke="#191970" points="711.0765,-388.4189 709.3678,-377.9627 704.1831,-387.2022 711.0765,-388.4189"/>
</g>
<!-- Node4 -->
<g id="node5" class="node">
<title>Node4</title>
<polygon fill="none" stroke="#bfbfbf" points="922,-414.5 922,-433.5 964,-433.5 964,-414.5 922,-414.5"/>
<text text-anchor="middle" x="943" y="-421.5" font-family="Helvetica,sans-Serif" font-size="10.00" fill="#000000">array</text>
</g>
<!-- Node1&#45;&gt;Node4 -->
<g id="edge4" class="edge">
<title>Node1&#45;&gt;Node4</title>
<path fill="none" stroke="#191970" d="M985.9423,-470.2455C978.4858,-462.2155 967.7366,-450.6394 958.8583,-441.0781"/>
<polygon fill="#191970" stroke="#191970" points="961.3232,-438.589 951.9539,-433.6427 956.1937,-443.3522 961.3232,-438.589"/>
</g>
<!-- Node5 -->
<g id="node6" class="node">
<title>Node5</title>
<polygon fill="none" stroke="#bfbfbf" points="550,-414.5 550,-433.5 594,-433.5 594,-414.5 550,-414.5"/>
<text text-anchor="middle" x="572" y="-421.5" font-family="Helvetica,sans-Serif" font-size="10.00" fill="#000000">string</text>
</g>
<!-- Node1&#45;&gt;Node5 -->
<g id="edge5" class="edge">
<title>Node1&#45;&gt;Node5</title>
<path fill="none" stroke="#191970" d="M941.3877,-476.2287C866.312,-470.359 725.8299,-457.2269 608,-434 606.7471,-433.753 605.4739,-433.4849 604.1911,-433.2003"/>
<polygon fill="#191970" stroke="#191970" points="604.8887,-429.7676 594.3419,-430.7751 603.215,-436.5646 604.8887,-429.7676"/>
</g>
<!-- Node6 -->
<g id="node7" class="node">
<title>Node6</title>
<polygon fill="none" stroke="#bfbfbf" points="1398.5,-134.5 1398.5,-153.5 1445.5,-153.5 1445.5,-134.5 1398.5,-134.5"/>
<text text-anchor="middle" x="1422" y="-141.5" font-family="Helvetica,sans-Serif" font-size="10.00" fill="#000000">cmath</text>
</g>
<!-- Node1&#45;&gt;Node6 -->
<g id="edge6" class="edge">
<title>Node1&#45;&gt;Node6</title>
<path fill="none" stroke="#191970" d="M1048.6452,-478.7181C1142.4483,-475.6661 1331.7495,-465.6651 1389,-434 1421.9206,-415.7917 1442,-405.6206 1442,-368 1442,-368 1442,-368 1442,-256 1442,-223.2193 1433.5945,-185.8705 1427.6819,-163.6533"/>
<polygon fill="#191970" stroke="#191970" points="1430.991,-162.4878 1424.9511,-153.7832 1424.2445,-164.3545 1430.991,-162.4878"/>
</g>
<!-- Node7 -->
<g id="node8" class="node">
<title>Node7</title>
<g id="a_node8"><a xlink:href="../../d1/d73/Defs_8h.html" target="_top" xlink:title="Common definitions for 2D coordinates. ">
<polygon fill="none" stroke="#000000" points="1170.5,-190.5 1170.5,-209.5 1303.5,-209.5 1303.5,-190.5 1170.5,-190.5"/>
<text text-anchor="middle" x="1237" y="-197.5" font-family="Helvetica,sans-Serif" font-size="10.00" fill="#000000">DataFormatsTPC/Defs.h</text>
</a>
</g>
</g>
<!-- Node1&#45;&gt;Node7 -->
<g id="edge7" class="edge">
<title>Node1&#45;&gt;Node7</title>
<path fill="none" stroke="#191970" d="M1048.6688,-478.8857C1137.9235,-476.1237 1312.1017,-466.5984 1363,-434 1392.0797,-415.3756 1404,-402.5325 1404,-368 1404,-368 1404,-368 1404,-312 1404,-256.8053 1340.2998,-227.0667 1291.5827,-212.3939"/>
<polygon fill="#191970" stroke="#191970" points="1292.3305,-208.9673 1281.7529,-209.5725 1290.3992,-215.6956 1292.3305,-208.9673"/>
</g>
<!-- Node9 -->
<g id="node10" class="node">
<title>Node9</title>
<g id="a_node10"><a xlink:href="../../d2/dd0/Cartesian2D_8h.html" target="_top" xlink:title="MathUtils/Cartesian2D.h">
<polygon fill="none" stroke="#000000" points="1384.5,-73 1384.5,-92 1519.5,-92 1519.5,-73 1384.5,-73"/>
<text text-anchor="middle" x="1452" y="-80" font-family="Helvetica,sans-Serif" font-size="10.00" fill="#000000">MathUtils/Cartesian2D.h</text>
</a>
</g>
</g>
<!-- Node1&#45;&gt;Node9 -->
<g id="edge51" class="edge">
<title>Node1&#45;&gt;Node9</title>
<path fill="none" stroke="#191970" d="M1048.8072,-478.7569C1147.7923,-475.7213 1354.4515,-465.6815 1418,-434 1454.0183,-416.0434 1480,-408.2462 1480,-368 1480,-368 1480,-368 1480,-200 1480,-164.5173 1467.7681,-124.6087 1459.4736,-101.6256"/>
<polygon fill="#191970" stroke="#191970" points="1462.6779,-100.202 1455.8933,-92.0644 1456.1224,-102.6568 1462.6779,-100.202"/>
</g>
<!-- Node12 -->
<g id="node13" class="node">
<title>Node12</title>
<g id="a_node13"><a xlink:href="../../dd/d76/Cartesian3D_8h.html" target="_top" xlink:title="MathUtils/Cartesian3D.h">
<polygon fill="none" stroke="#000000" points="839.5,-134.5 839.5,-153.5 974.5,-153.5 974.5,-134.5 839.5,-134.5"/>
<text text-anchor="middle" x="907" y="-141.5" font-family="Helvetica,sans-Serif" font-size="10.00" fill="#000000">MathUtils/Cartesian3D.h</text>
</a>
</g>
</g>
<!-- Node1&#45;&gt;Node12 -->
<g id="edge52" class="edge">
<title>Node1&#45;&gt;Node12</title>
<path fill="none" stroke="#191970" d="M941.2971,-477.1948C861.8168,-472.2358 717.4663,-459.8986 673,-434 640.9667,-415.3428 622,-405.0705 622,-368 622,-368 622,-368 622,-256 622,-208.5538 760.552,-172.8221 844.4473,-155.5351"/>
<polygon fill="#191970" stroke="#191970" points="845.2891,-158.9357 854.3945,-153.5188 843.8985,-152.0752 845.2891,-158.9357"/>
</g>
<!-- Node21 -->
<g id="node22" class="node">
<title>Node21</title>
<g id="a_node22"><a xlink:href="../../de/d41/PadPos_8h.html" target="_top" xlink:title="TPCBase/PadPos.h">
<polygon fill="none" stroke="#000000" points="977,-302.5 977,-321.5 1083,-321.5 1083,-302.5 977,-302.5"/>
<text text-anchor="middle" x="1030" y="-309.5" font-family="Helvetica,sans-Serif" font-size="10.00" fill="#000000">TPCBase/PadPos.h</text>
</a>
</g>
</g>
<!-- Node1&#45;&gt;Node21 -->
<g id="edge23" class="edge">
<title>Node1&#45;&gt;Node21</title>
<path fill="none" stroke="#191970" d="M1048.671,-473.8878C1097.0734,-467.1397 1163.0421,-454.4385 1179,-434 1184.4703,-426.9937 1184.2809,-421.1501 1179,-414 1146.6774,-370.2365 1103.2976,-413.4191 1062,-378 1047.8438,-365.8589 1039.4117,-346.0088 1034.7875,-331.2437"/>
<polygon fill="#191970" stroke="#191970" points="1038.1443,-330.2517 1032.0658,-321.574 1031.4061,-332.1482 1038.1443,-330.2517"/>
</g>
<!-- Node22 -->
<g id="node23" class="node">
<title>Node22</title>
<g id="a_node23"><a xlink:href="../../dd/d0b/PadSecPos_8h.html" target="_top" xlink:title="TPCBase/PadSecPos.h">
<polygon fill="none" stroke="#000000" points="882.5,-358.5 882.5,-377.5 1005.5,-377.5 1005.5,-358.5 882.5,-358.5"/>
<text text-anchor="middle" x="944" y="-365.5" font-family="Helvetica,sans-Serif" font-size="10.00" fill="#000000">TPCBase/PadSecPos.h</text>
</a>
</g>
</g>
<!-- Node1&#45;&gt;Node22 -->
<g id="edge24" class="edge">
<title>Node1&#45;&gt;Node22</title>
<path fill="none" stroke="#191970" d="M961.4998,-470.3574C943.7388,-463.3494 923.476,-451.8886 913,-434 903.6759,-418.0783 915.0173,-398.8928 926.5154,-385.3207"/>
<polygon fill="#191970" stroke="#191970" points="929.3429,-387.4153 933.5114,-377.675 924.1786,-382.6898 929.3429,-387.4153"/>
</g>
<!-- Node23 -->
<g id="node24" class="node">
<title>Node23</title>
<g id="a_node24"><a xlink:href="../../d3/dd6/Sector_8h.html" target="_top" xlink:title="TPCBase/Sector.h">
<polygon fill="none" stroke="#000000" points="1019.5,-246.5 1019.5,-265.5 1120.5,-265.5 1120.5,-246.5 1019.5,-246.5"/>
<text text-anchor="middle" x="1070" y="-253.5" font-family="Helvetica,sans-Serif" font-size="10.00" fill="#000000">TPCBase/Sector.h</text>
</a>
</g>
</g>
<!-- Node1&#45;&gt;Node23 -->
<g id="edge50" class="edge">
<title>Node1&#45;&gt;Node23</title>
<path fill="none" stroke="#191970" d="M941.2668,-478.1184C833.9913,-472.3971 609.3941,-449.4469 680,-358 720.0179,-306.1698 909.9145,-275.612 1009.1948,-262.9213"/>
<polygon fill="#191970" stroke="#191970" points="1009.8985,-266.3605 1019.384,-261.641 1009.0257,-259.4151 1009.8985,-266.3605"/>
</g>
<!-- Node25 -->
<g id="node26" class="node">
<title>Node25</title>
<g id="a_node26"><a xlink:href="../../da/d61/PadROCPos_8h.html" target="_top" xlink:title="TPCBase/PadROCPos.h">
<polygon fill="none" stroke="#000000" points="1210.5,-358.5 1210.5,-377.5 1337.5,-377.5 1337.5,-358.5 1210.5,-358.5"/>
<text text-anchor="middle" x="1274" y="-365.5" font-family="Helvetica,sans-Serif" font-size="10.00" fill="#000000">TPCBase/PadROCPos.h</text>
</a>
</g>
</g>
<!-- Node1&#45;&gt;Node25 -->
<g id="edge29" class="edge">
<title>Node1&#45;&gt;Node25</title>
<path fill="none" stroke="#191970" d="M1048.5355,-476.839C1142.173,-470.76 1327.6366,-456.0585 1347,-434 1364.3421,-414.2442 1334.4697,-394.3951 1307.8716,-381.7009"/>
<polygon fill="#191970" stroke="#191970" points="1309.2346,-378.4759 1298.6829,-377.5211 1306.3362,-384.8477 1309.2346,-378.4759"/>
</g>
<!-- Node27 -->
<g id="node28" class="node">
<title>Node27</title>
<g id="a_node28"><a xlink:href="../../d3/d54/DigitPos_8h.html" target="_top" xlink:title="TPCBase/DigitPos.h">
<polygon fill="none" stroke="#000000" points="1226,-414.5 1226,-433.5 1338,-433.5 1338,-414.5 1226,-414.5"/>
<text text-anchor="middle" x="1282" y="-421.5" font-family="Helvetica,sans-Serif" font-size="10.00" fill="#000000">TPCBase/DigitPos.h</text>
</a>
</g>
</g>
<!-- Node1&#45;&gt;Node27 -->
<g id="edge35" class="edge">
<title>Node1&#45;&gt;Node27</title>
<path fill="none" stroke="#191970" d="M1044.011,-470.4369C1093.6447,-460.7522 1170.4273,-445.7703 1223.2834,-435.4569"/>
<polygon fill="#191970" stroke="#191970" points="1224.0466,-438.8741 1233.1912,-433.5237 1222.706,-432.0036 1224.0466,-438.8741"/>
</g>
<!-- Node29 -->
<g id="node30" class="node">
<title>Node29</title>
<g id="a_node30"><a xlink:href="../../d1/d1f/FECInfo_8h.html" target="_top" xlink:title="TPCBase/FECInfo.h">
<polygon fill="none" stroke="#000000" points="1508,-246.5 1508,-265.5 1616,-265.5 1616,-246.5 1508,-246.5"/>
<text text-anchor="middle" x="1562" y="-253.5" font-family="Helvetica,sans-Serif" font-size="10.00" fill="#000000">TPCBase/FECInfo.h</text>
</a>
</g>
</g>
<!-- Node1&#45;&gt;Node29 -->
<g id="edge43" class="edge">
<title>Node1&#45;&gt;Node29</title>
<path fill="none" stroke="#191970" d="M1048.9236,-478.2176C1170.6985,-473.7425 1459.1252,-460.4517 1494,-434 1544.8776,-395.4106 1557.6909,-313.8127 1560.9161,-276.006"/>
<polygon fill="#191970" stroke="#191970" points="1564.4254,-275.9971 1561.6407,-265.7748 1557.4429,-275.5025 1564.4254,-275.9971"/>
</g>
<!-- Node30 -->
<g id="node31" class="node">
<title>Node30</title>
<g id="a_node31"><a xlink:href="../../da/d9d/PadRegionInfo_8h.html" target="_top" xlink:title="TPCBase/PadRegionInfo.h">
<polygon fill="none" stroke="#000000" points="726,-414.5 726,-433.5 866,-433.5 866,-414.5 726,-414.5"/>
<text text-anchor="middle" x="796" y="-421.5" font-family="Helvetica,sans-Serif" font-size="10.00" fill="#000000">TPCBase/PadRegionInfo.h</text>
</a>
</g>
</g>
<!-- Node1&#45;&gt;Node30 -->
<g id="edge45" class="edge">
<title>Node1&#45;&gt;Node30</title>
<path fill="none" stroke="#191970" d="M960.7907,-470.3733C927.2703,-460.9404 876.0495,-446.5265 839.619,-436.2747"/>
<polygon fill="#191970" stroke="#191970" points="840.3372,-432.8409 829.7629,-433.5011 838.4409,-439.5792 840.3372,-432.8409"/>
</g>
<!-- Node31 -->
<g id="node32" class="node">
<title>Node31</title>
<g id="a_node32"><a xlink:href="../../d6/d42/PartitionInfo_8h.html" target="_top" xlink:title="TPCBase/PartitionInfo.h">
<polygon fill="none" stroke="#000000" points="982.5,-414.5 982.5,-433.5 1113.5,-433.5 1113.5,-414.5 982.5,-414.5"/>
<text text-anchor="middle" x="1048" y="-421.5" font-family="Helvetica,sans-Serif" font-size="10.00" fill="#000000">TPCBase/PartitionInfo.h</text>
</a>
</g>
</g>
<!-- Node1&#45;&gt;Node31 -->
<g id="edge49" class="edge">
<title>Node1&#45;&gt;Node31</title>
<path fill="none" stroke="#191970" d="M1004.2319,-470.2455C1011.8317,-462.2155 1022.7877,-450.6394 1031.8368,-441.0781"/>
<polygon fill="#191970" stroke="#191970" points="1034.5421,-443.3115 1038.8739,-433.6427 1029.458,-438.4998 1034.5421,-443.3115"/>
</g>
<!-- Node7&#45;&gt;Node6 -->
<g id="edge8" class="edge">
<title>Node7&#45;&gt;Node6</title>
<path fill="none" stroke="#191970" d="M1268.8026,-190.3733C1302.1327,-180.2842 1354.287,-164.4969 1388.3081,-154.1986"/>
<polygon fill="#191970" stroke="#191970" points="1389.6863,-157.4384 1398.2433,-151.1912 1387.6582,-150.7386 1389.6863,-157.4384"/>
</g>
<!-- Node8 -->
<g id="node9" class="node">
<title>Node8</title>
<g id="a_node9"><a xlink:href="../../d1/da8/GPUROOTCartesianFwd_8h.html" target="_top" xlink:title="GPUROOTCartesianFwd.h">
<polygon fill="none" stroke="#000000" points="1167,-134.5 1167,-153.5 1307,-153.5 1307,-134.5 1167,-134.5"/>
<text text-anchor="middle" x="1237" y="-141.5" font-family="Helvetica,sans-Serif" font-size="10.00" fill="#000000">GPUROOTCartesianFwd.h</text>
</a>
</g>
</g>
<!-- Node7&#45;&gt;Node8 -->
<g id="edge9" class="edge">
<title>Node7&#45;&gt;Node8</title>
<path fill="none" stroke="#191970" d="M1237,-190.2455C1237,-182.9382 1237,-172.6944 1237,-163.7046"/>
<polygon fill="#191970" stroke="#191970" points="1240.5001,-163.6426 1237,-153.6427 1233.5001,-163.6427 1240.5001,-163.6426"/>
</g>
<!-- Node7&#45;&gt;Node9 -->
<g id="edge10" class="edge">
<title>Node7&#45;&gt;Node9</title>
<path fill="none" stroke="#191970" d="M1254.5944,-190.3845C1292.3271,-169.7631 1381.2019,-121.192 1425.681,-96.8837"/>
<polygon fill="#191970" stroke="#191970" points="1427.3675,-99.9506 1434.4641,-92.0836 1424.0105,-93.808 1427.3675,-99.9506"/>
</g>
<!-- Node7&#45;&gt;Node12 -->
<g id="edge13" class="edge">
<title>Node7&#45;&gt;Node12</title>
<path fill="none" stroke="#191970" d="M1180.6459,-190.4369C1123.1011,-180.6717 1033.8186,-165.5207 973.0033,-155.2006"/>
<polygon fill="#191970" stroke="#191970" points="973.5663,-151.7461 963.1216,-153.5237 972.3951,-158.6475 973.5663,-151.7461"/>
</g>
<!-- Node10 -->
<g id="node11" class="node">
<title>Node10</title>
<polygon fill="none" stroke="#bfbfbf" points="1272,-.5 1272,-30.5 1436,-30.5 1436,-.5 1272,-.5"/>
<text text-anchor="start" x="1280" y="-18.5" font-family="Helvetica,sans-Serif" font-size="10.00" fill="#000000">Math/GenVector/Displacement</text>
<text text-anchor="middle" x="1354" y="-7.5" font-family="Helvetica,sans-Serif" font-size="10.00" fill="#000000">Vector2D.h</text>
</g>
<!-- Node9&#45;&gt;Node10 -->
<g id="edge11" class="edge">
<title>Node9&#45;&gt;Node10</title>
<path fill="none" stroke="#191970" d="M1437.959,-72.9005C1424.0412,-63.3853 1402.272,-48.5023 1384.388,-36.2755"/>
<polygon fill="#191970" stroke="#191970" points="1386.2026,-33.2763 1375.9721,-30.5218 1382.2519,-39.0549 1386.2026,-33.2763"/>
</g>
<!-- Node11 -->
<g id="node12" class="node">
<title>Node11</title>
<polygon fill="none" stroke="#bfbfbf" points="1454.5,-6 1454.5,-25 1643.5,-25 1643.5,-6 1454.5,-6"/>
<text text-anchor="middle" x="1549" y="-13" font-family="Helvetica,sans-Serif" font-size="10.00" fill="#000000">Math/GenVector/PositionVector2D.h</text>
</g>
<!-- Node9&#45;&gt;Node11 -->
<g id="edge12" class="edge">
<title>Node9&#45;&gt;Node11</title>
<path fill="none" stroke="#191970" d="M1465.8977,-72.9005C1481.8164,-61.9052 1508.1121,-43.7422 1526.8599,-30.7927"/>
<polygon fill="#191970" stroke="#191970" points="1528.8892,-33.6448 1535.128,-25.0817 1524.9108,-27.8852 1528.8892,-33.6448"/>
</g>
<!-- Node12&#45;&gt;Node9 -->
<g id="edge22" class="edge">
<title>Node12&#45;&gt;Node9</title>
<path fill="none" stroke="#191970" d="M974.6886,-139.4956C1065.9309,-132.9341 1233.292,-119.1722 1375,-98 1382.681,-96.8524 1390.7554,-95.4483 1398.6681,-93.9585"/>
<polygon fill="#191970" stroke="#191970" points="1399.4122,-97.3795 1408.5624,-92.0386 1398.0788,-90.5077 1399.4122,-97.3795"/>
</g>
<!-- Node13 -->
<g id="node14" class="node">
<title>Node13</title>
<polygon fill="none" stroke="#bfbfbf" points="630,-67.5 630,-97.5 794,-97.5 794,-67.5 630,-67.5"/>
<text text-anchor="start" x="638" y="-85.5" font-family="Helvetica,sans-Serif" font-size="10.00" fill="#000000">Math/GenVector/Displacement</text>
<text text-anchor="middle" x="712" y="-74.5" font-family="Helvetica,sans-Serif" font-size="10.00" fill="#000000">Vector3D.h</text>
</g>
<!-- Node12&#45;&gt;Node13 -->
<g id="edge14" class="edge">
<title>Node12&#45;&gt;Node13</title>
<path fill="none" stroke="#191970" d="M876.5313,-134.3906C847.9411,-125.3737 804.447,-111.6563 769.3572,-100.5896"/>
<polygon fill="#191970" stroke="#191970" points="770.2921,-97.2145 759.7024,-97.5446 768.1866,-103.8904 770.2921,-97.2145"/>
</g>
<!-- Node14 -->
<g id="node15" class="node">
<title>Node14</title>
<polygon fill="none" stroke="#bfbfbf" points="812.5,-73 812.5,-92 1001.5,-92 1001.5,-73 812.5,-73"/>
<text text-anchor="middle" x="907" y="-80" font-family="Helvetica,sans-Serif" font-size="10.00" fill="#000000">Math/GenVector/PositionVector3D.h</text>
</g>
<!-- Node12&#45;&gt;Node14 -->
<g id="edge15" class="edge">
<title>Node12&#45;&gt;Node14</title>
<path fill="none" stroke="#191970" d="M907,-134.3906C907,-125.8657 907,-113.1392 907,-102.4235"/>
<polygon fill="#191970" stroke="#191970" points="910.5001,-102.2448 907,-92.2449 903.5001,-102.2449 910.5001,-102.2448"/>
</g>
<!-- Node15 -->
<g id="node16" class="node">
<title>Node15</title>
<polygon fill="none" stroke="#bfbfbf" points="1020,-73 1020,-92 1180,-92 1180,-73 1020,-73"/>
<text text-anchor="middle" x="1100" y="-80" font-family="Helvetica,sans-Serif" font-size="10.00" fill="#000000">Math/GenVector/Rotation3D.h</text>
</g>
<!-- Node12&#45;&gt;Node15 -->
<g id="edge16" class="edge">
<title>Node12&#45;&gt;Node15</title>
<path fill="none" stroke="#191970" d="M937.1563,-134.3906C970.2985,-123.8298 1023.6762,-106.8208 1060.2242,-95.1747"/>
<polygon fill="#191970" stroke="#191970" points="1061.5902,-98.4129 1070.0555,-92.0419 1059.4649,-91.7433 1061.5902,-98.4129"/>
</g>
<!-- Node16 -->
<g id="node17" class="node">
<title>Node16</title>
<polygon fill="none" stroke="#bfbfbf" points="1198,-73 1198,-92 1366,-92 1366,-73 1198,-73"/>
<text text-anchor="middle" x="1282" y="-80" font-family="Helvetica,sans-Serif" font-size="10.00" fill="#000000">Math/GenVector/Transform3D.h</text>
</g>
<!-- Node12&#45;&gt;Node16 -->
<g id="edge17" class="edge">
<title>Node12&#45;&gt;Node16</title>
<path fill="none" stroke="#191970" d="M965.6103,-134.4999C1022.6555,-125.2393 1111.7901,-110.7314 1189,-98 1197.3579,-96.6218 1206.137,-95.1675 1214.8256,-93.724"/>
<polygon fill="#191970" stroke="#191970" points="1215.6627,-97.133 1224.953,-92.0398 1214.5142,-90.2278 1215.6627,-97.133"/>
</g>
<!-- Node17 -->
<g id="node18" class="node">
<title>Node17</title>
<polygon fill="none" stroke="#bfbfbf" points="261.5,-73 261.5,-92 434.5,-92 434.5,-73 261.5,-73"/>
<text text-anchor="middle" x="348" y="-80" font-family="Helvetica,sans-Serif" font-size="10.00" fill="#000000">Math/GenVector/Translation3D.h</text>
</g>
<!-- Node12&#45;&gt;Node17 -->
<g id="edge18" class="edge">
<title>Node12&#45;&gt;Node17</title>
<path fill="none" stroke="#191970" d="M839.2249,-138.6257C748.7141,-131.1414 583.4629,-116.4029 443,-98 433.1825,-96.7138 422.8206,-95.1926 412.6922,-93.6142"/>
<polygon fill="#191970" stroke="#191970" points="413.0955,-90.1345 402.6704,-92.0233 411.998,-97.0479 413.0955,-90.1345"/>
</g>
<!-- Node18 -->
<g id="node19" class="node">
<title>Node18</title>
<polygon fill="none" stroke="#bfbfbf" points="452.5,-73 452.5,-92 511.5,-92 511.5,-73 452.5,-73"/>
<text text-anchor="middle" x="482" y="-80" font-family="Helvetica,sans-Serif" font-size="10.00" fill="#000000">Rtypes.h</text>
</g>
<!-- Node12&#45;&gt;Node18 -->
<g id="edge19" class="edge">
<title>Node12&#45;&gt;Node18</title>
<path fill="none" stroke="#191970" d="M839.4382,-141.2553C761.6144,-136.8791 630.4079,-125.7562 521,-98 518.2192,-97.2945 515.3713,-96.4394 512.5425,-95.4973"/>
<polygon fill="#191970" stroke="#191970" points="513.7186,-92.2008 503.1249,-92.0506 511.3127,-98.7743 513.7186,-92.2008"/>
</g>
<!-- Node19 -->
<g id="node20" class="node">
<title>Node19</title>
<polygon fill="none" stroke="#bfbfbf" points="530,-73 530,-92 612,-92 612,-73 530,-73"/>
<text text-anchor="middle" x="571" y="-80" font-family="Helvetica,sans-Serif" font-size="10.00" fill="#000000">TGeoMatrix.h</text>
</g>
<!-- Node12&#45;&gt;Node19 -->
<g id="edge20" class="edge">
<title>Node12&#45;&gt;Node19</title>
<path fill="none" stroke="#191970" d="M839.4439,-135.8713C781.1568,-128.2081 694.9388,-115.3154 621,-98 617.1287,-97.0934 613.1203,-96.044 609.1347,-94.927"/>
<polygon fill="#191970" stroke="#191970" points="609.9468,-91.5177 599.3656,-92.0543 607.972,-98.2334 609.9468,-91.5177"/>
</g>
<!-- Node20 -->
<g id="node21" class="node">
<title>Node20</title>
<polygon fill="none" stroke="#bfbfbf" points="1537.5,-73 1537.5,-92 1586.5,-92 1586.5,-73 1537.5,-73"/>
<text text-anchor="middle" x="1562" y="-80" font-family="Helvetica,sans-Serif" font-size="10.00" fill="#000000">iosfwd</text>
</g>
<!-- Node12&#45;&gt;Node20 -->
<g id="edge21" class="edge">
<title>Node12&#45;&gt;Node20</title>
<path fill="none" stroke="#191970" d="M974.625,-140.3926C1124.6968,-132.1864 1476.4994,-111.7678 1529,-98 1530.9746,-97.4822 1532.9753,-96.8489 1534.9644,-96.1373"/>
<polygon fill="#191970" stroke="#191970" points="1536.7557,-99.1824 1544.6362,-92.1008 1534.0597,-92.7224 1536.7557,-99.1824"/>
</g>
<!-- Node22&#45;&gt;Node21 -->
<g id="edge28" class="edge">
<title>Node22&#45;&gt;Node21</title>
<path fill="none" stroke="#191970" d="M958.9801,-358.2455C972.1751,-349.6534 991.6051,-337.0014 1006.8079,-327.1018"/>
<polygon fill="#191970" stroke="#191970" points="1008.7215,-330.0325 1015.1916,-321.6427 1004.9017,-324.1665 1008.7215,-330.0325"/>
</g>
<!-- Node22&#45;&gt;Node23 -->
<g id="edge25" class="edge">
<title>Node22&#45;&gt;Node23</title>
<path fill="none" stroke="#191970" d="M945.1432,-358.257C947.2722,-344.182 953.0735,-318.0885 968,-302 982.2326,-286.6594 1002.5479,-276.0842 1021.3068,-268.9802"/>
<polygon fill="#191970" stroke="#191970" points="1022.6737,-272.2093 1030.9342,-265.5748 1020.3394,-265.6099 1022.6737,-272.2093"/>
</g>
<!-- Node23&#45;&gt;Node7 -->
<g id="edge27" class="edge">
<title>Node23&#45;&gt;Node7</title>
<path fill="none" stroke="#191970" d="M1098.7083,-246.3733C1126.3577,-237.1016 1168.3576,-223.0178 1198.8166,-212.804"/>
<polygon fill="#191970" stroke="#191970" points="1200.2979,-215.9989 1208.6663,-209.5011 1198.0724,-209.3621 1200.2979,-215.9989"/>
</g>
<!-- Node24 -->
<g id="node25" class="node">
<title>Node24</title>
<g id="a_node25"><a xlink:href="../../d0/dda/DataFormats_2Detectors_2TPC_2include_2DataFormatsTPC_2Constants_8h.html" target="_top" xlink:title="DataFormatsTPC/Constants.h">
<polygon fill="none" stroke="#000000" points="990.5,-190.5 990.5,-209.5 1149.5,-209.5 1149.5,-190.5 990.5,-190.5"/>
<text text-anchor="middle" x="1070" y="-197.5" font-family="Helvetica,sans-Serif" font-size="10.00" fill="#000000">DataFormatsTPC/Constants.h</text>
</a>
</g>
</g>
<!-- Node23&#45;&gt;Node24 -->
<g id="edge26" class="edge">
<title>Node23&#45;&gt;Node24</title>
<path fill="none" stroke="#191970" d="M1070,-246.2455C1070,-238.9382 1070,-228.6944 1070,-219.7046"/>
<polygon fill="#191970" stroke="#191970" points="1073.5001,-219.6426 1070,-209.6427 1066.5001,-219.6427 1073.5001,-219.6426"/>
</g>
<!-- Node25&#45;&gt;Node7 -->
<g id="edge30" class="edge">
<title>Node25&#45;&gt;Node7</title>
<path fill="none" stroke="#191970" d="M1275.106,-358.1456C1276.0911,-348.8422 1277.4578,-334.4936 1278,-322 1278.3854,-313.1195 1279.6883,-310.7271 1278,-302 1272.1079,-271.5435 1257.1699,-238.6434 1247.0479,-218.6804"/>
<polygon fill="#191970" stroke="#191970" points="1250.1184,-216.9987 1242.3969,-209.7441 1243.9091,-220.2305 1250.1184,-216.9987"/>
</g>
<!-- Node25&#45;&gt;Node21 -->
<g id="edge34" class="edge">
<title>Node25&#45;&gt;Node21</title>
<path fill="none" stroke="#191970" d="M1232.3321,-358.4369C1190.5734,-348.8529 1126.2109,-334.0812 1081.3272,-323.78"/>
<polygon fill="#191970" stroke="#191970" points="1082.0255,-320.3494 1071.496,-321.5237 1080.4596,-327.172 1082.0255,-320.3494"/>
</g>
<!-- Node26 -->
<g id="node27" class="node">
<title>Node26</title>
<g id="a_node27"><a xlink:href="../../dc/d14/ROC_8h.html" target="_top" xlink:title="TPCBase/ROC.h">
<polygon fill="none" stroke="#000000" points="1177,-302.5 1177,-321.5 1269,-321.5 1269,-302.5 1177,-302.5"/>
<text text-anchor="middle" x="1223" y="-309.5" font-family="Helvetica,sans-Serif" font-size="10.00" fill="#000000">TPCBase/ROC.h</text>
</a>
</g>
</g>
<!-- Node25&#45;&gt;Node26 -->
<g id="edge31" class="edge">
<title>Node25&#45;&gt;Node26</title>
<path fill="none" stroke="#191970" d="M1265.1165,-358.2455C1257.8034,-350.2155 1247.2609,-338.6394 1238.5533,-329.0781"/>
<polygon fill="#191970" stroke="#191970" points="1241.1028,-326.6795 1231.7817,-321.6427 1235.9273,-331.3928 1241.1028,-326.6795"/>
</g>
<!-- Node26&#45;&gt;Node7 -->
<g id="edge32" class="edge">
<title>Node26&#45;&gt;Node7</title>
<path fill="none" stroke="#191970" d="M1224.1936,-302.4509C1226.477,-284.184 1231.5056,-243.9553 1234.5378,-219.6976"/>
<polygon fill="#191970" stroke="#191970" points="1238.0419,-219.8818 1235.8094,-209.5249 1231.096,-219.0135 1238.0419,-219.8818"/>
</g>
<!-- Node26&#45;&gt;Node23 -->
<g id="edge33" class="edge">
<title>Node26&#45;&gt;Node23</title>
<path fill="none" stroke="#191970" d="M1196.6984,-302.3733C1171.5872,-293.1822 1133.5562,-279.2624 1105.7128,-269.0713"/>
<polygon fill="#191970" stroke="#191970" points="1106.5522,-265.6516 1095.9584,-265.5011 1104.1462,-272.2251 1106.5522,-265.6516"/>
</g>
<!-- Node27&#45;&gt;Node7 -->
<g id="edge36" class="edge">
<title>Node27&#45;&gt;Node7</title>
<path fill="none" stroke="#191970" d="M1305.1112,-414.4901C1320.0298,-406.9878 1338.2331,-394.9445 1347,-378 1351.0847,-370.1052 1349.4505,-366.5444 1347,-358 1330.1432,-299.2238 1281.2045,-243.7657 1254.6446,-216.8989"/>
<polygon fill="#191970" stroke="#191970" points="1257.0519,-214.357 1247.4858,-209.8028 1252.1239,-219.3285 1257.0519,-214.357"/>
</g>
<!-- Node27&#45;&gt;Node21 -->
<g id="edge41" class="edge">
<title>Node27&#45;&gt;Node21</title>
<path fill="none" stroke="#191970" d="M1226.9154,-414.4153C1179.0096,-405.4173 1113.7998,-391.3754 1091,-378 1070.7164,-366.1007 1053.1727,-345.3357 1042.1734,-330.2689"/>
<polygon fill="#191970" stroke="#191970" points="1044.8106,-327.9336 1036.2045,-321.7542 1039.0787,-331.9517 1044.8106,-327.9336"/>
</g>
<!-- Node27&#45;&gt;Node22 -->
<g id="edge42" class="edge">
<title>Node27&#45;&gt;Node22</title>
<path fill="none" stroke="#191970" d="M1225.8068,-414.6899C1166.9487,-404.9382 1074.4946,-389.6204 1011.6657,-379.2109"/>
<polygon fill="#191970" stroke="#191970" points="1011.8966,-375.7015 1001.459,-377.5198 1010.7524,-382.6074 1011.8966,-375.7015"/>
</g>
<!-- Node28 -->
<g id="node29" class="node">
<title>Node28</title>
<g id="a_node29"><a xlink:href="../../df/d26/CRU_8h.html" target="_top" xlink:title="TPCBase/CRU.h">
<polygon fill="none" stroke="#000000" points="1100,-358.5 1100,-377.5 1192,-377.5 1192,-358.5 1100,-358.5"/>
<text text-anchor="middle" x="1146" y="-365.5" font-family="Helvetica,sans-Serif" font-size="10.00" fill="#000000">TPCBase/CRU.h</text>
</a>
</g>
</g>
<!-- Node27&#45;&gt;Node28 -->
<g id="edge37" class="edge">
<title>Node27&#45;&gt;Node28</title>
<path fill="none" stroke="#191970" d="M1258.6208,-414.3733C1236.4955,-405.2629 1203.0866,-391.5062 1178.3981,-381.3404"/>
<polygon fill="#191970" stroke="#191970" points="1179.6536,-378.0723 1169.0742,-377.5011 1176.9883,-384.5451 1179.6536,-378.0723"/>
</g>
<!-- Node28&#45;&gt;Node7 -->
<g id="edge38" class="edge">
<title>Node28&#45;&gt;Node7</title>
<path fill="none" stroke="#191970" d="M1148.3475,-358.2776C1151.7241,-345.1105 1158.596,-321.0643 1168,-302 1183.5835,-270.4083 1207.6901,-237.2298 1222.8932,-217.5937"/>
<polygon fill="#191970" stroke="#191970" points="1225.7641,-219.6049 1229.1893,-209.579 1220.2595,-215.2806 1225.7641,-219.6049"/>
</g>
<!-- Node28&#45;&gt;Node23 -->
<g id="edge39" class="edge">
<title>Node28&#45;&gt;Node23</title>
<path fill="none" stroke="#191970" d="M1139.5203,-358.4509C1126.8444,-339.7707 1098.584,-298.1238 1082.266,-274.0761"/>
<polygon fill="#191970" stroke="#191970" points="1084.9745,-271.8344 1076.4633,-265.5249 1079.1822,-275.7649 1084.9745,-271.8344"/>
</g>
<!-- Node28&#45;&gt;Node26 -->
<g id="edge40" class="edge">
<title>Node28&#45;&gt;Node26</title>
<path fill="none" stroke="#191970" d="M1159.4124,-358.2455C1171.0057,-349.814 1187.9748,-337.4729 1201.4678,-327.6598"/>
<polygon fill="#191970" stroke="#191970" points="1203.7126,-330.355 1209.7413,-321.6427 1199.5953,-324.6938 1203.7126,-330.355"/>
</g>
<!-- Node29&#45;&gt;Node20 -->
<g id="edge44" class="edge">
<title>Node29&#45;&gt;Node20</title>
<path fill="none" stroke="#191970" d="M1562,-246.4248C1562,-218.999 1562,-139.732 1562,-102.3964"/>
<polygon fill="#191970" stroke="#191970" points="1565.5001,-102.2595 1562,-92.2595 1558.5001,-102.2596 1565.5001,-102.2595"/>
</g>
<!-- Node30&#45;&gt;Node3 -->
<g id="edge46" class="edge">
<title>Node30&#45;&gt;Node3</title>
<path fill="none" stroke="#191970" d="M781.3683,-414.2455C768.6006,-405.7337 749.8562,-393.2375 735.0701,-383.3801"/>
<polygon fill="#191970" stroke="#191970" points="736.726,-380.2775 726.464,-377.6427 732.8431,-386.1019 736.726,-380.2775"/>
</g>
<!-- Node30&#45;&gt;Node7 -->
<g id="edge47" class="edge">
<title>Node30&#45;&gt;Node7</title>
<path fill="none" stroke="#191970" d="M801.256,-414.1907C808.9238,-400.4945 824.216,-375.3722 842,-358 906.458,-295.0344 927.7623,-280.5106 1011,-246 1038.7257,-234.5048 1111.485,-220.6975 1167.0241,-211.2284"/>
<polygon fill="#191970" stroke="#191970" points="1167.9023,-214.6297 1177.1793,-209.5123 1166.7359,-207.7275 1167.9023,-214.6297"/>
</g>
<!-- Node30&#45;&gt;Node21 -->
<g id="edge48" class="edge">
<title>Node30&#45;&gt;Node21</title>
<path fill="none" stroke="#191970" d="M804.6611,-414.4847C818.1475,-400.2166 845.5827,-373.3222 874,-358 903.3633,-342.1678 938.8497,-331.1515 968.5536,-323.878"/>
<polygon fill="#191970" stroke="#191970" points="969.4616,-327.2599 978.3882,-321.5533 967.8512,-320.4477 969.4616,-327.2599"/>
</g>
<!-- Node32&#45;&gt;Node1 -->
<g id="edge60" class="edge">
<title>Node32&#45;&gt;Node1</title>
<path fill="none" stroke="#191970" d="M446.1028,-530.807C558.8197,-520.3737 812.1341,-496.9264 931.0558,-485.9188"/>
<polygon fill="#191970" stroke="#191970" points="931.4698,-489.3955 941.1046,-484.9887 930.8246,-482.4253 931.4698,-489.3955"/>
</g>
<!-- Node32&#45;&gt;Node3 -->
<g id="edge56" class="edge">
<title>Node32&#45;&gt;Node3</title>
<path fill="none" stroke="#191970" d="M431.6825,-526.4908C454.6256,-519.5259 482.3433,-508.0637 502,-490 529.9545,-464.3109 511.4726,-437.8645 541,-414 562.0287,-397.0043 634.8906,-381.6471 678.4283,-373.7006"/>
<polygon fill="#191970" stroke="#191970" points="679.0652,-377.1423 688.2921,-371.9353 677.8319,-370.2518 679.0652,-377.1423"/>
</g>
<!-- Node32&#45;&gt;Node5 -->
<g id="edge57" class="edge">
<title>Node32&#45;&gt;Node5</title>
<path fill="none" stroke="#191970" d="M446.1214,-528.6193C475.5,-522.3806 510.5497,-510.9339 536,-490 550.7627,-477.8571 560.4164,-458.0073 565.9752,-443.2427"/>
<polygon fill="#191970" stroke="#191970" points="569.3584,-444.1681 569.3136,-433.5734 562.7417,-441.8836 569.3584,-444.1681"/>
</g>
<!-- Node33 -->
<g id="node34" class="node">
<title>Node33</title>
<polygon fill="none" stroke="#bfbfbf" points="0,-470.5 0,-489.5 44,-489.5 44,-470.5 0,-470.5"/>
<text text-anchor="middle" x="22" y="-477.5" font-family="Helvetica,sans-Serif" font-size="10.00" fill="#000000">Vc/Vc</text>
</g>
<!-- Node32&#45;&gt;Node33 -->
<g id="edge54" class="edge">
<title>Node32&#45;&gt;Node33</title>
<path fill="none" stroke="#191970" d="M333.7029,-531.376C268.4501,-525.3372 157.6439,-512.9888 54.2056,-489.9494"/>
<polygon fill="#191970" stroke="#191970" points="54.7466,-486.4833 44.2203,-487.6863 53.1993,-493.3102 54.7466,-486.4833"/>
</g>
<!-- Node34 -->
<g id="node35" class="node">
<title>Node34</title>
<polygon fill="none" stroke="#bfbfbf" points="62,-470.5 62,-489.5 120,-489.5 120,-470.5 62,-470.5"/>
<text text-anchor="middle" x="91" y="-477.5" font-family="Helvetica,sans-Serif" font-size="10.00" fill="#000000">memory</text>
</g>
<!-- Node32&#45;&gt;Node34 -->
<g id="edge55" class="edge">
<title>Node32&#45;&gt;Node34</title>
<path fill="none" stroke="#191970" d="M333.9862,-527.5052C283.2334,-519.4973 206.1939,-506.571 130.5745,-490.2175"/>
<polygon fill="#191970" stroke="#191970" points="130.9168,-486.7097 120.4001,-487.9941 129.4223,-493.5484 130.9168,-486.7097"/>
</g>
<!-- Node35 -->
<g id="node36" class="node">
<title>Node35</title>
<polygon fill="none" stroke="#bfbfbf" points="138,-470.5 138,-489.5 194,-489.5 194,-470.5 138,-470.5"/>
<text text-anchor="middle" x="166" y="-477.5" font-family="Helvetica,sans-Serif" font-size="10.00" fill="#000000">numeric</text>
</g>
<!-- Node32&#45;&gt;Node35 -->
<g id="edge58" class="edge">
<title>Node32&#45;&gt;Node35</title>
<path fill="none" stroke="#191970" d="M350.1717,-526.4806C314.3411,-517.8546 260.0107,-504.6222 203.9989,-490.2205"/>
<polygon fill="#191970" stroke="#191970" points="204.8215,-486.8182 194.2642,-487.71 203.0733,-493.5964 204.8215,-486.8182"/>
</g>
<!-- Node36 -->
<g id="node37" class="node">
<title>Node36</title>
<polygon fill="none" stroke="#bfbfbf" points="212.5,-470.5 212.5,-489.5 281.5,-489.5 281.5,-470.5 212.5,-470.5"/>
<text text-anchor="middle" x="247" y="-477.5" font-family="Helvetica,sans-Serif" font-size="10.00" fill="#000000">type_traits</text>
</g>
<!-- Node32&#45;&gt;Node36 -->
<g id="edge59" class="edge">
<title>Node32&#45;&gt;Node36</title>
<path fill="none" stroke="#191970" d="M365.4174,-526.3733C342.0504,-517.2226 306.7138,-503.3844 280.7216,-493.2057"/>
<polygon fill="#191970" stroke="#191970" points="281.8495,-489.8886 271.2618,-489.5011 279.297,-496.4066 281.8495,-489.8886"/>
</g>
<!-- Node37 -->
<g id="node38" class="node">
<title>Node37</title>
<polygon fill="none" stroke="#bfbfbf" points="299.5,-470.5 299.5,-489.5 374.5,-489.5 374.5,-470.5 299.5,-470.5"/>
<text text-anchor="middle" x="337" y="-477.5" font-family="Helvetica,sans-Serif" font-size="10.00" fill="#000000">FairLogger.h</text>
</g>
<!-- Node32&#45;&gt;Node37 -->
<g id="edge61" class="edge">
<title>Node32&#45;&gt;Node37</title>
<path fill="none" stroke="#191970" d="M380.7681,-526.2455C373.1683,-518.2155 362.2123,-506.6394 353.1632,-497.0781"/>
<polygon fill="#191970" stroke="#191970" points="355.542,-494.4998 346.1261,-489.6427 350.4579,-499.3115 355.542,-494.4998"/>
</g>
<!-- Node38 -->
<g id="node39" class="node">
<title>Node38</title>
<polygon fill="none" stroke="#bfbfbf" points="392.5,-470.5 392.5,-489.5 493.5,-489.5 493.5,-470.5 392.5,-470.5"/>
<text text-anchor="middle" x="443" y="-477.5" font-family="Helvetica,sans-Serif" font-size="10.00" fill="#000000">boost/format.hpp</text>
</g>
<!-- Node32&#45;&gt;Node38 -->
<g id="edge62" class="edge">
<title>Node32&#45;&gt;Node38</title>
<path fill="none" stroke="#191970" d="M399.2319,-526.2455C406.8317,-518.2155 417.7877,-506.6394 426.8368,-497.0781"/>
<polygon fill="#191970" stroke="#191970" points="429.5421,-499.3115 433.8739,-489.6427 424.458,-494.4998 429.5421,-499.3115"/>
</g>
</g>
</svg>
