<?xml version="1.0" encoding="UTF-8" standalone="no"?>
<!DOCTYPE svg PUBLIC "-//W3C//DTD SVG 1.1//EN"
 "http://www.w3.org/Graphics/SVG/1.1/DTD/svg11.dtd">
<!-- Generated by graphviz version 2.40.1 (20161225.0304)
 -->
<!-- Title: /home/travis/build/AliceO2Group/AliceO2/DataFormats/simulation/include/SimulationDataFormat/MCEventHeader.h Pages: 1 -->
<svg width="1642pt" height="417pt"
 viewBox="0.00 0.00 1641.50 417.00" xmlns="http://www.w3.org/2000/svg" xmlns:xlink="http://www.w3.org/1999/xlink">
<g id="graph0" class="graph" transform="scale(1 1) rotate(0) translate(4 413)">
<title>/home/travis/build/AliceO2Group/AliceO2/DataFormats/simulation/include/SimulationDataFormat/MCEventHeader.h</title>
<!-- Node5 -->
<g id="node1" class="node">
<title>Node5</title>
<polygon fill="#bfbfbf" stroke="#000000" points="774.5,-345.5 774.5,-408.5 942.5,-408.5 942.5,-345.5 774.5,-345.5"/>
<text text-anchor="start" x="782.5" y="-396.5" font-family="Helvetica,sans-Serif" font-size="10.00" fill="#000000">/home/travis/build</text>
<text text-anchor="start" x="782.5" y="-385.5" font-family="Helvetica,sans-Serif" font-size="10.00" fill="#000000">/AliceO2Group/AliceO2</text>
<text text-anchor="start" x="782.5" y="-374.5" font-family="Helvetica,sans-Serif" font-size="10.00" fill="#000000">/DataFormats/simulation</text>
<text text-anchor="start" x="782.5" y="-363.5" font-family="Helvetica,sans-Serif" font-size="10.00" fill="#000000">/include/SimulationDataFormat</text>
<text text-anchor="middle" x="858.5" y="-352.5" font-family="Helvetica,sans-Serif" font-size="10.00" fill="#000000">/MCEventHeader.h</text>
</g>
<!-- Node6 -->
<g id="node2" class="node">
<title>Node6</title>
<g id="a_node2"><a xlink:href="../../d9/d45/PrimaryChunk_8h.html" target="_top" xlink:title="/home/travis/build\l/AliceO2Group/AliceO2\l/DataFormats/simulation\l/include/SimulationDataFormat\l/PrimaryChunk.h">
<polygon fill="none" stroke="#000000" points="497.5,-245.5 497.5,-308.5 665.5,-308.5 665.5,-245.5 497.5,-245.5"/>
<text text-anchor="start" x="505.5" y="-296.5" font-family="Helvetica,sans-Serif" font-size="10.00" fill="#000000">/home/travis/build</text>
<text text-anchor="start" x="505.5" y="-285.5" font-family="Helvetica,sans-Serif" font-size="10.00" fill="#000000">/AliceO2Group/AliceO2</text>
<text text-anchor="start" x="505.5" y="-274.5" font-family="Helvetica,sans-Serif" font-size="10.00" fill="#000000">/DataFormats/simulation</text>
<text text-anchor="start" x="505.5" y="-263.5" font-family="Helvetica,sans-Serif" font-size="10.00" fill="#000000">/include/SimulationDataFormat</text>
<text text-anchor="middle" x="581.5" y="-252.5" font-family="Helvetica,sans-Serif" font-size="10.00" fill="#000000">/PrimaryChunk.h</text>
</a>
</g>
</g>
<!-- Node5&#45;&gt;Node6 -->
<g id="edge1" class="edge">
<title>Node5&#45;&gt;Node6</title>
<path fill="none" stroke="#191970" d="M764.4621,-343.0513C732.4886,-331.5085 696.9785,-318.689 665.8139,-307.4382"/>
<polygon fill="#191970" stroke="#191970" points="763.6683,-346.4858 774.2627,-346.5894 766.0453,-339.9017 763.6683,-346.4858"/>
</g>
<!-- Node8 -->
<g id="node4" class="node">
<title>Node8</title>
<g id="a_node4"><a xlink:href="../../db/d50/O2HitMerger_8h.html" target="_top" xlink:title="/home/travis/build\l/AliceO2Group/AliceO2\l/run/O2HitMerger.h">
<polygon fill="none" stroke="#000000" points="13,-78.5 13,-119.5 140,-119.5 140,-78.5 13,-78.5"/>
<text text-anchor="start" x="21" y="-107.5" font-family="Helvetica,sans-Serif" font-size="10.00" fill="#000000">/home/travis/build</text>
<text text-anchor="start" x="21" y="-96.5" font-family="Helvetica,sans-Serif" font-size="10.00" fill="#000000">/AliceO2Group/AliceO2</text>
<text text-anchor="middle" x="76.5" y="-85.5" font-family="Helvetica,sans-Serif" font-size="10.00" fill="#000000">/run/O2HitMerger.h</text>
</a>
</g>
</g>
<!-- Node5&#45;&gt;Node8 -->
<g id="edge18" class="edge">
<title>Node5&#45;&gt;Node8</title>
<path fill="none" stroke="#191970" d="M764.3088,-369.9558C579.3453,-354.0499 178.9349,-308.6956 90.5,-209 68.7824,-184.5171 69.7348,-144.0428 72.8256,-119.6122"/>
<polygon fill="#191970" stroke="#191970" points="764.0357,-373.4451 774.296,-370.804 764.6281,-366.4702 764.0357,-373.4451"/>
</g>
<!-- Node12 -->
<g id="node8" class="node">
<title>Node12</title>
<g id="a_node8"><a xlink:href="../../dc/d50/O2PrimaryServerDevice_8h.html" target="_top" xlink:title="/home/travis/build\l/AliceO2Group/AliceO2\l/run/O2PrimaryServerDevice.h">
<polygon fill="none" stroke="#000000" points="744.5,-162 744.5,-203 908.5,-203 908.5,-162 744.5,-162"/>
<text text-anchor="start" x="752.5" y="-191" font-family="Helvetica,sans-Serif" font-size="10.00" fill="#000000">/home/travis/build</text>
<text text-anchor="start" x="752.5" y="-180" font-family="Helvetica,sans-Serif" font-size="10.00" fill="#000000">/AliceO2Group/AliceO2</text>
<text text-anchor="middle" x="826.5" y="-169" font-family="Helvetica,sans-Serif" font-size="10.00" fill="#000000">/run/O2PrimaryServerDevice.h</text>
</a>
</g>
</g>
<!-- Node5&#45;&gt;Node12 -->
<g id="edge19" class="edge">
<title>Node5&#45;&gt;Node12</title>
<path fill="none" stroke="#191970" d="M796.2504,-338.6073C787.0428,-330.0533 778.8615,-320.1552 773.5,-309 761.1782,-283.3629 763.702,-271.7036 773.5,-245 779.3807,-228.9726 791.3938,-214.238 802.498,-203.1058"/>
<polygon fill="#191970" stroke="#191970" points="793.974,-341.2661 803.8203,-345.1777 798.5624,-335.9796 793.974,-341.2661"/>
</g>
<!-- Node16 -->
<g id="node12" class="node">
<title>Node16</title>
<g id="a_node12"><a xlink:href="../../df/d3b/O2MCApplication_8cxx.html" target="_top" xlink:title="/home/travis/build\l/AliceO2Group/AliceO2\l/Steer/src/O2MCApplication.cxx">
<polygon fill="none" stroke="#000000" points="569,-78.5 569,-119.5 738,-119.5 738,-78.5 569,-78.5"/>
<text text-anchor="start" x="577" y="-107.5" font-family="Helvetica,sans-Serif" font-size="10.00" fill="#000000">/home/travis/build</text>
<text text-anchor="start" x="577" y="-96.5" font-family="Helvetica,sans-Serif" font-size="10.00" fill="#000000">/AliceO2Group/AliceO2</text>
<text text-anchor="middle" x="653.5" y="-85.5" font-family="Helvetica,sans-Serif" font-size="10.00" fill="#000000">/Steer/src/O2MCApplication.cxx</text>
</a>
</g>
</g>
<!-- Node5&#45;&gt;Node16 -->
<g id="edge24" class="edge">
<title>Node5&#45;&gt;Node16</title>
<path fill="none" stroke="#191970" d="M795.2389,-339.3715C783.1325,-330.3944 771.22,-320.1453 761.5,-309 734.4189,-277.9478 683.2848,-166.1985 662.5631,-119.6145"/>
<polygon fill="#191970" stroke="#191970" points="793.4587,-342.4016 803.6268,-345.3786 797.5345,-336.7105 793.4587,-342.4016"/>
</g>
<!-- Node17 -->
<g id="node13" class="node">
<title>Node17</title>
<g id="a_node13"><a xlink:href="../../df/dc2/DigitizationContext_8cxx.html" target="_top" xlink:title="/home/travis/build\l/AliceO2Group/AliceO2\l/DataFormats/simulation\l/src/DigitizationContext.cxx">
<polygon fill="none" stroke="#000000" points="782.5,-251 782.5,-303 934.5,-303 934.5,-251 782.5,-251"/>
<text text-anchor="start" x="790.5" y="-291" font-family="Helvetica,sans-Serif" font-size="10.00" fill="#000000">/home/travis/build</text>
<text text-anchor="start" x="790.5" y="-280" font-family="Helvetica,sans-Serif" font-size="10.00" fill="#000000">/AliceO2Group/AliceO2</text>
<text text-anchor="start" x="790.5" y="-269" font-family="Helvetica,sans-Serif" font-size="10.00" fill="#000000">/DataFormats/simulation</text>
<text text-anchor="middle" x="858.5" y="-258" font-family="Helvetica,sans-Serif" font-size="10.00" fill="#000000">/src/DigitizationContext.cxx</text>
</a>
</g>
</g>
<!-- Node5&#45;&gt;Node17 -->
<g id="edge15" class="edge">
<title>Node5&#45;&gt;Node17</title>
<path fill="none" stroke="#191970" d="M858.5,-335.1631C858.5,-324.2863 858.5,-312.8798 858.5,-303.078"/>
<polygon fill="#191970" stroke="#191970" points="855.0001,-335.3593 858.5,-345.3594 862.0001,-335.3594 855.0001,-335.3593"/>
</g>
<!-- Node18 -->
<g id="node14" class="node">
<title>Node18</title>
<g id="a_node14"><a xlink:href="../../d8/de4/MCEventHeader_8cxx.html" target="_top" xlink:title="/home/travis/build\l/AliceO2Group/AliceO2\l/DataFormats/simulation\l/src/MCEventHeader.cxx">
<polygon fill="none" stroke="#000000" points="953,-251 953,-303 1090,-303 1090,-251 953,-251"/>
<text text-anchor="start" x="961" y="-291" font-family="Helvetica,sans-Serif" font-size="10.00" fill="#000000">/home/travis/build</text>
<text text-anchor="start" x="961" y="-280" font-family="Helvetica,sans-Serif" font-size="10.00" fill="#000000">/AliceO2Group/AliceO2</text>
<text text-anchor="start" x="961" y="-269" font-family="Helvetica,sans-Serif" font-size="10.00" fill="#000000">/DataFormats/simulation</text>
<text text-anchor="middle" x="1021.5" y="-258" font-family="Helvetica,sans-Serif" font-size="10.00" fill="#000000">/src/MCEventHeader.cxx</text>
</a>
</g>
</g>
<!-- Node5&#45;&gt;Node18 -->
<g id="edge16" class="edge">
<title>Node5&#45;&gt;Node18</title>
<path fill="none" stroke="#191970" d="M918.813,-339.9982C938.8063,-327.7323 960.6277,-314.345 978.9929,-303.078"/>
<polygon fill="#191970" stroke="#191970" points="916.7677,-337.1467 910.0742,-345.3594 920.4283,-343.1133 916.7677,-337.1467"/>
</g>
<!-- Node19 -->
<g id="node15" class="node">
<title>Node19</title>
<g id="a_node15"><a xlink:href="../../dc/d20/PrimaryGenerator_8cxx.html" target="_top" xlink:title="/home/travis/build\l/AliceO2Group/AliceO2\l/Generators/src/PrimaryGenerator.cxx">
<polygon fill="none" stroke="#000000" points="1108.5,-256.5 1108.5,-297.5 1308.5,-297.5 1308.5,-256.5 1108.5,-256.5"/>
<text text-anchor="start" x="1116.5" y="-285.5" font-family="Helvetica,sans-Serif" font-size="10.00" fill="#000000">/home/travis/build</text>
<text text-anchor="start" x="1116.5" y="-274.5" font-family="Helvetica,sans-Serif" font-size="10.00" fill="#000000">/AliceO2Group/AliceO2</text>
<text text-anchor="middle" x="1208.5" y="-263.5" font-family="Helvetica,sans-Serif" font-size="10.00" fill="#000000">/Generators/src/PrimaryGenerator.cxx</text>
</a>
</g>
</g>
<!-- Node5&#45;&gt;Node19 -->
<g id="edge17" class="edge">
<title>Node5&#45;&gt;Node19</title>
<path fill="none" stroke="#191970" d="M952.5624,-350.5134C996.8619,-337.9972 1050.4173,-322.8054 1098.5,-309 1111.3081,-305.3226 1124.9466,-301.3782 1138.1035,-297.5584"/>
<polygon fill="#191970" stroke="#191970" points="951.3486,-347.2192 942.6764,-353.3055 953.2513,-353.9557 951.3486,-347.2192"/>
</g>
<!-- Node20 -->
<g id="node16" class="node">
<title>Node20</title>
<g id="a_node16"><a xlink:href="../../dd/de5/MCKinematicsReader_8h.html" target="_top" xlink:title="/home/travis/build\l/AliceO2Group/AliceO2\l/Steer/include/Steer/MCKinematics\lReader.h">
<polygon fill="none" stroke="#000000" points="1327,-251 1327,-303 1512,-303 1512,-251 1327,-251"/>
<text text-anchor="start" x="1335" y="-291" font-family="Helvetica,sans-Serif" font-size="10.00" fill="#000000">/home/travis/build</text>
<text text-anchor="start" x="1335" y="-280" font-family="Helvetica,sans-Serif" font-size="10.00" fill="#000000">/AliceO2Group/AliceO2</text>
<text text-anchor="start" x="1335" y="-269" font-family="Helvetica,sans-Serif" font-size="10.00" fill="#000000">/Steer/include/Steer/MCKinematics</text>
<text text-anchor="middle" x="1419.5" y="-258" font-family="Helvetica,sans-Serif" font-size="10.00" fill="#000000">Reader.h</text>
</a>
</g>
</g>
<!-- Node5&#45;&gt;Node20 -->
<g id="edge20" class="edge">
<title>Node5&#45;&gt;Node20</title>
<path fill="none" stroke="#191970" d="M952.5603,-367.4391C1045.908,-356.9282 1192.6909,-337.6366 1317.5,-309 1325.0975,-307.2568 1332.9476,-305.2243 1340.7628,-303.0442"/>
<polygon fill="#191970" stroke="#191970" points="952.1231,-363.966 942.5728,-368.5531 952.8992,-370.9229 952.1231,-363.966"/>
</g>
<!-- Node22 -->
<g id="node18" class="node">
<title>Node22</title>
<g id="a_node18"><a xlink:href="../../db/dd9/MCKinematicsReader_8cxx.html" target="_top" xlink:title="/home/travis/build\l/AliceO2Group/AliceO2\l/Steer/src/MCKinematicsReader.cxx">
<polygon fill="none" stroke="#000000" points="1445.5,-162 1445.5,-203 1633.5,-203 1633.5,-162 1445.5,-162"/>
<text text-anchor="start" x="1453.5" y="-191" font-family="Helvetica,sans-Serif" font-size="10.00" fill="#000000">/home/travis/build</text>
<text text-anchor="start" x="1453.5" y="-180" font-family="Helvetica,sans-Serif" font-size="10.00" fill="#000000">/AliceO2Group/AliceO2</text>
<text text-anchor="middle" x="1539.5" y="-169" font-family="Helvetica,sans-Serif" font-size="10.00" fill="#000000">/Steer/src/MCKinematicsReader.cxx</text>
</a>
</g>
</g>
<!-- Node5&#45;&gt;Node22 -->
<g id="edge23" class="edge">
<title>Node5&#45;&gt;Node22</title>
<path fill="none" stroke="#191970" d="M952.625,-373.6275C1125.6317,-366.5252 1480.2424,-347.4193 1520.5,-309 1548.9369,-281.8616 1547.1337,-231.7781 1543.3128,-203.4516"/>
<polygon fill="#191970" stroke="#191970" points="952.3561,-370.1354 942.5061,-374.0377 952.6397,-377.1297 952.3561,-370.1354"/>
</g>
<!-- Node7 -->
<g id="node3" class="node">
<title>Node7</title>
<g id="a_node3"><a xlink:href="../../d5/d9d/test_2MCTrack_8cxx.html" target="_top" xlink:title="/home/travis/build\l/AliceO2Group/AliceO2\l/DataFormats/simulation\l/test/MCTrack.cxx">
<polygon fill="none" stroke="#000000" points="513,-156.5 513,-208.5 650,-208.5 650,-156.5 513,-156.5"/>
<text text-anchor="start" x="521" y="-196.5" font-family="Helvetica,sans-Serif" font-size="10.00" fill="#000000">/home/travis/build</text>
<text text-anchor="start" x="521" y="-185.5" font-family="Helvetica,sans-Serif" font-size="10.00" fill="#000000">/AliceO2Group/AliceO2</text>
<text text-anchor="start" x="521" y="-174.5" font-family="Helvetica,sans-Serif" font-size="10.00" fill="#000000">/DataFormats/simulation</text>
<text text-anchor="middle" x="581.5" y="-163.5" font-family="Helvetica,sans-Serif" font-size="10.00" fill="#000000">/test/MCTrack.cxx</text>
</a>
</g>
</g>
<!-- Node6&#45;&gt;Node7 -->
<g id="edge2" class="edge">
<title>Node6&#45;&gt;Node7</title>
<path fill="none" stroke="#191970" d="M581.5,-235.2457C581.5,-226.2008 581.5,-216.8836 581.5,-208.6442"/>
<polygon fill="#191970" stroke="#191970" points="578.0001,-235.2699 581.5,-245.27 585.0001,-235.27 578.0001,-235.2699"/>
</g>
<!-- Node6&#45;&gt;Node8 -->
<g id="edge3" class="edge">
<title>Node6&#45;&gt;Node8</title>
<path fill="none" stroke="#191970" d="M487.2949,-272.6336C372.9839,-265.6618 188.6706,-248.5263 133.5,-209 103.4264,-187.4541 88.0335,-145.2048 81.1698,-119.7984"/>
<polygon fill="#191970" stroke="#191970" points="487.2581,-276.1375 497.4482,-273.2374 487.6737,-269.1498 487.2581,-276.1375"/>
</g>
<!-- Node10 -->
<g id="node6" class="node">
<title>Node10</title>
<g id="a_node6"><a xlink:href="../../db/d82/O2SimDevice_8h.html" target="_top" xlink:title="/home/travis/build\l/AliceO2Group/AliceO2\l/run/O2SimDevice.h">
<polygon fill="none" stroke="#000000" points="143,-162 143,-203 270,-203 270,-162 143,-162"/>
<text text-anchor="start" x="151" y="-191" font-family="Helvetica,sans-Serif" font-size="10.00" fill="#000000">/home/travis/build</text>
<text text-anchor="start" x="151" y="-180" font-family="Helvetica,sans-Serif" font-size="10.00" fill="#000000">/AliceO2Group/AliceO2</text>
<text text-anchor="middle" x="206.5" y="-169" font-family="Helvetica,sans-Serif" font-size="10.00" fill="#000000">/run/O2SimDevice.h</text>
</a>
</g>
</g>
<!-- Node6&#45;&gt;Node10 -->
<g id="edge6" class="edge">
<title>Node6&#45;&gt;Node10</title>
<path fill="none" stroke="#191970" d="M487.5885,-259.2546C427.327,-247.0516 347.691,-229.4003 278.5,-209 272.4953,-207.2296 266.2685,-205.216 260.1037,-203.1082"/>
<polygon fill="#191970" stroke="#191970" points="486.9736,-262.701 497.4675,-261.2415 488.3539,-255.8384 486.9736,-262.701"/>
</g>
<!-- Node6&#45;&gt;Node12 -->
<g id="edge9" class="edge">
<title>Node6&#45;&gt;Node12</title>
<path fill="none" stroke="#191970" d="M672.8552,-241.763C706.6514,-228.7273 743.8352,-214.385 773.1569,-203.0752"/>
<polygon fill="#191970" stroke="#191970" points="671.4925,-238.5372 663.4221,-245.4015 674.0117,-245.0682 671.4925,-238.5372"/>
</g>
<!-- Node14 -->
<g id="node10" class="node">
<title>Node14</title>
<g id="a_node10"><a xlink:href="../../df/d82/O2MCApplication_8h.html" target="_top" xlink:title="/home/travis/build\l/AliceO2Group/AliceO2\l/Steer/include/Steer/O2MCApplication.h">
<polygon fill="none" stroke="#000000" points="288,-162 288,-203 495,-203 495,-162 288,-162"/>
<text text-anchor="start" x="296" y="-191" font-family="Helvetica,sans-Serif" font-size="10.00" fill="#000000">/home/travis/build</text>
<text text-anchor="start" x="296" y="-180" font-family="Helvetica,sans-Serif" font-size="10.00" fill="#000000">/AliceO2Group/AliceO2</text>
<text text-anchor="middle" x="391.5" y="-169" font-family="Helvetica,sans-Serif" font-size="10.00" fill="#000000">/Steer/include/Steer/O2MCApplication.h</text>
</a>
</g>
</g>
<!-- Node6&#45;&gt;Node14 -->
<g id="edge11" class="edge">
<title>Node6&#45;&gt;Node14</title>
<path fill="none" stroke="#191970" d="M508.9695,-240.9256C483.2142,-228.1158 455.1215,-214.1433 432.8681,-203.0752"/>
<polygon fill="#191970" stroke="#191970" points="507.4562,-244.0819 517.9686,-245.4015 510.5736,-237.8144 507.4562,-244.0819"/>
</g>
<!-- Node6&#45;&gt;Node16 -->
<g id="edge14" class="edge">
<title>Node6&#45;&gt;Node16</title>
<path fill="none" stroke="#191970" d="M637.3329,-238.4189C645.9292,-229.7966 653.5736,-219.9231 658.5,-209 671.5469,-180.0719 665.5712,-142.4081 659.7571,-119.5011"/>
<polygon fill="#191970" stroke="#191970" points="634.8279,-235.9698 629.9269,-245.363 639.6158,-241.0763 634.8279,-235.9698"/>
</g>
<!-- Node8&#45;&gt;Node8 -->
<g id="edge4" class="edge">
<title>Node8&#45;&gt;Node8</title>
<path fill="none" stroke="#191970" d="M149.6757,-109.6998C154.8451,-107.2654 158,-103.6989 158,-99 158,-91.8398 150.6744,-87.3088 140.058,-85.4069"/>
<polygon fill="#191970" stroke="#191970" points="148.6258,-106.3606 140.058,-112.5931 150.6424,-113.0638 148.6258,-106.3606"/>
</g>
<!-- Node9 -->
<g id="node5" class="node">
<title>Node9</title>
<g id="a_node5"><a xlink:href="../../d9/d16/O2HitMergerRunner_8cxx.html" target="_top" xlink:title="/home/travis/build\l/AliceO2Group/AliceO2\l/run/O2HitMergerRunner.cxx">
<polygon fill="none" stroke="#000000" points="0,-.5 0,-41.5 153,-41.5 153,-.5 0,-.5"/>
<text text-anchor="start" x="8" y="-29.5" font-family="Helvetica,sans-Serif" font-size="10.00" fill="#000000">/home/travis/build</text>
<text text-anchor="start" x="8" y="-18.5" font-family="Helvetica,sans-Serif" font-size="10.00" fill="#000000">/AliceO2Group/AliceO2</text>
<text text-anchor="middle" x="76.5" y="-7.5" font-family="Helvetica,sans-Serif" font-size="10.00" fill="#000000">/run/O2HitMergerRunner.cxx</text>
</a>
</g>
</g>
<!-- Node8&#45;&gt;Node9 -->
<g id="edge5" class="edge">
<title>Node8&#45;&gt;Node9</title>
<path fill="none" stroke="#191970" d="M76.5,-68.0789C76.5,-59.2178 76.5,-49.7747 76.5,-41.6898"/>
<polygon fill="#191970" stroke="#191970" points="73.0001,-68.0974 76.5,-78.0974 80.0001,-68.0975 73.0001,-68.0974"/>
</g>
<!-- Node10&#45;&gt;Node8 -->
<g id="edge7" class="edge">
<title>Node10&#45;&gt;Node8</title>
<path fill="none" stroke="#191970" d="M165.6246,-156.2454C147.2665,-144.4539 125.9165,-130.7406 108.7157,-119.6924"/>
<polygon fill="#191970" stroke="#191970" points="164.0597,-159.4001 174.3652,-161.8595 167.8428,-153.5103 164.0597,-159.4001"/>
</g>
<!-- Node11 -->
<g id="node7" class="node">
<title>Node11</title>
<g id="a_node7"><a xlink:href="../../d6/da5/O2SimDeviceRunner_8cxx.html" target="_top" xlink:title="/home/travis/build\l/AliceO2Group/AliceO2\l/run/O2SimDeviceRunner.cxx">
<polygon fill="none" stroke="#000000" points="176.5,-78.5 176.5,-119.5 334.5,-119.5 334.5,-78.5 176.5,-78.5"/>
<text text-anchor="start" x="184.5" y="-107.5" font-family="Helvetica,sans-Serif" font-size="10.00" fill="#000000">/home/travis/build</text>
<text text-anchor="start" x="184.5" y="-96.5" font-family="Helvetica,sans-Serif" font-size="10.00" fill="#000000">/AliceO2Group/AliceO2</text>
<text text-anchor="middle" x="255.5" y="-85.5" font-family="Helvetica,sans-Serif" font-size="10.00" fill="#000000">/run/O2SimDeviceRunner.cxx</text>
</a>
</g>
</g>
<!-- Node10&#45;&gt;Node11 -->
<g id="edge8" class="edge">
<title>Node10&#45;&gt;Node11</title>
<path fill="none" stroke="#191970" d="M223.82,-152.9854C230.2767,-141.9826 237.4632,-129.7362 243.3572,-119.6924"/>
<polygon fill="#191970" stroke="#191970" points="220.6549,-151.4635 218.6124,-161.8595 226.6922,-155.0063 220.6549,-151.4635"/>
</g>
<!-- Node13 -->
<g id="node9" class="node">
<title>Node13</title>
<g id="a_node9"><a xlink:href="../../db/d8f/O2PrimaryServerDeviceRunner_8cxx.html" target="_top" xlink:title="/home/travis/build\l/AliceO2Group/AliceO2\l/run/O2PrimaryServerDeviceRunner.cxx">
<polygon fill="none" stroke="#000000" points="756,-78.5 756,-119.5 965,-119.5 965,-78.5 756,-78.5"/>
<text text-anchor="start" x="764" y="-107.5" font-family="Helvetica,sans-Serif" font-size="10.00" fill="#000000">/home/travis/build</text>
<text text-anchor="start" x="764" y="-96.5" font-family="Helvetica,sans-Serif" font-size="10.00" fill="#000000">/AliceO2Group/AliceO2</text>
<text text-anchor="middle" x="860.5" y="-85.5" font-family="Helvetica,sans-Serif" font-size="10.00" fill="#000000">/run/O2PrimaryServerDeviceRunner.cxx</text>
</a>
</g>
</g>
<!-- Node12&#45;&gt;Node13 -->
<g id="edge10" class="edge">
<title>Node12&#45;&gt;Node13</title>
<path fill="none" stroke="#191970" d="M838.7873,-152.3237C843.1972,-141.4936 848.0665,-129.5353 852.0744,-119.6924"/>
<polygon fill="#191970" stroke="#191970" points="835.4342,-151.278 834.9045,-161.8595 841.9173,-153.9178 835.4342,-151.278"/>
</g>
<!-- Node15 -->
<g id="node11" class="node">
<title>Node15</title>
<g id="a_node11"><a xlink:href="../../d9/d9b/O2RunSim_8h.html" target="_top" xlink:title="/home/travis/build\l/AliceO2Group/AliceO2\l/Steer/include/Steer/O2RunSim.h">
<polygon fill="none" stroke="#000000" points="352.5,-78.5 352.5,-119.5 526.5,-119.5 526.5,-78.5 352.5,-78.5"/>
<text text-anchor="start" x="360.5" y="-107.5" font-family="Helvetica,sans-Serif" font-size="10.00" fill="#000000">/home/travis/build</text>
<text text-anchor="start" x="360.5" y="-96.5" font-family="Helvetica,sans-Serif" font-size="10.00" fill="#000000">/AliceO2Group/AliceO2</text>
<text text-anchor="middle" x="439.5" y="-85.5" font-family="Helvetica,sans-Serif" font-size="10.00" fill="#000000">/Steer/include/Steer/O2RunSim.h</text>
</a>
</g>
</g>
<!-- Node14&#45;&gt;Node15 -->
<g id="edge12" class="edge">
<title>Node14&#45;&gt;Node15</title>
<path fill="none" stroke="#191970" d="M408.4665,-152.9854C414.7915,-141.9826 421.8313,-129.7362 427.605,-119.6924"/>
<polygon fill="#191970" stroke="#191970" points="405.3146,-151.4456 403.3652,-161.8595 411.3833,-154.9342 405.3146,-151.4456"/>
</g>
<!-- Node14&#45;&gt;Node16 -->
<g id="edge13" class="edge">
<title>Node14&#45;&gt;Node16</title>
<path fill="none" stroke="#191970" d="M465.6098,-158.8811C504.4359,-146.5071 551.5367,-131.4959 588.8666,-119.5988"/>
<polygon fill="#191970" stroke="#191970" points="464.393,-155.5953 455.928,-161.9667 466.5186,-162.2648 464.393,-155.5953"/>
</g>
<!-- Node21 -->
<g id="node17" class="node">
<title>Node21</title>
<g id="a_node17"><a xlink:href="../../d7/d23/StandaloneAODProducer_8cxx.html" target="_top" xlink:title="/home/travis/build\l/AliceO2Group/AliceO2\l/Detectors/AOD/src/Standalone\lAODProducer.cxx">
<polygon fill="none" stroke="#000000" points="1260,-156.5 1260,-208.5 1427,-208.5 1427,-156.5 1260,-156.5"/>
<text text-anchor="start" x="1268" y="-196.5" font-family="Helvetica,sans-Serif" font-size="10.00" fill="#000000">/home/travis/build</text>
<text text-anchor="start" x="1268" y="-185.5" font-family="Helvetica,sans-Serif" font-size="10.00" fill="#000000">/AliceO2Group/AliceO2</text>
<text text-anchor="start" x="1268" y="-174.5" font-family="Helvetica,sans-Serif" font-size="10.00" fill="#000000">/Detectors/AOD/src/Standalone</text>
<text text-anchor="middle" x="1343.5" y="-163.5" font-family="Helvetica,sans-Serif" font-size="10.00" fill="#000000">AODProducer.cxx</text>
</a>
</g>
</g>
<!-- Node20&#45;&gt;Node21 -->
<g id="edge21" class="edge">
<title>Node20&#45;&gt;Node21</title>
<path fill="none" stroke="#191970" d="M1392.1331,-242.9714C1383.089,-231.7258 1373.171,-219.3935 1364.6639,-208.8157"/>
<polygon fill="#191970" stroke="#191970" points="1389.537,-245.3282 1398.5315,-250.9273 1394.9918,-240.9412 1389.537,-245.3282"/>
</g>
<!-- Node20&#45;&gt;Node22 -->
<g id="edge22" class="edge">
<title>Node20&#45;&gt;Node22</title>
<path fill="none" stroke="#191970" d="M1460.9299,-244.374C1478.3189,-230.6801 1498.0165,-215.1682 1513.3392,-203.1016"/>
<polygon fill="#191970" stroke="#191970" points="1458.2991,-241.9906 1452.6082,-250.9273 1462.63,-247.4901 1458.2991,-241.9906"/>
</g>
</g>
</svg>
