<?xml version="1.0" encoding="UTF-8" standalone="no"?>
<!DOCTYPE svg PUBLIC "-//W3C//DTD SVG 1.1//EN"
 "http://www.w3.org/Graphics/SVG/1.1/DTD/svg11.dtd">
<!-- Generated by graphviz version 2.40.1 (20161225.0304)
 -->
<!-- Title: /home/travis/build/AliceO2Group/AliceO2/Framework/Core/include/Framework/InputSpec.h Pages: 1 -->
<!--zoomable 318 -->
<svg id="main" version="1.1" xmlns="http://www.w3.org/2000/svg" xmlns:xlink="http://www.w3.org/1999/xlink" xml:space="preserve" onload="init(evt)">
<style type="text/css"><![CDATA[
.edge:hover path { stroke: red; }
.edge:hover polygon { stroke: red; fill: red; }
]]></style>
<script type="text/javascript"><![CDATA[
var edges = document.getElementsByTagName('g');
if (edges && edges.length) {
  for (var i=0;i<edges.length;i++) {
    if (edges[i].id.substr(0,4)=='edge') {
      edges[i].setAttribute('class','edge');
    }
  }
}
]]></script>
        <defs>
                <circle id="rim" cx="0" cy="0" r="7"/>
                <circle id="rim2" cx="0" cy="0" r="3.5"/>
                <g id="zoomPlus">
                        <use xlink:href="#rim" fill="#404040">
                                <set attributeName="fill" to="#808080" begin="zoomplus.mouseover" end="zoomplus.mouseout"/>
                        </use>
                        <path d="M-4,0h8M0,-4v8" fill="none" stroke="white" stroke-width="1.5" pointer-events="none"/>
                </g>
                <g id="zoomMin">
                        <use xlink:href="#rim" fill="#404040">
                                <set attributeName="fill" to="#808080" begin="zoomminus.mouseover" end="zoomminus.mouseout"/>
                        </use>
                        <path d="M-4,0h8" fill="none" stroke="white" stroke-width="1.5" pointer-events="none"/>
                </g>
                <g id="dirArrow">
                        <path fill="none" stroke="white" stroke-width="1.5" d="M0,-3.0v7 M-2.5,-0.5L0,-3.0L2.5,-0.5"/>
                </g>
               <g id="resetDef">
                       <use xlink:href="#rim2" fill="#404040">
                               <set attributeName="fill" to="#808080" begin="reset.mouseover" end="reset.mouseout"/>
                       </use>
               </g>
        </defs>

<script type="text/javascript">
var viewWidth = 2880;
var viewHeight = 318;
var sectionId = 'dynsection-0';
</script>
<script xlink:href="../../svgpan.js"/>
<svg id="graph" class="graph">
<g id="viewport">
<title>/home/travis/build/AliceO2Group/AliceO2/Framework/Core/include/Framework/InputSpec.h</title>
<!-- Node0 -->
<g id="node1" class="node">
<title>Node0</title>
<polygon fill="#bfbfbf" stroke="#000000" points="2419,-257.5 2419,-309.5 2556,-309.5 2556,-257.5 2419,-257.5"/>
<text text-anchor="start" x="2427" y="-297.5" font-family="Helvetica,sans-Serif" font-size="10.00" fill="#000000">/home/travis/build</text>
<text text-anchor="start" x="2427" y="-286.5" font-family="Helvetica,sans-Serif" font-size="10.00" fill="#000000">/AliceO2Group/AliceO2</text>
<text text-anchor="start" x="2427" y="-275.5" font-family="Helvetica,sans-Serif" font-size="10.00" fill="#000000">/Framework/Core/include</text>
<text text-anchor="middle" x="2487.5" y="-264.5" font-family="Helvetica,sans-Serif" font-size="10.00" fill="#000000">/Framework/InputSpec.h</text>
</g>
<!-- Node1 -->
<g id="node2" class="node">
<title>Node1</title>
<g id="a_node2"><a xlink:href="../../dc/dca/Lifetime_8h.html" target="_top" xlink:title="Framework/Lifetime.h">
<polygon fill="none" stroke="#000000" points="2054,-196 2054,-215 2177,-215 2177,-196 2054,-196"/>
<text text-anchor="middle" x="2115.5" y="-203" font-family="Helvetica,sans-Serif" font-size="10.00" fill="#000000">Framework/Lifetime.h</text>
</a>
</g>
</g>
<!-- Node0&#45;&gt;Node1 -->
<g id="edge1" class="edge">
<title>Node0&#45;&gt;Node1</title>
<path fill="none" stroke="#191970" d="M2418.8359,-269.1027C2347.3486,-254.1134 2236.7766,-230.929 2170.7294,-217.0804"/>
<polygon fill="#191970" stroke="#191970" points="2171.4266,-213.6505 2160.9211,-215.0238 2169.99,-220.5015 2171.4266,-213.6505"/>
</g>
<!-- Node2 -->
<g id="node3" class="node">
<title>Node2</title>
<g id="a_node3"><a xlink:href="../../d0/d1b/ConcreteDataMatcher_8h.html" target="_top" xlink:title="Framework/ConcreteDataMatcher.h">
<polygon fill="none" stroke="#000000" points="1713.5,-129 1713.5,-148 1901.5,-148 1901.5,-129 1713.5,-129"/>
<text text-anchor="middle" x="1807.5" y="-136" font-family="Helvetica,sans-Serif" font-size="10.00" fill="#000000">Framework/ConcreteDataMatcher.h</text>
</a>
</g>
</g>
<!-- Node0&#45;&gt;Node2 -->
<g id="edge2" class="edge">
<title>Node0&#45;&gt;Node2</title>
<path fill="none" stroke="#191970" d="M2418.8097,-275.5603C2364.0551,-267.2916 2286.5469,-251.1606 2224.5,-221 2204.586,-211.3199 2205.8638,-198.694 2185.5,-190 2178.7533,-187.1196 2000.203,-163.5474 1890.9463,-149.3118"/>
<polygon fill="#191970" stroke="#191970" points="1891.292,-145.8273 1880.9238,-148.0068 1890.3881,-152.7687 1891.292,-145.8273"/>
</g>
<!-- Node10 -->
<g id="node11" class="node">
<title>Node10</title>
<polygon fill="none" stroke="#bfbfbf" points="2337.5,-6 2337.5,-25 2381.5,-25 2381.5,-6 2337.5,-6"/>
<text text-anchor="middle" x="2359.5" y="-13" font-family="Helvetica,sans-Serif" font-size="10.00" fill="#000000">string</text>
</g>
<!-- Node0&#45;&gt;Node10 -->
<g id="edge62" class="edge">
<title>Node0&#45;&gt;Node10</title>
<path fill="none" stroke="#191970" d="M2503.4062,-257.2312C2521.2165,-224.117 2544.7302,-166.2945 2521.5,-123 2517.6542,-115.8324 2427.7271,-58.4947 2383.551,-30.6155"/>
<polygon fill="#191970" stroke="#191970" points="2385.1924,-27.5129 2374.8662,-25.1422 2381.4601,-33.4349 2385.1924,-27.5129"/>
</g>
<!-- Node14 -->
<g id="node15" class="node">
<title>Node14</title>
<g id="a_node15"><a xlink:href="../../d3/da3/DataDescriptorMatcher_8h.html" target="_top" xlink:title="Framework/DataDescriptor\lMatcher.h">
<polygon fill="none" stroke="#000000" points="2234,-190.5 2234,-220.5 2381,-220.5 2381,-190.5 2234,-190.5"/>
<text text-anchor="start" x="2242" y="-208.5" font-family="Helvetica,sans-Serif" font-size="10.00" fill="#000000">Framework/DataDescriptor</text>
<text text-anchor="middle" x="2307.5" y="-197.5" font-family="Helvetica,sans-Serif" font-size="10.00" fill="#000000">Matcher.h</text>
</a>
</g>
</g>
<!-- Node0&#45;&gt;Node14 -->
<g id="edge14" class="edge">
<title>Node0&#45;&gt;Node14</title>
<path fill="none" stroke="#191970" d="M2427.3124,-257.4187C2402.5412,-246.6845 2374.3733,-234.4784 2351.5756,-224.5994"/>
<polygon fill="#191970" stroke="#191970" points="2352.7268,-221.2838 2342.1596,-220.5192 2349.9435,-227.7067 2352.7268,-221.2838"/>
</g>
<!-- Node35 -->
<g id="node36" class="node">
<title>Node35</title>
<polygon fill="none" stroke="#bfbfbf" points="2462,-129 2462,-148 2513,-148 2513,-129 2462,-129"/>
<text text-anchor="middle" x="2487.5" y="-136" font-family="Helvetica,sans-Serif" font-size="10.00" fill="#000000">variant</text>
</g>
<!-- Node0&#45;&gt;Node35 -->
<g id="edge64" class="edge">
<title>Node0&#45;&gt;Node35</title>
<path fill="none" stroke="#191970" d="M2487.5,-257.2416C2487.5,-228.7911 2487.5,-184.0353 2487.5,-158.3675"/>
<polygon fill="#191970" stroke="#191970" points="2491.0001,-158.0445 2487.5,-148.0445 2484.0001,-158.0445 2491.0001,-158.0445"/>
</g>
<!-- Node37 -->
<g id="node38" class="node">
<title>Node37</title>
<g id="a_node38"><a xlink:href="../../d0/d1c/ConfigParamSpec_8h.html" target="_top" xlink:title="Framework/ConfigParamSpec.h">
<polygon fill="none" stroke="#000000" points="2569,-129 2569,-148 2736,-148 2736,-129 2569,-129"/>
<text text-anchor="middle" x="2652.5" y="-136" font-family="Helvetica,sans-Serif" font-size="10.00" fill="#000000">Framework/ConfigParamSpec.h</text>
</a>
</g>
</g>
<!-- Node0&#45;&gt;Node37 -->
<g id="edge50" class="edge">
<title>Node0&#45;&gt;Node37</title>
<path fill="none" stroke="#191970" d="M2517.3803,-257.2416C2551.3591,-227.3814 2605.7766,-179.56 2634.069,-154.6969"/>
<polygon fill="#191970" stroke="#191970" points="2636.4378,-157.2748 2641.639,-148.0445 2631.8169,-152.0166 2636.4378,-157.2748"/>
</g>
<!-- Node42 -->
<g id="node43" class="node">
<title>Node42</title>
<polygon fill="none" stroke="#bfbfbf" points="2608,-196 2608,-215 2665,-215 2665,-196 2608,-196"/>
<text text-anchor="middle" x="2636.5" y="-203" font-family="Helvetica,sans-Serif" font-size="10.00" fill="#000000">ostream</text>
</g>
<!-- Node0&#45;&gt;Node42 -->
<g id="edge63" class="edge">
<title>Node0&#45;&gt;Node42</title>
<path fill="none" stroke="#191970" d="M2537.5293,-257.3101C2561.4683,-244.7784 2589.1993,-230.2615 2609.2063,-219.788"/>
<polygon fill="#191970" stroke="#191970" points="2610.8487,-222.8788 2618.0849,-215.1401 2607.6022,-216.6772 2610.8487,-222.8788"/>
</g>
<!-- Node3 -->
<g id="node4" class="node">
<title>Node3</title>
<g id="a_node4"><a xlink:href="../../dc/dcd/DataHeader_8h.html" target="_top" xlink:title="Headers/DataHeader.h">
<polygon fill="none" stroke="#000000" points="1874,-67.5 1874,-86.5 2001,-86.5 2001,-67.5 1874,-67.5"/>
<text text-anchor="middle" x="1937.5" y="-74.5" font-family="Helvetica,sans-Serif" font-size="10.00" fill="#000000">Headers/DataHeader.h</text>
</a>
</g>
</g>
<!-- Node2&#45;&gt;Node3 -->
<g id="edge3" class="edge">
<title>Node2&#45;&gt;Node3</title>
<path fill="none" stroke="#191970" d="M1827.8125,-128.8906C1849.3731,-118.6908 1883.6478,-102.4763 1908.1444,-90.8875"/>
<polygon fill="#191970" stroke="#191970" points="1909.7874,-93.9822 1917.3301,-86.5419 1906.7939,-87.6545 1909.7874,-93.9822"/>
</g>
<!-- Node4 -->
<g id="node5" class="node">
<title>Node4</title>
<polygon fill="none" stroke="#bfbfbf" points="2269.5,-6 2269.5,-25 2319.5,-25 2319.5,-6 2269.5,-6"/>
<text text-anchor="middle" x="2294.5" y="-13" font-family="Helvetica,sans-Serif" font-size="10.00" fill="#000000">cstdint</text>
</g>
<!-- Node3&#45;&gt;Node4 -->
<g id="edge4" class="edge">
<title>Node3&#45;&gt;Node4</title>
<path fill="none" stroke="#191970" d="M2001.1551,-73.3227C2067.1321,-68.2695 2172.7026,-56.6843 2260.5,-31 2262.4613,-30.4262 2264.4547,-29.759 2266.4426,-29.03"/>
<polygon fill="#191970" stroke="#191970" points="2268.2551,-32.0683 2276.1624,-25.0167 2265.5836,-25.5981 2268.2551,-32.0683"/>
</g>
<!-- Node5 -->
<g id="node6" class="node">
<title>Node5</title>
<polygon fill="none" stroke="#bfbfbf" points="2123.5,-6 2123.5,-25 2181.5,-25 2181.5,-6 2123.5,-6"/>
<text text-anchor="middle" x="2152.5" y="-13" font-family="Helvetica,sans-Serif" font-size="10.00" fill="#000000">memory</text>
</g>
<!-- Node3&#45;&gt;Node5 -->
<g id="edge5" class="edge">
<title>Node3&#45;&gt;Node5</title>
<path fill="none" stroke="#191970" d="M1980.8873,-67.4269C2017.0106,-59.052 2069.6057,-45.9163 2114.5,-31 2116.6425,-30.2881 2118.8369,-29.515 2121.0374,-28.7067"/>
<polygon fill="#191970" stroke="#191970" points="2122.5162,-31.8876 2130.5827,-25.0186 2119.9933,-25.358 2122.5162,-31.8876"/>
</g>
<!-- Node6 -->
<g id="node7" class="node">
<title>Node6</title>
<polygon fill="none" stroke="#bfbfbf" points="2199.5,-6 2199.5,-25 2251.5,-25 2251.5,-6 2199.5,-6"/>
<text text-anchor="middle" x="2225.5" y="-13" font-family="Helvetica,sans-Serif" font-size="10.00" fill="#000000">cassert</text>
</g>
<!-- Node3&#45;&gt;Node6 -->
<g id="edge6" class="edge">
<title>Node3&#45;&gt;Node6</title>
<path fill="none" stroke="#191970" d="M2001.1357,-69.6822C2052.9069,-62.7212 2127.4534,-50.3905 2190.5,-31 2192.616,-30.3492 2194.7739,-29.6053 2196.9271,-28.8036"/>
<polygon fill="#191970" stroke="#191970" points="2198.2519,-32.0433 2206.1913,-25.0277 2195.6098,-25.561 2198.2519,-32.0433"/>
</g>
<!-- Node7 -->
<g id="node8" class="node">
<title>Node7</title>
<polygon fill="none" stroke="#bfbfbf" points="2055.5,-6 2055.5,-25 2105.5,-25 2105.5,-6 2055.5,-6"/>
<text text-anchor="middle" x="2080.5" y="-13" font-family="Helvetica,sans-Serif" font-size="10.00" fill="#000000">cstring</text>
</g>
<!-- Node3&#45;&gt;Node7 -->
<g id="edge7" class="edge">
<title>Node3&#45;&gt;Node7</title>
<path fill="none" stroke="#191970" d="M1960.5471,-67.4966C1982.6647,-58.324 2016.9709,-43.9587 2046.5,-31 2047.7029,-30.4721 2048.9283,-29.9307 2050.165,-29.3813"/>
<polygon fill="#191970" stroke="#191970" points="2051.9982,-32.3947 2059.6842,-25.1025 2049.1283,-26.0101 2051.9982,-32.3947"/>
</g>
<!-- Node8 -->
<g id="node9" class="node">
<title>Node8</title>
<polygon fill="none" stroke="#bfbfbf" points="1821.5,-6 1821.5,-25 1885.5,-25 1885.5,-6 1821.5,-6"/>
<text text-anchor="middle" x="1853.5" y="-13" font-family="Helvetica,sans-Serif" font-size="10.00" fill="#000000">algorithm</text>
</g>
<!-- Node3&#45;&gt;Node8 -->
<g id="edge8" class="edge">
<title>Node3&#45;&gt;Node8</title>
<path fill="none" stroke="#191970" d="M1924.375,-67.3906C1911.06,-57.6421 1890.2406,-42.3994 1874.6053,-30.9521"/>
<polygon fill="#191970" stroke="#191970" points="1876.6691,-28.1253 1866.5328,-25.0419 1872.5339,-33.7734 1876.6691,-28.1253"/>
</g>
<!-- Node9 -->
<g id="node10" class="node">
<title>Node9</title>
<polygon fill="none" stroke="#bfbfbf" points="1904,-6 1904,-25 1969,-25 1969,-6 1904,-6"/>
<text text-anchor="middle" x="1936.5" y="-13" font-family="Helvetica,sans-Serif" font-size="10.00" fill="#000000">stdexcept</text>
</g>
<!-- Node3&#45;&gt;Node9 -->
<g id="edge9" class="edge">
<title>Node3&#45;&gt;Node9</title>
<path fill="none" stroke="#191970" d="M1937.3438,-67.3906C1937.2051,-58.8657 1936.9982,-46.1392 1936.824,-35.4235"/>
<polygon fill="#191970" stroke="#191970" points="1940.3207,-35.1866 1936.6585,-25.2449 1933.3216,-35.3005 1940.3207,-35.1866"/>
</g>
<!-- Node3&#45;&gt;Node10 -->
<g id="edge10" class="edge">
<title>Node3&#45;&gt;Node10</title>
<path fill="none" stroke="#191970" d="M2001.296,-72.1866C2095.9488,-64.5886 2268.8234,-48.8328 2328.5,-31 2330.1647,-30.5025 2331.8483,-29.9201 2333.5253,-29.2782"/>
<polygon fill="#191970" stroke="#191970" points="2335.1587,-32.3826 2342.881,-25.1289 2332.3207,-25.9837 2335.1587,-32.3826"/>
</g>
<!-- Node11 -->
<g id="node12" class="node">
<title>Node11</title>
<polygon fill="none" stroke="#bfbfbf" points="1987.5,-6 1987.5,-25 2037.5,-25 2037.5,-6 1987.5,-6"/>
<text text-anchor="middle" x="2012.5" y="-13" font-family="Helvetica,sans-Serif" font-size="10.00" fill="#000000">climits</text>
</g>
<!-- Node3&#45;&gt;Node11 -->
<g id="edge11" class="edge">
<title>Node3&#45;&gt;Node11</title>
<path fill="none" stroke="#191970" d="M1949.2188,-67.3906C1960.8188,-57.8786 1978.7979,-43.1357 1992.6321,-31.7917"/>
<polygon fill="#191970" stroke="#191970" points="1995.1026,-34.2921 2000.616,-25.2449 1990.664,-28.8792 1995.1026,-34.2921"/>
</g>
<!-- Node12 -->
<g id="node13" class="node">
<title>Node12</title>
<g id="a_node13"><a xlink:href="../../d7/df8/Types_8h.html" target="_top" xlink:title="MemoryResources/Types.h">
<polygon fill="none" stroke="#000000" points="1504.5,-6 1504.5,-25 1650.5,-25 1650.5,-6 1504.5,-6"/>
<text text-anchor="middle" x="1577.5" y="-13" font-family="Helvetica,sans-Serif" font-size="10.00" fill="#000000">MemoryResources/Types.h</text>
</a>
</g>
</g>
<!-- Node3&#45;&gt;Node12 -->
<g id="edge12" class="edge">
<title>Node3&#45;&gt;Node12</title>
<path fill="none" stroke="#191970" d="M1877.5092,-67.4792C1821.1604,-58.4403 1734.5241,-44.2959 1659.5,-31 1652.1597,-29.6991 1644.4576,-28.2951 1636.8355,-26.8818"/>
<polygon fill="#191970" stroke="#191970" points="1637.3714,-23.4214 1626.8989,-25.0265 1636.0866,-30.3025 1637.3714,-23.4214"/>
</g>
<!-- Node13 -->
<g id="node14" class="node">
<title>Node13</title>
<polygon fill="none" stroke="#bfbfbf" points="1669,-6 1669,-25 1716,-25 1716,-6 1669,-6"/>
<text text-anchor="middle" x="1692.5" y="-13" font-family="Helvetica,sans-Serif" font-size="10.00" fill="#000000">cerrno</text>
</g>
<!-- Node3&#45;&gt;Node13 -->
<g id="edge13" class="edge">
<title>Node3&#45;&gt;Node13</title>
<path fill="none" stroke="#191970" d="M1874.4477,-67.4506C1831.4775,-59.9613 1773.6799,-47.9489 1724.5,-31 1722.8951,-30.4469 1721.2657,-29.8338 1719.6356,-29.1799"/>
<polygon fill="#191970" stroke="#191970" points="1721.0192,-25.9648 1710.4578,-25.1235 1718.1894,-32.3673 1721.0192,-25.9648"/>
</g>
<!-- Node14&#45;&gt;Node2 -->
<g id="edge15" class="edge">
<title>Node14&#45;&gt;Node2</title>
<path fill="none" stroke="#191970" d="M2233.6074,-192.1729C2228.838,-191.4092 2224.1043,-190.6776 2219.5,-190 2084.8945,-170.1916 2050.4035,-171.6655 1915.5,-154 1904.7152,-152.5877 1893.3347,-151.0292 1882.1686,-149.461"/>
<polygon fill="#191970" stroke="#191970" points="1882.3891,-145.9574 1871.9974,-148.0221 1881.4085,-152.8884 1882.3891,-145.9574"/>
</g>
<!-- Node14&#45;&gt;Node3 -->
<g id="edge24" class="edge">
<title>Node14&#45;&gt;Node3</title>
<path fill="none" stroke="#191970" d="M2233.5963,-192.2467C2228.8296,-191.4649 2224.0995,-190.7091 2219.5,-190 2159.2404,-180.7096 1990.5608,-197.166 1947.5,-154 1932.8178,-139.2819 1932.1961,-114.3529 1934.0227,-96.8567"/>
<polygon fill="#191970" stroke="#191970" points="1937.5362,-97.0026 1935.4533,-86.6146 1930.6035,-96.0342 1937.5362,-97.0026"/>
</g>
<!-- Node14&#45;&gt;Node4 -->
<g id="edge44" class="edge">
<title>Node14&#45;&gt;Node4</title>
<path fill="none" stroke="#191970" d="M2319.6789,-190.2988C2326.6867,-180.5503 2334.8134,-167.2728 2338.5,-154 2342.1872,-140.7248 2341.1595,-136.5187 2338.5,-123 2332.0771,-90.3519 2315.6552,-55.1315 2304.7919,-34.2174"/>
<polygon fill="#191970" stroke="#191970" points="2307.7647,-32.3535 2299.9736,-25.1737 2301.5867,-35.645 2307.7647,-32.3535"/>
</g>
<!-- Node14&#45;&gt;Node10 -->
<g id="edge46" class="edge">
<title>Node14&#45;&gt;Node10</title>
<path fill="none" stroke="#191970" d="M2318.984,-190.0773C2325.7303,-180.2455 2333.8262,-166.9582 2338.5,-154 2353.0846,-113.5643 2357.5405,-62.9426 2358.9016,-35.4758"/>
<polygon fill="#191970" stroke="#191970" points="2362.4093,-35.3523 2359.316,-25.2191 2355.415,-35.0697 2362.4093,-35.3523"/>
</g>
<!-- Node15 -->
<g id="node16" class="node">
<title>Node15</title>
<g id="a_node16"><a xlink:href="../../d6/dc9/DataProcessingHeader_8h.html" target="_top" xlink:title="Framework/DataProcessing\lHeader.h">
<polygon fill="none" stroke="#000000" points="1957,-123.5 1957,-153.5 2106,-153.5 2106,-123.5 1957,-123.5"/>
<text text-anchor="start" x="1965" y="-141.5" font-family="Helvetica,sans-Serif" font-size="10.00" fill="#000000">Framework/DataProcessing</text>
<text text-anchor="middle" x="2031.5" y="-130.5" font-family="Helvetica,sans-Serif" font-size="10.00" fill="#000000">Header.h</text>
</a>
</g>
</g>
<!-- Node14&#45;&gt;Node15 -->
<g id="edge16" class="edge">
<title>Node14&#45;&gt;Node15</title>
<path fill="none" stroke="#191970" d="M2245.5602,-190.4639C2203.449,-180.2412 2147.596,-166.6827 2103.5017,-155.9787"/>
<polygon fill="#191970" stroke="#191970" points="2104.2534,-152.5596 2093.7099,-153.6017 2102.602,-159.362 2104.2534,-152.5596"/>
</g>
<!-- Node18 -->
<g id="node19" class="node">
<title>Node18</title>
<g id="a_node19"><a xlink:href="../../d1/d76/RuntimeError_8h.html" target="_top" xlink:title="Framework/RuntimeError.h">
<polygon fill="none" stroke="#000000" points="2399.5,-6 2399.5,-25 2545.5,-25 2545.5,-6 2399.5,-6"/>
<text text-anchor="middle" x="2472.5" y="-13" font-family="Helvetica,sans-Serif" font-size="10.00" fill="#000000">Framework/RuntimeError.h</text>
</a>
</g>
</g>
<!-- Node14&#45;&gt;Node18 -->
<g id="edge23" class="edge">
<title>Node14&#45;&gt;Node18</title>
<path fill="none" stroke="#191970" d="M2321.6224,-190.2999C2331.0276,-180.1101 2343.6117,-166.3471 2354.5,-154 2392.2299,-111.2149 2435.4473,-59.8734 2457.6355,-33.3373"/>
<polygon fill="#191970" stroke="#191970" points="2460.5927,-35.2565 2464.3157,-25.3373 2455.2196,-30.7698 2460.5927,-35.2565"/>
</g>
<!-- Node19 -->
<g id="node20" class="node">
<title>Node19</title>
<g id="a_node20"><a xlink:href="../../d4/d00/Headers_2include_2Headers_2Stack_8h.html" target="_top" xlink:title="Headers/Stack.h">
<polygon fill="none" stroke="#000000" points="1599.5,-129 1599.5,-148 1695.5,-148 1695.5,-129 1599.5,-129"/>
<text text-anchor="middle" x="1647.5" y="-136" font-family="Helvetica,sans-Serif" font-size="10.00" fill="#000000">Headers/Stack.h</text>
</a>
</g>
</g>
<!-- Node14&#45;&gt;Node19 -->
<g id="edge25" class="edge">
<title>Node14&#45;&gt;Node19</title>
<path fill="none" stroke="#191970" d="M2233.7004,-195.5008C2217.8183,-193.5234 2201.1136,-191.5751 2185.5,-190 1972.2068,-168.4833 1915.7815,-190.2912 1704.5,-154 1699.1306,-153.0777 1693.535,-151.8707 1688.0384,-150.5369"/>
<polygon fill="#191970" stroke="#191970" points="1688.8785,-147.1391 1678.3215,-148.0331 1687.1318,-153.9177 1688.8785,-147.1391"/>
</g>
<!-- Node27 -->
<g id="node28" class="node">
<title>Node27</title>
<polygon fill="none" stroke="#bfbfbf" points="0,-6 0,-25 47,-25 47,-6 0,-6"/>
<text text-anchor="middle" x="23.5" y="-13" font-family="Helvetica,sans-Serif" font-size="10.00" fill="#000000">vector</text>
</g>
<!-- Node14&#45;&gt;Node27 -->
<g id="edge48" class="edge">
<title>Node14&#45;&gt;Node27</title>
<path fill="none" stroke="#191970" d="M2233.7169,-195.3309C2217.8337,-193.3645 2201.1244,-191.4636 2185.5,-190 1921.7267,-165.2913 1854.7756,-172.5814 1590.5,-154 907.7765,-105.9974 715.9256,-210.5929 55.5,-31 53.579,-30.4776 51.6341,-29.8408 49.7019,-29.1268"/>
<polygon fill="#191970" stroke="#191970" points="50.8843,-25.8253 40.3153,-25.0846 48.1156,-32.2545 50.8843,-25.8253"/>
</g>
<!-- Node33 -->
<g id="node34" class="node">
<title>Node33</title>
<polygon fill="none" stroke="#bfbfbf" points="2123.5,-129 2123.5,-148 2165.5,-148 2165.5,-129 2123.5,-129"/>
<text text-anchor="middle" x="2144.5" y="-136" font-family="Helvetica,sans-Serif" font-size="10.00" fill="#000000">array</text>
</g>
<!-- Node14&#45;&gt;Node33 -->
<g id="edge43" class="edge">
<title>Node14&#45;&gt;Node33</title>
<path fill="none" stroke="#191970" d="M2265.0921,-190.4037C2238.7307,-180.6946 2204.3014,-167.4218 2174.5,-154 2173.5111,-153.5546 2172.5085,-153.0927 2171.4993,-152.6189"/>
<polygon fill="#191970" stroke="#191970" points="2172.9498,-149.4319 2162.4313,-148.1621 2169.8621,-155.7142 2172.9498,-149.4319"/>
</g>
<!-- Node34 -->
<g id="node35" class="node">
<title>Node34</title>
<polygon fill="none" stroke="#bfbfbf" points="2823,-6 2823,-25 2872,-25 2872,-6 2823,-6"/>
<text text-anchor="middle" x="2847.5" y="-13" font-family="Helvetica,sans-Serif" font-size="10.00" fill="#000000">iosfwd</text>
</g>
<!-- Node14&#45;&gt;Node34 -->
<g id="edge45" class="edge">
<title>Node14&#45;&gt;Node34</title>
<path fill="none" stroke="#191970" d="M2381.2939,-203.7872C2489.3722,-200.1189 2684.404,-188.755 2744.5,-154 2792.7422,-126.1003 2825.2506,-65.6425 2839.4252,-34.6559"/>
<polygon fill="#191970" stroke="#191970" points="2842.6891,-35.9287 2843.5256,-25.3669 2836.2853,-33.1018 2842.6891,-35.9287"/>
</g>
<!-- Node14&#45;&gt;Node35 -->
<g id="edge47" class="edge">
<title>Node14&#45;&gt;Node35</title>
<path fill="none" stroke="#191970" d="M2348.9192,-190.4753C2376.8224,-180.3015 2414.429,-166.4891 2447.5,-154 2449.3812,-153.2896 2451.3105,-152.5566 2453.2569,-151.8137"/>
<polygon fill="#191970" stroke="#191970" points="2454.9075,-154.9291 2462.9869,-148.0754 2452.3969,-148.3947 2454.9075,-154.9291"/>
</g>
<!-- Node36 -->
<g id="node37" class="node">
<title>Node36</title>
<polygon fill="none" stroke="#bfbfbf" points="2183.5,-129 2183.5,-148 2329.5,-148 2329.5,-129 2183.5,-129"/>
<text text-anchor="middle" x="2256.5" y="-136" font-family="Helvetica,sans-Serif" font-size="10.00" fill="#000000">DataDescriptorMatcher.inc</text>
</g>
<!-- Node14&#45;&gt;Node36 -->
<g id="edge49" class="edge">
<title>Node14&#45;&gt;Node36</title>
<path fill="none" stroke="#191970" d="M2295.9273,-190.2967C2288.2127,-180.1618 2278.0449,-166.804 2269.9671,-156.1921"/>
<polygon fill="#191970" stroke="#191970" points="2272.6151,-153.8921 2263.7732,-148.055 2267.0451,-158.1319 2272.6151,-153.8921"/>
</g>
<!-- Node15&#45;&gt;Node3 -->
<g id="edge17" class="edge">
<title>Node15&#45;&gt;Node3</title>
<path fill="none" stroke="#191970" d="M2008.264,-123.2977C1993.7666,-113.8127 1975.1756,-101.6495 1960.6874,-92.1705"/>
<polygon fill="#191970" stroke="#191970" points="1962.5543,-89.2094 1952.2699,-86.6633 1958.7218,-95.0671 1962.5543,-89.2094"/>
</g>
<!-- Node15&#45;&gt;Node4 -->
<g id="edge18" class="edge">
<title>Node15&#45;&gt;Node4</title>
<path fill="none" stroke="#191970" d="M2100.4883,-123.4969C2145.6114,-112.9661 2199.8805,-98.7273 2220.5,-87 2244.6081,-73.2886 2266.6912,-49.9116 2280.3389,-33.6351"/>
<polygon fill="#191970" stroke="#191970" points="2283.4181,-35.3961 2287.0125,-25.4296 2277.9874,-30.9793 2283.4181,-35.3961"/>
</g>
<!-- Node15&#45;&gt;Node5 -->
<g id="edge20" class="edge">
<title>Node15&#45;&gt;Node5</title>
<path fill="none" stroke="#191970" d="M2033.2359,-123.4927C2035.7414,-107.8144 2041.697,-83.2788 2055.5,-67 2064.6985,-56.1516 2096.1213,-40.456 2120.7397,-29.2478"/>
<polygon fill="#191970" stroke="#191970" points="2122.4234,-32.3286 2130.116,-25.0433 2119.5592,-25.9414 2122.4234,-32.3286"/>
</g>
<!-- Node15&#45;&gt;Node6 -->
<g id="edge21" class="edge">
<title>Node15&#45;&gt;Node6</title>
<path fill="none" stroke="#191970" d="M2040.0752,-123.2833C2049.8614,-107.1939 2067.2885,-82.096 2088.5,-67 2127.6675,-39.1249 2145.8215,-48.7466 2190.5,-31 2192.0711,-30.376 2193.6755,-29.7229 2195.2911,-29.0527"/>
<polygon fill="#191970" stroke="#191970" points="2196.6935,-32.2597 2204.5128,-25.1107 2193.942,-25.8231 2196.6935,-32.2597"/>
</g>
<!-- Node16 -->
<g id="node17" class="node">
<title>Node16</title>
<polygon fill="none" stroke="#bfbfbf" points="2097.5,-67.5 2097.5,-86.5 2143.5,-86.5 2143.5,-67.5 2097.5,-67.5"/>
<text text-anchor="middle" x="2120.5" y="-74.5" font-family="Helvetica,sans-Serif" font-size="10.00" fill="#000000">cstdio</text>
</g>
<!-- Node15&#45;&gt;Node16 -->
<g id="edge19" class="edge">
<title>Node15&#45;&gt;Node16</title>
<path fill="none" stroke="#191970" d="M2053.5,-123.2977C2067.0968,-113.9022 2084.4966,-101.8787 2098.1567,-92.4395"/>
<polygon fill="#191970" stroke="#191970" points="2100.2785,-95.2276 2106.5158,-86.6633 2096.2991,-89.4688 2100.2785,-95.2276"/>
</g>
<!-- Node17 -->
<g id="node18" class="node">
<title>Node17</title>
<polygon fill="none" stroke="#bfbfbf" points="2161.5,-67.5 2161.5,-86.5 2211.5,-86.5 2211.5,-67.5 2161.5,-67.5"/>
<text text-anchor="middle" x="2186.5" y="-74.5" font-family="Helvetica,sans-Serif" font-size="10.00" fill="#000000">chrono</text>
</g>
<!-- Node15&#45;&gt;Node17 -->
<g id="edge22" class="edge">
<title>Node15&#45;&gt;Node17</title>
<path fill="none" stroke="#191970" d="M2069.4173,-123.4554C2094.9391,-113.329 2128.2896,-100.0964 2152.8656,-90.3453"/>
<polygon fill="#191970" stroke="#191970" points="2154.4763,-93.4717 2162.4805,-86.5303 2151.8946,-86.9651 2154.4763,-93.4717"/>
</g>
<!-- Node19&#45;&gt;Node3 -->
<g id="edge42" class="edge">
<title>Node19&#45;&gt;Node3</title>
<path fill="none" stroke="#191970" d="M1681.1571,-128.9249C1688.8052,-126.8671 1696.9117,-124.7785 1704.5,-123 1761.3482,-109.6765 1826.5991,-97.0177 1873.5617,-88.365"/>
<polygon fill="#191970" stroke="#191970" points="1874.3883,-91.7719 1883.5934,-86.5263 1873.1263,-84.8866 1874.3883,-91.7719"/>
</g>
<!-- Node20 -->
<g id="node21" class="node">
<title>Node20</title>
<g id="a_node21"><a xlink:href="../../dc/d03/MemoryResources_8h.html" target="_top" xlink:title="MemoryResources/MemoryResources.h">
<polygon fill="none" stroke="#000000" points="1045,-67.5 1045,-86.5 1252,-86.5 1252,-67.5 1045,-67.5"/>
<text text-anchor="middle" x="1148.5" y="-74.5" font-family="Helvetica,sans-Serif" font-size="10.00" fill="#000000">MemoryResources/MemoryResources.h</text>
</a>
</g>
</g>
<!-- Node19&#45;&gt;Node20 -->
<g id="edge26" class="edge">
<title>Node19&#45;&gt;Node20</title>
<path fill="none" stroke="#191970" d="M1599.2004,-132.5472C1515.203,-122.1949 1341.1173,-100.7394 1235.5864,-87.7331"/>
<polygon fill="#191970" stroke="#191970" points="1235.9462,-84.251 1225.5931,-86.5015 1235.0899,-91.1985 1235.9462,-84.251"/>
</g>
<!-- Node20&#45;&gt;Node7 -->
<g id="edge31" class="edge">
<title>Node20&#45;&gt;Node7</title>
<path fill="none" stroke="#191970" d="M1252.2538,-73.8744C1472.1598,-66.9324 1971.1948,-49.3851 2046.5,-31 2048.8397,-30.4288 2051.2158,-29.6973 2053.5686,-28.864"/>
<polygon fill="#191970" stroke="#191970" points="2055.0311,-32.0472 2062.9559,-25.0152 2052.3756,-25.5704 2055.0311,-32.0472"/>
</g>
<!-- Node20&#45;&gt;Node10 -->
<g id="edge32" class="edge">
<title>Node20&#45;&gt;Node10</title>
<path fill="none" stroke="#191970" d="M1252.2934,-75.4576C1521.0659,-71.1089 2225.9847,-57.3191 2328.5,-31 2330.4233,-30.5062 2332.3659,-29.8822 2334.2908,-29.1697"/>
<polygon fill="#191970" stroke="#191970" points="2335.8612,-32.3024 2343.5973,-25.0633 2333.0354,-25.8981 2335.8612,-32.3024"/>
</g>
<!-- Node20&#45;&gt;Node12 -->
<g id="edge41" class="edge">
<title>Node20&#45;&gt;Node12</title>
<path fill="none" stroke="#191970" d="M1229.4224,-67.4593C1299.6549,-58.8883 1403.9929,-45.4571 1494.5,-31 1502.4241,-29.7342 1510.7546,-28.3011 1518.9552,-26.8299"/>
<polygon fill="#191970" stroke="#191970" points="1519.6474,-30.2615 1528.8578,-25.0254 1518.3923,-23.3749 1519.6474,-30.2615"/>
</g>
<!-- Node21 -->
<g id="node22" class="node">
<title>Node21</title>
<polygon fill="none" stroke="#bfbfbf" points="696,-.5 696,-30.5 807,-30.5 807,-.5 696,-.5"/>
<text text-anchor="start" x="704" y="-18.5" font-family="Helvetica,sans-Serif" font-size="10.00" fill="#000000">boost/container/flat</text>
<text text-anchor="middle" x="751.5" y="-7.5" font-family="Helvetica,sans-Serif" font-size="10.00" fill="#000000">_map.hpp</text>
</g>
<!-- Node20&#45;&gt;Node21 -->
<g id="edge27" class="edge">
<title>Node20&#45;&gt;Node21</title>
<path fill="none" stroke="#191970" d="M1062.2164,-67.4906C997.199,-59.7657 905.6838,-47.7067 817.2115,-31.2289"/>
<polygon fill="#191970" stroke="#191970" points="817.7513,-27.7691 807.2761,-29.3571 816.4552,-34.6481 817.7513,-27.7691"/>
</g>
<!-- Node22 -->
<g id="node23" class="node">
<title>Node22</title>
<polygon fill="none" stroke="#bfbfbf" points="825,-.5 825,-30.5 954,-30.5 954,-.5 825,-.5"/>
<text text-anchor="start" x="833" y="-18.5" font-family="Helvetica,sans-Serif" font-size="10.00" fill="#000000">boost/container/pmr</text>
<text text-anchor="middle" x="889.5" y="-7.5" font-family="Helvetica,sans-Serif" font-size="10.00" fill="#000000">/memory_resource.hpp</text>
</g>
<!-- Node20&#45;&gt;Node22 -->
<g id="edge28" class="edge">
<title>Node20&#45;&gt;Node22</title>
<path fill="none" stroke="#191970" d="M1108.3154,-67.4581C1069.5813,-58.2606 1010.0619,-44.1276 962.8718,-32.9223"/>
<polygon fill="#191970" stroke="#191970" points="963.5391,-29.4835 953.001,-30.5784 961.9218,-36.2941 963.5391,-29.4835"/>
</g>
<!-- Node23 -->
<g id="node24" class="node">
<title>Node23</title>
<polygon fill="none" stroke="#bfbfbf" points="972,-.5 972,-30.5 1145,-30.5 1145,-.5 972,-.5"/>
<text text-anchor="start" x="980" y="-18.5" font-family="Helvetica,sans-Serif" font-size="10.00" fill="#000000">boost/container/pmr</text>
<text text-anchor="middle" x="1058.5" y="-7.5" font-family="Helvetica,sans-Serif" font-size="10.00" fill="#000000">/monotonic_buffer_resource.hpp</text>
</g>
<!-- Node20&#45;&gt;Node23 -->
<g id="edge29" class="edge">
<title>Node20&#45;&gt;Node23</title>
<path fill="none" stroke="#191970" d="M1134.4375,-67.3906C1122.2571,-59.0673 1104.2155,-46.7389 1088.7739,-36.1872"/>
<polygon fill="#191970" stroke="#191970" points="1090.7476,-33.2968 1080.5165,-30.5446 1086.7983,-39.0763 1090.7476,-33.2968"/>
</g>
<!-- Node24 -->
<g id="node25" class="node">
<title>Node24</title>
<polygon fill="none" stroke="#bfbfbf" points="1163,-.5 1163,-30.5 1312,-30.5 1312,-.5 1163,-.5"/>
<text text-anchor="start" x="1171" y="-18.5" font-family="Helvetica,sans-Serif" font-size="10.00" fill="#000000">boost/container/pmr</text>
<text text-anchor="middle" x="1237.5" y="-7.5" font-family="Helvetica,sans-Serif" font-size="10.00" fill="#000000">/polymorphic_allocator.hpp</text>
</g>
<!-- Node20&#45;&gt;Node24 -->
<g id="edge30" class="edge">
<title>Node20&#45;&gt;Node24</title>
<path fill="none" stroke="#191970" d="M1162.4063,-67.3906C1174.3398,-59.1444 1191.9626,-46.9669 1207.1377,-36.4807"/>
<polygon fill="#191970" stroke="#191970" points="1209.4909,-39.1089 1215.7282,-30.5446 1205.5115,-33.3501 1209.4909,-39.1089"/>
</g>
<!-- Node25 -->
<g id="node26" class="node">
<title>Node25</title>
<polygon fill="none" stroke="#bfbfbf" points="1734,-6 1734,-25 1803,-25 1803,-6 1734,-6"/>
<text text-anchor="middle" x="1768.5" y="-13" font-family="Helvetica,sans-Serif" font-size="10.00" fill="#000000">type_traits</text>
</g>
<!-- Node20&#45;&gt;Node25 -->
<g id="edge33" class="edge">
<title>Node20&#45;&gt;Node25</title>
<path fill="none" stroke="#191970" d="M1252.0095,-71.955C1392.8065,-64.538 1637.1632,-49.5417 1724.5,-31 1728.1196,-30.2316 1731.8486,-29.2437 1735.5328,-28.1393"/>
<polygon fill="#191970" stroke="#191970" points="1736.6604,-31.453 1745.074,-25.014 1734.4814,-24.8007 1736.6604,-31.453"/>
</g>
<!-- Node26 -->
<g id="node27" class="node">
<title>Node26</title>
<polygon fill="none" stroke="#bfbfbf" points="1330,-6 1330,-25 1375,-25 1375,-6 1330,-6"/>
<text text-anchor="middle" x="1352.5" y="-13" font-family="Helvetica,sans-Serif" font-size="10.00" fill="#000000">utility</text>
</g>
<!-- Node20&#45;&gt;Node26 -->
<g id="edge34" class="edge">
<title>Node20&#45;&gt;Node26</title>
<path fill="none" stroke="#191970" d="M1193.4128,-67.4535C1228.5496,-59.3986 1278.3482,-46.6833 1320.5,-31 1321.9102,-30.4753 1323.342,-29.91 1324.7784,-29.3166"/>
<polygon fill="#191970" stroke="#191970" points="1326.4484,-32.4038 1334.1469,-25.1248 1323.5895,-26.0142 1326.4484,-32.4038"/>
</g>
<!-- Node20&#45;&gt;Node27 -->
<g id="edge35" class="edge">
<title>Node20&#45;&gt;Node27</title>
<path fill="none" stroke="#191970" d="M1044.5615,-75.032C790.0742,-69.8706 149.6049,-54.685 55.5,-31 53.5245,-30.5028 51.5266,-29.8762 49.5449,-29.1619"/>
<polygon fill="#191970" stroke="#191970" points="50.5201,-25.7721 39.9497,-25.0515 47.7636,-32.2065 50.5201,-25.7721"/>
</g>
<!-- Node28 -->
<g id="node29" class="node">
<title>Node28</title>
<polygon fill="none" stroke="#bfbfbf" points="1393,-6 1393,-25 1486,-25 1486,-6 1393,-6"/>
<text text-anchor="middle" x="1439.5" y="-13" font-family="Helvetica,sans-Serif" font-size="10.00" fill="#000000">unordered_map</text>
</g>
<!-- Node20&#45;&gt;Node28 -->
<g id="edge36" class="edge">
<title>Node20&#45;&gt;Node28</title>
<path fill="none" stroke="#191970" d="M1203.3618,-67.4915C1251.1514,-58.9161 1322.1996,-45.4607 1383.5,-31 1387.8707,-29.969 1392.4146,-28.8278 1396.9394,-27.646"/>
<polygon fill="#191970" stroke="#191970" points="1397.9858,-30.9892 1406.7397,-25.021 1396.1746,-24.2276 1397.9858,-30.9892"/>
</g>
<!-- Node29 -->
<g id="node30" class="node">
<title>Node29</title>
<polygon fill="none" stroke="#bfbfbf" points="65,-6 65,-25 166,-25 166,-6 65,-6"/>
<text text-anchor="middle" x="115.5" y="-13" font-family="Helvetica,sans-Serif" font-size="10.00" fill="#000000">FairMQMessage.h</text>
</g>
<!-- Node20&#45;&gt;Node29 -->
<g id="edge37" class="edge">
<title>Node20&#45;&gt;Node29</title>
<path fill="none" stroke="#191970" d="M1044.6375,-74.8489C829.1134,-69.9335 339.6364,-56.3042 174.5,-31 168.6655,-30.106 162.5749,-28.8665 156.6164,-27.4745"/>
<polygon fill="#191970" stroke="#191970" points="157.3315,-24.0457 146.7817,-25.0217 155.6375,-30.8376 157.3315,-24.0457"/>
</g>
<!-- Node30 -->
<g id="node31" class="node">
<title>Node30</title>
<polygon fill="none" stroke="#bfbfbf" points="184,-6 184,-25 321,-25 321,-6 184,-6"/>
<text text-anchor="middle" x="252.5" y="-13" font-family="Helvetica,sans-Serif" font-size="10.00" fill="#000000">FairMQTransportFactory.h</text>
</g>
<!-- Node20&#45;&gt;Node30 -->
<g id="edge38" class="edge">
<title>Node20&#45;&gt;Node30</title>
<path fill="none" stroke="#191970" d="M1044.7746,-75.8106C889.0639,-72.9773 585.9048,-63.3963 330.5,-31 322.1322,-29.9386 313.316,-28.501 304.7419,-26.9273"/>
<polygon fill="#191970" stroke="#191970" points="305.3089,-23.4724 294.8294,-25.0317 303.994,-30.3478 305.3089,-23.4724"/>
</g>
<!-- Node31 -->
<g id="node32" class="node">
<title>Node31</title>
<polygon fill="none" stroke="#bfbfbf" points="339.5,-6 339.5,-25 489.5,-25 489.5,-6 339.5,-6"/>
<text text-anchor="middle" x="414.5" y="-13" font-family="Helvetica,sans-Serif" font-size="10.00" fill="#000000">fairmq/MemoryResources.h</text>
</g>
<!-- Node20&#45;&gt;Node31 -->
<g id="edge39" class="edge">
<title>Node20&#45;&gt;Node31</title>
<path fill="none" stroke="#191970" d="M1044.86,-73.2418C916.2846,-67.7576 690.5444,-55.436 498.5,-31 489.5332,-29.8591 480.0744,-28.3827 470.8661,-26.7954"/>
<polygon fill="#191970" stroke="#191970" points="471.4664,-23.3473 461.0077,-25.04 470.2392,-30.2389 471.4664,-23.3473"/>
</g>
<!-- Node32 -->
<g id="node33" class="node">
<title>Node32</title>
<polygon fill="none" stroke="#bfbfbf" points="507.5,-6 507.5,-25 677.5,-25 677.5,-6 507.5,-6"/>
<text text-anchor="middle" x="592.5" y="-13" font-family="Helvetica,sans-Serif" font-size="10.00" fill="#000000">fairmq/MemoryResourceTools.h</text>
</g>
<!-- Node20&#45;&gt;Node32 -->
<g id="edge40" class="edge">
<title>Node20&#45;&gt;Node32</title>
<path fill="none" stroke="#191970" d="M1044.6094,-68.5747C950.8298,-60.5133 809.1631,-47.2028 686.5,-31 676.7845,-29.7167 666.531,-28.1971 656.5089,-26.6194"/>
<polygon fill="#191970" stroke="#191970" points="657.0205,-23.1568 646.5923,-25.0289 655.9118,-30.0684 657.0205,-23.1568"/>
</g>
<!-- Node37&#45;&gt;Node10 -->
<g id="edge61" class="edge">
<title>Node37&#45;&gt;Node10</title>
<path fill="none" stroke="#191970" d="M2627.3097,-128.884C2580.3025,-110.7814 2476.2186,-69.9501 2390.5,-31 2389.4865,-30.5395 2388.4577,-30.0646 2387.4209,-29.5798"/>
<polygon fill="#191970" stroke="#191970" points="2388.607,-26.2659 2378.0799,-25.0703 2385.5637,-32.5698 2388.607,-26.2659"/>
</g>
<!-- Node38 -->
<g id="node39" class="node">
<title>Node38</title>
<g id="a_node39"><a xlink:href="../../de/d56/Variant_8h.html" target="_top" xlink:title="Framework/Variant.h">
<polygon fill="none" stroke="#000000" points="2538,-67.5 2538,-86.5 2655,-86.5 2655,-67.5 2538,-67.5"/>
<text text-anchor="middle" x="2596.5" y="-74.5" font-family="Helvetica,sans-Serif" font-size="10.00" fill="#000000">Framework/Variant.h</text>
</a>
</g>
</g>
<!-- Node37&#45;&gt;Node38 -->
<g id="edge51" class="edge">
<title>Node37&#45;&gt;Node38</title>
<path fill="none" stroke="#191970" d="M2643.75,-128.8906C2635.3338,-119.6478 2622.4203,-105.466 2612.219,-94.2628"/>
<polygon fill="#191970" stroke="#191970" points="2614.694,-91.7824 2605.3734,-86.7449 2609.5182,-96.4953 2614.694,-91.7824"/>
</g>
<!-- Node38&#45;&gt;Node4 -->
<g id="edge55" class="edge">
<title>Node38&#45;&gt;Node4</title>
<path fill="none" stroke="#191970" d="M2537.985,-71.3523C2483.0032,-65.0216 2398.8803,-52.6833 2328.5,-31 2326.5936,-30.4127 2324.6546,-29.7428 2322.7184,-29.0187"/>
<polygon fill="#191970" stroke="#191970" points="2323.8016,-25.6788 2313.2239,-25.0772 2321.1177,-32.1439 2323.8016,-25.6788"/>
</g>
<!-- Node38&#45;&gt;Node7 -->
<g id="edge54" class="edge">
<title>Node38&#45;&gt;Node7</title>
<path fill="none" stroke="#191970" d="M2537.9607,-73.8477C2427.6323,-67.5051 2192.9636,-51.9941 2114.5,-31 2112.3105,-30.4142 2110.0854,-29.6996 2107.8752,-28.9022"/>
<polygon fill="#191970" stroke="#191970" points="2109.0167,-25.5873 2098.437,-25.0198 2106.3537,-32.061 2109.0167,-25.5873"/>
</g>
<!-- Node38&#45;&gt;Node10 -->
<g id="edge60" class="edge">
<title>Node38&#45;&gt;Node10</title>
<path fill="none" stroke="#191970" d="M2537.716,-67.8131C2495.9144,-60.3354 2438.8371,-48.1896 2390.5,-31 2389.0827,-30.496 2387.6465,-29.9426 2386.2087,-29.3542"/>
<polygon fill="#191970" stroke="#191970" points="2387.4313,-26.0655 2376.8789,-25.118 2384.5372,-32.4392 2387.4313,-26.0655"/>
</g>
<!-- Node38&#45;&gt;Node18 -->
<g id="edge52" class="edge">
<title>Node38&#45;&gt;Node18</title>
<path fill="none" stroke="#191970" d="M2577.125,-67.3906C2556.6505,-57.2359 2524.1558,-41.1196 2500.8115,-29.5416"/>
<polygon fill="#191970" stroke="#191970" points="2502.2528,-26.3496 2491.7389,-25.0419 2499.1425,-32.6207 2502.2528,-26.3496"/>
</g>
<!-- Node38&#45;&gt;Node25 -->
<g id="edge53" class="edge">
<title>Node38&#45;&gt;Node25</title>
<path fill="none" stroke="#191970" d="M2537.9599,-75.6854C2380.6394,-71.8146 1951.2597,-58.9333 1812.5,-31 1808.8725,-30.2698 1805.1384,-29.3065 1801.4513,-28.2166"/>
<polygon fill="#191970" stroke="#191970" points="1802.4986,-24.8768 1791.9063,-25.1091 1800.3315,-31.533 1802.4986,-24.8768"/>
</g>
<!-- Node38&#45;&gt;Node34 -->
<g id="edge57" class="edge">
<title>Node38&#45;&gt;Node34</title>
<path fill="none" stroke="#191970" d="M2655.4424,-68.0987C2699.6156,-60.5686 2761.1961,-48.235 2813.5,-31 2815.3484,-30.3909 2817.2305,-29.7117 2819.113,-28.9872"/>
<polygon fill="#191970" stroke="#191970" points="2820.5074,-32.1978 2828.375,-25.1019 2817.7996,-25.7428 2820.5074,-32.1978"/>
</g>
<!-- Node39 -->
<g id="node40" class="node">
<title>Node39</title>
<polygon fill="none" stroke="#bfbfbf" points="2564,-6 2564,-25 2613,-25 2613,-6 2564,-6"/>
<text text-anchor="middle" x="2588.5" y="-13" font-family="Helvetica,sans-Serif" font-size="10.00" fill="#000000">cstdlib</text>
</g>
<!-- Node38&#45;&gt;Node39 -->
<g id="edge56" class="edge">
<title>Node38&#45;&gt;Node39</title>
<path fill="none" stroke="#191970" d="M2595.25,-67.3906C2594.1411,-58.8657 2592.4856,-46.1392 2591.0917,-35.4235"/>
<polygon fill="#191970" stroke="#191970" points="2594.5284,-34.7098 2589.7676,-25.2449 2587.5869,-35.6128 2594.5284,-34.7098"/>
</g>
<!-- Node40 -->
<g id="node41" class="node">
<title>Node40</title>
<polygon fill="none" stroke="#bfbfbf" points="2631,-6 2631,-25 2714,-25 2714,-6 2631,-6"/>
<text text-anchor="middle" x="2672.5" y="-13" font-family="Helvetica,sans-Serif" font-size="10.00" fill="#000000">initializer_list</text>
</g>
<!-- Node38&#45;&gt;Node40 -->
<g id="edge58" class="edge">
<title>Node38&#45;&gt;Node40</title>
<path fill="none" stroke="#191970" d="M2608.375,-67.3906C2620.1297,-57.8786 2638.3486,-43.1357 2652.3672,-31.7917"/>
<polygon fill="#191970" stroke="#191970" points="2654.8856,-34.2562 2660.4576,-25.2449 2650.4822,-28.8146 2654.8856,-34.2562"/>
</g>
<!-- Node41 -->
<g id="node42" class="node">
<title>Node41</title>
<polygon fill="none" stroke="#bfbfbf" points="2732,-6 2732,-25 2805,-25 2805,-6 2732,-6"/>
<text text-anchor="middle" x="2768.5" y="-13" font-family="Helvetica,sans-Serif" font-size="10.00" fill="#000000">string_view</text>
</g>
<!-- Node38&#45;&gt;Node41 -->
<g id="edge59" class="edge">
<title>Node38&#45;&gt;Node41</title>
<path fill="none" stroke="#191970" d="M2623.375,-67.3906C2652.6586,-56.92 2699.669,-40.1111 2732.2137,-28.4745"/>
<polygon fill="#191970" stroke="#191970" points="2733.5759,-31.7045 2741.8137,-25.0419 2731.2191,-25.1131 2733.5759,-31.7045"/>
</g>
</g>
</svg>
        <g id="navigator" transform="translate(0 0)" fill="#404254">
                <rect fill="#f2f5e9" fill-opacity="0.5" stroke="#606060" stroke-width=".5" x="0" y="0" width="60" height="60"/>
                <use id="zoomplus" xlink:href="#zoomPlus" x="17" y="9" onmousedown="handleZoom(evt,'in')"/>
                <use id="zoomminus" xlink:href="#zoomMin" x="42" y="9" onmousedown="handleZoom(evt,'out')"/>
                <use id="reset" xlink:href="#resetDef" x="30" y="36" onmousedown="handleReset()"/>
                <g id="arrowUp" xlink:href="#dirArrow" transform="translate(30 24)" onmousedown="handlePan(0,-1)">
                  <use xlink:href="#rim" fill="#404040">
                        <set attributeName="fill" to="#808080" begin="arrowUp.mouseover" end="arrowUp.mouseout"/>
                  </use>
                  <path fill="none" stroke="white" stroke-width="1.5" d="M0,-3.0v7 M-2.5,-0.5L0,-3.0L2.5,-0.5"/>
                </g>
                <g id="arrowRight" xlink:href="#dirArrow" transform="rotate(90) translate(36 -43)" onmousedown="handlePan(1,0)">
                  <use xlink:href="#rim" fill="#404040">
                        <set attributeName="fill" to="#808080" begin="arrowRight.mouseover" end="arrowRight.mouseout"/>
                  </use>
                  <path fill="none" stroke="white" stroke-width="1.5" d="M0,-3.0v7 M-2.5,-0.5L0,-3.0L2.5,-0.5"/>
                </g>
                <g id="arrowDown" xlink:href="#dirArrow" transform="rotate(180) translate(-30 -48)" onmousedown="handlePan(0,1)">
                  <use xlink:href="#rim" fill="#404040">
                        <set attributeName="fill" to="#808080" begin="arrowDown.mouseover" end="arrowDown.mouseout"/>
                  </use>
                  <path fill="none" stroke="white" stroke-width="1.5" d="M0,-3.0v7 M-2.5,-0.5L0,-3.0L2.5,-0.5"/>
                </g>
                <g id="arrowLeft" xlink:href="#dirArrow" transform="rotate(270) translate(-36 17)" onmousedown="handlePan(-1,0)">
                  <use xlink:href="#rim" fill="#404040">
                        <set attributeName="fill" to="#808080" begin="arrowLeft.mouseover" end="arrowLeft.mouseout"/>
                  </use>
                  <path fill="none" stroke="white" stroke-width="1.5" d="M0,-3.0v7 M-2.5,-0.5L0,-3.0L2.5,-0.5"/>
                </g>
        </g>
        <svg viewBox="0 0 15 15" width="100%" height="30px" preserveAspectRatio="xMaxYMin meet">
         <g id="arrow_out" transform="scale(0.3 0.3)">
          <a xlink:href="InputSpec_8h__incl_org.svg" target="_base">
           <rect id="button" ry="5" rx="5" y="6" x="6" height="38" width="38"
                fill="#f2f5e9" fill-opacity="0.5" stroke="#606060" stroke-width="1.0"/>
           <path id="arrow"
             d="M 11.500037,31.436501 C 11.940474,20.09759 22.043105,11.32322 32.158766,21.979434 L 37.068811,17.246167 C 37.068811,17.246167 37.088388,32 37.088388,32 L 22.160133,31.978069 C 22.160133,31.978069 26.997745,27.140456 26.997745,27.140456 C 18.528582,18.264221 13.291696,25.230495 11.500037,31.436501 z"
             style="fill:#404040;"/>
          </a>
         </g>
        </svg>
</svg>
