<?xml version="1.0" encoding="UTF-8" standalone="no"?>
<!DOCTYPE svg PUBLIC "-//W3C//DTD SVG 1.1//EN"
 "http://www.w3.org/Graphics/SVG/1.1/DTD/svg11.dtd">
<!-- Generated by graphviz version 2.40.1 (20161225.0304)
 -->
<!-- Title: ConfigurableObjectDemo Pages: 1 -->
<!--zoomable 712 -->
<svg id="main" version="1.1" xmlns="http://www.w3.org/2000/svg" xmlns:xlink="http://www.w3.org/1999/xlink" xml:space="preserve" onload="init(evt)">
<style type="text/css"><![CDATA[
.edge:hover path { stroke: red; }
.edge:hover polygon { stroke: red; fill: red; }
]]></style>
<script type="text/javascript"><![CDATA[
var edges = document.getElementsByTagName('g');
if (edges && edges.length) {
  for (var i=0;i<edges.length;i++) {
    if (edges[i].id.substr(0,4)=='edge') {
      edges[i].setAttribute('class','edge');
    }
  }
}
]]></script>
        <defs>
                <circle id="rim" cx="0" cy="0" r="7"/>
                <circle id="rim2" cx="0" cy="0" r="3.5"/>
                <g id="zoomPlus">
                        <use xlink:href="#rim" fill="#404040">
                                <set attributeName="fill" to="#808080" begin="zoomplus.mouseover" end="zoomplus.mouseout"/>
                        </use>
                        <path d="M-4,0h8M0,-4v8" fill="none" stroke="white" stroke-width="1.5" pointer-events="none"/>
                </g>
                <g id="zoomMin">
                        <use xlink:href="#rim" fill="#404040">
                                <set attributeName="fill" to="#808080" begin="zoomminus.mouseover" end="zoomminus.mouseout"/>
                        </use>
                        <path d="M-4,0h8" fill="none" stroke="white" stroke-width="1.5" pointer-events="none"/>
                </g>
                <g id="dirArrow">
                        <path fill="none" stroke="white" stroke-width="1.5" d="M0,-3.0v7 M-2.5,-0.5L0,-3.0L2.5,-0.5"/>
                </g>
               <g id="resetDef">
                       <use xlink:href="#rim2" fill="#404040">
                               <set attributeName="fill" to="#808080" begin="reset.mouseover" end="reset.mouseout"/>
                       </use>
               </g>
        </defs>

<script type="text/javascript">
var viewWidth = 518;
var viewHeight = 712;
var sectionId = 'dynsection-0';
</script>
<script xlink:href="../../svgpan.js"/>
<svg id="graph" class="graph">
<g id="viewport">
<title>ConfigurableObjectDemo</title>
<!-- Node1 -->
<g id="node1" class="node">
<title>Node1</title>
<polygon fill="#bfbfbf" stroke="#000000" points="270.5,-.5 270.5,-68.5 409.5,-68.5 409.5,-.5 270.5,-.5"/>
<text text-anchor="middle" x="340" y="-56.5" font-family="Helvetica,sans-Serif" font-size="10.00" fill="#000000">ConfigurableObjectDemo</text>
<polyline fill="none" stroke="#000000" points="270.5,-49.5 409.5,-49.5 "/>
<text text-anchor="middle" x="340" y="-37.5" font-family="Helvetica,sans-Serif" font-size="10.00" fill="#000000"> </text>
<polyline fill="none" stroke="#000000" points="270.5,-30.5 409.5,-30.5 "/>
<text text-anchor="start" x="278.5" y="-18.5" font-family="Helvetica,sans-Serif" font-size="10.00" fill="#000000">+ init()</text>
<text text-anchor="start" x="278.5" y="-7.5" font-family="Helvetica,sans-Serif" font-size="10.00" fill="#000000">+ process()</text>
</g>
<!-- Node2 -->
<g id="node2" class="node">
<title>Node2</title>
<g id="a_node2"><a xlink:href="../../d8/d71/structo2_1_1framework_1_1Configurable.html" target="_top" xlink:title="{o2::framework::Configurable\l\&lt; configurableCut \&gt;\n||+ Configurable()\l}">
<polygon fill="none" stroke="#000000" points="262.5,-127.5 262.5,-195.5 417.5,-195.5 417.5,-127.5 262.5,-127.5"/>
<text text-anchor="start" x="270.5" y="-183.5" font-family="Helvetica,sans-Serif" font-size="10.00" fill="#000000">o2::framework::Configurable</text>
<text text-anchor="middle" x="340" y="-172.5" font-family="Helvetica,sans-Serif" font-size="10.00" fill="#000000">&lt; configurableCut &gt;</text>
<polyline fill="none" stroke="#000000" points="262.5,-165.5 417.5,-165.5 "/>
<text text-anchor="middle" x="340" y="-153.5" font-family="Helvetica,sans-Serif" font-size="10.00" fill="#000000"> </text>
<polyline fill="none" stroke="#000000" points="262.5,-146.5 417.5,-146.5 "/>
<text text-anchor="start" x="270.5" y="-134.5" font-family="Helvetica,sans-Serif" font-size="10.00" fill="#000000">+ Configurable()</text>
</a>
</g>
</g>
<!-- Node2&#45;&gt;Node1 -->
<g id="edge1" class="edge">
<title>Node2&#45;&gt;Node1</title>
<path fill="none" stroke="#404040" d="M340,-127.4663C340,-113.0883 340,-96.1205 340,-80.6429"/>
<polygon fill="none" stroke="#404040" points="340.0001,-80.6276 336,-74.6276 340,-68.6276 344,-74.6276 340.0001,-80.6276"/>
<text text-anchor="middle" x="375" y="-101" font-family="Helvetica,sans-Serif" font-size="10.00" fill="#000000"> +cut</text>
<text text-anchor="middle" x="375" y="-90" font-family="Helvetica,sans-Serif" font-size="10.00" fill="#000000">+mutable_cut</text>
</g>
<!-- Node3 -->
<g id="node3" class="node">
<title>Node3</title>
<g id="a_node3"><a xlink:href="../../da/def/structo2_1_1framework_1_1ConfigurablePolicyConst.html" target="_top" xlink:title="{o2::framework::Configurable\lPolicyConst\&lt; configurableCut \&gt;\n||+ ConfigurablePolicyConst()\l}">
<polygon fill="none" stroke="#000000" points="163.5,-243.5 163.5,-311.5 336.5,-311.5 336.5,-243.5 163.5,-243.5"/>
<text text-anchor="start" x="171.5" y="-299.5" font-family="Helvetica,sans-Serif" font-size="10.00" fill="#000000">o2::framework::Configurable</text>
<text text-anchor="middle" x="250" y="-288.5" font-family="Helvetica,sans-Serif" font-size="10.00" fill="#000000">PolicyConst&lt; configurableCut &gt;</text>
<polyline fill="none" stroke="#000000" points="163.5,-281.5 336.5,-281.5 "/>
<text text-anchor="middle" x="250" y="-269.5" font-family="Helvetica,sans-Serif" font-size="10.00" fill="#000000"> </text>
<polyline fill="none" stroke="#000000" points="163.5,-262.5 336.5,-262.5 "/>
<text text-anchor="start" x="171.5" y="-250.5" font-family="Helvetica,sans-Serif" font-size="10.00" fill="#000000">+ ConfigurablePolicyConst()</text>
</a>
</g>
</g>
<!-- Node3&#45;&gt;Node2 -->
<g id="edge2" class="edge">
<title>Node3&#45;&gt;Node2</title>
<path fill="none" stroke="#191970" d="M282.6611,-235.4035C292.7486,-222.4019 303.7325,-208.2448 313.3623,-195.833"/>
<polygon fill="none" stroke="#191970" points="279.8809,-233.2772 276.5162,-243.3236 285.4115,-237.5682 279.8809,-233.2772"/>
</g>
<!-- Node4 -->
<g id="node4" class="node">
<title>Node4</title>
<g id="a_node4"><a xlink:href="../../da/d2f/structo2_1_1framework_1_1ConfigurableBase.html" target="_top" xlink:title="{o2::framework::Configurable\lBase\&lt; configurableCut \&gt;\n||+ ConfigurableBase()\l}">
<polygon fill="none" stroke="#000000" points="67.5,-359.5 67.5,-427.5 222.5,-427.5 222.5,-359.5 67.5,-359.5"/>
<text text-anchor="start" x="75.5" y="-415.5" font-family="Helvetica,sans-Serif" font-size="10.00" fill="#000000">o2::framework::Configurable</text>
<text text-anchor="middle" x="145" y="-404.5" font-family="Helvetica,sans-Serif" font-size="10.00" fill="#000000">Base&lt; configurableCut &gt;</text>
<polyline fill="none" stroke="#000000" points="67.5,-397.5 222.5,-397.5 "/>
<text text-anchor="middle" x="145" y="-385.5" font-family="Helvetica,sans-Serif" font-size="10.00" fill="#000000"> </text>
<polyline fill="none" stroke="#000000" points="67.5,-378.5 222.5,-378.5 "/>
<text text-anchor="start" x="75.5" y="-366.5" font-family="Helvetica,sans-Serif" font-size="10.00" fill="#000000">+ ConfigurableBase()</text>
</a>
</g>
</g>
<!-- Node4&#45;&gt;Node3 -->
<g id="edge3" class="edge">
<title>Node4&#45;&gt;Node3</title>
<path fill="none" stroke="#191970" d="M182.7718,-351.7711C194.6314,-338.6691 207.5819,-324.3619 218.9227,-311.833"/>
<polygon fill="none" stroke="#191970" points="180.0515,-349.5609 175.9356,-359.3236 185.2412,-354.2585 180.0515,-349.5609"/>
</g>
<!-- Node5 -->
<g id="node5" class="node">
<title>Node5</title>
<g id="a_node5"><a xlink:href="../../d8/d58/classconfigurableCut.html" target="_top" xlink:title="{configurableCut\n||+ configurableCut()\l+ method()\l+ setCut()\l+ getCut()\l+ setState()\l+ getState()\l}">
<polygon fill="none" stroke="#000000" points="0,-475.5 0,-587.5 112,-587.5 112,-475.5 0,-475.5"/>
<text text-anchor="middle" x="56" y="-575.5" font-family="Helvetica,sans-Serif" font-size="10.00" fill="#000000">configurableCut</text>
<polyline fill="none" stroke="#000000" points="0,-568.5 112,-568.5 "/>
<text text-anchor="middle" x="56" y="-556.5" font-family="Helvetica,sans-Serif" font-size="10.00" fill="#000000"> </text>
<polyline fill="none" stroke="#000000" points="0,-549.5 112,-549.5 "/>
<text text-anchor="start" x="8" y="-537.5" font-family="Helvetica,sans-Serif" font-size="10.00" fill="#000000">+ configurableCut()</text>
<text text-anchor="start" x="8" y="-526.5" font-family="Helvetica,sans-Serif" font-size="10.00" fill="#000000">+ method()</text>
<text text-anchor="start" x="8" y="-515.5" font-family="Helvetica,sans-Serif" font-size="10.00" fill="#000000">+ setCut()</text>
<text text-anchor="start" x="8" y="-504.5" font-family="Helvetica,sans-Serif" font-size="10.00" fill="#000000">+ getCut()</text>
<text text-anchor="start" x="8" y="-493.5" font-family="Helvetica,sans-Serif" font-size="10.00" fill="#000000">+ setState()</text>
<text text-anchor="start" x="8" y="-482.5" font-family="Helvetica,sans-Serif" font-size="10.00" fill="#000000">+ getState()</text>
</a>
</g>
</g>
<!-- Node5&#45;&gt;Node4 -->
<g id="edge4" class="edge">
<title>Node5&#45;&gt;Node4</title>
<path fill="none" stroke="#404040" d="M78.3732,-475.3117C83.2887,-465.2278 88.8777,-455.0557 95,-446 97.0488,-442.9695 99.2768,-439.9505 101.6169,-436.9794"/>
<polygon fill="none" stroke="#404040" points="101.6855,-436.8975 102.4714,-429.7294 109.3905,-427.6979 108.6046,-434.866 101.6855,-436.8975"/>
<text text-anchor="middle" x="114.5" y="-449" font-family="Helvetica,sans-Serif" font-size="10.00" fill="#000000"> +value</text>
</g>
<!-- Node6 -->
<g id="node6" class="node">
<title>Node6</title>
<polygon fill="none" stroke="#bfbfbf" points="152.5,-646.5 152.5,-703.5 181.5,-703.5 181.5,-646.5 152.5,-646.5"/>
<text text-anchor="middle" x="167" y="-691.5" font-family="Helvetica,sans-Serif" font-size="10.00" fill="#000000">int</text>
<polyline fill="none" stroke="#bfbfbf" points="152.5,-684.5 181.5,-684.5 "/>
<text text-anchor="middle" x="167" y="-672.5" font-family="Helvetica,sans-Serif" font-size="10.00" fill="#000000"> </text>
<polyline fill="none" stroke="#bfbfbf" points="152.5,-665.5 181.5,-665.5 "/>
<text text-anchor="middle" x="167" y="-653.5" font-family="Helvetica,sans-Serif" font-size="10.00" fill="#000000"> </text>
</g>
<!-- Node6&#45;&gt;Node4 -->
<g id="edge5" class="edge">
<title>Node6&#45;&gt;Node4</title>
<path fill="none" stroke="#404040" d="M163.3317,-646.4342C161.25,-629.4753 158.7243,-607.5367 157,-588 152.5314,-537.3682 149.1747,-479.1752 147.164,-439.7348"/>
<polygon fill="none" stroke="#404040" points="147.1577,-439.6068 142.8632,-433.8139 146.5587,-427.6217 150.8532,-433.4146 147.1577,-439.6068"/>
<text text-anchor="middle" x="177" y="-534.5" font-family="Helvetica,sans-Serif" font-size="10.00" fill="#000000"> +name</text>
<text text-anchor="middle" x="177" y="-523.5" font-family="Helvetica,sans-Serif" font-size="10.00" fill="#000000">+help</text>
</g>
<!-- Node7 -->
<g id="node7" class="node">
<title>Node7</title>
<g id="a_node7"><a xlink:href="../../da/d2f/structo2_1_1framework_1_1ConfigurableBase.html" target="_top" xlink:title="{o2::framework::Configurable\lBase\&lt; T \&gt;\n||+ ConfigurableBase()\l}">
<polygon fill="none" stroke="#000000" points="206.5,-497.5 206.5,-565.5 361.5,-565.5 361.5,-497.5 206.5,-497.5"/>
<text text-anchor="start" x="214.5" y="-553.5" font-family="Helvetica,sans-Serif" font-size="10.00" fill="#000000">o2::framework::Configurable</text>
<text text-anchor="middle" x="284" y="-542.5" font-family="Helvetica,sans-Serif" font-size="10.00" fill="#000000">Base&lt; T &gt;</text>
<polyline fill="none" stroke="#000000" points="206.5,-535.5 361.5,-535.5 "/>
<text text-anchor="middle" x="284" y="-523.5" font-family="Helvetica,sans-Serif" font-size="10.00" fill="#000000"> </text>
<polyline fill="none" stroke="#000000" points="206.5,-516.5 361.5,-516.5 "/>
<text text-anchor="start" x="214.5" y="-504.5" font-family="Helvetica,sans-Serif" font-size="10.00" fill="#000000">+ ConfigurableBase()</text>
</a>
</g>
</g>
<!-- Node6&#45;&gt;Node7 -->
<g id="edge7" class="edge">
<title>Node6&#45;&gt;Node7</title>
<path fill="none" stroke="#404040" d="M181.5816,-657.1158C198.2398,-636.6845 226.0947,-602.5207 248.5532,-574.9753"/>
<polygon fill="none" stroke="#404040" points="248.6618,-574.8421 249.3532,-567.6642 256.2448,-565.5416 255.5535,-572.7195 248.6618,-574.8421"/>
<text text-anchor="middle" x="242" y="-620" font-family="Helvetica,sans-Serif" font-size="10.00" fill="#000000"> +name</text>
<text text-anchor="middle" x="242" y="-609" font-family="Helvetica,sans-Serif" font-size="10.00" fill="#000000">+help</text>
</g>
<!-- Node7&#45;&gt;Node4 -->
<g id="edge6" class="edge">
<title>Node7&#45;&gt;Node4</title>
<path fill="none" stroke="#ffa500" d="M233.1304,-490.5576C220.9159,-480.0244 208.1788,-468.4274 197,-457 188.1319,-447.9346 179.1449,-437.4976 171.1935,-427.7383"/>
<polygon fill="#ffa500" stroke="#ffa500" points="231.1781,-493.4923 241.06,-497.3133 235.7178,-488.1639 231.1781,-493.4923"/>
<text text-anchor="middle" x="248.5" y="-449" font-family="Helvetica,sans-Serif" font-size="10.00" fill="#000000"> &lt; configurableCut &gt;</text>
</g>
<!-- Node9 -->
<g id="node9" class="node">
<title>Node9</title>
<g id="a_node9"><a xlink:href="../../da/def/structo2_1_1framework_1_1ConfigurablePolicyConst.html" target="_top" xlink:title="{o2::framework::Configurable\lPolicyConst\&lt; T \&gt;\n||+ ConfigurablePolicyConst()\l}">
<polygon fill="none" stroke="#000000" points="240.5,-359.5 240.5,-427.5 395.5,-427.5 395.5,-359.5 240.5,-359.5"/>
<text text-anchor="start" x="248.5" y="-415.5" font-family="Helvetica,sans-Serif" font-size="10.00" fill="#000000">o2::framework::Configurable</text>
<text text-anchor="middle" x="318" y="-404.5" font-family="Helvetica,sans-Serif" font-size="10.00" fill="#000000">PolicyConst&lt; T &gt;</text>
<polyline fill="none" stroke="#000000" points="240.5,-397.5 395.5,-397.5 "/>
<text text-anchor="middle" x="318" y="-385.5" font-family="Helvetica,sans-Serif" font-size="10.00" fill="#000000"> </text>
<polyline fill="none" stroke="#000000" points="240.5,-378.5 395.5,-378.5 "/>
<text text-anchor="start" x="248.5" y="-366.5" font-family="Helvetica,sans-Serif" font-size="10.00" fill="#000000">+ ConfigurablePolicyConst()</text>
</a>
</g>
</g>
<!-- Node7&#45;&gt;Node9 -->
<g id="edge10" class="edge">
<title>Node7&#45;&gt;Node9</title>
<path fill="none" stroke="#191970" d="M294.8216,-487.577C299.5933,-468.2097 305.1166,-445.7915 309.5744,-427.6982"/>
<polygon fill="none" stroke="#191970" points="291.3984,-486.8407 292.4045,-497.3876 298.1952,-488.5153 291.3984,-486.8407"/>
</g>
<!-- Node8 -->
<g id="node8" class="node">
<title>Node8</title>
<polygon fill="none" stroke="#bfbfbf" points="269.5,-646.5 269.5,-703.5 298.5,-703.5 298.5,-646.5 269.5,-646.5"/>
<text text-anchor="middle" x="284" y="-691.5" font-family="Helvetica,sans-Serif" font-size="10.00" fill="#000000">T</text>
<polyline fill="none" stroke="#bfbfbf" points="269.5,-684.5 298.5,-684.5 "/>
<text text-anchor="middle" x="284" y="-672.5" font-family="Helvetica,sans-Serif" font-size="10.00" fill="#000000"> </text>
<polyline fill="none" stroke="#bfbfbf" points="269.5,-665.5 298.5,-665.5 "/>
<text text-anchor="middle" x="284" y="-653.5" font-family="Helvetica,sans-Serif" font-size="10.00" fill="#000000"> </text>
</g>
<!-- Node8&#45;&gt;Node7 -->
<g id="edge8" class="edge">
<title>Node8&#45;&gt;Node7</title>
<path fill="none" stroke="#404040" d="M284,-646.3055C284,-626.7064 284,-600.3057 284,-577.7629"/>
<polygon fill="none" stroke="#404040" points="284.0001,-577.7037 280,-571.7038 284,-565.7037 288,-571.7037 284.0001,-577.7037"/>
<text text-anchor="middle" x="303.5" y="-614.5" font-family="Helvetica,sans-Serif" font-size="10.00" fill="#000000"> +value</text>
</g>
<!-- Node9&#45;&gt;Node3 -->
<g id="edge9" class="edge">
<title>Node9&#45;&gt;Node3</title>
<path fill="none" stroke="#ffa500" d="M292.8906,-350.6663C285.3883,-337.8683 277.2648,-324.0106 270.1262,-311.833"/>
<polygon fill="#ffa500" stroke="#ffa500" points="289.8889,-352.4666 297.9655,-359.3236 295.9277,-348.9265 289.8889,-352.4666"/>
<text text-anchor="middle" x="338.5" y="-333" font-family="Helvetica,sans-Serif" font-size="10.00" fill="#000000"> &lt; configurableCut &gt;</text>
</g>
<!-- Node10 -->
<g id="node10" class="node">
<title>Node10</title>
<g id="a_node10"><a xlink:href="../../d8/d71/structo2_1_1framework_1_1Configurable.html" target="_top" xlink:title="{o2::framework::Configurable\l\&lt; T, IP \&gt;\n||+ Configurable()\l}">
<polygon fill="none" stroke="#000000" points="354.5,-243.5 354.5,-311.5 509.5,-311.5 509.5,-243.5 354.5,-243.5"/>
<text text-anchor="start" x="362.5" y="-299.5" font-family="Helvetica,sans-Serif" font-size="10.00" fill="#000000">o2::framework::Configurable</text>
<text text-anchor="middle" x="432" y="-288.5" font-family="Helvetica,sans-Serif" font-size="10.00" fill="#000000">&lt; T, IP &gt;</text>
<polyline fill="none" stroke="#000000" points="354.5,-281.5 509.5,-281.5 "/>
<text text-anchor="middle" x="432" y="-269.5" font-family="Helvetica,sans-Serif" font-size="10.00" fill="#000000"> </text>
<polyline fill="none" stroke="#000000" points="354.5,-262.5 509.5,-262.5 "/>
<text text-anchor="start" x="362.5" y="-250.5" font-family="Helvetica,sans-Serif" font-size="10.00" fill="#000000">+ Configurable()</text>
</a>
</g>
</g>
<!-- Node10&#45;&gt;Node2 -->
<g id="edge11" class="edge">
<title>Node10&#45;&gt;Node2</title>
<path fill="none" stroke="#ffa500" d="M398.6131,-235.4035C388.3015,-222.4019 377.0734,-208.2448 367.2296,-195.833"/>
<polygon fill="#ffa500" stroke="#ffa500" points="395.9383,-237.6635 404.8946,-243.3236 401.4228,-233.3137 395.9383,-237.6635"/>
<text text-anchor="middle" x="440.5" y="-217" font-family="Helvetica,sans-Serif" font-size="10.00" fill="#000000"> &lt; configurableCut &gt;</text>
</g>
<!-- Node11 -->
<g id="node11" class="node">
<title>Node11</title>
<polygon fill="none" stroke="#bfbfbf" points="417.5,-365 417.5,-422 446.5,-422 446.5,-365 417.5,-365"/>
<text text-anchor="middle" x="432" y="-410" font-family="Helvetica,sans-Serif" font-size="10.00" fill="#000000">IP</text>
<polyline fill="none" stroke="#bfbfbf" points="417.5,-403 446.5,-403 "/>
<text text-anchor="middle" x="432" y="-391" font-family="Helvetica,sans-Serif" font-size="10.00" fill="#000000"> </text>
<polyline fill="none" stroke="#bfbfbf" points="417.5,-384 446.5,-384 "/>
<text text-anchor="middle" x="432" y="-372" font-family="Helvetica,sans-Serif" font-size="10.00" fill="#000000"> </text>
</g>
<!-- Node11&#45;&gt;Node10 -->
<g id="edge12" class="edge">
<title>Node11&#45;&gt;Node10</title>
<path fill="none" stroke="#191970" d="M432,-354.569C432,-340.6554 432,-325.0944 432,-311.6178"/>
<polygon fill="none" stroke="#191970" points="428.5001,-354.8258 432,-364.8258 435.5001,-354.8259 428.5001,-354.8258"/>
</g>
</g>
</svg>
        <g id="navigator" transform="translate(0 0)" fill="#404254">
                <rect fill="#f2f5e9" fill-opacity="0.5" stroke="#606060" stroke-width=".5" x="0" y="0" width="60" height="60"/>
                <use id="zoomplus" xlink:href="#zoomPlus" x="17" y="9" onmousedown="handleZoom(evt,'in')"/>
                <use id="zoomminus" xlink:href="#zoomMin" x="42" y="9" onmousedown="handleZoom(evt,'out')"/>
                <use id="reset" xlink:href="#resetDef" x="30" y="36" onmousedown="handleReset()"/>
                <g id="arrowUp" xlink:href="#dirArrow" transform="translate(30 24)" onmousedown="handlePan(0,-1)">
                  <use xlink:href="#rim" fill="#404040">
                        <set attributeName="fill" to="#808080" begin="arrowUp.mouseover" end="arrowUp.mouseout"/>
                  </use>
                  <path fill="none" stroke="white" stroke-width="1.5" d="M0,-3.0v7 M-2.5,-0.5L0,-3.0L2.5,-0.5"/>
                </g>
                <g id="arrowRight" xlink:href="#dirArrow" transform="rotate(90) translate(36 -43)" onmousedown="handlePan(1,0)">
                  <use xlink:href="#rim" fill="#404040">
                        <set attributeName="fill" to="#808080" begin="arrowRight.mouseover" end="arrowRight.mouseout"/>
                  </use>
                  <path fill="none" stroke="white" stroke-width="1.5" d="M0,-3.0v7 M-2.5,-0.5L0,-3.0L2.5,-0.5"/>
                </g>
                <g id="arrowDown" xlink:href="#dirArrow" transform="rotate(180) translate(-30 -48)" onmousedown="handlePan(0,1)">
                  <use xlink:href="#rim" fill="#404040">
                        <set attributeName="fill" to="#808080" begin="arrowDown.mouseover" end="arrowDown.mouseout"/>
                  </use>
                  <path fill="none" stroke="white" stroke-width="1.5" d="M0,-3.0v7 M-2.5,-0.5L0,-3.0L2.5,-0.5"/>
                </g>
                <g id="arrowLeft" xlink:href="#dirArrow" transform="rotate(270) translate(-36 17)" onmousedown="handlePan(-1,0)">
                  <use xlink:href="#rim" fill="#404040">
                        <set attributeName="fill" to="#808080" begin="arrowLeft.mouseover" end="arrowLeft.mouseout"/>
                  </use>
                  <path fill="none" stroke="white" stroke-width="1.5" d="M0,-3.0v7 M-2.5,-0.5L0,-3.0L2.5,-0.5"/>
                </g>
        </g>
        <svg viewBox="0 0 15 15" width="100%" height="30px" preserveAspectRatio="xMaxYMin meet">
         <g id="arrow_out" transform="scale(0.3 0.3)">
          <a xlink:href="structConfigurableObjectDemo__coll__graph_org.svg" target="_base">
           <rect id="button" ry="5" rx="5" y="6" x="6" height="38" width="38"
                fill="#f2f5e9" fill-opacity="0.5" stroke="#606060" stroke-width="1.0"/>
           <path id="arrow"
             d="M 11.500037,31.436501 C 11.940474,20.09759 22.043105,11.32322 32.158766,21.979434 L 37.068811,17.246167 C 37.068811,17.246167 37.088388,32 37.088388,32 L 22.160133,31.978069 C 22.160133,31.978069 26.997745,27.140456 26.997745,27.140456 C 18.528582,18.264221 13.291696,25.230495 11.500037,31.436501 z"
             style="fill:#404040;"/>
          </a>
         </g>
        </svg>
</svg>
