<?xml version="1.0" encoding="UTF-8" standalone="no"?>
<!DOCTYPE svg PUBLIC "-//W3C//DTD SVG 1.1//EN"
 "http://www.w3.org/Graphics/SVG/1.1/DTD/svg11.dtd">
<!-- Generated by graphviz version 2.40.1 (20161225.0304)
 -->
<!-- Title: /home/travis/build/AliceO2Group/AliceO2/Detectors/TPC/simulation/src/PadResponse.cxx Pages: 1 -->
<svg width="1842pt" height="643pt"
 viewBox="0.00 0.00 1841.50 643.00" xmlns="http://www.w3.org/2000/svg" xmlns:xlink="http://www.w3.org/1999/xlink">
<g id="graph0" class="graph" transform="scale(1 1) rotate(0) translate(4 639)">
<title>/home/travis/build/AliceO2Group/AliceO2/Detectors/TPC/simulation/src/PadResponse.cxx</title>
<!-- Node0 -->
<g id="node1" class="node">
<title>Node0</title>
<polygon fill="#bfbfbf" stroke="#000000" points="757.5,-582.5 757.5,-634.5 900.5,-634.5 900.5,-582.5 757.5,-582.5"/>
<text text-anchor="start" x="765.5" y="-622.5" font-family="Helvetica,sans-Serif" font-size="10.00" fill="#000000">/home/travis/build</text>
<text text-anchor="start" x="765.5" y="-611.5" font-family="Helvetica,sans-Serif" font-size="10.00" fill="#000000">/AliceO2Group/AliceO2</text>
<text text-anchor="start" x="765.5" y="-600.5" font-family="Helvetica,sans-Serif" font-size="10.00" fill="#000000">/Detectors/TPC/simulation</text>
<text text-anchor="middle" x="829" y="-589.5" font-family="Helvetica,sans-Serif" font-size="10.00" fill="#000000">/src/PadResponse.cxx</text>
</g>
<!-- Node1 -->
<g id="node2" class="node">
<title>Node1</title>
<g id="a_node2"><a xlink:href="../../d4/d43/TPC_2simulation_2include_2TPCSimulation_2PadResponse_8h.html" target="_top" xlink:title="TPCSimulation/PadResponse.h">
<polygon fill="none" stroke="#000000" points="571,-526.5 571,-545.5 735,-545.5 735,-526.5 571,-526.5"/>
<text text-anchor="middle" x="653" y="-533.5" font-family="Helvetica,sans-Serif" font-size="10.00" fill="#000000">TPCSimulation/PadResponse.h</text>
</a>
</g>
</g>
<!-- Node0&#45;&gt;Node1 -->
<g id="edge1" class="edge">
<title>Node0&#45;&gt;Node1</title>
<path fill="none" stroke="#191970" d="M765.46,-582.3258C738.3565,-571.161 707.8903,-558.6111 685.5113,-549.3924"/>
<polygon fill="#191970" stroke="#191970" points="686.724,-546.1067 676.1446,-545.534 684.0577,-552.5791 686.724,-546.1067"/>
</g>
<!-- Node3 -->
<g id="node4" class="node">
<title>Node3</title>
<g id="a_node4"><a xlink:href="../../d5/d1d/TPC_2base_2include_2TPCBase_2Mapper_8h.html" target="_top" xlink:title="TPCBase/Mapper.h">
<polygon fill="none" stroke="#000000" points="665.5,-470.5 665.5,-489.5 772.5,-489.5 772.5,-470.5 665.5,-470.5"/>
<text text-anchor="middle" x="719" y="-477.5" font-family="Helvetica,sans-Serif" font-size="10.00" fill="#000000">TPCBase/Mapper.h</text>
</a>
</g>
</g>
<!-- Node0&#45;&gt;Node3 -->
<g id="edge55" class="edge">
<title>Node0&#45;&gt;Node3</title>
<path fill="none" stroke="#191970" d="M806.7399,-582.4961C785.0148,-557.1172 752.5742,-519.2208 733.8285,-497.3224"/>
<polygon fill="#191970" stroke="#191970" points="736.3064,-494.8348 727.1444,-489.5142 730.9886,-499.387 736.3064,-494.8348"/>
</g>
<!-- Node7 -->
<g id="node8" class="node">
<title>Node7</title>
<polygon fill="none" stroke="#bfbfbf" points="1176,-414.5 1176,-433.5 1220,-433.5 1220,-414.5 1176,-414.5"/>
<text text-anchor="middle" x="1198" y="-421.5" font-family="Helvetica,sans-Serif" font-size="10.00" fill="#000000">string</text>
</g>
<!-- Node0&#45;&gt;Node7 -->
<g id="edge58" class="edge">
<title>Node0&#45;&gt;Node7</title>
<path fill="none" stroke="#191970" d="M817.771,-582.1227C812.1927,-564.507 808.9246,-541.7651 821,-526 916.4528,-401.3816 1010.5973,-475.4514 1162,-434 1163.2669,-433.6531 1164.5587,-433.2986 1165.8634,-432.9397"/>
<polygon fill="#191970" stroke="#191970" points="1167.2156,-436.1973 1175.9224,-430.1606 1165.3514,-429.4501 1167.2156,-436.1973"/>
</g>
<!-- Node8 -->
<g id="node9" class="node">
<title>Node8</title>
<polygon fill="none" stroke="#bfbfbf" points="14.5,-134.5 14.5,-153.5 61.5,-153.5 61.5,-134.5 14.5,-134.5"/>
<text text-anchor="middle" x="38" y="-141.5" font-family="Helvetica,sans-Serif" font-size="10.00" fill="#000000">cmath</text>
</g>
<!-- Node0&#45;&gt;Node8 -->
<g id="edge60" class="edge">
<title>Node0&#45;&gt;Node8</title>
<path fill="none" stroke="#191970" d="M757.2425,-604.8913C555.854,-593.8139 0,-556.3257 0,-480 0,-480 0,-480 0,-256 0,-221.6118 16.2634,-184.2832 27.511,-162.5791"/>
<polygon fill="#191970" stroke="#191970" points="30.7317,-163.9804 32.393,-153.5166 24.569,-160.6605 30.7317,-163.9804"/>
</g>
<!-- Node34 -->
<g id="node35" class="node">
<title>Node34</title>
<polygon fill="none" stroke="#bfbfbf" points="829.5,-526.5 829.5,-545.5 884.5,-545.5 884.5,-526.5 829.5,-526.5"/>
<text text-anchor="middle" x="857" y="-533.5" font-family="Helvetica,sans-Serif" font-size="10.00" fill="#000000">fstream</text>
</g>
<!-- Node0&#45;&gt;Node34 -->
<g id="edge56" class="edge">
<title>Node0&#45;&gt;Node34</title>
<path fill="none" stroke="#191970" d="M839.1086,-582.3258C842.5891,-573.3139 846.4181,-563.3995 849.6378,-555.063"/>
<polygon fill="#191970" stroke="#191970" points="852.9801,-556.1235 853.3179,-545.534 846.4502,-553.6015 852.9801,-556.1235"/>
</g>
<!-- Node35 -->
<g id="node36" class="node">
<title>Node35</title>
<polygon fill="none" stroke="#bfbfbf" points="903,-526.5 903,-545.5 963,-545.5 963,-526.5 903,-526.5"/>
<text text-anchor="middle" x="933" y="-533.5" font-family="Helvetica,sans-Serif" font-size="10.00" fill="#000000">iostream</text>
</g>
<!-- Node0&#45;&gt;Node35 -->
<g id="edge57" class="edge">
<title>Node0&#45;&gt;Node35</title>
<path fill="none" stroke="#191970" d="M866.5464,-582.3258C881.4848,-571.912 898.1519,-560.2931 911.0575,-551.2965"/>
<polygon fill="#191970" stroke="#191970" points="913.1218,-554.124 919.3236,-545.534 909.1186,-548.3816 913.1218,-554.124"/>
</g>
<!-- Node36 -->
<g id="node37" class="node">
<title>Node36</title>
<polygon fill="none" stroke="#bfbfbf" points="981,-526.5 981,-545.5 1037,-545.5 1037,-526.5 981,-526.5"/>
<text text-anchor="middle" x="1009" y="-533.5" font-family="Helvetica,sans-Serif" font-size="10.00" fill="#000000">sstream</text>
</g>
<!-- Node0&#45;&gt;Node36 -->
<g id="edge59" class="edge">
<title>Node0&#45;&gt;Node36</title>
<path fill="none" stroke="#191970" d="M893.7298,-582.4283C921.5981,-571.2035 952.9841,-558.5619 975.9609,-549.3074"/>
<polygon fill="#191970" stroke="#191970" points="977.2902,-552.5453 985.2584,-545.5626 974.6749,-546.0522 977.2902,-552.5453"/>
</g>
<!-- Node37 -->
<g id="node38" class="node">
<title>Node37</title>
<polygon fill="none" stroke="#bfbfbf" points="1055.5,-526.5 1055.5,-545.5 1130.5,-545.5 1130.5,-526.5 1055.5,-526.5"/>
<text text-anchor="middle" x="1093" y="-533.5" font-family="Helvetica,sans-Serif" font-size="10.00" fill="#000000">FairLogger.h</text>
</g>
<!-- Node0&#45;&gt;Node37 -->
<g id="edge61" class="edge">
<title>Node0&#45;&gt;Node37</title>
<path fill="none" stroke="#191970" d="M900.7904,-588.7848C947.9444,-575.8353 1008.1446,-559.3031 1048.4967,-548.2216"/>
<polygon fill="#191970" stroke="#191970" points="1049.5919,-551.5504 1058.308,-545.5272 1047.7381,-544.8003 1049.5919,-551.5504"/>
</g>
<!-- Node2 -->
<g id="node3" class="node">
<title>Node2</title>
<polygon fill="none" stroke="#bfbfbf" points="573,-470.5 573,-489.5 647,-489.5 647,-470.5 573,-470.5"/>
<text text-anchor="middle" x="610" y="-477.5" font-family="Helvetica,sans-Serif" font-size="10.00" fill="#000000">TGraph2D.h</text>
</g>
<!-- Node1&#45;&gt;Node2 -->
<g id="edge2" class="edge">
<title>Node1&#45;&gt;Node2</title>
<path fill="none" stroke="#191970" d="M645.51,-526.2455C639.4674,-518.3761 630.8097,-507.101 623.5559,-497.6542"/>
<polygon fill="#191970" stroke="#191970" points="626.2705,-495.4426 617.4042,-489.6427 620.7185,-499.7058 626.2705,-495.4426"/>
</g>
<!-- Node1&#45;&gt;Node3 -->
<g id="edge3" class="edge">
<title>Node1&#45;&gt;Node3</title>
<path fill="none" stroke="#191970" d="M664.4963,-526.2455C674.2442,-517.9746 688.4259,-505.9416 699.8798,-496.2232"/>
<polygon fill="#191970" stroke="#191970" points="702.2747,-498.7813 707.6354,-489.6427 697.7459,-493.4437 702.2747,-498.7813"/>
</g>
<!-- Node4 -->
<g id="node5" class="node">
<title>Node4</title>
<polygon fill="none" stroke="#bfbfbf" points="1006,-414.5 1006,-433.5 1044,-433.5 1044,-414.5 1006,-414.5"/>
<text text-anchor="middle" x="1025" y="-421.5" font-family="Helvetica,sans-Serif" font-size="10.00" fill="#000000">map</text>
</g>
<!-- Node3&#45;&gt;Node4 -->
<g id="edge4" class="edge">
<title>Node3&#45;&gt;Node4</title>
<path fill="none" stroke="#191970" d="M772.6332,-471.6556C840.8517,-460.9678 954.0386,-442.9635 996.0089,-433.7098"/>
<polygon fill="#191970" stroke="#191970" points="996.9546,-437.0823 1005.8616,-431.3452 995.3209,-430.2756 996.9546,-437.0823"/>
</g>
<!-- Node5 -->
<g id="node6" class="node">
<title>Node5</title>
<polygon fill="none" stroke="#bfbfbf" points="616.5,-358.5 616.5,-377.5 663.5,-377.5 663.5,-358.5 616.5,-358.5"/>
<text text-anchor="middle" x="640" y="-365.5" font-family="Helvetica,sans-Serif" font-size="10.00" fill="#000000">vector</text>
</g>
<!-- Node3&#45;&gt;Node5 -->
<g id="edge5" class="edge">
<title>Node3&#45;&gt;Node5</title>
<path fill="none" stroke="#191970" d="M677.2402,-470.4925C643.946,-461.967 601.2556,-448.5833 591,-434 578.6541,-416.4442 597.7242,-396.7377 615.5597,-383.4662"/>
<polygon fill="#191970" stroke="#191970" points="617.8886,-386.1082 624.073,-377.5056 613.8738,-380.374 617.8886,-386.1082"/>
</g>
<!-- Node6 -->
<g id="node7" class="node">
<title>Node6</title>
<polygon fill="none" stroke="#bfbfbf" points="796,-414.5 796,-433.5 838,-433.5 838,-414.5 796,-414.5"/>
<text text-anchor="middle" x="817" y="-421.5" font-family="Helvetica,sans-Serif" font-size="10.00" fill="#000000">array</text>
</g>
<!-- Node3&#45;&gt;Node6 -->
<g id="edge6" class="edge">
<title>Node3&#45;&gt;Node6</title>
<path fill="none" stroke="#191970" d="M736.0703,-470.2455C751.247,-461.5731 773.6621,-448.7645 791.0563,-438.825"/>
<polygon fill="#191970" stroke="#191970" points="793.1794,-441.643 800.1253,-433.6427 789.7064,-435.5653 793.1794,-441.643"/>
</g>
<!-- Node3&#45;&gt;Node7 -->
<g id="edge7" class="edge">
<title>Node3&#45;&gt;Node7</title>
<path fill="none" stroke="#191970" d="M772.7882,-471.835C777.5899,-471.1833 782.3803,-470.5611 787,-470 953.2115,-449.8134 997.3728,-464.5233 1162,-434 1163.2557,-433.7672 1164.5311,-433.511 1165.8159,-433.2365"/>
<polygon fill="#191970" stroke="#191970" points="1166.775,-436.6056 1175.6734,-430.8549 1165.1311,-429.8013 1166.775,-436.6056"/>
</g>
<!-- Node3&#45;&gt;Node8 -->
<g id="edge8" class="edge">
<title>Node3&#45;&gt;Node8</title>
<path fill="none" stroke="#191970" d="M665.4276,-471.1682C662.2415,-470.745 659.0809,-470.3511 656,-470 541.5735,-456.9602 248.1689,-470.6826 139,-434 88.1696,-416.9201 38,-421.6233 38,-368 38,-368 38,-368 38,-256 38,-223.7116 38,-186.1872 38,-163.8048"/>
<polygon fill="#191970" stroke="#191970" points="41.5001,-163.5883 38,-153.5884 34.5001,-163.5884 41.5001,-163.5883"/>
</g>
<!-- Node9 -->
<g id="node10" class="node">
<title>Node9</title>
<g id="a_node10"><a xlink:href="../../d1/d73/Defs_8h.html" target="_top" xlink:title="Common definitions for 2D coordinates. ">
<polygon fill="none" stroke="#000000" points="362.5,-190.5 362.5,-209.5 495.5,-209.5 495.5,-190.5 362.5,-190.5"/>
<text text-anchor="middle" x="429" y="-197.5" font-family="Helvetica,sans-Serif" font-size="10.00" fill="#000000">DataFormatsTPC/Defs.h</text>
</a>
</g>
</g>
<!-- Node3&#45;&gt;Node9 -->
<g id="edge9" class="edge">
<title>Node3&#45;&gt;Node9</title>
<path fill="none" stroke="#191970" d="M726.442,-470.4319C740.1496,-451.819 768,-408.9622 768,-368 768,-368 768,-368 768,-312 768,-257.0937 605.6403,-224.5426 505.6439,-209.7013"/>
<polygon fill="#191970" stroke="#191970" points="505.971,-206.2121 495.571,-208.2347 504.9624,-213.1391 505.971,-206.2121"/>
</g>
<!-- Node11 -->
<g id="node12" class="node">
<title>Node11</title>
<g id="a_node12"><a xlink:href="../../d2/dd0/Cartesian2D_8h.html" target="_top" xlink:title="MathUtils/Cartesian2D.h">
<polygon fill="none" stroke="#000000" points="509.5,-73 509.5,-92 644.5,-92 644.5,-73 509.5,-73"/>
<text text-anchor="middle" x="577" y="-80" font-family="Helvetica,sans-Serif" font-size="10.00" fill="#000000">MathUtils/Cartesian2D.h</text>
</a>
</g>
</g>
<!-- Node3&#45;&gt;Node11 -->
<g id="edge53" class="edge">
<title>Node3&#45;&gt;Node11</title>
<path fill="none" stroke="#191970" d="M772.6363,-476.429C862.3539,-469.9052 1034.8746,-454.7928 1053,-434 1058.8409,-427.2995 1057.1144,-421.8793 1053,-414 957.8944,-231.869 712.0331,-129.4846 616.1283,-95.4207"/>
<polygon fill="#191970" stroke="#191970" points="617.1178,-92.059 606.523,-92.0604 614.8063,-98.6663 617.1178,-92.059"/>
</g>
<!-- Node14 -->
<g id="node15" class="node">
<title>Node14</title>
<g id="a_node15"><a xlink:href="../../dd/d76/Cartesian3D_8h.html" target="_top" xlink:title="MathUtils/Cartesian3D.h">
<polygon fill="none" stroke="#000000" points="1056.5,-134.5 1056.5,-153.5 1191.5,-153.5 1191.5,-134.5 1056.5,-134.5"/>
<text text-anchor="middle" x="1124" y="-141.5" font-family="Helvetica,sans-Serif" font-size="10.00" fill="#000000">MathUtils/Cartesian3D.h</text>
</a>
</g>
</g>
<!-- Node3&#45;&gt;Node14 -->
<g id="edge54" class="edge">
<title>Node3&#45;&gt;Node14</title>
<path fill="none" stroke="#191970" d="M772.5755,-476.3622C868.5263,-469.401 1061.9677,-453.1714 1086,-434 1110.3998,-414.5354 1110,-399.2125 1110,-368 1110,-368 1110,-368 1110,-256 1110,-223.311 1115.9446,-185.6669 1120.0866,-163.4058"/>
<polygon fill="#191970" stroke="#191970" points="1123.5324,-164.0207 1121.9941,-153.5381 1116.6597,-162.692 1123.5324,-164.0207"/>
</g>
<!-- Node23 -->
<g id="node24" class="node">
<title>Node23</title>
<g id="a_node24"><a xlink:href="../../de/d41/PadPos_8h.html" target="_top" xlink:title="TPCBase/PadPos.h">
<polygon fill="none" stroke="#000000" points="497,-302.5 497,-321.5 603,-321.5 603,-302.5 497,-302.5"/>
<text text-anchor="middle" x="550" y="-309.5" font-family="Helvetica,sans-Serif" font-size="10.00" fill="#000000">TPCBase/PadPos.h</text>
</a>
</g>
</g>
<!-- Node3&#45;&gt;Node23 -->
<g id="edge25" class="edge">
<title>Node3&#45;&gt;Node23</title>
<path fill="none" stroke="#191970" d="M677.6813,-470.4252C642.9886,-461.5994 597.0521,-447.8127 584,-434 557.3083,-405.7528 551.2665,-358.3545 550.0838,-331.7152"/>
<polygon fill="#191970" stroke="#191970" points="553.5819,-331.5934 549.8283,-321.6858 546.5842,-331.7717 553.5819,-331.5934"/>
</g>
<!-- Node24 -->
<g id="node25" class="node">
<title>Node24</title>
<g id="a_node25"><a xlink:href="../../dd/d0b/PadSecPos_8h.html" target="_top" xlink:title="TPCBase/PadSecPos.h">
<polygon fill="none" stroke="#000000" points="104.5,-358.5 104.5,-377.5 227.5,-377.5 227.5,-358.5 104.5,-358.5"/>
<text text-anchor="middle" x="166" y="-365.5" font-family="Helvetica,sans-Serif" font-size="10.00" fill="#000000">TPCBase/PadSecPos.h</text>
</a>
</g>
</g>
<!-- Node3&#45;&gt;Node24 -->
<g id="edge26" class="edge">
<title>Node3&#45;&gt;Node24</title>
<path fill="none" stroke="#191970" d="M665.4135,-471.2837C662.231,-470.8315 659.075,-470.3996 656,-470 498.7356,-449.5612 453.503,-477.5049 301,-434 259.8876,-422.2718 216.0907,-398.5137 189.893,-382.9333"/>
<polygon fill="#191970" stroke="#191970" points="191.4432,-379.7805 181.0751,-377.6005 187.8208,-385.7704 191.4432,-379.7805"/>
</g>
<!-- Node25 -->
<g id="node26" class="node">
<title>Node25</title>
<g id="a_node26"><a xlink:href="../../d3/dd6/Sector_8h.html" target="_top" xlink:title="TPCBase/Sector.h">
<polygon fill="none" stroke="#000000" points="132.5,-246.5 132.5,-265.5 233.5,-265.5 233.5,-246.5 132.5,-246.5"/>
<text text-anchor="middle" x="183" y="-253.5" font-family="Helvetica,sans-Serif" font-size="10.00" fill="#000000">TPCBase/Sector.h</text>
</a>
</g>
</g>
<!-- Node3&#45;&gt;Node25 -->
<g id="edge52" class="edge">
<title>Node3&#45;&gt;Node25</title>
<path fill="none" stroke="#191970" d="M665.4196,-471.2351C662.2356,-470.7951 659.0776,-470.3792 656,-470 530.6164,-454.5498 167.2578,-481.627 95,-378 67.9874,-339.2604 123.0513,-294.3735 157.7126,-271.3556"/>
<polygon fill="#191970" stroke="#191970" points="159.9336,-274.0882 166.4429,-265.7288 156.1413,-268.2044 159.9336,-274.0882"/>
</g>
<!-- Node27 -->
<g id="node28" class="node">
<title>Node27</title>
<g id="a_node28"><a xlink:href="../../da/d61/PadROCPos_8h.html" target="_top" xlink:title="TPCBase/PadROCPos.h">
<polygon fill="none" stroke="#000000" points="394.5,-358.5 394.5,-377.5 521.5,-377.5 521.5,-358.5 394.5,-358.5"/>
<text text-anchor="middle" x="458" y="-365.5" font-family="Helvetica,sans-Serif" font-size="10.00" fill="#000000">TPCBase/PadROCPos.h</text>
</a>
</g>
</g>
<!-- Node3&#45;&gt;Node27 -->
<g id="edge31" class="edge">
<title>Node3&#45;&gt;Node27</title>
<path fill="none" stroke="#191970" d="M665.4652,-471.2452C615.2848,-462.395 544.4375,-448.0538 520,-434 499.4597,-422.1875 481.6149,-401.4071 470.4114,-386.3129"/>
<polygon fill="#191970" stroke="#191970" points="472.9838,-383.8918 464.3291,-377.7805 467.2837,-387.955 472.9838,-383.8918"/>
</g>
<!-- Node29 -->
<g id="node30" class="node">
<title>Node29</title>
<g id="a_node30"><a xlink:href="../../d3/d54/DigitPos_8h.html" target="_top" xlink:title="TPCBase/DigitPos.h">
<polygon fill="none" stroke="#000000" points="310,-414.5 310,-433.5 422,-433.5 422,-414.5 310,-414.5"/>
<text text-anchor="middle" x="366" y="-421.5" font-family="Helvetica,sans-Serif" font-size="10.00" fill="#000000">TPCBase/DigitPos.h</text>
</a>
</g>
</g>
<!-- Node3&#45;&gt;Node29 -->
<g id="edge37" class="edge">
<title>Node3&#45;&gt;Node29</title>
<path fill="none" stroke="#191970" d="M665.3838,-471.4891C662.2088,-470.9852 659.0625,-470.4859 656,-470 579.1366,-457.8037 490.8127,-443.7945 432.0335,-434.4722"/>
<polygon fill="#191970" stroke="#191970" points="432.5616,-431.0123 422.1368,-432.9026 431.4651,-437.9259 432.5616,-431.0123"/>
</g>
<!-- Node31 -->
<g id="node32" class="node">
<title>Node31</title>
<g id="a_node32"><a xlink:href="../../d1/d1f/FECInfo_8h.html" target="_top" xlink:title="TPCBase/FECInfo.h">
<polygon fill="none" stroke="#000000" points="1309,-246.5 1309,-265.5 1417,-265.5 1417,-246.5 1309,-246.5"/>
<text text-anchor="middle" x="1363" y="-253.5" font-family="Helvetica,sans-Serif" font-size="10.00" fill="#000000">TPCBase/FECInfo.h</text>
</a>
</g>
</g>
<!-- Node3&#45;&gt;Node31 -->
<g id="edge45" class="edge">
<title>Node3&#45;&gt;Node31</title>
<path fill="none" stroke="#191970" d="M772.7463,-475.468C875.4003,-466.5822 1092.0435,-446.6388 1124,-434 1219.717,-396.144 1311.0099,-309.6202 1346.9442,-272.9382"/>
<polygon fill="#191970" stroke="#191970" points="1349.6891,-275.1346 1354.1254,-265.5133 1344.6574,-270.2681 1349.6891,-275.1346"/>
</g>
<!-- Node32 -->
<g id="node33" class="node">
<title>Node32</title>
<g id="a_node33"><a xlink:href="../../da/d9d/PadRegionInfo_8h.html" target="_top" xlink:title="TPCBase/PadRegionInfo.h">
<polygon fill="none" stroke="#000000" points="600,-414.5 600,-433.5 740,-433.5 740,-414.5 600,-414.5"/>
<text text-anchor="middle" x="670" y="-421.5" font-family="Helvetica,sans-Serif" font-size="10.00" fill="#000000">TPCBase/PadRegionInfo.h</text>
</a>
</g>
</g>
<!-- Node3&#45;&gt;Node32 -->
<g id="edge47" class="edge">
<title>Node3&#45;&gt;Node32</title>
<path fill="none" stroke="#191970" d="M710.4649,-470.2455C703.5088,-462.2958 693.5117,-450.8706 685.1949,-441.3656"/>
<polygon fill="#191970" stroke="#191970" points="687.6564,-438.8637 678.4373,-433.6427 682.3884,-443.4732 687.6564,-438.8637"/>
</g>
<!-- Node33 -->
<g id="node34" class="node">
<title>Node33</title>
<g id="a_node34"><a xlink:href="../../d6/d42/PartitionInfo_8h.html" target="_top" xlink:title="TPCBase/PartitionInfo.h">
<polygon fill="none" stroke="#000000" points="856.5,-414.5 856.5,-433.5 987.5,-433.5 987.5,-414.5 856.5,-414.5"/>
<text text-anchor="middle" x="922" y="-421.5" font-family="Helvetica,sans-Serif" font-size="10.00" fill="#000000">TPCBase/PartitionInfo.h</text>
</a>
</g>
</g>
<!-- Node3&#45;&gt;Node33 -->
<g id="edge51" class="edge">
<title>Node3&#45;&gt;Node33</title>
<path fill="none" stroke="#191970" d="M753.8969,-470.3733C788.0911,-460.9404 840.3415,-446.5265 877.5042,-436.2747"/>
<polygon fill="#191970" stroke="#191970" points="878.8493,-439.5345 887.5584,-433.5011 876.9877,-432.7865 878.8493,-439.5345"/>
</g>
<!-- Node9&#45;&gt;Node8 -->
<g id="edge10" class="edge">
<title>Node9&#45;&gt;Node8</title>
<path fill="none" stroke="#191970" d="M362.229,-190.4369C277.9314,-178.3636 136.1519,-158.0576 71.7042,-148.8272"/>
<polygon fill="#191970" stroke="#191970" points="72.0782,-145.3451 61.683,-147.3919 71.0858,-152.2744 72.0782,-145.3451"/>
</g>
<!-- Node10 -->
<g id="node11" class="node">
<title>Node10</title>
<g id="a_node11"><a xlink:href="../../d1/da8/GPUROOTCartesianFwd_8h.html" target="_top" xlink:title="GPUROOTCartesianFwd.h">
<polygon fill="none" stroke="#000000" points="359,-134.5 359,-153.5 499,-153.5 499,-134.5 359,-134.5"/>
<text text-anchor="middle" x="429" y="-141.5" font-family="Helvetica,sans-Serif" font-size="10.00" fill="#000000">GPUROOTCartesianFwd.h</text>
</a>
</g>
</g>
<!-- Node9&#45;&gt;Node10 -->
<g id="edge11" class="edge">
<title>Node9&#45;&gt;Node10</title>
<path fill="none" stroke="#191970" d="M429,-190.2455C429,-182.9382 429,-172.6944 429,-163.7046"/>
<polygon fill="#191970" stroke="#191970" points="432.5001,-163.6426 429,-153.6427 425.5001,-163.6427 432.5001,-163.6426"/>
</g>
<!-- Node9&#45;&gt;Node11 -->
<g id="edge12" class="edge">
<title>Node9&#45;&gt;Node11</title>
<path fill="none" stroke="#191970" d="M448.783,-190.4293C465.3666,-181.9617 489.2698,-168.6944 508,-154 528.842,-137.6487 549.5076,-115.1868 562.709,-99.8287"/>
<polygon fill="#191970" stroke="#191970" points="565.4489,-102.0089 569.2288,-92.1113 560.1017,-97.4914 565.4489,-102.0089"/>
</g>
<!-- Node9&#45;&gt;Node14 -->
<g id="edge15" class="edge">
<title>Node9&#45;&gt;Node14</title>
<path fill="none" stroke="#191970" d="M495.6395,-194.6305C624.8249,-184.2213 908.6874,-161.3489 1046.2377,-150.2657"/>
<polygon fill="#191970" stroke="#191970" points="1046.5982,-153.7481 1056.2847,-149.4562 1046.0359,-146.7707 1046.5982,-153.7481"/>
</g>
<!-- Node12 -->
<g id="node13" class="node">
<title>Node12</title>
<polygon fill="none" stroke="#bfbfbf" points="398,-.5 398,-30.5 562,-30.5 562,-.5 398,-.5"/>
<text text-anchor="start" x="406" y="-18.5" font-family="Helvetica,sans-Serif" font-size="10.00" fill="#000000">Math/GenVector/Displacement</text>
<text text-anchor="middle" x="480" y="-7.5" font-family="Helvetica,sans-Serif" font-size="10.00" fill="#000000">Vector2D.h</text>
</g>
<!-- Node11&#45;&gt;Node12 -->
<g id="edge13" class="edge">
<title>Node11&#45;&gt;Node12</title>
<path fill="none" stroke="#191970" d="M563.1023,-72.9005C549.3265,-63.3853 527.7795,-48.5023 510.0779,-36.2755"/>
<polygon fill="#191970" stroke="#191970" points="511.9651,-33.3253 501.7479,-30.5218 507.9868,-39.0849 511.9651,-33.3253"/>
</g>
<!-- Node13 -->
<g id="node14" class="node">
<title>Node13</title>
<polygon fill="none" stroke="#bfbfbf" points="580.5,-6 580.5,-25 769.5,-25 769.5,-6 580.5,-6"/>
<text text-anchor="middle" x="675" y="-13" font-family="Helvetica,sans-Serif" font-size="10.00" fill="#000000">Math/GenVector/PositionVector2D.h</text>
</g>
<!-- Node11&#45;&gt;Node13 -->
<g id="edge14" class="edge">
<title>Node11&#45;&gt;Node13</title>
<path fill="none" stroke="#191970" d="M591.041,-72.9005C607.1238,-61.9052 633.6906,-43.7422 652.6316,-30.7927"/>
<polygon fill="#191970" stroke="#191970" points="654.7052,-33.6148 660.985,-25.0817 650.7545,-27.8362 654.7052,-33.6148"/>
</g>
<!-- Node14&#45;&gt;Node11 -->
<g id="edge24" class="edge">
<title>Node14&#45;&gt;Node11</title>
<path fill="none" stroke="#191970" d="M1056.4487,-135.6043C1051.5609,-135.0452 1046.7057,-134.5046 1042,-134 869.3619,-115.4889 824.7618,-123.386 653,-98 645.3194,-96.8648 637.2434,-95.4548 629.3398,-93.9512"/>
<polygon fill="#191970" stroke="#191970" points="629.9506,-90.5044 619.4634,-92.0104 628.6008,-97.373 629.9506,-90.5044"/>
</g>
<!-- Node15 -->
<g id="node16" class="node">
<title>Node15</title>
<polygon fill="none" stroke="#bfbfbf" points="1031,-67.5 1031,-97.5 1195,-97.5 1195,-67.5 1031,-67.5"/>
<text text-anchor="start" x="1039" y="-85.5" font-family="Helvetica,sans-Serif" font-size="10.00" fill="#000000">Math/GenVector/Displacement</text>
<text text-anchor="middle" x="1113" y="-74.5" font-family="Helvetica,sans-Serif" font-size="10.00" fill="#000000">Vector3D.h</text>
</g>
<!-- Node14&#45;&gt;Node15 -->
<g id="edge16" class="edge">
<title>Node14&#45;&gt;Node15</title>
<path fill="none" stroke="#191970" d="M1122.2813,-134.3906C1120.9993,-127.2234 1119.1862,-117.0862 1117.5021,-107.671"/>
<polygon fill="#191970" stroke="#191970" points="1120.897,-106.7721 1115.6909,-97.5446 1114.0063,-108.0046 1120.897,-106.7721"/>
</g>
<!-- Node16 -->
<g id="node17" class="node">
<title>Node16</title>
<polygon fill="none" stroke="#bfbfbf" points="1213.5,-73 1213.5,-92 1402.5,-92 1402.5,-73 1213.5,-73"/>
<text text-anchor="middle" x="1308" y="-80" font-family="Helvetica,sans-Serif" font-size="10.00" fill="#000000">Math/GenVector/PositionVector3D.h</text>
</g>
<!-- Node14&#45;&gt;Node16 -->
<g id="edge17" class="edge">
<title>Node14&#45;&gt;Node16</title>
<path fill="none" stroke="#191970" d="M1152.75,-134.3906C1184.2117,-123.8749 1234.8008,-106.966 1269.6314,-95.3243"/>
<polygon fill="#191970" stroke="#191970" points="1271.0772,-98.5315 1279.4519,-92.0419 1268.8581,-91.8925 1271.0772,-98.5315"/>
</g>
<!-- Node17 -->
<g id="node18" class="node">
<title>Node17</title>
<polygon fill="none" stroke="#bfbfbf" points="1421,-73 1421,-92 1581,-92 1581,-73 1421,-73"/>
<text text-anchor="middle" x="1501" y="-80" font-family="Helvetica,sans-Serif" font-size="10.00" fill="#000000">Math/GenVector/Rotation3D.h</text>
</g>
<!-- Node14&#45;&gt;Node17 -->
<g id="edge18" class="edge">
<title>Node14&#45;&gt;Node17</title>
<path fill="none" stroke="#191970" d="M1185.279,-134.4677C1243.6106,-125.3335 1333.8397,-111.0474 1412,-98 1420.0286,-96.6598 1428.4598,-95.2259 1436.8003,-93.7915"/>
<polygon fill="#191970" stroke="#191970" points="1437.6375,-97.1988 1446.8958,-92.0477 1436.446,-90.3009 1437.6375,-97.1988"/>
</g>
<!-- Node18 -->
<g id="node19" class="node">
<title>Node18</title>
<polygon fill="none" stroke="#bfbfbf" points="1599,-73 1599,-92 1767,-92 1767,-73 1599,-73"/>
<text text-anchor="middle" x="1683" y="-80" font-family="Helvetica,sans-Serif" font-size="10.00" fill="#000000">Math/GenVector/Transform3D.h</text>
</g>
<!-- Node14&#45;&gt;Node18 -->
<g id="edge19" class="edge">
<title>Node14&#45;&gt;Node18</title>
<path fill="none" stroke="#191970" d="M1191.6882,-138.7444C1282.5153,-131.3665 1448.7639,-116.7193 1590,-98 1599.5141,-96.739 1609.5486,-95.2426 1619.366,-93.6846"/>
<polygon fill="#191970" stroke="#191970" points="1620.1751,-97.0993 1629.4873,-92.0462 1619.0565,-90.1893 1620.1751,-97.0993"/>
</g>
<!-- Node19 -->
<g id="node20" class="node">
<title>Node19</title>
<polygon fill="none" stroke="#bfbfbf" points="662.5,-73 662.5,-92 835.5,-92 835.5,-73 662.5,-73"/>
<text text-anchor="middle" x="749" y="-80" font-family="Helvetica,sans-Serif" font-size="10.00" fill="#000000">Math/GenVector/Translation3D.h</text>
</g>
<!-- Node14&#45;&gt;Node19 -->
<g id="edge20" class="edge">
<title>Node14&#45;&gt;Node19</title>
<path fill="none" stroke="#191970" d="M1065.8177,-134.4581C998.6602,-123.4443 888.3479,-105.3531 817.2117,-93.6867"/>
<polygon fill="#191970" stroke="#191970" points="817.4449,-90.1783 807.0102,-92.0137 816.312,-97.086 817.4449,-90.1783"/>
</g>
<!-- Node20 -->
<g id="node21" class="node">
<title>Node20</title>
<polygon fill="none" stroke="#bfbfbf" points="853.5,-73 853.5,-92 912.5,-92 912.5,-73 853.5,-73"/>
<text text-anchor="middle" x="883" y="-80" font-family="Helvetica,sans-Serif" font-size="10.00" fill="#000000">Rtypes.h</text>
</g>
<!-- Node14&#45;&gt;Node20 -->
<g id="edge21" class="edge">
<title>Node14&#45;&gt;Node20</title>
<path fill="none" stroke="#191970" d="M1071.9419,-134.4457C1030.7992,-126.3453 972.1497,-113.5736 922,-98 919.7103,-97.289 917.3649,-96.5046 915.0159,-95.6776"/>
<polygon fill="#191970" stroke="#191970" points="916.0655,-92.3335 905.4729,-92.1155 913.6176,-98.8916 916.0655,-92.3335"/>
</g>
<!-- Node21 -->
<g id="node22" class="node">
<title>Node21</title>
<polygon fill="none" stroke="#bfbfbf" points="931,-73 931,-92 1013,-92 1013,-73 931,-73"/>
<text text-anchor="middle" x="972" y="-80" font-family="Helvetica,sans-Serif" font-size="10.00" fill="#000000">TGeoMatrix.h</text>
</g>
<!-- Node14&#45;&gt;Node21 -->
<g id="edge22" class="edge">
<title>Node14&#45;&gt;Node21</title>
<path fill="none" stroke="#191970" d="M1100.25,-134.3906C1074.7061,-124.0554 1033.8991,-107.5447 1005.189,-95.9284"/>
<polygon fill="#191970" stroke="#191970" points="1006.166,-92.5481 995.5832,-92.0419 1003.5404,-99.0371 1006.166,-92.5481"/>
</g>
<!-- Node22 -->
<g id="node23" class="node">
<title>Node22</title>
<polygon fill="none" stroke="#bfbfbf" points="1784.5,-73 1784.5,-92 1833.5,-92 1833.5,-73 1784.5,-73"/>
<text text-anchor="middle" x="1809" y="-80" font-family="Helvetica,sans-Serif" font-size="10.00" fill="#000000">iosfwd</text>
</g>
<!-- Node14&#45;&gt;Node22 -->
<g id="edge23" class="edge">
<title>Node14&#45;&gt;Node22</title>
<path fill="none" stroke="#191970" d="M1191.6791,-142.3689C1335.4556,-138.3923 1667.0794,-126.3666 1776,-98 1777.9754,-97.4855 1779.9768,-96.8547 1781.9664,-96.145"/>
<polygon fill="#191970" stroke="#191970" points="1783.756,-99.191 1791.6393,-92.1126 1781.0625,-92.7299 1783.756,-99.191"/>
</g>
<!-- Node24&#45;&gt;Node23 -->
<g id="edge30" class="edge">
<title>Node24&#45;&gt;Node23</title>
<path fill="none" stroke="#191970" d="M227.6962,-359.0026C298.7238,-348.6445 414.7976,-331.717 486.5548,-321.2524"/>
<polygon fill="#191970" stroke="#191970" points="487.4195,-324.6634 496.8097,-319.7569 486.4093,-317.7367 487.4195,-324.6634"/>
</g>
<!-- Node24&#45;&gt;Node25 -->
<g id="edge27" class="edge">
<title>Node24&#45;&gt;Node25</title>
<path fill="none" stroke="#191970" d="M167.4494,-358.4509C170.2221,-340.184 176.3282,-299.9553 180.0102,-275.6976"/>
<polygon fill="#191970" stroke="#191970" points="183.5139,-275.9369 181.5543,-265.5249 176.5931,-274.8864 183.5139,-275.9369"/>
</g>
<!-- Node25&#45;&gt;Node9 -->
<g id="edge29" class="edge">
<title>Node25&#45;&gt;Node9</title>
<path fill="none" stroke="#191970" d="M225.0094,-246.4369C267.1104,-236.8529 332.0005,-222.0812 377.2521,-211.78"/>
<polygon fill="#191970" stroke="#191970" points="378.1902,-215.1561 387.1639,-209.5237 376.6364,-208.3307 378.1902,-215.1561"/>
</g>
<!-- Node26 -->
<g id="node27" class="node">
<title>Node26</title>
<g id="a_node27"><a xlink:href="../../d0/dda/DataFormats_2Detectors_2TPC_2include_2DataFormatsTPC_2Constants_8h.html" target="_top" xlink:title="DataFormatsTPC/Constants.h">
<polygon fill="none" stroke="#000000" points="103.5,-190.5 103.5,-209.5 262.5,-209.5 262.5,-190.5 103.5,-190.5"/>
<text text-anchor="middle" x="183" y="-197.5" font-family="Helvetica,sans-Serif" font-size="10.00" fill="#000000">DataFormatsTPC/Constants.h</text>
</a>
</g>
</g>
<!-- Node25&#45;&gt;Node26 -->
<g id="edge28" class="edge">
<title>Node25&#45;&gt;Node26</title>
<path fill="none" stroke="#191970" d="M183,-246.2455C183,-238.9382 183,-228.6944 183,-219.7046"/>
<polygon fill="#191970" stroke="#191970" points="186.5001,-219.6426 183,-209.6427 179.5001,-219.6427 186.5001,-219.6426"/>
</g>
<!-- Node27&#45;&gt;Node9 -->
<g id="edge32" class="edge">
<title>Node27&#45;&gt;Node9</title>
<path fill="none" stroke="#191970" d="M456.3577,-358.4862C451.7537,-331.8144 438.6514,-255.9117 432.3997,-219.695"/>
<polygon fill="#191970" stroke="#191970" points="435.8466,-219.0868 430.6965,-209.8279 428.9486,-220.2775 435.8466,-219.0868"/>
</g>
<!-- Node27&#45;&gt;Node23 -->
<g id="edge36" class="edge">
<title>Node27&#45;&gt;Node23</title>
<path fill="none" stroke="#191970" d="M474.0252,-358.2455C488.1408,-349.6534 508.9263,-337.0014 525.1899,-327.1018"/>
<polygon fill="#191970" stroke="#191970" points="527.4363,-329.8319 534.1585,-321.6427 523.7966,-323.8525 527.4363,-329.8319"/>
</g>
<!-- Node28 -->
<g id="node29" class="node">
<title>Node28</title>
<g id="a_node29"><a xlink:href="../../dc/d14/ROC_8h.html" target="_top" xlink:title="TPCBase/ROC.h">
<polygon fill="none" stroke="#000000" points="290,-302.5 290,-321.5 382,-321.5 382,-302.5 290,-302.5"/>
<text text-anchor="middle" x="336" y="-309.5" font-family="Helvetica,sans-Serif" font-size="10.00" fill="#000000">TPCBase/ROC.h</text>
</a>
</g>
</g>
<!-- Node27&#45;&gt;Node28 -->
<g id="edge33" class="edge">
<title>Node27&#45;&gt;Node28</title>
<path fill="none" stroke="#191970" d="M437.0275,-358.3733C417.4433,-349.3838 388.0039,-335.8706 365.949,-325.7471"/>
<polygon fill="#191970" stroke="#191970" points="367.2473,-322.4919 356.6989,-321.5011 364.3271,-328.8538 367.2473,-322.4919"/>
</g>
<!-- Node28&#45;&gt;Node9 -->
<g id="edge34" class="edge">
<title>Node28&#45;&gt;Node9</title>
<path fill="none" stroke="#191970" d="M343.9291,-302.4509C359.5777,-283.6054 394.6358,-241.3849 414.517,-217.4419"/>
<polygon fill="#191970" stroke="#191970" points="417.3953,-219.4543 421.0909,-209.5249 412.0099,-214.9824 417.3953,-219.4543"/>
</g>
<!-- Node28&#45;&gt;Node25 -->
<g id="edge35" class="edge">
<title>Node28&#45;&gt;Node25</title>
<path fill="none" stroke="#191970" d="M309.6984,-302.3733C284.5872,-293.1822 246.5562,-279.2624 218.7128,-269.0713"/>
<polygon fill="#191970" stroke="#191970" points="219.5522,-265.6516 208.9584,-265.5011 217.1462,-272.2251 219.5522,-265.6516"/>
</g>
<!-- Node29&#45;&gt;Node9 -->
<g id="edge38" class="edge">
<title>Node29&#45;&gt;Node9</title>
<path fill="none" stroke="#191970" d="M368.707,-414.375C378.279,-380.3415 410.6451,-265.262 423.5868,-219.247"/>
<polygon fill="#191970" stroke="#191970" points="426.9648,-220.1633 426.3031,-209.5891 420.2262,-218.268 426.9648,-220.1633"/>
</g>
<!-- Node29&#45;&gt;Node23 -->
<g id="edge43" class="edge">
<title>Node29&#45;&gt;Node23</title>
<path fill="none" stroke="#191970" d="M421.0106,-414.4387C462.3495,-406.2061 514.4196,-393.26 530,-378 542.4054,-365.8497 547.1738,-346.2834 548.9769,-331.6035"/>
<polygon fill="#191970" stroke="#191970" points="552.4729,-331.8003 549.855,-321.534 545.4994,-331.1921 552.4729,-331.8003"/>
</g>
<!-- Node29&#45;&gt;Node24 -->
<g id="edge44" class="edge">
<title>Node29&#45;&gt;Node24</title>
<path fill="none" stroke="#191970" d="M331.6188,-414.3733C297.9299,-404.9404 246.4518,-390.5265 209.8382,-380.2747"/>
<polygon fill="#191970" stroke="#191970" points="210.506,-376.8271 199.9326,-377.5011 208.6185,-383.5679 210.506,-376.8271"/>
</g>
<!-- Node30 -->
<g id="node31" class="node">
<title>Node30</title>
<g id="a_node31"><a xlink:href="../../df/d26/CRU_8h.html" target="_top" xlink:title="TPCBase/CRU.h">
<polygon fill="none" stroke="#000000" points="246,-358.5 246,-377.5 338,-377.5 338,-358.5 246,-358.5"/>
<text text-anchor="middle" x="292" y="-365.5" font-family="Helvetica,sans-Serif" font-size="10.00" fill="#000000">TPCBase/CRU.h</text>
</a>
</g>
</g>
<!-- Node29&#45;&gt;Node30 -->
<g id="edge39" class="edge">
<title>Node29&#45;&gt;Node30</title>
<path fill="none" stroke="#191970" d="M353.1102,-414.2455C342.0746,-405.8943 325.9708,-393.7076 313.0647,-383.9408"/>
<polygon fill="#191970" stroke="#191970" points="314.8283,-380.8862 304.7421,-377.6427 310.6041,-386.4681 314.8283,-380.8862"/>
</g>
<!-- Node30&#45;&gt;Node9 -->
<g id="edge40" class="edge">
<title>Node30&#45;&gt;Node9</title>
<path fill="none" stroke="#191970" d="M286.8807,-358.4505C280.4585,-345.0631 271.3843,-320.3053 281,-302 304.2797,-257.683 356.4987,-228.8548 392.2472,-213.5057"/>
<polygon fill="#191970" stroke="#191970" points="393.9521,-216.5881 401.8556,-209.5322 391.277,-210.1194 393.9521,-216.5881"/>
</g>
<!-- Node30&#45;&gt;Node25 -->
<g id="edge41" class="edge">
<title>Node30&#45;&gt;Node25</title>
<path fill="none" stroke="#191970" d="M282.7067,-358.4509C264.2051,-339.4401 222.5537,-296.6423 199.3656,-272.816"/>
<polygon fill="#191970" stroke="#191970" points="201.7525,-270.2502 192.2698,-265.5249 196.736,-275.1324 201.7525,-270.2502"/>
</g>
<!-- Node30&#45;&gt;Node28 -->
<g id="edge42" class="edge">
<title>Node30&#45;&gt;Node28</title>
<path fill="none" stroke="#191970" d="M299.6642,-358.2455C305.8473,-350.3761 314.7063,-339.101 322.1289,-329.6542"/>
<polygon fill="#191970" stroke="#191970" points="324.9975,-331.6683 328.4236,-321.6427 319.4932,-327.3435 324.9975,-331.6683"/>
</g>
<!-- Node31&#45;&gt;Node22 -->
<g id="edge46" class="edge">
<title>Node31&#45;&gt;Node22</title>
<path fill="none" stroke="#191970" d="M1390.3367,-246.3326C1456.9281,-222.6125 1632.5972,-159.0104 1776,-98 1777.3469,-97.427 1778.7197,-96.831 1780.1029,-96.2209"/>
<polygon fill="#191970" stroke="#191970" points="1781.556,-99.405 1789.2134,-92.0829 1778.6611,-93.0316 1781.556,-99.405"/>
</g>
<!-- Node32&#45;&gt;Node5 -->
<g id="edge48" class="edge">
<title>Node32&#45;&gt;Node5</title>
<path fill="none" stroke="#191970" d="M664.7744,-414.2455C660.6877,-406.617 654.8865,-395.7881 649.925,-386.5267"/>
<polygon fill="#191970" stroke="#191970" points="652.9732,-384.8047 645.1657,-377.6427 646.8028,-388.1103 652.9732,-384.8047"/>
</g>
<!-- Node32&#45;&gt;Node9 -->
<g id="edge49" class="edge">
<title>Node32&#45;&gt;Node9</title>
<path fill="none" stroke="#191970" d="M677.4569,-414.1851C686.5591,-400.9131 699.6196,-376.7484 690,-358 647.538,-275.2421 540.5195,-231.676 477.4908,-212.4746"/>
<polygon fill="#191970" stroke="#191970" points="478.3515,-209.0794 467.7694,-209.5998 476.3664,-215.792 478.3515,-209.0794"/>
</g>
<!-- Node32&#45;&gt;Node23 -->
<g id="edge50" class="edge">
<title>Node32&#45;&gt;Node23</title>
<path fill="none" stroke="#191970" d="M673.5277,-414.4902C677.9807,-400.7057 683.7381,-374.9705 672,-358 663.1787,-345.2464 628.8539,-332.968 598.8515,-324.3093"/>
<polygon fill="#191970" stroke="#191970" points="599.4591,-320.8448 588.8855,-321.5162 597.57,-327.5851 599.4591,-320.8448"/>
</g>
</g>
</svg>
