<?xml version="1.0" encoding="UTF-8" standalone="no"?>
<!DOCTYPE svg PUBLIC "-//W3C//DTD SVG 1.1//EN"
 "http://www.w3.org/Graphics/SVG/1.1/DTD/svg11.dtd">
<!-- Generated by graphviz version 2.40.1 (20161225.0304)
 -->
<!-- Title: /home/travis/build/AliceO2Group/AliceO2/Analysis/DataModel/include/Analysis/HFSecondaryVertex.h Pages: 1 -->
<!--zoomable 150 -->
<svg id="main" version="1.1" xmlns="http://www.w3.org/2000/svg" xmlns:xlink="http://www.w3.org/1999/xlink" xml:space="preserve" onload="init(evt)">
<style type="text/css"><![CDATA[
.edge:hover path { stroke: red; }
.edge:hover polygon { stroke: red; fill: red; }
]]></style>
<script type="text/javascript"><![CDATA[
var edges = document.getElementsByTagName('g');
if (edges && edges.length) {
  for (var i=0;i<edges.length;i++) {
    if (edges[i].id.substr(0,4)=='edge') {
      edges[i].setAttribute('class','edge');
    }
  }
}
]]></script>
        <defs>
                <circle id="rim" cx="0" cy="0" r="7"/>
                <circle id="rim2" cx="0" cy="0" r="3.5"/>
                <g id="zoomPlus">
                        <use xlink:href="#rim" fill="#404040">
                                <set attributeName="fill" to="#808080" begin="zoomplus.mouseover" end="zoomplus.mouseout"/>
                        </use>
                        <path d="M-4,0h8M0,-4v8" fill="none" stroke="white" stroke-width="1.5" pointer-events="none"/>
                </g>
                <g id="zoomMin">
                        <use xlink:href="#rim" fill="#404040">
                                <set attributeName="fill" to="#808080" begin="zoomminus.mouseover" end="zoomminus.mouseout"/>
                        </use>
                        <path d="M-4,0h8" fill="none" stroke="white" stroke-width="1.5" pointer-events="none"/>
                </g>
                <g id="dirArrow">
                        <path fill="none" stroke="white" stroke-width="1.5" d="M0,-3.0v7 M-2.5,-0.5L0,-3.0L2.5,-0.5"/>
                </g>
               <g id="resetDef">
                       <use xlink:href="#rim2" fill="#404040">
                               <set attributeName="fill" to="#808080" begin="reset.mouseover" end="reset.mouseout"/>
                       </use>
               </g>
        </defs>

<script type="text/javascript">
var viewWidth = 1938;
var viewHeight = 150;
var sectionId = 'dynsection-1';
</script>
<script xlink:href="../../svgpan.js"/>
<svg id="graph" class="graph">
<g id="viewport">
<title>/home/travis/build/AliceO2Group/AliceO2/Analysis/DataModel/include/Analysis/HFSecondaryVertex.h</title>
<!-- Node224 -->
<g id="node1" class="node">
<title>Node224</title>
<polygon fill="#bfbfbf" stroke="#000000" points="955,-89.5 955,-141.5 1123,-141.5 1123,-89.5 955,-89.5"/>
<text text-anchor="start" x="963" y="-129.5" font-family="Helvetica,sans-Serif" font-size="10.00" fill="#000000">/home/travis/build</text>
<text text-anchor="start" x="963" y="-118.5" font-family="Helvetica,sans-Serif" font-size="10.00" fill="#000000">/AliceO2Group/AliceO2</text>
<text text-anchor="start" x="963" y="-107.5" font-family="Helvetica,sans-Serif" font-size="10.00" fill="#000000">/Analysis/DataModel/include</text>
<text text-anchor="middle" x="1039" y="-96.5" font-family="Helvetica,sans-Serif" font-size="10.00" fill="#000000">/Analysis/HFSecondaryVertex.h</text>
</g>
<!-- Node225 -->
<g id="node2" class="node">
<title>Node225</title>
<g id="a_node2"><a xlink:href="../../d5/d51/aodDataModelGraph_8cxx.html" target="_top" xlink:title="/home/travis/build\l/AliceO2Group/AliceO2\l/Analysis/DataModel/src\l/aodDataModelGraph.cxx">
<polygon fill="none" stroke="#000000" points="0,-.5 0,-52.5 140,-52.5 140,-.5 0,-.5"/>
<text text-anchor="start" x="8" y="-40.5" font-family="Helvetica,sans-Serif" font-size="10.00" fill="#000000">/home/travis/build</text>
<text text-anchor="start" x="8" y="-29.5" font-family="Helvetica,sans-Serif" font-size="10.00" fill="#000000">/AliceO2Group/AliceO2</text>
<text text-anchor="start" x="8" y="-18.5" font-family="Helvetica,sans-Serif" font-size="10.00" fill="#000000">/Analysis/DataModel/src</text>
<text text-anchor="middle" x="70" y="-7.5" font-family="Helvetica,sans-Serif" font-size="10.00" fill="#000000">/aodDataModelGraph.cxx</text>
</a>
</g>
</g>
<!-- Node224&#45;&gt;Node225 -->
<g id="edge1" class="edge">
<title>Node224&#45;&gt;Node225</title>
<path fill="none" stroke="#191970" d="M944.8755,-111.9105C748.1265,-103.9135 299.146,-82.9485 149,-53 146.1626,-52.434 143.2864,-51.7948 140.3947,-51.0971"/>
<polygon fill="#191970" stroke="#191970" points="944.7733,-115.4092 954.9065,-112.3159 945.056,-108.4149 944.7733,-115.4092"/>
</g>
<!-- Node226 -->
<g id="node3" class="node">
<title>Node226</title>
<g id="a_node3"><a xlink:href="../../d3/d9f/HFCandidateCreator2Prong_8cxx.html" target="_top" xlink:title="Reconstruction of heavy&#45;flavour 2&#45;prong decay candidates. ">
<polygon fill="none" stroke="#000000" points="158,-.5 158,-52.5 330,-52.5 330,-.5 158,-.5"/>
<text text-anchor="start" x="166" y="-40.5" font-family="Helvetica,sans-Serif" font-size="10.00" fill="#000000">/home/travis/build</text>
<text text-anchor="start" x="166" y="-29.5" font-family="Helvetica,sans-Serif" font-size="10.00" fill="#000000">/AliceO2Group/AliceO2</text>
<text text-anchor="start" x="166" y="-18.5" font-family="Helvetica,sans-Serif" font-size="10.00" fill="#000000">/Analysis/Tasks/PWGHF</text>
<text text-anchor="middle" x="244" y="-7.5" font-family="Helvetica,sans-Serif" font-size="10.00" fill="#000000">/HFCandidateCreator2Prong.cxx</text>
</a>
</g>
</g>
<!-- Node224&#45;&gt;Node226 -->
<g id="edge2" class="edge">
<title>Node224&#45;&gt;Node226</title>
<path fill="none" stroke="#191970" d="M944.5097,-112.5452C809.3259,-107.0804 553.3669,-92.1281 339,-53 336.0522,-52.4619 333.0635,-51.8736 330.0533,-51.2444"/>
<polygon fill="#191970" stroke="#191970" points="944.6958,-116.0552 954.8263,-112.9533 944.9725,-109.0607 944.6958,-116.0552"/>
</g>
<!-- Node227 -->
<g id="node4" class="node">
<title>Node227</title>
<g id="a_node4"><a xlink:href="../../da/d3e/HFCandidateCreator3Prong_8cxx.html" target="_top" xlink:title="Reconstruction of heavy&#45;flavour 3&#45;prong decay candidates. ">
<polygon fill="none" stroke="#000000" points="348,-.5 348,-52.5 520,-52.5 520,-.5 348,-.5"/>
<text text-anchor="start" x="356" y="-40.5" font-family="Helvetica,sans-Serif" font-size="10.00" fill="#000000">/home/travis/build</text>
<text text-anchor="start" x="356" y="-29.5" font-family="Helvetica,sans-Serif" font-size="10.00" fill="#000000">/AliceO2Group/AliceO2</text>
<text text-anchor="start" x="356" y="-18.5" font-family="Helvetica,sans-Serif" font-size="10.00" fill="#000000">/Analysis/Tasks/PWGHF</text>
<text text-anchor="middle" x="434" y="-7.5" font-family="Helvetica,sans-Serif" font-size="10.00" fill="#000000">/HFCandidateCreator3Prong.cxx</text>
</a>
</g>
</g>
<!-- Node224&#45;&gt;Node227 -->
<g id="edge3" class="edge">
<title>Node224&#45;&gt;Node227</title>
<path fill="none" stroke="#191970" d="M944.8531,-108.2252C841.996,-99.2893 672.71,-81.6809 529,-53 526.0615,-52.4135 523.0808,-51.7834 520.0774,-51.1184"/>
<polygon fill="#191970" stroke="#191970" points="944.641,-111.7198 954.904,-109.0891 945.2405,-104.7455 944.641,-111.7198"/>
</g>
<!-- Node228 -->
<g id="node5" class="node">
<title>Node228</title>
<g id="a_node5"><a xlink:href="../../d8/db0/HFD0CandidateSelector_8cxx.html" target="_top" xlink:title="D0 selection task. ">
<polygon fill="none" stroke="#000000" points="538.5,-.5 538.5,-52.5 693.5,-52.5 693.5,-.5 538.5,-.5"/>
<text text-anchor="start" x="546.5" y="-40.5" font-family="Helvetica,sans-Serif" font-size="10.00" fill="#000000">/home/travis/build</text>
<text text-anchor="start" x="546.5" y="-29.5" font-family="Helvetica,sans-Serif" font-size="10.00" fill="#000000">/AliceO2Group/AliceO2</text>
<text text-anchor="start" x="546.5" y="-18.5" font-family="Helvetica,sans-Serif" font-size="10.00" fill="#000000">/Analysis/Tasks/PWGHF</text>
<text text-anchor="middle" x="616" y="-7.5" font-family="Helvetica,sans-Serif" font-size="10.00" fill="#000000">/HFD0CandidateSelector.cxx</text>
</a>
</g>
</g>
<!-- Node224&#45;&gt;Node228 -->
<g id="edge4" class="edge">
<title>Node224&#45;&gt;Node228</title>
<path fill="none" stroke="#191970" d="M944.69,-100.8552C877.0097,-89.6425 783.8624,-72.7704 703,-53 699.9325,-52.25 696.8133,-51.4555 693.6692,-50.6279"/>
<polygon fill="#191970" stroke="#191970" points="944.4709,-104.3661 954.9066,-102.5369 945.6079,-97.4591 944.4709,-104.3661"/>
</g>
<!-- Node229 -->
<g id="node6" class="node">
<title>Node229</title>
<g id="a_node6"><a xlink:href="../../d2/d43/HFTrackIndexSkimsCreator_8cxx.html" target="_top" xlink:title="Pre&#45;selection of 2&#45;prong and 3&#45;prong secondary vertices of heavy&#45;flavour decay candidates. ">
<polygon fill="none" stroke="#000000" points="712,-.5 712,-52.5 882,-52.5 882,-.5 712,-.5"/>
<text text-anchor="start" x="720" y="-40.5" font-family="Helvetica,sans-Serif" font-size="10.00" fill="#000000">/home/travis/build</text>
<text text-anchor="start" x="720" y="-29.5" font-family="Helvetica,sans-Serif" font-size="10.00" fill="#000000">/AliceO2Group/AliceO2</text>
<text text-anchor="start" x="720" y="-18.5" font-family="Helvetica,sans-Serif" font-size="10.00" fill="#000000">/Analysis/Tasks/PWGHF</text>
<text text-anchor="middle" x="797" y="-7.5" font-family="Helvetica,sans-Serif" font-size="10.00" fill="#000000">/HFTrackIndexSkimsCreator.cxx</text>
</a>
</g>
</g>
<!-- Node224&#45;&gt;Node229 -->
<g id="edge5" class="edge">
<title>Node224&#45;&gt;Node229</title>
<path fill="none" stroke="#191970" d="M958.265,-85.8082C929.0453,-75.0621 896.2898,-63.0157 867.9716,-52.6011"/>
<polygon fill="#191970" stroke="#191970" points="957.4336,-89.2316 968.0272,-89.3984 959.8499,-82.6618 957.4336,-89.2316"/>
</g>
<!-- Node230 -->
<g id="node7" class="node">
<title>Node230</title>
<g id="a_node7"><a xlink:href="../../de/da9/taskD0_8cxx.html" target="_top" xlink:title="D0 analysis task. ">
<polygon fill="none" stroke="#000000" points="900,-.5 900,-52.5 1030,-52.5 1030,-.5 900,-.5"/>
<text text-anchor="start" x="908" y="-40.5" font-family="Helvetica,sans-Serif" font-size="10.00" fill="#000000">/home/travis/build</text>
<text text-anchor="start" x="908" y="-29.5" font-family="Helvetica,sans-Serif" font-size="10.00" fill="#000000">/AliceO2Group/AliceO2</text>
<text text-anchor="start" x="908" y="-18.5" font-family="Helvetica,sans-Serif" font-size="10.00" fill="#000000">/Analysis/Tasks/PWGHF</text>
<text text-anchor="middle" x="965" y="-7.5" font-family="Helvetica,sans-Serif" font-size="10.00" fill="#000000">/taskD0.cxx</text>
</a>
</g>
</g>
<!-- Node224&#45;&gt;Node230 -->
<g id="edge6" class="edge">
<title>Node224&#45;&gt;Node230</title>
<path fill="none" stroke="#191970" d="M1010.6709,-81.4285C1002.6998,-71.8416 994.1597,-61.5704 986.6464,-52.5341"/>
<polygon fill="#191970" stroke="#191970" points="1008.1132,-83.8268 1017.1978,-89.2784 1013.4957,-79.3514 1008.1132,-83.8268"/>
</g>
<!-- Node231 -->
<g id="node8" class="node">
<title>Node231</title>
<g id="a_node8"><a xlink:href="../../d5/d10/taskDPlus_8cxx.html" target="_top" xlink:title="D± analysis task. ">
<polygon fill="none" stroke="#000000" points="1048,-.5 1048,-52.5 1178,-52.5 1178,-.5 1048,-.5"/>
<text text-anchor="start" x="1056" y="-40.5" font-family="Helvetica,sans-Serif" font-size="10.00" fill="#000000">/home/travis/build</text>
<text text-anchor="start" x="1056" y="-29.5" font-family="Helvetica,sans-Serif" font-size="10.00" fill="#000000">/AliceO2Group/AliceO2</text>
<text text-anchor="start" x="1056" y="-18.5" font-family="Helvetica,sans-Serif" font-size="10.00" fill="#000000">/Analysis/Tasks/PWGHF</text>
<text text-anchor="middle" x="1113" y="-7.5" font-family="Helvetica,sans-Serif" font-size="10.00" fill="#000000">/taskDPlus.cxx</text>
</a>
</g>
</g>
<!-- Node224&#45;&gt;Node231 -->
<g id="edge7" class="edge">
<title>Node224&#45;&gt;Node231</title>
<path fill="none" stroke="#191970" d="M1067.3291,-81.4285C1075.3002,-71.8416 1083.8403,-61.5704 1091.3536,-52.5341"/>
<polygon fill="#191970" stroke="#191970" points="1064.5043,-79.3514 1060.8022,-89.2784 1069.8868,-83.8268 1064.5043,-79.3514"/>
</g>
<!-- Node232 -->
<g id="node9" class="node">
<title>Node232</title>
<g id="a_node9"><a xlink:href="../../d7/df6/jetfinderhf_8cxx.html" target="_top" xlink:title="/home/travis/build\l/AliceO2Group/AliceO2\l/Analysis/Tasks/PWGJE\l/jetfinderhf.cxx">
<polygon fill="none" stroke="#000000" points="1196.5,-.5 1196.5,-52.5 1323.5,-52.5 1323.5,-.5 1196.5,-.5"/>
<text text-anchor="start" x="1204.5" y="-40.5" font-family="Helvetica,sans-Serif" font-size="10.00" fill="#000000">/home/travis/build</text>
<text text-anchor="start" x="1204.5" y="-29.5" font-family="Helvetica,sans-Serif" font-size="10.00" fill="#000000">/AliceO2Group/AliceO2</text>
<text text-anchor="start" x="1204.5" y="-18.5" font-family="Helvetica,sans-Serif" font-size="10.00" fill="#000000">/Analysis/Tasks/PWGJE</text>
<text text-anchor="middle" x="1260" y="-7.5" font-family="Helvetica,sans-Serif" font-size="10.00" fill="#000000">/jetfinderhf.cxx</text>
</a>
</g>
</g>
<!-- Node224&#45;&gt;Node232 -->
<g id="edge8" class="edge">
<title>Node224&#45;&gt;Node232</title>
<path fill="none" stroke="#191970" d="M1113.2022,-85.6176C1140.1612,-74.7609 1170.3629,-62.5982 1196.3307,-52.1406"/>
<polygon fill="#191970" stroke="#191970" points="1111.7826,-82.4161 1103.814,-89.3984 1114.3976,-88.9094 1111.7826,-82.4161"/>
</g>
<!-- Node233 -->
<g id="node10" class="node">
<title>Node233</title>
<g id="a_node10"><a xlink:href="../../d0/dd5/cascadefinder_8cxx.html" target="_top" xlink:title="/home/travis/build\l/AliceO2Group/AliceO2\l/Analysis/Tasks/PWGLF\l/cascadefinder.cxx">
<polygon fill="none" stroke="#000000" points="1342,-.5 1342,-52.5 1470,-52.5 1470,-.5 1342,-.5"/>
<text text-anchor="start" x="1350" y="-40.5" font-family="Helvetica,sans-Serif" font-size="10.00" fill="#000000">/home/travis/build</text>
<text text-anchor="start" x="1350" y="-29.5" font-family="Helvetica,sans-Serif" font-size="10.00" fill="#000000">/AliceO2Group/AliceO2</text>
<text text-anchor="start" x="1350" y="-18.5" font-family="Helvetica,sans-Serif" font-size="10.00" fill="#000000">/Analysis/Tasks/PWGLF</text>
<text text-anchor="middle" x="1406" y="-7.5" font-family="Helvetica,sans-Serif" font-size="10.00" fill="#000000">/cascadefinder.cxx</text>
</a>
</g>
</g>
<!-- Node224&#45;&gt;Node233 -->
<g id="edge9" class="edge">
<title>Node224&#45;&gt;Node233</title>
<path fill="none" stroke="#191970" d="M1132.9855,-98.9667C1191.1048,-87.8946 1266.9632,-71.9065 1333,-53 1335.8517,-52.1836 1338.7523,-51.3117 1341.6725,-50.4001"/>
<polygon fill="#191970" stroke="#191970" points="1132.2581,-95.5422 1123.0821,-100.8386 1133.5582,-102.4204 1132.2581,-95.5422"/>
</g>
<!-- Node234 -->
<g id="node11" class="node">
<title>Node234</title>
<g id="a_node11"><a xlink:href="../../d1/db8/cascadeproducer_8cxx.html" target="_top" xlink:title="/home/travis/build\l/AliceO2Group/AliceO2\l/Analysis/Tasks/PWGLF\l/cascadeproducer.cxx">
<polygon fill="none" stroke="#000000" points="1488,-.5 1488,-52.5 1616,-52.5 1616,-.5 1488,-.5"/>
<text text-anchor="start" x="1496" y="-40.5" font-family="Helvetica,sans-Serif" font-size="10.00" fill="#000000">/home/travis/build</text>
<text text-anchor="start" x="1496" y="-29.5" font-family="Helvetica,sans-Serif" font-size="10.00" fill="#000000">/AliceO2Group/AliceO2</text>
<text text-anchor="start" x="1496" y="-18.5" font-family="Helvetica,sans-Serif" font-size="10.00" fill="#000000">/Analysis/Tasks/PWGLF</text>
<text text-anchor="middle" x="1552" y="-7.5" font-family="Helvetica,sans-Serif" font-size="10.00" fill="#000000">/cascadeproducer.cxx</text>
</a>
</g>
</g>
<!-- Node224&#45;&gt;Node234 -->
<g id="edge10" class="edge">
<title>Node224&#45;&gt;Node234</title>
<path fill="none" stroke="#191970" d="M1133.2821,-107.8049C1223.1222,-99.1392 1361.6898,-82.288 1479,-53 1481.8779,-52.2815 1484.8003,-51.4908 1487.7382,-50.6456"/>
<polygon fill="#191970" stroke="#191970" points="1132.7403,-104.3405 1123.1161,-108.7706 1133.4023,-111.3092 1132.7403,-104.3405"/>
</g>
<!-- Node235 -->
<g id="node12" class="node">
<title>Node235</title>
<g id="a_node12"><a xlink:href="../../d5/d6e/lambdakzerofinder_8cxx.html" target="_top" xlink:title="/home/travis/build\l/AliceO2Group/AliceO2\l/Analysis/Tasks/PWGLF\l/lambdakzerofinder.cxx">
<polygon fill="none" stroke="#000000" points="1634.5,-.5 1634.5,-52.5 1765.5,-52.5 1765.5,-.5 1634.5,-.5"/>
<text text-anchor="start" x="1642.5" y="-40.5" font-family="Helvetica,sans-Serif" font-size="10.00" fill="#000000">/home/travis/build</text>
<text text-anchor="start" x="1642.5" y="-29.5" font-family="Helvetica,sans-Serif" font-size="10.00" fill="#000000">/AliceO2Group/AliceO2</text>
<text text-anchor="start" x="1642.5" y="-18.5" font-family="Helvetica,sans-Serif" font-size="10.00" fill="#000000">/Analysis/Tasks/PWGLF</text>
<text text-anchor="middle" x="1700" y="-7.5" font-family="Helvetica,sans-Serif" font-size="10.00" fill="#000000">/lambdakzerofinder.cxx</text>
</a>
</g>
</g>
<!-- Node224&#45;&gt;Node235 -->
<g id="edge11" class="edge">
<title>Node224&#45;&gt;Node235</title>
<path fill="none" stroke="#191970" d="M1133.7982,-112.1832C1250.6044,-106.5474 1454.5306,-91.6482 1625,-53 1628.0976,-52.2977 1631.244,-51.5077 1634.4055,-50.6514"/>
<polygon fill="#191970" stroke="#191970" points="1133.2883,-108.7032 1123.4636,-112.6686 1133.6168,-115.6955 1133.2883,-108.7032"/>
</g>
<!-- Node236 -->
<g id="node13" class="node">
<title>Node236</title>
<g id="a_node13"><a xlink:href="../../d6/d2a/lambdakzeroproducer_8cxx.html" target="_top" xlink:title="/home/travis/build\l/AliceO2Group/AliceO2\l/Analysis/Tasks/PWGLF\l/lambdakzeroproducer.cxx">
<polygon fill="none" stroke="#000000" points="1784,-.5 1784,-52.5 1930,-52.5 1930,-.5 1784,-.5"/>
<text text-anchor="start" x="1792" y="-40.5" font-family="Helvetica,sans-Serif" font-size="10.00" fill="#000000">/home/travis/build</text>
<text text-anchor="start" x="1792" y="-29.5" font-family="Helvetica,sans-Serif" font-size="10.00" fill="#000000">/AliceO2Group/AliceO2</text>
<text text-anchor="start" x="1792" y="-18.5" font-family="Helvetica,sans-Serif" font-size="10.00" fill="#000000">/Analysis/Tasks/PWGLF</text>
<text text-anchor="middle" x="1857" y="-7.5" font-family="Helvetica,sans-Serif" font-size="10.00" fill="#000000">/lambdakzeroproducer.cxx</text>
</a>
</g>
</g>
<!-- Node224&#45;&gt;Node236 -->
<g id="edge12" class="edge">
<title>Node224&#45;&gt;Node236</title>
<path fill="none" stroke="#191970" d="M1133.4469,-110.167C1303.5308,-100.1162 1654.8039,-77.1955 1775,-53 1777.9334,-52.4095 1780.9089,-51.7495 1783.9021,-51.0346"/>
<polygon fill="#191970" stroke="#191970" points="1133.0307,-106.6854 1123.2536,-110.7668 1133.4419,-113.6733 1133.0307,-106.6854"/>
</g>
</g>
</svg>
        <g id="navigator" transform="translate(0 0)" fill="#404254">
                <rect fill="#f2f5e9" fill-opacity="0.5" stroke="#606060" stroke-width=".5" x="0" y="0" width="60" height="60"/>
                <use id="zoomplus" xlink:href="#zoomPlus" x="17" y="9" onmousedown="handleZoom(evt,'in')"/>
                <use id="zoomminus" xlink:href="#zoomMin" x="42" y="9" onmousedown="handleZoom(evt,'out')"/>
                <use id="reset" xlink:href="#resetDef" x="30" y="36" onmousedown="handleReset()"/>
                <g id="arrowUp" xlink:href="#dirArrow" transform="translate(30 24)" onmousedown="handlePan(0,-1)">
                  <use xlink:href="#rim" fill="#404040">
                        <set attributeName="fill" to="#808080" begin="arrowUp.mouseover" end="arrowUp.mouseout"/>
                  </use>
                  <path fill="none" stroke="white" stroke-width="1.5" d="M0,-3.0v7 M-2.5,-0.5L0,-3.0L2.5,-0.5"/>
                </g>
                <g id="arrowRight" xlink:href="#dirArrow" transform="rotate(90) translate(36 -43)" onmousedown="handlePan(1,0)">
                  <use xlink:href="#rim" fill="#404040">
                        <set attributeName="fill" to="#808080" begin="arrowRight.mouseover" end="arrowRight.mouseout"/>
                  </use>
                  <path fill="none" stroke="white" stroke-width="1.5" d="M0,-3.0v7 M-2.5,-0.5L0,-3.0L2.5,-0.5"/>
                </g>
                <g id="arrowDown" xlink:href="#dirArrow" transform="rotate(180) translate(-30 -48)" onmousedown="handlePan(0,1)">
                  <use xlink:href="#rim" fill="#404040">
                        <set attributeName="fill" to="#808080" begin="arrowDown.mouseover" end="arrowDown.mouseout"/>
                  </use>
                  <path fill="none" stroke="white" stroke-width="1.5" d="M0,-3.0v7 M-2.5,-0.5L0,-3.0L2.5,-0.5"/>
                </g>
                <g id="arrowLeft" xlink:href="#dirArrow" transform="rotate(270) translate(-36 17)" onmousedown="handlePan(-1,0)">
                  <use xlink:href="#rim" fill="#404040">
                        <set attributeName="fill" to="#808080" begin="arrowLeft.mouseover" end="arrowLeft.mouseout"/>
                  </use>
                  <path fill="none" stroke="white" stroke-width="1.5" d="M0,-3.0v7 M-2.5,-0.5L0,-3.0L2.5,-0.5"/>
                </g>
        </g>
        <svg viewBox="0 0 15 15" width="100%" height="30px" preserveAspectRatio="xMaxYMin meet">
         <g id="arrow_out" transform="scale(0.3 0.3)">
          <a xlink:href="HFSecondaryVertex_8h__dep__incl_org.svg" target="_base">
           <rect id="button" ry="5" rx="5" y="6" x="6" height="38" width="38"
                fill="#f2f5e9" fill-opacity="0.5" stroke="#606060" stroke-width="1.0"/>
           <path id="arrow"
             d="M 11.500037,31.436501 C 11.940474,20.09759 22.043105,11.32322 32.158766,21.979434 L 37.068811,17.246167 C 37.068811,17.246167 37.088388,32 37.088388,32 L 22.160133,31.978069 C 22.160133,31.978069 26.997745,27.140456 26.997745,27.140456 C 18.528582,18.264221 13.291696,25.230495 11.500037,31.436501 z"
             style="fill:#404040;"/>
          </a>
         </g>
        </svg>
</svg>
