<?xml version="1.0" encoding="UTF-8" standalone="no"?>
<!DOCTYPE svg PUBLIC "-//W3C//DTD SVG 1.1//EN"
 "http://www.w3.org/Graphics/SVG/1.1/DTD/svg11.dtd">
<!-- Generated by graphviz version 2.40.1 (20161225.0304)
 -->
<!-- Title: pidTPCTaskQA Pages: 1 -->
<!--zoomable 871 -->
<svg id="main" version="1.1" xmlns="http://www.w3.org/2000/svg" xmlns:xlink="http://www.w3.org/1999/xlink" xml:space="preserve" onload="init(evt)">
<style type="text/css"><![CDATA[
.edge:hover path { stroke: red; }
.edge:hover polygon { stroke: red; fill: red; }
]]></style>
<script type="text/javascript"><![CDATA[
var edges = document.getElementsByTagName('g');
if (edges && edges.length) {
  for (var i=0;i<edges.length;i++) {
    if (edges[i].id.substr(0,4)=='edge') {
      edges[i].setAttribute('class','edge');
    }
  }
}
]]></script>
        <defs>
                <circle id="rim" cx="0" cy="0" r="7"/>
                <circle id="rim2" cx="0" cy="0" r="3.5"/>
                <g id="zoomPlus">
                        <use xlink:href="#rim" fill="#404040">
                                <set attributeName="fill" to="#808080" begin="zoomplus.mouseover" end="zoomplus.mouseout"/>
                        </use>
                        <path d="M-4,0h8M0,-4v8" fill="none" stroke="white" stroke-width="1.5" pointer-events="none"/>
                </g>
                <g id="zoomMin">
                        <use xlink:href="#rim" fill="#404040">
                                <set attributeName="fill" to="#808080" begin="zoomminus.mouseover" end="zoomminus.mouseout"/>
                        </use>
                        <path d="M-4,0h8" fill="none" stroke="white" stroke-width="1.5" pointer-events="none"/>
                </g>
                <g id="dirArrow">
                        <path fill="none" stroke="white" stroke-width="1.5" d="M0,-3.0v7 M-2.5,-0.5L0,-3.0L2.5,-0.5"/>
                </g>
               <g id="resetDef">
                       <use xlink:href="#rim2" fill="#404040">
                               <set attributeName="fill" to="#808080" begin="reset.mouseover" end="reset.mouseout"/>
                       </use>
               </g>
        </defs>

<script type="text/javascript">
var viewWidth = 859;
var viewHeight = 871;
var sectionId = 'dynsection-0';
</script>
<script xlink:href="../../svgpan.js"/>
<svg id="graph" class="graph">
<g id="viewport">
<title>pidTPCTaskQA</title>
<!-- Node1 -->
<g id="node1" class="node">
<title>Node1</title>
<polygon fill="#bfbfbf" stroke="#000000" points="350.0508,-.5 350.0508,-68.5 436.0508,-68.5 436.0508,-.5 350.0508,-.5"/>
<text text-anchor="middle" x="393.0508" y="-56.5" font-family="Helvetica,sans-Serif" font-size="10.00" fill="#000000">pidTPCTaskQA</text>
<polyline fill="none" stroke="#000000" points="350.0508,-49.5 436.0508,-49.5 "/>
<text text-anchor="middle" x="393.0508" y="-37.5" font-family="Helvetica,sans-Serif" font-size="10.00" fill="#000000"> </text>
<polyline fill="none" stroke="#000000" points="350.0508,-30.5 436.0508,-30.5 "/>
<text text-anchor="start" x="358.0508" y="-18.5" font-family="Helvetica,sans-Serif" font-size="10.00" fill="#000000">+ init()</text>
<text text-anchor="start" x="358.0508" y="-7.5" font-family="Helvetica,sans-Serif" font-size="10.00" fill="#000000">+ process()</text>
</g>
<!-- Node2 -->
<g id="node2" class="node">
<title>Node2</title>
<g id="a_node2"><a xlink:href="../../d4/d79/structo2_1_1framework_1_1OutputObj.html" target="_top" xlink:title="{o2::framework::OutputObj\l\&lt; experimental::histhelpers\l::HistFolder \&gt;\n||+ spec()\l+ OutputObj()\l+ OutputObj()\l+ setObject()\l+ setObject()\l+ setObject()\l+ setObject()\l+ setHash()\l+ operator&#45;\&gt;()\l+ operator*()\l+ ref()\l}">
<polygon fill="none" stroke="#000000" points="316.5508,-149.5 316.5508,-338.5 469.5508,-338.5 469.5508,-149.5 316.5508,-149.5"/>
<text text-anchor="start" x="324.5508" y="-326.5" font-family="Helvetica,sans-Serif" font-size="10.00" fill="#000000">o2::framework::OutputObj</text>
<text text-anchor="start" x="324.5508" y="-315.5" font-family="Helvetica,sans-Serif" font-size="10.00" fill="#000000">&lt; experimental::histhelpers</text>
<text text-anchor="middle" x="393.0508" y="-304.5" font-family="Helvetica,sans-Serif" font-size="10.00" fill="#000000">::HistFolder &gt;</text>
<polyline fill="none" stroke="#000000" points="316.5508,-297.5 469.5508,-297.5 "/>
<text text-anchor="middle" x="393.0508" y="-285.5" font-family="Helvetica,sans-Serif" font-size="10.00" fill="#000000"> </text>
<polyline fill="none" stroke="#000000" points="316.5508,-278.5 469.5508,-278.5 "/>
<text text-anchor="start" x="324.5508" y="-266.5" font-family="Helvetica,sans-Serif" font-size="10.00" fill="#000000">+ spec()</text>
<text text-anchor="start" x="324.5508" y="-255.5" font-family="Helvetica,sans-Serif" font-size="10.00" fill="#000000">+ OutputObj()</text>
<text text-anchor="start" x="324.5508" y="-244.5" font-family="Helvetica,sans-Serif" font-size="10.00" fill="#000000">+ OutputObj()</text>
<text text-anchor="start" x="324.5508" y="-233.5" font-family="Helvetica,sans-Serif" font-size="10.00" fill="#000000">+ setObject()</text>
<text text-anchor="start" x="324.5508" y="-222.5" font-family="Helvetica,sans-Serif" font-size="10.00" fill="#000000">+ setObject()</text>
<text text-anchor="start" x="324.5508" y="-211.5" font-family="Helvetica,sans-Serif" font-size="10.00" fill="#000000">+ setObject()</text>
<text text-anchor="start" x="324.5508" y="-200.5" font-family="Helvetica,sans-Serif" font-size="10.00" fill="#000000">+ setObject()</text>
<text text-anchor="start" x="324.5508" y="-189.5" font-family="Helvetica,sans-Serif" font-size="10.00" fill="#000000">+ setHash()</text>
<text text-anchor="start" x="324.5508" y="-178.5" font-family="Helvetica,sans-Serif" font-size="10.00" fill="#000000">+ operator&#45;&gt;()</text>
<text text-anchor="start" x="324.5508" y="-167.5" font-family="Helvetica,sans-Serif" font-size="10.00" fill="#000000">+ operator*()</text>
<text text-anchor="start" x="324.5508" y="-156.5" font-family="Helvetica,sans-Serif" font-size="10.00" fill="#000000">+ ref()</text>
</a>
</g>
</g>
<!-- Node2&#45;&gt;Node1 -->
<g id="edge1" class="edge">
<title>Node2&#45;&gt;Node1</title>
<path fill="none" stroke="#404040" d="M393.0508,-149.3632C393.0508,-125.4768 393.0508,-100.8824 393.0508,-80.6107"/>
<polygon fill="none" stroke="#404040" points="393.0509,-80.5923 389.0508,-74.5923 393.0508,-68.5923 397.0508,-74.5923 393.0509,-80.5923"/>
<text text-anchor="middle" x="430.5508" y="-123" font-family="Helvetica,sans-Serif" font-size="10.00" fill="#000000"> +expected</text>
<text text-anchor="middle" x="430.5508" y="-112" font-family="Helvetica,sans-Serif" font-size="10.00" fill="#000000">+nsigma</text>
<text text-anchor="middle" x="430.5508" y="-101" font-family="Helvetica,sans-Serif" font-size="10.00" fill="#000000">+expected_diff</text>
<text text-anchor="middle" x="430.5508" y="-90" font-family="Helvetica,sans-Serif" font-size="10.00" fill="#000000">+event</text>
</g>
<!-- Node3 -->
<g id="node3" class="node">
<title>Node3</title>
<polygon fill="none" stroke="#bfbfbf" points="22.5508,-640 22.5508,-697 161.5508,-697 161.5508,-640 22.5508,-640"/>
<text text-anchor="middle" x="92.0508" y="-685" font-family="Helvetica,sans-Serif" font-size="10.00" fill="#000000">OutputObjHandlingPolicy</text>
<polyline fill="none" stroke="#bfbfbf" points="22.5508,-678 161.5508,-678 "/>
<text text-anchor="middle" x="92.0508" y="-666" font-family="Helvetica,sans-Serif" font-size="10.00" fill="#000000"> </text>
<polyline fill="none" stroke="#bfbfbf" points="22.5508,-659 161.5508,-659 "/>
<text text-anchor="middle" x="92.0508" y="-647" font-family="Helvetica,sans-Serif" font-size="10.00" fill="#000000"> </text>
</g>
<!-- Node3&#45;&gt;Node2 -->
<g id="edge2" class="edge">
<title>Node3&#45;&gt;Node2</title>
<path fill="none" stroke="#404040" d="M85.456,-639.9845C74.9607,-587.3031 60.2772,-473.1625 109.0508,-397 153.0713,-328.2598 239.0227,-288.1983 304.891,-266.4415"/>
<polygon fill="none" stroke="#404040" points="305.0959,-266.376 309.5912,-260.7375 316.5249,-262.7183 312.0297,-268.3568 305.0959,-266.376"/>
<text text-anchor="middle" x="129.5508" y="-478.5" font-family="Helvetica,sans-Serif" font-size="10.00" fill="#000000"> +policy</text>
</g>
<!-- Node12 -->
<g id="node12" class="node">
<title>Node12</title>
<g id="a_node12"><a xlink:href="../../d4/d79/structo2_1_1framework_1_1OutputObj.html" target="_top" xlink:title="{o2::framework::OutputObj\&lt; T \&gt;\n||+ OutputObj()\l+ OutputObj()\l+ setObject()\l+ setObject()\l+ setObject()\l+ setObject()\l+ setHash()\l+ spec()\l+ operator&#45;\&gt;()\l+ operator*()\l+ ref()\l}">
<polygon fill="none" stroke="#000000" points="159.0508,-397.5 159.0508,-564.5 331.0508,-564.5 331.0508,-397.5 159.0508,-397.5"/>
<text text-anchor="middle" x="245.0508" y="-552.5" font-family="Helvetica,sans-Serif" font-size="10.00" fill="#000000">o2::framework::OutputObj&lt; T &gt;</text>
<polyline fill="none" stroke="#000000" points="159.0508,-545.5 331.0508,-545.5 "/>
<text text-anchor="middle" x="245.0508" y="-533.5" font-family="Helvetica,sans-Serif" font-size="10.00" fill="#000000"> </text>
<polyline fill="none" stroke="#000000" points="159.0508,-526.5 331.0508,-526.5 "/>
<text text-anchor="start" x="167.0508" y="-514.5" font-family="Helvetica,sans-Serif" font-size="10.00" fill="#000000">+ OutputObj()</text>
<text text-anchor="start" x="167.0508" y="-503.5" font-family="Helvetica,sans-Serif" font-size="10.00" fill="#000000">+ OutputObj()</text>
<text text-anchor="start" x="167.0508" y="-492.5" font-family="Helvetica,sans-Serif" font-size="10.00" fill="#000000">+ setObject()</text>
<text text-anchor="start" x="167.0508" y="-481.5" font-family="Helvetica,sans-Serif" font-size="10.00" fill="#000000">+ setObject()</text>
<text text-anchor="start" x="167.0508" y="-470.5" font-family="Helvetica,sans-Serif" font-size="10.00" fill="#000000">+ setObject()</text>
<text text-anchor="start" x="167.0508" y="-459.5" font-family="Helvetica,sans-Serif" font-size="10.00" fill="#000000">+ setObject()</text>
<text text-anchor="start" x="167.0508" y="-448.5" font-family="Helvetica,sans-Serif" font-size="10.00" fill="#000000">+ setHash()</text>
<text text-anchor="start" x="167.0508" y="-437.5" font-family="Helvetica,sans-Serif" font-size="10.00" fill="#000000">+ spec()</text>
<text text-anchor="start" x="167.0508" y="-426.5" font-family="Helvetica,sans-Serif" font-size="10.00" fill="#000000">+ operator&#45;&gt;()</text>
<text text-anchor="start" x="167.0508" y="-415.5" font-family="Helvetica,sans-Serif" font-size="10.00" fill="#000000">+ operator*()</text>
<text text-anchor="start" x="167.0508" y="-404.5" font-family="Helvetica,sans-Serif" font-size="10.00" fill="#000000">+ ref()</text>
</a>
</g>
</g>
<!-- Node3&#45;&gt;Node12 -->
<g id="edge13" class="edge">
<title>Node3&#45;&gt;Node12</title>
<path fill="none" stroke="#404040" d="M106.9206,-639.6357C116.3101,-622.4993 129.2459,-600.7281 143.0508,-583 145.6292,-579.6888 148.3072,-576.374 151.0605,-573.0703"/>
<polygon fill="none" stroke="#404040" points="151.1934,-572.9152 152.0586,-565.7562 158.9998,-563.8014 158.1345,-570.9604 151.1934,-572.9152"/>
<text text-anchor="middle" x="163.5508" y="-586" font-family="Helvetica,sans-Serif" font-size="10.00" fill="#000000"> +policy</text>
</g>
<!-- Node4 -->
<g id="node4" class="node">
<title>Node4</title>
<g id="a_node4"><a xlink:href="../../d3/d87/classuint32__t.html" target="_top" xlink:title="{uint32_t\n||}">
<polygon fill="none" stroke="#000000" points="368.0508,-640 368.0508,-697 424.0508,-697 424.0508,-640 368.0508,-640"/>
<text text-anchor="middle" x="396.0508" y="-685" font-family="Helvetica,sans-Serif" font-size="10.00" fill="#000000">uint32_t</text>
<polyline fill="none" stroke="#000000" points="368.0508,-678 424.0508,-678 "/>
<text text-anchor="middle" x="396.0508" y="-666" font-family="Helvetica,sans-Serif" font-size="10.00" fill="#000000"> </text>
<polyline fill="none" stroke="#000000" points="368.0508,-659 424.0508,-659 "/>
<text text-anchor="middle" x="396.0508" y="-647" font-family="Helvetica,sans-Serif" font-size="10.00" fill="#000000"> </text>
</a>
</g>
</g>
<!-- Node4&#45;&gt;Node2 -->
<g id="edge3" class="edge">
<title>Node4&#45;&gt;Node2</title>
<path fill="none" stroke="#404040" d="M395.8493,-639.9882C395.4386,-581.8721 394.486,-447.0889 393.8065,-350.9328"/>
<polygon fill="none" stroke="#404040" points="393.8058,-350.8158 389.7634,-344.8442 393.7209,-338.8161 397.7632,-344.7876 393.8058,-350.8158"/>
<text text-anchor="middle" x="430.0508" y="-478.5" font-family="Helvetica,sans-Serif" font-size="10.00" fill="#000000"> +mTaskHash</text>
</g>
<!-- Node4&#45;&gt;Node12 -->
<g id="edge14" class="edge">
<title>Node4&#45;&gt;Node12</title>
<path fill="none" stroke="#404040" d="M381.5835,-639.9126C375.434,-630.0034 367.4851,-619.5087 358.0508,-612 340.549,-598.0704 328.1019,-608.4778 311.0508,-594 304.3236,-588.2881 298.1184,-581.708 292.4317,-574.6546"/>
<polygon fill="none" stroke="#404040" points="292.2153,-574.3672 285.411,-571.9794 284.998,-564.7801 291.8023,-567.1679 292.2153,-574.3672"/>
<text text-anchor="middle" x="345.0508" y="-586" font-family="Helvetica,sans-Serif" font-size="10.00" fill="#000000"> +mTaskHash</text>
</g>
<!-- Node5 -->
<g id="node5" class="node">
<title>Node5</title>
<polygon fill="none" stroke="#bfbfbf" points="183.5508,-789 183.5508,-846 212.5508,-846 212.5508,-789 183.5508,-789"/>
<text text-anchor="middle" x="198.0508" y="-834" font-family="Helvetica,sans-Serif" font-size="10.00" fill="#000000">int</text>
<polyline fill="none" stroke="#bfbfbf" points="183.5508,-827 212.5508,-827 "/>
<text text-anchor="middle" x="198.0508" y="-815" font-family="Helvetica,sans-Serif" font-size="10.00" fill="#000000"> </text>
<polyline fill="none" stroke="#bfbfbf" points="183.5508,-808 212.5508,-808 "/>
<text text-anchor="middle" x="198.0508" y="-796" font-family="Helvetica,sans-Serif" font-size="10.00" fill="#000000"> </text>
</g>
<!-- Node5&#45;&gt;Node2 -->
<g id="edge4" class="edge">
<title>Node5&#45;&gt;Node2</title>
<path fill="none" stroke="#404040" d="M183.2894,-815.3598C146.6373,-809.1598 51.6574,-787.4667 13.0508,-725 -34.5153,-648.0365 67.7278,-402.1296 71.0508,-397 122.717,-317.2453 228.2332,-278.1222 304.4218,-259.5809"/>
<polygon fill="none" stroke="#404040" points="304.7013,-259.5156 309.631,-254.2526 316.3851,-256.7788 311.4554,-262.0418 304.7013,-259.5156"/>
<text text-anchor="middle" x="29.0508" y="-586" font-family="Helvetica,sans-Serif" font-size="10.00" fill="#000000"> +label</text>
</g>
<!-- Node7 -->
<g id="node7" class="node">
<title>Node7</title>
<g id="a_node7"><a xlink:href="../../da/d96/structo2_1_1framework_1_1InputSpec.html" target="_top" xlink:title="{o2::framework::InputSpec\n||+ InputSpec()\l+ InputSpec()\l+ InputSpec()\l+ InputSpec()\l+ InputSpec()\l+ operator==()\l}">
<polygon fill="none" stroke="#000000" points="442.0508,-612.5 442.0508,-724.5 584.0508,-724.5 584.0508,-612.5 442.0508,-612.5"/>
<text text-anchor="middle" x="513.0508" y="-712.5" font-family="Helvetica,sans-Serif" font-size="10.00" fill="#000000">o2::framework::InputSpec</text>
<polyline fill="none" stroke="#000000" points="442.0508,-705.5 584.0508,-705.5 "/>
<text text-anchor="middle" x="513.0508" y="-693.5" font-family="Helvetica,sans-Serif" font-size="10.00" fill="#000000"> </text>
<polyline fill="none" stroke="#000000" points="442.0508,-686.5 584.0508,-686.5 "/>
<text text-anchor="start" x="450.0508" y="-674.5" font-family="Helvetica,sans-Serif" font-size="10.00" fill="#000000">+ InputSpec()</text>
<text text-anchor="start" x="450.0508" y="-663.5" font-family="Helvetica,sans-Serif" font-size="10.00" fill="#000000">+ InputSpec()</text>
<text text-anchor="start" x="450.0508" y="-652.5" font-family="Helvetica,sans-Serif" font-size="10.00" fill="#000000">+ InputSpec()</text>
<text text-anchor="start" x="450.0508" y="-641.5" font-family="Helvetica,sans-Serif" font-size="10.00" fill="#000000">+ InputSpec()</text>
<text text-anchor="start" x="450.0508" y="-630.5" font-family="Helvetica,sans-Serif" font-size="10.00" fill="#000000">+ InputSpec()</text>
<text text-anchor="start" x="450.0508" y="-619.5" font-family="Helvetica,sans-Serif" font-size="10.00" fill="#000000">+ operator==()</text>
</a>
</g>
</g>
<!-- Node5&#45;&gt;Node7 -->
<g id="edge10" class="edge">
<title>Node5&#45;&gt;Node7</title>
<path fill="none" stroke="#404040" d="M212.7906,-811.5665C234.4997,-802.8389 276.3604,-786.0537 312.0508,-772 323.7934,-767.3762 397.8978,-740.0829 430.4983,-725.5348"/>
<polygon fill="none" stroke="#404040" points="430.8116,-725.3841 434.4853,-719.1789 441.6261,-720.1834 437.9524,-726.3886 430.8116,-725.3841"/>
<text text-anchor="middle" x="410.0508" y="-746" font-family="Helvetica,sans-Serif" font-size="10.00" fill="#000000"> +binding</text>
</g>
<!-- Node5&#45;&gt;Node12 -->
<g id="edge15" class="edge">
<title>Node5&#45;&gt;Node12</title>
<path fill="none" stroke="#404040" d="M197.1617,-788.6876C196.4158,-748.7321 196.7903,-674.3706 207.0508,-612 208.968,-600.346 211.5805,-588.2606 214.5446,-576.3543"/>
<polygon fill="none" stroke="#404040" points="214.5987,-576.1456 212.2342,-569.3331 217.6132,-564.5303 219.9777,-571.3428 214.5987,-576.1456"/>
<text text-anchor="middle" x="225.0508" y="-666" font-family="Helvetica,sans-Serif" font-size="10.00" fill="#000000"> +label</text>
</g>
<!-- Node6 -->
<g id="node6" class="node">
<title>Node6</title>
<polygon fill="none" stroke="#bfbfbf" points="602.0508,-640 602.0508,-697 640.0508,-697 640.0508,-640 602.0508,-640"/>
<text text-anchor="middle" x="621.0508" y="-685" font-family="Helvetica,sans-Serif" font-size="10.00" fill="#000000">bool</text>
<polyline fill="none" stroke="#bfbfbf" points="602.0508,-678 640.0508,-678 "/>
<text text-anchor="middle" x="621.0508" y="-666" font-family="Helvetica,sans-Serif" font-size="10.00" fill="#000000"> </text>
<polyline fill="none" stroke="#bfbfbf" points="602.0508,-659 640.0508,-659 "/>
<text text-anchor="middle" x="621.0508" y="-647" font-family="Helvetica,sans-Serif" font-size="10.00" fill="#000000"> </text>
</g>
<!-- Node6&#45;&gt;Node2 -->
<g id="edge5" class="edge">
<title>Node6&#45;&gt;Node2</title>
<path fill="none" stroke="#404040" d="M623.0442,-639.7783C625.3283,-587.7384 624.0368,-475.9429 579.0508,-397 555.5865,-355.8241 516.4388,-321.1173 480.095,-295.2228"/>
<polygon fill="none" stroke="#404040" points="479.7851,-295.0072 472.5754,-294.8647 469.9339,-288.1548 477.1436,-288.2973 479.7851,-295.0072"/>
<text text-anchor="middle" x="652.0508" y="-478.5" font-family="Helvetica,sans-Serif" font-size="10.00" fill="#000000"> +isdangling</text>
</g>
<!-- Node6&#45;&gt;Node12 -->
<g id="edge17" class="edge">
<title>Node6&#45;&gt;Node12</title>
<path fill="none" stroke="#404040" d="M612.6745,-639.7774C608.3555,-629.6105 602.0475,-618.9775 593.0508,-612 553.2036,-581.0959 417.53,-584.5589 371.0508,-565 361.1742,-560.8438 351.2487,-555.8819 341.5402,-550.476"/>
<polygon fill="none" stroke="#404040" points="341.4967,-550.4509 334.3006,-550.9165 331.1032,-544.453 338.2993,-543.9875 341.4967,-550.4509"/>
<text text-anchor="middle" x="576.0508" y="-586" font-family="Helvetica,sans-Serif" font-size="10.00" fill="#000000"> +isdangling</text>
</g>
<!-- Node7&#45;&gt;Node2 -->
<g id="edge6" class="edge">
<title>Node7&#45;&gt;Node2</title>
<path fill="none" stroke="#404040" d="M544.5337,-612.2775C547.0642,-602.6727 547.9965,-592.671 546.0508,-583 529.4625,-500.5494 490.148,-414.2437 455.5269,-349.3492"/>
<polygon fill="none" stroke="#404040" points="455.4882,-349.2771 449.1198,-345.8941 449.7932,-338.7145 456.1616,-342.0975 455.4882,-349.2771"/>
<text text-anchor="middle" x="558.0508" y="-478.5" font-family="Helvetica,sans-Serif" font-size="10.00" fill="#000000"> +spec</text>
</g>
<!-- Node7&#45;&gt;Node12 -->
<g id="edge18" class="edge">
<title>Node7&#45;&gt;Node12</title>
<path fill="none" stroke="#404040" d="M441.9672,-618.2623C438.9559,-616.1451 435.974,-614.0507 433.0508,-612 403.2064,-591.0636 370.6379,-568.3297 341.12,-547.768"/>
<polygon fill="none" stroke="#404040" points="341.0823,-547.7418 333.8726,-547.5953 331.2349,-540.8839 338.4445,-541.0304 341.0823,-547.7418"/>
<text text-anchor="middle" x="420.0508" y="-586" font-family="Helvetica,sans-Serif" font-size="10.00" fill="#000000"> +spec</text>
</g>
<!-- Node8 -->
<g id="node8" class="node">
<title>Node8</title>
<polygon fill="none" stroke="#bfbfbf" points="321.0508,-783.5 321.0508,-851.5 451.0508,-851.5 451.0508,-783.5 321.0508,-783.5"/>
<text text-anchor="start" x="329.0508" y="-839.5" font-family="Helvetica,sans-Serif" font-size="10.00" fill="#000000">vector&lt; o2::framework</text>
<text text-anchor="middle" x="386.0508" y="-828.5" font-family="Helvetica,sans-Serif" font-size="10.00" fill="#000000">::ConfigParamSpec &gt;</text>
<polyline fill="none" stroke="#bfbfbf" points="321.0508,-821.5 451.0508,-821.5 "/>
<text text-anchor="middle" x="386.0508" y="-809.5" font-family="Helvetica,sans-Serif" font-size="10.00" fill="#000000"> </text>
<polyline fill="none" stroke="#bfbfbf" points="321.0508,-802.5 451.0508,-802.5 "/>
<text text-anchor="middle" x="386.0508" y="-790.5" font-family="Helvetica,sans-Serif" font-size="10.00" fill="#000000"> </text>
</g>
<!-- Node8&#45;&gt;Node7 -->
<g id="edge7" class="edge">
<title>Node8&#45;&gt;Node7</title>
<path fill="none" stroke="#404040" d="M415.1872,-783.3164C427.6686,-768.6728 442.6848,-751.0553 457.1651,-734.0666"/>
<polygon fill="none" stroke="#404040" points="457.3508,-733.8487 458.1987,-726.6876 465.1351,-724.716 464.2872,-731.8771 457.3508,-733.8487"/>
<text text-anchor="middle" x="479.5508" y="-746" font-family="Helvetica,sans-Serif" font-size="10.00" fill="#000000"> +metadata</text>
</g>
<!-- Node9 -->
<g id="node9" class="node">
<title>Node9</title>
<polygon fill="none" stroke="#bfbfbf" points="469.0508,-789 469.0508,-846 557.0508,-846 557.0508,-789 469.0508,-789"/>
<text text-anchor="middle" x="513.0508" y="-834" font-family="Helvetica,sans-Serif" font-size="10.00" fill="#000000">enum Lifetime</text>
<polyline fill="none" stroke="#bfbfbf" points="469.0508,-827 557.0508,-827 "/>
<text text-anchor="middle" x="513.0508" y="-815" font-family="Helvetica,sans-Serif" font-size="10.00" fill="#000000"> </text>
<polyline fill="none" stroke="#bfbfbf" points="469.0508,-808 557.0508,-808 "/>
<text text-anchor="middle" x="513.0508" y="-796" font-family="Helvetica,sans-Serif" font-size="10.00" fill="#000000"> </text>
</g>
<!-- Node9&#45;&gt;Node7 -->
<g id="edge8" class="edge">
<title>Node9&#45;&gt;Node7</title>
<path fill="none" stroke="#404040" d="M513.0508,-788.7713C513.0508,-773.9277 513.0508,-755.1262 513.0508,-736.825"/>
<polygon fill="none" stroke="#404040" points="513.0509,-736.6049 509.0508,-730.605 513.0508,-724.6049 517.0508,-730.6049 513.0509,-736.6049"/>
<text text-anchor="middle" x="538.0508" y="-746" font-family="Helvetica,sans-Serif" font-size="10.00" fill="#000000"> +lifetime</text>
</g>
<!-- Node10 -->
<g id="node10" class="node">
<title>Node10</title>
<polygon fill="none" stroke="#bfbfbf" points="575.0508,-772.5 575.0508,-862.5 739.0508,-862.5 739.0508,-772.5 575.0508,-772.5"/>
<text text-anchor="start" x="583.0508" y="-850.5" font-family="Helvetica,sans-Serif" font-size="10.00" fill="#000000">variant&lt; o2::framework</text>
<text text-anchor="start" x="583.0508" y="-839.5" font-family="Helvetica,sans-Serif" font-size="10.00" fill="#000000">::ConcreteDataMatcher,</text>
<text text-anchor="start" x="583.0508" y="-828.5" font-family="Helvetica,sans-Serif" font-size="10.00" fill="#000000"> o2::framework::data_matcher</text>
<text text-anchor="middle" x="657.0508" y="-817.5" font-family="Helvetica,sans-Serif" font-size="10.00" fill="#000000">::DataDescriptorMatcher &gt;</text>
<polyline fill="none" stroke="#bfbfbf" points="575.0508,-810.5 739.0508,-810.5 "/>
<text text-anchor="middle" x="657.0508" y="-798.5" font-family="Helvetica,sans-Serif" font-size="10.00" fill="#000000"> </text>
<polyline fill="none" stroke="#bfbfbf" points="575.0508,-791.5 739.0508,-791.5 "/>
<text text-anchor="middle" x="657.0508" y="-779.5" font-family="Helvetica,sans-Serif" font-size="10.00" fill="#000000"> </text>
</g>
<!-- Node10&#45;&gt;Node7 -->
<g id="edge9" class="edge">
<title>Node10&#45;&gt;Node7</title>
<path fill="none" stroke="#404040" d="M613.4553,-772.3907C601.6178,-760.1423 588.5605,-746.6316 575.8881,-733.5191"/>
<polygon fill="none" stroke="#404040" points="575.5354,-733.1542 568.4895,-731.6195 567.1961,-724.5254 574.242,-726.06 575.5354,-733.1542"/>
<text text-anchor="middle" x="619.0508" y="-746" font-family="Helvetica,sans-Serif" font-size="10.00" fill="#000000"> +matcher</text>
</g>
<!-- Node11 -->
<g id="node11" class="node">
<title>Node11</title>
<polygon fill="none" stroke="#bfbfbf" points="705.5508,-447 705.5508,-515 850.5508,-515 850.5508,-447 705.5508,-447"/>
<text text-anchor="start" x="713.5508" y="-503" font-family="Helvetica,sans-Serif" font-size="10.00" fill="#000000">shared_ptr&lt; experimental</text>
<text text-anchor="middle" x="778.0508" y="-492" font-family="Helvetica,sans-Serif" font-size="10.00" fill="#000000">::histhelpers::HistFolder &gt;</text>
<polyline fill="none" stroke="#bfbfbf" points="705.5508,-485 850.5508,-485 "/>
<text text-anchor="middle" x="778.0508" y="-473" font-family="Helvetica,sans-Serif" font-size="10.00" fill="#000000"> </text>
<polyline fill="none" stroke="#bfbfbf" points="705.5508,-466 850.5508,-466 "/>
<text text-anchor="middle" x="778.0508" y="-454" font-family="Helvetica,sans-Serif" font-size="10.00" fill="#000000"> </text>
</g>
<!-- Node11&#45;&gt;Node2 -->
<g id="edge11" class="edge">
<title>Node11&#45;&gt;Node2</title>
<path fill="none" stroke="#404040" d="M744.5852,-446.9763C728.7465,-431.3236 709.3333,-412.7709 691.0508,-397 668.9725,-377.9548 664.0123,-372.0697 639.0508,-357 588.7651,-326.6416 528.9462,-298.9926 480.8877,-278.6432"/>
<polygon fill="none" stroke="#404040" points="480.6321,-278.536 473.5517,-279.9024 469.5671,-273.8922 476.6476,-272.5257 480.6321,-278.536"/>
<text text-anchor="middle" x="690.0508" y="-365.5" font-family="Helvetica,sans-Serif" font-size="10.00" fill="#000000"> +object</text>
</g>
<!-- Node12&#45;&gt;Node2 -->
<g id="edge12" class="edge">
<title>Node12&#45;&gt;Node2</title>
<path fill="none" stroke="#ffa500" d="M230.2748,-387.2904C231.5662,-376.7275 234.2902,-366.3979 239.0508,-357 255.6096,-324.3113 286.5658,-298.7887 316.4053,-280.3362"/>
<polygon fill="#ffa500" stroke="#ffa500" points="226.7694,-387.2179 229.4557,-397.4665 233.7468,-387.7796 226.7694,-387.2179"/>
<text text-anchor="start" x="239.0508" y="-371" font-family="Helvetica,sans-Serif" font-size="10.00" fill="#000000"> &lt; experimental::histhelpers</text>
<text text-anchor="middle" x="309.0508" y="-360" font-family="Helvetica,sans-Serif" font-size="10.00" fill="#000000">::HistFolder &gt;</text>
</g>
<!-- Node13 -->
<g id="node13" class="node">
<title>Node13</title>
<polygon fill="none" stroke="#bfbfbf" points="252.5508,-640 252.5508,-697 349.5508,-697 349.5508,-640 252.5508,-640"/>
<text text-anchor="middle" x="301.0508" y="-685" font-family="Helvetica,sans-Serif" font-size="10.00" fill="#000000">shared_ptr&lt; T &gt;</text>
<polyline fill="none" stroke="#bfbfbf" points="252.5508,-678 349.5508,-678 "/>
<text text-anchor="middle" x="301.0508" y="-666" font-family="Helvetica,sans-Serif" font-size="10.00" fill="#000000"> </text>
<polyline fill="none" stroke="#bfbfbf" points="252.5508,-659 349.5508,-659 "/>
<text text-anchor="middle" x="301.0508" y="-647" font-family="Helvetica,sans-Serif" font-size="10.00" fill="#000000"> </text>
</g>
<!-- Node13&#45;&gt;Node12 -->
<g id="edge16" class="edge">
<title>Node13&#45;&gt;Node12</title>
<path fill="none" stroke="#404040" d="M273.2556,-639.8113C262.5966,-626.8872 251.6539,-610.7734 246.0508,-594 244.2054,-588.4757 242.7746,-582.7131 241.687,-576.8416"/>
<polygon fill="none" stroke="#404040" points="241.645,-576.5528 236.8212,-571.1926 239.9137,-564.6783 244.7375,-570.0385 241.645,-576.5528"/>
<text text-anchor="middle" x="267.0508" y="-586" font-family="Helvetica,sans-Serif" font-size="10.00" fill="#000000"> +object</text>
</g>
</g>
</svg>
        <g id="navigator" transform="translate(0 0)" fill="#404254">
                <rect fill="#f2f5e9" fill-opacity="0.5" stroke="#606060" stroke-width=".5" x="0" y="0" width="60" height="60"/>
                <use id="zoomplus" xlink:href="#zoomPlus" x="17" y="9" onmousedown="handleZoom(evt,'in')"/>
                <use id="zoomminus" xlink:href="#zoomMin" x="42" y="9" onmousedown="handleZoom(evt,'out')"/>
                <use id="reset" xlink:href="#resetDef" x="30" y="36" onmousedown="handleReset()"/>
                <g id="arrowUp" xlink:href="#dirArrow" transform="translate(30 24)" onmousedown="handlePan(0,-1)">
                  <use xlink:href="#rim" fill="#404040">
                        <set attributeName="fill" to="#808080" begin="arrowUp.mouseover" end="arrowUp.mouseout"/>
                  </use>
                  <path fill="none" stroke="white" stroke-width="1.5" d="M0,-3.0v7 M-2.5,-0.5L0,-3.0L2.5,-0.5"/>
                </g>
                <g id="arrowRight" xlink:href="#dirArrow" transform="rotate(90) translate(36 -43)" onmousedown="handlePan(1,0)">
                  <use xlink:href="#rim" fill="#404040">
                        <set attributeName="fill" to="#808080" begin="arrowRight.mouseover" end="arrowRight.mouseout"/>
                  </use>
                  <path fill="none" stroke="white" stroke-width="1.5" d="M0,-3.0v7 M-2.5,-0.5L0,-3.0L2.5,-0.5"/>
                </g>
                <g id="arrowDown" xlink:href="#dirArrow" transform="rotate(180) translate(-30 -48)" onmousedown="handlePan(0,1)">
                  <use xlink:href="#rim" fill="#404040">
                        <set attributeName="fill" to="#808080" begin="arrowDown.mouseover" end="arrowDown.mouseout"/>
                  </use>
                  <path fill="none" stroke="white" stroke-width="1.5" d="M0,-3.0v7 M-2.5,-0.5L0,-3.0L2.5,-0.5"/>
                </g>
                <g id="arrowLeft" xlink:href="#dirArrow" transform="rotate(270) translate(-36 17)" onmousedown="handlePan(-1,0)">
                  <use xlink:href="#rim" fill="#404040">
                        <set attributeName="fill" to="#808080" begin="arrowLeft.mouseover" end="arrowLeft.mouseout"/>
                  </use>
                  <path fill="none" stroke="white" stroke-width="1.5" d="M0,-3.0v7 M-2.5,-0.5L0,-3.0L2.5,-0.5"/>
                </g>
        </g>
        <svg viewBox="0 0 15 15" width="100%" height="30px" preserveAspectRatio="xMaxYMin meet">
         <g id="arrow_out" transform="scale(0.3 0.3)">
          <a xlink:href="structpidTPCTaskQA__coll__graph_org.svg" target="_base">
           <rect id="button" ry="5" rx="5" y="6" x="6" height="38" width="38"
                fill="#f2f5e9" fill-opacity="0.5" stroke="#606060" stroke-width="1.0"/>
           <path id="arrow"
             d="M 11.500037,31.436501 C 11.940474,20.09759 22.043105,11.32322 32.158766,21.979434 L 37.068811,17.246167 C 37.068811,17.246167 37.088388,32 37.088388,32 L 22.160133,31.978069 C 22.160133,31.978069 26.997745,27.140456 26.997745,27.140456 C 18.528582,18.264221 13.291696,25.230495 11.500037,31.436501 z"
             style="fill:#404040;"/>
          </a>
         </g>
        </svg>
</svg>
