<?xml version="1.0" encoding="UTF-8" standalone="no"?>
<!DOCTYPE svg PUBLIC "-//W3C//DTD SVG 1.1//EN"
 "http://www.w3.org/Graphics/SVG/1.1/DTD/svg11.dtd">
<!-- Generated by graphviz version 2.40.1 (20161225.0304)
 -->
<!-- Title: /home/travis/build/AliceO2Group/AliceO2/DataFormats/Detectors/TPC/include/DataFormatsTPC/ClusterNativeHelper.h Pages: 1 -->
<svg width="2003pt" height="361pt"
 viewBox="0.00 0.00 2002.50 361.00" xmlns="http://www.w3.org/2000/svg" xmlns:xlink="http://www.w3.org/1999/xlink">
<g id="graph0" class="graph" transform="scale(1 1) rotate(0) translate(4 357)">
<title>/home/travis/build/AliceO2Group/AliceO2/DataFormats/Detectors/TPC/include/DataFormatsTPC/ClusterNativeHelper.h</title>
<!-- Node30 -->
<g id="node1" class="node">
<title>Node30</title>
<polygon fill="#bfbfbf" stroke="#000000" points="1086.5,-289.5 1086.5,-352.5 1247.5,-352.5 1247.5,-289.5 1086.5,-289.5"/>
<text text-anchor="start" x="1094.5" y="-340.5" font-family="Helvetica,sans-Serif" font-size="10.00" fill="#000000">/home/travis/build</text>
<text text-anchor="start" x="1094.5" y="-329.5" font-family="Helvetica,sans-Serif" font-size="10.00" fill="#000000">/AliceO2Group/AliceO2</text>
<text text-anchor="start" x="1094.5" y="-318.5" font-family="Helvetica,sans-Serif" font-size="10.00" fill="#000000">/DataFormats/Detectors</text>
<text text-anchor="start" x="1094.5" y="-307.5" font-family="Helvetica,sans-Serif" font-size="10.00" fill="#000000">/TPC/include/DataFormatsTPC</text>
<text text-anchor="middle" x="1167" y="-296.5" font-family="Helvetica,sans-Serif" font-size="10.00" fill="#000000">/ClusterNativeHelper.h</text>
</g>
<!-- Node31 -->
<g id="node2" class="node">
<title>Node31</title>
<g id="a_node2"><a xlink:href="../../d5/d1e/ClusterNativeHelper_8cxx.html" target="_top" xlink:title="Helper class to read the binary format of TPC ClusterNative. ">
<polygon fill="none" stroke="#000000" points="356.5,-195 356.5,-247 533.5,-247 533.5,-195 356.5,-195"/>
<text text-anchor="start" x="364.5" y="-235" font-family="Helvetica,sans-Serif" font-size="10.00" fill="#000000">/home/travis/build</text>
<text text-anchor="start" x="364.5" y="-224" font-family="Helvetica,sans-Serif" font-size="10.00" fill="#000000">/AliceO2Group/AliceO2</text>
<text text-anchor="start" x="364.5" y="-213" font-family="Helvetica,sans-Serif" font-size="10.00" fill="#000000">/DataFormats/Detectors</text>
<text text-anchor="middle" x="445" y="-202" font-family="Helvetica,sans-Serif" font-size="10.00" fill="#000000">/TPC/src/ClusterNativeHelper.cxx</text>
</a>
</g>
</g>
<!-- Node30&#45;&gt;Node31 -->
<g id="edge1" class="edge">
<title>Node30&#45;&gt;Node31</title>
<path fill="none" stroke="#191970" d="M1076.1328,-317.1048C953.6324,-310.4976 729.2725,-293.6042 542,-253 534.288,-251.3279 526.3262,-249.2702 518.4344,-247.0115"/>
<polygon fill="#191970" stroke="#191970" points="1076.0487,-320.6052 1086.2195,-317.638 1076.4183,-313.6149 1076.0487,-320.6052"/>
</g>
<!-- Node32 -->
<g id="node3" class="node">
<title>Node32</title>
<g id="a_node3"><a xlink:href="../../d3/dac/MatchTPCITS_8h.html" target="_top" xlink:title="Class to perform TPC ITS matching. ">
<polygon fill="none" stroke="#000000" points="551.5,-195 551.5,-247 756.5,-247 756.5,-195 551.5,-195"/>
<text text-anchor="start" x="559.5" y="-235" font-family="Helvetica,sans-Serif" font-size="10.00" fill="#000000">/home/travis/build</text>
<text text-anchor="start" x="559.5" y="-224" font-family="Helvetica,sans-Serif" font-size="10.00" fill="#000000">/AliceO2Group/AliceO2</text>
<text text-anchor="start" x="559.5" y="-213" font-family="Helvetica,sans-Serif" font-size="10.00" fill="#000000">/Detectors/GlobalTracking</text>
<text text-anchor="middle" x="654" y="-202" font-family="Helvetica,sans-Serif" font-size="10.00" fill="#000000">/include/GlobalTracking/MatchTPCITS.h</text>
</a>
</g>
</g>
<!-- Node30&#45;&gt;Node32 -->
<g id="edge2" class="edge">
<title>Node30&#45;&gt;Node32</title>
<path fill="none" stroke="#191970" d="M1076.4211,-303.3433C986.9507,-285.9027 850.2993,-259.265 756.8056,-241.0401"/>
<polygon fill="#191970" stroke="#191970" points="1075.7945,-306.7869 1086.2794,-305.265 1077.1338,-299.9163 1075.7945,-306.7869"/>
</g>
<!-- Node40 -->
<g id="node11" class="node">
<title>Node40</title>
<g id="a_node11"><a xlink:href="../../d6/d73/TPCITSMatchingSpec_8cxx.html" target="_top" xlink:title="/home/travis/build\l/AliceO2Group/AliceO2\l/Detectors/GlobalTrackingWorkflow\l/src/TPCITSMatchingSpec.cxx">
<polygon fill="none" stroke="#000000" points="861.5,-.5 861.5,-52.5 1048.5,-52.5 1048.5,-.5 861.5,-.5"/>
<text text-anchor="start" x="869.5" y="-40.5" font-family="Helvetica,sans-Serif" font-size="10.00" fill="#000000">/home/travis/build</text>
<text text-anchor="start" x="869.5" y="-29.5" font-family="Helvetica,sans-Serif" font-size="10.00" fill="#000000">/AliceO2Group/AliceO2</text>
<text text-anchor="start" x="869.5" y="-18.5" font-family="Helvetica,sans-Serif" font-size="10.00" fill="#000000">/Detectors/GlobalTrackingWorkflow</text>
<text text-anchor="middle" x="955" y="-7.5" font-family="Helvetica,sans-Serif" font-size="10.00" fill="#000000">/src/TPCITSMatchingSpec.cxx</text>
</a>
</g>
</g>
<!-- Node30&#45;&gt;Node40 -->
<g id="edge12" class="edge">
<title>Node30&#45;&gt;Node40</title>
<path fill="none" stroke="#191970" d="M1076.2691,-310.8909C1004.308,-300.7835 912.1098,-282.4438 889,-253 841.3316,-192.2664 899.6462,-98.169 933.7121,-52.7696"/>
<polygon fill="#191970" stroke="#191970" points="1075.8968,-314.3725 1086.2795,-312.2627 1076.8473,-307.4373 1075.8968,-314.3725"/>
</g>
<!-- Node41 -->
<g id="node12" class="node">
<title>Node41</title>
<g id="a_node12"><a xlink:href="../../d8/d85/TPCInterpolationSpec_8cxx.html" target="_top" xlink:title="/home/travis/build\l/AliceO2Group/AliceO2\l/Detectors/GlobalTrackingWorkflow\l/tpcinterpolationworkflow/src\l/TPCInterpolationSpec.cxx">
<polygon fill="none" stroke="#000000" points="898.5,-189.5 898.5,-252.5 1085.5,-252.5 1085.5,-189.5 898.5,-189.5"/>
<text text-anchor="start" x="906.5" y="-240.5" font-family="Helvetica,sans-Serif" font-size="10.00" fill="#000000">/home/travis/build</text>
<text text-anchor="start" x="906.5" y="-229.5" font-family="Helvetica,sans-Serif" font-size="10.00" fill="#000000">/AliceO2Group/AliceO2</text>
<text text-anchor="start" x="906.5" y="-218.5" font-family="Helvetica,sans-Serif" font-size="10.00" fill="#000000">/Detectors/GlobalTrackingWorkflow</text>
<text text-anchor="start" x="906.5" y="-207.5" font-family="Helvetica,sans-Serif" font-size="10.00" fill="#000000">/tpcinterpolationworkflow/src</text>
<text text-anchor="middle" x="992" y="-196.5" font-family="Helvetica,sans-Serif" font-size="10.00" fill="#000000">/TPCInterpolationSpec.cxx</text>
</a>
</g>
</g>
<!-- Node30&#45;&gt;Node41 -->
<g id="edge13" class="edge">
<title>Node30&#45;&gt;Node41</title>
<path fill="none" stroke="#191970" d="M1102.8214,-284.3265C1084.6114,-273.9208 1064.9475,-262.6843 1047.311,-252.6063"/>
<polygon fill="#191970" stroke="#191970" points="1101.21,-287.4368 1111.6289,-289.3594 1104.683,-281.3591 1101.21,-287.4368"/>
</g>
<!-- Node42 -->
<g id="node13" class="node">
<title>Node42</title>
<g id="a_node13"><a xlink:href="../../d2/d41/HardwareClusterDecoder_8h.html" target="_top" xlink:title="Decoder to convert TPC ClusterHardware to ClusterNative. ">
<polygon fill="none" stroke="#000000" points="1141.5,-189.5 1141.5,-252.5 1302.5,-252.5 1302.5,-189.5 1141.5,-189.5"/>
<text text-anchor="start" x="1149.5" y="-240.5" font-family="Helvetica,sans-Serif" font-size="10.00" fill="#000000">/home/travis/build</text>
<text text-anchor="start" x="1149.5" y="-229.5" font-family="Helvetica,sans-Serif" font-size="10.00" fill="#000000">/AliceO2Group/AliceO2</text>
<text text-anchor="start" x="1149.5" y="-218.5" font-family="Helvetica,sans-Serif" font-size="10.00" fill="#000000">/Detectors/TPC/reconstruction</text>
<text text-anchor="start" x="1149.5" y="-207.5" font-family="Helvetica,sans-Serif" font-size="10.00" fill="#000000">/include/TPCReconstruction</text>
<text text-anchor="middle" x="1222" y="-196.5" font-family="Helvetica,sans-Serif" font-size="10.00" fill="#000000">/HardwareClusterDecoder.h</text>
</a>
</g>
</g>
<!-- Node30&#45;&gt;Node42 -->
<g id="edge14" class="edge">
<title>Node30&#45;&gt;Node42</title>
<path fill="none" stroke="#191970" d="M1189.3508,-280.3622C1194.406,-271.1709 1199.702,-261.5418 1204.5221,-252.778"/>
<polygon fill="#191970" stroke="#191970" points="1186.1548,-278.9105 1184.4023,-289.3594 1192.2883,-282.2839 1186.1548,-278.9105"/>
</g>
<!-- Node43 -->
<g id="node14" class="node">
<title>Node43</title>
<g id="a_node14"><a xlink:href="../../d4/d7c/HardwareClusterDecoder_8cxx.html" target="_top" xlink:title="/home/travis/build\l/AliceO2Group/AliceO2\l/Detectors/TPC/reconstruction\l/src/HardwareClusterDecoder.cxx">
<polygon fill="none" stroke="#000000" points="1023.5,-95 1023.5,-147 1202.5,-147 1202.5,-95 1023.5,-95"/>
<text text-anchor="start" x="1031.5" y="-135" font-family="Helvetica,sans-Serif" font-size="10.00" fill="#000000">/home/travis/build</text>
<text text-anchor="start" x="1031.5" y="-124" font-family="Helvetica,sans-Serif" font-size="10.00" fill="#000000">/AliceO2Group/AliceO2</text>
<text text-anchor="start" x="1031.5" y="-113" font-family="Helvetica,sans-Serif" font-size="10.00" fill="#000000">/Detectors/TPC/reconstruction</text>
<text text-anchor="middle" x="1113" y="-102" font-family="Helvetica,sans-Serif" font-size="10.00" fill="#000000">/src/HardwareClusterDecoder.cxx</text>
</a>
</g>
</g>
<!-- Node30&#45;&gt;Node43 -->
<g id="edge18" class="edge">
<title>Node30&#45;&gt;Node43</title>
<path fill="none" stroke="#191970" d="M1143.3879,-280.4923C1139.0322,-271.6607 1134.9382,-262.1995 1132,-253 1120.6236,-217.3808 1116.0393,-174.1692 1114.205,-147.1205"/>
<polygon fill="#191970" stroke="#191970" points="1140.2985,-282.1381 1147.9844,-289.4304 1146.5236,-278.9368 1140.2985,-282.1381"/>
</g>
<!-- Node45 -->
<g id="node16" class="node">
<title>Node45</title>
<g id="a_node16"><a xlink:href="../../d4/d2e/GPUCATracking_8cxx.html" target="_top" xlink:title="/home/travis/build\l/AliceO2Group/AliceO2\l/Detectors/TPC/reconstruction\l/src/GPUCATracking.cxx">
<polygon fill="none" stroke="#000000" points="1320.5,-195 1320.5,-247 1481.5,-247 1481.5,-195 1320.5,-195"/>
<text text-anchor="start" x="1328.5" y="-235" font-family="Helvetica,sans-Serif" font-size="10.00" fill="#000000">/home/travis/build</text>
<text text-anchor="start" x="1328.5" y="-224" font-family="Helvetica,sans-Serif" font-size="10.00" fill="#000000">/AliceO2Group/AliceO2</text>
<text text-anchor="start" x="1328.5" y="-213" font-family="Helvetica,sans-Serif" font-size="10.00" fill="#000000">/Detectors/TPC/reconstruction</text>
<text text-anchor="middle" x="1401" y="-202" font-family="Helvetica,sans-Serif" font-size="10.00" fill="#000000">/src/GPUCATracking.cxx</text>
</a>
</g>
</g>
<!-- Node30&#45;&gt;Node45 -->
<g id="edge17" class="edge">
<title>Node30&#45;&gt;Node45</title>
<path fill="none" stroke="#191970" d="M1250.1909,-285.4483C1279.7414,-272.8199 1312.4397,-258.8463 1339.8142,-247.1478"/>
<polygon fill="#191970" stroke="#191970" points="1248.538,-282.3484 1240.7179,-289.4966 1251.2888,-288.7853 1248.538,-282.3484"/>
</g>
<!-- Node46 -->
<g id="node17" class="node">
<title>Node46</title>
<g id="a_node17"><a xlink:href="../../d1/df6/testGPUCATracking_8cxx.html" target="_top" xlink:title="This task tests the TPC CA Tracking library. ">
<polygon fill="none" stroke="#000000" points="1499.5,-195 1499.5,-247 1660.5,-247 1660.5,-195 1499.5,-195"/>
<text text-anchor="start" x="1507.5" y="-235" font-family="Helvetica,sans-Serif" font-size="10.00" fill="#000000">/home/travis/build</text>
<text text-anchor="start" x="1507.5" y="-224" font-family="Helvetica,sans-Serif" font-size="10.00" fill="#000000">/AliceO2Group/AliceO2</text>
<text text-anchor="start" x="1507.5" y="-213" font-family="Helvetica,sans-Serif" font-size="10.00" fill="#000000">/Detectors/TPC/reconstruction</text>
<text text-anchor="middle" x="1580" y="-202" font-family="Helvetica,sans-Serif" font-size="10.00" fill="#000000">/test/testGPUCATracking.cxx</text>
</a>
</g>
</g>
<!-- Node30&#45;&gt;Node46 -->
<g id="edge19" class="edge">
<title>Node30&#45;&gt;Node46</title>
<path fill="none" stroke="#191970" d="M1257.5166,-305.4741C1322.9479,-293.4118 1413.1523,-275.05 1491,-253 1497.3193,-251.2101 1503.8367,-249.1983 1510.336,-247.0776"/>
<polygon fill="#191970" stroke="#191970" points="1256.8473,-302.0384 1247.6408,-307.2816 1258.1076,-308.924 1256.8473,-302.0384"/>
</g>
<!-- Node47 -->
<g id="node18" class="node">
<title>Node47</title>
<g id="a_node18"><a xlink:href="../../da/d78/CATrackerSpec_8cxx.html" target="_top" xlink:title="Processor spec for running TPC CA tracking. ">
<polygon fill="none" stroke="#000000" points="1679,-195 1679,-247 1815,-247 1815,-195 1679,-195"/>
<text text-anchor="start" x="1687" y="-235" font-family="Helvetica,sans-Serif" font-size="10.00" fill="#000000">/home/travis/build</text>
<text text-anchor="start" x="1687" y="-224" font-family="Helvetica,sans-Serif" font-size="10.00" fill="#000000">/AliceO2Group/AliceO2</text>
<text text-anchor="start" x="1687" y="-213" font-family="Helvetica,sans-Serif" font-size="10.00" fill="#000000">/Detectors/TPC/workflow</text>
<text text-anchor="middle" x="1747" y="-202" font-family="Helvetica,sans-Serif" font-size="10.00" fill="#000000">/src/CATrackerSpec.cxx</text>
</a>
</g>
</g>
<!-- Node30&#45;&gt;Node47 -->
<g id="edge20" class="edge">
<title>Node30&#45;&gt;Node47</title>
<path fill="none" stroke="#191970" d="M1257.7937,-315.8295C1359.6133,-308.4027 1528.9575,-291.1435 1670,-253 1676.1488,-251.3371 1682.4586,-249.3006 1688.6924,-247.0679"/>
<polygon fill="#191970" stroke="#191970" points="1257.2716,-312.3577 1247.546,-316.5603 1257.7696,-319.34 1257.2716,-312.3577"/>
</g>
<!-- Node48 -->
<g id="node19" class="node">
<title>Node48</title>
<g id="a_node19"><a xlink:href="../../d5/df5/DataInterpreterTPC_8cxx.html" target="_top" xlink:title="converting TPC data to Event Visualisation primitives ">
<polygon fill="none" stroke="#000000" points="1833.5,-195 1833.5,-247 1994.5,-247 1994.5,-195 1833.5,-195"/>
<text text-anchor="start" x="1841.5" y="-235" font-family="Helvetica,sans-Serif" font-size="10.00" fill="#000000">/home/travis/build</text>
<text text-anchor="start" x="1841.5" y="-224" font-family="Helvetica,sans-Serif" font-size="10.00" fill="#000000">/AliceO2Group/AliceO2</text>
<text text-anchor="start" x="1841.5" y="-213" font-family="Helvetica,sans-Serif" font-size="10.00" fill="#000000">/EventVisualisation/Detectors</text>
<text text-anchor="middle" x="1914" y="-202" font-family="Helvetica,sans-Serif" font-size="10.00" fill="#000000">/src/DataInterpreterTPC.cxx</text>
</a>
</g>
</g>
<!-- Node30&#45;&gt;Node48 -->
<g id="edge21" class="edge">
<title>Node30&#45;&gt;Node48</title>
<path fill="none" stroke="#191970" d="M1257.7723,-318.4295C1385.5596,-313.2747 1625.1231,-297.9689 1824,-253 1831.2787,-251.3542 1838.7794,-249.2982 1846.1992,-247.0271"/>
<polygon fill="#191970" stroke="#191970" points="1257.4947,-314.9376 1247.6394,-318.8263 1257.7687,-321.9322 1257.4947,-314.9376"/>
</g>
<!-- Node33 -->
<g id="node4" class="node">
<title>Node33</title>
<g id="a_node4"><a xlink:href="../../d0/d74/MatchTOF_8h.html" target="_top" xlink:title="Class to perform TOF matching to global tracks. ">
<polygon fill="none" stroke="#000000" points="230,-95 230,-147 418,-147 418,-95 230,-95"/>
<text text-anchor="start" x="238" y="-135" font-family="Helvetica,sans-Serif" font-size="10.00" fill="#000000">/home/travis/build</text>
<text text-anchor="start" x="238" y="-124" font-family="Helvetica,sans-Serif" font-size="10.00" fill="#000000">/AliceO2Group/AliceO2</text>
<text text-anchor="start" x="238" y="-113" font-family="Helvetica,sans-Serif" font-size="10.00" fill="#000000">/Detectors/GlobalTracking</text>
<text text-anchor="middle" x="324" y="-102" font-family="Helvetica,sans-Serif" font-size="10.00" fill="#000000">/include/GlobalTracking/MatchTOF.h</text>
</a>
</g>
</g>
<!-- Node32&#45;&gt;Node33 -->
<g id="edge3" class="edge">
<title>Node32&#45;&gt;Node33</title>
<path fill="none" stroke="#191970" d="M558.3039,-192.0012C511.4443,-177.8013 455.4709,-160.8397 409.985,-147.0561"/>
<polygon fill="#191970" stroke="#191970" points="557.5725,-195.4367 568.1578,-194.9872 559.6026,-188.7375 557.5725,-195.4367"/>
</g>
<!-- Node34 -->
<g id="node5" class="node">
<title>Node34</title>
<g id="a_node5"><a xlink:href="../../db/d6a/MatchTOF_8cxx.html" target="_top" xlink:title="/home/travis/build\l/AliceO2Group/AliceO2\l/Detectors/GlobalTracking\l/src/MatchTOF.cxx">
<polygon fill="none" stroke="#000000" points="0,-.5 0,-52.5 142,-52.5 142,-.5 0,-.5"/>
<text text-anchor="start" x="8" y="-40.5" font-family="Helvetica,sans-Serif" font-size="10.00" fill="#000000">/home/travis/build</text>
<text text-anchor="start" x="8" y="-29.5" font-family="Helvetica,sans-Serif" font-size="10.00" fill="#000000">/AliceO2Group/AliceO2</text>
<text text-anchor="start" x="8" y="-18.5" font-family="Helvetica,sans-Serif" font-size="10.00" fill="#000000">/Detectors/GlobalTracking</text>
<text text-anchor="middle" x="71" y="-7.5" font-family="Helvetica,sans-Serif" font-size="10.00" fill="#000000">/src/MatchTOF.cxx</text>
</a>
</g>
</g>
<!-- Node32&#45;&gt;Node34 -->
<g id="edge7" class="edge">
<title>Node32&#45;&gt;Node34</title>
<path fill="none" stroke="#191970" d="M558.4483,-192.5592C552.9052,-191.2652 547.3938,-190.0653 542,-189 401.1595,-161.1839 352.8824,-209.717 221,-153 168.112,-130.2551 119.6817,-82.4111 92.8725,-52.519"/>
<polygon fill="#191970" stroke="#191970" points="557.8986,-196.0272 568.4417,-194.9811 559.5474,-189.2241 557.8986,-196.0272"/>
</g>
<!-- Node37 -->
<g id="node8" class="node">
<title>Node37</title>
<g id="a_node8"><a xlink:href="../../dc/d59/MatchTPCITS_8cxx.html" target="_top" xlink:title="/home/travis/build\l/AliceO2Group/AliceO2\l/Detectors/GlobalTracking\l/src/MatchTPCITS.cxx">
<polygon fill="none" stroke="#000000" points="496,-95 496,-147 638,-147 638,-95 496,-95"/>
<text text-anchor="start" x="504" y="-135" font-family="Helvetica,sans-Serif" font-size="10.00" fill="#000000">/home/travis/build</text>
<text text-anchor="start" x="504" y="-124" font-family="Helvetica,sans-Serif" font-size="10.00" fill="#000000">/AliceO2Group/AliceO2</text>
<text text-anchor="start" x="504" y="-113" font-family="Helvetica,sans-Serif" font-size="10.00" fill="#000000">/Detectors/GlobalTracking</text>
<text text-anchor="middle" x="567" y="-102" font-family="Helvetica,sans-Serif" font-size="10.00" fill="#000000">/src/MatchTPCITS.cxx</text>
</a>
</g>
</g>
<!-- Node32&#45;&gt;Node37 -->
<g id="edge8" class="edge">
<title>Node32&#45;&gt;Node37</title>
<path fill="none" stroke="#191970" d="M624.5274,-187.1234C613.193,-174.0954 600.4358,-159.4319 589.82,-147.2299"/>
<polygon fill="#191970" stroke="#191970" points="622.1646,-189.7401 631.3689,-194.9872 627.4458,-185.1455 622.1646,-189.7401"/>
</g>
<!-- Node38 -->
<g id="node9" class="node">
<title>Node38</title>
<g id="a_node9"><a xlink:href="../../da/d20/TPCITSMatchingSpec_8h.html" target="_top" xlink:title="/home/travis/build\l/AliceO2Group/AliceO2\l/Detectors/GlobalTrackingWorkflow\l/include/GlobalTrackingWorkflow\l/TPCITSMatchingSpec.h">
<polygon fill="none" stroke="#000000" points="656.5,-89.5 656.5,-152.5 843.5,-152.5 843.5,-89.5 656.5,-89.5"/>
<text text-anchor="start" x="664.5" y="-140.5" font-family="Helvetica,sans-Serif" font-size="10.00" fill="#000000">/home/travis/build</text>
<text text-anchor="start" x="664.5" y="-129.5" font-family="Helvetica,sans-Serif" font-size="10.00" fill="#000000">/AliceO2Group/AliceO2</text>
<text text-anchor="start" x="664.5" y="-118.5" font-family="Helvetica,sans-Serif" font-size="10.00" fill="#000000">/Detectors/GlobalTrackingWorkflow</text>
<text text-anchor="start" x="664.5" y="-107.5" font-family="Helvetica,sans-Serif" font-size="10.00" fill="#000000">/include/GlobalTrackingWorkflow</text>
<text text-anchor="middle" x="750" y="-96.5" font-family="Helvetica,sans-Serif" font-size="10.00" fill="#000000">/TPCITSMatchingSpec.h</text>
</a>
</g>
</g>
<!-- Node32&#45;&gt;Node38 -->
<g id="edge9" class="edge">
<title>Node32&#45;&gt;Node38</title>
<path fill="none" stroke="#191970" d="M685.9152,-187.755C696.7955,-176.4214 708.9225,-163.789 719.6744,-152.5891"/>
<polygon fill="#191970" stroke="#191970" points="683.3727,-185.3495 678.9723,-194.9872 688.4225,-190.1972 683.3727,-185.3495"/>
</g>
<!-- Node33&#45;&gt;Node34 -->
<g id="edge4" class="edge">
<title>Node33&#45;&gt;Node34</title>
<path fill="none" stroke="#191970" d="M244.5275,-91.3156C211.3426,-78.9205 173.1233,-64.6449 141.0141,-52.6515"/>
<polygon fill="#191970" stroke="#191970" points="243.6044,-94.7069 254.1969,-94.9273 246.0537,-88.1494 243.6044,-94.7069"/>
</g>
<!-- Node35 -->
<g id="node6" class="node">
<title>Node35</title>
<g id="a_node6"><a xlink:href="../../d8/d84/RecoWorkflowSpec_8cxx.html" target="_top" xlink:title="/home/travis/build\l/AliceO2Group/AliceO2\l/Detectors/GlobalTrackingWorkflow\l/tofworkflow/src/RecoWorkflowSpec.cxx">
<polygon fill="none" stroke="#000000" points="160.5,-.5 160.5,-52.5 369.5,-52.5 369.5,-.5 160.5,-.5"/>
<text text-anchor="start" x="168.5" y="-40.5" font-family="Helvetica,sans-Serif" font-size="10.00" fill="#000000">/home/travis/build</text>
<text text-anchor="start" x="168.5" y="-29.5" font-family="Helvetica,sans-Serif" font-size="10.00" fill="#000000">/AliceO2Group/AliceO2</text>
<text text-anchor="start" x="168.5" y="-18.5" font-family="Helvetica,sans-Serif" font-size="10.00" fill="#000000">/Detectors/GlobalTrackingWorkflow</text>
<text text-anchor="middle" x="265" y="-7.5" font-family="Helvetica,sans-Serif" font-size="10.00" fill="#000000">/tofworkflow/src/RecoWorkflowSpec.cxx</text>
</a>
</g>
</g>
<!-- Node33&#45;&gt;Node35 -->
<g id="edge5" class="edge">
<title>Node33&#45;&gt;Node35</title>
<path fill="none" stroke="#191970" d="M302.3449,-86.3151C295.435,-75.2475 287.9058,-63.1881 281.4299,-52.8157"/>
<polygon fill="#191970" stroke="#191970" points="299.4569,-88.2984 307.7218,-94.9273 305.3947,-84.5912 299.4569,-88.2984"/>
</g>
<!-- Node36 -->
<g id="node7" class="node">
<title>Node36</title>
<g id="a_node7"><a xlink:href="../../d4/d76/RecoWorkflowWithTPCSpec_8cxx.html" target="_top" xlink:title="/home/travis/build\l/AliceO2Group/AliceO2\l/Detectors/GlobalTrackingWorkflow\l/tofworkflow/src/RecoWorkflowWithTPCSpec.cxx">
<polygon fill="none" stroke="#000000" points="387.5,-.5 387.5,-52.5 638.5,-52.5 638.5,-.5 387.5,-.5"/>
<text text-anchor="start" x="395.5" y="-40.5" font-family="Helvetica,sans-Serif" font-size="10.00" fill="#000000">/home/travis/build</text>
<text text-anchor="start" x="395.5" y="-29.5" font-family="Helvetica,sans-Serif" font-size="10.00" fill="#000000">/AliceO2Group/AliceO2</text>
<text text-anchor="start" x="395.5" y="-18.5" font-family="Helvetica,sans-Serif" font-size="10.00" fill="#000000">/Detectors/GlobalTrackingWorkflow</text>
<text text-anchor="middle" x="513" y="-7.5" font-family="Helvetica,sans-Serif" font-size="10.00" fill="#000000">/tofworkflow/src/RecoWorkflowWithTPCSpec.cxx</text>
</a>
</g>
</g>
<!-- Node33&#45;&gt;Node36 -->
<g id="edge6" class="edge">
<title>Node33&#45;&gt;Node36</title>
<path fill="none" stroke="#191970" d="M385.2912,-90.3544C409.6265,-78.1868 437.328,-64.336 460.697,-52.6515"/>
<polygon fill="#191970" stroke="#191970" points="383.5244,-87.3246 376.1454,-94.9273 386.6549,-93.5856 383.5244,-87.3246"/>
</g>
<!-- Node39 -->
<g id="node10" class="node">
<title>Node39</title>
<g id="a_node10"><a xlink:href="../../d5/db4/MatchTPCITSWorkflow_8cxx.html" target="_top" xlink:title="/home/travis/build\l/AliceO2Group/AliceO2\l/Detectors/GlobalTrackingWorkflow\l/src/MatchTPCITSWorkflow.cxx">
<polygon fill="none" stroke="#000000" points="656.5,-.5 656.5,-52.5 843.5,-52.5 843.5,-.5 656.5,-.5"/>
<text text-anchor="start" x="664.5" y="-40.5" font-family="Helvetica,sans-Serif" font-size="10.00" fill="#000000">/home/travis/build</text>
<text text-anchor="start" x="664.5" y="-29.5" font-family="Helvetica,sans-Serif" font-size="10.00" fill="#000000">/AliceO2Group/AliceO2</text>
<text text-anchor="start" x="664.5" y="-18.5" font-family="Helvetica,sans-Serif" font-size="10.00" fill="#000000">/Detectors/GlobalTrackingWorkflow</text>
<text text-anchor="middle" x="750" y="-7.5" font-family="Helvetica,sans-Serif" font-size="10.00" fill="#000000">/src/MatchTPCITSWorkflow.cxx</text>
</a>
</g>
</g>
<!-- Node38&#45;&gt;Node39 -->
<g id="edge10" class="edge">
<title>Node38&#45;&gt;Node39</title>
<path fill="none" stroke="#191970" d="M750,-79.2457C750,-70.2008 750,-60.8836 750,-52.6442"/>
<polygon fill="#191970" stroke="#191970" points="746.5001,-79.2699 750,-89.27 753.5001,-79.27 746.5001,-79.2699"/>
</g>
<!-- Node38&#45;&gt;Node40 -->
<g id="edge11" class="edge">
<title>Node38&#45;&gt;Node40</title>
<path fill="none" stroke="#191970" d="M827.7947,-85.1385C851.2927,-74.3065 876.6326,-62.6254 898.4641,-52.5617"/>
<polygon fill="#191970" stroke="#191970" points="826.1633,-82.0365 818.547,-89.4015 829.0938,-88.3936 826.1633,-82.0365"/>
</g>
<!-- Node42&#45;&gt;Node43 -->
<g id="edge15" class="edge">
<title>Node42&#45;&gt;Node43</title>
<path fill="none" stroke="#191970" d="M1180.0435,-182.5078C1167.1241,-170.6552 1153.2104,-157.8902 1141.425,-147.078"/>
<polygon fill="#191970" stroke="#191970" points="1177.7768,-185.1781 1187.5117,-189.3594 1182.5091,-180.02 1177.7768,-185.1781"/>
</g>
<!-- Node44 -->
<g id="node15" class="node">
<title>Node44</title>
<g id="a_node15"><a xlink:href="../../d9/d7b/ClusterDecoderRawSpec_8cxx.html" target="_top" xlink:title="Processor spec for decoder of TPC raw cluster data. ">
<polygon fill="none" stroke="#000000" points="1221,-95 1221,-147 1397,-147 1397,-95 1221,-95"/>
<text text-anchor="start" x="1229" y="-135" font-family="Helvetica,sans-Serif" font-size="10.00" fill="#000000">/home/travis/build</text>
<text text-anchor="start" x="1229" y="-124" font-family="Helvetica,sans-Serif" font-size="10.00" fill="#000000">/AliceO2Group/AliceO2</text>
<text text-anchor="start" x="1229" y="-113" font-family="Helvetica,sans-Serif" font-size="10.00" fill="#000000">/Detectors/TPC/workflow</text>
<text text-anchor="middle" x="1309" y="-102" font-family="Helvetica,sans-Serif" font-size="10.00" fill="#000000">/src/ClusterDecoderRawSpec.cxx</text>
</a>
</g>
</g>
<!-- Node42&#45;&gt;Node44 -->
<g id="edge16" class="edge">
<title>Node42&#45;&gt;Node44</title>
<path fill="none" stroke="#191970" d="M1256.3574,-181.5088C1266.4214,-169.9409 1277.1692,-157.5871 1286.3122,-147.078"/>
<polygon fill="#191970" stroke="#191970" points="1253.4505,-179.5176 1249.5273,-189.3594 1258.7316,-184.1122 1253.4505,-179.5176"/>
</g>
</g>
</svg>
