<?xml version="1.0" encoding="UTF-8" standalone="no"?>
<!DOCTYPE svg PUBLIC "-//W3C//DTD SVG 1.1//EN"
 "http://www.w3.org/Graphics/SVG/1.1/DTD/svg11.dtd">
<!-- Generated by graphviz version 2.40.1 (20161225.0304)
 -->
<!-- Title: o2::gpu::GPUInterfaceOutputs Pages: 1 -->
<svg width="298pt" height="320pt"
 viewBox="0.00 0.00 297.50 320.00" xmlns="http://www.w3.org/2000/svg" xmlns:xlink="http://www.w3.org/1999/xlink">
<g id="graph0" class="graph" transform="scale(1 1) rotate(0) translate(4 316)">
<title>o2::gpu::GPUInterfaceOutputs</title>
<!-- Node1 -->
<g id="node1" class="node">
<title>Node1</title>
<polygon fill="#bfbfbf" stroke="#000000" points="101,-.5 101,-57.5 262,-57.5 262,-.5 101,-.5"/>
<text text-anchor="middle" x="181.5" y="-45.5" font-family="Helvetica,sans-Serif" font-size="10.00" fill="#000000">o2::gpu::GPUInterfaceOutputs</text>
<polyline fill="none" stroke="#000000" points="101,-38.5 262,-38.5 "/>
<text text-anchor="middle" x="181.5" y="-26.5" font-family="Helvetica,sans-Serif" font-size="10.00" fill="#000000"> </text>
<polyline fill="none" stroke="#000000" points="101,-19.5 262,-19.5 "/>
<text text-anchor="middle" x="181.5" y="-7.5" font-family="Helvetica,sans-Serif" font-size="10.00" fill="#000000"> </text>
</g>
<!-- Node2 -->
<g id="node2" class="node">
<title>Node2</title>
<g id="a_node2"><a xlink:href="../../db/d93/structo2_1_1gpu_1_1GPUInterfaceOutputRegion.html" target="_top" xlink:title="{o2::gpu::GPUInterfaceOutput\lRegion\n||}">
<polygon fill="none" stroke="#000000" points="103.5,-138.5 103.5,-206.5 259.5,-206.5 259.5,-138.5 103.5,-138.5"/>
<text text-anchor="start" x="111.5" y="-194.5" font-family="Helvetica,sans-Serif" font-size="10.00" fill="#000000">o2::gpu::GPUInterfaceOutput</text>
<text text-anchor="middle" x="181.5" y="-183.5" font-family="Helvetica,sans-Serif" font-size="10.00" fill="#000000">Region</text>
<polyline fill="none" stroke="#000000" points="103.5,-176.5 259.5,-176.5 "/>
<text text-anchor="middle" x="181.5" y="-164.5" font-family="Helvetica,sans-Serif" font-size="10.00" fill="#000000"> </text>
<polyline fill="none" stroke="#000000" points="103.5,-157.5 259.5,-157.5 "/>
<text text-anchor="middle" x="181.5" y="-145.5" font-family="Helvetica,sans-Serif" font-size="10.00" fill="#000000"> </text>
</a>
</g>
</g>
<!-- Node2&#45;&gt;Node1 -->
<g id="edge1" class="edge">
<title>Node2&#45;&gt;Node1</title>
<path fill="none" stroke="#404040" d="M181.5,-138.4925C181.5,-117.9847 181.5,-91.7262 181.5,-70.065"/>
<polygon fill="none" stroke="#404040" points="181.5001,-69.9207 177.5,-63.9207 181.5,-57.9207 185.5,-63.9206 181.5001,-69.9207"/>
<text text-anchor="middle" x="235.5" y="-112" font-family="Helvetica,sans-Serif" font-size="10.00" fill="#000000"> +tpcTracks</text>
<text text-anchor="middle" x="235.5" y="-101" font-family="Helvetica,sans-Serif" font-size="10.00" fill="#000000">+clusterLabels</text>
<text text-anchor="middle" x="235.5" y="-90" font-family="Helvetica,sans-Serif" font-size="10.00" fill="#000000">+clustersNative</text>
<text text-anchor="middle" x="235.5" y="-79" font-family="Helvetica,sans-Serif" font-size="10.00" fill="#000000">+compressedClusters</text>
</g>
<!-- Node3 -->
<g id="node3" class="node">
<title>Node3</title>
<polygon fill="none" stroke="#bfbfbf" points="0,-254.5 0,-311.5 141,-311.5 141,-254.5 0,-254.5"/>
<text text-anchor="middle" x="70.5" y="-299.5" font-family="Helvetica,sans-Serif" font-size="10.00" fill="#000000">function&lt; void *(size_t)&gt;</text>
<polyline fill="none" stroke="#bfbfbf" points="0,-292.5 141,-292.5 "/>
<text text-anchor="middle" x="70.5" y="-280.5" font-family="Helvetica,sans-Serif" font-size="10.00" fill="#000000"> </text>
<polyline fill="none" stroke="#bfbfbf" points="0,-273.5 141,-273.5 "/>
<text text-anchor="middle" x="70.5" y="-261.5" font-family="Helvetica,sans-Serif" font-size="10.00" fill="#000000"> </text>
</g>
<!-- Node3&#45;&gt;Node2 -->
<g id="edge2" class="edge">
<title>Node3&#45;&gt;Node2</title>
<path fill="none" stroke="#404040" d="M95.0058,-254.3855C103.4904,-244.8279 113.2068,-234.2586 122.5,-225 125.8466,-221.6659 129.361,-218.2784 132.9374,-214.9121"/>
<polygon fill="none" stroke="#404040" points="133.0836,-214.777 134.7741,-207.7668 141.8952,-206.631 140.2048,-213.6411 133.0836,-214.777"/>
<text text-anchor="middle" x="150" y="-228" font-family="Helvetica,sans-Serif" font-size="10.00" fill="#000000"> +allocator</text>
</g>
<!-- Node4 -->
<g id="node4" class="node">
<title>Node4</title>
<polygon fill="none" stroke="#bfbfbf" points="159,-254.5 159,-311.5 204,-311.5 204,-254.5 159,-254.5"/>
<text text-anchor="middle" x="181.5" y="-299.5" font-family="Helvetica,sans-Serif" font-size="10.00" fill="#000000">size_t</text>
<polyline fill="none" stroke="#bfbfbf" points="159,-292.5 204,-292.5 "/>
<text text-anchor="middle" x="181.5" y="-280.5" font-family="Helvetica,sans-Serif" font-size="10.00" fill="#000000"> </text>
<polyline fill="none" stroke="#bfbfbf" points="159,-273.5 204,-273.5 "/>
<text text-anchor="middle" x="181.5" y="-261.5" font-family="Helvetica,sans-Serif" font-size="10.00" fill="#000000"> </text>
</g>
<!-- Node4&#45;&gt;Node2 -->
<g id="edge3" class="edge">
<title>Node4&#45;&gt;Node2</title>
<path fill="none" stroke="#404040" d="M181.5,-254.2559C181.5,-243.4349 181.5,-230.8362 181.5,-218.8169"/>
<polygon fill="none" stroke="#404040" points="181.5001,-218.6001 177.5,-212.6001 181.5,-206.6001 185.5,-212.6 181.5001,-218.6001"/>
<text text-anchor="middle" x="197" y="-228" font-family="Helvetica,sans-Serif" font-size="10.00" fill="#000000"> +size</text>
</g>
<!-- Node5 -->
<g id="node5" class="node">
<title>Node5</title>
<polygon fill="none" stroke="#bfbfbf" points="222.5,-254.5 222.5,-311.5 268.5,-311.5 268.5,-254.5 222.5,-254.5"/>
<text text-anchor="middle" x="245.5" y="-299.5" font-family="Helvetica,sans-Serif" font-size="10.00" fill="#000000">void *</text>
<polyline fill="none" stroke="#bfbfbf" points="222.5,-292.5 268.5,-292.5 "/>
<text text-anchor="middle" x="245.5" y="-280.5" font-family="Helvetica,sans-Serif" font-size="10.00" fill="#000000"> </text>
<polyline fill="none" stroke="#bfbfbf" points="222.5,-273.5 268.5,-273.5 "/>
<text text-anchor="middle" x="245.5" y="-261.5" font-family="Helvetica,sans-Serif" font-size="10.00" fill="#000000"> </text>
</g>
<!-- Node5&#45;&gt;Node2 -->
<g id="edge4" class="edge">
<title>Node5&#45;&gt;Node2</title>
<path fill="none" stroke="#404040" d="M232.0328,-254.3058C227.3589,-244.8408 221.9247,-234.3477 216.5,-225 214.9605,-222.3471 213.339,-219.6465 211.672,-216.9404"/>
<polygon fill="none" stroke="#404040" points="211.5189,-216.6989 204.9278,-213.7736 205.0931,-206.5644 211.6842,-209.4897 211.5189,-216.6989"/>
<text text-anchor="middle" x="235" y="-228" font-family="Helvetica,sans-Serif" font-size="10.00" fill="#000000"> +ptr</text>
</g>
</g>
</svg>
