<?xml version="1.0" encoding="UTF-8" standalone="no"?>
<!DOCTYPE svg PUBLIC "-//W3C//DTD SVG 1.1//EN"
 "http://www.w3.org/Graphics/SVG/1.1/DTD/svg11.dtd">
<!-- Generated by graphviz version 2.40.1 (20161225.0304)
 -->
<!-- Title: /home/travis/build/AliceO2Group/AliceO2/Framework/Core/src/DeviceConfigInfo.cxx Pages: 1 -->
<!--zoomable 296 -->
<svg id="main" version="1.1" xmlns="http://www.w3.org/2000/svg" xmlns:xlink="http://www.w3.org/1999/xlink" xml:space="preserve" onload="init(evt)">
<style type="text/css"><![CDATA[
.edge:hover path { stroke: red; }
.edge:hover polygon { stroke: red; fill: red; }
]]></style>
<script type="text/javascript"><![CDATA[
var edges = document.getElementsByTagName('g');
if (edges && edges.length) {
  for (var i=0;i<edges.length;i++) {
    if (edges[i].id.substr(0,4)=='edge') {
      edges[i].setAttribute('class','edge');
    }
  }
}
]]></script>
        <defs>
                <circle id="rim" cx="0" cy="0" r="7"/>
                <circle id="rim2" cx="0" cy="0" r="3.5"/>
                <g id="zoomPlus">
                        <use xlink:href="#rim" fill="#404040">
                                <set attributeName="fill" to="#808080" begin="zoomplus.mouseover" end="zoomplus.mouseout"/>
                        </use>
                        <path d="M-4,0h8M0,-4v8" fill="none" stroke="white" stroke-width="1.5" pointer-events="none"/>
                </g>
                <g id="zoomMin">
                        <use xlink:href="#rim" fill="#404040">
                                <set attributeName="fill" to="#808080" begin="zoomminus.mouseover" end="zoomminus.mouseout"/>
                        </use>
                        <path d="M-4,0h8" fill="none" stroke="white" stroke-width="1.5" pointer-events="none"/>
                </g>
                <g id="dirArrow">
                        <path fill="none" stroke="white" stroke-width="1.5" d="M0,-3.0v7 M-2.5,-0.5L0,-3.0L2.5,-0.5"/>
                </g>
               <g id="resetDef">
                       <use xlink:href="#rim2" fill="#404040">
                               <set attributeName="fill" to="#808080" begin="reset.mouseover" end="reset.mouseout"/>
                       </use>
               </g>
        </defs>

<script type="text/javascript">
var viewWidth = 1660;
var viewHeight = 296;
var sectionId = 'dynsection-0';
</script>
<script xlink:href="../../svgpan.js"/>
<svg id="graph" class="graph">
<g id="viewport">
<title>/home/travis/build/AliceO2Group/AliceO2/Framework/Core/src/DeviceConfigInfo.cxx</title>
<!-- Node0 -->
<g id="node1" class="node">
<title>Node0</title>
<polygon fill="#bfbfbf" stroke="#000000" points="943.5,-235.5 943.5,-287.5 1127.5,-287.5 1127.5,-235.5 943.5,-235.5"/>
<text text-anchor="start" x="951.5" y="-275.5" font-family="Helvetica,sans-Serif" font-size="10.00" fill="#000000">/home/travis/build</text>
<text text-anchor="start" x="951.5" y="-264.5" font-family="Helvetica,sans-Serif" font-size="10.00" fill="#000000">/AliceO2Group/AliceO2</text>
<text text-anchor="start" x="951.5" y="-253.5" font-family="Helvetica,sans-Serif" font-size="10.00" fill="#000000">/Framework/Core/src/DeviceConfig</text>
<text text-anchor="middle" x="1035.5" y="-242.5" font-family="Helvetica,sans-Serif" font-size="10.00" fill="#000000">Info.cxx</text>
</g>
<!-- Node1 -->
<g id="node2" class="node">
<title>Node1</title>
<g id="a_node2"><a xlink:href="../../df/de0/DeviceConfigInfo_8h.html" target="_top" xlink:title="Framework/DeviceConfigInfo.h">
<polygon fill="none" stroke="#000000" points="618.5,-118 618.5,-137 784.5,-137 784.5,-118 618.5,-118"/>
<text text-anchor="middle" x="701.5" y="-125" font-family="Helvetica,sans-Serif" font-size="10.00" fill="#000000">Framework/DeviceConfigInfo.h</text>
</a>
</g>
</g>
<!-- Node0&#45;&gt;Node1 -->
<g id="edge1" class="edge">
<title>Node0&#45;&gt;Node1</title>
<path fill="none" stroke="#191970" d="M943.2949,-242.9622C901.3884,-232.7932 851.8281,-218.2743 809.5,-199 776.5516,-183.9968 742.3296,-159.5849 721.4678,-143.5328"/>
<polygon fill="#191970" stroke="#191970" points="723.4219,-140.6179 713.3877,-137.217 719.111,-146.133 723.4219,-140.6179"/>
</g>
<!-- Node6 -->
<g id="node7" class="node">
<title>Node6</title>
<polygon fill="none" stroke="#bfbfbf" points="662,-56.5 662,-75.5 735,-75.5 735,-56.5 662,-56.5"/>
<text text-anchor="middle" x="698.5" y="-63.5" font-family="Helvetica,sans-Serif" font-size="10.00" fill="#000000">string_view</text>
</g>
<!-- Node0&#45;&gt;Node6 -->
<g id="edge45" class="edge">
<title>Node0&#45;&gt;Node6</title>
<path fill="none" stroke="#191970" d="M943.2526,-257.6996C787.5608,-249.1373 483.1378,-222.4195 417.5,-143 311.8835,-15.2077 165.907,-164.3775 651.7607,-76.0328"/>
<polygon fill="#191970" stroke="#191970" points="652.6794,-79.4228 661.8831,-74.1747 651.4154,-72.5378 652.6794,-79.4228"/>
</g>
<!-- Node8 -->
<g id="node9" class="node">
<title>Node8</title>
<g id="a_node9"><a xlink:href="../../d7/d58/DeviceInfo_8h.html" target="_top" xlink:title="Framework/DeviceInfo.h">
<polygon fill="none" stroke="#000000" points="819,-179.5 819,-198.5 954,-198.5 954,-179.5 819,-179.5"/>
<text text-anchor="middle" x="886.5" y="-186.5" font-family="Helvetica,sans-Serif" font-size="10.00" fill="#000000">Framework/DeviceInfo.h</text>
</a>
</g>
</g>
<!-- Node0&#45;&gt;Node8 -->
<g id="edge8" class="edge">
<title>Node0&#45;&gt;Node8</title>
<path fill="none" stroke="#191970" d="M981.7076,-235.3258C959.2765,-224.4114 934.1248,-212.1731 915.3084,-203.0175"/>
<polygon fill="#191970" stroke="#191970" points="916.6174,-199.7622 906.094,-198.534 913.5547,-206.0566 916.6174,-199.7622"/>
</g>
<!-- Node16 -->
<g id="node17" class="node">
<title>Node16</title>
<polygon fill="none" stroke="#bfbfbf" points="0,-56.5 0,-75.5 49,-75.5 49,-56.5 0,-56.5"/>
<text text-anchor="middle" x="24.5" y="-63.5" font-family="Helvetica,sans-Serif" font-size="10.00" fill="#000000">cstdlib</text>
</g>
<!-- Node0&#45;&gt;Node16 -->
<g id="edge42" class="edge">
<title>Node0&#45;&gt;Node16</title>
<path fill="none" stroke="#191970" d="M943.1346,-255.1453C830.4612,-246.515 634.4749,-228.6641 468.5,-199 367.0567,-180.8694 342.2178,-172.5678 243.5,-143 177.237,-123.153 101.3876,-95.3082 58.5898,-79.1104"/>
<polygon fill="#191970" stroke="#191970" points="59.8015,-75.8267 49.2104,-75.5465 57.3151,-82.3703 59.8015,-75.8267"/>
</g>
<!-- Node25 -->
<g id="node26" class="node">
<title>Node25</title>
<polygon fill="none" stroke="#bfbfbf" points="972.5,-179.5 972.5,-198.5 1024.5,-198.5 1024.5,-179.5 972.5,-179.5"/>
<text text-anchor="middle" x="998.5" y="-186.5" font-family="Helvetica,sans-Serif" font-size="10.00" fill="#000000">cassert</text>
</g>
<!-- Node0&#45;&gt;Node25 -->
<g id="edge40" class="edge">
<title>Node0&#45;&gt;Node25</title>
<path fill="none" stroke="#191970" d="M1022.1422,-235.3258C1017.4407,-226.1136 1012.2581,-215.9584 1007.9463,-207.5096"/>
<polygon fill="#191970" stroke="#191970" points="1011.0289,-205.8501 1003.3656,-198.534 1004.7939,-209.0321 1011.0289,-205.8501"/>
</g>
<!-- Node26 -->
<g id="node27" class="node">
<title>Node26</title>
<polygon fill="none" stroke="#bfbfbf" points="1042.5,-179.5 1042.5,-198.5 1104.5,-198.5 1104.5,-179.5 1042.5,-179.5"/>
<text text-anchor="middle" x="1073.5" y="-186.5" font-family="Helvetica,sans-Serif" font-size="10.00" fill="#000000">cinttypes</text>
</g>
<!-- Node0&#45;&gt;Node26 -->
<g id="edge41" class="edge">
<title>Node0&#45;&gt;Node26</title>
<path fill="none" stroke="#191970" d="M1049.2189,-235.3258C1054.0473,-226.1136 1059.3701,-215.9584 1063.7984,-207.5096"/>
<polygon fill="#191970" stroke="#191970" points="1066.9605,-209.016 1068.5029,-198.534 1060.7605,-205.7663 1066.9605,-209.016"/>
</g>
<!-- Node27 -->
<g id="node28" class="node">
<title>Node27</title>
<polygon fill="none" stroke="#bfbfbf" points="1122.5,-179.5 1122.5,-198.5 1186.5,-198.5 1186.5,-179.5 1122.5,-179.5"/>
<text text-anchor="middle" x="1154.5" y="-186.5" font-family="Helvetica,sans-Serif" font-size="10.00" fill="#000000">algorithm</text>
</g>
<!-- Node0&#45;&gt;Node27 -->
<g id="edge43" class="edge">
<title>Node0&#45;&gt;Node27</title>
<path fill="none" stroke="#191970" d="M1078.4617,-235.3258C1095.8834,-224.7118 1115.36,-212.8458 1130.2398,-203.7804"/>
<polygon fill="#191970" stroke="#191970" points="1132.1322,-206.7259 1138.8511,-198.534 1128.4901,-200.748 1132.1322,-206.7259"/>
</g>
<!-- Node28 -->
<g id="node29" class="node">
<title>Node28</title>
<polygon fill="none" stroke="#bfbfbf" points="1204.5,-179.5 1204.5,-198.5 1248.5,-198.5 1248.5,-179.5 1204.5,-179.5"/>
<text text-anchor="middle" x="1226.5" y="-186.5" font-family="Helvetica,sans-Serif" font-size="10.00" fill="#000000">regex</text>
</g>
<!-- Node0&#45;&gt;Node28 -->
<g id="edge44" class="edge">
<title>Node0&#45;&gt;Node28</title>
<path fill="none" stroke="#191970" d="M1104.1855,-235.4283C1135.0169,-223.7253 1169.9058,-210.4821 1194.5087,-201.1433"/>
<polygon fill="#191970" stroke="#191970" points="1195.9476,-204.3408 1204.0547,-197.5198 1193.4634,-197.7964 1195.9476,-204.3408"/>
</g>
<!-- Node29 -->
<g id="node30" class="node">
<title>Node29</title>
<polygon fill="none" stroke="#bfbfbf" points="1267,-179.5 1267,-198.5 1308,-198.5 1308,-179.5 1267,-179.5"/>
<text text-anchor="middle" x="1287.5" y="-186.5" font-family="Helvetica,sans-Serif" font-size="10.00" fill="#000000">tuple</text>
</g>
<!-- Node0&#45;&gt;Node29 -->
<g id="edge46" class="edge">
<title>Node0&#45;&gt;Node29</title>
<path fill="none" stroke="#191970" d="M1127.5943,-236.6239C1165.1338,-226.2298 1209.1219,-213.7292 1257.2124,-198.9917"/>
<polygon fill="#191970" stroke="#191970" points="1258.3568,-202.3016 1266.8845,-196.0144 1256.2973,-195.6114 1258.3568,-202.3016"/>
</g>
<!-- Node30 -->
<g id="node31" class="node">
<title>Node30</title>
<polygon fill="none" stroke="#bfbfbf" points="1326.5,-179.5 1326.5,-198.5 1386.5,-198.5 1386.5,-179.5 1326.5,-179.5"/>
<text text-anchor="middle" x="1356.5" y="-186.5" font-family="Helvetica,sans-Serif" font-size="10.00" fill="#000000">iostream</text>
</g>
<!-- Node0&#45;&gt;Node30 -->
<g id="edge47" class="edge">
<title>Node0&#45;&gt;Node30</title>
<path fill="none" stroke="#191970" d="M1127.7091,-241.6265C1182.6194,-229.6335 1253.6343,-213.8468 1316.5,-199 1316.6001,-198.9763 1316.7004,-198.9526 1316.8008,-198.9289"/>
<polygon fill="#191970" stroke="#191970" points="1317.4785,-202.3659 1326.3796,-196.6196 1315.8378,-195.5609 1317.4785,-202.3659"/>
</g>
<!-- Node2 -->
<g id="node3" class="node">
<title>Node2</title>
<polygon fill="none" stroke="#bfbfbf" points="859.5,-56.5 859.5,-75.5 901.5,-75.5 901.5,-56.5 859.5,-56.5"/>
<text text-anchor="middle" x="880.5" y="-63.5" font-family="Helvetica,sans-Serif" font-size="10.00" fill="#000000">array</text>
</g>
<!-- Node1&#45;&gt;Node2 -->
<g id="edge2" class="edge">
<title>Node1&#45;&gt;Node2</title>
<path fill="none" stroke="#191970" d="M729.4688,-117.8906C762.0828,-106.6852 815.8251,-88.2207 849.6333,-76.605"/>
<polygon fill="#191970" stroke="#191970" points="851.12,-79.7951 859.4401,-73.2357 848.8454,-73.175 851.12,-79.7951"/>
</g>
<!-- Node3 -->
<g id="node4" class="node">
<title>Node3</title>
<polygon fill="none" stroke="#bfbfbf" points="1066,-56.5 1066,-75.5 1119,-75.5 1119,-56.5 1066,-56.5"/>
<text text-anchor="middle" x="1092.5" y="-63.5" font-family="Helvetica,sans-Serif" font-size="10.00" fill="#000000">cstddef</text>
</g>
<!-- Node1&#45;&gt;Node3 -->
<g id="edge3" class="edge">
<title>Node1&#45;&gt;Node3</title>
<path fill="none" stroke="#191970" d="M757.4265,-117.9348C769.328,-115.9393 781.8254,-113.8738 793.5,-112 898.2614,-95.1857 924.6599,-92.3168 1029.5,-76 1037.9797,-74.6803 1047.0984,-73.2432 1055.6923,-71.8808"/>
<polygon fill="#191970" stroke="#191970" points="1056.5096,-75.2949 1065.8363,-70.2688 1055.4109,-68.3817 1056.5096,-75.2949"/>
</g>
<!-- Node4 -->
<g id="node5" class="node">
<title>Node4</title>
<polygon fill="none" stroke="#bfbfbf" points="956,-56.5 956,-75.5 1021,-75.5 1021,-56.5 956,-56.5"/>
<text text-anchor="middle" x="988.5" y="-63.5" font-family="Helvetica,sans-Serif" font-size="10.00" fill="#000000">functional</text>
</g>
<!-- Node1&#45;&gt;Node4 -->
<g id="edge4" class="edge">
<title>Node1&#45;&gt;Node4</title>
<path fill="none" stroke="#191970" d="M746.0289,-117.9581C800.6092,-106.2623 892.434,-86.5856 946.0485,-75.0967"/>
<polygon fill="#191970" stroke="#191970" points="946.8738,-78.4994 955.9184,-72.9818 945.407,-71.6548 946.8738,-78.4994"/>
</g>
<!-- Node5 -->
<g id="node6" class="node">
<title>Node5</title>
<polygon fill="none" stroke="#bfbfbf" points="1190.5,-.5 1190.5,-19.5 1234.5,-19.5 1234.5,-.5 1190.5,-.5"/>
<text text-anchor="middle" x="1212.5" y="-7.5" font-family="Helvetica,sans-Serif" font-size="10.00" fill="#000000">string</text>
</g>
<!-- Node1&#45;&gt;Node5 -->
<g id="edge5" class="edge">
<title>Node1&#45;&gt;Node5</title>
<path fill="none" stroke="#191970" d="M717.3476,-117.7733C743.8515,-102.0033 799.3139,-71.1021 850.5,-56 968.5394,-21.1733 1115.8845,-12.7139 1180.0883,-10.6591"/>
<polygon fill="#191970" stroke="#191970" points="1180.4795,-14.1494 1190.3746,-10.363 1180.278,-7.1523 1180.4795,-14.1494"/>
</g>
<!-- Node1&#45;&gt;Node6 -->
<g id="edge6" class="edge">
<title>Node1&#45;&gt;Node6</title>
<path fill="none" stroke="#191970" d="M701.0313,-117.8906C700.6154,-109.3657 699.9946,-96.6392 699.4719,-85.9235"/>
<polygon fill="#191970" stroke="#191970" points="702.9585,-85.5624 698.9754,-75.7449 695.9668,-85.9035 702.9585,-85.5624"/>
</g>
<!-- Node7 -->
<g id="node8" class="node">
<title>Node7</title>
<polygon fill="none" stroke="#bfbfbf" points="1137,-56.5 1137,-75.5 1184,-75.5 1184,-56.5 1137,-56.5"/>
<text text-anchor="middle" x="1160.5" y="-63.5" font-family="Helvetica,sans-Serif" font-size="10.00" fill="#000000">vector</text>
</g>
<!-- Node1&#45;&gt;Node7 -->
<g id="edge7" class="edge">
<title>Node1&#45;&gt;Node7</title>
<path fill="none" stroke="#191970" d="M754.9303,-117.945C767.5552,-115.8408 780.9847,-113.7272 793.5,-112 938.2248,-92.027 979.436,-105.1858 1126.969,-75.7484"/>
<polygon fill="#191970" stroke="#191970" points="1127.7373,-79.1639 1136.8427,-73.747 1126.3467,-72.3034 1127.7373,-79.1639"/>
</g>
<!-- Node8&#45;&gt;Node2 -->
<g id="edge38" class="edge">
<title>Node8&#45;&gt;Node2</title>
<path fill="none" stroke="#191970" d="M886.0292,-179.3484C885.0478,-159.2295 882.7664,-112.4608 881.4615,-85.7098"/>
<polygon fill="#191970" stroke="#191970" points="884.9518,-85.4243 880.9686,-75.6068 877.9601,-85.7655 884.9518,-85.4243"/>
</g>
<!-- Node8&#45;&gt;Node3 -->
<g id="edge34" class="edge">
<title>Node8&#45;&gt;Node3</title>
<path fill="none" stroke="#191970" d="M954.1736,-180.0056C1000.919,-172.428 1057.5995,-160.0759 1074.5,-143 1089.3933,-127.9522 1092.8749,-103.0907 1093.2892,-85.7003"/>
<polygon fill="#191970" stroke="#191970" points="1096.7878,-85.5011 1093.2076,-75.5295 1089.7881,-85.5573 1096.7878,-85.5011"/>
</g>
<!-- Node8&#45;&gt;Node5 -->
<g id="edge35" class="edge">
<title>Node8&#45;&gt;Node5</title>
<path fill="none" stroke="#191970" d="M954.0943,-180.1249C957.273,-179.7379 960.4206,-179.361 963.5,-179 1001.6695,-174.5249 1281.7783,-171.554 1307.5,-143 1343.0161,-103.5731 1275.9485,-50.7762 1237.2194,-25.1821"/>
<polygon fill="#191970" stroke="#191970" points="1238.8197,-22.0496 1228.5186,-19.572 1235.0263,-27.9327 1238.8197,-22.0496"/>
</g>
<!-- Node8&#45;&gt;Node7 -->
<g id="edge36" class="edge">
<title>Node8&#45;&gt;Node7</title>
<path fill="none" stroke="#191970" d="M890.708,-179.3877C898.5203,-162.757 916.9232,-128.7879 943.5,-112 1011.3357,-69.1499 1044.1566,-94.0858 1126.9826,-75.8106"/>
<polygon fill="#191970" stroke="#191970" points="1127.8568,-79.2005 1136.7866,-73.4988 1126.2502,-72.3874 1127.8568,-79.2005"/>
</g>
<!-- Node9 -->
<g id="node10" class="node">
<title>Node9</title>
<g id="a_node10"><a xlink:href="../../d8/d4a/LogParsingHelpers_8h.html" target="_top" xlink:title="Framework/LogParsingHelpers.h">
<polygon fill="none" stroke="#000000" points="427,-118 427,-137 600,-137 600,-118 427,-118"/>
<text text-anchor="middle" x="513.5" y="-125" font-family="Helvetica,sans-Serif" font-size="10.00" fill="#000000">Framework/LogParsingHelpers.h</text>
</a>
</g>
</g>
<!-- Node8&#45;&gt;Node9 -->
<g id="edge9" class="edge">
<title>Node8&#45;&gt;Node9</title>
<path fill="none" stroke="#191970" d="M828.628,-179.4581C761.8286,-168.4443 652.1047,-150.3531 581.3479,-138.6867"/>
<polygon fill="#191970" stroke="#191970" points="581.6371,-135.1872 571.2009,-137.0137 580.4982,-142.094 581.6371,-135.1872"/>
</g>
<!-- Node10 -->
<g id="node11" class="node">
<title>Node10</title>
<g id="a_node11"><a xlink:href="../../d0/d2c/Metric2DViewIndex_8h.html" target="_top" xlink:title="Framework/Metric2DViewIndex.h">
<polygon fill="none" stroke="#000000" points="1122,-118 1122,-137 1299,-137 1299,-118 1122,-118"/>
<text text-anchor="middle" x="1210.5" y="-125" font-family="Helvetica,sans-Serif" font-size="10.00" fill="#000000">Framework/Metric2DViewIndex.h</text>
</a>
</g>
</g>
<!-- Node8&#45;&gt;Node10 -->
<g id="edge12" class="edge">
<title>Node8&#45;&gt;Node10</title>
<path fill="none" stroke="#191970" d="M936.7695,-179.4581C994.4369,-168.512 1088.933,-150.5752 1150.4278,-138.9026"/>
<polygon fill="#191970" stroke="#191970" points="1151.2073,-142.3172 1160.3791,-137.0137 1149.9018,-135.44 1151.2073,-142.3172"/>
</g>
<!-- Node11 -->
<g id="node12" class="node">
<title>Node11</title>
<g id="a_node12"><a xlink:href="../../de/d56/Variant_8h.html" target="_top" xlink:title="Framework/Variant.h">
<polygon fill="none" stroke="#000000" points="253,-118 253,-137 370,-137 370,-118 253,-118"/>
<text text-anchor="middle" x="311.5" y="-125" font-family="Helvetica,sans-Serif" font-size="10.00" fill="#000000">Framework/Variant.h</text>
</a>
</g>
</g>
<!-- Node8&#45;&gt;Node11 -->
<g id="edge17" class="edge">
<title>Node8&#45;&gt;Node11</title>
<path fill="none" stroke="#191970" d="M818.8196,-183.3767C727.5535,-175.5619 560.0259,-160.4001 417.5,-143 405.3364,-141.515 392.4125,-139.7677 379.9254,-137.9915"/>
<polygon fill="#191970" stroke="#191970" points="380.4245,-134.5273 370.0275,-136.5652 379.4261,-141.4557 380.4245,-134.5273"/>
</g>
<!-- Node19 -->
<g id="node20" class="node">
<title>Node19</title>
<g id="a_node20"><a xlink:href="../../d9/de0/DeviceState_8h.html" target="_top" xlink:title="Framework/DeviceState.h">
<polygon fill="none" stroke="#000000" points="1354.5,-118 1354.5,-137 1496.5,-137 1496.5,-118 1354.5,-118"/>
<text text-anchor="middle" x="1425.5" y="-125" font-family="Helvetica,sans-Serif" font-size="10.00" fill="#000000">Framework/DeviceState.h</text>
</a>
</g>
</g>
<!-- Node8&#45;&gt;Node19 -->
<g id="edge27" class="edge">
<title>Node8&#45;&gt;Node19</title>
<path fill="none" stroke="#191970" d="M954.0903,-180.0902C957.2701,-179.7125 960.419,-179.3471 963.5,-179 1130.7599,-160.1586 1173.7775,-166.1186 1340.5,-143 1349.1363,-141.8024 1358.2327,-140.3496 1367.1352,-138.8192"/>
<polygon fill="#191970" stroke="#191970" points="1367.8286,-142.2511 1377.069,-137.0679 1366.6132,-135.3574 1367.8286,-142.2511"/>
</g>
<!-- Node23 -->
<g id="node24" class="node">
<title>Node23</title>
<polygon fill="none" stroke="#bfbfbf" points="802.5,-118 802.5,-137 858.5,-137 858.5,-118 802.5,-118"/>
<text text-anchor="middle" x="830.5" y="-125" font-family="Helvetica,sans-Serif" font-size="10.00" fill="#000000">unistd.h</text>
</g>
<!-- Node8&#45;&gt;Node23 -->
<g id="edge37" class="edge">
<title>Node8&#45;&gt;Node23</title>
<path fill="none" stroke="#191970" d="M877.75,-179.3906C869.3338,-170.1478 856.4203,-155.966 846.219,-144.7628"/>
<polygon fill="#191970" stroke="#191970" points="848.694,-142.2824 839.3734,-137.2449 843.5182,-146.9953 848.694,-142.2824"/>
</g>
<!-- Node24 -->
<g id="node25" class="node">
<title>Node24</title>
<polygon fill="none" stroke="#bfbfbf" points="953,-112.5 953,-142.5 1066,-142.5 1066,-112.5 953,-112.5"/>
<text text-anchor="start" x="961" y="-130.5" font-family="Helvetica,sans-Serif" font-size="10.00" fill="#000000">boost/property_tree</text>
<text text-anchor="middle" x="1009.5" y="-119.5" font-family="Helvetica,sans-Serif" font-size="10.00" fill="#000000">/ptree.hpp</text>
</g>
<!-- Node8&#45;&gt;Node24 -->
<g id="edge39" class="edge">
<title>Node8&#45;&gt;Node24</title>
<path fill="none" stroke="#191970" d="M905.7188,-179.3906C922.9818,-170.7591 948.8596,-157.8202 970.4553,-147.0224"/>
<polygon fill="#191970" stroke="#191970" points="972.0318,-150.1473 979.4108,-142.5446 968.9013,-143.8863 972.0318,-150.1473"/>
</g>
<!-- Node9&#45;&gt;Node5 -->
<g id="edge10" class="edge">
<title>Node9&#45;&gt;Node5</title>
<path fill="none" stroke="#191970" d="M565.6473,-117.9973C612.6181,-108.9256 683.3216,-93.9946 743.5,-76 767.6216,-68.7871 772.0179,-61.8741 796.5,-56 936.6266,-22.3788 1109.3022,-13.243 1180.0012,-10.8329"/>
<polygon fill="#191970" stroke="#191970" points="1180.1812,-14.3291 1190.0647,-10.5126 1179.9584,-7.3326 1180.1812,-14.3291"/>
</g>
<!-- Node9&#45;&gt;Node6 -->
<g id="edge11" class="edge">
<title>Node9&#45;&gt;Node6</title>
<path fill="none" stroke="#191970" d="M542.4063,-117.8906C574.039,-107.3749 624.903,-90.466 659.9229,-78.8243"/>
<polygon fill="#191970" stroke="#191970" points="661.4115,-82.0178 669.7967,-75.5419 659.2032,-75.3753 661.4115,-82.0178"/>
</g>
<!-- Node10&#45;&gt;Node3 -->
<g id="edge14" class="edge">
<title>Node10&#45;&gt;Node3</title>
<path fill="none" stroke="#191970" d="M1192.0625,-117.8906C1172.6653,-107.7811 1141.931,-91.7628 1119.7383,-80.1962"/>
<polygon fill="#191970" stroke="#191970" points="1121.2936,-77.06 1110.808,-75.5419 1118.0582,-83.2675 1121.2936,-77.06"/>
</g>
<!-- Node10&#45;&gt;Node4 -->
<g id="edge13" class="edge">
<title>Node10&#45;&gt;Node4</title>
<path fill="none" stroke="#191970" d="M1175.8125,-117.8906C1136.6371,-107.038 1072.8817,-89.376 1030.8133,-77.7219"/>
<polygon fill="#191970" stroke="#191970" points="1031.7091,-74.3383 1021.1376,-75.0415 1029.8402,-81.0843 1031.7091,-74.3383"/>
</g>
<!-- Node10&#45;&gt;Node5 -->
<g id="edge15" class="edge">
<title>Node10&#45;&gt;Node5</title>
<path fill="none" stroke="#191970" d="M1210.6637,-117.8845C1210.9904,-98.6913 1211.7292,-55.286 1212.1636,-29.7663"/>
<polygon fill="#191970" stroke="#191970" points="1215.6633,-29.8065 1212.3341,-19.7484 1208.6643,-29.6873 1215.6633,-29.8065"/>
</g>
<!-- Node10&#45;&gt;Node7 -->
<g id="edge16" class="edge">
<title>Node10&#45;&gt;Node7</title>
<path fill="none" stroke="#191970" d="M1202.6875,-117.8906C1195.246,-108.7376 1183.8666,-94.7409 1174.8008,-83.59"/>
<polygon fill="#191970" stroke="#191970" points="1177.4467,-81.2962 1168.4226,-75.7449 1172.0153,-85.712 1177.4467,-81.2962"/>
</g>
<!-- Node11&#45;&gt;Node5 -->
<g id="edge26" class="edge">
<title>Node11&#45;&gt;Node5</title>
<path fill="none" stroke="#191970" d="M339.9012,-117.9908C368.0748,-108.3044 412.2999,-92.4129 449.5,-76 467.3221,-68.1368 469.7191,-61.1705 488.5,-56 621.5487,-19.3709 1057.3198,-11.7449 1180.0622,-10.3082"/>
<polygon fill="#191970" stroke="#191970" points="1180.3429,-13.8054 1190.3033,-10.1944 1180.265,-6.8059 1180.3429,-13.8054"/>
</g>
<!-- Node11&#45;&gt;Node6 -->
<g id="edge25" class="edge">
<title>Node11&#45;&gt;Node6</title>
<path fill="none" stroke="#191970" d="M353.8564,-117.9396C363.8756,-115.8356 374.5422,-113.7234 384.5,-112 499.798,-92.045 532.4231,-96.5215 651.9858,-75.9625"/>
<polygon fill="#191970" stroke="#191970" points="652.6433,-79.4007 661.8941,-74.2361 651.4418,-72.5046 652.6433,-79.4007"/>
</g>
<!-- Node12 -->
<g id="node13" class="node">
<title>Node12</title>
<g id="a_node13"><a xlink:href="../../d1/d76/RuntimeError_8h.html" target="_top" xlink:title="Framework/RuntimeError.h">
<polygon fill="none" stroke="#000000" points="497.5,-56.5 497.5,-75.5 643.5,-75.5 643.5,-56.5 497.5,-56.5"/>
<text text-anchor="middle" x="570.5" y="-63.5" font-family="Helvetica,sans-Serif" font-size="10.00" fill="#000000">Framework/RuntimeError.h</text>
</a>
</g>
</g>
<!-- Node11&#45;&gt;Node12 -->
<g id="edge18" class="edge">
<title>Node11&#45;&gt;Node12</title>
<path fill="none" stroke="#191970" d="M351.6846,-117.9581C397.1461,-107.1632 471.2402,-89.5694 520.4273,-77.8899"/>
<polygon fill="#191970" stroke="#191970" points="521.3003,-81.28 530.2212,-75.5643 519.6831,-74.4693 521.3003,-81.28"/>
</g>
<!-- Node13 -->
<g id="node14" class="node">
<title>Node13</title>
<polygon fill="none" stroke="#bfbfbf" points="67,-56.5 67,-75.5 136,-75.5 136,-56.5 67,-56.5"/>
<text text-anchor="middle" x="101.5" y="-63.5" font-family="Helvetica,sans-Serif" font-size="10.00" fill="#000000">type_traits</text>
</g>
<!-- Node11&#45;&gt;Node13 -->
<g id="edge19" class="edge">
<title>Node11&#45;&gt;Node13</title>
<path fill="none" stroke="#191970" d="M278.6875,-117.8906C242.3178,-107.2395 183.5522,-90.0296 143.7637,-78.3772"/>
<polygon fill="#191970" stroke="#191970" points="144.6627,-74.9936 134.0821,-75.5419 142.6953,-81.7114 144.6627,-74.9936"/>
</g>
<!-- Node14 -->
<g id="node15" class="node">
<title>Node14</title>
<polygon fill="none" stroke="#bfbfbf" points="154.5,-56.5 154.5,-75.5 204.5,-75.5 204.5,-56.5 154.5,-56.5"/>
<text text-anchor="middle" x="179.5" y="-63.5" font-family="Helvetica,sans-Serif" font-size="10.00" fill="#000000">cstring</text>
</g>
<!-- Node11&#45;&gt;Node14 -->
<g id="edge20" class="edge">
<title>Node11&#45;&gt;Node14</title>
<path fill="none" stroke="#191970" d="M290.875,-117.8906C268.9827,-107.6908 234.1807,-91.4763 209.3073,-79.8875"/>
<polygon fill="#191970" stroke="#191970" points="210.5228,-76.5926 199.9802,-75.5419 207.5665,-82.9377 210.5228,-76.5926"/>
</g>
<!-- Node15 -->
<g id="node16" class="node">
<title>Node15</title>
<polygon fill="none" stroke="#bfbfbf" points="222.5,-56.5 222.5,-75.5 272.5,-75.5 272.5,-56.5 222.5,-56.5"/>
<text text-anchor="middle" x="247.5" y="-63.5" font-family="Helvetica,sans-Serif" font-size="10.00" fill="#000000">cstdint</text>
</g>
<!-- Node11&#45;&gt;Node15 -->
<g id="edge21" class="edge">
<title>Node11&#45;&gt;Node15</title>
<path fill="none" stroke="#191970" d="M301.5,-117.8906C291.7881,-108.5581 276.8361,-94.1902 265.1259,-82.9374"/>
<polygon fill="#191970" stroke="#191970" points="267.2766,-80.15 257.641,-75.7449 262.4264,-85.1974 267.2766,-80.15"/>
</g>
<!-- Node11&#45;&gt;Node16 -->
<g id="edge22" class="edge">
<title>Node11&#45;&gt;Node16</title>
<path fill="none" stroke="#191970" d="M256.662,-117.9247C207.211,-108.9421 132.3337,-94.4806 59.142,-76.2637"/>
<polygon fill="#191970" stroke="#191970" points="59.8479,-72.8323 49.2962,-73.7875 58.1405,-79.6209 59.8479,-72.8323"/>
</g>
<!-- Node17 -->
<g id="node18" class="node">
<title>Node17</title>
<polygon fill="none" stroke="#bfbfbf" points="291,-56.5 291,-75.5 340,-75.5 340,-56.5 291,-56.5"/>
<text text-anchor="middle" x="315.5" y="-63.5" font-family="Helvetica,sans-Serif" font-size="10.00" fill="#000000">iosfwd</text>
</g>
<!-- Node11&#45;&gt;Node17 -->
<g id="edge23" class="edge">
<title>Node11&#45;&gt;Node17</title>
<path fill="none" stroke="#191970" d="M312.125,-117.8906C312.6795,-109.3657 313.5072,-96.6392 314.2042,-85.9235"/>
<polygon fill="#191970" stroke="#191970" points="317.7097,-85.951 314.8662,-75.7449 310.7244,-85.4966 317.7097,-85.951"/>
</g>
<!-- Node18 -->
<g id="node19" class="node">
<title>Node18</title>
<polygon fill="none" stroke="#bfbfbf" points="358,-56.5 358,-75.5 441,-75.5 441,-56.5 358,-56.5"/>
<text text-anchor="middle" x="399.5" y="-63.5" font-family="Helvetica,sans-Serif" font-size="10.00" fill="#000000">initializer_list</text>
</g>
<!-- Node11&#45;&gt;Node18 -->
<g id="edge24" class="edge">
<title>Node11&#45;&gt;Node18</title>
<path fill="none" stroke="#191970" d="M325.25,-117.8906C339.1991,-108.1421 361.0098,-92.8994 377.3897,-81.4521"/>
<polygon fill="#191970" stroke="#191970" points="379.6548,-84.1392 385.8466,-75.5419 375.6449,-78.4015 379.6548,-84.1392"/>
</g>
<!-- Node19&#45;&gt;Node5 -->
<g id="edge31" class="edge">
<title>Node19&#45;&gt;Node5</title>
<path fill="none" stroke="#191970" d="M1425.6999,-117.6159C1425.4465,-102.1858 1422.5924,-72.4422 1405.5,-56 1382.7196,-34.0862 1293.4041,-19.9503 1244.6638,-13.7033"/>
<polygon fill="#191970" stroke="#191970" points="1244.9881,-10.2167 1234.6325,-12.4556 1244.124,-17.1632 1244.9881,-10.2167"/>
</g>
<!-- Node19&#45;&gt;Node7 -->
<g id="edge30" class="edge">
<title>Node19&#45;&gt;Node7</title>
<path fill="none" stroke="#191970" d="M1384.3845,-117.9581C1332.1046,-105.8252 1242.8169,-85.1037 1194.2986,-73.8438"/>
<polygon fill="#191970" stroke="#191970" points="1194.8401,-70.3765 1184.3077,-71.5252 1193.2576,-77.1953 1194.8401,-70.3765"/>
</g>
<!-- Node20 -->
<g id="node21" class="node">
<title>Node20</title>
<g id="a_node21"><a xlink:href="../../dd/de5/ChannelInfo_8h.html" target="_top" xlink:title="Framework/ChannelInfo.h">
<polygon fill="none" stroke="#000000" points="1454,-56.5 1454,-75.5 1595,-75.5 1595,-56.5 1454,-56.5"/>
<text text-anchor="middle" x="1524.5" y="-63.5" font-family="Helvetica,sans-Serif" font-size="10.00" fill="#000000">Framework/ChannelInfo.h</text>
</a>
</g>
</g>
<!-- Node19&#45;&gt;Node20 -->
<g id="edge28" class="edge">
<title>Node19&#45;&gt;Node20</title>
<path fill="none" stroke="#191970" d="M1440.9688,-117.8906C1456.9521,-107.9616 1482.1103,-92.333 1500.6433,-80.8201"/>
<polygon fill="#191970" stroke="#191970" points="1502.4924,-83.7918 1509.1399,-75.5419 1498.7985,-77.8457 1502.4924,-83.7918"/>
</g>
<!-- Node21 -->
<g id="node22" class="node">
<title>Node21</title>
<polygon fill="none" stroke="#bfbfbf" points="1613.5,-56.5 1613.5,-75.5 1651.5,-75.5 1651.5,-56.5 1613.5,-56.5"/>
<text text-anchor="middle" x="1632.5" y="-63.5" font-family="Helvetica,sans-Serif" font-size="10.00" fill="#000000">map</text>
</g>
<!-- Node19&#45;&gt;Node21 -->
<g id="edge32" class="edge">
<title>Node19&#45;&gt;Node21</title>
<path fill="none" stroke="#191970" d="M1461.0207,-117.9891C1495.299,-108.6543 1548.839,-93.6644 1603.7368,-76.1162"/>
<polygon fill="#191970" stroke="#191970" points="1604.8284,-79.4417 1613.2746,-73.0455 1602.6832,-72.7785 1604.8284,-79.4417"/>
</g>
<!-- Node22 -->
<g id="node23" class="node">
<title>Node22</title>
<polygon fill="none" stroke="#bfbfbf" points="1352,-56.5 1352,-75.5 1397,-75.5 1397,-56.5 1352,-56.5"/>
<text text-anchor="middle" x="1374.5" y="-63.5" font-family="Helvetica,sans-Serif" font-size="10.00" fill="#000000">utility</text>
</g>
<!-- Node19&#45;&gt;Node22 -->
<g id="edge33" class="edge">
<title>Node19&#45;&gt;Node22</title>
<path fill="none" stroke="#191970" d="M1417.5313,-117.8906C1409.9409,-108.7376 1398.3339,-94.7409 1389.0868,-83.59"/>
<polygon fill="#191970" stroke="#191970" points="1391.6587,-81.2083 1382.5811,-75.7449 1386.2703,-85.6766 1391.6587,-81.2083"/>
</g>
<!-- Node20&#45;&gt;Node5 -->
<g id="edge29" class="edge">
<title>Node20&#45;&gt;Node5</title>
<path fill="none" stroke="#191970" d="M1471.2198,-56.4369C1406.1162,-44.7516 1298.0457,-25.3544 1244.5407,-15.7509"/>
<polygon fill="#191970" stroke="#191970" points="1245.0572,-12.2877 1234.5961,-13.966 1243.8205,-19.1776 1245.0572,-12.2877"/>
</g>
</g>
</svg>
        <g id="navigator" transform="translate(0 0)" fill="#404254">
                <rect fill="#f2f5e9" fill-opacity="0.5" stroke="#606060" stroke-width=".5" x="0" y="0" width="60" height="60"/>
                <use id="zoomplus" xlink:href="#zoomPlus" x="17" y="9" onmousedown="handleZoom(evt,'in')"/>
                <use id="zoomminus" xlink:href="#zoomMin" x="42" y="9" onmousedown="handleZoom(evt,'out')"/>
                <use id="reset" xlink:href="#resetDef" x="30" y="36" onmousedown="handleReset()"/>
                <g id="arrowUp" xlink:href="#dirArrow" transform="translate(30 24)" onmousedown="handlePan(0,-1)">
                  <use xlink:href="#rim" fill="#404040">
                        <set attributeName="fill" to="#808080" begin="arrowUp.mouseover" end="arrowUp.mouseout"/>
                  </use>
                  <path fill="none" stroke="white" stroke-width="1.5" d="M0,-3.0v7 M-2.5,-0.5L0,-3.0L2.5,-0.5"/>
                </g>
                <g id="arrowRight" xlink:href="#dirArrow" transform="rotate(90) translate(36 -43)" onmousedown="handlePan(1,0)">
                  <use xlink:href="#rim" fill="#404040">
                        <set attributeName="fill" to="#808080" begin="arrowRight.mouseover" end="arrowRight.mouseout"/>
                  </use>
                  <path fill="none" stroke="white" stroke-width="1.5" d="M0,-3.0v7 M-2.5,-0.5L0,-3.0L2.5,-0.5"/>
                </g>
                <g id="arrowDown" xlink:href="#dirArrow" transform="rotate(180) translate(-30 -48)" onmousedown="handlePan(0,1)">
                  <use xlink:href="#rim" fill="#404040">
                        <set attributeName="fill" to="#808080" begin="arrowDown.mouseover" end="arrowDown.mouseout"/>
                  </use>
                  <path fill="none" stroke="white" stroke-width="1.5" d="M0,-3.0v7 M-2.5,-0.5L0,-3.0L2.5,-0.5"/>
                </g>
                <g id="arrowLeft" xlink:href="#dirArrow" transform="rotate(270) translate(-36 17)" onmousedown="handlePan(-1,0)">
                  <use xlink:href="#rim" fill="#404040">
                        <set attributeName="fill" to="#808080" begin="arrowLeft.mouseover" end="arrowLeft.mouseout"/>
                  </use>
                  <path fill="none" stroke="white" stroke-width="1.5" d="M0,-3.0v7 M-2.5,-0.5L0,-3.0L2.5,-0.5"/>
                </g>
        </g>
        <svg viewBox="0 0 15 15" width="100%" height="30px" preserveAspectRatio="xMaxYMin meet">
         <g id="arrow_out" transform="scale(0.3 0.3)">
          <a xlink:href="DeviceConfigInfo_8cxx__incl_org.svg" target="_base">
           <rect id="button" ry="5" rx="5" y="6" x="6" height="38" width="38"
                fill="#f2f5e9" fill-opacity="0.5" stroke="#606060" stroke-width="1.0"/>
           <path id="arrow"
             d="M 11.500037,31.436501 C 11.940474,20.09759 22.043105,11.32322 32.158766,21.979434 L 37.068811,17.246167 C 37.068811,17.246167 37.088388,32 37.088388,32 L 22.160133,31.978069 C 22.160133,31.978069 26.997745,27.140456 26.997745,27.140456 C 18.528582,18.264221 13.291696,25.230495 11.500037,31.436501 z"
             style="fill:#404040;"/>
          </a>
         </g>
        </svg>
</svg>
