<?xml version="1.0" encoding="UTF-8" standalone="no"?>
<!DOCTYPE svg PUBLIC "-//W3C//DTD SVG 1.1//EN"
 "http://www.w3.org/Graphics/SVG/1.1/DTD/svg11.dtd">
<!-- Generated by graphviz version 2.40.1 (20161225.0304)
 -->
<!-- Title: /home/travis/build/AliceO2Group/AliceO2/Framework/Core/src/ConfigurationOptionsRetriever.cxx Pages: 1 -->
<svg width="1356pt" height="374pt"
 viewBox="0.00 0.00 1356.49 374.00" xmlns="http://www.w3.org/2000/svg" xmlns:xlink="http://www.w3.org/1999/xlink">
<g id="graph0" class="graph" transform="scale(1 1) rotate(0) translate(4 370)">
<title>/home/travis/build/AliceO2Group/AliceO2/Framework/Core/src/ConfigurationOptionsRetriever.cxx</title>
<!-- Node0 -->
<g id="node1" class="node">
<title>Node0</title>
<polygon fill="#bfbfbf" stroke="#000000" points="680.9923,-313.5 680.9923,-365.5 865.9923,-365.5 865.9923,-313.5 680.9923,-313.5"/>
<text text-anchor="start" x="688.9923" y="-353.5" font-family="Helvetica,sans-Serif" font-size="10.00" fill="#000000">/home/travis/build</text>
<text text-anchor="start" x="688.9923" y="-342.5" font-family="Helvetica,sans-Serif" font-size="10.00" fill="#000000">/AliceO2Group/AliceO2</text>
<text text-anchor="start" x="688.9923" y="-331.5" font-family="Helvetica,sans-Serif" font-size="10.00" fill="#000000">/Framework/Core/src/Configuration</text>
<text text-anchor="middle" x="773.4923" y="-320.5" font-family="Helvetica,sans-Serif" font-size="10.00" fill="#000000">OptionsRetriever.cxx</text>
</g>
<!-- Node1 -->
<g id="node2" class="node">
<title>Node1</title>
<g id="a_node2"><a xlink:href="../../da/d98/ConfigurationOptionsRetriever_8h.html" target="_top" xlink:title="ConfigurationOptionsRetriever.h">
<polygon fill="none" stroke="#000000" points="81.4923,-252 81.4923,-271 253.4923,-271 253.4923,-252 81.4923,-252"/>
<text text-anchor="middle" x="167.4923" y="-259" font-family="Helvetica,sans-Serif" font-size="10.00" fill="#000000">ConfigurationOptionsRetriever.h</text>
</a>
</g>
</g>
<!-- Node0&#45;&gt;Node1 -->
<g id="edge1" class="edge">
<title>Node0&#45;&gt;Node1</title>
<path fill="none" stroke="#191970" d="M680.7943,-327.5686C563.8032,-312.5103 364.2743,-286.8284 251.5354,-272.3174"/>
<polygon fill="#191970" stroke="#191970" points="251.9345,-268.84 241.5695,-271.0347 251.0408,-275.7827 251.9345,-268.84"/>
</g>
<!-- Node3 -->
<g id="node4" class="node">
<title>Node3</title>
<g id="a_node4"><a xlink:href="../../d0/d1c/ConfigParamSpec_8h.html" target="_top" xlink:title="Framework/ConfigParamSpec.h">
<polygon fill="none" stroke="#000000" points="208.9923,-118 208.9923,-137 375.9923,-137 375.9923,-118 208.9923,-118"/>
<text text-anchor="middle" x="292.4923" y="-125" font-family="Helvetica,sans-Serif" font-size="10.00" fill="#000000">Framework/ConfigParamSpec.h</text>
</a>
</g>
</g>
<!-- Node0&#45;&gt;Node3 -->
<g id="edge23" class="edge">
<title>Node0&#45;&gt;Node3</title>
<path fill="none" stroke="#191970" d="M680.9466,-329.1486C616.3559,-320.0489 528.9144,-303.9379 455.4923,-277 398.1469,-255.9605 378.0595,-253.8087 335.4923,-210 317.8034,-191.7951 305.6276,-164.8507 298.8622,-146.7578"/>
<polygon fill="#191970" stroke="#191970" points="302.1375,-145.5214 295.5033,-137.2607 295.5381,-147.8555 302.1375,-145.5214"/>
</g>
<!-- Node13 -->
<g id="node14" class="node">
<title>Node13</title>
<polygon fill="none" stroke="#bfbfbf" points="270.4923,-.5 270.4923,-19.5 314.4923,-19.5 314.4923,-.5 270.4923,-.5"/>
<text text-anchor="middle" x="292.4923" y="-7.5" font-family="Helvetica,sans-Serif" font-size="10.00" fill="#000000">string</text>
</g>
<!-- Node0&#45;&gt;Node13 -->
<g id="edge32" class="edge">
<title>Node0&#45;&gt;Node13</title>
<path fill="none" stroke="#191970" d="M778.9879,-313.44C784.5994,-284.5182 792.4923,-236.3915 792.4923,-194.5 792.4923,-194.5 792.4923,-194.5 792.4923,-127.5 792.4923,-31.0635 435.5546,-13.7073 324.8407,-10.6433"/>
<polygon fill="#191970" stroke="#191970" points="324.708,-7.1388 314.6219,-10.3823 324.5292,-14.1366 324.708,-7.1388"/>
</g>
<!-- Node15 -->
<g id="node16" class="node">
<title>Node15</title>
<polygon fill="none" stroke="#bfbfbf" points="393.9923,-118 393.9923,-137 440.9923,-137 440.9923,-118 393.9923,-118"/>
<text text-anchor="middle" x="417.4923" y="-125" font-family="Helvetica,sans-Serif" font-size="10.00" fill="#000000">vector</text>
</g>
<!-- Node0&#45;&gt;Node15 -->
<g id="edge33" class="edge">
<title>Node0&#45;&gt;Node15</title>
<path fill="none" stroke="#191970" d="M775.4605,-313.2478C776.5804,-277.3946 772.7014,-213.6247 735.4923,-179 694.7124,-141.0524 524.849,-130.9786 451.4836,-128.3764"/>
<polygon fill="#191970" stroke="#191970" points="451.4959,-124.875 441.3863,-128.0443 451.2657,-131.8713 451.4959,-124.875"/>
</g>
<!-- Node16 -->
<g id="node17" class="node">
<title>Node16</title>
<polygon fill="none" stroke="#bfbfbf" points="820.4923,-246.5 820.4923,-276.5 970.4923,-276.5 970.4923,-246.5 820.4923,-246.5"/>
<text text-anchor="start" x="828.4923" y="-264.5" font-family="Helvetica,sans-Serif" font-size="10.00" fill="#000000">Configuration/Configuration</text>
<text text-anchor="middle" x="895.4923" y="-253.5" font-family="Helvetica,sans-Serif" font-size="10.00" fill="#000000">Interface.h</text>
</g>
<!-- Node0&#45;&gt;Node16 -->
<g id="edge22" class="edge">
<title>Node0&#45;&gt;Node16</title>
<path fill="none" stroke="#191970" d="M814.456,-313.3101C830.4271,-303.0991 848.4596,-291.5701 863.4526,-281.9844"/>
<polygon fill="#191970" stroke="#191970" points="865.3505,-284.9252 871.8904,-276.5897 861.5799,-279.0276 865.3505,-284.9252"/>
</g>
<!-- Node17 -->
<g id="node18" class="node">
<title>Node17</title>
<g id="a_node18"><a xlink:href="../../da/d3e/PropertyTreeHelpers_8h.html" target="_top" xlink:title="PropertyTreeHelpers.h">
<polygon fill="none" stroke="#000000" points="515.9923,-252 515.9923,-271 640.9923,-271 640.9923,-252 515.9923,-252"/>
<text text-anchor="middle" x="578.4923" y="-259" font-family="Helvetica,sans-Serif" font-size="10.00" fill="#000000">PropertyTreeHelpers.h</text>
</a>
</g>
</g>
<!-- Node0&#45;&gt;Node17 -->
<g id="edge24" class="edge">
<title>Node0&#45;&gt;Node17</title>
<path fill="none" stroke="#191970" d="M708.2891,-313.4187C676.0873,-300.538 638.5867,-285.5377 612.1983,-274.9824"/>
<polygon fill="#191970" stroke="#191970" points="613.2477,-271.6326 602.6631,-271.1683 610.6479,-278.1319 613.2477,-271.6326"/>
</g>
<!-- Node18 -->
<g id="node19" class="node">
<title>Node18</title>
<polygon fill="none" stroke="#bfbfbf" points="343.9923,-179.5 343.9923,-209.5 456.9923,-209.5 456.9923,-179.5 343.9923,-179.5"/>
<text text-anchor="start" x="351.9923" y="-197.5" font-family="Helvetica,sans-Serif" font-size="10.00" fill="#000000">boost/property_tree</text>
<text text-anchor="middle" x="400.4923" y="-186.5" font-family="Helvetica,sans-Serif" font-size="10.00" fill="#000000">/ptree.hpp</text>
</g>
<!-- Node0&#45;&gt;Node18 -->
<g id="edge30" class="edge">
<title>Node0&#45;&gt;Node18</title>
<path fill="none" stroke="#191970" d="M680.692,-327.6432C628.0521,-318.5135 562.0097,-302.9192 507.4923,-277 475.3249,-261.7066 443.6728,-235.5307 423.2418,-216.7625"/>
<polygon fill="#191970" stroke="#191970" points="425.4155,-214.003 415.7237,-209.7228 420.631,-219.1127 425.4155,-214.003"/>
</g>
<!-- Node21 -->
<g id="node22" class="node">
<title>Node21</title>
<polygon fill="none" stroke="#bfbfbf" points="988.4923,-252 988.4923,-271 1138.4923,-271 1138.4923,-252 988.4923,-252"/>
<text text-anchor="middle" x="1063.4923" y="-259" font-family="Helvetica,sans-Serif" font-size="10.00" fill="#000000">boost/program_options.hpp</text>
</g>
<!-- Node0&#45;&gt;Node21 -->
<g id="edge29" class="edge">
<title>Node0&#45;&gt;Node21</title>
<path fill="none" stroke="#191970" d="M866.0475,-314.6059C916.7812,-300.9602 977.4147,-284.6519 1017.983,-273.7405"/>
<polygon fill="#191970" stroke="#191970" points="1019.0987,-277.0648 1027.8464,-271.0875 1017.2805,-270.3051 1019.0987,-277.0648"/>
</g>
<!-- Node22 -->
<g id="node23" class="node">
<title>Node22</title>
<polygon fill="none" stroke="#bfbfbf" points="1156.9923,-246.5 1156.9923,-276.5 1269.9923,-276.5 1269.9923,-246.5 1156.9923,-246.5"/>
<text text-anchor="start" x="1164.9923" y="-264.5" font-family="Helvetica,sans-Serif" font-size="10.00" fill="#000000">boost/property_tree</text>
<text text-anchor="middle" x="1213.4923" y="-253.5" font-family="Helvetica,sans-Serif" font-size="10.00" fill="#000000">/json_parser.hpp</text>
</g>
<!-- Node0&#45;&gt;Node22 -->
<g id="edge31" class="edge">
<title>Node0&#45;&gt;Node22</title>
<path fill="none" stroke="#191970" d="M866.0173,-325.754C939.5216,-314.4352 1045.1222,-297.2895 1146.8324,-277.0613"/>
<polygon fill="#191970" stroke="#191970" points="1147.5432,-280.4885 1156.662,-275.0942 1146.1696,-273.6246 1147.5432,-280.4885"/>
</g>
<!-- Node23 -->
<g id="node24" class="node">
<title>Node23</title>
<polygon fill="none" stroke="#bfbfbf" points="1288.4923,-252 1288.4923,-271 1348.4923,-271 1348.4923,-252 1288.4923,-252"/>
<text text-anchor="middle" x="1318.4923" y="-259" font-family="Helvetica,sans-Serif" font-size="10.00" fill="#000000">iostream</text>
</g>
<!-- Node0&#45;&gt;Node23 -->
<g id="edge34" class="edge">
<title>Node0&#45;&gt;Node23</title>
<path fill="none" stroke="#191970" d="M866.2142,-335.1515C968.7007,-328.7121 1138.0047,-313.2174 1279.4923,-277 1282.2716,-276.2886 1285.1185,-275.4293 1287.9466,-274.4845"/>
<polygon fill="#191970" stroke="#191970" points="1289.1783,-277.7608 1297.3631,-271.0334 1286.7694,-271.1884 1289.1783,-277.7608"/>
</g>
<!-- Node2 -->
<g id="node3" class="node">
<title>Node2</title>
<g id="a_node3"><a xlink:href="../../df/d72/ParamRetriever_8h.html" target="_top" xlink:title="Framework/ParamRetriever.h">
<polygon fill="none" stroke="#000000" points="53.9923,-185 53.9923,-204 210.9923,-204 210.9923,-185 53.9923,-185"/>
<text text-anchor="middle" x="132.4923" y="-192" font-family="Helvetica,sans-Serif" font-size="10.00" fill="#000000">Framework/ParamRetriever.h</text>
</a>
</g>
</g>
<!-- Node1&#45;&gt;Node2 -->
<g id="edge2" class="edge">
<title>Node1&#45;&gt;Node2</title>
<path fill="none" stroke="#191970" d="M162.4777,-251.9005C157.2277,-241.8505 148.8495,-225.8122 142.2821,-213.2403"/>
<polygon fill="#191970" stroke="#191970" points="145.2301,-211.3246 137.4977,-204.0817 139.0257,-214.5657 145.2301,-211.3246"/>
</g>
<!-- Node1&#45;&gt;Node3 -->
<g id="edge18" class="edge">
<title>Node1&#45;&gt;Node3</title>
<path fill="none" stroke="#191970" d="M177.6572,-251.8187C188.2846,-241.608 205.3521,-224.958 219.4923,-210 240.0783,-188.2236 262.8117,-162.1982 277.3519,-145.2829"/>
<polygon fill="#191970" stroke="#191970" points="280.3088,-147.2109 284.1539,-137.3384 274.9914,-142.6582 280.3088,-147.2109"/>
</g>
<!-- Node1&#45;&gt;Node13 -->
<g id="edge20" class="edge">
<title>Node1&#45;&gt;Node13</title>
<path fill="none" stroke="#191970" d="M114.5899,-251.9203C87.7313,-244.5737 56.4408,-231.8321 35.4923,-210 4.5172,-177.7181 -13.1638,-148.6516 12.4923,-112 41.8513,-70.0586 193.1647,-32.0037 260.3209,-16.8933"/>
<polygon fill="#191970" stroke="#191970" points="261.341,-20.2522 270.3449,-14.6681 259.824,-13.4185 261.341,-20.2522"/>
</g>
<!-- Node14 -->
<g id="node15" class="node">
<title>Node14</title>
<polygon fill="none" stroke="#bfbfbf" points="21.9923,-112.5 21.9923,-142.5 134.9923,-142.5 134.9923,-112.5 21.9923,-112.5"/>
<text text-anchor="start" x="29.9923" y="-130.5" font-family="Helvetica,sans-Serif" font-size="10.00" fill="#000000">boost/property_tree</text>
<text text-anchor="middle" x="78.4923" y="-119.5" font-family="Helvetica,sans-Serif" font-size="10.00" fill="#000000">/ptree_fwd.hpp</text>
</g>
<!-- Node1&#45;&gt;Node14 -->
<g id="edge19" class="edge">
<title>Node1&#45;&gt;Node14</title>
<path fill="none" stroke="#191970" d="M109.7579,-251.9178C85.3313,-244.6979 59.1768,-232.0681 44.4923,-210 32.1758,-191.4905 44.3543,-167.806 57.4345,-150.5659"/>
<polygon fill="#191970" stroke="#191970" points="60.2536,-152.646 63.8248,-142.6712 54.8127,-148.2419 60.2536,-152.646"/>
</g>
<!-- Node1&#45;&gt;Node15 -->
<g id="edge21" class="edge">
<title>Node1&#45;&gt;Node15</title>
<path fill="none" stroke="#191970" d="M185.4717,-251.8631C228.8959,-228.5877 339.6773,-169.2088 390.8451,-141.7829"/>
<polygon fill="#191970" stroke="#191970" points="392.5156,-144.8587 399.6759,-137.0496 389.2086,-138.689 392.5156,-144.8587"/>
</g>
<!-- Node2&#45;&gt;Node3 -->
<g id="edge3" class="edge">
<title>Node2&#45;&gt;Node3</title>
<path fill="none" stroke="#191970" d="M155.4164,-184.9005C182.8621,-173.4077 229.0087,-154.0838 260.0912,-141.068"/>
<polygon fill="#191970" stroke="#191970" points="261.7387,-144.1726 269.6108,-137.0817 259.0349,-137.7159 261.7387,-144.1726"/>
</g>
<!-- Node2&#45;&gt;Node13 -->
<g id="edge16" class="edge">
<title>Node2&#45;&gt;Node13</title>
<path fill="none" stroke="#191970" d="M140.3106,-184.7308C152.8176,-169.168 178.1885,-137.8638 200.4923,-112 226.6363,-81.683 258.053,-47.2662 276.5852,-27.1628"/>
<polygon fill="#191970" stroke="#191970" points="279.2492,-29.4371 283.464,-19.7168 274.1074,-24.6871 279.2492,-29.4371"/>
</g>
<!-- Node2&#45;&gt;Node14 -->
<g id="edge15" class="edge">
<title>Node2&#45;&gt;Node14</title>
<path fill="none" stroke="#191970" d="M124.7555,-184.9005C117.5745,-175.9908 106.6004,-162.3748 97.1424,-150.6399"/>
<polygon fill="#191970" stroke="#191970" points="99.5998,-148.1114 90.5994,-142.5218 94.1496,-152.5041 99.5998,-148.1114"/>
</g>
<!-- Node2&#45;&gt;Node15 -->
<g id="edge17" class="edge">
<title>Node2&#45;&gt;Node15</title>
<path fill="none" stroke="#191970" d="M201.2889,-184.9662C252.607,-176.7731 323.9914,-163.073 384.4923,-143 386.1444,-142.4519 387.8224,-141.8426 389.5016,-141.1918"/>
<polygon fill="#191970" stroke="#191970" points="391.1443,-144.2959 398.9611,-137.144 388.3905,-137.8603 391.1443,-144.2959"/>
</g>
<!-- Node4 -->
<g id="node5" class="node">
<title>Node4</title>
<g id="a_node5"><a xlink:href="../../de/d56/Variant_8h.html" target="_top" xlink:title="Framework/Variant.h">
<polygon fill="none" stroke="#000000" points="820.9923,-56.5 820.9923,-75.5 937.9923,-75.5 937.9923,-56.5 820.9923,-56.5"/>
<text text-anchor="middle" x="879.4923" y="-63.5" font-family="Helvetica,sans-Serif" font-size="10.00" fill="#000000">Framework/Variant.h</text>
</a>
</g>
</g>
<!-- Node3&#45;&gt;Node4 -->
<g id="edge4" class="edge">
<title>Node3&#45;&gt;Node4</title>
<path fill="none" stroke="#191970" d="M345.5087,-117.9836C358.5545,-115.8299 372.5063,-113.6845 385.4923,-112 536.7261,-92.382 715.0576,-77.8974 810.6693,-70.8291"/>
<polygon fill="#191970" stroke="#191970" points="811.0693,-74.3093 820.786,-70.0861 810.5565,-67.3281 811.0693,-74.3093"/>
</g>
<!-- Node3&#45;&gt;Node13 -->
<g id="edge14" class="edge">
<title>Node3&#45;&gt;Node13</title>
<path fill="none" stroke="#191970" d="M292.4923,-117.8845C292.4923,-98.6913 292.4923,-55.286 292.4923,-29.7663"/>
<polygon fill="#191970" stroke="#191970" points="295.9924,-29.7483 292.4923,-19.7484 288.9924,-29.7484 295.9924,-29.7483"/>
</g>
<!-- Node5 -->
<g id="node6" class="node">
<title>Node5</title>
<g id="a_node6"><a xlink:href="../../d1/d76/RuntimeError_8h.html" target="_top" xlink:title="Framework/RuntimeError.h">
<polygon fill="none" stroke="#000000" points="1148.4923,-.5 1148.4923,-19.5 1294.4923,-19.5 1294.4923,-.5 1148.4923,-.5"/>
<text text-anchor="middle" x="1221.4923" y="-7.5" font-family="Helvetica,sans-Serif" font-size="10.00" fill="#000000">Framework/RuntimeError.h</text>
</a>
</g>
</g>
<!-- Node4&#45;&gt;Node5 -->
<g id="edge5" class="edge">
<title>Node4&#45;&gt;Node5</title>
<path fill="none" stroke="#191970" d="M937.8956,-56.4369C997.533,-46.6717 1090.0621,-31.5207 1153.0889,-21.2006"/>
<polygon fill="#191970" stroke="#191970" points="1154.0269,-24.5937 1163.3299,-19.5237 1152.8958,-17.6857 1154.0269,-24.5937"/>
</g>
<!-- Node6 -->
<g id="node7" class="node">
<title>Node6</title>
<polygon fill="none" stroke="#bfbfbf" points="597.9923,-.5 597.9923,-19.5 666.9923,-19.5 666.9923,-.5 597.9923,-.5"/>
<text text-anchor="middle" x="632.4923" y="-7.5" font-family="Helvetica,sans-Serif" font-size="10.00" fill="#000000">type_traits</text>
</g>
<!-- Node4&#45;&gt;Node6 -->
<g id="edge6" class="edge">
<title>Node4&#45;&gt;Node6</title>
<path fill="none" stroke="#191970" d="M837.5015,-56.4931C798.5339,-47.6687 738.6406,-34.1011 676.9863,-20.1111"/>
<polygon fill="#191970" stroke="#191970" points="677.6057,-16.6627 667.079,-17.8628 676.0565,-23.4891 677.6057,-16.6627"/>
</g>
<!-- Node7 -->
<g id="node8" class="node">
<title>Node7</title>
<polygon fill="none" stroke="#bfbfbf" points="685.4923,-.5 685.4923,-19.5 735.4923,-19.5 735.4923,-.5 685.4923,-.5"/>
<text text-anchor="middle" x="710.4923" y="-7.5" font-family="Helvetica,sans-Serif" font-size="10.00" fill="#000000">cstring</text>
</g>
<!-- Node4&#45;&gt;Node7 -->
<g id="edge7" class="edge">
<title>Node4&#45;&gt;Node7</title>
<path fill="none" stroke="#191970" d="M850.4402,-56.3733C821.231,-46.6945 776.196,-31.7716 745.1422,-21.4816"/>
<polygon fill="#191970" stroke="#191970" points="746.1822,-18.1391 735.5888,-18.316 743.9803,-24.7838 746.1822,-18.1391"/>
</g>
<!-- Node8 -->
<g id="node9" class="node">
<title>Node8</title>
<polygon fill="none" stroke="#bfbfbf" points="753.4923,-.5 753.4923,-19.5 803.4923,-19.5 803.4923,-.5 753.4923,-.5"/>
<text text-anchor="middle" x="778.4923" y="-7.5" font-family="Helvetica,sans-Serif" font-size="10.00" fill="#000000">cstdint</text>
</g>
<!-- Node4&#45;&gt;Node8 -->
<g id="edge8" class="edge">
<title>Node4&#45;&gt;Node8</title>
<path fill="none" stroke="#191970" d="M861.8995,-56.2455C846.1133,-47.4928 822.7285,-34.527 804.7336,-24.5496"/>
<polygon fill="#191970" stroke="#191970" points="806.3265,-21.4308 795.8836,-19.6427 802.9321,-27.5528 806.3265,-21.4308"/>
</g>
<!-- Node9 -->
<g id="node10" class="node">
<title>Node9</title>
<polygon fill="none" stroke="#bfbfbf" points="821.9923,-.5 821.9923,-19.5 870.9923,-19.5 870.9923,-.5 821.9923,-.5"/>
<text text-anchor="middle" x="846.4923" y="-7.5" font-family="Helvetica,sans-Serif" font-size="10.00" fill="#000000">cstdlib</text>
</g>
<!-- Node4&#45;&gt;Node9 -->
<g id="edge9" class="edge">
<title>Node4&#45;&gt;Node9</title>
<path fill="none" stroke="#191970" d="M873.7442,-56.2455C869.2488,-48.617 862.8675,-37.7881 857.4099,-28.5267"/>
<polygon fill="#191970" stroke="#191970" points="860.267,-26.4811 852.1746,-19.6427 854.2362,-30.035 860.267,-26.4811"/>
</g>
<!-- Node10 -->
<g id="node11" class="node">
<title>Node10</title>
<polygon fill="none" stroke="#bfbfbf" points="888.9923,-.5 888.9923,-19.5 937.9923,-19.5 937.9923,-.5 888.9923,-.5"/>
<text text-anchor="middle" x="913.4923" y="-7.5" font-family="Helvetica,sans-Serif" font-size="10.00" fill="#000000">iosfwd</text>
</g>
<!-- Node4&#45;&gt;Node10 -->
<g id="edge10" class="edge">
<title>Node4&#45;&gt;Node10</title>
<path fill="none" stroke="#191970" d="M885.4147,-56.2455C890.095,-48.5367 896.7596,-37.5598 902.4212,-28.2348"/>
<polygon fill="#191970" stroke="#191970" points="905.4398,-30.007 907.6379,-19.6427 899.4563,-26.3741 905.4398,-30.007"/>
</g>
<!-- Node11 -->
<g id="node12" class="node">
<title>Node11</title>
<polygon fill="none" stroke="#bfbfbf" points="955.9923,-.5 955.9923,-19.5 1038.9923,-19.5 1038.9923,-.5 955.9923,-.5"/>
<text text-anchor="middle" x="997.4923" y="-7.5" font-family="Helvetica,sans-Serif" font-size="10.00" fill="#000000">initializer_list</text>
</g>
<!-- Node4&#45;&gt;Node11 -->
<g id="edge11" class="edge">
<title>Node4&#45;&gt;Node11</title>
<path fill="none" stroke="#191970" d="M899.7773,-56.3733C918.6344,-47.4241 946.9383,-33.9917 968.2378,-23.8835"/>
<polygon fill="#191970" stroke="#191970" points="969.9385,-26.9506 977.4721,-19.5011 966.9372,-20.6266 969.9385,-26.9506"/>
</g>
<!-- Node12 -->
<g id="node13" class="node">
<title>Node12</title>
<polygon fill="none" stroke="#bfbfbf" points="1056.9923,-.5 1056.9923,-19.5 1129.9923,-19.5 1129.9923,-.5 1056.9923,-.5"/>
<text text-anchor="middle" x="1093.4923" y="-7.5" font-family="Helvetica,sans-Serif" font-size="10.00" fill="#000000">string_view</text>
</g>
<!-- Node4&#45;&gt;Node12 -->
<g id="edge12" class="edge">
<title>Node4&#45;&gt;Node12</title>
<path fill="none" stroke="#191970" d="M916.2803,-56.3733C952.5584,-46.8799 1008.1159,-32.3415 1047.3369,-22.0781"/>
<polygon fill="#191970" stroke="#191970" points="1048.3963,-25.4188 1057.1845,-19.5011 1046.6242,-18.6468 1048.3963,-25.4188"/>
</g>
<!-- Node4&#45;&gt;Node13 -->
<g id="edge13" class="edge">
<title>Node4&#45;&gt;Node13</title>
<path fill="none" stroke="#191970" d="M820.9517,-57.7349C816.0638,-57.1196 811.1954,-56.5323 806.4923,-56 624.5922,-35.413 405.6193,-18.3851 324.6309,-12.3496"/>
<polygon fill="#191970" stroke="#191970" points="324.804,-8.853 314.5726,-11.6039 324.2864,-15.8338 324.804,-8.853"/>
</g>
<!-- Node17&#45;&gt;Node3 -->
<g id="edge25" class="edge">
<title>Node17&#45;&gt;Node3</title>
<path fill="none" stroke="#191970" d="M564.3268,-251.8622C549.4925,-241.6871 525.6009,-225.0657 505.4923,-210 487.772,-196.7236 486.1355,-189.2185 466.4923,-179 430.753,-160.4081 387.3022,-147.5399 352.7617,-139.3164"/>
<polygon fill="#191970" stroke="#191970" points="353.3408,-135.858 342.8094,-137.0158 351.7642,-142.6781 353.3408,-135.858"/>
</g>
<!-- Node17&#45;&gt;Node18 -->
<g id="edge26" class="edge">
<title>Node17&#45;&gt;Node18</title>
<path fill="none" stroke="#191970" d="M552.9893,-251.9005C526.2163,-241.8231 483.4474,-225.7247 450.0069,-213.1375"/>
<polygon fill="#191970" stroke="#191970" points="450.9929,-209.7689 440.4009,-209.5218 448.5269,-216.3202 450.9929,-209.7689"/>
</g>
<!-- Node19 -->
<g id="node20" class="node">
<title>Node19</title>
<polygon fill="none" stroke="#bfbfbf" points="513.9923,-179.5 513.9923,-209.5 642.9923,-209.5 642.9923,-179.5 513.9923,-179.5"/>
<text text-anchor="start" x="521.9923" y="-197.5" font-family="Helvetica,sans-Serif" font-size="10.00" fill="#000000">boost/program_options</text>
<text text-anchor="middle" x="578.4923" y="-186.5" font-family="Helvetica,sans-Serif" font-size="10.00" fill="#000000">/variables_map.hpp</text>
</g>
<!-- Node17&#45;&gt;Node19 -->
<g id="edge27" class="edge">
<title>Node17&#45;&gt;Node19</title>
<path fill="none" stroke="#191970" d="M578.4923,-251.9005C578.4923,-243.5099 578.4923,-230.9451 578.4923,-219.7085"/>
<polygon fill="#191970" stroke="#191970" points="581.9924,-219.5217 578.4923,-209.5218 574.9924,-219.5218 581.9924,-219.5217"/>
</g>
<!-- Node20 -->
<g id="node21" class="node">
<title>Node20</title>
<polygon fill="none" stroke="#bfbfbf" points="660.9923,-185 660.9923,-204 725.9923,-204 725.9923,-185 660.9923,-185"/>
<text text-anchor="middle" x="693.4923" y="-192" font-family="Helvetica,sans-Serif" font-size="10.00" fill="#000000">functional</text>
</g>
<!-- Node17&#45;&gt;Node20 -->
<g id="edge28" class="edge">
<title>Node17&#45;&gt;Node20</title>
<path fill="none" stroke="#191970" d="M594.969,-251.9005C614.0978,-240.7559 645.8657,-222.2477 668.1439,-209.2682"/>
<polygon fill="#191970" stroke="#191970" points="670.1676,-212.1399 677.0462,-204.0817 666.6438,-206.0916 670.1676,-212.1399"/>
</g>
</g>
</svg>
