<?xml version="1.0" encoding="UTF-8" standalone="no"?>
<!DOCTYPE svg PUBLIC "-//W3C//DTD SVG 1.1//EN"
 "http://www.w3.org/Graphics/SVG/1.1/DTD/svg11.dtd">
<!-- Generated by graphviz version 2.40.1 (20161225.0304)
 -->
<!-- Title: /home/travis/build/AliceO2Group/AliceO2/Framework/Core/include/Framework/ConfigParamSpec.h Pages: 1 -->
<svg width="767pt" height="173pt"
 viewBox="0.00 0.00 767.00 173.00" xmlns="http://www.w3.org/2000/svg" xmlns:xlink="http://www.w3.org/1999/xlink">
<g id="graph0" class="graph" transform="scale(1 1) rotate(0) translate(4 169)">
<title>/home/travis/build/AliceO2Group/AliceO2/Framework/Core/include/Framework/ConfigParamSpec.h</title>
<!-- Node0 -->
<g id="node1" class="node">
<title>Node0</title>
<polygon fill="#bfbfbf" stroke="#000000" points="404,-112.5 404,-164.5 574,-164.5 574,-112.5 404,-112.5"/>
<text text-anchor="start" x="412" y="-152.5" font-family="Helvetica,sans-Serif" font-size="10.00" fill="#000000">/home/travis/build</text>
<text text-anchor="start" x="412" y="-141.5" font-family="Helvetica,sans-Serif" font-size="10.00" fill="#000000">/AliceO2Group/AliceO2</text>
<text text-anchor="start" x="412" y="-130.5" font-family="Helvetica,sans-Serif" font-size="10.00" fill="#000000">/Framework/Core/include</text>
<text text-anchor="middle" x="489" y="-119.5" font-family="Helvetica,sans-Serif" font-size="10.00" fill="#000000">/Framework/ConfigParamSpec.h</text>
</g>
<!-- Node1 -->
<g id="node2" class="node">
<title>Node1</title>
<g id="a_node2"><a xlink:href="../../de/d56/Variant_8h.html" target="_top" xlink:title="Framework/Variant.h">
<polygon fill="none" stroke="#000000" points="387.5,-56.5 387.5,-75.5 504.5,-75.5 504.5,-56.5 387.5,-56.5"/>
<text text-anchor="middle" x="446" y="-63.5" font-family="Helvetica,sans-Serif" font-size="10.00" fill="#000000">Framework/Variant.h</text>
</a>
</g>
</g>
<!-- Node0&#45;&gt;Node1 -->
<g id="edge1" class="edge">
<title>Node0&#45;&gt;Node1</title>
<path fill="none" stroke="#191970" d="M473.476,-112.3258C467.9528,-103.0135 461.8581,-92.7375 456.815,-84.2347"/>
<polygon fill="#191970" stroke="#191970" points="459.7663,-82.3495 451.6546,-75.534 453.7456,-85.9205 459.7663,-82.3495"/>
</g>
<!-- Node10 -->
<g id="node11" class="node">
<title>Node10</title>
<polygon fill="none" stroke="#bfbfbf" points="715,-.5 715,-19.5 759,-19.5 759,-.5 715,-.5"/>
<text text-anchor="middle" x="737" y="-7.5" font-family="Helvetica,sans-Serif" font-size="10.00" fill="#000000">string</text>
</g>
<!-- Node0&#45;&gt;Node10 -->
<g id="edge11" class="edge">
<title>Node0&#45;&gt;Node10</title>
<path fill="none" stroke="#191970" d="M539.1865,-112.4961C590.5507,-85.882 668.4822,-45.5021 709.5139,-24.2418"/>
<polygon fill="#191970" stroke="#191970" points="711.3693,-27.2224 718.638,-19.5142 708.1489,-21.0072 711.3693,-27.2224"/>
</g>
<!-- Node2 -->
<g id="node3" class="node">
<title>Node2</title>
<g id="a_node3"><a xlink:href="../../d1/d76/RuntimeError_8h.html" target="_top" xlink:title="Framework/RuntimeError.h">
<polygon fill="none" stroke="#000000" points="0,-.5 0,-19.5 146,-19.5 146,-.5 0,-.5"/>
<text text-anchor="middle" x="73" y="-7.5" font-family="Helvetica,sans-Serif" font-size="10.00" fill="#000000">Framework/RuntimeError.h</text>
</a>
</g>
</g>
<!-- Node1&#45;&gt;Node2 -->
<g id="edge2" class="edge">
<title>Node1&#45;&gt;Node2</title>
<path fill="none" stroke="#191970" d="M387.3084,-57.1884C322.1925,-47.4123 217.0252,-31.6231 146.4853,-21.0326"/>
<polygon fill="#191970" stroke="#191970" points="146.7467,-17.5327 136.3379,-19.5092 145.7074,-24.4552 146.7467,-17.5327"/>
</g>
<!-- Node3 -->
<g id="node4" class="node">
<title>Node3</title>
<polygon fill="none" stroke="#bfbfbf" points="164.5,-.5 164.5,-19.5 233.5,-19.5 233.5,-.5 164.5,-.5"/>
<text text-anchor="middle" x="199" y="-7.5" font-family="Helvetica,sans-Serif" font-size="10.00" fill="#000000">type_traits</text>
</g>
<!-- Node1&#45;&gt;Node3 -->
<g id="edge3" class="edge">
<title>Node1&#45;&gt;Node3</title>
<path fill="none" stroke="#191970" d="M404.0092,-56.4931C365.0415,-47.6687 305.1482,-34.1011 243.494,-20.1111"/>
<polygon fill="#191970" stroke="#191970" points="244.1133,-16.6627 233.5867,-17.8628 242.5641,-23.4891 244.1133,-16.6627"/>
</g>
<!-- Node4 -->
<g id="node5" class="node">
<title>Node4</title>
<polygon fill="none" stroke="#bfbfbf" points="252,-.5 252,-19.5 302,-19.5 302,-.5 252,-.5"/>
<text text-anchor="middle" x="277" y="-7.5" font-family="Helvetica,sans-Serif" font-size="10.00" fill="#000000">cstring</text>
</g>
<!-- Node1&#45;&gt;Node4 -->
<g id="edge4" class="edge">
<title>Node1&#45;&gt;Node4</title>
<path fill="none" stroke="#191970" d="M416.9479,-56.3733C387.7387,-46.6945 342.7036,-31.7716 311.6498,-21.4816"/>
<polygon fill="#191970" stroke="#191970" points="312.6898,-18.1391 302.0965,-18.316 310.488,-24.7838 312.6898,-18.1391"/>
</g>
<!-- Node5 -->
<g id="node6" class="node">
<title>Node5</title>
<polygon fill="none" stroke="#bfbfbf" points="320,-.5 320,-19.5 370,-19.5 370,-.5 320,-.5"/>
<text text-anchor="middle" x="345" y="-7.5" font-family="Helvetica,sans-Serif" font-size="10.00" fill="#000000">cstdint</text>
</g>
<!-- Node1&#45;&gt;Node5 -->
<g id="edge5" class="edge">
<title>Node1&#45;&gt;Node5</title>
<path fill="none" stroke="#191970" d="M428.4071,-56.2455C412.621,-47.4928 389.2361,-34.527 371.2413,-24.5496"/>
<polygon fill="#191970" stroke="#191970" points="372.8341,-21.4308 362.3913,-19.6427 369.4397,-27.5528 372.8341,-21.4308"/>
</g>
<!-- Node6 -->
<g id="node7" class="node">
<title>Node6</title>
<polygon fill="none" stroke="#bfbfbf" points="388.5,-.5 388.5,-19.5 437.5,-19.5 437.5,-.5 388.5,-.5"/>
<text text-anchor="middle" x="413" y="-7.5" font-family="Helvetica,sans-Serif" font-size="10.00" fill="#000000">cstdlib</text>
</g>
<!-- Node1&#45;&gt;Node6 -->
<g id="edge6" class="edge">
<title>Node1&#45;&gt;Node6</title>
<path fill="none" stroke="#191970" d="M440.2518,-56.2455C435.7565,-48.617 429.3752,-37.7881 423.9175,-28.5267"/>
<polygon fill="#191970" stroke="#191970" points="426.7747,-26.4811 418.6823,-19.6427 420.7439,-30.035 426.7747,-26.4811"/>
</g>
<!-- Node7 -->
<g id="node8" class="node">
<title>Node7</title>
<polygon fill="none" stroke="#bfbfbf" points="455.5,-.5 455.5,-19.5 504.5,-19.5 504.5,-.5 455.5,-.5"/>
<text text-anchor="middle" x="480" y="-7.5" font-family="Helvetica,sans-Serif" font-size="10.00" fill="#000000">iosfwd</text>
</g>
<!-- Node1&#45;&gt;Node7 -->
<g id="edge7" class="edge">
<title>Node1&#45;&gt;Node7</title>
<path fill="none" stroke="#191970" d="M451.9223,-56.2455C456.6027,-48.5367 463.2673,-37.5598 468.9289,-28.2348"/>
<polygon fill="#191970" stroke="#191970" points="471.9475,-30.007 474.1455,-19.6427 465.9639,-26.3741 471.9475,-30.007"/>
</g>
<!-- Node8 -->
<g id="node9" class="node">
<title>Node8</title>
<polygon fill="none" stroke="#bfbfbf" points="522.5,-.5 522.5,-19.5 605.5,-19.5 605.5,-.5 522.5,-.5"/>
<text text-anchor="middle" x="564" y="-7.5" font-family="Helvetica,sans-Serif" font-size="10.00" fill="#000000">initializer_list</text>
</g>
<!-- Node1&#45;&gt;Node8 -->
<g id="edge8" class="edge">
<title>Node1&#45;&gt;Node8</title>
<path fill="none" stroke="#191970" d="M466.2849,-56.3733C485.1421,-47.4241 513.446,-33.9917 534.7455,-23.8835"/>
<polygon fill="#191970" stroke="#191970" points="536.4461,-26.9506 543.9798,-19.5011 533.4449,-20.6266 536.4461,-26.9506"/>
</g>
<!-- Node9 -->
<g id="node10" class="node">
<title>Node9</title>
<polygon fill="none" stroke="#bfbfbf" points="623.5,-.5 623.5,-19.5 696.5,-19.5 696.5,-.5 623.5,-.5"/>
<text text-anchor="middle" x="660" y="-7.5" font-family="Helvetica,sans-Serif" font-size="10.00" fill="#000000">string_view</text>
</g>
<!-- Node1&#45;&gt;Node9 -->
<g id="edge9" class="edge">
<title>Node1&#45;&gt;Node9</title>
<path fill="none" stroke="#191970" d="M482.7879,-56.3733C519.0661,-46.8799 574.6236,-32.3415 613.8446,-22.0781"/>
<polygon fill="#191970" stroke="#191970" points="614.904,-25.4188 623.6921,-19.5011 613.1318,-18.6468 614.904,-25.4188"/>
</g>
<!-- Node1&#45;&gt;Node10 -->
<g id="edge10" class="edge">
<title>Node1&#45;&gt;Node10</title>
<path fill="none" stroke="#191970" d="M504.5655,-57.9818C555.3006,-50.5063 630.7744,-38.1199 704.7952,-20.0475"/>
<polygon fill="#191970" stroke="#191970" points="705.8901,-23.3821 714.7541,-17.5788 704.2058,-16.5877 705.8901,-23.3821"/>
</g>
</g>
</svg>
