<?xml version="1.0" encoding="UTF-8" standalone="no"?>
<!DOCTYPE svg PUBLIC "-//W3C//DTD SVG 1.1//EN"
 "http://www.w3.org/Graphics/SVG/1.1/DTD/svg11.dtd">
<!-- Generated by graphviz version 2.40.1 (20161225.0304)
 -->
<!-- Title: /home/travis/build/AliceO2Group/AliceO2/Framework/Core/src/PropertyTreeHelpers.cxx Pages: 1 -->
<!--zoomable 296 -->
<svg id="main" version="1.1" xmlns="http://www.w3.org/2000/svg" xmlns:xlink="http://www.w3.org/1999/xlink" xml:space="preserve" onload="init(evt)">
<style type="text/css"><![CDATA[
.edge:hover path { stroke: red; }
.edge:hover polygon { stroke: red; fill: red; }
]]></style>
<script type="text/javascript"><![CDATA[
var edges = document.getElementsByTagName('g');
if (edges && edges.length) {
  for (var i=0;i<edges.length;i++) {
    if (edges[i].id.substr(0,4)=='edge') {
      edges[i].setAttribute('class','edge');
    }
  }
}
]]></script>
        <defs>
                <circle id="rim" cx="0" cy="0" r="7"/>
                <circle id="rim2" cx="0" cy="0" r="3.5"/>
                <g id="zoomPlus">
                        <use xlink:href="#rim" fill="#404040">
                                <set attributeName="fill" to="#808080" begin="zoomplus.mouseover" end="zoomplus.mouseout"/>
                        </use>
                        <path d="M-4,0h8M0,-4v8" fill="none" stroke="white" stroke-width="1.5" pointer-events="none"/>
                </g>
                <g id="zoomMin">
                        <use xlink:href="#rim" fill="#404040">
                                <set attributeName="fill" to="#808080" begin="zoomminus.mouseover" end="zoomminus.mouseout"/>
                        </use>
                        <path d="M-4,0h8" fill="none" stroke="white" stroke-width="1.5" pointer-events="none"/>
                </g>
                <g id="dirArrow">
                        <path fill="none" stroke="white" stroke-width="1.5" d="M0,-3.0v7 M-2.5,-0.5L0,-3.0L2.5,-0.5"/>
                </g>
               <g id="resetDef">
                       <use xlink:href="#rim2" fill="#404040">
                               <set attributeName="fill" to="#808080" begin="reset.mouseover" end="reset.mouseout"/>
                       </use>
               </g>
        </defs>

<script type="text/javascript">
var viewWidth = 858;
var viewHeight = 296;
var sectionId = 'dynsection-0';
</script>
<script xlink:href="../../svgpan.js"/>
<svg id="graph" class="graph">
<g id="viewport">
<title>/home/travis/build/AliceO2Group/AliceO2/Framework/Core/src/PropertyTreeHelpers.cxx</title>
<!-- Node0 -->
<g id="node1" class="node">
<title>Node0</title>
<polygon fill="#bfbfbf" stroke="#000000" points="448.5,-235.5 448.5,-287.5 609.5,-287.5 609.5,-235.5 448.5,-235.5"/>
<text text-anchor="start" x="456.5" y="-275.5" font-family="Helvetica,sans-Serif" font-size="10.00" fill="#000000">/home/travis/build</text>
<text text-anchor="start" x="456.5" y="-264.5" font-family="Helvetica,sans-Serif" font-size="10.00" fill="#000000">/AliceO2Group/AliceO2</text>
<text text-anchor="start" x="456.5" y="-253.5" font-family="Helvetica,sans-Serif" font-size="10.00" fill="#000000">/Framework/Core/src/Property</text>
<text text-anchor="middle" x="529" y="-242.5" font-family="Helvetica,sans-Serif" font-size="10.00" fill="#000000">TreeHelpers.cxx</text>
</g>
<!-- Node1 -->
<g id="node2" class="node">
<title>Node1</title>
<g id="a_node2"><a xlink:href="../../da/d3e/PropertyTreeHelpers_8h.html" target="_top" xlink:title="PropertyTreeHelpers.h">
<polygon fill="none" stroke="#000000" points="375.5,-179.5 375.5,-198.5 500.5,-198.5 500.5,-179.5 375.5,-179.5"/>
<text text-anchor="middle" x="438" y="-186.5" font-family="Helvetica,sans-Serif" font-size="10.00" fill="#000000">PropertyTreeHelpers.h</text>
</a>
</g>
</g>
<!-- Node0&#45;&gt;Node1 -->
<g id="edge1" class="edge">
<title>Node0&#45;&gt;Node1</title>
<path fill="none" stroke="#191970" d="M496.1469,-235.3258C483.3272,-225.1123 469.0524,-213.7396 457.8548,-204.8184"/>
<polygon fill="#191970" stroke="#191970" points="459.969,-202.0278 449.9668,-198.534 455.6071,-207.5027 459.969,-202.0278"/>
</g>
<!-- Node2 -->
<g id="node3" class="node">
<title>Node2</title>
<g id="a_node3"><a xlink:href="../../d0/d1c/ConfigParamSpec_8h.html" target="_top" xlink:title="Framework/ConfigParamSpec.h">
<polygon fill="none" stroke="#000000" points="579.5,-118 579.5,-137 746.5,-137 746.5,-118 579.5,-118"/>
<text text-anchor="middle" x="663" y="-125" font-family="Helvetica,sans-Serif" font-size="10.00" fill="#000000">Framework/ConfigParamSpec.h</text>
</a>
</g>
</g>
<!-- Node0&#45;&gt;Node2 -->
<g id="edge17" class="edge">
<title>Node0&#45;&gt;Node2</title>
<path fill="none" stroke="#191970" d="M555.1547,-235.3453C581.9986,-208.5014 622.9883,-167.5117 645.9286,-144.5714"/>
<polygon fill="#191970" stroke="#191970" points="648.6411,-146.8086 653.2374,-137.2626 643.6914,-141.8589 648.6411,-146.8086"/>
</g>
<!-- Node3 -->
<g id="node4" class="node">
<title>Node3</title>
<g id="a_node4"><a xlink:href="../../de/d56/Variant_8h.html" target="_top" xlink:title="Framework/Variant.h">
<polygon fill="none" stroke="#000000" points="253.5,-56.5 253.5,-75.5 370.5,-75.5 370.5,-56.5 253.5,-56.5"/>
<text text-anchor="middle" x="312" y="-63.5" font-family="Helvetica,sans-Serif" font-size="10.00" fill="#000000">Framework/Variant.h</text>
</a>
</g>
</g>
<!-- Node0&#45;&gt;Node3 -->
<g id="edge18" class="edge">
<title>Node0&#45;&gt;Node3</title>
<path fill="none" stroke="#191970" d="M448.4332,-243.2729C362.6854,-221.9847 235.711,-184.3717 209,-143 201.5268,-131.4251 201.5027,-123.5593 209,-112 219.2057,-96.2649 236.1895,-85.8651 253.4521,-79.0109"/>
<polygon fill="#191970" stroke="#191970" points="254.8106,-82.2417 263.0299,-75.5564 252.4355,-75.6569 254.8106,-82.2417"/>
</g>
<!-- Node12 -->
<g id="node13" class="node">
<title>Node12</title>
<polygon fill="none" stroke="#bfbfbf" points="715,-.5 715,-19.5 759,-19.5 759,-.5 715,-.5"/>
<text text-anchor="middle" x="737" y="-7.5" font-family="Helvetica,sans-Serif" font-size="10.00" fill="#000000">string</text>
</g>
<!-- Node0&#45;&gt;Node12 -->
<g id="edge22" class="edge">
<title>Node0&#45;&gt;Node12</title>
<path fill="none" stroke="#191970" d="M609.5226,-242.4378C661.1836,-225.5826 724.3187,-195.2768 756,-143 777.7603,-107.0937 759.5258,-55.9257 746.782,-28.7105"/>
<polygon fill="#191970" stroke="#191970" points="749.8205,-26.9583 742.2615,-19.5346 743.5411,-30.0519 749.8205,-26.9583"/>
</g>
<!-- Node13 -->
<g id="node14" class="node">
<title>Node13</title>
<polygon fill="none" stroke="#bfbfbf" points="218.5,-112.5 218.5,-142.5 331.5,-142.5 331.5,-112.5 218.5,-112.5"/>
<text text-anchor="start" x="226.5" y="-130.5" font-family="Helvetica,sans-Serif" font-size="10.00" fill="#000000">boost/property_tree</text>
<text text-anchor="middle" x="275" y="-119.5" font-family="Helvetica,sans-Serif" font-size="10.00" fill="#000000">/ptree.hpp</text>
</g>
<!-- Node0&#45;&gt;Node13 -->
<g id="edge19" class="edge">
<title>Node0&#45;&gt;Node13</title>
<path fill="none" stroke="#191970" d="M448.1961,-235.6165C421.5768,-225.7172 392.3253,-213.3138 367,-199 342.1073,-184.9307 316.6554,-164.5997 298.8509,-149.2113"/>
<polygon fill="#191970" stroke="#191970" points="301.0625,-146.4954 291.2381,-142.5289 296.4447,-151.7562 301.0625,-146.4954"/>
</g>
<!-- Node14 -->
<g id="node15" class="node">
<title>Node14</title>
<polygon fill="none" stroke="#bfbfbf" points="432.5,-112.5 432.5,-142.5 561.5,-142.5 561.5,-112.5 432.5,-112.5"/>
<text text-anchor="start" x="440.5" y="-130.5" font-family="Helvetica,sans-Serif" font-size="10.00" fill="#000000">boost/program_options</text>
<text text-anchor="middle" x="497" y="-119.5" font-family="Helvetica,sans-Serif" font-size="10.00" fill="#000000">/variables_map.hpp</text>
</g>
<!-- Node0&#45;&gt;Node14 -->
<g id="edge20" class="edge">
<title>Node0&#45;&gt;Node14</title>
<path fill="none" stroke="#191970" d="M523.1488,-235.4575C519.4608,-219.2045 514.5515,-197.8597 510,-179 507.9313,-170.4281 505.5942,-161.0743 503.4778,-152.7187"/>
<polygon fill="#191970" stroke="#191970" points="506.8122,-151.6295 500.952,-142.8029 500.0288,-153.3575 506.8122,-151.6295"/>
</g>
<!-- Node16 -->
<g id="node17" class="node">
<title>Node16</title>
<polygon fill="none" stroke="#bfbfbf" points="802.5,-179.5 802.5,-198.5 849.5,-198.5 849.5,-179.5 802.5,-179.5"/>
<text text-anchor="middle" x="826" y="-186.5" font-family="Helvetica,sans-Serif" font-size="10.00" fill="#000000">vector</text>
</g>
<!-- Node0&#45;&gt;Node16 -->
<g id="edge21" class="edge">
<title>Node0&#45;&gt;Node16</title>
<path fill="none" stroke="#191970" d="M609.6036,-242.4994C660.7703,-230.3266 728.3475,-214.0448 788,-199 789.447,-198.6351 790.9241,-198.2595 792.4157,-197.8777"/>
<polygon fill="#191970" stroke="#191970" points="793.5,-201.2125 802.3027,-195.3164 791.7445,-194.4361 793.5,-201.2125"/>
</g>
<!-- Node1&#45;&gt;Node2 -->
<g id="edge2" class="edge">
<title>Node1&#45;&gt;Node2</title>
<path fill="none" stroke="#191970" d="M473.1563,-179.3906C512.2889,-168.6944 575.621,-151.3836 618.2582,-139.7294"/>
<polygon fill="#191970" stroke="#191970" points="619.3673,-143.0547 628.0906,-137.0419 617.5216,-136.3024 619.3673,-143.0547"/>
</g>
<!-- Node1&#45;&gt;Node13 -->
<g id="edge14" class="edge">
<title>Node1&#45;&gt;Node13</title>
<path fill="none" stroke="#191970" d="M412.5313,-179.3906C389.0414,-170.5279 353.5155,-157.1239 324.455,-146.1594"/>
<polygon fill="#191970" stroke="#191970" points="325.466,-142.8001 314.8743,-142.5446 322.9949,-149.3494 325.466,-142.8001"/>
</g>
<!-- Node1&#45;&gt;Node14 -->
<g id="edge15" class="edge">
<title>Node1&#45;&gt;Node14</title>
<path fill="none" stroke="#191970" d="M447.2188,-179.3906C454.7601,-171.5298 465.7287,-160.0964 475.4518,-149.9612"/>
<polygon fill="#191970" stroke="#191970" points="478.1698,-152.1839 482.567,-142.5446 473.1184,-147.3378 478.1698,-152.1839"/>
</g>
<!-- Node15 -->
<g id="node16" class="node">
<title>Node15</title>
<polygon fill="none" stroke="#bfbfbf" points="349.5,-118 349.5,-137 414.5,-137 414.5,-118 349.5,-118"/>
<text text-anchor="middle" x="382" y="-125" font-family="Helvetica,sans-Serif" font-size="10.00" fill="#000000">functional</text>
</g>
<!-- Node1&#45;&gt;Node15 -->
<g id="edge16" class="edge">
<title>Node1&#45;&gt;Node15</title>
<path fill="none" stroke="#191970" d="M429.25,-179.3906C420.8338,-170.1478 407.9203,-155.966 397.719,-144.7628"/>
<polygon fill="#191970" stroke="#191970" points="400.194,-142.2824 390.8734,-137.2449 395.0182,-146.9953 400.194,-142.2824"/>
</g>
<!-- Node2&#45;&gt;Node3 -->
<g id="edge3" class="edge">
<title>Node2&#45;&gt;Node3</title>
<path fill="none" stroke="#191970" d="M608.5414,-117.9581C545.8107,-106.9668 442.8527,-88.9272 376.2559,-77.2585"/>
<polygon fill="#191970" stroke="#191970" points="376.7516,-73.7921 366.2976,-75.5137 375.5435,-80.6871 376.7516,-73.7921"/>
</g>
<!-- Node2&#45;&gt;Node12 -->
<g id="edge13" class="edge">
<title>Node2&#45;&gt;Node12</title>
<path fill="none" stroke="#191970" d="M669.0557,-117.8845C681.3602,-98.3471 709.465,-53.7211 725.4053,-28.4106"/>
<polygon fill="#191970" stroke="#191970" points="728.4931,-30.0753 730.8606,-19.7484 722.5699,-26.3449 728.4931,-30.0753"/>
</g>
<!-- Node4 -->
<g id="node5" class="node">
<title>Node4</title>
<g id="a_node5"><a xlink:href="../../d1/d76/RuntimeError_8h.html" target="_top" xlink:title="Framework/RuntimeError.h">
<polygon fill="none" stroke="#000000" points="463,-.5 463,-19.5 609,-19.5 609,-.5 463,-.5"/>
<text text-anchor="middle" x="536" y="-7.5" font-family="Helvetica,sans-Serif" font-size="10.00" fill="#000000">Framework/RuntimeError.h</text>
</a>
</g>
</g>
<!-- Node3&#45;&gt;Node4 -->
<g id="edge4" class="edge">
<title>Node3&#45;&gt;Node4</title>
<path fill="none" stroke="#191970" d="M350.2525,-56.4369C388.3467,-46.9133 446.9313,-32.2672 488.0987,-21.9753"/>
<polygon fill="#191970" stroke="#191970" points="489.0528,-25.3446 497.9053,-19.5237 487.355,-18.5536 489.0528,-25.3446"/>
</g>
<!-- Node5 -->
<g id="node6" class="node">
<title>Node5</title>
<polygon fill="none" stroke="#bfbfbf" points="627.5,-.5 627.5,-19.5 696.5,-19.5 696.5,-.5 627.5,-.5"/>
<text text-anchor="middle" x="662" y="-7.5" font-family="Helvetica,sans-Serif" font-size="10.00" fill="#000000">type_traits</text>
</g>
<!-- Node3&#45;&gt;Node5 -->
<g id="edge5" class="edge">
<title>Node3&#45;&gt;Node5</title>
<path fill="none" stroke="#191970" d="M370.5948,-58.5082C430.1768,-50.5936 525.3614,-37.1366 617.4152,-19.9926"/>
<polygon fill="#191970" stroke="#191970" points="618.282,-23.3911 627.4634,-18.104 616.9889,-16.5115 618.282,-23.3911"/>
</g>
<!-- Node6 -->
<g id="node7" class="node">
<title>Node6</title>
<polygon fill="none" stroke="#bfbfbf" points="0,-.5 0,-19.5 50,-19.5 50,-.5 0,-.5"/>
<text text-anchor="middle" x="25" y="-7.5" font-family="Helvetica,sans-Serif" font-size="10.00" fill="#000000">cstring</text>
</g>
<!-- Node3&#45;&gt;Node6 -->
<g id="edge6" class="edge">
<title>Node3&#45;&gt;Node6</title>
<path fill="none" stroke="#191970" d="M253.3516,-57.1491C204.1522,-49.3133 131.8756,-36.8481 60.2685,-20.1161"/>
<polygon fill="#191970" stroke="#191970" points="60.7085,-16.6237 50.1713,-17.7269 59.0966,-23.4356 60.7085,-16.6237"/>
</g>
<!-- Node7 -->
<g id="node8" class="node">
<title>Node7</title>
<polygon fill="none" stroke="#bfbfbf" points="68,-.5 68,-19.5 118,-19.5 118,-.5 68,-.5"/>
<text text-anchor="middle" x="93" y="-7.5" font-family="Helvetica,sans-Serif" font-size="10.00" fill="#000000">cstdint</text>
</g>
<!-- Node3&#45;&gt;Node7 -->
<g id="edge7" class="edge">
<title>Node3&#45;&gt;Node7</title>
<path fill="none" stroke="#191970" d="M271.4528,-56.4406C236.0137,-47.9687 182.9459,-35.0028 128.1102,-20.2265"/>
<polygon fill="#191970" stroke="#191970" points="128.7846,-16.7831 118.2173,-17.5459 126.9539,-23.5395 128.7846,-16.7831"/>
</g>
<!-- Node8 -->
<g id="node9" class="node">
<title>Node8</title>
<polygon fill="none" stroke="#bfbfbf" points="136.5,-.5 136.5,-19.5 185.5,-19.5 185.5,-.5 136.5,-.5"/>
<text text-anchor="middle" x="161" y="-7.5" font-family="Helvetica,sans-Serif" font-size="10.00" fill="#000000">cstdlib</text>
</g>
<!-- Node3&#45;&gt;Node8 -->
<g id="edge8" class="edge">
<title>Node3&#45;&gt;Node8</title>
<path fill="none" stroke="#191970" d="M286.0422,-56.3733C260.9589,-47.0708 222.8136,-32.9242 195.2512,-22.7024"/>
<polygon fill="#191970" stroke="#191970" points="196.2122,-19.326 185.6192,-19.1303 193.7782,-25.8892 196.2122,-19.326"/>
</g>
<!-- Node9 -->
<g id="node10" class="node">
<title>Node9</title>
<polygon fill="none" stroke="#bfbfbf" points="203.5,-.5 203.5,-19.5 252.5,-19.5 252.5,-.5 203.5,-.5"/>
<text text-anchor="middle" x="228" y="-7.5" font-family="Helvetica,sans-Serif" font-size="10.00" fill="#000000">iosfwd</text>
</g>
<!-- Node3&#45;&gt;Node9 -->
<g id="edge9" class="edge">
<title>Node3&#45;&gt;Node9</title>
<path fill="none" stroke="#191970" d="M297.3683,-56.2455C284.6006,-47.7337 265.8562,-35.2375 251.0701,-25.3801"/>
<polygon fill="#191970" stroke="#191970" points="252.726,-22.2775 242.464,-19.6427 248.8431,-28.1019 252.726,-22.2775"/>
</g>
<!-- Node10 -->
<g id="node11" class="node">
<title>Node10</title>
<polygon fill="none" stroke="#bfbfbf" points="270.5,-.5 270.5,-19.5 353.5,-19.5 353.5,-.5 270.5,-.5"/>
<text text-anchor="middle" x="312" y="-7.5" font-family="Helvetica,sans-Serif" font-size="10.00" fill="#000000">initializer_list</text>
</g>
<!-- Node3&#45;&gt;Node10 -->
<g id="edge10" class="edge">
<title>Node3&#45;&gt;Node10</title>
<path fill="none" stroke="#191970" d="M312,-56.2455C312,-48.9382 312,-38.6944 312,-29.7046"/>
<polygon fill="#191970" stroke="#191970" points="315.5001,-29.6426 312,-19.6427 308.5001,-29.6427 315.5001,-29.6426"/>
</g>
<!-- Node11 -->
<g id="node12" class="node">
<title>Node11</title>
<polygon fill="none" stroke="#bfbfbf" points="371.5,-.5 371.5,-19.5 444.5,-19.5 444.5,-.5 371.5,-.5"/>
<text text-anchor="middle" x="408" y="-7.5" font-family="Helvetica,sans-Serif" font-size="10.00" fill="#000000">string_view</text>
</g>
<!-- Node3&#45;&gt;Node11 -->
<g id="edge11" class="edge">
<title>Node3&#45;&gt;Node11</title>
<path fill="none" stroke="#191970" d="M328.7219,-56.2455C343.5889,-47.5731 365.5466,-34.7645 382.5858,-24.825"/>
<polygon fill="#191970" stroke="#191970" points="384.5955,-27.7047 391.4697,-19.6427 381.0683,-21.6582 384.5955,-27.7047"/>
</g>
<!-- Node3&#45;&gt;Node12 -->
<g id="edge12" class="edge">
<title>Node3&#45;&gt;Node12</title>
<path fill="none" stroke="#191970" d="M370.6676,-62.7466C446.1216,-57.7679 581.2106,-46.17 704.7791,-19.9056"/>
<polygon fill="#191970" stroke="#191970" points="705.7578,-23.275 714.7916,-17.7394 704.2776,-16.4333 705.7578,-23.275"/>
</g>
</g>
</svg>
        <g id="navigator" transform="translate(0 0)" fill="#404254">
                <rect fill="#f2f5e9" fill-opacity="0.5" stroke="#606060" stroke-width=".5" x="0" y="0" width="60" height="60"/>
                <use id="zoomplus" xlink:href="#zoomPlus" x="17" y="9" onmousedown="handleZoom(evt,'in')"/>
                <use id="zoomminus" xlink:href="#zoomMin" x="42" y="9" onmousedown="handleZoom(evt,'out')"/>
                <use id="reset" xlink:href="#resetDef" x="30" y="36" onmousedown="handleReset()"/>
                <g id="arrowUp" xlink:href="#dirArrow" transform="translate(30 24)" onmousedown="handlePan(0,-1)">
                  <use xlink:href="#rim" fill="#404040">
                        <set attributeName="fill" to="#808080" begin="arrowUp.mouseover" end="arrowUp.mouseout"/>
                  </use>
                  <path fill="none" stroke="white" stroke-width="1.5" d="M0,-3.0v7 M-2.5,-0.5L0,-3.0L2.5,-0.5"/>
                </g>
                <g id="arrowRight" xlink:href="#dirArrow" transform="rotate(90) translate(36 -43)" onmousedown="handlePan(1,0)">
                  <use xlink:href="#rim" fill="#404040">
                        <set attributeName="fill" to="#808080" begin="arrowRight.mouseover" end="arrowRight.mouseout"/>
                  </use>
                  <path fill="none" stroke="white" stroke-width="1.5" d="M0,-3.0v7 M-2.5,-0.5L0,-3.0L2.5,-0.5"/>
                </g>
                <g id="arrowDown" xlink:href="#dirArrow" transform="rotate(180) translate(-30 -48)" onmousedown="handlePan(0,1)">
                  <use xlink:href="#rim" fill="#404040">
                        <set attributeName="fill" to="#808080" begin="arrowDown.mouseover" end="arrowDown.mouseout"/>
                  </use>
                  <path fill="none" stroke="white" stroke-width="1.5" d="M0,-3.0v7 M-2.5,-0.5L0,-3.0L2.5,-0.5"/>
                </g>
                <g id="arrowLeft" xlink:href="#dirArrow" transform="rotate(270) translate(-36 17)" onmousedown="handlePan(-1,0)">
                  <use xlink:href="#rim" fill="#404040">
                        <set attributeName="fill" to="#808080" begin="arrowLeft.mouseover" end="arrowLeft.mouseout"/>
                  </use>
                  <path fill="none" stroke="white" stroke-width="1.5" d="M0,-3.0v7 M-2.5,-0.5L0,-3.0L2.5,-0.5"/>
                </g>
        </g>
        <svg viewBox="0 0 15 15" width="100%" height="30px" preserveAspectRatio="xMaxYMin meet">
         <g id="arrow_out" transform="scale(0.3 0.3)">
          <a xlink:href="PropertyTreeHelpers_8cxx__incl_org.svg" target="_base">
           <rect id="button" ry="5" rx="5" y="6" x="6" height="38" width="38"
                fill="#f2f5e9" fill-opacity="0.5" stroke="#606060" stroke-width="1.0"/>
           <path id="arrow"
             d="M 11.500037,31.436501 C 11.940474,20.09759 22.043105,11.32322 32.158766,21.979434 L 37.068811,17.246167 C 37.068811,17.246167 37.088388,32 37.088388,32 L 22.160133,31.978069 C 22.160133,31.978069 26.997745,27.140456 26.997745,27.140456 C 18.528582,18.264221 13.291696,25.230495 11.500037,31.436501 z"
             style="fill:#404040;"/>
          </a>
         </g>
        </svg>
</svg>
