<?xml version="1.0" encoding="UTF-8" standalone="no"?>
<!DOCTYPE svg PUBLIC "-//W3C//DTD SVG 1.1//EN"
 "http://www.w3.org/Graphics/SVG/1.1/DTD/svg11.dtd">
<!-- Generated by graphviz version 2.40.1 (20161225.0304)
 -->
<!-- Title: /home/travis/build/AliceO2Group/AliceO2/Detectors/TPC/qc/include/TPCQC/CalPadWrapper.h Pages: 1 -->
<svg width="2024pt" height="699pt"
 viewBox="0.00 0.00 2023.50 699.00" xmlns="http://www.w3.org/2000/svg" xmlns:xlink="http://www.w3.org/1999/xlink">
<g id="graph0" class="graph" transform="scale(1 1) rotate(0) translate(4 695)">
<title>/home/travis/build/AliceO2Group/AliceO2/Detectors/TPC/qc/include/TPCQC/CalPadWrapper.h</title>
<!-- Node0 -->
<g id="node1" class="node">
<title>Node0</title>
<polygon fill="#bfbfbf" stroke="#000000" points="1023,-638.5 1023,-690.5 1164,-690.5 1164,-638.5 1023,-638.5"/>
<text text-anchor="start" x="1031" y="-678.5" font-family="Helvetica,sans-Serif" font-size="10.00" fill="#000000">/home/travis/build</text>
<text text-anchor="start" x="1031" y="-667.5" font-family="Helvetica,sans-Serif" font-size="10.00" fill="#000000">/AliceO2Group/AliceO2</text>
<text text-anchor="start" x="1031" y="-656.5" font-family="Helvetica,sans-Serif" font-size="10.00" fill="#000000">/Detectors/TPC/qc/include</text>
<text text-anchor="middle" x="1093.5" y="-645.5" font-family="Helvetica,sans-Serif" font-size="10.00" fill="#000000">/TPCQC/CalPadWrapper.h</text>
</g>
<!-- Node1 -->
<g id="node2" class="node">
<title>Node1</title>
<polygon fill="none" stroke="#bfbfbf" points="987,-582.5 987,-601.5 1044,-601.5 1044,-582.5 987,-582.5"/>
<text text-anchor="middle" x="1015.5" y="-589.5" font-family="Helvetica,sans-Serif" font-size="10.00" fill="#000000">TClass.h</text>
</g>
<!-- Node0&#45;&gt;Node1 -->
<g id="edge1" class="edge">
<title>Node0&#45;&gt;Node1</title>
<path fill="none" stroke="#191970" d="M1065.3402,-638.3258C1054.5673,-628.3126 1042.5957,-617.1851 1033.086,-608.346"/>
<polygon fill="#191970" stroke="#191970" points="1035.4647,-605.7785 1025.7573,-601.534 1030.699,-610.9058 1035.4647,-605.7785"/>
</g>
<!-- Node2 -->
<g id="node3" class="node">
<title>Node2</title>
<polygon fill="none" stroke="#bfbfbf" points="1062,-582.5 1062,-601.5 1125,-601.5 1125,-582.5 1062,-582.5"/>
<text text-anchor="middle" x="1093.5" y="-589.5" font-family="Helvetica,sans-Serif" font-size="10.00" fill="#000000">TObject.h</text>
</g>
<!-- Node0&#45;&gt;Node2 -->
<g id="edge2" class="edge">
<title>Node0&#45;&gt;Node2</title>
<path fill="none" stroke="#191970" d="M1093.5,-638.3258C1093.5,-629.5142 1093.5,-619.8397 1093.5,-611.621"/>
<polygon fill="#191970" stroke="#191970" points="1097.0001,-611.534 1093.5,-601.534 1090.0001,-611.534 1097.0001,-611.534"/>
</g>
<!-- Node3 -->
<g id="node4" class="node">
<title>Node3</title>
<g id="a_node4"><a xlink:href="../../d6/d2b/TPC_2base_2include_2TPCBase_2CalDet_8h.html" target="_top" xlink:title="TPCBase/CalDet.h">
<polygon fill="none" stroke="#000000" points="1143.5,-582.5 1143.5,-601.5 1247.5,-601.5 1247.5,-582.5 1143.5,-582.5"/>
<text text-anchor="middle" x="1195.5" y="-589.5" font-family="Helvetica,sans-Serif" font-size="10.00" fill="#000000">TPCBase/CalDet.h</text>
</a>
</g>
</g>
<!-- Node0&#45;&gt;Node3 -->
<g id="edge3" class="edge">
<title>Node0&#45;&gt;Node3</title>
<path fill="none" stroke="#191970" d="M1130.3243,-638.3258C1144.8346,-628.0122 1161.0079,-616.5165 1173.6133,-607.5567"/>
<polygon fill="#191970" stroke="#191970" points="1175.9635,-610.1803 1182.0866,-601.534 1171.9081,-604.4747 1175.9635,-610.1803"/>
</g>
<!-- Node4 -->
<g id="node5" class="node">
<title>Node4</title>
<polygon fill="none" stroke="#bfbfbf" points="917.5,-470.5 917.5,-489.5 975.5,-489.5 975.5,-470.5 917.5,-470.5"/>
<text text-anchor="middle" x="946.5" y="-477.5" font-family="Helvetica,sans-Serif" font-size="10.00" fill="#000000">memory</text>
</g>
<!-- Node3&#45;&gt;Node4 -->
<g id="edge4" class="edge">
<title>Node3&#45;&gt;Node4</title>
<path fill="none" stroke="#191970" d="M1173.3291,-582.416C1152.0451,-573.1849 1119.0131,-558.7789 1090.5,-546 1050.8175,-528.2152 1005.2175,-507.2204 976.1499,-493.7663"/>
<polygon fill="#191970" stroke="#191970" points="977.5034,-490.536 966.9585,-489.5082 974.5609,-496.8876 977.5034,-490.536"/>
</g>
<!-- Node5 -->
<g id="node6" class="node">
<title>Node5</title>
<polygon fill="none" stroke="#bfbfbf" points="1410,-358.5 1410,-377.5 1457,-377.5 1457,-358.5 1410,-358.5"/>
<text text-anchor="middle" x="1433.5" y="-365.5" font-family="Helvetica,sans-Serif" font-size="10.00" fill="#000000">vector</text>
</g>
<!-- Node3&#45;&gt;Node5 -->
<g id="edge5" class="edge">
<title>Node3&#45;&gt;Node5</title>
<path fill="none" stroke="#191970" d="M1247.6997,-588.5914C1358.2711,-580.1675 1610.1766,-554.2048 1661.5,-490 1718.1234,-419.1651 1543.4325,-384.1571 1467.2139,-372.5398"/>
<polygon fill="#191970" stroke="#191970" points="1467.5508,-369.0517 1457.147,-371.0544 1466.529,-375.9767 1467.5508,-369.0517"/>
</g>
<!-- Node6 -->
<g id="node7" class="node">
<title>Node6</title>
<polygon fill="none" stroke="#bfbfbf" points="1404.5,-414.5 1404.5,-433.5 1448.5,-433.5 1448.5,-414.5 1404.5,-414.5"/>
<text text-anchor="middle" x="1426.5" y="-421.5" font-family="Helvetica,sans-Serif" font-size="10.00" fill="#000000">string</text>
</g>
<!-- Node3&#45;&gt;Node6 -->
<g id="edge6" class="edge">
<title>Node3&#45;&gt;Node6</title>
<path fill="none" stroke="#191970" d="M1185.8104,-582.3207C1164.7096,-560.0878 1118.7935,-504.6262 1148.5,-470 1182.7572,-430.0695 1330.8159,-443.8361 1382.5,-434 1386.2612,-433.2842 1390.19,-432.4772 1394.0854,-431.64"/>
<polygon fill="#191970" stroke="#191970" points="1395.1786,-434.9824 1404.1803,-429.3948 1393.6589,-428.1494 1395.1786,-434.9824"/>
</g>
<!-- Node7 -->
<g id="node8" class="node">
<title>Node7</title>
<polygon fill="none" stroke="#bfbfbf" points="1671.5,-526.5 1671.5,-545.5 1723.5,-545.5 1723.5,-526.5 1671.5,-526.5"/>
<text text-anchor="middle" x="1697.5" y="-533.5" font-family="Helvetica,sans-Serif" font-size="10.00" fill="#000000">cassert</text>
</g>
<!-- Node3&#45;&gt;Node7 -->
<g id="edge7" class="edge">
<title>Node3&#45;&gt;Node7</title>
<path fill="none" stroke="#191970" d="M1247.7993,-589.2817C1333.7856,-584.2567 1510.1869,-571.6073 1657.5,-546 1658.7694,-545.7793 1660.0581,-545.5403 1661.357,-545.2865"/>
<polygon fill="#191970" stroke="#191970" points="1662.3368,-548.6554 1671.3666,-543.1135 1660.8517,-541.8147 1662.3368,-548.6554"/>
</g>
<!-- Node8 -->
<g id="node9" class="node">
<title>Node8</title>
<g id="a_node9"><a xlink:href="../../d1/d73/Defs_8h.html" target="_top" xlink:title="Common definitions for 2D coordinates. ">
<polygon fill="none" stroke="#000000" points="761,-190.5 761,-209.5 894,-209.5 894,-190.5 761,-190.5"/>
<text text-anchor="middle" x="827.5" y="-197.5" font-family="Helvetica,sans-Serif" font-size="10.00" fill="#000000">DataFormatsTPC/Defs.h</text>
</a>
</g>
</g>
<!-- Node3&#45;&gt;Node8 -->
<g id="edge8" class="edge">
<title>Node3&#45;&gt;Node8</title>
<path fill="none" stroke="#191970" d="M1143.4473,-582.5766C992.0109,-554.813 559.0798,-472.8442 507.5,-434 458.4277,-397.0441 443.7742,-359.0733 466.5,-302 479.1771,-270.1627 489.1134,-261.8422 519.5,-246 539.6549,-235.4922 666.2344,-218.9401 750.7228,-208.8187"/>
<polygon fill="#191970" stroke="#191970" points="751.292,-212.2758 760.8077,-207.6172 750.4638,-205.3249 751.292,-212.2758"/>
</g>
<!-- Node23 -->
<g id="node24" class="node">
<title>Node23</title>
<g id="a_node24"><a xlink:href="../../d5/d1d/TPC_2base_2include_2TPCBase_2Mapper_8h.html" target="_top" xlink:title="TPCBase/Mapper.h">
<polygon fill="none" stroke="#000000" points="994,-470.5 994,-489.5 1101,-489.5 1101,-470.5 994,-470.5"/>
<text text-anchor="middle" x="1047.5" y="-477.5" font-family="Helvetica,sans-Serif" font-size="10.00" fill="#000000">TPCBase/Mapper.h</text>
</a>
</g>
</g>
<!-- Node3&#45;&gt;Node23 -->
<g id="edge24" class="edge">
<title>Node3&#45;&gt;Node23</title>
<path fill="none" stroke="#191970" d="M1175.9132,-582.484C1159.1776,-573.9532 1134.815,-560.5665 1115.5,-546 1095.9551,-531.2602 1076.1577,-511.3578 1063.0044,-497.2738"/>
<polygon fill="#191970" stroke="#191970" points="1065.4227,-494.7328 1056.0798,-489.7368 1060.268,-499.4687 1065.4227,-494.7328"/>
</g>
<!-- Node28 -->
<g id="node29" class="node">
<title>Node28</title>
<g id="a_node29"><a xlink:href="../../d3/dd6/Sector_8h.html" target="_top" xlink:title="TPCBase/Sector.h">
<polygon fill="none" stroke="#000000" points="583,-246.5 583,-265.5 684,-265.5 684,-246.5 583,-246.5"/>
<text text-anchor="middle" x="633.5" y="-253.5" font-family="Helvetica,sans-Serif" font-size="10.00" fill="#000000">TPCBase/Sector.h</text>
</a>
</g>
</g>
<!-- Node3&#45;&gt;Node28 -->
<g id="edge62" class="edge">
<title>Node3&#45;&gt;Node28</title>
<path fill="none" stroke="#191970" d="M1143.4347,-583.3952C1140.0755,-582.9041 1136.7419,-582.4343 1133.5,-582 1003.9376,-564.6438 633.941,-592.2498 552.5,-490 499.5988,-423.5821 541.8596,-374.2296 586.5,-302 593.4639,-290.7322 603.7686,-280.2299 612.956,-272.1133"/>
<polygon fill="#191970" stroke="#191970" points="615.2461,-274.7605 620.63,-265.6355 610.7308,-269.4114 615.2461,-274.7605"/>
</g>
<!-- Node31 -->
<g id="node32" class="node">
<title>Node31</title>
<g id="a_node32"><a xlink:href="../../dc/d14/ROC_8h.html" target="_top" xlink:title="TPCBase/ROC.h">
<polygon fill="none" stroke="#000000" points="688.5,-302.5 688.5,-321.5 780.5,-321.5 780.5,-302.5 688.5,-302.5"/>
<text text-anchor="middle" x="734.5" y="-309.5" font-family="Helvetica,sans-Serif" font-size="10.00" fill="#000000">TPCBase/ROC.h</text>
</a>
</g>
</g>
<!-- Node3&#45;&gt;Node31 -->
<g id="edge61" class="edge">
<title>Node3&#45;&gt;Node31</title>
<path fill="none" stroke="#191970" d="M1143.4789,-583.5671C991.1105,-558.781 556.5,-487.4309 556.5,-480 556.5,-480 556.5,-480 556.5,-424 556.5,-393.4754 553.9301,-379.5984 575.5,-358 590.1482,-343.3325 638.7857,-330.5872 678.4495,-322.2561"/>
<polygon fill="#191970" stroke="#191970" points="679.2203,-325.671 688.3141,-320.2347 677.815,-318.8135 679.2203,-325.671"/>
</g>
<!-- Node37 -->
<g id="node38" class="node">
<title>Node37</title>
<g id="a_node38"><a xlink:href="../../db/d9b/CalArray_8h.html" target="_top" xlink:title="TPCBase/CalArray.h">
<polygon fill="none" stroke="#000000" points="1230.5,-526.5 1230.5,-545.5 1342.5,-545.5 1342.5,-526.5 1230.5,-526.5"/>
<text text-anchor="middle" x="1286.5" y="-533.5" font-family="Helvetica,sans-Serif" font-size="10.00" fill="#000000">TPCBase/CalArray.h</text>
</a>
</g>
</g>
<!-- Node3&#45;&gt;Node37 -->
<g id="edge63" class="edge">
<title>Node3&#45;&gt;Node37</title>
<path fill="none" stroke="#191970" d="M1211.351,-582.2455C1225.3132,-573.6534 1245.8728,-561.0014 1261.9596,-551.1018"/>
<polygon fill="#191970" stroke="#191970" points="1264.1484,-553.8645 1270.8307,-545.6427 1260.4797,-547.9029 1264.1484,-553.8645"/>
</g>
<!-- Node42 -->
<g id="node43" class="node">
<title>Node42</title>
<polygon fill="none" stroke="#bfbfbf" points="1551,-470.5 1551,-489.5 1652,-489.5 1652,-470.5 1551,-470.5"/>
<text text-anchor="middle" x="1601.5" y="-477.5" font-family="Helvetica,sans-Serif" font-size="10.00" fill="#000000">boost/format.hpp</text>
</g>
<!-- Node3&#45;&gt;Node42 -->
<g id="edge75" class="edge">
<title>Node3&#45;&gt;Node42</title>
<path fill="none" stroke="#191970" d="M1230.1153,-582.4509C1303.674,-562.1589 1475.4735,-514.7659 1557.0192,-492.2706"/>
<polygon fill="#191970" stroke="#191970" points="1558.2631,-495.5582 1566.9723,-489.5249 1556.4016,-488.8103 1558.2631,-495.5582"/>
</g>
<!-- Node43 -->
<g id="node44" class="node">
<title>Node43</title>
<g id="a_node44"><a xlink:href="../../dd/da4/Logger_8h.html" target="_top" xlink:title="Framework/Logger.h">
<polygon fill="none" stroke="#000000" points="1742,-526.5 1742,-545.5 1857,-545.5 1857,-526.5 1742,-526.5"/>
<text text-anchor="middle" x="1799.5" y="-533.5" font-family="Helvetica,sans-Serif" font-size="10.00" fill="#000000">Framework/Logger.h</text>
</a>
</g>
</g>
<!-- Node3&#45;&gt;Node43 -->
<g id="edge73" class="edge">
<title>Node3&#45;&gt;Node43</title>
<path fill="none" stroke="#191970" d="M1247.8261,-588.6122C1342.2544,-582.2596 1547.6352,-567.3523 1731.6526,-546.0319"/>
<polygon fill="#191970" stroke="#191970" points="1732.2606,-549.4847 1741.7872,-544.8486 1731.4487,-542.532 1732.2606,-549.4847"/>
</g>
<!-- Node45 -->
<g id="node46" class="node">
<title>Node45</title>
<polygon fill="none" stroke="#bfbfbf" points="1875.5,-526.5 1875.5,-545.5 2015.5,-545.5 2015.5,-526.5 1875.5,-526.5"/>
<text text-anchor="middle" x="1945.5" y="-533.5" font-family="Helvetica,sans-Serif" font-size="10.00" fill="#000000">boost/range/combine.hpp</text>
</g>
<!-- Node3&#45;&gt;Node45 -->
<g id="edge76" class="edge">
<title>Node3&#45;&gt;Node45</title>
<path fill="none" stroke="#191970" d="M1247.787,-589.4407C1359.2361,-583.7637 1628.622,-568.8624 1865.1414,-546.0835"/>
<polygon fill="#191970" stroke="#191970" points="1865.6968,-549.5461 1875.3122,-545.0971 1865.021,-542.5788 1865.6968,-549.5461"/>
</g>
<!-- Node9 -->
<g id="node10" class="node">
<title>Node9</title>
<polygon fill="none" stroke="#bfbfbf" points="1116,-134.5 1116,-153.5 1163,-153.5 1163,-134.5 1116,-134.5"/>
<text text-anchor="middle" x="1139.5" y="-141.5" font-family="Helvetica,sans-Serif" font-size="10.00" fill="#000000">cmath</text>
</g>
<!-- Node8&#45;&gt;Node9 -->
<g id="edge9" class="edge">
<title>Node8&#45;&gt;Node9</title>
<path fill="none" stroke="#191970" d="M880.7802,-190.4369C945.2312,-178.8688 1051.7918,-159.7425 1105.8338,-150.0427"/>
<polygon fill="#191970" stroke="#191970" points="1106.6895,-153.4451 1115.9139,-148.2334 1105.4528,-146.5552 1106.6895,-153.4451"/>
</g>
<!-- Node10 -->
<g id="node11" class="node">
<title>Node10</title>
<g id="a_node11"><a xlink:href="../../d1/da8/GPUROOTCartesianFwd_8h.html" target="_top" xlink:title="GPUROOTCartesianFwd.h">
<polygon fill="none" stroke="#000000" points="811.5,-134.5 811.5,-153.5 951.5,-153.5 951.5,-134.5 811.5,-134.5"/>
<text text-anchor="middle" x="881.5" y="-141.5" font-family="Helvetica,sans-Serif" font-size="10.00" fill="#000000">GPUROOTCartesianFwd.h</text>
</a>
</g>
</g>
<!-- Node8&#45;&gt;Node10 -->
<g id="edge10" class="edge">
<title>Node8&#45;&gt;Node10</title>
<path fill="none" stroke="#191970" d="M836.9061,-190.2455C844.6493,-182.2155 855.812,-170.6394 865.0318,-161.0781"/>
<polygon fill="#191970" stroke="#191970" points="867.7798,-163.2706 872.2017,-153.6427 862.7409,-158.4117 867.7798,-163.2706"/>
</g>
<!-- Node11 -->
<g id="node12" class="node">
<title>Node11</title>
<g id="a_node12"><a xlink:href="../../d2/dd0/Cartesian2D_8h.html" target="_top" xlink:title="MathUtils/Cartesian2D.h">
<polygon fill="none" stroke="#000000" points="1123,-73 1123,-92 1258,-92 1258,-73 1123,-73"/>
<text text-anchor="middle" x="1190.5" y="-80" font-family="Helvetica,sans-Serif" font-size="10.00" fill="#000000">MathUtils/Cartesian2D.h</text>
</a>
</g>
</g>
<!-- Node8&#45;&gt;Node11 -->
<g id="edge11" class="edge">
<title>Node8&#45;&gt;Node11</title>
<path fill="none" stroke="#191970" d="M856.8983,-190.484C921.9436,-169.4294 1078.0681,-118.8932 1151.3139,-95.1842"/>
<polygon fill="#191970" stroke="#191970" points="1152.6449,-98.4322 1161.081,-92.0227 1150.4891,-91.7724 1152.6449,-98.4322"/>
</g>
<!-- Node14 -->
<g id="node15" class="node">
<title>Node14</title>
<g id="a_node15"><a xlink:href="../../dd/d76/Cartesian3D_8h.html" target="_top" xlink:title="MathUtils/Cartesian3D.h">
<polygon fill="none" stroke="#000000" points="658,-134.5 658,-153.5 793,-153.5 793,-134.5 658,-134.5"/>
<text text-anchor="middle" x="725.5" y="-141.5" font-family="Helvetica,sans-Serif" font-size="10.00" fill="#000000">MathUtils/Cartesian3D.h</text>
</a>
</g>
</g>
<!-- Node8&#45;&gt;Node14 -->
<g id="edge14" class="edge">
<title>Node8&#45;&gt;Node14</title>
<path fill="none" stroke="#191970" d="M809.733,-190.2455C793.7905,-181.4928 770.1741,-168.527 752.0011,-158.5496"/>
<polygon fill="#191970" stroke="#191970" points="753.5137,-155.3873 743.0634,-153.6427 750.1448,-161.5233 753.5137,-155.3873"/>
</g>
<!-- Node12 -->
<g id="node13" class="node">
<title>Node12</title>
<polygon fill="none" stroke="#bfbfbf" points="1010.5,-.5 1010.5,-30.5 1174.5,-30.5 1174.5,-.5 1010.5,-.5"/>
<text text-anchor="start" x="1018.5" y="-18.5" font-family="Helvetica,sans-Serif" font-size="10.00" fill="#000000">Math/GenVector/Displacement</text>
<text text-anchor="middle" x="1092.5" y="-7.5" font-family="Helvetica,sans-Serif" font-size="10.00" fill="#000000">Vector2D.h</text>
</g>
<!-- Node11&#45;&gt;Node12 -->
<g id="edge12" class="edge">
<title>Node11&#45;&gt;Node12</title>
<path fill="none" stroke="#191970" d="M1176.459,-72.9005C1162.5412,-63.3853 1140.772,-48.5023 1122.888,-36.2755"/>
<polygon fill="#191970" stroke="#191970" points="1124.7026,-33.2763 1114.4721,-30.5218 1120.7519,-39.0549 1124.7026,-33.2763"/>
</g>
<!-- Node13 -->
<g id="node14" class="node">
<title>Node13</title>
<polygon fill="none" stroke="#bfbfbf" points="1193,-6 1193,-25 1382,-25 1382,-6 1193,-6"/>
<text text-anchor="middle" x="1287.5" y="-13" font-family="Helvetica,sans-Serif" font-size="10.00" fill="#000000">Math/GenVector/PositionVector2D.h</text>
</g>
<!-- Node11&#45;&gt;Node13 -->
<g id="edge13" class="edge">
<title>Node11&#45;&gt;Node13</title>
<path fill="none" stroke="#191970" d="M1204.3977,-72.9005C1220.3164,-61.9052 1246.6121,-43.7422 1265.3599,-30.7927"/>
<polygon fill="#191970" stroke="#191970" points="1267.3892,-33.6448 1273.628,-25.0817 1263.4108,-27.8852 1267.3892,-33.6448"/>
</g>
<!-- Node14&#45;&gt;Node11 -->
<g id="edge23" class="edge">
<title>Node14&#45;&gt;Node11</title>
<path fill="none" stroke="#191970" d="M793.0994,-135.1668C796.2767,-134.7687 799.4226,-134.3779 802.5,-134 940.6076,-117.0394 976.065,-119.7484 1113.5,-98 1120.8983,-96.8293 1128.6667,-95.4473 1136.3059,-93.9987"/>
<polygon fill="#191970" stroke="#191970" points="1137.0841,-97.413 1146.2319,-92.0681 1135.7476,-90.5418 1137.0841,-97.413"/>
</g>
<!-- Node15 -->
<g id="node16" class="node">
<title>Node15</title>
<polygon fill="none" stroke="#bfbfbf" points="940.5,-67.5 940.5,-97.5 1104.5,-97.5 1104.5,-67.5 940.5,-67.5"/>
<text text-anchor="start" x="948.5" y="-85.5" font-family="Helvetica,sans-Serif" font-size="10.00" fill="#000000">Math/GenVector/Displacement</text>
<text text-anchor="middle" x="1022.5" y="-74.5" font-family="Helvetica,sans-Serif" font-size="10.00" fill="#000000">Vector3D.h</text>
</g>
<!-- Node14&#45;&gt;Node15 -->
<g id="edge15" class="edge">
<title>Node14&#45;&gt;Node15</title>
<path fill="none" stroke="#191970" d="M771.5804,-134.4581C816.4459,-125.1678 885.63,-110.8418 939.9977,-99.5838"/>
<polygon fill="#191970" stroke="#191970" points="940.8852,-102.9744 949.9677,-97.5193 939.4657,-96.1198 940.8852,-102.9744"/>
</g>
<!-- Node16 -->
<g id="node17" class="node">
<title>Node16</title>
<polygon fill="none" stroke="#bfbfbf" points="0,-73 0,-92 189,-92 189,-73 0,-73"/>
<text text-anchor="middle" x="94.5" y="-80" font-family="Helvetica,sans-Serif" font-size="10.00" fill="#000000">Math/GenVector/PositionVector3D.h</text>
</g>
<!-- Node14&#45;&gt;Node16 -->
<g id="edge16" class="edge">
<title>Node14&#45;&gt;Node16</title>
<path fill="none" stroke="#191970" d="M657.9815,-139.4281C557.596,-132.3317 363.1297,-117.4348 198.5,-98 187.3527,-96.684 175.5605,-95.106 164.0763,-93.4678"/>
<polygon fill="#191970" stroke="#191970" points="164.4865,-89.9907 154.0874,-92.0177 163.4808,-96.9181 164.4865,-89.9907"/>
</g>
<!-- Node17 -->
<g id="node18" class="node">
<title>Node17</title>
<polygon fill="none" stroke="#bfbfbf" points="207.5,-73 207.5,-92 367.5,-92 367.5,-73 207.5,-73"/>
<text text-anchor="middle" x="287.5" y="-80" font-family="Helvetica,sans-Serif" font-size="10.00" fill="#000000">Math/GenVector/Rotation3D.h</text>
</g>
<!-- Node14&#45;&gt;Node17 -->
<g id="edge17" class="edge">
<title>Node14&#45;&gt;Node17</title>
<path fill="none" stroke="#191970" d="M657.825,-135.922C587.4271,-127.3218 474.0655,-112.9192 376.5,-98 367.939,-96.6909 358.9304,-95.2254 350.0656,-93.7319"/>
<polygon fill="#191970" stroke="#191970" points="350.5957,-90.2718 340.1496,-92.0406 349.4187,-97.1722 350.5957,-90.2718"/>
</g>
<!-- Node18 -->
<g id="node19" class="node">
<title>Node18</title>
<polygon fill="none" stroke="#bfbfbf" points="385.5,-73 385.5,-92 553.5,-92 553.5,-73 385.5,-73"/>
<text text-anchor="middle" x="469.5" y="-80" font-family="Helvetica,sans-Serif" font-size="10.00" fill="#000000">Math/GenVector/Transform3D.h</text>
</g>
<!-- Node14&#45;&gt;Node18 -->
<g id="edge18" class="edge">
<title>Node14&#45;&gt;Node18</title>
<path fill="none" stroke="#191970" d="M685.7809,-134.4581C640.9397,-123.6857 567.9157,-106.1428 519.2975,-94.4631"/>
<polygon fill="#191970" stroke="#191970" points="519.8532,-90.9971 509.3123,-92.0643 518.2181,-97.8034 519.8532,-90.9971"/>
</g>
<!-- Node19 -->
<g id="node20" class="node">
<title>Node19</title>
<polygon fill="none" stroke="#bfbfbf" points="572,-73 572,-92 745,-92 745,-73 572,-73"/>
<text text-anchor="middle" x="658.5" y="-80" font-family="Helvetica,sans-Serif" font-size="10.00" fill="#000000">Math/GenVector/Translation3D.h</text>
</g>
<!-- Node14&#45;&gt;Node19 -->
<g id="edge19" class="edge">
<title>Node14&#45;&gt;Node19</title>
<path fill="none" stroke="#191970" d="M715.0313,-134.3906C704.7663,-124.9683 688.9097,-110.4134 676.5994,-99.1137"/>
<polygon fill="#191970" stroke="#191970" points="678.8501,-96.4287 669.1163,-92.2449 674.1166,-101.5856 678.8501,-96.4287"/>
</g>
<!-- Node20 -->
<g id="node21" class="node">
<title>Node20</title>
<polygon fill="none" stroke="#bfbfbf" points="763,-73 763,-92 822,-92 822,-73 763,-73"/>
<text text-anchor="middle" x="792.5" y="-80" font-family="Helvetica,sans-Serif" font-size="10.00" fill="#000000">Rtypes.h</text>
</g>
<!-- Node14&#45;&gt;Node20 -->
<g id="edge20" class="edge">
<title>Node14&#45;&gt;Node20</title>
<path fill="none" stroke="#191970" d="M735.9688,-134.3906C746.2337,-124.9683 762.0903,-110.4134 774.4006,-99.1137"/>
<polygon fill="#191970" stroke="#191970" points="776.8834,-101.5856 781.8837,-92.2449 772.1499,-96.4287 776.8834,-101.5856"/>
</g>
<!-- Node21 -->
<g id="node22" class="node">
<title>Node21</title>
<polygon fill="none" stroke="#bfbfbf" points="840.5,-73 840.5,-92 922.5,-92 922.5,-73 840.5,-73"/>
<text text-anchor="middle" x="881.5" y="-80" font-family="Helvetica,sans-Serif" font-size="10.00" fill="#000000">TGeoMatrix.h</text>
</g>
<!-- Node14&#45;&gt;Node21 -->
<g id="edge21" class="edge">
<title>Node14&#45;&gt;Node21</title>
<path fill="none" stroke="#191970" d="M749.875,-134.3906C776.2056,-124.0103 818.338,-107.4004 847.8229,-95.7766"/>
<polygon fill="#191970" stroke="#191970" points="849.2767,-98.9657 857.2962,-92.0419 846.7093,-92.4534 849.2767,-98.9657"/>
</g>
<!-- Node22 -->
<g id="node23" class="node">
<title>Node22</title>
<polygon fill="none" stroke="#bfbfbf" points="1297,-73 1297,-92 1346,-92 1346,-73 1297,-73"/>
<text text-anchor="middle" x="1321.5" y="-80" font-family="Helvetica,sans-Serif" font-size="10.00" fill="#000000">iosfwd</text>
</g>
<!-- Node14&#45;&gt;Node22 -->
<g id="edge22" class="edge">
<title>Node14&#45;&gt;Node22</title>
<path fill="none" stroke="#191970" d="M793.083,-135.0221C796.2647,-134.6626 799.4161,-134.3197 802.5,-134 1008.2396,-112.6734 1062.8556,-134.2293 1266.5,-98 1273.2592,-96.7975 1280.3832,-95.1125 1287.1808,-93.2937"/>
<polygon fill="#191970" stroke="#191970" points="1288.1514,-96.6565 1296.8261,-90.5738 1286.2515,-89.9193 1288.1514,-96.6565"/>
</g>
<!-- Node23&#45;&gt;Node5 -->
<g id="edge26" class="edge">
<title>Node23&#45;&gt;Node5</title>
<path fill="none" stroke="#191970" d="M1101.0565,-472.1035C1187.7822,-459.2918 1349.6346,-435.2683 1352.5,-434 1378.4904,-422.4961 1403.0095,-400.3496 1418.1218,-384.8978"/>
<polygon fill="#191970" stroke="#191970" points="1420.7792,-387.1822 1425.1251,-377.5197 1415.7022,-382.3631 1420.7792,-387.1822"/>
</g>
<!-- Node23&#45;&gt;Node6 -->
<g id="edge28" class="edge">
<title>Node23&#45;&gt;Node6</title>
<path fill="none" stroke="#191970" d="M1101.3105,-472.0064C1106.1075,-471.3181 1110.8906,-470.6406 1115.5,-470 1237.5916,-453.0323 1269.7057,-458.5564 1390.5,-434 1391.7515,-433.7456 1393.0233,-433.4712 1394.3051,-433.1813"/>
<polygon fill="#191970" stroke="#191970" points="1395.2899,-436.5431 1404.1498,-430.7333 1393.6007,-429.75 1395.2899,-436.5431"/>
</g>
<!-- Node23&#45;&gt;Node8 -->
<g id="edge30" class="edge">
<title>Node23&#45;&gt;Node8</title>
<path fill="none" stroke="#191970" d="M993.9192,-471.2383C990.7353,-470.7975 987.5774,-470.3806 984.5,-470 805.1564,-447.8222 749.9654,-493.9796 579.5,-434 529.6164,-416.448 480.5,-420.8814 480.5,-368 480.5,-368 480.5,-368 480.5,-312 480.5,-255.6378 648.393,-223.495 750.6106,-209.1486"/>
<polygon fill="#191970" stroke="#191970" points="751.1656,-212.6053 760.5949,-207.7743 750.211,-205.6706 751.1656,-212.6053"/>
</g>
<!-- Node23&#45;&gt;Node9 -->
<g id="edge29" class="edge">
<title>Node23&#45;&gt;Node9</title>
<path fill="none" stroke="#191970" d="M1101.4459,-473.5092C1152.1904,-466.3419 1223.3053,-453.2136 1243.5,-434 1265.6146,-412.9597 1262.5,-398.5246 1262.5,-368 1262.5,-368 1262.5,-368 1262.5,-256 1262.5,-207.2189 1208.9553,-174.0522 1172.5224,-157.131"/>
<polygon fill="#191970" stroke="#191970" points="1173.7745,-153.8572 1163.2156,-152.9843 1170.9255,-160.2513 1173.7745,-153.8572"/>
</g>
<!-- Node23&#45;&gt;Node11 -->
<g id="edge59" class="edge">
<title>Node23&#45;&gt;Node11</title>
<path fill="none" stroke="#191970" d="M1101.1467,-473.9403C1157.069,-466.7182 1240.0493,-453.1708 1265.5,-434 1292.0207,-414.0232 1300.5,-401.2027 1300.5,-368 1300.5,-368 1300.5,-368 1300.5,-200 1300.5,-152.4405 1251.8786,-116.1834 1219.2867,-97.2221"/>
<polygon fill="#191970" stroke="#191970" points="1220.6016,-93.9472 1210.1658,-92.1183 1217.1833,-100.0559 1220.6016,-93.9472"/>
</g>
<!-- Node23&#45;&gt;Node14 -->
<g id="edge60" class="edge">
<title>Node23&#45;&gt;Node14</title>
<path fill="none" stroke="#191970" d="M993.9251,-471.1895C990.7397,-470.7609 987.5799,-470.36 984.5,-470 878.9175,-457.6573 602.155,-482.3779 507.5,-434 444.3123,-401.705 404.5,-382.9623 404.5,-312 404.5,-312 404.5,-312 404.5,-256 404.5,-204.4804 553.7706,-171.1435 648.7301,-155.1485"/>
<polygon fill="#191970" stroke="#191970" points="649.3042,-158.6012 658.5986,-153.5154 648.1613,-151.6951 649.3042,-158.6012"/>
</g>
<!-- Node24 -->
<g id="node25" class="node">
<title>Node24</title>
<polygon fill="none" stroke="#bfbfbf" points="752.5,-414.5 752.5,-433.5 790.5,-433.5 790.5,-414.5 752.5,-414.5"/>
<text text-anchor="middle" x="771.5" y="-421.5" font-family="Helvetica,sans-Serif" font-size="10.00" fill="#000000">map</text>
</g>
<!-- Node23&#45;&gt;Node24 -->
<g id="edge25" class="edge">
<title>Node23&#45;&gt;Node24</title>
<path fill="none" stroke="#191970" d="M993.9651,-471.1009C936.6423,-461.4028 848.4433,-445.954 800.5218,-433.8917"/>
<polygon fill="#191970" stroke="#191970" points="801.2132,-430.4545 790.6517,-431.2948 799.432,-437.2241 801.2132,-430.4545"/>
</g>
<!-- Node25 -->
<g id="node26" class="node">
<title>Node25</title>
<polygon fill="none" stroke="#bfbfbf" points="808.5,-414.5 808.5,-433.5 850.5,-433.5 850.5,-414.5 808.5,-414.5"/>
<text text-anchor="middle" x="829.5" y="-421.5" font-family="Helvetica,sans-Serif" font-size="10.00" fill="#000000">array</text>
</g>
<!-- Node23&#45;&gt;Node25 -->
<g id="edge27" class="edge">
<title>Node23&#45;&gt;Node25</title>
<path fill="none" stroke="#191970" d="M1004.3019,-470.4878C968.1931,-462.3001 915.1637,-449.7288 860.5829,-434.1553"/>
<polygon fill="#191970" stroke="#191970" points="861.3163,-430.7243 850.7381,-431.318 859.3777,-437.4505 861.3163,-430.7243"/>
</g>
<!-- Node26 -->
<g id="node27" class="node">
<title>Node26</title>
<g id="a_node27"><a xlink:href="../../de/d41/PadPos_8h.html" target="_top" xlink:title="TPCBase/PadPos.h">
<polygon fill="none" stroke="#000000" points="977.5,-302.5 977.5,-321.5 1083.5,-321.5 1083.5,-302.5 977.5,-302.5"/>
<text text-anchor="middle" x="1030.5" y="-309.5" font-family="Helvetica,sans-Serif" font-size="10.00" fill="#000000">TPCBase/PadPos.h</text>
</a>
</g>
</g>
<!-- Node23&#45;&gt;Node26 -->
<g id="edge31" class="edge">
<title>Node23&#45;&gt;Node26</title>
<path fill="none" stroke="#191970" d="M1046.5373,-470.4862C1043.85,-443.9293 1036.2239,-368.5651 1032.5406,-332.1655"/>
<polygon fill="#191970" stroke="#191970" points="1035.9836,-331.4247 1031.4945,-321.8279 1029.0191,-332.1295 1035.9836,-331.4247"/>
</g>
<!-- Node27 -->
<g id="node28" class="node">
<title>Node27</title>
<g id="a_node28"><a xlink:href="../../dd/d0b/PadSecPos_8h.html" target="_top" xlink:title="TPCBase/PadSecPos.h">
<polygon fill="none" stroke="#000000" points="585,-358.5 585,-377.5 708,-377.5 708,-358.5 585,-358.5"/>
<text text-anchor="middle" x="646.5" y="-365.5" font-family="Helvetica,sans-Serif" font-size="10.00" fill="#000000">TPCBase/PadSecPos.h</text>
</a>
</g>
</g>
<!-- Node23&#45;&gt;Node27 -->
<g id="edge32" class="edge">
<title>Node23&#45;&gt;Node27</title>
<path fill="none" stroke="#191970" d="M993.9155,-471.2679C990.7325,-470.8196 987.5758,-470.393 984.5,-470 943.4181,-464.7513 641.3353,-464.667 613.5,-434 600.5688,-419.7533 614.1683,-399.5068 627.6196,-385.2038"/>
<polygon fill="#191970" stroke="#191970" points="630.2924,-387.4816 634.9079,-377.945 625.3526,-382.5218 630.2924,-387.4816"/>
</g>
<!-- Node23&#45;&gt;Node28 -->
<g id="edge58" class="edge">
<title>Node23&#45;&gt;Node28</title>
<path fill="none" stroke="#191970" d="M993.9166,-471.2595C990.7333,-470.8134 987.5763,-470.3895 984.5,-470 900.3492,-459.346 674.8069,-481.4531 604.5,-434 574.5336,-413.7744 566.2575,-392.9519 575.5,-358 583.997,-325.8671 605.223,-293.2604 619.501,-273.8365"/>
<polygon fill="#191970" stroke="#191970" points="622.4475,-275.7427 625.6837,-265.6542 616.8625,-271.5226 622.4475,-275.7427"/>
</g>
<!-- Node30 -->
<g id="node31" class="node">
<title>Node30</title>
<g id="a_node31"><a xlink:href="../../da/d61/PadROCPos_8h.html" target="_top" xlink:title="TPCBase/PadROCPos.h">
<polygon fill="none" stroke="#000000" points="875,-358.5 875,-377.5 1002,-377.5 1002,-358.5 875,-358.5"/>
<text text-anchor="middle" x="938.5" y="-365.5" font-family="Helvetica,sans-Serif" font-size="10.00" fill="#000000">TPCBase/PadROCPos.h</text>
</a>
</g>
</g>
<!-- Node23&#45;&gt;Node30 -->
<g id="edge37" class="edge">
<title>Node23&#45;&gt;Node30</title>
<path fill="none" stroke="#191970" d="M1043.3975,-470.1278C1037.3168,-456.3568 1024.8477,-431.1463 1008.5,-414 996.5148,-401.4294 980.4761,-390.5756 966.775,-382.5729"/>
<polygon fill="#191970" stroke="#191970" points="968.175,-379.3451 957.7416,-377.502 964.7484,-385.4491 968.175,-379.3451"/>
</g>
<!-- Node32 -->
<g id="node33" class="node">
<title>Node32</title>
<g id="a_node33"><a xlink:href="../../d3/d54/DigitPos_8h.html" target="_top" xlink:title="TPCBase/DigitPos.h">
<polygon fill="none" stroke="#000000" points="622.5,-414.5 622.5,-433.5 734.5,-433.5 734.5,-414.5 622.5,-414.5"/>
<text text-anchor="middle" x="678.5" y="-421.5" font-family="Helvetica,sans-Serif" font-size="10.00" fill="#000000">TPCBase/DigitPos.h</text>
</a>
</g>
</g>
<!-- Node23&#45;&gt;Node32 -->
<g id="edge43" class="edge">
<title>Node23&#45;&gt;Node32</title>
<path fill="none" stroke="#191970" d="M993.889,-471.4562C990.7126,-470.9606 987.5647,-470.4721 984.5,-470 880.5989,-453.994 852.2201,-450.4373 744.4926,-434.1446"/>
<polygon fill="#191970" stroke="#191970" points="744.9288,-430.6709 734.5175,-432.634 743.8806,-437.592 744.9288,-430.6709"/>
</g>
<!-- Node34 -->
<g id="node35" class="node">
<title>Node34</title>
<g id="a_node35"><a xlink:href="../../d1/d1f/FECInfo_8h.html" target="_top" xlink:title="TPCBase/FECInfo.h">
<polygon fill="none" stroke="#000000" points="1328.5,-246.5 1328.5,-265.5 1436.5,-265.5 1436.5,-246.5 1328.5,-246.5"/>
<text text-anchor="middle" x="1382.5" y="-253.5" font-family="Helvetica,sans-Serif" font-size="10.00" fill="#000000">TPCBase/FECInfo.h</text>
</a>
</g>
</g>
<!-- Node23&#45;&gt;Node34 -->
<g id="edge51" class="edge">
<title>Node23&#45;&gt;Node34</title>
<path fill="none" stroke="#191970" d="M1101.0226,-473.6474C1174.182,-464.5326 1298.2425,-447.37 1314.5,-434 1363.8204,-393.4393 1377.4248,-312.843 1381.1335,-275.6482"/>
<polygon fill="#191970" stroke="#191970" points="1384.6286,-275.853 1381.9953,-265.5907 1377.6542,-275.2553 1384.6286,-275.853"/>
</g>
<!-- Node35 -->
<g id="node36" class="node">
<title>Node35</title>
<g id="a_node36"><a xlink:href="../../da/d9d/PadRegionInfo_8h.html" target="_top" xlink:title="TPCBase/PadRegionInfo.h">
<polygon fill="none" stroke="#000000" points="1094.5,-414.5 1094.5,-433.5 1234.5,-433.5 1234.5,-414.5 1094.5,-414.5"/>
<text text-anchor="middle" x="1164.5" y="-421.5" font-family="Helvetica,sans-Serif" font-size="10.00" fill="#000000">TPCBase/PadRegionInfo.h</text>
</a>
</g>
</g>
<!-- Node23&#45;&gt;Node35 -->
<g id="edge53" class="edge">
<title>Node23&#45;&gt;Node35</title>
<path fill="none" stroke="#191970" d="M1067.613,-470.3733C1086.3103,-461.4241 1114.3744,-447.9917 1135.4934,-437.8835"/>
<polygon fill="#191970" stroke="#191970" points="1137.1405,-440.9755 1144.6494,-433.5011 1134.1183,-434.6614 1137.1405,-440.9755"/>
</g>
<!-- Node36 -->
<g id="node37" class="node">
<title>Node36</title>
<g id="a_node37"><a xlink:href="../../d6/d42/PartitionInfo_8h.html" target="_top" xlink:title="TPCBase/PartitionInfo.h">
<polygon fill="none" stroke="#000000" points="869,-414.5 869,-433.5 1000,-433.5 1000,-414.5 869,-414.5"/>
<text text-anchor="middle" x="934.5" y="-421.5" font-family="Helvetica,sans-Serif" font-size="10.00" fill="#000000">TPCBase/PartitionInfo.h</text>
</a>
</g>
</g>
<!-- Node23&#45;&gt;Node36 -->
<g id="edge57" class="edge">
<title>Node23&#45;&gt;Node36</title>
<path fill="none" stroke="#191970" d="M1028.0746,-470.3733C1010.0979,-461.4644 983.1559,-448.1127 962.791,-438.0203"/>
<polygon fill="#191970" stroke="#191970" points="964.1861,-434.8055 953.6719,-433.5011 961.0778,-441.0776 964.1861,-434.8055"/>
</g>
<!-- Node27&#45;&gt;Node26 -->
<g id="edge36" class="edge">
<title>Node27&#45;&gt;Node26</title>
<path fill="none" stroke="#191970" d="M708.1962,-359.0026C779.2238,-348.6445 895.2976,-331.717 967.0548,-321.2524"/>
<polygon fill="#191970" stroke="#191970" points="967.9195,-324.6634 977.3097,-319.7569 966.9093,-317.7367 967.9195,-324.6634"/>
</g>
<!-- Node27&#45;&gt;Node28 -->
<g id="edge33" class="edge">
<title>Node27&#45;&gt;Node28</title>
<path fill="none" stroke="#191970" d="M645.3916,-358.4509C643.2714,-340.184 638.602,-299.9553 635.7863,-275.6976"/>
<polygon fill="#191970" stroke="#191970" points="639.2353,-275.0546 634.6056,-265.5249 632.282,-275.8618 639.2353,-275.0546"/>
</g>
<!-- Node28&#45;&gt;Node8 -->
<g id="edge35" class="edge">
<title>Node28&#45;&gt;Node8</title>
<path fill="none" stroke="#191970" d="M666.8498,-246.3733C699.528,-236.9404 749.4618,-222.5265 784.977,-212.2747"/>
<polygon fill="#191970" stroke="#191970" points="785.9484,-215.6373 794.5854,-209.5011 784.007,-208.9119 785.9484,-215.6373"/>
</g>
<!-- Node29 -->
<g id="node30" class="node">
<title>Node29</title>
<g id="a_node30"><a xlink:href="../../d0/dda/DataFormats_2Detectors_2TPC_2include_2DataFormatsTPC_2Constants_8h.html" target="_top" xlink:title="DataFormatsTPC/Constants.h">
<polygon fill="none" stroke="#000000" points="554,-190.5 554,-209.5 713,-209.5 713,-190.5 554,-190.5"/>
<text text-anchor="middle" x="633.5" y="-197.5" font-family="Helvetica,sans-Serif" font-size="10.00" fill="#000000">DataFormatsTPC/Constants.h</text>
</a>
</g>
</g>
<!-- Node28&#45;&gt;Node29 -->
<g id="edge34" class="edge">
<title>Node28&#45;&gt;Node29</title>
<path fill="none" stroke="#191970" d="M633.5,-246.2455C633.5,-238.9382 633.5,-228.6944 633.5,-219.7046"/>
<polygon fill="#191970" stroke="#191970" points="637.0001,-219.6426 633.5,-209.6427 630.0001,-219.6427 637.0001,-219.6426"/>
</g>
<!-- Node30&#45;&gt;Node8 -->
<g id="edge38" class="edge">
<title>Node30&#45;&gt;Node8</title>
<path fill="none" stroke="#191970" d="M932.6029,-358.396C919.8129,-337.6525 888.4237,-287.206 860.5,-246 854.1834,-236.6788 846.9115,-226.488 840.8044,-218.0727"/>
<polygon fill="#191970" stroke="#191970" points="843.4596,-215.7741 834.7349,-209.7632 837.8069,-219.9029 843.4596,-215.7741"/>
</g>
<!-- Node30&#45;&gt;Node26 -->
<g id="edge42" class="edge">
<title>Node30&#45;&gt;Node26</title>
<path fill="none" stroke="#191970" d="M954.5252,-358.2455C968.6408,-349.6534 989.4263,-337.0014 1005.6899,-327.1018"/>
<polygon fill="#191970" stroke="#191970" points="1007.9363,-329.8319 1014.6585,-321.6427 1004.2966,-323.8525 1007.9363,-329.8319"/>
</g>
<!-- Node30&#45;&gt;Node31 -->
<g id="edge39" class="edge">
<title>Node30&#45;&gt;Node31</title>
<path fill="none" stroke="#191970" d="M903.4311,-358.3733C869.0685,-348.9404 816.5608,-334.5265 779.2149,-324.2747"/>
<polygon fill="#191970" stroke="#191970" points="779.681,-320.7732 769.1112,-321.5011 777.828,-327.5235 779.681,-320.7732"/>
</g>
<!-- Node31&#45;&gt;Node8 -->
<g id="edge40" class="edge">
<title>Node31&#45;&gt;Node8</title>
<path fill="none" stroke="#191970" d="M742.4291,-302.4509C758.0777,-283.6054 793.1358,-241.3849 813.017,-217.4419"/>
<polygon fill="#191970" stroke="#191970" points="815.8953,-219.4543 819.5909,-209.5249 810.5099,-214.9824 815.8953,-219.4543"/>
</g>
<!-- Node31&#45;&gt;Node28 -->
<g id="edge41" class="edge">
<title>Node31&#45;&gt;Node28</title>
<path fill="none" stroke="#191970" d="M716.9071,-302.2455C701.121,-293.4928 677.7361,-280.527 659.7413,-270.5496"/>
<polygon fill="#191970" stroke="#191970" points="661.3341,-267.4308 650.8913,-265.6427 657.9397,-273.5528 661.3341,-267.4308"/>
</g>
<!-- Node32&#45;&gt;Node8 -->
<g id="edge44" class="edge">
<title>Node32&#45;&gt;Node8</title>
<path fill="none" stroke="#191970" d="M731.6728,-414.463C769.5927,-406.4538 815.8466,-393.7939 827.5,-378 862.5842,-330.4505 845.2562,-254.6232 834.2399,-219.2916"/>
<polygon fill="#191970" stroke="#191970" points="837.5359,-218.1102 831.0886,-209.7028 830.8858,-220.2957 837.5359,-218.1102"/>
</g>
<!-- Node32&#45;&gt;Node26 -->
<g id="edge49" class="edge">
<title>Node32&#45;&gt;Node26</title>
<path fill="none" stroke="#191970" d="M734.51,-415.3154C737.5501,-414.8651 740.5619,-414.424 743.5,-414 802.7563,-405.4478 964.9135,-416.8113 1010.5,-378 1023.7216,-366.7434 1028.3815,-347.0582 1029.937,-332.1073"/>
<polygon fill="#191970" stroke="#191970" points="1033.45,-332.0227 1030.6118,-321.8151 1026.465,-331.5647 1033.45,-332.0227"/>
</g>
<!-- Node32&#45;&gt;Node27 -->
<g id="edge50" class="edge">
<title>Node32&#45;&gt;Node27</title>
<path fill="none" stroke="#191970" d="M672.926,-414.2455C668.5669,-406.617 662.3789,-395.7881 657.0867,-386.5267"/>
<polygon fill="#191970" stroke="#191970" points="660.0104,-384.5886 652.0101,-377.6427 653.9327,-388.0616 660.0104,-384.5886"/>
</g>
<!-- Node33 -->
<g id="node34" class="node">
<title>Node33</title>
<g id="a_node34"><a xlink:href="../../df/d26/CRU_8h.html" target="_top" xlink:title="TPCBase/CRU.h">
<polygon fill="none" stroke="#000000" points="726.5,-358.5 726.5,-377.5 818.5,-377.5 818.5,-358.5 726.5,-358.5"/>
<text text-anchor="middle" x="772.5" y="-365.5" font-family="Helvetica,sans-Serif" font-size="10.00" fill="#000000">TPCBase/CRU.h</text>
</a>
</g>
</g>
<!-- Node32&#45;&gt;Node33 -->
<g id="edge45" class="edge">
<title>Node32&#45;&gt;Node33</title>
<path fill="none" stroke="#191970" d="M694.8736,-414.2455C709.4308,-405.5731 730.931,-392.7645 747.6152,-382.825"/>
<polygon fill="#191970" stroke="#191970" points="749.5144,-385.7676 756.3141,-377.6427 745.9317,-379.7539 749.5144,-385.7676"/>
</g>
<!-- Node33&#45;&gt;Node8 -->
<g id="edge46" class="edge">
<title>Node33&#45;&gt;Node8</title>
<path fill="none" stroke="#191970" d="M776.2969,-358.1824C779.8447,-348.9049 785.2216,-334.5739 789.5,-322 801.7701,-285.9394 814.6754,-243.3688 821.8439,-219.2431"/>
<polygon fill="#191970" stroke="#191970" points="825.232,-220.1279 824.711,-209.5459 818.5193,-218.1431 825.232,-220.1279"/>
</g>
<!-- Node33&#45;&gt;Node28 -->
<g id="edge47" class="edge">
<title>Node33&#45;&gt;Node28</title>
<path fill="none" stroke="#191970" d="M744.2926,-358.3587C724.6345,-350.6668 698.6126,-338.4518 679.5,-322 664.019,-308.6742 651.2132,-289.0336 643.0785,-274.6426"/>
<polygon fill="#191970" stroke="#191970" points="646.0552,-272.7893 638.2176,-265.6604 639.8989,-276.121 646.0552,-272.7893"/>
</g>
<!-- Node33&#45;&gt;Node31 -->
<g id="edge48" class="edge">
<title>Node33&#45;&gt;Node31</title>
<path fill="none" stroke="#191970" d="M765.8809,-358.2455C760.5954,-350.4564 753.0459,-339.3308 746.6762,-329.9439"/>
<polygon fill="#191970" stroke="#191970" points="749.5545,-327.9522 741.0432,-321.6427 743.7621,-331.8827 749.5545,-327.9522"/>
</g>
<!-- Node34&#45;&gt;Node22 -->
<g id="edge52" class="edge">
<title>Node34&#45;&gt;Node22</title>
<path fill="none" stroke="#191970" d="M1379.1335,-246.4248C1369.4494,-218.8807 1341.3813,-139.0477 1328.3264,-101.916"/>
<polygon fill="#191970" stroke="#191970" points="1331.5501,-100.5325 1324.9313,-92.2595 1324.9463,-102.8544 1331.5501,-100.5325"/>
</g>
<!-- Node35&#45;&gt;Node5 -->
<g id="edge54" class="edge">
<title>Node35&#45;&gt;Node5</title>
<path fill="none" stroke="#191970" d="M1210.4371,-414.4369C1264.2601,-403.2321 1352.1443,-384.9365 1399.9519,-374.984"/>
<polygon fill="#191970" stroke="#191970" points="1400.7222,-378.3987 1409.799,-372.934 1399.2955,-371.5457 1400.7222,-378.3987"/>
</g>
<!-- Node35&#45;&gt;Node8 -->
<g id="edge55" class="edge">
<title>Node35&#45;&gt;Node8</title>
<path fill="none" stroke="#191970" d="M1161.3019,-414.29C1153.3245,-391.5021 1130.4161,-334.1009 1092.5,-302 1033.7264,-252.2405 948.0075,-225.2283 890.1123,-211.7303"/>
<polygon fill="#191970" stroke="#191970" points="890.8803,-208.3156 880.3543,-209.5215 889.3349,-215.1429 890.8803,-208.3156"/>
</g>
<!-- Node35&#45;&gt;Node26 -->
<g id="edge56" class="edge">
<title>Node35&#45;&gt;Node26</title>
<path fill="none" stroke="#191970" d="M1153.0752,-414.4509C1130.1323,-395.2747 1078.233,-351.8962 1049.8807,-328.1988"/>
<polygon fill="#191970" stroke="#191970" points="1051.8133,-325.2525 1041.8958,-321.5249 1047.3241,-330.6235 1051.8133,-325.2525"/>
</g>
<!-- Node37&#45;&gt;Node4 -->
<g id="edge65" class="edge">
<title>Node37&#45;&gt;Node4</title>
<path fill="none" stroke="#191970" d="M1230.2441,-529.247C1171.4928,-521.7873 1076.5102,-508.584 985.784,-490.1037"/>
<polygon fill="#191970" stroke="#191970" points="986.3863,-486.6543 975.8855,-488.0626 984.9726,-493.5101 986.3863,-486.6543"/>
</g>
<!-- Node37&#45;&gt;Node5 -->
<g id="edge66" class="edge">
<title>Node37&#45;&gt;Node5</title>
<path fill="none" stroke="#191970" d="M1298.8065,-526.3048C1316.3359,-512.7443 1349.7818,-487.7821 1380.5,-470 1413.1948,-451.0736 1437.218,-465.8717 1457.5,-434 1467.0579,-418.9805 1457.9048,-399.6229 1448.2758,-385.7622"/>
<polygon fill="#191970" stroke="#191970" points="1450.8916,-383.4181 1442.0714,-377.5483 1445.306,-387.6373 1450.8916,-383.4181"/>
</g>
<!-- Node37&#45;&gt;Node6 -->
<g id="edge67" class="edge">
<title>Node37&#45;&gt;Node6</title>
<path fill="none" stroke="#191970" d="M1281.9892,-526.4187C1276.1942,-512.5452 1268.2522,-486.7002 1280.5,-470 1283.9847,-465.2486 1352.7308,-444.9982 1394.6299,-433.0074"/>
<polygon fill="#191970" stroke="#191970" points="1395.7377,-436.3311 1404.3947,-430.2231 1393.8183,-429.5994 1395.7377,-436.3311"/>
</g>
<!-- Node37&#45;&gt;Node23 -->
<g id="edge70" class="edge">
<title>Node37&#45;&gt;Node23</title>
<path fill="none" stroke="#191970" d="M1245.686,-526.4369C1204.8689,-516.8731 1142.0041,-502.1432 1098.0528,-491.845"/>
<polygon fill="#191970" stroke="#191970" points="1098.6805,-488.3973 1088.1457,-489.5237 1097.0835,-495.2128 1098.6805,-488.3973"/>
</g>
<!-- Node38 -->
<g id="node39" class="node">
<title>Node38</title>
<polygon fill="none" stroke="#bfbfbf" points="1289.5,-470.5 1289.5,-489.5 1333.5,-489.5 1333.5,-470.5 1289.5,-470.5"/>
<text text-anchor="middle" x="1311.5" y="-477.5" font-family="Helvetica,sans-Serif" font-size="10.00" fill="#000000">Vc/Vc</text>
</g>
<!-- Node37&#45;&gt;Node38 -->
<g id="edge64" class="edge">
<title>Node37&#45;&gt;Node38</title>
<path fill="none" stroke="#191970" d="M1290.8547,-526.2455C1294.2244,-518.6973 1298.993,-508.0158 1303.0983,-498.8197"/>
<polygon fill="#191970" stroke="#191970" points="1306.3147,-500.2009 1307.1952,-489.6427 1299.9227,-497.3473 1306.3147,-500.2009"/>
</g>
<!-- Node39 -->
<g id="node40" class="node">
<title>Node39</title>
<polygon fill="none" stroke="#bfbfbf" points="1389.5,-470.5 1389.5,-489.5 1445.5,-489.5 1445.5,-470.5 1389.5,-470.5"/>
<text text-anchor="middle" x="1417.5" y="-477.5" font-family="Helvetica,sans-Serif" font-size="10.00" fill="#000000">numeric</text>
</g>
<!-- Node37&#45;&gt;Node39 -->
<g id="edge68" class="edge">
<title>Node37&#45;&gt;Node39</title>
<path fill="none" stroke="#191970" d="M1309.0197,-526.3733C1330.2372,-517.3032 1362.2276,-503.6279 1385.9769,-493.4755"/>
<polygon fill="#191970" stroke="#191970" points="1387.4548,-496.6502 1395.2742,-489.5011 1384.7033,-490.2136 1387.4548,-496.6502"/>
</g>
<!-- Node40 -->
<g id="node41" class="node">
<title>Node40</title>
<polygon fill="none" stroke="#bfbfbf" points="1464,-470.5 1464,-489.5 1533,-489.5 1533,-470.5 1464,-470.5"/>
<text text-anchor="middle" x="1498.5" y="-477.5" font-family="Helvetica,sans-Serif" font-size="10.00" fill="#000000">type_traits</text>
</g>
<!-- Node37&#45;&gt;Node40 -->
<g id="edge69" class="edge">
<title>Node37&#45;&gt;Node40</title>
<path fill="none" stroke="#191970" d="M1322.9441,-526.3733C1359.2416,-516.7852 1415.0211,-502.051 1453.9335,-491.7723"/>
<polygon fill="#191970" stroke="#191970" points="1455.1608,-495.0682 1463.9353,-489.1303 1453.373,-488.3004 1455.1608,-495.0682"/>
</g>
<!-- Node41 -->
<g id="node42" class="node">
<title>Node41</title>
<polygon fill="none" stroke="#bfbfbf" points="1158,-470.5 1158,-489.5 1233,-489.5 1233,-470.5 1158,-470.5"/>
<text text-anchor="middle" x="1195.5" y="-477.5" font-family="Helvetica,sans-Serif" font-size="10.00" fill="#000000">FairLogger.h</text>
</g>
<!-- Node37&#45;&gt;Node41 -->
<g id="edge71" class="edge">
<title>Node37&#45;&gt;Node41</title>
<path fill="none" stroke="#191970" d="M1270.649,-526.2455C1256.6868,-517.6534 1236.1272,-505.0014 1220.0404,-495.1018"/>
<polygon fill="#191970" stroke="#191970" points="1221.5203,-491.9029 1211.1693,-489.6427 1217.8516,-497.8645 1221.5203,-491.9029"/>
</g>
<!-- Node37&#45;&gt;Node42 -->
<g id="edge72" class="edge">
<title>Node37&#45;&gt;Node42</title>
<path fill="none" stroke="#191970" d="M1340.2925,-526.4369C1395.9068,-516.5499 1482.5768,-501.1419 1540.6564,-490.8166"/>
<polygon fill="#191970" stroke="#191970" points="1541.5629,-494.2105 1550.7959,-489.0141 1540.3376,-487.3185 1541.5629,-494.2105"/>
</g>
<!-- Node44 -->
<g id="node45" class="node">
<title>Node44</title>
<polygon fill="none" stroke="#bfbfbf" points="1745.5,-470.5 1745.5,-489.5 1853.5,-489.5 1853.5,-470.5 1745.5,-470.5"/>
<text text-anchor="middle" x="1799.5" y="-477.5" font-family="Helvetica,sans-Serif" font-size="10.00" fill="#000000">fairlogger/Logger.h</text>
</g>
<!-- Node43&#45;&gt;Node44 -->
<g id="edge74" class="edge">
<title>Node43&#45;&gt;Node44</title>
<path fill="none" stroke="#191970" d="M1799.5,-526.2455C1799.5,-518.9382 1799.5,-508.6944 1799.5,-499.7046"/>
<polygon fill="#191970" stroke="#191970" points="1803.0001,-499.6426 1799.5,-489.6427 1796.0001,-499.6427 1803.0001,-499.6426"/>
</g>
</g>
</svg>
