<?xml version="1.0" encoding="UTF-8" standalone="no"?>
<!DOCTYPE svg PUBLIC "-//W3C//DTD SVG 1.1//EN"
 "http://www.w3.org/Graphics/SVG/1.1/DTD/svg11.dtd">
<!-- Generated by graphviz version 2.40.1 (20161225.0304)
 -->
<!-- Title: /home/travis/build/AliceO2Group/AliceO2/Framework/Core/include/Framework/TableTreeHelpers.h Pages: 1 -->
<svg width="1536pt" height="150pt"
 viewBox="0.00 0.00 1536.00 150.00" xmlns="http://www.w3.org/2000/svg" xmlns:xlink="http://www.w3.org/1999/xlink">
<g id="graph0" class="graph" transform="scale(1 1) rotate(0) translate(4 146)">
<title>/home/travis/build/AliceO2Group/AliceO2/Framework/Core/include/Framework/TableTreeHelpers.h</title>
<!-- Node65 -->
<g id="node1" class="node">
<title>Node65</title>
<polygon fill="#bfbfbf" stroke="#000000" points="704,-89.5 704,-141.5 873,-141.5 873,-89.5 704,-89.5"/>
<text text-anchor="start" x="712" y="-129.5" font-family="Helvetica,sans-Serif" font-size="10.00" fill="#000000">/home/travis/build</text>
<text text-anchor="start" x="712" y="-118.5" font-family="Helvetica,sans-Serif" font-size="10.00" fill="#000000">/AliceO2Group/AliceO2</text>
<text text-anchor="start" x="712" y="-107.5" font-family="Helvetica,sans-Serif" font-size="10.00" fill="#000000">/Framework/Core/include</text>
<text text-anchor="middle" x="788.5" y="-96.5" font-family="Helvetica,sans-Serif" font-size="10.00" fill="#000000">/Framework/TableTreeHelpers.h</text>
</g>
<!-- Node66 -->
<g id="node2" class="node">
<title>Node66</title>
<g id="a_node2"><a xlink:href="../../d7/d23/StandaloneAODProducer_8cxx.html" target="_top" xlink:title="/home/travis/build\l/AliceO2Group/AliceO2\l/Detectors/AOD/src/Standalone\lAODProducer.cxx">
<polygon fill="none" stroke="#000000" points="0,-.5 0,-52.5 167,-52.5 167,-.5 0,-.5"/>
<text text-anchor="start" x="8" y="-40.5" font-family="Helvetica,sans-Serif" font-size="10.00" fill="#000000">/home/travis/build</text>
<text text-anchor="start" x="8" y="-29.5" font-family="Helvetica,sans-Serif" font-size="10.00" fill="#000000">/AliceO2Group/AliceO2</text>
<text text-anchor="start" x="8" y="-18.5" font-family="Helvetica,sans-Serif" font-size="10.00" fill="#000000">/Detectors/AOD/src/Standalone</text>
<text text-anchor="middle" x="83.5" y="-7.5" font-family="Helvetica,sans-Serif" font-size="10.00" fill="#000000">AODProducer.cxx</text>
</a>
</g>
</g>
<!-- Node65&#45;&gt;Node66 -->
<g id="edge1" class="edge">
<title>Node65&#45;&gt;Node66</title>
<path fill="none" stroke="#191970" d="M693.7847,-111.1042C572.6874,-104.2843 356.9572,-88.0915 175.5,-53 172.7257,-52.4635 169.9142,-51.8814 167.0826,-51.2621"/>
<polygon fill="#191970" stroke="#191970" points="693.5921,-114.5988 703.7704,-111.6574 693.9794,-107.6095 693.5921,-114.5988"/>
</g>
<!-- Node67 -->
<g id="node3" class="node">
<title>Node67</title>
<g id="a_node3"><a xlink:href="../../d4/dc5/AODReaderHelpers_8cxx.html" target="_top" xlink:title="/home/travis/build\l/AliceO2Group/AliceO2\l/Framework/Core/src/AODReader\lHelpers.cxx">
<polygon fill="none" stroke="#000000" points="185,-.5 185,-52.5 360,-52.5 360,-.5 185,-.5"/>
<text text-anchor="start" x="193" y="-40.5" font-family="Helvetica,sans-Serif" font-size="10.00" fill="#000000">/home/travis/build</text>
<text text-anchor="start" x="193" y="-29.5" font-family="Helvetica,sans-Serif" font-size="10.00" fill="#000000">/AliceO2Group/AliceO2</text>
<text text-anchor="start" x="193" y="-18.5" font-family="Helvetica,sans-Serif" font-size="10.00" fill="#000000">/Framework/Core/src/AODReader</text>
<text text-anchor="middle" x="272.5" y="-7.5" font-family="Helvetica,sans-Serif" font-size="10.00" fill="#000000">Helpers.cxx</text>
</a>
</g>
</g>
<!-- Node65&#45;&gt;Node67 -->
<g id="edge2" class="edge">
<title>Node65&#45;&gt;Node67</title>
<path fill="none" stroke="#191970" d="M693.9443,-104.7655C608.4347,-94.2687 479.3277,-76.4518 368.5,-53 365.709,-52.4094 362.8789,-51.7848 360.0264,-51.1332"/>
<polygon fill="#191970" stroke="#191970" points="693.5425,-108.2424 703.8924,-105.9778 694.3893,-101.2938 693.5425,-108.2424"/>
</g>
<!-- Node68 -->
<g id="node4" class="node">
<title>Node68</title>
<g id="a_node4"><a xlink:href="../../df/d93/CommonDataProcessors_8cxx.html" target="_top" xlink:title="/home/travis/build\l/AliceO2Group/AliceO2\l/Framework/Core/src/CommonData\lProcessors.cxx">
<polygon fill="none" stroke="#000000" points="378,-.5 378,-52.5 565,-52.5 565,-.5 378,-.5"/>
<text text-anchor="start" x="386" y="-40.5" font-family="Helvetica,sans-Serif" font-size="10.00" fill="#000000">/home/travis/build</text>
<text text-anchor="start" x="386" y="-29.5" font-family="Helvetica,sans-Serif" font-size="10.00" fill="#000000">/AliceO2Group/AliceO2</text>
<text text-anchor="start" x="386" y="-18.5" font-family="Helvetica,sans-Serif" font-size="10.00" fill="#000000">/Framework/Core/src/CommonData</text>
<text text-anchor="middle" x="471.5" y="-7.5" font-family="Helvetica,sans-Serif" font-size="10.00" fill="#000000">Processors.cxx</text>
</a>
</g>
</g>
<!-- Node65&#45;&gt;Node68 -->
<g id="edge3" class="edge">
<title>Node65&#45;&gt;Node68</title>
<path fill="none" stroke="#191970" d="M694.2212,-89.0306C653.1161,-77.49 605.0755,-64.0023 564.1559,-52.5138"/>
<polygon fill="#191970" stroke="#191970" points="693.3924,-92.4331 703.9662,-91.7665 695.2846,-85.6937 693.3924,-92.4331"/>
</g>
<!-- Node69 -->
<g id="node5" class="node">
<title>Node69</title>
<g id="a_node5"><a xlink:href="../../db/d9d/DataAllocator_8cxx.html" target="_top" xlink:title="/home/travis/build\l/AliceO2Group/AliceO2\l/Framework/Core/src/DataAllocator.cxx">
<polygon fill="none" stroke="#000000" points="583.5,-6 583.5,-47 789.5,-47 789.5,-6 583.5,-6"/>
<text text-anchor="start" x="591.5" y="-35" font-family="Helvetica,sans-Serif" font-size="10.00" fill="#000000">/home/travis/build</text>
<text text-anchor="start" x="591.5" y="-24" font-family="Helvetica,sans-Serif" font-size="10.00" fill="#000000">/AliceO2Group/AliceO2</text>
<text text-anchor="middle" x="686.5" y="-13" font-family="Helvetica,sans-Serif" font-size="10.00" fill="#000000">/Framework/Core/src/DataAllocator.cxx</text>
</a>
</g>
</g>
<!-- Node65&#45;&gt;Node69 -->
<g id="edge4" class="edge">
<title>Node65&#45;&gt;Node69</title>
<path fill="none" stroke="#191970" d="M750.6532,-82.4768C737.0989,-70.6501 722.2143,-57.6625 710.1974,-47.1771"/>
<polygon fill="#191970" stroke="#191970" points="748.6123,-85.341 758.4483,-89.2784 753.2145,-80.0666 748.6123,-85.341"/>
</g>
<!-- Node70 -->
<g id="node6" class="node">
<title>Node70</title>
<g id="a_node6"><a xlink:href="../../d1/d29/TableTreeHelpers_8cxx.html" target="_top" xlink:title="/home/travis/build\l/AliceO2Group/AliceO2\l/Framework/Core/src/TableTree\lHelpers.cxx">
<polygon fill="none" stroke="#000000" points="808,-.5 808,-52.5 973,-52.5 973,-.5 808,-.5"/>
<text text-anchor="start" x="816" y="-40.5" font-family="Helvetica,sans-Serif" font-size="10.00" fill="#000000">/home/travis/build</text>
<text text-anchor="start" x="816" y="-29.5" font-family="Helvetica,sans-Serif" font-size="10.00" fill="#000000">/AliceO2Group/AliceO2</text>
<text text-anchor="start" x="816" y="-18.5" font-family="Helvetica,sans-Serif" font-size="10.00" fill="#000000">/Framework/Core/src/TableTree</text>
<text text-anchor="middle" x="890.5" y="-7.5" font-family="Helvetica,sans-Serif" font-size="10.00" fill="#000000">Helpers.cxx</text>
</a>
</g>
</g>
<!-- Node65&#45;&gt;Node70 -->
<g id="edge5" class="edge">
<title>Node65&#45;&gt;Node70</title>
<path fill="none" stroke="#191970" d="M826.2337,-82.5755C837.5915,-72.6653 849.8927,-61.9319 860.6631,-52.5341"/>
<polygon fill="#191970" stroke="#191970" points="823.7855,-80.0666 818.5517,-89.2784 828.3877,-85.341 823.7855,-80.0666"/>
</g>
<!-- Node71 -->
<g id="node7" class="node">
<title>Node71</title>
<g id="a_node7"><a xlink:href="../../d9/dd7/benchmark__TableToTree_8cxx.html" target="_top" xlink:title="/home/travis/build\l/AliceO2Group/AliceO2\l/Framework/Core/test/benchmark\l_TableToTree.cxx">
<polygon fill="none" stroke="#000000" points="991,-.5 991,-52.5 1170,-52.5 1170,-.5 991,-.5"/>
<text text-anchor="start" x="999" y="-40.5" font-family="Helvetica,sans-Serif" font-size="10.00" fill="#000000">/home/travis/build</text>
<text text-anchor="start" x="999" y="-29.5" font-family="Helvetica,sans-Serif" font-size="10.00" fill="#000000">/AliceO2Group/AliceO2</text>
<text text-anchor="start" x="999" y="-18.5" font-family="Helvetica,sans-Serif" font-size="10.00" fill="#000000">/Framework/Core/test/benchmark</text>
<text text-anchor="middle" x="1080.5" y="-7.5" font-family="Helvetica,sans-Serif" font-size="10.00" fill="#000000">_TableToTree.cxx</text>
</a>
</g>
</g>
<!-- Node65&#45;&gt;Node71 -->
<g id="edge6" class="edge">
<title>Node65&#45;&gt;Node71</title>
<path fill="none" stroke="#191970" d="M883.3702,-86.5841C919.3708,-75.6113 960.1186,-63.1916 995.1848,-52.5036"/>
<polygon fill="#191970" stroke="#191970" points="881.8958,-83.3744 873.3507,-89.638 883.9367,-90.0703 881.8958,-83.3744"/>
</g>
<!-- Node72 -->
<g id="node8" class="node">
<title>Node72</title>
<g id="a_node8"><a xlink:href="../../dc/dc4/benchmark__TreeToTable_8cxx.html" target="_top" xlink:title="/home/travis/build\l/AliceO2Group/AliceO2\l/Framework/Core/test/benchmark\l_TreeToTable.cxx">
<polygon fill="none" stroke="#000000" points="1188,-.5 1188,-52.5 1367,-52.5 1367,-.5 1188,-.5"/>
<text text-anchor="start" x="1196" y="-40.5" font-family="Helvetica,sans-Serif" font-size="10.00" fill="#000000">/home/travis/build</text>
<text text-anchor="start" x="1196" y="-29.5" font-family="Helvetica,sans-Serif" font-size="10.00" fill="#000000">/AliceO2Group/AliceO2</text>
<text text-anchor="start" x="1196" y="-18.5" font-family="Helvetica,sans-Serif" font-size="10.00" fill="#000000">/Framework/Core/test/benchmark</text>
<text text-anchor="middle" x="1277.5" y="-7.5" font-family="Helvetica,sans-Serif" font-size="10.00" fill="#000000">_TreeToTable.cxx</text>
</a>
</g>
</g>
<!-- Node65&#45;&gt;Node72 -->
<g id="edge7" class="edge">
<title>Node65&#45;&gt;Node72</title>
<path fill="none" stroke="#191970" d="M883.2539,-103.2102C962.7619,-92.216 1079.1068,-74.5344 1179.5,-53 1182.2573,-52.4086 1185.0527,-51.7875 1187.8707,-51.1429"/>
<polygon fill="#191970" stroke="#191970" points="882.6888,-99.7548 873.2585,-104.5839 883.642,-106.6896 882.6888,-99.7548"/>
</g>
<!-- Node73 -->
<g id="node9" class="node">
<title>Node73</title>
<g id="a_node9"><a xlink:href="../../da/dae/test__TreeToTable_8cxx.html" target="_top" xlink:title="/home/travis/build\l/AliceO2Group/AliceO2\l/Framework/Core/test/test\l_TreeToTable.cxx">
<polygon fill="none" stroke="#000000" points="1385,-.5 1385,-52.5 1528,-52.5 1528,-.5 1385,-.5"/>
<text text-anchor="start" x="1393" y="-40.5" font-family="Helvetica,sans-Serif" font-size="10.00" fill="#000000">/home/travis/build</text>
<text text-anchor="start" x="1393" y="-29.5" font-family="Helvetica,sans-Serif" font-size="10.00" fill="#000000">/AliceO2Group/AliceO2</text>
<text text-anchor="start" x="1393" y="-18.5" font-family="Helvetica,sans-Serif" font-size="10.00" fill="#000000">/Framework/Core/test/test</text>
<text text-anchor="middle" x="1456.5" y="-7.5" font-family="Helvetica,sans-Serif" font-size="10.00" fill="#000000">_TreeToTable.cxx</text>
</a>
</g>
</g>
<!-- Node65&#45;&gt;Node73 -->
<g id="edge8" class="edge">
<title>Node65&#45;&gt;Node73</title>
<path fill="none" stroke="#191970" d="M883.1442,-111.6731C1000.1656,-105.5189 1204.9013,-90.0928 1376.5,-53 1379.2171,-52.4127 1381.9716,-51.7665 1384.743,-51.0736"/>
<polygon fill="#191970" stroke="#191970" points="882.9456,-108.1786 873.1387,-112.1879 883.3053,-115.1694 882.9456,-108.1786"/>
</g>
</g>
</svg>
