<?xml version="1.0" encoding="UTF-8" standalone="no"?>
<!DOCTYPE svg PUBLIC "-//W3C//DTD SVG 1.1//EN"
 "http://www.w3.org/Graphics/SVG/1.1/DTD/svg11.dtd">
<!-- Generated by graphviz version 2.40.1 (20161225.0304)
 -->
<!-- Title: /home/travis/build/AliceO2Group/AliceO2/Analysis/Core/include/Analysis/StepTHn.h Pages: 1 -->
<svg width="803pt" height="150pt"
 viewBox="0.00 0.00 803.00 150.00" xmlns="http://www.w3.org/2000/svg" xmlns:xlink="http://www.w3.org/1999/xlink">
<g id="graph0" class="graph" transform="scale(1 1) rotate(0) translate(4 146)">
<title>/home/travis/build/AliceO2Group/AliceO2/Analysis/Core/include/Analysis/StepTHn.h</title>
<!-- Node3 -->
<g id="node1" class="node">
<title>Node3</title>
<polygon fill="#bfbfbf" stroke="#000000" points="367,-89.5 367,-141.5 494,-141.5 494,-89.5 367,-89.5"/>
<text text-anchor="start" x="375" y="-129.5" font-family="Helvetica,sans-Serif" font-size="10.00" fill="#000000">/home/travis/build</text>
<text text-anchor="start" x="375" y="-118.5" font-family="Helvetica,sans-Serif" font-size="10.00" fill="#000000">/AliceO2Group/AliceO2</text>
<text text-anchor="start" x="375" y="-107.5" font-family="Helvetica,sans-Serif" font-size="10.00" fill="#000000">/Analysis/Core/include</text>
<text text-anchor="middle" x="430.5" y="-96.5" font-family="Helvetica,sans-Serif" font-size="10.00" fill="#000000">/Analysis/StepTHn.h</text>
</g>
<!-- Node4 -->
<g id="node2" class="node">
<title>Node4</title>
<g id="a_node2"><a xlink:href="../../dc/def/CorrelationContainer_8cxx.html" target="_top" xlink:title="/home/travis/build\l/AliceO2Group/AliceO2\l/Analysis/Core/src/Correlation\lContainer.cxx">
<polygon fill="none" stroke="#000000" points="0,-.5 0,-52.5 161,-52.5 161,-.5 0,-.5"/>
<text text-anchor="start" x="8" y="-40.5" font-family="Helvetica,sans-Serif" font-size="10.00" fill="#000000">/home/travis/build</text>
<text text-anchor="start" x="8" y="-29.5" font-family="Helvetica,sans-Serif" font-size="10.00" fill="#000000">/AliceO2Group/AliceO2</text>
<text text-anchor="start" x="8" y="-18.5" font-family="Helvetica,sans-Serif" font-size="10.00" fill="#000000">/Analysis/Core/src/Correlation</text>
<text text-anchor="middle" x="80.5" y="-7.5" font-family="Helvetica,sans-Serif" font-size="10.00" fill="#000000">Container.cxx</text>
</a>
</g>
</g>
<!-- Node3&#45;&gt;Node4 -->
<g id="edge1" class="edge">
<title>Node3&#45;&gt;Node4</title>
<path fill="none" stroke="#191970" d="M357.1178,-98.9011C304.9002,-86.8361 233.1763,-69.7491 170.5,-53 167.5101,-52.201 164.4683,-51.3747 161.3988,-50.5294"/>
<polygon fill="#191970" stroke="#191970" points="356.4327,-102.3349 366.9633,-101.1699 358.0046,-95.5137 356.4327,-102.3349"/>
</g>
<!-- Node5 -->
<g id="node3" class="node">
<title>Node5</title>
<g id="a_node3"><a xlink:href="../../d9/dae/StepTHn_8cxx.html" target="_top" xlink:title="/home/travis/build\l/AliceO2Group/AliceO2\l/Analysis/Core/src/StepTHn.cxx">
<polygon fill="none" stroke="#000000" points="179.5,-6 179.5,-47 347.5,-47 347.5,-6 179.5,-6"/>
<text text-anchor="start" x="187.5" y="-35" font-family="Helvetica,sans-Serif" font-size="10.00" fill="#000000">/home/travis/build</text>
<text text-anchor="start" x="187.5" y="-24" font-family="Helvetica,sans-Serif" font-size="10.00" fill="#000000">/AliceO2Group/AliceO2</text>
<text text-anchor="middle" x="263.5" y="-13" font-family="Helvetica,sans-Serif" font-size="10.00" fill="#000000">/Analysis/Core/src/StepTHn.cxx</text>
</a>
</g>
</g>
<!-- Node3&#45;&gt;Node5 -->
<g id="edge2" class="edge">
<title>Node3&#45;&gt;Node5</title>
<path fill="none" stroke="#191970" d="M372.2114,-84.436C348.9647,-72.0471 322.8411,-58.1249 302.0294,-47.0336"/>
<polygon fill="#191970" stroke="#191970" points="370.8266,-87.664 381.2977,-89.2784 374.1189,-81.4865 370.8266,-87.664"/>
</g>
<!-- Node6 -->
<g id="node4" class="node">
<title>Node6</title>
<g id="a_node4"><a xlink:href="../../d9/d61/correlations_8cxx.html" target="_top" xlink:title="/home/travis/build\l/AliceO2Group/AliceO2\l/Analysis/Tasks/PWGCF\l/correlations.cxx">
<polygon fill="none" stroke="#000000" points="366,-.5 366,-52.5 495,-52.5 495,-.5 366,-.5"/>
<text text-anchor="start" x="374" y="-40.5" font-family="Helvetica,sans-Serif" font-size="10.00" fill="#000000">/home/travis/build</text>
<text text-anchor="start" x="374" y="-29.5" font-family="Helvetica,sans-Serif" font-size="10.00" fill="#000000">/AliceO2Group/AliceO2</text>
<text text-anchor="start" x="374" y="-18.5" font-family="Helvetica,sans-Serif" font-size="10.00" fill="#000000">/Analysis/Tasks/PWGCF</text>
<text text-anchor="middle" x="430.5" y="-7.5" font-family="Helvetica,sans-Serif" font-size="10.00" fill="#000000">/correlations.cxx</text>
</a>
</g>
</g>
<!-- Node3&#45;&gt;Node6 -->
<g id="edge3" class="edge">
<title>Node3&#45;&gt;Node6</title>
<path fill="none" stroke="#191970" d="M430.5,-79.1155C430.5,-70.2061 430.5,-60.8475 430.5,-52.5341"/>
<polygon fill="#191970" stroke="#191970" points="427.0001,-79.2784 430.5,-89.2784 434.0001,-79.2785 427.0001,-79.2784"/>
</g>
<!-- Node7 -->
<g id="node5" class="node">
<title>Node7</title>
<g id="a_node5"><a xlink:href="../../d8/dc5/correlationsFiltered_8cxx.html" target="_top" xlink:title="/home/travis/build\l/AliceO2Group/AliceO2\l/Analysis/Tasks/PWGCF\l/correlationsFiltered.cxx">
<polygon fill="none" stroke="#000000" points="513.5,-.5 513.5,-52.5 647.5,-52.5 647.5,-.5 513.5,-.5"/>
<text text-anchor="start" x="521.5" y="-40.5" font-family="Helvetica,sans-Serif" font-size="10.00" fill="#000000">/home/travis/build</text>
<text text-anchor="start" x="521.5" y="-29.5" font-family="Helvetica,sans-Serif" font-size="10.00" fill="#000000">/AliceO2Group/AliceO2</text>
<text text-anchor="start" x="521.5" y="-18.5" font-family="Helvetica,sans-Serif" font-size="10.00" fill="#000000">/Analysis/Tasks/PWGCF</text>
<text text-anchor="middle" x="580.5" y="-7.5" font-family="Helvetica,sans-Serif" font-size="10.00" fill="#000000">/correlationsFiltered.cxx</text>
</a>
</g>
</g>
<!-- Node3&#45;&gt;Node7 -->
<g id="edge4" class="edge">
<title>Node3&#45;&gt;Node7</title>
<path fill="none" stroke="#191970" d="M483.5917,-83.9989C500.9487,-73.7004 520.0219,-62.3837 536.6222,-52.5341"/>
<polygon fill="#191970" stroke="#191970" points="481.5078,-81.1656 474.6936,-89.2784 485.0798,-87.1857 481.5078,-81.1656"/>
</g>
<!-- Node8 -->
<g id="node6" class="node">
<title>Node8</title>
<g id="a_node6"><a xlink:href="../../d4/d39/correlationsMixed_8cxx.html" target="_top" xlink:title="/home/travis/build\l/AliceO2Group/AliceO2\l/Analysis/Tasks/PWGCF\l/correlationsMixed.cxx">
<polygon fill="none" stroke="#000000" points="666,-.5 666,-52.5 795,-52.5 795,-.5 666,-.5"/>
<text text-anchor="start" x="674" y="-40.5" font-family="Helvetica,sans-Serif" font-size="10.00" fill="#000000">/home/travis/build</text>
<text text-anchor="start" x="674" y="-29.5" font-family="Helvetica,sans-Serif" font-size="10.00" fill="#000000">/AliceO2Group/AliceO2</text>
<text text-anchor="start" x="674" y="-18.5" font-family="Helvetica,sans-Serif" font-size="10.00" fill="#000000">/Analysis/Tasks/PWGCF</text>
<text text-anchor="middle" x="730.5" y="-7.5" font-family="Helvetica,sans-Serif" font-size="10.00" fill="#000000">/correlationsMixed.cxx</text>
</a>
</g>
</g>
<!-- Node3&#45;&gt;Node8 -->
<g id="edge5" class="edge">
<title>Node3&#45;&gt;Node8</title>
<path fill="none" stroke="#191970" d="M504.0278,-96.6417C548.421,-84.8904 605.9897,-69.0042 656.5,-53 659.492,-52.052 662.5437,-51.0604 665.6203,-50.0407"/>
<polygon fill="#191970" stroke="#191970" points="502.9675,-93.3015 494.1902,-99.2353 504.7521,-100.0703 502.9675,-93.3015"/>
</g>
</g>
</svg>
