<?xml version="1.0" encoding="UTF-8" standalone="no"?>
<!DOCTYPE svg PUBLIC "-//W3C//DTD SVG 1.1//EN"
 "http://www.w3.org/Graphics/SVG/1.1/DTD/svg11.dtd">
<!-- Generated by graphviz version 2.40.1 (20161225.0304)
 -->
<!-- Title: /home/travis/build/AliceO2Group/AliceO2/Framework/Core/src/ConfigParamStore.cxx Pages: 1 -->
<!--zoomable 363 -->
<svg id="main" version="1.1" xmlns="http://www.w3.org/2000/svg" xmlns:xlink="http://www.w3.org/1999/xlink" xml:space="preserve" onload="init(evt)">
<style type="text/css"><![CDATA[
.edge:hover path { stroke: red; }
.edge:hover polygon { stroke: red; fill: red; }
]]></style>
<script type="text/javascript"><![CDATA[
var edges = document.getElementsByTagName('g');
if (edges && edges.length) {
  for (var i=0;i<edges.length;i++) {
    if (edges[i].id.substr(0,4)=='edge') {
      edges[i].setAttribute('class','edge');
    }
  }
}
]]></script>
        <defs>
                <circle id="rim" cx="0" cy="0" r="7"/>
                <circle id="rim2" cx="0" cy="0" r="3.5"/>
                <g id="zoomPlus">
                        <use xlink:href="#rim" fill="#404040">
                                <set attributeName="fill" to="#808080" begin="zoomplus.mouseover" end="zoomplus.mouseout"/>
                        </use>
                        <path d="M-4,0h8M0,-4v8" fill="none" stroke="white" stroke-width="1.5" pointer-events="none"/>
                </g>
                <g id="zoomMin">
                        <use xlink:href="#rim" fill="#404040">
                                <set attributeName="fill" to="#808080" begin="zoomminus.mouseover" end="zoomminus.mouseout"/>
                        </use>
                        <path d="M-4,0h8" fill="none" stroke="white" stroke-width="1.5" pointer-events="none"/>
                </g>
                <g id="dirArrow">
                        <path fill="none" stroke="white" stroke-width="1.5" d="M0,-3.0v7 M-2.5,-0.5L0,-3.0L2.5,-0.5"/>
                </g>
               <g id="resetDef">
                       <use xlink:href="#rim2" fill="#404040">
                               <set attributeName="fill" to="#808080" begin="reset.mouseover" end="reset.mouseout"/>
                       </use>
               </g>
        </defs>

<script type="text/javascript">
var viewWidth = 887;
var viewHeight = 363;
var sectionId = 'dynsection-0';
</script>
<script xlink:href="../../svgpan.js"/>
<svg id="graph" class="graph">
<g id="viewport">
<title>/home/travis/build/AliceO2Group/AliceO2/Framework/Core/src/ConfigParamStore.cxx</title>
<!-- Node0 -->
<g id="node1" class="node">
<title>Node0</title>
<polygon fill="#bfbfbf" stroke="#000000" points="227,-302.5 227,-354.5 408,-354.5 408,-302.5 227,-302.5"/>
<text text-anchor="start" x="235" y="-342.5" font-family="Helvetica,sans-Serif" font-size="10.00" fill="#000000">/home/travis/build</text>
<text text-anchor="start" x="235" y="-331.5" font-family="Helvetica,sans-Serif" font-size="10.00" fill="#000000">/AliceO2Group/AliceO2</text>
<text text-anchor="start" x="235" y="-320.5" font-family="Helvetica,sans-Serif" font-size="10.00" fill="#000000">/Framework/Core/src/ConfigParam</text>
<text text-anchor="middle" x="317.5" y="-309.5" font-family="Helvetica,sans-Serif" font-size="10.00" fill="#000000">Store.cxx</text>
</g>
<!-- Node1 -->
<g id="node2" class="node">
<title>Node1</title>
<g id="a_node2"><a xlink:href="../../dd/daf/ConfigParamStore_8h.html" target="_top" xlink:title="Framework/ConfigParamStore.h">
<polygon fill="none" stroke="#000000" points="83.5,-246.5 83.5,-265.5 253.5,-265.5 253.5,-246.5 83.5,-246.5"/>
<text text-anchor="middle" x="168.5" y="-253.5" font-family="Helvetica,sans-Serif" font-size="10.00" fill="#000000">Framework/ConfigParamStore.h</text>
</a>
</g>
</g>
<!-- Node0&#45;&gt;Node1 -->
<g id="edge1" class="edge">
<title>Node0&#45;&gt;Node1</title>
<path fill="none" stroke="#191970" d="M263.7076,-302.3258C241.2765,-291.4114 216.1248,-279.1731 197.3084,-270.0175"/>
<polygon fill="#191970" stroke="#191970" points="198.6174,-266.7622 188.094,-265.534 195.5547,-273.0566 198.6174,-266.7622"/>
</g>
<!-- Node2 -->
<g id="node3" class="node">
<title>Node2</title>
<g id="a_node3"><a xlink:href="../../df/d72/ParamRetriever_8h.html" target="_top" xlink:title="Framework/ParamRetriever.h">
<polygon fill="none" stroke="#000000" points="85,-185 85,-204 242,-204 242,-185 85,-185"/>
<text text-anchor="middle" x="163.5" y="-192" font-family="Helvetica,sans-Serif" font-size="10.00" fill="#000000">Framework/ParamRetriever.h</text>
</a>
</g>
</g>
<!-- Node0&#45;&gt;Node2 -->
<g id="edge20" class="edge">
<title>Node0&#45;&gt;Node2</title>
<path fill="none" stroke="#191970" d="M304.4866,-302.1854C294.7832,-284.5978 280.1823,-261.8636 262.5,-246 244.1583,-229.5448 219.6051,-216.7283 199.5398,-207.9966"/>
<polygon fill="#191970" stroke="#191970" points="200.6727,-204.6765 190.097,-204.0402 197.9676,-211.1327 200.6727,-204.6765"/>
</g>
<!-- Node16 -->
<g id="node17" class="node">
<title>Node16</title>
<g id="a_node17"><a xlink:href="../../da/d3e/PropertyTreeHelpers_8h.html" target="_top" xlink:title="PropertyTreeHelpers.h">
<polygon fill="none" stroke="#000000" points="378,-246.5 378,-265.5 503,-265.5 503,-246.5 378,-246.5"/>
<text text-anchor="middle" x="440.5" y="-253.5" font-family="Helvetica,sans-Serif" font-size="10.00" fill="#000000">PropertyTreeHelpers.h</text>
</a>
</g>
</g>
<!-- Node0&#45;&gt;Node16 -->
<g id="edge21" class="edge">
<title>Node0&#45;&gt;Node16</title>
<path fill="none" stroke="#191970" d="M361.9058,-302.3258C379.9131,-291.7118 400.0444,-279.8458 415.4243,-270.7804"/>
<polygon fill="#191970" stroke="#191970" points="417.4875,-273.6271 424.3251,-265.534 413.933,-267.5967 417.4875,-273.6271"/>
</g>
<!-- Node17 -->
<g id="node18" class="node">
<title>Node17</title>
<polygon fill="none" stroke="#bfbfbf" points="299,-179.5 299,-209.5 412,-209.5 412,-179.5 299,-179.5"/>
<text text-anchor="start" x="307" y="-197.5" font-family="Helvetica,sans-Serif" font-size="10.00" fill="#000000">boost/property_tree</text>
<text text-anchor="middle" x="355.5" y="-186.5" font-family="Helvetica,sans-Serif" font-size="10.00" fill="#000000">/ptree.hpp</text>
</g>
<!-- Node0&#45;&gt;Node17 -->
<g id="edge26" class="edge">
<title>Node0&#45;&gt;Node17</title>
<path fill="none" stroke="#191970" d="M324.917,-302.3453C331.7279,-278.3278 341.7501,-242.9866 348.4444,-219.3804"/>
<polygon fill="#191970" stroke="#191970" points="351.8154,-220.3217 351.1765,-209.7461 345.0809,-218.4119 351.8154,-220.3217"/>
</g>
<!-- Node1&#45;&gt;Node2 -->
<g id="edge2" class="edge">
<title>Node1&#45;&gt;Node2</title>
<path fill="none" stroke="#191970" d="M167.7188,-246.3906C167.0257,-237.8657 165.991,-225.1392 165.1198,-214.4235"/>
<polygon fill="#191970" stroke="#191970" points="168.5912,-213.9283 164.2923,-204.2449 161.6142,-214.4956 168.5912,-213.9283"/>
</g>
<!-- Node3 -->
<g id="node4" class="node">
<title>Node3</title>
<g id="a_node4"><a xlink:href="../../d0/d1c/ConfigParamSpec_8h.html" target="_top" xlink:title="Framework/ConfigParamSpec.h">
<polygon fill="none" stroke="#000000" points="235,-118 235,-137 402,-137 402,-118 235,-118"/>
<text text-anchor="middle" x="318.5" y="-125" font-family="Helvetica,sans-Serif" font-size="10.00" fill="#000000">Framework/ConfigParamSpec.h</text>
</a>
</g>
</g>
<!-- Node1&#45;&gt;Node3 -->
<g id="edge18" class="edge">
<title>Node1&#45;&gt;Node3</title>
<path fill="none" stroke="#191970" d="M191.0915,-246.3758C208.6592,-238.2369 233.0628,-225.4474 251.5,-210 274.1424,-191.0293 294.6678,-163.5215 306.8689,-145.5734"/>
<polygon fill="#191970" stroke="#191970" points="309.8427,-147.422 312.4576,-137.1549 304.0108,-143.5504 309.8427,-147.422"/>
</g>
<!-- Node14 -->
<g id="node15" class="node">
<title>Node14</title>
<polygon fill="none" stroke="#bfbfbf" points="0,-112.5 0,-142.5 113,-142.5 113,-112.5 0,-112.5"/>
<text text-anchor="start" x="8" y="-130.5" font-family="Helvetica,sans-Serif" font-size="10.00" fill="#000000">boost/property_tree</text>
<text text-anchor="middle" x="56.5" y="-119.5" font-family="Helvetica,sans-Serif" font-size="10.00" fill="#000000">/ptree_fwd.hpp</text>
</g>
<!-- Node1&#45;&gt;Node14 -->
<g id="edge19" class="edge">
<title>Node1&#45;&gt;Node14</title>
<path fill="none" stroke="#191970" d="M133.1791,-246.4106C113.7388,-239.3808 90.7388,-227.8808 76.5,-210 63.5753,-193.7694 58.8175,-170.4405 57.1528,-152.7288"/>
<polygon fill="#191970" stroke="#191970" points="60.631,-152.2842 56.4708,-142.5404 53.6466,-152.7518 60.631,-152.2842"/>
</g>
<!-- Node2&#45;&gt;Node3 -->
<g id="edge3" class="edge">
<title>Node2&#45;&gt;Node3</title>
<path fill="none" stroke="#191970" d="M185.7077,-184.9005C212.2957,-173.4077 257.0002,-154.0838 287.1114,-141.068"/>
<polygon fill="#191970" stroke="#191970" points="288.5431,-144.2622 296.3335,-137.0817 285.7656,-137.8368 288.5431,-144.2622"/>
</g>
<!-- Node13 -->
<g id="node14" class="node">
<title>Node13</title>
<polygon fill="none" stroke="#bfbfbf" points="119.5,-.5 119.5,-19.5 163.5,-19.5 163.5,-.5 119.5,-.5"/>
<text text-anchor="middle" x="141.5" y="-7.5" font-family="Helvetica,sans-Serif" font-size="10.00" fill="#000000">string</text>
</g>
<!-- Node2&#45;&gt;Node13 -->
<g id="edge16" class="edge">
<title>Node2&#45;&gt;Node13</title>
<path fill="none" stroke="#191970" d="M162.3482,-184.8402C158.888,-155.8223 148.5363,-69.0088 143.8504,-29.7113"/>
<polygon fill="#191970" stroke="#191970" points="147.2999,-29.0793 142.6404,-19.5641 140.3492,-29.9082 147.2999,-29.0793"/>
</g>
<!-- Node2&#45;&gt;Node14 -->
<g id="edge15" class="edge">
<title>Node2&#45;&gt;Node14</title>
<path fill="none" stroke="#191970" d="M148.1695,-184.9005C132.8354,-175.2988 108.7723,-160.2313 89.1473,-147.9427"/>
<polygon fill="#191970" stroke="#191970" points="90.823,-144.8625 80.49,-142.5218 87.108,-150.7954 90.823,-144.8625"/>
</g>
<!-- Node15 -->
<g id="node16" class="node">
<title>Node15</title>
<polygon fill="none" stroke="#bfbfbf" points="170,-118 170,-137 217,-137 217,-118 170,-118"/>
<text text-anchor="middle" x="193.5" y="-125" font-family="Helvetica,sans-Serif" font-size="10.00" fill="#000000">vector</text>
</g>
<!-- Node2&#45;&gt;Node15 -->
<g id="edge17" class="edge">
<title>Node2&#45;&gt;Node15</title>
<path fill="none" stroke="#191970" d="M167.7983,-184.9005C172.2983,-174.8505 179.4796,-158.8122 185.1088,-146.2403"/>
<polygon fill="#191970" stroke="#191970" points="188.3174,-147.6389 189.2097,-137.0817 181.9286,-144.7782 188.3174,-147.6389"/>
</g>
<!-- Node4 -->
<g id="node5" class="node">
<title>Node4</title>
<g id="a_node5"><a xlink:href="../../de/d56/Variant_8h.html" target="_top" xlink:title="Framework/Variant.h">
<polygon fill="none" stroke="#000000" points="338,-56.5 338,-75.5 455,-75.5 455,-56.5 338,-56.5"/>
<text text-anchor="middle" x="396.5" y="-63.5" font-family="Helvetica,sans-Serif" font-size="10.00" fill="#000000">Framework/Variant.h</text>
</a>
</g>
</g>
<!-- Node3&#45;&gt;Node4 -->
<g id="edge4" class="edge">
<title>Node3&#45;&gt;Node4</title>
<path fill="none" stroke="#191970" d="M330.6875,-117.8906C342.937,-108.2324 362.0263,-93.1812 376.4977,-81.771"/>
<polygon fill="#191970" stroke="#191970" points="378.7124,-84.4819 384.3981,-75.5419 374.3783,-78.985 378.7124,-84.4819"/>
</g>
<!-- Node3&#45;&gt;Node13 -->
<g id="edge14" class="edge">
<title>Node3&#45;&gt;Node13</title>
<path fill="none" stroke="#191970" d="M304.0153,-117.8845C273.4176,-97.5724 201.9708,-50.1431 164.8398,-25.4939"/>
<polygon fill="#191970" stroke="#191970" points="166.4519,-22.3631 156.1848,-19.7484 162.5804,-28.1951 166.4519,-22.3631"/>
</g>
<!-- Node5 -->
<g id="node6" class="node">
<title>Node5</title>
<g id="a_node6"><a xlink:href="../../d1/d76/RuntimeError_8h.html" target="_top" xlink:title="Framework/RuntimeError.h">
<polygon fill="none" stroke="#000000" points="732.5,-.5 732.5,-19.5 878.5,-19.5 878.5,-.5 732.5,-.5"/>
<text text-anchor="middle" x="805.5" y="-7.5" font-family="Helvetica,sans-Serif" font-size="10.00" fill="#000000">Framework/RuntimeError.h</text>
</a>
</g>
</g>
<!-- Node4&#45;&gt;Node5 -->
<g id="edge5" class="edge">
<title>Node4&#45;&gt;Node5</title>
<path fill="none" stroke="#191970" d="M455.0997,-57.9766C526.2724,-48.2317 646.6421,-31.7507 726.0975,-20.8717"/>
<polygon fill="#191970" stroke="#191970" points="726.6281,-24.3318 736.0608,-19.5076 725.6785,-17.3965 726.6281,-24.3318"/>
</g>
<!-- Node6 -->
<g id="node7" class="node">
<title>Node6</title>
<polygon fill="none" stroke="#bfbfbf" points="182,-.5 182,-19.5 251,-19.5 251,-.5 182,-.5"/>
<text text-anchor="middle" x="216.5" y="-7.5" font-family="Helvetica,sans-Serif" font-size="10.00" fill="#000000">type_traits</text>
</g>
<!-- Node4&#45;&gt;Node6 -->
<g id="edge6" class="edge">
<title>Node4&#45;&gt;Node6</title>
<path fill="none" stroke="#191970" d="M365.5569,-56.3733C335.4961,-47.021 289.6974,-32.7725 256.8022,-22.5385"/>
<polygon fill="#191970" stroke="#191970" points="257.6277,-19.1299 247.0393,-19.5011 255.5481,-25.8139 257.6277,-19.1299"/>
</g>
<!-- Node7 -->
<g id="node8" class="node">
<title>Node7</title>
<polygon fill="none" stroke="#bfbfbf" points="269.5,-.5 269.5,-19.5 319.5,-19.5 319.5,-.5 269.5,-.5"/>
<text text-anchor="middle" x="294.5" y="-7.5" font-family="Helvetica,sans-Serif" font-size="10.00" fill="#000000">cstring</text>
</g>
<!-- Node4&#45;&gt;Node7 -->
<g id="edge7" class="edge">
<title>Node4&#45;&gt;Node7</title>
<path fill="none" stroke="#191970" d="M378.733,-56.2455C362.7905,-47.4928 339.1741,-34.527 321.0011,-24.5496"/>
<polygon fill="#191970" stroke="#191970" points="322.5137,-21.3873 312.0634,-19.6427 319.1448,-27.5233 322.5137,-21.3873"/>
</g>
<!-- Node8 -->
<g id="node9" class="node">
<title>Node8</title>
<polygon fill="none" stroke="#bfbfbf" points="337.5,-.5 337.5,-19.5 387.5,-19.5 387.5,-.5 337.5,-.5"/>
<text text-anchor="middle" x="362.5" y="-7.5" font-family="Helvetica,sans-Serif" font-size="10.00" fill="#000000">cstdint</text>
</g>
<!-- Node4&#45;&gt;Node8 -->
<g id="edge8" class="edge">
<title>Node4&#45;&gt;Node8</title>
<path fill="none" stroke="#191970" d="M390.5777,-56.2455C385.8973,-48.5367 379.2327,-37.5598 373.5711,-28.2348"/>
<polygon fill="#191970" stroke="#191970" points="376.5361,-26.3741 368.3545,-19.6427 370.5525,-30.007 376.5361,-26.3741"/>
</g>
<!-- Node9 -->
<g id="node10" class="node">
<title>Node9</title>
<polygon fill="none" stroke="#bfbfbf" points="406,-.5 406,-19.5 455,-19.5 455,-.5 406,-.5"/>
<text text-anchor="middle" x="430.5" y="-7.5" font-family="Helvetica,sans-Serif" font-size="10.00" fill="#000000">cstdlib</text>
</g>
<!-- Node4&#45;&gt;Node9 -->
<g id="edge9" class="edge">
<title>Node4&#45;&gt;Node9</title>
<path fill="none" stroke="#191970" d="M402.4223,-56.2455C407.1027,-48.5367 413.7673,-37.5598 419.4289,-28.2348"/>
<polygon fill="#191970" stroke="#191970" points="422.4475,-30.007 424.6455,-19.6427 416.4639,-26.3741 422.4475,-30.007"/>
</g>
<!-- Node10 -->
<g id="node11" class="node">
<title>Node10</title>
<polygon fill="none" stroke="#bfbfbf" points="473,-.5 473,-19.5 522,-19.5 522,-.5 473,-.5"/>
<text text-anchor="middle" x="497.5" y="-7.5" font-family="Helvetica,sans-Serif" font-size="10.00" fill="#000000">iosfwd</text>
</g>
<!-- Node4&#45;&gt;Node10 -->
<g id="edge10" class="edge">
<title>Node4&#45;&gt;Node10</title>
<path fill="none" stroke="#191970" d="M414.0929,-56.2455C429.879,-47.4928 453.2639,-34.527 471.2587,-24.5496"/>
<polygon fill="#191970" stroke="#191970" points="473.0603,-27.5528 480.1087,-19.6427 469.6659,-21.4308 473.0603,-27.5528"/>
</g>
<!-- Node11 -->
<g id="node12" class="node">
<title>Node11</title>
<polygon fill="none" stroke="#bfbfbf" points="540,-.5 540,-19.5 623,-19.5 623,-.5 540,-.5"/>
<text text-anchor="middle" x="581.5" y="-7.5" font-family="Helvetica,sans-Serif" font-size="10.00" fill="#000000">initializer_list</text>
</g>
<!-- Node4&#45;&gt;Node11 -->
<g id="edge11" class="edge">
<title>Node4&#45;&gt;Node11</title>
<path fill="none" stroke="#191970" d="M428.3026,-56.3733C459.3317,-46.9807 506.6754,-32.6496 540.5147,-22.4064"/>
<polygon fill="#191970" stroke="#191970" points="541.5553,-25.7483 550.1124,-19.5011 539.5272,-19.0485 541.5553,-25.7483"/>
</g>
<!-- Node12 -->
<g id="node13" class="node">
<title>Node12</title>
<polygon fill="none" stroke="#bfbfbf" points="641,-.5 641,-19.5 714,-19.5 714,-.5 641,-.5"/>
<text text-anchor="middle" x="677.5" y="-7.5" font-family="Helvetica,sans-Serif" font-size="10.00" fill="#000000">string_view</text>
</g>
<!-- Node4&#45;&gt;Node12 -->
<g id="edge12" class="edge">
<title>Node4&#45;&gt;Node12</title>
<path fill="none" stroke="#191970" d="M447.6781,-56.4247C493.29,-47.8004 562.1289,-34.564 630.5854,-20.3659"/>
<polygon fill="#191970" stroke="#191970" points="631.6032,-23.7291 640.68,-18.2645 630.1765,-16.876 631.6032,-23.7291"/>
</g>
<!-- Node4&#45;&gt;Node13 -->
<g id="edge13" class="edge">
<title>Node4&#45;&gt;Node13</title>
<path fill="none" stroke="#191970" d="M342.5346,-56.4255C297.1555,-48.0032 230.7143,-34.8016 173.5,-20 173.4014,-19.9745 173.3026,-19.9489 173.2037,-19.9231"/>
<polygon fill="#191970" stroke="#191970" points="174.3722,-16.616 163.7981,-17.279 172.4777,-23.3548 174.3722,-16.616"/>
</g>
<!-- Node16&#45;&gt;Node3 -->
<g id="edge22" class="edge">
<title>Node16&#45;&gt;Node3</title>
<path fill="none" stroke="#191970" d="M440.6028,-246.3635C440.277,-230.5862 437.4945,-199.0016 421.5,-179 406.9484,-160.8028 384.2992,-148.5006 363.9411,-140.4975"/>
<polygon fill="#191970" stroke="#191970" points="365.0758,-137.1856 354.4824,-137.0123 362.6556,-143.754 365.0758,-137.1856"/>
</g>
<!-- Node16&#45;&gt;Node17 -->
<g id="edge23" class="edge">
<title>Node16&#45;&gt;Node17</title>
<path fill="none" stroke="#191970" d="M427.2188,-246.3906C415.8216,-238.1444 398.9908,-225.9669 384.4977,-215.4807"/>
<polygon fill="#191970" stroke="#191970" points="386.4468,-212.5709 376.2933,-209.5446 382.3435,-218.2421 386.4468,-212.5709"/>
</g>
<!-- Node18 -->
<g id="node19" class="node">
<title>Node18</title>
<polygon fill="none" stroke="#bfbfbf" points="469,-179.5 469,-209.5 598,-209.5 598,-179.5 469,-179.5"/>
<text text-anchor="start" x="477" y="-197.5" font-family="Helvetica,sans-Serif" font-size="10.00" fill="#000000">boost/program_options</text>
<text text-anchor="middle" x="533.5" y="-186.5" font-family="Helvetica,sans-Serif" font-size="10.00" fill="#000000">/variables_map.hpp</text>
</g>
<!-- Node16&#45;&gt;Node18 -->
<g id="edge24" class="edge">
<title>Node16&#45;&gt;Node18</title>
<path fill="none" stroke="#191970" d="M455.0313,-246.3906C467.6177,-238.0673 486.2607,-225.7389 502.217,-215.1872"/>
<polygon fill="#191970" stroke="#191970" points="504.3391,-217.98 510.7496,-209.5446 500.4779,-212.1411 504.3391,-217.98"/>
</g>
<!-- Node19 -->
<g id="node20" class="node">
<title>Node19</title>
<polygon fill="none" stroke="#bfbfbf" points="616,-185 616,-204 681,-204 681,-185 616,-185"/>
<text text-anchor="middle" x="648.5" y="-192" font-family="Helvetica,sans-Serif" font-size="10.00" fill="#000000">functional</text>
</g>
<!-- Node16&#45;&gt;Node19 -->
<g id="edge25" class="edge">
<title>Node16&#45;&gt;Node19</title>
<path fill="none" stroke="#191970" d="M478.9377,-246.4927C512.9809,-237.8165 563.8971,-224.2134 607.5,-210 609.9057,-209.2158 612.378,-208.3739 614.8593,-207.5024"/>
<polygon fill="#191970" stroke="#191970" points="616.1465,-210.7586 624.3504,-204.0544 613.7563,-204.1793 616.1465,-210.7586"/>
</g>
</g>
</svg>
        <g id="navigator" transform="translate(0 0)" fill="#404254">
                <rect fill="#f2f5e9" fill-opacity="0.5" stroke="#606060" stroke-width=".5" x="0" y="0" width="60" height="60"/>
                <use id="zoomplus" xlink:href="#zoomPlus" x="17" y="9" onmousedown="handleZoom(evt,'in')"/>
                <use id="zoomminus" xlink:href="#zoomMin" x="42" y="9" onmousedown="handleZoom(evt,'out')"/>
                <use id="reset" xlink:href="#resetDef" x="30" y="36" onmousedown="handleReset()"/>
                <g id="arrowUp" xlink:href="#dirArrow" transform="translate(30 24)" onmousedown="handlePan(0,-1)">
                  <use xlink:href="#rim" fill="#404040">
                        <set attributeName="fill" to="#808080" begin="arrowUp.mouseover" end="arrowUp.mouseout"/>
                  </use>
                  <path fill="none" stroke="white" stroke-width="1.5" d="M0,-3.0v7 M-2.5,-0.5L0,-3.0L2.5,-0.5"/>
                </g>
                <g id="arrowRight" xlink:href="#dirArrow" transform="rotate(90) translate(36 -43)" onmousedown="handlePan(1,0)">
                  <use xlink:href="#rim" fill="#404040">
                        <set attributeName="fill" to="#808080" begin="arrowRight.mouseover" end="arrowRight.mouseout"/>
                  </use>
                  <path fill="none" stroke="white" stroke-width="1.5" d="M0,-3.0v7 M-2.5,-0.5L0,-3.0L2.5,-0.5"/>
                </g>
                <g id="arrowDown" xlink:href="#dirArrow" transform="rotate(180) translate(-30 -48)" onmousedown="handlePan(0,1)">
                  <use xlink:href="#rim" fill="#404040">
                        <set attributeName="fill" to="#808080" begin="arrowDown.mouseover" end="arrowDown.mouseout"/>
                  </use>
                  <path fill="none" stroke="white" stroke-width="1.5" d="M0,-3.0v7 M-2.5,-0.5L0,-3.0L2.5,-0.5"/>
                </g>
                <g id="arrowLeft" xlink:href="#dirArrow" transform="rotate(270) translate(-36 17)" onmousedown="handlePan(-1,0)">
                  <use xlink:href="#rim" fill="#404040">
                        <set attributeName="fill" to="#808080" begin="arrowLeft.mouseover" end="arrowLeft.mouseout"/>
                  </use>
                  <path fill="none" stroke="white" stroke-width="1.5" d="M0,-3.0v7 M-2.5,-0.5L0,-3.0L2.5,-0.5"/>
                </g>
        </g>
        <svg viewBox="0 0 15 15" width="100%" height="30px" preserveAspectRatio="xMaxYMin meet">
         <g id="arrow_out" transform="scale(0.3 0.3)">
          <a xlink:href="ConfigParamStore_8cxx__incl_org.svg" target="_base">
           <rect id="button" ry="5" rx="5" y="6" x="6" height="38" width="38"
                fill="#f2f5e9" fill-opacity="0.5" stroke="#606060" stroke-width="1.0"/>
           <path id="arrow"
             d="M 11.500037,31.436501 C 11.940474,20.09759 22.043105,11.32322 32.158766,21.979434 L 37.068811,17.246167 C 37.068811,17.246167 37.088388,32 37.088388,32 L 22.160133,31.978069 C 22.160133,31.978069 26.997745,27.140456 26.997745,27.140456 C 18.528582,18.264221 13.291696,25.230495 11.500037,31.436501 z"
             style="fill:#404040;"/>
          </a>
         </g>
        </svg>
</svg>
