<?xml version="1.0" encoding="UTF-8" standalone="no"?>
<!DOCTYPE svg PUBLIC "-//W3C//DTD SVG 1.1//EN"
 "http://www.w3.org/Graphics/SVG/1.1/DTD/svg11.dtd">
<!-- Generated by graphviz version 2.40.1 (20161225.0304)
 -->
<!-- Title: /home/travis/build/AliceO2Group/AliceO2/Detectors/ITSMFT/ITS/reconstruction/include/ITSReconstruction/CookedTracker.h Pages: 1 -->
<svg width="3993pt" height="776pt"
 viewBox="0.00 0.00 3992.61 776.00" xmlns="http://www.w3.org/2000/svg" xmlns:xlink="http://www.w3.org/1999/xlink">
<g id="graph0" class="graph" transform="scale(1 1) rotate(0) translate(4 772)">
<title>/home/travis/build/AliceO2Group/AliceO2/Detectors/ITSMFT/ITS/reconstruction/include/ITSReconstruction/CookedTracker.h</title>
<!-- Node0 -->
<g id="node1" class="node">
<title>Node0</title>
<polygon fill="#bfbfbf" stroke="#000000" points="2502.1077,-704.5 2502.1077,-767.5 2692.1077,-767.5 2692.1077,-704.5 2502.1077,-704.5"/>
<text text-anchor="start" x="2510.1077" y="-755.5" font-family="Helvetica,sans-Serif" font-size="10.00" fill="#000000">/home/travis/build</text>
<text text-anchor="start" x="2510.1077" y="-744.5" font-family="Helvetica,sans-Serif" font-size="10.00" fill="#000000">/AliceO2Group/AliceO2</text>
<text text-anchor="start" x="2510.1077" y="-733.5" font-family="Helvetica,sans-Serif" font-size="10.00" fill="#000000">/Detectors/ITSMFT/ITS</text>
<text text-anchor="start" x="2510.1077" y="-722.5" font-family="Helvetica,sans-Serif" font-size="10.00" fill="#000000">/reconstruction/include</text>
<text text-anchor="middle" x="2597.1077" y="-711.5" font-family="Helvetica,sans-Serif" font-size="10.00" fill="#000000">/ITSReconstruction/CookedTracker.h</text>
</g>
<!-- Node1 -->
<g id="node2" class="node">
<title>Node1</title>
<polygon fill="none" stroke="#bfbfbf" points="2356.6077,-252 2356.6077,-271 2403.6077,-271 2403.6077,-252 2356.6077,-252"/>
<text text-anchor="middle" x="2380.1077" y="-259" font-family="Helvetica,sans-Serif" font-size="10.00" fill="#000000">vector</text>
</g>
<!-- Node0&#45;&gt;Node1 -->
<g id="edge1" class="edge">
<title>Node0&#45;&gt;Node1</title>
<path fill="none" stroke="#191970" d="M2501.9386,-712.0191C2446.3753,-691.6766 2387.1077,-656.0263 2387.1077,-596.5 2387.1077,-596.5 2387.1077,-596.5 2387.1077,-395.5 2387.1077,-354.9147 2383.8657,-307.509 2381.7944,-281.3626"/>
<polygon fill="#191970" stroke="#191970" points="2385.2703,-280.9237 2380.966,-271.2426 2378.2936,-281.4949 2385.2703,-280.9237"/>
</g>
<!-- Node2 -->
<g id="node3" class="node">
<title>Node2</title>
<polygon fill="none" stroke="#bfbfbf" points="3943.6077,-648.5 3943.6077,-667.5 3984.6077,-667.5 3984.6077,-648.5 3943.6077,-648.5"/>
<text text-anchor="middle" x="3964.1077" y="-655.5" font-family="Helvetica,sans-Serif" font-size="10.00" fill="#000000">tuple</text>
</g>
<!-- Node0&#45;&gt;Node2 -->
<g id="edge2" class="edge">
<title>Node0&#45;&gt;Node2</title>
<path fill="none" stroke="#191970" d="M2692.1206,-733.9541C2955.419,-727.8381 3690.6949,-707.6141 3929.1077,-668 3930.5883,-667.754 3932.0954,-667.4676 3933.6114,-667.1503"/>
<polygon fill="#191970" stroke="#191970" points="3934.6785,-670.4924 3943.5573,-664.7117 3933.0115,-663.6938 3934.6785,-670.4924"/>
</g>
<!-- Node3 -->
<g id="node4" class="node">
<title>Node3</title>
<g id="a_node4"><a xlink:href="../../d9/dfb/ITSMFT_2ITS_2base_2include_2ITSBase_2GeometryTGeo_8h.html" target="_top" xlink:title="ITSBase/GeometryTGeo.h">
<polygon fill="none" stroke="#000000" points="1277.1077,-453 1277.1077,-472 1419.1077,-472 1419.1077,-453 1277.1077,-453"/>
<text text-anchor="middle" x="1348.1077" y="-460" font-family="Helvetica,sans-Serif" font-size="10.00" fill="#000000">ITSBase/GeometryTGeo.h</text>
</a>
</g>
</g>
<!-- Node0&#45;&gt;Node3 -->
<g id="edge3" class="edge">
<title>Node0&#45;&gt;Node3</title>
<path fill="none" stroke="#191970" d="M2501.8428,-716.9724C2435.4233,-703.5876 2344.7835,-685.0857 2265.1077,-668 1934.7855,-597.1655 1538.8809,-506.4721 1399.6025,-474.3897"/>
<polygon fill="#191970" stroke="#191970" points="1400.164,-470.9274 1389.6334,-472.0925 1398.5921,-477.7487 1400.164,-470.9274"/>
</g>
<!-- Node37 -->
<g id="node38" class="node">
<title>Node37</title>
<g id="a_node38"><a xlink:href="../../dd/d76/Cartesian3D_8h.html" target="_top" xlink:title="MathUtils/Cartesian3D.h">
<polygon fill="none" stroke="#000000" points="2164.6077,-252 2164.6077,-271 2299.6077,-271 2299.6077,-252 2164.6077,-252"/>
<text text-anchor="middle" x="2232.1077" y="-259" font-family="Helvetica,sans-Serif" font-size="10.00" fill="#000000">MathUtils/Cartesian3D.h</text>
</a>
</g>
</g>
<!-- Node0&#45;&gt;Node37 -->
<g id="edge81" class="edge">
<title>Node0&#45;&gt;Node37</title>
<path fill="none" stroke="#191970" d="M2501.6972,-713.5984C2408.0283,-688.7536 2279.1077,-645.6338 2279.1077,-596.5 2279.1077,-596.5 2279.1077,-596.5 2279.1077,-462.5 2279.1077,-394.2975 2253.1329,-316.4158 2239.803,-280.9386"/>
<polygon fill="#191970" stroke="#191970" points="2242.9709,-279.4249 2236.1149,-271.3474 2236.4373,-281.9374 2242.9709,-279.4249"/>
</g>
<!-- Node56 -->
<g id="node57" class="node">
<title>Node56</title>
<g id="a_node57"><a xlink:href="../../d1/d62/DataFormats_2Detectors_2ITSMFT_2common_2include_2DataFormatsITSMFT_2Cluster_8h.html" target="_top" xlink:title="DataFormatsITSMFT/Cluster.h">
<polygon fill="none" stroke="#000000" points="2596.1077,-587 2596.1077,-606 2756.1077,-606 2756.1077,-587 2596.1077,-587"/>
<text text-anchor="middle" x="2676.1077" y="-594" font-family="Helvetica,sans-Serif" font-size="10.00" fill="#000000">DataFormatsITSMFT/Cluster.h</text>
</a>
</g>
</g>
<!-- Node0&#45;&gt;Node56 -->
<g id="edge82" class="edge">
<title>Node0&#45;&gt;Node56</title>
<path fill="none" stroke="#191970" d="M2615.034,-704.3453C2630.5791,-676.8955 2652.5546,-638.0907 2665.4688,-615.2865"/>
<polygon fill="#191970" stroke="#191970" points="2668.6742,-616.7287 2670.5565,-606.3024 2662.5831,-613.2793 2668.6742,-616.7287"/>
</g>
<!-- Node60 -->
<g id="node61" class="node">
<title>Node60</title>
<g id="a_node61"><a xlink:href="../../d1/d71/TrackITS_8h.html" target="_top" xlink:title="Definition of the ITS track. ">
<polygon fill="none" stroke="#000000" points="2804.6077,-648.5 2804.6077,-667.5 2951.6077,-667.5 2951.6077,-648.5 2804.6077,-648.5"/>
<text text-anchor="middle" x="2878.1077" y="-655.5" font-family="Helvetica,sans-Serif" font-size="10.00" fill="#000000">DataFormatsITS/TrackITS.h</text>
</a>
</g>
</g>
<!-- Node0&#45;&gt;Node60 -->
<g id="edge91" class="edge">
<title>Node0&#45;&gt;Node60</title>
<path fill="none" stroke="#191970" d="M2692.2415,-709.5928C2740.1814,-696.2856 2796.0152,-680.7873 2833.8793,-670.2769"/>
<polygon fill="#191970" stroke="#191970" points="2834.8817,-673.6311 2843.5812,-667.5839 2833.0094,-666.8861 2834.8817,-673.6311"/>
</g>
<!-- Node71 -->
<g id="node72" class="node">
<title>Node71</title>
<g id="a_node72"><a xlink:href="../../d0/dc6/ITSMFT_2common_2include_2DataFormatsITSMFT_2ROFRecord_8h.html" target="_top" xlink:title="DataFormatsITSMFT/ROFRecord.h">
<polygon fill="none" stroke="#000000" points="3469.6077,-319 3469.6077,-338 3648.6077,-338 3648.6077,-319 3469.6077,-319"/>
<text text-anchor="middle" x="3559.1077" y="-326" font-family="Helvetica,sans-Serif" font-size="10.00" fill="#000000">DataFormatsITSMFT/ROFRecord.h</text>
</a>
</g>
</g>
<!-- Node0&#45;&gt;Node71 -->
<g id="edge122" class="edge">
<title>Node0&#45;&gt;Node71</title>
<path fill="none" stroke="#191970" d="M2692.16,-730.923C2994.6384,-714.1451 3915.1077,-658.0331 3915.1077,-596.5 3915.1077,-596.5 3915.1077,-596.5 3915.1077,-462.5 3915.1077,-399.9576 3858.2638,-405.3917 3801.1077,-380 3755.4887,-359.7337 3701.4183,-347.2545 3655.9701,-339.6689"/>
<polygon fill="#191970" stroke="#191970" points="3656.2435,-336.1678 3645.8137,-338.0305 3655.1286,-343.0784 3656.2435,-336.1678"/>
</g>
<!-- Node75 -->
<g id="node76" class="node">
<title>Node75</title>
<g id="a_node76"><a xlink:href="../../d3/d6f/DataFormats_2Reconstruction_2include_2ReconstructionDataFormats_2Vertex_8h.html" target="_top" xlink:title="ReconstructionDataFormats\l/Vertex.h">
<polygon fill="none" stroke="#000000" points="2460.1077,-313.5 2460.1077,-343.5 2612.1077,-343.5 2612.1077,-313.5 2460.1077,-313.5"/>
<text text-anchor="start" x="2468.1077" y="-331.5" font-family="Helvetica,sans-Serif" font-size="10.00" fill="#000000">ReconstructionDataFormats</text>
<text text-anchor="middle" x="2536.1077" y="-320.5" font-family="Helvetica,sans-Serif" font-size="10.00" fill="#000000">/Vertex.h</text>
</a>
</g>
</g>
<!-- Node0&#45;&gt;Node75 -->
<g id="edge131" class="edge">
<title>Node0&#45;&gt;Node75</title>
<path fill="none" stroke="#191970" d="M2577.1535,-704.3655C2561.7709,-676.9278 2543.1077,-635.5848 2543.1077,-596.5 2543.1077,-596.5 2543.1077,-596.5 2543.1077,-462.5 2543.1077,-424.6219 2540.2838,-380.8029 2538.2232,-353.8702"/>
<polygon fill="#191970" stroke="#191970" points="2541.7012,-353.4526 2537.4243,-343.7594 2534.723,-354.004 2541.7012,-353.4526"/>
</g>
<!-- Node3&#45;&gt;Node1 -->
<g id="edge8" class="edge">
<title>Node3&#45;&gt;Node1</title>
<path fill="none" stroke="#191970" d="M1402.5935,-452.9801C1515.1013,-433.2513 1781.2358,-386.216 2004.1077,-344 2154.5773,-315.4983 2195.4228,-321.0109 2342.1077,-277 2344.4109,-276.3089 2346.7673,-275.5307 2349.1228,-274.7003"/>
<polygon fill="#191970" stroke="#191970" points="2350.5536,-277.901 2358.6626,-271.0823 2348.0713,-271.3559 2350.5536,-277.901"/>
</g>
<!-- Node4 -->
<g id="node5" class="node">
<title>Node4</title>
<polygon fill="none" stroke="#bfbfbf" points="1542.1077,-185 1542.1077,-204 1624.1077,-204 1624.1077,-185 1542.1077,-185"/>
<text text-anchor="middle" x="1583.1077" y="-192" font-family="Helvetica,sans-Serif" font-size="10.00" fill="#000000">TGeoMatrix.h</text>
</g>
<!-- Node3&#45;&gt;Node4 -->
<g id="edge4" class="edge">
<title>Node3&#45;&gt;Node4</title>
<path fill="none" stroke="#191970" d="M1314.9667,-452.9505C1294.6612,-445.1956 1270.2998,-432.0236 1258.1077,-411 1233.5777,-368.7012 1266.2824,-338.329 1308.1077,-313 1394.3579,-260.7677 1448.2224,-332.9515 1532.1077,-277 1554.8015,-261.8633 1569.1965,-232.8467 1576.7081,-213.5785"/>
<polygon fill="#191970" stroke="#191970" points="1580.0532,-214.621 1580.182,-204.0269 1573.4748,-212.2283 1580.0532,-214.621"/>
</g>
<!-- Node5 -->
<g id="node6" class="node">
<title>Node5</title>
<polygon fill="none" stroke="#bfbfbf" points="1015.6077,-252 1015.6077,-271 1078.6077,-271 1078.6077,-252 1015.6077,-252"/>
<text text-anchor="middle" x="1047.1077" y="-259" font-family="Helvetica,sans-Serif" font-size="10.00" fill="#000000">TObject.h</text>
</g>
<!-- Node3&#45;&gt;Node5 -->
<g id="edge5" class="edge">
<title>Node3&#45;&gt;Node5</title>
<path fill="none" stroke="#191970" d="M1306.6761,-452.9744C1276.2419,-444.8021 1234.6955,-431.1247 1202.1077,-411 1142.1767,-373.9895 1086.507,-310.4827 1061.2861,-279.5248"/>
<polygon fill="#191970" stroke="#191970" points="1063.7235,-276.9702 1054.7326,-271.3654 1058.2659,-281.3537 1063.7235,-276.9702"/>
</g>
<!-- Node6 -->
<g id="node7" class="node">
<title>Node6</title>
<polygon fill="none" stroke="#bfbfbf" points="2907.1077,-118 2907.1077,-137 2949.1077,-137 2949.1077,-118 2907.1077,-118"/>
<text text-anchor="middle" x="2928.1077" y="-125" font-family="Helvetica,sans-Serif" font-size="10.00" fill="#000000">array</text>
</g>
<!-- Node3&#45;&gt;Node6 -->
<g id="edge6" class="edge">
<title>Node3&#45;&gt;Node6</title>
<path fill="none" stroke="#191970" d="M1391.3688,-452.9422C1413.9274,-445.5254 1439.5749,-432.7104 1453.1077,-411 1471.5794,-381.3662 1425.7305,-313.9582 1425.1077,-313 1413.1143,-294.5473 1399.2385,-297.4508 1391.1077,-277 1375.0161,-236.526 1360.6793,-210.164 1391.1077,-179 1449.6138,-119.0796 2816.9731,-163.7506 2898.1077,-143 2899.8258,-142.5606 2901.5567,-142.0086 2903.2735,-141.3768"/>
<polygon fill="#191970" stroke="#191970" points="2905.0757,-144.4041 2912.7628,-137.113 2902.2068,-138.019 2905.0757,-144.4041"/>
</g>
<!-- Node7 -->
<g id="node8" class="node">
<title>Node7</title>
<polygon fill="none" stroke="#bfbfbf" points="1203.1077,-118 1203.1077,-137 1247.1077,-137 1247.1077,-118 1203.1077,-118"/>
<text text-anchor="middle" x="1225.1077" y="-125" font-family="Helvetica,sans-Serif" font-size="10.00" fill="#000000">string</text>
</g>
<!-- Node3&#45;&gt;Node7 -->
<g id="edge7" class="edge">
<title>Node3&#45;&gt;Node7</title>
<path fill="none" stroke="#191970" d="M1276.8715,-458.581C1012.9626,-443.5989 106.1077,-387.8021 106.1077,-328.5 106.1077,-328.5 106.1077,-328.5 106.1077,-261.5 106.1077,-231.5671 -285.0805,-279.6251 444.1077,-179 609.3999,-156.1903 1032.6788,-185.2193 1194.1077,-143 1196.0288,-142.4976 1197.9697,-141.8671 1199.8934,-141.15"/>
<polygon fill="#191970" stroke="#191970" points="1201.4685,-144.2804 1209.1972,-137.0335 1198.6362,-137.879 1201.4685,-144.2804"/>
</g>
<!-- Node8 -->
<g id="node9" class="node">
<title>Node8</title>
<g id="a_node9"><a xlink:href="../../db/dcc/Detectors_2Base_2include_2DetectorsBase_2GeometryManager_8h.html" target="_top" xlink:title="DetectorsBase/GeometryManager.h">
<polygon fill="none" stroke="#000000" points="632.1077,-319 632.1077,-338 822.1077,-338 822.1077,-319 632.1077,-319"/>
<text text-anchor="middle" x="727.1077" y="-326" font-family="Helvetica,sans-Serif" font-size="10.00" fill="#000000">DetectorsBase/GeometryManager.h</text>
</a>
</g>
</g>
<!-- Node3&#45;&gt;Node8 -->
<g id="edge9" class="edge">
<title>Node3&#45;&gt;Node8</title>
<path fill="none" stroke="#191970" d="M1297.6893,-452.9643C1245.2427,-442.9394 1160.789,-426.4998 1088.1077,-411 976.6411,-387.229 846.4346,-356.8171 776.8984,-340.3617"/>
<polygon fill="#191970" stroke="#191970" points="777.6262,-336.9373 767.0886,-338.0376 776.0123,-343.7488 777.6262,-336.9373"/>
</g>
<!-- Node15 -->
<g id="node16" class="node">
<title>Node15</title>
<g id="a_node16"><a xlink:href="../../d6/d31/DetID_8h.html" target="_top" xlink:title="DetectorsCommonDataFormats\l/DetID.h">
<polygon fill="none" stroke="#000000" points="1096.6077,-246.5 1096.6077,-276.5 1267.6077,-276.5 1267.6077,-246.5 1096.6077,-246.5"/>
<text text-anchor="start" x="1104.6077" y="-264.5" font-family="Helvetica,sans-Serif" font-size="10.00" fill="#000000">DetectorsCommonDataFormats</text>
<text text-anchor="middle" x="1182.1077" y="-253.5" font-family="Helvetica,sans-Serif" font-size="10.00" fill="#000000">/DetID.h</text>
</a>
</g>
</g>
<!-- Node3&#45;&gt;Node15 -->
<g id="edge66" class="edge">
<title>Node3&#45;&gt;Node15</title>
<path fill="none" stroke="#191970" d="M1299.8628,-452.9164C1274.3592,-445.5058 1244.4214,-432.7049 1225.1077,-411 1193.8158,-375.834 1185.2011,-319.2522 1182.8897,-286.7177"/>
<polygon fill="#191970" stroke="#191970" points="1186.3808,-286.4591 1182.3238,-276.6718 1179.3918,-286.8528 1186.3808,-286.4591"/>
</g>
<!-- Node16 -->
<g id="node17" class="node">
<title>Node16</title>
<polygon fill="none" stroke="#bfbfbf" points="1920.6077,-118 1920.6077,-137 1979.6077,-137 1979.6077,-118 1920.6077,-118"/>
<text text-anchor="middle" x="1950.1077" y="-125" font-family="Helvetica,sans-Serif" font-size="10.00" fill="#000000">Rtypes.h</text>
</g>
<!-- Node3&#45;&gt;Node16 -->
<g id="edge80" class="edge">
<title>Node3&#45;&gt;Node16</title>
<path fill="none" stroke="#191970" d="M1380.8918,-452.8522C1400.9762,-445.057 1425.0679,-431.877 1437.1077,-411 1443.9908,-399.0647 1440.6226,-393.3219 1437.1077,-380 1428.3743,-346.899 1420.7156,-339.5527 1399.1077,-313 1383.8016,-294.1912 1368.109,-299.0912 1358.1077,-277 1340.144,-237.3214 1328.6741,-211.1053 1358.1077,-179 1395.4034,-138.319 1783.9741,-129.6641 1910.5166,-127.9189"/>
<polygon fill="#191970" stroke="#191970" points="1910.6007,-131.4182 1920.554,-127.7876 1910.509,-124.4188 1910.6007,-131.4182"/>
</g>
<!-- Node21 -->
<g id="node22" class="node">
<title>Node21</title>
<g id="a_node22"><a xlink:href="../../d9/d52/Common_2MathUtils_2include_2MathUtils_2Utils_8h.html" target="_top" xlink:title="MathUtils/Utils.h">
<polygon fill="none" stroke="#000000" points="3420.1077,-185 3420.1077,-204 3518.1077,-204 3518.1077,-185 3420.1077,-185"/>
<text text-anchor="middle" x="3469.1077" y="-192" font-family="Helvetica,sans-Serif" font-size="10.00" fill="#000000">MathUtils/Utils.h</text>
</a>
</g>
</g>
<!-- Node3&#45;&gt;Node21 -->
<g id="edge79" class="edge">
<title>Node3&#45;&gt;Node21</title>
<path fill="none" stroke="#191970" d="M1419.4317,-461.2944C1654.2191,-456.4866 2400.5416,-434.293 2621.1077,-344 2641.2789,-335.7425 2639.2707,-322.0309 2659.1077,-313 2699.1241,-294.7824 3005.6078,-252.3997 3049.1077,-246 3177.3546,-227.1323 3328.3471,-209.8072 3409.8003,-200.8621"/>
<polygon fill="#191970" stroke="#191970" points="3410.3029,-204.3281 3419.8627,-199.7608 3409.5413,-197.3696 3410.3029,-204.3281"/>
</g>
<!-- Node50 -->
<g id="node51" class="node">
<title>Node50</title>
<g id="a_node51"><a xlink:href="../../d4/d5c/ITSMFT_2common_2base_2include_2ITSMFTBase_2GeometryTGeo_8h.html" target="_top" xlink:title="ITSMFTBase/GeometryTGeo.h">
<polygon fill="none" stroke="#000000" points="1267.6077,-386 1267.6077,-405 1428.6077,-405 1428.6077,-386 1267.6077,-386"/>
<text text-anchor="middle" x="1348.1077" y="-393" font-family="Helvetica,sans-Serif" font-size="10.00" fill="#000000">ITSMFTBase/GeometryTGeo.h</text>
</a>
</g>
</g>
<!-- Node3&#45;&gt;Node50 -->
<g id="edge67" class="edge">
<title>Node3&#45;&gt;Node50</title>
<path fill="none" stroke="#191970" d="M1348.1077,-452.9005C1348.1077,-443.149 1348.1077,-427.7597 1348.1077,-415.3695"/>
<polygon fill="#191970" stroke="#191970" points="1351.6078,-415.0816 1348.1077,-405.0817 1344.6078,-415.0817 1351.6078,-415.0816"/>
</g>
<!-- Node8&#45;&gt;Node5 -->
<g id="edge15" class="edge">
<title>Node8&#45;&gt;Node5</title>
<path fill="none" stroke="#191970" d="M798.1339,-318.9771C854.9999,-310.4972 936.482,-296.4185 1006.1077,-277 1008.8564,-276.2334 1011.6797,-275.3588 1014.4965,-274.4242"/>
<polygon fill="#191970" stroke="#191970" points="1015.672,-277.721 1023.9319,-271.086 1013.3372,-271.1219 1015.672,-277.721"/>
</g>
<!-- Node9 -->
<g id="node10" class="node">
<title>Node9</title>
<polygon fill="none" stroke="#bfbfbf" points="332.1077,-252 332.1077,-271 424.1077,-271 424.1077,-252 332.1077,-252"/>
<text text-anchor="middle" x="378.1077" y="-259" font-family="Helvetica,sans-Serif" font-size="10.00" fill="#000000">TGeoManager.h</text>
</g>
<!-- Node8&#45;&gt;Node9 -->
<g id="edge10" class="edge">
<title>Node8&#45;&gt;Node9</title>
<path fill="none" stroke="#191970" d="M661.6278,-318.9766C601.7958,-309.8144 511.0404,-294.7592 433.1077,-277 428.746,-276.0061 424.2143,-274.8813 419.7079,-273.7028"/>
<polygon fill="#191970" stroke="#191970" points="420.5258,-270.2983 409.9589,-271.0665 418.6985,-277.0556 420.5258,-270.2983"/>
</g>
<!-- Node10 -->
<g id="node11" class="node">
<title>Node10</title>
<polygon fill="none" stroke="#bfbfbf" points="442.6077,-252 442.6077,-271 533.6077,-271 533.6077,-252 442.6077,-252"/>
<text text-anchor="middle" x="488.1077" y="-259" font-family="Helvetica,sans-Serif" font-size="10.00" fill="#000000">TGeoMaterial.h</text>
</g>
<!-- Node8&#45;&gt;Node10 -->
<g id="edge11" class="edge">
<title>Node8&#45;&gt;Node10</title>
<path fill="none" stroke="#191970" d="M692.6474,-318.9958C655.4757,-308.7231 594.5617,-291.8289 542.1077,-277 538.5177,-275.9851 534.7949,-274.9274 531.0592,-273.8625"/>
<polygon fill="#191970" stroke="#191970" points="531.7997,-270.434 521.2228,-271.0507 529.8757,-277.1644 531.7997,-270.434"/>
</g>
<!-- Node11 -->
<g id="node12" class="node">
<title>Node11</title>
<polygon fill="none" stroke="#bfbfbf" points="551.6077,-252 551.6077,-271 668.6077,-271 668.6077,-252 551.6077,-252"/>
<text text-anchor="middle" x="610.1077" y="-259" font-family="Helvetica,sans-Serif" font-size="10.00" fill="#000000">TGeoPhysicalNode.h</text>
</g>
<!-- Node8&#45;&gt;Node11 -->
<g id="edge12" class="edge">
<title>Node8&#45;&gt;Node11</title>
<path fill="none" stroke="#191970" d="M710.3445,-318.9005C690.7961,-307.7062 658.2738,-289.0823 635.594,-276.0947"/>
<polygon fill="#191970" stroke="#191970" points="637.257,-273.0138 626.8399,-271.0817 633.7784,-279.0883 637.257,-273.0138"/>
</g>
<!-- Node12 -->
<g id="node13" class="node">
<title>Node12</title>
<polygon fill="none" stroke="#bfbfbf" points="686.6077,-252 686.6077,-271 767.6077,-271 767.6077,-252 686.6077,-252"/>
<text text-anchor="middle" x="727.1077" y="-259" font-family="Helvetica,sans-Serif" font-size="10.00" fill="#000000">TGeoShape.h</text>
</g>
<!-- Node8&#45;&gt;Node12 -->
<g id="edge13" class="edge">
<title>Node8&#45;&gt;Node12</title>
<path fill="none" stroke="#191970" d="M727.1077,-318.9005C727.1077,-309.149 727.1077,-293.7597 727.1077,-281.3695"/>
<polygon fill="#191970" stroke="#191970" points="730.6078,-281.0816 727.1077,-271.0817 723.6078,-281.0817 730.6078,-281.0816"/>
</g>
<!-- Node13 -->
<g id="node14" class="node">
<title>Node13</title>
<polygon fill="none" stroke="#bfbfbf" points="786.1077,-252 786.1077,-271 842.1077,-271 842.1077,-252 786.1077,-252"/>
<text text-anchor="middle" x="814.1077" y="-259" font-family="Helvetica,sans-Serif" font-size="10.00" fill="#000000">TMath.h</text>
</g>
<!-- Node8&#45;&gt;Node13 -->
<g id="edge14" class="edge">
<title>Node8&#45;&gt;Node13</title>
<path fill="none" stroke="#191970" d="M739.5727,-318.9005C753.6564,-308.0544 776.7965,-290.2339 793.5616,-277.3229"/>
<polygon fill="#191970" stroke="#191970" points="795.8785,-279.9562 801.6658,-271.0817 791.6074,-274.4102 795.8785,-279.9562"/>
</g>
<!-- Node14 -->
<g id="node15" class="node">
<title>Node14</title>
<polygon fill="none" stroke="#bfbfbf" points="453.6077,-185 453.6077,-204 526.6077,-204 526.6077,-185 453.6077,-185"/>
<text text-anchor="middle" x="490.1077" y="-192" font-family="Helvetica,sans-Serif" font-size="10.00" fill="#000000">string_view</text>
</g>
<!-- Node8&#45;&gt;Node14 -->
<g id="edge16" class="edge">
<title>Node8&#45;&gt;Node14</title>
<path fill="none" stroke="#191970" d="M631.8055,-326.6601C479.224,-322.7167 194.015,-310.8581 163.1077,-277 153.8189,-266.8243 154.1552,-256.4728 163.1077,-246 181.1172,-224.9321 357.6664,-206.3721 443.5945,-198.5034"/>
<polygon fill="#191970" stroke="#191970" points="443.9637,-201.9844 453.6075,-197.5974 443.3328,-195.0129 443.9637,-201.9844"/>
</g>
<!-- Node8&#45;&gt;Node15 -->
<g id="edge17" class="edge">
<title>Node8&#45;&gt;Node15</title>
<path fill="none" stroke="#191970" d="M796.5177,-318.9825C866.8636,-309.243 979.1116,-293.4463 1086.3843,-277.0938"/>
<polygon fill="#191970" stroke="#191970" points="1087.0586,-280.5315 1096.4151,-275.5609 1086.0011,-273.6118 1087.0586,-280.5315"/>
</g>
<!-- Node36 -->
<g id="node37" class="node">
<title>Node36</title>
<polygon fill="none" stroke="#bfbfbf" points="172.6077,-252 172.6077,-271 247.6077,-271 247.6077,-252 172.6077,-252"/>
<text text-anchor="middle" x="210.1077" y="-259" font-family="Helvetica,sans-Serif" font-size="10.00" fill="#000000">FairLogger.h</text>
</g>
<!-- Node8&#45;&gt;Node36 -->
<g id="edge48" class="edge">
<title>Node8&#45;&gt;Node36</title>
<path fill="none" stroke="#191970" d="M632.094,-323.9359C536.4871,-317.9804 385.2525,-304.8289 257.1077,-277 253.2507,-276.1624 249.2645,-275.1263 245.3197,-273.9899"/>
<polygon fill="#191970" stroke="#191970" points="246.2839,-270.6246 235.6963,-271.0144 244.2162,-277.3122 246.2839,-270.6246"/>
</g>
<!-- Node8&#45;&gt;Node37 -->
<g id="edge49" class="edge">
<title>Node8&#45;&gt;Node37</title>
<path fill="none" stroke="#191970" d="M822.1079,-324.2708C1098.741,-311.9555 1900.1474,-276.2783 2154.01,-264.9768"/>
<polygon fill="#191970" stroke="#191970" points="2154.4138,-268.4624 2164.2482,-264.521 2154.1024,-261.4693 2154.4138,-268.4624"/>
</g>
<!-- Node47 -->
<g id="node48" class="node">
<title>Node47</title>
<g id="a_node48"><a xlink:href="../../db/dba/MatCell_8h.html" target="_top" xlink:title="Declarations for material properties of the cell (voxel) ">
<polygon fill="none" stroke="#000000" points="860.6077,-252 860.6077,-271 997.6077,-271 997.6077,-252 860.6077,-252"/>
<text text-anchor="middle" x="929.1077" y="-259" font-family="Helvetica,sans-Serif" font-size="10.00" fill="#000000">DetectorsBase/MatCell.h</text>
</a>
</g>
</g>
<!-- Node8&#45;&gt;Node47 -->
<g id="edge61" class="edge">
<title>Node8&#45;&gt;Node47</title>
<path fill="none" stroke="#191970" d="M756.0494,-318.9005C791.4495,-307.1589 851.4928,-287.2436 890.7222,-274.2318"/>
<polygon fill="#191970" stroke="#191970" points="891.8301,-277.5519 900.2197,-271.0817 889.6263,-270.9079 891.8301,-277.5519"/>
</g>
<!-- Node49 -->
<g id="node50" class="node">
<title>Node49</title>
<polygon fill="none" stroke="#bfbfbf" points="266.1077,-252 266.1077,-271 314.1077,-271 314.1077,-252 266.1077,-252"/>
<text text-anchor="middle" x="290.1077" y="-259" font-family="Helvetica,sans-Serif" font-size="10.00" fill="#000000">mutex</text>
</g>
<!-- Node8&#45;&gt;Node49 -->
<g id="edge65" class="edge">
<title>Node8&#45;&gt;Node49</title>
<path fill="none" stroke="#191970" d="M631.9409,-324.7378C548.9788,-319.4942 426.1381,-306.9564 323.1077,-277 321.1931,-276.4433 319.2501,-275.789 317.3146,-275.0694"/>
<polygon fill="#191970" stroke="#191970" points="318.4401,-271.7455 307.8663,-271.0784 315.7163,-278.1938 318.4401,-271.7455"/>
</g>
<!-- Node15&#45;&gt;Node6 -->
<g id="edge19" class="edge">
<title>Node15&#45;&gt;Node6</title>
<path fill="none" stroke="#191970" d="M1205.9894,-246.3468C1238.7844,-226.4877 1300.2905,-192.5896 1358.1077,-179 1691.3422,-100.6749 2566.4449,-227.7341 2898.1077,-143 2899.8259,-142.561 2901.5569,-142.0094 2903.2737,-141.3778"/>
<polygon fill="#191970" stroke="#191970" points="2905.0757,-144.4053 2912.7632,-137.1147 2902.2071,-138.0201 2905.0757,-144.4053"/>
</g>
<!-- Node15&#45;&gt;Node7 -->
<g id="edge24" class="edge">
<title>Node15&#45;&gt;Node7</title>
<path fill="none" stroke="#191970" d="M1126.7581,-246.4901C1108.6995,-238.6798 1090.6078,-227.0641 1080.1077,-210 1072.8872,-198.2658 1071.9632,-190.1128 1080.1077,-179 1111.5162,-136.1442 1144.8594,-162.9429 1194.1077,-143 1195.4672,-142.4495 1196.8488,-141.8633 1198.236,-141.2532"/>
<polygon fill="#191970" stroke="#191970" points="1199.7286,-144.4191 1207.2971,-137.005 1196.7571,-138.081 1199.7286,-144.4191"/>
</g>
<!-- Node15&#45;&gt;Node14 -->
<g id="edge23" class="edge">
<title>Node15&#45;&gt;Node14</title>
<path fill="none" stroke="#191970" d="M1096.4458,-247.2176C1093.2961,-246.7898 1090.1756,-246.382 1087.1077,-246 882.9619,-220.5777 637.9745,-203.7008 537.0582,-197.3369"/>
<polygon fill="#191970" stroke="#191970" points="537.0928,-193.8323 526.8937,-196.7009 536.6555,-200.8187 537.0928,-193.8323"/>
</g>
<!-- Node15&#45;&gt;Node16 -->
<g id="edge18" class="edge">
<title>Node15&#45;&gt;Node16</title>
<path fill="none" stroke="#191970" d="M1194.8356,-246.3734C1212.2625,-226.8753 1245.58,-193.7326 1282.1077,-179 1340.2672,-155.5426 1774.4984,-135.0591 1909.906,-129.186"/>
<polygon fill="#191970" stroke="#191970" points="1910.396,-132.6682 1920.2361,-128.7412 1910.0948,-125.6747 1910.396,-132.6682"/>
</g>
<!-- Node17 -->
<g id="node18" class="node">
<title>Node17</title>
<polygon fill="none" stroke="#bfbfbf" points="2070.1077,-185 2070.1077,-204 2114.1077,-204 2114.1077,-185 2070.1077,-185"/>
<text text-anchor="middle" x="2092.1077" y="-192" font-family="Helvetica,sans-Serif" font-size="10.00" fill="#000000">bitset</text>
</g>
<!-- Node15&#45;&gt;Node17 -->
<g id="edge20" class="edge">
<title>Node15&#45;&gt;Node17</title>
<path fill="none" stroke="#191970" d="M1267.7507,-254.7534C1305.5542,-251.8774 1350.531,-248.5945 1391.1077,-246 1539.9075,-236.4857 1916.9643,-248.1391 2061.1077,-210 2063.0273,-209.4921 2064.9672,-208.8576 2066.8901,-208.1375"/>
<polygon fill="#191970" stroke="#191970" points="2068.4682,-211.2665 2076.1923,-204.0146 2065.6318,-204.8669 2068.4682,-211.2665"/>
</g>
<!-- Node18 -->
<g id="node19" class="node">
<title>Node18</title>
<polygon fill="none" stroke="#bfbfbf" points="1133.1077,-118 1133.1077,-137 1185.1077,-137 1185.1077,-118 1133.1077,-118"/>
<text text-anchor="middle" x="1159.1077" y="-125" font-family="Helvetica,sans-Serif" font-size="10.00" fill="#000000">cassert</text>
</g>
<!-- Node15&#45;&gt;Node18 -->
<g id="edge21" class="edge">
<title>Node15&#45;&gt;Node18</title>
<path fill="none" stroke="#191970" d="M1121.1293,-246.4964C1087.9682,-236.9711 1051.7765,-223.8589 1042.1077,-210 1034.2244,-198.7004 1034.5738,-190.5355 1042.1077,-179 1063.872,-145.6756 1087.689,-159.0585 1124.1077,-143 1125.4759,-142.3967 1126.8739,-141.7798 1128.286,-141.1562"/>
<polygon fill="#191970" stroke="#191970" points="1129.9108,-144.2647 1137.6413,-137.0196 1127.08,-137.8626 1129.9108,-144.2647"/>
</g>
<!-- Node19 -->
<g id="node20" class="node">
<title>Node19</title>
<polygon fill="none" stroke="#bfbfbf" points="1333.1077,-118 1333.1077,-137 1383.1077,-137 1383.1077,-118 1333.1077,-118"/>
<text text-anchor="middle" x="1358.1077" y="-125" font-family="Helvetica,sans-Serif" font-size="10.00" fill="#000000">cstdint</text>
</g>
<!-- Node15&#45;&gt;Node19 -->
<g id="edge22" class="edge">
<title>Node15&#45;&gt;Node19</title>
<path fill="none" stroke="#191970" d="M1154.127,-246.2611C1127.2311,-229.6792 1093.3592,-202.4033 1113.1077,-179 1143.7837,-142.6469 1278.6428,-156.9824 1324.1077,-143 1326.0144,-142.4136 1327.9536,-141.7445 1329.89,-141.0209"/>
<polygon fill="#191970" stroke="#191970" points="1331.4901,-144.1463 1339.3849,-137.0807 1328.8071,-137.6809 1331.4901,-144.1463"/>
</g>
<!-- Node20 -->
<g id="node21" class="node">
<title>Node20</title>
<polygon fill="none" stroke="#bfbfbf" points="1122.6077,-185 1122.6077,-204 1191.6077,-204 1191.6077,-185 1122.6077,-185"/>
<text text-anchor="middle" x="1157.1077" y="-192" font-family="Helvetica,sans-Serif" font-size="10.00" fill="#000000">type_traits</text>
</g>
<!-- Node15&#45;&gt;Node20 -->
<g id="edge25" class="edge">
<title>Node15&#45;&gt;Node20</title>
<path fill="none" stroke="#191970" d="M1176.4348,-246.2967C1172.8044,-236.5672 1168.0657,-223.8675 1164.1892,-213.4784"/>
<polygon fill="#191970" stroke="#191970" points="1167.4481,-212.2004 1160.673,-204.055 1160.8898,-214.6476 1167.4481,-212.2004"/>
</g>
<!-- Node15&#45;&gt;Node21 -->
<g id="edge26" class="edge">
<title>Node15&#45;&gt;Node21</title>
<path fill="none" stroke="#191970" d="M1267.7136,-254.0822C1305.5103,-251.0833 1350.4921,-247.8898 1391.1077,-246 2233.9031,-206.785 2446.5599,-254.2171 3289.1077,-210 3329.4471,-207.883 3374.7542,-203.9732 3409.8215,-200.6102"/>
<polygon fill="#191970" stroke="#191970" points="3410.2772,-204.0825 3419.8922,-199.6325 3409.6008,-197.1153 3410.2772,-204.0825"/>
</g>
<!-- Node29 -->
<g id="node30" class="node">
<title>Node29</title>
<g id="a_node30"><a xlink:href="../../dc/dcd/DataHeader_8h.html" target="_top" xlink:title="Headers/DataHeader.h">
<polygon fill="none" stroke="#000000" points="862.6077,-185 862.6077,-204 989.6077,-204 989.6077,-185 862.6077,-185"/>
<text text-anchor="middle" x="926.1077" y="-192" font-family="Helvetica,sans-Serif" font-size="10.00" fill="#000000">Headers/DataHeader.h</text>
</a>
</g>
</g>
<!-- Node15&#45;&gt;Node29 -->
<g id="edge37" class="edge">
<title>Node15&#45;&gt;Node29</title>
<path fill="none" stroke="#191970" d="M1124.6563,-246.4639C1078.664,-234.4269 1014.9997,-217.7647 972.2776,-206.5835"/>
<polygon fill="#191970" stroke="#191970" points="972.9868,-203.1513 962.4264,-204.0053 971.2144,-209.9232 972.9868,-203.1513"/>
</g>
<!-- Node21&#45;&gt;Node6 -->
<g id="edge27" class="edge">
<title>Node21&#45;&gt;Node6</title>
<path fill="none" stroke="#191970" d="M3433.965,-184.9718C3424.9368,-182.7675 3415.204,-180.6016 3406.1077,-179 3239.2249,-149.617 3036.4158,-134.449 2959.6136,-129.4291"/>
<polygon fill="#191970" stroke="#191970" points="2959.4194,-125.9095 2949.2157,-128.7616 2958.9709,-132.8951 2959.4194,-125.9095"/>
</g>
<!-- Node22 -->
<g id="node23" class="node">
<title>Node22</title>
<polygon fill="none" stroke="#bfbfbf" points="3522.6077,-56.5 3522.6077,-75.5 3569.6077,-75.5 3569.6077,-56.5 3522.6077,-56.5"/>
<text text-anchor="middle" x="3546.1077" y="-63.5" font-family="Helvetica,sans-Serif" font-size="10.00" fill="#000000">cmath</text>
</g>
<!-- Node21&#45;&gt;Node22 -->
<g id="edge28" class="edge">
<title>Node21&#45;&gt;Node22</title>
<path fill="none" stroke="#191970" d="M3474.8952,-184.8416C3487.66,-163.5393 3518.4115,-112.2203 3535.0206,-84.5025"/>
<polygon fill="#191970" stroke="#191970" points="3538.1152,-86.1474 3540.253,-75.7705 3532.1107,-82.5493 3538.1152,-86.1474"/>
</g>
<!-- Node23 -->
<g id="node24" class="node">
<title>Node23</title>
<g id="a_node24"><a xlink:href="../../df/d21/GPUCommonDef_8h.html" target="_top" xlink:title="GPUCommonDef.h">
<polygon fill="none" stroke="#000000" points="3175.6077,-56.5 3175.6077,-75.5 3282.6077,-75.5 3282.6077,-56.5 3175.6077,-56.5"/>
<text text-anchor="middle" x="3229.1077" y="-63.5" font-family="Helvetica,sans-Serif" font-size="10.00" fill="#000000">GPUCommonDef.h</text>
</a>
</g>
</g>
<!-- Node21&#45;&gt;Node23 -->
<g id="edge29" class="edge">
<title>Node21&#45;&gt;Node23</title>
<path fill="none" stroke="#191970" d="M3430.6105,-184.9233C3381.0884,-172.3933 3299.9956,-151.0823 3288.1077,-143 3266.0157,-127.9801 3248.6489,-102.0103 3238.6336,-84.4272"/>
<polygon fill="#191970" stroke="#191970" points="3241.704,-82.747 3233.8425,-75.6444 3235.5589,-86.0993 3241.704,-82.747"/>
</g>
<!-- Node26 -->
<g id="node27" class="node">
<title>Node26</title>
<g id="a_node27"><a xlink:href="../../d6/da2/GPUCommonMath_8h.html" target="_top" xlink:title="GPUCommonMath.h">
<polygon fill="none" stroke="#000000" points="3296.6077,-118 3296.6077,-137 3411.6077,-137 3411.6077,-118 3296.6077,-118"/>
<text text-anchor="middle" x="3354.1077" y="-125" font-family="Helvetica,sans-Serif" font-size="10.00" fill="#000000">GPUCommonMath.h</text>
</a>
</g>
</g>
<!-- Node21&#45;&gt;Node26 -->
<g id="edge32" class="edge">
<title>Node21&#45;&gt;Node26</title>
<path fill="none" stroke="#191970" d="M3452.631,-184.9005C3433.5022,-173.7559 3401.7344,-155.2477 3379.4561,-142.2682"/>
<polygon fill="#191970" stroke="#191970" points="3380.9563,-139.0916 3370.5538,-137.0817 3377.4324,-145.1399 3380.9563,-139.0916"/>
</g>
<!-- Node28 -->
<g id="node29" class="node">
<title>Node28</title>
<g id="a_node29"><a xlink:href="../../d6/d84/MathConstants_8h.html" target="_top" xlink:title="useful math constants ">
<polygon fill="none" stroke="#000000" points="3712.1077,-118 3712.1077,-137 3906.1077,-137 3906.1077,-118 3712.1077,-118"/>
<text text-anchor="middle" x="3809.1077" y="-125" font-family="Helvetica,sans-Serif" font-size="10.00" fill="#000000">CommonConstants/MathConstants.h</text>
</a>
</g>
</g>
<!-- Node21&#45;&gt;Node28 -->
<g id="edge36" class="edge">
<title>Node21&#45;&gt;Node28</title>
<path fill="none" stroke="#191970" d="M3517.4603,-184.9717C3578.9307,-172.8584 3684.9625,-151.9639 3750.8318,-138.9838"/>
<polygon fill="#191970" stroke="#191970" points="3751.5123,-142.4171 3760.6469,-137.0496 3750.1589,-135.5491 3751.5123,-142.4171"/>
</g>
<!-- Node24 -->
<g id="node25" class="node">
<title>Node24</title>
<g id="a_node25"><a xlink:href="../../d5/d93/GPUCommonDefSettings_8h.html" target="_top" xlink:title="GPUCommonDefSettings.h">
<polygon fill="none" stroke="#000000" points="3078.1077,-.5 3078.1077,-19.5 3226.1077,-19.5 3226.1077,-.5 3078.1077,-.5"/>
<text text-anchor="middle" x="3152.1077" y="-7.5" font-family="Helvetica,sans-Serif" font-size="10.00" fill="#000000">GPUCommonDefSettings.h</text>
</a>
</g>
</g>
<!-- Node23&#45;&gt;Node24 -->
<g id="edge30" class="edge">
<title>Node23&#45;&gt;Node24</title>
<path fill="none" stroke="#191970" d="M3215.6953,-56.2455C3204.102,-47.814 3187.133,-35.4729 3173.6399,-25.6598"/>
<polygon fill="#191970" stroke="#191970" points="3175.5124,-22.6938 3165.3664,-19.6427 3171.3951,-28.355 3175.5124,-22.6938"/>
</g>
<!-- Node25 -->
<g id="node26" class="node">
<title>Node25</title>
<g id="a_node26"><a xlink:href="../../da/d5a/GPUCommonDefAPI_8h.html" target="_top" xlink:title="GPUCommonDefAPI.h">
<polygon fill="none" stroke="#000000" points="3244.1077,-.5 3244.1077,-19.5 3368.1077,-19.5 3368.1077,-.5 3244.1077,-.5"/>
<text text-anchor="middle" x="3306.1077" y="-7.5" font-family="Helvetica,sans-Serif" font-size="10.00" fill="#000000">GPUCommonDefAPI.h</text>
</a>
</g>
</g>
<!-- Node23&#45;&gt;Node25 -->
<g id="edge31" class="edge">
<title>Node23&#45;&gt;Node25</title>
<path fill="none" stroke="#191970" d="M3242.5201,-56.2455C3254.1134,-47.814 3271.0825,-35.4729 3284.5755,-25.6598"/>
<polygon fill="#191970" stroke="#191970" points="3286.8203,-28.355 3292.849,-19.6427 3282.703,-22.6938 3286.8203,-28.355"/>
</g>
<!-- Node26&#45;&gt;Node22 -->
<g id="edge34" class="edge">
<title>Node26&#45;&gt;Node22</title>
<path fill="none" stroke="#191970" d="M3384.1077,-117.8906C3419.0063,-106.7122 3476.4589,-88.3094 3512.7375,-76.6889"/>
<polygon fill="#191970" stroke="#191970" points="3513.9165,-79.9865 3522.3722,-73.6028 3511.7811,-73.3201 3513.9165,-79.9865"/>
</g>
<!-- Node26&#45;&gt;Node23 -->
<g id="edge33" class="edge">
<title>Node26&#45;&gt;Node23</title>
<path fill="none" stroke="#191970" d="M3334.5765,-117.8906C3313.9369,-107.7359 3281.1801,-91.6196 3257.6475,-80.0416"/>
<polygon fill="#191970" stroke="#191970" points="3259.0197,-76.8161 3248.5018,-75.5419 3255.9295,-83.0971 3259.0197,-76.8161"/>
</g>
<!-- Node27 -->
<g id="node28" class="node">
<title>Node27</title>
<polygon fill="none" stroke="#bfbfbf" points="3078.1077,-56.5 3078.1077,-75.5 3142.1077,-75.5 3142.1077,-56.5 3078.1077,-56.5"/>
<text text-anchor="middle" x="3110.1077" y="-63.5" font-family="Helvetica,sans-Serif" font-size="10.00" fill="#000000">algorithm</text>
</g>
<!-- Node26&#45;&gt;Node27 -->
<g id="edge35" class="edge">
<title>Node26&#45;&gt;Node27</title>
<path fill="none" stroke="#191970" d="M3316.2504,-117.9581C3271.8233,-106.7603 3198.3709,-88.2467 3152.1928,-76.6075"/>
<polygon fill="#191970" stroke="#191970" points="3152.76,-73.1411 3142.2078,-74.0908 3151.0491,-79.9288 3152.76,-73.1411"/>
</g>
<!-- Node29&#45;&gt;Node7 -->
<g id="edge44" class="edge">
<title>Node29&#45;&gt;Node7</title>
<path fill="none" stroke="#191970" d="M985.9781,-184.9557C1052.776,-173.9613 1156.415,-155.7739 1194.1077,-143 1195.7141,-142.4556 1197.3425,-141.8432 1198.9687,-141.1843"/>
<polygon fill="#191970" stroke="#191970" points="1200.4237,-144.3676 1208.0884,-137.053 1197.5352,-137.9914 1200.4237,-144.3676"/>
</g>
<!-- Node29&#45;&gt;Node18 -->
<g id="edge40" class="edge">
<title>Node29&#45;&gt;Node18</title>
<path fill="none" stroke="#191970" d="M971.1572,-184.9806C1011.6977,-175.8979 1072.6294,-160.9599 1124.1077,-143 1125.943,-142.3597 1127.8159,-141.6633 1129.6937,-140.9321"/>
<polygon fill="#191970" stroke="#191970" points="1131.0775,-144.1474 1138.9738,-137.0835 1128.3959,-137.6814 1131.0775,-144.1474"/>
</g>
<!-- Node29&#45;&gt;Node19 -->
<g id="edge38" class="edge">
<title>Node29&#45;&gt;Node19</title>
<path fill="none" stroke="#191970" d="M990.0179,-187.2902C1094.3282,-175.3642 1292.746,-151.9574 1324.1077,-143 1326.0726,-142.4388 1328.0687,-141.781 1330.0587,-141.0589"/>
<polygon fill="#191970" stroke="#191970" points="1331.8646,-144.1008 1339.7832,-137.062 1329.2034,-137.6264 1331.8646,-144.1008"/>
</g>
<!-- Node29&#45;&gt;Node27 -->
<g id="edge42" class="edge">
<title>Node29&#45;&gt;Node27</title>
<path fill="none" stroke="#191970" d="M862.5259,-190.9205C793.7082,-185.561 690.4951,-172.6918 666.1077,-143 657.3629,-132.3531 656.4574,-121.8336 666.1077,-112 688.013,-89.6785 2743.4627,-69.447 3067.3565,-66.3963"/>
<polygon fill="#191970" stroke="#191970" points="3067.7506,-69.8928 3077.7173,-66.299 3067.6848,-62.8931 3067.7506,-69.8928"/>
</g>
<!-- Node30 -->
<g id="node31" class="node">
<title>Node30</title>
<polygon fill="none" stroke="#bfbfbf" points="741.1077,-118 741.1077,-137 799.1077,-137 799.1077,-118 741.1077,-118"/>
<text text-anchor="middle" x="770.1077" y="-125" font-family="Helvetica,sans-Serif" font-size="10.00" fill="#000000">memory</text>
</g>
<!-- Node29&#45;&gt;Node30 -->
<g id="edge39" class="edge">
<title>Node29&#45;&gt;Node30</title>
<path fill="none" stroke="#191970" d="M903.7567,-184.9005C876.9972,-173.4077 832.0042,-154.0838 801.6988,-141.068"/>
<polygon fill="#191970" stroke="#191970" points="802.9869,-137.8121 792.4172,-137.0817 800.2244,-144.244 802.9869,-137.8121"/>
</g>
<!-- Node31 -->
<g id="node32" class="node">
<title>Node31</title>
<polygon fill="none" stroke="#bfbfbf" points="1265.1077,-118 1265.1077,-137 1315.1077,-137 1315.1077,-118 1265.1077,-118"/>
<text text-anchor="middle" x="1290.1077" y="-125" font-family="Helvetica,sans-Serif" font-size="10.00" fill="#000000">cstring</text>
</g>
<!-- Node29&#45;&gt;Node31 -->
<g id="edge41" class="edge">
<title>Node29&#45;&gt;Node31</title>
<path fill="none" stroke="#191970" d="M989.7167,-186.6712C1071.1439,-176.2862 1207.5078,-157.5703 1256.1077,-143 1258.0185,-142.4271 1259.9608,-141.7683 1261.8995,-141.0523"/>
<polygon fill="#191970" stroke="#191970" points="1263.492,-144.1815 1271.4001,-137.1307 1260.8211,-137.711 1263.492,-144.1815"/>
</g>
<!-- Node32 -->
<g id="node33" class="node">
<title>Node32</title>
<polygon fill="none" stroke="#bfbfbf" points="817.6077,-118 817.6077,-137 882.6077,-137 882.6077,-118 817.6077,-118"/>
<text text-anchor="middle" x="850.1077" y="-125" font-family="Helvetica,sans-Serif" font-size="10.00" fill="#000000">stdexcept</text>
</g>
<!-- Node29&#45;&gt;Node32 -->
<g id="edge43" class="edge">
<title>Node29&#45;&gt;Node32</title>
<path fill="none" stroke="#191970" d="M915.2188,-184.9005C903.1415,-174.2535 883.4406,-156.8856 868.8677,-144.0385"/>
<polygon fill="#191970" stroke="#191970" points="870.7923,-141.0692 860.9764,-137.0817 866.1632,-146.3201 870.7923,-141.0692"/>
</g>
<!-- Node33 -->
<g id="node34" class="node">
<title>Node33</title>
<polygon fill="none" stroke="#bfbfbf" points="901.1077,-118 901.1077,-137 951.1077,-137 951.1077,-118 901.1077,-118"/>
<text text-anchor="middle" x="926.1077" y="-125" font-family="Helvetica,sans-Serif" font-size="10.00" fill="#000000">climits</text>
</g>
<!-- Node29&#45;&gt;Node33 -->
<g id="edge45" class="edge">
<title>Node29&#45;&gt;Node33</title>
<path fill="none" stroke="#191970" d="M926.1077,-184.9005C926.1077,-175.149 926.1077,-159.7597 926.1077,-147.3695"/>
<polygon fill="#191970" stroke="#191970" points="929.6078,-147.0816 926.1077,-137.0817 922.6078,-147.0817 929.6078,-147.0816"/>
</g>
<!-- Node34 -->
<g id="node35" class="node">
<title>Node34</title>
<g id="a_node35"><a xlink:href="../../d7/df8/Types_8h.html" target="_top" xlink:title="MemoryResources/Types.h">
<polygon fill="none" stroke="#000000" points="969.1077,-118 969.1077,-137 1115.1077,-137 1115.1077,-118 969.1077,-118"/>
<text text-anchor="middle" x="1042.1077" y="-125" font-family="Helvetica,sans-Serif" font-size="10.00" fill="#000000">MemoryResources/Types.h</text>
</a>
</g>
</g>
<!-- Node29&#45;&gt;Node34 -->
<g id="edge46" class="edge">
<title>Node29&#45;&gt;Node34</title>
<path fill="none" stroke="#191970" d="M942.7277,-184.9005C962.109,-173.7062 994.3532,-155.0823 1016.8392,-142.0947"/>
<polygon fill="#191970" stroke="#191970" points="1018.6097,-145.114 1025.5186,-137.0817 1015.1086,-139.0525 1018.6097,-145.114"/>
</g>
<!-- Node35 -->
<g id="node36" class="node">
<title>Node35</title>
<polygon fill="none" stroke="#bfbfbf" points="675.6077,-118 675.6077,-137 722.6077,-137 722.6077,-118 675.6077,-118"/>
<text text-anchor="middle" x="699.1077" y="-125" font-family="Helvetica,sans-Serif" font-size="10.00" fill="#000000">cerrno</text>
</g>
<!-- Node29&#45;&gt;Node35 -->
<g id="edge47" class="edge">
<title>Node29&#45;&gt;Node35</title>
<path fill="none" stroke="#191970" d="M881.1027,-184.9711C841.3263,-175.9814 782.0405,-161.1871 732.1077,-143 730.513,-142.4192 728.8904,-141.79 727.2632,-141.1289"/>
<polygon fill="#191970" stroke="#191970" points="728.6207,-137.9026 718.0556,-137.1094 725.8201,-144.318 728.6207,-137.9026"/>
</g>
<!-- Node37&#45;&gt;Node4 -->
<g id="edge56" class="edge">
<title>Node37&#45;&gt;Node4</title>
<path fill="none" stroke="#191970" d="M2164.5486,-257.1128C2058.9555,-249.8473 1848.5121,-233.7251 1671.1077,-210 1659.0952,-208.3935 1646.2188,-206.324 1634.1247,-204.2237"/>
<polygon fill="#191970" stroke="#191970" points="1634.6432,-200.7611 1624.1858,-202.4616 1633.4212,-207.6536 1634.6432,-200.7611"/>
</g>
<!-- Node37&#45;&gt;Node16 -->
<g id="edge55" class="edge">
<title>Node37&#45;&gt;Node16</title>
<path fill="none" stroke="#191970" d="M2278.8208,-251.9301C2290.3245,-249.7781 2302.6347,-247.6468 2314.1077,-246 2354.4466,-240.2098 2651.7422,-240.1974 2679.1077,-210 2688.3596,-199.7907 2688.5005,-189.0798 2679.1077,-179 2655.4297,-153.5902 2138.789,-133.9668 1989.9187,-128.8244"/>
<polygon fill="#191970" stroke="#191970" points="1989.9615,-125.3239 1979.8474,-128.4793 1989.7217,-132.3198 1989.9615,-125.3239"/>
</g>
<!-- Node38 -->
<g id="node39" class="node">
<title>Node38</title>
<polygon fill="none" stroke="#bfbfbf" points="1680.1077,-179.5 1680.1077,-209.5 1844.1077,-209.5 1844.1077,-179.5 1680.1077,-179.5"/>
<text text-anchor="start" x="1688.1077" y="-197.5" font-family="Helvetica,sans-Serif" font-size="10.00" fill="#000000">Math/GenVector/Displacement</text>
<text text-anchor="middle" x="1762.1077" y="-186.5" font-family="Helvetica,sans-Serif" font-size="10.00" fill="#000000">Vector3D.h</text>
</g>
<!-- Node37&#45;&gt;Node38 -->
<g id="edge50" class="edge">
<title>Node37&#45;&gt;Node38</title>
<path fill="none" stroke="#191970" d="M2164.4155,-252.9306C2090.8498,-243.4701 1969.5801,-227.4457 1854.4,-210.0148"/>
<polygon fill="#191970" stroke="#191970" points="1854.7581,-206.5291 1844.3458,-208.4873 1853.7066,-213.4497 1854.7581,-206.5291"/>
</g>
<!-- Node39 -->
<g id="node40" class="node">
<title>Node39</title>
<polygon fill="none" stroke="#bfbfbf" points="1862.6077,-185 1862.6077,-204 2051.6077,-204 2051.6077,-185 1862.6077,-185"/>
<text text-anchor="middle" x="1957.1077" y="-192" font-family="Helvetica,sans-Serif" font-size="10.00" fill="#000000">Math/GenVector/PositionVector3D.h</text>
</g>
<!-- Node37&#45;&gt;Node39 -->
<g id="edge51" class="edge">
<title>Node37&#45;&gt;Node39</title>
<path fill="none" stroke="#191970" d="M2192.999,-251.9717C2143.9625,-240.0246 2059.866,-219.5357 2006.4539,-206.5225"/>
<polygon fill="#191970" stroke="#191970" points="2007.0711,-203.0706 1996.5268,-204.1039 2005.4141,-209.8716 2007.0711,-203.0706"/>
</g>
<!-- Node40 -->
<g id="node41" class="node">
<title>Node40</title>
<polygon fill="none" stroke="#bfbfbf" points="2132.1077,-185 2132.1077,-204 2292.1077,-204 2292.1077,-185 2132.1077,-185"/>
<text text-anchor="middle" x="2212.1077" y="-192" font-family="Helvetica,sans-Serif" font-size="10.00" fill="#000000">Math/GenVector/Rotation3D.h</text>
</g>
<!-- Node37&#45;&gt;Node40 -->
<g id="edge52" class="edge">
<title>Node37&#45;&gt;Node40</title>
<path fill="none" stroke="#191970" d="M2229.2422,-251.9005C2226.3016,-242.0495 2221.6435,-226.4451 2217.926,-213.9912"/>
<polygon fill="#191970" stroke="#191970" points="2221.1821,-212.6627 2214.9679,-204.0817 2214.4746,-214.665 2221.1821,-212.6627"/>
</g>
<!-- Node41 -->
<g id="node42" class="node">
<title>Node41</title>
<polygon fill="none" stroke="#bfbfbf" points="2310.1077,-185 2310.1077,-204 2478.1077,-204 2478.1077,-185 2310.1077,-185"/>
<text text-anchor="middle" x="2394.1077" y="-192" font-family="Helvetica,sans-Serif" font-size="10.00" fill="#000000">Math/GenVector/Transform3D.h</text>
</g>
<!-- Node37&#45;&gt;Node41 -->
<g id="edge53" class="edge">
<title>Node37&#45;&gt;Node41</title>
<path fill="none" stroke="#191970" d="M2255.3184,-251.9005C2283.1071,-240.4077 2329.8305,-221.0838 2361.3015,-208.068"/>
<polygon fill="#191970" stroke="#191970" points="2363.0369,-211.1379 2370.9401,-204.0817 2360.3616,-204.6693 2363.0369,-211.1379"/>
</g>
<!-- Node42 -->
<g id="node43" class="node">
<title>Node42</title>
<polygon fill="none" stroke="#bfbfbf" points="2496.6077,-185 2496.6077,-204 2669.6077,-204 2669.6077,-185 2496.6077,-185"/>
<text text-anchor="middle" x="2583.1077" y="-192" font-family="Helvetica,sans-Serif" font-size="10.00" fill="#000000">Math/GenVector/Translation3D.h</text>
</g>
<!-- Node37&#45;&gt;Node42 -->
<g id="edge54" class="edge">
<title>Node37&#45;&gt;Node42</title>
<path fill="none" stroke="#191970" d="M2282.0247,-251.9717C2345.4838,-239.8584 2454.946,-218.9639 2522.9464,-205.9838"/>
<polygon fill="#191970" stroke="#191970" points="2523.9127,-209.3626 2533.0791,-204.0496 2522.6002,-202.4868 2523.9127,-209.3626"/>
</g>
<!-- Node43 -->
<g id="node44" class="node">
<title>Node43</title>
<polygon fill="none" stroke="#bfbfbf" points="2956.6077,-185 2956.6077,-204 3005.6077,-204 3005.6077,-185 2956.6077,-185"/>
<text text-anchor="middle" x="2981.1077" y="-192" font-family="Helvetica,sans-Serif" font-size="10.00" fill="#000000">iosfwd</text>
</g>
<!-- Node37&#45;&gt;Node43 -->
<g id="edge57" class="edge">
<title>Node37&#45;&gt;Node43</title>
<path fill="none" stroke="#191970" d="M2277.0643,-251.9772C2289.0545,-249.7188 2302.0336,-247.5255 2314.1077,-246 2560.2231,-214.904 2624.3317,-235.3248 2871.1077,-210 2896.3331,-207.4113 2924.664,-203.3929 2946.256,-200.0964"/>
<polygon fill="#191970" stroke="#191970" points="2946.9247,-203.5346 2956.2712,-198.5455 2945.8534,-196.6171 2946.9247,-203.5346"/>
</g>
<!-- Node44 -->
<g id="node45" class="node">
<title>Node44</title>
<g id="a_node45"><a xlink:href="../../d2/dd0/Cartesian2D_8h.html" target="_top" xlink:title="MathUtils/Cartesian2D.h">
<polygon fill="none" stroke="#000000" points="2726.6077,-185 2726.6077,-204 2861.6077,-204 2861.6077,-185 2726.6077,-185"/>
<text text-anchor="middle" x="2794.1077" y="-192" font-family="Helvetica,sans-Serif" font-size="10.00" fill="#000000">MathUtils/Cartesian2D.h</text>
</a>
</g>
</g>
<!-- Node37&#45;&gt;Node44 -->
<g id="edge58" class="edge">
<title>Node37&#45;&gt;Node44</title>
<path fill="none" stroke="#191970" d="M2278.3805,-251.9448C2290.0076,-249.767 2302.4847,-247.6203 2314.1077,-246 2490.0176,-221.4771 2536.1978,-234.5229 2712.1077,-210 2720.4618,-208.8354 2729.257,-207.3988 2737.8608,-205.8743"/>
<polygon fill="#191970" stroke="#191970" points="2738.6252,-209.2927 2747.8349,-204.0552 2737.3692,-202.4063 2738.6252,-209.2927"/>
</g>
<!-- Node45 -->
<g id="node46" class="node">
<title>Node45</title>
<polygon fill="none" stroke="#bfbfbf" points="2517.1077,-112.5 2517.1077,-142.5 2681.1077,-142.5 2681.1077,-112.5 2517.1077,-112.5"/>
<text text-anchor="start" x="2525.1077" y="-130.5" font-family="Helvetica,sans-Serif" font-size="10.00" fill="#000000">Math/GenVector/Displacement</text>
<text text-anchor="middle" x="2599.1077" y="-119.5" font-family="Helvetica,sans-Serif" font-size="10.00" fill="#000000">Vector2D.h</text>
</g>
<!-- Node44&#45;&gt;Node45 -->
<g id="edge59" class="edge">
<title>Node44&#45;&gt;Node45</title>
<path fill="none" stroke="#191970" d="M2766.169,-184.9005C2736.5873,-174.7366 2689.1798,-158.4479 2652.41,-145.8141"/>
<polygon fill="#191970" stroke="#191970" points="2653.4224,-142.4612 2642.8278,-142.5218 2651.1478,-149.0813 2653.4224,-142.4612"/>
</g>
<!-- Node46 -->
<g id="node47" class="node">
<title>Node46</title>
<polygon fill="none" stroke="#bfbfbf" points="2699.6077,-118 2699.6077,-137 2888.6077,-137 2888.6077,-118 2699.6077,-118"/>
<text text-anchor="middle" x="2794.1077" y="-125" font-family="Helvetica,sans-Serif" font-size="10.00" fill="#000000">Math/GenVector/PositionVector2D.h</text>
</g>
<!-- Node44&#45;&gt;Node46 -->
<g id="edge60" class="edge">
<title>Node44&#45;&gt;Node46</title>
<path fill="none" stroke="#191970" d="M2794.1077,-184.9005C2794.1077,-175.149 2794.1077,-159.7597 2794.1077,-147.3695"/>
<polygon fill="#191970" stroke="#191970" points="2797.6078,-147.0816 2794.1077,-137.0817 2790.6078,-147.0817 2797.6078,-147.0816"/>
</g>
<!-- Node47&#45;&gt;Node23 -->
<g id="edge62" class="edge">
<title>Node47&#45;&gt;Node23</title>
<path fill="none" stroke="#191970" d="M885.5214,-251.9757C874.3451,-249.7713 862.3147,-247.6044 851.1077,-246 806.1671,-239.5664 474.7627,-243.4862 444.1077,-210 434.8044,-199.8375 435.8925,-190.0606 444.1077,-179 505.5604,-96.2631 564.262,-127.7883 666.1077,-112 938.9884,-69.6976 2875.6633,-95.5889 3151.1077,-76 3155.7974,-75.6665 3160.6369,-75.2417 3165.501,-74.7563"/>
<polygon fill="#191970" stroke="#191970" points="3165.9106,-78.2326 3175.4796,-73.6846 3165.163,-71.2726 3165.9106,-78.2326"/>
</g>
<!-- Node48 -->
<g id="node49" class="node">
<title>Node48</title>
<g id="a_node49"><a xlink:href="../../d2/d45/GPUCommonRtypes_8h.html" target="_top" xlink:title="GPUCommonRtypes.h">
<polygon fill="none" stroke="#000000" points="3154.6077,-185 3154.6077,-204 3279.6077,-204 3279.6077,-185 3154.6077,-185"/>
<text text-anchor="middle" x="3217.1077" y="-192" font-family="Helvetica,sans-Serif" font-size="10.00" fill="#000000">GPUCommonRtypes.h</text>
</a>
</g>
</g>
<!-- Node47&#45;&gt;Node48 -->
<g id="edge63" class="edge">
<title>Node47&#45;&gt;Node48</title>
<path fill="none" stroke="#191970" d="M969.2558,-251.992C981.0599,-249.5846 994.0426,-247.3116 1006.1077,-246 1450.0087,-197.7453 2569.0899,-231.09 3015.1077,-210 3058.0019,-207.9717 3105.9266,-204.3527 3144.3275,-201.1215"/>
<polygon fill="#191970" stroke="#191970" points="3144.7164,-204.6011 3154.3837,-200.2659 3144.1229,-197.6263 3144.7164,-204.6011"/>
</g>
<!-- Node48&#45;&gt;Node16 -->
<g id="edge64" class="edge">
<title>Node48&#45;&gt;Node16</title>
<path fill="none" stroke="#191970" d="M3154.5599,-188.0932C3122.7175,-185.0019 3083.3793,-181.4434 3048.1077,-179 2634.8576,-150.3721 2132.9849,-133.2656 1989.8943,-128.7247"/>
<polygon fill="#191970" stroke="#191970" points="1989.9382,-125.2244 1979.8328,-128.4074 1989.7175,-132.2209 1989.9382,-125.2244"/>
</g>
<!-- Node50&#45;&gt;Node7 -->
<g id="edge69" class="edge">
<title>Node50&#45;&gt;Node7</title>
<path fill="none" stroke="#191970" d="M1339.0343,-385.9548C1330.1022,-376.1167 1316.6004,-359.9994 1308.1077,-344 1286.6254,-303.5294 1292.2921,-288.8652 1276.1077,-246 1262.6609,-210.3855 1244.5882,-169.826 1233.9598,-146.5874"/>
<polygon fill="#191970" stroke="#191970" points="1237.0039,-144.8298 1229.6437,-137.209 1230.645,-147.7564 1237.0039,-144.8298"/>
</g>
<!-- Node51 -->
<g id="node52" class="node">
<title>Node51</title>
<polygon fill="none" stroke="#bfbfbf" points="1317.6077,-319 1317.6077,-338 1390.6077,-338 1390.6077,-319 1317.6077,-319"/>
<text text-anchor="middle" x="1354.1077" y="-326" font-family="Helvetica,sans-Serif" font-size="10.00" fill="#000000">TObjArray.h</text>
</g>
<!-- Node50&#45;&gt;Node51 -->
<g id="edge68" class="edge">
<title>Node50&#45;&gt;Node51</title>
<path fill="none" stroke="#191970" d="M1348.9674,-385.9005C1349.8406,-376.149 1351.2188,-360.7597 1352.3283,-348.3695"/>
<polygon fill="#191970" stroke="#191970" points="1355.8437,-348.354 1353.2496,-338.0817 1348.8716,-347.7296 1355.8437,-348.354"/>
</g>
<!-- Node52 -->
<g id="node53" class="node">
<title>Node52</title>
<g id="a_node53"><a xlink:href="../../d4/d20/DetMatrixCache_8h.html" target="_top" xlink:title="DetectorsCommonDataFormats\l/DetMatrixCache.h">
<polygon fill="none" stroke="#000000" points="1823.6077,-313.5 1823.6077,-343.5 1994.6077,-343.5 1994.6077,-313.5 1823.6077,-313.5"/>
<text text-anchor="start" x="1831.6077" y="-331.5" font-family="Helvetica,sans-Serif" font-size="10.00" fill="#000000">DetectorsCommonDataFormats</text>
<text text-anchor="middle" x="1909.1077" y="-320.5" font-family="Helvetica,sans-Serif" font-size="10.00" fill="#000000">/DetMatrixCache.h</text>
</a>
</g>
</g>
<!-- Node50&#45;&gt;Node52 -->
<g id="edge70" class="edge">
<title>Node50&#45;&gt;Node52</title>
<path fill="none" stroke="#191970" d="M1427.8895,-385.9717C1529.3874,-373.8498 1704.5158,-352.9343 1813.1831,-339.9562"/>
<polygon fill="#191970" stroke="#191970" points="1813.6474,-343.4257 1823.1618,-338.7645 1812.8173,-336.4751 1813.6474,-343.4257"/>
</g>
<!-- Node52&#45;&gt;Node1 -->
<g id="edge76" class="edge">
<title>Node52&#45;&gt;Node1</title>
<path fill="none" stroke="#191970" d="M1994.9854,-325.0834C2083.2625,-319.9981 2224.1002,-307.4892 2342.1077,-277 2344.7334,-276.3216 2347.4184,-275.5023 2350.0869,-274.599"/>
<polygon fill="#191970" stroke="#191970" points="2351.4043,-277.8431 2359.5441,-271.0612 2348.9517,-271.2868 2351.4043,-277.8431"/>
</g>
<!-- Node52&#45;&gt;Node6 -->
<g id="edge75" class="edge">
<title>Node52&#45;&gt;Node6</title>
<path fill="none" stroke="#191970" d="M1842.4555,-313.455C1752.4407,-290.3227 1609.9193,-242.01 1671.1077,-179 1718.6172,-130.0761 2832.0846,-160.0775 2898.1077,-143 2899.8246,-142.5559 2901.5546,-142.0004 2903.2707,-141.3659"/>
<polygon fill="#191970" stroke="#191970" points="2905.076,-144.3916 2912.7583,-137.0954 2902.2028,-138.0083 2905.076,-144.3916"/>
</g>
<!-- Node52&#45;&gt;Node15 -->
<g id="edge77" class="edge">
<title>Node52&#45;&gt;Node15</title>
<path fill="none" stroke="#191970" d="M1823.5737,-320.6172C1687.0347,-308.0339 1420.7071,-283.4892 1277.941,-270.332"/>
<polygon fill="#191970" stroke="#191970" points="1278.1579,-266.8372 1267.8789,-269.4046 1277.5155,-273.8077 1278.1579,-266.8372"/>
</g>
<!-- Node52&#45;&gt;Node37 -->
<g id="edge78" class="edge">
<title>Node52&#45;&gt;Node37</title>
<path fill="none" stroke="#191970" d="M1981.5952,-313.4639C2040.4815,-301.2491 2122.3284,-284.2716 2176.2249,-273.0918"/>
<polygon fill="#191970" stroke="#191970" points="2177.203,-276.4635 2186.2837,-271.0053 2175.7812,-269.6094 2177.203,-276.4635"/>
</g>
<!-- Node52&#45;&gt;Node48 -->
<g id="edge74" class="edge">
<title>Node52&#45;&gt;Node48</title>
<path fill="none" stroke="#191970" d="M1994.7597,-322.8786C2094.9506,-315.3643 2254.1255,-300.2348 2309.1077,-277 2329.5034,-268.381 2327.4066,-253.8573 2348.1077,-246 2486.8853,-193.3254 2866.9856,-219.6789 3015.1077,-210 3057.9584,-207.1999 3105.8811,-203.5452 3144.2918,-200.4879"/>
<polygon fill="#191970" stroke="#191970" points="3144.6617,-203.9696 3154.3509,-199.6837 3144.1037,-196.9919 3144.6617,-203.9696"/>
</g>
<!-- Node53 -->
<g id="node54" class="node">
<title>Node53</title>
<g id="a_node54"><a xlink:href="../../df/d5b/GPUCommonLogger_8h.html" target="_top" xlink:title="GPUCommonLogger.h">
<polygon fill="none" stroke="#000000" points="1400.6077,-252 1400.6077,-271 1523.6077,-271 1523.6077,-252 1400.6077,-252"/>
<text text-anchor="middle" x="1462.1077" y="-259" font-family="Helvetica,sans-Serif" font-size="10.00" fill="#000000">GPUCommonLogger.h</text>
</a>
</g>
</g>
<!-- Node52&#45;&gt;Node53 -->
<g id="edge71" class="edge">
<title>Node52&#45;&gt;Node53</title>
<path fill="none" stroke="#191970" d="M1823.4505,-315.661C1739.5071,-303.0789 1613.0018,-284.1172 1534.0996,-272.2907"/>
<polygon fill="#191970" stroke="#191970" points="1534.1764,-268.7632 1523.768,-270.7422 1533.1387,-275.6859 1534.1764,-268.7632"/>
</g>
<!-- Node54 -->
<g id="node55" class="node">
<title>Node54</title>
<polygon fill="none" stroke="#bfbfbf" points="1464.1077,-185 1464.1077,-204 1524.1077,-204 1524.1077,-185 1464.1077,-185"/>
<text text-anchor="middle" x="1494.1077" y="-192" font-family="Helvetica,sans-Serif" font-size="10.00" fill="#000000">iostream</text>
</g>
<!-- Node53&#45;&gt;Node54 -->
<g id="edge72" class="edge">
<title>Node53&#45;&gt;Node54</title>
<path fill="none" stroke="#191970" d="M1466.6925,-251.9005C1471.4925,-241.8505 1479.1526,-225.8122 1485.1571,-213.2403"/>
<polygon fill="#191970" stroke="#191970" points="1488.3798,-214.6137 1489.5314,-204.0817 1482.0633,-211.5968 1488.3798,-214.6137"/>
</g>
<!-- Node55 -->
<g id="node56" class="node">
<title>Node55</title>
<polygon fill="none" stroke="#bfbfbf" points="1400.1077,-185 1400.1077,-204 1446.1077,-204 1446.1077,-185 1400.1077,-185"/>
<text text-anchor="middle" x="1423.1077" y="-192" font-family="Helvetica,sans-Serif" font-size="10.00" fill="#000000">cstdio</text>
</g>
<!-- Node53&#45;&gt;Node55 -->
<g id="edge73" class="edge">
<title>Node53&#45;&gt;Node55</title>
<path fill="none" stroke="#191970" d="M1456.52,-251.9005C1450.612,-241.751 1441.149,-225.4941 1433.7995,-212.8679"/>
<polygon fill="#191970" stroke="#191970" points="1436.7407,-210.9634 1428.6851,-204.0817 1430.691,-214.4849 1436.7407,-210.9634"/>
</g>
<!-- Node57 -->
<g id="node58" class="node">
<title>Node57</title>
<g id="a_node58"><a xlink:href="../../d4/de2/BaseCluster_8h.html" target="_top" xlink:title="ReconstructionDataFormats\l/BaseCluster.h">
<polygon fill="none" stroke="#000000" points="2621.1077,-380.5 2621.1077,-410.5 2773.1077,-410.5 2773.1077,-380.5 2621.1077,-380.5"/>
<text text-anchor="start" x="2629.1077" y="-398.5" font-family="Helvetica,sans-Serif" font-size="10.00" fill="#000000">ReconstructionDataFormats</text>
<text text-anchor="middle" x="2697.1077" y="-387.5" font-family="Helvetica,sans-Serif" font-size="10.00" fill="#000000">/BaseCluster.h</text>
</a>
</g>
</g>
<!-- Node56&#45;&gt;Node57 -->
<g id="edge83" class="edge">
<title>Node56&#45;&gt;Node57</title>
<path fill="none" stroke="#191970" d="M2677.1206,-586.8054C2680.2466,-556.8853 2689.8128,-465.3224 2694.4849,-420.604"/>
<polygon fill="#191970" stroke="#191970" points="2697.9762,-420.8684 2695.5344,-410.5588 2691.0141,-420.141 2697.9762,-420.8684"/>
</g>
<!-- Node57&#45;&gt;Node5 -->
<g id="edge84" class="edge">
<title>Node57&#45;&gt;Node5</title>
<path fill="none" stroke="#191970" d="M2620.9547,-391.9129C2468.0857,-384.5221 2112.9857,-366.3975 1815.1077,-344 1734.1056,-337.9094 1166.1858,-295.5765 1087.1077,-277 1084.2529,-276.3294 1081.33,-275.4984 1078.4275,-274.5722"/>
<polygon fill="#191970" stroke="#191970" points="1079.3611,-271.1899 1068.7664,-271.1512 1077.0246,-277.7884 1079.3611,-271.1899"/>
</g>
<!-- Node57&#45;&gt;Node17 -->
<g id="edge85" class="edge">
<title>Node57&#45;&gt;Node17</title>
<path fill="none" stroke="#191970" d="M2620.8156,-387.5303C2558.3772,-379.5883 2476.3937,-365.4555 2451.1077,-344 2415.4873,-313.7757 2449.9494,-274.723 2413.1077,-246 2361.894,-206.0721 2185.2684,-228.7919 2123.1077,-210 2121.4446,-209.4972 2119.7622,-208.9107 2118.0862,-208.2656"/>
<polygon fill="#191970" stroke="#191970" points="2119.2926,-204.9717 2108.733,-204.1079 2116.4491,-211.3682 2119.2926,-204.9717"/>
</g>
<!-- Node57&#45;&gt;Node37 -->
<g id="edge90" class="edge">
<title>Node57&#45;&gt;Node37</title>
<path fill="none" stroke="#191970" d="M2621.051,-386.3808C2564.2907,-378.3979 2485.2798,-364.7791 2418.1077,-344 2359.3431,-325.8217 2294.466,-294.2034 2258.9799,-275.839"/>
<polygon fill="#191970" stroke="#191970" points="2260.2639,-272.561 2249.7798,-271.0329 2257.0227,-278.7654 2260.2639,-272.561"/>
</g>
<!-- Node57&#45;&gt;Node43 -->
<g id="edge88" class="edge">
<title>Node57&#45;&gt;Node43</title>
<path fill="none" stroke="#191970" d="M2727.8417,-380.4205C2745.0477,-371.1909 2766.3441,-358.4037 2783.1077,-344 2825.9672,-307.1741 2819.0332,-280.079 2864.1077,-246 2871.2871,-240.572 2916.3472,-221.3441 2948.3978,-207.9849"/>
<polygon fill="#191970" stroke="#191970" points="2949.9788,-211.1182 2957.8706,-204.0491 2947.293,-204.6539 2949.9788,-211.1182"/>
</g>
<!-- Node57&#45;&gt;Node52 -->
<g id="edge89" class="edge">
<title>Node57&#45;&gt;Node52</title>
<path fill="none" stroke="#191970" d="M2620.835,-389.0149C2476.3646,-376.7312 2163.1345,-350.0987 2004.8196,-336.6379"/>
<polygon fill="#191970" stroke="#191970" points="2004.8798,-333.1305 1994.6192,-335.7706 2004.2867,-340.1053 2004.8798,-333.1305"/>
</g>
<!-- Node58 -->
<g id="node59" class="node">
<title>Node58</title>
<polygon fill="none" stroke="#bfbfbf" points="2668.1077,-319 2668.1077,-338 2724.1077,-338 2724.1077,-319 2668.1077,-319"/>
<text text-anchor="middle" x="2696.1077" y="-326" font-family="Helvetica,sans-Serif" font-size="10.00" fill="#000000">iomanip</text>
</g>
<!-- Node57&#45;&gt;Node58 -->
<g id="edge86" class="edge">
<title>Node57&#45;&gt;Node58</title>
<path fill="none" stroke="#191970" d="M2696.8808,-380.2967C2696.7386,-370.7699 2696.5539,-358.3954 2696.4007,-348.1306"/>
<polygon fill="#191970" stroke="#191970" points="2699.8993,-348.0016 2696.2503,-338.055 2692.9,-348.1061 2699.8993,-348.0016"/>
</g>
<!-- Node59 -->
<g id="node60" class="node">
<title>Node59</title>
<polygon fill="none" stroke="#bfbfbf" points="2742.6077,-319 2742.6077,-338 2773.6077,-338 2773.6077,-319 2742.6077,-319"/>
<text text-anchor="middle" x="2758.1077" y="-326" font-family="Helvetica,sans-Serif" font-size="10.00" fill="#000000">ios</text>
</g>
<!-- Node57&#45;&gt;Node59 -->
<g id="edge87" class="edge">
<title>Node57&#45;&gt;Node59</title>
<path fill="none" stroke="#191970" d="M2710.9495,-380.2967C2720.3614,-369.9591 2732.826,-356.2684 2742.5766,-345.5588"/>
<polygon fill="#191970" stroke="#191970" points="2745.2642,-347.8057 2749.4084,-338.055 2740.0881,-343.0931 2745.2642,-347.8057"/>
</g>
<!-- Node60&#45;&gt;Node1 -->
<g id="edge92" class="edge">
<title>Node60&#45;&gt;Node1</title>
<path fill="none" stroke="#191970" d="M2867.2188,-648.1981C2846.2041,-628.144 2802.1077,-580.0417 2802.1077,-529.5 2802.1077,-529.5 2802.1077,-529.5 2802.1077,-395.5 2802.1077,-357.8735 2811.0007,-338.2534 2783.1077,-313 2769.4194,-300.6071 2508.4171,-274.0243 2413.9075,-264.7626"/>
<polygon fill="#191970" stroke="#191970" points="2414.0387,-261.2588 2403.7459,-263.7707 2413.3586,-268.2257 2414.0387,-261.2588"/>
</g>
<!-- Node61 -->
<g id="node62" class="node">
<title>Node61</title>
<g id="a_node62"><a xlink:href="../../d7/d8b/DataFormats_2Reconstruction_2include_2ReconstructionDataFormats_2Track_8h.html" target="_top" xlink:title="ReconstructionDataFormats\l/Track.h">
<polygon fill="none" stroke="#000000" points="3150.1077,-581.5 3150.1077,-611.5 3302.1077,-611.5 3302.1077,-581.5 3150.1077,-581.5"/>
<text text-anchor="start" x="3158.1077" y="-599.5" font-family="Helvetica,sans-Serif" font-size="10.00" fill="#000000">ReconstructionDataFormats</text>
<text text-anchor="middle" x="3226.1077" y="-588.5" font-family="Helvetica,sans-Serif" font-size="10.00" fill="#000000">/Track.h</text>
</a>
</g>
</g>
<!-- Node60&#45;&gt;Node61 -->
<g id="edge93" class="edge">
<title>Node60&#45;&gt;Node61</title>
<path fill="none" stroke="#191970" d="M2932.1009,-648.4581C2987.5532,-638.6583 3074.7108,-623.2555 3139.7538,-611.7608"/>
<polygon fill="#191970" stroke="#191970" points="3140.7564,-615.1379 3149.9947,-609.951 3139.5382,-608.2448 3140.7564,-615.1379"/>
</g>
<!-- Node70 -->
<g id="node71" class="node">
<title>Node70</title>
<g id="a_node71"><a xlink:href="../../de/d64/RangeReference_8h.html" target="_top" xlink:title="Class to refer to the 1st entry and N elements of some group in the continuous container. ">
<polygon fill="none" stroke="#000000" points="3058.1077,-252 3058.1077,-271 3268.1077,-271 3268.1077,-252 3058.1077,-252"/>
<text text-anchor="middle" x="3163.1077" y="-259" font-family="Helvetica,sans-Serif" font-size="10.00" fill="#000000">CommonDataFormat/RangeReference.h</text>
</a>
</g>
</g>
<!-- Node60&#45;&gt;Node70 -->
<g id="edge120" class="edge">
<title>Node60&#45;&gt;Node70</title>
<path fill="none" stroke="#191970" d="M2888.9966,-648.1981C2910.0113,-628.144 2954.1077,-580.0417 2954.1077,-529.5 2954.1077,-529.5 2954.1077,-529.5 2954.1077,-462.5 2954.1077,-366.4105 3070.2954,-301.8697 3129.4113,-275.2503"/>
<polygon fill="#191970" stroke="#191970" points="3130.9766,-278.3855 3138.7237,-271.1583 3128.1605,-271.9769 3130.9766,-278.3855"/>
</g>
<!-- Node62 -->
<g id="node63" class="node">
<title>Node62</title>
<g id="a_node63"><a xlink:href="../../d2/d98/TrackParametrization_8h.html" target="_top" xlink:title="ReconstructionDataFormats\l/TrackParametrization.h">
<polygon fill="none" stroke="#000000" points="3266.1077,-447.5 3266.1077,-477.5 3418.1077,-477.5 3418.1077,-447.5 3266.1077,-447.5"/>
<text text-anchor="start" x="3274.1077" y="-465.5" font-family="Helvetica,sans-Serif" font-size="10.00" fill="#000000">ReconstructionDataFormats</text>
<text text-anchor="middle" x="3342.1077" y="-454.5" font-family="Helvetica,sans-Serif" font-size="10.00" fill="#000000">/TrackParametrization.h</text>
</a>
</g>
</g>
<!-- Node61&#45;&gt;Node62 -->
<g id="edge94" class="edge">
<title>Node61&#45;&gt;Node62</title>
<path fill="none" stroke="#191970" d="M3225.9599,-581.2192C3226.5492,-563.3478 3229.9857,-533.7058 3245.1077,-514 3255.7327,-500.1543 3271.1609,-489.6257 3286.599,-481.8122"/>
<polygon fill="#191970" stroke="#191970" points="3288.1161,-484.9665 3295.6537,-477.521 3285.1182,-478.6409 3288.1161,-484.9665"/>
</g>
<!-- Node69 -->
<g id="node70" class="node">
<title>Node69</title>
<g id="a_node70"><a xlink:href="../../d3/d30/TrackParametrizationWithError_8h.html" target="_top" xlink:title="ReconstructionDataFormats\l/TrackParametrizationWithError.h">
<polygon fill="none" stroke="#000000" points="3254.1077,-514.5 3254.1077,-544.5 3430.1077,-544.5 3430.1077,-514.5 3254.1077,-514.5"/>
<text text-anchor="start" x="3262.1077" y="-532.5" font-family="Helvetica,sans-Serif" font-size="10.00" fill="#000000">ReconstructionDataFormats</text>
<text text-anchor="middle" x="3342.1077" y="-521.5" font-family="Helvetica,sans-Serif" font-size="10.00" fill="#000000">/TrackParametrizationWithError.h</text>
</a>
</g>
</g>
<!-- Node61&#45;&gt;Node69 -->
<g id="edge118" class="edge">
<title>Node61&#45;&gt;Node69</title>
<path fill="none" stroke="#191970" d="M3252.1404,-581.4639C3268.2951,-572.1332 3289.2615,-560.0232 3306.8897,-549.8415"/>
<polygon fill="#191970" stroke="#191970" points="3308.8517,-552.7501 3315.7606,-544.7177 3305.3506,-546.6885 3308.8517,-552.7501"/>
</g>
<!-- Node62&#45;&gt;Node6 -->
<g id="edge97" class="edge">
<title>Node62&#45;&gt;Node6</title>
<path fill="none" stroke="#191970" d="M3266.0899,-459.8577C3181.4915,-455.3439 3051.9465,-443.235 3016.1077,-411 2983.1825,-381.3855 2992.313,-356.9034 2998.1077,-313 3002.1424,-282.4314 3001.4729,-273.1393 3016.1077,-246 3026.2684,-227.1577 3040.5,-230.0098 3048.1077,-210 3053.0041,-197.1216 3055.6894,-190.5042 3048.1077,-179 3028.5526,-149.3277 2987.9548,-136.6841 2959.4149,-131.3404"/>
<polygon fill="#191970" stroke="#191970" points="2959.9474,-127.8809 2949.5071,-129.6839 2958.7931,-134.7851 2959.9474,-127.8809"/>
</g>
<!-- Node62&#45;&gt;Node7 -->
<g id="edge103" class="edge">
<title>Node62&#45;&gt;Node7</title>
<path fill="none" stroke="#191970" d="M3265.7181,-456.5397C3167.6848,-448.1083 3008.0311,-431.4265 2990.1077,-411 2941.6687,-355.7964 2978.5863,-316.517 2999.1077,-246 3007.6622,-216.6044 3036.5332,-200.8685 3015.1077,-179 2980.9058,-144.091 1303.5543,-154.7144 1256.1077,-143 1254.1799,-142.524 1252.234,-141.9132 1250.3067,-141.2102"/>
<polygon fill="#191970" stroke="#191970" points="1251.5586,-137.9375 1240.995,-137.1247 1248.7461,-144.3476 1251.5586,-137.9375"/>
</g>
<!-- Node62&#45;&gt;Node21 -->
<g id="edge105" class="edge">
<title>Node62&#45;&gt;Node21</title>
<path fill="none" stroke="#191970" d="M3387.1331,-447.4943C3469.1783,-419.8783 3636.5912,-362.1676 3658.1077,-344 3684.4336,-321.7715 3688.131,-310.2653 3697.1077,-277 3700.6973,-263.698 3705.7101,-256.7622 3697.1077,-246 3686.4954,-232.7232 3592.1223,-214.7671 3528.1667,-203.9426"/>
<polygon fill="#191970" stroke="#191970" points="3528.622,-200.4702 3518.1809,-202.2684 3527.4645,-207.3739 3528.622,-200.4702"/>
</g>
<!-- Node62&#45;&gt;Node22 -->
<g id="edge99" class="edge">
<title>Node62&#45;&gt;Node22</title>
<path fill="none" stroke="#191970" d="M3418.1981,-459.7643C3541.6351,-454.5168 3779.6257,-440.8065 3858.1077,-411 3916.5755,-388.7947 3972.1077,-391.0424 3972.1077,-328.5 3972.1077,-328.5 3972.1077,-328.5 3972.1077,-194.5 3972.1077,-154.1307 3966.7609,-135.7371 3934.1077,-112 3905.6696,-91.3271 3668.8187,-73.9686 3579.7737,-68.1147"/>
<polygon fill="#191970" stroke="#191970" points="3579.8771,-64.6141 3569.6712,-67.4584 3579.4233,-71.5994 3579.8771,-64.6141"/>
</g>
<!-- Node62&#45;&gt;Node27 -->
<g id="edge96" class="edge">
<title>Node62&#45;&gt;Node27</title>
<path fill="none" stroke="#191970" d="M3265.9795,-459.8737C3188.5847,-455.412 3076.2978,-443.3861 3049.1077,-411 3001.9547,-354.8362 3034.7259,-317.9092 3049.1077,-246 3052.507,-229.0033 3058.1317,-226.2706 3064.1077,-210 3080.3234,-165.8506 3096.3785,-112.9455 3104.5512,-85.1793"/>
<polygon fill="#191970" stroke="#191970" points="3107.9254,-86.1105 3107.371,-75.5301 3101.2064,-84.1469 3107.9254,-86.1105"/>
</g>
<!-- Node62&#45;&gt;Node28 -->
<g id="edge104" class="edge">
<title>Node62&#45;&gt;Node28</title>
<path fill="none" stroke="#191970" d="M3418.2413,-458.0721C3545.4591,-450.1274 3790.672,-432.279 3824.1077,-411 3893.0275,-367.1383 3932.3854,-323.0046 3905.1077,-246 3889.9237,-203.1359 3851.9035,-164.4493 3828.523,-143.6282"/>
<polygon fill="#191970" stroke="#191970" points="3830.7706,-140.9445 3820.925,-137.031 3826.1812,-146.2301 3830.7706,-140.9445"/>
</g>
<!-- Node62&#45;&gt;Node31 -->
<g id="edge100" class="edge">
<title>Node62&#45;&gt;Node31</title>
<path fill="none" stroke="#191970" d="M3360.1994,-447.3413C3369.8966,-437.9968 3380.8966,-425.1218 3386.1077,-411 3390.8775,-398.0742 3386.7228,-393.764 3386.1077,-380 3383.3788,-318.9325 3387.9662,-297.5462 3355.1077,-246 3343.8736,-228.3766 3308.3114,-187.2467 3289.1077,-179 3188.7821,-135.9171 1430.5884,-167.1498 1324.1077,-143 1321.759,-142.4673 1319.3764,-141.7631 1317.0193,-140.9484"/>
<polygon fill="#191970" stroke="#191970" points="1318.2061,-137.6529 1307.6241,-137.1332 1315.5724,-144.1385 1318.2061,-137.6529"/>
</g>
<!-- Node62&#45;&gt;Node43 -->
<g id="edge101" class="edge">
<title>Node62&#45;&gt;Node43</title>
<path fill="none" stroke="#191970" d="M3265.7726,-458.9965C3146.1922,-452.7167 2925.817,-437.6462 2902.1077,-411 2853.3604,-356.2143 2867.1725,-310.4772 2902.1077,-246 2911.692,-228.311 2930.2776,-215.7377 2947.0147,-207.4446"/>
<polygon fill="#191970" stroke="#191970" points="2948.9498,-210.4072 2956.5737,-203.0501 2946.0259,-204.0471 2948.9498,-210.4072"/>
</g>
<!-- Node62&#45;&gt;Node48 -->
<g id="edge95" class="edge">
<title>Node62&#45;&gt;Node48</title>
<path fill="none" stroke="#191970" d="M3353.5103,-447.1784C3360.0696,-437.3846 3367.6725,-424.1017 3371.1077,-411 3386.1049,-353.8019 3346.0649,-260.9337 3333.1077,-246 3316.8181,-227.2255 3292.3604,-214.997 3270.0963,-207.1911"/>
<polygon fill="#191970" stroke="#191970" points="3270.9826,-203.7985 3260.3898,-204.0094 3268.8021,-210.4502 3270.9826,-203.7985"/>
</g>
<!-- Node62&#45;&gt;Node57 -->
<g id="edge102" class="edge">
<title>Node62&#45;&gt;Node57</title>
<path fill="none" stroke="#191970" d="M3265.9034,-454.5842C3145.0029,-442.0255 2909.98,-417.6123 2783.1773,-404.4406"/>
<polygon fill="#191970" stroke="#191970" points="2783.426,-400.9477 2773.1179,-403.3956 2782.7027,-407.9102 2783.426,-400.9477"/>
</g>
<!-- Node63 -->
<g id="node64" class="node">
<title>Node63</title>
<polygon fill="none" stroke="#bfbfbf" points="3590.1077,-386 3590.1077,-405 3634.1077,-405 3634.1077,-386 3590.1077,-386"/>
<text text-anchor="middle" x="3612.1077" y="-393" font-family="Helvetica,sans-Serif" font-size="10.00" fill="#000000">cfloat</text>
</g>
<!-- Node62&#45;&gt;Node63 -->
<g id="edge98" class="edge">
<title>Node62&#45;&gt;Node63</title>
<path fill="none" stroke="#191970" d="M3418.1612,-449.554C3464.41,-440.7504 3524.3384,-427.6745 3576.1077,-411 3578.2127,-410.322 3580.3635,-409.5663 3582.5145,-408.7636"/>
<polygon fill="#191970" stroke="#191970" points="3583.8256,-412.0088 3591.8047,-405.0385 3581.2204,-405.5117 3583.8256,-412.0088"/>
</g>
<!-- Node64 -->
<g id="node65" class="node">
<title>Node64</title>
<g id="a_node65"><a xlink:href="../../d8/d77/Primitive2D_8h.html" target="_top" xlink:title="Declarations of 2D primitives: straight line (XY interval) and circle. ">
<polygon fill="none" stroke="#000000" points="3228.6077,-386 3228.6077,-405 3361.6077,-405 3361.6077,-386 3228.6077,-386"/>
<text text-anchor="middle" x="3295.1077" y="-393" font-family="Helvetica,sans-Serif" font-size="10.00" fill="#000000">MathUtils/Primitive2D.h</text>
</a>
</g>
</g>
<!-- Node62&#45;&gt;Node64 -->
<g id="edge106" class="edge">
<title>Node62&#45;&gt;Node64</title>
<path fill="none" stroke="#191970" d="M3331.4427,-447.2967C3324.4042,-437.2631 3315.15,-424.0709 3307.7425,-413.5113"/>
<polygon fill="#191970" stroke="#191970" points="3310.4186,-411.2316 3301.8104,-405.055 3304.688,-415.2516 3310.4186,-411.2316"/>
</g>
<!-- Node65 -->
<g id="node66" class="node">
<title>Node65</title>
<g id="a_node66"><a xlink:href="../../d5/d08/DataFormats_2Reconstruction_2include_2ReconstructionDataFormats_2PID_8h.html" target="_top" xlink:title="ReconstructionDataFormats\l/PID.h">
<polygon fill="none" stroke="#000000" points="3058.1077,-380.5 3058.1077,-410.5 3210.1077,-410.5 3210.1077,-380.5 3058.1077,-380.5"/>
<text text-anchor="start" x="3066.1077" y="-398.5" font-family="Helvetica,sans-Serif" font-size="10.00" fill="#000000">ReconstructionDataFormats</text>
<text text-anchor="middle" x="3134.1077" y="-387.5" font-family="Helvetica,sans-Serif" font-size="10.00" fill="#000000">/PID.h</text>
</a>
</g>
</g>
<!-- Node62&#45;&gt;Node65 -->
<g id="edge108" class="edge">
<title>Node62&#45;&gt;Node65</title>
<path fill="none" stroke="#191970" d="M3295.4284,-447.4639C3264.4925,-437.499 3223.7161,-424.3642 3190.8997,-413.7936"/>
<polygon fill="#191970" stroke="#191970" points="3191.5821,-410.3363 3180.9906,-410.6017 3189.4358,-416.9992 3191.5821,-410.3363"/>
</g>
<!-- Node67 -->
<g id="node68" class="node">
<title>Node67</title>
<g id="a_node68"><a xlink:href="../../d2/d97/TrackUtils_8h.html" target="_top" xlink:title="ReconstructionDataFormats\l/TrackUtils.h">
<polygon fill="none" stroke="#000000" points="3744.1077,-246.5 3744.1077,-276.5 3896.1077,-276.5 3896.1077,-246.5 3744.1077,-246.5"/>
<text text-anchor="start" x="3752.1077" y="-264.5" font-family="Helvetica,sans-Serif" font-size="10.00" fill="#000000">ReconstructionDataFormats</text>
<text text-anchor="middle" x="3820.1077" y="-253.5" font-family="Helvetica,sans-Serif" font-size="10.00" fill="#000000">/TrackUtils.h</text>
</a>
</g>
</g>
<!-- Node62&#45;&gt;Node67 -->
<g id="edge111" class="edge">
<title>Node62&#45;&gt;Node67</title>
<path fill="none" stroke="#191970" d="M3418.3483,-459.0274C3541.7985,-452.6637 3774.4061,-437.3125 3801.1077,-411 3833.8987,-378.6869 3830.5891,-320.1659 3825.3139,-286.7295"/>
<polygon fill="#191970" stroke="#191970" points="3828.7508,-286.0647 3823.5754,-276.82 3821.8561,-287.2744 3828.7508,-286.0647"/>
</g>
<!-- Node68 -->
<g id="node69" class="node">
<title>Node68</title>
<g id="a_node69"><a xlink:href="../../d1/da8/GPUROOTCartesianFwd_8h.html" target="_top" xlink:title="GPUROOTCartesianFwd.h">
<polygon fill="none" stroke="#000000" points="3652.1077,-386 3652.1077,-405 3792.1077,-405 3792.1077,-386 3652.1077,-386"/>
<text text-anchor="middle" x="3722.1077" y="-393" font-family="Helvetica,sans-Serif" font-size="10.00" fill="#000000">GPUROOTCartesianFwd.h</text>
</a>
</g>
</g>
<!-- Node62&#45;&gt;Node68 -->
<g id="edge117" class="edge">
<title>Node62&#45;&gt;Node68</title>
<path fill="none" stroke="#191970" d="M3418.2778,-449.9927C3479.1831,-439.8654 3566.716,-425.0272 3643.1077,-411 3650.1015,-409.7158 3657.4355,-408.3299 3664.6983,-406.9333"/>
<polygon fill="#191970" stroke="#191970" points="3665.3675,-410.3689 3674.5194,-405.031 3664.0363,-403.4966 3665.3675,-410.3689"/>
</g>
<!-- Node64&#45;&gt;Node48 -->
<g id="edge107" class="edge">
<title>Node64&#45;&gt;Node48</title>
<path fill="none" stroke="#191970" d="M3303.8397,-385.7158C3311.9265,-375.9452 3323.3915,-360.1016 3328.1077,-344 3340.5556,-301.5013 3337.3905,-280.8817 3310.1077,-246 3296.4897,-228.5891 3275.2588,-216.1972 3256.5187,-207.939"/>
<polygon fill="#191970" stroke="#191970" points="3257.86,-204.7063 3247.2824,-204.103 3255.1751,-211.1709 3257.86,-204.7063"/>
</g>
<!-- Node65&#45;&gt;Node48 -->
<g id="edge109" class="edge">
<title>Node65&#45;&gt;Node48</title>
<path fill="none" stroke="#191970" d="M3208.9415,-380.4823C3245.654,-371.4398 3284.2929,-358.814 3295.1077,-344 3310.6159,-322.7571 3284.2392,-257.3252 3277.1077,-246 3268.1019,-231.6982 3253.8809,-219.2412 3241.544,-210.1624"/>
<polygon fill="#191970" stroke="#191970" points="3243.193,-207.0441 3232.9952,-204.1706 3239.1753,-212.7763 3243.193,-207.0441"/>
</g>
<!-- Node66 -->
<g id="node67" class="node">
<title>Node66</title>
<g id="a_node67"><a xlink:href="../../d3/d9d/PhysicsConstants_8h.html" target="_top" xlink:title="Header to collect physics constants. ">
<polygon fill="none" stroke="#000000" points="3078.6077,-319 3078.6077,-338 3285.6077,-338 3285.6077,-319 3078.6077,-319"/>
<text text-anchor="middle" x="3182.1077" y="-326" font-family="Helvetica,sans-Serif" font-size="10.00" fill="#000000">CommonConstants/PhysicsConstants.h</text>
</a>
</g>
</g>
<!-- Node65&#45;&gt;Node66 -->
<g id="edge110" class="edge">
<title>Node65&#45;&gt;Node66</title>
<path fill="none" stroke="#191970" d="M3144.9996,-380.2967C3152.2604,-370.1618 3161.8302,-356.804 3169.4327,-346.1921"/>
<polygon fill="#191970" stroke="#191970" points="3172.2837,-348.2225 3175.2623,-338.055 3166.5933,-344.1458 3172.2837,-348.2225"/>
</g>
<!-- Node67&#45;&gt;Node6 -->
<g id="edge113" class="edge">
<title>Node67&#45;&gt;Node6</title>
<path fill="none" stroke="#191970" d="M3743.9967,-251.9071C3728.482,-249.9521 3712.2693,-247.9095 3697.1077,-246 3569.9977,-229.9911 3530.3224,-256.9158 3411.1077,-210 3389.1845,-201.3723 3390.0682,-187.5322 3368.1077,-179 3293.0947,-149.8556 3046.6922,-133.9454 2959.2381,-129.1081"/>
<polygon fill="#191970" stroke="#191970" points="2959.3238,-125.6077 2949.1488,-128.5605 2958.9443,-132.5974 2959.3238,-125.6077"/>
</g>
<!-- Node67&#45;&gt;Node21 -->
<g id="edge115" class="edge">
<title>Node67&#45;&gt;Node21</title>
<path fill="none" stroke="#191970" d="M3743.9459,-246.962C3679.1424,-234.5921 3587.395,-217.079 3528.0683,-205.7546"/>
<polygon fill="#191970" stroke="#191970" points="3528.5879,-202.2906 3518.109,-203.8535 3527.2753,-209.1665 3528.5879,-202.2906"/>
</g>
<!-- Node67&#45;&gt;Node22 -->
<g id="edge114" class="edge">
<title>Node67&#45;&gt;Node22</title>
<path fill="none" stroke="#191970" d="M3842.2794,-246.4388C3881.2115,-218.2223 3954.1902,-156.2571 3915.1077,-112 3893.0584,-87.0313 3666.7173,-72.4236 3579.8232,-67.6998"/>
<polygon fill="#191970" stroke="#191970" points="3579.8753,-64.1977 3569.7031,-67.1603 3579.5026,-71.1878 3579.8753,-64.1977"/>
</g>
<!-- Node67&#45;&gt;Node28 -->
<g id="edge116" class="edge">
<title>Node67&#45;&gt;Node28</title>
<path fill="none" stroke="#191970" d="M3818.8672,-246.389C3816.8712,-222.0735 3812.9466,-174.2644 3810.7306,-147.2698"/>
<polygon fill="#191970" stroke="#191970" points="3814.2026,-146.7843 3809.8961,-137.1042 3807.2261,-147.357 3814.2026,-146.7843"/>
</g>
<!-- Node67&#45;&gt;Node48 -->
<g id="edge112" class="edge">
<title>Node67&#45;&gt;Node48</title>
<path fill="none" stroke="#191970" d="M3744.0231,-251.6892C3728.5064,-249.7511 3712.2862,-247.7705 3697.1077,-246 3552.7315,-229.1594 3383.6753,-211.5003 3289.6411,-201.8608"/>
<polygon fill="#191970" stroke="#191970" points="3289.9702,-198.3763 3279.6657,-200.8395 3289.2571,-205.3399 3289.9702,-198.3763"/>
</g>
<!-- Node69&#45;&gt;Node62 -->
<g id="edge119" class="edge">
<title>Node69&#45;&gt;Node62</title>
<path fill="none" stroke="#191970" d="M3342.1077,-514.2967C3342.1077,-506.5013 3342.1077,-496.7991 3342.1077,-487.9064"/>
<polygon fill="#191970" stroke="#191970" points="3345.6078,-487.6431 3342.1077,-477.6432 3338.6078,-487.6432 3345.6078,-487.6431"/>
</g>
<!-- Node70&#45;&gt;Node48 -->
<g id="edge121" class="edge">
<title>Node70&#45;&gt;Node48</title>
<path fill="none" stroke="#191970" d="M3170.8446,-251.9005C3179.1852,-241.552 3192.6431,-224.8542 3202.8989,-212.1295"/>
<polygon fill="#191970" stroke="#191970" points="3205.835,-214.064 3209.3852,-204.0817 3200.3848,-209.6713 3205.835,-214.064"/>
</g>
<!-- Node71&#45;&gt;Node70 -->
<g id="edge123" class="edge">
<title>Node71&#45;&gt;Node70</title>
<path fill="none" stroke="#191970" d="M3502.7911,-318.9717C3430.7552,-306.7838 3306.1769,-285.7062 3229.5696,-272.7448"/>
<polygon fill="#191970" stroke="#191970" points="3229.994,-269.267 3219.5503,-271.0496 3228.8262,-276.1689 3229.994,-269.267"/>
</g>
<!-- Node72 -->
<g id="node73" class="node">
<title>Node72</title>
<g id="a_node73"><a xlink:href="../../d9/d80/InteractionRecord_8h.html" target="_top" xlink:title="CommonDataFormat/Interaction\lRecord.h">
<polygon fill="none" stroke="#000000" points="3438.1077,-246.5 3438.1077,-276.5 3612.1077,-276.5 3612.1077,-246.5 3438.1077,-246.5"/>
<text text-anchor="start" x="3446.1077" y="-264.5" font-family="Helvetica,sans-Serif" font-size="10.00" fill="#000000">CommonDataFormat/Interaction</text>
<text text-anchor="middle" x="3525.1077" y="-253.5" font-family="Helvetica,sans-Serif" font-size="10.00" fill="#000000">Record.h</text>
</a>
</g>
</g>
<!-- Node71&#45;&gt;Node72 -->
<g id="edge124" class="edge">
<title>Node71&#45;&gt;Node72</title>
<path fill="none" stroke="#191970" d="M3554.2363,-318.9005C3549.8467,-310.2503 3543.2058,-297.164 3537.373,-285.6699"/>
<polygon fill="#191970" stroke="#191970" points="3540.3772,-283.8554 3532.7307,-276.5218 3534.1349,-287.0231 3540.3772,-283.8554"/>
</g>
<!-- Node74 -->
<g id="node75" class="node">
<title>Node74</title>
<polygon fill="none" stroke="#bfbfbf" points="3630.6077,-252 3630.6077,-271 3687.6077,-271 3687.6077,-252 3630.6077,-252"/>
<text text-anchor="middle" x="3659.1077" y="-259" font-family="Helvetica,sans-Serif" font-size="10.00" fill="#000000">gsl/span</text>
</g>
<!-- Node71&#45;&gt;Node74 -->
<g id="edge130" class="edge">
<title>Node71&#45;&gt;Node74</title>
<path fill="none" stroke="#191970" d="M3573.4353,-318.9005C3589.8462,-307.9052 3616.9552,-289.7422 3636.2828,-276.7927"/>
<polygon fill="#191970" stroke="#191970" points="3638.4472,-279.5556 3644.8067,-271.0817 3634.5508,-273.7402 3638.4472,-279.5556"/>
</g>
<!-- Node72&#45;&gt;Node19 -->
<g id="edge127" class="edge">
<title>Node72&#45;&gt;Node19</title>
<path fill="none" stroke="#191970" d="M3461.7926,-246.4695C3432.2721,-238.043 3397.2998,-225.9716 3368.1077,-210 3348.9866,-199.5384 3350.5458,-186.5728 3330.1077,-179 3256.2138,-151.6207 1990.8828,-145.102 1912.1077,-143 1716.1312,-137.7707 1481.1725,-131.0468 1393.4281,-128.5199"/>
<polygon fill="#191970" stroke="#191970" points="1393.3274,-125.0157 1383.2307,-128.2261 1393.1257,-132.0128 1393.3274,-125.0157"/>
</g>
<!-- Node72&#45;&gt;Node22 -->
<g id="edge128" class="edge">
<title>Node72&#45;&gt;Node22</title>
<path fill="none" stroke="#191970" d="M3526.7207,-246.4841C3530.462,-211.654 3539.7328,-125.3473 3543.9533,-86.0563"/>
<polygon fill="#191970" stroke="#191970" points="3547.4572,-86.2065 3545.0454,-75.8898 3540.4973,-85.4588 3547.4572,-86.2065"/>
</g>
<!-- Node72&#45;&gt;Node43 -->
<g id="edge126" class="edge">
<title>Node72&#45;&gt;Node43</title>
<path fill="none" stroke="#191970" d="M3438.0064,-250.7725C3315.9589,-235.7409 3099.6009,-209.0938 3015.7014,-198.7606"/>
<polygon fill="#191970" stroke="#191970" points="3016.0338,-195.2752 3005.681,-197.5265 3015.1781,-202.2227 3016.0338,-195.2752"/>
</g>
<!-- Node72&#45;&gt;Node48 -->
<g id="edge125" class="edge">
<title>Node72&#45;&gt;Node48</title>
<path fill="none" stroke="#191970" d="M3455.9865,-246.4639C3399.9516,-234.2745 3322.1133,-217.3421 3270.7162,-206.1616"/>
<polygon fill="#191970" stroke="#191970" points="3271.3191,-202.711 3260.8036,-204.0053 3269.8311,-209.551 3271.3191,-202.711"/>
</g>
<!-- Node73 -->
<g id="node74" class="node">
<title>Node73</title>
<g id="a_node74"><a xlink:href="../../d4/dc6/LHCConstants_8h.html" target="_top" xlink:title="Header to collect LHC related constants. ">
<polygon fill="none" stroke="#000000" points="3574.1077,-185 3574.1077,-204 3764.1077,-204 3764.1077,-185 3574.1077,-185"/>
<text text-anchor="middle" x="3669.1077" y="-192" font-family="Helvetica,sans-Serif" font-size="10.00" fill="#000000">CommonConstants/LHCConstants.h</text>
</a>
</g>
</g>
<!-- Node72&#45;&gt;Node73 -->
<g id="edge129" class="edge">
<title>Node72&#45;&gt;Node73</title>
<path fill="none" stroke="#191970" d="M3557.4241,-246.4639C3581.912,-235.0702 3615.3062,-219.5327 3639.1861,-208.4219"/>
<polygon fill="#191970" stroke="#191970" points="3640.8763,-211.4958 3648.4664,-204.1039 3637.9233,-205.1492 3640.8763,-211.4958"/>
</g>
<!-- Node75&#45;&gt;Node6 -->
<g id="edge136" class="edge">
<title>Node75&#45;&gt;Node6</title>
<path fill="none" stroke="#191970" d="M2539.4092,-313.4597C2544.4497,-294.3751 2556.0161,-262.019 2579.1077,-246 2686.547,-171.4677 2759.2525,-277.7251 2871.1077,-210 2895.3445,-195.3253 2911.8022,-165.9654 2920.576,-146.5233"/>
<polygon fill="#191970" stroke="#191970" points="2923.8717,-147.7169 2924.5626,-137.1446 2917.4295,-144.9785 2923.8717,-147.7169"/>
</g>
<!-- Node75&#45;&gt;Node37 -->
<g id="edge132" class="edge">
<title>Node75&#45;&gt;Node37</title>
<path fill="none" stroke="#191970" d="M2467.8842,-313.4639C2412.577,-301.2745 2335.7496,-284.3421 2285.02,-273.1616"/>
<polygon fill="#191970" stroke="#191970" points="2285.7551,-269.7397 2275.2362,-271.0053 2284.2485,-276.5756 2285.7551,-269.7397"/>
</g>
<!-- Node75&#45;&gt;Node43 -->
<g id="edge137" class="edge">
<title>Node75&#45;&gt;Node43</title>
<path fill="none" stroke="#191970" d="M2612.2594,-314.3895C2679.2145,-301.7037 2768.4002,-284.0201 2784.1077,-277 2805.2892,-267.5334 2805.4057,-256.4737 2826.1077,-246 2874.2752,-221.6307 2891.2096,-227.9821 2942.1077,-210 2944.0141,-209.3265 2945.9654,-208.6169 2947.9296,-207.8869"/>
<polygon fill="#191970" stroke="#191970" points="2949.6226,-210.9863 2957.7083,-204.14 2947.118,-204.4497 2949.6226,-210.9863"/>
</g>
<!-- Node76 -->
<g id="node77" class="node">
<title>Node76</title>
<g id="a_node77"><a xlink:href="../../df/d5d/common_2include_2CommonDataFormat_2TimeStamp_8h.html" target="_top" xlink:title="CommonDataFormat/TimeStamp.h">
<polygon fill="none" stroke="#000000" points="2587.6077,-252 2587.6077,-271 2774.6077,-271 2774.6077,-252 2587.6077,-252"/>
<text text-anchor="middle" x="2681.1077" y="-259" font-family="Helvetica,sans-Serif" font-size="10.00" fill="#000000">CommonDataFormat/TimeStamp.h</text>
</a>
</g>
</g>
<!-- Node75&#45;&gt;Node76 -->
<g id="edge133" class="edge">
<title>Node75&#45;&gt;Node76</title>
<path fill="none" stroke="#191970" d="M2568.6485,-313.4639C2593.3064,-302.0702 2626.9325,-286.5327 2650.9783,-275.4219"/>
<polygon fill="#191970" stroke="#191970" points="2652.7134,-278.4757 2660.3231,-271.1039 2649.7772,-272.1213 2652.7134,-278.4757"/>
</g>
<!-- Node76&#45;&gt;Node23 -->
<g id="edge135" class="edge">
<title>Node76&#45;&gt;Node23</title>
<path fill="none" stroke="#191970" d="M2747.6463,-251.9536C2792.0429,-244.1254 2851.048,-230.8696 2900.1077,-210 2923.4768,-200.059 2925.5572,-190.6797 2948.1077,-179 3031.4021,-135.8588 3135.0652,-97.9699 3190.2596,-78.9631"/>
<polygon fill="#191970" stroke="#191970" points="3191.6564,-82.1845 3199.9858,-75.6368 3189.3912,-75.5611 3191.6564,-82.1845"/>
</g>
<!-- Node76&#45;&gt;Node48 -->
<g id="edge134" class="edge">
<title>Node76&#45;&gt;Node48</title>
<path fill="none" stroke="#191970" d="M2757.3342,-251.9717C2860.4428,-239.0831 3043.0817,-216.2533 3144.3631,-203.5931"/>
<polygon fill="#191970" stroke="#191970" points="3145.0152,-207.0389 3154.5038,-202.3255 3144.1469,-200.0929 3145.0152,-207.0389"/>
</g>
</g>
</svg>
