<?xml version="1.0" encoding="UTF-8" standalone="no"?>
<!DOCTYPE svg PUBLIC "-//W3C//DTD SVG 1.1//EN"
 "http://www.w3.org/Graphics/SVG/1.1/DTD/svg11.dtd">
<!-- Generated by graphviz version 2.40.1 (20161225.0304)
 -->
<!-- Title: /home/travis/build/AliceO2Group/AliceO2/Detectors/HMPID/base/src/Digit.cxx Pages: 1 -->
<!--zoomable 430 -->
<svg id="main" version="1.1" xmlns="http://www.w3.org/2000/svg" xmlns:xlink="http://www.w3.org/1999/xlink" xml:space="preserve" onload="init(evt)">
<style type="text/css"><![CDATA[
.edge:hover path { stroke: red; }
.edge:hover polygon { stroke: red; fill: red; }
]]></style>
<script type="text/javascript"><![CDATA[
var edges = document.getElementsByTagName('g');
if (edges && edges.length) {
  for (var i=0;i<edges.length;i++) {
    if (edges[i].id.substr(0,4)=='edge') {
      edges[i].setAttribute('class','edge');
    }
  }
}
]]></script>
        <defs>
                <circle id="rim" cx="0" cy="0" r="7"/>
                <circle id="rim2" cx="0" cy="0" r="3.5"/>
                <g id="zoomPlus">
                        <use xlink:href="#rim" fill="#404040">
                                <set attributeName="fill" to="#808080" begin="zoomplus.mouseover" end="zoomplus.mouseout"/>
                        </use>
                        <path d="M-4,0h8M0,-4v8" fill="none" stroke="white" stroke-width="1.5" pointer-events="none"/>
                </g>
                <g id="zoomMin">
                        <use xlink:href="#rim" fill="#404040">
                                <set attributeName="fill" to="#808080" begin="zoomminus.mouseover" end="zoomminus.mouseout"/>
                        </use>
                        <path d="M-4,0h8" fill="none" stroke="white" stroke-width="1.5" pointer-events="none"/>
                </g>
                <g id="dirArrow">
                        <path fill="none" stroke="white" stroke-width="1.5" d="M0,-3.0v7 M-2.5,-0.5L0,-3.0L2.5,-0.5"/>
                </g>
               <g id="resetDef">
                       <use xlink:href="#rim2" fill="#404040">
                               <set attributeName="fill" to="#808080" begin="reset.mouseover" end="reset.mouseout"/>
                       </use>
               </g>
        </defs>

<script type="text/javascript">
var viewWidth = 1906;
var viewHeight = 430;
var sectionId = 'dynsection-0';
</script>
<script xlink:href="../../svgpan.js"/>
<svg id="graph" class="graph">
<g id="viewport">
<title>/home/travis/build/AliceO2Group/AliceO2/Detectors/HMPID/base/src/Digit.cxx</title>
<!-- Node0 -->
<g id="node1" class="node">
<title>Node0</title>
<polygon fill="#bfbfbf" stroke="#000000" points="1425,-369.5 1425,-421.5 1553,-421.5 1553,-369.5 1425,-369.5"/>
<text text-anchor="start" x="1433" y="-409.5" font-family="Helvetica,sans-Serif" font-size="10.00" fill="#000000">/home/travis/build</text>
<text text-anchor="start" x="1433" y="-398.5" font-family="Helvetica,sans-Serif" font-size="10.00" fill="#000000">/AliceO2Group/AliceO2</text>
<text text-anchor="start" x="1433" y="-387.5" font-family="Helvetica,sans-Serif" font-size="10.00" fill="#000000">/Detectors/HMPID/base</text>
<text text-anchor="middle" x="1489" y="-376.5" font-family="Helvetica,sans-Serif" font-size="10.00" fill="#000000">/src/Digit.cxx</text>
</g>
<!-- Node1 -->
<g id="node2" class="node">
<title>Node1</title>
<g id="a_node2"><a xlink:href="../../da/d3c/Detectors_2HMPID_2base_2include_2HMPIDBase_2Digit_8h.html" target="_top" xlink:title="HMPIDBase/Digit.h">
<polygon fill="none" stroke="#000000" points="1334,-313.5 1334,-332.5 1442,-332.5 1442,-313.5 1334,-313.5"/>
<text text-anchor="middle" x="1388" y="-320.5" font-family="Helvetica,sans-Serif" font-size="10.00" fill="#000000">HMPIDBase/Digit.h</text>
</a>
</g>
</g>
<!-- Node0&#45;&gt;Node1 -->
<g id="edge1" class="edge">
<title>Node0&#45;&gt;Node1</title>
<path fill="none" stroke="#191970" d="M1452.5367,-369.3258C1438.1687,-359.0122 1422.154,-347.5165 1409.6721,-338.5567"/>
<polygon fill="#191970" stroke="#191970" points="1411.4466,-335.5221 1401.2819,-332.534 1407.3646,-341.2087 1411.4466,-335.5221"/>
</g>
<!-- Node29 -->
<g id="node30" class="node">
<title>Node29</title>
<g id="a_node30"><a xlink:href="../../de/d16/Param_8h.html" target="_top" xlink:title="HMPIDBase/Param.h">
<polygon fill="none" stroke="#000000" points="1498,-257.5 1498,-276.5 1614,-276.5 1614,-257.5 1498,-257.5"/>
<text text-anchor="middle" x="1556" y="-264.5" font-family="Helvetica,sans-Serif" font-size="10.00" fill="#000000">HMPIDBase/Param.h</text>
</a>
</g>
</g>
<!-- Node0&#45;&gt;Node29 -->
<g id="edge37" class="edge">
<title>Node0&#45;&gt;Node29</title>
<path fill="none" stroke="#191970" d="M1499.9611,-369.433C1507.1329,-352.9827 1516.999,-331.435 1527,-313 1532.1025,-303.5945 1538.3715,-293.5003 1543.7739,-285.171"/>
<polygon fill="#191970" stroke="#191970" points="1546.8116,-286.9223 1549.3967,-276.6477 1540.9685,-283.0676 1546.8116,-286.9223"/>
</g>
<!-- Node31 -->
<g id="node32" class="node">
<title>Node31</title>
<polygon fill="none" stroke="#bfbfbf" points="1442,-196 1442,-215 1498,-215 1498,-196 1442,-196"/>
<text text-anchor="middle" x="1470" y="-203" font-family="Helvetica,sans-Serif" font-size="10.00" fill="#000000">TMath.h</text>
</g>
<!-- Node0&#45;&gt;Node31 -->
<g id="edge39" class="edge">
<title>Node0&#45;&gt;Node31</title>
<path fill="none" stroke="#191970" d="M1486.398,-369.4797C1482.5629,-331.129 1475.4739,-260.2386 1472.0103,-225.6029"/>
<polygon fill="#191970" stroke="#191970" points="1475.4624,-224.9482 1470.9846,-215.3461 1468.4971,-225.6448 1475.4624,-224.9482"/>
</g>
<!-- Node35 -->
<g id="node36" class="node">
<title>Node35</title>
<polygon fill="none" stroke="#bfbfbf" points="1536,-313.5 1536,-332.5 1608,-332.5 1608,-313.5 1536,-313.5"/>
<text text-anchor="middle" x="1572" y="-320.5" font-family="Helvetica,sans-Serif" font-size="10.00" fill="#000000">TRandom.h</text>
</g>
<!-- Node0&#45;&gt;Node35 -->
<g id="edge38" class="edge">
<title>Node0&#45;&gt;Node35</title>
<path fill="none" stroke="#191970" d="M1518.9649,-369.3258C1530.4284,-359.3126 1543.1674,-348.1851 1553.2867,-339.346"/>
<polygon fill="#191970" stroke="#191970" points="1555.8563,-341.7486 1561.0852,-332.534 1551.2513,-336.4767 1555.8563,-341.7486"/>
</g>
<!-- Node2 -->
<g id="node3" class="node">
<title>Node2</title>
<g id="a_node3"><a xlink:href="../../df/d5d/common_2include_2CommonDataFormat_2TimeStamp_8h.html" target="_top" xlink:title="CommonDataFormat/TimeStamp.h">
<polygon fill="none" stroke="#000000" points="277.5,-257.5 277.5,-276.5 464.5,-276.5 464.5,-257.5 277.5,-257.5"/>
<text text-anchor="middle" x="371" y="-264.5" font-family="Helvetica,sans-Serif" font-size="10.00" fill="#000000">CommonDataFormat/TimeStamp.h</text>
</a>
</g>
</g>
<!-- Node1&#45;&gt;Node2 -->
<g id="edge2" class="edge">
<title>Node1&#45;&gt;Node2</title>
<path fill="none" stroke="#191970" d="M1333.6812,-320.009C1171.4855,-311.0779 688.7348,-284.4957 474.9131,-272.7219"/>
<polygon fill="#191970" stroke="#191970" points="474.8041,-269.2106 464.6267,-272.1555 474.4191,-276.2001 474.8041,-269.2106"/>
</g>
<!-- Node8 -->
<g id="node9" class="node">
<title>Node8</title>
<g id="a_node9"><a xlink:href="../../d5/deb/Detectors_2HMPID_2base_2include_2HMPIDBase_2Hit_8h.html" target="_top" xlink:title="HMPIDBase/Hit.h">
<polygon fill="none" stroke="#000000" points="1294.5,-257.5 1294.5,-276.5 1393.5,-276.5 1393.5,-257.5 1294.5,-257.5"/>
<text text-anchor="middle" x="1344" y="-264.5" font-family="Helvetica,sans-Serif" font-size="10.00" fill="#000000">HMPIDBase/Hit.h</text>
</a>
</g>
</g>
<!-- Node1&#45;&gt;Node8 -->
<g id="edge8" class="edge">
<title>Node1&#45;&gt;Node8</title>
<path fill="none" stroke="#191970" d="M1380.3358,-313.2455C1374.1527,-305.3761 1365.2937,-294.101 1357.8711,-284.6542"/>
<polygon fill="#191970" stroke="#191970" points="1360.5068,-282.3435 1351.5764,-276.6427 1355.0025,-286.6683 1360.5068,-282.3435"/>
</g>
<!-- Node1&#45;&gt;Node29 -->
<g id="edge30" class="edge">
<title>Node1&#45;&gt;Node29</title>
<path fill="none" stroke="#191970" d="M1416.8802,-313.3733C1444.8161,-304.0613 1487.3142,-289.8953 1517.9869,-279.671"/>
<polygon fill="#191970" stroke="#191970" points="1519.1166,-282.9839 1527.4966,-276.5011 1516.903,-276.3431 1519.1166,-282.9839"/>
</g>
<!-- Node1&#45;&gt;Node31 -->
<g id="edge36" class="edge">
<title>Node1&#45;&gt;Node31</title>
<path fill="none" stroke="#191970" d="M1394.7104,-313.3845C1408.4051,-293.761 1439.763,-248.8274 1457.3844,-223.5772"/>
<polygon fill="#191970" stroke="#191970" points="1460.3441,-225.4519 1463.1969,-215.2484 1454.6037,-221.4459 1460.3441,-225.4519"/>
</g>
<!-- Node3 -->
<g id="node4" class="node">
<title>Node3</title>
<g id="a_node4"><a xlink:href="../../d2/d45/GPUCommonRtypes_8h.html" target="_top" xlink:title="GPUCommonRtypes.h">
<polygon fill="none" stroke="#000000" points="308.5,-134.5 308.5,-153.5 433.5,-153.5 433.5,-134.5 308.5,-134.5"/>
<text text-anchor="middle" x="371" y="-141.5" font-family="Helvetica,sans-Serif" font-size="10.00" fill="#000000">GPUCommonRtypes.h</text>
</a>
</g>
</g>
<!-- Node2&#45;&gt;Node3 -->
<g id="edge3" class="edge">
<title>Node2&#45;&gt;Node3</title>
<path fill="none" stroke="#191970" d="M371,-257.3484C371,-237.2295 371,-190.4608 371,-163.7098"/>
<polygon fill="#191970" stroke="#191970" points="374.5001,-163.6067 371,-153.6068 367.5001,-163.6068 374.5001,-163.6067"/>
</g>
<!-- Node5 -->
<g id="node6" class="node">
<title>Node5</title>
<g id="a_node6"><a xlink:href="../../df/d21/GPUCommonDef_8h.html" target="_top" xlink:title="GPUCommonDef.h">
<polygon fill="none" stroke="#000000" points="174.5,-196 174.5,-215 281.5,-215 281.5,-196 174.5,-196"/>
<text text-anchor="middle" x="228" y="-203" font-family="Helvetica,sans-Serif" font-size="10.00" fill="#000000">GPUCommonDef.h</text>
</a>
</g>
</g>
<!-- Node2&#45;&gt;Node5 -->
<g id="edge5" class="edge">
<title>Node2&#45;&gt;Node5</title>
<path fill="none" stroke="#191970" d="M348.6563,-257.3906C324.7297,-247.1005 286.5691,-230.6888 259.5784,-219.0809"/>
<polygon fill="#191970" stroke="#191970" points="260.7561,-215.7775 250.1869,-215.0419 257.9905,-222.208 260.7561,-215.7775"/>
</g>
<!-- Node4 -->
<g id="node5" class="node">
<title>Node4</title>
<polygon fill="none" stroke="#bfbfbf" points="46.5,-73 46.5,-92 105.5,-92 105.5,-73 46.5,-73"/>
<text text-anchor="middle" x="76" y="-80" font-family="Helvetica,sans-Serif" font-size="10.00" fill="#000000">Rtypes.h</text>
</g>
<!-- Node3&#45;&gt;Node4 -->
<g id="edge4" class="edge">
<title>Node3&#45;&gt;Node4</title>
<path fill="none" stroke="#191970" d="M309.1128,-134.4575C245.1309,-124.3177 149.698,-108.3503 114,-98 111.6905,-97.3304 109.3294,-96.5679 106.9706,-95.7487"/>
<polygon fill="#191970" stroke="#191970" points="108.0158,-92.4024 97.4239,-92.1543 105.5493,-98.9535 108.0158,-92.4024"/>
</g>
<!-- Node6 -->
<g id="node7" class="node">
<title>Node6</title>
<g id="a_node7"><a xlink:href="../../d5/d93/GPUCommonDefSettings_8h.html" target="_top" xlink:title="GPUCommonDefSettings.h">
<polygon fill="none" stroke="#000000" points="0,-134.5 0,-153.5 148,-153.5 148,-134.5 0,-134.5"/>
<text text-anchor="middle" x="74" y="-141.5" font-family="Helvetica,sans-Serif" font-size="10.00" fill="#000000">GPUCommonDefSettings.h</text>
</a>
</g>
</g>
<!-- Node5&#45;&gt;Node6 -->
<g id="edge6" class="edge">
<title>Node5&#45;&gt;Node6</title>
<path fill="none" stroke="#191970" d="M203.9375,-195.8906C177.9444,-185.5103 136.3522,-168.9004 107.2453,-157.2766"/>
<polygon fill="#191970" stroke="#191970" points="108.4785,-154.0003 97.8935,-153.5419 105.8823,-160.5011 108.4785,-154.0003"/>
</g>
<!-- Node7 -->
<g id="node8" class="node">
<title>Node7</title>
<g id="a_node8"><a xlink:href="../../da/d5a/GPUCommonDefAPI_8h.html" target="_top" xlink:title="GPUCommonDefAPI.h">
<polygon fill="none" stroke="#000000" points="166,-134.5 166,-153.5 290,-153.5 290,-134.5 166,-134.5"/>
<text text-anchor="middle" x="228" y="-141.5" font-family="Helvetica,sans-Serif" font-size="10.00" fill="#000000">GPUCommonDefAPI.h</text>
</a>
</g>
</g>
<!-- Node5&#45;&gt;Node7 -->
<g id="edge7" class="edge">
<title>Node5&#45;&gt;Node7</title>
<path fill="none" stroke="#191970" d="M228,-195.8906C228,-187.3657 228,-174.6392 228,-163.9235"/>
<polygon fill="#191970" stroke="#191970" points="231.5001,-163.7448 228,-153.7449 224.5001,-163.7449 231.5001,-163.7448"/>
</g>
<!-- Node9 -->
<g id="node10" class="node">
<title>Node9</title>
<g id="a_node10"><a xlink:href="../../d4/d25/BaseHits_8h.html" target="_top" xlink:title="SimulationDataFormat\l/BaseHits.h">
<polygon fill="none" stroke="#000000" points="776.5,-190.5 776.5,-220.5 903.5,-220.5 903.5,-190.5 776.5,-190.5"/>
<text text-anchor="start" x="784.5" y="-208.5" font-family="Helvetica,sans-Serif" font-size="10.00" fill="#000000">SimulationDataFormat</text>
<text text-anchor="middle" x="840" y="-197.5" font-family="Helvetica,sans-Serif" font-size="10.00" fill="#000000">/BaseHits.h</text>
</a>
</g>
</g>
<!-- Node8&#45;&gt;Node9 -->
<g id="edge9" class="edge">
<title>Node8&#45;&gt;Node9</title>
<path fill="none" stroke="#191970" d="M1294.2952,-260.9348C1205.2494,-250.0691 1018.1199,-227.2349 913.9566,-214.5245"/>
<polygon fill="#191970" stroke="#191970" points="914.1838,-211.0263 903.8334,-213.2892 913.3358,-217.9748 914.1838,-211.0263"/>
</g>
<!-- Node21 -->
<g id="node22" class="node">
<title>Node21</title>
<g id="a_node22"><a xlink:href="../../d0/d91/ShmAllocator_8h.html" target="_top" xlink:title="CommonUtils/ShmAllocator.h">
<polygon fill="none" stroke="#000000" points="1264,-196 1264,-215 1424,-215 1424,-196 1264,-196"/>
<text text-anchor="middle" x="1344" y="-203" font-family="Helvetica,sans-Serif" font-size="10.00" fill="#000000">CommonUtils/ShmAllocator.h</text>
</a>
</g>
</g>
<!-- Node8&#45;&gt;Node21 -->
<g id="edge22" class="edge">
<title>Node8&#45;&gt;Node21</title>
<path fill="none" stroke="#191970" d="M1344,-257.3906C1344,-248.8657 1344,-236.1392 1344,-225.4235"/>
<polygon fill="#191970" stroke="#191970" points="1347.5001,-225.2448 1344,-215.2449 1340.5001,-225.2449 1347.5001,-225.2448"/>
</g>
<!-- Node10 -->
<g id="node11" class="node">
<title>Node10</title>
<g id="a_node11"><a xlink:href="../../dd/d76/Cartesian3D_8h.html" target="_top" xlink:title="MathUtils/Cartesian3D.h">
<polygon fill="none" stroke="#000000" points="649.5,-134.5 649.5,-153.5 784.5,-153.5 784.5,-134.5 649.5,-134.5"/>
<text text-anchor="middle" x="717" y="-141.5" font-family="Helvetica,sans-Serif" font-size="10.00" fill="#000000">MathUtils/Cartesian3D.h</text>
</a>
</g>
</g>
<!-- Node9&#45;&gt;Node10 -->
<g id="edge10" class="edge">
<title>Node9&#45;&gt;Node10</title>
<path fill="none" stroke="#191970" d="M809.9108,-190.4554C790.1981,-180.599 764.5998,-167.7999 745.2653,-158.1327"/>
<polygon fill="#191970" stroke="#191970" points="746.5702,-154.872 736.0606,-153.5303 743.4397,-161.133 746.5702,-154.872"/>
</g>
<!-- Node10&#45;&gt;Node4 -->
<g id="edge16" class="edge">
<title>Node10&#45;&gt;Node4</title>
<path fill="none" stroke="#191970" d="M649.3993,-141.4874C514.0261,-136.022 214.0781,-121.6138 114,-98 111.2045,-97.3404 108.3472,-96.5042 105.5168,-95.5633"/>
<polygon fill="#191970" stroke="#191970" points="106.7191,-92.2763 96.1264,-92.066 104.276,-98.8361 106.7191,-92.2763"/>
</g>
<!-- Node11 -->
<g id="node12" class="node">
<title>Node11</title>
<polygon fill="none" stroke="#bfbfbf" points="344,-67.5 344,-97.5 508,-97.5 508,-67.5 344,-67.5"/>
<text text-anchor="start" x="352" y="-85.5" font-family="Helvetica,sans-Serif" font-size="10.00" fill="#000000">Math/GenVector/Displacement</text>
<text text-anchor="middle" x="426" y="-74.5" font-family="Helvetica,sans-Serif" font-size="10.00" fill="#000000">Vector3D.h</text>
</g>
<!-- Node10&#45;&gt;Node11 -->
<g id="edge11" class="edge">
<title>Node10&#45;&gt;Node11</title>
<path fill="none" stroke="#191970" d="M671.8505,-134.4581C627.9826,-125.187 560.3862,-110.9012 507.1673,-99.6539"/>
<polygon fill="#191970" stroke="#191970" points="507.5746,-96.1628 497.067,-97.5193 506.1271,-103.0115 507.5746,-96.1628"/>
</g>
<!-- Node12 -->
<g id="node13" class="node">
<title>Node12</title>
<polygon fill="none" stroke="#bfbfbf" points="526.5,-73 526.5,-92 715.5,-92 715.5,-73 526.5,-73"/>
<text text-anchor="middle" x="621" y="-80" font-family="Helvetica,sans-Serif" font-size="10.00" fill="#000000">Math/GenVector/PositionVector3D.h</text>
</g>
<!-- Node10&#45;&gt;Node12 -->
<g id="edge12" class="edge">
<title>Node10&#45;&gt;Node12</title>
<path fill="none" stroke="#191970" d="M702,-134.3906C686.6419,-124.5519 662.5479,-109.1167 644.6255,-97.6351"/>
<polygon fill="#191970" stroke="#191970" points="646.203,-94.4891 635.8947,-92.0419 642.427,-100.3833 646.203,-94.4891"/>
</g>
<!-- Node13 -->
<g id="node14" class="node">
<title>Node13</title>
<polygon fill="none" stroke="#bfbfbf" points="734,-73 734,-92 894,-92 894,-73 734,-73"/>
<text text-anchor="middle" x="814" y="-80" font-family="Helvetica,sans-Serif" font-size="10.00" fill="#000000">Math/GenVector/Rotation3D.h</text>
</g>
<!-- Node10&#45;&gt;Node13 -->
<g id="edge13" class="edge">
<title>Node10&#45;&gt;Node13</title>
<path fill="none" stroke="#191970" d="M732.1563,-134.3906C747.6743,-124.5519 772.0193,-109.1167 790.1284,-97.6351"/>
<polygon fill="#191970" stroke="#191970" points="792.3787,-100.3526 798.9502,-92.0419 788.6304,-94.4407 792.3787,-100.3526"/>
</g>
<!-- Node14 -->
<g id="node15" class="node">
<title>Node14</title>
<polygon fill="none" stroke="#bfbfbf" points="912,-73 912,-92 1080,-92 1080,-73 912,-73"/>
<text text-anchor="middle" x="996" y="-80" font-family="Helvetica,sans-Serif" font-size="10.00" fill="#000000">Math/GenVector/Transform3D.h</text>
</g>
<!-- Node10&#45;&gt;Node14 -->
<g id="edge14" class="edge">
<title>Node10&#45;&gt;Node14</title>
<path fill="none" stroke="#191970" d="M760.2876,-134.4581C809.4642,-123.6181 889.7424,-105.9224 942.723,-94.2439"/>
<polygon fill="#191970" stroke="#191970" points="943.5987,-97.6349 952.6108,-92.0643 942.0918,-90.799 943.5987,-97.6349"/>
</g>
<!-- Node15 -->
<g id="node16" class="node">
<title>Node15</title>
<polygon fill="none" stroke="#bfbfbf" points="1098.5,-73 1098.5,-92 1271.5,-92 1271.5,-73 1098.5,-73"/>
<text text-anchor="middle" x="1185" y="-80" font-family="Helvetica,sans-Serif" font-size="10.00" fill="#000000">Math/GenVector/Translation3D.h</text>
</g>
<!-- Node10&#45;&gt;Node15 -->
<g id="edge15" class="edge">
<title>Node10&#45;&gt;Node15</title>
<path fill="none" stroke="#191970" d="M784.6416,-136.3984C859.2659,-127.8344 982.8609,-113.1256 1089,-98 1098.4275,-96.6565 1108.3613,-95.1526 1118.1204,-93.6241"/>
<polygon fill="#191970" stroke="#191970" points="1118.8693,-97.0492 1128.1987,-92.0281 1117.7743,-90.1353 1118.8693,-97.0492"/>
</g>
<!-- Node16 -->
<g id="node17" class="node">
<title>Node16</title>
<polygon fill="none" stroke="#bfbfbf" points="1290,-73 1290,-92 1372,-92 1372,-73 1290,-73"/>
<text text-anchor="middle" x="1331" y="-80" font-family="Helvetica,sans-Serif" font-size="10.00" fill="#000000">TGeoMatrix.h</text>
</g>
<!-- Node10&#45;&gt;Node16 -->
<g id="edge17" class="edge">
<title>Node10&#45;&gt;Node16</title>
<path fill="none" stroke="#191970" d="M784.6205,-140.289C912.8349,-132.9526 1186.7954,-115.7596 1280,-98 1284.4671,-97.1488 1289.0985,-96.0533 1293.6664,-94.8386"/>
<polygon fill="#191970" stroke="#191970" points="1294.8218,-98.1486 1303.4766,-92.0376 1292.8999,-91.4176 1294.8218,-98.1486"/>
</g>
<!-- Node17 -->
<g id="node18" class="node">
<title>Node17</title>
<polygon fill="none" stroke="#bfbfbf" points="123.5,-73 123.5,-92 172.5,-92 172.5,-73 123.5,-73"/>
<text text-anchor="middle" x="148" y="-80" font-family="Helvetica,sans-Serif" font-size="10.00" fill="#000000">iosfwd</text>
</g>
<!-- Node10&#45;&gt;Node17 -->
<g id="edge18" class="edge">
<title>Node10&#45;&gt;Node17</title>
<path fill="none" stroke="#191970" d="M649.4863,-141.1728C525.7967,-135.5024 267.5935,-121.2549 181,-98 179.0285,-97.4706 177.0301,-96.8285 175.0427,-96.1107"/>
<polygon fill="#191970" stroke="#191970" points="175.9504,-92.6962 165.3746,-92.0598 173.2452,-99.1524 175.9504,-92.6962"/>
</g>
<!-- Node18 -->
<g id="node19" class="node">
<title>Node18</title>
<g id="a_node19"><a xlink:href="../../d2/dd0/Cartesian2D_8h.html" target="_top" xlink:title="MathUtils/Cartesian2D.h">
<polygon fill="none" stroke="#000000" points="190.5,-73 190.5,-92 325.5,-92 325.5,-73 190.5,-73"/>
<text text-anchor="middle" x="258" y="-80" font-family="Helvetica,sans-Serif" font-size="10.00" fill="#000000">MathUtils/Cartesian2D.h</text>
</a>
</g>
</g>
<!-- Node10&#45;&gt;Node18 -->
<g id="edge19" class="edge">
<title>Node10&#45;&gt;Node18</title>
<path fill="none" stroke="#191970" d="M649.4963,-137.4959C572.9859,-129.7474 444.6475,-115.6097 335,-98 327.6044,-96.8123 319.8375,-95.4206 312.1991,-93.9672"/>
<polygon fill="#191970" stroke="#191970" points="312.7585,-90.5105 302.2737,-92.033 311.4196,-97.3812 312.7585,-90.5105"/>
</g>
<!-- Node19 -->
<g id="node20" class="node">
<title>Node19</title>
<polygon fill="none" stroke="#bfbfbf" points="79,-.5 79,-30.5 243,-30.5 243,-.5 79,-.5"/>
<text text-anchor="start" x="87" y="-18.5" font-family="Helvetica,sans-Serif" font-size="10.00" fill="#000000">Math/GenVector/Displacement</text>
<text text-anchor="middle" x="161" y="-7.5" font-family="Helvetica,sans-Serif" font-size="10.00" fill="#000000">Vector2D.h</text>
</g>
<!-- Node18&#45;&gt;Node19 -->
<g id="edge20" class="edge">
<title>Node18&#45;&gt;Node19</title>
<path fill="none" stroke="#191970" d="M244.1023,-72.9005C230.3265,-63.3853 208.7795,-48.5023 191.0779,-36.2755"/>
<polygon fill="#191970" stroke="#191970" points="192.9651,-33.3253 182.7479,-30.5218 188.9868,-39.0849 192.9651,-33.3253"/>
</g>
<!-- Node20 -->
<g id="node21" class="node">
<title>Node20</title>
<polygon fill="none" stroke="#bfbfbf" points="261.5,-6 261.5,-25 450.5,-25 450.5,-6 261.5,-6"/>
<text text-anchor="middle" x="356" y="-13" font-family="Helvetica,sans-Serif" font-size="10.00" fill="#000000">Math/GenVector/PositionVector2D.h</text>
</g>
<!-- Node18&#45;&gt;Node20 -->
<g id="edge21" class="edge">
<title>Node18&#45;&gt;Node20</title>
<path fill="none" stroke="#191970" d="M272.041,-72.9005C288.1238,-61.9052 314.6906,-43.7422 333.6316,-30.7927"/>
<polygon fill="#191970" stroke="#191970" points="335.7052,-33.6148 341.985,-25.0817 331.7545,-27.8362 335.7052,-33.6148"/>
</g>
<!-- Node22 -->
<g id="node23" class="node">
<title>Node22</title>
<g id="a_node23"><a xlink:href="../../de/d61/ShmManager_8h.html" target="_top" xlink:title="CommonUtils/ShmManager.h">
<polygon fill="none" stroke="#000000" points="1388,-134.5 1388,-153.5 1546,-153.5 1546,-134.5 1388,-134.5"/>
<text text-anchor="middle" x="1467" y="-141.5" font-family="Helvetica,sans-Serif" font-size="10.00" fill="#000000">CommonUtils/ShmManager.h</text>
</a>
</g>
</g>
<!-- Node21&#45;&gt;Node22 -->
<g id="edge23" class="edge">
<title>Node21&#45;&gt;Node22</title>
<path fill="none" stroke="#191970" d="M1363.2188,-195.8906C1383.5281,-185.7359 1415.7607,-169.6196 1438.9168,-158.0416"/>
<polygon fill="#191970" stroke="#191970" points="1440.5372,-161.1446 1447.9162,-153.5419 1437.4067,-154.8836 1440.5372,-161.1446"/>
</g>
<!-- Node28 -->
<g id="node29" class="node">
<title>Node28</title>
<polygon fill="none" stroke="#bfbfbf" points="1564,-134.5 1564,-153.5 1616,-153.5 1616,-134.5 1564,-134.5"/>
<text text-anchor="middle" x="1590" y="-141.5" font-family="Helvetica,sans-Serif" font-size="10.00" fill="#000000">cassert</text>
</g>
<!-- Node21&#45;&gt;Node28 -->
<g id="edge29" class="edge">
<title>Node21&#45;&gt;Node28</title>
<path fill="none" stroke="#191970" d="M1385.3599,-195.9072C1425.9069,-186.3911 1489.7026,-171.1222 1553.7884,-154.255"/>
<polygon fill="#191970" stroke="#191970" points="1554.8842,-157.5856 1563.657,-151.6453 1553.0945,-150.8182 1554.8842,-157.5856"/>
</g>
<!-- Node23 -->
<g id="node24" class="node">
<title>Node23</title>
<polygon fill="none" stroke="#bfbfbf" points="1390,-73 1390,-92 1422,-92 1422,-73 1390,-73"/>
<text text-anchor="middle" x="1406" y="-80" font-family="Helvetica,sans-Serif" font-size="10.00" fill="#000000">list</text>
</g>
<!-- Node22&#45;&gt;Node23 -->
<g id="edge24" class="edge">
<title>Node22&#45;&gt;Node23</title>
<path fill="none" stroke="#191970" d="M1457.4688,-134.3906C1448.2121,-125.0581 1433.961,-110.6902 1422.7997,-99.4374"/>
<polygon fill="#191970" stroke="#191970" points="1425.1928,-96.88 1415.6656,-92.2449 1420.2228,-101.8095 1425.1928,-96.88"/>
</g>
<!-- Node24 -->
<g id="node25" class="node">
<title>Node24</title>
<polygon fill="none" stroke="#bfbfbf" points="1440.5,-73 1440.5,-92 1493.5,-92 1493.5,-73 1440.5,-73"/>
<text text-anchor="middle" x="1467" y="-80" font-family="Helvetica,sans-Serif" font-size="10.00" fill="#000000">cstddef</text>
</g>
<!-- Node22&#45;&gt;Node24 -->
<g id="edge25" class="edge">
<title>Node22&#45;&gt;Node24</title>
<path fill="none" stroke="#191970" d="M1467,-134.3906C1467,-125.8657 1467,-113.1392 1467,-102.4235"/>
<polygon fill="#191970" stroke="#191970" points="1470.5001,-102.2448 1467,-92.2449 1463.5001,-102.2449 1470.5001,-102.2448"/>
</g>
<!-- Node25 -->
<g id="node26" class="node">
<title>Node25</title>
<polygon fill="none" stroke="#bfbfbf" points="1512,-73 1512,-92 1562,-92 1562,-73 1512,-73"/>
<text text-anchor="middle" x="1537" y="-80" font-family="Helvetica,sans-Serif" font-size="10.00" fill="#000000">atomic</text>
</g>
<!-- Node22&#45;&gt;Node25 -->
<g id="edge26" class="edge">
<title>Node22&#45;&gt;Node25</title>
<path fill="none" stroke="#191970" d="M1477.9375,-134.3906C1488.662,-124.9683 1505.2287,-110.4134 1518.0901,-99.1137"/>
<polygon fill="#191970" stroke="#191970" points="1520.7059,-101.4745 1525.9083,-92.2449 1516.0857,-96.2158 1520.7059,-101.4745"/>
</g>
<!-- Node26 -->
<g id="node27" class="node">
<title>Node26</title>
<polygon fill="none" stroke="#bfbfbf" points="1580.5,-67.5 1580.5,-97.5 1745.5,-97.5 1745.5,-67.5 1580.5,-67.5"/>
<text text-anchor="start" x="1588.5" y="-85.5" font-family="Helvetica,sans-Serif" font-size="10.00" fill="#000000">boost/interprocess</text>
<text text-anchor="middle" x="1663" y="-74.5" font-family="Helvetica,sans-Serif" font-size="10.00" fill="#000000">/managed_external_buffer.hpp</text>
</g>
<!-- Node22&#45;&gt;Node26 -->
<g id="edge27" class="edge">
<title>Node22&#45;&gt;Node26</title>
<path fill="none" stroke="#191970" d="M1497.625,-134.3906C1526.3617,-125.3737 1570.079,-111.6563 1605.3486,-100.5896"/>
<polygon fill="#191970" stroke="#191970" points="1606.5595,-103.878 1615.053,-97.5446 1604.4638,-97.199 1606.5595,-103.878"/>
</g>
<!-- Node27 -->
<g id="node28" class="node">
<title>Node27</title>
<polygon fill="none" stroke="#bfbfbf" points="1764,-67.5 1764,-97.5 1898,-97.5 1898,-67.5 1764,-67.5"/>
<text text-anchor="start" x="1772" y="-85.5" font-family="Helvetica,sans-Serif" font-size="10.00" fill="#000000">boost/interprocess</text>
<text text-anchor="middle" x="1831" y="-74.5" font-family="Helvetica,sans-Serif" font-size="10.00" fill="#000000">/allocators/allocator.hpp</text>
</g>
<!-- Node22&#45;&gt;Node27 -->
<g id="edge28" class="edge">
<title>Node22&#45;&gt;Node27</title>
<path fill="none" stroke="#191970" d="M1531.7607,-134.4664C1587.9356,-126.0117 1671.6762,-112.9665 1753.8783,-98.1623"/>
<polygon fill="#191970" stroke="#191970" points="1754.6772,-101.5746 1763.8934,-96.3484 1753.4297,-94.6867 1754.6772,-101.5746"/>
</g>
<!-- Node30 -->
<g id="node31" class="node">
<title>Node30</title>
<polygon fill="none" stroke="#bfbfbf" points="1798,-196 1798,-215 1844,-215 1844,-196 1798,-196"/>
<text text-anchor="middle" x="1821" y="-203" font-family="Helvetica,sans-Serif" font-size="10.00" fill="#000000">cstdio</text>
</g>
<!-- Node29&#45;&gt;Node30 -->
<g id="edge31" class="edge">
<title>Node29&#45;&gt;Node30</title>
<path fill="none" stroke="#191970" d="M1614.0362,-259.7592C1661.8334,-252.8007 1730.9364,-240.4348 1789,-221 1790.65,-220.4477 1792.3247,-219.8291 1793.9985,-219.1655"/>
<polygon fill="#191970" stroke="#191970" points="1795.6606,-222.2579 1803.3989,-215.0212 1792.8367,-215.8527 1795.6606,-222.2579"/>
</g>
<!-- Node29&#45;&gt;Node31 -->
<g id="edge32" class="edge">
<title>Node29&#45;&gt;Node31</title>
<path fill="none" stroke="#191970" d="M1542.5625,-257.3906C1528.9305,-247.6421 1507.6154,-232.3994 1491.6078,-220.9521"/>
<polygon fill="#191970" stroke="#191970" points="1493.5132,-218.0118 1483.3431,-215.0419 1489.4414,-223.7057 1493.5132,-218.0118"/>
</g>
<!-- Node32 -->
<g id="node33" class="node">
<title>Node32</title>
<polygon fill="none" stroke="#bfbfbf" points="1516.5,-196 1516.5,-215 1583.5,-215 1583.5,-196 1516.5,-196"/>
<text text-anchor="middle" x="1550" y="-203" font-family="Helvetica,sans-Serif" font-size="10.00" fill="#000000">TNamed.h</text>
</g>
<!-- Node29&#45;&gt;Node32 -->
<g id="edge33" class="edge">
<title>Node29&#45;&gt;Node32</title>
<path fill="none" stroke="#191970" d="M1555.0625,-257.3906C1554.2308,-248.8657 1552.9892,-236.1392 1551.9438,-225.4235"/>
<polygon fill="#191970" stroke="#191970" points="1555.4053,-224.8577 1550.9507,-215.2449 1548.4383,-225.5375 1555.4053,-224.8577"/>
</g>
<!-- Node33 -->
<g id="node34" class="node">
<title>Node33</title>
<polygon fill="none" stroke="#bfbfbf" points="1602,-196 1602,-215 1694,-215 1694,-196 1602,-196"/>
<text text-anchor="middle" x="1648" y="-203" font-family="Helvetica,sans-Serif" font-size="10.00" fill="#000000">TGeoManager.h</text>
</g>
<!-- Node29&#45;&gt;Node33 -->
<g id="edge34" class="edge">
<title>Node29&#45;&gt;Node33</title>
<path fill="none" stroke="#191970" d="M1570.375,-257.3906C1585.0931,-247.5519 1608.1832,-232.1167 1625.3589,-220.6351"/>
<polygon fill="#191970" stroke="#191970" points="1627.3575,-223.5091 1633.7259,-215.0419 1623.4673,-217.6896 1627.3575,-223.5091"/>
</g>
<!-- Node34 -->
<g id="node35" class="node">
<title>Node34</title>
<polygon fill="none" stroke="#bfbfbf" points="1712,-196 1712,-215 1780,-215 1780,-196 1712,-196"/>
<text text-anchor="middle" x="1746" y="-203" font-family="Helvetica,sans-Serif" font-size="10.00" fill="#000000">TVector3.h</text>
</g>
<!-- Node29&#45;&gt;Node34 -->
<g id="edge35" class="edge">
<title>Node29&#45;&gt;Node34</title>
<path fill="none" stroke="#191970" d="M1587.9562,-257.4301C1617.8191,-248.3855 1663.5892,-234.2627 1703,-221 1705.4349,-220.1806 1707.9417,-219.3205 1710.4632,-218.4432"/>
<polygon fill="#191970" stroke="#191970" points="1711.8783,-221.6553 1720.1407,-215.0234 1709.5459,-215.0553 1711.8783,-221.6553"/>
</g>
</g>
</svg>
        <g id="navigator" transform="translate(0 0)" fill="#404254">
                <rect fill="#f2f5e9" fill-opacity="0.5" stroke="#606060" stroke-width=".5" x="0" y="0" width="60" height="60"/>
                <use id="zoomplus" xlink:href="#zoomPlus" x="17" y="9" onmousedown="handleZoom(evt,'in')"/>
                <use id="zoomminus" xlink:href="#zoomMin" x="42" y="9" onmousedown="handleZoom(evt,'out')"/>
                <use id="reset" xlink:href="#resetDef" x="30" y="36" onmousedown="handleReset()"/>
                <g id="arrowUp" xlink:href="#dirArrow" transform="translate(30 24)" onmousedown="handlePan(0,-1)">
                  <use xlink:href="#rim" fill="#404040">
                        <set attributeName="fill" to="#808080" begin="arrowUp.mouseover" end="arrowUp.mouseout"/>
                  </use>
                  <path fill="none" stroke="white" stroke-width="1.5" d="M0,-3.0v7 M-2.5,-0.5L0,-3.0L2.5,-0.5"/>
                </g>
                <g id="arrowRight" xlink:href="#dirArrow" transform="rotate(90) translate(36 -43)" onmousedown="handlePan(1,0)">
                  <use xlink:href="#rim" fill="#404040">
                        <set attributeName="fill" to="#808080" begin="arrowRight.mouseover" end="arrowRight.mouseout"/>
                  </use>
                  <path fill="none" stroke="white" stroke-width="1.5" d="M0,-3.0v7 M-2.5,-0.5L0,-3.0L2.5,-0.5"/>
                </g>
                <g id="arrowDown" xlink:href="#dirArrow" transform="rotate(180) translate(-30 -48)" onmousedown="handlePan(0,1)">
                  <use xlink:href="#rim" fill="#404040">
                        <set attributeName="fill" to="#808080" begin="arrowDown.mouseover" end="arrowDown.mouseout"/>
                  </use>
                  <path fill="none" stroke="white" stroke-width="1.5" d="M0,-3.0v7 M-2.5,-0.5L0,-3.0L2.5,-0.5"/>
                </g>
                <g id="arrowLeft" xlink:href="#dirArrow" transform="rotate(270) translate(-36 17)" onmousedown="handlePan(-1,0)">
                  <use xlink:href="#rim" fill="#404040">
                        <set attributeName="fill" to="#808080" begin="arrowLeft.mouseover" end="arrowLeft.mouseout"/>
                  </use>
                  <path fill="none" stroke="white" stroke-width="1.5" d="M0,-3.0v7 M-2.5,-0.5L0,-3.0L2.5,-0.5"/>
                </g>
        </g>
        <svg viewBox="0 0 15 15" width="100%" height="30px" preserveAspectRatio="xMaxYMin meet">
         <g id="arrow_out" transform="scale(0.3 0.3)">
          <a xlink:href="Detectors_2HMPID_2base_2src_2Digit_8cxx__incl_org.svg" target="_base">
           <rect id="button" ry="5" rx="5" y="6" x="6" height="38" width="38"
                fill="#f2f5e9" fill-opacity="0.5" stroke="#606060" stroke-width="1.0"/>
           <path id="arrow"
             d="M 11.500037,31.436501 C 11.940474,20.09759 22.043105,11.32322 32.158766,21.979434 L 37.068811,17.246167 C 37.068811,17.246167 37.088388,32 37.088388,32 L 22.160133,31.978069 C 22.160133,31.978069 26.997745,27.140456 26.997745,27.140456 C 18.528582,18.264221 13.291696,25.230495 11.500037,31.436501 z"
             style="fill:#404040;"/>
          </a>
         </g>
        </svg>
</svg>
