<?xml version="1.0" encoding="UTF-8" standalone="no"?>
<!DOCTYPE svg PUBLIC "-//W3C//DTD SVG 1.1//EN"
 "http://www.w3.org/Graphics/SVG/1.1/DTD/svg11.dtd">
<!-- Generated by graphviz version 2.40.1 (20161225.0304)
 -->
<!-- Title: /home/travis/build/AliceO2Group/AliceO2/DataFormats/Detectors/CPV/src/Digit.cxx Pages: 1 -->
<!--zoomable 374 -->
<svg id="main" version="1.1" xmlns="http://www.w3.org/2000/svg" xmlns:xlink="http://www.w3.org/1999/xlink" xml:space="preserve" onload="init(evt)">
<style type="text/css"><![CDATA[
.edge:hover path { stroke: red; }
.edge:hover polygon { stroke: red; fill: red; }
]]></style>
<script type="text/javascript"><![CDATA[
var edges = document.getElementsByTagName('g');
if (edges && edges.length) {
  for (var i=0;i<edges.length;i++) {
    if (edges[i].id.substr(0,4)=='edge') {
      edges[i].setAttribute('class','edge');
    }
  }
}
]]></script>
        <defs>
                <circle id="rim" cx="0" cy="0" r="7"/>
                <circle id="rim2" cx="0" cy="0" r="3.5"/>
                <g id="zoomPlus">
                        <use xlink:href="#rim" fill="#404040">
                                <set attributeName="fill" to="#808080" begin="zoomplus.mouseover" end="zoomplus.mouseout"/>
                        </use>
                        <path d="M-4,0h8M0,-4v8" fill="none" stroke="white" stroke-width="1.5" pointer-events="none"/>
                </g>
                <g id="zoomMin">
                        <use xlink:href="#rim" fill="#404040">
                                <set attributeName="fill" to="#808080" begin="zoomminus.mouseover" end="zoomminus.mouseout"/>
                        </use>
                        <path d="M-4,0h8" fill="none" stroke="white" stroke-width="1.5" pointer-events="none"/>
                </g>
                <g id="dirArrow">
                        <path fill="none" stroke="white" stroke-width="1.5" d="M0,-3.0v7 M-2.5,-0.5L0,-3.0L2.5,-0.5"/>
                </g>
               <g id="resetDef">
                       <use xlink:href="#rim2" fill="#404040">
                               <set attributeName="fill" to="#808080" begin="reset.mouseover" end="reset.mouseout"/>
                       </use>
               </g>
        </defs>

<script type="text/javascript">
var viewWidth = 2168;
var viewHeight = 374;
var sectionId = 'dynsection-0';
</script>
<script xlink:href="../../svgpan.js"/>
<svg id="graph" class="graph">
<g id="viewport">
<title>/home/travis/build/AliceO2Group/AliceO2/DataFormats/Detectors/CPV/src/Digit.cxx</title>
<!-- Node0 -->
<g id="node1" class="node">
<title>Node0</title>
<polygon fill="#bfbfbf" stroke="#000000" points="691.5,-313.5 691.5,-365.5 824.5,-365.5 824.5,-313.5 691.5,-313.5"/>
<text text-anchor="start" x="699.5" y="-353.5" font-family="Helvetica,sans-Serif" font-size="10.00" fill="#000000">/home/travis/build</text>
<text text-anchor="start" x="699.5" y="-342.5" font-family="Helvetica,sans-Serif" font-size="10.00" fill="#000000">/AliceO2Group/AliceO2</text>
<text text-anchor="start" x="699.5" y="-331.5" font-family="Helvetica,sans-Serif" font-size="10.00" fill="#000000">/DataFormats/Detectors</text>
<text text-anchor="middle" x="758" y="-320.5" font-family="Helvetica,sans-Serif" font-size="10.00" fill="#000000">/CPV/src/Digit.cxx</text>
</g>
<!-- Node1 -->
<g id="node2" class="node">
<title>Node1</title>
<polygon fill="none" stroke="#bfbfbf" points="483.5,-257.5 483.5,-276.5 558.5,-276.5 558.5,-257.5 483.5,-257.5"/>
<text text-anchor="middle" x="521" y="-264.5" font-family="Helvetica,sans-Serif" font-size="10.00" fill="#000000">FairLogger.h</text>
</g>
<!-- Node0&#45;&gt;Node1 -->
<g id="edge1" class="edge">
<title>Node0&#45;&gt;Node1</title>
<path fill="none" stroke="#191970" d="M691.3516,-319.1118C649.6781,-306.3635 597.3472,-290.3552 561.7592,-279.4685"/>
<polygon fill="#191970" stroke="#191970" points="562.7747,-276.1191 552.1882,-276.5407 560.727,-282.8129 562.7747,-276.1191"/>
</g>
<!-- Node2 -->
<g id="node3" class="node">
<title>Node2</title>
<g id="a_node3"><a xlink:href="../../de/dfb/DataFormats_2Detectors_2CPV_2include_2DataFormatsCPV_2Digit_8h.html" target="_top" xlink:title="DataFormatsCPV/Digit.h">
<polygon fill="none" stroke="#000000" points="577,-257.5 577,-276.5 711,-276.5 711,-257.5 577,-257.5"/>
<text text-anchor="middle" x="644" y="-264.5" font-family="Helvetica,sans-Serif" font-size="10.00" fill="#000000">DataFormatsCPV/Digit.h</text>
</a>
</g>
</g>
<!-- Node0&#45;&gt;Node2 -->
<g id="edge2" class="edge">
<title>Node0&#45;&gt;Node2</title>
<path fill="none" stroke="#191970" d="M716.8434,-313.3258C700.3111,-302.8119 681.8473,-291.0696 667.6455,-282.0377"/>
<polygon fill="#191970" stroke="#191970" points="669.3078,-278.9471 658.9914,-276.534 665.5513,-284.8538 669.3078,-278.9471"/>
</g>
<!-- Node10 -->
<g id="node11" class="node">
<title>Node10</title>
<g id="a_node11"><a xlink:href="../../db/dd0/Detectors_2CPV_2base_2include_2CPVBase_2Hit_8h.html" target="_top" xlink:title="CPVBase/Hit.h">
<polygon fill="none" stroke="#000000" points="829,-257.5 829,-276.5 915,-276.5 915,-257.5 829,-257.5"/>
<text text-anchor="middle" x="872" y="-264.5" font-family="Helvetica,sans-Serif" font-size="10.00" fill="#000000">CPVBase/Hit.h</text>
</a>
</g>
</g>
<!-- Node0&#45;&gt;Node10 -->
<g id="edge10" class="edge">
<title>Node0&#45;&gt;Node10</title>
<path fill="none" stroke="#191970" d="M799.1566,-313.3258C815.6889,-302.8119 834.1527,-291.0696 848.3545,-282.0377"/>
<polygon fill="#191970" stroke="#191970" points="850.4487,-284.8538 857.0086,-276.534 846.6922,-278.9471 850.4487,-284.8538"/>
</g>
<!-- Node31 -->
<g id="node32" class="node">
<title>Node31</title>
<polygon fill="none" stroke="#bfbfbf" points="933,-257.5 933,-276.5 993,-276.5 993,-257.5 933,-257.5"/>
<text text-anchor="middle" x="963" y="-264.5" font-family="Helvetica,sans-Serif" font-size="10.00" fill="#000000">iostream</text>
</g>
<!-- Node0&#45;&gt;Node31 -->
<g id="edge32" class="edge">
<title>Node0&#45;&gt;Node31</title>
<path fill="none" stroke="#191970" d="M824.5576,-315.9613C858.4419,-303.9779 898.3263,-289.8724 926.5601,-279.8873"/>
<polygon fill="#191970" stroke="#191970" points="927.7711,-283.1715 936.0319,-276.5375 925.4371,-276.5721 927.7711,-283.1715"/>
</g>
<!-- Node3 -->
<g id="node4" class="node">
<title>Node3</title>
<polygon fill="none" stroke="#bfbfbf" points="435.5,-196 435.5,-215 482.5,-215 482.5,-196 435.5,-196"/>
<text text-anchor="middle" x="459" y="-203" font-family="Helvetica,sans-Serif" font-size="10.00" fill="#000000">cmath</text>
</g>
<!-- Node2&#45;&gt;Node3 -->
<g id="edge3" class="edge">
<title>Node2&#45;&gt;Node3</title>
<path fill="none" stroke="#191970" d="M607.2595,-257.4937C576.1588,-249.0654 530.6098,-235.8197 492,-221 490.5965,-220.4613 489.1695,-219.8892 487.7352,-219.2944"/>
<polygon fill="#191970" stroke="#191970" points="488.903,-215.9843 478.3406,-215.1562 486.0812,-222.3904 488.903,-215.9843"/>
</g>
<!-- Node4 -->
<g id="node5" class="node">
<title>Node4</title>
<g id="a_node5"><a xlink:href="../../df/d5d/common_2include_2CommonDataFormat_2TimeStamp_8h.html" target="_top" xlink:title="CommonDataFormat/TimeStamp.h">
<polygon fill="none" stroke="#000000" points="500.5,-196 500.5,-215 687.5,-215 687.5,-196 500.5,-196"/>
<text text-anchor="middle" x="594" y="-203" font-family="Helvetica,sans-Serif" font-size="10.00" fill="#000000">CommonDataFormat/TimeStamp.h</text>
</a>
</g>
</g>
<!-- Node2&#45;&gt;Node4 -->
<g id="edge4" class="edge">
<title>Node2&#45;&gt;Node4</title>
<path fill="none" stroke="#191970" d="M636.1875,-257.3906C628.746,-248.2376 617.3666,-234.2409 608.3008,-223.09"/>
<polygon fill="#191970" stroke="#191970" points="610.9467,-220.7962 601.9226,-215.2449 605.5153,-225.212 610.9467,-220.7962"/>
</g>
<!-- Node5 -->
<g id="node6" class="node">
<title>Node5</title>
<g id="a_node6"><a xlink:href="../../d2/d45/GPUCommonRtypes_8h.html" target="_top" xlink:title="GPUCommonRtypes.h">
<polygon fill="none" stroke="#000000" points="455.5,-134.5 455.5,-153.5 580.5,-153.5 580.5,-134.5 455.5,-134.5"/>
<text text-anchor="middle" x="518" y="-141.5" font-family="Helvetica,sans-Serif" font-size="10.00" fill="#000000">GPUCommonRtypes.h</text>
</a>
</g>
</g>
<!-- Node4&#45;&gt;Node5 -->
<g id="edge5" class="edge">
<title>Node4&#45;&gt;Node5</title>
<path fill="none" stroke="#191970" d="M582.125,-195.8906C570.3703,-186.3786 552.1514,-171.6357 538.1328,-160.2917"/>
<polygon fill="#191970" stroke="#191970" points="540.0178,-157.3146 530.0424,-153.7449 535.6144,-162.7562 540.0178,-157.3146"/>
</g>
<!-- Node7 -->
<g id="node8" class="node">
<title>Node7</title>
<g id="a_node8"><a xlink:href="../../df/d21/GPUCommonDef_8h.html" target="_top" xlink:title="GPUCommonDef.h">
<polygon fill="none" stroke="#000000" points="162.5,-134.5 162.5,-153.5 269.5,-153.5 269.5,-134.5 162.5,-134.5"/>
<text text-anchor="middle" x="216" y="-141.5" font-family="Helvetica,sans-Serif" font-size="10.00" fill="#000000">GPUCommonDef.h</text>
</a>
</g>
</g>
<!-- Node4&#45;&gt;Node7 -->
<g id="edge7" class="edge">
<title>Node4&#45;&gt;Node7</title>
<path fill="none" stroke="#191970" d="M535.3522,-195.9581C466.0763,-184.687 351.2445,-166.0041 279.7985,-154.3799"/>
<polygon fill="#191970" stroke="#191970" points="280.015,-150.8692 269.5827,-152.7178 278.8908,-157.7783 280.015,-150.8692"/>
</g>
<!-- Node6 -->
<g id="node7" class="node">
<title>Node6</title>
<polygon fill="none" stroke="#bfbfbf" points="308.5,-73 308.5,-92 367.5,-92 367.5,-73 308.5,-73"/>
<text text-anchor="middle" x="338" y="-80" font-family="Helvetica,sans-Serif" font-size="10.00" fill="#000000">Rtypes.h</text>
</g>
<!-- Node5&#45;&gt;Node6 -->
<g id="edge6" class="edge">
<title>Node5&#45;&gt;Node6</title>
<path fill="none" stroke="#191970" d="M486.7249,-134.4177C458.0242,-125.4775 414.4134,-111.5224 377,-98 375.0985,-97.3127 373.151,-96.5924 371.1898,-95.8541"/>
<polygon fill="#191970" stroke="#191970" points="372.0088,-92.4187 361.4192,-92.0845 369.4891,-98.9495 372.0088,-92.4187"/>
</g>
<!-- Node8 -->
<g id="node9" class="node">
<title>Node8</title>
<g id="a_node9"><a xlink:href="../../d5/d93/GPUCommonDefSettings_8h.html" target="_top" xlink:title="GPUCommonDefSettings.h">
<polygon fill="none" stroke="#000000" points="142,-73 142,-92 290,-92 290,-73 142,-73"/>
<text text-anchor="middle" x="216" y="-80" font-family="Helvetica,sans-Serif" font-size="10.00" fill="#000000">GPUCommonDefSettings.h</text>
</a>
</g>
</g>
<!-- Node7&#45;&gt;Node8 -->
<g id="edge8" class="edge">
<title>Node7&#45;&gt;Node8</title>
<path fill="none" stroke="#191970" d="M216,-134.3906C216,-125.8657 216,-113.1392 216,-102.4235"/>
<polygon fill="#191970" stroke="#191970" points="219.5001,-102.2448 216,-92.2449 212.5001,-102.2449 219.5001,-102.2448"/>
</g>
<!-- Node9 -->
<g id="node10" class="node">
<title>Node9</title>
<g id="a_node10"><a xlink:href="../../da/d5a/GPUCommonDefAPI_8h.html" target="_top" xlink:title="GPUCommonDefAPI.h">
<polygon fill="none" stroke="#000000" points="0,-73 0,-92 124,-92 124,-73 0,-73"/>
<text text-anchor="middle" x="62" y="-80" font-family="Helvetica,sans-Serif" font-size="10.00" fill="#000000">GPUCommonDefAPI.h</text>
</a>
</g>
</g>
<!-- Node7&#45;&gt;Node9 -->
<g id="edge9" class="edge">
<title>Node7&#45;&gt;Node9</title>
<path fill="none" stroke="#191970" d="M191.9375,-134.3906C165.9444,-124.0103 124.3522,-107.4004 95.2453,-95.7766"/>
<polygon fill="#191970" stroke="#191970" points="96.4785,-92.5003 85.8935,-92.0419 93.8823,-99.0011 96.4785,-92.5003"/>
</g>
<!-- Node11 -->
<g id="node12" class="node">
<title>Node11</title>
<g id="a_node12"><a xlink:href="../../d4/d25/BaseHits_8h.html" target="_top" xlink:title="SimulationDataFormat\l/BaseHits.h">
<polygon fill="none" stroke="#000000" points="858.5,-190.5 858.5,-220.5 985.5,-220.5 985.5,-190.5 858.5,-190.5"/>
<text text-anchor="start" x="866.5" y="-208.5" font-family="Helvetica,sans-Serif" font-size="10.00" fill="#000000">SimulationDataFormat</text>
<text text-anchor="middle" x="922" y="-197.5" font-family="Helvetica,sans-Serif" font-size="10.00" fill="#000000">/BaseHits.h</text>
</a>
</g>
</g>
<!-- Node10&#45;&gt;Node11 -->
<g id="edge11" class="edge">
<title>Node10&#45;&gt;Node11</title>
<path fill="none" stroke="#191970" d="M879.8125,-257.3906C886.0781,-249.6839 895.1355,-238.5434 903.2529,-228.5589"/>
<polygon fill="#191970" stroke="#191970" points="906.176,-230.5117 909.7686,-220.5446 900.7446,-226.0959 906.176,-230.5117"/>
</g>
<!-- Node23 -->
<g id="node24" class="node">
<title>Node23</title>
<g id="a_node24"><a xlink:href="../../d0/d91/ShmAllocator_8h.html" target="_top" xlink:title="CommonUtils/ShmAllocator.h">
<polygon fill="none" stroke="#000000" points="1320,-196 1320,-215 1480,-215 1480,-196 1320,-196"/>
<text text-anchor="middle" x="1400" y="-203" font-family="Helvetica,sans-Serif" font-size="10.00" fill="#000000">CommonUtils/ShmAllocator.h</text>
</a>
</g>
</g>
<!-- Node10&#45;&gt;Node23 -->
<g id="edge24" class="edge">
<title>Node10&#45;&gt;Node23</title>
<path fill="none" stroke="#191970" d="M915.0834,-258.432C918.0963,-257.9199 921.0907,-257.4364 924,-257 1057.6403,-236.9552 1213.5138,-221.5996 1309.4837,-213.0615"/>
<polygon fill="#191970" stroke="#191970" points="1310.0789,-216.5226 1319.7318,-212.1554 1309.4624,-209.5498 1310.0789,-216.5226"/>
</g>
<!-- Node12 -->
<g id="node13" class="node">
<title>Node12</title>
<g id="a_node13"><a xlink:href="../../dd/d76/Cartesian3D_8h.html" target="_top" xlink:title="MathUtils/Cartesian3D.h">
<polygon fill="none" stroke="#000000" points="879.5,-134.5 879.5,-153.5 1014.5,-153.5 1014.5,-134.5 879.5,-134.5"/>
<text text-anchor="middle" x="947" y="-141.5" font-family="Helvetica,sans-Serif" font-size="10.00" fill="#000000">MathUtils/Cartesian3D.h</text>
</a>
</g>
</g>
<!-- Node11&#45;&gt;Node12 -->
<g id="edge12" class="edge">
<title>Node11&#45;&gt;Node12</title>
<path fill="none" stroke="#191970" d="M928.1798,-190.2977C931.5054,-182.1166 935.6411,-171.943 939.1879,-163.2179"/>
<polygon fill="#191970" stroke="#191970" points="942.4737,-164.4288 942.9972,-153.8469 935.989,-161.7927 942.4737,-164.4288"/>
</g>
<!-- Node12&#45;&gt;Node6 -->
<g id="edge18" class="edge">
<title>Node12&#45;&gt;Node6</title>
<path fill="none" stroke="#191970" d="M879.3962,-141.066C749.7635,-135.0244 470.7786,-119.8993 377,-98 374.1398,-97.3321 371.2133,-96.4902 368.3123,-95.5456"/>
<polygon fill="#191970" stroke="#191970" points="369.275,-92.1715 358.6809,-92.0425 366.8823,-98.7499 369.275,-92.1715"/>
</g>
<!-- Node13 -->
<g id="node14" class="node">
<title>Node13</title>
<polygon fill="none" stroke="#bfbfbf" points="386,-67.5 386,-97.5 550,-97.5 550,-67.5 386,-67.5"/>
<text text-anchor="start" x="394" y="-85.5" font-family="Helvetica,sans-Serif" font-size="10.00" fill="#000000">Math/GenVector/Displacement</text>
<text text-anchor="middle" x="468" y="-74.5" font-family="Helvetica,sans-Serif" font-size="10.00" fill="#000000">Vector3D.h</text>
</g>
<!-- Node12&#45;&gt;Node13 -->
<g id="edge13" class="edge">
<title>Node12&#45;&gt;Node13</title>
<path fill="none" stroke="#191970" d="M879.2256,-137.0177C803.8003,-129.0097 678.0605,-114.955 560.228,-98.1371"/>
<polygon fill="#191970" stroke="#191970" points="560.7065,-94.67 550.3104,-96.7122 559.711,-101.5988 560.7065,-94.67"/>
</g>
<!-- Node14 -->
<g id="node15" class="node">
<title>Node14</title>
<polygon fill="none" stroke="#bfbfbf" points="568.5,-73 568.5,-92 757.5,-92 757.5,-73 568.5,-73"/>
<text text-anchor="middle" x="663" y="-80" font-family="Helvetica,sans-Serif" font-size="10.00" fill="#000000">Math/GenVector/PositionVector3D.h</text>
</g>
<!-- Node12&#45;&gt;Node14 -->
<g id="edge14" class="edge">
<title>Node12&#45;&gt;Node14</title>
<path fill="none" stroke="#191970" d="M902.9366,-134.4581C852.8787,-123.6181 771.1618,-105.9224 717.2318,-94.2439"/>
<polygon fill="#191970" stroke="#191970" points="717.681,-90.7601 707.1668,-92.0643 716.1995,-97.6015 717.681,-90.7601"/>
</g>
<!-- Node15 -->
<g id="node16" class="node">
<title>Node15</title>
<polygon fill="none" stroke="#bfbfbf" points="776,-73 776,-92 936,-92 936,-73 776,-73"/>
<text text-anchor="middle" x="856" y="-80" font-family="Helvetica,sans-Serif" font-size="10.00" fill="#000000">Math/GenVector/Rotation3D.h</text>
</g>
<!-- Node12&#45;&gt;Node15 -->
<g id="edge15" class="edge">
<title>Node12&#45;&gt;Node15</title>
<path fill="none" stroke="#191970" d="M932.7813,-134.3906C918.3566,-124.6421 895.8024,-109.3994 878.864,-97.9521"/>
<polygon fill="#191970" stroke="#191970" points="880.3641,-94.7415 870.1189,-92.0419 876.4444,-100.5412 880.3641,-94.7415"/>
</g>
<!-- Node16 -->
<g id="node17" class="node">
<title>Node16</title>
<polygon fill="none" stroke="#bfbfbf" points="954,-73 954,-92 1122,-92 1122,-73 954,-73"/>
<text text-anchor="middle" x="1038" y="-80" font-family="Helvetica,sans-Serif" font-size="10.00" fill="#000000">Math/GenVector/Transform3D.h</text>
</g>
<!-- Node12&#45;&gt;Node16 -->
<g id="edge16" class="edge">
<title>Node12&#45;&gt;Node16</title>
<path fill="none" stroke="#191970" d="M961.2188,-134.3906C975.6434,-124.6421 998.1976,-109.3994 1015.136,-97.9521"/>
<polygon fill="#191970" stroke="#191970" points="1017.5556,-100.5412 1023.8811,-92.0419 1013.6359,-94.7415 1017.5556,-100.5412"/>
</g>
<!-- Node17 -->
<g id="node18" class="node">
<title>Node17</title>
<polygon fill="none" stroke="#bfbfbf" points="1140.5,-73 1140.5,-92 1313.5,-92 1313.5,-73 1140.5,-73"/>
<text text-anchor="middle" x="1227" y="-80" font-family="Helvetica,sans-Serif" font-size="10.00" fill="#000000">Math/GenVector/Translation3D.h</text>
</g>
<!-- Node12&#45;&gt;Node17 -->
<g id="edge17" class="edge">
<title>Node12&#45;&gt;Node17</title>
<path fill="none" stroke="#191970" d="M990.4428,-134.4581C1039.7956,-123.6181 1120.3616,-105.9224 1173.532,-94.2439"/>
<polygon fill="#191970" stroke="#191970" points="1174.439,-97.6282 1183.4553,-92.0643 1172.9372,-90.7911 1174.439,-97.6282"/>
</g>
<!-- Node18 -->
<g id="node19" class="node">
<title>Node18</title>
<polygon fill="none" stroke="#bfbfbf" points="1332,-73 1332,-92 1414,-92 1414,-73 1332,-73"/>
<text text-anchor="middle" x="1373" y="-80" font-family="Helvetica,sans-Serif" font-size="10.00" fill="#000000">TGeoMatrix.h</text>
</g>
<!-- Node12&#45;&gt;Node18 -->
<g id="edge19" class="edge">
<title>Node12&#45;&gt;Node18</title>
<path fill="none" stroke="#191970" d="M1014.5036,-139.3987C1090.2292,-133.393 1216.4168,-120.8479 1323,-98 1327.1487,-97.1106 1331.4473,-96.0302 1335.7029,-94.8578"/>
<polygon fill="#191970" stroke="#191970" points="1336.8492,-98.1692 1345.4644,-92.0024 1334.8839,-91.4508 1336.8492,-98.1692"/>
</g>
<!-- Node19 -->
<g id="node20" class="node">
<title>Node19</title>
<polygon fill="none" stroke="#bfbfbf" points="1432.5,-73 1432.5,-92 1481.5,-92 1481.5,-73 1432.5,-73"/>
<text text-anchor="middle" x="1457" y="-80" font-family="Helvetica,sans-Serif" font-size="10.00" fill="#000000">iosfwd</text>
</g>
<!-- Node12&#45;&gt;Node19 -->
<g id="edge20" class="edge">
<title>Node12&#45;&gt;Node19</title>
<path fill="none" stroke="#191970" d="M1014.8558,-140.2129C1127.4218,-133.4667 1347.8221,-118.163 1423,-98 1425.1891,-97.4129 1427.414,-96.6973 1429.624,-95.8993"/>
<polygon fill="#191970" stroke="#191970" points="1431.1461,-99.0578 1439.0618,-92.0156 1428.4823,-92.5844 1431.1461,-99.0578"/>
</g>
<!-- Node20 -->
<g id="node21" class="node">
<title>Node20</title>
<g id="a_node21"><a xlink:href="../../d2/dd0/Cartesian2D_8h.html" target="_top" xlink:title="MathUtils/Cartesian2D.h">
<polygon fill="none" stroke="#000000" points="1499.5,-73 1499.5,-92 1634.5,-92 1634.5,-73 1499.5,-73"/>
<text text-anchor="middle" x="1567" y="-80" font-family="Helvetica,sans-Serif" font-size="10.00" fill="#000000">MathUtils/Cartesian2D.h</text>
</a>
</g>
</g>
<!-- Node12&#45;&gt;Node20 -->
<g id="edge21" class="edge">
<title>Node12&#45;&gt;Node20</title>
<path fill="none" stroke="#191970" d="M1014.7103,-140.8217C1117.8891,-135.4046 1320.4874,-122.5114 1491,-98 1498.685,-96.8953 1506.7634,-95.5019 1514.6682,-94.006"/>
<polygon fill="#191970" stroke="#191970" points="1515.4052,-97.4283 1524.5454,-92.0704 1514.0589,-90.5589 1515.4052,-97.4283"/>
</g>
<!-- Node21 -->
<g id="node22" class="node">
<title>Node21</title>
<polygon fill="none" stroke="#bfbfbf" points="1387,-.5 1387,-30.5 1551,-30.5 1551,-.5 1387,-.5"/>
<text text-anchor="start" x="1395" y="-18.5" font-family="Helvetica,sans-Serif" font-size="10.00" fill="#000000">Math/GenVector/Displacement</text>
<text text-anchor="middle" x="1469" y="-7.5" font-family="Helvetica,sans-Serif" font-size="10.00" fill="#000000">Vector2D.h</text>
</g>
<!-- Node20&#45;&gt;Node21 -->
<g id="edge22" class="edge">
<title>Node20&#45;&gt;Node21</title>
<path fill="none" stroke="#191970" d="M1552.959,-72.9005C1539.0412,-63.3853 1517.272,-48.5023 1499.388,-36.2755"/>
<polygon fill="#191970" stroke="#191970" points="1501.2026,-33.2763 1490.9721,-30.5218 1497.2519,-39.0549 1501.2026,-33.2763"/>
</g>
<!-- Node22 -->
<g id="node23" class="node">
<title>Node22</title>
<polygon fill="none" stroke="#bfbfbf" points="1569.5,-6 1569.5,-25 1758.5,-25 1758.5,-6 1569.5,-6"/>
<text text-anchor="middle" x="1664" y="-13" font-family="Helvetica,sans-Serif" font-size="10.00" fill="#000000">Math/GenVector/PositionVector2D.h</text>
</g>
<!-- Node20&#45;&gt;Node22 -->
<g id="edge23" class="edge">
<title>Node20&#45;&gt;Node22</title>
<path fill="none" stroke="#191970" d="M1580.8977,-72.9005C1596.8164,-61.9052 1623.1121,-43.7422 1641.8599,-30.7927"/>
<polygon fill="#191970" stroke="#191970" points="1643.8892,-33.6448 1650.128,-25.0817 1639.9108,-27.8852 1643.8892,-33.6448"/>
</g>
<!-- Node24 -->
<g id="node25" class="node">
<title>Node24</title>
<g id="a_node25"><a xlink:href="../../de/d61/ShmManager_8h.html" target="_top" xlink:title="CommonUtils/ShmManager.h">
<polygon fill="none" stroke="#000000" points="1733,-134.5 1733,-153.5 1891,-153.5 1891,-134.5 1733,-134.5"/>
<text text-anchor="middle" x="1812" y="-141.5" font-family="Helvetica,sans-Serif" font-size="10.00" fill="#000000">CommonUtils/ShmManager.h</text>
</a>
</g>
</g>
<!-- Node23&#45;&gt;Node24 -->
<g id="edge25" class="edge">
<title>Node23&#45;&gt;Node24</title>
<path fill="none" stroke="#191970" d="M1463.923,-195.9581C1538.0091,-184.8991 1659.8973,-166.7047 1738.0168,-155.0436"/>
<polygon fill="#191970" stroke="#191970" points="1738.8924,-158.4518 1748.2661,-153.5137 1737.8589,-151.5285 1738.8924,-158.4518"/>
</g>
<!-- Node30 -->
<g id="node31" class="node">
<title>Node30</title>
<polygon fill="none" stroke="#bfbfbf" points="1374,-134.5 1374,-153.5 1426,-153.5 1426,-134.5 1374,-134.5"/>
<text text-anchor="middle" x="1400" y="-141.5" font-family="Helvetica,sans-Serif" font-size="10.00" fill="#000000">cassert</text>
</g>
<!-- Node23&#45;&gt;Node30 -->
<g id="edge31" class="edge">
<title>Node23&#45;&gt;Node30</title>
<path fill="none" stroke="#191970" d="M1400,-195.8906C1400,-187.3657 1400,-174.6392 1400,-163.9235"/>
<polygon fill="#191970" stroke="#191970" points="1403.5001,-163.7448 1400,-153.7449 1396.5001,-163.7449 1403.5001,-163.7448"/>
</g>
<!-- Node25 -->
<g id="node26" class="node">
<title>Node25</title>
<polygon fill="none" stroke="#bfbfbf" points="2128,-73 2128,-92 2160,-92 2160,-73 2128,-73"/>
<text text-anchor="middle" x="2144" y="-80" font-family="Helvetica,sans-Serif" font-size="10.00" fill="#000000">list</text>
</g>
<!-- Node24&#45;&gt;Node25 -->
<g id="edge26" class="edge">
<title>Node24&#45;&gt;Node25</title>
<path fill="none" stroke="#191970" d="M1891.3443,-135.7946C1968.0362,-127.2024 2078.4002,-112.9059 2119,-98 2119.8809,-97.6766 2120.7641,-97.3198 2121.6448,-96.936"/>
<polygon fill="#191970" stroke="#191970" points="2123.5768,-99.8727 2130.762,-92.0865 2120.2895,-93.6925 2123.5768,-99.8727"/>
</g>
<!-- Node26 -->
<g id="node27" class="node">
<title>Node26</title>
<polygon fill="none" stroke="#bfbfbf" points="1652.5,-73 1652.5,-92 1705.5,-92 1705.5,-73 1652.5,-73"/>
<text text-anchor="middle" x="1679" y="-80" font-family="Helvetica,sans-Serif" font-size="10.00" fill="#000000">cstddef</text>
</g>
<!-- Node24&#45;&gt;Node26 -->
<g id="edge27" class="edge">
<title>Node24&#45;&gt;Node26</title>
<path fill="none" stroke="#191970" d="M1791.2188,-134.3906C1769.1606,-124.1908 1734.095,-107.9763 1709.0331,-96.3875"/>
<polygon fill="#191970" stroke="#191970" points="1710.1809,-93.0622 1699.6353,-92.0419 1707.2429,-99.4158 1710.1809,-93.0622"/>
</g>
<!-- Node27 -->
<g id="node28" class="node">
<title>Node27</title>
<polygon fill="none" stroke="#bfbfbf" points="1724,-73 1724,-92 1774,-92 1774,-73 1724,-73"/>
<text text-anchor="middle" x="1749" y="-80" font-family="Helvetica,sans-Serif" font-size="10.00" fill="#000000">atomic</text>
</g>
<!-- Node24&#45;&gt;Node27 -->
<g id="edge28" class="edge">
<title>Node24&#45;&gt;Node27</title>
<path fill="none" stroke="#191970" d="M1802.1563,-134.3906C1792.5961,-125.0581 1777.8777,-110.6902 1766.3505,-99.4374"/>
<polygon fill="#191970" stroke="#191970" points="1768.5832,-96.7257 1758.9825,-92.2449 1763.6934,-101.7348 1768.5832,-96.7257"/>
</g>
<!-- Node28 -->
<g id="node29" class="node">
<title>Node28</title>
<polygon fill="none" stroke="#bfbfbf" points="1792.5,-67.5 1792.5,-97.5 1957.5,-97.5 1957.5,-67.5 1792.5,-67.5"/>
<text text-anchor="start" x="1800.5" y="-85.5" font-family="Helvetica,sans-Serif" font-size="10.00" fill="#000000">boost/interprocess</text>
<text text-anchor="middle" x="1875" y="-74.5" font-family="Helvetica,sans-Serif" font-size="10.00" fill="#000000">/managed_external_buffer.hpp</text>
</g>
<!-- Node24&#45;&gt;Node28 -->
<g id="edge29" class="edge">
<title>Node24&#45;&gt;Node28</title>
<path fill="none" stroke="#191970" d="M1821.8438,-134.3906C1829.9753,-126.4527 1841.8386,-114.8718 1852.2959,-104.6635"/>
<polygon fill="#191970" stroke="#191970" points="1854.8776,-107.0345 1859.5885,-97.5446 1849.9878,-102.0255 1854.8776,-107.0345"/>
</g>
<!-- Node29 -->
<g id="node30" class="node">
<title>Node29</title>
<polygon fill="none" stroke="#bfbfbf" points="1976,-67.5 1976,-97.5 2110,-97.5 2110,-67.5 1976,-67.5"/>
<text text-anchor="start" x="1984" y="-85.5" font-family="Helvetica,sans-Serif" font-size="10.00" fill="#000000">boost/interprocess</text>
<text text-anchor="middle" x="2043" y="-74.5" font-family="Helvetica,sans-Serif" font-size="10.00" fill="#000000">/allocators/allocator.hpp</text>
</g>
<!-- Node24&#45;&gt;Node29 -->
<g id="edge30" class="edge">
<title>Node24&#45;&gt;Node29</title>
<path fill="none" stroke="#191970" d="M1847.8403,-134.4581C1882.0978,-125.3376 1934.5847,-111.3638 1976.5014,-100.2042"/>
<polygon fill="#191970" stroke="#191970" points="1977.6011,-103.5334 1986.364,-97.5784 1975.8001,-96.769 1977.6011,-103.5334"/>
</g>
</g>
</svg>
        <g id="navigator" transform="translate(0 0)" fill="#404254">
                <rect fill="#f2f5e9" fill-opacity="0.5" stroke="#606060" stroke-width=".5" x="0" y="0" width="60" height="60"/>
                <use id="zoomplus" xlink:href="#zoomPlus" x="17" y="9" onmousedown="handleZoom(evt,'in')"/>
                <use id="zoomminus" xlink:href="#zoomMin" x="42" y="9" onmousedown="handleZoom(evt,'out')"/>
                <use id="reset" xlink:href="#resetDef" x="30" y="36" onmousedown="handleReset()"/>
                <g id="arrowUp" xlink:href="#dirArrow" transform="translate(30 24)" onmousedown="handlePan(0,-1)">
                  <use xlink:href="#rim" fill="#404040">
                        <set attributeName="fill" to="#808080" begin="arrowUp.mouseover" end="arrowUp.mouseout"/>
                  </use>
                  <path fill="none" stroke="white" stroke-width="1.5" d="M0,-3.0v7 M-2.5,-0.5L0,-3.0L2.5,-0.5"/>
                </g>
                <g id="arrowRight" xlink:href="#dirArrow" transform="rotate(90) translate(36 -43)" onmousedown="handlePan(1,0)">
                  <use xlink:href="#rim" fill="#404040">
                        <set attributeName="fill" to="#808080" begin="arrowRight.mouseover" end="arrowRight.mouseout"/>
                  </use>
                  <path fill="none" stroke="white" stroke-width="1.5" d="M0,-3.0v7 M-2.5,-0.5L0,-3.0L2.5,-0.5"/>
                </g>
                <g id="arrowDown" xlink:href="#dirArrow" transform="rotate(180) translate(-30 -48)" onmousedown="handlePan(0,1)">
                  <use xlink:href="#rim" fill="#404040">
                        <set attributeName="fill" to="#808080" begin="arrowDown.mouseover" end="arrowDown.mouseout"/>
                  </use>
                  <path fill="none" stroke="white" stroke-width="1.5" d="M0,-3.0v7 M-2.5,-0.5L0,-3.0L2.5,-0.5"/>
                </g>
                <g id="arrowLeft" xlink:href="#dirArrow" transform="rotate(270) translate(-36 17)" onmousedown="handlePan(-1,0)">
                  <use xlink:href="#rim" fill="#404040">
                        <set attributeName="fill" to="#808080" begin="arrowLeft.mouseover" end="arrowLeft.mouseout"/>
                  </use>
                  <path fill="none" stroke="white" stroke-width="1.5" d="M0,-3.0v7 M-2.5,-0.5L0,-3.0L2.5,-0.5"/>
                </g>
        </g>
        <svg viewBox="0 0 15 15" width="100%" height="30px" preserveAspectRatio="xMaxYMin meet">
         <g id="arrow_out" transform="scale(0.3 0.3)">
          <a xlink:href="DataFormats_2Detectors_2CPV_2src_2Digit_8cxx__incl_org.svg" target="_base">
           <rect id="button" ry="5" rx="5" y="6" x="6" height="38" width="38"
                fill="#f2f5e9" fill-opacity="0.5" stroke="#606060" stroke-width="1.0"/>
           <path id="arrow"
             d="M 11.500037,31.436501 C 11.940474,20.09759 22.043105,11.32322 32.158766,21.979434 L 37.068811,17.246167 C 37.068811,17.246167 37.088388,32 37.088388,32 L 22.160133,31.978069 C 22.160133,31.978069 26.997745,27.140456 26.997745,27.140456 C 18.528582,18.264221 13.291696,25.230495 11.500037,31.436501 z"
             style="fill:#404040;"/>
          </a>
         </g>
        </svg>
</svg>
