<?xml version="1.0" encoding="UTF-8" standalone="no"?>
<!DOCTYPE svg PUBLIC "-//W3C//DTD SVG 1.1//EN"
 "http://www.w3.org/Graphics/SVG/1.1/DTD/svg11.dtd">
<!-- Generated by graphviz version 2.40.1 (20161225.0304)
 -->
<!-- Title: /home/travis/build/AliceO2Group/AliceO2/DataFormats/simulation/include/SimulationDataFormat/IOMCTruthContainerView.h Pages: 1 -->
<svg width="3400pt" height="461pt"
 viewBox="0.00 0.00 3399.50 461.00" xmlns="http://www.w3.org/2000/svg" xmlns:xlink="http://www.w3.org/1999/xlink">
<g id="graph0" class="graph" transform="scale(1 1) rotate(0) translate(4 457)">
<title>/home/travis/build/AliceO2Group/AliceO2/DataFormats/simulation/include/SimulationDataFormat/IOMCTruthContainerView.h</title>
<!-- Node5 -->
<g id="node1" class="node">
<title>Node5</title>
<polygon fill="#bfbfbf" stroke="#000000" points="2213,-389.5 2213,-452.5 2381,-452.5 2381,-389.5 2213,-389.5"/>
<text text-anchor="start" x="2221" y="-440.5" font-family="Helvetica,sans-Serif" font-size="10.00" fill="#000000">/home/travis/build</text>
<text text-anchor="start" x="2221" y="-429.5" font-family="Helvetica,sans-Serif" font-size="10.00" fill="#000000">/AliceO2Group/AliceO2</text>
<text text-anchor="start" x="2221" y="-418.5" font-family="Helvetica,sans-Serif" font-size="10.00" fill="#000000">/DataFormats/simulation</text>
<text text-anchor="start" x="2221" y="-407.5" font-family="Helvetica,sans-Serif" font-size="10.00" fill="#000000">/include/SimulationDataFormat</text>
<text text-anchor="middle" x="2297" y="-396.5" font-family="Helvetica,sans-Serif" font-size="10.00" fill="#000000">/IOMCTruthContainerView.h</text>
</g>
<!-- Node6 -->
<g id="node2" class="node">
<title>Node6</title>
<g id="a_node2"><a xlink:href="../../d1/d2b/ClusterNativeHelper_8h.html" target="_top" xlink:title="Helper class to read the binary format of TPC ClusterNative. ">
<polygon fill="none" stroke="#000000" points="1086.5,-289.5 1086.5,-352.5 1247.5,-352.5 1247.5,-289.5 1086.5,-289.5"/>
<text text-anchor="start" x="1094.5" y="-340.5" font-family="Helvetica,sans-Serif" font-size="10.00" fill="#000000">/home/travis/build</text>
<text text-anchor="start" x="1094.5" y="-329.5" font-family="Helvetica,sans-Serif" font-size="10.00" fill="#000000">/AliceO2Group/AliceO2</text>
<text text-anchor="start" x="1094.5" y="-318.5" font-family="Helvetica,sans-Serif" font-size="10.00" fill="#000000">/DataFormats/Detectors</text>
<text text-anchor="start" x="1094.5" y="-307.5" font-family="Helvetica,sans-Serif" font-size="10.00" fill="#000000">/TPC/include/DataFormatsTPC</text>
<text text-anchor="middle" x="1167" y="-296.5" font-family="Helvetica,sans-Serif" font-size="10.00" fill="#000000">/ClusterNativeHelper.h</text>
</a>
</g>
</g>
<!-- Node5&#45;&gt;Node6 -->
<g id="edge1" class="edge">
<title>Node5&#45;&gt;Node6</title>
<path fill="none" stroke="#191970" d="M2202.539,-418.1593C1981.5899,-410.976 1436.2373,-389.9781 1257,-353 1253.9142,-352.3634 1250.7906,-351.645 1247.652,-350.8604"/>
<polygon fill="#191970" stroke="#191970" points="2202.7047,-421.6664 2212.8125,-418.491 2202.9306,-414.6701 2202.7047,-421.6664"/>
</g>
<!-- Node25 -->
<g id="node21" class="node">
<title>Node25</title>
<g id="a_node21"><a xlink:href="../../d5/d84/testMCTruthContainer_8cxx.html" target="_top" xlink:title="/home/travis/build\l/AliceO2Group/AliceO2\l/DataFormats/simulation\l/test/testMCTruthContainer.cxx">
<polygon fill="none" stroke="#000000" points="1266,-295 1266,-347 1432,-347 1432,-295 1266,-295"/>
<text text-anchor="start" x="1274" y="-335" font-family="Helvetica,sans-Serif" font-size="10.00" fill="#000000">/home/travis/build</text>
<text text-anchor="start" x="1274" y="-324" font-family="Helvetica,sans-Serif" font-size="10.00" fill="#000000">/AliceO2Group/AliceO2</text>
<text text-anchor="start" x="1274" y="-313" font-family="Helvetica,sans-Serif" font-size="10.00" fill="#000000">/DataFormats/simulation</text>
<text text-anchor="middle" x="1349" y="-302" font-family="Helvetica,sans-Serif" font-size="10.00" fill="#000000">/test/testMCTruthContainer.cxx</text>
</a>
</g>
</g>
<!-- Node5&#45;&gt;Node25 -->
<g id="edge23" class="edge">
<title>Node5&#45;&gt;Node25</title>
<path fill="none" stroke="#191970" d="M2202.9563,-416.5638C2011.8991,-407.0538 1584.332,-383.1016 1441,-353 1433.3871,-351.4012 1425.5396,-349.3437 1417.7877,-347.0441"/>
<polygon fill="#191970" stroke="#191970" points="2202.8208,-420.0613 2212.9817,-417.0604 2203.1672,-413.0699 2202.8208,-420.0613"/>
</g>
<!-- Node26 -->
<g id="node22" class="node">
<title>Node26</title>
<g id="a_node22"><a xlink:href="../../dc/d21/FIT_2FDD_2workflow_2src_2DigitReaderSpec_8cxx.html" target="_top" xlink:title="/home/travis/build\l/AliceO2Group/AliceO2\l/Detectors/FIT/FDD/workflow\l/src/DigitReaderSpec.cxx">
<polygon fill="none" stroke="#000000" points="1450.5,-295 1450.5,-347 1605.5,-347 1605.5,-295 1450.5,-295"/>
<text text-anchor="start" x="1458.5" y="-335" font-family="Helvetica,sans-Serif" font-size="10.00" fill="#000000">/home/travis/build</text>
<text text-anchor="start" x="1458.5" y="-324" font-family="Helvetica,sans-Serif" font-size="10.00" fill="#000000">/AliceO2Group/AliceO2</text>
<text text-anchor="start" x="1458.5" y="-313" font-family="Helvetica,sans-Serif" font-size="10.00" fill="#000000">/Detectors/FIT/FDD/workflow</text>
<text text-anchor="middle" x="1528" y="-302" font-family="Helvetica,sans-Serif" font-size="10.00" fill="#000000">/src/DigitReaderSpec.cxx</text>
</a>
</g>
</g>
<!-- Node5&#45;&gt;Node26 -->
<g id="edge24" class="edge">
<title>Node5&#45;&gt;Node26</title>
<path fill="none" stroke="#191970" d="M2202.522,-414.5474C2042.3585,-403.1122 1724.2904,-378.1195 1615,-353 1607.942,-351.3778 1600.6771,-349.3371 1593.4961,-347.0752"/>
<polygon fill="#191970" stroke="#191970" points="2202.6163,-418.0629 2212.8394,-415.2809 2203.1128,-411.0805 2202.6163,-418.0629"/>
</g>
<!-- Node27 -->
<g id="node23" class="node">
<title>Node27</title>
<g id="a_node23"><a xlink:href="../../d9/df0/DigitWriterSpec_8cxx.html" target="_top" xlink:title="/home/travis/build\l/AliceO2Group/AliceO2\l/Detectors/ITSMFT/common\l/workflow/src/DigitWriterSpec.cxx">
<polygon fill="none" stroke="#000000" points="1624,-295 1624,-347 1804,-347 1804,-295 1624,-295"/>
<text text-anchor="start" x="1632" y="-335" font-family="Helvetica,sans-Serif" font-size="10.00" fill="#000000">/home/travis/build</text>
<text text-anchor="start" x="1632" y="-324" font-family="Helvetica,sans-Serif" font-size="10.00" fill="#000000">/AliceO2Group/AliceO2</text>
<text text-anchor="start" x="1632" y="-313" font-family="Helvetica,sans-Serif" font-size="10.00" fill="#000000">/Detectors/ITSMFT/common</text>
<text text-anchor="middle" x="1714" y="-302" font-family="Helvetica,sans-Serif" font-size="10.00" fill="#000000">/workflow/src/DigitWriterSpec.cxx</text>
</a>
</g>
</g>
<!-- Node5&#45;&gt;Node27 -->
<g id="edge25" class="edge">
<title>Node5&#45;&gt;Node27</title>
<path fill="none" stroke="#191970" d="M2202.4901,-412.6079C2104.2865,-402.7521 1946.5772,-383.7282 1813,-353 1805.5186,-351.279 1797.7927,-349.2474 1790.1097,-347.0559"/>
<polygon fill="#191970" stroke="#191970" points="2202.3921,-416.1153 2212.6889,-413.62 2203.0834,-409.1495 2202.3921,-416.1153"/>
</g>
<!-- Node28 -->
<g id="node24" class="node">
<title>Node28</title>
<g id="a_node24"><a xlink:href="../../dc/d79/ITSMFT_2ITS_2workflow_2src_2DigitReaderSpec_8cxx.html" target="_top" xlink:title="/home/travis/build\l/AliceO2Group/AliceO2\l/Detectors/ITSMFT/ITS\l/workflow/src/DigitReaderSpec.cxx">
<polygon fill="none" stroke="#000000" points="1822.5,-295 1822.5,-347 2007.5,-347 2007.5,-295 1822.5,-295"/>
<text text-anchor="start" x="1830.5" y="-335" font-family="Helvetica,sans-Serif" font-size="10.00" fill="#000000">/home/travis/build</text>
<text text-anchor="start" x="1830.5" y="-324" font-family="Helvetica,sans-Serif" font-size="10.00" fill="#000000">/AliceO2Group/AliceO2</text>
<text text-anchor="start" x="1830.5" y="-313" font-family="Helvetica,sans-Serif" font-size="10.00" fill="#000000">/Detectors/ITSMFT/ITS</text>
<text text-anchor="middle" x="1915" y="-302" font-family="Helvetica,sans-Serif" font-size="10.00" fill="#000000">/workflow/src/DigitReaderSpec.cxx</text>
</a>
</g>
</g>
<!-- Node5&#45;&gt;Node28 -->
<g id="edge26" class="edge">
<title>Node5&#45;&gt;Node28</title>
<path fill="none" stroke="#191970" d="M2202.9521,-399.9605C2148.1669,-387.2766 2077.8977,-370.2726 2016,-353 2009.2676,-351.1213 2002.3084,-349.0953 1995.3382,-347.0071"/>
<polygon fill="#191970" stroke="#191970" points="2202.4651,-403.4401 2212.996,-402.2777 2204.0388,-396.6192 2202.4651,-403.4401"/>
</g>
<!-- Node29 -->
<g id="node25" class="node">
<title>Node29</title>
<g id="a_node25"><a xlink:href="../../d9/d48/ITSMFT_2MFT_2workflow_2src_2DigitReaderSpec_8cxx.html" target="_top" xlink:title="/home/travis/build\l/AliceO2Group/AliceO2\l/Detectors/ITSMFT/MFT\l/workflow/src/DigitReaderSpec.cxx">
<polygon fill="none" stroke="#000000" points="2025.5,-295 2025.5,-347 2210.5,-347 2210.5,-295 2025.5,-295"/>
<text text-anchor="start" x="2033.5" y="-335" font-family="Helvetica,sans-Serif" font-size="10.00" fill="#000000">/home/travis/build</text>
<text text-anchor="start" x="2033.5" y="-324" font-family="Helvetica,sans-Serif" font-size="10.00" fill="#000000">/AliceO2Group/AliceO2</text>
<text text-anchor="start" x="2033.5" y="-313" font-family="Helvetica,sans-Serif" font-size="10.00" fill="#000000">/Detectors/ITSMFT/MFT</text>
<text text-anchor="middle" x="2118" y="-302" font-family="Helvetica,sans-Serif" font-size="10.00" fill="#000000">/workflow/src/DigitReaderSpec.cxx</text>
</a>
</g>
</g>
<!-- Node5&#45;&gt;Node29 -->
<g id="edge27" class="edge">
<title>Node5&#45;&gt;Node29</title>
<path fill="none" stroke="#191970" d="M2231.357,-384.3279C2209.241,-371.9726 2185.0284,-358.446 2164.6796,-347.078"/>
<polygon fill="#191970" stroke="#191970" points="2229.9262,-387.5377 2240.3633,-389.3594 2233.3402,-381.4267 2229.9262,-387.5377"/>
</g>
<!-- Node30 -->
<g id="node26" class="node">
<title>Node30</title>
<g id="a_node26"><a xlink:href="../../d0/d80/TPC_2workflow_2src_2RecoWorkflow_8cxx.html" target="_top" xlink:title="/home/travis/build\l/AliceO2Group/AliceO2\l/Detectors/TPC/workflow\l/src/RecoWorkflow.cxx">
<polygon fill="none" stroke="#000000" points="2229,-295 2229,-347 2365,-347 2365,-295 2229,-295"/>
<text text-anchor="start" x="2237" y="-335" font-family="Helvetica,sans-Serif" font-size="10.00" fill="#000000">/home/travis/build</text>
<text text-anchor="start" x="2237" y="-324" font-family="Helvetica,sans-Serif" font-size="10.00" fill="#000000">/AliceO2Group/AliceO2</text>
<text text-anchor="start" x="2237" y="-313" font-family="Helvetica,sans-Serif" font-size="10.00" fill="#000000">/Detectors/TPC/workflow</text>
<text text-anchor="middle" x="2297" y="-302" font-family="Helvetica,sans-Serif" font-size="10.00" fill="#000000">/src/RecoWorkflow.cxx</text>
</a>
</g>
</g>
<!-- Node5&#45;&gt;Node30 -->
<g id="edge28" class="edge">
<title>Node5&#45;&gt;Node30</title>
<path fill="none" stroke="#191970" d="M2297,-379.1631C2297,-368.2863 2297,-356.8798 2297,-347.078"/>
<polygon fill="#191970" stroke="#191970" points="2293.5001,-379.3593 2297,-389.3594 2300.5001,-379.3594 2293.5001,-379.3593"/>
</g>
<!-- Node31 -->
<g id="node27" class="node">
<title>Node31</title>
<g id="a_node27"><a xlink:href="../../d7/da6/TRDDigitReaderSpec_8cxx.html" target="_top" xlink:title="/home/travis/build\l/AliceO2Group/AliceO2\l/Detectors/TRD/workflow\l/src/TRDDigitReaderSpec.cxx">
<polygon fill="none" stroke="#000000" points="2383,-295 2383,-347 2541,-347 2541,-295 2383,-295"/>
<text text-anchor="start" x="2391" y="-335" font-family="Helvetica,sans-Serif" font-size="10.00" fill="#000000">/home/travis/build</text>
<text text-anchor="start" x="2391" y="-324" font-family="Helvetica,sans-Serif" font-size="10.00" fill="#000000">/AliceO2Group/AliceO2</text>
<text text-anchor="start" x="2391" y="-313" font-family="Helvetica,sans-Serif" font-size="10.00" fill="#000000">/Detectors/TRD/workflow</text>
<text text-anchor="middle" x="2462" y="-302" font-family="Helvetica,sans-Serif" font-size="10.00" fill="#000000">/src/TRDDigitReaderSpec.cxx</text>
</a>
</g>
</g>
<!-- Node5&#45;&gt;Node31 -->
<g id="edge29" class="edge">
<title>Node5&#45;&gt;Node31</title>
<path fill="none" stroke="#191970" d="M2357.7809,-384.1631C2378.0935,-371.8524 2400.2974,-358.3955 2418.9714,-347.078"/>
<polygon fill="#191970" stroke="#191970" points="2355.945,-381.1831 2349.207,-389.3594 2359.5731,-387.1695 2355.945,-381.1831"/>
</g>
<!-- Node32 -->
<g id="node28" class="node">
<title>Node32</title>
<g id="a_node28"><a xlink:href="../../dd/d1a/TRDDigitWriterSpec_8cxx.html" target="_top" xlink:title="/home/travis/build\l/AliceO2Group/AliceO2\l/Detectors/TRD/workflow\l/src/TRDDigitWriterSpec.cxx">
<polygon fill="none" stroke="#000000" points="2559.5,-295 2559.5,-347 2712.5,-347 2712.5,-295 2559.5,-295"/>
<text text-anchor="start" x="2567.5" y="-335" font-family="Helvetica,sans-Serif" font-size="10.00" fill="#000000">/home/travis/build</text>
<text text-anchor="start" x="2567.5" y="-324" font-family="Helvetica,sans-Serif" font-size="10.00" fill="#000000">/AliceO2Group/AliceO2</text>
<text text-anchor="start" x="2567.5" y="-313" font-family="Helvetica,sans-Serif" font-size="10.00" fill="#000000">/Detectors/TRD/workflow</text>
<text text-anchor="middle" x="2636" y="-302" font-family="Helvetica,sans-Serif" font-size="10.00" fill="#000000">/src/TRDDigitWriterSpec.cxx</text>
</a>
</g>
</g>
<!-- Node5&#45;&gt;Node32 -->
<g id="edge30" class="edge">
<title>Node5&#45;&gt;Node32</title>
<path fill="none" stroke="#191970" d="M2390.7874,-398.0256C2438.7295,-385.7186 2497.8169,-369.6809 2550,-353 2555.7662,-351.1568 2561.7155,-349.1557 2567.6664,-347.0842"/>
<polygon fill="#191970" stroke="#191970" points="2389.8657,-394.6486 2381.0433,-400.5151 2391.5985,-401.4308 2389.8657,-394.6486"/>
</g>
<!-- Node33 -->
<g id="node29" class="node">
<title>Node33</title>
<g id="a_node29"><a xlink:href="../../d8/dcd/FDDDigitWriterSpec_8h.html" target="_top" xlink:title="/home/travis/build\l/AliceO2Group/AliceO2\l/Steer/DigitizerWorkflow\l/src/FDDDigitWriterSpec.h">
<polygon fill="none" stroke="#000000" points="2731,-295 2731,-347 2873,-347 2873,-295 2731,-295"/>
<text text-anchor="start" x="2739" y="-335" font-family="Helvetica,sans-Serif" font-size="10.00" fill="#000000">/home/travis/build</text>
<text text-anchor="start" x="2739" y="-324" font-family="Helvetica,sans-Serif" font-size="10.00" fill="#000000">/AliceO2Group/AliceO2</text>
<text text-anchor="start" x="2739" y="-313" font-family="Helvetica,sans-Serif" font-size="10.00" fill="#000000">/Steer/DigitizerWorkflow</text>
<text text-anchor="middle" x="2802" y="-302" font-family="Helvetica,sans-Serif" font-size="10.00" fill="#000000">/src/FDDDigitWriterSpec.h</text>
</a>
</g>
</g>
<!-- Node5&#45;&gt;Node33 -->
<g id="edge31" class="edge">
<title>Node5&#45;&gt;Node33</title>
<path fill="none" stroke="#191970" d="M2391.099,-411.8429C2477.855,-402.0094 2609.6533,-383.5325 2721,-353 2727.2702,-351.2806 2733.7193,-349.2361 2740.1103,-347.024"/>
<polygon fill="#191970" stroke="#191970" points="2390.5592,-408.3813 2381.0099,-412.9705 2391.3368,-415.338 2390.5592,-408.3813"/>
</g>
<!-- Node35 -->
<g id="node31" class="node">
<title>Node35</title>
<g id="a_node31"><a xlink:href="../../d2/d10/MCTruthReaderSpec_8h.html" target="_top" xlink:title="/home/travis/build\l/AliceO2Group/AliceO2\l/Steer/DigitizerWorkflow\l/src/MCTruthReaderSpec.h">
<polygon fill="none" stroke="#000000" points="2891,-295 2891,-347 3033,-347 3033,-295 2891,-295"/>
<text text-anchor="start" x="2899" y="-335" font-family="Helvetica,sans-Serif" font-size="10.00" fill="#000000">/home/travis/build</text>
<text text-anchor="start" x="2899" y="-324" font-family="Helvetica,sans-Serif" font-size="10.00" fill="#000000">/AliceO2Group/AliceO2</text>
<text text-anchor="start" x="2899" y="-313" font-family="Helvetica,sans-Serif" font-size="10.00" fill="#000000">/Steer/DigitizerWorkflow</text>
<text text-anchor="middle" x="2962" y="-302" font-family="Helvetica,sans-Serif" font-size="10.00" fill="#000000">/src/MCTruthReaderSpec.h</text>
</a>
</g>
</g>
<!-- Node5&#45;&gt;Node35 -->
<g id="edge33" class="edge">
<title>Node5&#45;&gt;Node35</title>
<path fill="none" stroke="#191970" d="M2391.4197,-417.6978C2508.227,-411.8691 2712.4272,-395.9584 2882,-353 2888.5253,-351.3469 2895.2285,-349.2862 2901.8454,-347.0123"/>
<polygon fill="#191970" stroke="#191970" points="2390.9047,-414.2185 2381.0858,-418.1984 2391.2435,-421.2103 2390.9047,-414.2185"/>
</g>
<!-- Node37 -->
<g id="node33" class="node">
<title>Node37</title>
<g id="a_node33"><a xlink:href="../../dd/d1a/MCTruthWriterSpec_8cxx.html" target="_top" xlink:title="/home/travis/build\l/AliceO2Group/AliceO2\l/Steer/DigitizerWorkflow\l/src/MCTruthWriterSpec.cxx">
<polygon fill="none" stroke="#000000" points="3051.5,-295 3051.5,-347 3200.5,-347 3200.5,-295 3051.5,-295"/>
<text text-anchor="start" x="3059.5" y="-335" font-family="Helvetica,sans-Serif" font-size="10.00" fill="#000000">/home/travis/build</text>
<text text-anchor="start" x="3059.5" y="-324" font-family="Helvetica,sans-Serif" font-size="10.00" fill="#000000">/AliceO2Group/AliceO2</text>
<text text-anchor="start" x="3059.5" y="-313" font-family="Helvetica,sans-Serif" font-size="10.00" fill="#000000">/Steer/DigitizerWorkflow</text>
<text text-anchor="middle" x="3126" y="-302" font-family="Helvetica,sans-Serif" font-size="10.00" fill="#000000">/src/MCTruthWriterSpec.cxx</text>
</a>
</g>
</g>
<!-- Node5&#45;&gt;Node37 -->
<g id="edge35" class="edge">
<title>Node5&#45;&gt;Node37</title>
<path fill="none" stroke="#191970" d="M2391.1561,-415.6161C2562.933,-405.2614 2920.6537,-381.0927 3042,-353 3048.9937,-351.3809 3056.1861,-349.3105 3063.2801,-347.0032"/>
<polygon fill="#191970" stroke="#191970" points="2390.8877,-412.1258 2381.1152,-416.2184 2391.3069,-419.1132 2390.8877,-412.1258"/>
</g>
<!-- Node38 -->
<g id="node34" class="node">
<title>Node38</title>
<g id="a_node34"><a xlink:href="../../d8/dd2/TPCDigitRootWriterSpec_8cxx.html" target="_top" xlink:title="/home/travis/build\l/AliceO2Group/AliceO2\l/Steer/DigitizerWorkflow\l/src/TPCDigitRootWriterSpec.cxx">
<polygon fill="none" stroke="#000000" points="3218.5,-295 3218.5,-347 3391.5,-347 3391.5,-295 3218.5,-295"/>
<text text-anchor="start" x="3226.5" y="-335" font-family="Helvetica,sans-Serif" font-size="10.00" fill="#000000">/home/travis/build</text>
<text text-anchor="start" x="3226.5" y="-324" font-family="Helvetica,sans-Serif" font-size="10.00" fill="#000000">/AliceO2Group/AliceO2</text>
<text text-anchor="start" x="3226.5" y="-313" font-family="Helvetica,sans-Serif" font-size="10.00" fill="#000000">/Steer/DigitizerWorkflow</text>
<text text-anchor="middle" x="3305" y="-302" font-family="Helvetica,sans-Serif" font-size="10.00" fill="#000000">/src/TPCDigitRootWriterSpec.cxx</text>
</a>
</g>
</g>
<!-- Node5&#45;&gt;Node38 -->
<g id="edge36" class="edge">
<title>Node5&#45;&gt;Node38</title>
<path fill="none" stroke="#191970" d="M2391.3155,-416.9737C2591.9682,-407.9186 3055.4373,-384.2709 3210,-353 3217.8467,-351.4125 3225.9408,-349.3623 3233.94,-347.0669"/>
<polygon fill="#191970" stroke="#191970" points="2390.9236,-413.4877 2381.0907,-417.4328 2391.2376,-420.4806 2390.9236,-413.4877"/>
</g>
<!-- Node7 -->
<g id="node3" class="node">
<title>Node7</title>
<g id="a_node3"><a xlink:href="../../d5/d1e/ClusterNativeHelper_8cxx.html" target="_top" xlink:title="Helper class to read the binary format of TPC ClusterNative. ">
<polygon fill="none" stroke="#000000" points="355.5,-195 355.5,-247 532.5,-247 532.5,-195 355.5,-195"/>
<text text-anchor="start" x="363.5" y="-235" font-family="Helvetica,sans-Serif" font-size="10.00" fill="#000000">/home/travis/build</text>
<text text-anchor="start" x="363.5" y="-224" font-family="Helvetica,sans-Serif" font-size="10.00" fill="#000000">/AliceO2Group/AliceO2</text>
<text text-anchor="start" x="363.5" y="-213" font-family="Helvetica,sans-Serif" font-size="10.00" fill="#000000">/DataFormats/Detectors</text>
<text text-anchor="middle" x="444" y="-202" font-family="Helvetica,sans-Serif" font-size="10.00" fill="#000000">/TPC/src/ClusterNativeHelper.cxx</text>
</a>
</g>
</g>
<!-- Node6&#45;&gt;Node7 -->
<g id="edge2" class="edge">
<title>Node6&#45;&gt;Node7</title>
<path fill="none" stroke="#191970" d="M1075.9874,-317.1191C953.291,-310.5278 728.5721,-293.6523 541,-253 533.2879,-251.3286 525.3259,-249.2713 517.4341,-247.0128"/>
<polygon fill="#191970" stroke="#191970" points="1075.9201,-320.6203 1086.0903,-317.6509 1076.2881,-313.6299 1075.9201,-320.6203"/>
</g>
<!-- Node8 -->
<g id="node4" class="node">
<title>Node8</title>
<g id="a_node4"><a xlink:href="../../d3/dac/MatchTPCITS_8h.html" target="_top" xlink:title="Class to perform TPC ITS matching. ">
<polygon fill="none" stroke="#000000" points="550.5,-195 550.5,-247 755.5,-247 755.5,-195 550.5,-195"/>
<text text-anchor="start" x="558.5" y="-235" font-family="Helvetica,sans-Serif" font-size="10.00" fill="#000000">/home/travis/build</text>
<text text-anchor="start" x="558.5" y="-224" font-family="Helvetica,sans-Serif" font-size="10.00" fill="#000000">/AliceO2Group/AliceO2</text>
<text text-anchor="start" x="558.5" y="-213" font-family="Helvetica,sans-Serif" font-size="10.00" fill="#000000">/Detectors/GlobalTracking</text>
<text text-anchor="middle" x="653" y="-202" font-family="Helvetica,sans-Serif" font-size="10.00" fill="#000000">/include/GlobalTracking/MatchTPCITS.h</text>
</a>
</g>
</g>
<!-- Node6&#45;&gt;Node8 -->
<g id="edge3" class="edge">
<title>Node6&#45;&gt;Node8</title>
<path fill="none" stroke="#191970" d="M1076.517,-303.3963C986.7677,-285.9354 849.4416,-259.2182 755.6622,-240.9732"/>
<polygon fill="#191970" stroke="#191970" points="1075.9206,-306.8458 1086.405,-305.32 1077.2574,-299.9746 1075.9206,-306.8458"/>
</g>
<!-- Node16 -->
<g id="node12" class="node">
<title>Node16</title>
<g id="a_node12"><a xlink:href="../../d6/d73/TPCITSMatchingSpec_8cxx.html" target="_top" xlink:title="/home/travis/build\l/AliceO2Group/AliceO2\l/Detectors/GlobalTrackingWorkflow\l/src/TPCITSMatchingSpec.cxx">
<polygon fill="none" stroke="#000000" points="861.5,-.5 861.5,-52.5 1048.5,-52.5 1048.5,-.5 861.5,-.5"/>
<text text-anchor="start" x="869.5" y="-40.5" font-family="Helvetica,sans-Serif" font-size="10.00" fill="#000000">/home/travis/build</text>
<text text-anchor="start" x="869.5" y="-29.5" font-family="Helvetica,sans-Serif" font-size="10.00" fill="#000000">/AliceO2Group/AliceO2</text>
<text text-anchor="start" x="869.5" y="-18.5" font-family="Helvetica,sans-Serif" font-size="10.00" fill="#000000">/Detectors/GlobalTrackingWorkflow</text>
<text text-anchor="middle" x="955" y="-7.5" font-family="Helvetica,sans-Serif" font-size="10.00" fill="#000000">/src/TPCITSMatchingSpec.cxx</text>
</a>
</g>
</g>
<!-- Node6&#45;&gt;Node16 -->
<g id="edge13" class="edge">
<title>Node6&#45;&gt;Node16</title>
<path fill="none" stroke="#191970" d="M1076.2691,-310.8909C1004.308,-300.7835 912.1098,-282.4438 889,-253 841.3316,-192.2664 899.6462,-98.169 933.7121,-52.7696"/>
<polygon fill="#191970" stroke="#191970" points="1075.8968,-314.3725 1086.2795,-312.2627 1076.8473,-307.4373 1075.8968,-314.3725"/>
</g>
<!-- Node17 -->
<g id="node13" class="node">
<title>Node17</title>
<g id="a_node13"><a xlink:href="../../d8/d85/TPCInterpolationSpec_8cxx.html" target="_top" xlink:title="/home/travis/build\l/AliceO2Group/AliceO2\l/Detectors/GlobalTrackingWorkflow\l/tpcinterpolationworkflow/src\l/TPCInterpolationSpec.cxx">
<polygon fill="none" stroke="#000000" points="898.5,-189.5 898.5,-252.5 1085.5,-252.5 1085.5,-189.5 898.5,-189.5"/>
<text text-anchor="start" x="906.5" y="-240.5" font-family="Helvetica,sans-Serif" font-size="10.00" fill="#000000">/home/travis/build</text>
<text text-anchor="start" x="906.5" y="-229.5" font-family="Helvetica,sans-Serif" font-size="10.00" fill="#000000">/AliceO2Group/AliceO2</text>
<text text-anchor="start" x="906.5" y="-218.5" font-family="Helvetica,sans-Serif" font-size="10.00" fill="#000000">/Detectors/GlobalTrackingWorkflow</text>
<text text-anchor="start" x="906.5" y="-207.5" font-family="Helvetica,sans-Serif" font-size="10.00" fill="#000000">/tpcinterpolationworkflow/src</text>
<text text-anchor="middle" x="992" y="-196.5" font-family="Helvetica,sans-Serif" font-size="10.00" fill="#000000">/TPCInterpolationSpec.cxx</text>
</a>
</g>
</g>
<!-- Node6&#45;&gt;Node17 -->
<g id="edge14" class="edge">
<title>Node6&#45;&gt;Node17</title>
<path fill="none" stroke="#191970" d="M1102.8214,-284.3265C1084.6114,-273.9208 1064.9475,-262.6843 1047.311,-252.6063"/>
<polygon fill="#191970" stroke="#191970" points="1101.21,-287.4368 1111.6289,-289.3594 1104.683,-281.3591 1101.21,-287.4368"/>
</g>
<!-- Node18 -->
<g id="node14" class="node">
<title>Node18</title>
<g id="a_node14"><a xlink:href="../../d2/d41/HardwareClusterDecoder_8h.html" target="_top" xlink:title="Decoder to convert TPC ClusterHardware to ClusterNative. ">
<polygon fill="none" stroke="#000000" points="1141.5,-189.5 1141.5,-252.5 1302.5,-252.5 1302.5,-189.5 1141.5,-189.5"/>
<text text-anchor="start" x="1149.5" y="-240.5" font-family="Helvetica,sans-Serif" font-size="10.00" fill="#000000">/home/travis/build</text>
<text text-anchor="start" x="1149.5" y="-229.5" font-family="Helvetica,sans-Serif" font-size="10.00" fill="#000000">/AliceO2Group/AliceO2</text>
<text text-anchor="start" x="1149.5" y="-218.5" font-family="Helvetica,sans-Serif" font-size="10.00" fill="#000000">/Detectors/TPC/reconstruction</text>
<text text-anchor="start" x="1149.5" y="-207.5" font-family="Helvetica,sans-Serif" font-size="10.00" fill="#000000">/include/TPCReconstruction</text>
<text text-anchor="middle" x="1222" y="-196.5" font-family="Helvetica,sans-Serif" font-size="10.00" fill="#000000">/HardwareClusterDecoder.h</text>
</a>
</g>
</g>
<!-- Node6&#45;&gt;Node18 -->
<g id="edge15" class="edge">
<title>Node6&#45;&gt;Node18</title>
<path fill="none" stroke="#191970" d="M1189.3508,-280.3622C1194.406,-271.1709 1199.702,-261.5418 1204.5221,-252.778"/>
<polygon fill="#191970" stroke="#191970" points="1186.1548,-278.9105 1184.4023,-289.3594 1192.2883,-282.2839 1186.1548,-278.9105"/>
</g>
<!-- Node19 -->
<g id="node15" class="node">
<title>Node19</title>
<g id="a_node15"><a xlink:href="../../d4/d7c/HardwareClusterDecoder_8cxx.html" target="_top" xlink:title="/home/travis/build\l/AliceO2Group/AliceO2\l/Detectors/TPC/reconstruction\l/src/HardwareClusterDecoder.cxx">
<polygon fill="none" stroke="#000000" points="1023.5,-95 1023.5,-147 1202.5,-147 1202.5,-95 1023.5,-95"/>
<text text-anchor="start" x="1031.5" y="-135" font-family="Helvetica,sans-Serif" font-size="10.00" fill="#000000">/home/travis/build</text>
<text text-anchor="start" x="1031.5" y="-124" font-family="Helvetica,sans-Serif" font-size="10.00" fill="#000000">/AliceO2Group/AliceO2</text>
<text text-anchor="start" x="1031.5" y="-113" font-family="Helvetica,sans-Serif" font-size="10.00" fill="#000000">/Detectors/TPC/reconstruction</text>
<text text-anchor="middle" x="1113" y="-102" font-family="Helvetica,sans-Serif" font-size="10.00" fill="#000000">/src/HardwareClusterDecoder.cxx</text>
</a>
</g>
</g>
<!-- Node6&#45;&gt;Node19 -->
<g id="edge19" class="edge">
<title>Node6&#45;&gt;Node19</title>
<path fill="none" stroke="#191970" d="M1143.3879,-280.4923C1139.0322,-271.6607 1134.9382,-262.1995 1132,-253 1120.6236,-217.3808 1116.0393,-174.1692 1114.205,-147.1205"/>
<polygon fill="#191970" stroke="#191970" points="1140.2985,-282.1381 1147.9844,-289.4304 1146.5236,-278.9368 1140.2985,-282.1381"/>
</g>
<!-- Node21 -->
<g id="node17" class="node">
<title>Node21</title>
<g id="a_node17"><a xlink:href="../../d4/d2e/GPUCATracking_8cxx.html" target="_top" xlink:title="/home/travis/build\l/AliceO2Group/AliceO2\l/Detectors/TPC/reconstruction\l/src/GPUCATracking.cxx">
<polygon fill="none" stroke="#000000" points="1320.5,-195 1320.5,-247 1481.5,-247 1481.5,-195 1320.5,-195"/>
<text text-anchor="start" x="1328.5" y="-235" font-family="Helvetica,sans-Serif" font-size="10.00" fill="#000000">/home/travis/build</text>
<text text-anchor="start" x="1328.5" y="-224" font-family="Helvetica,sans-Serif" font-size="10.00" fill="#000000">/AliceO2Group/AliceO2</text>
<text text-anchor="start" x="1328.5" y="-213" font-family="Helvetica,sans-Serif" font-size="10.00" fill="#000000">/Detectors/TPC/reconstruction</text>
<text text-anchor="middle" x="1401" y="-202" font-family="Helvetica,sans-Serif" font-size="10.00" fill="#000000">/src/GPUCATracking.cxx</text>
</a>
</g>
</g>
<!-- Node6&#45;&gt;Node21 -->
<g id="edge18" class="edge">
<title>Node6&#45;&gt;Node21</title>
<path fill="none" stroke="#191970" d="M1250.1909,-285.4483C1279.7414,-272.8199 1312.4397,-258.8463 1339.8142,-247.1478"/>
<polygon fill="#191970" stroke="#191970" points="1248.538,-282.3484 1240.7179,-289.4966 1251.2888,-288.7853 1248.538,-282.3484"/>
</g>
<!-- Node22 -->
<g id="node18" class="node">
<title>Node22</title>
<g id="a_node18"><a xlink:href="../../d1/df6/testGPUCATracking_8cxx.html" target="_top" xlink:title="This task tests the TPC CA Tracking library. ">
<polygon fill="none" stroke="#000000" points="1499.5,-195 1499.5,-247 1660.5,-247 1660.5,-195 1499.5,-195"/>
<text text-anchor="start" x="1507.5" y="-235" font-family="Helvetica,sans-Serif" font-size="10.00" fill="#000000">/home/travis/build</text>
<text text-anchor="start" x="1507.5" y="-224" font-family="Helvetica,sans-Serif" font-size="10.00" fill="#000000">/AliceO2Group/AliceO2</text>
<text text-anchor="start" x="1507.5" y="-213" font-family="Helvetica,sans-Serif" font-size="10.00" fill="#000000">/Detectors/TPC/reconstruction</text>
<text text-anchor="middle" x="1580" y="-202" font-family="Helvetica,sans-Serif" font-size="10.00" fill="#000000">/test/testGPUCATracking.cxx</text>
</a>
</g>
</g>
<!-- Node6&#45;&gt;Node22 -->
<g id="edge20" class="edge">
<title>Node6&#45;&gt;Node22</title>
<path fill="none" stroke="#191970" d="M1257.5815,-289.0474C1360.4635,-264.2251 1391.4831,-277.8886 1490,-253 1496.7528,-251.294 1503.7123,-249.2865 1510.629,-247.1223"/>
<polygon fill="#191970" stroke="#191970" points="1256.5969,-285.6854 1247.7317,-291.487 1258.2798,-292.4801 1256.5969,-285.6854"/>
</g>
<!-- Node23 -->
<g id="node19" class="node">
<title>Node23</title>
<g id="a_node19"><a xlink:href="../../da/d78/CATrackerSpec_8cxx.html" target="_top" xlink:title="Processor spec for running TPC CA tracking. ">
<polygon fill="none" stroke="#000000" points="1679,-195 1679,-247 1815,-247 1815,-195 1679,-195"/>
<text text-anchor="start" x="1687" y="-235" font-family="Helvetica,sans-Serif" font-size="10.00" fill="#000000">/home/travis/build</text>
<text text-anchor="start" x="1687" y="-224" font-family="Helvetica,sans-Serif" font-size="10.00" fill="#000000">/AliceO2Group/AliceO2</text>
<text text-anchor="start" x="1687" y="-213" font-family="Helvetica,sans-Serif" font-size="10.00" fill="#000000">/Detectors/TPC/workflow</text>
<text text-anchor="middle" x="1747" y="-202" font-family="Helvetica,sans-Serif" font-size="10.00" fill="#000000">/src/CATrackerSpec.cxx</text>
</a>
</g>
</g>
<!-- Node6&#45;&gt;Node23 -->
<g id="edge21" class="edge">
<title>Node6&#45;&gt;Node23</title>
<path fill="none" stroke="#191970" d="M1257.5096,-289.1271C1438.5302,-251.5014 1493.5225,-295.6145 1669,-253 1675.5428,-251.4111 1682.2528,-249.36 1688.8585,-247.0641"/>
<polygon fill="#191970" stroke="#191970" points="1256.72,-285.7167 1247.6703,-291.2262 1258.1806,-292.5626 1256.72,-285.7167"/>
</g>
<!-- Node24 -->
<g id="node20" class="node">
<title>Node24</title>
<g id="a_node20"><a xlink:href="../../d5/df5/DataInterpreterTPC_8cxx.html" target="_top" xlink:title="converting TPC data to Event Visualisation primitives ">
<polygon fill="none" stroke="#000000" points="1833.5,-195 1833.5,-247 1994.5,-247 1994.5,-195 1833.5,-195"/>
<text text-anchor="start" x="1841.5" y="-235" font-family="Helvetica,sans-Serif" font-size="10.00" fill="#000000">/home/travis/build</text>
<text text-anchor="start" x="1841.5" y="-224" font-family="Helvetica,sans-Serif" font-size="10.00" fill="#000000">/AliceO2Group/AliceO2</text>
<text text-anchor="start" x="1841.5" y="-213" font-family="Helvetica,sans-Serif" font-size="10.00" fill="#000000">/EventVisualisation/Detectors</text>
<text text-anchor="middle" x="1914" y="-202" font-family="Helvetica,sans-Serif" font-size="10.00" fill="#000000">/src/DataInterpreterTPC.cxx</text>
</a>
</g>
</g>
<!-- Node6&#45;&gt;Node24 -->
<g id="edge22" class="edge">
<title>Node6&#45;&gt;Node24</title>
<path fill="none" stroke="#191970" d="M1257.7077,-289.1003C1506.2842,-239.922 1579.9136,-303.1172 1824,-253 1831.6349,-251.4324 1839.4999,-249.3617 1847.2532,-247.0256"/>
<polygon fill="#191970" stroke="#191970" points="1256.7593,-285.7211 1247.6504,-291.1321 1258.1455,-292.5825 1256.7593,-285.7211"/>
</g>
<!-- Node9 -->
<g id="node5" class="node">
<title>Node9</title>
<g id="a_node5"><a xlink:href="../../d0/d74/MatchTOF_8h.html" target="_top" xlink:title="Class to perform TOF matching to global tracks. ">
<polygon fill="none" stroke="#000000" points="230,-95 230,-147 418,-147 418,-95 230,-95"/>
<text text-anchor="start" x="238" y="-135" font-family="Helvetica,sans-Serif" font-size="10.00" fill="#000000">/home/travis/build</text>
<text text-anchor="start" x="238" y="-124" font-family="Helvetica,sans-Serif" font-size="10.00" fill="#000000">/AliceO2Group/AliceO2</text>
<text text-anchor="start" x="238" y="-113" font-family="Helvetica,sans-Serif" font-size="10.00" fill="#000000">/Detectors/GlobalTracking</text>
<text text-anchor="middle" x="324" y="-102" font-family="Helvetica,sans-Serif" font-size="10.00" fill="#000000">/include/GlobalTracking/MatchTOF.h</text>
</a>
</g>
</g>
<!-- Node8&#45;&gt;Node9 -->
<g id="edge4" class="edge">
<title>Node8&#45;&gt;Node9</title>
<path fill="none" stroke="#191970" d="M557.5939,-192.0012C510.8763,-177.8013 455.0725,-160.8397 409.7244,-147.0561"/>
<polygon fill="#191970" stroke="#191970" points="556.8323,-195.4277 567.418,-194.9872 558.868,-188.7303 556.8323,-195.4277"/>
</g>
<!-- Node10 -->
<g id="node6" class="node">
<title>Node10</title>
<g id="a_node6"><a xlink:href="../../db/d6a/MatchTOF_8cxx.html" target="_top" xlink:title="/home/travis/build\l/AliceO2Group/AliceO2\l/Detectors/GlobalTracking\l/src/MatchTOF.cxx">
<polygon fill="none" stroke="#000000" points="0,-.5 0,-52.5 142,-52.5 142,-.5 0,-.5"/>
<text text-anchor="start" x="8" y="-40.5" font-family="Helvetica,sans-Serif" font-size="10.00" fill="#000000">/home/travis/build</text>
<text text-anchor="start" x="8" y="-29.5" font-family="Helvetica,sans-Serif" font-size="10.00" fill="#000000">/AliceO2Group/AliceO2</text>
<text text-anchor="start" x="8" y="-18.5" font-family="Helvetica,sans-Serif" font-size="10.00" fill="#000000">/Detectors/GlobalTracking</text>
<text text-anchor="middle" x="71" y="-7.5" font-family="Helvetica,sans-Serif" font-size="10.00" fill="#000000">/src/MatchTOF.cxx</text>
</a>
</g>
</g>
<!-- Node8&#45;&gt;Node10 -->
<g id="edge8" class="edge">
<title>Node8&#45;&gt;Node10</title>
<path fill="none" stroke="#191970" d="M557.4478,-192.5614C551.9048,-191.2669 546.3936,-190.0662 541,-189 400.5976,-161.2452 352.4668,-209.5653 221,-153 168.1159,-130.2459 119.6844,-82.4049 92.8739,-52.5158"/>
<polygon fill="#191970" stroke="#191970" points="556.8979,-196.0294 567.441,-194.9842 558.5473,-189.2265 556.8979,-196.0294"/>
</g>
<!-- Node13 -->
<g id="node9" class="node">
<title>Node13</title>
<g id="a_node9"><a xlink:href="../../dc/d59/MatchTPCITS_8cxx.html" target="_top" xlink:title="/home/travis/build\l/AliceO2Group/AliceO2\l/Detectors/GlobalTracking\l/src/MatchTPCITS.cxx">
<polygon fill="none" stroke="#000000" points="496,-95 496,-147 638,-147 638,-95 496,-95"/>
<text text-anchor="start" x="504" y="-135" font-family="Helvetica,sans-Serif" font-size="10.00" fill="#000000">/home/travis/build</text>
<text text-anchor="start" x="504" y="-124" font-family="Helvetica,sans-Serif" font-size="10.00" fill="#000000">/AliceO2Group/AliceO2</text>
<text text-anchor="start" x="504" y="-113" font-family="Helvetica,sans-Serif" font-size="10.00" fill="#000000">/Detectors/GlobalTracking</text>
<text text-anchor="middle" x="567" y="-102" font-family="Helvetica,sans-Serif" font-size="10.00" fill="#000000">/src/MatchTPCITS.cxx</text>
</a>
</g>
</g>
<!-- Node8&#45;&gt;Node13 -->
<g id="edge9" class="edge">
<title>Node8&#45;&gt;Node13</title>
<path fill="none" stroke="#191970" d="M623.8662,-187.1234C612.6621,-174.0954 600.0515,-159.4319 589.5577,-147.2299"/>
<polygon fill="#191970" stroke="#191970" points="621.4549,-189.6875 630.629,-194.9872 626.7622,-185.1232 621.4549,-189.6875"/>
</g>
<!-- Node14 -->
<g id="node10" class="node">
<title>Node14</title>
<g id="a_node10"><a xlink:href="../../da/d20/TPCITSMatchingSpec_8h.html" target="_top" xlink:title="/home/travis/build\l/AliceO2Group/AliceO2\l/Detectors/GlobalTrackingWorkflow\l/include/GlobalTrackingWorkflow\l/TPCITSMatchingSpec.h">
<polygon fill="none" stroke="#000000" points="656.5,-89.5 656.5,-152.5 843.5,-152.5 843.5,-89.5 656.5,-89.5"/>
<text text-anchor="start" x="664.5" y="-140.5" font-family="Helvetica,sans-Serif" font-size="10.00" fill="#000000">/home/travis/build</text>
<text text-anchor="start" x="664.5" y="-129.5" font-family="Helvetica,sans-Serif" font-size="10.00" fill="#000000">/AliceO2Group/AliceO2</text>
<text text-anchor="start" x="664.5" y="-118.5" font-family="Helvetica,sans-Serif" font-size="10.00" fill="#000000">/Detectors/GlobalTrackingWorkflow</text>
<text text-anchor="start" x="664.5" y="-107.5" font-family="Helvetica,sans-Serif" font-size="10.00" fill="#000000">/include/GlobalTrackingWorkflow</text>
<text text-anchor="middle" x="750" y="-96.5" font-family="Helvetica,sans-Serif" font-size="10.00" fill="#000000">/TPCITSMatchingSpec.h</text>
</a>
</g>
</g>
<!-- Node8&#45;&gt;Node14 -->
<g id="edge10" class="edge">
<title>Node8&#45;&gt;Node14</title>
<path fill="none" stroke="#191970" d="M685.2476,-187.755C696.2413,-176.4214 708.4947,-163.789 719.3585,-152.5891"/>
<polygon fill="#191970" stroke="#191970" points="682.6827,-185.3724 678.2324,-194.9872 687.7073,-190.2462 682.6827,-185.3724"/>
</g>
<!-- Node9&#45;&gt;Node10 -->
<g id="edge5" class="edge">
<title>Node9&#45;&gt;Node10</title>
<path fill="none" stroke="#191970" d="M244.5275,-91.3156C211.3426,-78.9205 173.1233,-64.6449 141.0141,-52.6515"/>
<polygon fill="#191970" stroke="#191970" points="243.6044,-94.7069 254.1969,-94.9273 246.0537,-88.1494 243.6044,-94.7069"/>
</g>
<!-- Node11 -->
<g id="node7" class="node">
<title>Node11</title>
<g id="a_node7"><a xlink:href="../../d8/d84/RecoWorkflowSpec_8cxx.html" target="_top" xlink:title="/home/travis/build\l/AliceO2Group/AliceO2\l/Detectors/GlobalTrackingWorkflow\l/tofworkflow/src/RecoWorkflowSpec.cxx">
<polygon fill="none" stroke="#000000" points="160.5,-.5 160.5,-52.5 369.5,-52.5 369.5,-.5 160.5,-.5"/>
<text text-anchor="start" x="168.5" y="-40.5" font-family="Helvetica,sans-Serif" font-size="10.00" fill="#000000">/home/travis/build</text>
<text text-anchor="start" x="168.5" y="-29.5" font-family="Helvetica,sans-Serif" font-size="10.00" fill="#000000">/AliceO2Group/AliceO2</text>
<text text-anchor="start" x="168.5" y="-18.5" font-family="Helvetica,sans-Serif" font-size="10.00" fill="#000000">/Detectors/GlobalTrackingWorkflow</text>
<text text-anchor="middle" x="265" y="-7.5" font-family="Helvetica,sans-Serif" font-size="10.00" fill="#000000">/tofworkflow/src/RecoWorkflowSpec.cxx</text>
</a>
</g>
</g>
<!-- Node9&#45;&gt;Node11 -->
<g id="edge6" class="edge">
<title>Node9&#45;&gt;Node11</title>
<path fill="none" stroke="#191970" d="M302.3449,-86.3151C295.435,-75.2475 287.9058,-63.1881 281.4299,-52.8157"/>
<polygon fill="#191970" stroke="#191970" points="299.4569,-88.2984 307.7218,-94.9273 305.3947,-84.5912 299.4569,-88.2984"/>
</g>
<!-- Node12 -->
<g id="node8" class="node">
<title>Node12</title>
<g id="a_node8"><a xlink:href="../../d4/d76/RecoWorkflowWithTPCSpec_8cxx.html" target="_top" xlink:title="/home/travis/build\l/AliceO2Group/AliceO2\l/Detectors/GlobalTrackingWorkflow\l/tofworkflow/src/RecoWorkflowWithTPCSpec.cxx">
<polygon fill="none" stroke="#000000" points="387.5,-.5 387.5,-52.5 638.5,-52.5 638.5,-.5 387.5,-.5"/>
<text text-anchor="start" x="395.5" y="-40.5" font-family="Helvetica,sans-Serif" font-size="10.00" fill="#000000">/home/travis/build</text>
<text text-anchor="start" x="395.5" y="-29.5" font-family="Helvetica,sans-Serif" font-size="10.00" fill="#000000">/AliceO2Group/AliceO2</text>
<text text-anchor="start" x="395.5" y="-18.5" font-family="Helvetica,sans-Serif" font-size="10.00" fill="#000000">/Detectors/GlobalTrackingWorkflow</text>
<text text-anchor="middle" x="513" y="-7.5" font-family="Helvetica,sans-Serif" font-size="10.00" fill="#000000">/tofworkflow/src/RecoWorkflowWithTPCSpec.cxx</text>
</a>
</g>
</g>
<!-- Node9&#45;&gt;Node12 -->
<g id="edge7" class="edge">
<title>Node9&#45;&gt;Node12</title>
<path fill="none" stroke="#191970" d="M385.2912,-90.3544C409.6265,-78.1868 437.328,-64.336 460.697,-52.6515"/>
<polygon fill="#191970" stroke="#191970" points="383.5244,-87.3246 376.1454,-94.9273 386.6549,-93.5856 383.5244,-87.3246"/>
</g>
<!-- Node15 -->
<g id="node11" class="node">
<title>Node15</title>
<g id="a_node11"><a xlink:href="../../d5/db4/MatchTPCITSWorkflow_8cxx.html" target="_top" xlink:title="/home/travis/build\l/AliceO2Group/AliceO2\l/Detectors/GlobalTrackingWorkflow\l/src/MatchTPCITSWorkflow.cxx">
<polygon fill="none" stroke="#000000" points="656.5,-.5 656.5,-52.5 843.5,-52.5 843.5,-.5 656.5,-.5"/>
<text text-anchor="start" x="664.5" y="-40.5" font-family="Helvetica,sans-Serif" font-size="10.00" fill="#000000">/home/travis/build</text>
<text text-anchor="start" x="664.5" y="-29.5" font-family="Helvetica,sans-Serif" font-size="10.00" fill="#000000">/AliceO2Group/AliceO2</text>
<text text-anchor="start" x="664.5" y="-18.5" font-family="Helvetica,sans-Serif" font-size="10.00" fill="#000000">/Detectors/GlobalTrackingWorkflow</text>
<text text-anchor="middle" x="750" y="-7.5" font-family="Helvetica,sans-Serif" font-size="10.00" fill="#000000">/src/MatchTPCITSWorkflow.cxx</text>
</a>
</g>
</g>
<!-- Node14&#45;&gt;Node15 -->
<g id="edge11" class="edge">
<title>Node14&#45;&gt;Node15</title>
<path fill="none" stroke="#191970" d="M750,-79.2457C750,-70.2008 750,-60.8836 750,-52.6442"/>
<polygon fill="#191970" stroke="#191970" points="746.5001,-79.2699 750,-89.27 753.5001,-79.27 746.5001,-79.2699"/>
</g>
<!-- Node14&#45;&gt;Node16 -->
<g id="edge12" class="edge">
<title>Node14&#45;&gt;Node16</title>
<path fill="none" stroke="#191970" d="M827.7947,-85.1385C851.2927,-74.3065 876.6326,-62.6254 898.4641,-52.5617"/>
<polygon fill="#191970" stroke="#191970" points="826.1633,-82.0365 818.547,-89.4015 829.0938,-88.3936 826.1633,-82.0365"/>
</g>
<!-- Node18&#45;&gt;Node19 -->
<g id="edge16" class="edge">
<title>Node18&#45;&gt;Node19</title>
<path fill="none" stroke="#191970" d="M1180.0435,-182.5078C1167.1241,-170.6552 1153.2104,-157.8902 1141.425,-147.078"/>
<polygon fill="#191970" stroke="#191970" points="1177.7768,-185.1781 1187.5117,-189.3594 1182.5091,-180.02 1177.7768,-185.1781"/>
</g>
<!-- Node20 -->
<g id="node16" class="node">
<title>Node20</title>
<g id="a_node16"><a xlink:href="../../d9/d7b/ClusterDecoderRawSpec_8cxx.html" target="_top" xlink:title="Processor spec for decoder of TPC raw cluster data. ">
<polygon fill="none" stroke="#000000" points="1221,-95 1221,-147 1397,-147 1397,-95 1221,-95"/>
<text text-anchor="start" x="1229" y="-135" font-family="Helvetica,sans-Serif" font-size="10.00" fill="#000000">/home/travis/build</text>
<text text-anchor="start" x="1229" y="-124" font-family="Helvetica,sans-Serif" font-size="10.00" fill="#000000">/AliceO2Group/AliceO2</text>
<text text-anchor="start" x="1229" y="-113" font-family="Helvetica,sans-Serif" font-size="10.00" fill="#000000">/Detectors/TPC/workflow</text>
<text text-anchor="middle" x="1309" y="-102" font-family="Helvetica,sans-Serif" font-size="10.00" fill="#000000">/src/ClusterDecoderRawSpec.cxx</text>
</a>
</g>
</g>
<!-- Node18&#45;&gt;Node20 -->
<g id="edge17" class="edge">
<title>Node18&#45;&gt;Node20</title>
<path fill="none" stroke="#191970" d="M1256.3574,-181.5088C1266.4214,-169.9409 1277.1692,-157.5871 1286.3122,-147.078"/>
<polygon fill="#191970" stroke="#191970" points="1253.4505,-179.5176 1249.5273,-189.3594 1258.7316,-184.1122 1253.4505,-179.5176"/>
</g>
<!-- Node34 -->
<g id="node30" class="node">
<title>Node34</title>
<g id="a_node30"><a xlink:href="../../d2/dd7/SimpleDigitizerWorkflow_8cxx.html" target="_top" xlink:title="/home/travis/build\l/AliceO2Group/AliceO2\l/Steer/DigitizerWorkflow\l/src/SimpleDigitizerWorkflow.cxx">
<polygon fill="none" stroke="#000000" points="2701,-195 2701,-247 2877,-247 2877,-195 2701,-195"/>
<text text-anchor="start" x="2709" y="-235" font-family="Helvetica,sans-Serif" font-size="10.00" fill="#000000">/home/travis/build</text>
<text text-anchor="start" x="2709" y="-224" font-family="Helvetica,sans-Serif" font-size="10.00" fill="#000000">/AliceO2Group/AliceO2</text>
<text text-anchor="start" x="2709" y="-213" font-family="Helvetica,sans-Serif" font-size="10.00" fill="#000000">/Steer/DigitizerWorkflow</text>
<text text-anchor="middle" x="2789" y="-202" font-family="Helvetica,sans-Serif" font-size="10.00" fill="#000000">/src/SimpleDigitizerWorkflow.cxx</text>
</a>
</g>
</g>
<!-- Node33&#45;&gt;Node34 -->
<g id="edge32" class="edge">
<title>Node33&#45;&gt;Node34</title>
<path fill="none" stroke="#191970" d="M2797.3065,-284.8962C2795.6876,-272.4433 2793.9064,-258.7413 2792.4099,-247.2299"/>
<polygon fill="#191970" stroke="#191970" points="2793.8583,-285.5219 2798.6183,-294.9872 2800.7999,-284.6194 2793.8583,-285.5219"/>
</g>
<!-- Node36 -->
<g id="node32" class="node">
<title>Node36</title>
<g id="a_node32"><a xlink:href="../../dd/dfd/MCTruthTestWorkflow_8cxx.html" target="_top" xlink:title="/home/travis/build\l/AliceO2Group/AliceO2\l/Steer/DigitizerWorkflow\l/src/MCTruthTestWorkflow.cxx">
<polygon fill="none" stroke="#000000" points="2895,-195 2895,-247 3055,-247 3055,-195 2895,-195"/>
<text text-anchor="start" x="2903" y="-235" font-family="Helvetica,sans-Serif" font-size="10.00" fill="#000000">/home/travis/build</text>
<text text-anchor="start" x="2903" y="-224" font-family="Helvetica,sans-Serif" font-size="10.00" fill="#000000">/AliceO2Group/AliceO2</text>
<text text-anchor="start" x="2903" y="-213" font-family="Helvetica,sans-Serif" font-size="10.00" fill="#000000">/Steer/DigitizerWorkflow</text>
<text text-anchor="middle" x="2975" y="-202" font-family="Helvetica,sans-Serif" font-size="10.00" fill="#000000">/src/MCTruthTestWorkflow.cxx</text>
</a>
</g>
</g>
<!-- Node35&#45;&gt;Node36 -->
<g id="edge34" class="edge">
<title>Node35&#45;&gt;Node36</title>
<path fill="none" stroke="#191970" d="M2966.6935,-284.8962C2968.3124,-272.4433 2970.0936,-258.7413 2971.5901,-247.2299"/>
<polygon fill="#191970" stroke="#191970" points="2963.2001,-284.6194 2965.3817,-294.9872 2970.1417,-285.5219 2963.2001,-284.6194"/>
</g>
</g>
</svg>
