<?xml version="1.0" encoding="UTF-8" standalone="no"?>
<!DOCTYPE svg PUBLIC "-//W3C//DTD SVG 1.1//EN"
 "http://www.w3.org/Graphics/SVG/1.1/DTD/svg11.dtd">
<!-- Generated by graphviz version 2.40.1 (20161225.0304)
 -->
<!-- Title: /home/travis/build/AliceO2Group/AliceO2/Framework/Core/include/Framework/Variant.h Pages: 1 -->
<svg width="767pt" height="117pt"
 viewBox="0.00 0.00 767.00 117.00" xmlns="http://www.w3.org/2000/svg" xmlns:xlink="http://www.w3.org/1999/xlink">
<g id="graph0" class="graph" transform="scale(1 1) rotate(0) translate(4 113)">
<title>/home/travis/build/AliceO2Group/AliceO2/Framework/Core/include/Framework/Variant.h</title>
<!-- Node0 -->
<g id="node1" class="node">
<title>Node0</title>
<polygon fill="#bfbfbf" stroke="#000000" points="344.5,-56.5 344.5,-108.5 481.5,-108.5 481.5,-56.5 344.5,-56.5"/>
<text text-anchor="start" x="352.5" y="-96.5" font-family="Helvetica,sans-Serif" font-size="10.00" fill="#000000">/home/travis/build</text>
<text text-anchor="start" x="352.5" y="-85.5" font-family="Helvetica,sans-Serif" font-size="10.00" fill="#000000">/AliceO2Group/AliceO2</text>
<text text-anchor="start" x="352.5" y="-74.5" font-family="Helvetica,sans-Serif" font-size="10.00" fill="#000000">/Framework/Core/include</text>
<text text-anchor="middle" x="413" y="-63.5" font-family="Helvetica,sans-Serif" font-size="10.00" fill="#000000">/Framework/Variant.h</text>
</g>
<!-- Node1 -->
<g id="node2" class="node">
<title>Node1</title>
<g id="a_node2"><a xlink:href="../../d1/d76/RuntimeError_8h.html" target="_top" xlink:title="Framework/RuntimeError.h">
<polygon fill="none" stroke="#000000" points="0,-.5 0,-19.5 146,-19.5 146,-.5 0,-.5"/>
<text text-anchor="middle" x="73" y="-7.5" font-family="Helvetica,sans-Serif" font-size="10.00" fill="#000000">Framework/RuntimeError.h</text>
</a>
</g>
</g>
<!-- Node0&#45;&gt;Node1 -->
<g id="edge1" class="edge">
<title>Node0&#45;&gt;Node1</title>
<path fill="none" stroke="#191970" d="M344.1959,-67.8285C280.3625,-54.217 186.5999,-34.2235 127.7203,-21.6683"/>
<polygon fill="#191970" stroke="#191970" points="128.3744,-18.2292 117.8644,-19.5667 126.9145,-25.0753 128.3744,-18.2292"/>
</g>
<!-- Node2 -->
<g id="node3" class="node">
<title>Node2</title>
<polygon fill="none" stroke="#bfbfbf" points="164.5,-.5 164.5,-19.5 233.5,-19.5 233.5,-.5 164.5,-.5"/>
<text text-anchor="middle" x="199" y="-7.5" font-family="Helvetica,sans-Serif" font-size="10.00" fill="#000000">type_traits</text>
</g>
<!-- Node0&#45;&gt;Node2 -->
<g id="edge2" class="edge">
<title>Node0&#45;&gt;Node2</title>
<path fill="none" stroke="#191970" d="M344.406,-59.2614C308.7088,-47.1677 266.4359,-32.8463 236.6977,-22.7714"/>
<polygon fill="#191970" stroke="#191970" points="237.715,-19.4207 227.1207,-19.5269 235.4688,-26.0506 237.715,-19.4207"/>
</g>
<!-- Node3 -->
<g id="node4" class="node">
<title>Node3</title>
<polygon fill="none" stroke="#bfbfbf" points="252,-.5 252,-19.5 302,-19.5 302,-.5 252,-.5"/>
<text text-anchor="middle" x="277" y="-7.5" font-family="Helvetica,sans-Serif" font-size="10.00" fill="#000000">cstring</text>
</g>
<!-- Node0&#45;&gt;Node3 -->
<g id="edge3" class="edge">
<title>Node0&#45;&gt;Node3</title>
<path fill="none" stroke="#191970" d="M363.9009,-56.3258C343.6147,-45.5115 320.8906,-33.3976 303.769,-24.2703"/>
<polygon fill="#191970" stroke="#191970" points="305.3554,-21.1497 294.8845,-19.534 302.0624,-27.3268 305.3554,-21.1497"/>
</g>
<!-- Node4 -->
<g id="node5" class="node">
<title>Node4</title>
<polygon fill="none" stroke="#bfbfbf" points="320,-.5 320,-19.5 370,-19.5 370,-.5 320,-.5"/>
<text text-anchor="middle" x="345" y="-7.5" font-family="Helvetica,sans-Serif" font-size="10.00" fill="#000000">cstdint</text>
</g>
<!-- Node0&#45;&gt;Node4 -->
<g id="edge4" class="edge">
<title>Node0&#45;&gt;Node4</title>
<path fill="none" stroke="#191970" d="M388.4504,-56.3258C379.2465,-46.5128 369.0389,-35.6298 360.8314,-26.879"/>
<polygon fill="#191970" stroke="#191970" points="363.3362,-24.4334 353.9422,-19.534 358.2305,-29.2222 363.3362,-24.4334"/>
</g>
<!-- Node5 -->
<g id="node6" class="node">
<title>Node5</title>
<polygon fill="none" stroke="#bfbfbf" points="388.5,-.5 388.5,-19.5 437.5,-19.5 437.5,-.5 388.5,-.5"/>
<text text-anchor="middle" x="413" y="-7.5" font-family="Helvetica,sans-Serif" font-size="10.00" fill="#000000">cstdlib</text>
</g>
<!-- Node0&#45;&gt;Node5 -->
<g id="edge5" class="edge">
<title>Node0&#45;&gt;Node5</title>
<path fill="none" stroke="#191970" d="M413,-56.3258C413,-47.5142 413,-37.8397 413,-29.621"/>
<polygon fill="#191970" stroke="#191970" points="416.5001,-29.534 413,-19.534 409.5001,-29.534 416.5001,-29.534"/>
</g>
<!-- Node6 -->
<g id="node7" class="node">
<title>Node6</title>
<polygon fill="none" stroke="#bfbfbf" points="455.5,-.5 455.5,-19.5 504.5,-19.5 504.5,-.5 455.5,-.5"/>
<text text-anchor="middle" x="480" y="-7.5" font-family="Helvetica,sans-Serif" font-size="10.00" fill="#000000">iosfwd</text>
</g>
<!-- Node0&#45;&gt;Node6 -->
<g id="edge6" class="edge">
<title>Node0&#45;&gt;Node6</title>
<path fill="none" stroke="#191970" d="M437.1885,-56.3258C446.2571,-46.5128 456.3146,-35.6298 464.4014,-26.879"/>
<polygon fill="#191970" stroke="#191970" points="466.9727,-29.2536 471.1893,-19.534 461.8318,-24.5027 466.9727,-29.2536"/>
</g>
<!-- Node7 -->
<g id="node8" class="node">
<title>Node7</title>
<polygon fill="none" stroke="#bfbfbf" points="522.5,-.5 522.5,-19.5 605.5,-19.5 605.5,-.5 522.5,-.5"/>
<text text-anchor="middle" x="564" y="-7.5" font-family="Helvetica,sans-Serif" font-size="10.00" fill="#000000">initializer_list</text>
</g>
<!-- Node0&#45;&gt;Node7 -->
<g id="edge7" class="edge">
<title>Node0&#45;&gt;Node7</title>
<path fill="none" stroke="#191970" d="M467.5145,-56.3258C490.3509,-45.3613 515.9698,-33.0608 535.067,-23.8917"/>
<polygon fill="#191970" stroke="#191970" points="536.6431,-27.0175 544.143,-19.534 533.6133,-20.7072 536.6431,-27.0175"/>
</g>
<!-- Node8 -->
<g id="node9" class="node">
<title>Node8</title>
<polygon fill="none" stroke="#bfbfbf" points="623.5,-.5 623.5,-19.5 696.5,-19.5 696.5,-.5 623.5,-.5"/>
<text text-anchor="middle" x="660" y="-7.5" font-family="Helvetica,sans-Serif" font-size="10.00" fill="#000000">string_view</text>
</g>
<!-- Node0&#45;&gt;Node8 -->
<g id="edge8" class="edge">
<title>Node0&#45;&gt;Node8</title>
<path fill="none" stroke="#191970" d="M481.8033,-62.3047C525.2523,-49.5514 580.0203,-33.4758 617.2929,-22.5355"/>
<polygon fill="#191970" stroke="#191970" points="618.7084,-25.7677 627.3178,-19.5929 616.7369,-19.0511 618.7084,-25.7677"/>
</g>
<!-- Node9 -->
<g id="node10" class="node">
<title>Node9</title>
<polygon fill="none" stroke="#bfbfbf" points="715,-.5 715,-19.5 759,-19.5 759,-.5 715,-.5"/>
<text text-anchor="middle" x="737" y="-7.5" font-family="Helvetica,sans-Serif" font-size="10.00" fill="#000000">string</text>
</g>
<!-- Node0&#45;&gt;Node9 -->
<g id="edge9" class="edge">
<title>Node0&#45;&gt;Node9</title>
<path fill="none" stroke="#191970" d="M481.5529,-69.9278C538.9018,-58.9425 622.9912,-41.7496 704.77,-20.1407"/>
<polygon fill="#191970" stroke="#191970" points="705.9697,-23.4431 714.7296,-17.4837 704.1654,-16.6797 705.9697,-23.4431"/>
</g>
</g>
</svg>
