<?xml version="1.0" encoding="UTF-8" standalone="no"?>
<!DOCTYPE svg PUBLIC "-//W3C//DTD SVG 1.1//EN"
 "http://www.w3.org/Graphics/SVG/1.1/DTD/svg11.dtd">
<!-- Generated by graphviz version 2.40.1 (20161225.0304)
 -->
<!-- Title: /home/travis/build/AliceO2Group/AliceO2/DataFormats/Reconstruction/include/ReconstructionDataFormats/TrackUtils.h Pages: 1 -->
<!--zoomable 296 -->
<svg id="main" version="1.1" xmlns="http://www.w3.org/2000/svg" xmlns:xlink="http://www.w3.org/1999/xlink" xml:space="preserve" onload="init(evt)">
<style type="text/css"><![CDATA[
.edge:hover path { stroke: red; }
.edge:hover polygon { stroke: red; fill: red; }
]]></style>
<script type="text/javascript"><![CDATA[
var edges = document.getElementsByTagName('g');
if (edges && edges.length) {
  for (var i=0;i<edges.length;i++) {
    if (edges[i].id.substr(0,4)=='edge') {
      edges[i].setAttribute('class','edge');
    }
  }
}
]]></script>
        <defs>
                <circle id="rim" cx="0" cy="0" r="7"/>
                <circle id="rim2" cx="0" cy="0" r="3.5"/>
                <g id="zoomPlus">
                        <use xlink:href="#rim" fill="#404040">
                                <set attributeName="fill" to="#808080" begin="zoomplus.mouseover" end="zoomplus.mouseout"/>
                        </use>
                        <path d="M-4,0h8M0,-4v8" fill="none" stroke="white" stroke-width="1.5" pointer-events="none"/>
                </g>
                <g id="zoomMin">
                        <use xlink:href="#rim" fill="#404040">
                                <set attributeName="fill" to="#808080" begin="zoomminus.mouseover" end="zoomminus.mouseout"/>
                        </use>
                        <path d="M-4,0h8" fill="none" stroke="white" stroke-width="1.5" pointer-events="none"/>
                </g>
                <g id="dirArrow">
                        <path fill="none" stroke="white" stroke-width="1.5" d="M0,-3.0v7 M-2.5,-0.5L0,-3.0L2.5,-0.5"/>
                </g>
               <g id="resetDef">
                       <use xlink:href="#rim2" fill="#404040">
                               <set attributeName="fill" to="#808080" begin="reset.mouseover" end="reset.mouseout"/>
                       </use>
               </g>
        </defs>

<script type="text/javascript">
var viewWidth = 587;
var viewHeight = 296;
var sectionId = 'dynsection-0';
</script>
<script xlink:href="../../svgpan.js"/>
<svg id="graph" class="graph">
<g id="viewport">
<title>/home/travis/build/AliceO2Group/AliceO2/DataFormats/Reconstruction/include/ReconstructionDataFormats/TrackUtils.h</title>
<!-- Node0 -->
<g id="node1" class="node">
<title>Node0</title>
<polygon fill="#bfbfbf" stroke="#000000" points="161,-224.5 161,-287.5 354,-287.5 354,-224.5 161,-224.5"/>
<text text-anchor="start" x="169" y="-275.5" font-family="Helvetica,sans-Serif" font-size="10.00" fill="#000000">/home/travis/build</text>
<text text-anchor="start" x="169" y="-264.5" font-family="Helvetica,sans-Serif" font-size="10.00" fill="#000000">/AliceO2Group/AliceO2</text>
<text text-anchor="start" x="169" y="-253.5" font-family="Helvetica,sans-Serif" font-size="10.00" fill="#000000">/DataFormats/Reconstruction</text>
<text text-anchor="start" x="169" y="-242.5" font-family="Helvetica,sans-Serif" font-size="10.00" fill="#000000">/include/ReconstructionDataFormats</text>
<text text-anchor="middle" x="257.5" y="-231.5" font-family="Helvetica,sans-Serif" font-size="10.00" fill="#000000">/TrackUtils.h</text>
</g>
<!-- Node1 -->
<g id="node2" class="node">
<title>Node1</title>
<g id="a_node2"><a xlink:href="../../d2/d45/GPUCommonRtypes_8h.html" target="_top" xlink:title="GPUCommonRtypes.h">
<polygon fill="none" stroke="#000000" points="0,-168.5 0,-187.5 125,-187.5 125,-168.5 0,-168.5"/>
<text text-anchor="middle" x="62.5" y="-175.5" font-family="Helvetica,sans-Serif" font-size="10.00" fill="#000000">GPUCommonRtypes.h</text>
</a>
</g>
</g>
<!-- Node0&#45;&gt;Node1 -->
<g id="edge1" class="edge">
<title>Node0&#45;&gt;Node1</title>
<path fill="none" stroke="#191970" d="M178.7481,-224.4992C149.836,-212.9344 118.6382,-200.4553 95.8483,-191.3393"/>
<polygon fill="#191970" stroke="#191970" points="96.9025,-187.9914 86.3178,-187.5271 94.3027,-194.4908 96.9025,-187.9914"/>
</g>
<!-- Node3 -->
<g id="node4" class="node">
<title>Node3</title>
<polygon fill="none" stroke="#bfbfbf" points="101.5,-112.5 101.5,-131.5 143.5,-131.5 143.5,-112.5 101.5,-112.5"/>
<text text-anchor="middle" x="122.5" y="-119.5" font-family="Helvetica,sans-Serif" font-size="10.00" fill="#000000">array</text>
</g>
<!-- Node0&#45;&gt;Node3 -->
<g id="edge3" class="edge">
<title>Node0&#45;&gt;Node3</title>
<path fill="none" stroke="#191970" d="M225.5069,-224.2439C198.424,-197.3616 160.6802,-159.8974 139.2048,-138.581"/>
<polygon fill="#191970" stroke="#191970" points="141.6417,-136.0685 132.0787,-131.5078 136.7104,-141.0366 141.6417,-136.0685"/>
</g>
<!-- Node4 -->
<g id="node5" class="node">
<title>Node4</title>
<polygon fill="none" stroke="#bfbfbf" points="323,-56.5 323,-75.5 370,-75.5 370,-56.5 323,-56.5"/>
<text text-anchor="middle" x="346.5" y="-63.5" font-family="Helvetica,sans-Serif" font-size="10.00" fill="#000000">cmath</text>
</g>
<!-- Node0&#45;&gt;Node4 -->
<g id="edge4" class="edge">
<title>Node0&#45;&gt;Node4</title>
<path fill="none" stroke="#191970" d="M354.1328,-231.1043C437.5584,-207.4256 548.6375,-169.8873 574.5,-132 579.5114,-124.6585 580.1297,-118.8789 574.5,-112 550.3636,-82.5077 437.8718,-71.4985 380.4369,-67.7497"/>
<polygon fill="#191970" stroke="#191970" points="380.5831,-64.2521 370.387,-67.1313 380.1532,-71.2389 380.5831,-64.2521"/>
</g>
<!-- Node5 -->
<g id="node6" class="node">
<title>Node5</title>
<g id="a_node6"><a xlink:href="../../d9/d52/Common_2MathUtils_2include_2MathUtils_2Utils_8h.html" target="_top" xlink:title="MathUtils/Utils.h">
<polygon fill="none" stroke="#000000" points="208.5,-168.5 208.5,-187.5 306.5,-187.5 306.5,-168.5 208.5,-168.5"/>
<text text-anchor="middle" x="257.5" y="-175.5" font-family="Helvetica,sans-Serif" font-size="10.00" fill="#000000">MathUtils/Utils.h</text>
</a>
</g>
</g>
<!-- Node0&#45;&gt;Node5 -->
<g id="edge5" class="edge">
<title>Node0&#45;&gt;Node5</title>
<path fill="none" stroke="#191970" d="M257.5,-224.2744C257.5,-215.3302 257.5,-205.8568 257.5,-197.8269"/>
<polygon fill="#191970" stroke="#191970" points="261.0001,-197.6425 257.5,-187.6426 254.0001,-197.6426 261.0001,-197.6425"/>
</g>
<!-- Node11 -->
<g id="node12" class="node">
<title>Node11</title>
<g id="a_node12"><a xlink:href="../../d6/d84/MathConstants_8h.html" target="_top" xlink:title="useful math constants ">
<polygon fill="none" stroke="#000000" points="371.5,-112.5 371.5,-131.5 565.5,-131.5 565.5,-112.5 371.5,-112.5"/>
<text text-anchor="middle" x="468.5" y="-119.5" font-family="Helvetica,sans-Serif" font-size="10.00" fill="#000000">CommonConstants/MathConstants.h</text>
</a>
</g>
</g>
<!-- Node0&#45;&gt;Node11 -->
<g id="edge16" class="edge">
<title>Node0&#45;&gt;Node11</title>
<path fill="none" stroke="#191970" d="M307.2369,-224.4136C350.6701,-196.8304 411.7983,-158.0096 444.9255,-136.9715"/>
<polygon fill="#191970" stroke="#191970" points="446.9234,-139.8489 453.4886,-131.5333 443.1707,-133.9398 446.9234,-139.8489"/>
</g>
<!-- Node2 -->
<g id="node3" class="node">
<title>Node2</title>
<polygon fill="none" stroke="#bfbfbf" points="24,-112.5 24,-131.5 83,-131.5 83,-112.5 24,-112.5"/>
<text text-anchor="middle" x="53.5" y="-119.5" font-family="Helvetica,sans-Serif" font-size="10.00" fill="#000000">Rtypes.h</text>
</g>
<!-- Node1&#45;&gt;Node2 -->
<g id="edge2" class="edge">
<title>Node1&#45;&gt;Node2</title>
<path fill="none" stroke="#191970" d="M60.9323,-168.2455C59.7579,-160.9382 58.1116,-150.6944 56.6668,-141.7046"/>
<polygon fill="#191970" stroke="#191970" points="60.0922,-140.9606 55.0497,-131.6427 53.1809,-142.0714 60.0922,-140.9606"/>
</g>
<!-- Node5&#45;&gt;Node3 -->
<g id="edge6" class="edge">
<title>Node5&#45;&gt;Node3</title>
<path fill="none" stroke="#191970" d="M234.2927,-168.3733C211.7977,-159.042 177.5523,-144.8365 152.8931,-134.6075"/>
<polygon fill="#191970" stroke="#191970" points="154.2076,-131.3636 143.6297,-130.7649 151.5254,-137.8294 154.2076,-131.3636"/>
</g>
<!-- Node5&#45;&gt;Node4 -->
<g id="edge7" class="edge">
<title>Node5&#45;&gt;Node4</title>
<path fill="none" stroke="#191970" d="M278.0438,-168.4456C292.8791,-160.5822 312.3626,-148.1178 324.5,-132 334.7049,-118.4485 340.3343,-99.9002 343.3371,-85.9172"/>
<polygon fill="#191970" stroke="#191970" points="346.819,-86.3378 345.2193,-75.8645 339.9386,-85.0495 346.819,-86.3378"/>
</g>
<!-- Node6 -->
<g id="node7" class="node">
<title>Node6</title>
<g id="a_node7"><a xlink:href="../../df/d21/GPUCommonDef_8h.html" target="_top" xlink:title="GPUCommonDef.h">
<polygon fill="none" stroke="#000000" points="115,-56.5 115,-75.5 222,-75.5 222,-56.5 115,-56.5"/>
<text text-anchor="middle" x="168.5" y="-63.5" font-family="Helvetica,sans-Serif" font-size="10.00" fill="#000000">GPUCommonDef.h</text>
</a>
</g>
</g>
<!-- Node5&#45;&gt;Node6 -->
<g id="edge8" class="edge">
<title>Node5&#45;&gt;Node6</title>
<path fill="none" stroke="#191970" d="M237.6326,-168.4928C223.015,-160.578 203.651,-148.0266 191.5,-132 181.2034,-118.4193 175.2819,-99.8738 172.0341,-85.8993"/>
<polygon fill="#191970" stroke="#191970" points="175.4113,-84.9451 169.9702,-75.8542 168.5545,-86.354 175.4113,-84.9451"/>
</g>
<!-- Node9 -->
<g id="node10" class="node">
<title>Node9</title>
<g id="a_node10"><a xlink:href="../../d6/da2/GPUCommonMath_8h.html" target="_top" xlink:title="GPUCommonMath.h">
<polygon fill="none" stroke="#000000" points="200,-112.5 200,-131.5 315,-131.5 315,-112.5 200,-112.5"/>
<text text-anchor="middle" x="257.5" y="-119.5" font-family="Helvetica,sans-Serif" font-size="10.00" fill="#000000">GPUCommonMath.h</text>
</a>
</g>
</g>
<!-- Node5&#45;&gt;Node9 -->
<g id="edge11" class="edge">
<title>Node5&#45;&gt;Node9</title>
<path fill="none" stroke="#191970" d="M257.5,-168.2455C257.5,-160.9382 257.5,-150.6944 257.5,-141.7046"/>
<polygon fill="#191970" stroke="#191970" points="261.0001,-141.6426 257.5,-131.6427 254.0001,-141.6427 261.0001,-141.6426"/>
</g>
<!-- Node5&#45;&gt;Node11 -->
<g id="edge15" class="edge">
<title>Node5&#45;&gt;Node11</title>
<path fill="none" stroke="#191970" d="M293.7722,-168.3733C329.4658,-158.9001 384.0879,-144.4032 422.7451,-134.1435"/>
<polygon fill="#191970" stroke="#191970" points="423.9336,-137.4493 432.7011,-131.5011 422.1379,-130.6835 423.9336,-137.4493"/>
</g>
<!-- Node7 -->
<g id="node8" class="node">
<title>Node7</title>
<g id="a_node8"><a xlink:href="../../d5/d93/GPUCommonDefSettings_8h.html" target="_top" xlink:title="GPUCommonDefSettings.h">
<polygon fill="none" stroke="#000000" points="17.5,-.5 17.5,-19.5 165.5,-19.5 165.5,-.5 17.5,-.5"/>
<text text-anchor="middle" x="91.5" y="-7.5" font-family="Helvetica,sans-Serif" font-size="10.00" fill="#000000">GPUCommonDefSettings.h</text>
</a>
</g>
</g>
<!-- Node6&#45;&gt;Node7 -->
<g id="edge9" class="edge">
<title>Node6&#45;&gt;Node7</title>
<path fill="none" stroke="#191970" d="M155.0876,-56.2455C143.4943,-47.814 126.5252,-35.4729 113.0322,-25.6598"/>
<polygon fill="#191970" stroke="#191970" points="114.9047,-22.6938 104.7587,-19.6427 110.7874,-28.355 114.9047,-22.6938"/>
</g>
<!-- Node8 -->
<g id="node9" class="node">
<title>Node8</title>
<g id="a_node9"><a xlink:href="../../da/d5a/GPUCommonDefAPI_8h.html" target="_top" xlink:title="GPUCommonDefAPI.h">
<polygon fill="none" stroke="#000000" points="183.5,-.5 183.5,-19.5 307.5,-19.5 307.5,-.5 183.5,-.5"/>
<text text-anchor="middle" x="245.5" y="-7.5" font-family="Helvetica,sans-Serif" font-size="10.00" fill="#000000">GPUCommonDefAPI.h</text>
</a>
</g>
</g>
<!-- Node6&#45;&gt;Node8 -->
<g id="edge10" class="edge">
<title>Node6&#45;&gt;Node8</title>
<path fill="none" stroke="#191970" d="M181.9124,-56.2455C193.5057,-47.814 210.4748,-35.4729 223.9678,-25.6598"/>
<polygon fill="#191970" stroke="#191970" points="226.2126,-28.355 232.2413,-19.6427 222.0953,-22.6938 226.2126,-28.355"/>
</g>
<!-- Node9&#45;&gt;Node4 -->
<g id="edge13" class="edge">
<title>Node9&#45;&gt;Node4</title>
<path fill="none" stroke="#191970" d="M273.0026,-112.2455C286.658,-103.6534 306.7657,-91.0014 322.4989,-81.1018"/>
<polygon fill="#191970" stroke="#191970" points="324.5751,-83.9307 331.175,-75.6427 320.8471,-78.006 324.5751,-83.9307"/>
</g>
<!-- Node9&#45;&gt;Node6 -->
<g id="edge12" class="edge">
<title>Node9&#45;&gt;Node6</title>
<path fill="none" stroke="#191970" d="M241.9974,-112.2455C228.342,-103.6534 208.2343,-91.0014 192.5011,-81.1018"/>
<polygon fill="#191970" stroke="#191970" points="194.1529,-78.006 183.825,-75.6427 190.4249,-83.9307 194.1529,-78.006"/>
</g>
<!-- Node10 -->
<g id="node11" class="node">
<title>Node10</title>
<polygon fill="none" stroke="#bfbfbf" points="240.5,-56.5 240.5,-75.5 304.5,-75.5 304.5,-56.5 240.5,-56.5"/>
<text text-anchor="middle" x="272.5" y="-63.5" font-family="Helvetica,sans-Serif" font-size="10.00" fill="#000000">algorithm</text>
</g>
<!-- Node9&#45;&gt;Node10 -->
<g id="edge14" class="edge">
<title>Node9&#45;&gt;Node10</title>
<path fill="none" stroke="#191970" d="M260.1128,-112.2455C262.0916,-104.8579 264.8744,-94.4689 267.3012,-85.4087"/>
<polygon fill="#191970" stroke="#191970" points="270.7105,-86.2078 269.9171,-75.6427 263.9489,-84.3966 270.7105,-86.2078"/>
</g>
</g>
</svg>
        <g id="navigator" transform="translate(0 0)" fill="#404254">
                <rect fill="#f2f5e9" fill-opacity="0.5" stroke="#606060" stroke-width=".5" x="0" y="0" width="60" height="60"/>
                <use id="zoomplus" xlink:href="#zoomPlus" x="17" y="9" onmousedown="handleZoom(evt,'in')"/>
                <use id="zoomminus" xlink:href="#zoomMin" x="42" y="9" onmousedown="handleZoom(evt,'out')"/>
                <use id="reset" xlink:href="#resetDef" x="30" y="36" onmousedown="handleReset()"/>
                <g id="arrowUp" xlink:href="#dirArrow" transform="translate(30 24)" onmousedown="handlePan(0,-1)">
                  <use xlink:href="#rim" fill="#404040">
                        <set attributeName="fill" to="#808080" begin="arrowUp.mouseover" end="arrowUp.mouseout"/>
                  </use>
                  <path fill="none" stroke="white" stroke-width="1.5" d="M0,-3.0v7 M-2.5,-0.5L0,-3.0L2.5,-0.5"/>
                </g>
                <g id="arrowRight" xlink:href="#dirArrow" transform="rotate(90) translate(36 -43)" onmousedown="handlePan(1,0)">
                  <use xlink:href="#rim" fill="#404040">
                        <set attributeName="fill" to="#808080" begin="arrowRight.mouseover" end="arrowRight.mouseout"/>
                  </use>
                  <path fill="none" stroke="white" stroke-width="1.5" d="M0,-3.0v7 M-2.5,-0.5L0,-3.0L2.5,-0.5"/>
                </g>
                <g id="arrowDown" xlink:href="#dirArrow" transform="rotate(180) translate(-30 -48)" onmousedown="handlePan(0,1)">
                  <use xlink:href="#rim" fill="#404040">
                        <set attributeName="fill" to="#808080" begin="arrowDown.mouseover" end="arrowDown.mouseout"/>
                  </use>
                  <path fill="none" stroke="white" stroke-width="1.5" d="M0,-3.0v7 M-2.5,-0.5L0,-3.0L2.5,-0.5"/>
                </g>
                <g id="arrowLeft" xlink:href="#dirArrow" transform="rotate(270) translate(-36 17)" onmousedown="handlePan(-1,0)">
                  <use xlink:href="#rim" fill="#404040">
                        <set attributeName="fill" to="#808080" begin="arrowLeft.mouseover" end="arrowLeft.mouseout"/>
                  </use>
                  <path fill="none" stroke="white" stroke-width="1.5" d="M0,-3.0v7 M-2.5,-0.5L0,-3.0L2.5,-0.5"/>
                </g>
        </g>
        <svg viewBox="0 0 15 15" width="100%" height="30px" preserveAspectRatio="xMaxYMin meet">
         <g id="arrow_out" transform="scale(0.3 0.3)">
          <a xlink:href="TrackUtils_8h__incl_org.svg" target="_base">
           <rect id="button" ry="5" rx="5" y="6" x="6" height="38" width="38"
                fill="#f2f5e9" fill-opacity="0.5" stroke="#606060" stroke-width="1.0"/>
           <path id="arrow"
             d="M 11.500037,31.436501 C 11.940474,20.09759 22.043105,11.32322 32.158766,21.979434 L 37.068811,17.246167 C 37.068811,17.246167 37.088388,32 37.088388,32 L 22.160133,31.978069 C 22.160133,31.978069 26.997745,27.140456 26.997745,27.140456 C 18.528582,18.264221 13.291696,25.230495 11.500037,31.436501 z"
             style="fill:#404040;"/>
          </a>
         </g>
        </svg>
</svg>
