<?xml version="1.0" encoding="UTF-8" standalone="no"?>
<!DOCTYPE svg PUBLIC "-//W3C//DTD SVG 1.1//EN"
 "http://www.w3.org/Graphics/SVG/1.1/DTD/svg11.dtd">
<!-- Generated by graphviz version 2.40.1 (20161225.0304)
 -->
<!-- Title: /home/travis/build/AliceO2Group/AliceO2/Detectors/TPC/qc/include/TPCQC/Clusters.h Pages: 1 -->
<svg width="1608pt" height="699pt"
 viewBox="0.00 0.00 1608.02 699.00" xmlns="http://www.w3.org/2000/svg" xmlns:xlink="http://www.w3.org/1999/xlink">
<g id="graph0" class="graph" transform="scale(1 1) rotate(0) translate(4 695)">
<title>/home/travis/build/AliceO2Group/AliceO2/Detectors/TPC/qc/include/TPCQC/Clusters.h</title>
<!-- Node0 -->
<g id="node1" class="node">
<title>Node0</title>
<polygon fill="#bfbfbf" stroke="#000000" points="231.5,-638.5 231.5,-690.5 372.5,-690.5 372.5,-638.5 231.5,-638.5"/>
<text text-anchor="start" x="239.5" y="-678.5" font-family="Helvetica,sans-Serif" font-size="10.00" fill="#000000">/home/travis/build</text>
<text text-anchor="start" x="239.5" y="-667.5" font-family="Helvetica,sans-Serif" font-size="10.00" fill="#000000">/AliceO2Group/AliceO2</text>
<text text-anchor="start" x="239.5" y="-656.5" font-family="Helvetica,sans-Serif" font-size="10.00" fill="#000000">/Detectors/TPC/qc/include</text>
<text text-anchor="middle" x="302" y="-645.5" font-family="Helvetica,sans-Serif" font-size="10.00" fill="#000000">/TPCQC/Clusters.h</text>
</g>
<!-- Node1 -->
<g id="node2" class="node">
<title>Node1</title>
<polygon fill="none" stroke="#bfbfbf" points="187.5,-582.5 187.5,-601.5 254.5,-601.5 254.5,-582.5 187.5,-582.5"/>
<text text-anchor="middle" x="221" y="-589.5" font-family="Helvetica,sans-Serif" font-size="10.00" fill="#000000">TCanvas.h</text>
</g>
<!-- Node0&#45;&gt;Node1 -->
<g id="edge1" class="edge">
<title>Node0&#45;&gt;Node1</title>
<path fill="none" stroke="#191970" d="M272.7571,-638.3258C261.5699,-628.3126 249.1378,-617.1851 239.2624,-608.346"/>
<polygon fill="#191970" stroke="#191970" points="241.4373,-605.5954 231.6518,-601.534 236.7688,-610.8113 241.4373,-605.5954"/>
</g>
<!-- Node2 -->
<g id="node3" class="node">
<title>Node2</title>
<g id="a_node3"><a xlink:href="../../d6/d2b/TPC_2base_2include_2TPCBase_2CalDet_8h.html" target="_top" xlink:title="TPCBase/CalDet.h">
<polygon fill="none" stroke="#000000" points="984,-582.5 984,-601.5 1088,-601.5 1088,-582.5 984,-582.5"/>
<text text-anchor="middle" x="1036" y="-589.5" font-family="Helvetica,sans-Serif" font-size="10.00" fill="#000000">TPCBase/CalDet.h</text>
</a>
</g>
</g>
<!-- Node0&#45;&gt;Node2 -->
<g id="edge2" class="edge">
<title>Node0&#45;&gt;Node2</title>
<path fill="none" stroke="#191970" d="M372.7121,-657.5155C515.7587,-643.3862 837.3993,-611.6166 973.3934,-598.1839"/>
<polygon fill="#191970" stroke="#191970" points="974.0302,-601.6381 983.6378,-597.172 973.3421,-594.672 974.0302,-601.6381"/>
</g>
<!-- Node7 -->
<g id="node8" class="node">
<title>Node7</title>
<g id="a_node8"><a xlink:href="../../d1/d73/Defs_8h.html" target="_top" xlink:title="Common definitions for 2D coordinates. ">
<polygon fill="none" stroke="#000000" points="734.5,-190.5 734.5,-209.5 867.5,-209.5 867.5,-190.5 734.5,-190.5"/>
<text text-anchor="middle" x="801" y="-197.5" font-family="Helvetica,sans-Serif" font-size="10.00" fill="#000000">DataFormatsTPC/Defs.h</text>
</a>
</g>
</g>
<!-- Node0&#45;&gt;Node7 -->
<g id="edge77" class="edge">
<title>Node0&#45;&gt;Node7</title>
<path fill="none" stroke="#191970" d="M298.5592,-638.2189C293.084,-594.0546 283,-502.1129 283,-424 283,-424 283,-424 283,-368 283,-320.87 327.1002,-328.6091 366,-302 406.7696,-274.1119 415.2935,-262.075 462,-246 509.0184,-229.8177 639.5589,-215.1248 724.2468,-206.896"/>
<polygon fill="#191970" stroke="#191970" points="724.7198,-210.3667 734.3386,-205.9248 724.0492,-203.3989 724.7198,-210.3667"/>
</g>
<!-- Node27 -->
<g id="node28" class="node">
<title>Node27</title>
<g id="a_node28"><a xlink:href="../../d3/dd6/Sector_8h.html" target="_top" xlink:title="TPCBase/Sector.h">
<polygon fill="none" stroke="#000000" points="526.5,-246.5 526.5,-265.5 627.5,-265.5 627.5,-246.5 526.5,-246.5"/>
<text text-anchor="middle" x="577" y="-253.5" font-family="Helvetica,sans-Serif" font-size="10.00" fill="#000000">TPCBase/Sector.h</text>
</a>
</g>
</g>
<!-- Node0&#45;&gt;Node27 -->
<g id="edge76" class="edge">
<title>Node0&#45;&gt;Node27</title>
<path fill="none" stroke="#191970" d="M305.4408,-638.2189C310.916,-594.0546 321,-502.1129 321,-424 321,-424 321,-424 321,-368 321,-324.0682 449.1398,-286.2381 524.1034,-267.8658"/>
<polygon fill="#191970" stroke="#191970" points="524.9631,-271.2589 533.8626,-265.51 523.3205,-264.4543 524.9631,-271.2589"/>
</g>
<!-- Node3 -->
<g id="node4" class="node">
<title>Node3</title>
<polygon fill="none" stroke="#bfbfbf" points="1401,-470.5 1401,-489.5 1459,-489.5 1459,-470.5 1401,-470.5"/>
<text text-anchor="middle" x="1430" y="-477.5" font-family="Helvetica,sans-Serif" font-size="10.00" fill="#000000">memory</text>
</g>
<!-- Node2&#45;&gt;Node3 -->
<g id="edge3" class="edge">
<title>Node2&#45;&gt;Node3</title>
<path fill="none" stroke="#191970" d="M1083.1658,-582.471C1118.4715,-574.6206 1167.6006,-562.1612 1209,-546 1226.7786,-539.0597 1229.1646,-532.7931 1247,-526 1306.1436,-503.4733 1325.8281,-506.1277 1391.0078,-490.1788"/>
<polygon fill="#191970" stroke="#191970" points="1392.1144,-493.5098 1400.9647,-487.6855 1390.414,-486.7195 1392.1144,-493.5098"/>
</g>
<!-- Node4 -->
<g id="node5" class="node">
<title>Node4</title>
<polygon fill="none" stroke="#bfbfbf" points="1471.5,-358.5 1471.5,-377.5 1518.5,-377.5 1518.5,-358.5 1471.5,-358.5"/>
<text text-anchor="middle" x="1495" y="-365.5" font-family="Helvetica,sans-Serif" font-size="10.00" fill="#000000">vector</text>
</g>
<!-- Node2&#45;&gt;Node4 -->
<g id="edge4" class="edge">
<title>Node2&#45;&gt;Node4</title>
<path fill="none" stroke="#191970" d="M1088.0184,-590.3946C1214.0299,-586.0984 1528.1572,-572.801 1567,-546 1596.5043,-525.6424 1607.4702,-503.2189 1594,-470 1578.8032,-432.5231 1542.4947,-401.2299 1518.3306,-383.5606"/>
<polygon fill="#191970" stroke="#191970" points="1520.2209,-380.6104 1510.0391,-377.681 1516.1718,-386.3205 1520.2209,-380.6104"/>
</g>
<!-- Node5 -->
<g id="node6" class="node">
<title>Node5</title>
<polygon fill="none" stroke="#bfbfbf" points="501,-414.5 501,-433.5 545,-433.5 545,-414.5 501,-414.5"/>
<text text-anchor="middle" x="523" y="-421.5" font-family="Helvetica,sans-Serif" font-size="10.00" fill="#000000">string</text>
</g>
<!-- Node2&#45;&gt;Node5 -->
<g id="edge5" class="edge">
<title>Node2&#45;&gt;Node5</title>
<path fill="none" stroke="#191970" d="M1001.8057,-582.4449C940.6633,-565.1833 808.7242,-527.1349 699,-490 648.0777,-472.7659 589.811,-450.3816 554.7395,-436.6121"/>
<polygon fill="#191970" stroke="#191970" points="555.6478,-433.2082 545.0609,-432.7996 553.0822,-439.7212 555.6478,-433.2082"/>
</g>
<!-- Node6 -->
<g id="node7" class="node">
<title>Node6</title>
<polygon fill="none" stroke="#bfbfbf" points="1148,-526.5 1148,-545.5 1200,-545.5 1200,-526.5 1148,-526.5"/>
<text text-anchor="middle" x="1174" y="-533.5" font-family="Helvetica,sans-Serif" font-size="10.00" fill="#000000">cassert</text>
</g>
<!-- Node2&#45;&gt;Node6 -->
<g id="edge6" class="edge">
<title>Node2&#45;&gt;Node6</title>
<path fill="none" stroke="#191970" d="M1059.723,-582.3733C1082.1737,-573.2629 1116.0739,-559.5062 1141.1255,-549.3404"/>
<polygon fill="#191970" stroke="#191970" points="1142.6365,-552.5045 1150.5865,-545.5011 1140.0043,-546.0182 1142.6365,-552.5045"/>
</g>
<!-- Node2&#45;&gt;Node7 -->
<g id="edge7" class="edge">
<title>Node2&#45;&gt;Node7</title>
<path fill="none" stroke="#191970" d="M983.978,-587.7813C837.9774,-575.2495 435,-535.6222 435,-480 435,-480 435,-480 435,-312 435,-265.2171 474.2667,-265.0396 517,-246 553.0933,-229.9188 653.0534,-216.1444 724.1488,-207.9681"/>
<polygon fill="#191970" stroke="#191970" points="724.8763,-211.4081 734.4178,-206.8027 724.0869,-204.4527 724.8763,-211.4081"/>
</g>
<!-- Node22 -->
<g id="node23" class="node">
<title>Node22</title>
<g id="a_node23"><a xlink:href="../../d5/d1d/TPC_2base_2include_2TPCBase_2Mapper_8h.html" target="_top" xlink:title="TPCBase/Mapper.h">
<polygon fill="none" stroke="#000000" points="801.5,-470.5 801.5,-489.5 908.5,-489.5 908.5,-470.5 801.5,-470.5"/>
<text text-anchor="middle" x="855" y="-477.5" font-family="Helvetica,sans-Serif" font-size="10.00" fill="#000000">TPCBase/Mapper.h</text>
</a>
</g>
</g>
<!-- Node2&#45;&gt;Node22 -->
<g id="edge23" class="edge">
<title>Node2&#45;&gt;Node22</title>
<path fill="none" stroke="#191970" d="M1020.568,-582.4509C989.0436,-562.9441 917.0462,-518.3932 879.2263,-494.9909"/>
<polygon fill="#191970" stroke="#191970" points="880.7383,-491.8106 870.3929,-489.5249 877.0549,-497.7631 880.7383,-491.8106"/>
</g>
<!-- Node2&#45;&gt;Node27 -->
<g id="edge61" class="edge">
<title>Node2&#45;&gt;Node27</title>
<path fill="none" stroke="#191970" d="M983.7907,-590.2593C844.4857,-585.3113 471.1476,-569.9554 421,-546 384.6846,-528.6522 359,-520.2462 359,-480 359,-480 359,-480 359,-424 359,-337.8247 467.1973,-289.6887 531.1423,-268.7651"/>
<polygon fill="#191970" stroke="#191970" points="532.5273,-271.9977 541.0017,-265.639 530.4115,-265.3251 532.5273,-271.9977"/>
</g>
<!-- Node30 -->
<g id="node31" class="node">
<title>Node30</title>
<g id="a_node31"><a xlink:href="../../dc/d14/ROC_8h.html" target="_top" xlink:title="TPCBase/ROC.h">
<polygon fill="none" stroke="#000000" points="643,-302.5 643,-321.5 735,-321.5 735,-302.5 643,-302.5"/>
<text text-anchor="middle" x="689" y="-309.5" font-family="Helvetica,sans-Serif" font-size="10.00" fill="#000000">TPCBase/ROC.h</text>
</a>
</g>
</g>
<!-- Node2&#45;&gt;Node30 -->
<g id="edge60" class="edge">
<title>Node2&#45;&gt;Node30</title>
<path fill="none" stroke="#191970" d="M983.9231,-585.1785C859.0824,-567.6097 548.8767,-516.333 492,-434 451.4905,-375.3597 561.4031,-339.4531 632.9378,-322.8997"/>
<polygon fill="#191970" stroke="#191970" points="633.7686,-326.3003 642.7573,-320.692 632.2331,-319.4708 633.7686,-326.3003"/>
</g>
<!-- Node36 -->
<g id="node37" class="node">
<title>Node36</title>
<g id="a_node37"><a xlink:href="../../db/d9b/CalArray_8h.html" target="_top" xlink:title="TPCBase/CalArray.h">
<polygon fill="none" stroke="#000000" points="980,-526.5 980,-545.5 1092,-545.5 1092,-526.5 980,-526.5"/>
<text text-anchor="middle" x="1036" y="-533.5" font-family="Helvetica,sans-Serif" font-size="10.00" fill="#000000">TPCBase/CalArray.h</text>
</a>
</g>
</g>
<!-- Node2&#45;&gt;Node36 -->
<g id="edge62" class="edge">
<title>Node2&#45;&gt;Node36</title>
<path fill="none" stroke="#191970" d="M1036,-582.2455C1036,-574.9382 1036,-564.6944 1036,-555.7046"/>
<polygon fill="#191970" stroke="#191970" points="1039.5001,-555.6426 1036,-545.6427 1032.5001,-555.6427 1039.5001,-555.6426"/>
</g>
<!-- Node41 -->
<g id="node42" class="node">
<title>Node41</title>
<polygon fill="none" stroke="#bfbfbf" points="1281.5,-470.5 1281.5,-489.5 1382.5,-489.5 1382.5,-470.5 1281.5,-470.5"/>
<text text-anchor="middle" x="1332" y="-477.5" font-family="Helvetica,sans-Serif" font-size="10.00" fill="#000000">boost/format.hpp</text>
</g>
<!-- Node2&#45;&gt;Node41 -->
<g id="edge74" class="edge">
<title>Node2&#45;&gt;Node41</title>
<path fill="none" stroke="#191970" d="M1049.677,-582.4173C1073.1907,-566.0835 1120.5293,-533.8511 1139,-526 1163.0463,-515.7789 1226.3721,-501.5174 1273.9774,-491.5938"/>
<polygon fill="#191970" stroke="#191970" points="1274.7942,-494.999 1283.8774,-489.545 1273.3756,-488.1442 1274.7942,-494.999"/>
</g>
<!-- Node42 -->
<g id="node43" class="node">
<title>Node42</title>
<g id="a_node43"><a xlink:href="../../dd/da4/Logger_8h.html" target="_top" xlink:title="Framework/Logger.h">
<polygon fill="none" stroke="#000000" points="1442.5,-526.5 1442.5,-545.5 1557.5,-545.5 1557.5,-526.5 1442.5,-526.5"/>
<text text-anchor="middle" x="1500" y="-533.5" font-family="Helvetica,sans-Serif" font-size="10.00" fill="#000000">Framework/Logger.h</text>
</a>
</g>
</g>
<!-- Node2&#45;&gt;Node42 -->
<g id="edge72" class="edge">
<title>Node2&#45;&gt;Node42</title>
<path fill="none" stroke="#191970" d="M1088.3247,-585.6849C1172.7347,-575.4975 1338.9078,-555.4422 1432.2517,-544.1765"/>
<polygon fill="#191970" stroke="#191970" points="1432.9256,-547.6207 1442.4341,-542.9476 1432.0868,-540.6711 1432.9256,-547.6207"/>
</g>
<!-- Node44 -->
<g id="node45" class="node">
<title>Node44</title>
<polygon fill="none" stroke="#bfbfbf" points="1256,-526.5 1256,-545.5 1396,-545.5 1396,-526.5 1256,-526.5"/>
<text text-anchor="middle" x="1326" y="-533.5" font-family="Helvetica,sans-Serif" font-size="10.00" fill="#000000">boost/range/combine.hpp</text>
</g>
<!-- Node2&#45;&gt;Node44 -->
<g id="edge75" class="edge">
<title>Node2&#45;&gt;Node44</title>
<path fill="none" stroke="#191970" d="M1085.5233,-582.4369C1135.6759,-572.7522 1213.261,-557.7703 1266.6697,-547.4569"/>
<polygon fill="#191970" stroke="#191970" points="1267.526,-550.8563 1276.681,-545.5237 1266.1987,-543.9832 1267.526,-550.8563"/>
</g>
<!-- Node8 -->
<g id="node9" class="node">
<title>Node8</title>
<polygon fill="none" stroke="#bfbfbf" points="1158.5,-134.5 1158.5,-153.5 1205.5,-153.5 1205.5,-134.5 1158.5,-134.5"/>
<text text-anchor="middle" x="1182" y="-141.5" font-family="Helvetica,sans-Serif" font-size="10.00" fill="#000000">cmath</text>
</g>
<!-- Node7&#45;&gt;Node8 -->
<g id="edge8" class="edge">
<title>Node7&#45;&gt;Node8</title>
<path fill="none" stroke="#191970" d="M866.0633,-190.4369C947.6338,-178.4475 1084.4397,-158.3396 1147.8368,-149.0214"/>
<polygon fill="#191970" stroke="#191970" points="1148.693,-152.4332 1158.0777,-147.5161 1147.675,-145.5076 1148.693,-152.4332"/>
</g>
<!-- Node9 -->
<g id="node10" class="node">
<title>Node9</title>
<g id="a_node10"><a xlink:href="../../d1/da8/GPUROOTCartesianFwd_8h.html" target="_top" xlink:title="GPUROOTCartesianFwd.h">
<polygon fill="none" stroke="#000000" points="809,-134.5 809,-153.5 949,-153.5 949,-134.5 809,-134.5"/>
<text text-anchor="middle" x="879" y="-141.5" font-family="Helvetica,sans-Serif" font-size="10.00" fill="#000000">GPUROOTCartesianFwd.h</text>
</a>
</g>
</g>
<!-- Node7&#45;&gt;Node9 -->
<g id="edge9" class="edge">
<title>Node7&#45;&gt;Node9</title>
<path fill="none" stroke="#191970" d="M814.5866,-190.2455C826.3305,-181.814 843.5199,-169.4729 857.1882,-159.6598"/>
<polygon fill="#191970" stroke="#191970" points="859.4871,-162.3179 865.5691,-153.6427 855.4046,-156.6316 859.4871,-162.3179"/>
</g>
<!-- Node10 -->
<g id="node11" class="node">
<title>Node10</title>
<g id="a_node11"><a xlink:href="../../d2/dd0/Cartesian2D_8h.html" target="_top" xlink:title="MathUtils/Cartesian2D.h">
<polygon fill="none" stroke="#000000" points="1123.5,-73 1123.5,-92 1258.5,-92 1258.5,-73 1123.5,-73"/>
<text text-anchor="middle" x="1191" y="-80" font-family="Helvetica,sans-Serif" font-size="10.00" fill="#000000">MathUtils/Cartesian2D.h</text>
</a>
</g>
</g>
<!-- Node7&#45;&gt;Node10 -->
<g id="edge10" class="edge">
<title>Node7&#45;&gt;Node10</title>
<path fill="none" stroke="#191970" d="M834.1155,-190.4301C865.9145,-181.2092 915.2873,-166.8103 958,-154 1025.5886,-133.729 1103.9933,-109.527 1150.4412,-95.1174"/>
<polygon fill="#191970" stroke="#191970" points="1151.6197,-98.4164 1160.1326,-92.109 1149.5445,-91.7311 1151.6197,-98.4164"/>
</g>
<!-- Node13 -->
<g id="node14" class="node">
<title>Node13</title>
<g id="a_node14"><a xlink:href="../../dd/d76/Cartesian3D_8h.html" target="_top" xlink:title="MathUtils/Cartesian3D.h">
<polygon fill="none" stroke="#000000" points="655.5,-134.5 655.5,-153.5 790.5,-153.5 790.5,-134.5 655.5,-134.5"/>
<text text-anchor="middle" x="723" y="-141.5" font-family="Helvetica,sans-Serif" font-size="10.00" fill="#000000">MathUtils/Cartesian3D.h</text>
</a>
</g>
</g>
<!-- Node7&#45;&gt;Node13 -->
<g id="edge13" class="edge">
<title>Node7&#45;&gt;Node13</title>
<path fill="none" stroke="#191970" d="M787.4134,-190.2455C775.6695,-181.814 758.4801,-169.4729 744.8118,-159.6598"/>
<polygon fill="#191970" stroke="#191970" points="746.5954,-156.6316 736.4309,-153.6427 742.5129,-162.3179 746.5954,-156.6316"/>
</g>
<!-- Node11 -->
<g id="node12" class="node">
<title>Node11</title>
<polygon fill="none" stroke="#bfbfbf" points="1011,-.5 1011,-30.5 1175,-30.5 1175,-.5 1011,-.5"/>
<text text-anchor="start" x="1019" y="-18.5" font-family="Helvetica,sans-Serif" font-size="10.00" fill="#000000">Math/GenVector/Displacement</text>
<text text-anchor="middle" x="1093" y="-7.5" font-family="Helvetica,sans-Serif" font-size="10.00" fill="#000000">Vector2D.h</text>
</g>
<!-- Node10&#45;&gt;Node11 -->
<g id="edge11" class="edge">
<title>Node10&#45;&gt;Node11</title>
<path fill="none" stroke="#191970" d="M1176.959,-72.9005C1163.0412,-63.3853 1141.272,-48.5023 1123.388,-36.2755"/>
<polygon fill="#191970" stroke="#191970" points="1125.2026,-33.2763 1114.9721,-30.5218 1121.2519,-39.0549 1125.2026,-33.2763"/>
</g>
<!-- Node12 -->
<g id="node13" class="node">
<title>Node12</title>
<polygon fill="none" stroke="#bfbfbf" points="1193.5,-6 1193.5,-25 1382.5,-25 1382.5,-6 1193.5,-6"/>
<text text-anchor="middle" x="1288" y="-13" font-family="Helvetica,sans-Serif" font-size="10.00" fill="#000000">Math/GenVector/PositionVector2D.h</text>
</g>
<!-- Node10&#45;&gt;Node12 -->
<g id="edge12" class="edge">
<title>Node10&#45;&gt;Node12</title>
<path fill="none" stroke="#191970" d="M1204.8977,-72.9005C1220.8164,-61.9052 1247.1121,-43.7422 1265.8599,-30.7927"/>
<polygon fill="#191970" stroke="#191970" points="1267.8892,-33.6448 1274.128,-25.0817 1263.9108,-27.8852 1267.8892,-33.6448"/>
</g>
<!-- Node13&#45;&gt;Node10 -->
<g id="edge22" class="edge">
<title>Node13&#45;&gt;Node10</title>
<path fill="none" stroke="#191970" d="M790.5989,-135.1627C793.7763,-134.7656 796.9224,-134.3762 800,-134 939.4317,-116.9541 975.2447,-119.8797 1114,-98 1121.3989,-96.8333 1129.1677,-95.4537 1136.8071,-94.0062"/>
<polygon fill="#191970" stroke="#191970" points="1137.585,-97.4206 1146.7332,-92.0764 1136.249,-90.5492 1137.585,-97.4206"/>
</g>
<!-- Node14 -->
<g id="node15" class="node">
<title>Node14</title>
<polygon fill="none" stroke="#bfbfbf" points="0,-67.5 0,-97.5 164,-97.5 164,-67.5 0,-67.5"/>
<text text-anchor="start" x="8" y="-85.5" font-family="Helvetica,sans-Serif" font-size="10.00" fill="#000000">Math/GenVector/Displacement</text>
<text text-anchor="middle" x="82" y="-74.5" font-family="Helvetica,sans-Serif" font-size="10.00" fill="#000000">Vector3D.h</text>
</g>
<!-- Node13&#45;&gt;Node14 -->
<g id="edge14" class="edge">
<title>Node13&#45;&gt;Node14</title>
<path fill="none" stroke="#191970" d="M655.4955,-140.2138C553.4991,-134.0816 353.8296,-120.4757 174.4446,-98.1178"/>
<polygon fill="#191970" stroke="#191970" points="174.6518,-94.6164 164.293,-96.8403 173.7778,-101.5616 174.6518,-94.6164"/>
</g>
<!-- Node15 -->
<g id="node16" class="node">
<title>Node15</title>
<polygon fill="none" stroke="#bfbfbf" points="182.5,-73 182.5,-92 371.5,-92 371.5,-73 182.5,-73"/>
<text text-anchor="middle" x="277" y="-80" font-family="Helvetica,sans-Serif" font-size="10.00" fill="#000000">Math/GenVector/PositionVector3D.h</text>
</g>
<!-- Node13&#45;&gt;Node15 -->
<g id="edge15" class="edge">
<title>Node13&#45;&gt;Node15</title>
<path fill="none" stroke="#191970" d="M655.474,-135.2061C586.4605,-126.1507 476.2031,-111.4963 381,-98 370.9328,-96.5728 360.3231,-95.0329 349.8835,-93.497"/>
<polygon fill="#191970" stroke="#191970" points="350.354,-90.0286 339.9498,-92.0293 349.3308,-96.9534 350.354,-90.0286"/>
</g>
<!-- Node16 -->
<g id="node17" class="node">
<title>Node16</title>
<polygon fill="none" stroke="#bfbfbf" points="390,-73 390,-92 550,-92 550,-73 390,-73"/>
<text text-anchor="middle" x="470" y="-80" font-family="Helvetica,sans-Serif" font-size="10.00" fill="#000000">Math/GenVector/Rotation3D.h</text>
</g>
<!-- Node13&#45;&gt;Node16 -->
<g id="edge16" class="edge">
<title>Node13&#45;&gt;Node16</title>
<path fill="none" stroke="#191970" d="M683.7463,-134.4581C639.4306,-123.6857 567.2624,-106.1428 519.214,-94.4631"/>
<polygon fill="#191970" stroke="#191970" points="519.8895,-91.0254 509.3457,-92.0643 518.236,-97.8274 519.8895,-91.0254"/>
</g>
<!-- Node17 -->
<g id="node18" class="node">
<title>Node17</title>
<polygon fill="none" stroke="#bfbfbf" points="568,-73 568,-92 736,-92 736,-73 568,-73"/>
<text text-anchor="middle" x="652" y="-80" font-family="Helvetica,sans-Serif" font-size="10.00" fill="#000000">Math/GenVector/Transform3D.h</text>
</g>
<!-- Node13&#45;&gt;Node17 -->
<g id="edge17" class="edge">
<title>Node13&#45;&gt;Node17</title>
<path fill="none" stroke="#191970" d="M711.9063,-134.3906C701.0285,-124.9683 684.2252,-110.4134 671.18,-99.1137"/>
<polygon fill="#191970" stroke="#191970" points="673.1004,-96.1466 663.2502,-92.2449 668.5173,-101.4377 673.1004,-96.1466"/>
</g>
<!-- Node18 -->
<g id="node19" class="node">
<title>Node18</title>
<polygon fill="none" stroke="#bfbfbf" points="754.5,-73 754.5,-92 927.5,-92 927.5,-73 754.5,-73"/>
<text text-anchor="middle" x="841" y="-80" font-family="Helvetica,sans-Serif" font-size="10.00" fill="#000000">Math/GenVector/Translation3D.h</text>
</g>
<!-- Node13&#45;&gt;Node18 -->
<g id="edge18" class="edge">
<title>Node13&#45;&gt;Node18</title>
<path fill="none" stroke="#191970" d="M741.4375,-134.3906C760.8347,-124.2811 791.569,-108.2628 813.7617,-96.6962"/>
<polygon fill="#191970" stroke="#191970" points="815.4418,-99.7675 822.692,-92.0419 812.2064,-93.56 815.4418,-99.7675"/>
</g>
<!-- Node19 -->
<g id="node20" class="node">
<title>Node19</title>
<polygon fill="none" stroke="#bfbfbf" points="945.5,-73 945.5,-92 1004.5,-92 1004.5,-73 945.5,-73"/>
<text text-anchor="middle" x="975" y="-80" font-family="Helvetica,sans-Serif" font-size="10.00" fill="#000000">Rtypes.h</text>
</g>
<!-- Node13&#45;&gt;Node19 -->
<g id="edge19" class="edge">
<title>Node13&#45;&gt;Node19</title>
<path fill="none" stroke="#191970" d="M779.2587,-134.4826C822.5807,-126.5235 883.7026,-113.9197 936,-98 938.2936,-97.3018 940.642,-96.527 942.9931,-95.7068"/>
<polygon fill="#191970" stroke="#191970" points="944.3857,-98.9233 952.5407,-92.1597 941.9478,-92.3615 944.3857,-98.9233"/>
</g>
<!-- Node20 -->
<g id="node21" class="node">
<title>Node20</title>
<polygon fill="none" stroke="#bfbfbf" points="1023,-73 1023,-92 1105,-92 1105,-73 1023,-73"/>
<text text-anchor="middle" x="1064" y="-80" font-family="Helvetica,sans-Serif" font-size="10.00" fill="#000000">TGeoMatrix.h</text>
</g>
<!-- Node13&#45;&gt;Node20 -->
<g id="edge20" class="edge">
<title>Node13&#45;&gt;Node20</title>
<path fill="none" stroke="#191970" d="M790.0379,-134.4595C862.0714,-124.0132 971.767,-107.4884 1013,-98 1017.0583,-97.0661 1021.2656,-95.9816 1025.4443,-94.8283"/>
<polygon fill="#191970" stroke="#191970" points="1026.423,-98.1888 1035.0588,-92.0509 1024.4803,-91.4638 1026.423,-98.1888"/>
</g>
<!-- Node21 -->
<g id="node22" class="node">
<title>Node21</title>
<polygon fill="none" stroke="#bfbfbf" points="1352.5,-73 1352.5,-92 1401.5,-92 1401.5,-73 1352.5,-73"/>
<text text-anchor="middle" x="1377" y="-80" font-family="Helvetica,sans-Serif" font-size="10.00" fill="#000000">iosfwd</text>
</g>
<!-- Node13&#45;&gt;Node21 -->
<g id="edge21" class="edge">
<title>Node13&#45;&gt;Node21</title>
<path fill="none" stroke="#191970" d="M790.5827,-135.0196C793.7645,-134.6608 796.9159,-134.3187 800,-134 1007.5097,-112.5591 1060.6239,-120.6967 1268,-98 1292.9827,-95.2657 1321.0564,-91.2513 1342.4556,-87.993"/>
<polygon fill="#191970" stroke="#191970" points="1343.0316,-91.4457 1352.3818,-86.4632 1341.9653,-84.5274 1343.0316,-91.4457"/>
</g>
<!-- Node22&#45;&gt;Node4 -->
<g id="edge25" class="edge">
<title>Node22&#45;&gt;Node4</title>
<path fill="none" stroke="#191970" d="M908.5719,-471.1634C911.7581,-470.7414 914.9189,-470.3491 918,-470 1034.6379,-456.7859 1341.7244,-489.7957 1445,-434 1464.0897,-423.6866 1478.0502,-402.5913 1486.2938,-387.0134"/>
<polygon fill="#191970" stroke="#191970" points="1489.5835,-388.2569 1490.8819,-377.7419 1483.3096,-385.1522 1489.5835,-388.2569"/>
</g>
<!-- Node22&#45;&gt;Node5 -->
<g id="edge27" class="edge">
<title>Node22&#45;&gt;Node5</title>
<path fill="none" stroke="#191970" d="M801.4512,-473.5915C741.8958,-466.0212 643.0053,-452.13 559,-434 557.7517,-433.7306 556.4825,-433.4435 555.2029,-433.143"/>
<polygon fill="#191970" stroke="#191970" points="555.9215,-429.7145 545.3679,-430.6488 554.2007,-436.4997 555.9215,-429.7145"/>
</g>
<!-- Node22&#45;&gt;Node7 -->
<g id="edge29" class="edge">
<title>Node22&#45;&gt;Node7</title>
<path fill="none" stroke="#191970" d="M861.2059,-470.1646C870.6106,-455.9745 889.7524,-429.7392 912,-414 947.8447,-388.6414 968.8994,-404.379 1004,-378 1035.0248,-354.6841 1068.5556,-334.2727 1047,-302 1009.5726,-245.9641 935.0242,-220.6721 877.7549,-209.2805"/>
<polygon fill="#191970" stroke="#191970" points="878.113,-205.7864 867.6379,-207.3752 876.8174,-212.6655 878.113,-205.7864"/>
</g>
<!-- Node22&#45;&gt;Node8 -->
<g id="edge28" class="edge">
<title>Node22&#45;&gt;Node8</title>
<path fill="none" stroke="#191970" d="M908.5795,-471.2283C911.7638,-470.79 914.9221,-470.3763 918,-470 1010.5436,-458.6848 1263.9882,-493.2169 1336,-434 1359.5768,-414.6122 1355,-398.5246 1355,-368 1355,-368 1355,-368 1355,-256 1355,-190.2248 1265.7882,-161.161 1215.4915,-150.002"/>
<polygon fill="#191970" stroke="#191970" points="1216.198,-146.5741 1205.6922,-147.9444 1214.7595,-153.4247 1216.198,-146.5741"/>
</g>
<!-- Node22&#45;&gt;Node10 -->
<g id="edge58" class="edge">
<title>Node22&#45;&gt;Node10</title>
<path fill="none" stroke="#191970" d="M908.5777,-471.2133C911.7624,-470.7788 914.9213,-470.37 918,-470 1015.1836,-458.3192 1274.9445,-487.3665 1357,-434 1385.0104,-415.7829 1393,-401.4132 1393,-368 1393,-368 1393,-368 1393,-200 1393,-138.253 1321.604,-108.3949 1263.7037,-94.3332"/>
<polygon fill="#191970" stroke="#191970" points="1264.3378,-90.8876 1253.8068,-92.0482 1262.7631,-97.7082 1264.3378,-90.8876"/>
</g>
<!-- Node22&#45;&gt;Node13 -->
<g id="edge59" class="edge">
<title>Node22&#45;&gt;Node13</title>
<path fill="none" stroke="#191970" d="M801.3943,-473.8965C735.2122,-465.8099 626.8792,-450.6157 590,-434 541.7193,-412.2474 439.7503,-315.524 421,-266 405.0559,-223.8878 447.3511,-209.3732 488,-190 537.298,-166.5046 597.8795,-155.0097 645.1845,-149.386"/>
<polygon fill="#191970" stroke="#191970" points="645.827,-152.8359 655.3733,-148.2405 645.0449,-145.8797 645.827,-152.8359"/>
</g>
<!-- Node23 -->
<g id="node24" class="node">
<title>Node23</title>
<polygon fill="none" stroke="#bfbfbf" points="921,-414.5 921,-433.5 959,-433.5 959,-414.5 921,-414.5"/>
<text text-anchor="middle" x="940" y="-421.5" font-family="Helvetica,sans-Serif" font-size="10.00" fill="#000000">map</text>
</g>
<!-- Node22&#45;&gt;Node23 -->
<g id="edge24" class="edge">
<title>Node22&#45;&gt;Node23</title>
<path fill="none" stroke="#191970" d="M869.8059,-470.2455C882.7256,-461.7337 901.6931,-449.2375 916.6552,-439.3801"/>
<polygon fill="#191970" stroke="#191970" points="918.9387,-442.067 925.3638,-433.6427 915.0876,-436.2216 918.9387,-442.067"/>
</g>
<!-- Node24 -->
<g id="node25" class="node">
<title>Node24</title>
<polygon fill="none" stroke="#bfbfbf" points="977,-414.5 977,-433.5 1019,-433.5 1019,-414.5 977,-414.5"/>
<text text-anchor="middle" x="998" y="-421.5" font-family="Helvetica,sans-Serif" font-size="10.00" fill="#000000">array</text>
</g>
<!-- Node22&#45;&gt;Node24 -->
<g id="edge26" class="edge">
<title>Node22&#45;&gt;Node24</title>
<path fill="none" stroke="#191970" d="M879.5826,-470.3733C903.9409,-460.8343 941.3061,-446.2018 967.5344,-435.9306"/>
<polygon fill="#191970" stroke="#191970" points="968.9559,-439.1328 976.9911,-432.2273 966.4033,-432.6148 968.9559,-439.1328"/>
</g>
<!-- Node25 -->
<g id="node26" class="node">
<title>Node25</title>
<g id="a_node26"><a xlink:href="../../de/d41/PadPos_8h.html" target="_top" xlink:title="TPCBase/PadPos.h">
<polygon fill="none" stroke="#000000" points="932,-302.5 932,-321.5 1038,-321.5 1038,-302.5 932,-302.5"/>
<text text-anchor="middle" x="985" y="-309.5" font-family="Helvetica,sans-Serif" font-size="10.00" fill="#000000">TPCBase/PadPos.h</text>
</a>
</g>
</g>
<!-- Node22&#45;&gt;Node25 -->
<g id="edge30" class="edge">
<title>Node22&#45;&gt;Node25</title>
<path fill="none" stroke="#191970" d="M855.9373,-470.0562C857.8098,-455.7312 863.2948,-429.3293 879,-414 914.9061,-378.9531 956.7192,-418.7451 986,-378 995.5925,-364.6518 994.1216,-345.5417 990.9736,-331.317"/>
<polygon fill="#191970" stroke="#191970" points="994.3358,-330.3404 988.3949,-321.568 987.5685,-332.1305 994.3358,-330.3404"/>
</g>
<!-- Node26 -->
<g id="node27" class="node">
<title>Node26</title>
<g id="a_node27"><a xlink:href="../../dd/d0b/PadSecPos_8h.html" target="_top" xlink:title="TPCBase/PadSecPos.h">
<polygon fill="none" stroke="#000000" points="539.5,-358.5 539.5,-377.5 662.5,-377.5 662.5,-358.5 539.5,-358.5"/>
<text text-anchor="middle" x="601" y="-365.5" font-family="Helvetica,sans-Serif" font-size="10.00" fill="#000000">TPCBase/PadSecPos.h</text>
</a>
</g>
</g>
<!-- Node22&#45;&gt;Node26 -->
<g id="edge31" class="edge">
<title>Node22&#45;&gt;Node26</title>
<path fill="none" stroke="#191970" d="M801.4342,-474.5348C762.4471,-468.7775 709.4442,-457.1572 668,-434 646.3144,-421.8831 626.7405,-400.8577 614.4274,-385.792"/>
<polygon fill="#191970" stroke="#191970" points="616.9997,-383.4019 608.0556,-377.7226 611.5059,-387.7399 616.9997,-383.4019"/>
</g>
<!-- Node22&#45;&gt;Node27 -->
<g id="edge57" class="edge">
<title>Node22&#45;&gt;Node27</title>
<path fill="none" stroke="#191970" d="M801.2766,-472.7409C756.6739,-465.743 692.0266,-453.3316 638,-434 625.273,-429.4461 537.0217,-389.5504 530,-378 509.0111,-343.4742 539.9374,-297.9742 560.7282,-273.456"/>
<polygon fill="#191970" stroke="#191970" points="563.569,-275.5263 567.5577,-265.711 558.3186,-270.8966 563.569,-275.5263"/>
</g>
<!-- Node29 -->
<g id="node30" class="node">
<title>Node29</title>
<g id="a_node30"><a xlink:href="../../da/d61/PadROCPos_8h.html" target="_top" xlink:title="TPCBase/PadROCPos.h">
<polygon fill="none" stroke="#000000" points="829.5,-358.5 829.5,-377.5 956.5,-377.5 956.5,-358.5 829.5,-358.5"/>
<text text-anchor="middle" x="893" y="-365.5" font-family="Helvetica,sans-Serif" font-size="10.00" fill="#000000">TPCBase/PadROCPos.h</text>
</a>
</g>
</g>
<!-- Node22&#45;&gt;Node29 -->
<g id="edge36" class="edge">
<title>Node22&#45;&gt;Node29</title>
<path fill="none" stroke="#191970" d="M849.2722,-470.199C842.3249,-456.9428 832.5323,-432.7961 841,-414 846.5697,-401.6369 857.2863,-391.2563 867.5506,-383.5033"/>
<polygon fill="#191970" stroke="#191970" points="869.7618,-386.2277 875.9433,-377.623 865.7451,-380.4948 869.7618,-386.2277"/>
</g>
<!-- Node31 -->
<g id="node32" class="node">
<title>Node31</title>
<g id="a_node32"><a xlink:href="../../d3/d54/DigitPos_8h.html" target="_top" xlink:title="TPCBase/DigitPos.h">
<polygon fill="none" stroke="#000000" points="677,-414.5 677,-433.5 789,-433.5 789,-414.5 677,-414.5"/>
<text text-anchor="middle" x="733" y="-421.5" font-family="Helvetica,sans-Serif" font-size="10.00" fill="#000000">TPCBase/DigitPos.h</text>
</a>
</g>
</g>
<!-- Node22&#45;&gt;Node31 -->
<g id="edge42" class="edge">
<title>Node22&#45;&gt;Node31</title>
<path fill="none" stroke="#191970" d="M834.0275,-470.3733C814.4433,-461.3838 785.0039,-447.8706 762.949,-437.7471"/>
<polygon fill="#191970" stroke="#191970" points="764.2473,-434.4919 753.6989,-433.5011 761.3271,-440.8538 764.2473,-434.4919"/>
</g>
<!-- Node33 -->
<g id="node34" class="node">
<title>Node33</title>
<g id="a_node34"><a xlink:href="../../d1/d1f/FECInfo_8h.html" target="_top" xlink:title="TPCBase/FECInfo.h">
<polygon fill="none" stroke="#000000" points="1421,-246.5 1421,-265.5 1529,-265.5 1529,-246.5 1421,-246.5"/>
<text text-anchor="middle" x="1475" y="-253.5" font-family="Helvetica,sans-Serif" font-size="10.00" fill="#000000">TPCBase/FECInfo.h</text>
</a>
</g>
</g>
<!-- Node22&#45;&gt;Node33 -->
<g id="edge50" class="edge">
<title>Node22&#45;&gt;Node33</title>
<path fill="none" stroke="#191970" d="M908.5741,-471.1827C911.7597,-470.7559 914.9198,-470.3572 918,-470 972.1177,-463.7241 1363.2913,-466.5217 1407,-434 1458.2312,-395.8812 1470.8648,-314.0443 1473.9803,-276.0914"/>
<polygon fill="#191970" stroke="#191970" points="1477.4922,-276.0318 1474.6738,-265.8188 1470.5081,-275.5603 1477.4922,-276.0318"/>
</g>
<!-- Node34 -->
<g id="node35" class="node">
<title>Node34</title>
<g id="a_node35"><a xlink:href="../../da/d9d/PadRegionInfo_8h.html" target="_top" xlink:title="TPCBase/PadRegionInfo.h">
<polygon fill="none" stroke="#000000" points="1187,-414.5 1187,-433.5 1327,-433.5 1327,-414.5 1187,-414.5"/>
<text text-anchor="middle" x="1257" y="-421.5" font-family="Helvetica,sans-Serif" font-size="10.00" fill="#000000">TPCBase/PadRegionInfo.h</text>
</a>
</g>
</g>
<!-- Node22&#45;&gt;Node34 -->
<g id="edge52" class="edge">
<title>Node22&#45;&gt;Node34</title>
<path fill="none" stroke="#191970" d="M908.6037,-471.4073C911.7818,-470.924 914.9322,-470.4516 918,-470 1006.3082,-457.0017 1107.7628,-443.4118 1176.495,-434.4045"/>
<polygon fill="#191970" stroke="#191970" points="1177.3538,-437.822 1186.8152,-433.0542 1176.4456,-430.8812 1177.3538,-437.822"/>
</g>
<!-- Node35 -->
<g id="node36" class="node">
<title>Node35</title>
<g id="a_node36"><a xlink:href="../../d6/d42/PartitionInfo_8h.html" target="_top" xlink:title="TPCBase/PartitionInfo.h">
<polygon fill="none" stroke="#000000" points="1037.5,-414.5 1037.5,-433.5 1168.5,-433.5 1168.5,-414.5 1037.5,-414.5"/>
<text text-anchor="middle" x="1103" y="-421.5" font-family="Helvetica,sans-Serif" font-size="10.00" fill="#000000">TPCBase/PartitionInfo.h</text>
</a>
</g>
</g>
<!-- Node22&#45;&gt;Node35 -->
<g id="edge56" class="edge">
<title>Node22&#45;&gt;Node35</title>
<path fill="none" stroke="#191970" d="M897.3509,-470.4369C939.7942,-460.8529 1005.2119,-446.0812 1050.8313,-435.78"/>
<polygon fill="#191970" stroke="#191970" points="1051.8403,-439.1404 1060.8237,-433.5237 1050.2984,-432.3123 1051.8403,-439.1404"/>
</g>
<!-- Node26&#45;&gt;Node25 -->
<g id="edge35" class="edge">
<title>Node26&#45;&gt;Node25</title>
<path fill="none" stroke="#191970" d="M662.6962,-359.0026C733.7238,-348.6445 849.7976,-331.717 921.5548,-321.2524"/>
<polygon fill="#191970" stroke="#191970" points="922.4195,-324.6634 931.8097,-319.7569 921.4093,-317.7367 922.4195,-324.6634"/>
</g>
<!-- Node26&#45;&gt;Node27 -->
<g id="edge32" class="edge">
<title>Node26&#45;&gt;Node27</title>
<path fill="none" stroke="#191970" d="M598.9538,-358.4509C595.0217,-340.1013 586.3409,-299.5908 581.1506,-275.3693"/>
<polygon fill="#191970" stroke="#191970" points="584.5587,-274.5695 579.041,-265.5249 577.7141,-276.0363 584.5587,-274.5695"/>
</g>
<!-- Node27&#45;&gt;Node7 -->
<g id="edge34" class="edge">
<title>Node27&#45;&gt;Node7</title>
<path fill="none" stroke="#191970" d="M615.2525,-246.4369C653.3467,-236.9133 711.9313,-222.2672 753.0987,-211.9753"/>
<polygon fill="#191970" stroke="#191970" points="754.0528,-215.3446 762.9053,-209.5237 752.355,-208.5536 754.0528,-215.3446"/>
</g>
<!-- Node28 -->
<g id="node29" class="node">
<title>Node28</title>
<g id="a_node29"><a xlink:href="../../d0/dda/DataFormats_2Detectors_2TPC_2include_2DataFormatsTPC_2Constants_8h.html" target="_top" xlink:title="DataFormatsTPC/Constants.h">
<polygon fill="none" stroke="#000000" points="497.5,-190.5 497.5,-209.5 656.5,-209.5 656.5,-190.5 497.5,-190.5"/>
<text text-anchor="middle" x="577" y="-197.5" font-family="Helvetica,sans-Serif" font-size="10.00" fill="#000000">DataFormatsTPC/Constants.h</text>
</a>
</g>
</g>
<!-- Node27&#45;&gt;Node28 -->
<g id="edge33" class="edge">
<title>Node27&#45;&gt;Node28</title>
<path fill="none" stroke="#191970" d="M577,-246.2455C577,-238.9382 577,-228.6944 577,-219.7046"/>
<polygon fill="#191970" stroke="#191970" points="580.5001,-219.6426 577,-209.6427 573.5001,-219.6427 580.5001,-219.6426"/>
</g>
<!-- Node29&#45;&gt;Node7 -->
<g id="edge37" class="edge">
<title>Node29&#45;&gt;Node7</title>
<path fill="none" stroke="#191970" d="M887.7901,-358.4862C873.0582,-331.5845 830.8997,-254.5994 811.2773,-218.7673"/>
<polygon fill="#191970" stroke="#191970" points="814.255,-216.9177 806.3819,-209.8279 808.1153,-220.28 814.255,-216.9177"/>
</g>
<!-- Node29&#45;&gt;Node25 -->
<g id="edge41" class="edge">
<title>Node29&#45;&gt;Node25</title>
<path fill="none" stroke="#191970" d="M909.0252,-358.2455C923.1408,-349.6534 943.9263,-337.0014 960.1899,-327.1018"/>
<polygon fill="#191970" stroke="#191970" points="962.4363,-329.8319 969.1585,-321.6427 958.7966,-323.8525 962.4363,-329.8319"/>
</g>
<!-- Node29&#45;&gt;Node30 -->
<g id="edge38" class="edge">
<title>Node29&#45;&gt;Node30</title>
<path fill="none" stroke="#191970" d="M857.9311,-358.3733C823.5685,-348.9404 771.0608,-334.5265 733.7149,-324.2747"/>
<polygon fill="#191970" stroke="#191970" points="734.181,-320.7732 723.6112,-321.5011 732.328,-327.5235 734.181,-320.7732"/>
</g>
<!-- Node30&#45;&gt;Node7 -->
<g id="edge39" class="edge">
<title>Node30&#45;&gt;Node7</title>
<path fill="none" stroke="#191970" d="M697.2318,-302.3C708.5143,-289.1582 729.5979,-265.1407 749,-246 759.4575,-235.6834 771.7435,-224.764 781.7469,-216.154"/>
<polygon fill="#191970" stroke="#191970" points="784.1809,-218.6783 789.5226,-209.5286 779.6409,-213.3502 784.1809,-218.6783"/>
</g>
<!-- Node30&#45;&gt;Node27 -->
<g id="edge40" class="edge">
<title>Node30&#45;&gt;Node27</title>
<path fill="none" stroke="#191970" d="M669.7465,-302.3733C651.9288,-293.4644 625.2253,-280.1127 605.0406,-270.0203"/>
<polygon fill="#191970" stroke="#191970" points="606.5118,-266.8428 596.0022,-265.5011 603.3813,-273.1038 606.5118,-266.8428"/>
</g>
<!-- Node31&#45;&gt;Node7 -->
<g id="edge43" class="edge">
<title>Node31&#45;&gt;Node7</title>
<path fill="none" stroke="#191970" d="M748.1631,-414.2677C759.5414,-406.0692 774.4119,-393.2522 782,-378 808.1182,-325.5021 806.0584,-253.7021 803.1684,-219.5665"/>
<polygon fill="#191970" stroke="#191970" points="806.6428,-219.1327 802.1959,-209.5163 799.6754,-219.8069 806.6428,-219.1327"/>
</g>
<!-- Node31&#45;&gt;Node25 -->
<g id="edge48" class="edge">
<title>Node31&#45;&gt;Node25</title>
<path fill="none" stroke="#191970" d="M789.2248,-419.4533C849.421,-413.4695 939.7057,-400.918 965,-378 977.8681,-366.3409 982.575,-346.7092 984.2377,-331.8804"/>
<polygon fill="#191970" stroke="#191970" points="987.7443,-331.9219 985.0006,-321.6885 980.7638,-331.3993 987.7443,-331.9219"/>
</g>
<!-- Node31&#45;&gt;Node26 -->
<g id="edge49" class="edge">
<title>Node31&#45;&gt;Node26</title>
<path fill="none" stroke="#191970" d="M710.3084,-414.3733C688.9289,-405.3032 656.6943,-391.6279 632.7638,-381.4755"/>
<polygon fill="#191970" stroke="#191970" points="633.9683,-378.1846 623.3955,-377.5011 631.2344,-384.6287 633.9683,-378.1846"/>
</g>
<!-- Node32 -->
<g id="node33" class="node">
<title>Node32</title>
<g id="a_node33"><a xlink:href="../../df/d26/CRU_8h.html" target="_top" xlink:title="TPCBase/CRU.h">
<polygon fill="none" stroke="#000000" points="681,-358.5 681,-377.5 773,-377.5 773,-358.5 681,-358.5"/>
<text text-anchor="middle" x="727" y="-365.5" font-family="Helvetica,sans-Serif" font-size="10.00" fill="#000000">TPCBase/CRU.h</text>
</a>
</g>
</g>
<!-- Node31&#45;&gt;Node32 -->
<g id="edge44" class="edge">
<title>Node31&#45;&gt;Node32</title>
<path fill="none" stroke="#191970" d="M731.9549,-414.2455C731.172,-406.9382 730.0744,-396.6944 729.1112,-387.7046"/>
<polygon fill="#191970" stroke="#191970" points="732.5786,-387.2129 728.0331,-377.6427 725.6185,-387.9587 732.5786,-387.2129"/>
</g>
<!-- Node32&#45;&gt;Node7 -->
<g id="edge45" class="edge">
<title>Node32&#45;&gt;Node7</title>
<path fill="none" stroke="#191970" d="M731.1906,-358.4862C742.9895,-331.6994 776.6608,-255.2565 792.5301,-219.2289"/>
<polygon fill="#191970" stroke="#191970" points="795.843,-220.3903 796.6711,-209.8279 789.4369,-217.5686 795.843,-220.3903"/>
</g>
<!-- Node32&#45;&gt;Node27 -->
<g id="edge46" class="edge">
<title>Node32&#45;&gt;Node27</title>
<path fill="none" stroke="#191970" d="M700.95,-358.409C681.3711,-350.4502 654.509,-337.8806 634,-322 616.3243,-308.3133 600.076,-288.4583 589.4889,-274.1039"/>
<polygon fill="#191970" stroke="#191970" points="592.0578,-271.6795 583.391,-265.5854 586.3658,-275.754 592.0578,-271.6795"/>
</g>
<!-- Node32&#45;&gt;Node30 -->
<g id="edge47" class="edge">
<title>Node32&#45;&gt;Node30</title>
<path fill="none" stroke="#191970" d="M720.3809,-358.2455C715.0954,-350.4564 707.5459,-339.3308 701.1762,-329.9439"/>
<polygon fill="#191970" stroke="#191970" points="704.0545,-327.9522 695.5432,-321.6427 698.2621,-331.8827 704.0545,-327.9522"/>
</g>
<!-- Node33&#45;&gt;Node21 -->
<g id="edge51" class="edge">
<title>Node33&#45;&gt;Node21</title>
<path fill="none" stroke="#191970" d="M1469.7709,-246.4742C1458.4496,-225.8826 1430.772,-175.7138 1407,-134 1400.7753,-123.0772 1393.7015,-110.9219 1387.9869,-101.1645"/>
<polygon fill="#191970" stroke="#191970" points="1390.8879,-99.1927 1382.807,-92.3408 1384.8512,-102.7365 1390.8879,-99.1927"/>
</g>
<!-- Node34&#45;&gt;Node4 -->
<g id="edge53" class="edge">
<title>Node34&#45;&gt;Node4</title>
<path fill="none" stroke="#191970" d="M1297.6432,-414.4369C1343.7604,-403.5858 1418.141,-386.0845 1461.2085,-375.9509"/>
<polygon fill="#191970" stroke="#191970" points="1462.257,-379.2999 1471.1896,-373.6025 1460.6537,-372.486 1462.257,-379.2999"/>
</g>
<!-- Node34&#45;&gt;Node7 -->
<g id="edge54" class="edge">
<title>Node34&#45;&gt;Node7</title>
<path fill="none" stroke="#191970" d="M1252.4009,-414.1724C1237.3918,-383.3202 1186.5376,-287.9575 1113,-246 1074.0298,-223.7652 957.0815,-211.1465 877.9707,-204.9444"/>
<polygon fill="#191970" stroke="#191970" points="877.7921,-201.4206 867.5542,-204.1476 877.2581,-208.4002 877.7921,-201.4206"/>
</g>
<!-- Node34&#45;&gt;Node25 -->
<g id="edge55" class="edge">
<title>Node34&#45;&gt;Node25</title>
<path fill="none" stroke="#191970" d="M1233.8094,-414.4509C1185.3317,-394.4895 1073.1647,-348.3031 1017.5179,-325.3897"/>
<polygon fill="#191970" stroke="#191970" points="1018.7113,-322.0961 1008.1319,-321.5249 1016.046,-328.5688 1018.7113,-322.0961"/>
</g>
<!-- Node36&#45;&gt;Node3 -->
<g id="edge64" class="edge">
<title>Node36&#45;&gt;Node3</title>
<path fill="none" stroke="#191970" d="M1092.3321,-529.619C1173.5646,-520.2721 1320.6811,-502.766 1390.5051,-490.0482"/>
<polygon fill="#191970" stroke="#191970" points="1391.4548,-493.4306 1400.6279,-488.1293 1390.151,-486.5531 1391.4548,-493.4306"/>
</g>
<!-- Node36&#45;&gt;Node4 -->
<g id="edge65" class="edge">
<title>Node36&#45;&gt;Node4</title>
<path fill="none" stroke="#191970" d="M1092.1121,-526.7712C1132.3478,-519.242 1187.441,-507.0514 1234,-490 1252.2915,-483.301 1254.5544,-476.2624 1273,-470 1357.2805,-441.3859 1401.6235,-490.9792 1470,-434 1483.6517,-422.6238 1489.8591,-402.9545 1492.6755,-388.0399"/>
<polygon fill="#191970" stroke="#191970" points="1496.1928,-388.1899 1494.2353,-377.7775 1489.2723,-387.138 1496.1928,-388.1899"/>
</g>
<!-- Node36&#45;&gt;Node5 -->
<g id="edge66" class="edge">
<title>Node36&#45;&gt;Node5</title>
<path fill="none" stroke="#191970" d="M981.0918,-526.4504C931.5368,-517.6414 856.7008,-503.8652 792,-490 687.8599,-467.6831 662.1031,-460.7012 559,-434 557.7284,-433.6707 556.4327,-433.3309 555.1247,-432.9844"/>
<polygon fill="#191970" stroke="#191970" points="555.619,-429.4922 545.0518,-430.2573 553.7896,-436.249 555.619,-429.4922"/>
</g>
<!-- Node36&#45;&gt;Node22 -->
<g id="edge69" class="edge">
<title>Node36&#45;&gt;Node22</title>
<path fill="none" stroke="#191970" d="M1004.885,-526.3733C974.6571,-517.021 928.604,-502.7725 895.5261,-492.5385"/>
<polygon fill="#191970" stroke="#191970" points="896.2967,-489.1133 885.709,-489.5011 894.2277,-495.8005 896.2967,-489.1133"/>
</g>
<!-- Node37 -->
<g id="node38" class="node">
<title>Node37</title>
<polygon fill="none" stroke="#bfbfbf" points="1181,-470.5 1181,-489.5 1225,-489.5 1225,-470.5 1181,-470.5"/>
<text text-anchor="middle" x="1203" y="-477.5" font-family="Helvetica,sans-Serif" font-size="10.00" fill="#000000">Vc/Vc</text>
</g>
<!-- Node36&#45;&gt;Node37 -->
<g id="edge63" class="edge">
<title>Node36&#45;&gt;Node37</title>
<path fill="none" stroke="#191970" d="M1064.7083,-526.3733C1094.2847,-516.4554 1140.2818,-501.0313 1171.0083,-490.7278"/>
<polygon fill="#191970" stroke="#191970" points="1172.429,-493.943 1180.7974,-487.4452 1170.2035,-487.3062 1172.429,-493.943"/>
</g>
<!-- Node38 -->
<g id="node39" class="node">
<title>Node38</title>
<polygon fill="none" stroke="#bfbfbf" points="927,-470.5 927,-489.5 983,-489.5 983,-470.5 927,-470.5"/>
<text text-anchor="middle" x="955" y="-477.5" font-family="Helvetica,sans-Serif" font-size="10.00" fill="#000000">numeric</text>
</g>
<!-- Node36&#45;&gt;Node38 -->
<g id="edge67" class="edge">
<title>Node36&#45;&gt;Node38</title>
<path fill="none" stroke="#191970" d="M1021.8909,-526.2455C1009.5791,-517.7337 991.5042,-505.2375 977.2462,-495.3801"/>
<polygon fill="#191970" stroke="#191970" points="979.1634,-492.4506 968.9474,-489.6427 975.1826,-498.2085 979.1634,-492.4506"/>
</g>
<!-- Node39 -->
<g id="node40" class="node">
<title>Node39</title>
<polygon fill="none" stroke="#bfbfbf" points="1001.5,-470.5 1001.5,-489.5 1070.5,-489.5 1070.5,-470.5 1001.5,-470.5"/>
<text text-anchor="middle" x="1036" y="-477.5" font-family="Helvetica,sans-Serif" font-size="10.00" fill="#000000">type_traits</text>
</g>
<!-- Node36&#45;&gt;Node39 -->
<g id="edge68" class="edge">
<title>Node36&#45;&gt;Node39</title>
<path fill="none" stroke="#191970" d="M1036,-526.2455C1036,-518.9382 1036,-508.6944 1036,-499.7046"/>
<polygon fill="#191970" stroke="#191970" points="1039.5001,-499.6426 1036,-489.6427 1032.5001,-499.6427 1039.5001,-499.6426"/>
</g>
<!-- Node40 -->
<g id="node41" class="node">
<title>Node40</title>
<polygon fill="none" stroke="#bfbfbf" points="1088.5,-470.5 1088.5,-489.5 1163.5,-489.5 1163.5,-470.5 1088.5,-470.5"/>
<text text-anchor="middle" x="1126" y="-477.5" font-family="Helvetica,sans-Serif" font-size="10.00" fill="#000000">FairLogger.h</text>
</g>
<!-- Node36&#45;&gt;Node40 -->
<g id="edge70" class="edge">
<title>Node36&#45;&gt;Node40</title>
<path fill="none" stroke="#191970" d="M1051.6768,-526.2455C1065.4856,-517.6534 1085.8193,-505.0014 1101.7292,-495.1018"/>
<polygon fill="#191970" stroke="#191970" points="1103.8613,-497.8974 1110.5028,-489.6427 1100.1632,-491.954 1103.8613,-497.8974"/>
</g>
<!-- Node36&#45;&gt;Node41 -->
<g id="edge71" class="edge">
<title>Node36&#45;&gt;Node41</title>
<path fill="none" stroke="#191970" d="M1086.5479,-526.4369C1137.8445,-516.7321 1217.2579,-501.708 1271.7818,-491.3926"/>
<polygon fill="#191970" stroke="#191970" points="1272.4855,-494.8217 1281.6606,-489.5237 1271.1842,-487.9437 1272.4855,-494.8217"/>
</g>
<!-- Node43 -->
<g id="node44" class="node">
<title>Node43</title>
<polygon fill="none" stroke="#bfbfbf" points="1477,-470.5 1477,-489.5 1585,-489.5 1585,-470.5 1477,-470.5"/>
<text text-anchor="middle" x="1531" y="-477.5" font-family="Helvetica,sans-Serif" font-size="10.00" fill="#000000">fairlogger/Logger.h</text>
</g>
<!-- Node42&#45;&gt;Node43 -->
<g id="edge73" class="edge">
<title>Node42&#45;&gt;Node43</title>
<path fill="none" stroke="#191970" d="M1505.3998,-526.2455C1509.6227,-518.617 1515.6173,-507.7881 1520.7441,-498.5267"/>
<polygon fill="#191970" stroke="#191970" points="1523.881,-500.0867 1525.6621,-489.6427 1517.7568,-496.6965 1523.881,-500.0867"/>
</g>
</g>
</svg>
