<?xml version="1.0" encoding="UTF-8" standalone="no"?>
<!DOCTYPE svg PUBLIC "-//W3C//DTD SVG 1.1//EN"
 "http://www.w3.org/Graphics/SVG/1.1/DTD/svg11.dtd">
<!-- Generated by graphviz version 2.40.1 (20161225.0304)
 -->
<!-- Title: /home/travis/build/AliceO2Group/AliceO2/DataFormats/common/include/CommonDataFormat/EvIndex.h Pages: 1 -->
<svg width="3104pt" height="461pt"
 viewBox="0.00 0.00 3104.00 461.00" xmlns="http://www.w3.org/2000/svg" xmlns:xlink="http://www.w3.org/1999/xlink">
<g id="graph0" class="graph" transform="scale(1 1) rotate(0) translate(4 457)">
<title>/home/travis/build/AliceO2Group/AliceO2/DataFormats/common/include/CommonDataFormat/EvIndex.h</title>
<!-- Node2 -->
<g id="node1" class="node">
<title>Node2</title>
<polygon fill="#bfbfbf" stroke="#000000" points="1727,-400.5 1727,-452.5 1900,-452.5 1900,-400.5 1727,-400.5"/>
<text text-anchor="start" x="1735" y="-440.5" font-family="Helvetica,sans-Serif" font-size="10.00" fill="#000000">/home/travis/build</text>
<text text-anchor="start" x="1735" y="-429.5" font-family="Helvetica,sans-Serif" font-size="10.00" fill="#000000">/AliceO2Group/AliceO2</text>
<text text-anchor="start" x="1735" y="-418.5" font-family="Helvetica,sans-Serif" font-size="10.00" fill="#000000">/DataFormats/common/include</text>
<text text-anchor="middle" x="1813.5" y="-407.5" font-family="Helvetica,sans-Serif" font-size="10.00" fill="#000000">/CommonDataFormat/EvIndex.h</text>
</g>
<!-- Node3 -->
<g id="node2" class="node">
<title>Node3</title>
<g id="a_node2"><a xlink:href="../../d4/d70/MatchInfoTOF_8h.html" target="_top" xlink:title="Class to store the output of the matching to TOF. ">
<polygon fill="none" stroke="#000000" points="1592,-300.5 1592,-363.5 1785,-363.5 1785,-300.5 1592,-300.5"/>
<text text-anchor="start" x="1600" y="-351.5" font-family="Helvetica,sans-Serif" font-size="10.00" fill="#000000">/home/travis/build</text>
<text text-anchor="start" x="1600" y="-340.5" font-family="Helvetica,sans-Serif" font-size="10.00" fill="#000000">/AliceO2Group/AliceO2</text>
<text text-anchor="start" x="1600" y="-329.5" font-family="Helvetica,sans-Serif" font-size="10.00" fill="#000000">/DataFormats/Reconstruction</text>
<text text-anchor="start" x="1600" y="-318.5" font-family="Helvetica,sans-Serif" font-size="10.00" fill="#000000">/include/ReconstructionDataFormats</text>
<text text-anchor="middle" x="1688.5" y="-307.5" font-family="Helvetica,sans-Serif" font-size="10.00" fill="#000000">/MatchInfoTOF.h</text>
</a>
</g>
</g>
<!-- Node2&#45;&gt;Node3 -->
<g id="edge1" class="edge">
<title>Node2&#45;&gt;Node3</title>
<path fill="none" stroke="#191970" d="M1770.6729,-394.1227C1757.6638,-384.2878 1743.3883,-373.4956 1730.4383,-363.7054"/>
<polygon fill="#191970" stroke="#191970" points="1768.9246,-397.1886 1779.0123,-400.4273 1773.146,-391.6047 1768.9246,-397.1886"/>
</g>
<!-- Node5 -->
<g id="node4" class="node">
<title>Node5</title>
<g id="a_node4"><a xlink:href="../../d0/d74/MatchTOF_8h.html" target="_top" xlink:title="Class to perform TOF matching to global tracks. ">
<polygon fill="none" stroke="#000000" points="809.5,-206 809.5,-258 997.5,-258 997.5,-206 809.5,-206"/>
<text text-anchor="start" x="817.5" y="-246" font-family="Helvetica,sans-Serif" font-size="10.00" fill="#000000">/home/travis/build</text>
<text text-anchor="start" x="817.5" y="-235" font-family="Helvetica,sans-Serif" font-size="10.00" fill="#000000">/AliceO2Group/AliceO2</text>
<text text-anchor="start" x="817.5" y="-224" font-family="Helvetica,sans-Serif" font-size="10.00" fill="#000000">/Detectors/GlobalTracking</text>
<text text-anchor="middle" x="903.5" y="-213" font-family="Helvetica,sans-Serif" font-size="10.00" fill="#000000">/include/GlobalTracking/MatchTOF.h</text>
</a>
</g>
</g>
<!-- Node2&#45;&gt;Node5 -->
<g id="edge29" class="edge">
<title>Node2&#45;&gt;Node5</title>
<path fill="none" stroke="#191970" d="M1716.6428,-405.7981C1540.8717,-368.2294 1171.5131,-289.2841 997.708,-252.1357"/>
<polygon fill="#191970" stroke="#191970" points="1716.1469,-409.2711 1726.6576,-407.9386 1717.61,-402.4257 1716.1469,-409.2711"/>
</g>
<!-- Node20 -->
<g id="node19" class="node">
<title>Node20</title>
<g id="a_node19"><a xlink:href="../../d3/d0c/TrackInterpolation_8h.html" target="_top" xlink:title="Definition of the TrackInterpolation class. ">
<polygon fill="none" stroke="#000000" points="2517,-200.5 2517,-263.5 2696,-263.5 2696,-200.5 2517,-200.5"/>
<text text-anchor="start" x="2525" y="-251.5" font-family="Helvetica,sans-Serif" font-size="10.00" fill="#000000">/home/travis/build</text>
<text text-anchor="start" x="2525" y="-240.5" font-family="Helvetica,sans-Serif" font-size="10.00" fill="#000000">/AliceO2Group/AliceO2</text>
<text text-anchor="start" x="2525" y="-229.5" font-family="Helvetica,sans-Serif" font-size="10.00" fill="#000000">/Detectors/TPC/calibration</text>
<text text-anchor="start" x="2525" y="-218.5" font-family="Helvetica,sans-Serif" font-size="10.00" fill="#000000">/SpacePoints/include/SpacePoints</text>
<text text-anchor="middle" x="2606.5" y="-207.5" font-family="Helvetica,sans-Serif" font-size="10.00" fill="#000000">/TrackInterpolation.h</text>
</a>
</g>
</g>
<!-- Node2&#45;&gt;Node20 -->
<g id="edge37" class="edge">
<title>Node2&#45;&gt;Node20</title>
<path fill="none" stroke="#191970" d="M1807.8351,-390.1828C1805.5987,-361.314 1808.0519,-322.2114 1832.5,-300 1888.0904,-249.4955 2433.6469,-277.6648 2507.5,-264 2510.6083,-263.4249 2513.7542,-262.7789 2516.9182,-262.0743"/>
<polygon fill="#191970" stroke="#191970" points="1804.3691,-390.6998 1808.8392,-400.3055 1811.3349,-390.0088 1804.3691,-390.6998"/>
</g>
<!-- Node27 -->
<g id="node26" class="node">
<title>Node27</title>
<g id="a_node26"><a xlink:href="../../d3/dac/MatchTPCITS_8h.html" target="_top" xlink:title="Class to perform TPC ITS matching. ">
<polygon fill="none" stroke="#000000" points="538,-306 538,-358 743,-358 743,-306 538,-306"/>
<text text-anchor="start" x="546" y="-346" font-family="Helvetica,sans-Serif" font-size="10.00" fill="#000000">/home/travis/build</text>
<text text-anchor="start" x="546" y="-335" font-family="Helvetica,sans-Serif" font-size="10.00" fill="#000000">/AliceO2Group/AliceO2</text>
<text text-anchor="start" x="546" y="-324" font-family="Helvetica,sans-Serif" font-size="10.00" fill="#000000">/Detectors/GlobalTracking</text>
<text text-anchor="middle" x="640.5" y="-313" font-family="Helvetica,sans-Serif" font-size="10.00" fill="#000000">/include/GlobalTracking/MatchTPCITS.h</text>
</a>
</g>
</g>
<!-- Node2&#45;&gt;Node27 -->
<g id="edge30" class="edge">
<title>Node2&#45;&gt;Node27</title>
<path fill="none" stroke="#191970" d="M1716.5918,-418.6928C1497.8483,-401.0703 967.452,-358.3401 743.2635,-340.2789"/>
<polygon fill="#191970" stroke="#191970" points="1716.5214,-422.1984 1726.7701,-419.5128 1717.0835,-415.221 1716.5214,-422.1984"/>
</g>
<!-- Node32 -->
<g id="node31" class="node">
<title>Node32</title>
<g id="a_node31"><a xlink:href="../../da/dfe/CPVDigitizerSpec_8cxx.html" target="_top" xlink:title="/home/travis/build\l/AliceO2Group/AliceO2\l/Steer/DigitizerWorkflow\l/src/CPVDigitizerSpec.cxx">
<polygon fill="none" stroke="#000000" points="1842,-306 1842,-358 1983,-358 1983,-306 1842,-306"/>
<text text-anchor="start" x="1850" y="-346" font-family="Helvetica,sans-Serif" font-size="10.00" fill="#000000">/home/travis/build</text>
<text text-anchor="start" x="1850" y="-335" font-family="Helvetica,sans-Serif" font-size="10.00" fill="#000000">/AliceO2Group/AliceO2</text>
<text text-anchor="start" x="1850" y="-324" font-family="Helvetica,sans-Serif" font-size="10.00" fill="#000000">/Steer/DigitizerWorkflow</text>
<text text-anchor="middle" x="1912.5" y="-313" font-family="Helvetica,sans-Serif" font-size="10.00" fill="#000000">/src/CPVDigitizerSpec.cxx</text>
</a>
</g>
</g>
<!-- Node2&#45;&gt;Node32 -->
<g id="edge38" class="edge">
<title>Node2&#45;&gt;Node32</title>
<path fill="none" stroke="#191970" d="M1848.1225,-393.4512C1860.176,-381.9457 1873.5269,-369.2016 1884.9312,-358.3157"/>
<polygon fill="#191970" stroke="#191970" points="1845.6312,-390.9908 1840.8143,-400.4273 1850.4645,-396.0543 1845.6312,-390.9908"/>
</g>
<!-- Node33 -->
<g id="node32" class="node">
<title>Node33</title>
<g id="a_node32"><a xlink:href="../../d5/d9b/EMCALDigitizerSpec_8cxx.html" target="_top" xlink:title="/home/travis/build\l/AliceO2Group/AliceO2\l/Steer/DigitizerWorkflow\l/src/EMCALDigitizerSpec.cxx">
<polygon fill="none" stroke="#000000" points="2001,-306 2001,-358 2156,-358 2156,-306 2001,-306"/>
<text text-anchor="start" x="2009" y="-346" font-family="Helvetica,sans-Serif" font-size="10.00" fill="#000000">/home/travis/build</text>
<text text-anchor="start" x="2009" y="-335" font-family="Helvetica,sans-Serif" font-size="10.00" fill="#000000">/AliceO2Group/AliceO2</text>
<text text-anchor="start" x="2009" y="-324" font-family="Helvetica,sans-Serif" font-size="10.00" fill="#000000">/Steer/DigitizerWorkflow</text>
<text text-anchor="middle" x="2078.5" y="-313" font-family="Helvetica,sans-Serif" font-size="10.00" fill="#000000">/src/EMCALDigitizerSpec.cxx</text>
</a>
</g>
</g>
<!-- Node2&#45;&gt;Node33 -->
<g id="edge39" class="edge">
<title>Node2&#45;&gt;Node33</title>
<path fill="none" stroke="#191970" d="M1897.9727,-397.1264C1927.5841,-386.7537 1961.0461,-374.9466 1991.5,-364 1996.8007,-362.0947 2002.2782,-360.1122 2007.785,-358.1093"/>
<polygon fill="#191970" stroke="#191970" points="1896.785,-393.8338 1888.5026,-400.4408 1899.0974,-400.4408 1896.785,-393.8338"/>
</g>
<!-- Node34 -->
<g id="node33" class="node">
<title>Node34</title>
<g id="a_node33"><a xlink:href="../../db/d77/PHOSDigitizerSpec_8cxx.html" target="_top" xlink:title="/home/travis/build\l/AliceO2Group/AliceO2\l/Steer/DigitizerWorkflow\l/src/PHOSDigitizerSpec.cxx">
<polygon fill="none" stroke="#000000" points="2174,-306 2174,-358 2323,-358 2323,-306 2174,-306"/>
<text text-anchor="start" x="2182" y="-346" font-family="Helvetica,sans-Serif" font-size="10.00" fill="#000000">/home/travis/build</text>
<text text-anchor="start" x="2182" y="-335" font-family="Helvetica,sans-Serif" font-size="10.00" fill="#000000">/AliceO2Group/AliceO2</text>
<text text-anchor="start" x="2182" y="-324" font-family="Helvetica,sans-Serif" font-size="10.00" fill="#000000">/Steer/DigitizerWorkflow</text>
<text text-anchor="middle" x="2248.5" y="-313" font-family="Helvetica,sans-Serif" font-size="10.00" fill="#000000">/src/PHOSDigitizerSpec.cxx</text>
</a>
</g>
</g>
<!-- Node2&#45;&gt;Node34 -->
<g id="edge40" class="edge">
<title>Node2&#45;&gt;Node34</title>
<path fill="none" stroke="#191970" d="M1910.6231,-414.2088C1981.7047,-404.0085 2080.0692,-387.3758 2164.5,-364 2170.8168,-362.2511 2177.3218,-360.2148 2183.7834,-358.0323"/>
<polygon fill="#191970" stroke="#191970" points="1909.7481,-410.7978 1900.3386,-415.6672 1910.7309,-417.7285 1909.7481,-410.7978"/>
</g>
<!-- Node4 -->
<g id="node3" class="node">
<title>Node4</title>
<g id="a_node3"><a xlink:href="../../d1/d4c/MatchInfoTOF_8cxx.html" target="_top" xlink:title="Class to store the output of the matching to TOF. ">
<polygon fill="none" stroke="#000000" points="2340.5,-206 2340.5,-258 2498.5,-258 2498.5,-206 2340.5,-206"/>
<text text-anchor="start" x="2348.5" y="-246" font-family="Helvetica,sans-Serif" font-size="10.00" fill="#000000">/home/travis/build</text>
<text text-anchor="start" x="2348.5" y="-235" font-family="Helvetica,sans-Serif" font-size="10.00" fill="#000000">/AliceO2Group/AliceO2</text>
<text text-anchor="start" x="2348.5" y="-224" font-family="Helvetica,sans-Serif" font-size="10.00" fill="#000000">/DataFormats/Reconstruction</text>
<text text-anchor="middle" x="2419.5" y="-213" font-family="Helvetica,sans-Serif" font-size="10.00" fill="#000000">/src/MatchInfoTOF.cxx</text>
</a>
</g>
</g>
<!-- Node3&#45;&gt;Node4 -->
<g id="edge2" class="edge">
<title>Node3&#45;&gt;Node4</title>
<path fill="none" stroke="#191970" d="M1795.0321,-300.8174C1796.5287,-300.5334 1798.0186,-300.2606 1799.5,-300 2032.9017,-258.9439 2099.6311,-312.9773 2331.5,-264 2338.9756,-262.4209 2346.6725,-260.3431 2354.2573,-258.0028"/>
<polygon fill="#191970" stroke="#191970" points="1794.1761,-297.4198 1785.076,-302.8456 1795.5734,-304.2789 1794.1761,-297.4198"/>
</g>
<!-- Node3&#45;&gt;Node5 -->
<g id="edge3" class="edge">
<title>Node3&#45;&gt;Node5</title>
<path fill="none" stroke="#191970" d="M1581.8788,-318.4177C1427.6259,-298.7676 1144.6431,-262.7189 997.6791,-243.9973"/>
<polygon fill="#191970" stroke="#191970" points="1581.4881,-321.8961 1591.8502,-319.6879 1582.3727,-314.9522 1581.4881,-321.8961"/>
</g>
<!-- Node9 -->
<g id="node8" class="node">
<title>Node9</title>
<g id="a_node8"><a xlink:href="../../df/d12/RecoWorkflowSpec_8h.html" target="_top" xlink:title="/home/travis/build\l/AliceO2Group/AliceO2\l/Detectors/GlobalTrackingWorkflow\l/tofworkflow/include/TOFWorkflow\l/RecoWorkflowSpec.h">
<polygon fill="none" stroke="#000000" points="1209,-200.5 1209,-263.5 1396,-263.5 1396,-200.5 1209,-200.5"/>
<text text-anchor="start" x="1217" y="-251.5" font-family="Helvetica,sans-Serif" font-size="10.00" fill="#000000">/home/travis/build</text>
<text text-anchor="start" x="1217" y="-240.5" font-family="Helvetica,sans-Serif" font-size="10.00" fill="#000000">/AliceO2Group/AliceO2</text>
<text text-anchor="start" x="1217" y="-229.5" font-family="Helvetica,sans-Serif" font-size="10.00" fill="#000000">/Detectors/GlobalTrackingWorkflow</text>
<text text-anchor="start" x="1217" y="-218.5" font-family="Helvetica,sans-Serif" font-size="10.00" fill="#000000">/tofworkflow/include/TOFWorkflow</text>
<text text-anchor="middle" x="1302.5" y="-207.5" font-family="Helvetica,sans-Serif" font-size="10.00" fill="#000000">/RecoWorkflowSpec.h</text>
</a>
</g>
</g>
<!-- Node3&#45;&gt;Node9 -->
<g id="edge7" class="edge">
<title>Node3&#45;&gt;Node9</title>
<path fill="none" stroke="#191970" d="M1581.9478,-308.322C1528.4655,-295.9726 1462.8122,-280.1074 1404.5,-264 1401.7271,-263.2341 1398.9161,-262.4436 1396.0818,-261.6343"/>
<polygon fill="#191970" stroke="#191970" points="1581.2577,-311.7546 1591.7879,-310.5863 1582.8275,-304.9329 1581.2577,-311.7546"/>
</g>
<!-- Node13 -->
<g id="node12" class="node">
<title>Node13</title>
<g id="a_node12"><a xlink:href="../../d2/d8a/RecoWorkflowWithTPCSpec_8h.html" target="_top" xlink:title="/home/travis/build\l/AliceO2Group/AliceO2\l/Detectors/GlobalTrackingWorkflow\l/tofworkflow/include/TOFWorkflow\l/RecoWorkflowWithTPCSpec.h">
<polygon fill="none" stroke="#000000" points="1414,-200.5 1414,-263.5 1601,-263.5 1601,-200.5 1414,-200.5"/>
<text text-anchor="start" x="1422" y="-251.5" font-family="Helvetica,sans-Serif" font-size="10.00" fill="#000000">/home/travis/build</text>
<text text-anchor="start" x="1422" y="-240.5" font-family="Helvetica,sans-Serif" font-size="10.00" fill="#000000">/AliceO2Group/AliceO2</text>
<text text-anchor="start" x="1422" y="-229.5" font-family="Helvetica,sans-Serif" font-size="10.00" fill="#000000">/Detectors/GlobalTrackingWorkflow</text>
<text text-anchor="start" x="1422" y="-218.5" font-family="Helvetica,sans-Serif" font-size="10.00" fill="#000000">/tofworkflow/include/TOFWorkflow</text>
<text text-anchor="middle" x="1507.5" y="-207.5" font-family="Helvetica,sans-Serif" font-size="10.00" fill="#000000">/RecoWorkflowWithTPCSpec.h</text>
</a>
</g>
</g>
<!-- Node3&#45;&gt;Node13 -->
<g id="edge12" class="edge">
<title>Node3&#45;&gt;Node13</title>
<path fill="none" stroke="#191970" d="M1622.3778,-295.4684C1603.4715,-285.0229 1583.0315,-273.7301 1564.7074,-263.6063"/>
<polygon fill="#191970" stroke="#191970" points="1620.7849,-298.587 1631.2305,-300.3594 1624.1701,-292.4599 1620.7849,-298.587"/>
</g>
<!-- Node15 -->
<g id="node14" class="node">
<title>Node15</title>
<g id="a_node14"><a xlink:href="../../d9/df4/TOFMatchedReaderSpec_8h.html" target="_top" xlink:title="/home/travis/build\l/AliceO2Group/AliceO2\l/Detectors/GlobalTrackingWorkflow\l/tofworkflow/include/TOFWorkflow\l/TOFMatchedReaderSpec.h">
<polygon fill="none" stroke="#000000" points="1656,-200.5 1656,-263.5 1843,-263.5 1843,-200.5 1656,-200.5"/>
<text text-anchor="start" x="1664" y="-251.5" font-family="Helvetica,sans-Serif" font-size="10.00" fill="#000000">/home/travis/build</text>
<text text-anchor="start" x="1664" y="-240.5" font-family="Helvetica,sans-Serif" font-size="10.00" fill="#000000">/AliceO2Group/AliceO2</text>
<text text-anchor="start" x="1664" y="-229.5" font-family="Helvetica,sans-Serif" font-size="10.00" fill="#000000">/Detectors/GlobalTrackingWorkflow</text>
<text text-anchor="start" x="1664" y="-218.5" font-family="Helvetica,sans-Serif" font-size="10.00" fill="#000000">/tofworkflow/include/TOFWorkflow</text>
<text text-anchor="middle" x="1749.5" y="-207.5" font-family="Helvetica,sans-Serif" font-size="10.00" fill="#000000">/TOFMatchedReaderSpec.h</text>
</a>
</g>
</g>
<!-- Node3&#45;&gt;Node15 -->
<g id="edge15" class="edge">
<title>Node3&#45;&gt;Node15</title>
<path fill="none" stroke="#191970" d="M1713.1139,-291.6493C1718.7733,-282.3716 1724.7138,-272.6331 1730.1154,-263.778"/>
<polygon fill="#191970" stroke="#191970" points="1710.0205,-289.9997 1707.8008,-300.3594 1715.9964,-293.645 1710.0205,-289.9997"/>
</g>
<!-- Node16 -->
<g id="node15" class="node">
<title>Node16</title>
<g id="a_node15"><a xlink:href="../../df/d18/TOFMatchedReaderSpec_8cxx.html" target="_top" xlink:title="/home/travis/build\l/AliceO2Group/AliceO2\l/Detectors/GlobalTrackingWorkflow\l/tofworkflow/src/TOFMatchedReaderSpec.cxx">
<polygon fill="none" stroke="#000000" points="1909,-106 1909,-158 2144,-158 2144,-106 1909,-106"/>
<text text-anchor="start" x="1917" y="-146" font-family="Helvetica,sans-Serif" font-size="10.00" fill="#000000">/home/travis/build</text>
<text text-anchor="start" x="1917" y="-135" font-family="Helvetica,sans-Serif" font-size="10.00" fill="#000000">/AliceO2Group/AliceO2</text>
<text text-anchor="start" x="1917" y="-124" font-family="Helvetica,sans-Serif" font-size="10.00" fill="#000000">/Detectors/GlobalTrackingWorkflow</text>
<text text-anchor="middle" x="2026.5" y="-113" font-family="Helvetica,sans-Serif" font-size="10.00" fill="#000000">/tofworkflow/src/TOFMatchedReaderSpec.cxx</text>
</a>
</g>
</g>
<!-- Node3&#45;&gt;Node16 -->
<g id="edge19" class="edge">
<title>Node3&#45;&gt;Node16</title>
<path fill="none" stroke="#191970" d="M1657.3772,-291.7514C1639.3542,-263.252 1624.2167,-225.6784 1646.5,-200 1683.7198,-157.1092 1843.7777,-174.9529 1899.5,-164 1908.5359,-162.2239 1917.8913,-160.2089 1927.2391,-158.0749"/>
<polygon fill="#191970" stroke="#191970" points="1654.586,-293.8757 1663.025,-300.2815 1660.4227,-290.0112 1654.586,-293.8757"/>
</g>
<!-- Node18 -->
<g id="node17" class="node">
<title>Node18</title>
<g id="a_node17"><a xlink:href="../../dc/d9f/TOFCalibWriterSpec_8cxx.html" target="_top" xlink:title="/home/travis/build\l/AliceO2Group/AliceO2\l/Detectors/GlobalTrackingWorkflow\l/tofworkflow/src/TOFCalibWriterSpec.cxx">
<polygon fill="none" stroke="#000000" points="1860.5,-206 1860.5,-258 2074.5,-258 2074.5,-206 1860.5,-206"/>
<text text-anchor="start" x="1868.5" y="-246" font-family="Helvetica,sans-Serif" font-size="10.00" fill="#000000">/home/travis/build</text>
<text text-anchor="start" x="1868.5" y="-235" font-family="Helvetica,sans-Serif" font-size="10.00" fill="#000000">/AliceO2Group/AliceO2</text>
<text text-anchor="start" x="1868.5" y="-224" font-family="Helvetica,sans-Serif" font-size="10.00" fill="#000000">/Detectors/GlobalTrackingWorkflow</text>
<text text-anchor="middle" x="1967.5" y="-213" font-family="Helvetica,sans-Serif" font-size="10.00" fill="#000000">/tofworkflow/src/TOFCalibWriterSpec.cxx</text>
</a>
</g>
</g>
<!-- Node3&#45;&gt;Node18 -->
<g id="edge18" class="edge">
<title>Node3&#45;&gt;Node18</title>
<path fill="none" stroke="#191970" d="M1785.8622,-297.1031C1821.5704,-284.3045 1861.3436,-270.0489 1894.5477,-258.1478"/>
<polygon fill="#191970" stroke="#191970" points="1784.6271,-293.8278 1776.3944,-300.4966 1786.9889,-300.4173 1784.6271,-293.8278"/>
</g>
<!-- Node19 -->
<g id="node18" class="node">
<title>Node19</title>
<g id="a_node18"><a xlink:href="../../d1/dd9/TOFMatchedWriterSpec_8cxx.html" target="_top" xlink:title="/home/travis/build\l/AliceO2Group/AliceO2\l/Detectors/GlobalTrackingWorkflow\l/tofworkflow/src/TOFMatchedWriterSpec.cxx">
<polygon fill="none" stroke="#000000" points="2092.5,-206 2092.5,-258 2322.5,-258 2322.5,-206 2092.5,-206"/>
<text text-anchor="start" x="2100.5" y="-246" font-family="Helvetica,sans-Serif" font-size="10.00" fill="#000000">/home/travis/build</text>
<text text-anchor="start" x="2100.5" y="-235" font-family="Helvetica,sans-Serif" font-size="10.00" fill="#000000">/AliceO2Group/AliceO2</text>
<text text-anchor="start" x="2100.5" y="-224" font-family="Helvetica,sans-Serif" font-size="10.00" fill="#000000">/Detectors/GlobalTrackingWorkflow</text>
<text text-anchor="middle" x="2207.5" y="-213" font-family="Helvetica,sans-Serif" font-size="10.00" fill="#000000">/tofworkflow/src/TOFMatchedWriterSpec.cxx</text>
</a>
</g>
</g>
<!-- Node3&#45;&gt;Node19 -->
<g id="edge20" class="edge">
<title>Node3&#45;&gt;Node19</title>
<path fill="none" stroke="#191970" d="M1795.0554,-300.9396C1796.5447,-300.6173 1798.0268,-300.3038 1799.5,-300 1924.1099,-274.3012 1958.5411,-287.9441 2083.5,-264 2092.671,-262.2427 2102.1705,-260.2007 2111.6437,-258.0146"/>
<polygon fill="#191970" stroke="#191970" points="1794.1202,-297.5627 1785.1411,-303.1864 1795.6674,-304.3896 1794.1202,-297.5627"/>
</g>
<!-- Node3&#45;&gt;Node20 -->
<g id="edge21" class="edge">
<title>Node3&#45;&gt;Node20</title>
<path fill="none" stroke="#191970" d="M1795.026,-300.7823C1796.5245,-300.5093 1798.0164,-300.2482 1799.5,-300 2110.2556,-248.0183 2197.6146,-320.9399 2507.5,-264 2510.609,-263.4287 2513.7555,-262.786 2516.92,-262.0844"/>
<polygon fill="#191970" stroke="#191970" points="1794.1931,-297.379 1785.0592,-302.7476 1795.5474,-304.2468 1794.1931,-297.379"/>
</g>
<!-- Node6 -->
<g id="node5" class="node">
<title>Node6</title>
<g id="a_node5"><a xlink:href="../../db/d6a/MatchTOF_8cxx.html" target="_top" xlink:title="/home/travis/build\l/AliceO2Group/AliceO2\l/Detectors/GlobalTracking\l/src/MatchTOF.cxx">
<polygon fill="none" stroke="#000000" points="410.5,-106 410.5,-158 552.5,-158 552.5,-106 410.5,-106"/>
<text text-anchor="start" x="418.5" y="-146" font-family="Helvetica,sans-Serif" font-size="10.00" fill="#000000">/home/travis/build</text>
<text text-anchor="start" x="418.5" y="-135" font-family="Helvetica,sans-Serif" font-size="10.00" fill="#000000">/AliceO2Group/AliceO2</text>
<text text-anchor="start" x="418.5" y="-124" font-family="Helvetica,sans-Serif" font-size="10.00" fill="#000000">/Detectors/GlobalTracking</text>
<text text-anchor="middle" x="481.5" y="-113" font-family="Helvetica,sans-Serif" font-size="10.00" fill="#000000">/src/MatchTOF.cxx</text>
</a>
</g>
</g>
<!-- Node5&#45;&gt;Node6 -->
<g id="edge4" class="edge">
<title>Node5&#45;&gt;Node6</title>
<path fill="none" stroke="#191970" d="M799.186,-213.4391C715.5303,-198.1485 605.1402,-176.9462 561.5,-164 555.6202,-162.2557 549.5717,-160.2493 543.5595,-158.1095"/>
<polygon fill="#191970" stroke="#191970" points="798.7836,-216.9233 809.2491,-215.2735 800.039,-210.0368 798.7836,-216.9233"/>
</g>
<!-- Node7 -->
<g id="node6" class="node">
<title>Node7</title>
<g id="a_node6"><a xlink:href="../../d8/d84/RecoWorkflowSpec_8cxx.html" target="_top" xlink:title="/home/travis/build\l/AliceO2Group/AliceO2\l/Detectors/GlobalTrackingWorkflow\l/tofworkflow/src/RecoWorkflowSpec.cxx">
<polygon fill="none" stroke="#000000" points="571,-106 571,-158 780,-158 780,-106 571,-106"/>
<text text-anchor="start" x="579" y="-146" font-family="Helvetica,sans-Serif" font-size="10.00" fill="#000000">/home/travis/build</text>
<text text-anchor="start" x="579" y="-135" font-family="Helvetica,sans-Serif" font-size="10.00" fill="#000000">/AliceO2Group/AliceO2</text>
<text text-anchor="start" x="579" y="-124" font-family="Helvetica,sans-Serif" font-size="10.00" fill="#000000">/Detectors/GlobalTrackingWorkflow</text>
<text text-anchor="middle" x="675.5" y="-113" font-family="Helvetica,sans-Serif" font-size="10.00" fill="#000000">/tofworkflow/src/RecoWorkflowSpec.cxx</text>
</a>
</g>
</g>
<!-- Node5&#45;&gt;Node7 -->
<g id="edge5" class="edge">
<title>Node5&#45;&gt;Node7</title>
<path fill="none" stroke="#191970" d="M834.9327,-201.9266C803.0698,-187.9517 765.5455,-171.4936 734.9078,-158.0561"/>
<polygon fill="#191970" stroke="#191970" points="833.6271,-205.1758 844.1909,-205.9872 836.4388,-198.7653 833.6271,-205.1758"/>
</g>
<!-- Node8 -->
<g id="node7" class="node">
<title>Node8</title>
<g id="a_node7"><a xlink:href="../../d4/d76/RecoWorkflowWithTPCSpec_8cxx.html" target="_top" xlink:title="/home/travis/build\l/AliceO2Group/AliceO2\l/Detectors/GlobalTrackingWorkflow\l/tofworkflow/src/RecoWorkflowWithTPCSpec.cxx">
<polygon fill="none" stroke="#000000" points="798,-106 798,-158 1049,-158 1049,-106 798,-106"/>
<text text-anchor="start" x="806" y="-146" font-family="Helvetica,sans-Serif" font-size="10.00" fill="#000000">/home/travis/build</text>
<text text-anchor="start" x="806" y="-135" font-family="Helvetica,sans-Serif" font-size="10.00" fill="#000000">/AliceO2Group/AliceO2</text>
<text text-anchor="start" x="806" y="-124" font-family="Helvetica,sans-Serif" font-size="10.00" fill="#000000">/Detectors/GlobalTrackingWorkflow</text>
<text text-anchor="middle" x="923.5" y="-113" font-family="Helvetica,sans-Serif" font-size="10.00" fill="#000000">/tofworkflow/src/RecoWorkflowWithTPCSpec.cxx</text>
</a>
</g>
</g>
<!-- Node5&#45;&gt;Node8 -->
<g id="edge6" class="edge">
<title>Node5&#45;&gt;Node8</title>
<path fill="none" stroke="#191970" d="M910.7208,-195.8962C913.2113,-183.4433 915.9517,-169.7413 918.254,-158.2299"/>
<polygon fill="#191970" stroke="#191970" points="907.2318,-195.495 908.7026,-205.9872 914.0958,-196.8679 907.2318,-195.495"/>
</g>
<!-- Node9&#45;&gt;Node7 -->
<g id="edge8" class="edge">
<title>Node9&#45;&gt;Node7</title>
<path fill="none" stroke="#191970" d="M1198.8253,-220.0812C1071.9526,-205.1811 864.6182,-179.727 788.5,-164 780.1135,-162.2672 771.4373,-160.2417 762.7922,-158.0661"/>
<polygon fill="#191970" stroke="#191970" points="1198.6122,-223.5801 1208.9517,-221.2681 1199.4271,-216.6277 1198.6122,-223.5801"/>
</g>
<!-- Node10 -->
<g id="node9" class="node">
<title>Node10</title>
<g id="a_node9"><a xlink:href="../../d6/d1f/tof-calibinfo-reader_8cxx.html" target="_top" xlink:title="/home/travis/build\l/AliceO2Group/AliceO2\l/Detectors/GlobalTrackingWorkflow\l/tofworkflow/src/tof&#45;calibinfo\l&#45;reader.cxx">
<polygon fill="none" stroke="#000000" points="1493,-100.5 1493,-163.5 1680,-163.5 1680,-100.5 1493,-100.5"/>
<text text-anchor="start" x="1501" y="-151.5" font-family="Helvetica,sans-Serif" font-size="10.00" fill="#000000">/home/travis/build</text>
<text text-anchor="start" x="1501" y="-140.5" font-family="Helvetica,sans-Serif" font-size="10.00" fill="#000000">/AliceO2Group/AliceO2</text>
<text text-anchor="start" x="1501" y="-129.5" font-family="Helvetica,sans-Serif" font-size="10.00" fill="#000000">/Detectors/GlobalTrackingWorkflow</text>
<text text-anchor="start" x="1501" y="-118.5" font-family="Helvetica,sans-Serif" font-size="10.00" fill="#000000">/tofworkflow/src/tof&#45;calibinfo</text>
<text text-anchor="middle" x="1586.5" y="-107.5" font-family="Helvetica,sans-Serif" font-size="10.00" fill="#000000">&#45;reader.cxx</text>
</a>
</g>
</g>
<!-- Node9&#45;&gt;Node10 -->
<g id="edge9" class="edge">
<title>Node9&#45;&gt;Node10</title>
<path fill="none" stroke="#191970" d="M1401.5018,-197.1402C1432.5543,-186.2062 1466.6358,-174.2057 1496.9924,-163.5168"/>
<polygon fill="#191970" stroke="#191970" points="1400.2395,-193.874 1391.9696,-200.4966 1402.5644,-200.4766 1400.2395,-193.874"/>
</g>
<!-- Node11 -->
<g id="node10" class="node">
<title>Node11</title>
<g id="a_node10"><a xlink:href="../../de/d48/tof-matcher-global_8cxx.html" target="_top" xlink:title="/home/travis/build\l/AliceO2Group/AliceO2\l/Detectors/GlobalTrackingWorkflow\l/tofworkflow/src/tof&#45;matcher\l&#45;global.cxx">
<polygon fill="none" stroke="#000000" points="1067,-100.5 1067,-163.5 1254,-163.5 1254,-100.5 1067,-100.5"/>
<text text-anchor="start" x="1075" y="-151.5" font-family="Helvetica,sans-Serif" font-size="10.00" fill="#000000">/home/travis/build</text>
<text text-anchor="start" x="1075" y="-140.5" font-family="Helvetica,sans-Serif" font-size="10.00" fill="#000000">/AliceO2Group/AliceO2</text>
<text text-anchor="start" x="1075" y="-129.5" font-family="Helvetica,sans-Serif" font-size="10.00" fill="#000000">/Detectors/GlobalTrackingWorkflow</text>
<text text-anchor="start" x="1075" y="-118.5" font-family="Helvetica,sans-Serif" font-size="10.00" fill="#000000">/tofworkflow/src/tof&#45;matcher</text>
<text text-anchor="middle" x="1160.5" y="-107.5" font-family="Helvetica,sans-Serif" font-size="10.00" fill="#000000">&#45;global.cxx</text>
</a>
</g>
</g>
<!-- Node9&#45;&gt;Node11 -->
<g id="edge10" class="edge">
<title>Node9&#45;&gt;Node11</title>
<path fill="none" stroke="#191970" d="M1249.2536,-194.5025C1234.8923,-184.3889 1219.4954,-173.546 1205.6248,-163.778"/>
<polygon fill="#191970" stroke="#191970" points="1247.379,-197.4632 1257.5703,-200.3594 1251.4095,-191.7399 1247.379,-197.4632"/>
</g>
<!-- Node12 -->
<g id="node11" class="node">
<title>Node12</title>
<g id="a_node11"><a xlink:href="../../da/dfd/tof-reco-workflow_8cxx.html" target="_top" xlink:title="Basic DPL workflow for TOF reconstruction starting from digits. ">
<polygon fill="none" stroke="#000000" points="1272,-106 1272,-158 1475,-158 1475,-106 1272,-106"/>
<text text-anchor="start" x="1280" y="-146" font-family="Helvetica,sans-Serif" font-size="10.00" fill="#000000">/home/travis/build</text>
<text text-anchor="start" x="1280" y="-135" font-family="Helvetica,sans-Serif" font-size="10.00" fill="#000000">/AliceO2Group/AliceO2</text>
<text text-anchor="start" x="1280" y="-124" font-family="Helvetica,sans-Serif" font-size="10.00" fill="#000000">/Detectors/GlobalTrackingWorkflow</text>
<text text-anchor="middle" x="1373.5" y="-113" font-family="Helvetica,sans-Serif" font-size="10.00" fill="#000000">/tofworkflow/src/tof&#45;reco&#45;workflow.cxx</text>
</a>
</g>
</g>
<!-- Node9&#45;&gt;Node12 -->
<g id="edge11" class="edge">
<title>Node9&#45;&gt;Node12</title>
<path fill="none" stroke="#191970" d="M1330.7759,-192.1749C1338.9205,-180.7035 1347.5949,-168.486 1354.9846,-158.078"/>
<polygon fill="#191970" stroke="#191970" points="1327.9003,-190.1793 1324.9648,-200.3594 1333.608,-194.2318 1327.9003,-190.1793"/>
</g>
<!-- Node13&#45;&gt;Node8 -->
<g id="edge13" class="edge">
<title>Node13&#45;&gt;Node8</title>
<path fill="none" stroke="#191970" d="M1403.7196,-200.0096C1250.7447,-169.7366 1207.06,-189.5031 1057.5,-164 1047.3616,-162.2712 1036.8484,-160.2203 1026.3725,-158.0044"/>
<polygon fill="#191970" stroke="#191970" points="1403.4611,-203.528 1413.9561,-202.077 1404.8469,-196.6665 1403.4611,-203.528"/>
</g>
<!-- Node14 -->
<g id="node13" class="node">
<title>Node14</title>
<g id="a_node13"><a xlink:href="../../da/d65/tof-matcher-tpc_8cxx.html" target="_top" xlink:title="/home/travis/build\l/AliceO2Group/AliceO2\l/Detectors/GlobalTrackingWorkflow\l/tofworkflow/src/tof&#45;matcher&#45;tpc.cxx">
<polygon fill="none" stroke="#000000" points="1698,-106 1698,-158 1891,-158 1891,-106 1698,-106"/>
<text text-anchor="start" x="1706" y="-146" font-family="Helvetica,sans-Serif" font-size="10.00" fill="#000000">/home/travis/build</text>
<text text-anchor="start" x="1706" y="-135" font-family="Helvetica,sans-Serif" font-size="10.00" fill="#000000">/AliceO2Group/AliceO2</text>
<text text-anchor="start" x="1706" y="-124" font-family="Helvetica,sans-Serif" font-size="10.00" fill="#000000">/Detectors/GlobalTrackingWorkflow</text>
<text text-anchor="middle" x="1794.5" y="-113" font-family="Helvetica,sans-Serif" font-size="10.00" fill="#000000">/tofworkflow/src/tof&#45;matcher&#45;tpc.cxx</text>
</a>
</g>
</g>
<!-- Node13&#45;&gt;Node14 -->
<g id="edge14" class="edge">
<title>Node13&#45;&gt;Node14</title>
<path fill="none" stroke="#191970" d="M1607.654,-197.1031C1644.386,-184.3045 1685.2997,-170.0489 1719.4558,-158.1478"/>
<polygon fill="#191970" stroke="#191970" points="1606.2062,-193.9011 1597.9147,-200.4966 1608.5095,-200.5114 1606.2062,-193.9011"/>
</g>
<!-- Node15&#45;&gt;Node16 -->
<g id="edge16" class="edge">
<title>Node15&#45;&gt;Node16</title>
<path fill="none" stroke="#191970" d="M1846.6171,-196.9397C1881.9524,-184.1832 1921.2449,-169.9982 1954.0706,-158.1478"/>
<polygon fill="#191970" stroke="#191970" points="1844.9817,-193.8089 1836.7643,-200.4966 1847.3587,-200.393 1844.9817,-193.8089"/>
</g>
<!-- Node17 -->
<g id="node16" class="node">
<title>Node17</title>
<g id="a_node16"><a xlink:href="../../d1/d67/TrackInterpolationWorkflow_8cxx.html" target="_top" xlink:title="/home/travis/build\l/AliceO2Group/AliceO2\l/Detectors/GlobalTrackingWorkflow\l/tpcinterpolationworkflow/src\l/TrackInterpolationWorkflow.cxx">
<polygon fill="none" stroke="#000000" points="2159,-.5 2159,-63.5 2346,-63.5 2346,-.5 2159,-.5"/>
<text text-anchor="start" x="2167" y="-51.5" font-family="Helvetica,sans-Serif" font-size="10.00" fill="#000000">/home/travis/build</text>
<text text-anchor="start" x="2167" y="-40.5" font-family="Helvetica,sans-Serif" font-size="10.00" fill="#000000">/AliceO2Group/AliceO2</text>
<text text-anchor="start" x="2167" y="-29.5" font-family="Helvetica,sans-Serif" font-size="10.00" fill="#000000">/Detectors/GlobalTrackingWorkflow</text>
<text text-anchor="start" x="2167" y="-18.5" font-family="Helvetica,sans-Serif" font-size="10.00" fill="#000000">/tpcinterpolationworkflow/src</text>
<text text-anchor="middle" x="2252.5" y="-7.5" font-family="Helvetica,sans-Serif" font-size="10.00" fill="#000000">/TrackInterpolationWorkflow.cxx</text>
</a>
</g>
</g>
<!-- Node15&#45;&gt;Node17 -->
<g id="edge17" class="edge">
<title>Node15&#45;&gt;Node17</title>
<path fill="none" stroke="#191970" d="M1853.3683,-199.971C1932.4936,-187.0414 2098.4671,-199.1703 2152.5,-164 2180.2247,-145.9539 2170.8097,-126.5822 2190.5,-100 2199.724,-87.5475 2210.8593,-74.7689 2221.1332,-63.6991"/>
<polygon fill="#191970" stroke="#191970" points="1852.4359,-196.5849 1843.2538,-201.8707 1853.728,-203.4646 1852.4359,-196.5849"/>
</g>
<!-- Node21 -->
<g id="node20" class="node">
<title>Node21</title>
<g id="a_node20"><a xlink:href="../../dc/d50/TPCInterpolationSpec_8h.html" target="_top" xlink:title="/home/travis/build\l/AliceO2Group/AliceO2\l/Detectors/GlobalTrackingWorkflow\l/tpcinterpolationworkflow/include\l/TPCInterpolationWorkflow/TPCInterpolationSpec.h">
<polygon fill="none" stroke="#000000" points="2405.5,-100.5 2405.5,-163.5 2667.5,-163.5 2667.5,-100.5 2405.5,-100.5"/>
<text text-anchor="start" x="2413.5" y="-151.5" font-family="Helvetica,sans-Serif" font-size="10.00" fill="#000000">/home/travis/build</text>
<text text-anchor="start" x="2413.5" y="-140.5" font-family="Helvetica,sans-Serif" font-size="10.00" fill="#000000">/AliceO2Group/AliceO2</text>
<text text-anchor="start" x="2413.5" y="-129.5" font-family="Helvetica,sans-Serif" font-size="10.00" fill="#000000">/Detectors/GlobalTrackingWorkflow</text>
<text text-anchor="start" x="2413.5" y="-118.5" font-family="Helvetica,sans-Serif" font-size="10.00" fill="#000000">/tpcinterpolationworkflow/include</text>
<text text-anchor="middle" x="2536.5" y="-107.5" font-family="Helvetica,sans-Serif" font-size="10.00" fill="#000000">/TPCInterpolationWorkflow/TPCInterpolationSpec.h</text>
</a>
</g>
</g>
<!-- Node20&#45;&gt;Node21 -->
<g id="edge22" class="edge">
<title>Node20&#45;&gt;Node21</title>
<path fill="none" stroke="#191970" d="M2578.4553,-191.9361C2571.9007,-182.5725 2565.0071,-172.7244 2558.7446,-163.778"/>
<polygon fill="#191970" stroke="#191970" points="2575.7496,-194.1742 2584.3516,-200.3594 2581.4842,-190.1599 2575.7496,-194.1742"/>
</g>
<!-- Node23 -->
<g id="node22" class="node">
<title>Node23</title>
<g id="a_node22"><a xlink:href="../../d2/d27/TPCResidualWriterSpec_8cxx.html" target="_top" xlink:title="/home/travis/build\l/AliceO2Group/AliceO2\l/Detectors/GlobalTrackingWorkflow\l/tpcinterpolationworkflow/src\l/TPCResidualWriterSpec.cxx">
<polygon fill="none" stroke="#000000" points="2200,-100.5 2200,-163.5 2387,-163.5 2387,-100.5 2200,-100.5"/>
<text text-anchor="start" x="2208" y="-151.5" font-family="Helvetica,sans-Serif" font-size="10.00" fill="#000000">/home/travis/build</text>
<text text-anchor="start" x="2208" y="-140.5" font-family="Helvetica,sans-Serif" font-size="10.00" fill="#000000">/AliceO2Group/AliceO2</text>
<text text-anchor="start" x="2208" y="-129.5" font-family="Helvetica,sans-Serif" font-size="10.00" fill="#000000">/Detectors/GlobalTrackingWorkflow</text>
<text text-anchor="start" x="2208" y="-118.5" font-family="Helvetica,sans-Serif" font-size="10.00" fill="#000000">/tpcinterpolationworkflow/src</text>
<text text-anchor="middle" x="2293.5" y="-107.5" font-family="Helvetica,sans-Serif" font-size="10.00" fill="#000000">/TPCResidualWriterSpec.cxx</text>
</a>
</g>
</g>
<!-- Node20&#45;&gt;Node23 -->
<g id="edge25" class="edge">
<title>Node20&#45;&gt;Node23</title>
<path fill="none" stroke="#191970" d="M2507.2622,-199.9282C2462.2973,-185.5263 2422.0027,-172.7074 2387.0197,-161.6058"/>
<polygon fill="#191970" stroke="#191970" points="2506.3368,-203.3069 2516.9279,-203.0254 2508.4729,-196.6408 2506.3368,-203.3069"/>
</g>
<!-- Node24 -->
<g id="node23" class="node">
<title>Node24</title>
<g id="a_node23"><a xlink:href="../../da/ddb/TrackResiduals_8h.html" target="_top" xlink:title="Definition of the TrackResiduals class. ">
<polygon fill="none" stroke="#000000" points="2911,-100.5 2911,-163.5 3090,-163.5 3090,-100.5 2911,-100.5"/>
<text text-anchor="start" x="2919" y="-151.5" font-family="Helvetica,sans-Serif" font-size="10.00" fill="#000000">/home/travis/build</text>
<text text-anchor="start" x="2919" y="-140.5" font-family="Helvetica,sans-Serif" font-size="10.00" fill="#000000">/AliceO2Group/AliceO2</text>
<text text-anchor="start" x="2919" y="-129.5" font-family="Helvetica,sans-Serif" font-size="10.00" fill="#000000">/Detectors/TPC/calibration</text>
<text text-anchor="start" x="2919" y="-118.5" font-family="Helvetica,sans-Serif" font-size="10.00" fill="#000000">/SpacePoints/include/SpacePoints</text>
<text text-anchor="middle" x="3000.5" y="-107.5" font-family="Helvetica,sans-Serif" font-size="10.00" fill="#000000">/TrackResiduals.h</text>
</a>
</g>
</g>
<!-- Node20&#45;&gt;Node24 -->
<g id="edge26" class="edge">
<title>Node20&#45;&gt;Node24</title>
<path fill="none" stroke="#191970" d="M2705.8832,-211.3259C2763.3464,-198.8161 2836.8493,-181.8642 2901.5,-164 2904.5469,-163.1581 2907.6398,-162.2818 2910.7582,-161.3796"/>
<polygon fill="#191970" stroke="#191970" points="2705.1076,-207.9126 2696.0761,-213.4517 2706.5906,-214.7538 2705.1076,-207.9126"/>
</g>
<!-- Node26 -->
<g id="node25" class="node">
<title>Node26</title>
<g id="a_node25"><a xlink:href="../../d4/d15/TrackInterpolation_8cxx.html" target="_top" xlink:title="Implementation of the TrackInterpolation class. ">
<polygon fill="none" stroke="#000000" points="2686,-106 2686,-158 2893,-158 2893,-106 2686,-106"/>
<text text-anchor="start" x="2694" y="-146" font-family="Helvetica,sans-Serif" font-size="10.00" fill="#000000">/home/travis/build</text>
<text text-anchor="start" x="2694" y="-135" font-family="Helvetica,sans-Serif" font-size="10.00" fill="#000000">/AliceO2Group/AliceO2</text>
<text text-anchor="start" x="2694" y="-124" font-family="Helvetica,sans-Serif" font-size="10.00" fill="#000000">/Detectors/TPC/calibration</text>
<text text-anchor="middle" x="2789.5" y="-113" font-family="Helvetica,sans-Serif" font-size="10.00" fill="#000000">/SpacePoints/src/TrackInterpolation.cxx</text>
</a>
</g>
</g>
<!-- Node20&#45;&gt;Node26 -->
<g id="edge28" class="edge">
<title>Node20&#45;&gt;Node26</title>
<path fill="none" stroke="#191970" d="M2673.0636,-195.6265C2695.7746,-183.2161 2720.7047,-169.5931 2741.6495,-158.1478"/>
<polygon fill="#191970" stroke="#191970" points="2671.2481,-192.63 2664.1512,-200.4966 2674.6048,-198.7727 2671.2481,-192.63"/>
</g>
<!-- Node21&#45;&gt;Node17 -->
<g id="edge24" class="edge">
<title>Node21&#45;&gt;Node17</title>
<path fill="none" stroke="#191970" d="M2437.4982,-97.1402C2406.4457,-86.2062 2372.3642,-74.2057 2342.0076,-63.5168"/>
<polygon fill="#191970" stroke="#191970" points="2436.4356,-100.4766 2447.0304,-100.4966 2438.7605,-93.874 2436.4356,-100.4766"/>
</g>
<!-- Node22 -->
<g id="node21" class="node">
<title>Node22</title>
<g id="a_node21"><a xlink:href="../../d8/d85/TPCInterpolationSpec_8cxx.html" target="_top" xlink:title="/home/travis/build\l/AliceO2Group/AliceO2\l/Detectors/GlobalTrackingWorkflow\l/tpcinterpolationworkflow/src\l/TPCInterpolationSpec.cxx">
<polygon fill="none" stroke="#000000" points="2443,-.5 2443,-63.5 2630,-63.5 2630,-.5 2443,-.5"/>
<text text-anchor="start" x="2451" y="-51.5" font-family="Helvetica,sans-Serif" font-size="10.00" fill="#000000">/home/travis/build</text>
<text text-anchor="start" x="2451" y="-40.5" font-family="Helvetica,sans-Serif" font-size="10.00" fill="#000000">/AliceO2Group/AliceO2</text>
<text text-anchor="start" x="2451" y="-29.5" font-family="Helvetica,sans-Serif" font-size="10.00" fill="#000000">/Detectors/GlobalTrackingWorkflow</text>
<text text-anchor="start" x="2451" y="-18.5" font-family="Helvetica,sans-Serif" font-size="10.00" fill="#000000">/tpcinterpolationworkflow/src</text>
<text text-anchor="middle" x="2536.5" y="-7.5" font-family="Helvetica,sans-Serif" font-size="10.00" fill="#000000">/TPCInterpolationSpec.cxx</text>
</a>
</g>
</g>
<!-- Node21&#45;&gt;Node22 -->
<g id="edge23" class="edge">
<title>Node21&#45;&gt;Node22</title>
<path fill="none" stroke="#191970" d="M2536.5,-90.2111C2536.5,-81.37 2536.5,-72.1767 2536.5,-63.778"/>
<polygon fill="#191970" stroke="#191970" points="2533.0001,-90.3593 2536.5,-100.3594 2540.0001,-90.3594 2533.0001,-90.3593"/>
</g>
<!-- Node25 -->
<g id="node24" class="node">
<title>Node25</title>
<g id="a_node24"><a xlink:href="../../d9/df0/TrackResiduals_8cxx.html" target="_top" xlink:title="Implementation of the TrackResiduals class. ">
<polygon fill="none" stroke="#000000" points="2905,-6 2905,-58 3096,-58 3096,-6 2905,-6"/>
<text text-anchor="start" x="2913" y="-46" font-family="Helvetica,sans-Serif" font-size="10.00" fill="#000000">/home/travis/build</text>
<text text-anchor="start" x="2913" y="-35" font-family="Helvetica,sans-Serif" font-size="10.00" fill="#000000">/AliceO2Group/AliceO2</text>
<text text-anchor="start" x="2913" y="-24" font-family="Helvetica,sans-Serif" font-size="10.00" fill="#000000">/Detectors/TPC/calibration</text>
<text text-anchor="middle" x="3000.5" y="-13" font-family="Helvetica,sans-Serif" font-size="10.00" fill="#000000">/SpacePoints/src/TrackResiduals.cxx</text>
</a>
</g>
</g>
<!-- Node24&#45;&gt;Node25 -->
<g id="edge27" class="edge">
<title>Node24&#45;&gt;Node25</title>
<path fill="none" stroke="#191970" d="M3000.5,-90.1631C3000.5,-79.2863 3000.5,-67.8798 3000.5,-58.078"/>
<polygon fill="#191970" stroke="#191970" points="2997.0001,-90.3593 3000.5,-100.3594 3004.0001,-90.3594 2997.0001,-90.3593"/>
</g>
<!-- Node27&#45;&gt;Node5 -->
<g id="edge31" class="edge">
<title>Node27&#45;&gt;Node5</title>
<path fill="none" stroke="#191970" d="M718.648,-302.2859C755.6034,-288.2344 799.3284,-271.609 834.9726,-258.0561"/>
<polygon fill="#191970" stroke="#191970" points="717.0168,-299.1616 708.9136,-305.9872 719.5047,-305.7046 717.0168,-299.1616"/>
</g>
<!-- Node27&#45;&gt;Node6 -->
<g id="edge32" class="edge">
<title>Node27&#45;&gt;Node6</title>
<path fill="none" stroke="#191970" d="M596.6839,-299.1761C584.2075,-288.7019 571.1315,-276.5505 560.5,-264 532.2757,-230.681 507.8793,-186.0788 493.934,-158.1968"/>
<polygon fill="#191970" stroke="#191970" points="594.813,-302.1683 604.7643,-305.8044 599.2524,-296.7562 594.813,-302.1683"/>
</g>
<!-- Node28 -->
<g id="node27" class="node">
<title>Node28</title>
<g id="a_node27"><a xlink:href="../../dc/d59/MatchTPCITS_8cxx.html" target="_top" xlink:title="/home/travis/build\l/AliceO2Group/AliceO2\l/Detectors/GlobalTracking\l/src/MatchTPCITS.cxx">
<polygon fill="none" stroke="#000000" points="569.5,-206 569.5,-258 711.5,-258 711.5,-206 569.5,-206"/>
<text text-anchor="start" x="577.5" y="-246" font-family="Helvetica,sans-Serif" font-size="10.00" fill="#000000">/home/travis/build</text>
<text text-anchor="start" x="577.5" y="-235" font-family="Helvetica,sans-Serif" font-size="10.00" fill="#000000">/AliceO2Group/AliceO2</text>
<text text-anchor="start" x="577.5" y="-224" font-family="Helvetica,sans-Serif" font-size="10.00" fill="#000000">/Detectors/GlobalTracking</text>
<text text-anchor="middle" x="640.5" y="-213" font-family="Helvetica,sans-Serif" font-size="10.00" fill="#000000">/src/MatchTPCITS.cxx</text>
</a>
</g>
</g>
<!-- Node27&#45;&gt;Node28 -->
<g id="edge33" class="edge">
<title>Node27&#45;&gt;Node28</title>
<path fill="none" stroke="#191970" d="M640.5,-295.8962C640.5,-283.4433 640.5,-269.7413 640.5,-258.2299"/>
<polygon fill="#191970" stroke="#191970" points="637.0001,-295.9872 640.5,-305.9872 644.0001,-295.9873 637.0001,-295.9872"/>
</g>
<!-- Node29 -->
<g id="node28" class="node">
<title>Node29</title>
<g id="a_node28"><a xlink:href="../../da/d20/TPCITSMatchingSpec_8h.html" target="_top" xlink:title="/home/travis/build\l/AliceO2Group/AliceO2\l/Detectors/GlobalTrackingWorkflow\l/include/GlobalTrackingWorkflow\l/TPCITSMatchingSpec.h">
<polygon fill="none" stroke="#000000" points="205,-200.5 205,-263.5 392,-263.5 392,-200.5 205,-200.5"/>
<text text-anchor="start" x="213" y="-251.5" font-family="Helvetica,sans-Serif" font-size="10.00" fill="#000000">/home/travis/build</text>
<text text-anchor="start" x="213" y="-240.5" font-family="Helvetica,sans-Serif" font-size="10.00" fill="#000000">/AliceO2Group/AliceO2</text>
<text text-anchor="start" x="213" y="-229.5" font-family="Helvetica,sans-Serif" font-size="10.00" fill="#000000">/Detectors/GlobalTrackingWorkflow</text>
<text text-anchor="start" x="213" y="-218.5" font-family="Helvetica,sans-Serif" font-size="10.00" fill="#000000">/include/GlobalTrackingWorkflow</text>
<text text-anchor="middle" x="298.5" y="-207.5" font-family="Helvetica,sans-Serif" font-size="10.00" fill="#000000">/TPCITSMatchingSpec.h</text>
</a>
</g>
</g>
<!-- Node27&#45;&gt;Node29 -->
<g id="edge34" class="edge">
<title>Node27&#45;&gt;Node29</title>
<path fill="none" stroke="#191970" d="M541.9242,-303.1767C494.7664,-289.3878 438.5944,-272.9633 392.0987,-259.368"/>
<polygon fill="#191970" stroke="#191970" points="540.9559,-306.54 551.5363,-305.9872 542.9205,-299.8213 540.9559,-306.54"/>
</g>
<!-- Node30 -->
<g id="node29" class="node">
<title>Node30</title>
<g id="a_node29"><a xlink:href="../../d5/db4/MatchTPCITSWorkflow_8cxx.html" target="_top" xlink:title="/home/travis/build\l/AliceO2Group/AliceO2\l/Detectors/GlobalTrackingWorkflow\l/src/MatchTPCITSWorkflow.cxx">
<polygon fill="none" stroke="#000000" points="205,-106 205,-158 392,-158 392,-106 205,-106"/>
<text text-anchor="start" x="213" y="-146" font-family="Helvetica,sans-Serif" font-size="10.00" fill="#000000">/home/travis/build</text>
<text text-anchor="start" x="213" y="-135" font-family="Helvetica,sans-Serif" font-size="10.00" fill="#000000">/AliceO2Group/AliceO2</text>
<text text-anchor="start" x="213" y="-124" font-family="Helvetica,sans-Serif" font-size="10.00" fill="#000000">/Detectors/GlobalTrackingWorkflow</text>
<text text-anchor="middle" x="298.5" y="-113" font-family="Helvetica,sans-Serif" font-size="10.00" fill="#000000">/src/MatchTPCITSWorkflow.cxx</text>
</a>
</g>
</g>
<!-- Node29&#45;&gt;Node30 -->
<g id="edge35" class="edge">
<title>Node29&#45;&gt;Node30</title>
<path fill="none" stroke="#191970" d="M298.5,-190.1631C298.5,-179.2863 298.5,-167.8798 298.5,-158.078"/>
<polygon fill="#191970" stroke="#191970" points="295.0001,-190.3593 298.5,-200.3594 302.0001,-190.3594 295.0001,-190.3593"/>
</g>
<!-- Node31 -->
<g id="node30" class="node">
<title>Node31</title>
<g id="a_node30"><a xlink:href="../../d6/d73/TPCITSMatchingSpec_8cxx.html" target="_top" xlink:title="/home/travis/build\l/AliceO2Group/AliceO2\l/Detectors/GlobalTrackingWorkflow\l/src/TPCITSMatchingSpec.cxx">
<polygon fill="none" stroke="#000000" points="0,-106 0,-158 187,-158 187,-106 0,-106"/>
<text text-anchor="start" x="8" y="-146" font-family="Helvetica,sans-Serif" font-size="10.00" fill="#000000">/home/travis/build</text>
<text text-anchor="start" x="8" y="-135" font-family="Helvetica,sans-Serif" font-size="10.00" fill="#000000">/AliceO2Group/AliceO2</text>
<text text-anchor="start" x="8" y="-124" font-family="Helvetica,sans-Serif" font-size="10.00" fill="#000000">/Detectors/GlobalTrackingWorkflow</text>
<text text-anchor="middle" x="93.5" y="-113" font-family="Helvetica,sans-Serif" font-size="10.00" fill="#000000">/src/TPCITSMatchingSpec.cxx</text>
</a>
</g>
</g>
<!-- Node29&#45;&gt;Node31 -->
<g id="edge36" class="edge">
<title>Node29&#45;&gt;Node31</title>
<path fill="none" stroke="#191970" d="M224.6091,-195.9557C198.9876,-183.4573 170.7735,-169.6944 147.103,-158.1478"/>
<polygon fill="#191970" stroke="#191970" points="223.3959,-199.258 233.9181,-200.4966 226.4649,-192.9666 223.3959,-199.258"/>
</g>
</g>
</svg>
