<?xml version="1.0" encoding="UTF-8" standalone="no"?>
<!DOCTYPE svg PUBLIC "-//W3C//DTD SVG 1.1//EN"
 "http://www.w3.org/Graphics/SVG/1.1/DTD/svg11.dtd">
<!-- Generated by graphviz version 2.40.1 (20161225.0304)
 -->
<!-- Title: /home/travis/build/AliceO2Group/AliceO2/DataFormats/Detectors/TOF/include/DataFormatsTOF/Cluster.h Pages: 1 -->
<!--zoomable 372 -->
<svg id="main" version="1.1" xmlns="http://www.w3.org/2000/svg" xmlns:xlink="http://www.w3.org/1999/xlink" xml:space="preserve" onload="init(evt)">
<style type="text/css"><![CDATA[
.edge:hover path { stroke: red; }
.edge:hover polygon { stroke: red; fill: red; }
]]></style>
<script type="text/javascript"><![CDATA[
var edges = document.getElementsByTagName('g');
if (edges && edges.length) {
  for (var i=0;i<edges.length;i++) {
    if (edges[i].id.substr(0,4)=='edge') {
      edges[i].setAttribute('class','edge');
    }
  }
}
]]></script>
        <defs>
                <circle id="rim" cx="0" cy="0" r="7"/>
                <circle id="rim2" cx="0" cy="0" r="3.5"/>
                <g id="zoomPlus">
                        <use xlink:href="#rim" fill="#404040">
                                <set attributeName="fill" to="#808080" begin="zoomplus.mouseover" end="zoomplus.mouseout"/>
                        </use>
                        <path d="M-4,0h8M0,-4v8" fill="none" stroke="white" stroke-width="1.5" pointer-events="none"/>
                </g>
                <g id="zoomMin">
                        <use xlink:href="#rim" fill="#404040">
                                <set attributeName="fill" to="#808080" begin="zoomminus.mouseover" end="zoomminus.mouseout"/>
                        </use>
                        <path d="M-4,0h8" fill="none" stroke="white" stroke-width="1.5" pointer-events="none"/>
                </g>
                <g id="dirArrow">
                        <path fill="none" stroke="white" stroke-width="1.5" d="M0,-3.0v7 M-2.5,-0.5L0,-3.0L2.5,-0.5"/>
                </g>
               <g id="resetDef">
                       <use xlink:href="#rim2" fill="#404040">
                               <set attributeName="fill" to="#808080" begin="reset.mouseover" end="reset.mouseout"/>
                       </use>
               </g>
        </defs>

<script type="text/javascript">
var viewWidth = 2964;
var viewHeight = 372;
var sectionId = 'dynsection-1';
</script>
<script xlink:href="../../svgpan.js"/>
<svg id="graph" class="graph">
<g id="viewport">
<title>/home/travis/build/AliceO2Group/AliceO2/DataFormats/Detectors/TOF/include/DataFormatsTOF/Cluster.h</title>
<!-- Node50 -->
<g id="node1" class="node">
<title>Node50</title>
<polygon fill="#bfbfbf" stroke="#000000" points="786,-300.5 786,-363.5 947,-363.5 947,-300.5 786,-300.5"/>
<text text-anchor="start" x="794" y="-351.5" font-family="Helvetica,sans-Serif" font-size="10.00" fill="#000000">/home/travis/build</text>
<text text-anchor="start" x="794" y="-340.5" font-family="Helvetica,sans-Serif" font-size="10.00" fill="#000000">/AliceO2Group/AliceO2</text>
<text text-anchor="start" x="794" y="-329.5" font-family="Helvetica,sans-Serif" font-size="10.00" fill="#000000">/DataFormats/Detectors</text>
<text text-anchor="start" x="794" y="-318.5" font-family="Helvetica,sans-Serif" font-size="10.00" fill="#000000">/TOF/include/DataFormatsTOF</text>
<text text-anchor="middle" x="866.5" y="-307.5" font-family="Helvetica,sans-Serif" font-size="10.00" fill="#000000">/Cluster.h</text>
</g>
<!-- Node51 -->
<g id="node2" class="node">
<title>Node51</title>
<g id="a_node2"><a xlink:href="../../db/d6b/DataFormats_2Detectors_2TOF_2src_2Cluster_8cxx.html" target="_top" xlink:title="/home/travis/build\l/AliceO2Group/AliceO2\l/DataFormats/Detectors\l/TOF/src/Cluster.cxx">
<polygon fill="none" stroke="#000000" points="15,-206 15,-258 148,-258 148,-206 15,-206"/>
<text text-anchor="start" x="23" y="-246" font-family="Helvetica,sans-Serif" font-size="10.00" fill="#000000">/home/travis/build</text>
<text text-anchor="start" x="23" y="-235" font-family="Helvetica,sans-Serif" font-size="10.00" fill="#000000">/AliceO2Group/AliceO2</text>
<text text-anchor="start" x="23" y="-224" font-family="Helvetica,sans-Serif" font-size="10.00" fill="#000000">/DataFormats/Detectors</text>
<text text-anchor="middle" x="81.5" y="-213" font-family="Helvetica,sans-Serif" font-size="10.00" fill="#000000">/TOF/src/Cluster.cxx</text>
</a>
</g>
</g>
<!-- Node50&#45;&gt;Node51 -->
<g id="edge1" class="edge">
<title>Node50&#45;&gt;Node51</title>
<path fill="none" stroke="#191970" d="M775.7559,-326.4039C612.7143,-315.823 276.5813,-291.4667 162.5,-264 155.885,-262.4073 149.0927,-260.3858 142.3899,-258.1354"/>
<polygon fill="#191970" stroke="#191970" points="775.5608,-329.8985 785.7656,-327.0503 776.012,-322.913 775.5608,-329.8985"/>
</g>
<!-- Node52 -->
<g id="node3" class="node">
<title>Node52</title>
<g id="a_node3"><a xlink:href="../../d0/d74/MatchTOF_8h.html" target="_top" xlink:title="Class to perform TOF matching to global tracks. ">
<polygon fill="none" stroke="#000000" points="204.5,-206 204.5,-258 392.5,-258 392.5,-206 204.5,-206"/>
<text text-anchor="start" x="212.5" y="-246" font-family="Helvetica,sans-Serif" font-size="10.00" fill="#000000">/home/travis/build</text>
<text text-anchor="start" x="212.5" y="-235" font-family="Helvetica,sans-Serif" font-size="10.00" fill="#000000">/AliceO2Group/AliceO2</text>
<text text-anchor="start" x="212.5" y="-224" font-family="Helvetica,sans-Serif" font-size="10.00" fill="#000000">/Detectors/GlobalTracking</text>
<text text-anchor="middle" x="298.5" y="-213" font-family="Helvetica,sans-Serif" font-size="10.00" fill="#000000">/include/GlobalTracking/MatchTOF.h</text>
</a>
</g>
</g>
<!-- Node50&#45;&gt;Node52 -->
<g id="edge2" class="edge">
<title>Node50&#45;&gt;Node52</title>
<path fill="none" stroke="#191970" d="M775.7116,-322.417C682.4264,-311.6757 533.3255,-292.0158 406.5,-264 398.5754,-262.2495 390.382,-260.2255 382.215,-258.0629"/>
<polygon fill="#191970" stroke="#191970" points="775.3501,-325.8983 785.6827,-323.5556 776.1444,-318.9435 775.3501,-325.8983"/>
</g>
<!-- Node54 -->
<g id="node5" class="node">
<title>Node54</title>
<g id="a_node5"><a xlink:href="../../d8/d84/RecoWorkflowSpec_8cxx.html" target="_top" xlink:title="/home/travis/build\l/AliceO2Group/AliceO2\l/Detectors/GlobalTrackingWorkflow\l/tofworkflow/src/RecoWorkflowSpec.cxx">
<polygon fill="none" stroke="#000000" points="0,-106 0,-158 209,-158 209,-106 0,-106"/>
<text text-anchor="start" x="8" y="-146" font-family="Helvetica,sans-Serif" font-size="10.00" fill="#000000">/home/travis/build</text>
<text text-anchor="start" x="8" y="-135" font-family="Helvetica,sans-Serif" font-size="10.00" fill="#000000">/AliceO2Group/AliceO2</text>
<text text-anchor="start" x="8" y="-124" font-family="Helvetica,sans-Serif" font-size="10.00" fill="#000000">/Detectors/GlobalTrackingWorkflow</text>
<text text-anchor="middle" x="104.5" y="-113" font-family="Helvetica,sans-Serif" font-size="10.00" fill="#000000">/tofworkflow/src/RecoWorkflowSpec.cxx</text>
</a>
</g>
</g>
<!-- Node50&#45;&gt;Node54 -->
<g id="edge6" class="edge">
<title>Node50&#45;&gt;Node54</title>
<path fill="none" stroke="#191970" d="M775.6475,-327.2768C603.6968,-317.6877 243.5184,-294.2561 195.5,-264 167.3182,-246.2428 175.3098,-227.4904 156.5,-200 146.7648,-185.7721 135.1754,-170.4764 125.411,-158.0018"/>
<polygon fill="#191970" stroke="#191970" points="775.5171,-330.7749 785.6954,-327.8333 775.9043,-323.7856 775.5171,-330.7749"/>
</g>
<!-- Node55 -->
<g id="node6" class="node">
<title>Node55</title>
<g id="a_node6"><a xlink:href="../../d4/d76/RecoWorkflowWithTPCSpec_8cxx.html" target="_top" xlink:title="/home/travis/build\l/AliceO2Group/AliceO2\l/Detectors/GlobalTrackingWorkflow\l/tofworkflow/src/RecoWorkflowWithTPCSpec.cxx">
<polygon fill="none" stroke="#000000" points="388,-106 388,-158 639,-158 639,-106 388,-106"/>
<text text-anchor="start" x="396" y="-146" font-family="Helvetica,sans-Serif" font-size="10.00" fill="#000000">/home/travis/build</text>
<text text-anchor="start" x="396" y="-135" font-family="Helvetica,sans-Serif" font-size="10.00" fill="#000000">/AliceO2Group/AliceO2</text>
<text text-anchor="start" x="396" y="-124" font-family="Helvetica,sans-Serif" font-size="10.00" fill="#000000">/Detectors/GlobalTrackingWorkflow</text>
<text text-anchor="middle" x="513.5" y="-113" font-family="Helvetica,sans-Serif" font-size="10.00" fill="#000000">/tofworkflow/src/RecoWorkflowWithTPCSpec.cxx</text>
</a>
</g>
</g>
<!-- Node50&#45;&gt;Node55 -->
<g id="edge7" class="edge">
<title>Node50&#45;&gt;Node55</title>
<path fill="none" stroke="#191970" d="M775.4562,-323.7578C656.5906,-312.0618 461.0431,-289.2453 439.5,-264 421.0359,-242.3629 428.0624,-226.0436 439.5,-200 446.7263,-183.5457 460.1168,-169.3241 473.5415,-158.2022"/>
<polygon fill="#191970" stroke="#191970" points="775.3552,-327.2645 785.6478,-324.7519 776.0349,-320.2975 775.3552,-327.2645"/>
</g>
<!-- Node56 -->
<g id="node7" class="node">
<title>Node56</title>
<g id="a_node7"><a xlink:href="../../dc/d9f/TOFCalibWriterSpec_8cxx.html" target="_top" xlink:title="/home/travis/build\l/AliceO2Group/AliceO2\l/Detectors/GlobalTrackingWorkflow\l/tofworkflow/src/TOFCalibWriterSpec.cxx">
<polygon fill="none" stroke="#000000" points="448.5,-206 448.5,-258 662.5,-258 662.5,-206 448.5,-206"/>
<text text-anchor="start" x="456.5" y="-246" font-family="Helvetica,sans-Serif" font-size="10.00" fill="#000000">/home/travis/build</text>
<text text-anchor="start" x="456.5" y="-235" font-family="Helvetica,sans-Serif" font-size="10.00" fill="#000000">/AliceO2Group/AliceO2</text>
<text text-anchor="start" x="456.5" y="-224" font-family="Helvetica,sans-Serif" font-size="10.00" fill="#000000">/Detectors/GlobalTrackingWorkflow</text>
<text text-anchor="middle" x="555.5" y="-213" font-family="Helvetica,sans-Serif" font-size="10.00" fill="#000000">/tofworkflow/src/TOFCalibWriterSpec.cxx</text>
</a>
</g>
</g>
<!-- Node50&#45;&gt;Node56 -->
<g id="edge8" class="edge">
<title>Node50&#45;&gt;Node56</title>
<path fill="none" stroke="#191970" d="M776.0364,-302.912C731.9314,-288.7303 679.3117,-271.8108 636.5343,-258.0561"/>
<polygon fill="#191970" stroke="#191970" points="775.0089,-306.2581 785.6003,-305.9872 777.1517,-299.5941 775.0089,-306.2581"/>
</g>
<!-- Node57 -->
<g id="node8" class="node">
<title>Node57</title>
<g id="a_node8"><a xlink:href="../../d1/dd9/TOFMatchedWriterSpec_8cxx.html" target="_top" xlink:title="/home/travis/build\l/AliceO2Group/AliceO2\l/Detectors/GlobalTrackingWorkflow\l/tofworkflow/src/TOFMatchedWriterSpec.cxx">
<polygon fill="none" stroke="#000000" points="680.5,-206 680.5,-258 910.5,-258 910.5,-206 680.5,-206"/>
<text text-anchor="start" x="688.5" y="-246" font-family="Helvetica,sans-Serif" font-size="10.00" fill="#000000">/home/travis/build</text>
<text text-anchor="start" x="688.5" y="-235" font-family="Helvetica,sans-Serif" font-size="10.00" fill="#000000">/AliceO2Group/AliceO2</text>
<text text-anchor="start" x="688.5" y="-224" font-family="Helvetica,sans-Serif" font-size="10.00" fill="#000000">/Detectors/GlobalTrackingWorkflow</text>
<text text-anchor="middle" x="795.5" y="-213" font-family="Helvetica,sans-Serif" font-size="10.00" fill="#000000">/tofworkflow/src/TOFMatchedWriterSpec.cxx</text>
</a>
</g>
</g>
<!-- Node50&#45;&gt;Node57 -->
<g id="edge9" class="edge">
<title>Node50&#45;&gt;Node57</title>
<path fill="none" stroke="#191970" d="M838.2241,-292.1749C830.0795,-280.7035 821.4051,-268.486 814.0154,-258.078"/>
<polygon fill="#191970" stroke="#191970" points="835.392,-294.2318 844.0352,-300.3594 841.0997,-290.1793 835.392,-294.2318"/>
</g>
<!-- Node58 -->
<g id="node9" class="node">
<title>Node58</title>
<g id="a_node9"><a xlink:href="../../dc/d24/TOF_2reconstruction_2include_2TOFReconstruction_2Clusterer_8h.html" target="_top" xlink:title="/home/travis/build\l/AliceO2Group/AliceO2\l/Detectors/TOF/reconstruction\l/include/TOFReconstruction\l/Clusterer.h">
<polygon fill="none" stroke="#000000" points="967,-200.5 967,-263.5 1128,-263.5 1128,-200.5 967,-200.5"/>
<text text-anchor="start" x="975" y="-251.5" font-family="Helvetica,sans-Serif" font-size="10.00" fill="#000000">/home/travis/build</text>
<text text-anchor="start" x="975" y="-240.5" font-family="Helvetica,sans-Serif" font-size="10.00" fill="#000000">/AliceO2Group/AliceO2</text>
<text text-anchor="start" x="975" y="-229.5" font-family="Helvetica,sans-Serif" font-size="10.00" fill="#000000">/Detectors/TOF/reconstruction</text>
<text text-anchor="start" x="975" y="-218.5" font-family="Helvetica,sans-Serif" font-size="10.00" fill="#000000">/include/TOFReconstruction</text>
<text text-anchor="middle" x="1047.5" y="-207.5" font-family="Helvetica,sans-Serif" font-size="10.00" fill="#000000">/Clusterer.h</text>
</a>
</g>
</g>
<!-- Node50&#45;&gt;Node58 -->
<g id="edge10" class="edge">
<title>Node50&#45;&gt;Node58</title>
<path fill="none" stroke="#191970" d="M932.6222,-295.4684C951.5285,-285.0229 971.9685,-273.7301 990.2926,-263.6063"/>
<polygon fill="#191970" stroke="#191970" points="930.8299,-292.4599 923.7695,-300.3594 934.2151,-298.587 930.8299,-292.4599"/>
</g>
<!-- Node61 -->
<g id="node12" class="node">
<title>Node61</title>
<g id="a_node12"><a xlink:href="../../d5/d8a/TOF_2reconstruction_2src_2Clusterer_8cxx.html" target="_top" xlink:title="/home/travis/build\l/AliceO2Group/AliceO2\l/Detectors/TOF/reconstruction\l/src/Clusterer.cxx">
<polygon fill="none" stroke="#000000" points="689,-106 689,-158 850,-158 850,-106 689,-106"/>
<text text-anchor="start" x="697" y="-146" font-family="Helvetica,sans-Serif" font-size="10.00" fill="#000000">/home/travis/build</text>
<text text-anchor="start" x="697" y="-135" font-family="Helvetica,sans-Serif" font-size="10.00" fill="#000000">/AliceO2Group/AliceO2</text>
<text text-anchor="start" x="697" y="-124" font-family="Helvetica,sans-Serif" font-size="10.00" fill="#000000">/Detectors/TOF/reconstruction</text>
<text text-anchor="middle" x="769.5" y="-113" font-family="Helvetica,sans-Serif" font-size="10.00" fill="#000000">/src/Clusterer.cxx</text>
</a>
</g>
</g>
<!-- Node50&#45;&gt;Node61 -->
<g id="edge15" class="edge">
<title>Node50&#45;&gt;Node61</title>
<path fill="none" stroke="#191970" d="M904.2592,-292.3416C910.5138,-283.6131 916.0714,-273.9761 919.5,-264 928.7449,-237.0999 934.9114,-223.9076 919.5,-200 914.3103,-191.9492 873.4555,-173.6955 835.6945,-158.1258"/>
<polygon fill="#191970" stroke="#191970" points="901.383,-290.3412 898.0957,-300.4132 906.9464,-294.5895 901.383,-290.3412"/>
</g>
<!-- Node62 -->
<g id="node13" class="node">
<title>Node62</title>
<g id="a_node13"><a xlink:href="../../da/df1/TOFClusterizerSpec_8cxx.html" target="_top" xlink:title="/home/travis/build\l/AliceO2Group/AliceO2\l/Detectors/TOF/workflow\l/src/TOFClusterizerSpec.cxx">
<polygon fill="none" stroke="#000000" points="1047.5,-106 1047.5,-158 1199.5,-158 1199.5,-106 1047.5,-106"/>
<text text-anchor="start" x="1055.5" y="-146" font-family="Helvetica,sans-Serif" font-size="10.00" fill="#000000">/home/travis/build</text>
<text text-anchor="start" x="1055.5" y="-135" font-family="Helvetica,sans-Serif" font-size="10.00" fill="#000000">/AliceO2Group/AliceO2</text>
<text text-anchor="start" x="1055.5" y="-124" font-family="Helvetica,sans-Serif" font-size="10.00" fill="#000000">/Detectors/TOF/workflow</text>
<text text-anchor="middle" x="1123.5" y="-113" font-family="Helvetica,sans-Serif" font-size="10.00" fill="#000000">/src/TOFClusterizerSpec.cxx</text>
</a>
</g>
</g>
<!-- Node50&#45;&gt;Node62 -->
<g id="edge22" class="edge">
<title>Node50&#45;&gt;Node62</title>
<path fill="none" stroke="#191970" d="M957.4111,-321.1132C1026.8971,-310.7029 1114.4087,-292.3449 1136.5,-264 1160.0691,-233.759 1147.4808,-187.0179 1135.7981,-158.0319"/>
<polygon fill="#191970" stroke="#191970" points="956.6881,-317.6816 947.2997,-322.5917 957.701,-324.6079 956.6881,-317.6816"/>
</g>
<!-- Node63 -->
<g id="node14" class="node">
<title>Node63</title>
<g id="a_node14"><a xlink:href="../../d8/d8a/TOF_2workflow_2include_2TOFWorkflowUtils_2ClusterReaderSpec_8h.html" target="_top" xlink:title="/home/travis/build\l/AliceO2Group/AliceO2\l/Detectors/TOF/workflow\l/include/TOFWorkflowUtils\l/ClusterReaderSpec.h">
<polygon fill="none" stroke="#000000" points="1447.5,-200.5 1447.5,-263.5 1591.5,-263.5 1591.5,-200.5 1447.5,-200.5"/>
<text text-anchor="start" x="1455.5" y="-251.5" font-family="Helvetica,sans-Serif" font-size="10.00" fill="#000000">/home/travis/build</text>
<text text-anchor="start" x="1455.5" y="-240.5" font-family="Helvetica,sans-Serif" font-size="10.00" fill="#000000">/AliceO2Group/AliceO2</text>
<text text-anchor="start" x="1455.5" y="-229.5" font-family="Helvetica,sans-Serif" font-size="10.00" fill="#000000">/Detectors/TOF/workflow</text>
<text text-anchor="start" x="1455.5" y="-218.5" font-family="Helvetica,sans-Serif" font-size="10.00" fill="#000000">/include/TOFWorkflowUtils</text>
<text text-anchor="middle" x="1519.5" y="-207.5" font-family="Helvetica,sans-Serif" font-size="10.00" fill="#000000">/ClusterReaderSpec.h</text>
</a>
</g>
</g>
<!-- Node50&#45;&gt;Node63 -->
<g id="edge16" class="edge">
<title>Node50&#45;&gt;Node63</title>
<path fill="none" stroke="#191970" d="M957.2407,-318.104C1088.2615,-298.0396 1327.7967,-261.3573 1447.4652,-243.0314"/>
<polygon fill="#191970" stroke="#191970" points="956.5805,-314.6642 947.2256,-319.6377 957.6402,-321.5836 956.5805,-314.6642"/>
</g>
<!-- Node69 -->
<g id="node20" class="node">
<title>Node69</title>
<g id="a_node20"><a xlink:href="../../d5/d8f/TOFClusterWriterSpec_8cxx.html" target="_top" xlink:title="/home/travis/build\l/AliceO2Group/AliceO2\l/Detectors/TOF/workflow\l/src/TOFClusterWriterSpec.cxx">
<polygon fill="none" stroke="#000000" points="1610,-206 1610,-258 1773,-258 1773,-206 1610,-206"/>
<text text-anchor="start" x="1618" y="-246" font-family="Helvetica,sans-Serif" font-size="10.00" fill="#000000">/home/travis/build</text>
<text text-anchor="start" x="1618" y="-235" font-family="Helvetica,sans-Serif" font-size="10.00" fill="#000000">/AliceO2Group/AliceO2</text>
<text text-anchor="start" x="1618" y="-224" font-family="Helvetica,sans-Serif" font-size="10.00" fill="#000000">/Detectors/TOF/workflow</text>
<text text-anchor="middle" x="1691.5" y="-213" font-family="Helvetica,sans-Serif" font-size="10.00" fill="#000000">/src/TOFClusterWriterSpec.cxx</text>
</a>
</g>
</g>
<!-- Node50&#45;&gt;Node69 -->
<g id="edge23" class="edge">
<title>Node50&#45;&gt;Node69</title>
<path fill="none" stroke="#191970" d="M957.1938,-326.3918C1125.5311,-315.5195 1480.1244,-290.32 1600.5,-264 1607.944,-262.3724 1615.6165,-260.3125 1623.2012,-258.0253"/>
<polygon fill="#191970" stroke="#191970" points="956.8687,-322.9053 947.114,-327.04 957.318,-329.8909 956.8687,-322.9053"/>
</g>
<!-- Node70 -->
<g id="node21" class="node">
<title>Node70</title>
<g id="a_node21"><a xlink:href="../../d3/d0c/TrackInterpolation_8h.html" target="_top" xlink:title="Definition of the TrackInterpolation class. ">
<polygon fill="none" stroke="#000000" points="2327,-200.5 2327,-263.5 2506,-263.5 2506,-200.5 2327,-200.5"/>
<text text-anchor="start" x="2335" y="-251.5" font-family="Helvetica,sans-Serif" font-size="10.00" fill="#000000">/home/travis/build</text>
<text text-anchor="start" x="2335" y="-240.5" font-family="Helvetica,sans-Serif" font-size="10.00" fill="#000000">/AliceO2Group/AliceO2</text>
<text text-anchor="start" x="2335" y="-229.5" font-family="Helvetica,sans-Serif" font-size="10.00" fill="#000000">/Detectors/TPC/calibration</text>
<text text-anchor="start" x="2335" y="-218.5" font-family="Helvetica,sans-Serif" font-size="10.00" fill="#000000">/SpacePoints/include/SpacePoints</text>
<text text-anchor="middle" x="2416.5" y="-207.5" font-family="Helvetica,sans-Serif" font-size="10.00" fill="#000000">/TrackInterpolation.h</text>
</a>
</g>
</g>
<!-- Node50&#45;&gt;Node70 -->
<g id="edge24" class="edge">
<title>Node50&#45;&gt;Node70</title>
<path fill="none" stroke="#191970" d="M957.4445,-326.1326C1232.3994,-308.3936 2052.8351,-255.4623 2326.5157,-237.8054"/>
<polygon fill="#191970" stroke="#191970" points="956.8647,-322.6627 947.1108,-326.7993 957.3154,-329.6481 956.8647,-322.6627"/>
</g>
<!-- Node53 -->
<g id="node4" class="node">
<title>Node53</title>
<g id="a_node4"><a xlink:href="../../db/d6a/MatchTOF_8cxx.html" target="_top" xlink:title="/home/travis/build\l/AliceO2Group/AliceO2\l/Detectors/GlobalTracking\l/src/MatchTOF.cxx">
<polygon fill="none" stroke="#000000" points="227.5,-106 227.5,-158 369.5,-158 369.5,-106 227.5,-106"/>
<text text-anchor="start" x="235.5" y="-146" font-family="Helvetica,sans-Serif" font-size="10.00" fill="#000000">/home/travis/build</text>
<text text-anchor="start" x="235.5" y="-135" font-family="Helvetica,sans-Serif" font-size="10.00" fill="#000000">/AliceO2Group/AliceO2</text>
<text text-anchor="start" x="235.5" y="-124" font-family="Helvetica,sans-Serif" font-size="10.00" fill="#000000">/Detectors/GlobalTracking</text>
<text text-anchor="middle" x="298.5" y="-113" font-family="Helvetica,sans-Serif" font-size="10.00" fill="#000000">/src/MatchTOF.cxx</text>
</a>
</g>
</g>
<!-- Node52&#45;&gt;Node53 -->
<g id="edge3" class="edge">
<title>Node52&#45;&gt;Node53</title>
<path fill="none" stroke="#191970" d="M298.5,-195.8962C298.5,-183.4433 298.5,-169.7413 298.5,-158.2299"/>
<polygon fill="#191970" stroke="#191970" points="295.0001,-195.9872 298.5,-205.9872 302.0001,-195.9873 295.0001,-195.9872"/>
</g>
<!-- Node52&#45;&gt;Node54 -->
<g id="edge4" class="edge">
<title>Node52&#45;&gt;Node54</title>
<path fill="none" stroke="#191970" d="M239.108,-201.3856C212.225,-187.5284 180.782,-171.3206 155.0488,-158.0561"/>
<polygon fill="#191970" stroke="#191970" points="237.543,-204.5164 248.0352,-205.9872 240.7502,-198.2944 237.543,-204.5164"/>
</g>
<!-- Node52&#45;&gt;Node55 -->
<g id="edge5" class="edge">
<title>Node52&#45;&gt;Node55</title>
<path fill="none" stroke="#191970" d="M363.545,-201.7465C393.5075,-187.8105 428.7127,-171.436 457.4795,-158.0561"/>
<polygon fill="#191970" stroke="#191970" points="362.0186,-198.5963 354.4275,-205.9872 364.9708,-204.9434 362.0186,-198.5963"/>
</g>
<!-- Node59 -->
<g id="node10" class="node">
<title>Node59</title>
<g id="a_node10"><a xlink:href="../../d4/d74/TOF_2reconstruction_2include_2TOFReconstruction_2ClustererTask_8h.html" target="_top" xlink:title="/home/travis/build\l/AliceO2Group/AliceO2\l/Detectors/TOF/reconstruction\l/include/TOFReconstruction\l/ClustererTask.h">
<polygon fill="none" stroke="#000000" points="868,-100.5 868,-163.5 1029,-163.5 1029,-100.5 868,-100.5"/>
<text text-anchor="start" x="876" y="-151.5" font-family="Helvetica,sans-Serif" font-size="10.00" fill="#000000">/home/travis/build</text>
<text text-anchor="start" x="876" y="-140.5" font-family="Helvetica,sans-Serif" font-size="10.00" fill="#000000">/AliceO2Group/AliceO2</text>
<text text-anchor="start" x="876" y="-129.5" font-family="Helvetica,sans-Serif" font-size="10.00" fill="#000000">/Detectors/TOF/reconstruction</text>
<text text-anchor="start" x="876" y="-118.5" font-family="Helvetica,sans-Serif" font-size="10.00" fill="#000000">/include/TOFReconstruction</text>
<text text-anchor="middle" x="948.5" y="-107.5" font-family="Helvetica,sans-Serif" font-size="10.00" fill="#000000">/ClustererTask.h</text>
</a>
</g>
</g>
<!-- Node58&#45;&gt;Node59 -->
<g id="edge11" class="edge">
<title>Node58&#45;&gt;Node59</title>
<path fill="none" stroke="#191970" d="M1008.9693,-193.0801C999.3641,-183.3779 989.1787,-173.0896 979.9602,-163.778"/>
<polygon fill="#191970" stroke="#191970" points="1006.653,-195.7153 1016.1758,-200.3594 1011.6276,-190.7904 1006.653,-195.7153"/>
</g>
<!-- Node58&#45;&gt;Node61 -->
<g id="edge13" class="edge">
<title>Node58&#45;&gt;Node61</title>
<path fill="none" stroke="#191970" d="M956.8673,-199.3983C919.6176,-185.9991 877.0736,-170.6955 841.95,-158.0612"/>
<polygon fill="#191970" stroke="#191970" points="956.123,-202.8501 966.7175,-202.9415 958.4924,-196.2633 956.123,-202.8501"/>
</g>
<!-- Node58&#45;&gt;Node62 -->
<g id="edge14" class="edge">
<title>Node58&#45;&gt;Node62</title>
<path fill="none" stroke="#191970" d="M1077.7671,-192.1749C1086.4853,-180.7035 1095.7706,-168.486 1103.6807,-158.078"/>
<polygon fill="#191970" stroke="#191970" points="1074.8112,-190.2799 1071.5469,-200.3594 1080.3843,-194.5155 1074.8112,-190.2799"/>
</g>
<!-- Node60 -->
<g id="node11" class="node">
<title>Node60</title>
<g id="a_node11"><a xlink:href="../../d5/d10/TOF_2reconstruction_2src_2ClustererTask_8cxx.html" target="_top" xlink:title="/home/travis/build\l/AliceO2Group/AliceO2\l/Detectors/TOF/reconstruction\l/src/ClustererTask.cxx">
<polygon fill="none" stroke="#000000" points="868,-6 868,-58 1029,-58 1029,-6 868,-6"/>
<text text-anchor="start" x="876" y="-46" font-family="Helvetica,sans-Serif" font-size="10.00" fill="#000000">/home/travis/build</text>
<text text-anchor="start" x="876" y="-35" font-family="Helvetica,sans-Serif" font-size="10.00" fill="#000000">/AliceO2Group/AliceO2</text>
<text text-anchor="start" x="876" y="-24" font-family="Helvetica,sans-Serif" font-size="10.00" fill="#000000">/Detectors/TOF/reconstruction</text>
<text text-anchor="middle" x="948.5" y="-13" font-family="Helvetica,sans-Serif" font-size="10.00" fill="#000000">/src/ClustererTask.cxx</text>
</a>
</g>
</g>
<!-- Node59&#45;&gt;Node60 -->
<g id="edge12" class="edge">
<title>Node59&#45;&gt;Node60</title>
<path fill="none" stroke="#191970" d="M948.5,-90.1631C948.5,-79.2863 948.5,-67.8798 948.5,-58.078"/>
<polygon fill="#191970" stroke="#191970" points="945.0001,-90.3593 948.5,-100.3594 952.0001,-90.3594 945.0001,-90.3593"/>
</g>
<!-- Node64 -->
<g id="node15" class="node">
<title>Node64</title>
<g id="a_node15"><a xlink:href="../../de/d48/tof-matcher-global_8cxx.html" target="_top" xlink:title="/home/travis/build\l/AliceO2Group/AliceO2\l/Detectors/GlobalTrackingWorkflow\l/tofworkflow/src/tof&#45;matcher\l&#45;global.cxx">
<polygon fill="none" stroke="#000000" points="1218,-100.5 1218,-163.5 1405,-163.5 1405,-100.5 1218,-100.5"/>
<text text-anchor="start" x="1226" y="-151.5" font-family="Helvetica,sans-Serif" font-size="10.00" fill="#000000">/home/travis/build</text>
<text text-anchor="start" x="1226" y="-140.5" font-family="Helvetica,sans-Serif" font-size="10.00" fill="#000000">/AliceO2Group/AliceO2</text>
<text text-anchor="start" x="1226" y="-129.5" font-family="Helvetica,sans-Serif" font-size="10.00" fill="#000000">/Detectors/GlobalTrackingWorkflow</text>
<text text-anchor="start" x="1226" y="-118.5" font-family="Helvetica,sans-Serif" font-size="10.00" fill="#000000">/tofworkflow/src/tof&#45;matcher</text>
<text text-anchor="middle" x="1311.5" y="-107.5" font-family="Helvetica,sans-Serif" font-size="10.00" fill="#000000">&#45;global.cxx</text>
</a>
</g>
</g>
<!-- Node63&#45;&gt;Node64 -->
<g id="edge17" class="edge">
<title>Node63&#45;&gt;Node64</title>
<path fill="none" stroke="#191970" d="M1444.9271,-196.1476C1422.7452,-185.4833 1398.6171,-173.8832 1377.0549,-163.5168"/>
<polygon fill="#191970" stroke="#191970" points="1443.4439,-199.318 1453.973,-200.4966 1446.477,-193.0092 1443.4439,-199.318"/>
</g>
<!-- Node65 -->
<g id="node16" class="node">
<title>Node65</title>
<g id="a_node16"><a xlink:href="../../da/d65/tof-matcher-tpc_8cxx.html" target="_top" xlink:title="/home/travis/build\l/AliceO2Group/AliceO2\l/Detectors/GlobalTrackingWorkflow\l/tofworkflow/src/tof&#45;matcher&#45;tpc.cxx">
<polygon fill="none" stroke="#000000" points="1423,-106 1423,-158 1616,-158 1616,-106 1423,-106"/>
<text text-anchor="start" x="1431" y="-146" font-family="Helvetica,sans-Serif" font-size="10.00" fill="#000000">/home/travis/build</text>
<text text-anchor="start" x="1431" y="-135" font-family="Helvetica,sans-Serif" font-size="10.00" fill="#000000">/AliceO2Group/AliceO2</text>
<text text-anchor="start" x="1431" y="-124" font-family="Helvetica,sans-Serif" font-size="10.00" fill="#000000">/Detectors/GlobalTrackingWorkflow</text>
<text text-anchor="middle" x="1519.5" y="-113" font-family="Helvetica,sans-Serif" font-size="10.00" fill="#000000">/tofworkflow/src/tof&#45;matcher&#45;tpc.cxx</text>
</a>
</g>
</g>
<!-- Node63&#45;&gt;Node65 -->
<g id="edge18" class="edge">
<title>Node63&#45;&gt;Node65</title>
<path fill="none" stroke="#191970" d="M1519.5,-190.1631C1519.5,-179.2863 1519.5,-167.8798 1519.5,-158.078"/>
<polygon fill="#191970" stroke="#191970" points="1516.0001,-190.3593 1519.5,-200.3594 1523.0001,-190.3594 1516.0001,-190.3593"/>
</g>
<!-- Node66 -->
<g id="node17" class="node">
<title>Node66</title>
<g id="a_node17"><a xlink:href="../../da/dfd/tof-reco-workflow_8cxx.html" target="_top" xlink:title="Basic DPL workflow for TOF reconstruction starting from digits. ">
<polygon fill="none" stroke="#000000" points="1634,-106 1634,-158 1837,-158 1837,-106 1634,-106"/>
<text text-anchor="start" x="1642" y="-146" font-family="Helvetica,sans-Serif" font-size="10.00" fill="#000000">/home/travis/build</text>
<text text-anchor="start" x="1642" y="-135" font-family="Helvetica,sans-Serif" font-size="10.00" fill="#000000">/AliceO2Group/AliceO2</text>
<text text-anchor="start" x="1642" y="-124" font-family="Helvetica,sans-Serif" font-size="10.00" fill="#000000">/Detectors/GlobalTrackingWorkflow</text>
<text text-anchor="middle" x="1735.5" y="-113" font-family="Helvetica,sans-Serif" font-size="10.00" fill="#000000">/tofworkflow/src/tof&#45;reco&#45;workflow.cxx</text>
</a>
</g>
</g>
<!-- Node63&#45;&gt;Node66 -->
<g id="edge19" class="edge">
<title>Node63&#45;&gt;Node66</title>
<path fill="none" stroke="#191970" d="M1596.646,-196.2843C1623.8302,-183.699 1653.8614,-169.7957 1679.0208,-158.1478"/>
<polygon fill="#191970" stroke="#191970" points="1595.1515,-193.1192 1587.5473,-200.4966 1598.0924,-199.4715 1595.1515,-193.1192"/>
</g>
<!-- Node67 -->
<g id="node18" class="node">
<title>Node67</title>
<g id="a_node18"><a xlink:href="../../d1/d67/TrackInterpolationWorkflow_8cxx.html" target="_top" xlink:title="/home/travis/build\l/AliceO2Group/AliceO2\l/Detectors/GlobalTrackingWorkflow\l/tpcinterpolationworkflow/src\l/TrackInterpolationWorkflow.cxx">
<polygon fill="none" stroke="#000000" points="1945,-.5 1945,-63.5 2132,-63.5 2132,-.5 1945,-.5"/>
<text text-anchor="start" x="1953" y="-51.5" font-family="Helvetica,sans-Serif" font-size="10.00" fill="#000000">/home/travis/build</text>
<text text-anchor="start" x="1953" y="-40.5" font-family="Helvetica,sans-Serif" font-size="10.00" fill="#000000">/AliceO2Group/AliceO2</text>
<text text-anchor="start" x="1953" y="-29.5" font-family="Helvetica,sans-Serif" font-size="10.00" fill="#000000">/Detectors/GlobalTrackingWorkflow</text>
<text text-anchor="start" x="1953" y="-18.5" font-family="Helvetica,sans-Serif" font-size="10.00" fill="#000000">/tpcinterpolationworkflow/src</text>
<text text-anchor="middle" x="2038.5" y="-7.5" font-family="Helvetica,sans-Serif" font-size="10.00" fill="#000000">/TrackInterpolationWorkflow.cxx</text>
</a>
</g>
</g>
<!-- Node63&#45;&gt;Node67 -->
<g id="edge20" class="edge">
<title>Node63&#45;&gt;Node67</title>
<path fill="none" stroke="#191970" d="M1601.5968,-200.0379C1709.635,-174.6392 1756.7536,-223.4772 1845.5,-164 1872.9799,-145.5832 1858.7218,-121.9172 1883.5,-100 1901.2184,-84.3274 1923.1201,-71.7875 1944.8222,-61.9599"/>
<polygon fill="#191970" stroke="#191970" points="1600.4871,-196.708 1591.6454,-202.5455 1602.1975,-203.4959 1600.4871,-196.708"/>
</g>
<!-- Node68 -->
<g id="node19" class="node">
<title>Node68</title>
<g id="a_node19"><a xlink:href="../../d5/d82/TOF_2workflow_2src_2ClusterReaderSpec_8cxx.html" target="_top" xlink:title="/home/travis/build\l/AliceO2Group/AliceO2\l/Detectors/TOF/workflow\l/src/ClusterReaderSpec.cxx">
<polygon fill="none" stroke="#000000" points="1893,-106 1893,-158 2042,-158 2042,-106 1893,-106"/>
<text text-anchor="start" x="1901" y="-146" font-family="Helvetica,sans-Serif" font-size="10.00" fill="#000000">/home/travis/build</text>
<text text-anchor="start" x="1901" y="-135" font-family="Helvetica,sans-Serif" font-size="10.00" fill="#000000">/AliceO2Group/AliceO2</text>
<text text-anchor="start" x="1901" y="-124" font-family="Helvetica,sans-Serif" font-size="10.00" fill="#000000">/Detectors/TOF/workflow</text>
<text text-anchor="middle" x="1967.5" y="-113" font-family="Helvetica,sans-Serif" font-size="10.00" fill="#000000">/src/ClusterReaderSpec.cxx</text>
</a>
</g>
</g>
<!-- Node63&#45;&gt;Node68 -->
<g id="edge21" class="edge">
<title>Node63&#45;&gt;Node68</title>
<path fill="none" stroke="#191970" d="M1601.3482,-200.025C1723.4757,-170.0131 1761.0972,-192.7929 1879.5,-164 1886.4503,-162.3098 1893.6111,-160.2554 1900.7046,-158.0117"/>
<polygon fill="#191970" stroke="#191970" points="1600.4667,-196.6376 1591.6282,-202.4799 1602.1809,-203.4245 1600.4667,-196.6376"/>
</g>
<!-- Node71 -->
<g id="node22" class="node">
<title>Node71</title>
<g id="a_node22"><a xlink:href="../../dc/d50/TPCInterpolationSpec_8h.html" target="_top" xlink:title="/home/travis/build\l/AliceO2Group/AliceO2\l/Detectors/GlobalTrackingWorkflow\l/tpcinterpolationworkflow/include\l/TPCInterpolationWorkflow/TPCInterpolationSpec.h">
<polygon fill="none" stroke="#000000" points="2285.5,-100.5 2285.5,-163.5 2547.5,-163.5 2547.5,-100.5 2285.5,-100.5"/>
<text text-anchor="start" x="2293.5" y="-151.5" font-family="Helvetica,sans-Serif" font-size="10.00" fill="#000000">/home/travis/build</text>
<text text-anchor="start" x="2293.5" y="-140.5" font-family="Helvetica,sans-Serif" font-size="10.00" fill="#000000">/AliceO2Group/AliceO2</text>
<text text-anchor="start" x="2293.5" y="-129.5" font-family="Helvetica,sans-Serif" font-size="10.00" fill="#000000">/Detectors/GlobalTrackingWorkflow</text>
<text text-anchor="start" x="2293.5" y="-118.5" font-family="Helvetica,sans-Serif" font-size="10.00" fill="#000000">/tpcinterpolationworkflow/include</text>
<text text-anchor="middle" x="2416.5" y="-107.5" font-family="Helvetica,sans-Serif" font-size="10.00" fill="#000000">/TPCInterpolationWorkflow/TPCInterpolationSpec.h</text>
</a>
</g>
</g>
<!-- Node70&#45;&gt;Node71 -->
<g id="edge25" class="edge">
<title>Node70&#45;&gt;Node71</title>
<path fill="none" stroke="#191970" d="M2416.5,-190.2111C2416.5,-181.37 2416.5,-172.1767 2416.5,-163.778"/>
<polygon fill="#191970" stroke="#191970" points="2413.0001,-190.3593 2416.5,-200.3594 2420.0001,-190.3594 2413.0001,-190.3593"/>
</g>
<!-- Node73 -->
<g id="node24" class="node">
<title>Node73</title>
<g id="a_node24"><a xlink:href="../../d2/d27/TPCResidualWriterSpec_8cxx.html" target="_top" xlink:title="/home/travis/build\l/AliceO2Group/AliceO2\l/Detectors/GlobalTrackingWorkflow\l/tpcinterpolationworkflow/src\l/TPCResidualWriterSpec.cxx">
<polygon fill="none" stroke="#000000" points="2566,-100.5 2566,-163.5 2753,-163.5 2753,-100.5 2566,-100.5"/>
<text text-anchor="start" x="2574" y="-151.5" font-family="Helvetica,sans-Serif" font-size="10.00" fill="#000000">/home/travis/build</text>
<text text-anchor="start" x="2574" y="-140.5" font-family="Helvetica,sans-Serif" font-size="10.00" fill="#000000">/AliceO2Group/AliceO2</text>
<text text-anchor="start" x="2574" y="-129.5" font-family="Helvetica,sans-Serif" font-size="10.00" fill="#000000">/Detectors/GlobalTrackingWorkflow</text>
<text text-anchor="start" x="2574" y="-118.5" font-family="Helvetica,sans-Serif" font-size="10.00" fill="#000000">/tpcinterpolationworkflow/src</text>
<text text-anchor="middle" x="2659.5" y="-107.5" font-family="Helvetica,sans-Serif" font-size="10.00" fill="#000000">/TPCResidualWriterSpec.cxx</text>
</a>
</g>
</g>
<!-- Node70&#45;&gt;Node73 -->
<g id="edge28" class="edge">
<title>Node70&#45;&gt;Node73</title>
<path fill="none" stroke="#191970" d="M2502.5859,-196.5737C2528.7834,-185.7928 2557.388,-174.0214 2582.9143,-163.5168"/>
<polygon fill="#191970" stroke="#191970" points="2500.9688,-193.4543 2493.0532,-200.4966 2503.6327,-199.9276 2500.9688,-193.4543"/>
</g>
<!-- Node74 -->
<g id="node25" class="node">
<title>Node74</title>
<g id="a_node25"><a xlink:href="../../da/ddb/TrackResiduals_8h.html" target="_top" xlink:title="Definition of the TrackResiduals class. ">
<polygon fill="none" stroke="#000000" points="2771,-100.5 2771,-163.5 2950,-163.5 2950,-100.5 2771,-100.5"/>
<text text-anchor="start" x="2779" y="-151.5" font-family="Helvetica,sans-Serif" font-size="10.00" fill="#000000">/home/travis/build</text>
<text text-anchor="start" x="2779" y="-140.5" font-family="Helvetica,sans-Serif" font-size="10.00" fill="#000000">/AliceO2Group/AliceO2</text>
<text text-anchor="start" x="2779" y="-129.5" font-family="Helvetica,sans-Serif" font-size="10.00" fill="#000000">/Detectors/TPC/calibration</text>
<text text-anchor="start" x="2779" y="-118.5" font-family="Helvetica,sans-Serif" font-size="10.00" fill="#000000">/SpacePoints/include/SpacePoints</text>
<text text-anchor="middle" x="2860.5" y="-107.5" font-family="Helvetica,sans-Serif" font-size="10.00" fill="#000000">/TrackResiduals.h</text>
</a>
</g>
</g>
<!-- Node70&#45;&gt;Node74 -->
<g id="edge29" class="edge">
<title>Node70&#45;&gt;Node74</title>
<path fill="none" stroke="#191970" d="M2516.1827,-215.5665C2585.466,-203.3626 2679.6876,-185.2059 2761.5,-164 2764.5599,-163.2069 2767.6641,-162.3726 2770.7922,-161.5066"/>
<polygon fill="#191970" stroke="#191970" points="2515.3926,-212.1515 2506.146,-217.3235 2516.5997,-219.0466 2515.3926,-212.1515"/>
</g>
<!-- Node76 -->
<g id="node27" class="node">
<title>Node76</title>
<g id="a_node27"><a xlink:href="../../d4/d15/TrackInterpolation_8cxx.html" target="_top" xlink:title="Implementation of the TrackInterpolation class. ">
<polygon fill="none" stroke="#000000" points="2060,-106 2060,-158 2267,-158 2267,-106 2060,-106"/>
<text text-anchor="start" x="2068" y="-146" font-family="Helvetica,sans-Serif" font-size="10.00" fill="#000000">/home/travis/build</text>
<text text-anchor="start" x="2068" y="-135" font-family="Helvetica,sans-Serif" font-size="10.00" fill="#000000">/AliceO2Group/AliceO2</text>
<text text-anchor="start" x="2068" y="-124" font-family="Helvetica,sans-Serif" font-size="10.00" fill="#000000">/Detectors/TPC/calibration</text>
<text text-anchor="middle" x="2163.5" y="-113" font-family="Helvetica,sans-Serif" font-size="10.00" fill="#000000">/SpacePoints/src/TrackInterpolation.cxx</text>
</a>
</g>
</g>
<!-- Node70&#45;&gt;Node76 -->
<g id="edge31" class="edge">
<title>Node70&#45;&gt;Node76</title>
<path fill="none" stroke="#191970" d="M2327.3834,-196.7761C2295.217,-184.062 2259.5074,-169.9476 2229.6539,-158.1478"/>
<polygon fill="#191970" stroke="#191970" points="2326.21,-200.0757 2336.7965,-200.4966 2328.7831,-193.5658 2326.21,-200.0757"/>
</g>
<!-- Node71&#45;&gt;Node67 -->
<g id="edge27" class="edge">
<title>Node71&#45;&gt;Node67</title>
<path fill="none" stroke="#191970" d="M2287.6373,-97.9093C2236.6106,-84.4102 2179.0553,-69.1839 2132.1293,-56.7696"/>
<polygon fill="#191970" stroke="#191970" points="2286.8547,-101.3226 2297.4173,-100.4966 2288.645,-94.5554 2286.8547,-101.3226"/>
</g>
<!-- Node72 -->
<g id="node23" class="node">
<title>Node72</title>
<g id="a_node23"><a xlink:href="../../d8/d85/TPCInterpolationSpec_8cxx.html" target="_top" xlink:title="/home/travis/build\l/AliceO2Group/AliceO2\l/Detectors/GlobalTrackingWorkflow\l/tpcinterpolationworkflow/src\l/TPCInterpolationSpec.cxx">
<polygon fill="none" stroke="#000000" points="2323,-.5 2323,-63.5 2510,-63.5 2510,-.5 2323,-.5"/>
<text text-anchor="start" x="2331" y="-51.5" font-family="Helvetica,sans-Serif" font-size="10.00" fill="#000000">/home/travis/build</text>
<text text-anchor="start" x="2331" y="-40.5" font-family="Helvetica,sans-Serif" font-size="10.00" fill="#000000">/AliceO2Group/AliceO2</text>
<text text-anchor="start" x="2331" y="-29.5" font-family="Helvetica,sans-Serif" font-size="10.00" fill="#000000">/Detectors/GlobalTrackingWorkflow</text>
<text text-anchor="start" x="2331" y="-18.5" font-family="Helvetica,sans-Serif" font-size="10.00" fill="#000000">/tpcinterpolationworkflow/src</text>
<text text-anchor="middle" x="2416.5" y="-7.5" font-family="Helvetica,sans-Serif" font-size="10.00" fill="#000000">/TPCInterpolationSpec.cxx</text>
</a>
</g>
</g>
<!-- Node71&#45;&gt;Node72 -->
<g id="edge26" class="edge">
<title>Node71&#45;&gt;Node72</title>
<path fill="none" stroke="#191970" d="M2416.5,-90.2111C2416.5,-81.37 2416.5,-72.1767 2416.5,-63.778"/>
<polygon fill="#191970" stroke="#191970" points="2413.0001,-90.3593 2416.5,-100.3594 2420.0001,-90.3594 2413.0001,-90.3593"/>
</g>
<!-- Node75 -->
<g id="node26" class="node">
<title>Node75</title>
<g id="a_node26"><a xlink:href="../../d9/df0/TrackResiduals_8cxx.html" target="_top" xlink:title="Implementation of the TrackResiduals class. ">
<polygon fill="none" stroke="#000000" points="2765,-6 2765,-58 2956,-58 2956,-6 2765,-6"/>
<text text-anchor="start" x="2773" y="-46" font-family="Helvetica,sans-Serif" font-size="10.00" fill="#000000">/home/travis/build</text>
<text text-anchor="start" x="2773" y="-35" font-family="Helvetica,sans-Serif" font-size="10.00" fill="#000000">/AliceO2Group/AliceO2</text>
<text text-anchor="start" x="2773" y="-24" font-family="Helvetica,sans-Serif" font-size="10.00" fill="#000000">/Detectors/TPC/calibration</text>
<text text-anchor="middle" x="2860.5" y="-13" font-family="Helvetica,sans-Serif" font-size="10.00" fill="#000000">/SpacePoints/src/TrackResiduals.cxx</text>
</a>
</g>
</g>
<!-- Node74&#45;&gt;Node75 -->
<g id="edge30" class="edge">
<title>Node74&#45;&gt;Node75</title>
<path fill="none" stroke="#191970" d="M2860.5,-90.1631C2860.5,-79.2863 2860.5,-67.8798 2860.5,-58.078"/>
<polygon fill="#191970" stroke="#191970" points="2857.0001,-90.3593 2860.5,-100.3594 2864.0001,-90.3594 2857.0001,-90.3593"/>
</g>
</g>
</svg>
        <g id="navigator" transform="translate(0 0)" fill="#404254">
                <rect fill="#f2f5e9" fill-opacity="0.5" stroke="#606060" stroke-width=".5" x="0" y="0" width="60" height="60"/>
                <use id="zoomplus" xlink:href="#zoomPlus" x="17" y="9" onmousedown="handleZoom(evt,'in')"/>
                <use id="zoomminus" xlink:href="#zoomMin" x="42" y="9" onmousedown="handleZoom(evt,'out')"/>
                <use id="reset" xlink:href="#resetDef" x="30" y="36" onmousedown="handleReset()"/>
                <g id="arrowUp" xlink:href="#dirArrow" transform="translate(30 24)" onmousedown="handlePan(0,-1)">
                  <use xlink:href="#rim" fill="#404040">
                        <set attributeName="fill" to="#808080" begin="arrowUp.mouseover" end="arrowUp.mouseout"/>
                  </use>
                  <path fill="none" stroke="white" stroke-width="1.5" d="M0,-3.0v7 M-2.5,-0.5L0,-3.0L2.5,-0.5"/>
                </g>
                <g id="arrowRight" xlink:href="#dirArrow" transform="rotate(90) translate(36 -43)" onmousedown="handlePan(1,0)">
                  <use xlink:href="#rim" fill="#404040">
                        <set attributeName="fill" to="#808080" begin="arrowRight.mouseover" end="arrowRight.mouseout"/>
                  </use>
                  <path fill="none" stroke="white" stroke-width="1.5" d="M0,-3.0v7 M-2.5,-0.5L0,-3.0L2.5,-0.5"/>
                </g>
                <g id="arrowDown" xlink:href="#dirArrow" transform="rotate(180) translate(-30 -48)" onmousedown="handlePan(0,1)">
                  <use xlink:href="#rim" fill="#404040">
                        <set attributeName="fill" to="#808080" begin="arrowDown.mouseover" end="arrowDown.mouseout"/>
                  </use>
                  <path fill="none" stroke="white" stroke-width="1.5" d="M0,-3.0v7 M-2.5,-0.5L0,-3.0L2.5,-0.5"/>
                </g>
                <g id="arrowLeft" xlink:href="#dirArrow" transform="rotate(270) translate(-36 17)" onmousedown="handlePan(-1,0)">
                  <use xlink:href="#rim" fill="#404040">
                        <set attributeName="fill" to="#808080" begin="arrowLeft.mouseover" end="arrowLeft.mouseout"/>
                  </use>
                  <path fill="none" stroke="white" stroke-width="1.5" d="M0,-3.0v7 M-2.5,-0.5L0,-3.0L2.5,-0.5"/>
                </g>
        </g>
        <svg viewBox="0 0 15 15" width="100%" height="30px" preserveAspectRatio="xMaxYMin meet">
         <g id="arrow_out" transform="scale(0.3 0.3)">
          <a xlink:href="DataFormats_2Detectors_2TOF_2include_2DataFormatsTOF_2Cluster_8h__dep__incl_org.svg" target="_base">
           <rect id="button" ry="5" rx="5" y="6" x="6" height="38" width="38"
                fill="#f2f5e9" fill-opacity="0.5" stroke="#606060" stroke-width="1.0"/>
           <path id="arrow"
             d="M 11.500037,31.436501 C 11.940474,20.09759 22.043105,11.32322 32.158766,21.979434 L 37.068811,17.246167 C 37.068811,17.246167 37.088388,32 37.088388,32 L 22.160133,31.978069 C 22.160133,31.978069 26.997745,27.140456 26.997745,27.140456 C 18.528582,18.264221 13.291696,25.230495 11.500037,31.436501 z"
             style="fill:#404040;"/>
          </a>
         </g>
        </svg>
</svg>
