<?xml version="1.0" encoding="UTF-8" standalone="no"?>
<!DOCTYPE svg PUBLIC "-//W3C//DTD SVG 1.1//EN"
 "http://www.w3.org/Graphics/SVG/1.1/DTD/svg11.dtd">
<!-- Generated by graphviz version 2.40.1 (20161225.0304)
 -->
<!-- Title: /home/travis/build/AliceO2Group/AliceO2/DataFormats/Reconstruction/include/ReconstructionDataFormats/VtxTrackIndex.h Pages: 1 -->
<svg width="1330pt" height="561pt"
 viewBox="0.00 0.00 1330.00 561.00" xmlns="http://www.w3.org/2000/svg" xmlns:xlink="http://www.w3.org/1999/xlink">
<g id="graph0" class="graph" transform="scale(1 1) rotate(0) translate(4 557)">
<title>/home/travis/build/AliceO2Group/AliceO2/DataFormats/Reconstruction/include/ReconstructionDataFormats/VtxTrackIndex.h</title>
<!-- Node7 -->
<g id="node1" class="node">
<title>Node7</title>
<polygon fill="#bfbfbf" stroke="#000000" points="489,-489.5 489,-552.5 682,-552.5 682,-489.5 489,-489.5"/>
<text text-anchor="start" x="497" y="-540.5" font-family="Helvetica,sans-Serif" font-size="10.00" fill="#000000">/home/travis/build</text>
<text text-anchor="start" x="497" y="-529.5" font-family="Helvetica,sans-Serif" font-size="10.00" fill="#000000">/AliceO2Group/AliceO2</text>
<text text-anchor="start" x="497" y="-518.5" font-family="Helvetica,sans-Serif" font-size="10.00" fill="#000000">/DataFormats/Reconstruction</text>
<text text-anchor="start" x="497" y="-507.5" font-family="Helvetica,sans-Serif" font-size="10.00" fill="#000000">/include/ReconstructionDataFormats</text>
<text text-anchor="middle" x="585.5" y="-496.5" font-family="Helvetica,sans-Serif" font-size="10.00" fill="#000000">/VtxTrackIndex.h</text>
</g>
<!-- Node8 -->
<g id="node2" class="node">
<title>Node8</title>
<g id="a_node2"><a xlink:href="../../d7/dac/VtxTrackRef_8h.html" target="_top" xlink:title="Referenc on track indices contributing to the vertex, with possibility chose tracks from specific sou...">
<polygon fill="none" stroke="#000000" points="427,-389.5 427,-452.5 620,-452.5 620,-389.5 427,-389.5"/>
<text text-anchor="start" x="435" y="-440.5" font-family="Helvetica,sans-Serif" font-size="10.00" fill="#000000">/home/travis/build</text>
<text text-anchor="start" x="435" y="-429.5" font-family="Helvetica,sans-Serif" font-size="10.00" fill="#000000">/AliceO2Group/AliceO2</text>
<text text-anchor="start" x="435" y="-418.5" font-family="Helvetica,sans-Serif" font-size="10.00" fill="#000000">/DataFormats/Reconstruction</text>
<text text-anchor="start" x="435" y="-407.5" font-family="Helvetica,sans-Serif" font-size="10.00" fill="#000000">/include/ReconstructionDataFormats</text>
<text text-anchor="middle" x="523.5" y="-396.5" font-family="Helvetica,sans-Serif" font-size="10.00" fill="#000000">/VtxTrackRef.h</text>
</a>
</g>
</g>
<!-- Node7&#45;&gt;Node8 -->
<g id="edge1" class="edge">
<title>Node7&#45;&gt;Node8</title>
<path fill="none" stroke="#191970" d="M560.4826,-480.6493C554.7304,-471.3716 548.6925,-461.6331 543.2024,-452.778"/>
<polygon fill="#191970" stroke="#191970" points="557.6387,-482.7046 565.8828,-489.3594 563.588,-479.016 557.6387,-482.7046"/>
</g>
<!-- Node10 -->
<g id="node4" class="node">
<title>Node10</title>
<g id="a_node4"><a xlink:href="../../d7/d23/StandaloneAODProducer_8cxx.html" target="_top" xlink:title="/home/travis/build\l/AliceO2Group/AliceO2\l/Detectors/AOD/src/Standalone\lAODProducer.cxx">
<polygon fill="none" stroke="#000000" points="55,-295 55,-347 222,-347 222,-295 55,-295"/>
<text text-anchor="start" x="63" y="-335" font-family="Helvetica,sans-Serif" font-size="10.00" fill="#000000">/home/travis/build</text>
<text text-anchor="start" x="63" y="-324" font-family="Helvetica,sans-Serif" font-size="10.00" fill="#000000">/AliceO2Group/AliceO2</text>
<text text-anchor="start" x="63" y="-313" font-family="Helvetica,sans-Serif" font-size="10.00" fill="#000000">/Detectors/AOD/src/Standalone</text>
<text text-anchor="middle" x="138.5" y="-302" font-family="Helvetica,sans-Serif" font-size="10.00" fill="#000000">AODProducer.cxx</text>
</a>
</g>
</g>
<!-- Node7&#45;&gt;Node10 -->
<g id="edge21" class="edge">
<title>Node7&#45;&gt;Node10</title>
<path fill="none" stroke="#191970" d="M479.0647,-493.8743C441.8249,-482.9583 400.1731,-469.1094 363.5,-453 294.4617,-422.6736 220.0503,-375.9581 176.4588,-347.0005"/>
<polygon fill="#191970" stroke="#191970" points="478.357,-497.313 488.9358,-496.73 480.3024,-490.5887 478.357,-497.313"/>
</g>
<!-- Node11 -->
<g id="node5" class="node">
<title>Node11</title>
<g id="a_node5"><a xlink:href="../../d3/d93/PrimaryVertexReaderSpec_8h.html" target="_top" xlink:title="/home/travis/build\l/AliceO2Group/AliceO2\l/Detectors/GlobalTrackingWorkflow\l/include/GlobalTrackingWorkflow\l/PrimaryVertexReaderSpec.h">
<polygon fill="none" stroke="#000000" points="240,-289.5 240,-352.5 427,-352.5 427,-289.5 240,-289.5"/>
<text text-anchor="start" x="248" y="-340.5" font-family="Helvetica,sans-Serif" font-size="10.00" fill="#000000">/home/travis/build</text>
<text text-anchor="start" x="248" y="-329.5" font-family="Helvetica,sans-Serif" font-size="10.00" fill="#000000">/AliceO2Group/AliceO2</text>
<text text-anchor="start" x="248" y="-318.5" font-family="Helvetica,sans-Serif" font-size="10.00" fill="#000000">/Detectors/GlobalTrackingWorkflow</text>
<text text-anchor="start" x="248" y="-307.5" font-family="Helvetica,sans-Serif" font-size="10.00" fill="#000000">/include/GlobalTrackingWorkflow</text>
<text text-anchor="middle" x="333.5" y="-296.5" font-family="Helvetica,sans-Serif" font-size="10.00" fill="#000000">/PrimaryVertexReaderSpec.h</text>
</a>
</g>
</g>
<!-- Node7&#45;&gt;Node11 -->
<g id="edge22" class="edge">
<title>Node7&#45;&gt;Node11</title>
<path fill="none" stroke="#191970" d="M479.3423,-489.6638C457.4544,-480.1289 435.59,-468.0627 417.5,-453 384.7271,-425.7116 360.5586,-382.2471 346.7671,-352.711"/>
<polygon fill="#191970" stroke="#191970" points="478.138,-492.954 488.7133,-493.5965 480.8468,-486.4994 478.138,-492.954"/>
</g>
<!-- Node14 -->
<g id="node8" class="node">
<title>Node14</title>
<g id="a_node8"><a xlink:href="../../db/db1/PVertexerHelpers_8h.html" target="_top" xlink:title="Primary vertex finder helper classes. ">
<polygon fill="none" stroke="#000000" points="620.5,-295 620.5,-347 830.5,-347 830.5,-295 620.5,-295"/>
<text text-anchor="start" x="628.5" y="-335" font-family="Helvetica,sans-Serif" font-size="10.00" fill="#000000">/home/travis/build</text>
<text text-anchor="start" x="628.5" y="-324" font-family="Helvetica,sans-Serif" font-size="10.00" fill="#000000">/AliceO2Group/AliceO2</text>
<text text-anchor="start" x="628.5" y="-313" font-family="Helvetica,sans-Serif" font-size="10.00" fill="#000000">/Detectors/Vertexing/include</text>
<text text-anchor="middle" x="725.5" y="-302" font-family="Helvetica,sans-Serif" font-size="10.00" fill="#000000">/DetectorsVertexing/PVertexerHelpers.h</text>
</a>
</g>
</g>
<!-- Node7&#45;&gt;Node14 -->
<g id="edge23" class="edge">
<title>Node7&#45;&gt;Node14</title>
<path fill="none" stroke="#191970" d="M610.877,-480.7112C627.8128,-454.278 650.8644,-419.1526 672.5,-389 682.6222,-374.8931 694.4533,-359.6087 704.3662,-347.1103"/>
<polygon fill="#191970" stroke="#191970" points="607.8103,-479.0105 605.3789,-489.3226 613.7103,-482.7775 607.8103,-479.0105"/>
</g>
<!-- Node22 -->
<g id="node16" class="node">
<title>Node22</title>
<g id="a_node16"><a xlink:href="../../d7/d99/VertexTrackMatcher_8h.html" target="_top" xlink:title="Class for vertex track association. ">
<polygon fill="none" stroke="#000000" points="894,-295 894,-347 1115,-347 1115,-295 894,-295"/>
<text text-anchor="start" x="902" y="-335" font-family="Helvetica,sans-Serif" font-size="10.00" fill="#000000">/home/travis/build</text>
<text text-anchor="start" x="902" y="-324" font-family="Helvetica,sans-Serif" font-size="10.00" fill="#000000">/AliceO2Group/AliceO2</text>
<text text-anchor="start" x="902" y="-313" font-family="Helvetica,sans-Serif" font-size="10.00" fill="#000000">/Detectors/Vertexing/include</text>
<text text-anchor="middle" x="1004.5" y="-302" font-family="Helvetica,sans-Serif" font-size="10.00" fill="#000000">/DetectorsVertexing/VertexTrackMatcher.h</text>
</a>
</g>
</g>
<!-- Node7&#45;&gt;Node22 -->
<g id="edge24" class="edge">
<title>Node7&#45;&gt;Node22</title>
<path fill="none" stroke="#191970" d="M635.986,-482.9872C646.6745,-473.7792 657.4486,-463.5337 666.5,-453 688.2087,-427.7361 678.4592,-408.4506 705.5,-389 713.4815,-383.2588 811.847,-361.4939 893.6079,-344.1137"/>
<polygon fill="#191970" stroke="#191970" points="633.6447,-480.383 628.244,-489.498 638.1501,-485.7404 633.6447,-480.383"/>
</g>
<!-- Node26 -->
<g id="node20" class="node">
<title>Node26</title>
<g id="a_node20"><a xlink:href="../../dd/da0/VtxTrackIndex_8cxx.html" target="_top" xlink:title="/home/travis/build\l/AliceO2Group/AliceO2\l/DataFormats/Reconstruction\l/src/VtxTrackIndex.cxx">
<polygon fill="none" stroke="#000000" points="714.5,-395 714.5,-447 872.5,-447 872.5,-395 714.5,-395"/>
<text text-anchor="start" x="722.5" y="-435" font-family="Helvetica,sans-Serif" font-size="10.00" fill="#000000">/home/travis/build</text>
<text text-anchor="start" x="722.5" y="-424" font-family="Helvetica,sans-Serif" font-size="10.00" fill="#000000">/AliceO2Group/AliceO2</text>
<text text-anchor="start" x="722.5" y="-413" font-family="Helvetica,sans-Serif" font-size="10.00" fill="#000000">/DataFormats/Reconstruction</text>
<text text-anchor="middle" x="793.5" y="-402" font-family="Helvetica,sans-Serif" font-size="10.00" fill="#000000">/src/VtxTrackIndex.cxx</text>
</a>
</g>
</g>
<!-- Node7&#45;&gt;Node26 -->
<g id="edge20" class="edge">
<title>Node7&#45;&gt;Node26</title>
<path fill="none" stroke="#191970" d="M660.1303,-485.12C686.2175,-472.5781 714.9904,-458.745 739.1126,-447.1478"/>
<polygon fill="#191970" stroke="#191970" points="658.523,-482.0092 651.027,-489.4966 661.5561,-488.318 658.523,-482.0092"/>
</g>
<!-- Node9 -->
<g id="node3" class="node">
<title>Node9</title>
<g id="a_node3"><a xlink:href="../../d2/daf/VtxTrackRef_8cxx.html" target="_top" xlink:title="/home/travis/build\l/AliceO2Group/AliceO2\l/DataFormats/Reconstruction\l/src/VtxTrackRef.cxx">
<polygon fill="none" stroke="#000000" points="444.5,-295 444.5,-347 602.5,-347 602.5,-295 444.5,-295"/>
<text text-anchor="start" x="452.5" y="-335" font-family="Helvetica,sans-Serif" font-size="10.00" fill="#000000">/home/travis/build</text>
<text text-anchor="start" x="452.5" y="-324" font-family="Helvetica,sans-Serif" font-size="10.00" fill="#000000">/AliceO2Group/AliceO2</text>
<text text-anchor="start" x="452.5" y="-313" font-family="Helvetica,sans-Serif" font-size="10.00" fill="#000000">/DataFormats/Reconstruction</text>
<text text-anchor="middle" x="523.5" y="-302" font-family="Helvetica,sans-Serif" font-size="10.00" fill="#000000">/src/VtxTrackRef.cxx</text>
</a>
</g>
</g>
<!-- Node8&#45;&gt;Node9 -->
<g id="edge2" class="edge">
<title>Node8&#45;&gt;Node9</title>
<path fill="none" stroke="#191970" d="M523.5,-379.1631C523.5,-368.2863 523.5,-356.8798 523.5,-347.078"/>
<polygon fill="#191970" stroke="#191970" points="520.0001,-379.3593 523.5,-389.3594 527.0001,-379.3594 520.0001,-379.3593"/>
</g>
<!-- Node8&#45;&gt;Node10 -->
<g id="edge3" class="edge">
<title>Node8&#45;&gt;Node10</title>
<path fill="none" stroke="#191970" d="M416.9157,-399.1315C361.0349,-386.9453 291.6673,-370.6811 230.5,-353 224.1642,-351.1686 217.6236,-349.1525 211.0877,-347.0505"/>
<polygon fill="#191970" stroke="#191970" points="416.316,-402.5827 426.8306,-401.2818 417.7997,-395.7417 416.316,-402.5827"/>
</g>
<!-- Node8&#45;&gt;Node11 -->
<g id="edge4" class="edge">
<title>Node8&#45;&gt;Node11</title>
<path fill="none" stroke="#191970" d="M454.5691,-384.7206C434.5309,-374.1741 412.8155,-362.745 393.3819,-352.5168"/>
<polygon fill="#191970" stroke="#191970" points="453.1643,-387.9363 463.6436,-389.4966 456.4245,-381.7419 453.1643,-387.9363"/>
</g>
<!-- Node8&#45;&gt;Node14 -->
<g id="edge7" class="edge">
<title>Node8&#45;&gt;Node14</title>
<path fill="none" stroke="#191970" d="M596.3096,-384.9557C621.5562,-372.4573 649.3574,-358.6944 672.6815,-347.1478"/>
<polygon fill="#191970" stroke="#191970" points="594.5459,-381.9233 587.1368,-389.4966 597.6516,-388.1967 594.5459,-381.9233"/>
</g>
<!-- Node8&#45;&gt;Node22 -->
<g id="edge15" class="edge">
<title>Node8&#45;&gt;Node22</title>
<path fill="none" stroke="#191970" d="M629.9198,-398.0156C644.2292,-394.9629 658.7194,-391.891 672.5,-389 746.205,-373.5376 829.205,-356.5376 893.7787,-343.4032"/>
<polygon fill="#191970" stroke="#191970" points="629.1013,-394.6114 620.0532,-400.1235 630.5638,-401.4569 629.1013,-394.6114"/>
</g>
<!-- Node12 -->
<g id="node6" class="node">
<title>Node12</title>
<g id="a_node6"><a xlink:href="../../de/deb/primary-vertex-reader-workflow_8cxx.html" target="_top" xlink:title="/home/travis/build\l/AliceO2Group/AliceO2\l/Detectors/GlobalTrackingWorkflow\l/src/primary&#45;vertex&#45;reader&#45;workflow.cxx">
<polygon fill="none" stroke="#000000" points="204.5,-195 204.5,-247 416.5,-247 416.5,-195 204.5,-195"/>
<text text-anchor="start" x="212.5" y="-235" font-family="Helvetica,sans-Serif" font-size="10.00" fill="#000000">/home/travis/build</text>
<text text-anchor="start" x="212.5" y="-224" font-family="Helvetica,sans-Serif" font-size="10.00" fill="#000000">/AliceO2Group/AliceO2</text>
<text text-anchor="start" x="212.5" y="-213" font-family="Helvetica,sans-Serif" font-size="10.00" fill="#000000">/Detectors/GlobalTrackingWorkflow</text>
<text text-anchor="middle" x="310.5" y="-202" font-family="Helvetica,sans-Serif" font-size="10.00" fill="#000000">/src/primary&#45;vertex&#45;reader&#45;workflow.cxx</text>
</a>
</g>
</g>
<!-- Node11&#45;&gt;Node12 -->
<g id="edge5" class="edge">
<title>Node11&#45;&gt;Node12</title>
<path fill="none" stroke="#191970" d="M323.9548,-279.4993C321.43,-268.5216 318.7756,-256.9808 316.4979,-247.078"/>
<polygon fill="#191970" stroke="#191970" points="320.5702,-280.3984 326.2227,-289.3594 327.392,-278.8293 320.5702,-280.3984"/>
</g>
<!-- Node13 -->
<g id="node7" class="node">
<title>Node13</title>
<g id="a_node7"><a xlink:href="../../d9/dd2/PrimaryVertexReaderSpec_8cxx.html" target="_top" xlink:title="/home/travis/build\l/AliceO2Group/AliceO2\l/Detectors/GlobalTrackingWorkflow\l/src/PrimaryVertexReaderSpec.cxx">
<polygon fill="none" stroke="#000000" points="0,-195 0,-247 187,-247 187,-195 0,-195"/>
<text text-anchor="start" x="8" y="-235" font-family="Helvetica,sans-Serif" font-size="10.00" fill="#000000">/home/travis/build</text>
<text text-anchor="start" x="8" y="-224" font-family="Helvetica,sans-Serif" font-size="10.00" fill="#000000">/AliceO2Group/AliceO2</text>
<text text-anchor="start" x="8" y="-213" font-family="Helvetica,sans-Serif" font-size="10.00" fill="#000000">/Detectors/GlobalTrackingWorkflow</text>
<text text-anchor="middle" x="93.5" y="-202" font-family="Helvetica,sans-Serif" font-size="10.00" fill="#000000">/src/PrimaryVertexReaderSpec.cxx</text>
</a>
</g>
</g>
<!-- Node11&#45;&gt;Node13 -->
<g id="edge6" class="edge">
<title>Node11&#45;&gt;Node13</title>
<path fill="none" stroke="#191970" d="M248.5695,-285.6123C218.1582,-272.9409 184.4527,-258.8969 156.2547,-247.1478"/>
<polygon fill="#191970" stroke="#191970" points="247.315,-288.8812 257.8919,-289.4966 250.0073,-282.4196 247.315,-288.8812"/>
</g>
<!-- Node15 -->
<g id="node9" class="node">
<title>Node15</title>
<g id="a_node9"><a xlink:href="../../dd/d09/PrimaryVertexWriterSpec_8cxx.html" target="_top" xlink:title="/home/travis/build\l/AliceO2Group/AliceO2\l/Detectors/GlobalTrackingWorkflow\l/src/PrimaryVertexWriterSpec.cxx">
<polygon fill="none" stroke="#000000" points="434,-195 434,-247 621,-247 621,-195 434,-195"/>
<text text-anchor="start" x="442" y="-235" font-family="Helvetica,sans-Serif" font-size="10.00" fill="#000000">/home/travis/build</text>
<text text-anchor="start" x="442" y="-224" font-family="Helvetica,sans-Serif" font-size="10.00" fill="#000000">/AliceO2Group/AliceO2</text>
<text text-anchor="start" x="442" y="-213" font-family="Helvetica,sans-Serif" font-size="10.00" fill="#000000">/Detectors/GlobalTrackingWorkflow</text>
<text text-anchor="middle" x="527.5" y="-202" font-family="Helvetica,sans-Serif" font-size="10.00" fill="#000000">/src/PrimaryVertexWriterSpec.cxx</text>
</a>
</g>
</g>
<!-- Node14&#45;&gt;Node15 -->
<g id="edge8" class="edge">
<title>Node14&#45;&gt;Node15</title>
<path fill="none" stroke="#191970" d="M664.8834,-290.3856C637.4461,-276.5284 605.3548,-260.3206 579.091,-247.0561"/>
<polygon fill="#191970" stroke="#191970" points="663.4907,-293.6032 673.9947,-294.9872 666.6464,-287.3548 663.4907,-293.6032"/>
</g>
<!-- Node16 -->
<g id="node10" class="node">
<title>Node16</title>
<g id="a_node10"><a xlink:href="../../d4/d02/PVertexer_8h.html" target="_top" xlink:title="Primary vertex finder. ">
<polygon fill="none" stroke="#000000" points="639.5,-195 639.5,-247 811.5,-247 811.5,-195 639.5,-195"/>
<text text-anchor="start" x="647.5" y="-235" font-family="Helvetica,sans-Serif" font-size="10.00" fill="#000000">/home/travis/build</text>
<text text-anchor="start" x="647.5" y="-224" font-family="Helvetica,sans-Serif" font-size="10.00" fill="#000000">/AliceO2Group/AliceO2</text>
<text text-anchor="start" x="647.5" y="-213" font-family="Helvetica,sans-Serif" font-size="10.00" fill="#000000">/Detectors/Vertexing/include</text>
<text text-anchor="middle" x="725.5" y="-202" font-family="Helvetica,sans-Serif" font-size="10.00" fill="#000000">/DetectorsVertexing/PVertexer.h</text>
</a>
</g>
</g>
<!-- Node14&#45;&gt;Node16 -->
<g id="edge9" class="edge">
<title>Node14&#45;&gt;Node16</title>
<path fill="none" stroke="#191970" d="M725.5,-284.8962C725.5,-272.4433 725.5,-258.7413 725.5,-247.2299"/>
<polygon fill="#191970" stroke="#191970" points="722.0001,-284.9872 725.5,-294.9872 729.0001,-284.9873 722.0001,-284.9872"/>
</g>
<!-- Node21 -->
<g id="node15" class="node">
<title>Node21</title>
<g id="a_node15"><a xlink:href="../../db/dfb/PVertexerHelpers_8cxx.html" target="_top" xlink:title="Primary vertex finder helper classes. ">
<polygon fill="none" stroke="#000000" points="829.5,-195 829.5,-247 963.5,-247 963.5,-195 829.5,-195"/>
<text text-anchor="start" x="837.5" y="-235" font-family="Helvetica,sans-Serif" font-size="10.00" fill="#000000">/home/travis/build</text>
<text text-anchor="start" x="837.5" y="-224" font-family="Helvetica,sans-Serif" font-size="10.00" fill="#000000">/AliceO2Group/AliceO2</text>
<text text-anchor="start" x="837.5" y="-213" font-family="Helvetica,sans-Serif" font-size="10.00" fill="#000000">/Detectors/Vertexing/src</text>
<text text-anchor="middle" x="896.5" y="-202" font-family="Helvetica,sans-Serif" font-size="10.00" fill="#000000">/PVertexerHelpers.cxx</text>
</a>
</g>
</g>
<!-- Node14&#45;&gt;Node21 -->
<g id="edge14" class="edge">
<title>Node14&#45;&gt;Node21</title>
<path fill="none" stroke="#191970" d="M778.7799,-289.8422C802.2687,-276.106 829.5576,-260.1476 851.9441,-247.0561"/>
<polygon fill="#191970" stroke="#191970" points="776.8473,-286.9177 769.9818,-294.9872 780.381,-292.9604 776.8473,-286.9177"/>
</g>
<!-- Node17 -->
<g id="node11" class="node">
<title>Node17</title>
<g id="a_node11"><a xlink:href="../../d8/d11/PrimaryVertexingSpec_8h.html" target="_top" xlink:title="/home/travis/build\l/AliceO2Group/AliceO2\l/Detectors/GlobalTrackingWorkflow\l/include/GlobalTrackingWorkflow\l/PrimaryVertexingSpec.h">
<polygon fill="none" stroke="#000000" points="632,-89.5 632,-152.5 819,-152.5 819,-89.5 632,-89.5"/>
<text text-anchor="start" x="640" y="-140.5" font-family="Helvetica,sans-Serif" font-size="10.00" fill="#000000">/home/travis/build</text>
<text text-anchor="start" x="640" y="-129.5" font-family="Helvetica,sans-Serif" font-size="10.00" fill="#000000">/AliceO2Group/AliceO2</text>
<text text-anchor="start" x="640" y="-118.5" font-family="Helvetica,sans-Serif" font-size="10.00" fill="#000000">/Detectors/GlobalTrackingWorkflow</text>
<text text-anchor="start" x="640" y="-107.5" font-family="Helvetica,sans-Serif" font-size="10.00" fill="#000000">/include/GlobalTrackingWorkflow</text>
<text text-anchor="middle" x="725.5" y="-96.5" font-family="Helvetica,sans-Serif" font-size="10.00" fill="#000000">/PrimaryVertexingSpec.h</text>
</a>
</g>
</g>
<!-- Node16&#45;&gt;Node17 -->
<g id="edge10" class="edge">
<title>Node16&#45;&gt;Node17</title>
<path fill="none" stroke="#191970" d="M725.5,-184.8138C725.5,-174.2664 725.5,-162.829 725.5,-152.5891"/>
<polygon fill="#191970" stroke="#191970" points="722.0001,-184.9872 725.5,-194.9872 729.0001,-184.9873 722.0001,-184.9872"/>
</g>
<!-- Node20 -->
<g id="node14" class="node">
<title>Node20</title>
<g id="a_node14"><a xlink:href="../../da/d7a/PVertexer_8cxx.html" target="_top" xlink:title="Primary vertex finder. ">
<polygon fill="none" stroke="#000000" points="837.5,-95 837.5,-147 971.5,-147 971.5,-95 837.5,-95"/>
<text text-anchor="start" x="845.5" y="-135" font-family="Helvetica,sans-Serif" font-size="10.00" fill="#000000">/home/travis/build</text>
<text text-anchor="start" x="845.5" y="-124" font-family="Helvetica,sans-Serif" font-size="10.00" fill="#000000">/AliceO2Group/AliceO2</text>
<text text-anchor="start" x="845.5" y="-113" font-family="Helvetica,sans-Serif" font-size="10.00" fill="#000000">/Detectors/Vertexing/src</text>
<text text-anchor="middle" x="904.5" y="-102" font-family="Helvetica,sans-Serif" font-size="10.00" fill="#000000">/PVertexer.cxx</text>
</a>
</g>
</g>
<!-- Node16&#45;&gt;Node20 -->
<g id="edge13" class="edge">
<title>Node16&#45;&gt;Node20</title>
<path fill="none" stroke="#191970" d="M780.9478,-190.0236C805.6084,-176.2467 834.3225,-160.2053 857.8597,-147.0561"/>
<polygon fill="#191970" stroke="#191970" points="779.0859,-187.0545 772.0629,-194.9872 782.4999,-193.1656 779.0859,-187.0545"/>
</g>
<!-- Node18 -->
<g id="node12" class="node">
<title>Node18</title>
<g id="a_node12"><a xlink:href="../../d2/dfc/primary-vertexing-workflow_8cxx.html" target="_top" xlink:title="/home/travis/build\l/AliceO2Group/AliceO2\l/Detectors/GlobalTrackingWorkflow\l/src/primary&#45;vertexing&#45;workflow.cxx">
<polygon fill="none" stroke="#000000" points="897,-.5 897,-52.5 1090,-52.5 1090,-.5 897,-.5"/>
<text text-anchor="start" x="905" y="-40.5" font-family="Helvetica,sans-Serif" font-size="10.00" fill="#000000">/home/travis/build</text>
<text text-anchor="start" x="905" y="-29.5" font-family="Helvetica,sans-Serif" font-size="10.00" fill="#000000">/AliceO2Group/AliceO2</text>
<text text-anchor="start" x="905" y="-18.5" font-family="Helvetica,sans-Serif" font-size="10.00" fill="#000000">/Detectors/GlobalTrackingWorkflow</text>
<text text-anchor="middle" x="993.5" y="-7.5" font-family="Helvetica,sans-Serif" font-size="10.00" fill="#000000">/src/primary&#45;vertexing&#45;workflow.cxx</text>
</a>
</g>
</g>
<!-- Node17&#45;&gt;Node18 -->
<g id="edge11" class="edge">
<title>Node17&#45;&gt;Node18</title>
<path fill="none" stroke="#191970" d="M824.761,-85.9994C856.1595,-74.9279 890.2913,-62.8926 919.5896,-52.5617"/>
<polygon fill="#191970" stroke="#191970" points="823.3797,-82.7752 815.1127,-89.4015 825.7075,-89.3768 823.3797,-82.7752"/>
</g>
<!-- Node19 -->
<g id="node13" class="node">
<title>Node19</title>
<g id="a_node13"><a xlink:href="../../db/d2d/PrimaryVertexingSpec_8cxx.html" target="_top" xlink:title="/home/travis/build\l/AliceO2Group/AliceO2\l/Detectors/GlobalTrackingWorkflow\l/src/PrimaryVertexingSpec.cxx">
<polygon fill="none" stroke="#000000" points="632,-.5 632,-52.5 819,-52.5 819,-.5 632,-.5"/>
<text text-anchor="start" x="640" y="-40.5" font-family="Helvetica,sans-Serif" font-size="10.00" fill="#000000">/home/travis/build</text>
<text text-anchor="start" x="640" y="-29.5" font-family="Helvetica,sans-Serif" font-size="10.00" fill="#000000">/AliceO2Group/AliceO2</text>
<text text-anchor="start" x="640" y="-18.5" font-family="Helvetica,sans-Serif" font-size="10.00" fill="#000000">/Detectors/GlobalTrackingWorkflow</text>
<text text-anchor="middle" x="725.5" y="-7.5" font-family="Helvetica,sans-Serif" font-size="10.00" fill="#000000">/src/PrimaryVertexingSpec.cxx</text>
</a>
</g>
</g>
<!-- Node17&#45;&gt;Node19 -->
<g id="edge12" class="edge">
<title>Node17&#45;&gt;Node19</title>
<path fill="none" stroke="#191970" d="M725.5,-79.2457C725.5,-70.2008 725.5,-60.8836 725.5,-52.6442"/>
<polygon fill="#191970" stroke="#191970" points="722.0001,-79.2699 725.5,-89.27 729.0001,-79.27 722.0001,-79.2699"/>
</g>
<!-- Node23 -->
<g id="node17" class="node">
<title>Node23</title>
<g id="a_node17"><a xlink:href="../../d9/d8e/VertexTrackMatcherSpec_8h.html" target="_top" xlink:title="Specs for vertex track association device. ">
<polygon fill="none" stroke="#000000" points="1135,-189.5 1135,-252.5 1322,-252.5 1322,-189.5 1135,-189.5"/>
<text text-anchor="start" x="1143" y="-240.5" font-family="Helvetica,sans-Serif" font-size="10.00" fill="#000000">/home/travis/build</text>
<text text-anchor="start" x="1143" y="-229.5" font-family="Helvetica,sans-Serif" font-size="10.00" fill="#000000">/AliceO2Group/AliceO2</text>
<text text-anchor="start" x="1143" y="-218.5" font-family="Helvetica,sans-Serif" font-size="10.00" fill="#000000">/Detectors/GlobalTrackingWorkflow</text>
<text text-anchor="start" x="1143" y="-207.5" font-family="Helvetica,sans-Serif" font-size="10.00" fill="#000000">/include/GlobalTrackingWorkflow</text>
<text text-anchor="middle" x="1228.5" y="-196.5" font-family="Helvetica,sans-Serif" font-size="10.00" fill="#000000">/VertexTrackMatcherSpec.h</text>
</a>
</g>
</g>
<!-- Node22&#45;&gt;Node23 -->
<g id="edge16" class="edge">
<title>Node22&#45;&gt;Node23</title>
<path fill="none" stroke="#191970" d="M1072.1538,-290.7974C1099.2095,-278.719 1130.3828,-264.8023 1157.7403,-252.5891"/>
<polygon fill="#191970" stroke="#191970" points="1070.4732,-287.7147 1062.7686,-294.9872 1073.3268,-294.1066 1070.4732,-287.7147"/>
</g>
<!-- Node25 -->
<g id="node19" class="node">
<title>Node25</title>
<g id="a_node19"><a xlink:href="../../d0/de5/VertexTrackMatcher_8cxx.html" target="_top" xlink:title="Class for vertex track association. ">
<polygon fill="none" stroke="#000000" points="982,-195 982,-247 1117,-247 1117,-195 982,-195"/>
<text text-anchor="start" x="990" y="-235" font-family="Helvetica,sans-Serif" font-size="10.00" fill="#000000">/home/travis/build</text>
<text text-anchor="start" x="990" y="-224" font-family="Helvetica,sans-Serif" font-size="10.00" fill="#000000">/AliceO2Group/AliceO2</text>
<text text-anchor="start" x="990" y="-213" font-family="Helvetica,sans-Serif" font-size="10.00" fill="#000000">/Detectors/Vertexing/src</text>
<text text-anchor="middle" x="1049.5" y="-202" font-family="Helvetica,sans-Serif" font-size="10.00" fill="#000000">/VertexTrackMatcher.cxx</text>
</a>
</g>
</g>
<!-- Node22&#45;&gt;Node25 -->
<g id="edge19" class="edge">
<title>Node22&#45;&gt;Node25</title>
<path fill="none" stroke="#191970" d="M1020.4112,-285.6418C1026.1035,-272.9923 1032.4128,-258.9715 1037.6965,-247.2299"/>
<polygon fill="#191970" stroke="#191970" points="1017.1177,-284.4317 1016.2057,-294.9872 1023.5012,-287.3043 1017.1177,-284.4317"/>
</g>
<!-- Node23&#45;&gt;Node18 -->
<g id="edge17" class="edge">
<title>Node23&#45;&gt;Node18</title>
<path fill="none" stroke="#191970" d="M1168.7503,-183.6628C1154.5633,-174.1223 1139.7181,-163.5623 1126.5,-153 1086.4193,-120.9724 1044.148,-79.1958 1018.2944,-52.6003"/>
<polygon fill="#191970" stroke="#191970" points="1167.2123,-186.843 1177.4783,-189.4623 1171.0864,-181.0127 1167.2123,-186.843"/>
</g>
<!-- Node24 -->
<g id="node18" class="node">
<title>Node24</title>
<g id="a_node18"><a xlink:href="../../de/d73/VertexTrackMatcherSpec_8cxx.html" target="_top" xlink:title="Specs for vertex track association device. ">
<polygon fill="none" stroke="#000000" points="1135,-95 1135,-147 1322,-147 1322,-95 1135,-95"/>
<text text-anchor="start" x="1143" y="-135" font-family="Helvetica,sans-Serif" font-size="10.00" fill="#000000">/home/travis/build</text>
<text text-anchor="start" x="1143" y="-124" font-family="Helvetica,sans-Serif" font-size="10.00" fill="#000000">/AliceO2Group/AliceO2</text>
<text text-anchor="start" x="1143" y="-113" font-family="Helvetica,sans-Serif" font-size="10.00" fill="#000000">/Detectors/GlobalTrackingWorkflow</text>
<text text-anchor="middle" x="1228.5" y="-102" font-family="Helvetica,sans-Serif" font-size="10.00" fill="#000000">/src/VertexTrackMatcherSpec.cxx</text>
</a>
</g>
</g>
<!-- Node23&#45;&gt;Node24 -->
<g id="edge18" class="edge">
<title>Node23&#45;&gt;Node24</title>
<path fill="none" stroke="#191970" d="M1228.5,-179.1631C1228.5,-168.2863 1228.5,-156.8798 1228.5,-147.078"/>
<polygon fill="#191970" stroke="#191970" points="1225.0001,-179.3593 1228.5,-189.3594 1232.0001,-179.3594 1225.0001,-179.3593"/>
</g>
</g>
</svg>
