<?xml version="1.0" encoding="UTF-8" standalone="no"?>
<!DOCTYPE svg PUBLIC "-//W3C//DTD SVG 1.1//EN"
 "http://www.w3.org/Graphics/SVG/1.1/DTD/svg11.dtd">
<!-- Generated by graphviz version 2.40.1 (20161225.0304)
 -->
<!-- Title: /home/travis/build/AliceO2Group/AliceO2/Framework/Core/include/Framework/ConfigParamRegistry.h Pages: 1 -->
<!--zoomable 363 -->
<svg id="main" version="1.1" xmlns="http://www.w3.org/2000/svg" xmlns:xlink="http://www.w3.org/1999/xlink" xml:space="preserve" onload="init(evt)">
<style type="text/css"><![CDATA[
.edge:hover path { stroke: red; }
.edge:hover polygon { stroke: red; fill: red; }
]]></style>
<script type="text/javascript"><![CDATA[
var edges = document.getElementsByTagName('g');
if (edges && edges.length) {
  for (var i=0;i<edges.length;i++) {
    if (edges[i].id.substr(0,4)=='edge') {
      edges[i].setAttribute('class','edge');
    }
  }
}
]]></script>
        <defs>
                <circle id="rim" cx="0" cy="0" r="7"/>
                <circle id="rim2" cx="0" cy="0" r="3.5"/>
                <g id="zoomPlus">
                        <use xlink:href="#rim" fill="#404040">
                                <set attributeName="fill" to="#808080" begin="zoomplus.mouseover" end="zoomplus.mouseout"/>
                        </use>
                        <path d="M-4,0h8M0,-4v8" fill="none" stroke="white" stroke-width="1.5" pointer-events="none"/>
                </g>
                <g id="zoomMin">
                        <use xlink:href="#rim" fill="#404040">
                                <set attributeName="fill" to="#808080" begin="zoomminus.mouseover" end="zoomminus.mouseout"/>
                        </use>
                        <path d="M-4,0h8" fill="none" stroke="white" stroke-width="1.5" pointer-events="none"/>
                </g>
                <g id="dirArrow">
                        <path fill="none" stroke="white" stroke-width="1.5" d="M0,-3.0v7 M-2.5,-0.5L0,-3.0L2.5,-0.5"/>
                </g>
               <g id="resetDef">
                       <use xlink:href="#rim2" fill="#404040">
                               <set attributeName="fill" to="#808080" begin="reset.mouseover" end="reset.mouseout"/>
                       </use>
               </g>
        </defs>

<script type="text/javascript">
var viewWidth = 1055;
var viewHeight = 363;
var sectionId = 'dynsection-0';
</script>
<script xlink:href="../../svgpan.js"/>
<svg id="graph" class="graph">
<g id="viewport">
<title>/home/travis/build/AliceO2Group/AliceO2/Framework/Core/include/Framework/ConfigParamRegistry.h</title>
<!-- Node0 -->
<g id="node1" class="node">
<title>Node0</title>
<polygon fill="#bfbfbf" stroke="#000000" points="708.5,-302.5 708.5,-354.5 893.5,-354.5 893.5,-302.5 708.5,-302.5"/>
<text text-anchor="start" x="716.5" y="-342.5" font-family="Helvetica,sans-Serif" font-size="10.00" fill="#000000">/home/travis/build</text>
<text text-anchor="start" x="716.5" y="-331.5" font-family="Helvetica,sans-Serif" font-size="10.00" fill="#000000">/AliceO2Group/AliceO2</text>
<text text-anchor="start" x="716.5" y="-320.5" font-family="Helvetica,sans-Serif" font-size="10.00" fill="#000000">/Framework/Core/include</text>
<text text-anchor="middle" x="801" y="-309.5" font-family="Helvetica,sans-Serif" font-size="10.00" fill="#000000">/Framework/ConfigParamRegistry.h</text>
</g>
<!-- Node1 -->
<g id="node2" class="node">
<title>Node1</title>
<g id="a_node2"><a xlink:href="../../df/d72/ParamRetriever_8h.html" target="_top" xlink:title="Framework/ParamRetriever.h">
<polygon fill="none" stroke="#000000" points="573.5,-179.5 573.5,-198.5 730.5,-198.5 730.5,-179.5 573.5,-179.5"/>
<text text-anchor="middle" x="652" y="-186.5" font-family="Helvetica,sans-Serif" font-size="10.00" fill="#000000">Framework/ParamRetriever.h</text>
</a>
</g>
</g>
<!-- Node0&#45;&gt;Node1 -->
<g id="edge1" class="edge">
<title>Node0&#45;&gt;Node1</title>
<path fill="none" stroke="#191970" d="M772.9742,-302.2611C742.6993,-273.9165 695.3759,-229.6103 669.8161,-205.6802"/>
<polygon fill="#191970" stroke="#191970" points="672.0235,-202.9523 662.3315,-198.6727 667.2393,-208.0623 672.0235,-202.9523"/>
</g>
<!-- Node12 -->
<g id="node13" class="node">
<title>Node12</title>
<polygon fill="none" stroke="#bfbfbf" points="715,-.5 715,-19.5 759,-19.5 759,-.5 715,-.5"/>
<text text-anchor="middle" x="737" y="-7.5" font-family="Helvetica,sans-Serif" font-size="10.00" fill="#000000">string</text>
</g>
<!-- Node0&#45;&gt;Node12 -->
<g id="edge23" class="edge">
<title>Node0&#45;&gt;Node12</title>
<path fill="none" stroke="#191970" d="M788.1704,-302.4606C775.819,-274.9533 759,-229.974 759,-189 759,-189 759,-189 759,-127.5 759,-92.3839 749.3892,-52.3574 742.8721,-29.2521"/>
<polygon fill="#191970" stroke="#191970" points="746.2256,-28.2497 740.059,-19.6344 739.5071,-30.2149 746.2256,-28.2497"/>
</g>
<!-- Node15 -->
<g id="node16" class="node">
<title>Node15</title>
<g id="a_node16"><a xlink:href="../../dd/daf/ConfigParamStore_8h.html" target="_top" xlink:title="Framework/ConfigParamStore.h">
<polygon fill="none" stroke="#000000" points="475,-241 475,-260 645,-260 645,-241 475,-241"/>
<text text-anchor="middle" x="560" y="-248" font-family="Helvetica,sans-Serif" font-size="10.00" fill="#000000">Framework/ConfigParamStore.h</text>
</a>
</g>
</g>
<!-- Node0&#45;&gt;Node15 -->
<g id="edge17" class="edge">
<title>Node0&#45;&gt;Node15</title>
<path fill="none" stroke="#191970" d="M720.4154,-302.4187C679.6167,-289.2141 631.9357,-273.7821 599.2236,-263.1948"/>
<polygon fill="#191970" stroke="#191970" points="600.1682,-259.8218 589.5763,-260.0724 598.0127,-266.4817 600.1682,-259.8218"/>
</g>
<!-- Node16 -->
<g id="node17" class="node">
<title>Node16</title>
<polygon fill="none" stroke="#bfbfbf" points="787.5,-235.5 787.5,-265.5 900.5,-265.5 900.5,-235.5 787.5,-235.5"/>
<text text-anchor="start" x="795.5" y="-253.5" font-family="Helvetica,sans-Serif" font-size="10.00" fill="#000000">boost/property_tree</text>
<text text-anchor="middle" x="844" y="-242.5" font-family="Helvetica,sans-Serif" font-size="10.00" fill="#000000">/ptree.hpp</text>
</g>
<!-- Node0&#45;&gt;Node16 -->
<g id="edge21" class="edge">
<title>Node0&#45;&gt;Node16</title>
<path fill="none" stroke="#191970" d="M815.5578,-302.0928C820.4962,-293.1348 825.982,-283.1838 830.8078,-274.43"/>
<polygon fill="#191970" stroke="#191970" points="833.9655,-275.9517 835.7283,-265.5046 827.8353,-272.5722 833.9655,-275.9517"/>
</g>
<!-- Node17 -->
<g id="node18" class="node">
<title>Node17</title>
<polygon fill="none" stroke="#bfbfbf" points="919,-241 919,-260 977,-260 977,-241 919,-241"/>
<text text-anchor="middle" x="948" y="-248" font-family="Helvetica,sans-Serif" font-size="10.00" fill="#000000">memory</text>
</g>
<!-- Node0&#45;&gt;Node17 -->
<g id="edge22" class="edge">
<title>Node0&#45;&gt;Node17</title>
<path fill="none" stroke="#191970" d="M850.3578,-302.3101C873.8685,-289.8351 901.0867,-275.3928 920.8042,-264.9304"/>
<polygon fill="#191970" stroke="#191970" points="922.6391,-267.919 929.8321,-260.1401 919.3581,-261.7356 922.6391,-267.919"/>
</g>
<!-- Node18 -->
<g id="node19" class="node">
<title>Node18</title>
<polygon fill="none" stroke="#bfbfbf" points="995,-241 995,-260 1047,-260 1047,-241 995,-241"/>
<text text-anchor="middle" x="1021" y="-248" font-family="Helvetica,sans-Serif" font-size="10.00" fill="#000000">cassert</text>
</g>
<!-- Node0&#45;&gt;Node18 -->
<g id="edge24" class="edge">
<title>Node0&#45;&gt;Node18</title>
<path fill="none" stroke="#191970" d="M883.542,-302.3999C915.7473,-291.7523 952.8298,-278.917 986,-266 987.5752,-265.3866 989.183,-264.742 990.8013,-264.0786"/>
<polygon fill="#191970" stroke="#191970" points="992.1959,-267.2889 1000.0313,-260.1575 989.4588,-260.8462 992.1959,-267.2889"/>
</g>
<!-- Node2 -->
<g id="node3" class="node">
<title>Node2</title>
<g id="a_node3"><a xlink:href="../../d0/d1c/ConfigParamSpec_8h.html" target="_top" xlink:title="Framework/ConfigParamSpec.h">
<polygon fill="none" stroke="#000000" points="460.5,-118 460.5,-137 627.5,-137 627.5,-118 460.5,-118"/>
<text text-anchor="middle" x="544" y="-125" font-family="Helvetica,sans-Serif" font-size="10.00" fill="#000000">Framework/ConfigParamSpec.h</text>
</a>
</g>
</g>
<!-- Node1&#45;&gt;Node2 -->
<g id="edge2" class="edge">
<title>Node1&#45;&gt;Node2</title>
<path fill="none" stroke="#191970" d="M635.125,-179.3906C617.5302,-169.3713 589.7434,-153.5483 569.4759,-142.0071"/>
<polygon fill="#191970" stroke="#191970" points="571.1783,-138.9489 560.7565,-137.0419 567.7144,-145.0318 571.1783,-138.9489"/>
</g>
<!-- Node1&#45;&gt;Node12 -->
<g id="edge15" class="edge">
<title>Node1&#45;&gt;Node12</title>
<path fill="none" stroke="#191970" d="M654.0693,-179.2344C657.4132,-164.3329 664.6875,-135.2036 675,-112 688.8047,-80.9388 710.3717,-47.8076 724.087,-28.0102"/>
<polygon fill="#191970" stroke="#191970" points="727.0632,-29.8625 729.9506,-19.6687 721.3365,-25.8369 727.0632,-29.8625"/>
</g>
<!-- Node13 -->
<g id="node14" class="node">
<title>Node13</title>
<polygon fill="none" stroke="#bfbfbf" points="329.5,-112.5 329.5,-142.5 442.5,-142.5 442.5,-112.5 329.5,-112.5"/>
<text text-anchor="start" x="337.5" y="-130.5" font-family="Helvetica,sans-Serif" font-size="10.00" fill="#000000">boost/property_tree</text>
<text text-anchor="middle" x="386" y="-119.5" font-family="Helvetica,sans-Serif" font-size="10.00" fill="#000000">/ptree_fwd.hpp</text>
</g>
<!-- Node1&#45;&gt;Node13 -->
<g id="edge14" class="edge">
<title>Node1&#45;&gt;Node13</title>
<path fill="none" stroke="#191970" d="M610.2339,-179.4526C571.8191,-170.6581 513.0092,-157.1614 452.2817,-143.0598"/>
<polygon fill="#191970" stroke="#191970" points="453.0543,-139.6462 442.5217,-140.792 451.47,-146.4646 453.0543,-139.6462"/>
</g>
<!-- Node14 -->
<g id="node15" class="node">
<title>Node14</title>
<polygon fill="none" stroke="#bfbfbf" points="683.5,-118 683.5,-137 730.5,-137 730.5,-118 683.5,-118"/>
<text text-anchor="middle" x="707" y="-125" font-family="Helvetica,sans-Serif" font-size="10.00" fill="#000000">vector</text>
</g>
<!-- Node1&#45;&gt;Node14 -->
<g id="edge16" class="edge">
<title>Node1&#45;&gt;Node14</title>
<path fill="none" stroke="#191970" d="M660.5938,-179.3906C668.8597,-170.1478 681.5426,-155.966 691.5617,-144.7628"/>
<polygon fill="#191970" stroke="#191970" points="694.2278,-147.0321 698.2851,-137.2449 689.01,-142.3657 694.2278,-147.0321"/>
</g>
<!-- Node3 -->
<g id="node4" class="node">
<title>Node3</title>
<g id="a_node4"><a xlink:href="../../de/d56/Variant_8h.html" target="_top" xlink:title="Framework/Variant.h">
<polygon fill="none" stroke="#000000" points="387.5,-56.5 387.5,-75.5 504.5,-75.5 504.5,-56.5 387.5,-56.5"/>
<text text-anchor="middle" x="446" y="-63.5" font-family="Helvetica,sans-Serif" font-size="10.00" fill="#000000">Framework/Variant.h</text>
</a>
</g>
</g>
<!-- Node2&#45;&gt;Node3 -->
<g id="edge3" class="edge">
<title>Node2&#45;&gt;Node3</title>
<path fill="none" stroke="#191970" d="M528.6875,-117.8906C512.9376,-108.0067 488.1877,-92.4749 469.8663,-80.9773"/>
<polygon fill="#191970" stroke="#191970" points="471.5357,-77.8929 461.205,-75.5419 467.8148,-83.8221 471.5357,-77.8929"/>
</g>
<!-- Node2&#45;&gt;Node12 -->
<g id="edge13" class="edge">
<title>Node2&#45;&gt;Node12</title>
<path fill="none" stroke="#191970" d="M555.448,-117.9465C573.1042,-103.4752 608.3619,-75.6096 641,-56 661.7348,-43.5421 686.3619,-31.7985 705.4811,-23.2953"/>
<polygon fill="#191970" stroke="#191970" points="706.9004,-26.4948 714.6546,-19.2752 704.0907,-20.0834 706.9004,-26.4948"/>
</g>
<!-- Node4 -->
<g id="node5" class="node">
<title>Node4</title>
<g id="a_node5"><a xlink:href="../../d1/d76/RuntimeError_8h.html" target="_top" xlink:title="Framework/RuntimeError.h">
<polygon fill="none" stroke="#000000" points="395,-.5 395,-19.5 541,-19.5 541,-.5 395,-.5"/>
<text text-anchor="middle" x="468" y="-7.5" font-family="Helvetica,sans-Serif" font-size="10.00" fill="#000000">Framework/RuntimeError.h</text>
</a>
</g>
</g>
<!-- Node3&#45;&gt;Node4 -->
<g id="edge4" class="edge">
<title>Node3&#45;&gt;Node4</title>
<path fill="none" stroke="#191970" d="M449.8321,-56.2455C452.7659,-48.7776 456.9047,-38.2427 460.491,-29.1137"/>
<polygon fill="#191970" stroke="#191970" points="463.8129,-30.23 464.2118,-19.6427 457.2976,-27.6704 463.8129,-30.23"/>
</g>
<!-- Node5 -->
<g id="node6" class="node">
<title>Node5</title>
<polygon fill="none" stroke="#bfbfbf" points="559.5,-.5 559.5,-19.5 628.5,-19.5 628.5,-.5 559.5,-.5"/>
<text text-anchor="middle" x="594" y="-7.5" font-family="Helvetica,sans-Serif" font-size="10.00" fill="#000000">type_traits</text>
</g>
<!-- Node3&#45;&gt;Node5 -->
<g id="edge5" class="edge">
<title>Node3&#45;&gt;Node5</title>
<path fill="none" stroke="#191970" d="M471.4421,-56.3733C495.7326,-47.1822 532.5208,-33.2624 559.4543,-23.0713"/>
<polygon fill="#191970" stroke="#191970" points="560.7757,-26.3136 568.8899,-19.5011 558.2984,-19.7666 560.7757,-26.3136"/>
</g>
<!-- Node6 -->
<g id="node7" class="node">
<title>Node6</title>
<polygon fill="none" stroke="#bfbfbf" points="647,-.5 647,-19.5 697,-19.5 697,-.5 647,-.5"/>
<text text-anchor="middle" x="672" y="-7.5" font-family="Helvetica,sans-Serif" font-size="10.00" fill="#000000">cstring</text>
</g>
<!-- Node3&#45;&gt;Node6 -->
<g id="edge6" class="edge">
<title>Node3&#45;&gt;Node6</title>
<path fill="none" stroke="#191970" d="M488.482,-56.4755C525.3586,-48.0615 580.4013,-35.1536 636.961,-20.1877"/>
<polygon fill="#191970" stroke="#191970" points="638.0269,-23.5259 646.7892,-17.5701 636.2253,-16.7617 638.0269,-23.5259"/>
</g>
<!-- Node7 -->
<g id="node8" class="node">
<title>Node7</title>
<polygon fill="none" stroke="#bfbfbf" points="0,-.5 0,-19.5 50,-19.5 50,-.5 0,-.5"/>
<text text-anchor="middle" x="25" y="-7.5" font-family="Helvetica,sans-Serif" font-size="10.00" fill="#000000">cstdint</text>
</g>
<!-- Node3&#45;&gt;Node7 -->
<g id="edge7" class="edge">
<title>Node3&#45;&gt;Node7</title>
<path fill="none" stroke="#191970" d="M387.4885,-62.1165C313.2834,-56.5108 181.3535,-44.2743 59.9696,-19.909"/>
<polygon fill="#191970" stroke="#191970" points="60.6302,-16.4717 50.1324,-17.9026 59.2313,-23.3305 60.6302,-16.4717"/>
</g>
<!-- Node8 -->
<g id="node9" class="node">
<title>Node8</title>
<polygon fill="none" stroke="#bfbfbf" points="68.5,-.5 68.5,-19.5 117.5,-19.5 117.5,-.5 68.5,-.5"/>
<text text-anchor="middle" x="93" y="-7.5" font-family="Helvetica,sans-Serif" font-size="10.00" fill="#000000">cstdlib</text>
</g>
<!-- Node3&#45;&gt;Node8 -->
<g id="edge8" class="edge">
<title>Node3&#45;&gt;Node8</title>
<path fill="none" stroke="#191970" d="M387.4202,-60.2732C325.0274,-53.5711 223.3035,-40.9203 127.597,-20.1149"/>
<polygon fill="#191970" stroke="#191970" points="128.279,-16.6812 117.7595,-17.9424 126.7694,-23.5165 128.279,-16.6812"/>
</g>
<!-- Node9 -->
<g id="node10" class="node">
<title>Node9</title>
<polygon fill="none" stroke="#bfbfbf" points="135.5,-.5 135.5,-19.5 184.5,-19.5 184.5,-.5 135.5,-.5"/>
<text text-anchor="middle" x="160" y="-7.5" font-family="Helvetica,sans-Serif" font-size="10.00" fill="#000000">iosfwd</text>
</g>
<!-- Node3&#45;&gt;Node9 -->
<g id="edge9" class="edge">
<title>Node3&#45;&gt;Node9</title>
<path fill="none" stroke="#191970" d="M387.3196,-57.2827C338.1006,-49.5289 265.8121,-37.1134 194.7929,-20.2508"/>
<polygon fill="#191970" stroke="#191970" points="195.3241,-16.7788 184.7828,-17.842 193.6863,-23.5845 195.3241,-16.7788"/>
</g>
<!-- Node10 -->
<g id="node11" class="node">
<title>Node10</title>
<polygon fill="none" stroke="#bfbfbf" points="202.5,-.5 202.5,-19.5 285.5,-19.5 285.5,-.5 202.5,-.5"/>
<text text-anchor="middle" x="244" y="-7.5" font-family="Helvetica,sans-Serif" font-size="10.00" fill="#000000">initializer_list</text>
</g>
<!-- Node3&#45;&gt;Node10 -->
<g id="edge10" class="edge">
<title>Node3&#45;&gt;Node10</title>
<path fill="none" stroke="#191970" d="M411.275,-56.3733C377.2492,-46.9404 325.2563,-32.5265 288.2766,-22.2747"/>
<polygon fill="#191970" stroke="#191970" points="288.8435,-18.7999 278.2719,-19.5011 286.9734,-25.5455 288.8435,-18.7999"/>
</g>
<!-- Node11 -->
<g id="node12" class="node">
<title>Node11</title>
<polygon fill="none" stroke="#bfbfbf" points="303.5,-.5 303.5,-19.5 376.5,-19.5 376.5,-.5 303.5,-.5"/>
<text text-anchor="middle" x="340" y="-7.5" font-family="Helvetica,sans-Serif" font-size="10.00" fill="#000000">string_view</text>
</g>
<!-- Node3&#45;&gt;Node11 -->
<g id="edge11" class="edge">
<title>Node3&#45;&gt;Node11</title>
<path fill="none" stroke="#191970" d="M427.5362,-56.2455C410.8926,-47.4527 386.2007,-34.4079 367.2808,-24.4125"/>
<polygon fill="#191970" stroke="#191970" points="368.7291,-21.2193 358.2522,-19.6427 365.4592,-27.4086 368.7291,-21.2193"/>
</g>
<!-- Node3&#45;&gt;Node12 -->
<g id="edge12" class="edge">
<title>Node3&#45;&gt;Node12</title>
<path fill="none" stroke="#191970" d="M504.5655,-57.9818C555.3006,-50.5063 630.7744,-38.1199 704.7952,-20.0475"/>
<polygon fill="#191970" stroke="#191970" points="705.8901,-23.3821 714.7541,-17.5788 704.2058,-16.5877 705.8901,-23.3821"/>
</g>
<!-- Node15&#45;&gt;Node1 -->
<g id="edge18" class="edge">
<title>Node15&#45;&gt;Node1</title>
<path fill="none" stroke="#191970" d="M574.375,-240.8906C589.0931,-231.0519 612.1832,-215.6167 629.3589,-204.1351"/>
<polygon fill="#191970" stroke="#191970" points="631.3575,-207.0091 637.7259,-198.5419 627.4673,-201.1896 631.3575,-207.0091"/>
</g>
<!-- Node15&#45;&gt;Node2 -->
<g id="edge19" class="edge">
<title>Node15&#45;&gt;Node2</title>
<path fill="none" stroke="#191970" d="M558.7445,-240.8484C556.1274,-220.7295 550.0437,-173.9608 546.5639,-147.2098"/>
<polygon fill="#191970" stroke="#191970" points="550.0105,-146.5717 545.2497,-137.1068 543.0689,-147.4747 550.0105,-146.5717"/>
</g>
<!-- Node15&#45;&gt;Node13 -->
<g id="edge20" class="edge">
<title>Node15&#45;&gt;Node13</title>
<path fill="none" stroke="#191970" d="M546.3465,-240.8484C518.3848,-221.0824 454.0341,-175.5931 415.8991,-148.6356"/>
<polygon fill="#191970" stroke="#191970" points="417.4512,-145.4466 407.2651,-142.5322 413.4105,-151.1626 417.4512,-145.4466"/>
</g>
</g>
</svg>
        <g id="navigator" transform="translate(0 0)" fill="#404254">
                <rect fill="#f2f5e9" fill-opacity="0.5" stroke="#606060" stroke-width=".5" x="0" y="0" width="60" height="60"/>
                <use id="zoomplus" xlink:href="#zoomPlus" x="17" y="9" onmousedown="handleZoom(evt,'in')"/>
                <use id="zoomminus" xlink:href="#zoomMin" x="42" y="9" onmousedown="handleZoom(evt,'out')"/>
                <use id="reset" xlink:href="#resetDef" x="30" y="36" onmousedown="handleReset()"/>
                <g id="arrowUp" xlink:href="#dirArrow" transform="translate(30 24)" onmousedown="handlePan(0,-1)">
                  <use xlink:href="#rim" fill="#404040">
                        <set attributeName="fill" to="#808080" begin="arrowUp.mouseover" end="arrowUp.mouseout"/>
                  </use>
                  <path fill="none" stroke="white" stroke-width="1.5" d="M0,-3.0v7 M-2.5,-0.5L0,-3.0L2.5,-0.5"/>
                </g>
                <g id="arrowRight" xlink:href="#dirArrow" transform="rotate(90) translate(36 -43)" onmousedown="handlePan(1,0)">
                  <use xlink:href="#rim" fill="#404040">
                        <set attributeName="fill" to="#808080" begin="arrowRight.mouseover" end="arrowRight.mouseout"/>
                  </use>
                  <path fill="none" stroke="white" stroke-width="1.5" d="M0,-3.0v7 M-2.5,-0.5L0,-3.0L2.5,-0.5"/>
                </g>
                <g id="arrowDown" xlink:href="#dirArrow" transform="rotate(180) translate(-30 -48)" onmousedown="handlePan(0,1)">
                  <use xlink:href="#rim" fill="#404040">
                        <set attributeName="fill" to="#808080" begin="arrowDown.mouseover" end="arrowDown.mouseout"/>
                  </use>
                  <path fill="none" stroke="white" stroke-width="1.5" d="M0,-3.0v7 M-2.5,-0.5L0,-3.0L2.5,-0.5"/>
                </g>
                <g id="arrowLeft" xlink:href="#dirArrow" transform="rotate(270) translate(-36 17)" onmousedown="handlePan(-1,0)">
                  <use xlink:href="#rim" fill="#404040">
                        <set attributeName="fill" to="#808080" begin="arrowLeft.mouseover" end="arrowLeft.mouseout"/>
                  </use>
                  <path fill="none" stroke="white" stroke-width="1.5" d="M0,-3.0v7 M-2.5,-0.5L0,-3.0L2.5,-0.5"/>
                </g>
        </g>
        <svg viewBox="0 0 15 15" width="100%" height="30px" preserveAspectRatio="xMaxYMin meet">
         <g id="arrow_out" transform="scale(0.3 0.3)">
          <a xlink:href="ConfigParamRegistry_8h__incl_org.svg" target="_base">
           <rect id="button" ry="5" rx="5" y="6" x="6" height="38" width="38"
                fill="#f2f5e9" fill-opacity="0.5" stroke="#606060" stroke-width="1.0"/>
           <path id="arrow"
             d="M 11.500037,31.436501 C 11.940474,20.09759 22.043105,11.32322 32.158766,21.979434 L 37.068811,17.246167 C 37.068811,17.246167 37.088388,32 37.088388,32 L 22.160133,31.978069 C 22.160133,31.978069 26.997745,27.140456 26.997745,27.140456 C 18.528582,18.264221 13.291696,25.230495 11.500037,31.436501 z"
             style="fill:#404040;"/>
          </a>
         </g>
        </svg>
</svg>
