<?xml version="1.0" encoding="UTF-8" standalone="no"?>
<!DOCTYPE svg PUBLIC "-//W3C//DTD SVG 1.1//EN"
 "http://www.w3.org/Graphics/SVG/1.1/DTD/svg11.dtd">
<!-- Generated by graphviz version 2.40.1 (20161225.0304)
 -->
<!-- Title: /home/travis/build/AliceO2Group/AliceO2/Detectors/Vertexing/src/PVertexerHelpers.cxx Pages: 1 -->
<svg width="3559pt" height="776pt"
 viewBox="0.00 0.00 3559.05 776.00" xmlns="http://www.w3.org/2000/svg" xmlns:xlink="http://www.w3.org/1999/xlink">
<g id="graph0" class="graph" transform="scale(1 1) rotate(0) translate(4 772)">
<title>/home/travis/build/AliceO2Group/AliceO2/Detectors/Vertexing/src/PVertexerHelpers.cxx</title>
<!-- Node0 -->
<g id="node1" class="node">
<title>Node0</title>
<polygon fill="#bfbfbf" stroke="#000000" points="1862.5492,-715.5 1862.5492,-767.5 1996.5492,-767.5 1996.5492,-715.5 1862.5492,-715.5"/>
<text text-anchor="start" x="1870.5492" y="-755.5" font-family="Helvetica,sans-Serif" font-size="10.00" fill="#000000">/home/travis/build</text>
<text text-anchor="start" x="1870.5492" y="-744.5" font-family="Helvetica,sans-Serif" font-size="10.00" fill="#000000">/AliceO2Group/AliceO2</text>
<text text-anchor="start" x="1870.5492" y="-733.5" font-family="Helvetica,sans-Serif" font-size="10.00" fill="#000000">/Detectors/Vertexing/src</text>
<text text-anchor="middle" x="1929.5492" y="-722.5" font-family="Helvetica,sans-Serif" font-size="10.00" fill="#000000">/PVertexerHelpers.cxx</text>
</g>
<!-- Node1 -->
<g id="node2" class="node">
<title>Node1</title>
<g id="a_node2"><a xlink:href="../../db/db1/PVertexerHelpers_8h.html" target="_top" xlink:title="Primary vertex finder helper classes. ">
<polygon fill="none" stroke="#000000" points="1873.0492,-648.5 1873.0492,-678.5 1986.0492,-678.5 1986.0492,-648.5 1873.0492,-648.5"/>
<text text-anchor="start" x="1881.0492" y="-666.5" font-family="Helvetica,sans-Serif" font-size="10.00" fill="#000000">DetectorsVertexing</text>
<text text-anchor="middle" x="1929.5492" y="-655.5" font-family="Helvetica,sans-Serif" font-size="10.00" fill="#000000">/PVertexerHelpers.h</text>
</a>
</g>
</g>
<!-- Node0&#45;&gt;Node1 -->
<g id="edge1" class="edge">
<title>Node0&#45;&gt;Node1</title>
<path fill="none" stroke="#191970" d="M1929.5492,-715.0928C1929.5492,-706.516 1929.5492,-697.0289 1929.5492,-688.5538"/>
<polygon fill="#191970" stroke="#191970" points="1933.0493,-688.5045 1929.5492,-678.5046 1926.0493,-688.5046 1933.0493,-688.5045"/>
</g>
<!-- Node2 -->
<g id="node3" class="node">
<title>Node2</title>
<polygon fill="none" stroke="#bfbfbf" points="1321.0492,-587 1321.0492,-606 1378.0492,-606 1378.0492,-587 1321.0492,-587"/>
<text text-anchor="middle" x="1349.5492" y="-594" font-family="Helvetica,sans-Serif" font-size="10.00" fill="#000000">gsl/span</text>
</g>
<!-- Node1&#45;&gt;Node2 -->
<g id="edge2" class="edge">
<title>Node1&#45;&gt;Node2</title>
<path fill="none" stroke="#191970" d="M1872.8278,-659.8643C1754.0936,-651.9589 1482.9045,-632.2801 1392.5492,-612 1389.2972,-611.2701 1385.9548,-610.3625 1382.6393,-609.3551"/>
<polygon fill="#191970" stroke="#191970" points="1383.484,-605.9476 1372.8904,-606.1118 1381.2742,-612.5897 1383.484,-605.9476"/>
</g>
<!-- Node3 -->
<g id="node4" class="node">
<title>Node3</title>
<g id="a_node4"><a xlink:href="../../d7/d82/PrimaryVertex_8h.html" target="_top" xlink:title="ReconstructionDataFormats\l/PrimaryVertex.h">
<polygon fill="none" stroke="#000000" points="1533.5492,-380.5 1533.5492,-410.5 1685.5492,-410.5 1685.5492,-380.5 1533.5492,-380.5"/>
<text text-anchor="start" x="1541.5492" y="-398.5" font-family="Helvetica,sans-Serif" font-size="10.00" fill="#000000">ReconstructionDataFormats</text>
<text text-anchor="middle" x="1609.5492" y="-387.5" font-family="Helvetica,sans-Serif" font-size="10.00" fill="#000000">/PrimaryVertex.h</text>
</a>
</g>
</g>
<!-- Node1&#45;&gt;Node3 -->
<g id="edge3" class="edge">
<title>Node1&#45;&gt;Node3</title>
<path fill="none" stroke="#191970" d="M1911.4277,-648.3233C1857.5244,-603.1792 1698.0557,-469.6242 1635.3188,-417.0821"/>
<polygon fill="#191970" stroke="#191970" points="1637.3856,-414.2477 1627.4719,-410.5103 1632.8911,-419.6143 1637.3856,-414.2477"/>
</g>
<!-- Node22 -->
<g id="node23" class="node">
<title>Node22</title>
<g id="a_node23"><a xlink:href="../../df/d5d/common_2include_2CommonDataFormat_2TimeStamp_8h.html" target="_top" xlink:title="CommonDataFormat/TimeStamp.h">
<polygon fill="none" stroke="#000000" points="1059.0492,-252 1059.0492,-271 1246.0492,-271 1246.0492,-252 1059.0492,-252"/>
<text text-anchor="middle" x="1152.5492" y="-259" font-family="Helvetica,sans-Serif" font-size="10.00" fill="#000000">CommonDataFormat/TimeStamp.h</text>
</a>
</g>
</g>
<!-- Node1&#45;&gt;Node22 -->
<g id="edge116" class="edge">
<title>Node1&#45;&gt;Node22</title>
<path fill="none" stroke="#191970" d="M1872.5834,-660.9377C1737.0333,-653.2921 1406.5492,-624.8718 1406.5492,-529.5 1406.5492,-529.5 1406.5492,-529.5 1406.5492,-395.5 1406.5492,-348.0607 1266.1941,-297.1044 1194.1517,-274.0739"/>
<polygon fill="#191970" stroke="#191970" points="1195.0511,-270.6876 1184.4613,-271.0128 1192.9425,-277.3625 1195.0511,-270.6876"/>
</g>
<!-- Node27 -->
<g id="node28" class="node">
<title>Node27</title>
<g id="a_node28"><a xlink:href="../../d7/d8b/DataFormats_2Reconstruction_2include_2ReconstructionDataFormats_2Track_8h.html" target="_top" xlink:title="ReconstructionDataFormats\l/Track.h">
<polygon fill="none" stroke="#000000" points="2064.5492,-581.5 2064.5492,-611.5 2216.5492,-611.5 2216.5492,-581.5 2064.5492,-581.5"/>
<text text-anchor="start" x="2072.5492" y="-599.5" font-family="Helvetica,sans-Serif" font-size="10.00" fill="#000000">ReconstructionDataFormats</text>
<text text-anchor="middle" x="2140.5492" y="-588.5" font-family="Helvetica,sans-Serif" font-size="10.00" fill="#000000">/Track.h</text>
</a>
</g>
</g>
<!-- Node1&#45;&gt;Node27 -->
<g id="edge31" class="edge">
<title>Node1&#45;&gt;Node27</title>
<path fill="none" stroke="#191970" d="M1976.9017,-648.4639C2008.419,-638.456 2050.0052,-625.2509 2083.3681,-614.657"/>
<polygon fill="#191970" stroke="#191970" points="2084.5184,-617.9641 2092.9901,-611.6017 2082.3998,-611.2923 2084.5184,-617.9641"/>
</g>
<!-- Node62 -->
<g id="node63" class="node">
<title>Node62</title>
<g id="a_node63"><a xlink:href="../../d0/d00/VtxTrackIndex_8h.html" target="_top" xlink:title="Index of track attached to vertx: index in its proper container, container source and flags...">
<polygon fill="none" stroke="#000000" points="2843.5492,-246.5 2843.5492,-276.5 2995.5492,-276.5 2995.5492,-246.5 2843.5492,-246.5"/>
<text text-anchor="start" x="2851.5492" y="-264.5" font-family="Helvetica,sans-Serif" font-size="10.00" fill="#000000">ReconstructionDataFormats</text>
<text text-anchor="middle" x="2919.5492" y="-253.5" font-family="Helvetica,sans-Serif" font-size="10.00" fill="#000000">/VtxTrackIndex.h</text>
</a>
</g>
</g>
<!-- Node1&#45;&gt;Node62 -->
<g id="edge101" class="edge">
<title>Node1&#45;&gt;Node62</title>
<path fill="none" stroke="#191970" d="M1986.189,-661.4326C2162.6395,-654.8311 2700.9842,-633.4319 2874.5492,-612 3044.7769,-590.9801 3251.5492,-701.0206 3251.5492,-529.5 3251.5492,-529.5 3251.5492,-529.5 3251.5492,-462.5 3251.5492,-347.5243 3104.0403,-296.5202 3005.67,-275.2899"/>
<polygon fill="#191970" stroke="#191970" points="3006.2216,-271.8296 2995.7167,-273.2065 3004.7875,-278.6811 3006.2216,-271.8296"/>
</g>
<!-- Node64 -->
<g id="node65" class="node">
<title>Node64</title>
<g id="a_node65"><a xlink:href="../../d7/dac/VtxTrackRef_8h.html" target="_top" xlink:title="Referenc on track indices contributing to the vertex, with possibility chose tracks from specific sou...">
<polygon fill="none" stroke="#000000" points="2843.5492,-313.5 2843.5492,-343.5 2995.5492,-343.5 2995.5492,-313.5 2843.5492,-313.5"/>
<text text-anchor="start" x="2851.5492" y="-331.5" font-family="Helvetica,sans-Serif" font-size="10.00" fill="#000000">ReconstructionDataFormats</text>
<text text-anchor="middle" x="2919.5492" y="-320.5" font-family="Helvetica,sans-Serif" font-size="10.00" fill="#000000">/VtxTrackRef.h</text>
</a>
</g>
</g>
<!-- Node1&#45;&gt;Node64 -->
<g id="edge108" class="edge">
<title>Node1&#45;&gt;Node64</title>
<path fill="none" stroke="#191970" d="M1986.3778,-660.5968C2234.8704,-647.5347 3213.5492,-592.1156 3213.5492,-529.5 3213.5492,-529.5 3213.5492,-529.5 3213.5492,-462.5 3213.5492,-413.8894 3078.7875,-369.6788 2991.7402,-346.192"/>
<polygon fill="#191970" stroke="#191970" points="2992.463,-342.7625 2981.899,-343.5698 2990.6607,-349.5265 2992.463,-342.7625"/>
</g>
<!-- Node4 -->
<g id="node5" class="node">
<title>Node4</title>
<g id="a_node5"><a xlink:href="../../d9/d80/InteractionRecord_8h.html" target="_top" xlink:title="CommonDataFormat/Interaction\lRecord.h">
<polygon fill="none" stroke="#000000" points="1573.5492,-246.5 1573.5492,-276.5 1747.5492,-276.5 1747.5492,-246.5 1573.5492,-246.5"/>
<text text-anchor="start" x="1581.5492" y="-264.5" font-family="Helvetica,sans-Serif" font-size="10.00" fill="#000000">CommonDataFormat/Interaction</text>
<text text-anchor="middle" x="1660.5492" y="-253.5" font-family="Helvetica,sans-Serif" font-size="10.00" fill="#000000">Record.h</text>
</a>
</g>
</g>
<!-- Node3&#45;&gt;Node4 -->
<g id="edge4" class="edge">
<title>Node3&#45;&gt;Node4</title>
<path fill="none" stroke="#191970" d="M1617.1769,-380.3856C1622.1552,-370.232 1628.6207,-356.4772 1633.5492,-344 1641.043,-325.0283 1648.1602,-303.0558 1653.2043,-286.5589"/>
<polygon fill="#191970" stroke="#191970" points="1656.6724,-287.1798 1656.2026,-276.5954 1649.9693,-285.1626 1656.6724,-287.1798"/>
</g>
<!-- Node11 -->
<g id="node12" class="node">
<title>Node11</title>
<g id="a_node12"><a xlink:href="../../d3/d6f/DataFormats_2Reconstruction_2include_2ReconstructionDataFormats_2Vertex_8h.html" target="_top" xlink:title="ReconstructionDataFormats\l/Vertex.h">
<polygon fill="none" stroke="#000000" points="1472.5492,-313.5 1472.5492,-343.5 1624.5492,-343.5 1624.5492,-313.5 1472.5492,-313.5"/>
<text text-anchor="start" x="1480.5492" y="-331.5" font-family="Helvetica,sans-Serif" font-size="10.00" fill="#000000">ReconstructionDataFormats</text>
<text text-anchor="middle" x="1548.5492" y="-320.5" font-family="Helvetica,sans-Serif" font-size="10.00" fill="#000000">/Vertex.h</text>
</a>
</g>
</g>
<!-- Node3&#45;&gt;Node11 -->
<g id="edge11" class="edge">
<title>Node3&#45;&gt;Node11</title>
<path fill="none" stroke="#191970" d="M1595.7073,-380.2967C1587.9081,-371.7303 1578.0125,-360.8614 1569.3022,-351.2943"/>
<polygon fill="#191970" stroke="#191970" points="1571.6565,-348.6813 1562.3362,-343.6432 1566.4804,-353.3939 1571.6565,-348.6813"/>
</g>
<!-- Node5 -->
<g id="node6" class="node">
<title>Node5</title>
<g id="a_node6"><a xlink:href="../../d2/d45/GPUCommonRtypes_8h.html" target="_top" xlink:title="GPUCommonRtypes.h">
<polygon fill="none" stroke="#000000" points="1856.0492,-185 1856.0492,-204 1981.0492,-204 1981.0492,-185 1856.0492,-185"/>
<text text-anchor="middle" x="1918.5492" y="-192" font-family="Helvetica,sans-Serif" font-size="10.00" fill="#000000">GPUCommonRtypes.h</text>
</a>
</g>
</g>
<!-- Node4&#45;&gt;Node5 -->
<g id="edge5" class="edge">
<title>Node4&#45;&gt;Node5</title>
<path fill="none" stroke="#191970" d="M1718.4494,-246.4639C1764.801,-234.4269 1828.9627,-217.7647 1872.0185,-206.5835"/>
<polygon fill="#191970" stroke="#191970" points="1873.1475,-209.9065 1881.9467,-204.0053 1871.388,-203.1313 1873.1475,-209.9065"/>
</g>
<!-- Node7 -->
<g id="node8" class="node">
<title>Node7</title>
<polygon fill="none" stroke="#bfbfbf" points="1789.0492,-185 1789.0492,-204 1838.0492,-204 1838.0492,-185 1789.0492,-185"/>
<text text-anchor="middle" x="1813.5492" y="-192" font-family="Helvetica,sans-Serif" font-size="10.00" fill="#000000">iosfwd</text>
</g>
<!-- Node4&#45;&gt;Node7 -->
<g id="edge7" class="edge">
<title>Node4&#45;&gt;Node7</title>
<path fill="none" stroke="#191970" d="M1694.8854,-246.4639C1721.135,-234.969 1757.0165,-219.2561 1782.4316,-208.1266"/>
<polygon fill="#191970" stroke="#191970" points="1783.8616,-211.3214 1791.6178,-204.1039 1781.0536,-204.9092 1783.8616,-211.3214"/>
</g>
<!-- Node8 -->
<g id="node9" class="node">
<title>Node8</title>
<polygon fill="none" stroke="#bfbfbf" points="2164.5492,-118 2164.5492,-137 2214.5492,-137 2214.5492,-118 2164.5492,-118"/>
<text text-anchor="middle" x="2189.5492" y="-125" font-family="Helvetica,sans-Serif" font-size="10.00" fill="#000000">cstdint</text>
</g>
<!-- Node4&#45;&gt;Node8 -->
<g id="edge8" class="edge">
<title>Node4&#45;&gt;Node8</title>
<path fill="none" stroke="#191970" d="M1685.812,-246.3864C1702.0215,-236.4588 1723.3619,-222.9558 1741.5492,-210 1759.5834,-197.1533 1760.1415,-187.5905 1780.5492,-179 1789.1708,-175.3708 2056.6514,-143.3027 2154.3066,-131.6818"/>
<polygon fill="#191970" stroke="#191970" points="2154.7675,-135.1518 2164.2843,-130.4954 2153.9409,-128.2008 2154.7675,-135.1518"/>
</g>
<!-- Node9 -->
<g id="node10" class="node">
<title>Node9</title>
<polygon fill="none" stroke="#bfbfbf" points="3076.0492,-56.5 3076.0492,-75.5 3123.0492,-75.5 3123.0492,-56.5 3076.0492,-56.5"/>
<text text-anchor="middle" x="3099.5492" y="-63.5" font-family="Helvetica,sans-Serif" font-size="10.00" fill="#000000">cmath</text>
</g>
<!-- Node4&#45;&gt;Node9 -->
<g id="edge9" class="edge">
<title>Node4&#45;&gt;Node9</title>
<path fill="none" stroke="#191970" d="M1747.5882,-257.6167C2005.4412,-246.088 2748.2036,-212.6929 2760.5492,-210 2796.5932,-202.1378 2802.1508,-189.3894 2837.5492,-179 2919.5984,-154.9186 2951.5126,-184.0063 3026.5492,-143 3052.5652,-128.7826 3074.7226,-102.0074 3087.5903,-84.0838"/>
<polygon fill="#191970" stroke="#191970" points="3090.6279,-85.8451 3093.4436,-75.6312 3084.873,-81.8598 3090.6279,-85.8451"/>
</g>
<!-- Node10 -->
<g id="node11" class="node">
<title>Node10</title>
<g id="a_node11"><a xlink:href="../../d4/dc6/LHCConstants_8h.html" target="_top" xlink:title="Header to collect LHC related constants. ">
<polygon fill="none" stroke="#000000" points="1542.5492,-185 1542.5492,-204 1732.5492,-204 1732.5492,-185 1542.5492,-185"/>
<text text-anchor="middle" x="1637.5492" y="-192" font-family="Helvetica,sans-Serif" font-size="10.00" fill="#000000">CommonConstants/LHCConstants.h</text>
</a>
</g>
</g>
<!-- Node4&#45;&gt;Node10 -->
<g id="edge10" class="edge">
<title>Node4&#45;&gt;Node10</title>
<path fill="none" stroke="#191970" d="M1655.3301,-246.2967C1652.0249,-236.6685 1647.7213,-224.1318 1644.1758,-213.8038"/>
<polygon fill="#191970" stroke="#191970" points="1647.3865,-212.3768 1640.8292,-204.055 1640.7658,-214.6496 1647.3865,-212.3768"/>
</g>
<!-- Node6 -->
<g id="node7" class="node">
<title>Node6</title>
<polygon fill="none" stroke="#bfbfbf" points="1988.0492,-118 1988.0492,-137 2047.0492,-137 2047.0492,-118 1988.0492,-118"/>
<text text-anchor="middle" x="2017.5492" y="-125" font-family="Helvetica,sans-Serif" font-size="10.00" fill="#000000">Rtypes.h</text>
</g>
<!-- Node5&#45;&gt;Node6 -->
<g id="edge6" class="edge">
<title>Node5&#45;&gt;Node6</title>
<path fill="none" stroke="#191970" d="M1932.7335,-184.9005C1948.9803,-173.9052 1975.8182,-155.7422 1994.9525,-142.7927"/>
<polygon fill="#191970" stroke="#191970" points="1997.0712,-145.5851 2003.3912,-137.0817 1993.1478,-139.7879 1997.0712,-145.5851"/>
</g>
<!-- Node11&#45;&gt;Node7 -->
<g id="edge30" class="edge">
<title>Node11&#45;&gt;Node7</title>
<path fill="none" stroke="#191970" d="M1546.8813,-313.4392C1545.7348,-294.9394 1546.8856,-263.8249 1564.5492,-246 1621.0552,-188.9779 1662.9749,-226.4477 1741.5492,-210 1753.7455,-207.447 1767.09,-204.5915 1778.941,-202.0339"/>
<polygon fill="#191970" stroke="#191970" points="1779.8711,-205.4137 1788.9047,-199.878 1778.3907,-198.572 1779.8711,-205.4137"/>
</g>
<!-- Node12 -->
<g id="node13" class="node">
<title>Node12</title>
<g id="a_node13"><a xlink:href="../../dd/d76/Cartesian3D_8h.html" target="_top" xlink:title="MathUtils/Cartesian3D.h">
<polygon fill="none" stroke="#000000" points="1264.0492,-252 1264.0492,-271 1399.0492,-271 1399.0492,-252 1264.0492,-252"/>
<text text-anchor="middle" x="1331.5492" y="-259" font-family="Helvetica,sans-Serif" font-size="10.00" fill="#000000">MathUtils/Cartesian3D.h</text>
</a>
</g>
</g>
<!-- Node11&#45;&gt;Node12 -->
<g id="edge12" class="edge">
<title>Node11&#45;&gt;Node12</title>
<path fill="none" stroke="#191970" d="M1499.8501,-313.4639C1461.358,-301.5792 1408.2628,-285.1858 1372.0691,-274.0108"/>
<polygon fill="#191970" stroke="#191970" points="1372.9225,-270.6113 1362.3349,-271.0053 1370.8573,-277.2997 1372.9225,-270.6113"/>
</g>
<!-- Node11&#45;&gt;Node22 -->
<g id="edge24" class="edge">
<title>Node11&#45;&gt;Node22</title>
<path fill="none" stroke="#191970" d="M1472.1964,-315.5817C1398.7201,-303.1501 1288.7535,-284.5447 1218.8529,-272.7181"/>
<polygon fill="#191970" stroke="#191970" points="1219.2833,-269.2412 1208.8395,-271.0239 1218.1155,-276.1431 1219.2833,-269.2412"/>
</g>
<!-- Node26 -->
<g id="node27" class="node">
<title>Node26</title>
<polygon fill="none" stroke="#bfbfbf" points="3272.5492,-118 3272.5492,-137 3314.5492,-137 3314.5492,-118 3272.5492,-118"/>
<text text-anchor="middle" x="3293.5492" y="-125" font-family="Helvetica,sans-Serif" font-size="10.00" fill="#000000">array</text>
</g>
<!-- Node11&#45;&gt;Node26 -->
<g id="edge29" class="edge">
<title>Node11&#45;&gt;Node26</title>
<path fill="none" stroke="#191970" d="M1624.7336,-323.8672C1682.1222,-320.4963 1762.7535,-316.013 1833.5492,-313 1963.604,-307.4651 2884.2728,-326.7844 3004.5492,-277 3023.1424,-269.3039 3019.4828,-254.8625 3037.5492,-246 3128.8645,-201.205 3185.1048,-274.7423 3263.5492,-210 3282.3164,-194.5109 3289.3435,-166.2511 3291.9745,-147.1756"/>
<polygon fill="#191970" stroke="#191970" points="3295.4606,-147.4933 3293.0712,-137.1714 3288.5023,-146.7305 3295.4606,-147.4933"/>
</g>
<!-- Node12&#45;&gt;Node6 -->
<g id="edge18" class="edge">
<title>Node12&#45;&gt;Node6</title>
<path fill="none" stroke="#191970" d="M1285.573,-251.9412C1232.7859,-240.5048 1152.2985,-221.4685 1143.5492,-210 1135.1923,-199.046 1134.0977,-189.0248 1143.5492,-179 1172.5148,-148.2774 1809.8362,-132.0851 1977.4563,-128.3481"/>
<polygon fill="#191970" stroke="#191970" points="1977.6617,-131.8445 1987.5821,-128.1248 1977.5073,-124.8462 1977.6617,-131.8445"/>
</g>
<!-- Node12&#45;&gt;Node7 -->
<g id="edge20" class="edge">
<title>Node12&#45;&gt;Node7</title>
<path fill="none" stroke="#191970" d="M1399.2861,-254.8188C1480.7991,-246.3579 1621.6722,-230.3925 1741.5492,-210 1753.8334,-207.9103 1767.1989,-205.1654 1779.0422,-202.567"/>
<polygon fill="#191970" stroke="#191970" points="1779.9977,-205.9399 1788.9926,-200.3414 1778.4698,-199.1086 1779.9977,-205.9399"/>
</g>
<!-- Node13 -->
<g id="node14" class="node">
<title>Node13</title>
<polygon fill="none" stroke="#bfbfbf" points="1152.5492,-179.5 1152.5492,-209.5 1316.5492,-209.5 1316.5492,-179.5 1152.5492,-179.5"/>
<text text-anchor="start" x="1160.5492" y="-197.5" font-family="Helvetica,sans-Serif" font-size="10.00" fill="#000000">Math/GenVector/Displacement</text>
<text text-anchor="middle" x="1234.5492" y="-186.5" font-family="Helvetica,sans-Serif" font-size="10.00" fill="#000000">Vector3D.h</text>
</g>
<!-- Node12&#45;&gt;Node13 -->
<g id="edge13" class="edge">
<title>Node12&#45;&gt;Node13</title>
<path fill="none" stroke="#191970" d="M1317.6514,-251.9005C1303.8757,-242.3853 1282.3286,-227.5023 1264.6271,-215.2755"/>
<polygon fill="#191970" stroke="#191970" points="1266.5143,-212.3253 1256.2971,-209.5218 1262.536,-218.0849 1266.5143,-212.3253"/>
</g>
<!-- Node14 -->
<g id="node15" class="node">
<title>Node14</title>
<polygon fill="none" stroke="#bfbfbf" points="1335.0492,-185 1335.0492,-204 1524.0492,-204 1524.0492,-185 1335.0492,-185"/>
<text text-anchor="middle" x="1429.5492" y="-192" font-family="Helvetica,sans-Serif" font-size="10.00" fill="#000000">Math/GenVector/PositionVector3D.h</text>
</g>
<!-- Node12&#45;&gt;Node14 -->
<g id="edge14" class="edge">
<title>Node12&#45;&gt;Node14</title>
<path fill="none" stroke="#191970" d="M1345.5902,-251.9005C1361.6729,-240.9052 1388.2397,-222.7422 1407.1808,-209.7927"/>
<polygon fill="#191970" stroke="#191970" points="1409.2544,-212.6148 1415.5342,-204.0817 1405.3037,-206.8362 1409.2544,-212.6148"/>
</g>
<!-- Node15 -->
<g id="node16" class="node">
<title>Node15</title>
<polygon fill="none" stroke="#bfbfbf" points="458.5492,-185 458.5492,-204 618.5492,-204 618.5492,-185 458.5492,-185"/>
<text text-anchor="middle" x="538.5492" y="-192" font-family="Helvetica,sans-Serif" font-size="10.00" fill="#000000">Math/GenVector/Rotation3D.h</text>
</g>
<!-- Node12&#45;&gt;Node15 -->
<g id="edge15" class="edge">
<title>Node12&#45;&gt;Node15</title>
<path fill="none" stroke="#191970" d="M1290.3145,-251.966C1279.0916,-249.6793 1266.8999,-247.475 1255.5492,-246 978.3109,-209.9731 905.2769,-242.0366 627.5492,-210 617.7334,-208.8677 607.3587,-207.354 597.2948,-205.7152"/>
<polygon fill="#191970" stroke="#191970" points="597.8089,-202.2526 587.3667,-204.0442 596.647,-209.1555 597.8089,-202.2526"/>
</g>
<!-- Node16 -->
<g id="node17" class="node">
<title>Node16</title>
<polygon fill="none" stroke="#bfbfbf" points="636.5492,-185 636.5492,-204 804.5492,-204 804.5492,-185 636.5492,-185"/>
<text text-anchor="middle" x="720.5492" y="-192" font-family="Helvetica,sans-Serif" font-size="10.00" fill="#000000">Math/GenVector/Transform3D.h</text>
</g>
<!-- Node12&#45;&gt;Node16 -->
<g id="edge16" class="edge">
<title>Node12&#45;&gt;Node16</title>
<path fill="none" stroke="#191970" d="M1289.4957,-251.9883C1278.4937,-249.757 1266.6146,-247.5743 1255.5492,-246 1060.8576,-218.3015 1009.729,-234.0175 814.5492,-210 804.5764,-208.7728 794.0434,-207.2552 783.7776,-205.6541"/>
<polygon fill="#191970" stroke="#191970" points="784.0585,-202.1547 773.6315,-204.0329 782.9539,-209.067 784.0585,-202.1547"/>
</g>
<!-- Node17 -->
<g id="node18" class="node">
<title>Node17</title>
<polygon fill="none" stroke="#bfbfbf" points="823.0492,-185 823.0492,-204 996.0492,-204 996.0492,-185 823.0492,-185"/>
<text text-anchor="middle" x="909.5492" y="-192" font-family="Helvetica,sans-Serif" font-size="10.00" fill="#000000">Math/GenVector/Translation3D.h</text>
</g>
<!-- Node12&#45;&gt;Node17 -->
<g id="edge17" class="edge">
<title>Node12&#45;&gt;Node17</title>
<path fill="none" stroke="#191970" d="M1287.0236,-251.9677C1276.7108,-249.8855 1265.7648,-247.7757 1255.5492,-246 1144.9504,-226.7755 1116.5198,-226.9472 1005.5492,-210 996.4797,-208.6149 986.9348,-207.1194 977.5249,-205.6228"/>
<polygon fill="#191970" stroke="#191970" points="977.8232,-202.1261 967.3961,-204.0035 976.7181,-209.0384 977.8232,-202.1261"/>
</g>
<!-- Node18 -->
<g id="node19" class="node">
<title>Node18</title>
<polygon fill="none" stroke="#bfbfbf" points="1014.5492,-185 1014.5492,-204 1096.5492,-204 1096.5492,-185 1014.5492,-185"/>
<text text-anchor="middle" x="1055.5492" y="-192" font-family="Helvetica,sans-Serif" font-size="10.00" fill="#000000">TGeoMatrix.h</text>
</g>
<!-- Node12&#45;&gt;Node18 -->
<g id="edge19" class="edge">
<title>Node12&#45;&gt;Node18</title>
<path fill="none" stroke="#191970" d="M1287.7954,-251.924C1243.1058,-241.9978 1171.7856,-225.755 1110.5492,-210 1106.4959,-208.9572 1102.285,-207.8371 1098.0783,-206.6936"/>
<polygon fill="#191970" stroke="#191970" points="1098.9176,-203.2945 1088.3468,-204.0081 1097.0554,-210.0422 1098.9176,-203.2945"/>
</g>
<!-- Node19 -->
<g id="node20" class="node">
<title>Node19</title>
<g id="a_node20"><a xlink:href="../../d2/dd0/Cartesian2D_8h.html" target="_top" xlink:title="MathUtils/Cartesian2D.h">
<polygon fill="none" stroke="#000000" points="229.0492,-185 229.0492,-204 364.0492,-204 364.0492,-185 229.0492,-185"/>
<text text-anchor="middle" x="296.5492" y="-192" font-family="Helvetica,sans-Serif" font-size="10.00" fill="#000000">MathUtils/Cartesian2D.h</text>
</a>
</g>
</g>
<!-- Node12&#45;&gt;Node19 -->
<g id="edge21" class="edge">
<title>Node12&#45;&gt;Node19</title>
<path fill="none" stroke="#191970" d="M1290.7224,-251.9508C1279.3908,-249.635 1267.0426,-247.4198 1255.5492,-246 899.675,-202.0373 807.1788,-236.0812 449.5492,-210 425.0849,-208.2159 398.4741,-205.716 374.4085,-203.2438"/>
<polygon fill="#191970" stroke="#191970" points="374.5727,-199.7421 364.2641,-202.1882 373.8481,-206.7045 374.5727,-199.7421"/>
</g>
<!-- Node20 -->
<g id="node21" class="node">
<title>Node20</title>
<polygon fill="none" stroke="#bfbfbf" points="238.5492,-112.5 238.5492,-142.5 402.5492,-142.5 402.5492,-112.5 238.5492,-112.5"/>
<text text-anchor="start" x="246.5492" y="-130.5" font-family="Helvetica,sans-Serif" font-size="10.00" fill="#000000">Math/GenVector/Displacement</text>
<text text-anchor="middle" x="320.5492" y="-119.5" font-family="Helvetica,sans-Serif" font-size="10.00" fill="#000000">Vector2D.h</text>
</g>
<!-- Node19&#45;&gt;Node20 -->
<g id="edge22" class="edge">
<title>Node19&#45;&gt;Node20</title>
<path fill="none" stroke="#191970" d="M299.9878,-184.9005C303.0554,-176.3368 307.6804,-163.4252 311.7676,-152.0152"/>
<polygon fill="#191970" stroke="#191970" points="315.0909,-153.1163 315.1682,-142.5218 308.5009,-150.7557 315.0909,-153.1163"/>
</g>
<!-- Node21 -->
<g id="node22" class="node">
<title>Node21</title>
<polygon fill="none" stroke="#bfbfbf" points="31.0492,-118 31.0492,-137 220.0492,-137 220.0492,-118 31.0492,-118"/>
<text text-anchor="middle" x="125.5492" y="-125" font-family="Helvetica,sans-Serif" font-size="10.00" fill="#000000">Math/GenVector/PositionVector2D.h</text>
</g>
<!-- Node19&#45;&gt;Node21 -->
<g id="edge23" class="edge">
<title>Node19&#45;&gt;Node21</title>
<path fill="none" stroke="#191970" d="M272.049,-184.9005C242.4625,-173.3082 192.5418,-153.7486 159.3187,-140.7313"/>
<polygon fill="#191970" stroke="#191970" points="160.5915,-137.471 150.0038,-137.0817 158.0378,-143.9886 160.5915,-137.471"/>
</g>
<!-- Node22&#45;&gt;Node5 -->
<g id="edge25" class="edge">
<title>Node22&#45;&gt;Node5</title>
<path fill="none" stroke="#191970" d="M1209.6387,-251.9877C1224.5481,-249.7564 1240.6228,-247.5738 1255.5492,-246 1517.6932,-218.3599 1586.4521,-246.2185 1847.5492,-210 1854.9351,-208.9754 1862.695,-207.5978 1870.2624,-206.0848"/>
<polygon fill="#191970" stroke="#191970" points="1870.9811,-209.5103 1880.0521,-204.036 1869.5472,-202.6587 1870.9811,-209.5103"/>
</g>
<!-- Node23 -->
<g id="node24" class="node">
<title>Node23</title>
<g id="a_node24"><a xlink:href="../../df/d21/GPUCommonDef_8h.html" target="_top" xlink:title="GPUCommonDef.h">
<polygon fill="none" stroke="#000000" points="2820.0492,-56.5 2820.0492,-75.5 2927.0492,-75.5 2927.0492,-56.5 2820.0492,-56.5"/>
<text text-anchor="middle" x="2873.5492" y="-63.5" font-family="Helvetica,sans-Serif" font-size="10.00" fill="#000000">GPUCommonDef.h</text>
</a>
</g>
</g>
<!-- Node22&#45;&gt;Node23 -->
<g id="edge26" class="edge">
<title>Node22&#45;&gt;Node23</title>
<path fill="none" stroke="#191970" d="M1058.8781,-257.9868C872.2269,-250.53 469.9865,-231.9893 449.5492,-210 440.1695,-199.908 440.296,-189.2082 449.5492,-179 551.6751,-66.3334 978.7795,-121.4564 1130.5492,-112 1466.869,-91.0447 2536.5059,-71.7466 2809.5912,-67.0725"/>
<polygon fill="#191970" stroke="#191970" points="2809.7885,-70.5697 2819.7273,-66.8994 2809.669,-63.5707 2809.7885,-70.5697"/>
</g>
<!-- Node24 -->
<g id="node25" class="node">
<title>Node24</title>
<g id="a_node25"><a xlink:href="../../d5/d93/GPUCommonDefSettings_8h.html" target="_top" xlink:title="GPUCommonDefSettings.h">
<polygon fill="none" stroke="#000000" points="2722.5492,-.5 2722.5492,-19.5 2870.5492,-19.5 2870.5492,-.5 2722.5492,-.5"/>
<text text-anchor="middle" x="2796.5492" y="-7.5" font-family="Helvetica,sans-Serif" font-size="10.00" fill="#000000">GPUCommonDefSettings.h</text>
</a>
</g>
</g>
<!-- Node23&#45;&gt;Node24 -->
<g id="edge27" class="edge">
<title>Node23&#45;&gt;Node24</title>
<path fill="none" stroke="#191970" d="M2860.1368,-56.2455C2848.5434,-47.814 2831.5744,-35.4729 2818.0813,-25.6598"/>
<polygon fill="#191970" stroke="#191970" points="2819.9538,-22.6938 2809.8078,-19.6427 2815.8366,-28.355 2819.9538,-22.6938"/>
</g>
<!-- Node25 -->
<g id="node26" class="node">
<title>Node25</title>
<g id="a_node26"><a xlink:href="../../da/d5a/GPUCommonDefAPI_8h.html" target="_top" xlink:title="GPUCommonDefAPI.h">
<polygon fill="none" stroke="#000000" points="2888.5492,-.5 2888.5492,-19.5 3012.5492,-19.5 3012.5492,-.5 2888.5492,-.5"/>
<text text-anchor="middle" x="2950.5492" y="-7.5" font-family="Helvetica,sans-Serif" font-size="10.00" fill="#000000">GPUCommonDefAPI.h</text>
</a>
</g>
</g>
<!-- Node23&#45;&gt;Node25 -->
<g id="edge28" class="edge">
<title>Node23&#45;&gt;Node25</title>
<path fill="none" stroke="#191970" d="M2886.9615,-56.2455C2898.5549,-47.814 2915.5239,-35.4729 2929.017,-25.6598"/>
<polygon fill="#191970" stroke="#191970" points="2931.2617,-28.355 2937.2905,-19.6427 2927.1445,-22.6938 2931.2617,-28.355"/>
</g>
<!-- Node28 -->
<g id="node29" class="node">
<title>Node28</title>
<g id="a_node29"><a xlink:href="../../d2/d98/TrackParametrization_8h.html" target="_top" xlink:title="ReconstructionDataFormats\l/TrackParametrization.h">
<polygon fill="none" stroke="#000000" points="2180.5492,-447.5 2180.5492,-477.5 2332.5492,-477.5 2332.5492,-447.5 2180.5492,-447.5"/>
<text text-anchor="start" x="2188.5492" y="-465.5" font-family="Helvetica,sans-Serif" font-size="10.00" fill="#000000">ReconstructionDataFormats</text>
<text text-anchor="middle" x="2256.5492" y="-454.5" font-family="Helvetica,sans-Serif" font-size="10.00" fill="#000000">/TrackParametrization.h</text>
</a>
</g>
</g>
<!-- Node27&#45;&gt;Node28 -->
<g id="edge32" class="edge">
<title>Node27&#45;&gt;Node28</title>
<path fill="none" stroke="#191970" d="M2187.0032,-581.479C2205.255,-573.3793 2224.8389,-561.5631 2237.5492,-545 2250.072,-528.6811 2254.5812,-505.5481 2256.0959,-487.9286"/>
<polygon fill="#191970" stroke="#191970" points="2259.5995,-487.9703 2256.697,-477.7808 2252.6118,-487.5563 2259.5995,-487.9703"/>
</g>
<!-- Node61 -->
<g id="node62" class="node">
<title>Node61</title>
<g id="a_node62"><a xlink:href="../../d3/d30/TrackParametrizationWithError_8h.html" target="_top" xlink:title="ReconstructionDataFormats\l/TrackParametrizationWithError.h">
<polygon fill="none" stroke="#000000" points="2052.5492,-514.5 2052.5492,-544.5 2228.5492,-544.5 2228.5492,-514.5 2052.5492,-514.5"/>
<text text-anchor="start" x="2060.5492" y="-532.5" font-family="Helvetica,sans-Serif" font-size="10.00" fill="#000000">ReconstructionDataFormats</text>
<text text-anchor="middle" x="2140.5492" y="-521.5" font-family="Helvetica,sans-Serif" font-size="10.00" fill="#000000">/TrackParametrizationWithError.h</text>
</a>
</g>
</g>
<!-- Node27&#45;&gt;Node61 -->
<g id="edge99" class="edge">
<title>Node27&#45;&gt;Node61</title>
<path fill="none" stroke="#191970" d="M2140.5492,-581.2967C2140.5492,-573.5013 2140.5492,-563.7991 2140.5492,-554.9064"/>
<polygon fill="#191970" stroke="#191970" points="2144.0493,-554.6431 2140.5492,-544.6432 2137.0493,-554.6432 2144.0493,-554.6431"/>
</g>
<!-- Node28&#45;&gt;Node5 -->
<g id="edge33" class="edge">
<title>Node28&#45;&gt;Node5</title>
<path fill="none" stroke="#191970" d="M2239.6249,-447.3948C2206.7246,-418.562 2131.0781,-354.8336 2059.5492,-313 2024.8401,-292.7005 2007.7225,-302.3971 1976.5492,-277 1964.9616,-267.5596 1943.032,-234.0156 1929.7094,-212.718"/>
<polygon fill="#191970" stroke="#191970" points="1932.6643,-210.8418 1924.4217,-204.1853 1926.7142,-214.5292 1932.6643,-210.8418"/>
</g>
<!-- Node28&#45;&gt;Node7 -->
<g id="edge39" class="edge">
<title>Node28&#45;&gt;Node7</title>
<path fill="none" stroke="#191970" d="M2180.4374,-459.0091C2059.8909,-452.7053 1836.1057,-437.5486 1811.5492,-411 1760.7254,-356.0532 1790.1764,-255.5978 1805.7711,-213.6739"/>
<polygon fill="#191970" stroke="#191970" points="1809.0383,-214.929 1809.38,-204.3397 1802.5093,-212.4046 1809.0383,-214.929"/>
</g>
<!-- Node28&#45;&gt;Node9 -->
<g id="edge37" class="edge">
<title>Node28&#45;&gt;Node9</title>
<path fill="none" stroke="#191970" d="M2332.8466,-458.3501C2540.3587,-446.0518 3099.5492,-405.7449 3099.5492,-328.5 3099.5492,-328.5 3099.5492,-328.5 3099.5492,-194.5 3099.5492,-156.0012 3099.5492,-111.0145 3099.5492,-85.7812"/>
<polygon fill="#191970" stroke="#191970" points="3103.0493,-85.6718 3099.5492,-75.6719 3096.0493,-85.6719 3103.0493,-85.6718"/>
</g>
<!-- Node28&#45;&gt;Node26 -->
<g id="edge35" class="edge">
<title>Node28&#45;&gt;Node26</title>
<path fill="none" stroke="#191970" d="M2332.9135,-460.1362C2542.4023,-453.3966 3116.0432,-433.1387 3198.5492,-411 3325.6361,-376.899 3393.7106,-389.1393 3462.5492,-277 3489.7644,-232.666 3440.5176,-209.738 3398.5492,-179 3395.1681,-176.5237 3352.4615,-155.8144 3322.5688,-141.4242"/>
<polygon fill="#191970" stroke="#191970" points="3323.9087,-138.185 3313.3797,-137.0053 3320.875,-144.4934 3323.9087,-138.185"/>
</g>
<!-- Node29 -->
<g id="node30" class="node">
<title>Node29</title>
<polygon fill="none" stroke="#bfbfbf" points="2213.5492,-56.5 2213.5492,-75.5 2277.5492,-75.5 2277.5492,-56.5 2213.5492,-56.5"/>
<text text-anchor="middle" x="2245.5492" y="-63.5" font-family="Helvetica,sans-Serif" font-size="10.00" fill="#000000">algorithm</text>
</g>
<!-- Node28&#45;&gt;Node29 -->
<g id="edge34" class="edge">
<title>Node28&#45;&gt;Node29</title>
<path fill="none" stroke="#191970" d="M2180.263,-462.0418C1786.5323,-459.1881 2.5492,-440.1004 2.5492,-328.5 2.5492,-328.5 2.5492,-328.5 2.5492,-194.5 2.5492,-156.8735 -7.6475,-135.7341 21.5492,-112 65.5334,-76.245 1900.365,-67.3793 2203.3803,-66.158"/>
<polygon fill="#191970" stroke="#191970" points="2203.5219,-69.6576 2213.5078,-66.1178 2203.494,-62.6576 2203.5219,-69.6576"/>
</g>
<!-- Node30 -->
<g id="node31" class="node">
<title>Node30</title>
<polygon fill="none" stroke="#bfbfbf" points="1703.5492,-386 1703.5492,-405 1747.5492,-405 1747.5492,-386 1703.5492,-386"/>
<text text-anchor="middle" x="1725.5492" y="-393" font-family="Helvetica,sans-Serif" font-size="10.00" fill="#000000">cfloat</text>
</g>
<!-- Node28&#45;&gt;Node30 -->
<g id="edge36" class="edge">
<title>Node28&#45;&gt;Node30</title>
<path fill="none" stroke="#191970" d="M2180.3272,-457.3992C2061.7404,-448.9855 1838.6747,-431.1143 1761.5492,-411 1759.2158,-410.3915 1756.8386,-409.6544 1754.4744,-408.836"/>
<polygon fill="#191970" stroke="#191970" points="1755.563,-405.5039 1744.9746,-405.1352 1753.022,-412.0265 1755.563,-405.5039"/>
</g>
<!-- Node31 -->
<g id="node32" class="node">
<title>Node31</title>
<polygon fill="none" stroke="#bfbfbf" points="1139.5492,-118 1139.5492,-137 1189.5492,-137 1189.5492,-118 1139.5492,-118"/>
<text text-anchor="middle" x="1164.5492" y="-125" font-family="Helvetica,sans-Serif" font-size="10.00" fill="#000000">cstring</text>
</g>
<!-- Node28&#45;&gt;Node31 -->
<g id="edge38" class="edge">
<title>Node28&#45;&gt;Node31</title>
<path fill="none" stroke="#191970" d="M2180.2954,-461.0778C1830.046,-454.0542 392.5492,-419.6745 392.5492,-328.5 392.5492,-328.5 392.5492,-328.5 392.5492,-261.5 392.5492,-216.9329 410.852,-201.1078 449.5492,-179 508.9285,-145.0765 993.418,-131.4413 1129.2593,-128.2632"/>
<polygon fill="#191970" stroke="#191970" points="1129.5961,-131.7565 1139.5131,-128.0278 1129.4354,-124.7583 1129.5961,-131.7565"/>
</g>
<!-- Node32 -->
<g id="node33" class="node">
<title>Node32</title>
<g id="a_node33"><a xlink:href="../../d4/de2/BaseCluster_8h.html" target="_top" xlink:title="ReconstructionDataFormats\l/BaseCluster.h">
<polygon fill="none" stroke="#000000" points="1820.5492,-380.5 1820.5492,-410.5 1972.5492,-410.5 1972.5492,-380.5 1820.5492,-380.5"/>
<text text-anchor="start" x="1828.5492" y="-398.5" font-family="Helvetica,sans-Serif" font-size="10.00" fill="#000000">ReconstructionDataFormats</text>
<text text-anchor="middle" x="1896.5492" y="-387.5" font-family="Helvetica,sans-Serif" font-size="10.00" fill="#000000">/BaseCluster.h</text>
</a>
</g>
</g>
<!-- Node28&#45;&gt;Node32 -->
<g id="edge40" class="edge">
<title>Node28&#45;&gt;Node32</title>
<path fill="none" stroke="#191970" d="M2180.2024,-448.291C2122.3309,-437.5205 2042.775,-422.7143 1982.6412,-411.5227"/>
<polygon fill="#191970" stroke="#191970" points="1983.2575,-408.0774 1972.7859,-409.6885 1981.9766,-414.9592 1983.2575,-408.0774"/>
</g>
<!-- Node45 -->
<g id="node46" class="node">
<title>Node45</title>
<polygon fill="none" stroke="#bfbfbf" points="2801.5492,-118 2801.5492,-137 2845.5492,-137 2845.5492,-118 2801.5492,-118"/>
<text text-anchor="middle" x="2823.5492" y="-125" font-family="Helvetica,sans-Serif" font-size="10.00" fill="#000000">string</text>
</g>
<!-- Node28&#45;&gt;Node45 -->
<g id="edge84" class="edge">
<title>Node28&#45;&gt;Node45</title>
<path fill="none" stroke="#191970" d="M2332.6762,-456.7733C2393.6323,-450.4213 2480.5432,-437.3519 2552.5492,-411 2688.915,-361.0944 2703.6414,-308.8441 2834.5492,-246 2874.8794,-226.6389 2903.1957,-246.859 2928.5492,-210 2936.3574,-198.6484 2935.8373,-190.6923 2928.5492,-179 2920.1793,-165.5723 2883.0808,-149.4054 2855.3376,-138.812"/>
<polygon fill="#191970" stroke="#191970" points="2856.2027,-135.3989 2845.6102,-135.1767 2853.7522,-141.956 2856.2027,-135.3989"/>
</g>
<!-- Node47 -->
<g id="node48" class="node">
<title>Node47</title>
<g id="a_node48"><a xlink:href="../../d9/d52/Common_2MathUtils_2include_2MathUtils_2Utils_8h.html" target="_top" xlink:title="MathUtils/Utils.h">
<polygon fill="none" stroke="#000000" points="3127.5492,-185 3127.5492,-204 3225.5492,-204 3225.5492,-185 3127.5492,-185"/>
<text text-anchor="middle" x="3176.5492" y="-192" font-family="Helvetica,sans-Serif" font-size="10.00" fill="#000000">MathUtils/Utils.h</text>
</a>
</g>
</g>
<!-- Node28&#45;&gt;Node47 -->
<g id="edge86" class="edge">
<title>Node28&#45;&gt;Node47</title>
<path fill="none" stroke="#191970" d="M2332.8117,-460.2865C2537.0959,-454.0434 3083.2835,-435.167 3113.5492,-411 3174.4846,-362.3434 3178.7345,-258.3233 3177.6206,-214.5591"/>
<polygon fill="#191970" stroke="#191970" points="3181.1099,-214.2114 3177.2301,-204.3525 3174.115,-214.4791 3181.1099,-214.2114"/>
</g>
<!-- Node49 -->
<g id="node50" class="node">
<title>Node49</title>
<g id="a_node50"><a xlink:href="../../d6/d84/MathConstants_8h.html" target="_top" xlink:title="useful math constants ">
<polygon fill="none" stroke="#000000" points="3335.5492,-118 3335.5492,-137 3529.5492,-137 3529.5492,-118 3335.5492,-118"/>
<text text-anchor="middle" x="3432.5492" y="-125" font-family="Helvetica,sans-Serif" font-size="10.00" fill="#000000">CommonConstants/MathConstants.h</text>
</a>
</g>
</g>
<!-- Node28&#45;&gt;Node49 -->
<g id="edge85" class="edge">
<title>Node28&#45;&gt;Node49</title>
<path fill="none" stroke="#191970" d="M2332.8364,-461.411C2537.8543,-458.045 3097.4422,-445.8463 3278.5492,-411 3389.7232,-389.6093 3519.5492,-441.7132 3519.5492,-328.5 3519.5492,-328.5 3519.5492,-328.5 3519.5492,-261.5 3519.5492,-212.4444 3478.0255,-167.2136 3452.352,-143.9363"/>
<polygon fill="#191970" stroke="#191970" points="3454.4707,-141.139 3444.6461,-137.1731 3449.8532,-146.4001 3454.4707,-141.139"/>
</g>
<!-- Node56 -->
<g id="node57" class="node">
<title>Node56</title>
<g id="a_node57"><a xlink:href="../../d8/d77/Primitive2D_8h.html" target="_top" xlink:title="Declarations of 2D primitives: straight line (XY interval) and circle. ">
<polygon fill="none" stroke="#000000" points="1991.0492,-386 1991.0492,-405 2124.0492,-405 2124.0492,-386 1991.0492,-386"/>
<text text-anchor="middle" x="2057.5492" y="-393" font-family="Helvetica,sans-Serif" font-size="10.00" fill="#000000">MathUtils/Primitive2D.h</text>
</a>
</g>
</g>
<!-- Node28&#45;&gt;Node56 -->
<g id="edge87" class="edge">
<title>Node28&#45;&gt;Node56</title>
<path fill="none" stroke="#191970" d="M2211.8897,-447.4639C2176.8921,-435.6808 2128.7308,-419.4657 2095.5624,-408.2984"/>
<polygon fill="#191970" stroke="#191970" points="2096.3754,-404.8791 2085.7813,-405.0053 2094.1417,-411.5132 2096.3754,-404.8791"/>
</g>
<!-- Node57 -->
<g id="node58" class="node">
<title>Node57</title>
<g id="a_node58"><a xlink:href="../../d5/d08/DataFormats_2Reconstruction_2include_2ReconstructionDataFormats_2PID_8h.html" target="_top" xlink:title="ReconstructionDataFormats\l/PID.h">
<polygon fill="none" stroke="#000000" points="2233.5492,-380.5 2233.5492,-410.5 2385.5492,-410.5 2385.5492,-380.5 2233.5492,-380.5"/>
<text text-anchor="start" x="2241.5492" y="-398.5" font-family="Helvetica,sans-Serif" font-size="10.00" fill="#000000">ReconstructionDataFormats</text>
<text text-anchor="middle" x="2309.5492" y="-387.5" font-family="Helvetica,sans-Serif" font-size="10.00" fill="#000000">/PID.h</text>
</a>
</g>
</g>
<!-- Node28&#45;&gt;Node57 -->
<g id="edge89" class="edge">
<title>Node28&#45;&gt;Node57</title>
<path fill="none" stroke="#191970" d="M2268.5757,-447.2967C2275.2843,-438.816 2283.7781,-428.0785 2291.2905,-418.5817"/>
<polygon fill="#191970" stroke="#191970" points="2294.1112,-420.6574 2297.5702,-410.6432 2288.6212,-416.3146 2294.1112,-420.6574"/>
</g>
<!-- Node59 -->
<g id="node60" class="node">
<title>Node59</title>
<g id="a_node60"><a xlink:href="../../d2/d97/TrackUtils_8h.html" target="_top" xlink:title="ReconstructionDataFormats\l/TrackUtils.h">
<polygon fill="none" stroke="#000000" points="3301.5492,-246.5 3301.5492,-276.5 3453.5492,-276.5 3453.5492,-246.5 3301.5492,-246.5"/>
<text text-anchor="start" x="3309.5492" y="-264.5" font-family="Helvetica,sans-Serif" font-size="10.00" fill="#000000">ReconstructionDataFormats</text>
<text text-anchor="middle" x="3377.5492" y="-253.5" font-family="Helvetica,sans-Serif" font-size="10.00" fill="#000000">/TrackUtils.h</text>
</a>
</g>
</g>
<!-- Node28&#45;&gt;Node59 -->
<g id="edge92" class="edge">
<title>Node28&#45;&gt;Node59</title>
<path fill="none" stroke="#191970" d="M2332.8644,-460.3869C2535.1675,-454.4639 3074.9804,-436.4548 3151.5492,-411 3234.07,-383.5665 3315.2532,-317.8027 3354.0047,-283.3671"/>
<polygon fill="#191970" stroke="#191970" points="3356.5223,-285.8101 3361.615,-276.5195 3351.8402,-280.6065 3356.5223,-285.8101"/>
</g>
<!-- Node60 -->
<g id="node61" class="node">
<title>Node60</title>
<g id="a_node61"><a xlink:href="../../d1/da8/GPUROOTCartesianFwd_8h.html" target="_top" xlink:title="GPUROOTCartesianFwd.h">
<polygon fill="none" stroke="#000000" points="2403.5492,-386 2403.5492,-405 2543.5492,-405 2543.5492,-386 2403.5492,-386"/>
<text text-anchor="middle" x="2473.5492" y="-393" font-family="Helvetica,sans-Serif" font-size="10.00" fill="#000000">GPUROOTCartesianFwd.h</text>
</a>
</g>
</g>
<!-- Node28&#45;&gt;Node60 -->
<g id="edge98" class="edge">
<title>Node28&#45;&gt;Node60</title>
<path fill="none" stroke="#191970" d="M2305.2482,-447.4639C2343.7403,-435.5792 2396.8355,-419.1858 2433.0293,-408.0108"/>
<polygon fill="#191970" stroke="#191970" points="2434.241,-411.2997 2442.7634,-405.0053 2432.1759,-404.6113 2434.241,-411.2997"/>
</g>
<!-- Node32&#45;&gt;Node7 -->
<g id="edge45" class="edge">
<title>Node32&#45;&gt;Node7</title>
<path fill="none" stroke="#191970" d="M1869.7423,-380.3096C1856.6534,-371.4496 1841.9515,-359.048 1833.5492,-344 1810.3431,-302.4395 1810.0089,-244.5232 1811.7658,-214.4332"/>
<polygon fill="#191970" stroke="#191970" points="1815.264,-214.5829 1812.4982,-204.3555 1808.2825,-214.0755 1815.264,-214.5829"/>
</g>
<!-- Node32&#45;&gt;Node12 -->
<g id="edge83" class="edge">
<title>Node32&#45;&gt;Node12</title>
<path fill="none" stroke="#191970" d="M1820.4447,-386.9375C1698.4283,-373.1416 1471.7824,-347.2077 1463.5492,-344 1441.5966,-335.4473 1440.3254,-325.8048 1420.5492,-313 1400.0046,-299.6977 1375.9387,-285.8725 1358.0158,-275.8998"/>
<polygon fill="#191970" stroke="#191970" points="1359.6999,-272.8316 1349.2544,-271.0591 1356.3146,-278.9587 1359.6999,-272.8316"/>
</g>
<!-- Node33 -->
<g id="node34" class="node">
<title>Node33</title>
<polygon fill="none" stroke="#bfbfbf" points="1842.0492,-319 1842.0492,-338 1905.0492,-338 1905.0492,-319 1842.0492,-319"/>
<text text-anchor="middle" x="1873.5492" y="-326" font-family="Helvetica,sans-Serif" font-size="10.00" fill="#000000">TObject.h</text>
</g>
<!-- Node32&#45;&gt;Node33 -->
<g id="edge41" class="edge">
<title>Node32&#45;&gt;Node33</title>
<path fill="none" stroke="#191970" d="M1891.3301,-380.2967C1888.0249,-370.6685 1883.7213,-358.1318 1880.1758,-347.8038"/>
<polygon fill="#191970" stroke="#191970" points="1883.3865,-346.3768 1876.8292,-338.055 1876.7658,-348.6496 1883.3865,-346.3768"/>
</g>
<!-- Node34 -->
<g id="node35" class="node">
<title>Node34</title>
<polygon fill="none" stroke="#bfbfbf" points="2707.5492,-185 2707.5492,-204 2751.5492,-204 2751.5492,-185 2707.5492,-185"/>
<text text-anchor="middle" x="2729.5492" y="-192" font-family="Helvetica,sans-Serif" font-size="10.00" fill="#000000">bitset</text>
</g>
<!-- Node32&#45;&gt;Node34 -->
<g id="edge42" class="edge">
<title>Node32&#45;&gt;Node34</title>
<path fill="none" stroke="#191970" d="M1972.9383,-381.4582C1976.1825,-380.9485 1979.3966,-380.4598 1982.5492,-380 2125.0443,-359.2171 2164.9183,-379.2139 2304.5492,-344 2340.3207,-334.9787 2345.7528,-321.9222 2381.5492,-313 2455.0572,-294.6783 2666.9043,-330.4915 2720.5492,-277 2736.7536,-260.8419 2736.3152,-232.9773 2733.6476,-214.1517"/>
<polygon fill="#191970" stroke="#191970" points="2737.0905,-213.521 2731.9284,-204.2689 2730.1941,-214.7208 2737.0905,-213.521"/>
</g>
<!-- Node35 -->
<g id="node36" class="node">
<title>Node35</title>
<polygon fill="none" stroke="#bfbfbf" points="1923.5492,-319 1923.5492,-338 1979.5492,-338 1979.5492,-319 1923.5492,-319"/>
<text text-anchor="middle" x="1951.5492" y="-326" font-family="Helvetica,sans-Serif" font-size="10.00" fill="#000000">iomanip</text>
</g>
<!-- Node32&#45;&gt;Node35 -->
<g id="edge43" class="edge">
<title>Node32&#45;&gt;Node35</title>
<path fill="none" stroke="#191970" d="M1909.0295,-380.2967C1917.4324,-370.0605 1928.5341,-356.5366 1937.2864,-345.8746"/>
<polygon fill="#191970" stroke="#191970" points="1940.0658,-348.005 1943.7055,-338.055 1934.6553,-343.5635 1940.0658,-348.005"/>
</g>
<!-- Node36 -->
<g id="node37" class="node">
<title>Node36</title>
<polygon fill="none" stroke="#bfbfbf" points="1998.0492,-319 1998.0492,-338 2029.0492,-338 2029.0492,-319 1998.0492,-319"/>
<text text-anchor="middle" x="2013.5492" y="-326" font-family="Helvetica,sans-Serif" font-size="10.00" fill="#000000">ios</text>
</g>
<!-- Node32&#45;&gt;Node36 -->
<g id="edge44" class="edge">
<title>Node32&#45;&gt;Node36</title>
<path fill="none" stroke="#191970" d="M1924.106,-380.4942C1942.4794,-370.3864 1967.1039,-356.6418 1988.5492,-344 1988.8461,-343.8249 1989.1448,-343.6484 1989.4449,-343.4704"/>
<polygon fill="#191970" stroke="#191970" points="1991.5399,-346.2934 1998.2784,-338.1176 1987.9122,-340.3067 1991.5399,-346.2934"/>
</g>
<!-- Node37 -->
<g id="node38" class="node">
<title>Node37</title>
<g id="a_node38"><a xlink:href="../../d4/d20/DetMatrixCache_8h.html" target="_top" xlink:title="DetectorsCommonDataFormats\l/DetMatrixCache.h">
<polygon fill="none" stroke="#000000" points="2124.0492,-313.5 2124.0492,-343.5 2295.0492,-343.5 2295.0492,-313.5 2124.0492,-313.5"/>
<text text-anchor="start" x="2132.0492" y="-331.5" font-family="Helvetica,sans-Serif" font-size="10.00" fill="#000000">DetectorsCommonDataFormats</text>
<text text-anchor="middle" x="2209.5492" y="-320.5" font-family="Helvetica,sans-Serif" font-size="10.00" fill="#000000">/DetMatrixCache.h</text>
</a>
</g>
</g>
<!-- Node32&#45;&gt;Node37 -->
<g id="edge46" class="edge">
<title>Node32&#45;&gt;Node37</title>
<path fill="none" stroke="#191970" d="M1966.7925,-380.4639C2015.0348,-370.1373 2079.1798,-356.4065 2129.4169,-345.6529"/>
<polygon fill="#191970" stroke="#191970" points="2130.2242,-349.0595 2139.2701,-343.5438 2128.7589,-342.2145 2130.2242,-349.0595"/>
</g>
<!-- Node37&#45;&gt;Node5 -->
<g id="edge50" class="edge">
<title>Node37&#45;&gt;Node5</title>
<path fill="none" stroke="#191970" d="M2125.3938,-313.4317C2091.633,-305.406 2053.0936,-293.6571 2020.5492,-277 2002.7758,-267.9032 1961.504,-232.5697 1937.2574,-211.2042"/>
<polygon fill="#191970" stroke="#191970" points="1939.264,-208.306 1929.4575,-204.2954 1934.6226,-213.546 1939.264,-208.306"/>
</g>
<!-- Node37&#45;&gt;Node12 -->
<g id="edge82" class="edge">
<title>Node37&#45;&gt;Node12</title>
<path fill="none" stroke="#191970" d="M2123.8976,-320.4372C2096.6262,-317.9502 2066.3281,-315.2706 2038.5492,-313 1810.1488,-294.3313 1539.9599,-275.5737 1409.6139,-266.7335"/>
<polygon fill="#191970" stroke="#191970" points="1409.5491,-263.2212 1399.3354,-266.0373 1409.076,-270.2052 1409.5491,-263.2212"/>
</g>
<!-- Node37&#45;&gt;Node26 -->
<g id="edge51" class="edge">
<title>Node37&#45;&gt;Node26</title>
<path fill="none" stroke="#191970" d="M2295.2395,-320.1822C2322.7829,-317.6682 2353.4397,-315.0372 2381.5492,-313 2672.7796,-291.8931 2748.8294,-320.6065 3037.5492,-277 3098.2492,-267.8322 3267.77,-258.3867 3305.5492,-210 3319.7535,-191.8075 3311.6049,-164.2672 3303.44,-146.0844"/>
<polygon fill="#191970" stroke="#191970" points="3306.5714,-144.5203 3299.0442,-137.0643 3300.2788,-147.587 3306.5714,-144.5203"/>
</g>
<!-- Node38 -->
<g id="node39" class="node">
<title>Node38</title>
<g id="a_node39"><a xlink:href="../../df/d5b/GPUCommonLogger_8h.html" target="_top" xlink:title="GPUCommonLogger.h">
<polygon fill="none" stroke="#000000" points="2399.0492,-252 2399.0492,-271 2522.0492,-271 2522.0492,-252 2399.0492,-252"/>
<text text-anchor="middle" x="2460.5492" y="-259" font-family="Helvetica,sans-Serif" font-size="10.00" fill="#000000">GPUCommonLogger.h</text>
</a>
</g>
</g>
<!-- Node37&#45;&gt;Node38 -->
<g id="edge47" class="edge">
<title>Node37&#45;&gt;Node38</title>
<path fill="none" stroke="#191970" d="M2265.8785,-313.4639C2310.8773,-301.4522 2373.1301,-284.835 2415.0156,-273.6544"/>
<polygon fill="#191970" stroke="#191970" points="2416.1808,-276.966 2424.9398,-271.0053 2414.3754,-270.2028 2416.1808,-276.966"/>
</g>
<!-- Node41 -->
<g id="node42" class="node">
<title>Node41</title>
<polygon fill="none" stroke="#bfbfbf" points="2029.0492,-252 2029.0492,-271 2076.0492,-271 2076.0492,-252 2029.0492,-252"/>
<text text-anchor="middle" x="2052.5492" y="-259" font-family="Helvetica,sans-Serif" font-size="10.00" fill="#000000">vector</text>
</g>
<!-- Node37&#45;&gt;Node41 -->
<g id="edge52" class="edge">
<title>Node37&#45;&gt;Node41</title>
<path fill="none" stroke="#191970" d="M2174.3153,-313.4639C2147.3794,-301.969 2110.5598,-286.2561 2084.4802,-275.1266"/>
<polygon fill="#191970" stroke="#191970" points="2085.6252,-271.8099 2075.0539,-271.1039 2082.8776,-278.2482 2085.6252,-271.8099"/>
</g>
<!-- Node42 -->
<g id="node43" class="node">
<title>Node42</title>
<g id="a_node43"><a xlink:href="../../d6/d31/DetID_8h.html" target="_top" xlink:title="DetectorsCommonDataFormats\l/DetID.h">
<polygon fill="none" stroke="#000000" points="2540.0492,-246.5 2540.0492,-276.5 2711.0492,-276.5 2711.0492,-246.5 2540.0492,-246.5"/>
<text text-anchor="start" x="2548.0492" y="-264.5" font-family="Helvetica,sans-Serif" font-size="10.00" fill="#000000">DetectorsCommonDataFormats</text>
<text text-anchor="middle" x="2625.5492" y="-253.5" font-family="Helvetica,sans-Serif" font-size="10.00" fill="#000000">/DetID.h</text>
</a>
</g>
</g>
<!-- Node37&#45;&gt;Node42 -->
<g id="edge53" class="edge">
<title>Node37&#45;&gt;Node42</title>
<path fill="none" stroke="#191970" d="M2295.3292,-314.8959C2357.7413,-304.9709 2444.5844,-291.1054 2529.873,-277.2685"/>
<polygon fill="#191970" stroke="#191970" points="2530.6849,-280.6826 2539.9948,-275.6254 2529.5631,-273.7731 2530.6849,-280.6826"/>
</g>
<!-- Node39 -->
<g id="node40" class="node">
<title>Node39</title>
<polygon fill="none" stroke="#bfbfbf" points="1999.5492,-185 1999.5492,-204 2059.5492,-204 2059.5492,-185 1999.5492,-185"/>
<text text-anchor="middle" x="2029.5492" y="-192" font-family="Helvetica,sans-Serif" font-size="10.00" fill="#000000">iostream</text>
</g>
<!-- Node38&#45;&gt;Node39 -->
<g id="edge48" class="edge">
<title>Node38&#45;&gt;Node39</title>
<path fill="none" stroke="#191970" d="M2420.1381,-251.9219C2410.1765,-249.7701 2399.5082,-247.641 2389.5492,-246 2247.8983,-222.6591 2207.8235,-244.82 2068.5492,-210 2065.766,-209.3042 2062.9163,-208.4557 2060.0865,-207.518"/>
<polygon fill="#191970" stroke="#191970" points="2061.2609,-204.2209 2050.667,-204.0784 2058.8598,-210.7962 2061.2609,-204.2209"/>
</g>
<!-- Node40 -->
<g id="node41" class="node">
<title>Node40</title>
<polygon fill="none" stroke="#bfbfbf" points="2077.5492,-185 2077.5492,-204 2123.5492,-204 2123.5492,-185 2077.5492,-185"/>
<text text-anchor="middle" x="2100.5492" y="-192" font-family="Helvetica,sans-Serif" font-size="10.00" fill="#000000">cstdio</text>
</g>
<!-- Node38&#45;&gt;Node40 -->
<g id="edge49" class="edge">
<title>Node38&#45;&gt;Node40</title>
<path fill="none" stroke="#191970" d="M2419.353,-251.9731C2409.6084,-249.8677 2399.234,-247.7465 2389.5492,-246 2278.208,-225.9213 2246.6084,-240.1012 2137.5492,-210 2135.2267,-209.359 2132.8563,-208.6082 2130.4933,-207.789"/>
<polygon fill="#191970" stroke="#191970" points="2131.5534,-204.4471 2120.9629,-204.1421 2129.0516,-210.9848 2131.5534,-204.4471"/>
</g>
<!-- Node42&#45;&gt;Node6 -->
<g id="edge54" class="edge">
<title>Node42&#45;&gt;Node6</title>
<path fill="none" stroke="#191970" d="M2540.0241,-247.1771C2537.1668,-246.769 2534.3358,-246.3752 2531.5492,-246 2379.2003,-225.4859 2334.0035,-256.7135 2187.5492,-210 2160.8162,-201.4732 2157.6026,-191.6366 2132.5492,-179 2105.2044,-165.2077 2073.3746,-151.0985 2050.1434,-141.1439"/>
<polygon fill="#191970" stroke="#191970" points="2051.3237,-137.8424 2040.7518,-137.1451 2048.5813,-144.2829 2051.3237,-137.8424"/>
</g>
<!-- Node42&#45;&gt;Node8 -->
<g id="edge58" class="edge">
<title>Node42&#45;&gt;Node8</title>
<path fill="none" stroke="#191970" d="M2540.0208,-247.2016C2537.1644,-246.7865 2534.3345,-246.3846 2531.5492,-246 2460.0057,-236.1215 2262.4771,-258.0399 2208.5492,-210 2191.1082,-194.4633 2187.9992,-166.424 2188.1494,-147.3918"/>
<polygon fill="#191970" stroke="#191970" points="2191.6566,-147.272 2188.5477,-137.1436 2184.6619,-147 2191.6566,-147.272"/>
</g>
<!-- Node42&#45;&gt;Node26 -->
<g id="edge55" class="edge">
<title>Node42&#45;&gt;Node26</title>
<path fill="none" stroke="#191970" d="M2711.3207,-248.1865C2772.1169,-238.4412 2855.5293,-224.4468 2928.5492,-210 3052.6557,-185.4458 3199.1533,-150.51 3262.1646,-135.1947"/>
<polygon fill="#191970" stroke="#191970" points="3263.3544,-138.5072 3272.2417,-132.7395 3261.6974,-131.7062 3263.3544,-138.5072"/>
</g>
<!-- Node42&#45;&gt;Node34 -->
<g id="edge56" class="edge">
<title>Node42&#45;&gt;Node34</title>
<path fill="none" stroke="#191970" d="M2648.8888,-246.4639C2665.867,-235.526 2688.7733,-220.769 2705.8374,-209.7759"/>
<polygon fill="#191970" stroke="#191970" points="2708.1306,-212.462 2714.6416,-204.1039 2704.3395,-206.5774 2708.1306,-212.462"/>
</g>
<!-- Node43 -->
<g id="node44" class="node">
<title>Node43</title>
<polygon fill="none" stroke="#bfbfbf" points="2731.5492,-118 2731.5492,-137 2783.5492,-137 2783.5492,-118 2731.5492,-118"/>
<text text-anchor="middle" x="2757.5492" y="-125" font-family="Helvetica,sans-Serif" font-size="10.00" fill="#000000">cassert</text>
</g>
<!-- Node42&#45;&gt;Node43 -->
<g id="edge57" class="edge">
<title>Node42&#45;&gt;Node43</title>
<path fill="none" stroke="#191970" d="M2604.3415,-246.2679C2583.1908,-229.2166 2556.1656,-201.0838 2573.5492,-179 2615.6879,-125.4676 2658.0312,-164.8817 2722.5492,-143 2724.39,-142.3757 2726.2671,-141.6917 2728.1481,-140.9697"/>
<polygon fill="#191970" stroke="#191970" points="2729.5223,-144.1891 2737.4366,-137.1453 2726.8571,-137.7163 2729.5223,-144.1891"/>
</g>
<!-- Node44 -->
<g id="node45" class="node">
<title>Node44</title>
<polygon fill="none" stroke="#bfbfbf" points="2846.0492,-185 2846.0492,-204 2919.0492,-204 2919.0492,-185 2846.0492,-185"/>
<text text-anchor="middle" x="2882.5492" y="-192" font-family="Helvetica,sans-Serif" font-size="10.00" fill="#000000">string_view</text>
</g>
<!-- Node42&#45;&gt;Node44 -->
<g id="edge59" class="edge">
<title>Node42&#45;&gt;Node44</title>
<path fill="none" stroke="#191970" d="M2689.3327,-246.4265C2730.1353,-236.5688 2784.1181,-223.1277 2831.5492,-210 2835.1027,-209.0165 2838.7856,-207.9636 2842.4713,-206.8869"/>
<polygon fill="#191970" stroke="#191970" points="2843.5588,-210.2151 2852.1479,-204.0119 2841.5652,-203.5049 2843.5588,-210.2151"/>
</g>
<!-- Node42&#45;&gt;Node45 -->
<g id="edge60" class="edge">
<title>Node42&#45;&gt;Node45</title>
<path fill="none" stroke="#191970" d="M2635.4587,-246.4157C2648.1287,-228.1814 2671.6704,-197.6298 2698.5492,-179 2735.3178,-153.5156 2751.6043,-161.025 2792.5492,-143 2793.568,-142.5515 2794.6015,-142.0868 2795.6421,-141.6108"/>
<polygon fill="#191970" stroke="#191970" points="2797.485,-144.6094 2805.0018,-137.143 2794.4695,-138.2922 2797.485,-144.6094"/>
</g>
<!-- Node46 -->
<g id="node47" class="node">
<title>Node46</title>
<polygon fill="none" stroke="#bfbfbf" points="2582.0492,-185 2582.0492,-204 2651.0492,-204 2651.0492,-185 2582.0492,-185"/>
<text text-anchor="middle" x="2616.5492" y="-192" font-family="Helvetica,sans-Serif" font-size="10.00" fill="#000000">type_traits</text>
</g>
<!-- Node42&#45;&gt;Node46 -->
<g id="edge61" class="edge">
<title>Node42&#45;&gt;Node46</title>
<path fill="none" stroke="#191970" d="M2623.5069,-246.2967C2622.2272,-236.7699 2620.565,-224.3954 2619.1861,-214.1306"/>
<polygon fill="#191970" stroke="#191970" points="2622.6329,-213.5 2617.8327,-204.055 2615.6952,-214.4319 2622.6329,-213.5"/>
</g>
<!-- Node42&#45;&gt;Node47 -->
<g id="edge62" class="edge">
<title>Node42&#45;&gt;Node47</title>
<path fill="none" stroke="#191970" d="M2711.3404,-251.068C2824.2514,-237.3384 3019.8059,-213.5595 3117.4774,-201.683"/>
<polygon fill="#191970" stroke="#191970" points="3117.9668,-205.1493 3127.4712,-200.4677 3117.1218,-198.2005 3117.9668,-205.1493"/>
</g>
<!-- Node50 -->
<g id="node51" class="node">
<title>Node50</title>
<g id="a_node51"><a xlink:href="../../dc/dcd/DataHeader_8h.html" target="_top" xlink:title="Headers/DataHeader.h">
<polygon fill="none" stroke="#000000" points="2398.0492,-185 2398.0492,-204 2525.0492,-204 2525.0492,-185 2398.0492,-185"/>
<text text-anchor="middle" x="2461.5492" y="-192" font-family="Helvetica,sans-Serif" font-size="10.00" fill="#000000">Headers/DataHeader.h</text>
</a>
</g>
</g>
<!-- Node42&#45;&gt;Node50 -->
<g id="edge71" class="edge">
<title>Node42&#45;&gt;Node50</title>
<path fill="none" stroke="#191970" d="M2588.7444,-246.4639C2560.4836,-234.9183 2521.8072,-219.1176 2494.5445,-207.9798"/>
<polygon fill="#191970" stroke="#191970" points="2495.6382,-204.6459 2485.0573,-204.1039 2492.9908,-211.126 2495.6382,-204.6459"/>
</g>
<!-- Node47&#45;&gt;Node9 -->
<g id="edge64" class="edge">
<title>Node47&#45;&gt;Node9</title>
<path fill="none" stroke="#191970" d="M3170.7617,-184.8416C3157.9968,-163.5393 3127.2454,-112.2203 3110.6362,-84.5025"/>
<polygon fill="#191970" stroke="#191970" points="3113.5462,-82.5493 3105.4038,-75.7705 3107.5417,-86.1474 3113.5462,-82.5493"/>
</g>
<!-- Node47&#45;&gt;Node23 -->
<g id="edge65" class="edge">
<title>Node47&#45;&gt;Node23</title>
<path fill="none" stroke="#191970" d="M3127.503,-186.9746C3048.772,-174.6976 2902.0921,-150.9321 2893.5492,-143 2877.94,-128.5069 2873.8792,-103.5318 2873.1175,-85.9634"/>
<polygon fill="#191970" stroke="#191970" points="2876.6142,-85.6338 2873.0052,-75.6726 2869.6146,-85.7103 2876.6142,-85.6338"/>
</g>
<!-- Node47&#45;&gt;Node26 -->
<g id="edge63" class="edge">
<title>Node47&#45;&gt;Node26</title>
<path fill="none" stroke="#191970" d="M3193.3124,-184.9005C3212.8608,-173.7062 3245.383,-155.0823 3268.0629,-142.0947"/>
<polygon fill="#191970" stroke="#191970" points="3269.8784,-145.0883 3276.817,-137.0817 3266.3998,-139.0138 3269.8784,-145.0883"/>
</g>
<!-- Node48 -->
<g id="node49" class="node">
<title>Node48</title>
<g id="a_node49"><a xlink:href="../../d6/da2/GPUCommonMath_8h.html" target="_top" xlink:title="GPUCommonMath.h">
<polygon fill="none" stroke="#000000" points="2902.0492,-118 2902.0492,-137 3017.0492,-137 3017.0492,-118 2902.0492,-118"/>
<text text-anchor="middle" x="2959.5492" y="-125" font-family="Helvetica,sans-Serif" font-size="10.00" fill="#000000">GPUCommonMath.h</text>
</a>
</g>
</g>
<!-- Node47&#45;&gt;Node48 -->
<g id="edge66" class="edge">
<title>Node47&#45;&gt;Node48</title>
<path fill="none" stroke="#191970" d="M3145.4584,-184.9005C3107.2683,-173.1091 3042.3805,-153.0746 3000.2505,-140.0668"/>
<polygon fill="#191970" stroke="#191970" points="3001.1698,-136.6876 2990.5823,-137.0817 2999.1047,-143.3761 3001.1698,-136.6876"/>
</g>
<!-- Node47&#45;&gt;Node49 -->
<g id="edge70" class="edge">
<title>Node47&#45;&gt;Node49</title>
<path fill="none" stroke="#191970" d="M3212.9559,-184.9717C3258.4145,-173.0743 3336.2401,-152.7059 3385.9906,-139.6852"/>
<polygon fill="#191970" stroke="#191970" points="3387.0656,-143.0219 3395.8536,-137.1039 3385.2932,-136.2499 3387.0656,-143.0219"/>
</g>
<!-- Node48&#45;&gt;Node9 -->
<g id="edge68" class="edge">
<title>Node48&#45;&gt;Node9</title>
<path fill="none" stroke="#191970" d="M2981.4242,-117.8906C3004.8487,-107.6005 3042.2088,-91.1888 3068.6333,-79.5809"/>
<polygon fill="#191970" stroke="#191970" points="3070.0799,-82.7683 3077.8278,-75.5419 3067.2645,-76.3594 3070.0799,-82.7683"/>
</g>
<!-- Node48&#45;&gt;Node23 -->
<g id="edge67" class="edge">
<title>Node48&#45;&gt;Node23</title>
<path fill="none" stroke="#191970" d="M2946.1117,-117.8906C2932.4796,-108.1421 2911.1646,-92.8994 2895.1569,-81.4521"/>
<polygon fill="#191970" stroke="#191970" points="2897.0624,-78.5118 2886.8923,-75.5419 2892.9905,-84.2057 2897.0624,-78.5118"/>
</g>
<!-- Node48&#45;&gt;Node29 -->
<g id="edge69" class="edge">
<title>Node48&#45;&gt;Node29</title>
<path fill="none" stroke="#191970" d="M2901.8778,-118.2328C2886.5253,-115.9723 2869.9324,-113.7142 2854.5492,-112 2642.3059,-88.349 2387.0648,-73.4397 2287.8614,-68.1566"/>
<polygon fill="#191970" stroke="#191970" points="2287.8191,-64.6496 2277.6485,-67.6175 2287.4501,-71.6399 2287.8191,-64.6496"/>
</g>
<!-- Node50&#45;&gt;Node8 -->
<g id="edge72" class="edge">
<title>Node50&#45;&gt;Node8</title>
<path fill="none" stroke="#191970" d="M2417.4417,-184.956C2355.7439,-171.5548 2249.2102,-148.2109 2231.5492,-143 2228.9144,-142.2226 2226.2066,-141.3644 2223.4962,-140.4626"/>
<polygon fill="#191970" stroke="#191970" points="2224.3894,-137.0672 2213.7946,-137.0718 2222.0798,-143.6752 2224.3894,-137.0672"/>
</g>
<!-- Node50&#45;&gt;Node29 -->
<g id="edge76" class="edge">
<title>Node50&#45;&gt;Node29</title>
<path fill="none" stroke="#191970" d="M2420.7799,-184.9648C2364.7315,-171.6946 2270.119,-148.6472 2264.5492,-143 2249.638,-127.8819 2245.7971,-103.0348 2245.1,-85.667"/>
<polygon fill="#191970" stroke="#191970" points="2248.5986,-85.4803 2245.0111,-75.5114 2241.5988,-85.5417 2248.5986,-85.4803"/>
</g>
<!-- Node50&#45;&gt;Node31 -->
<g id="edge75" class="edge">
<title>Node50&#45;&gt;Node31</title>
<path fill="none" stroke="#191970" d="M2422.3534,-184.9195C2411.4692,-182.6036 2399.6036,-180.3962 2388.5492,-179 2149.5705,-148.8167 1375.2624,-131.7281 1200.0262,-128.1913"/>
<polygon fill="#191970" stroke="#191970" points="1199.8856,-124.6878 1189.8176,-127.9869 1199.7455,-131.6864 1199.8856,-124.6878"/>
</g>
<!-- Node50&#45;&gt;Node43 -->
<g id="edge74" class="edge">
<title>Node50&#45;&gt;Node43</title>
<path fill="none" stroke="#191970" d="M2509.3965,-184.9768C2519.3609,-182.9978 2529.7973,-180.9281 2539.5492,-179 2620.8671,-162.9219 2643.4969,-167.937 2722.5492,-143 2724.4505,-142.4002 2726.3868,-141.7282 2728.3239,-141.009"/>
<polygon fill="#191970" stroke="#191970" points="2729.9085,-144.1432 2737.8562,-137.1371 2727.2742,-137.6577 2729.9085,-144.1432"/>
</g>
<!-- Node50&#45;&gt;Node45 -->
<g id="edge78" class="edge">
<title>Node50&#45;&gt;Node45</title>
<path fill="none" stroke="#191970" d="M2525.1539,-185.6825C2614.105,-173.1862 2767.6181,-150.9586 2792.5492,-143 2794.2043,-142.4716 2795.8805,-141.8653 2797.5519,-141.2052"/>
<polygon fill="#191970" stroke="#191970" points="2799.2063,-144.299 2806.8926,-137.0071 2796.3366,-137.9142 2799.2063,-144.299"/>
</g>
<!-- Node51 -->
<g id="node52" class="node">
<title>Node51</title>
<polygon fill="none" stroke="#bfbfbf" points="2273.5492,-118 2273.5492,-137 2331.5492,-137 2331.5492,-118 2273.5492,-118"/>
<text text-anchor="middle" x="2302.5492" y="-125" font-family="Helvetica,sans-Serif" font-size="10.00" fill="#000000">memory</text>
</g>
<!-- Node50&#45;&gt;Node51 -->
<g id="edge73" class="edge">
<title>Node50&#45;&gt;Node51</title>
<path fill="none" stroke="#191970" d="M2438.7683,-184.9005C2411.4942,-173.4077 2365.636,-154.0838 2334.7478,-141.068"/>
<polygon fill="#191970" stroke="#191970" points="2335.8621,-137.7395 2325.2877,-137.0817 2333.1439,-144.1902 2335.8621,-137.7395"/>
</g>
<!-- Node52 -->
<g id="node53" class="node">
<title>Node52</title>
<polygon fill="none" stroke="#bfbfbf" points="2350.0492,-118 2350.0492,-137 2415.0492,-137 2415.0492,-118 2350.0492,-118"/>
<text text-anchor="middle" x="2382.5492" y="-125" font-family="Helvetica,sans-Serif" font-size="10.00" fill="#000000">stdexcept</text>
</g>
<!-- Node50&#45;&gt;Node52 -->
<g id="edge77" class="edge">
<title>Node50&#45;&gt;Node52</title>
<path fill="none" stroke="#191970" d="M2450.2304,-184.9005C2437.559,-174.1539 2416.8143,-156.5603 2401.6264,-143.6794"/>
<polygon fill="#191970" stroke="#191970" points="2403.7373,-140.8805 2393.8469,-137.0817 2399.2097,-146.2191 2403.7373,-140.8805"/>
</g>
<!-- Node53 -->
<g id="node54" class="node">
<title>Node53</title>
<polygon fill="none" stroke="#bfbfbf" points="2433.5492,-118 2433.5492,-137 2483.5492,-137 2483.5492,-118 2433.5492,-118"/>
<text text-anchor="middle" x="2458.5492" y="-125" font-family="Helvetica,sans-Serif" font-size="10.00" fill="#000000">climits</text>
</g>
<!-- Node50&#45;&gt;Node53 -->
<g id="edge79" class="edge">
<title>Node50&#45;&gt;Node53</title>
<path fill="none" stroke="#191970" d="M2461.1193,-184.9005C2460.6827,-175.149 2459.9936,-159.7597 2459.4388,-147.3695"/>
<polygon fill="#191970" stroke="#191970" points="2462.9221,-146.9151 2458.9782,-137.0817 2455.9291,-147.2282 2462.9221,-146.9151"/>
</g>
<!-- Node54 -->
<g id="node55" class="node">
<title>Node54</title>
<g id="a_node55"><a xlink:href="../../d7/df8/Types_8h.html" target="_top" xlink:title="MemoryResources/Types.h">
<polygon fill="none" stroke="#000000" points="2501.5492,-118 2501.5492,-137 2647.5492,-137 2647.5492,-118 2501.5492,-118"/>
<text text-anchor="middle" x="2574.5492" y="-125" font-family="Helvetica,sans-Serif" font-size="10.00" fill="#000000">MemoryResources/Types.h</text>
</a>
</g>
</g>
<!-- Node50&#45;&gt;Node54 -->
<g id="edge80" class="edge">
<title>Node50&#45;&gt;Node54</title>
<path fill="none" stroke="#191970" d="M2477.7393,-184.9005C2496.5354,-173.7559 2527.7508,-155.2477 2549.6416,-142.2682"/>
<polygon fill="#191970" stroke="#191970" points="2551.5724,-145.1924 2558.3891,-137.0817 2548.0023,-139.1712 2551.5724,-145.1924"/>
</g>
<!-- Node55 -->
<g id="node56" class="node">
<title>Node55</title>
<polygon fill="none" stroke="#bfbfbf" points="2666.0492,-118 2666.0492,-137 2713.0492,-137 2713.0492,-118 2666.0492,-118"/>
<text text-anchor="middle" x="2689.5492" y="-125" font-family="Helvetica,sans-Serif" font-size="10.00" fill="#000000">cerrno</text>
</g>
<!-- Node50&#45;&gt;Node55 -->
<g id="edge81" class="edge">
<title>Node50&#45;&gt;Node55</title>
<path fill="none" stroke="#191970" d="M2506.7888,-184.9984C2546.7718,-176.0264 2606.3643,-161.2427 2656.5492,-143 2658.1442,-142.4202 2659.7671,-141.7918 2661.3946,-141.1314"/>
<polygon fill="#191970" stroke="#191970" points="2662.8369,-144.3208 2670.6028,-137.1137 2660.0375,-137.9049 2662.8369,-144.3208"/>
</g>
<!-- Node56&#45;&gt;Node5 -->
<g id="edge88" class="edge">
<title>Node56&#45;&gt;Node5</title>
<path fill="none" stroke="#191970" d="M2058.0397,-385.8402C2058.3648,-369.0103 2056.6211,-334.0968 2038.5492,-313 2010.5221,-280.2817 1978.5251,-307.9426 1948.5492,-277 1931.8735,-259.7865 1924.3647,-232.5908 1921.0531,-214.1716"/>
<polygon fill="#191970" stroke="#191970" points="1924.5052,-213.5923 1919.5198,-204.2437 1917.5873,-214.6608 1924.5052,-213.5923"/>
</g>
<!-- Node57&#45;&gt;Node5 -->
<g id="edge90" class="edge">
<title>Node57&#45;&gt;Node5</title>
<path fill="none" stroke="#191970" d="M2313.5075,-380.1812C2317.2163,-361.9965 2320.1208,-331.7769 2304.5492,-313 2262.7126,-262.5519 2223.8231,-297.4269 2161.5492,-277 2126.8866,-265.6301 2119.9013,-258.2759 2085.5492,-246 2044.3803,-231.2881 1996.6479,-216.8217 1962.7838,-206.9855"/>
<polygon fill="#191970" stroke="#191970" points="1963.3206,-203.4976 1952.7421,-204.0863 1961.3789,-210.2229 1963.3206,-203.4976"/>
</g>
<!-- Node58 -->
<g id="node59" class="node">
<title>Node58</title>
<g id="a_node59"><a xlink:href="../../d3/d9d/PhysicsConstants_8h.html" target="_top" xlink:title="Header to collect physics constants. ">
<polygon fill="none" stroke="#000000" points="2390.0492,-319 2390.0492,-338 2597.0492,-338 2597.0492,-319 2390.0492,-319"/>
<text text-anchor="middle" x="2493.5492" y="-326" font-family="Helvetica,sans-Serif" font-size="10.00" fill="#000000">CommonConstants/PhysicsConstants.h</text>
</a>
</g>
</g>
<!-- Node57&#45;&gt;Node58 -->
<g id="edge91" class="edge">
<title>Node57&#45;&gt;Node58</title>
<path fill="none" stroke="#191970" d="M2350.8424,-380.4639C2383.0624,-368.7316 2427.3493,-352.6054 2458.0039,-341.4431"/>
<polygon fill="#191970" stroke="#191970" points="2459.2462,-344.7156 2467.4451,-338.0053 2456.8511,-338.1381 2459.2462,-344.7156"/>
</g>
<!-- Node59&#45;&gt;Node5 -->
<g id="edge93" class="edge">
<title>Node59&#45;&gt;Node5</title>
<path fill="none" stroke="#191970" d="M3301.4735,-258.204C3226.0992,-254.9701 3107.3633,-249.9613 3004.5492,-246 2553.9329,-228.6384 2438.0504,-265.6695 1990.5492,-210 1982.7873,-209.0344 1974.6238,-207.6453 1966.6938,-206.0901"/>
<polygon fill="#191970" stroke="#191970" points="1967.3231,-202.6463 1956.8218,-204.0509 1965.907,-209.5016 1967.3231,-202.6463"/>
</g>
<!-- Node59&#45;&gt;Node9 -->
<g id="edge95" class="edge">
<title>Node59&#45;&gt;Node9</title>
<path fill="none" stroke="#191970" d="M3416.7365,-246.3233C3478.375,-220.3411 3586.2857,-164.9999 3538.5492,-112 3511.5463,-82.0199 3231.8595,-70.235 3133.518,-66.9982"/>
<polygon fill="#191970" stroke="#191970" points="3133.3526,-63.4912 3123.2458,-66.6697 3133.1288,-70.4876 3133.3526,-63.4912"/>
</g>
<!-- Node59&#45;&gt;Node26 -->
<g id="edge94" class="edge">
<title>Node59&#45;&gt;Node26</title>
<path fill="none" stroke="#191970" d="M3382.8904,-246.3649C3388.0655,-228.8976 3393.5331,-199.8986 3381.5492,-179 3378.0745,-172.9406 3345.433,-154.7763 3320.9109,-141.737"/>
<polygon fill="#191970" stroke="#191970" points="3322.4653,-138.5998 3311.9879,-137.0264 3319.1972,-144.7901 3322.4653,-138.5998"/>
</g>
<!-- Node59&#45;&gt;Node47 -->
<g id="edge96" class="edge">
<title>Node59&#45;&gt;Node47</title>
<path fill="none" stroke="#191970" d="M3332.4408,-246.4639C3297.0916,-234.6808 3248.4462,-218.4657 3214.9445,-207.2984"/>
<polygon fill="#191970" stroke="#191970" points="3215.6587,-203.8472 3205.065,-204.0053 3213.445,-210.488 3215.6587,-203.8472"/>
</g>
<!-- Node59&#45;&gt;Node49 -->
<g id="edge97" class="edge">
<title>Node59&#45;&gt;Node49</title>
<path fill="none" stroke="#191970" d="M3393.6102,-246.3053C3402.6953,-236.7602 3413.4304,-223.6936 3419.5492,-210 3428.5745,-189.8014 3431.4594,-164.3737 3432.3174,-147.1252"/>
<polygon fill="#191970" stroke="#191970" points="3435.8162,-147.2139 3432.6326,-137.1087 3428.8197,-146.9936 3435.8162,-147.2139"/>
</g>
<!-- Node61&#45;&gt;Node28 -->
<g id="edge100" class="edge">
<title>Node61&#45;&gt;Node28</title>
<path fill="none" stroke="#191970" d="M2166.5818,-514.4639C2182.7365,-505.1332 2203.703,-493.0232 2221.3311,-482.8415"/>
<polygon fill="#191970" stroke="#191970" points="2223.2932,-485.7501 2230.202,-477.7177 2219.7921,-479.6885 2223.2932,-485.7501"/>
</g>
<!-- Node62&#45;&gt;Node7 -->
<g id="edge104" class="edge">
<title>Node62&#45;&gt;Node7</title>
<path fill="none" stroke="#191970" d="M2843.5241,-254.9237C2806.4516,-251.884 2761.1947,-248.4202 2720.5492,-246 2526.7276,-234.4592 2036.401,-255.1107 1847.5492,-210 1845.2067,-209.4405 1842.8286,-208.7172 1840.4744,-207.8896"/>
<polygon fill="#191970" stroke="#191970" points="1841.6655,-204.5954 1831.0847,-204.051 1839.0166,-211.0748 1841.6655,-204.5954"/>
</g>
<!-- Node62&#45;&gt;Node26 -->
<g id="edge106" class="edge">
<title>Node62&#45;&gt;Node26</title>
<path fill="none" stroke="#191970" d="M2995.6469,-248.3288C3000.3503,-247.5351 3005.0134,-246.7534 3009.5492,-246 3109.4522,-229.4056 3148.4416,-263.3055 3234.5492,-210 3258.9161,-194.9155 3276.1468,-165.6668 3285.4665,-146.3602"/>
<polygon fill="#191970" stroke="#191970" points="3288.7463,-147.6039 3289.7203,-137.054 3282.3798,-144.6938 3288.7463,-147.6039"/>
</g>
<!-- Node62&#45;&gt;Node44 -->
<g id="edge107" class="edge">
<title>Node62&#45;&gt;Node44</title>
<path fill="none" stroke="#191970" d="M2911.1533,-246.2967C2905.6684,-236.3645 2898.4741,-223.3371 2892.6729,-212.8321"/>
<polygon fill="#191970" stroke="#191970" points="2895.7239,-211.1169 2887.8258,-204.055 2889.5962,-214.5009 2895.7239,-211.1169"/>
</g>
<!-- Node62&#45;&gt;Node45 -->
<g id="edge105" class="edge">
<title>Node62&#45;&gt;Node45</title>
<path fill="none" stroke="#191970" d="M2936.8696,-246.4639C2954.4549,-229.343 2977.0515,-200.911 2961.5492,-179 2933.7829,-139.7553 2904.3188,-160.5155 2859.5492,-143 2857.9372,-142.3693 2856.2901,-141.711 2854.6309,-141.0366"/>
<polygon fill="#191970" stroke="#191970" points="2855.7302,-137.7029 2845.1536,-137.0815 2853.0342,-144.1629 2855.7302,-137.7029"/>
</g>
<!-- Node63 -->
<g id="node64" class="node">
<title>Node63</title>
<g id="a_node64"><a xlink:href="../../df/d9a/AbstractRef_8h.html" target="_top" xlink:title="Class to refer to object indicating its Indec, Source and status flags. ">
<polygon fill="none" stroke="#000000" points="2217.5492,-179.5 2217.5492,-209.5 2379.5492,-209.5 2379.5492,-179.5 2217.5492,-179.5"/>
<text text-anchor="start" x="2225.5492" y="-197.5" font-family="Helvetica,sans-Serif" font-size="10.00" fill="#000000">CommonDataFormat/Abstract</text>
<text text-anchor="middle" x="2298.5492" y="-186.5" font-family="Helvetica,sans-Serif" font-size="10.00" fill="#000000">Ref.h</text>
</a>
</g>
</g>
<!-- Node62&#45;&gt;Node63 -->
<g id="edge102" class="edge">
<title>Node62&#45;&gt;Node63</title>
<path fill="none" stroke="#191970" d="M2843.4333,-255.8322C2742.328,-247.9171 2557.9728,-232.1431 2389.8941,-209.981"/>
<polygon fill="#191970" stroke="#191970" points="2390.2436,-206.4968 2379.8697,-208.649 2389.3215,-213.4358 2390.2436,-206.4968"/>
</g>
<!-- Node63&#45;&gt;Node6 -->
<g id="edge103" class="edge">
<title>Node63&#45;&gt;Node6</title>
<path fill="none" stroke="#191970" d="M2235.4873,-179.4639C2180.8793,-166.4435 2103.5744,-148.0114 2057.2181,-136.9584"/>
<polygon fill="#191970" stroke="#191970" points="2057.7936,-133.4976 2047.2545,-134.5828 2056.17,-140.3067 2057.7936,-133.4976"/>
</g>
<!-- Node64&#45;&gt;Node7 -->
<g id="edge114" class="edge">
<title>Node64&#45;&gt;Node7</title>
<path fill="none" stroke="#191970" d="M2843.2578,-324.7001C2664.1024,-315.5784 2226.6826,-292.0834 2161.5492,-277 2126.01,-268.7699 2120.7197,-255.6848 2085.5492,-246 1982.4072,-217.598 1950.0958,-240.4816 1847.5492,-210 1845.637,-209.4316 1843.6937,-208.7762 1841.7543,-208.0627"/>
<polygon fill="#191970" stroke="#191970" points="1842.8311,-204.721 1832.2518,-204.1473 1840.1643,-211.1931 1842.8311,-204.721"/>
</g>
<!-- Node64&#45;&gt;Node26 -->
<g id="edge113" class="edge">
<title>Node64&#45;&gt;Node26</title>
<path fill="none" stroke="#191970" d="M2995.605,-320.7835C3078.3554,-311.6577 3204.8293,-295.3679 3249.5492,-277 3271.3423,-268.0489 3273.3696,-259.6823 3292.5492,-246 3315.1358,-229.8872 3330.7848,-234.6343 3343.5492,-210 3349.8878,-197.7669 3348.7275,-191.7676 3343.5492,-179 3337.8014,-164.8284 3326.0745,-152.4093 3315.4217,-143.3189"/>
<polygon fill="#191970" stroke="#191970" points="3317.5911,-140.5723 3307.6016,-137.0425 3313.2096,-146.0314 3317.5911,-140.5723"/>
</g>
<!-- Node64&#45;&gt;Node43 -->
<g id="edge112" class="edge">
<title>Node64&#45;&gt;Node43</title>
<path fill="none" stroke="#191970" d="M2885.4496,-313.3741C2868.5613,-304.604 2848.793,-292.264 2834.5492,-277 2797.8447,-237.6667 2774.0847,-177.4974 2763.6518,-146.8684"/>
<polygon fill="#191970" stroke="#191970" points="2766.9695,-145.7532 2760.518,-137.3491 2760.3205,-147.9421 2766.9695,-145.7532"/>
</g>
<!-- Node64&#45;&gt;Node45 -->
<g id="edge115" class="edge">
<title>Node64&#45;&gt;Node45</title>
<path fill="none" stroke="#191970" d="M2961.865,-313.4897C2978.2299,-305.3701 2995.2336,-293.5362 3004.5492,-277 3026.7236,-237.6379 3010.4444,-209.9675 2977.5492,-179 2975.2402,-176.8263 2900.0591,-152.2537 2855.6125,-137.8517"/>
<polygon fill="#191970" stroke="#191970" points="2856.4263,-134.4364 2845.8344,-134.6867 2854.2706,-141.0962 2856.4263,-134.4364"/>
</g>
<!-- Node64&#45;&gt;Node62 -->
<g id="edge111" class="edge">
<title>Node64&#45;&gt;Node62</title>
<path fill="none" stroke="#191970" d="M2919.5492,-313.2967C2919.5492,-305.5013 2919.5492,-295.7991 2919.5492,-286.9064"/>
<polygon fill="#191970" stroke="#191970" points="2923.0493,-286.6431 2919.5492,-276.6432 2916.0493,-286.6432 2923.0493,-286.6431"/>
</g>
<!-- Node65 -->
<g id="node66" class="node">
<title>Node65</title>
<g id="a_node66"><a xlink:href="../../de/d64/RangeReference_8h.html" target="_top" xlink:title="Class to refer to the 1st entry and N elements of some group in the continuous container. ">
<polygon fill="none" stroke="#000000" points="2170.5492,-252 2170.5492,-271 2380.5492,-271 2380.5492,-252 2170.5492,-252"/>
<text text-anchor="middle" x="2275.5492" y="-259" font-family="Helvetica,sans-Serif" font-size="10.00" fill="#000000">CommonDataFormat/RangeReference.h</text>
</a>
</g>
</g>
<!-- Node64&#45;&gt;Node65 -->
<g id="edge109" class="edge">
<title>Node64&#45;&gt;Node65</title>
<path fill="none" stroke="#191970" d="M2843.2408,-321.9622C2740.3331,-312.9419 2551.4117,-295.6645 2390.5492,-277 2378.3906,-275.5893 2365.5256,-273.9751 2352.9744,-272.3335"/>
<polygon fill="#191970" stroke="#191970" points="2353.3678,-268.8551 2342.9953,-271.0144 2352.4504,-275.7948 2353.3678,-268.8551"/>
</g>
<!-- Node65&#45;&gt;Node5 -->
<g id="edge110" class="edge">
<title>Node65&#45;&gt;Node5</title>
<path fill="none" stroke="#191970" d="M2219.7428,-251.981C2162.2111,-242.0352 2069.9602,-225.718 1990.5492,-210 1984.458,-208.7943 1978.0868,-207.4883 1971.7611,-206.1635"/>
<polygon fill="#191970" stroke="#191970" points="1972.4129,-202.7239 1961.9049,-204.0776 1970.9635,-209.5723 1972.4129,-202.7239"/>
</g>
</g>
</svg>
