<?xml version="1.0" encoding="UTF-8" standalone="no"?>
<!DOCTYPE svg PUBLIC "-//W3C//DTD SVG 1.1//EN"
 "http://www.w3.org/Graphics/SVG/1.1/DTD/svg11.dtd">
<!-- Generated by graphviz version 2.40.1 (20161225.0304)
 -->
<!-- Title: PairCuts Pages: 1 -->
<svg width="441pt" height="270pt"
 viewBox="0.00 0.00 441.00 270.00" xmlns="http://www.w3.org/2000/svg" xmlns:xlink="http://www.w3.org/1999/xlink">
<g id="graph0" class="graph" transform="scale(1 1) rotate(0) translate(4 266)">
<title>PairCuts</title>
<!-- Node1 -->
<g id="node1" class="node">
<title>Node1</title>
<polygon fill="#bfbfbf" stroke="#000000" points="91,-.5 91,-134.5 241,-134.5 241,-.5 91,-.5"/>
<text text-anchor="middle" x="166" y="-122.5" font-family="Helvetica,sans-Serif" font-size="10.00" fill="#000000">PairCuts</text>
<polyline fill="none" stroke="#000000" points="91,-115.5 241,-115.5 "/>
<text text-anchor="middle" x="166" y="-103.5" font-family="Helvetica,sans-Serif" font-size="10.00" fill="#000000"> </text>
<polyline fill="none" stroke="#000000" points="91,-96.5 241,-96.5 "/>
<text text-anchor="start" x="99" y="-84.5" font-family="Helvetica,sans-Serif" font-size="10.00" fill="#000000">+ SetPairCut()</text>
<text text-anchor="start" x="99" y="-73.5" font-family="Helvetica,sans-Serif" font-size="10.00" fill="#000000">+ SetTwoTrackCuts()</text>
<text text-anchor="start" x="99" y="-62.5" font-family="Helvetica,sans-Serif" font-size="10.00" fill="#000000">+ conversionCuts()</text>
<text text-anchor="start" x="99" y="-51.5" font-family="Helvetica,sans-Serif" font-size="10.00" fill="#000000">+ twoTrackCut()</text>
<text text-anchor="start" x="99" y="-40.5" font-family="Helvetica,sans-Serif" font-size="10.00" fill="#000000"># conversionCut()</text>
<text text-anchor="start" x="99" y="-29.5" font-family="Helvetica,sans-Serif" font-size="10.00" fill="#000000"># getInvMassSquared()</text>
<text text-anchor="start" x="99" y="-18.5" font-family="Helvetica,sans-Serif" font-size="10.00" fill="#000000"># getInvMassSquaredFast()</text>
<text text-anchor="start" x="99" y="-7.5" font-family="Helvetica,sans-Serif" font-size="10.00" fill="#000000"># getDPhiStar()</text>
</g>
<!-- Node2 -->
<g id="node2" class="node">
<title>Node2</title>
<polygon fill="none" stroke="#bfbfbf" points="0,-204.5 0,-261.5 50,-261.5 50,-204.5 0,-204.5"/>
<text text-anchor="middle" x="25" y="-249.5" font-family="Helvetica,sans-Serif" font-size="10.00" fill="#000000">TH3F *</text>
<polyline fill="none" stroke="#bfbfbf" points="0,-242.5 50,-242.5 "/>
<text text-anchor="middle" x="25" y="-230.5" font-family="Helvetica,sans-Serif" font-size="10.00" fill="#000000"> </text>
<polyline fill="none" stroke="#bfbfbf" points="0,-223.5 50,-223.5 "/>
<text text-anchor="middle" x="25" y="-211.5" font-family="Helvetica,sans-Serif" font-size="10.00" fill="#000000"> </text>
</g>
<!-- Node2&#45;&gt;Node1 -->
<g id="edge1" class="edge">
<title>Node2&#45;&gt;Node1</title>
<path fill="none" stroke="#404040" d="M26.8034,-204.3387C28.9878,-188.1183 33.7378,-168.1183 44,-153 53.855,-138.4816 67.0549,-125.6535 81.1347,-114.6394"/>
<polygon fill="none" stroke="#404040" points="81.3647,-114.4684 83.7911,-107.6777 90.9926,-107.3056 88.5662,-114.0963 81.3647,-114.4684"/>
<text text-anchor="middle" x="103" y="-167" font-family="Helvetica,sans-Serif" font-size="10.00" fill="#000000"> #mTwoTrackDistancePt</text>
</g>
<!-- Node3 -->
<g id="node3" class="node">
<title>Node3</title>
<polygon fill="none" stroke="#bfbfbf" points="141,-204.5 141,-261.5 191,-261.5 191,-204.5 141,-204.5"/>
<text text-anchor="middle" x="166" y="-249.5" font-family="Helvetica,sans-Serif" font-size="10.00" fill="#000000">TH2F *</text>
<polyline fill="none" stroke="#bfbfbf" points="141,-242.5 191,-242.5 "/>
<text text-anchor="middle" x="166" y="-230.5" font-family="Helvetica,sans-Serif" font-size="10.00" fill="#000000"> </text>
<polyline fill="none" stroke="#bfbfbf" points="141,-223.5 191,-223.5 "/>
<text text-anchor="middle" x="166" y="-211.5" font-family="Helvetica,sans-Serif" font-size="10.00" fill="#000000"> </text>
</g>
<!-- Node3&#45;&gt;Node1 -->
<g id="edge2" class="edge">
<title>Node3&#45;&gt;Node1</title>
<path fill="none" stroke="#404040" d="M166,-204.1721C166,-188.1468 166,-167.3426 166,-146.8202"/>
<polygon fill="none" stroke="#404040" points="166.0001,-146.8077 162,-140.8078 166,-134.8077 170,-140.8077 166.0001,-146.8077"/>
<text text-anchor="middle" x="238.5" y="-167" font-family="Helvetica,sans-Serif" font-size="10.00" fill="#000000"> #mControlConvResoncances</text>
</g>
<!-- Node4 -->
<g id="node4" class="node">
<title>Node4</title>
<g id="a_node4"><a xlink:href="../../d4/dc3/classfloat.html" target="_top" xlink:title="{float\n||}">
<polygon fill="none" stroke="#000000" points="315,-204.5 315,-261.5 353,-261.5 353,-204.5 315,-204.5"/>
<text text-anchor="middle" x="334" y="-249.5" font-family="Helvetica,sans-Serif" font-size="10.00" fill="#000000">float</text>
<polyline fill="none" stroke="#000000" points="315,-242.5 353,-242.5 "/>
<text text-anchor="middle" x="334" y="-230.5" font-family="Helvetica,sans-Serif" font-size="10.00" fill="#000000"> </text>
<polyline fill="none" stroke="#000000" points="315,-223.5 353,-223.5 "/>
<text text-anchor="middle" x="334" y="-211.5" font-family="Helvetica,sans-Serif" font-size="10.00" fill="#000000"> </text>
</a>
</g>
</g>
<!-- Node4&#45;&gt;Node1 -->
<g id="edge3" class="edge">
<title>Node4&#45;&gt;Node1</title>
<path fill="none" stroke="#404040" d="M331.4829,-204.3515C328.8126,-187.9383 323.3147,-167.7397 312,-153 296.2504,-132.483 274.062,-115.9646 251.7275,-103.1215"/>
<polygon fill="none" stroke="#404040" points="251.6455,-103.0764 244.4606,-103.6907 241.1301,-97.2948 248.315,-96.6805 251.6455,-103.0764"/>
<text text-anchor="middle" x="380" y="-178" font-family="Helvetica,sans-Serif" font-size="10.00" fill="#000000"> #mTwoTrackRadius</text>
<text text-anchor="middle" x="380" y="-167" font-family="Helvetica,sans-Serif" font-size="10.00" fill="#000000">#mCuts</text>
<text text-anchor="middle" x="380" y="-156" font-family="Helvetica,sans-Serif" font-size="10.00" fill="#000000">#mTwoTrackDistance</text>
</g>
</g>
</svg>
