<?xml version="1.0" encoding="UTF-8" standalone="no"?>
<!DOCTYPE svg PUBLIC "-//W3C//DTD SVG 1.1//EN"
 "http://www.w3.org/Graphics/SVG/1.1/DTD/svg11.dtd">
<!-- Generated by graphviz version 2.40.1 (20161225.0304)
 -->
<!-- Title: o2::framework::ServiceSpec Pages: 1 -->
<svg width="1421pt" height="215pt"
 viewBox="0.00 0.00 1420.50 215.00" xmlns="http://www.w3.org/2000/svg" xmlns:xlink="http://www.w3.org/1999/xlink">
<g id="graph0" class="graph" transform="scale(1 1) rotate(0) translate(4 211)">
<title>o2::framework::ServiceSpec</title>
<!-- Node1 -->
<g id="node1" class="node">
<title>Node1</title>
<polygon fill="#bfbfbf" stroke="#000000" points="742,-.5 742,-57.5 895,-57.5 895,-.5 742,-.5"/>
<text text-anchor="middle" x="818.5" y="-45.5" font-family="Helvetica,sans-Serif" font-size="10.00" fill="#000000">o2::framework::ServiceSpec</text>
<polyline fill="none" stroke="#000000" points="742,-38.5 895,-38.5 "/>
<text text-anchor="middle" x="818.5" y="-26.5" font-family="Helvetica,sans-Serif" font-size="10.00" fill="#000000"> </text>
<polyline fill="none" stroke="#000000" points="742,-19.5 895,-19.5 "/>
<text text-anchor="middle" x="818.5" y="-7.5" font-family="Helvetica,sans-Serif" font-size="10.00" fill="#000000"> </text>
</g>
<!-- Node2 -->
<g id="node2" class="node">
<title>Node2</title>
<polygon fill="none" stroke="#bfbfbf" points="0,-133 0,-201 155,-201 155,-133 0,-133"/>
<text text-anchor="start" x="8" y="-189" font-family="Helvetica,sans-Serif" font-size="10.00" fill="#000000">function&lt; void *(InitContext</text>
<text text-anchor="middle" x="77.5" y="-178" font-family="Helvetica,sans-Serif" font-size="10.00" fill="#000000"> &amp;, void *)&gt;</text>
<polyline fill="none" stroke="#bfbfbf" points="0,-171 155,-171 "/>
<text text-anchor="middle" x="77.5" y="-159" font-family="Helvetica,sans-Serif" font-size="10.00" fill="#000000"> </text>
<polyline fill="none" stroke="#bfbfbf" points="0,-152 155,-152 "/>
<text text-anchor="middle" x="77.5" y="-140" font-family="Helvetica,sans-Serif" font-size="10.00" fill="#000000"> </text>
</g>
<!-- Node2&#45;&gt;Node1 -->
<g id="edge1" class="edge">
<title>Node2&#45;&gt;Node1</title>
<path fill="none" stroke="#404040" d="M149.8272,-132.8846C154.7634,-130.8232 159.6867,-128.8413 164.5,-127 236.1901,-99.5758 254.2402,-91.0835 329.5,-76 467.6345,-48.3153 631.1019,-36.7893 729.6971,-32.0957"/>
<polygon fill="none" stroke="#404040" points="729.9975,-32.082 735.8072,-27.8104 741.9848,-31.5303 736.175,-35.8019 729.9975,-32.082"/>
<text text-anchor="middle" x="358" y="-90" font-family="Helvetica,sans-Serif" font-size="10.00" fill="#000000"> +configure</text>
</g>
<!-- Node3 -->
<g id="node3" class="node">
<title>Node3</title>
<polygon fill="none" stroke="#bfbfbf" points="173.5,-127.5 173.5,-206.5 341.5,-206.5 341.5,-127.5 173.5,-127.5"/>
<text text-anchor="start" x="181.5" y="-194.5" font-family="Helvetica,sans-Serif" font-size="10.00" fill="#000000">function&lt; void(ServiceRegistry</text>
<text text-anchor="start" x="181.5" y="-183.5" font-family="Helvetica,sans-Serif" font-size="10.00" fill="#000000"> &amp;, boost::program_options</text>
<text text-anchor="middle" x="257.5" y="-172.5" font-family="Helvetica,sans-Serif" font-size="10.00" fill="#000000">::variables_map const &amp;)&gt;</text>
<polyline fill="none" stroke="#bfbfbf" points="173.5,-165.5 341.5,-165.5 "/>
<text text-anchor="middle" x="257.5" y="-153.5" font-family="Helvetica,sans-Serif" font-size="10.00" fill="#000000"> </text>
<polyline fill="none" stroke="#bfbfbf" points="173.5,-146.5 341.5,-146.5 "/>
<text text-anchor="middle" x="257.5" y="-134.5" font-family="Helvetica,sans-Serif" font-size="10.00" fill="#000000"> </text>
</g>
<!-- Node3&#45;&gt;Node1 -->
<g id="edge2" class="edge">
<title>Node3&#45;&gt;Node1</title>
<path fill="none" stroke="#404040" d="M341.6331,-130.768C344.6246,-129.4943 347.5874,-128.2351 350.5,-127 404.6055,-104.0562 415.7897,-91.4196 472.5,-76 558.0352,-52.7429 658.7385,-40.7202 729.3776,-34.6857"/>
<polygon fill="none" stroke="#404040" points="729.8072,-34.6503 735.4576,-30.1699 741.7665,-33.6624 736.1162,-38.1428 729.8072,-34.6503"/>
<text text-anchor="middle" x="497" y="-90" font-family="Helvetica,sans-Serif" font-size="10.00" fill="#000000"> +preFork</text>
</g>
<!-- Node4 -->
<g id="node4" class="node">
<title>Node4</title>
<polygon fill="none" stroke="#bfbfbf" points="360,-133 360,-201 505,-201 505,-133 360,-133"/>
<text text-anchor="start" x="368" y="-189" font-family="Helvetica,sans-Serif" font-size="10.00" fill="#000000">function&lt; void(Processing</text>
<text text-anchor="middle" x="432.5" y="-178" font-family="Helvetica,sans-Serif" font-size="10.00" fill="#000000">Context &amp;, void *)&gt;</text>
<polyline fill="none" stroke="#bfbfbf" points="360,-171 505,-171 "/>
<text text-anchor="middle" x="432.5" y="-159" font-family="Helvetica,sans-Serif" font-size="10.00" fill="#000000"> </text>
<polyline fill="none" stroke="#bfbfbf" points="360,-152 505,-152 "/>
<text text-anchor="middle" x="432.5" y="-140" font-family="Helvetica,sans-Serif" font-size="10.00" fill="#000000"> </text>
</g>
<!-- Node4&#45;&gt;Node1 -->
<g id="edge3" class="edge">
<title>Node4&#45;&gt;Node1</title>
<path fill="none" stroke="#404040" d="M483.4387,-132.8113C514.1609,-113.5908 554.7394,-90.598 593.5,-76 637.1002,-59.5793 687.729,-48.3608 729.9074,-41.0147"/>
<polygon fill="none" stroke="#404040" points="730.0186,-40.996 735.2688,-36.0527 741.8511,-38.9978 736.6009,-43.9411 730.0186,-40.996"/>
<text text-anchor="middle" x="637.5" y="-101" font-family="Helvetica,sans-Serif" font-size="10.00" fill="#000000"> +preProcessing</text>
<text text-anchor="middle" x="637.5" y="-90" font-family="Helvetica,sans-Serif" font-size="10.00" fill="#000000">+postProcessing</text>
<text text-anchor="middle" x="637.5" y="-79" font-family="Helvetica,sans-Serif" font-size="10.00" fill="#000000">+postDispatching</text>
</g>
<!-- Node5 -->
<g id="node5" class="node">
<title>Node5</title>
<polygon fill="none" stroke="#bfbfbf" points="523,-138.5 523,-195.5 714,-195.5 714,-138.5 523,-138.5"/>
<text text-anchor="middle" x="618.5" y="-183.5" font-family="Helvetica,sans-Serif" font-size="10.00" fill="#000000">function&lt; void(ServiceRegistry &amp;)&gt;</text>
<polyline fill="none" stroke="#bfbfbf" points="523,-176.5 714,-176.5 "/>
<text text-anchor="middle" x="618.5" y="-164.5" font-family="Helvetica,sans-Serif" font-size="10.00" fill="#000000"> </text>
<polyline fill="none" stroke="#bfbfbf" points="523,-157.5 714,-157.5 "/>
<text text-anchor="middle" x="618.5" y="-145.5" font-family="Helvetica,sans-Serif" font-size="10.00" fill="#000000"> </text>
</g>
<!-- Node5&#45;&gt;Node1 -->
<g id="edge4" class="edge">
<title>Node5&#45;&gt;Node1</title>
<path fill="none" stroke="#404040" d="M650.1948,-138.12C671.7069,-119.2611 701.2697,-94.7504 729.5,-76 735.8044,-71.8127 742.5231,-67.6969 749.3355,-63.7483"/>
<polygon fill="none" stroke="#404040" points="749.6189,-63.5886 752.8807,-57.1573 760.0718,-57.6947 756.8099,-64.1259 749.6189,-63.5886"/>
<text text-anchor="middle" x="772" y="-101" font-family="Helvetica,sans-Serif" font-size="10.00" fill="#000000"> +postForkParent</text>
<text text-anchor="middle" x="772" y="-90" font-family="Helvetica,sans-Serif" font-size="10.00" fill="#000000">+metricHandling</text>
<text text-anchor="middle" x="772" y="-79" font-family="Helvetica,sans-Serif" font-size="10.00" fill="#000000">+postForkChild</text>
</g>
<!-- Node6 -->
<g id="node6" class="node">
<title>Node6</title>
<polygon fill="none" stroke="#bfbfbf" points="732.5,-127.5 732.5,-206.5 904.5,-206.5 904.5,-127.5 732.5,-127.5"/>
<text text-anchor="start" x="740.5" y="-194.5" font-family="Helvetica,sans-Serif" font-size="10.00" fill="#000000">function&lt; ServiceHandle</text>
<text text-anchor="start" x="740.5" y="-183.5" font-family="Helvetica,sans-Serif" font-size="10.00" fill="#000000">(ServiceRegistry &amp;, DeviceState</text>
<text text-anchor="middle" x="818.5" y="-172.5" font-family="Helvetica,sans-Serif" font-size="10.00" fill="#000000"> &amp;, fair::mq::ProgOptions &amp;)&gt;</text>
<polyline fill="none" stroke="#bfbfbf" points="732.5,-165.5 904.5,-165.5 "/>
<text text-anchor="middle" x="818.5" y="-153.5" font-family="Helvetica,sans-Serif" font-size="10.00" fill="#000000"> </text>
<polyline fill="none" stroke="#bfbfbf" points="732.5,-146.5 904.5,-146.5 "/>
<text text-anchor="middle" x="818.5" y="-134.5" font-family="Helvetica,sans-Serif" font-size="10.00" fill="#000000"> </text>
</g>
<!-- Node6&#45;&gt;Node1 -->
<g id="edge5" class="edge">
<title>Node6&#45;&gt;Node1</title>
<path fill="none" stroke="#404040" d="M818.5,-127.4547C818.5,-109.3353 818.5,-87.8797 818.5,-69.6302"/>
<polygon fill="none" stroke="#404040" points="818.5001,-69.5885 814.5,-63.5885 818.5,-57.5885 822.5,-63.5884 818.5001,-69.5885"/>
<text text-anchor="middle" x="832.5" y="-90" font-family="Helvetica,sans-Serif" font-size="10.00" fill="#000000"> +init</text>
</g>
<!-- Node7 -->
<g id="node7" class="node">
<title>Node7</title>
<polygon fill="none" stroke="#bfbfbf" points="923,-138.5 923,-195.5 952,-195.5 952,-138.5 923,-138.5"/>
<text text-anchor="middle" x="937.5" y="-183.5" font-family="Helvetica,sans-Serif" font-size="10.00" fill="#000000">int</text>
<polyline fill="none" stroke="#bfbfbf" points="923,-176.5 952,-176.5 "/>
<text text-anchor="middle" x="937.5" y="-164.5" font-family="Helvetica,sans-Serif" font-size="10.00" fill="#000000"> </text>
<polyline fill="none" stroke="#bfbfbf" points="923,-157.5 952,-157.5 "/>
<text text-anchor="middle" x="937.5" y="-145.5" font-family="Helvetica,sans-Serif" font-size="10.00" fill="#000000"> </text>
</g>
<!-- Node7&#45;&gt;Node1 -->
<g id="edge6" class="edge">
<title>Node7&#45;&gt;Node1</title>
<path fill="none" stroke="#404040" d="M922.8447,-140.6093C919.9292,-135.9501 916.7566,-131.2384 913.5,-127 897.1488,-105.7189 876.6713,-84.0864 858.9189,-66.5787"/>
<polygon fill="none" stroke="#404040" points="858.5209,-66.1915 851.4311,-64.8742 849.9203,-57.8231 857.0101,-59.1404 858.5209,-66.1915"/>
<text text-anchor="middle" x="916.5" y="-90" font-family="Helvetica,sans-Serif" font-size="10.00" fill="#000000"> +name</text>
</g>
<!-- Node8 -->
<g id="node8" class="node">
<title>Node8</title>
<polygon fill="none" stroke="#bfbfbf" points="970.5,-138.5 970.5,-195.5 1044.5,-195.5 1044.5,-138.5 970.5,-138.5"/>
<text text-anchor="middle" x="1007.5" y="-183.5" font-family="Helvetica,sans-Serif" font-size="10.00" fill="#000000">ServiceKind</text>
<polyline fill="none" stroke="#bfbfbf" points="970.5,-176.5 1044.5,-176.5 "/>
<text text-anchor="middle" x="1007.5" y="-164.5" font-family="Helvetica,sans-Serif" font-size="10.00" fill="#000000"> </text>
<polyline fill="none" stroke="#bfbfbf" points="970.5,-157.5 1044.5,-157.5 "/>
<text text-anchor="middle" x="1007.5" y="-145.5" font-family="Helvetica,sans-Serif" font-size="10.00" fill="#000000"> </text>
</g>
<!-- Node8&#45;&gt;Node1 -->
<g id="edge7" class="edge">
<title>Node8&#45;&gt;Node1</title>
<path fill="none" stroke="#404040" d="M992.1457,-138.1445C980.3243,-118.3178 962.3333,-92.6645 940.5,-76 930.2085,-68.1449 918.4466,-61.4569 906.3803,-55.8059"/>
<polygon fill="none" stroke="#404040" points="906.2296,-55.7396 899.1264,-56.9827 895.247,-50.904 902.3501,-49.661 906.2296,-55.7396"/>
<text text-anchor="middle" x="987" y="-90" font-family="Helvetica,sans-Serif" font-size="10.00" fill="#000000"> +kind</text>
</g>
<!-- Node9 -->
<g id="node9" class="node">
<title>Node9</title>
<polygon fill="none" stroke="#bfbfbf" points="1063,-133 1063,-201 1220,-201 1220,-133 1063,-133"/>
<text text-anchor="start" x="1071" y="-189" font-family="Helvetica,sans-Serif" font-size="10.00" fill="#000000">function&lt; void(EndOfStream</text>
<text text-anchor="middle" x="1141.5" y="-178" font-family="Helvetica,sans-Serif" font-size="10.00" fill="#000000">Context &amp;, void *)&gt;</text>
<polyline fill="none" stroke="#bfbfbf" points="1063,-171 1220,-171 "/>
<text text-anchor="middle" x="1141.5" y="-159" font-family="Helvetica,sans-Serif" font-size="10.00" fill="#000000"> </text>
<polyline fill="none" stroke="#bfbfbf" points="1063,-152 1220,-152 "/>
<text text-anchor="middle" x="1141.5" y="-140" font-family="Helvetica,sans-Serif" font-size="10.00" fill="#000000"> </text>
</g>
<!-- Node9&#45;&gt;Node1 -->
<g id="edge8" class="edge">
<title>Node9&#45;&gt;Node1</title>
<path fill="none" stroke="#404040" d="M1099.7396,-132.9582C1074.3881,-113.7883 1040.6214,-90.797 1007.5,-76 975.8812,-61.8743 939.3099,-51.5283 906.8101,-44.1988"/>
<polygon fill="none" stroke="#404040" points="906.7623,-44.1884 900.0482,-46.8192 895.0375,-41.6335 901.7516,-39.0027 906.7623,-44.1884"/>
<text text-anchor="middle" x="1089" y="-95.5" font-family="Helvetica,sans-Serif" font-size="10.00" fill="#000000"> +preEOS</text>
<text text-anchor="middle" x="1089" y="-84.5" font-family="Helvetica,sans-Serif" font-size="10.00" fill="#000000">+postEOS</text>
</g>
<!-- Node10 -->
<g id="node10" class="node">
<title>Node10</title>
<polygon fill="none" stroke="#bfbfbf" points="1238.5,-133 1238.5,-201 1412.5,-201 1412.5,-133 1238.5,-133"/>
<text text-anchor="start" x="1246.5" y="-189" font-family="Helvetica,sans-Serif" font-size="10.00" fill="#000000">function&lt; void(DanglingContext</text>
<text text-anchor="middle" x="1325.5" y="-178" font-family="Helvetica,sans-Serif" font-size="10.00" fill="#000000"> &amp;, void *)&gt;</text>
<polyline fill="none" stroke="#bfbfbf" points="1238.5,-171 1412.5,-171 "/>
<text text-anchor="middle" x="1325.5" y="-159" font-family="Helvetica,sans-Serif" font-size="10.00" fill="#000000"> </text>
<polyline fill="none" stroke="#bfbfbf" points="1238.5,-152 1412.5,-152 "/>
<text text-anchor="middle" x="1325.5" y="-140" font-family="Helvetica,sans-Serif" font-size="10.00" fill="#000000"> </text>
</g>
<!-- Node10&#45;&gt;Node1 -->
<g id="edge9" class="edge">
<title>Node10&#45;&gt;Node1</title>
<path fill="none" stroke="#404040" d="M1259.2192,-132.7824C1219.1482,-113.4289 1166.4965,-90.3102 1117.5,-76 1048.3684,-55.809 967.557,-43.766 907.3875,-36.9338"/>
<polygon fill="none" stroke="#404040" points="907.1837,-36.9114 900.7811,-40.2291 895.2562,-35.595 901.6588,-32.2774 907.1837,-36.9114"/>
<text text-anchor="middle" x="1241" y="-95.5" font-family="Helvetica,sans-Serif" font-size="10.00" fill="#000000"> +preDangling</text>
<text text-anchor="middle" x="1241" y="-84.5" font-family="Helvetica,sans-Serif" font-size="10.00" fill="#000000">+postDangling</text>
</g>
</g>
</svg>
