<?xml version="1.0" encoding="UTF-8" standalone="no"?>
<!DOCTYPE svg PUBLIC "-//W3C//DTD SVG 1.1//EN"
 "http://www.w3.org/Graphics/SVG/1.1/DTD/svg11.dtd">
<!-- Generated by graphviz version 2.40.1 (20161225.0304)
 -->
<!-- Title: /home/travis/build/AliceO2Group/AliceO2/Detectors/TPC/simulation/include/TPCSimulation/PadResponse.h Pages: 1 -->
<!--zoomable 587 -->
<svg id="main" version="1.1" xmlns="http://www.w3.org/2000/svg" xmlns:xlink="http://www.w3.org/1999/xlink" xml:space="preserve" onload="init(evt)">
<style type="text/css"><![CDATA[
.edge:hover path { stroke: red; }
.edge:hover polygon { stroke: red; fill: red; }
]]></style>
<script type="text/javascript"><![CDATA[
var edges = document.getElementsByTagName('g');
if (edges && edges.length) {
  for (var i=0;i<edges.length;i++) {
    if (edges[i].id.substr(0,4)=='edge') {
      edges[i].setAttribute('class','edge');
    }
  }
}
]]></script>
        <defs>
                <circle id="rim" cx="0" cy="0" r="7"/>
                <circle id="rim2" cx="0" cy="0" r="3.5"/>
                <g id="zoomPlus">
                        <use xlink:href="#rim" fill="#404040">
                                <set attributeName="fill" to="#808080" begin="zoomplus.mouseover" end="zoomplus.mouseout"/>
                        </use>
                        <path d="M-4,0h8M0,-4v8" fill="none" stroke="white" stroke-width="1.5" pointer-events="none"/>
                </g>
                <g id="zoomMin">
                        <use xlink:href="#rim" fill="#404040">
                                <set attributeName="fill" to="#808080" begin="zoomminus.mouseover" end="zoomminus.mouseout"/>
                        </use>
                        <path d="M-4,0h8" fill="none" stroke="white" stroke-width="1.5" pointer-events="none"/>
                </g>
                <g id="dirArrow">
                        <path fill="none" stroke="white" stroke-width="1.5" d="M0,-3.0v7 M-2.5,-0.5L0,-3.0L2.5,-0.5"/>
                </g>
               <g id="resetDef">
                       <use xlink:href="#rim2" fill="#404040">
                               <set attributeName="fill" to="#808080" begin="reset.mouseover" end="reset.mouseout"/>
                       </use>
               </g>
        </defs>

<script type="text/javascript">
var viewWidth = 1717;
var viewHeight = 587;
var sectionId = 'dynsection-0';
</script>
<script xlink:href="../../svgpan.js"/>
<svg id="graph" class="graph">
<g id="viewport">
<title>/home/travis/build/AliceO2Group/AliceO2/Detectors/TPC/simulation/include/TPCSimulation/PadResponse.h</title>
<!-- Node0 -->
<g id="node1" class="node">
<title>Node0</title>
<polygon fill="#bfbfbf" stroke="#000000" points="748.5,-526.5 748.5,-578.5 953.5,-578.5 953.5,-526.5 748.5,-526.5"/>
<text text-anchor="start" x="756.5" y="-566.5" font-family="Helvetica,sans-Serif" font-size="10.00" fill="#000000">/home/travis/build</text>
<text text-anchor="start" x="756.5" y="-555.5" font-family="Helvetica,sans-Serif" font-size="10.00" fill="#000000">/AliceO2Group/AliceO2</text>
<text text-anchor="start" x="756.5" y="-544.5" font-family="Helvetica,sans-Serif" font-size="10.00" fill="#000000">/Detectors/TPC/simulation</text>
<text text-anchor="middle" x="851" y="-533.5" font-family="Helvetica,sans-Serif" font-size="10.00" fill="#000000">/include/TPCSimulation/PadResponse.h</text>
</g>
<!-- Node1 -->
<g id="node2" class="node">
<title>Node1</title>
<polygon fill="none" stroke="#bfbfbf" points="760,-470.5 760,-489.5 834,-489.5 834,-470.5 760,-470.5"/>
<text text-anchor="middle" x="797" y="-477.5" font-family="Helvetica,sans-Serif" font-size="10.00" fill="#000000">TGraph2D.h</text>
</g>
<!-- Node0&#45;&gt;Node1 -->
<g id="edge1" class="edge">
<title>Node0&#45;&gt;Node1</title>
<path fill="none" stroke="#191970" d="M831.5048,-526.3258C824.4195,-516.8132 816.5853,-506.2951 810.1749,-497.6886"/>
<polygon fill="#191970" stroke="#191970" points="812.8816,-495.4632 804.1012,-489.534 807.2677,-499.6446 812.8816,-495.4632"/>
</g>
<!-- Node2 -->
<g id="node3" class="node">
<title>Node2</title>
<g id="a_node3"><a xlink:href="../../d5/d1d/TPC_2base_2include_2TPCBase_2Mapper_8h.html" target="_top" xlink:title="TPCBase/Mapper.h">
<polygon fill="none" stroke="#000000" points="852.5,-470.5 852.5,-489.5 959.5,-489.5 959.5,-470.5 852.5,-470.5"/>
<text text-anchor="middle" x="906" y="-477.5" font-family="Helvetica,sans-Serif" font-size="10.00" fill="#000000">TPCBase/Mapper.h</text>
</a>
</g>
</g>
<!-- Node0&#45;&gt;Node2 -->
<g id="edge2" class="edge">
<title>Node0&#45;&gt;Node2</title>
<path fill="none" stroke="#191970" d="M870.8563,-526.3258C878.0727,-516.8132 886.052,-506.2951 892.5811,-497.6886"/>
<polygon fill="#191970" stroke="#191970" points="895.5118,-499.6163 898.7673,-489.534 889.935,-495.3856 895.5118,-499.6163"/>
</g>
<!-- Node3 -->
<g id="node4" class="node">
<title>Node3</title>
<polygon fill="none" stroke="#bfbfbf" points="517,-414.5 517,-433.5 555,-433.5 555,-414.5 517,-414.5"/>
<text text-anchor="middle" x="536" y="-421.5" font-family="Helvetica,sans-Serif" font-size="10.00" fill="#000000">map</text>
</g>
<!-- Node2&#45;&gt;Node3 -->
<g id="edge3" class="edge">
<title>Node2&#45;&gt;Node3</title>
<path fill="none" stroke="#191970" d="M852.3986,-471.3918C849.2198,-470.9124 846.0687,-470.4451 843,-470 721.4474,-452.371 689.0633,-459.8966 569,-434 567.7162,-433.7231 566.4102,-433.4202 565.0951,-433.0979"/>
<polygon fill="#191970" stroke="#191970" points="565.6251,-429.6144 555.056,-430.3528 563.7787,-436.3665 565.6251,-429.6144"/>
</g>
<!-- Node4 -->
<g id="node5" class="node">
<title>Node4</title>
<polygon fill="none" stroke="#bfbfbf" points="847.5,-358.5 847.5,-377.5 894.5,-377.5 894.5,-358.5 847.5,-358.5"/>
<text text-anchor="middle" x="871" y="-365.5" font-family="Helvetica,sans-Serif" font-size="10.00" fill="#000000">vector</text>
</g>
<!-- Node2&#45;&gt;Node4 -->
<g id="edge4" class="edge">
<title>Node2&#45;&gt;Node4</title>
<path fill="none" stroke="#191970" d="M897.4724,-470.1887C890.3556,-461.3687 880.6516,-447.7255 876,-434 870.9285,-419.0357 869.8625,-401.1062 869.9622,-387.7138"/>
<polygon fill="#191970" stroke="#191970" points="873.4612,-387.7949 870.2579,-377.696 866.4643,-387.5884 873.4612,-387.7949"/>
</g>
<!-- Node5 -->
<g id="node6" class="node">
<title>Node5</title>
<polygon fill="none" stroke="#bfbfbf" points="611,-414.5 611,-433.5 653,-433.5 653,-414.5 611,-414.5"/>
<text text-anchor="middle" x="632" y="-421.5" font-family="Helvetica,sans-Serif" font-size="10.00" fill="#000000">array</text>
</g>
<!-- Node2&#45;&gt;Node5 -->
<g id="edge5" class="edge">
<title>Node2&#45;&gt;Node5</title>
<path fill="none" stroke="#191970" d="M852.2901,-470.7507C795.8776,-460.8915 709.9249,-445.427 662.8955,-433.9252"/>
<polygon fill="#191970" stroke="#191970" points="663.7528,-430.5319 653.1988,-431.4612 662.0288,-437.3163 663.7528,-430.5319"/>
</g>
<!-- Node6 -->
<g id="node7" class="node">
<title>Node6</title>
<polygon fill="none" stroke="#bfbfbf" points="671,-414.5 671,-433.5 715,-433.5 715,-414.5 671,-414.5"/>
<text text-anchor="middle" x="693" y="-421.5" font-family="Helvetica,sans-Serif" font-size="10.00" fill="#000000">string</text>
</g>
<!-- Node2&#45;&gt;Node6 -->
<g id="edge6" class="edge">
<title>Node2&#45;&gt;Node6</title>
<path fill="none" stroke="#191970" d="M868.6591,-470.4884C832.8043,-461.3097 777.1385,-446.9402 729,-434 727.7315,-433.659 726.4384,-433.3094 725.1326,-432.9546"/>
<polygon fill="#191970" stroke="#191970" points="725.6385,-429.4642 715.0688,-430.1929 723.786,-436.2146 725.6385,-429.4642"/>
</g>
<!-- Node7 -->
<g id="node8" class="node">
<title>Node7</title>
<polygon fill="none" stroke="#bfbfbf" points="894.5,-134.5 894.5,-153.5 941.5,-153.5 941.5,-134.5 894.5,-134.5"/>
<text text-anchor="middle" x="918" y="-141.5" font-family="Helvetica,sans-Serif" font-size="10.00" fill="#000000">cmath</text>
</g>
<!-- Node2&#45;&gt;Node7 -->
<g id="edge7" class="edge">
<title>Node2&#45;&gt;Node7</title>
<path fill="none" stroke="#191970" d="M880.0999,-470.3737C843.4866,-454.8905 781,-420.7402 781,-368 781,-368 781,-368 781,-256 781,-202.5014 844.3936,-169.9612 884.9351,-154.6211"/>
<polygon fill="#191970" stroke="#191970" points="886.2385,-157.8716 894.4489,-151.1753 883.8546,-151.29 886.2385,-157.8716"/>
</g>
<!-- Node8 -->
<g id="node9" class="node">
<title>Node8</title>
<g id="a_node9"><a xlink:href="../../d1/d73/Defs_8h.html" target="_top" xlink:title="Common definitions for 2D coordinates. ">
<polygon fill="none" stroke="#000000" points="1175.5,-190.5 1175.5,-209.5 1308.5,-209.5 1308.5,-190.5 1175.5,-190.5"/>
<text text-anchor="middle" x="1242" y="-197.5" font-family="Helvetica,sans-Serif" font-size="10.00" fill="#000000">DataFormatsTPC/Defs.h</text>
</a>
</g>
</g>
<!-- Node2&#45;&gt;Node8 -->
<g id="edge8" class="edge">
<title>Node2&#45;&gt;Node8</title>
<path fill="none" stroke="#191970" d="M959.6961,-477.8863C1039.4114,-473.8884 1193.3772,-462.8554 1321,-434 1408.1932,-414.2857 1511,-457.3941 1511,-368 1511,-368 1511,-368 1511,-312 1511,-266.4587 1377.9376,-229.5759 1298.9831,-211.6996"/>
<polygon fill="#191970" stroke="#191970" points="1299.686,-208.2705 1289.164,-209.511 1298.1631,-215.1028 1299.686,-208.2705"/>
</g>
<!-- Node10 -->
<g id="node11" class="node">
<title>Node10</title>
<g id="a_node11"><a xlink:href="../../d2/dd0/Cartesian2D_8h.html" target="_top" xlink:title="MathUtils/Cartesian2D.h">
<polygon fill="none" stroke="#000000" points="1122.5,-73 1122.5,-92 1257.5,-92 1257.5,-73 1122.5,-73"/>
<text text-anchor="middle" x="1190" y="-80" font-family="Helvetica,sans-Serif" font-size="10.00" fill="#000000">MathUtils/Cartesian2D.h</text>
</a>
</g>
</g>
<!-- Node2&#45;&gt;Node10 -->
<g id="edge52" class="edge">
<title>Node2&#45;&gt;Node10</title>
<path fill="none" stroke="#191970" d="M863.5992,-470.4558C815.303,-456.7844 743,-426.5413 743,-368 743,-368 743,-368 743,-200 743,-113.7268 1069.4849,-106.0341 1114,-98 1120.7668,-96.7787 1127.8578,-95.428 1134.8745,-94.048"/>
<polygon fill="#191970" stroke="#191970" points="1135.9333,-97.4058 1145.0552,-92.0169 1134.5637,-90.5411 1135.9333,-97.4058"/>
</g>
<!-- Node13 -->
<g id="node14" class="node">
<title>Node13</title>
<g id="a_node14"><a xlink:href="../../dd/d76/Cartesian3D_8h.html" target="_top" xlink:title="MathUtils/Cartesian3D.h">
<polygon fill="none" stroke="#000000" points="579.5,-134.5 579.5,-153.5 714.5,-153.5 714.5,-134.5 579.5,-134.5"/>
<text text-anchor="middle" x="647" y="-141.5" font-family="Helvetica,sans-Serif" font-size="10.00" fill="#000000">MathUtils/Cartesian3D.h</text>
</a>
</g>
</g>
<!-- Node2&#45;&gt;Node13 -->
<g id="edge53" class="edge">
<title>Node2&#45;&gt;Node13</title>
<path fill="none" stroke="#191970" d="M852.389,-471.4562C849.2126,-470.9606 846.0647,-470.4721 843,-470 789.4815,-461.7555 642.7319,-469.6806 602,-434 579.0391,-413.8866 583,-398.5246 583,-368 583,-368 583,-368 583,-256 583,-218.2379 610.7654,-181.6312 629.7202,-161.0404"/>
<polygon fill="#191970" stroke="#191970" points="632.3365,-163.3686 636.7173,-153.7219 627.2769,-158.5312 632.3365,-163.3686"/>
</g>
<!-- Node22 -->
<g id="node23" class="node">
<title>Node22</title>
<g id="a_node23"><a xlink:href="../../de/d41/PadPos_8h.html" target="_top" xlink:title="TPCBase/PadPos.h">
<polygon fill="none" stroke="#000000" points="1070,-302.5 1070,-321.5 1176,-321.5 1176,-302.5 1070,-302.5"/>
<text text-anchor="middle" x="1123" y="-309.5" font-family="Helvetica,sans-Serif" font-size="10.00" fill="#000000">TPCBase/PadPos.h</text>
</a>
</g>
</g>
<!-- Node2&#45;&gt;Node22 -->
<g id="edge24" class="edge">
<title>Node2&#45;&gt;Node22</title>
<path fill="none" stroke="#191970" d="M951.4946,-470.4891C981.4701,-463.1042 1020.9546,-451.1966 1053,-434 1087.8013,-415.3245 1104.7466,-413.5277 1122,-378 1128.9616,-363.6649 1128.655,-345.4285 1126.9224,-331.7593"/>
<polygon fill="#191970" stroke="#191970" points="1130.3198,-330.8457 1125.2598,-321.5373 1123.4106,-331.9695 1130.3198,-330.8457"/>
</g>
<!-- Node23 -->
<g id="node24" class="node">
<title>Node23</title>
<g id="a_node24"><a xlink:href="../../dd/d0b/PadSecPos_8h.html" target="_top" xlink:title="TPCBase/PadSecPos.h">
<polygon fill="none" stroke="#000000" points="989.5,-358.5 989.5,-377.5 1112.5,-377.5 1112.5,-358.5 989.5,-358.5"/>
<text text-anchor="middle" x="1051" y="-365.5" font-family="Helvetica,sans-Serif" font-size="10.00" fill="#000000">TPCBase/PadSecPos.h</text>
</a>
</g>
</g>
<!-- Node2&#45;&gt;Node23 -->
<g id="edge25" class="edge">
<title>Node2&#45;&gt;Node23</title>
<path fill="none" stroke="#191970" d="M959.5116,-472.6583C985.3529,-466.4572 1014.8357,-455.033 1034,-434 1045.3187,-421.5776 1049.3108,-402.6237 1050.622,-388.2095"/>
<polygon fill="#191970" stroke="#191970" points="1054.1379,-388.01 1051.1875,-377.8343 1047.1483,-387.629 1054.1379,-388.01"/>
</g>
<!-- Node24 -->
<g id="node25" class="node">
<title>Node24</title>
<g id="a_node25"><a xlink:href="../../d3/dd6/Sector_8h.html" target="_top" xlink:title="TPCBase/Sector.h">
<polygon fill="none" stroke="#000000" points="1070.5,-246.5 1070.5,-265.5 1171.5,-265.5 1171.5,-246.5 1070.5,-246.5"/>
<text text-anchor="middle" x="1121" y="-253.5" font-family="Helvetica,sans-Serif" font-size="10.00" fill="#000000">TPCBase/Sector.h</text>
</a>
</g>
</g>
<!-- Node2&#45;&gt;Node24 -->
<g id="edge51" class="edge">
<title>Node2&#45;&gt;Node24</title>
<path fill="none" stroke="#191970" d="M893.2621,-470.421C866.7372,-449.303 810.2605,-397.4843 838,-358 864.81,-319.8388 991.9541,-285.2786 1066.3862,-267.8688"/>
<polygon fill="#191970" stroke="#191970" points="1067.5673,-271.1882 1076.5231,-265.5275 1065.9919,-264.3678 1067.5673,-271.1882"/>
</g>
<!-- Node26 -->
<g id="node27" class="node">
<title>Node26</title>
<g id="a_node27"><a xlink:href="../../da/d61/PadROCPos_8h.html" target="_top" xlink:title="TPCBase/PadROCPos.h">
<polygon fill="none" stroke="#000000" points="1317.5,-358.5 1317.5,-377.5 1444.5,-377.5 1444.5,-358.5 1317.5,-358.5"/>
<text text-anchor="middle" x="1381" y="-365.5" font-family="Helvetica,sans-Serif" font-size="10.00" fill="#000000">TPCBase/PadROCPos.h</text>
</a>
</g>
</g>
<!-- Node2&#45;&gt;Node26 -->
<g id="edge30" class="edge">
<title>Node2&#45;&gt;Node26</title>
<path fill="none" stroke="#191970" d="M959.7225,-476.9065C1050.7306,-471.1123 1231.0771,-457.0818 1290,-434 1318.7343,-422.7439 1346.6903,-400.2125 1363.8666,-384.6292"/>
<polygon fill="#191970" stroke="#191970" points="1366.4605,-386.9961 1371.3889,-377.6173 1361.6875,-381.8757 1366.4605,-386.9961"/>
</g>
<!-- Node28 -->
<g id="node29" class="node">
<title>Node28</title>
<g id="a_node29"><a xlink:href="../../d3/d54/DigitPos_8h.html" target="_top" xlink:title="TPCBase/DigitPos.h">
<polygon fill="none" stroke="#000000" points="1169,-414.5 1169,-433.5 1281,-433.5 1281,-414.5 1169,-414.5"/>
<text text-anchor="middle" x="1225" y="-421.5" font-family="Helvetica,sans-Serif" font-size="10.00" fill="#000000">TPCBase/DigitPos.h</text>
</a>
</g>
</g>
<!-- Node2&#45;&gt;Node28 -->
<g id="edge36" class="edge">
<title>Node2&#45;&gt;Node28</title>
<path fill="none" stroke="#191970" d="M959.7533,-470.5637C1015.2287,-460.8251 1101.7664,-445.6335 1160.8011,-435.27"/>
<polygon fill="#191970" stroke="#191970" points="1161.5151,-438.6983 1170.7593,-433.5219 1160.3047,-431.8037 1161.5151,-438.6983"/>
</g>
<!-- Node30 -->
<g id="node31" class="node">
<title>Node30</title>
<g id="a_node31"><a xlink:href="../../d1/d1f/FECInfo_8h.html" target="_top" xlink:title="TPCBase/FECInfo.h">
<polygon fill="none" stroke="#000000" points="1539,-246.5 1539,-265.5 1647,-265.5 1647,-246.5 1539,-246.5"/>
<text text-anchor="middle" x="1593" y="-253.5" font-family="Helvetica,sans-Serif" font-size="10.00" fill="#000000">TPCBase/FECInfo.h</text>
</a>
</g>
</g>
<!-- Node2&#45;&gt;Node30 -->
<g id="edge44" class="edge">
<title>Node2&#45;&gt;Node30</title>
<path fill="none" stroke="#191970" d="M959.6628,-479.2629C1101.7927,-476.8599 1480.1898,-467.3653 1525,-434 1576.218,-395.8635 1588.8584,-314.0356 1591.9779,-276.0882"/>
<polygon fill="#191970" stroke="#191970" points="1595.4897,-276.0305 1592.6725,-265.8171 1588.5057,-275.5581 1595.4897,-276.0305"/>
</g>
<!-- Node31 -->
<g id="node32" class="node">
<title>Node31</title>
<g id="a_node32"><a xlink:href="../../da/d9d/PadRegionInfo_8h.html" target="_top" xlink:title="TPCBase/PadRegionInfo.h">
<polygon fill="none" stroke="#000000" points="885,-414.5 885,-433.5 1025,-433.5 1025,-414.5 885,-414.5"/>
<text text-anchor="middle" x="955" y="-421.5" font-family="Helvetica,sans-Serif" font-size="10.00" fill="#000000">TPCBase/PadRegionInfo.h</text>
</a>
</g>
</g>
<!-- Node2&#45;&gt;Node31 -->
<g id="edge46" class="edge">
<title>Node2&#45;&gt;Node31</title>
<path fill="none" stroke="#191970" d="M914.5351,-470.2455C921.4912,-462.2958 931.4883,-450.8706 939.8051,-441.3656"/>
<polygon fill="#191970" stroke="#191970" points="942.6116,-443.4732 946.5627,-433.6427 937.3436,-438.8637 942.6116,-443.4732"/>
</g>
<!-- Node32 -->
<g id="node33" class="node">
<title>Node32</title>
<g id="a_node33"><a xlink:href="../../d6/d42/PartitionInfo_8h.html" target="_top" xlink:title="TPCBase/PartitionInfo.h">
<polygon fill="none" stroke="#000000" points="1577.5,-414.5 1577.5,-433.5 1708.5,-433.5 1708.5,-414.5 1577.5,-414.5"/>
<text text-anchor="middle" x="1643" y="-421.5" font-family="Helvetica,sans-Serif" font-size="10.00" fill="#000000">TPCBase/PartitionInfo.h</text>
</a>
</g>
</g>
<!-- Node2&#45;&gt;Node32 -->
<g id="edge50" class="edge">
<title>Node2&#45;&gt;Node32</title>
<path fill="none" stroke="#191970" d="M959.7352,-477.2314C1071.9617,-471.2304 1339.3775,-455.7886 1563,-434 1564.293,-433.874 1565.5973,-433.744 1566.9106,-433.6105"/>
<polygon fill="#191970" stroke="#191970" points="1567.5372,-437.0636 1577.1105,-432.5247 1566.7962,-430.103 1567.5372,-437.0636"/>
</g>
<!-- Node8&#45;&gt;Node7 -->
<g id="edge9" class="edge">
<title>Node8&#45;&gt;Node7</title>
<path fill="none" stroke="#191970" d="M1186.6706,-190.4369C1119.2617,-178.786 1007.4954,-159.4683 951.7645,-149.8358"/>
<polygon fill="#191970" stroke="#191970" points="952.1643,-146.3531 941.7142,-148.0988 950.972,-153.2508 952.1643,-146.3531"/>
</g>
<!-- Node9 -->
<g id="node10" class="node">
<title>Node9</title>
<g id="a_node10"><a xlink:href="../../d1/da8/GPUROOTCartesianFwd_8h.html" target="_top" xlink:title="GPUROOTCartesianFwd.h">
<polygon fill="none" stroke="#000000" points="1074,-134.5 1074,-153.5 1214,-153.5 1214,-134.5 1074,-134.5"/>
<text text-anchor="middle" x="1144" y="-141.5" font-family="Helvetica,sans-Serif" font-size="10.00" fill="#000000">GPUROOTCartesianFwd.h</text>
</a>
</g>
</g>
<!-- Node8&#45;&gt;Node9 -->
<g id="edge10" class="edge">
<title>Node8&#45;&gt;Node9</title>
<path fill="none" stroke="#191970" d="M1224.9297,-190.2455C1209.753,-181.5731 1187.3379,-168.7645 1169.9437,-158.825"/>
<polygon fill="#191970" stroke="#191970" points="1171.2936,-155.5653 1160.8747,-153.6427 1167.8206,-161.643 1171.2936,-155.5653"/>
</g>
<!-- Node8&#45;&gt;Node10 -->
<g id="edge11" class="edge">
<title>Node8&#45;&gt;Node10</title>
<path fill="none" stroke="#191970" d="M1240.1287,-190.2934C1237.3895,-177.1441 1231.6544,-153.1181 1223,-134 1217.6902,-122.2703 1210.0073,-110.0988 1203.3905,-100.5354"/>
<polygon fill="#191970" stroke="#191970" points="1206.1448,-98.3696 1197.4854,-92.265 1200.4478,-102.4372 1206.1448,-98.3696"/>
</g>
<!-- Node8&#45;&gt;Node13 -->
<g id="edge14" class="edge">
<title>Node8&#45;&gt;Node13</title>
<path fill="none" stroke="#191970" d="M1175.3625,-190.9591C1172.5384,-190.6252 1169.7418,-190.3039 1167,-190 1010.4597,-172.6487 826.8247,-157.6572 725.0171,-149.8174"/>
<polygon fill="#191970" stroke="#191970" points="725.0602,-146.3105 714.8217,-149.0351 724.5246,-153.29 725.0602,-146.3105"/>
</g>
<!-- Node11 -->
<g id="node12" class="node">
<title>Node11</title>
<polygon fill="none" stroke="#bfbfbf" points="1010,-.5 1010,-30.5 1174,-30.5 1174,-.5 1010,-.5"/>
<text text-anchor="start" x="1018" y="-18.5" font-family="Helvetica,sans-Serif" font-size="10.00" fill="#000000">Math/GenVector/Displacement</text>
<text text-anchor="middle" x="1092" y="-7.5" font-family="Helvetica,sans-Serif" font-size="10.00" fill="#000000">Vector2D.h</text>
</g>
<!-- Node10&#45;&gt;Node11 -->
<g id="edge12" class="edge">
<title>Node10&#45;&gt;Node11</title>
<path fill="none" stroke="#191970" d="M1175.959,-72.9005C1162.0412,-63.3853 1140.272,-48.5023 1122.388,-36.2755"/>
<polygon fill="#191970" stroke="#191970" points="1124.2026,-33.2763 1113.9721,-30.5218 1120.2519,-39.0549 1124.2026,-33.2763"/>
</g>
<!-- Node12 -->
<g id="node13" class="node">
<title>Node12</title>
<polygon fill="none" stroke="#bfbfbf" points="1192.5,-6 1192.5,-25 1381.5,-25 1381.5,-6 1192.5,-6"/>
<text text-anchor="middle" x="1287" y="-13" font-family="Helvetica,sans-Serif" font-size="10.00" fill="#000000">Math/GenVector/PositionVector2D.h</text>
</g>
<!-- Node10&#45;&gt;Node12 -->
<g id="edge13" class="edge">
<title>Node10&#45;&gt;Node12</title>
<path fill="none" stroke="#191970" d="M1203.8977,-72.9005C1219.8164,-61.9052 1246.1121,-43.7422 1264.8599,-30.7927"/>
<polygon fill="#191970" stroke="#191970" points="1266.8892,-33.6448 1273.128,-25.0817 1262.9108,-27.8852 1266.8892,-33.6448"/>
</g>
<!-- Node13&#45;&gt;Node10 -->
<g id="edge23" class="edge">
<title>Node13&#45;&gt;Node10</title>
<path fill="none" stroke="#191970" d="M714.5519,-135.6094C719.4395,-135.0491 724.2945,-134.5068 729,-134 899.8693,-115.5961 944.0013,-123.2082 1114,-98 1121.68,-96.8612 1129.7557,-95.4491 1137.6592,-93.9446"/>
<polygon fill="#191970" stroke="#191970" points="1138.3985,-97.3664 1147.5356,-92.0031 1137.0482,-90.4978 1138.3985,-97.3664"/>
</g>
<!-- Node14 -->
<g id="node15" class="node">
<title>Node14</title>
<polygon fill="none" stroke="#bfbfbf" points="733,-67.5 733,-97.5 897,-97.5 897,-67.5 733,-67.5"/>
<text text-anchor="start" x="741" y="-85.5" font-family="Helvetica,sans-Serif" font-size="10.00" fill="#000000">Math/GenVector/Displacement</text>
<text text-anchor="middle" x="815" y="-74.5" font-family="Helvetica,sans-Serif" font-size="10.00" fill="#000000">Vector3D.h</text>
</g>
<!-- Node13&#45;&gt;Node14 -->
<g id="edge15" class="edge">
<title>Node13&#45;&gt;Node14</title>
<path fill="none" stroke="#191970" d="M673.25,-134.3906C697.5657,-125.4893 734.3947,-112.0073 764.4183,-101.0165"/>
<polygon fill="#191970" stroke="#191970" points="765.7152,-104.269 773.9026,-97.5446 763.3088,-97.6956 765.7152,-104.269"/>
</g>
<!-- Node15 -->
<g id="node16" class="node">
<title>Node15</title>
<polygon fill="none" stroke="#bfbfbf" points="915.5,-73 915.5,-92 1104.5,-92 1104.5,-73 915.5,-73"/>
<text text-anchor="middle" x="1010" y="-80" font-family="Helvetica,sans-Serif" font-size="10.00" fill="#000000">Math/GenVector/PositionVector3D.h</text>
</g>
<!-- Node13&#45;&gt;Node15 -->
<g id="edge16" class="edge">
<title>Node13&#45;&gt;Node15</title>
<path fill="none" stroke="#191970" d="M703.3205,-134.4581C768.329,-123.4443 875.1112,-105.3531 943.9711,-93.6867"/>
<polygon fill="#191970" stroke="#191970" points="944.5713,-97.135 953.8461,-92.0137 943.4019,-90.2333 944.5713,-97.135"/>
</g>
<!-- Node16 -->
<g id="node17" class="node">
<title>Node16</title>
<polygon fill="none" stroke="#bfbfbf" points="0,-73 0,-92 160,-92 160,-73 0,-73"/>
<text text-anchor="middle" x="80" y="-80" font-family="Helvetica,sans-Serif" font-size="10.00" fill="#000000">Math/GenVector/Rotation3D.h</text>
</g>
<!-- Node13&#45;&gt;Node16 -->
<g id="edge17" class="edge">
<title>Node13&#45;&gt;Node16</title>
<path fill="none" stroke="#191970" d="M579.1322,-139.112C486.2988,-132.0516 314.6179,-117.6576 169,-98 159.8685,-96.7673 150.2409,-95.2841 140.8258,-93.7302"/>
<polygon fill="#191970" stroke="#191970" points="141.1695,-90.2388 130.7263,-92.0249 140.004,-97.1411 141.1695,-90.2388"/>
</g>
<!-- Node17 -->
<g id="node18" class="node">
<title>Node17</title>
<polygon fill="none" stroke="#bfbfbf" points="178,-73 178,-92 346,-92 346,-73 178,-73"/>
<text text-anchor="middle" x="262" y="-80" font-family="Helvetica,sans-Serif" font-size="10.00" fill="#000000">Math/GenVector/Transform3D.h</text>
</g>
<!-- Node13&#45;&gt;Node17 -->
<g id="edge18" class="edge">
<title>Node13&#45;&gt;Node17</title>
<path fill="none" stroke="#191970" d="M585.4514,-134.4668C526.3396,-125.2725 434.5337,-110.8922 355,-98 346.4301,-96.6108 337.4193,-95.132 328.5181,-93.6602"/>
<polygon fill="#191970" stroke="#191970" points="328.9821,-90.1894 318.5443,-92.0067 327.8372,-97.0952 328.9821,-90.1894"/>
</g>
<!-- Node18 -->
<g id="node19" class="node">
<title>Node18</title>
<polygon fill="none" stroke="#bfbfbf" points="364.5,-73 364.5,-92 537.5,-92 537.5,-73 364.5,-73"/>
<text text-anchor="middle" x="451" y="-80" font-family="Helvetica,sans-Serif" font-size="10.00" fill="#000000">Math/GenVector/Translation3D.h</text>
</g>
<!-- Node13&#45;&gt;Node18 -->
<g id="edge19" class="edge">
<title>Node13&#45;&gt;Node18</title>
<path fill="none" stroke="#191970" d="M616.375,-134.3906C582.7176,-123.8298 528.5101,-106.8208 491.3941,-95.1747"/>
<polygon fill="#191970" stroke="#191970" points="491.9991,-91.6963 481.4099,-92.0419 489.9034,-98.3753 491.9991,-91.6963"/>
</g>
<!-- Node19 -->
<g id="node20" class="node">
<title>Node19</title>
<polygon fill="none" stroke="#bfbfbf" points="555.5,-73 555.5,-92 614.5,-92 614.5,-73 555.5,-73"/>
<text text-anchor="middle" x="585" y="-80" font-family="Helvetica,sans-Serif" font-size="10.00" fill="#000000">Rtypes.h</text>
</g>
<!-- Node13&#45;&gt;Node19 -->
<g id="edge20" class="edge">
<title>Node13&#45;&gt;Node19</title>
<path fill="none" stroke="#191970" d="M637.3125,-134.3906C627.9041,-125.0581 613.4193,-110.6902 602.0751,-99.4374"/>
<polygon fill="#191970" stroke="#191970" points="604.3886,-96.8024 594.8241,-92.2449 599.4589,-101.7722 604.3886,-96.8024"/>
</g>
<!-- Node20 -->
<g id="node21" class="node">
<title>Node20</title>
<polygon fill="none" stroke="#bfbfbf" points="633,-73 633,-92 715,-92 715,-73 633,-73"/>
<text text-anchor="middle" x="674" y="-80" font-family="Helvetica,sans-Serif" font-size="10.00" fill="#000000">TGeoMatrix.h</text>
</g>
<!-- Node13&#45;&gt;Node20 -->
<g id="edge21" class="edge">
<title>Node13&#45;&gt;Node20</title>
<path fill="none" stroke="#191970" d="M651.2188,-134.3906C655.0796,-125.5965 660.9034,-112.3312 665.6961,-101.4145"/>
<polygon fill="#191970" stroke="#191970" points="668.9066,-102.8083 669.7218,-92.2449 662.4971,-99.9943 668.9066,-102.8083"/>
</g>
<!-- Node21 -->
<g id="node22" class="node">
<title>Node21</title>
<polygon fill="none" stroke="#bfbfbf" points="1289.5,-73 1289.5,-92 1338.5,-92 1338.5,-73 1289.5,-73"/>
<text text-anchor="middle" x="1314" y="-80" font-family="Helvetica,sans-Serif" font-size="10.00" fill="#000000">iosfwd</text>
</g>
<!-- Node13&#45;&gt;Node21 -->
<g id="edge22" class="edge">
<title>Node13&#45;&gt;Node21</title>
<path fill="none" stroke="#191970" d="M714.5256,-141.0765C852.5746,-134.7578 1162.8585,-118.7104 1267,-98 1271.1714,-97.1705 1275.4868,-96.0822 1279.7346,-94.8663"/>
<polygon fill="#191970" stroke="#191970" points="1280.9108,-98.166 1289.424,-91.8592 1278.836,-91.4806 1280.9108,-98.166"/>
</g>
<!-- Node23&#45;&gt;Node22 -->
<g id="edge29" class="edge">
<title>Node23&#45;&gt;Node22</title>
<path fill="none" stroke="#191970" d="M1063.5414,-358.2455C1074.2787,-349.8943 1089.9473,-337.7076 1102.5047,-327.9408"/>
<polygon fill="#191970" stroke="#191970" points="1104.8575,-330.5449 1110.6023,-321.6427 1100.5599,-325.0194 1104.8575,-330.5449"/>
</g>
<!-- Node23&#45;&gt;Node24 -->
<g id="edge26" class="edge">
<title>Node23&#45;&gt;Node24</title>
<path fill="none" stroke="#191970" d="M1050.2974,-358.2991C1049.7722,-344.7317 1050.5086,-319.7615 1061,-302 1068.607,-289.1217 1081.3302,-278.594 1093.1077,-270.8759"/>
<polygon fill="#191970" stroke="#191970" points="1095.133,-273.7397 1101.8292,-265.5291 1091.4744,-267.7718 1095.133,-273.7397"/>
</g>
<!-- Node24&#45;&gt;Node8 -->
<g id="edge28" class="edge">
<title>Node24&#45;&gt;Node8</title>
<path fill="none" stroke="#191970" d="M1141.8006,-246.3733C1161.2243,-237.3838 1190.4224,-223.8706 1212.2964,-213.7471"/>
<polygon fill="#191970" stroke="#191970" points="1213.8656,-216.8776 1221.4708,-209.5011 1210.9255,-210.5249 1213.8656,-216.8776"/>
</g>
<!-- Node25 -->
<g id="node26" class="node">
<title>Node25</title>
<g id="a_node26"><a xlink:href="../../d0/dda/DataFormats_2Detectors_2TPC_2include_2DataFormatsTPC_2Constants_8h.html" target="_top" xlink:title="DataFormatsTPC/Constants.h">
<polygon fill="none" stroke="#000000" points="998.5,-190.5 998.5,-209.5 1157.5,-209.5 1157.5,-190.5 998.5,-190.5"/>
<text text-anchor="middle" x="1078" y="-197.5" font-family="Helvetica,sans-Serif" font-size="10.00" fill="#000000">DataFormatsTPC/Constants.h</text>
</a>
</g>
</g>
<!-- Node24&#45;&gt;Node25 -->
<g id="edge27" class="edge">
<title>Node24&#45;&gt;Node25</title>
<path fill="none" stroke="#191970" d="M1113.51,-246.2455C1107.4674,-238.3761 1098.8097,-227.101 1091.5559,-217.6542"/>
<polygon fill="#191970" stroke="#191970" points="1094.2705,-215.4426 1085.4042,-209.6427 1088.7185,-219.7058 1094.2705,-215.4426"/>
</g>
<!-- Node26&#45;&gt;Node8 -->
<g id="edge31" class="edge">
<title>Node26&#45;&gt;Node8</title>
<path fill="none" stroke="#191970" d="M1381.6655,-358.3208C1382.1467,-344.7792 1381.3583,-319.8394 1371,-302 1347.4839,-261.4997 1301.1417,-231.0235 1270.8796,-214.3532"/>
<polygon fill="#191970" stroke="#191970" points="1272.5157,-211.2591 1262.0473,-209.6271 1269.2131,-217.4311 1272.5157,-211.2591"/>
</g>
<!-- Node26&#45;&gt;Node22 -->
<g id="edge35" class="edge">
<title>Node26&#45;&gt;Node22</title>
<path fill="none" stroke="#191970" d="M1336.9414,-358.4369C1292.6011,-348.8127 1224.1589,-333.957 1176.6751,-323.6504"/>
<polygon fill="#191970" stroke="#191970" points="1177.3918,-320.2245 1166.8769,-321.5237 1175.9069,-327.0653 1177.3918,-320.2245"/>
</g>
<!-- Node27 -->
<g id="node28" class="node">
<title>Node27</title>
<g id="a_node28"><a xlink:href="../../dc/d14/ROC_8h.html" target="_top" xlink:title="TPCBase/ROC.h">
<polygon fill="none" stroke="#000000" points="1270,-302.5 1270,-321.5 1362,-321.5 1362,-302.5 1270,-302.5"/>
<text text-anchor="middle" x="1316" y="-309.5" font-family="Helvetica,sans-Serif" font-size="10.00" fill="#000000">TPCBase/ROC.h</text>
</a>
</g>
</g>
<!-- Node26&#45;&gt;Node27 -->
<g id="edge32" class="edge">
<title>Node26&#45;&gt;Node27</title>
<path fill="none" stroke="#191970" d="M1369.6779,-358.2455C1360.0777,-349.9746 1346.1108,-337.9416 1334.8305,-328.2232"/>
<polygon fill="#191970" stroke="#191970" points="1337.053,-325.5182 1327.1924,-321.6427 1332.484,-330.8214 1337.053,-325.5182"/>
</g>
<!-- Node27&#45;&gt;Node8 -->
<g id="edge33" class="edge">
<title>Node27&#45;&gt;Node8</title>
<path fill="none" stroke="#191970" d="M1309.6908,-302.4509C1297.3485,-283.7707 1269.8318,-242.1238 1253.9432,-218.0761"/>
<polygon fill="#191970" stroke="#191970" points="1256.726,-215.9388 1248.2932,-209.5249 1250.8857,-219.7977 1256.726,-215.9388"/>
</g>
<!-- Node27&#45;&gt;Node24 -->
<g id="edge34" class="edge">
<title>Node27&#45;&gt;Node24</title>
<path fill="none" stroke="#191970" d="M1282.4783,-302.3733C1249.6317,-292.9404 1199.4405,-278.5265 1163.7422,-268.2747"/>
<polygon fill="#191970" stroke="#191970" points="1164.6619,-264.8974 1154.0843,-265.5011 1162.7297,-271.6255 1164.6619,-264.8974"/>
</g>
<!-- Node28&#45;&gt;Node8 -->
<g id="edge37" class="edge">
<title>Node28&#45;&gt;Node8</title>
<path fill="none" stroke="#191970" d="M1281.0094,-420.6844C1341.6299,-415.7888 1432.544,-404.1945 1454,-378 1513.5276,-305.3258 1358.5444,-239.8544 1281.9312,-212.958"/>
<polygon fill="#191970" stroke="#191970" points="1282.707,-209.5233 1272.1123,-209.5713 1280.4245,-216.1407 1282.707,-209.5233"/>
</g>
<!-- Node28&#45;&gt;Node22 -->
<g id="edge42" class="edge">
<title>Node28&#45;&gt;Node22</title>
<path fill="none" stroke="#191970" d="M1216.3035,-414.4509C1199.0653,-395.5227 1160.3521,-353.014 1138.5986,-329.1279"/>
<polygon fill="#191970" stroke="#191970" points="1140.9955,-326.5617 1131.6745,-321.5249 1135.8201,-331.275 1140.9955,-326.5617"/>
</g>
<!-- Node28&#45;&gt;Node23 -->
<g id="edge43" class="edge">
<title>Node28&#45;&gt;Node23</title>
<path fill="none" stroke="#191970" d="M1195.0883,-414.3733C1166.1548,-405.0613 1122.1389,-390.8953 1090.3707,-380.671"/>
<polygon fill="#191970" stroke="#191970" points="1091.1128,-377.2331 1080.5213,-377.5011 1088.9682,-383.8965 1091.1128,-377.2331"/>
</g>
<!-- Node29 -->
<g id="node30" class="node">
<title>Node29</title>
<g id="a_node30"><a xlink:href="../../df/d26/CRU_8h.html" target="_top" xlink:title="TPCBase/CRU.h">
<polygon fill="none" stroke="#000000" points="1207,-358.5 1207,-377.5 1299,-377.5 1299,-358.5 1207,-358.5"/>
<text text-anchor="middle" x="1253" y="-365.5" font-family="Helvetica,sans-Serif" font-size="10.00" fill="#000000">TPCBase/CRU.h</text>
</a>
</g>
</g>
<!-- Node28&#45;&gt;Node29 -->
<g id="edge38" class="edge">
<title>Node28&#45;&gt;Node29</title>
<path fill="none" stroke="#191970" d="M1229.8772,-414.2455C1233.6513,-406.6973 1238.9921,-396.0158 1243.5901,-386.8197"/>
<polygon fill="#191970" stroke="#191970" points="1246.837,-388.1522 1248.1787,-377.6427 1240.576,-385.0217 1246.837,-388.1522"/>
</g>
<!-- Node29&#45;&gt;Node8 -->
<g id="edge39" class="edge">
<title>Node29&#45;&gt;Node8</title>
<path fill="none" stroke="#191970" d="M1252.3771,-358.4862C1250.6382,-331.9293 1245.7037,-256.5651 1243.3204,-220.1655"/>
<polygon fill="#191970" stroke="#191970" points="1246.7895,-219.5778 1242.6435,-209.8279 1239.8044,-220.0352 1246.7895,-219.5778"/>
</g>
<!-- Node29&#45;&gt;Node24 -->
<g id="edge40" class="edge">
<title>Node29&#45;&gt;Node24</title>
<path fill="none" stroke="#191970" d="M1243.7339,-358.1367C1231.0188,-344.8099 1207.2051,-320.5834 1185,-302 1171.9963,-291.1173 1156.5853,-279.9917 1144.1447,-271.4084"/>
<polygon fill="#191970" stroke="#191970" points="1145.923,-268.3849 1135.6878,-265.6476 1141.982,-274.1701 1145.923,-268.3849"/>
</g>
<!-- Node29&#45;&gt;Node27 -->
<g id="edge41" class="edge">
<title>Node29&#45;&gt;Node27</title>
<path fill="none" stroke="#191970" d="M1263.9738,-358.2455C1273.1882,-350.0549 1286.5532,-338.1749 1297.4297,-328.5069"/>
<polygon fill="#191970" stroke="#191970" points="1300.0032,-330.9023 1305.152,-321.6427 1295.3526,-325.6704 1300.0032,-330.9023"/>
</g>
<!-- Node30&#45;&gt;Node21 -->
<g id="edge45" class="edge">
<title>Node30&#45;&gt;Node21</title>
<path fill="none" stroke="#191970" d="M1577.6023,-246.4248C1531.3955,-217.6904 1393.6797,-132.0499 1337.878,-97.3489"/>
<polygon fill="#191970" stroke="#191970" points="1339.6903,-94.3543 1329.3501,-92.0457 1335.9937,-100.2987 1339.6903,-94.3543"/>
</g>
<!-- Node31&#45;&gt;Node4 -->
<g id="edge47" class="edge">
<title>Node31&#45;&gt;Node4</title>
<path fill="none" stroke="#191970" d="M940.3683,-414.2455C927.6006,-405.7337 908.8562,-393.2375 894.0701,-383.3801"/>
<polygon fill="#191970" stroke="#191970" points="895.726,-380.2775 885.464,-377.6427 891.8431,-386.1019 895.726,-380.2775"/>
</g>
<!-- Node31&#45;&gt;Node8 -->
<g id="edge48" class="edge">
<title>Node31&#45;&gt;Node8</title>
<path fill="none" stroke="#191970" d="M954.4165,-414.1211C954.0156,-400.7766 954.675,-376.5301 963,-358 990.2263,-297.3984 1005.3114,-280.6443 1062,-246 1081.9156,-233.8289 1136.8424,-220.7174 1180.8289,-211.6188"/>
<polygon fill="#191970" stroke="#191970" points="1181.7879,-214.9954 1190.887,-209.568 1180.3893,-208.1365 1181.7879,-214.9954"/>
</g>
<!-- Node31&#45;&gt;Node22 -->
<g id="edge49" class="edge">
<title>Node31&#45;&gt;Node22</title>
<path fill="none" stroke="#191970" d="M956.1674,-414.4918C958.4164,-400.2329 964.6673,-373.3503 981,-358 1002.4426,-337.8471 1032.802,-326.522 1059.9487,-320.1583"/>
<polygon fill="#191970" stroke="#191970" points="1060.7484,-323.5663 1069.7823,-318.0311 1059.2683,-316.7246 1060.7484,-323.5663"/>
</g>
</g>
</svg>
        <g id="navigator" transform="translate(0 0)" fill="#404254">
                <rect fill="#f2f5e9" fill-opacity="0.5" stroke="#606060" stroke-width=".5" x="0" y="0" width="60" height="60"/>
                <use id="zoomplus" xlink:href="#zoomPlus" x="17" y="9" onmousedown="handleZoom(evt,'in')"/>
                <use id="zoomminus" xlink:href="#zoomMin" x="42" y="9" onmousedown="handleZoom(evt,'out')"/>
                <use id="reset" xlink:href="#resetDef" x="30" y="36" onmousedown="handleReset()"/>
                <g id="arrowUp" xlink:href="#dirArrow" transform="translate(30 24)" onmousedown="handlePan(0,-1)">
                  <use xlink:href="#rim" fill="#404040">
                        <set attributeName="fill" to="#808080" begin="arrowUp.mouseover" end="arrowUp.mouseout"/>
                  </use>
                  <path fill="none" stroke="white" stroke-width="1.5" d="M0,-3.0v7 M-2.5,-0.5L0,-3.0L2.5,-0.5"/>
                </g>
                <g id="arrowRight" xlink:href="#dirArrow" transform="rotate(90) translate(36 -43)" onmousedown="handlePan(1,0)">
                  <use xlink:href="#rim" fill="#404040">
                        <set attributeName="fill" to="#808080" begin="arrowRight.mouseover" end="arrowRight.mouseout"/>
                  </use>
                  <path fill="none" stroke="white" stroke-width="1.5" d="M0,-3.0v7 M-2.5,-0.5L0,-3.0L2.5,-0.5"/>
                </g>
                <g id="arrowDown" xlink:href="#dirArrow" transform="rotate(180) translate(-30 -48)" onmousedown="handlePan(0,1)">
                  <use xlink:href="#rim" fill="#404040">
                        <set attributeName="fill" to="#808080" begin="arrowDown.mouseover" end="arrowDown.mouseout"/>
                  </use>
                  <path fill="none" stroke="white" stroke-width="1.5" d="M0,-3.0v7 M-2.5,-0.5L0,-3.0L2.5,-0.5"/>
                </g>
                <g id="arrowLeft" xlink:href="#dirArrow" transform="rotate(270) translate(-36 17)" onmousedown="handlePan(-1,0)">
                  <use xlink:href="#rim" fill="#404040">
                        <set attributeName="fill" to="#808080" begin="arrowLeft.mouseover" end="arrowLeft.mouseout"/>
                  </use>
                  <path fill="none" stroke="white" stroke-width="1.5" d="M0,-3.0v7 M-2.5,-0.5L0,-3.0L2.5,-0.5"/>
                </g>
        </g>
        <svg viewBox="0 0 15 15" width="100%" height="30px" preserveAspectRatio="xMaxYMin meet">
         <g id="arrow_out" transform="scale(0.3 0.3)">
          <a xlink:href="TPC_2simulation_2include_2TPCSimulation_2PadResponse_8h__incl_org.svg" target="_base">
           <rect id="button" ry="5" rx="5" y="6" x="6" height="38" width="38"
                fill="#f2f5e9" fill-opacity="0.5" stroke="#606060" stroke-width="1.0"/>
           <path id="arrow"
             d="M 11.500037,31.436501 C 11.940474,20.09759 22.043105,11.32322 32.158766,21.979434 L 37.068811,17.246167 C 37.068811,17.246167 37.088388,32 37.088388,32 L 22.160133,31.978069 C 22.160133,31.978069 26.997745,27.140456 26.997745,27.140456 C 18.528582,18.264221 13.291696,25.230495 11.500037,31.436501 z"
             style="fill:#404040;"/>
          </a>
         </g>
        </svg>
</svg>
