<?xml version="1.0" encoding="UTF-8" standalone="no"?>
<!DOCTYPE svg PUBLIC "-//W3C//DTD SVG 1.1//EN"
 "http://www.w3.org/Graphics/SVG/1.1/DTD/svg11.dtd">
<!-- Generated by graphviz version 2.40.1 (20161225.0304)
 -->
<!-- Title: /home/travis/build/AliceO2Group/AliceO2/Framework/Core/src/FairOptionsRetriever.cxx Pages: 1 -->
<svg width="1296pt" height="363pt"
 viewBox="0.00 0.00 1295.50 363.00" xmlns="http://www.w3.org/2000/svg" xmlns:xlink="http://www.w3.org/1999/xlink">
<g id="graph0" class="graph" transform="scale(1 1) rotate(0) translate(4 359)">
<title>/home/travis/build/AliceO2Group/AliceO2/Framework/Core/src/FairOptionsRetriever.cxx</title>
<!-- Node0 -->
<g id="node1" class="node">
<title>Node0</title>
<polygon fill="#bfbfbf" stroke="#000000" points="748.5,-302.5 748.5,-354.5 922.5,-354.5 922.5,-302.5 748.5,-302.5"/>
<text text-anchor="start" x="756.5" y="-342.5" font-family="Helvetica,sans-Serif" font-size="10.00" fill="#000000">/home/travis/build</text>
<text text-anchor="start" x="756.5" y="-331.5" font-family="Helvetica,sans-Serif" font-size="10.00" fill="#000000">/AliceO2Group/AliceO2</text>
<text text-anchor="start" x="756.5" y="-320.5" font-family="Helvetica,sans-Serif" font-size="10.00" fill="#000000">/Framework/Core/src/FairOptions</text>
<text text-anchor="middle" x="835.5" y="-309.5" font-family="Helvetica,sans-Serif" font-size="10.00" fill="#000000">Retriever.cxx</text>
</g>
<!-- Node1 -->
<g id="node2" class="node">
<title>Node1</title>
<g id="a_node2"><a xlink:href="../../de/de3/FairOptionsRetriever_8h.html" target="_top" xlink:title="Framework/FairOptionsRetriever.h">
<polygon fill="none" stroke="#000000" points="654,-246.5 654,-265.5 835,-265.5 835,-246.5 654,-246.5"/>
<text text-anchor="middle" x="744.5" y="-253.5" font-family="Helvetica,sans-Serif" font-size="10.00" fill="#000000">Framework/FairOptionsRetriever.h</text>
</a>
</g>
</g>
<!-- Node0&#45;&gt;Node1 -->
<g id="edge1" class="edge">
<title>Node0&#45;&gt;Node1</title>
<path fill="none" stroke="#191970" d="M802.6469,-302.3258C789.8272,-292.1123 775.5524,-280.7396 764.3548,-271.8184"/>
<polygon fill="#191970" stroke="#191970" points="766.469,-269.0278 756.4668,-265.534 762.1071,-274.5027 766.469,-269.0278"/>
</g>
<!-- Node3 -->
<g id="node4" class="node">
<title>Node3</title>
<g id="a_node4"><a xlink:href="../../d0/d1c/ConfigParamSpec_8h.html" target="_top" xlink:title="Framework/ConfigParamSpec.h">
<polygon fill="none" stroke="#000000" points="484,-118 484,-137 651,-137 651,-118 484,-118"/>
<text text-anchor="middle" x="567.5" y="-125" font-family="Helvetica,sans-Serif" font-size="10.00" fill="#000000">Framework/ConfigParamSpec.h</text>
</a>
</g>
</g>
<!-- Node0&#45;&gt;Node3 -->
<g id="edge22" class="edge">
<title>Node0&#45;&gt;Node3</title>
<path fill="none" stroke="#191970" d="M748.3403,-315.4998C640.6415,-297.4474 466.8728,-261.1386 428.5,-210 402.3431,-175.1413 459.0764,-152.2149 507.7563,-139.572"/>
<polygon fill="#191970" stroke="#191970" points="508.814,-142.9156 517.6731,-137.1048 507.1239,-136.1227 508.814,-142.9156"/>
</g>
<!-- Node13 -->
<g id="node14" class="node">
<title>Node13</title>
<polygon fill="none" stroke="#bfbfbf" points="852.5,-.5 852.5,-19.5 896.5,-19.5 896.5,-.5 852.5,-.5"/>
<text text-anchor="middle" x="874.5" y="-7.5" font-family="Helvetica,sans-Serif" font-size="10.00" fill="#000000">string</text>
</g>
<!-- Node0&#45;&gt;Node13 -->
<g id="edge31" class="edge">
<title>Node0&#45;&gt;Node13</title>
<path fill="none" stroke="#191970" d="M870.3271,-302.2946C898.4951,-277.8481 933.5,-238.597 933.5,-194.5 933.5,-194.5 933.5,-194.5 933.5,-127.5 933.5,-88.4059 907.0934,-49.0308 889.6126,-27.248"/>
<polygon fill="#191970" stroke="#191970" points="892.2913,-24.9952 883.2057,-19.5452 886.9096,-29.4715 892.2913,-24.9952"/>
</g>
<!-- Node15 -->
<g id="node16" class="node">
<title>Node15</title>
<polygon fill="none" stroke="#bfbfbf" points="858,-118 858,-137 905,-137 905,-118 858,-118"/>
<text text-anchor="middle" x="881.5" y="-125" font-family="Helvetica,sans-Serif" font-size="10.00" fill="#000000">vector</text>
</g>
<!-- Node0&#45;&gt;Node15 -->
<g id="edge32" class="edge">
<title>Node0&#45;&gt;Node15</title>
<path fill="none" stroke="#191970" d="M841.5137,-302.2228C850.8714,-261.3336 868.705,-183.4085 877.0218,-147.0677"/>
<polygon fill="#191970" stroke="#191970" points="880.4583,-147.7404 879.2774,-137.2116 873.6347,-146.1788 880.4583,-147.7404"/>
</g>
<!-- Node17 -->
<g id="node18" class="node">
<title>Node17</title>
<g id="a_node18"><a xlink:href="../../da/d3e/PropertyTreeHelpers_8h.html" target="_top" xlink:title="PropertyTreeHelpers.h">
<polygon fill="none" stroke="#000000" points="216,-246.5 216,-265.5 341,-265.5 341,-246.5 216,-246.5"/>
<text text-anchor="middle" x="278.5" y="-253.5" font-family="Helvetica,sans-Serif" font-size="10.00" fill="#000000">PropertyTreeHelpers.h</text>
</a>
</g>
</g>
<!-- Node0&#45;&gt;Node17 -->
<g id="edge23" class="edge">
<title>Node0&#45;&gt;Node17</title>
<path fill="none" stroke="#191970" d="M748.4688,-317.1719C639.0565,-302.9306 453.2283,-278.7429 351.096,-265.4492"/>
<polygon fill="#191970" stroke="#191970" points="351.5456,-261.9783 341.1774,-264.1582 350.642,-268.9197 351.5456,-261.9783"/>
</g>
<!-- Node18 -->
<g id="node19" class="node">
<title>Node18</title>
<polygon fill="none" stroke="#bfbfbf" points="0,-179.5 0,-209.5 113,-209.5 113,-179.5 0,-179.5"/>
<text text-anchor="start" x="8" y="-197.5" font-family="Helvetica,sans-Serif" font-size="10.00" fill="#000000">boost/property_tree</text>
<text text-anchor="middle" x="56.5" y="-186.5" font-family="Helvetica,sans-Serif" font-size="10.00" fill="#000000">/ptree.hpp</text>
</g>
<!-- Node0&#45;&gt;Node18 -->
<g id="edge30" class="edge">
<title>Node0&#45;&gt;Node18</title>
<path fill="none" stroke="#191970" d="M748.4449,-323.5677C600.4592,-314.563 306.1948,-293.7979 206.5,-266 164.4993,-254.2889 119.8071,-231.4834 90.2419,-214.7658"/>
<polygon fill="#191970" stroke="#191970" points="91.6121,-211.5167 81.1969,-209.5738 88.1272,-217.5876 91.6121,-211.5167"/>
</g>
<!-- Node21 -->
<g id="node22" class="node">
<title>Node21</title>
<polygon fill="none" stroke="#bfbfbf" points="962,-246.5 962,-265.5 1119,-265.5 1119,-246.5 962,-246.5"/>
<text text-anchor="middle" x="1040.5" y="-253.5" font-family="Helvetica,sans-Serif" font-size="10.00" fill="#000000">options/FairMQProgOptions.h</text>
</g>
<!-- Node0&#45;&gt;Node21 -->
<g id="edge28" class="edge">
<title>Node0&#45;&gt;Node21</title>
<path fill="none" stroke="#191970" d="M909.2201,-302.4283C941.3841,-291.0532 977.6623,-278.2231 1003.9183,-268.9374"/>
<polygon fill="#191970" stroke="#191970" points="1005.2002,-272.1966 1013.461,-265.5626 1002.8662,-265.5971 1005.2002,-272.1966"/>
</g>
<!-- Node22 -->
<g id="node23" class="node">
<title>Node22</title>
<polygon fill="none" stroke="#bfbfbf" points="1137.5,-246.5 1137.5,-265.5 1287.5,-265.5 1287.5,-246.5 1137.5,-246.5"/>
<text text-anchor="middle" x="1212.5" y="-253.5" font-family="Helvetica,sans-Serif" font-size="10.00" fill="#000000">boost/program_options.hpp</text>
</g>
<!-- Node0&#45;&gt;Node22 -->
<g id="edge29" class="edge">
<title>Node0&#45;&gt;Node22</title>
<path fill="none" stroke="#191970" d="M922.939,-311.6848C993.6135,-298.0936 1091.1977,-279.3274 1153.0769,-267.4275"/>
<polygon fill="#191970" stroke="#191970" points="1153.9095,-270.8316 1163.0686,-265.506 1152.5875,-263.9576 1153.9095,-270.8316"/>
</g>
<!-- Node2 -->
<g id="node3" class="node">
<title>Node2</title>
<g id="a_node3"><a xlink:href="../../df/d72/ParamRetriever_8h.html" target="_top" xlink:title="Framework/ParamRetriever.h">
<polygon fill="none" stroke="#000000" points="634,-185 634,-204 791,-204 791,-185 634,-185"/>
<text text-anchor="middle" x="712.5" y="-192" font-family="Helvetica,sans-Serif" font-size="10.00" fill="#000000">Framework/ParamRetriever.h</text>
</a>
</g>
</g>
<!-- Node1&#45;&gt;Node2 -->
<g id="edge2" class="edge">
<title>Node1&#45;&gt;Node2</title>
<path fill="none" stroke="#191970" d="M739.5,-246.3906C734.9242,-237.5965 728.0219,-224.3312 722.3417,-213.4145"/>
<polygon fill="#191970" stroke="#191970" points="725.2912,-211.5003 717.5705,-204.2449 719.0815,-214.7314 725.2912,-211.5003"/>
</g>
<!-- Node1&#45;&gt;Node3 -->
<g id="edge18" class="edge">
<title>Node1&#45;&gt;Node3</title>
<path fill="none" stroke="#191970" d="M702.1951,-246.4832C677.6577,-239.4165 647.2166,-227.8546 624.5,-210 602.5575,-192.7539 585.744,-164.7549 576.2406,-146.2336"/>
<polygon fill="#191970" stroke="#191970" points="579.2782,-144.479 571.7268,-137.0475 572.9956,-147.566 579.2782,-144.479"/>
</g>
<!-- Node14 -->
<g id="node15" class="node">
<title>Node14</title>
<polygon fill="none" stroke="#bfbfbf" points="727,-112.5 727,-142.5 840,-142.5 840,-112.5 727,-112.5"/>
<text text-anchor="start" x="735" y="-130.5" font-family="Helvetica,sans-Serif" font-size="10.00" fill="#000000">boost/property_tree</text>
<text text-anchor="middle" x="783.5" y="-119.5" font-family="Helvetica,sans-Serif" font-size="10.00" fill="#000000">/ptree_fwd.hpp</text>
</g>
<!-- Node1&#45;&gt;Node14 -->
<g id="edge19" class="edge">
<title>Node1&#45;&gt;Node14</title>
<path fill="none" stroke="#191970" d="M763.3824,-246.3676C776.47,-238.5389 792.8649,-226.1524 800.5,-210 809.1722,-191.6535 803.4479,-168.9563 796.3863,-152.0156"/>
<polygon fill="#191970" stroke="#191970" points="799.5086,-150.427 792.1727,-142.7827 793.1404,-153.3333 799.5086,-150.427"/>
</g>
<!-- Node1&#45;&gt;Node15 -->
<g id="edge21" class="edge">
<title>Node1&#45;&gt;Node15</title>
<path fill="none" stroke="#191970" d="M763.1351,-246.3857C778.416,-237.9863 800.1192,-224.8376 816.5,-210 837.8233,-190.6855 857.5534,-163.8403 869.5542,-146.0842"/>
<polygon fill="#191970" stroke="#191970" points="872.7923,-147.5326 875.3871,-137.2604 866.9529,-143.6724 872.7923,-147.5326"/>
</g>
<!-- Node16 -->
<g id="node17" class="node">
<title>Node16</title>
<polygon fill="none" stroke="#bfbfbf" points="437.5,-185 437.5,-204 577.5,-204 577.5,-185 437.5,-185"/>
<text text-anchor="middle" x="507.5" y="-192" font-family="Helvetica,sans-Serif" font-size="10.00" fill="#000000">fairmq/ProgOptionsFwd.h</text>
</g>
<!-- Node1&#45;&gt;Node16 -->
<g id="edge20" class="edge">
<title>Node1&#45;&gt;Node16</title>
<path fill="none" stroke="#191970" d="M707.7288,-246.4581C666.3894,-235.7308 599.1767,-218.2895 554.1678,-206.61"/>
<polygon fill="#191970" stroke="#191970" points="554.916,-203.1883 544.3575,-204.0643 553.1578,-209.9639 554.916,-203.1883"/>
</g>
<!-- Node2&#45;&gt;Node3 -->
<g id="edge3" class="edge">
<title>Node2&#45;&gt;Node3</title>
<path fill="none" stroke="#191970" d="M691.725,-184.9005C667.0677,-173.5072 625.7549,-154.4178 597.5982,-141.4075"/>
<polygon fill="#191970" stroke="#191970" points="598.7823,-138.099 588.2364,-137.0817 595.8461,-144.4535 598.7823,-138.099"/>
</g>
<!-- Node2&#45;&gt;Node13 -->
<g id="edge16" class="edge">
<title>Node2&#45;&gt;Node13</title>
<path fill="none" stroke="#191970" d="M710.603,-184.794C707.9533,-168.4951 704.8741,-135.1409 718.5,-112 746.3394,-64.7203 805.7365,-35.3243 842.6747,-20.8632"/>
<polygon fill="#191970" stroke="#191970" points="844.3296,-23.9798 852.4527,-17.1779 841.8609,-17.4296 844.3296,-23.9798"/>
</g>
<!-- Node2&#45;&gt;Node14 -->
<g id="edge15" class="edge">
<title>Node2&#45;&gt;Node14</title>
<path fill="none" stroke="#191970" d="M722.6726,-184.9005C732.3892,-175.7313 747.3879,-161.5776 760.06,-149.6195"/>
<polygon fill="#191970" stroke="#191970" points="762.7106,-151.9306 767.5814,-142.5218 757.9063,-146.8395 762.7106,-151.9306"/>
</g>
<!-- Node2&#45;&gt;Node15 -->
<g id="edge17" class="edge">
<title>Node2&#45;&gt;Node15</title>
<path fill="none" stroke="#191970" d="M740.0858,-184.9682C767.9633,-175.1404 812.1385,-159.031 849.5,-143 850.6807,-142.4934 851.8808,-141.9667 853.0896,-141.4266"/>
<polygon fill="#191970" stroke="#191970" points="854.7442,-144.5173 862.3409,-137.1322 851.7968,-138.168 854.7442,-144.5173"/>
</g>
<!-- Node4 -->
<g id="node5" class="node">
<title>Node4</title>
<g id="a_node5"><a xlink:href="../../de/d56/Variant_8h.html" target="_top" xlink:title="Framework/Variant.h">
<polygon fill="none" stroke="#000000" points="488,-56.5 488,-75.5 605,-75.5 605,-56.5 488,-56.5"/>
<text text-anchor="middle" x="546.5" y="-63.5" font-family="Helvetica,sans-Serif" font-size="10.00" fill="#000000">Framework/Variant.h</text>
</a>
</g>
</g>
<!-- Node3&#45;&gt;Node4 -->
<g id="edge4" class="edge">
<title>Node3&#45;&gt;Node4</title>
<path fill="none" stroke="#191970" d="M564.2188,-117.8906C561.2465,-109.1862 556.7786,-96.1015 553.073,-85.2494"/>
<polygon fill="#191970" stroke="#191970" points="556.3712,-84.0773 549.8275,-75.7449 549.7468,-86.3394 556.3712,-84.0773"/>
</g>
<!-- Node3&#45;&gt;Node13 -->
<g id="edge14" class="edge">
<title>Node3&#45;&gt;Node13</title>
<path fill="none" stroke="#191970" d="M580.0905,-117.8737C600.7644,-102.5275 643.6943,-72.5641 684.5,-56 748.7503,-29.9191 771.6461,-38.3175 842.3938,-20.0739"/>
<polygon fill="#191970" stroke="#191970" points="843.462,-23.4113 852.2205,-17.4499 841.656,-16.6483 843.462,-23.4113"/>
</g>
<!-- Node5 -->
<g id="node6" class="node">
<title>Node5</title>
<g id="a_node6"><a xlink:href="../../d1/d76/RuntimeError_8h.html" target="_top" xlink:title="Framework/RuntimeError.h">
<polygon fill="none" stroke="#000000" points="532.5,-.5 532.5,-19.5 678.5,-19.5 678.5,-.5 532.5,-.5"/>
<text text-anchor="middle" x="605.5" y="-7.5" font-family="Helvetica,sans-Serif" font-size="10.00" fill="#000000">Framework/RuntimeError.h</text>
</a>
</g>
</g>
<!-- Node4&#45;&gt;Node5 -->
<g id="edge5" class="edge">
<title>Node4&#45;&gt;Node5</title>
<path fill="none" stroke="#191970" d="M556.777,-56.2455C565.3218,-48.1352 577.6778,-36.4075 587.8085,-26.7919"/>
<polygon fill="#191970" stroke="#191970" points="590.4972,-29.0655 595.3408,-19.6427 585.6782,-23.9884 590.4972,-29.0655"/>
</g>
<!-- Node6 -->
<g id="node7" class="node">
<title>Node6</title>
<polygon fill="none" stroke="#bfbfbf" points="697,-.5 697,-19.5 766,-19.5 766,-.5 697,-.5"/>
<text text-anchor="middle" x="731.5" y="-7.5" font-family="Helvetica,sans-Serif" font-size="10.00" fill="#000000">type_traits</text>
</g>
<!-- Node4&#45;&gt;Node6 -->
<g id="edge6" class="edge">
<title>Node4&#45;&gt;Node6</title>
<path fill="none" stroke="#191970" d="M578.3026,-56.3733C609.3317,-46.9807 656.6754,-32.6496 690.5147,-22.4064"/>
<polygon fill="#191970" stroke="#191970" points="691.5553,-25.7483 700.1124,-19.5011 689.5272,-19.0485 691.5553,-25.7483"/>
</g>
<!-- Node7 -->
<g id="node8" class="node">
<title>Node7</title>
<polygon fill="none" stroke="#bfbfbf" points="784.5,-.5 784.5,-19.5 834.5,-19.5 834.5,-.5 784.5,-.5"/>
<text text-anchor="middle" x="809.5" y="-7.5" font-family="Helvetica,sans-Serif" font-size="10.00" fill="#000000">cstring</text>
</g>
<!-- Node4&#45;&gt;Node7 -->
<g id="edge7" class="edge">
<title>Node4&#45;&gt;Node7</title>
<path fill="none" stroke="#191970" d="M600.933,-56.458C645.2452,-48.3748 709.5918,-35.9237 774.3435,-20.1328"/>
<polygon fill="#191970" stroke="#191970" points="775.4443,-23.4663 784.3161,-17.6747 773.769,-16.6697 775.4443,-23.4663"/>
</g>
<!-- Node8 -->
<g id="node9" class="node">
<title>Node8</title>
<polygon fill="none" stroke="#bfbfbf" points="137.5,-.5 137.5,-19.5 187.5,-19.5 187.5,-.5 137.5,-.5"/>
<text text-anchor="middle" x="162.5" y="-7.5" font-family="Helvetica,sans-Serif" font-size="10.00" fill="#000000">cstdint</text>
</g>
<!-- Node4&#45;&gt;Node8 -->
<g id="edge8" class="edge">
<title>Node4&#45;&gt;Node8</title>
<path fill="none" stroke="#191970" d="M487.8167,-61.0964C420.0239,-54.8061 305.0579,-42.2176 197.6732,-19.9784"/>
<polygon fill="#191970" stroke="#191970" points="198.1462,-16.5013 187.6398,-17.8672 196.7049,-23.3513 198.1462,-16.5013"/>
</g>
<!-- Node9 -->
<g id="node10" class="node">
<title>Node9</title>
<polygon fill="none" stroke="#bfbfbf" points="206,-.5 206,-19.5 255,-19.5 255,-.5 206,-.5"/>
<text text-anchor="middle" x="230.5" y="-7.5" font-family="Helvetica,sans-Serif" font-size="10.00" fill="#000000">cstdlib</text>
</g>
<!-- Node4&#45;&gt;Node9 -->
<g id="edge9" class="edge">
<title>Node4&#45;&gt;Node9</title>
<path fill="none" stroke="#191970" d="M487.792,-58.7787C432.493,-51.4541 347.221,-38.8168 265.2488,-20.1934"/>
<polygon fill="#191970" stroke="#191970" points="265.8015,-16.7291 255.2708,-17.8926 264.2286,-23.5501 265.8015,-16.7291"/>
</g>
<!-- Node10 -->
<g id="node11" class="node">
<title>Node10</title>
<polygon fill="none" stroke="#bfbfbf" points="273,-.5 273,-19.5 322,-19.5 322,-.5 273,-.5"/>
<text text-anchor="middle" x="297.5" y="-7.5" font-family="Helvetica,sans-Serif" font-size="10.00" fill="#000000">iosfwd</text>
</g>
<!-- Node4&#45;&gt;Node10 -->
<g id="edge10" class="edge">
<title>Node4&#45;&gt;Node10</title>
<path fill="none" stroke="#191970" d="M495.5916,-56.4188C453.8731,-48.2825 393.1206,-35.7868 332.0964,-20.2762"/>
<polygon fill="#191970" stroke="#191970" points="332.8593,-16.8586 322.3029,-17.7611 331.118,-23.6386 332.8593,-16.8586"/>
</g>
<!-- Node11 -->
<g id="node12" class="node">
<title>Node11</title>
<polygon fill="none" stroke="#bfbfbf" points="340,-.5 340,-19.5 423,-19.5 423,-.5 340,-.5"/>
<text text-anchor="middle" x="381.5" y="-7.5" font-family="Helvetica,sans-Serif" font-size="10.00" fill="#000000">initializer_list</text>
</g>
<!-- Node4&#45;&gt;Node11 -->
<g id="edge11" class="edge">
<title>Node4&#45;&gt;Node11</title>
<path fill="none" stroke="#191970" d="M518.1355,-56.3733C490.8173,-47.1016 449.3204,-33.0178 419.2262,-22.804"/>
<polygon fill="#191970" stroke="#191970" points="420.0887,-19.4008 409.4944,-19.5011 417.839,-26.0294 420.0887,-19.4008"/>
</g>
<!-- Node12 -->
<g id="node13" class="node">
<title>Node12</title>
<polygon fill="none" stroke="#bfbfbf" points="441,-.5 441,-19.5 514,-19.5 514,-.5 441,-.5"/>
<text text-anchor="middle" x="477.5" y="-7.5" font-family="Helvetica,sans-Serif" font-size="10.00" fill="#000000">string_view</text>
</g>
<!-- Node4&#45;&gt;Node12 -->
<g id="edge12" class="edge">
<title>Node4&#45;&gt;Node12</title>
<path fill="none" stroke="#191970" d="M534.4811,-56.2455C524.2902,-47.9746 509.4638,-35.9416 497.4893,-26.2232"/>
<polygon fill="#191970" stroke="#191970" points="499.3514,-23.2268 489.3812,-19.6427 494.9402,-28.662 499.3514,-23.2268"/>
</g>
<!-- Node4&#45;&gt;Node13 -->
<g id="edge13" class="edge">
<title>Node4&#45;&gt;Node13</title>
<path fill="none" stroke="#191970" d="M605.0759,-59.7058C663.1861,-52.8384 754.8426,-40.3302 842.4365,-19.9612"/>
<polygon fill="#191970" stroke="#191970" points="843.3416,-23.3437 852.2683,-17.6372 841.7313,-16.5314 843.3416,-23.3437"/>
</g>
<!-- Node17&#45;&gt;Node3 -->
<g id="edge24" class="edge">
<title>Node17&#45;&gt;Node3</title>
<path fill="none" stroke="#191970" d="M294.3139,-246.3605C309.202,-237.209 332.0564,-222.9631 351.5,-210 371.4037,-196.7301 373.9843,-189.4556 395.5,-179 432.4997,-161.0199 477.0619,-147.8913 511.5564,-139.3906"/>
<polygon fill="#191970" stroke="#191970" points="512.5562,-142.75 521.4603,-137.0083 510.919,-135.9442 512.5562,-142.75"/>
</g>
<!-- Node17&#45;&gt;Node18 -->
<g id="edge25" class="edge">
<title>Node17&#45;&gt;Node18</title>
<path fill="none" stroke="#191970" d="M243.8125,-246.3906C210.916,-237.2774 160.6873,-223.3627 120.5219,-212.2358"/>
<polygon fill="#191970" stroke="#191970" points="121.3788,-208.8414 110.8073,-209.5446 119.5099,-215.5874 121.3788,-208.8414"/>
</g>
<!-- Node19 -->
<g id="node20" class="node">
<title>Node19</title>
<polygon fill="none" stroke="#bfbfbf" points="214,-179.5 214,-209.5 343,-209.5 343,-179.5 214,-179.5"/>
<text text-anchor="start" x="222" y="-197.5" font-family="Helvetica,sans-Serif" font-size="10.00" fill="#000000">boost/program_options</text>
<text text-anchor="middle" x="278.5" y="-186.5" font-family="Helvetica,sans-Serif" font-size="10.00" fill="#000000">/variables_map.hpp</text>
</g>
<!-- Node17&#45;&gt;Node19 -->
<g id="edge26" class="edge">
<title>Node17&#45;&gt;Node19</title>
<path fill="none" stroke="#191970" d="M278.5,-246.3906C278.5,-239.2234 278.5,-229.0862 278.5,-219.671"/>
<polygon fill="#191970" stroke="#191970" points="282.0001,-219.5446 278.5,-209.5446 275.0001,-219.5446 282.0001,-219.5446"/>
</g>
<!-- Node20 -->
<g id="node21" class="node">
<title>Node20</title>
<polygon fill="none" stroke="#bfbfbf" points="131,-185 131,-204 196,-204 196,-185 131,-185"/>
<text text-anchor="middle" x="163.5" y="-192" font-family="Helvetica,sans-Serif" font-size="10.00" fill="#000000">functional</text>
</g>
<!-- Node17&#45;&gt;Node20 -->
<g id="edge27" class="edge">
<title>Node17&#45;&gt;Node20</title>
<path fill="none" stroke="#191970" d="M260.5313,-246.3906C241.7116,-236.3262 211.9415,-220.4057 190.3359,-208.8514"/>
<polygon fill="#191970" stroke="#191970" points="191.8114,-205.6714 181.3426,-204.0419 188.5102,-211.8442 191.8114,-205.6714"/>
</g>
</g>
</svg>
