<?xml version="1.0" encoding="UTF-8" standalone="no"?>
<!DOCTYPE svg PUBLIC "-//W3C//DTD SVG 1.1//EN"
 "http://www.w3.org/Graphics/SVG/1.1/DTD/svg11.dtd">
<!-- Generated by graphviz version 2.40.1 (20161225.0304)
 -->
<!-- Title: /home/travis/build/AliceO2Group/AliceO2/Detectors/TPC/base/include/TPCBase/CalArray.h Pages: 1 -->
<!--zoomable 587 -->
<svg id="main" version="1.1" xmlns="http://www.w3.org/2000/svg" xmlns:xlink="http://www.w3.org/1999/xlink" xml:space="preserve" onload="init(evt)">
<style type="text/css"><![CDATA[
.edge:hover path { stroke: red; }
.edge:hover polygon { stroke: red; fill: red; }
]]></style>
<script type="text/javascript"><![CDATA[
var edges = document.getElementsByTagName('g');
if (edges && edges.length) {
  for (var i=0;i<edges.length;i++) {
    if (edges[i].id.substr(0,4)=='edge') {
      edges[i].setAttribute('class','edge');
    }
  }
}
]]></script>
        <defs>
                <circle id="rim" cx="0" cy="0" r="7"/>
                <circle id="rim2" cx="0" cy="0" r="3.5"/>
                <g id="zoomPlus">
                        <use xlink:href="#rim" fill="#404040">
                                <set attributeName="fill" to="#808080" begin="zoomplus.mouseover" end="zoomplus.mouseout"/>
                        </use>
                        <path d="M-4,0h8M0,-4v8" fill="none" stroke="white" stroke-width="1.5" pointer-events="none"/>
                </g>
                <g id="zoomMin">
                        <use xlink:href="#rim" fill="#404040">
                                <set attributeName="fill" to="#808080" begin="zoomminus.mouseover" end="zoomminus.mouseout"/>
                        </use>
                        <path d="M-4,0h8" fill="none" stroke="white" stroke-width="1.5" pointer-events="none"/>
                </g>
                <g id="dirArrow">
                        <path fill="none" stroke="white" stroke-width="1.5" d="M0,-3.0v7 M-2.5,-0.5L0,-3.0L2.5,-0.5"/>
                </g>
               <g id="resetDef">
                       <use xlink:href="#rim2" fill="#404040">
                               <set attributeName="fill" to="#808080" begin="reset.mouseover" end="reset.mouseout"/>
                       </use>
               </g>
        </defs>

<script type="text/javascript">
var viewWidth = 1707;
var viewHeight = 587;
var sectionId = 'dynsection-0';
</script>
<script xlink:href="../../svgpan.js"/>
<svg id="graph" class="graph">
<g id="viewport">
<title>/home/travis/build/AliceO2Group/AliceO2/Detectors/TPC/base/include/TPCBase/CalArray.h</title>
<!-- Node0 -->
<g id="node1" class="node">
<title>Node0</title>
<polygon fill="#bfbfbf" stroke="#000000" points="811.5,-526.5 811.5,-578.5 964.5,-578.5 964.5,-526.5 811.5,-526.5"/>
<text text-anchor="start" x="819.5" y="-566.5" font-family="Helvetica,sans-Serif" font-size="10.00" fill="#000000">/home/travis/build</text>
<text text-anchor="start" x="819.5" y="-555.5" font-family="Helvetica,sans-Serif" font-size="10.00" fill="#000000">/AliceO2Group/AliceO2</text>
<text text-anchor="start" x="819.5" y="-544.5" font-family="Helvetica,sans-Serif" font-size="10.00" fill="#000000">/Detectors/TPC/base/include</text>
<text text-anchor="middle" x="888" y="-533.5" font-family="Helvetica,sans-Serif" font-size="10.00" fill="#000000">/TPCBase/CalArray.h</text>
</g>
<!-- Node1 -->
<g id="node2" class="node">
<title>Node1</title>
<polygon fill="none" stroke="#bfbfbf" points="406,-470.5 406,-489.5 450,-489.5 450,-470.5 406,-470.5"/>
<text text-anchor="middle" x="428" y="-477.5" font-family="Helvetica,sans-Serif" font-size="10.00" fill="#000000">Vc/Vc</text>
</g>
<!-- Node0&#45;&gt;Node1 -->
<g id="edge1" class="edge">
<title>Node0&#45;&gt;Node1</title>
<path fill="none" stroke="#191970" d="M811.3372,-545.2444C727.1438,-536.3969 587.9852,-519.186 460.1896,-489.9696"/>
<polygon fill="#191970" stroke="#191970" points="460.7578,-486.5086 450.2259,-487.6617 459.1781,-493.3281 460.7578,-486.5086"/>
</g>
<!-- Node2 -->
<g id="node3" class="node">
<title>Node2</title>
<polygon fill="none" stroke="#bfbfbf" points="468,-470.5 468,-489.5 526,-489.5 526,-470.5 468,-470.5"/>
<text text-anchor="middle" x="497" y="-477.5" font-family="Helvetica,sans-Serif" font-size="10.00" fill="#000000">memory</text>
</g>
<!-- Node0&#45;&gt;Node2 -->
<g id="edge2" class="edge">
<title>Node0&#45;&gt;Node2</title>
<path fill="none" stroke="#191970" d="M811.4118,-539.895C740.7577,-527.9942 633.0382,-509.1602 540,-490 538.7332,-489.7391 537.4466,-489.4692 536.1482,-489.1925"/>
<polygon fill="#191970" stroke="#191970" points="536.6192,-485.7124 526.1002,-486.9783 535.1127,-492.5484 536.6192,-485.7124"/>
</g>
<!-- Node3 -->
<g id="node4" class="node">
<title>Node3</title>
<polygon fill="none" stroke="#bfbfbf" points="860.5,-358.5 860.5,-377.5 907.5,-377.5 907.5,-358.5 860.5,-358.5"/>
<text text-anchor="middle" x="884" y="-365.5" font-family="Helvetica,sans-Serif" font-size="10.00" fill="#000000">vector</text>
</g>
<!-- Node0&#45;&gt;Node3 -->
<g id="edge3" class="edge">
<title>Node0&#45;&gt;Node3</title>
<path fill="none" stroke="#191970" d="M887.3861,-526.1732C888.3972,-508.1199 892.743,-484.8375 907,-470 951.1546,-424.0478 1077.1168,-465.072 1039,-414 1024.4821,-394.5477 958.8391,-380.3841 917.7738,-373.2413"/>
<polygon fill="#191970" stroke="#191970" points="918.101,-369.7471 907.6584,-371.5367 916.9378,-376.6498 918.101,-369.7471"/>
</g>
<!-- Node4 -->
<g id="node5" class="node">
<title>Node4</title>
<polygon fill="none" stroke="#bfbfbf" points="0,-414.5 0,-433.5 44,-433.5 44,-414.5 0,-414.5"/>
<text text-anchor="middle" x="22" y="-421.5" font-family="Helvetica,sans-Serif" font-size="10.00" fill="#000000">string</text>
</g>
<!-- Node0&#45;&gt;Node4 -->
<g id="edge4" class="edge">
<title>Node0&#45;&gt;Node4</title>
<path fill="none" stroke="#191970" d="M811.252,-543.2868C746.6921,-534.1123 652.6044,-517.3783 574,-490 555.6043,-483.5927 553.7499,-475.282 535,-470 330.362,-412.3522 267.4243,-470.626 58,-434 56.742,-433.78 55.4646,-433.5347 54.1782,-433.2693"/>
<polygon fill="#191970" stroke="#191970" points="54.8517,-429.8319 44.3136,-430.927 53.2345,-436.6426 54.8517,-429.8319"/>
</g>
<!-- Node5 -->
<g id="node6" class="node">
<title>Node5</title>
<polygon fill="none" stroke="#bfbfbf" points="916,-470.5 916,-489.5 972,-489.5 972,-470.5 916,-470.5"/>
<text text-anchor="middle" x="944" y="-477.5" font-family="Helvetica,sans-Serif" font-size="10.00" fill="#000000">numeric</text>
</g>
<!-- Node0&#45;&gt;Node5 -->
<g id="edge5" class="edge">
<title>Node0&#45;&gt;Node5</title>
<path fill="none" stroke="#191970" d="M908.2173,-526.3258C915.565,-516.8132 923.6893,-506.2951 930.3371,-497.6886"/>
<polygon fill="#191970" stroke="#191970" points="933.2928,-499.5876 936.6358,-489.534 927.7529,-495.3085 933.2928,-499.5876"/>
</g>
<!-- Node6 -->
<g id="node7" class="node">
<title>Node6</title>
<polygon fill="none" stroke="#bfbfbf" points="990.5,-470.5 990.5,-489.5 1059.5,-489.5 1059.5,-470.5 990.5,-470.5"/>
<text text-anchor="middle" x="1025" y="-477.5" font-family="Helvetica,sans-Serif" font-size="10.00" fill="#000000">type_traits</text>
</g>
<!-- Node0&#45;&gt;Node6 -->
<g id="edge6" class="edge">
<title>Node0&#45;&gt;Node6</title>
<path fill="none" stroke="#191970" d="M937.4601,-526.3258C957.8955,-515.5115 980.7866,-503.3976 998.0341,-494.2703"/>
<polygon fill="#191970" stroke="#191970" points="999.7825,-497.305 1006.984,-489.534 996.5082,-491.1179 999.7825,-497.305"/>
</g>
<!-- Node7 -->
<g id="node8" class="node">
<title>Node7</title>
<g id="a_node8"><a xlink:href="../../d5/d1d/TPC_2base_2include_2TPCBase_2Mapper_8h.html" target="_top" xlink:title="TPCBase/Mapper.h">
<polygon fill="none" stroke="#000000" points="582.5,-470.5 582.5,-489.5 689.5,-489.5 689.5,-470.5 582.5,-470.5"/>
<text text-anchor="middle" x="636" y="-477.5" font-family="Helvetica,sans-Serif" font-size="10.00" fill="#000000">TPCBase/Mapper.h</text>
</a>
</g>
</g>
<!-- Node0&#45;&gt;Node7 -->
<g id="edge7" class="edge">
<title>Node0&#45;&gt;Node7</title>
<path fill="none" stroke="#191970" d="M811.3653,-530.4523C767.9512,-517.9621 715.2495,-502.8 679.0238,-492.3779"/>
<polygon fill="#191970" stroke="#191970" points="679.8425,-488.9715 669.2646,-489.5702 677.9071,-495.6986 679.8425,-488.9715"/>
</g>
<!-- Node36 -->
<g id="node37" class="node">
<title>Node36</title>
<polygon fill="none" stroke="#bfbfbf" points="1077.5,-470.5 1077.5,-489.5 1152.5,-489.5 1152.5,-470.5 1077.5,-470.5"/>
<text text-anchor="middle" x="1115" y="-477.5" font-family="Helvetica,sans-Serif" font-size="10.00" fill="#000000">FairLogger.h</text>
</g>
<!-- Node0&#45;&gt;Node36 -->
<g id="edge59" class="edge">
<title>Node0&#45;&gt;Node36</title>
<path fill="none" stroke="#191970" d="M964.5354,-528.0559C1001.6557,-516.2003 1044.6977,-502.4534 1075.2126,-492.7074"/>
<polygon fill="#191970" stroke="#191970" points="1076.5931,-495.9408 1085.0542,-489.5642 1074.4634,-489.2726 1076.5931,-495.9408"/>
</g>
<!-- Node37 -->
<g id="node38" class="node">
<title>Node37</title>
<polygon fill="none" stroke="#bfbfbf" points="1170.5,-470.5 1170.5,-489.5 1271.5,-489.5 1271.5,-470.5 1170.5,-470.5"/>
<text text-anchor="middle" x="1221" y="-477.5" font-family="Helvetica,sans-Serif" font-size="10.00" fill="#000000">boost/format.hpp</text>
</g>
<!-- Node0&#45;&gt;Node37 -->
<g id="edge60" class="edge">
<title>Node0&#45;&gt;Node37</title>
<path fill="none" stroke="#191970" d="M964.815,-535.776C1026.8369,-522.2728 1112.524,-503.6171 1167.3578,-491.6789"/>
<polygon fill="#191970" stroke="#191970" points="1168.1982,-495.078 1177.2247,-489.5307 1166.709,-488.2382 1168.1982,-495.078"/>
</g>
<!-- Node7&#45;&gt;Node3 -->
<g id="edge9" class="edge">
<title>Node7&#45;&gt;Node3</title>
<path fill="none" stroke="#191970" d="M689.7853,-473.243C743.5128,-465.621 821.5329,-451.9151 846,-434 861.6234,-422.5604 871.8077,-402.6092 877.6628,-387.629"/>
<polygon fill="#191970" stroke="#191970" points="881.1086,-388.3871 881.177,-377.7925 874.5166,-386.032 881.1086,-388.3871"/>
</g>
<!-- Node7&#45;&gt;Node4 -->
<g id="edge11" class="edge">
<title>Node7&#45;&gt;Node4</title>
<path fill="none" stroke="#191970" d="M582.2263,-471.7092C577.4215,-471.0844 572.6265,-470.5027 568,-470 342.0992,-445.4521 281.9278,-472.6022 58,-434 56.7415,-433.7831 55.4637,-433.5403 54.1769,-433.2771"/>
<polygon fill="#191970" stroke="#191970" points="54.8477,-429.8392 44.3106,-430.9442 53.2369,-436.6514 54.8477,-429.8392"/>
</g>
<!-- Node8 -->
<g id="node9" class="node">
<title>Node8</title>
<polygon fill="none" stroke="#bfbfbf" points="100,-414.5 100,-433.5 138,-433.5 138,-414.5 100,-414.5"/>
<text text-anchor="middle" x="119" y="-421.5" font-family="Helvetica,sans-Serif" font-size="10.00" fill="#000000">map</text>
</g>
<!-- Node7&#45;&gt;Node8 -->
<g id="edge8" class="edge">
<title>Node7&#45;&gt;Node8</title>
<path fill="none" stroke="#191970" d="M582.218,-471.7832C577.4149,-471.1425 572.6226,-470.537 568,-470 384.7397,-448.7095 332.3371,-473.0271 148.1066,-433.7223"/>
<polygon fill="#191970" stroke="#191970" points="148.6039,-430.2489 138.0894,-431.5508 147.1209,-437.09 148.6039,-430.2489"/>
</g>
<!-- Node9 -->
<g id="node10" class="node">
<title>Node9</title>
<polygon fill="none" stroke="#bfbfbf" points="156,-414.5 156,-433.5 198,-433.5 198,-414.5 156,-414.5"/>
<text text-anchor="middle" x="177" y="-421.5" font-family="Helvetica,sans-Serif" font-size="10.00" fill="#000000">array</text>
</g>
<!-- Node7&#45;&gt;Node9 -->
<g id="edge10" class="edge">
<title>Node7&#45;&gt;Node9</title>
<path fill="none" stroke="#191970" d="M582.2087,-471.8602C577.4076,-471.2031 572.6183,-470.5728 568,-470 410.1801,-450.4261 368.1811,-463.9623 212,-434 210.7432,-433.7589 209.4663,-433.4934 208.1802,-433.2088"/>
<polygon fill="#191970" stroke="#191970" points="208.8767,-429.7752 198.3262,-430.7433 207.1776,-436.5659 208.8767,-429.7752"/>
</g>
<!-- Node10 -->
<g id="node11" class="node">
<title>Node10</title>
<polygon fill="none" stroke="#bfbfbf" points="141.5,-134.5 141.5,-153.5 188.5,-153.5 188.5,-134.5 141.5,-134.5"/>
<text text-anchor="middle" x="165" y="-141.5" font-family="Helvetica,sans-Serif" font-size="10.00" fill="#000000">cmath</text>
</g>
<!-- Node7&#45;&gt;Node10 -->
<g id="edge12" class="edge">
<title>Node7&#45;&gt;Node10</title>
<path fill="none" stroke="#191970" d="M582.2237,-471.7335C577.4194,-471.1034 572.6252,-470.514 568,-470 515.1744,-464.1298 132.231,-467.541 91,-434 67.3209,-414.7373 72,-398.5246 72,-368 72,-368 72,-368 72,-256 72,-213.3531 112.4045,-178.267 139.9496,-159.3028"/>
<polygon fill="#191970" stroke="#191970" points="141.9693,-162.1632 148.3735,-153.7229 138.1037,-156.3273 141.9693,-162.1632"/>
</g>
<!-- Node11 -->
<g id="node12" class="node">
<title>Node11</title>
<g id="a_node12"><a xlink:href="../../d1/d73/Defs_8h.html" target="_top" xlink:title="Common definitions for 2D coordinates. ">
<polygon fill="none" stroke="#000000" points="396.5,-190.5 396.5,-209.5 529.5,-209.5 529.5,-190.5 396.5,-190.5"/>
<text text-anchor="middle" x="463" y="-197.5" font-family="Helvetica,sans-Serif" font-size="10.00" fill="#000000">DataFormatsTPC/Defs.h</text>
</a>
</g>
</g>
<!-- Node7&#45;&gt;Node11 -->
<g id="edge13" class="edge">
<title>Node7&#45;&gt;Node11</title>
<path fill="none" stroke="#191970" d="M582.2795,-471.3318C519.3243,-460.987 418.9116,-443.8545 382,-434 310.4232,-414.8908 267.688,-438.5486 225,-378 202.3135,-345.8216 148.5746,-345.9999 247,-246 257.3127,-235.5223 332.8025,-221.0876 391.6686,-211.1985"/>
<polygon fill="#191970" stroke="#191970" points="392.4122,-214.623 401.7023,-209.5295 391.2635,-207.7179 392.4122,-214.623"/>
</g>
<!-- Node13 -->
<g id="node14" class="node">
<title>Node13</title>
<g id="a_node14"><a xlink:href="../../d2/dd0/Cartesian2D_8h.html" target="_top" xlink:title="MathUtils/Cartesian2D.h">
<polygon fill="none" stroke="#000000" points="373.5,-73 373.5,-92 508.5,-92 508.5,-73 373.5,-73"/>
<text text-anchor="middle" x="441" y="-80" font-family="Helvetica,sans-Serif" font-size="10.00" fill="#000000">MathUtils/Cartesian2D.h</text>
</a>
</g>
</g>
<!-- Node7&#45;&gt;Node13 -->
<g id="edge57" class="edge">
<title>Node7&#45;&gt;Node13</title>
<path fill="none" stroke="#191970" d="M689.5665,-472.0366C734.994,-464.2414 795.4894,-451.0605 813,-434 834.8633,-412.6986 832,-398.5246 832,-368 832,-368 832,-368 832,-200 832,-182.3149 594.2984,-120.7759 489.5672,-94.5201"/>
<polygon fill="#191970" stroke="#191970" points="490.1111,-91.0484 479.5607,-92.0175 488.4126,-97.8393 490.1111,-91.0484"/>
</g>
<!-- Node16 -->
<g id="node17" class="node">
<title>Node16</title>
<g id="a_node17"><a xlink:href="../../dd/d76/Cartesian3D_8h.html" target="_top" xlink:title="MathUtils/Cartesian3D.h">
<polygon fill="none" stroke="#000000" points="1028.5,-134.5 1028.5,-153.5 1163.5,-153.5 1163.5,-134.5 1028.5,-134.5"/>
<text text-anchor="middle" x="1096" y="-141.5" font-family="Helvetica,sans-Serif" font-size="10.00" fill="#000000">MathUtils/Cartesian3D.h</text>
</a>
</g>
</g>
<!-- Node7&#45;&gt;Node16 -->
<g id="edge58" class="edge">
<title>Node7&#45;&gt;Node16</title>
<path fill="none" stroke="#191970" d="M689.6231,-478.6728C784.9824,-475.5325 979.6156,-465.3739 1039,-434 1073.2698,-415.8946 1096,-406.7585 1096,-368 1096,-368 1096,-368 1096,-256 1096,-223.7116 1096,-186.1872 1096,-163.8048"/>
<polygon fill="#191970" stroke="#191970" points="1099.5001,-163.5883 1096,-153.5884 1092.5001,-163.5884 1099.5001,-163.5883"/>
</g>
<!-- Node25 -->
<g id="node26" class="node">
<title>Node25</title>
<g id="a_node26"><a xlink:href="../../de/d41/PadPos_8h.html" target="_top" xlink:title="TPCBase/PadPos.h">
<polygon fill="none" stroke="#000000" points="627,-302.5 627,-321.5 733,-321.5 733,-302.5 627,-302.5"/>
<text text-anchor="middle" x="680" y="-309.5" font-family="Helvetica,sans-Serif" font-size="10.00" fill="#000000">TPCBase/PadPos.h</text>
</a>
</g>
</g>
<!-- Node7&#45;&gt;Node25 -->
<g id="edge29" class="edge">
<title>Node7&#45;&gt;Node25</title>
<path fill="none" stroke="#191970" d="M637.7677,-470.2454C640.3897,-457.0416 645.9922,-432.9541 655,-414 663.3613,-396.4061 674.1784,-396.5894 680,-378 684.7085,-362.9648 684.3591,-345.0406 683.0267,-331.6683"/>
<polygon fill="#191970" stroke="#191970" points="686.4895,-331.1529 681.7657,-321.6694 679.5445,-332.0288 686.4895,-331.1529"/>
</g>
<!-- Node26 -->
<g id="node27" class="node">
<title>Node26</title>
<g id="a_node27"><a xlink:href="../../dd/d0b/PadSecPos_8h.html" target="_top" xlink:title="TPCBase/PadSecPos.h">
<polygon fill="none" stroke="#000000" points="234.5,-358.5 234.5,-377.5 357.5,-377.5 357.5,-358.5 234.5,-358.5"/>
<text text-anchor="middle" x="296" y="-365.5" font-family="Helvetica,sans-Serif" font-size="10.00" fill="#000000">TPCBase/PadSecPos.h</text>
</a>
</g>
</g>
<!-- Node7&#45;&gt;Node26 -->
<g id="edge30" class="edge">
<title>Node7&#45;&gt;Node26</title>
<path fill="none" stroke="#191970" d="M582.3777,-471.5163C540.4492,-464.0402 481.0735,-451.5849 431,-434 391.3202,-420.0652 348.0827,-397.5095 321.5019,-382.7154"/>
<polygon fill="#191970" stroke="#191970" points="322.931,-379.5034 312.5001,-377.6465 319.4963,-385.6029 322.931,-379.5034"/>
</g>
<!-- Node27 -->
<g id="node28" class="node">
<title>Node27</title>
<g id="a_node28"><a xlink:href="../../d3/dd6/Sector_8h.html" target="_top" xlink:title="TPCBase/Sector.h">
<polygon fill="none" stroke="#000000" points="256.5,-246.5 256.5,-265.5 357.5,-265.5 357.5,-246.5 256.5,-246.5"/>
<text text-anchor="middle" x="307" y="-253.5" font-family="Helvetica,sans-Serif" font-size="10.00" fill="#000000">TPCBase/Sector.h</text>
</a>
</g>
</g>
<!-- Node7&#45;&gt;Node27 -->
<g id="edge56" class="edge">
<title>Node7&#45;&gt;Node27</title>
<path fill="none" stroke="#191970" d="M582.2795,-471.3318C519.3243,-460.987 418.9116,-443.8545 382,-434 310.4232,-414.8908 267.688,-438.5486 225,-378 198.3861,-340.2509 250.3868,-294.9003 283.1476,-271.5636"/>
<polygon fill="#191970" stroke="#191970" points="285.5574,-274.1529 291.7963,-265.5898 281.5791,-268.3932 285.5574,-274.1529"/>
</g>
<!-- Node29 -->
<g id="node30" class="node">
<title>Node29</title>
<g id="a_node30"><a xlink:href="../../da/d61/PadROCPos_8h.html" target="_top" xlink:title="TPCBase/PadROCPos.h">
<polygon fill="none" stroke="#000000" points="524.5,-358.5 524.5,-377.5 651.5,-377.5 651.5,-358.5 524.5,-358.5"/>
<text text-anchor="middle" x="588" y="-365.5" font-family="Helvetica,sans-Serif" font-size="10.00" fill="#000000">TPCBase/PadROCPos.h</text>
</a>
</g>
</g>
<!-- Node7&#45;&gt;Node29 -->
<g id="edge35" class="edge">
<title>Node7&#45;&gt;Node29</title>
<path fill="none" stroke="#191970" d="M631.9075,-470.4509C623.9726,-451.936 606.3682,-410.8591 596.0223,-386.7187"/>
<polygon fill="#191970" stroke="#191970" points="599.2384,-385.3376 592.0821,-377.5249 592.8043,-388.0951 599.2384,-385.3376"/>
</g>
<!-- Node31 -->
<g id="node32" class="node">
<title>Node31</title>
<g id="a_node32"><a xlink:href="../../d3/d54/DigitPos_8h.html" target="_top" xlink:title="TPCBase/DigitPos.h">
<polygon fill="none" stroke="#000000" points="440,-414.5 440,-433.5 552,-433.5 552,-414.5 440,-414.5"/>
<text text-anchor="middle" x="496" y="-421.5" font-family="Helvetica,sans-Serif" font-size="10.00" fill="#000000">TPCBase/DigitPos.h</text>
</a>
</g>
</g>
<!-- Node7&#45;&gt;Node31 -->
<g id="edge41" class="edge">
<title>Node7&#45;&gt;Node31</title>
<path fill="none" stroke="#191970" d="M611.9331,-470.3733C589.1572,-461.2629 554.7656,-447.5062 529.351,-437.3404"/>
<polygon fill="#191970" stroke="#191970" points="530.3375,-433.9654 519.7528,-433.5011 527.7377,-440.4648 530.3375,-433.9654"/>
</g>
<!-- Node33 -->
<g id="node34" class="node">
<title>Node33</title>
<g id="a_node34"><a xlink:href="../../d1/d1f/FECInfo_8h.html" target="_top" xlink:title="TPCBase/FECInfo.h">
<polygon fill="none" stroke="#000000" points="1131,-246.5 1131,-265.5 1239,-265.5 1239,-246.5 1131,-246.5"/>
<text text-anchor="middle" x="1185" y="-253.5" font-family="Helvetica,sans-Serif" font-size="10.00" fill="#000000">TPCBase/FECInfo.h</text>
</a>
</g>
</g>
<!-- Node7&#45;&gt;Node33 -->
<g id="edge49" class="edge">
<title>Node7&#45;&gt;Node33</title>
<path fill="none" stroke="#191970" d="M689.7806,-477.8576C806.8024,-472.7596 1076.7455,-458.4703 1110,-434 1162.1367,-395.6352 1178.2902,-313.9232 1183.0824,-276.0467"/>
<polygon fill="#191970" stroke="#191970" points="1186.5957,-276.1236 1184.2322,-265.7958 1179.6393,-275.3433 1186.5957,-276.1236"/>
</g>
<!-- Node34 -->
<g id="node35" class="node">
<title>Node34</title>
<g id="a_node35"><a xlink:href="../../da/d9d/PadRegionInfo_8h.html" target="_top" xlink:title="TPCBase/PadRegionInfo.h">
<polygon fill="none" stroke="#000000" points="664,-414.5 664,-433.5 804,-433.5 804,-414.5 664,-414.5"/>
<text text-anchor="middle" x="734" y="-421.5" font-family="Helvetica,sans-Serif" font-size="10.00" fill="#000000">TPCBase/PadRegionInfo.h</text>
</a>
</g>
</g>
<!-- Node7&#45;&gt;Node34 -->
<g id="edge51" class="edge">
<title>Node7&#45;&gt;Node34</title>
<path fill="none" stroke="#191970" d="M653.0703,-470.2455C668.247,-461.5731 690.6621,-448.7645 708.0563,-438.825"/>
<polygon fill="#191970" stroke="#191970" points="710.1794,-441.643 717.1253,-433.6427 706.7064,-435.5653 710.1794,-441.643"/>
</g>
<!-- Node35 -->
<g id="node36" class="node">
<title>Node35</title>
<g id="a_node36"><a xlink:href="../../d6/d42/PartitionInfo_8h.html" target="_top" xlink:title="TPCBase/PartitionInfo.h">
<polygon fill="none" stroke="#000000" points="898.5,-414.5 898.5,-433.5 1029.5,-433.5 1029.5,-414.5 898.5,-414.5"/>
<text text-anchor="middle" x="964" y="-421.5" font-family="Helvetica,sans-Serif" font-size="10.00" fill="#000000">TPCBase/PartitionInfo.h</text>
</a>
</g>
</g>
<!-- Node7&#45;&gt;Node35 -->
<g id="edge55" class="edge">
<title>Node7&#45;&gt;Node35</title>
<path fill="none" stroke="#191970" d="M689.7952,-470.8154C746.8661,-461.0716 837.0763,-445.6699 898.3082,-435.2157"/>
<polygon fill="#191970" stroke="#191970" points="898.9861,-438.6507 908.2544,-433.5175 897.808,-431.7505 898.9861,-438.6507"/>
</g>
<!-- Node11&#45;&gt;Node10 -->
<g id="edge14" class="edge">
<title>Node11&#45;&gt;Node10</title>
<path fill="none" stroke="#191970" d="M412.1106,-190.4369C351.1465,-178.9805 250.7357,-160.1114 198.6658,-150.3265"/>
<polygon fill="#191970" stroke="#191970" points="199.0954,-146.846 188.6209,-148.4388 197.8025,-153.7256 199.0954,-146.846"/>
</g>
<!-- Node12 -->
<g id="node13" class="node">
<title>Node12</title>
<g id="a_node13"><a xlink:href="../../d1/da8/GPUROOTCartesianFwd_8h.html" target="_top" xlink:title="GPUROOTCartesianFwd.h">
<polygon fill="none" stroke="#000000" points="295,-134.5 295,-153.5 435,-153.5 435,-134.5 295,-134.5"/>
<text text-anchor="middle" x="365" y="-141.5" font-family="Helvetica,sans-Serif" font-size="10.00" fill="#000000">GPUROOTCartesianFwd.h</text>
</a>
</g>
</g>
<!-- Node11&#45;&gt;Node12 -->
<g id="edge15" class="edge">
<title>Node11&#45;&gt;Node12</title>
<path fill="none" stroke="#191970" d="M445.9297,-190.2455C430.753,-181.5731 408.3379,-168.7645 390.9437,-158.825"/>
<polygon fill="#191970" stroke="#191970" points="392.2936,-155.5653 381.8747,-153.6427 388.8206,-161.643 392.2936,-155.5653"/>
</g>
<!-- Node11&#45;&gt;Node13 -->
<g id="edge16" class="edge">
<title>Node11&#45;&gt;Node13</title>
<path fill="none" stroke="#191970" d="M461.1996,-190.3845C457.606,-171.1913 449.4791,-127.786 444.7009,-102.2663"/>
<polygon fill="#191970" stroke="#191970" points="448.1059,-101.4334 442.8252,-92.2484 441.2254,-102.7217 448.1059,-101.4334"/>
</g>
<!-- Node11&#45;&gt;Node16 -->
<g id="edge19" class="edge">
<title>Node11&#45;&gt;Node16</title>
<path fill="none" stroke="#191970" d="M529.5457,-194.1129C647.4855,-183.679 892.561,-161.9978 1018.1386,-150.8882"/>
<polygon fill="#191970" stroke="#191970" points="1018.7881,-154.3445 1028.4407,-149.9768 1018.1712,-147.3717 1018.7881,-154.3445"/>
</g>
<!-- Node14 -->
<g id="node15" class="node">
<title>Node14</title>
<polygon fill="none" stroke="#bfbfbf" points="262,-.5 262,-30.5 426,-30.5 426,-.5 262,-.5"/>
<text text-anchor="start" x="270" y="-18.5" font-family="Helvetica,sans-Serif" font-size="10.00" fill="#000000">Math/GenVector/Displacement</text>
<text text-anchor="middle" x="344" y="-7.5" font-family="Helvetica,sans-Serif" font-size="10.00" fill="#000000">Vector2D.h</text>
</g>
<!-- Node13&#45;&gt;Node14 -->
<g id="edge17" class="edge">
<title>Node13&#45;&gt;Node14</title>
<path fill="none" stroke="#191970" d="M427.1023,-72.9005C413.3265,-63.3853 391.7795,-48.5023 374.0779,-36.2755"/>
<polygon fill="#191970" stroke="#191970" points="375.9651,-33.3253 365.7479,-30.5218 371.9868,-39.0849 375.9651,-33.3253"/>
</g>
<!-- Node15 -->
<g id="node16" class="node">
<title>Node15</title>
<polygon fill="none" stroke="#bfbfbf" points="444.5,-6 444.5,-25 633.5,-25 633.5,-6 444.5,-6"/>
<text text-anchor="middle" x="539" y="-13" font-family="Helvetica,sans-Serif" font-size="10.00" fill="#000000">Math/GenVector/PositionVector2D.h</text>
</g>
<!-- Node13&#45;&gt;Node15 -->
<g id="edge18" class="edge">
<title>Node13&#45;&gt;Node15</title>
<path fill="none" stroke="#191970" d="M455.041,-72.9005C471.1238,-61.9052 497.6906,-43.7422 516.6316,-30.7927"/>
<polygon fill="#191970" stroke="#191970" points="518.7052,-33.6148 524.985,-25.0817 514.7545,-27.8362 518.7052,-33.6148"/>
</g>
<!-- Node16&#45;&gt;Node13 -->
<g id="edge28" class="edge">
<title>Node16&#45;&gt;Node13</title>
<path fill="none" stroke="#191970" d="M1028.0859,-141.2221C919.7781,-136.2023 701.4354,-123.6688 518,-98 510.0312,-96.8849 501.645,-95.4603 493.4572,-93.9282"/>
<polygon fill="#191970" stroke="#191970" points="494.093,-90.4864 483.6097,-92.0196 492.761,-97.3585 494.093,-90.4864"/>
</g>
<!-- Node17 -->
<g id="node18" class="node">
<title>Node17</title>
<polygon fill="none" stroke="#bfbfbf" points="1260,-67.5 1260,-97.5 1424,-97.5 1424,-67.5 1260,-67.5"/>
<text text-anchor="start" x="1268" y="-85.5" font-family="Helvetica,sans-Serif" font-size="10.00" fill="#000000">Math/GenVector/Displacement</text>
<text text-anchor="middle" x="1342" y="-74.5" font-family="Helvetica,sans-Serif" font-size="10.00" fill="#000000">Vector3D.h</text>
</g>
<!-- Node16&#45;&gt;Node17 -->
<g id="edge20" class="edge">
<title>Node16&#45;&gt;Node17</title>
<path fill="none" stroke="#191970" d="M1134.1676,-134.4581C1170.8036,-125.2991 1227.0168,-111.2458 1271.7477,-100.0631"/>
<polygon fill="#191970" stroke="#191970" points="1272.8338,-103.3994 1281.6863,-97.5784 1271.136,-96.6084 1272.8338,-103.3994"/>
</g>
<!-- Node18 -->
<g id="node19" class="node">
<title>Node18</title>
<polygon fill="none" stroke="#bfbfbf" points="1442.5,-73 1442.5,-92 1631.5,-92 1631.5,-73 1442.5,-73"/>
<text text-anchor="middle" x="1537" y="-80" font-family="Helvetica,sans-Serif" font-size="10.00" fill="#000000">Math/GenVector/PositionVector3D.h</text>
</g>
<!-- Node16&#45;&gt;Node18 -->
<g id="edge21" class="edge">
<title>Node16&#45;&gt;Node18</title>
<path fill="none" stroke="#191970" d="M1163.8096,-134.9931C1231.8877,-125.8919 1339.7615,-111.311 1433,-98 1443.0658,-96.563 1453.6747,-95.0175 1464.1139,-93.4788"/>
<polygon fill="#191970" stroke="#191970" points="1464.6672,-96.9352 1474.0474,-92.0094 1463.6428,-90.0105 1464.6672,-96.9352"/>
</g>
<!-- Node19 -->
<g id="node20" class="node">
<title>Node19</title>
<polygon fill="none" stroke="#bfbfbf" points="527,-73 527,-92 687,-92 687,-73 527,-73"/>
<text text-anchor="middle" x="607" y="-80" font-family="Helvetica,sans-Serif" font-size="10.00" fill="#000000">Math/GenVector/Rotation3D.h</text>
</g>
<!-- Node16&#45;&gt;Node19 -->
<g id="edge22" class="edge">
<title>Node16&#45;&gt;Node19</title>
<path fill="none" stroke="#191970" d="M1028.2561,-137.418C948.5778,-129.3969 812.4021,-114.8149 696,-98 687.1083,-96.7156 677.7399,-95.2299 668.5532,-93.6973"/>
<polygon fill="#191970" stroke="#191970" points="669.1317,-90.2456 658.6871,-92.0233 667.9606,-97.1469 669.1317,-90.2456"/>
</g>
<!-- Node20 -->
<g id="node21" class="node">
<title>Node20</title>
<polygon fill="none" stroke="#bfbfbf" points="705,-73 705,-92 873,-92 873,-73 705,-73"/>
<text text-anchor="middle" x="789" y="-80" font-family="Helvetica,sans-Serif" font-size="10.00" fill="#000000">Math/GenVector/Transform3D.h</text>
</g>
<!-- Node16&#45;&gt;Node20 -->
<g id="edge23" class="edge">
<title>Node16&#45;&gt;Node20</title>
<path fill="none" stroke="#191970" d="M1048.3681,-134.4581C993.9518,-123.5571 904.9264,-105.723 846.6427,-94.0473"/>
<polygon fill="#191970" stroke="#191970" points="846.9838,-90.5462 836.4911,-92.0137 845.6087,-97.4098 846.9838,-90.5462"/>
</g>
<!-- Node21 -->
<g id="node22" class="node">
<title>Node21</title>
<polygon fill="none" stroke="#bfbfbf" points="891.5,-73 891.5,-92 1064.5,-92 1064.5,-73 891.5,-73"/>
<text text-anchor="middle" x="978" y="-80" font-family="Helvetica,sans-Serif" font-size="10.00" fill="#000000">Math/GenVector/Translation3D.h</text>
</g>
<!-- Node16&#45;&gt;Node21 -->
<g id="edge24" class="edge">
<title>Node16&#45;&gt;Node21</title>
<path fill="none" stroke="#191970" d="M1077.5625,-134.3906C1058.1653,-124.2811 1027.431,-108.2628 1005.2383,-96.6962"/>
<polygon fill="#191970" stroke="#191970" points="1006.7936,-93.56 996.308,-92.0419 1003.5582,-99.7675 1006.7936,-93.56"/>
</g>
<!-- Node22 -->
<g id="node23" class="node">
<title>Node22</title>
<polygon fill="none" stroke="#bfbfbf" points="1082.5,-73 1082.5,-92 1141.5,-92 1141.5,-73 1082.5,-73"/>
<text text-anchor="middle" x="1112" y="-80" font-family="Helvetica,sans-Serif" font-size="10.00" fill="#000000">Rtypes.h</text>
</g>
<!-- Node16&#45;&gt;Node22 -->
<g id="edge25" class="edge">
<title>Node16&#45;&gt;Node22</title>
<path fill="none" stroke="#191970" d="M1098.5,-134.3906C1100.7412,-125.776 1104.0986,-112.8708 1106.9045,-102.0858"/>
<polygon fill="#191970" stroke="#191970" points="1110.3341,-102.804 1109.4648,-92.2449 1103.5596,-101.0414 1110.3341,-102.804"/>
</g>
<!-- Node23 -->
<g id="node24" class="node">
<title>Node23</title>
<polygon fill="none" stroke="#bfbfbf" points="1160,-73 1160,-92 1242,-92 1242,-73 1160,-73"/>
<text text-anchor="middle" x="1201" y="-80" font-family="Helvetica,sans-Serif" font-size="10.00" fill="#000000">TGeoMatrix.h</text>
</g>
<!-- Node16&#45;&gt;Node23 -->
<g id="edge26" class="edge">
<title>Node16&#45;&gt;Node23</title>
<path fill="none" stroke="#191970" d="M1112.4063,-134.3906C1129.4353,-124.4165 1156.2841,-108.6908 1175.9651,-97.1633"/>
<polygon fill="#191970" stroke="#191970" points="1177.849,-100.1161 1184.709,-92.0419 1174.3112,-94.0759 1177.849,-100.1161"/>
</g>
<!-- Node24 -->
<g id="node25" class="node">
<title>Node24</title>
<polygon fill="none" stroke="#bfbfbf" points="1649.5,-73 1649.5,-92 1698.5,-92 1698.5,-73 1649.5,-73"/>
<text text-anchor="middle" x="1674" y="-80" font-family="Helvetica,sans-Serif" font-size="10.00" fill="#000000">iosfwd</text>
</g>
<!-- Node16&#45;&gt;Node24 -->
<g id="edge27" class="edge">
<title>Node16&#45;&gt;Node24</title>
<path fill="none" stroke="#191970" d="M1163.6665,-141.2772C1289.0422,-135.7386 1552.7171,-121.642 1641,-98 1642.9718,-97.4719 1644.9706,-96.831 1646.9581,-96.1138"/>
<polygon fill="#191970" stroke="#191970" points="1648.7549,-99.156 1656.6267,-92.0647 1646.0509,-92.6993 1648.7549,-99.156"/>
</g>
<!-- Node26&#45;&gt;Node25 -->
<g id="edge34" class="edge">
<title>Node26&#45;&gt;Node25</title>
<path fill="none" stroke="#191970" d="M357.6962,-359.0026C428.7238,-348.6445 544.7976,-331.717 616.5548,-321.2524"/>
<polygon fill="#191970" stroke="#191970" points="617.4195,-324.6634 626.8097,-319.7569 616.4093,-317.7367 617.4195,-324.6634"/>
</g>
<!-- Node26&#45;&gt;Node27 -->
<g id="edge31" class="edge">
<title>Node26&#45;&gt;Node27</title>
<path fill="none" stroke="#191970" d="M296.5797,-358.1452C297.3775,-345.232 298.951,-321.8894 301,-302 301.8852,-293.4078 303.0818,-283.9412 304.1735,-275.841"/>
<polygon fill="#191970" stroke="#191970" points="307.6518,-276.2384 305.5581,-265.8525 300.7181,-275.2772 307.6518,-276.2384"/>
</g>
<!-- Node27&#45;&gt;Node11 -->
<g id="edge33" class="edge">
<title>Node27&#45;&gt;Node11</title>
<path fill="none" stroke="#191970" d="M333.8174,-246.3733C359.5332,-237.1419 398.538,-223.1402 426.9599,-212.9375"/>
<polygon fill="#191970" stroke="#191970" points="428.3032,-216.174 436.5326,-209.5011 425.9381,-209.5857 428.3032,-216.174"/>
</g>
<!-- Node28 -->
<g id="node29" class="node">
<title>Node28</title>
<g id="a_node29"><a xlink:href="../../d0/dda/DataFormats_2Detectors_2TPC_2include_2DataFormatsTPC_2Constants_8h.html" target="_top" xlink:title="DataFormatsTPC/Constants.h">
<polygon fill="none" stroke="#000000" points="219.5,-190.5 219.5,-209.5 378.5,-209.5 378.5,-190.5 219.5,-190.5"/>
<text text-anchor="middle" x="299" y="-197.5" font-family="Helvetica,sans-Serif" font-size="10.00" fill="#000000">DataFormatsTPC/Constants.h</text>
</a>
</g>
</g>
<!-- Node27&#45;&gt;Node28 -->
<g id="edge32" class="edge">
<title>Node27&#45;&gt;Node28</title>
<path fill="none" stroke="#191970" d="M305.6065,-246.2455C304.5626,-238.9382 303.0992,-228.6944 301.8149,-219.7046"/>
<polygon fill="#191970" stroke="#191970" points="305.2566,-219.0472 300.3775,-209.6427 298.327,-220.0372 305.2566,-219.0472"/>
</g>
<!-- Node29&#45;&gt;Node11 -->
<g id="edge36" class="edge">
<title>Node29&#45;&gt;Node11</title>
<path fill="none" stroke="#191970" d="M583.5754,-358.4929C573.3511,-337.0801 546.5324,-283.9822 515,-246 505.8574,-234.9873 494.0077,-224.2936 483.9297,-215.9924"/>
<polygon fill="#191970" stroke="#191970" points="485.9731,-213.1449 475.9791,-209.6278 481.5985,-218.6096 485.9731,-213.1449"/>
</g>
<!-- Node29&#45;&gt;Node25 -->
<g id="edge40" class="edge">
<title>Node29&#45;&gt;Node25</title>
<path fill="none" stroke="#191970" d="M604.0252,-358.2455C618.1408,-349.6534 638.9263,-337.0014 655.1899,-327.1018"/>
<polygon fill="#191970" stroke="#191970" points="657.4363,-329.8319 664.1585,-321.6427 653.7966,-323.8525 657.4363,-329.8319"/>
</g>
<!-- Node30 -->
<g id="node31" class="node">
<title>Node30</title>
<g id="a_node31"><a xlink:href="../../dc/d14/ROC_8h.html" target="_top" xlink:title="TPCBase/ROC.h">
<polygon fill="none" stroke="#000000" points="343,-302.5 343,-321.5 435,-321.5 435,-302.5 343,-302.5"/>
<text text-anchor="middle" x="389" y="-309.5" font-family="Helvetica,sans-Serif" font-size="10.00" fill="#000000">TPCBase/ROC.h</text>
</a>
</g>
</g>
<!-- Node29&#45;&gt;Node30 -->
<g id="edge37" class="edge">
<title>Node29&#45;&gt;Node30</title>
<path fill="none" stroke="#191970" d="M553.7907,-358.3733C520.2703,-348.9404 469.0495,-334.5265 432.619,-324.2747"/>
<polygon fill="#191970" stroke="#191970" points="433.3372,-320.8409 422.7629,-321.5011 431.4409,-327.5792 433.3372,-320.8409"/>
</g>
<!-- Node30&#45;&gt;Node11 -->
<g id="edge38" class="edge">
<title>Node30&#45;&gt;Node11</title>
<path fill="none" stroke="#191970" d="M395.3092,-302.4509C407.6515,-283.7707 435.1682,-242.1238 451.0568,-218.0761"/>
<polygon fill="#191970" stroke="#191970" points="454.1143,-219.7977 456.7068,-209.5249 448.274,-215.9388 454.1143,-219.7977"/>
</g>
<!-- Node30&#45;&gt;Node27 -->
<g id="edge39" class="edge">
<title>Node30&#45;&gt;Node27</title>
<path fill="none" stroke="#191970" d="M374.7167,-302.2455C362.253,-293.7337 343.9549,-281.2375 329.5208,-271.3801"/>
<polygon fill="#191970" stroke="#191970" points="331.3515,-268.392 321.1196,-265.6427 327.4038,-274.1726 331.3515,-268.392"/>
</g>
<!-- Node31&#45;&gt;Node11 -->
<g id="edge42" class="edge">
<title>Node31&#45;&gt;Node11</title>
<path fill="none" stroke="#191970" d="M494.7556,-414.3361C491.2824,-387.5535 481.076,-310.1218 471,-246 469.6505,-237.4117 468.0276,-227.9458 466.5972,-219.8449"/>
<polygon fill="#191970" stroke="#191970" points="470.0164,-219.0823 464.8099,-209.8551 463.1259,-220.3152 470.0164,-219.0823"/>
</g>
<!-- Node31&#45;&gt;Node25 -->
<g id="edge47" class="edge">
<title>Node31&#45;&gt;Node25</title>
<path fill="none" stroke="#191970" d="M551.8246,-414.4539C593.3783,-406.2734 645.4795,-393.3905 661,-378 673.2794,-365.8235 677.7437,-346.2607 679.3067,-331.5888"/>
<polygon fill="#191970" stroke="#191970" points="682.8041,-331.7476 680.0178,-321.5258 675.8215,-331.2541 682.8041,-331.7476"/>
</g>
<!-- Node31&#45;&gt;Node26 -->
<g id="edge48" class="edge">
<title>Node31&#45;&gt;Node26</title>
<path fill="none" stroke="#191970" d="M461.6188,-414.3733C427.9299,-404.9404 376.4518,-390.5265 339.8382,-380.2747"/>
<polygon fill="#191970" stroke="#191970" points="340.506,-376.8271 329.9326,-377.5011 338.6185,-383.5679 340.506,-376.8271"/>
</g>
<!-- Node32 -->
<g id="node33" class="node">
<title>Node32</title>
<g id="a_node33"><a xlink:href="../../df/d26/CRU_8h.html" target="_top" xlink:title="TPCBase/CRU.h">
<polygon fill="none" stroke="#000000" points="376,-358.5 376,-377.5 468,-377.5 468,-358.5 376,-358.5"/>
<text text-anchor="middle" x="422" y="-365.5" font-family="Helvetica,sans-Serif" font-size="10.00" fill="#000000">TPCBase/CRU.h</text>
</a>
</g>
</g>
<!-- Node31&#45;&gt;Node32 -->
<g id="edge43" class="edge">
<title>Node31&#45;&gt;Node32</title>
<path fill="none" stroke="#191970" d="M483.1102,-414.2455C472.0746,-405.8943 455.9708,-393.7076 443.0647,-383.9408"/>
<polygon fill="#191970" stroke="#191970" points="444.8283,-380.8862 434.7421,-377.6427 440.6041,-386.4681 444.8283,-380.8862"/>
</g>
<!-- Node32&#45;&gt;Node11 -->
<g id="edge44" class="edge">
<title>Node32&#45;&gt;Node11</title>
<path fill="none" stroke="#191970" d="M427.5782,-358.4652C432.6391,-349.3877 439.9149,-335.1918 444,-322 454.8385,-286.9995 459.6739,-244.3488 461.6907,-219.8676"/>
<polygon fill="#191970" stroke="#191970" points="465.195,-219.9389 462.4494,-209.706 458.2144,-219.4176 465.195,-219.9389"/>
</g>
<!-- Node32&#45;&gt;Node27 -->
<g id="edge45" class="edge">
<title>Node32&#45;&gt;Node27</title>
<path fill="none" stroke="#191970" d="M392.1085,-358.4167C373.2857,-351.0575 349.6707,-339.2063 334,-322 322.0429,-308.8713 315.0087,-289.7347 311.1345,-275.4443"/>
<polygon fill="#191970" stroke="#191970" points="314.5155,-274.5351 308.7586,-265.6408 307.7125,-276.1838 314.5155,-274.5351"/>
</g>
<!-- Node32&#45;&gt;Node30 -->
<g id="edge46" class="edge">
<title>Node32&#45;&gt;Node30</title>
<path fill="none" stroke="#191970" d="M416.2518,-358.2455C411.7565,-350.617 405.3752,-339.7881 399.9175,-330.5267"/>
<polygon fill="#191970" stroke="#191970" points="402.7747,-328.4811 394.6823,-321.6427 396.7439,-332.035 402.7747,-328.4811"/>
</g>
<!-- Node33&#45;&gt;Node24 -->
<g id="edge50" class="edge">
<title>Node33&#45;&gt;Node24</title>
<path fill="none" stroke="#191970" d="M1216.1063,-246.4732C1290.4694,-223.4289 1484.0354,-161.8485 1641,-98 1642.3925,-97.4336 1643.8107,-96.8388 1645.2377,-96.2259"/>
<polygon fill="#191970" stroke="#191970" points="1646.9148,-99.3097 1654.6074,-92.0245 1644.0507,-92.9225 1646.9148,-99.3097"/>
</g>
<!-- Node34&#45;&gt;Node3 -->
<g id="edge52" class="edge">
<title>Node34&#45;&gt;Node3</title>
<path fill="none" stroke="#191970" d="M759.7859,-414.3733C784.8523,-405.0151 823.05,-390.7547 850.4664,-380.5192"/>
<polygon fill="#191970" stroke="#191970" points="851.8908,-383.7235 860.035,-376.9469 849.4425,-377.1656 851.8908,-383.7235"/>
</g>
<!-- Node34&#45;&gt;Node11 -->
<g id="edge53" class="edge">
<title>Node34&#45;&gt;Node11</title>
<path fill="none" stroke="#191970" d="M738.5877,-414.1803C748.359,-391.6522 768.2766,-335.6123 742,-302 713.4078,-265.4257 587.0478,-229.8479 514.5713,-211.9533"/>
<polygon fill="#191970" stroke="#191970" points="515.2627,-208.5194 504.7179,-209.5474 513.6023,-215.3196 515.2627,-208.5194"/>
</g>
<!-- Node34&#45;&gt;Node25 -->
<g id="edge54" class="edge">
<title>Node34&#45;&gt;Node25</title>
<path fill="none" stroke="#191970" d="M735.9686,-414.4979C738.2454,-401.1667 740.6622,-376.4753 732,-358 726.2038,-345.6374 715.3551,-335.2085 705.0604,-327.4227"/>
<polygon fill="#191970" stroke="#191970" points="706.8596,-324.4092 696.6663,-321.5199 702.833,-330.1352 706.8596,-324.4092"/>
</g>
</g>
</svg>
        <g id="navigator" transform="translate(0 0)" fill="#404254">
                <rect fill="#f2f5e9" fill-opacity="0.5" stroke="#606060" stroke-width=".5" x="0" y="0" width="60" height="60"/>
                <use id="zoomplus" xlink:href="#zoomPlus" x="17" y="9" onmousedown="handleZoom(evt,'in')"/>
                <use id="zoomminus" xlink:href="#zoomMin" x="42" y="9" onmousedown="handleZoom(evt,'out')"/>
                <use id="reset" xlink:href="#resetDef" x="30" y="36" onmousedown="handleReset()"/>
                <g id="arrowUp" xlink:href="#dirArrow" transform="translate(30 24)" onmousedown="handlePan(0,-1)">
                  <use xlink:href="#rim" fill="#404040">
                        <set attributeName="fill" to="#808080" begin="arrowUp.mouseover" end="arrowUp.mouseout"/>
                  </use>
                  <path fill="none" stroke="white" stroke-width="1.5" d="M0,-3.0v7 M-2.5,-0.5L0,-3.0L2.5,-0.5"/>
                </g>
                <g id="arrowRight" xlink:href="#dirArrow" transform="rotate(90) translate(36 -43)" onmousedown="handlePan(1,0)">
                  <use xlink:href="#rim" fill="#404040">
                        <set attributeName="fill" to="#808080" begin="arrowRight.mouseover" end="arrowRight.mouseout"/>
                  </use>
                  <path fill="none" stroke="white" stroke-width="1.5" d="M0,-3.0v7 M-2.5,-0.5L0,-3.0L2.5,-0.5"/>
                </g>
                <g id="arrowDown" xlink:href="#dirArrow" transform="rotate(180) translate(-30 -48)" onmousedown="handlePan(0,1)">
                  <use xlink:href="#rim" fill="#404040">
                        <set attributeName="fill" to="#808080" begin="arrowDown.mouseover" end="arrowDown.mouseout"/>
                  </use>
                  <path fill="none" stroke="white" stroke-width="1.5" d="M0,-3.0v7 M-2.5,-0.5L0,-3.0L2.5,-0.5"/>
                </g>
                <g id="arrowLeft" xlink:href="#dirArrow" transform="rotate(270) translate(-36 17)" onmousedown="handlePan(-1,0)">
                  <use xlink:href="#rim" fill="#404040">
                        <set attributeName="fill" to="#808080" begin="arrowLeft.mouseover" end="arrowLeft.mouseout"/>
                  </use>
                  <path fill="none" stroke="white" stroke-width="1.5" d="M0,-3.0v7 M-2.5,-0.5L0,-3.0L2.5,-0.5"/>
                </g>
        </g>
        <svg viewBox="0 0 15 15" width="100%" height="30px" preserveAspectRatio="xMaxYMin meet">
         <g id="arrow_out" transform="scale(0.3 0.3)">
          <a xlink:href="CalArray_8h__incl_org.svg" target="_base">
           <rect id="button" ry="5" rx="5" y="6" x="6" height="38" width="38"
                fill="#f2f5e9" fill-opacity="0.5" stroke="#606060" stroke-width="1.0"/>
           <path id="arrow"
             d="M 11.500037,31.436501 C 11.940474,20.09759 22.043105,11.32322 32.158766,21.979434 L 37.068811,17.246167 C 37.068811,17.246167 37.088388,32 37.088388,32 L 22.160133,31.978069 C 22.160133,31.978069 26.997745,27.140456 26.997745,27.140456 C 18.528582,18.264221 13.291696,25.230495 11.500037,31.436501 z"
             style="fill:#404040;"/>
          </a>
         </g>
        </svg>
</svg>
