<?xml version="1.0" encoding="UTF-8" standalone="no"?>
<!DOCTYPE svg PUBLIC "-//W3C//DTD SVG 1.1//EN"
 "http://www.w3.org/Graphics/SVG/1.1/DTD/svg11.dtd">
<!-- Generated by graphviz version 2.40.1 (20161225.0304)
 -->
<!-- Title: /home/travis/build/AliceO2Group/AliceO2/Framework/Core/src/Expressions.cxx Pages: 1 -->
<svg width="2499pt" height="531pt"
 viewBox="0.00 0.00 2499.00 531.00" xmlns="http://www.w3.org/2000/svg" xmlns:xlink="http://www.w3.org/1999/xlink">
<g id="graph0" class="graph" transform="scale(1 1) rotate(0) translate(4 527)">
<title>/home/travis/build/AliceO2Group/AliceO2/Framework/Core/src/Expressions.cxx</title>
<!-- Node0 -->
<g id="node1" class="node">
<title>Node0</title>
<polygon fill="#bfbfbf" stroke="#000000" points="1453,-481.5 1453,-522.5 1651,-522.5 1651,-481.5 1453,-481.5"/>
<text text-anchor="start" x="1461" y="-510.5" font-family="Helvetica,sans-Serif" font-size="10.00" fill="#000000">/home/travis/build</text>
<text text-anchor="start" x="1461" y="-499.5" font-family="Helvetica,sans-Serif" font-size="10.00" fill="#000000">/AliceO2Group/AliceO2</text>
<text text-anchor="middle" x="1552" y="-488.5" font-family="Helvetica,sans-Serif" font-size="10.00" fill="#000000">/Framework/Core/src/Expressions.cxx</text>
</g>
<!-- Node1 -->
<g id="node2" class="node">
<title>Node1</title>
<g id="a_node2"><a xlink:href="../../d1/d83/ExpressionHelpers_8h.html" target="_top" xlink:title="../src/ExpressionHelpers.h">
<polygon fill="none" stroke="#000000" points="1124.5,-425.5 1124.5,-444.5 1267.5,-444.5 1267.5,-425.5 1124.5,-425.5"/>
<text text-anchor="middle" x="1196" y="-432.5" font-family="Helvetica,sans-Serif" font-size="10.00" fill="#000000">../src/ExpressionHelpers.h</text>
</a>
</g>
</g>
<!-- Node0&#45;&gt;Node1 -->
<g id="edge1" class="edge">
<title>Node0&#45;&gt;Node1</title>
<path fill="none" stroke="#191970" d="M1452.8342,-483.3368C1389.8247,-471.4782 1310.2993,-456.5114 1256.5616,-446.3978"/>
<polygon fill="#191970" stroke="#191970" points="1256.9791,-442.915 1246.5042,-444.505 1255.6843,-449.7943 1256.9791,-442.915"/>
</g>
<!-- Node13 -->
<g id="node14" class="node">
<title>Node13</title>
<g id="a_node14"><a xlink:href="../../d1/d76/RuntimeError_8h.html" target="_top" xlink:title="Framework/RuntimeError.h">
<polygon fill="none" stroke="#000000" points="0,-.5 0,-19.5 146,-19.5 146,-.5 0,-.5"/>
<text text-anchor="middle" x="73" y="-7.5" font-family="Helvetica,sans-Serif" font-size="10.00" fill="#000000">Framework/RuntimeError.h</text>
</a>
</g>
</g>
<!-- Node0&#45;&gt;Node13 -->
<g id="edge66" class="edge">
<title>Node0&#45;&gt;Node13</title>
<path fill="none" stroke="#191970" d="M1452.7984,-499.2823C1112.4433,-489.3124 13,-451.4963 13,-379 13,-379 13,-379 13,-127.5 13,-88.2716 39.8542,-48.9419 57.6313,-27.2039"/>
<polygon fill="#191970" stroke="#191970" points="60.3499,-29.4096 64.1468,-19.5184 55.0104,-24.8829 60.3499,-29.4096"/>
</g>
<!-- Node38 -->
<g id="node39" class="node">
<title>Node38</title>
<polygon fill="none" stroke="#bfbfbf" points="2385.5,-313.5 2385.5,-332.5 2466.5,-332.5 2466.5,-313.5 2385.5,-313.5"/>
<text text-anchor="middle" x="2426" y="-320.5" font-family="Helvetica,sans-Serif" font-size="10.00" fill="#000000">arrow/table.h</text>
</g>
<!-- Node0&#45;&gt;Node38 -->
<g id="edge68" class="edge">
<title>Node0&#45;&gt;Node38</title>
<path fill="none" stroke="#191970" d="M1455.7949,-481.3953C1437.7446,-473.0747 1421.0853,-461.3948 1410,-445 1400.5129,-430.9688 1390.8734,-390.7762 1413,-369 1450.9597,-331.6414 2318.0546,-338.7783 2371,-333 2372.3025,-332.8579 2373.6205,-332.7029 2374.9489,-332.5369"/>
<polygon fill="#191970" stroke="#191970" points="2375.8378,-335.9459 2385.2472,-331.0762 2374.8547,-329.0153 2375.8378,-335.9459"/>
</g>
<!-- Node44 -->
<g id="node45" class="node">
<title>Node44</title>
<polygon fill="none" stroke="#bfbfbf" points="1284.5,-369.5 1284.5,-388.5 1363.5,-388.5 1363.5,-369.5 1284.5,-369.5"/>
<text text-anchor="middle" x="1324" y="-376.5" font-family="Helvetica,sans-Serif" font-size="10.00" fill="#000000">fmt/format.h</text>
</g>
<!-- Node0&#45;&gt;Node44 -->
<g id="edge69" class="edge">
<title>Node0&#45;&gt;Node44</title>
<path fill="none" stroke="#191970" d="M1454.0582,-481.4452C1427.2379,-472.9364 1399.1932,-461.1531 1376,-445 1358.1286,-432.5533 1343.4163,-412.1768 1334.2566,-397.353"/>
<polygon fill="#191970" stroke="#191970" points="1337.1593,-395.385 1329.0618,-388.5526 1331.1311,-398.9434 1337.1593,-395.385"/>
</g>
<!-- Node45 -->
<g id="node46" class="node">
<title>Node45</title>
<g id="a_node46"><a xlink:href="../../d7/dbe/VariantHelpers_8h.html" target="_top" xlink:title="Framework/VariantHelpers.h">
<polygon fill="none" stroke="#000000" points="104.5,-369.5 104.5,-388.5 259.5,-388.5 259.5,-369.5 104.5,-369.5"/>
<text text-anchor="middle" x="182" y="-376.5" font-family="Helvetica,sans-Serif" font-size="10.00" fill="#000000">Framework/VariantHelpers.h</text>
</a>
</g>
</g>
<!-- Node0&#45;&gt;Node45 -->
<g id="edge62" class="edge">
<title>Node0&#45;&gt;Node45</title>
<path fill="none" stroke="#191970" d="M1452.9219,-493.1047C1196.4593,-470.0792 513.9235,-408.8004 270.105,-386.9102"/>
<polygon fill="#191970" stroke="#191970" points="270.1457,-383.3998 259.8728,-385.9915 269.5197,-390.3718 270.1457,-383.3998"/>
</g>
<!-- Node46 -->
<g id="node47" class="node">
<title>Node46</title>
<g id="a_node47"><a xlink:href="../../dd/da4/Logger_8h.html" target="_top" xlink:title="Framework/Logger.h">
<polygon fill="none" stroke="#000000" points="1418.5,-425.5 1418.5,-444.5 1533.5,-444.5 1533.5,-425.5 1418.5,-425.5"/>
<text text-anchor="middle" x="1476" y="-432.5" font-family="Helvetica,sans-Serif" font-size="10.00" fill="#000000">Framework/Logger.h</text>
</a>
</g>
</g>
<!-- Node0&#45;&gt;Node46 -->
<g id="edge64" class="edge">
<title>Node0&#45;&gt;Node46</title>
<path fill="none" stroke="#191970" d="M1528.3697,-481.168C1517.5048,-471.5897 1504.8018,-460.3911 1494.6279,-451.422"/>
<polygon fill="#191970" stroke="#191970" points="1496.9101,-448.768 1487.0943,-444.7805 1492.281,-454.0189 1496.9101,-448.768"/>
</g>
<!-- Node48 -->
<g id="node49" class="node">
<title>Node48</title>
<polygon fill="none" stroke="#bfbfbf" points="1552,-425.5 1552,-444.5 1704,-444.5 1704,-425.5 1552,-425.5"/>
<text text-anchor="middle" x="1628" y="-432.5" font-family="Helvetica,sans-Serif" font-size="10.00" fill="#000000">gandiva/tree_expr_builder.h</text>
</g>
<!-- Node0&#45;&gt;Node48 -->
<g id="edge67" class="edge">
<title>Node0&#45;&gt;Node48</title>
<path fill="none" stroke="#191970" d="M1575.6303,-481.168C1586.4952,-471.5897 1599.1982,-460.3911 1609.3721,-451.422"/>
<polygon fill="#191970" stroke="#191970" points="1611.719,-454.0189 1616.9057,-444.7805 1607.0899,-448.768 1611.719,-454.0189"/>
</g>
<!-- Node49 -->
<g id="node50" class="node">
<title>Node49</title>
<polygon fill="none" stroke="#bfbfbf" points="1722.5,-425.5 1722.5,-444.5 1765.5,-444.5 1765.5,-425.5 1722.5,-425.5"/>
<text text-anchor="middle" x="1744" y="-432.5" font-family="Helvetica,sans-Serif" font-size="10.00" fill="#000000">stack</text>
</g>
<!-- Node0&#45;&gt;Node49 -->
<g id="edge70" class="edge">
<title>Node0&#45;&gt;Node49</title>
<path fill="none" stroke="#191970" d="M1610.9111,-481.4425C1644.4874,-469.7257 1685.2165,-455.513 1712.7045,-445.9208"/>
<polygon fill="#191970" stroke="#191970" points="1713.9064,-449.2085 1722.1949,-442.6091 1711.6,-442.5993 1713.9064,-449.2085"/>
</g>
<!-- Node50 -->
<g id="node51" class="node">
<title>Node50</title>
<polygon fill="none" stroke="#bfbfbf" points="1784,-425.5 1784,-444.5 1844,-444.5 1844,-425.5 1784,-425.5"/>
<text text-anchor="middle" x="1814" y="-432.5" font-family="Helvetica,sans-Serif" font-size="10.00" fill="#000000">iostream</text>
</g>
<!-- Node0&#45;&gt;Node50 -->
<g id="edge71" class="edge">
<title>Node0&#45;&gt;Node50</title>
<path fill="none" stroke="#191970" d="M1632.5145,-481.4357C1672.4279,-471.2376 1721.6133,-458.665 1773.9578,-445.2657"/>
<polygon fill="#191970" stroke="#191970" points="1774.9474,-448.6253 1783.7669,-442.7545 1773.2113,-441.844 1774.9474,-448.6253"/>
</g>
<!-- Node51 -->
<g id="node52" class="node">
<title>Node51</title>
<polygon fill="none" stroke="#bfbfbf" points="1862.5,-425.5 1862.5,-444.5 1955.5,-444.5 1955.5,-425.5 1862.5,-425.5"/>
<text text-anchor="middle" x="1909" y="-432.5" font-family="Helvetica,sans-Serif" font-size="10.00" fill="#000000">unordered_map</text>
</g>
<!-- Node0&#45;&gt;Node51 -->
<g id="edge72" class="edge">
<title>Node0&#45;&gt;Node51</title>
<path fill="none" stroke="#191970" d="M1651.4444,-483.3368C1716.1815,-471.1872 1798.3037,-455.7749 1852.1882,-445.6622"/>
<polygon fill="#191970" stroke="#191970" points="1853.0598,-449.0598 1862.2425,-443.7752 1851.7685,-442.1799 1853.0598,-449.0598"/>
</g>
<!-- Node52 -->
<g id="node53" class="node">
<title>Node52</title>
<polygon fill="none" stroke="#bfbfbf" points="1974,-425.5 1974,-444.5 2006,-444.5 2006,-425.5 1974,-425.5"/>
<text text-anchor="middle" x="1990" y="-432.5" font-family="Helvetica,sans-Serif" font-size="10.00" fill="#000000">set</text>
</g>
<!-- Node0&#45;&gt;Node52 -->
<g id="edge73" class="edge">
<title>Node0&#45;&gt;Node52</title>
<path fill="none" stroke="#191970" d="M1651.3809,-495.1055C1733.4861,-487.8428 1852.8787,-473.6671 1964.0851,-444.7147"/>
<polygon fill="#191970" stroke="#191970" points="1965.016,-448.0889 1973.7867,-442.1453 1963.2239,-441.3222 1965.016,-448.0889"/>
</g>
<!-- Node53 -->
<g id="node54" class="node">
<title>Node53</title>
<polygon fill="none" stroke="#bfbfbf" points="2024,-425.5 2024,-444.5 2088,-444.5 2088,-425.5 2024,-425.5"/>
<text text-anchor="middle" x="2056" y="-432.5" font-family="Helvetica,sans-Serif" font-size="10.00" fill="#000000">algorithm</text>
</g>
<!-- Node0&#45;&gt;Node53 -->
<g id="edge74" class="edge">
<title>Node0&#45;&gt;Node53</title>
<path fill="none" stroke="#191970" d="M1651.4069,-493.1498C1743.1221,-484.2061 1883.1883,-468.5813 2013.6698,-445.0715"/>
<polygon fill="#191970" stroke="#191970" points="2014.6362,-448.4532 2023.8472,-443.218 2013.3819,-441.5664 2014.6362,-448.4532"/>
</g>
<!-- Node2 -->
<g id="node3" class="node">
<title>Node2</title>
<g id="a_node3"><a xlink:href="../../d0/d91/Expressions_8h.html" target="_top" xlink:title="Framework/Expressions.h">
<polygon fill="none" stroke="#000000" points="1125.5,-369.5 1125.5,-388.5 1266.5,-388.5 1266.5,-369.5 1125.5,-369.5"/>
<text text-anchor="middle" x="1196" y="-376.5" font-family="Helvetica,sans-Serif" font-size="10.00" fill="#000000">Framework/Expressions.h</text>
</a>
</g>
</g>
<!-- Node1&#45;&gt;Node2 -->
<g id="edge2" class="edge">
<title>Node1&#45;&gt;Node2</title>
<path fill="none" stroke="#191970" d="M1196,-425.2455C1196,-417.9382 1196,-407.6944 1196,-398.7046"/>
<polygon fill="#191970" stroke="#191970" points="1199.5001,-398.6426 1196,-388.6427 1192.5001,-398.6427 1199.5001,-398.6426"/>
</g>
<!-- Node18 -->
<g id="node19" class="node">
<title>Node18</title>
<polygon fill="none" stroke="#bfbfbf" points="164.5,-.5 164.5,-19.5 213.5,-19.5 213.5,-.5 164.5,-.5"/>
<text text-anchor="middle" x="189" y="-7.5" font-family="Helvetica,sans-Serif" font-size="10.00" fill="#000000">iosfwd</text>
</g>
<!-- Node1&#45;&gt;Node18 -->
<g id="edge60" class="edge">
<title>Node1&#45;&gt;Node18</title>
<path fill="none" stroke="#191970" d="M1124.4269,-434.0719C886.9427,-430.7245 137.5904,-417.9091 95,-389 -26.8751,-306.2747 125.8486,-90.9524 174.8353,-27.7103"/>
<polygon fill="#191970" stroke="#191970" points="177.602,-29.854 181.0196,-19.8255 172.0941,-25.5339 177.602,-29.854"/>
</g>
<!-- Node26 -->
<g id="node27" class="node">
<title>Node26</title>
<polygon fill="none" stroke="#bfbfbf" points="870.5,-118 870.5,-137 917.5,-137 917.5,-118 870.5,-118"/>
<text text-anchor="middle" x="894" y="-125" font-family="Helvetica,sans-Serif" font-size="10.00" fill="#000000">vector</text>
</g>
<!-- Node1&#45;&gt;Node26 -->
<g id="edge59" class="edge">
<title>Node1&#45;&gt;Node26</title>
<path fill="none" stroke="#191970" d="M1124.2571,-431.0819C938.1974,-420.1922 451.2942,-386.7757 404,-333 378.4644,-303.9648 379.8506,-276.198 404,-246 406.0318,-243.4593 857.9227,-144.0554 861,-143 862.6465,-142.4353 864.3201,-141.8131 865.9959,-141.1522"/>
<polygon fill="#191970" stroke="#191970" points="867.65,-144.2505 875.4457,-137.0756 864.8772,-137.823 867.65,-144.2505"/>
</g>
<!-- Node1&#45;&gt;Node44 -->
<g id="edge61" class="edge">
<title>Node1&#45;&gt;Node44</title>
<path fill="none" stroke="#191970" d="M1218.004,-425.3733C1238.6435,-416.3435 1269.7158,-402.7494 1292.8889,-392.6111"/>
<polygon fill="#191970" stroke="#191970" points="1294.5245,-395.7159 1302.2831,-388.5011 1291.7187,-389.3028 1294.5245,-395.7159"/>
</g>
<!-- Node3 -->
<g id="node4" class="node">
<title>Node3</title>
<g id="a_node4"><a xlink:href="../../dd/dc2/BasicOps_8h.html" target="_top" xlink:title="Framework/BasicOps.h">
<polygon fill="none" stroke="#000000" points="1843,-313.5 1843,-332.5 1971,-332.5 1971,-313.5 1843,-313.5"/>
<text text-anchor="middle" x="1907" y="-320.5" font-family="Helvetica,sans-Serif" font-size="10.00" fill="#000000">Framework/BasicOps.h</text>
</a>
</g>
</g>
<!-- Node2&#45;&gt;Node3 -->
<g id="edge3" class="edge">
<title>Node2&#45;&gt;Node3</title>
<path fill="none" stroke="#191970" d="M1266.6113,-369.843C1269.443,-369.5452 1272.2476,-369.2626 1275,-369 1519.5665,-345.6683 1584.585,-357.5856 1832.8862,-333.0441"/>
<polygon fill="#191970" stroke="#191970" points="1833.334,-336.5168 1842.9369,-332.0408 1832.6386,-329.5515 1833.334,-336.5168"/>
</g>
<!-- Node4 -->
<g id="node5" class="node">
<title>Node4</title>
<g id="a_node5"><a xlink:href="../../d9/de8/CompilerBuiltins_8h.html" target="_top" xlink:title="Framework/CompilerBuiltins.h">
<polygon fill="none" stroke="#000000" points="79,-313.5 79,-332.5 243,-332.5 243,-313.5 79,-313.5"/>
<text text-anchor="middle" x="161" y="-320.5" font-family="Helvetica,sans-Serif" font-size="10.00" fill="#000000">Framework/CompilerBuiltins.h</text>
</a>
</g>
</g>
<!-- Node2&#45;&gt;Node4 -->
<g id="edge4" class="edge">
<title>Node2&#45;&gt;Node4</title>
<path fill="none" stroke="#191970" d="M1125.2409,-376.8597C968.6194,-371.8315 580.8538,-357.7812 257,-333 255.7312,-332.9029 254.4533,-332.8028 253.1678,-332.6999"/>
<polygon fill="#191970" stroke="#191970" points="253.4505,-329.2114 243.1923,-331.8611 252.8639,-336.1868 253.4505,-329.2114"/>
</g>
<!-- Node5 -->
<g id="node6" class="node">
<title>Node5</title>
<g id="a_node6"><a xlink:href="../../dd/dce/Pack_8h.html" target="_top" xlink:title="Framework/Pack.h">
<polygon fill="none" stroke="#000000" points="2185.5,-313.5 2185.5,-332.5 2290.5,-332.5 2290.5,-313.5 2185.5,-313.5"/>
<text text-anchor="middle" x="2238" y="-320.5" font-family="Helvetica,sans-Serif" font-size="10.00" fill="#000000">Framework/Pack.h</text>
</a>
</g>
</g>
<!-- Node2&#45;&gt;Node5 -->
<g id="edge5" class="edge">
<title>Node2&#45;&gt;Node5</title>
<path fill="none" stroke="#191970" d="M1266.6036,-369.7575C1269.4375,-369.4833 1272.2446,-369.229 1275,-369 1671.0716,-336.0809 1775.5073,-372.3669 2175.1925,-332.9484"/>
<polygon fill="#191970" stroke="#191970" points="2175.6874,-336.4165 2185.2913,-331.9426 2174.9936,-329.451 2175.6874,-336.4165"/>
</g>
<!-- Node9 -->
<g id="node10" class="node">
<title>Node9</title>
<g id="a_node10"><a xlink:href="../../d1/d00/CheckTypes_8h.html" target="_top" xlink:title="Framework/CheckTypes.h">
<polygon fill="none" stroke="#000000" points="2027,-313.5 2027,-332.5 2167,-332.5 2167,-313.5 2027,-313.5"/>
<text text-anchor="middle" x="2097" y="-320.5" font-family="Helvetica,sans-Serif" font-size="10.00" fill="#000000">Framework/CheckTypes.h</text>
</a>
</g>
</g>
<!-- Node2&#45;&gt;Node9 -->
<g id="edge9" class="edge">
<title>Node2&#45;&gt;Node9</title>
<path fill="none" stroke="#191970" d="M1266.6063,-369.7884C1269.4394,-369.5057 1272.2456,-369.2411 1275,-369 1602.1386,-340.359 1685.7573,-360.4266 2013,-333 2014.276,-332.8931 2015.5625,-332.7818 2016.8573,-332.6666"/>
<polygon fill="#191970" stroke="#191970" points="2017.2854,-336.1419 2026.9108,-331.7144 2016.6253,-329.173 2017.2854,-336.1419"/>
</g>
<!-- Node10 -->
<g id="node11" class="node">
<title>Node10</title>
<g id="a_node11"><a xlink:href="../../d9/dff/Configurable_8h.html" target="_top" xlink:title="Framework/Configurable.h">
<polygon fill="none" stroke="#000000" points="2347,-56.5 2347,-75.5 2491,-75.5 2491,-56.5 2347,-56.5"/>
<text text-anchor="middle" x="2419" y="-63.5" font-family="Helvetica,sans-Serif" font-size="10.00" fill="#000000">Framework/Configurable.h</text>
</a>
</g>
</g>
<!-- Node2&#45;&gt;Node10 -->
<g id="edge10" class="edge">
<title>Node2&#45;&gt;Node10</title>
<path fill="none" stroke="#191970" d="M1266.6019,-369.7367C1269.4362,-369.4682 1272.2439,-369.2209 1275,-369 1333.6239,-364.3022 2285.8442,-368.1448 2333,-333 2359.8768,-312.9689 2357,-295.0202 2357,-261.5 2357,-261.5 2357,-261.5 2357,-194.5 2357,-151.2308 2385.868,-107.1806 2404.2073,-83.5619"/>
<polygon fill="#191970" stroke="#191970" points="2407.1054,-85.5428 2410.6384,-75.5544 2401.6477,-81.1595 2407.1054,-85.5428"/>
</g>
<!-- Node11 -->
<g id="node12" class="node">
<title>Node11</title>
<polygon fill="none" stroke="#bfbfbf" points="943,-.5 943,-19.5 987,-19.5 987,-.5 943,-.5"/>
<text text-anchor="middle" x="965" y="-7.5" font-family="Helvetica,sans-Serif" font-size="10.00" fill="#000000">string</text>
</g>
<!-- Node2&#45;&gt;Node11 -->
<g id="edge57" class="edge">
<title>Node2&#45;&gt;Node11</title>
<path fill="none" stroke="#191970" d="M1266.6022,-369.7405C1269.4365,-369.471 1272.244,-369.2224 1275,-369 1331.795,-364.4175 2255.4476,-368.5212 2300,-333 2325.7094,-312.5022 2319,-294.3806 2319,-261.5 2319,-261.5 2319,-261.5 2319,-127.5 2319,-58.9363 1202.5069,-18.0045 997.2255,-11.0582"/>
<polygon fill="#191970" stroke="#191970" points="997.205,-7.5556 987.0932,-10.718 996.9701,-14.5516 997.205,-7.5556"/>
</g>
<!-- Node12 -->
<g id="node13" class="node">
<title>Node12</title>
<g id="a_node13"><a xlink:href="../../de/d56/Variant_8h.html" target="_top" xlink:title="Framework/Variant.h">
<polygon fill="none" stroke="#000000" points="377.5,-56.5 377.5,-75.5 494.5,-75.5 494.5,-56.5 377.5,-56.5"/>
<text text-anchor="middle" x="436" y="-63.5" font-family="Helvetica,sans-Serif" font-size="10.00" fill="#000000">Framework/Variant.h</text>
</a>
</g>
</g>
<!-- Node2&#45;&gt;Node12 -->
<g id="edge12" class="edge">
<title>Node2&#45;&gt;Node12</title>
<path fill="none" stroke="#191970" d="M1125.2423,-377.3689C933.1031,-372.6243 414.1702,-357.5853 387,-333 313.5005,-266.4928 307.5969,-197.9343 357,-112 365.3705,-97.4399 380.3194,-87.0571 394.978,-79.8859"/>
<polygon fill="#191970" stroke="#191970" points="396.7991,-82.9055 404.4968,-75.6256 393.9395,-76.5162 396.7991,-82.9055"/>
</g>
<!-- Node2&#45;&gt;Node13 -->
<g id="edge46" class="edge">
<title>Node2&#45;&gt;Node13</title>
<path fill="none" stroke="#191970" d="M1125.445,-378.1554C937.1914,-375.4726 432.6789,-365.3203 365,-333 219.8881,-263.7012 114.3148,-86.539 82.7702,-28.6264"/>
<polygon fill="#191970" stroke="#191970" points="85.7055,-26.694 77.8964,-19.5338 79.536,-30.001 85.7055,-26.694"/>
</g>
<!-- Node21 -->
<g id="node22" class="node">
<title>Node21</title>
<g id="a_node22"><a xlink:href="../../d4/d2b/InitContext_8h.html" target="_top" xlink:title="Framework/InitContext.h">
<polygon fill="none" stroke="#000000" points="613.5,-313.5 613.5,-332.5 750.5,-332.5 750.5,-313.5 613.5,-313.5"/>
<text text-anchor="middle" x="682" y="-320.5" font-family="Helvetica,sans-Serif" font-size="10.00" fill="#000000">Framework/InitContext.h</text>
</a>
</g>
</g>
<!-- Node2&#45;&gt;Node21 -->
<g id="edge22" class="edge">
<title>Node2&#45;&gt;Node21</title>
<path fill="none" stroke="#191970" d="M1125.1721,-372.0779C1040.8002,-363.712 895.3109,-348.9077 760.9053,-333.2045"/>
<polygon fill="#191970" stroke="#191970" points="761.1763,-329.7124 750.8367,-332.024 760.3611,-336.6647 761.1763,-329.7124"/>
</g>
<!-- Node22 -->
<g id="node23" class="node">
<title>Node22</title>
<g id="a_node23"><a xlink:href="../../de/dc6/ConfigParamRegistry_8h.html" target="_top" xlink:title="Framework/ConfigParamRegistry.h">
<polygon fill="none" stroke="#000000" points="413,-313.5 413,-332.5 595,-332.5 595,-313.5 413,-313.5"/>
<text text-anchor="middle" x="504" y="-320.5" font-family="Helvetica,sans-Serif" font-size="10.00" fill="#000000">Framework/ConfigParamRegistry.h</text>
</a>
</g>
</g>
<!-- Node2&#45;&gt;Node22 -->
<g id="edge23" class="edge">
<title>Node2&#45;&gt;Node22</title>
<path fill="none" stroke="#191970" d="M1125.3342,-374.0168C1016.1842,-366.2073 799.7264,-350.2734 605.1396,-333.0849"/>
<polygon fill="#191970" stroke="#191970" points="605.2803,-329.5837 595.0103,-332.1872 604.6623,-336.5564 605.2803,-329.5837"/>
</g>
<!-- Node29 -->
<g id="node30" class="node">
<title>Node29</title>
<polygon fill="none" stroke="#bfbfbf" points="1492,-252 1492,-271 1550,-271 1550,-252 1492,-252"/>
<text text-anchor="middle" x="1521" y="-259" font-family="Helvetica,sans-Serif" font-size="10.00" fill="#000000">memory</text>
</g>
<!-- Node2&#45;&gt;Node29 -->
<g id="edge58" class="edge">
<title>Node2&#45;&gt;Node29</title>
<path fill="none" stroke="#191970" d="M1266.607,-369.7964C1269.4399,-369.5114 1272.2459,-369.2443 1275,-369 1314.0643,-365.5351 1952.9853,-361.4294 1980,-333 1986.123,-326.5563 1985.9246,-319.6265 1980,-313 1952.194,-281.8997 1666.2832,-267.3307 1560.2701,-262.9677"/>
<polygon fill="#191970" stroke="#191970" points="1560.1346,-259.4595 1550.0018,-262.554 1559.8528,-266.4538 1560.1346,-259.4595"/>
</g>
<!-- Node31 -->
<g id="node32" class="node">
<title>Node31</title>
<g id="a_node32"><a xlink:href="../../da/d88/RootConfigParamHelpers_8h.html" target="_top" xlink:title="Framework/RootConfigParam\lHelpers.h">
<polygon fill="none" stroke="#000000" points="391.5,-179.5 391.5,-209.5 548.5,-209.5 548.5,-179.5 391.5,-179.5"/>
<text text-anchor="start" x="399.5" y="-197.5" font-family="Helvetica,sans-Serif" font-size="10.00" fill="#000000">Framework/RootConfigParam</text>
<text text-anchor="middle" x="470" y="-186.5" font-family="Helvetica,sans-Serif" font-size="10.00" fill="#000000">Helpers.h</text>
</a>
</g>
</g>
<!-- Node2&#45;&gt;Node31 -->
<g id="edge39" class="edge">
<title>Node2&#45;&gt;Node31</title>
<path fill="none" stroke="#191970" d="M1125.1603,-377.494C935.4502,-373.1173 428.5618,-359.0298 404,-333 377.463,-304.877 387.039,-280.7482 404,-246 410.0455,-233.6145 420.6683,-223.3382 431.6477,-215.3081"/>
<polygon fill="#191970" stroke="#191970" points="433.7364,-218.1205 440.0434,-209.6075 429.8042,-212.3293 433.7364,-218.1205"/>
</g>
<!-- Node34 -->
<g id="node35" class="node">
<title>Node34</title>
<polygon fill="none" stroke="#bfbfbf" points="768.5,-313.5 768.5,-332.5 869.5,-332.5 869.5,-313.5 768.5,-313.5"/>
<text text-anchor="middle" x="819" y="-320.5" font-family="Helvetica,sans-Serif" font-size="10.00" fill="#000000">arrow/type_fwd.h</text>
</g>
<!-- Node2&#45;&gt;Node34 -->
<g id="edge47" class="edge">
<title>Node2&#45;&gt;Node34</title>
<path fill="none" stroke="#191970" d="M1127.6079,-369.4993C1065.623,-360.7917 971.484,-347.3271 879.7439,-333.0906"/>
<polygon fill="#191970" stroke="#191970" points="880.1462,-329.6112 869.7269,-331.5315 879.0696,-336.5279 880.1462,-329.6112"/>
</g>
<!-- Node35 -->
<g id="node36" class="node">
<title>Node35</title>
<polygon fill="none" stroke="#bfbfbf" points="888,-313.5 888,-332.5 1034,-332.5 1034,-313.5 888,-313.5"/>
<text text-anchor="middle" x="961" y="-320.5" font-family="Helvetica,sans-Serif" font-size="10.00" fill="#000000">gandiva/gandiva_aliases.h</text>
</g>
<!-- Node2&#45;&gt;Node35 -->
<g id="edge48" class="edge">
<title>Node2&#45;&gt;Node35</title>
<path fill="none" stroke="#191970" d="M1155.8691,-369.4369C1115.7351,-359.8731 1053.9225,-345.1432 1010.7067,-334.845"/>
<polygon fill="#191970" stroke="#191970" points="1011.5044,-331.4372 1000.9654,-332.5237 1009.8817,-338.2465 1011.5044,-331.4372"/>
</g>
<!-- Node36 -->
<g id="node37" class="node">
<title>Node36</title>
<polygon fill="none" stroke="#bfbfbf" points="1052,-313.5 1052,-332.5 1130,-332.5 1130,-313.5 1052,-313.5"/>
<text text-anchor="middle" x="1091" y="-320.5" font-family="Helvetica,sans-Serif" font-size="10.00" fill="#000000">arrow/type.h</text>
</g>
<!-- Node2&#45;&gt;Node36 -->
<g id="edge49" class="edge">
<title>Node2&#45;&gt;Node36</title>
<path fill="none" stroke="#191970" d="M1177.7104,-369.2455C1161.2238,-360.4527 1136.7648,-347.4079 1118.0235,-337.4125"/>
<polygon fill="#191970" stroke="#191970" points="1119.5506,-334.2604 1109.08,-332.6427 1116.2565,-340.4368 1119.5506,-334.2604"/>
</g>
<!-- Node37 -->
<g id="node38" class="node">
<title>Node37</title>
<polygon fill="none" stroke="#bfbfbf" points="1148.5,-313.5 1148.5,-332.5 1243.5,-332.5 1243.5,-313.5 1148.5,-313.5"/>
<text text-anchor="middle" x="1196" y="-320.5" font-family="Helvetica,sans-Serif" font-size="10.00" fill="#000000">gandiva/arrow.h</text>
</g>
<!-- Node2&#45;&gt;Node37 -->
<g id="edge50" class="edge">
<title>Node2&#45;&gt;Node37</title>
<path fill="none" stroke="#191970" d="M1196,-369.2455C1196,-361.9382 1196,-351.6944 1196,-342.7046"/>
<polygon fill="#191970" stroke="#191970" points="1199.5001,-342.6426 1196,-332.6427 1192.5001,-342.6427 1199.5001,-342.6426"/>
</g>
<!-- Node2&#45;&gt;Node38 -->
<g id="edge51" class="edge">
<title>Node2&#45;&gt;Node38</title>
<path fill="none" stroke="#191970" d="M1266.6016,-369.7325C1269.436,-369.4652 1272.2438,-369.2192 1275,-369 1760.8393,-330.3559 1886.3795,-384.7317 2371,-333 2372.3028,-332.8609 2373.6211,-332.7087 2374.9498,-332.5451"/>
<polygon fill="#191970" stroke="#191970" points="2375.8339,-335.9554 2385.2495,-331.0979 2374.8598,-329.0235 2375.8339,-335.9554"/>
</g>
<!-- Node39 -->
<g id="node40" class="node">
<title>Node39</title>
<polygon fill="none" stroke="#bfbfbf" points="1261.5,-313.5 1261.5,-332.5 1408.5,-332.5 1408.5,-313.5 1261.5,-313.5"/>
<text text-anchor="middle" x="1335" y="-320.5" font-family="Helvetica,sans-Serif" font-size="10.00" fill="#000000">gandiva/selection_vector.h</text>
</g>
<!-- Node2&#45;&gt;Node39 -->
<g id="edge52" class="edge">
<title>Node2&#45;&gt;Node39</title>
<path fill="none" stroke="#191970" d="M1219.895,-369.3733C1242.5082,-360.2629 1276.6542,-346.5062 1301.8873,-336.3404"/>
<polygon fill="#191970" stroke="#191970" points="1303.4493,-339.4845 1311.4169,-332.5011 1300.8334,-332.9917 1303.4493,-339.4845"/>
</g>
<!-- Node40 -->
<g id="node41" class="node">
<title>Node40</title>
<polygon fill="none" stroke="#bfbfbf" points="1427,-313.5 1427,-332.5 1519,-332.5 1519,-313.5 1427,-313.5"/>
<text text-anchor="middle" x="1473" y="-320.5" font-family="Helvetica,sans-Serif" font-size="10.00" fill="#000000">gandiva/node.h</text>
</g>
<!-- Node2&#45;&gt;Node40 -->
<g id="edge53" class="edge">
<title>Node2&#45;&gt;Node40</title>
<path fill="none" stroke="#191970" d="M1243.3033,-369.4369C1291.3978,-359.7138 1365.9035,-344.6513 1416.9356,-334.3343"/>
<polygon fill="#191970" stroke="#191970" points="1417.7062,-337.7494 1426.8143,-332.3372 1416.319,-330.8882 1417.7062,-337.7494"/>
</g>
<!-- Node41 -->
<g id="node42" class="node">
<title>Node41</title>
<polygon fill="none" stroke="#bfbfbf" points="1537.5,-313.5 1537.5,-332.5 1626.5,-332.5 1626.5,-313.5 1537.5,-313.5"/>
<text text-anchor="middle" x="1582" y="-320.5" font-family="Helvetica,sans-Serif" font-size="10.00" fill="#000000">gandiva/filter.h</text>
</g>
<!-- Node2&#45;&gt;Node41 -->
<g id="edge54" class="edge">
<title>Node2&#45;&gt;Node41</title>
<path fill="none" stroke="#191970" d="M1266.6984,-369.5884C1344.3005,-359.1937 1465.0575,-342.8145 1527.0828,-333.0727"/>
<polygon fill="#191970" stroke="#191970" points="1527.9152,-336.4843 1537.2381,-331.4511 1526.8113,-329.5718 1527.9152,-336.4843"/>
</g>
<!-- Node42 -->
<g id="node43" class="node">
<title>Node42</title>
<polygon fill="none" stroke="#bfbfbf" points="1645,-313.5 1645,-332.5 1755,-332.5 1755,-313.5 1645,-313.5"/>
<text text-anchor="middle" x="1700" y="-320.5" font-family="Helvetica,sans-Serif" font-size="10.00" fill="#000000">gandiva/projector.h</text>
</g>
<!-- Node2&#45;&gt;Node42 -->
<g id="edge55" class="edge">
<title>Node2&#45;&gt;Node42</title>
<path fill="none" stroke="#191970" d="M1266.6241,-369.966C1269.4523,-369.6341 1272.2526,-369.3108 1275,-369 1431.9325,-351.2458 1474.3369,-353.3567 1634.6434,-333.1145"/>
<polygon fill="#191970" stroke="#191970" points="1635.3915,-336.5477 1644.8697,-331.8133 1634.5079,-329.6037 1635.3915,-336.5477"/>
</g>
<!-- Node43 -->
<g id="node44" class="node">
<title>Node43</title>
<polygon fill="none" stroke="#bfbfbf" points="1773.5,-313.5 1773.5,-332.5 1824.5,-332.5 1824.5,-313.5 1773.5,-313.5"/>
<text text-anchor="middle" x="1799" y="-320.5" font-family="Helvetica,sans-Serif" font-size="10.00" fill="#000000">variant</text>
</g>
<!-- Node2&#45;&gt;Node43 -->
<g id="edge56" class="edge">
<title>Node2&#45;&gt;Node43</title>
<path fill="none" stroke="#191970" d="M1266.6144,-369.8752C1269.4453,-369.5685 1272.2488,-369.2752 1275,-369 1488.5571,-347.6376 1547.6606,-370.4228 1763.0994,-332.8036"/>
<polygon fill="#191970" stroke="#191970" points="1763.9078,-336.2151 1773.1448,-331.0259 1762.6879,-329.3222 1763.9078,-336.2151"/>
</g>
<!-- Node6 -->
<g id="node7" class="node">
<title>Node6</title>
<polygon fill="none" stroke="#bfbfbf" points="2174.5,-252 2174.5,-271 2227.5,-271 2227.5,-252 2174.5,-252"/>
<text text-anchor="middle" x="2201" y="-259" font-family="Helvetica,sans-Serif" font-size="10.00" fill="#000000">cstddef</text>
</g>
<!-- Node5&#45;&gt;Node6 -->
<g id="edge6" class="edge">
<title>Node5&#45;&gt;Node6</title>
<path fill="none" stroke="#191970" d="M2232.2188,-313.3906C2226.874,-304.5068 2218.7841,-291.0601 2212.1789,-280.0811"/>
<polygon fill="#191970" stroke="#191970" points="2215.0171,-278.0093 2206.8628,-271.2449 2209.0189,-281.618 2215.0171,-278.0093"/>
</g>
<!-- Node7 -->
<g id="node8" class="node">
<title>Node7</title>
<polygon fill="none" stroke="#bfbfbf" points="2245.5,-252 2245.5,-271 2290.5,-271 2290.5,-252 2245.5,-252"/>
<text text-anchor="middle" x="2268" y="-259" font-family="Helvetica,sans-Serif" font-size="10.00" fill="#000000">utility</text>
</g>
<!-- Node5&#45;&gt;Node7 -->
<g id="edge7" class="edge">
<title>Node5&#45;&gt;Node7</title>
<path fill="none" stroke="#191970" d="M2242.6875,-313.3906C2246.9773,-304.5965 2253.4482,-291.3312 2258.7734,-280.4145"/>
<polygon fill="#191970" stroke="#191970" points="2262.0078,-281.7671 2263.2464,-271.2449 2255.7164,-278.6981 2262.0078,-281.7671"/>
</g>
<!-- Node8 -->
<g id="node9" class="node">
<title>Node8</title>
<polygon fill="none" stroke="#bfbfbf" points="2110,-252 2110,-271 2156,-271 2156,-252 2110,-252"/>
<text text-anchor="middle" x="2133" y="-259" font-family="Helvetica,sans-Serif" font-size="10.00" fill="#000000">cstdio</text>
</g>
<!-- Node5&#45;&gt;Node8 -->
<g id="edge8" class="edge">
<title>Node5&#45;&gt;Node8</title>
<path fill="none" stroke="#191970" d="M2221.5938,-313.3906C2204.5647,-303.4165 2177.7159,-287.6908 2158.0349,-276.1633"/>
<polygon fill="#191970" stroke="#191970" points="2159.6888,-273.0759 2149.291,-271.0419 2156.151,-279.1161 2159.6888,-273.0759"/>
</g>
<!-- Node10&#45;&gt;Node11 -->
<g id="edge11" class="edge">
<title>Node10&#45;&gt;Node11</title>
<path fill="none" stroke="#191970" d="M2346.7801,-57.1665C2342.1206,-56.7314 2337.4968,-56.3365 2333,-56 1800.6935,-16.17 1149.2755,-10.8214 997.6141,-10.1087"/>
<polygon fill="#191970" stroke="#191970" points="997.1919,-6.6069 987.1768,-10.0634 997.1615,-13.6068 997.1919,-6.6069"/>
</g>
<!-- Node12&#45;&gt;Node11 -->
<g id="edge21" class="edge">
<title>Node12&#45;&gt;Node11</title>
<path fill="none" stroke="#191970" d="M494.6335,-59.7931C606.3207,-47.9698 846.1697,-22.5794 932.8848,-13.3997"/>
<polygon fill="#191970" stroke="#191970" points="933.3396,-16.8712 942.9156,-12.3379 932.6027,-9.9101 933.3396,-16.8712"/>
</g>
<!-- Node12&#45;&gt;Node13 -->
<g id="edge13" class="edge">
<title>Node12&#45;&gt;Node13</title>
<path fill="none" stroke="#191970" d="M377.2743,-56.9404C313.9087,-47.165 212.9582,-31.5914 144.8907,-21.0906"/>
<polygon fill="#191970" stroke="#191970" points="145.0943,-17.5807 134.6776,-19.515 144.027,-24.4988 145.0943,-17.5807"/>
</g>
<!-- Node14 -->
<g id="node15" class="node">
<title>Node14</title>
<polygon fill="none" stroke="#bfbfbf" points="627.5,-.5 627.5,-19.5 696.5,-19.5 696.5,-.5 627.5,-.5"/>
<text text-anchor="middle" x="662" y="-7.5" font-family="Helvetica,sans-Serif" font-size="10.00" fill="#000000">type_traits</text>
</g>
<!-- Node12&#45;&gt;Node14 -->
<g id="edge14" class="edge">
<title>Node12&#45;&gt;Node14</title>
<path fill="none" stroke="#191970" d="M474.594,-56.4369C514.1931,-46.6247 575.7373,-31.3748 617.3975,-21.052"/>
<polygon fill="#191970" stroke="#191970" points="618.4088,-24.4073 627.2734,-18.6048 616.7251,-17.6128 618.4088,-24.4073"/>
</g>
<!-- Node15 -->
<g id="node16" class="node">
<title>Node15</title>
<polygon fill="none" stroke="#bfbfbf" points="491,-.5 491,-19.5 541,-19.5 541,-.5 491,-.5"/>
<text text-anchor="middle" x="516" y="-7.5" font-family="Helvetica,sans-Serif" font-size="10.00" fill="#000000">cstring</text>
</g>
<!-- Node12&#45;&gt;Node15 -->
<g id="edge15" class="edge">
<title>Node12&#45;&gt;Node15</title>
<path fill="none" stroke="#191970" d="M449.9349,-56.2455C462.0947,-47.7337 479.9464,-35.2375 494.0285,-25.3801"/>
<polygon fill="#191970" stroke="#191970" points="496.0395,-28.2447 502.2248,-19.6427 492.0253,-22.51 496.0395,-28.2447"/>
</g>
<!-- Node16 -->
<g id="node17" class="node">
<title>Node16</title>
<polygon fill="none" stroke="#bfbfbf" points="559,-.5 559,-19.5 609,-19.5 609,-.5 559,-.5"/>
<text text-anchor="middle" x="584" y="-7.5" font-family="Helvetica,sans-Serif" font-size="10.00" fill="#000000">cstdint</text>
</g>
<!-- Node12&#45;&gt;Node16 -->
<g id="edge16" class="edge">
<title>Node12&#45;&gt;Node16</title>
<path fill="none" stroke="#191970" d="M461.4421,-56.3733C485.7326,-47.1822 522.5208,-33.2624 549.4543,-23.0713"/>
<polygon fill="#191970" stroke="#191970" points="550.7757,-26.3136 558.8899,-19.5011 548.2984,-19.7666 550.7757,-26.3136"/>
</g>
<!-- Node17 -->
<g id="node18" class="node">
<title>Node17</title>
<polygon fill="none" stroke="#bfbfbf" points="231.5,-.5 231.5,-19.5 280.5,-19.5 280.5,-.5 231.5,-.5"/>
<text text-anchor="middle" x="256" y="-7.5" font-family="Helvetica,sans-Serif" font-size="10.00" fill="#000000">cstdlib</text>
</g>
<!-- Node12&#45;&gt;Node17 -->
<g id="edge17" class="edge">
<title>Node12&#45;&gt;Node17</title>
<path fill="none" stroke="#191970" d="M405.0569,-56.3733C373.1742,-46.4542 323.5882,-31.0275 290.4698,-20.7239"/>
<polygon fill="#191970" stroke="#191970" points="291.3465,-17.3313 280.7582,-17.7026 289.267,-24.0153 291.3465,-17.3313"/>
</g>
<!-- Node12&#45;&gt;Node18 -->
<g id="edge18" class="edge">
<title>Node12&#45;&gt;Node18</title>
<path fill="none" stroke="#191970" d="M385.9994,-56.4662C344.6653,-48.3109 284.2576,-35.7649 223.5476,-20.2682"/>
<polygon fill="#191970" stroke="#191970" points="224.3615,-16.8637 213.8043,-17.756 222.6137,-23.642 224.3615,-16.8637"/>
</g>
<!-- Node19 -->
<g id="node20" class="node">
<title>Node19</title>
<polygon fill="none" stroke="#bfbfbf" points="298.5,-.5 298.5,-19.5 381.5,-19.5 381.5,-.5 298.5,-.5"/>
<text text-anchor="middle" x="340" y="-7.5" font-family="Helvetica,sans-Serif" font-size="10.00" fill="#000000">initializer_list</text>
</g>
<!-- Node12&#45;&gt;Node19 -->
<g id="edge19" class="edge">
<title>Node12&#45;&gt;Node19</title>
<path fill="none" stroke="#191970" d="M419.2781,-56.2455C404.4111,-47.5731 382.4534,-34.7645 365.4142,-24.825"/>
<polygon fill="#191970" stroke="#191970" points="366.9317,-21.6582 356.5303,-19.6427 363.4045,-27.7047 366.9317,-21.6582"/>
</g>
<!-- Node20 -->
<g id="node21" class="node">
<title>Node20</title>
<polygon fill="none" stroke="#bfbfbf" points="399.5,-.5 399.5,-19.5 472.5,-19.5 472.5,-.5 399.5,-.5"/>
<text text-anchor="middle" x="436" y="-7.5" font-family="Helvetica,sans-Serif" font-size="10.00" fill="#000000">string_view</text>
</g>
<!-- Node12&#45;&gt;Node20 -->
<g id="edge20" class="edge">
<title>Node12&#45;&gt;Node20</title>
<path fill="none" stroke="#191970" d="M436,-56.2455C436,-48.9382 436,-38.6944 436,-29.7046"/>
<polygon fill="#191970" stroke="#191970" points="439.5001,-29.6426 436,-19.6427 432.5001,-29.6427 439.5001,-29.6426"/>
</g>
<!-- Node22&#45;&gt;Node11 -->
<g id="edge37" class="edge">
<title>Node22&#45;&gt;Node11</title>
<path fill="none" stroke="#191970" d="M589.3874,-313.4872C667.0969,-304.2777 775.7753,-289.86 817,-277 896.0292,-252.3469 984,-277.2852 984,-194.5 984,-194.5 984,-194.5 984,-127.5 984,-92.6936 975.7747,-52.8226 970.1479,-29.6197"/>
<polygon fill="#191970" stroke="#191970" points="973.477,-28.5065 967.6419,-19.6633 966.6887,-30.2152 973.477,-28.5065"/>
</g>
<!-- Node23 -->
<g id="node24" class="node">
<title>Node23</title>
<g id="a_node24"><a xlink:href="../../df/d72/ParamRetriever_8h.html" target="_top" xlink:title="Framework/ParamRetriever.h">
<polygon fill="none" stroke="#000000" points="734.5,-185 734.5,-204 891.5,-204 891.5,-185 734.5,-185"/>
<text text-anchor="middle" x="813" y="-192" font-family="Helvetica,sans-Serif" font-size="10.00" fill="#000000">Framework/ParamRetriever.h</text>
</a>
</g>
</g>
<!-- Node22&#45;&gt;Node23 -->
<g id="edge24" class="edge">
<title>Node22&#45;&gt;Node23</title>
<path fill="none" stroke="#191970" d="M595.1456,-313.6788C674.6215,-304.7239 779.4419,-290.5861 794,-277 811.0765,-261.0637 814.2736,-233.1209 814.2426,-214.2194"/>
<polygon fill="#191970" stroke="#191970" points="817.7353,-213.9334 813.9167,-204.0507 810.7389,-214.1576 817.7353,-213.9334"/>
</g>
<!-- Node27 -->
<g id="node28" class="node">
<title>Node27</title>
<g id="a_node28"><a xlink:href="../../dd/daf/ConfigParamStore_8h.html" target="_top" xlink:title="Framework/ConfigParamStore.h">
<polygon fill="none" stroke="#000000" points="615,-252 615,-271 785,-271 785,-252 615,-252"/>
<text text-anchor="middle" x="700" y="-259" font-family="Helvetica,sans-Serif" font-size="10.00" fill="#000000">Framework/ConfigParamStore.h</text>
</a>
</g>
</g>
<!-- Node22&#45;&gt;Node27 -->
<g id="edge31" class="edge">
<title>Node22&#45;&gt;Node27</title>
<path fill="none" stroke="#191970" d="M534.625,-313.3906C568.2824,-302.8298 622.4899,-285.8208 659.6059,-274.1747"/>
<polygon fill="#191970" stroke="#191970" points="661.0966,-277.3753 669.5901,-271.0419 659.0009,-270.6963 661.0966,-277.3753"/>
</g>
<!-- Node28 -->
<g id="node29" class="node">
<title>Node28</title>
<polygon fill="none" stroke="#bfbfbf" points="413.5,-246.5 413.5,-276.5 526.5,-276.5 526.5,-246.5 413.5,-246.5"/>
<text text-anchor="start" x="421.5" y="-264.5" font-family="Helvetica,sans-Serif" font-size="10.00" fill="#000000">boost/property_tree</text>
<text text-anchor="middle" x="470" y="-253.5" font-family="Helvetica,sans-Serif" font-size="10.00" fill="#000000">/ptree.hpp</text>
</g>
<!-- Node22&#45;&gt;Node28 -->
<g id="edge35" class="edge">
<title>Node22&#45;&gt;Node28</title>
<path fill="none" stroke="#191970" d="M498.6875,-313.3906C494.5547,-305.9151 488.6357,-295.2087 483.2464,-285.4605"/>
<polygon fill="#191970" stroke="#191970" points="486.2188,-283.6028 478.3173,-276.5446 480.0926,-286.9896 486.2188,-283.6028"/>
</g>
<!-- Node22&#45;&gt;Node29 -->
<g id="edge36" class="edge">
<title>Node22&#45;&gt;Node29</title>
<path fill="none" stroke="#191970" d="M595.0034,-313.7299C598.0375,-313.475 601.0429,-313.2308 604,-313 943.3954,-286.5124 1354.4844,-268.3858 1481.63,-263.097"/>
<polygon fill="#191970" stroke="#191970" points="1481.8253,-266.592 1491.672,-262.6814 1481.5358,-259.598 1481.8253,-266.592"/>
</g>
<!-- Node30 -->
<g id="node31" class="node">
<title>Node30</title>
<polygon fill="none" stroke="#bfbfbf" points="545,-252 545,-271 597,-271 597,-252 545,-252"/>
<text text-anchor="middle" x="571" y="-259" font-family="Helvetica,sans-Serif" font-size="10.00" fill="#000000">cassert</text>
</g>
<!-- Node22&#45;&gt;Node30 -->
<g id="edge38" class="edge">
<title>Node22&#45;&gt;Node30</title>
<path fill="none" stroke="#191970" d="M514.4688,-313.3906C524.7337,-303.9683 540.5903,-289.4134 552.9006,-278.1137"/>
<polygon fill="#191970" stroke="#191970" points="555.3834,-280.5856 560.3837,-271.2449 550.6499,-275.4287 555.3834,-280.5856"/>
</g>
<!-- Node23&#45;&gt;Node11 -->
<g id="edge29" class="edge">
<title>Node23&#45;&gt;Node11</title>
<path fill="none" stroke="#191970" d="M854.2822,-184.9192C878.3443,-177.3262 907.5005,-164.3407 926,-143 954.2596,-110.4002 962.065,-58.2243 964.2054,-29.8849"/>
<polygon fill="#191970" stroke="#191970" points="967.7146,-29.83 964.8062,-19.6422 960.7266,-29.4201 967.7146,-29.83"/>
</g>
<!-- Node24 -->
<g id="node25" class="node">
<title>Node24</title>
<g id="a_node25"><a xlink:href="../../d0/d1c/ConfigParamSpec_8h.html" target="_top" xlink:title="Framework/ConfigParamSpec.h">
<polygon fill="none" stroke="#000000" points="554.5,-118 554.5,-137 721.5,-137 721.5,-118 554.5,-118"/>
<text text-anchor="middle" x="638" y="-125" font-family="Helvetica,sans-Serif" font-size="10.00" fill="#000000">Framework/ConfigParamSpec.h</text>
</a>
</g>
</g>
<!-- Node23&#45;&gt;Node24 -->
<g id="edge25" class="edge">
<title>Node23&#45;&gt;Node24</title>
<path fill="none" stroke="#191970" d="M787.9268,-184.9005C757.6482,-173.3082 706.5597,-153.7486 672.5595,-140.7313"/>
<polygon fill="#191970" stroke="#191970" points="673.6171,-137.3886 663.0267,-137.0817 671.1142,-143.9258 673.6171,-137.3886"/>
</g>
<!-- Node25 -->
<g id="node26" class="node">
<title>Node25</title>
<polygon fill="none" stroke="#bfbfbf" points="739.5,-112.5 739.5,-142.5 852.5,-142.5 852.5,-112.5 739.5,-112.5"/>
<text text-anchor="start" x="747.5" y="-130.5" font-family="Helvetica,sans-Serif" font-size="10.00" fill="#000000">boost/property_tree</text>
<text text-anchor="middle" x="796" y="-119.5" font-family="Helvetica,sans-Serif" font-size="10.00" fill="#000000">/ptree_fwd.hpp</text>
</g>
<!-- Node23&#45;&gt;Node25 -->
<g id="edge28" class="edge">
<title>Node23&#45;&gt;Node25</title>
<path fill="none" stroke="#191970" d="M810.5643,-184.9005C808.4134,-176.4234 805.1814,-163.6856 802.3081,-152.3614"/>
<polygon fill="#191970" stroke="#191970" points="805.6634,-151.3538 799.8115,-142.5218 798.8784,-153.0754 805.6634,-151.3538"/>
</g>
<!-- Node23&#45;&gt;Node26 -->
<g id="edge30" class="edge">
<title>Node23&#45;&gt;Node26</title>
<path fill="none" stroke="#191970" d="M824.6053,-184.9005C837.5975,-174.1539 858.8673,-156.5603 874.4398,-143.6794"/>
<polygon fill="#191970" stroke="#191970" points="876.9414,-146.1524 882.4162,-137.0817 872.4798,-140.7585 876.9414,-146.1524"/>
</g>
<!-- Node24&#45;&gt;Node11 -->
<g id="edge27" class="edge">
<title>Node24&#45;&gt;Node11</title>
<path fill="none" stroke="#191970" d="M664.4828,-117.984C724.0889,-96.5659 868.599,-44.6395 933.05,-21.4805"/>
<polygon fill="#191970" stroke="#191970" points="934.454,-24.6952 942.6813,-18.0197 932.0868,-18.1076 934.454,-24.6952"/>
</g>
<!-- Node24&#45;&gt;Node12 -->
<g id="edge26" class="edge">
<title>Node24&#45;&gt;Node12</title>
<path fill="none" stroke="#191970" d="M606.4375,-117.8906C571.6015,-107.2846 515.405,-90.1753 477.1412,-78.5257"/>
<polygon fill="#191970" stroke="#191970" points="477.9267,-75.1063 467.3409,-75.5419 475.8879,-81.8028 477.9267,-75.1063"/>
</g>
<!-- Node27&#45;&gt;Node23 -->
<g id="edge32" class="edge">
<title>Node27&#45;&gt;Node23</title>
<path fill="none" stroke="#191970" d="M716.1901,-251.9005C734.9863,-240.7559 766.2016,-222.2477 788.0924,-209.2682"/>
<polygon fill="#191970" stroke="#191970" points="790.0233,-212.1924 796.8399,-204.0817 786.4531,-206.1712 790.0233,-212.1924"/>
</g>
<!-- Node27&#45;&gt;Node24 -->
<g id="edge33" class="edge">
<title>Node27&#45;&gt;Node24</title>
<path fill="none" stroke="#191970" d="M688.2295,-251.7344C677.5719,-242.2139 662.3077,-226.7552 654,-210 644.1113,-190.0561 640.3265,-164.5796 638.8823,-147.2499"/>
<polygon fill="#191970" stroke="#191970" points="642.3691,-146.9315 638.2307,-137.1784 635.3837,-147.3835 642.3691,-146.9315"/>
</g>
<!-- Node27&#45;&gt;Node25 -->
<g id="edge34" class="edge">
<title>Node27&#45;&gt;Node25</title>
<path fill="none" stroke="#191970" d="M700.9003,-251.9811C702.8476,-235.669 708.6806,-201.92 725,-179 733.6708,-166.8222 746.1326,-156.4108 758.2027,-148.2019"/>
<polygon fill="#191970" stroke="#191970" points="760.3536,-150.9797 766.8626,-142.6201 756.5611,-145.096 760.3536,-150.9797"/>
</g>
<!-- Node31&#45;&gt;Node13 -->
<g id="edge41" class="edge">
<title>Node31&#45;&gt;Node13</title>
<path fill="none" stroke="#191970" d="M436.8304,-179.4918C414.29,-169.2662 383.813,-155.388 357,-143 263.9041,-99.9882 154.0541,-48.2681 102.5046,-23.94"/>
<polygon fill="#191970" stroke="#191970" points="103.8214,-20.6913 93.2843,-19.5873 100.8331,-27.0214 103.8214,-20.6913"/>
</g>
<!-- Node31&#45;&gt;Node14 -->
<g id="edge44" class="edge">
<title>Node31&#45;&gt;Node14</title>
<path fill="none" stroke="#191970" d="M482.7795,-179.4161C497.3236,-162.4976 522.0439,-134.4835 545,-112 577.5782,-80.0926 618.2087,-45.8001 642.0117,-26.2171"/>
<polygon fill="#191970" stroke="#191970" points="644.4527,-28.7421 649.9738,-19.6995 640.0187,-23.3254 644.4527,-28.7421"/>
</g>
<!-- Node31&#45;&gt;Node24 -->
<g id="edge40" class="edge">
<title>Node31&#45;&gt;Node24</title>
<path fill="none" stroke="#191970" d="M507.7025,-179.4639C536.7795,-167.8677 576.62,-151.9789 604.5666,-140.8335"/>
<polygon fill="#191970" stroke="#191970" points="605.9265,-144.0594 613.9185,-137.1039 603.3334,-137.5574 605.9265,-144.0594"/>
</g>
<!-- Node31&#45;&gt;Node25 -->
<g id="edge43" class="edge">
<title>Node31&#45;&gt;Node25</title>
<path fill="none" stroke="#191970" d="M548.6539,-179.6658C597.8796,-170.2069 662.8548,-157.4058 729.33,-143.106"/>
<polygon fill="#191970" stroke="#191970" points="730.1114,-146.518 739.147,-140.9855 728.6334,-139.6758 730.1114,-146.518"/>
</g>
<!-- Node32 -->
<g id="node33" class="node">
<title>Node32</title>
<polygon fill="none" stroke="#bfbfbf" points="441.5,-118 441.5,-137 498.5,-137 498.5,-118 441.5,-118"/>
<text text-anchor="middle" x="470" y="-125" font-family="Helvetica,sans-Serif" font-size="10.00" fill="#000000">TClass.h</text>
</g>
<!-- Node31&#45;&gt;Node32 -->
<g id="edge42" class="edge">
<title>Node31&#45;&gt;Node32</title>
<path fill="none" stroke="#191970" d="M470,-179.2967C470,-169.7699 470,-157.3954 470,-147.1306"/>
<polygon fill="#191970" stroke="#191970" points="473.5001,-147.0549 470,-137.055 466.5001,-147.055 473.5001,-147.0549"/>
</g>
<!-- Node33 -->
<g id="node34" class="node">
<title>Node33</title>
<polygon fill="none" stroke="#bfbfbf" points="366.5,-118 366.5,-137 423.5,-137 423.5,-118 366.5,-118"/>
<text text-anchor="middle" x="395" y="-125" font-family="Helvetica,sans-Serif" font-size="10.00" fill="#000000">typeinfo</text>
</g>
<!-- Node31&#45;&gt;Node33 -->
<g id="edge45" class="edge">
<title>Node31&#45;&gt;Node33</title>
<path fill="none" stroke="#191970" d="M452.9813,-179.2967C441.1825,-168.7564 425.4816,-154.7303 413.3943,-143.9323"/>
<polygon fill="#191970" stroke="#191970" points="415.4853,-141.107 405.6959,-137.055 410.8217,-146.3273 415.4853,-141.107"/>
</g>
<!-- Node45&#45;&gt;Node4 -->
<g id="edge63" class="edge">
<title>Node45&#45;&gt;Node4</title>
<path fill="none" stroke="#191970" d="M178.3421,-369.2455C175.5416,-361.7776 171.591,-351.2427 168.1676,-342.1137"/>
<polygon fill="#191970" stroke="#191970" points="171.4045,-340.777 164.616,-332.6427 164.8501,-343.2349 171.4045,-340.777"/>
</g>
<!-- Node47 -->
<g id="node48" class="node">
<title>Node47</title>
<polygon fill="none" stroke="#bfbfbf" points="1422,-369.5 1422,-388.5 1530,-388.5 1530,-369.5 1422,-369.5"/>
<text text-anchor="middle" x="1476" y="-376.5" font-family="Helvetica,sans-Serif" font-size="10.00" fill="#000000">fairlogger/Logger.h</text>
</g>
<!-- Node46&#45;&gt;Node47 -->
<g id="edge65" class="edge">
<title>Node46&#45;&gt;Node47</title>
<path fill="none" stroke="#191970" d="M1476,-425.2455C1476,-417.9382 1476,-407.6944 1476,-398.7046"/>
<polygon fill="#191970" stroke="#191970" points="1479.5001,-398.6426 1476,-388.6427 1472.5001,-398.6427 1479.5001,-398.6426"/>
</g>
</g>
</svg>
