<?xml version="1.0" encoding="UTF-8" standalone="no"?>
<!DOCTYPE svg PUBLIC "-//W3C//DTD SVG 1.1//EN"
 "http://www.w3.org/Graphics/SVG/1.1/DTD/svg11.dtd">
<!-- Generated by graphviz version 2.40.1 (20161225.0304)
 -->
<!-- Title: /home/travis/build/AliceO2Group/AliceO2/Framework/Core/src/DriverInfo.h Pages: 1 -->
<svg width="1408pt" height="296pt"
 viewBox="0.00 0.00 1408.00 296.00" xmlns="http://www.w3.org/2000/svg" xmlns:xlink="http://www.w3.org/1999/xlink">
<g id="graph0" class="graph" transform="scale(1 1) rotate(0) translate(4 292)">
<title>/home/travis/build/AliceO2Group/AliceO2/Framework/Core/src/DriverInfo.h</title>
<!-- Node0 -->
<g id="node1" class="node">
<title>Node0</title>
<polygon fill="#bfbfbf" stroke="#000000" points="551,-246.5 551,-287.5 728,-287.5 728,-246.5 551,-246.5"/>
<text text-anchor="start" x="559" y="-275.5" font-family="Helvetica,sans-Serif" font-size="10.00" fill="#000000">/home/travis/build</text>
<text text-anchor="start" x="559" y="-264.5" font-family="Helvetica,sans-Serif" font-size="10.00" fill="#000000">/AliceO2Group/AliceO2</text>
<text text-anchor="middle" x="639.5" y="-253.5" font-family="Helvetica,sans-Serif" font-size="10.00" fill="#000000">/Framework/Core/src/DriverInfo.h</text>
</g>
<!-- Node1 -->
<g id="node2" class="node">
<title>Node1</title>
<polygon fill="none" stroke="#bfbfbf" points="0,-185 0,-204 53,-204 53,-185 0,-185"/>
<text text-anchor="middle" x="26.5" y="-192" font-family="Helvetica,sans-Serif" font-size="10.00" fill="#000000">cstddef</text>
</g>
<!-- Node0&#45;&gt;Node1 -->
<g id="edge1" class="edge">
<title>Node0&#45;&gt;Node1</title>
<path fill="none" stroke="#191970" d="M550.7536,-261.7082C412.3194,-252.8697 151.5111,-233.7135 61.5,-210 59.1685,-209.3858 56.7948,-208.6343 54.4378,-207.7968"/>
<polygon fill="#191970" stroke="#191970" points="55.5767,-204.4825 44.9928,-204.0014 52.9666,-210.9777 55.5767,-204.4825"/>
</g>
<!-- Node2 -->
<g id="node3" class="node">
<title>Node2</title>
<polygon fill="none" stroke="#bfbfbf" points="380,-118 380,-137 427,-137 427,-118 380,-118"/>
<text text-anchor="middle" x="403.5" y="-125" font-family="Helvetica,sans-Serif" font-size="10.00" fill="#000000">vector</text>
</g>
<!-- Node0&#45;&gt;Node2 -->
<g id="edge2" class="edge">
<title>Node0&#45;&gt;Node2</title>
<path fill="none" stroke="#191970" d="M550.9684,-248.1428C522.9555,-239.4799 492.9504,-227.1844 468.5,-210 444.3626,-193.0356 424.7717,-164.5604 413.6219,-145.9009"/>
<polygon fill="#191970" stroke="#191970" points="416.6059,-144.0689 408.5814,-137.1508 410.5403,-147.563 416.6059,-144.0689"/>
</g>
<!-- Node3 -->
<g id="node4" class="node">
<title>Node3</title>
<polygon fill="none" stroke="#bfbfbf" points="834,-185 834,-204 885,-204 885,-185 834,-185"/>
<text text-anchor="middle" x="859.5" y="-192" font-family="Helvetica,sans-Serif" font-size="10.00" fill="#000000">csignal</text>
</g>
<!-- Node0&#45;&gt;Node3 -->
<g id="edge3" class="edge">
<title>Node0&#45;&gt;Node3</title>
<path fill="none" stroke="#191970" d="M707.7877,-246.4863C741.5687,-236.0569 782.8565,-222.8872 819.5,-210 821.6121,-209.2572 823.7798,-208.4751 825.9608,-207.6732"/>
<polygon fill="#191970" stroke="#191970" points="827.352,-210.8893 835.4779,-204.0909 824.886,-204.3381 827.352,-210.8893"/>
</g>
<!-- Node4 -->
<g id="node5" class="node">
<title>Node4</title>
<polygon fill="none" stroke="#bfbfbf" points="903.5,-185 903.5,-204 977.5,-204 977.5,-185 903.5,-185"/>
<text text-anchor="middle" x="940.5" y="-192" font-family="Helvetica,sans-Serif" font-size="10.00" fill="#000000">sys/select.h</text>
</g>
<!-- Node0&#45;&gt;Node4 -->
<g id="edge4" class="edge">
<title>Node0&#45;&gt;Node4</title>
<path fill="none" stroke="#191970" d="M728.2846,-249.547C777.5625,-239.2625 839.7783,-225.2898 894.5,-210 897.4879,-209.1652 900.5676,-208.2499 903.651,-207.2946"/>
<polygon fill="#191970" stroke="#191970" points="904.9568,-210.5513 913.4042,-204.1566 902.8128,-203.8877 904.9568,-210.5513"/>
</g>
<!-- Node5 -->
<g id="node6" class="node">
<title>Node5</title>
<g id="a_node6"><a xlink:href="../../dd/d0f/ChannelConfigurationPolicy_8h.html" target="_top" xlink:title="Framework/ChannelConfiguration\lPolicy.h">
<polygon fill="none" stroke="#000000" points="71,-179.5 71,-209.5 250,-209.5 250,-179.5 71,-179.5"/>
<text text-anchor="start" x="79" y="-197.5" font-family="Helvetica,sans-Serif" font-size="10.00" fill="#000000">Framework/ChannelConfiguration</text>
<text text-anchor="middle" x="160.5" y="-186.5" font-family="Helvetica,sans-Serif" font-size="10.00" fill="#000000">Policy.h</text>
</a>
</g>
</g>
<!-- Node0&#45;&gt;Node5 -->
<g id="edge5" class="edge">
<title>Node0&#45;&gt;Node5</title>
<path fill="none" stroke="#191970" d="M550.7933,-253.8584C476.0966,-242.7542 366.1345,-226.3188 260.0021,-210.0716"/>
<polygon fill="#191970" stroke="#191970" points="260.4893,-206.6055 250.0746,-208.5507 259.4292,-213.5247 260.4893,-206.6055"/>
</g>
<!-- Node10 -->
<g id="node11" class="node">
<title>Node10</title>
<g id="a_node11"><a xlink:href="../../d0/d1c/ConfigParamSpec_8h.html" target="_top" xlink:title="Framework/ConfigParamSpec.h">
<polygon fill="none" stroke="#000000" points="747,-118 747,-137 914,-137 914,-118 747,-118"/>
<text text-anchor="middle" x="830.5" y="-125" font-family="Helvetica,sans-Serif" font-size="10.00" fill="#000000">Framework/ConfigParamSpec.h</text>
</a>
</g>
</g>
<!-- Node0&#45;&gt;Node10 -->
<g id="edge13" class="edge">
<title>Node0&#45;&gt;Node10</title>
<path fill="none" stroke="#191970" d="M722.663,-246.3664C745.2124,-237.8423 768.374,-226.0708 786.5,-210 805.7914,-192.8959 818.0818,-165.2591 824.6327,-146.7428"/>
<polygon fill="#191970" stroke="#191970" points="828.0234,-147.6364 827.836,-137.0432 821.3765,-145.4412 828.0234,-147.6364"/>
</g>
<!-- Node20 -->
<g id="node21" class="node">
<title>Node20</title>
<g id="a_node21"><a xlink:href="../../d7/df1/TerminationPolicy_8h.html" target="_top" xlink:title="Framework/TerminationPolicy.h">
<polygon fill="none" stroke="#000000" points="995.5,-185 995.5,-204 1163.5,-204 1163.5,-185 995.5,-185"/>
<text text-anchor="middle" x="1079.5" y="-192" font-family="Helvetica,sans-Serif" font-size="10.00" fill="#000000">Framework/TerminationPolicy.h</text>
</a>
</g>
</g>
<!-- Node0&#45;&gt;Node20 -->
<g id="edge25" class="edge">
<title>Node0&#45;&gt;Node20</title>
<path fill="none" stroke="#191970" d="M728.2958,-252.4726C798.4085,-240.9876 898.7127,-224.5258 986.5,-210 994.8571,-208.6172 1003.6358,-207.1601 1012.3241,-205.7151"/>
<polygon fill="#191970" stroke="#191970" points="1013.1616,-209.124 1022.4513,-204.0298 1012.0124,-202.219 1013.1616,-209.124"/>
</g>
<!-- Node21 -->
<g id="node22" class="node">
<title>Node21</title>
<g id="a_node22"><a xlink:href="../../df/dd6/CompletionPolicy_8h.html" target="_top" xlink:title="Framework/CompletionPolicy.h">
<polygon fill="none" stroke="#000000" points="477,-185 477,-204 644,-204 644,-185 477,-185"/>
<text text-anchor="middle" x="560.5" y="-192" font-family="Helvetica,sans-Serif" font-size="10.00" fill="#000000">Framework/CompletionPolicy.h</text>
</a>
</g>
</g>
<!-- Node0&#45;&gt;Node21 -->
<g id="edge26" class="edge">
<title>Node0&#45;&gt;Node21</title>
<path fill="none" stroke="#191970" d="M617.0731,-246.4183C604.8862,-235.2342 590.0145,-221.5861 578.5778,-211.0904"/>
<polygon fill="#191970" stroke="#191970" points="580.6789,-208.2682 570.9447,-204.0853 575.9459,-213.4255 580.6789,-208.2682"/>
</g>
<!-- Node24 -->
<g id="node25" class="node">
<title>Node24</title>
<g id="a_node25"><a xlink:href="../../da/de6/DispatchPolicy_8h.html" target="_top" xlink:title="Framework/DispatchPolicy.h">
<polygon fill="none" stroke="#000000" points="268,-185 268,-204 421,-204 421,-185 268,-185"/>
<text text-anchor="middle" x="344.5" y="-192" font-family="Helvetica,sans-Serif" font-size="10.00" fill="#000000">Framework/DispatchPolicy.h</text>
</a>
</g>
</g>
<!-- Node0&#45;&gt;Node24 -->
<g id="edge34" class="edge">
<title>Node0&#45;&gt;Node24</title>
<path fill="none" stroke="#191970" d="M555.7539,-246.4183C503.2874,-233.524 437.4943,-217.3545 393.3961,-206.5168"/>
<polygon fill="#191970" stroke="#191970" points="394.0488,-203.0732 383.5025,-204.0853 392.3781,-209.8709 394.0488,-203.0732"/>
</g>
<!-- Node25 -->
<g id="node26" class="node">
<title>Node25</title>
<g id="a_node26"><a xlink:href="../../d3/db3/DataProcessorInfo_8h.html" target="_top" xlink:title="DataProcessorInfo.h">
<polygon fill="none" stroke="#000000" points="662,-185 662,-204 777,-204 777,-185 662,-185"/>
<text text-anchor="middle" x="719.5" y="-192" font-family="Helvetica,sans-Serif" font-size="10.00" fill="#000000">DataProcessorInfo.h</text>
</a>
</g>
</g>
<!-- Node0&#45;&gt;Node25 -->
<g id="edge38" class="edge">
<title>Node0&#45;&gt;Node25</title>
<path fill="none" stroke="#191970" d="M662.2108,-246.4183C674.5519,-235.2342 689.6119,-221.5861 701.1934,-211.0904"/>
<polygon fill="#191970" stroke="#191970" points="703.8635,-213.394 708.9231,-204.0853 699.1628,-208.2071 703.8635,-213.394"/>
</g>
<!-- Node5&#45;&gt;Node2 -->
<g id="edge11" class="edge">
<title>Node5&#45;&gt;Node2</title>
<path fill="none" stroke="#191970" d="M215.0339,-179.4639C262.6623,-166.3318 330.2563,-147.6948 370.2211,-136.6757"/>
<polygon fill="#191970" stroke="#191970" points="371.2884,-140.0121 379.9984,-133.9799 369.4277,-133.2639 371.2884,-140.0121"/>
</g>
<!-- Node6 -->
<g id="node7" class="node">
<title>Node6</title>
<g id="a_node7"><a xlink:href="../../d6/d05/ChannelConfigurationPolicyHelpers_8h.html" target="_top" xlink:title="Framework/ChannelConfiguration\lPolicyHelpers.h">
<polygon fill="none" stroke="#000000" points="68,-112.5 68,-142.5 247,-142.5 247,-112.5 68,-112.5"/>
<text text-anchor="start" x="76" y="-130.5" font-family="Helvetica,sans-Serif" font-size="10.00" fill="#000000">Framework/ChannelConfiguration</text>
<text text-anchor="middle" x="157.5" y="-119.5" font-family="Helvetica,sans-Serif" font-size="10.00" fill="#000000">PolicyHelpers.h</text>
</a>
</g>
</g>
<!-- Node5&#45;&gt;Node6 -->
<g id="edge6" class="edge">
<title>Node5&#45;&gt;Node6</title>
<path fill="none" stroke="#191970" d="M159.8193,-179.2967C159.4702,-171.5013 159.0358,-161.7991 158.6376,-152.9064"/>
<polygon fill="#191970" stroke="#191970" points="162.122,-152.4766 158.1781,-142.6432 155.129,-152.7898 162.122,-152.4766"/>
</g>
<!-- Node7 -->
<g id="node8" class="node">
<title>Node7</title>
<g id="a_node8"><a xlink:href="../../d6/d72/ChannelSpec_8h.html" target="_top" xlink:title="Framework/ChannelSpec.h">
<polygon fill="none" stroke="#000000" points="84.5,-56.5 84.5,-75.5 230.5,-75.5 230.5,-56.5 84.5,-56.5"/>
<text text-anchor="middle" x="157.5" y="-63.5" font-family="Helvetica,sans-Serif" font-size="10.00" fill="#000000">Framework/ChannelSpec.h</text>
</a>
</g>
</g>
<!-- Node5&#45;&gt;Node7 -->
<g id="edge10" class="edge">
<title>Node5&#45;&gt;Node7</title>
<path fill="none" stroke="#191970" d="M105.1504,-179.4901C87.0918,-171.6798 69.0001,-160.0641 58.5,-143 51.2795,-131.2658 51.0893,-123.615 58.5,-112 68.5203,-96.2949 85.4416,-85.8684 102.487,-78.9824"/>
<polygon fill="#191970" stroke="#191970" points="103.7496,-82.2473 111.9264,-75.51 101.3329,-75.6777 103.7496,-82.2473"/>
</g>
<!-- Node9 -->
<g id="node10" class="node">
<title>Node9</title>
<polygon fill="none" stroke="#bfbfbf" points="342,-56.5 342,-75.5 407,-75.5 407,-56.5 342,-56.5"/>
<text text-anchor="middle" x="374.5" y="-63.5" font-family="Helvetica,sans-Serif" font-size="10.00" fill="#000000">functional</text>
</g>
<!-- Node5&#45;&gt;Node9 -->
<g id="edge12" class="edge">
<title>Node5&#45;&gt;Node9</title>
<path fill="none" stroke="#191970" d="M190.2749,-179.3671C209.42,-169.4317 234.7009,-155.9274 256.5,-143 290.4918,-122.8421 328.5748,-97.4609 352.048,-81.4769"/>
<polygon fill="#191970" stroke="#191970" points="354.3009,-84.1765 360.5797,-75.6426 350.3496,-78.3984 354.3009,-84.1765"/>
</g>
<!-- Node6&#45;&gt;Node7 -->
<g id="edge7" class="edge">
<title>Node6&#45;&gt;Node7</title>
<path fill="none" stroke="#191970" d="M157.5,-112.2977C157.5,-104.3834 157.5,-94.6043 157.5,-86.0759"/>
<polygon fill="#191970" stroke="#191970" points="161.0001,-85.8469 157.5,-75.8469 154.0001,-85.847 161.0001,-85.8469"/>
</g>
<!-- Node6&#45;&gt;Node9 -->
<g id="edge9" class="edge">
<title>Node6&#45;&gt;Node9</title>
<path fill="none" stroke="#191970" d="M210.5842,-112.4554C247.9278,-101.8718 297.2435,-87.8953 331.9943,-78.0466"/>
<polygon fill="#191970" stroke="#191970" points="333.1673,-81.352 341.834,-75.2579 331.2585,-74.6173 333.1673,-81.352"/>
</g>
<!-- Node8 -->
<g id="node9" class="node">
<title>Node8</title>
<polygon fill="none" stroke="#bfbfbf" points="641.5,-.5 641.5,-19.5 685.5,-19.5 685.5,-.5 641.5,-.5"/>
<text text-anchor="middle" x="663.5" y="-7.5" font-family="Helvetica,sans-Serif" font-size="10.00" fill="#000000">string</text>
</g>
<!-- Node7&#45;&gt;Node8 -->
<g id="edge8" class="edge">
<title>Node7&#45;&gt;Node8</title>
<path fill="none" stroke="#191970" d="M230.5363,-57.9169C342.3785,-45.5391 551.5033,-22.3949 631.3704,-13.5558"/>
<polygon fill="#191970" stroke="#191970" points="631.7716,-17.0329 641.3259,-12.4541 631.0015,-10.0754 631.7716,-17.0329"/>
</g>
<!-- Node10&#45;&gt;Node8 -->
<g id="edge24" class="edge">
<title>Node10&#45;&gt;Node8</title>
<path fill="none" stroke="#191970" d="M817.7931,-117.7938C799.4106,-103.8306 764.2311,-77.4005 733.5,-56 718.3743,-45.4668 701.0667,-34.0874 687.4458,-25.2819"/>
<polygon fill="#191970" stroke="#191970" points="688.9803,-22.1074 678.677,-19.6391 685.1922,-27.9939 688.9803,-22.1074"/>
</g>
<!-- Node11 -->
<g id="node12" class="node">
<title>Node11</title>
<g id="a_node12"><a xlink:href="../../de/d56/Variant_8h.html" target="_top" xlink:title="Framework/Variant.h">
<polygon fill="none" stroke="#000000" points="856,-56.5 856,-75.5 973,-75.5 973,-56.5 856,-56.5"/>
<text text-anchor="middle" x="914.5" y="-63.5" font-family="Helvetica,sans-Serif" font-size="10.00" fill="#000000">Framework/Variant.h</text>
</a>
</g>
</g>
<!-- Node10&#45;&gt;Node11 -->
<g id="edge14" class="edge">
<title>Node10&#45;&gt;Node11</title>
<path fill="none" stroke="#191970" d="M843.625,-117.8906C856.94,-108.1421 877.7594,-92.8994 893.3947,-81.4521"/>
<polygon fill="#191970" stroke="#191970" points="895.4661,-84.2734 901.4672,-75.5419 891.3309,-78.6253 895.4661,-84.2734"/>
</g>
<!-- Node11&#45;&gt;Node8 -->
<g id="edge23" class="edge">
<title>Node11&#45;&gt;Node8</title>
<path fill="none" stroke="#191970" d="M860.7815,-56.4158C818.2807,-48.46 757.2798,-36.2174 695.6597,-20.1125"/>
<polygon fill="#191970" stroke="#191970" points="696.3301,-16.6695 685.7675,-17.4946 694.5393,-23.4365 696.3301,-16.6695"/>
</g>
<!-- Node12 -->
<g id="node13" class="node">
<title>Node12</title>
<g id="a_node13"><a xlink:href="../../d1/d76/RuntimeError_8h.html" target="_top" xlink:title="Framework/RuntimeError.h">
<polygon fill="none" stroke="#000000" points="1166.5,-.5 1166.5,-19.5 1312.5,-19.5 1312.5,-.5 1166.5,-.5"/>
<text text-anchor="middle" x="1239.5" y="-7.5" font-family="Helvetica,sans-Serif" font-size="10.00" fill="#000000">Framework/RuntimeError.h</text>
</a>
</g>
</g>
<!-- Node11&#45;&gt;Node12 -->
<g id="edge15" class="edge">
<title>Node11&#45;&gt;Node12</title>
<path fill="none" stroke="#191970" d="M970.0002,-56.4369C1026.5563,-46.6918 1114.2404,-31.5832 1174.1259,-21.2645"/>
<polygon fill="#191970" stroke="#191970" points="1174.9683,-24.671 1184.2287,-19.5237 1173.7796,-17.7726 1174.9683,-24.671"/>
</g>
<!-- Node13 -->
<g id="node14" class="node">
<title>Node13</title>
<polygon fill="none" stroke="#bfbfbf" points="1331,-.5 1331,-19.5 1400,-19.5 1400,-.5 1331,-.5"/>
<text text-anchor="middle" x="1365.5" y="-7.5" font-family="Helvetica,sans-Serif" font-size="10.00" fill="#000000">type_traits</text>
</g>
<!-- Node11&#45;&gt;Node13 -->
<g id="edge16" class="edge">
<title>Node11&#45;&gt;Node13</title>
<path fill="none" stroke="#191970" d="M973.0855,-61.434C1050.4103,-54.9517 1190.9206,-41.5989 1320.8528,-19.9349"/>
<polygon fill="#191970" stroke="#191970" points="1321.707,-23.3403 1330.985,-18.2248 1320.542,-16.4379 1321.707,-23.3403"/>
</g>
<!-- Node14 -->
<g id="node15" class="node">
<title>Node14</title>
<polygon fill="none" stroke="#bfbfbf" points="703.5,-.5 703.5,-19.5 753.5,-19.5 753.5,-.5 703.5,-.5"/>
<text text-anchor="middle" x="728.5" y="-7.5" font-family="Helvetica,sans-Serif" font-size="10.00" fill="#000000">cstring</text>
</g>
<!-- Node11&#45;&gt;Node14 -->
<g id="edge17" class="edge">
<title>Node11&#45;&gt;Node14</title>
<path fill="none" stroke="#191970" d="M882.5255,-56.3733C849.2489,-46.3545 797.3095,-30.7168 763.0923,-20.4149"/>
<polygon fill="#191970" stroke="#191970" points="764.0968,-17.0622 753.5123,-17.5306 762.0787,-23.765 764.0968,-17.0622"/>
</g>
<!-- Node15 -->
<g id="node16" class="node">
<title>Node15</title>
<polygon fill="none" stroke="#bfbfbf" points="771.5,-.5 771.5,-19.5 821.5,-19.5 821.5,-.5 771.5,-.5"/>
<text text-anchor="middle" x="796.5" y="-7.5" font-family="Helvetica,sans-Serif" font-size="10.00" fill="#000000">cstdint</text>
</g>
<!-- Node11&#45;&gt;Node15 -->
<g id="edge18" class="edge">
<title>Node11&#45;&gt;Node15</title>
<path fill="none" stroke="#191970" d="M894.2151,-56.3733C875.3579,-47.4241 847.054,-33.9917 825.7545,-23.8835"/>
<polygon fill="#191970" stroke="#191970" points="827.0551,-20.6266 816.5202,-19.5011 824.0539,-26.9506 827.0551,-20.6266"/>
</g>
<!-- Node16 -->
<g id="node17" class="node">
<title>Node16</title>
<polygon fill="none" stroke="#bfbfbf" points="840,-.5 840,-19.5 889,-19.5 889,-.5 840,-.5"/>
<text text-anchor="middle" x="864.5" y="-7.5" font-family="Helvetica,sans-Serif" font-size="10.00" fill="#000000">cstdlib</text>
</g>
<!-- Node11&#45;&gt;Node16 -->
<g id="edge19" class="edge">
<title>Node11&#45;&gt;Node16</title>
<path fill="none" stroke="#191970" d="M905.7907,-56.2455C898.6927,-48.2958 888.4916,-36.8706 880.005,-27.3656"/>
<polygon fill="#191970" stroke="#191970" points="882.3805,-24.771 873.1095,-19.6427 877.1589,-29.4331 882.3805,-24.771"/>
</g>
<!-- Node17 -->
<g id="node18" class="node">
<title>Node17</title>
<polygon fill="none" stroke="#bfbfbf" points="907,-.5 907,-19.5 956,-19.5 956,-.5 907,-.5"/>
<text text-anchor="middle" x="931.5" y="-7.5" font-family="Helvetica,sans-Serif" font-size="10.00" fill="#000000">iosfwd</text>
</g>
<!-- Node11&#45;&gt;Node17 -->
<g id="edge20" class="edge">
<title>Node11&#45;&gt;Node17</title>
<path fill="none" stroke="#191970" d="M917.4612,-56.2455C919.7038,-48.8579 922.8577,-38.4689 925.6081,-29.4087"/>
<polygon fill="#191970" stroke="#191970" points="929.017,-30.2282 928.5728,-19.6427 922.3188,-28.1948 929.017,-30.2282"/>
</g>
<!-- Node18 -->
<g id="node19" class="node">
<title>Node18</title>
<polygon fill="none" stroke="#bfbfbf" points="974,-.5 974,-19.5 1057,-19.5 1057,-.5 974,-.5"/>
<text text-anchor="middle" x="1015.5" y="-7.5" font-family="Helvetica,sans-Serif" font-size="10.00" fill="#000000">initializer_list</text>
</g>
<!-- Node11&#45;&gt;Node18 -->
<g id="edge21" class="edge">
<title>Node11&#45;&gt;Node18</title>
<path fill="none" stroke="#191970" d="M932.0929,-56.2455C947.879,-47.4928 971.2639,-34.527 989.2587,-24.5496"/>
<polygon fill="#191970" stroke="#191970" points="991.0603,-27.5528 998.1087,-19.6427 987.6659,-21.4308 991.0603,-27.5528"/>
</g>
<!-- Node19 -->
<g id="node20" class="node">
<title>Node19</title>
<polygon fill="none" stroke="#bfbfbf" points="1075,-.5 1075,-19.5 1148,-19.5 1148,-.5 1075,-.5"/>
<text text-anchor="middle" x="1111.5" y="-7.5" font-family="Helvetica,sans-Serif" font-size="10.00" fill="#000000">string_view</text>
</g>
<!-- Node11&#45;&gt;Node19 -->
<g id="edge22" class="edge">
<title>Node11&#45;&gt;Node19</title>
<path fill="none" stroke="#191970" d="M948.3655,-56.3733C981.549,-46.9404 1032.255,-32.5265 1068.3194,-22.2747"/>
<polygon fill="#191970" stroke="#191970" points="1069.4145,-25.6021 1078.0764,-19.5011 1067.5005,-18.8689 1069.4145,-25.6021"/>
</g>
<!-- Node21&#45;&gt;Node2 -->
<g id="edge33" class="edge">
<title>Node21&#45;&gt;Node2</title>
<path fill="none" stroke="#191970" d="M538.0057,-184.9005C511.0747,-173.4077 465.7933,-154.0838 435.2936,-141.068"/>
<polygon fill="#191970" stroke="#191970" points="436.5238,-137.7876 425.9525,-137.0817 433.7763,-144.2259 436.5238,-137.7876"/>
</g>
<!-- Node21&#45;&gt;Node8 -->
<g id="edge32" class="edge">
<title>Node21&#45;&gt;Node8</title>
<path fill="none" stroke="#191970" d="M585.4966,-184.9398C603.6942,-176.6463 627.3648,-162.8301 640.5,-143 663.5879,-108.1444 665.6656,-57.2712 664.8045,-29.6377"/>
<polygon fill="#191970" stroke="#191970" points="668.3003,-29.4642 664.3285,-19.642 661.3083,-29.7972 668.3003,-29.4642"/>
</g>
<!-- Node21&#45;&gt;Node9 -->
<g id="edge31" class="edge">
<title>Node21&#45;&gt;Node9</title>
<path fill="none" stroke="#191970" d="M543.1638,-184.8596C525.6957,-174.9474 498.1567,-158.7736 475.5,-143 457.3281,-130.3488 454.0602,-125.4874 436.5,-112 423.1567,-101.7515 407.9914,-90.4931 395.9995,-81.6796"/>
<polygon fill="#191970" stroke="#191970" points="398.0345,-78.8317 387.8997,-75.7434 393.8966,-84.4777 398.0345,-78.8317"/>
</g>
<!-- Node22 -->
<g id="node23" class="node">
<title>Node22</title>
<g id="a_node23"><a xlink:href="../../d5/dfb/DataRef_8h.html" target="_top" xlink:title="Framework/DataRef.h">
<polygon fill="none" stroke="#000000" points="510,-56.5 510,-75.5 631,-75.5 631,-56.5 510,-56.5"/>
<text text-anchor="middle" x="570.5" y="-63.5" font-family="Helvetica,sans-Serif" font-size="10.00" fill="#000000">Framework/DataRef.h</text>
</a>
</g>
</g>
<!-- Node21&#45;&gt;Node22 -->
<g id="edge27" class="edge">
<title>Node21&#45;&gt;Node22</title>
<path fill="none" stroke="#191970" d="M580.1935,-184.9007C595.4175,-176.2754 615.3836,-162.0372 624.5,-143 630.4507,-130.5735 630.2763,-124.5085 624.5,-112 618.6741,-99.384 607.4931,-88.9528 596.8095,-81.2314"/>
<polygon fill="#191970" stroke="#191970" points="598.7142,-78.2946 588.4599,-75.6299 594.8144,-84.1076 598.7142,-78.2946"/>
</g>
<!-- Node23 -->
<g id="node24" class="node">
<title>Node23</title>
<g id="a_node24"><a xlink:href="../../da/d0f/InputSpan_8h.html" target="_top" xlink:title="Framework/InputSpan.h">
<polygon fill="none" stroke="#000000" points="484,-118 484,-137 615,-137 615,-118 484,-118"/>
<text text-anchor="middle" x="549.5" y="-125" font-family="Helvetica,sans-Serif" font-size="10.00" fill="#000000">Framework/InputSpan.h</text>
</a>
</g>
</g>
<!-- Node21&#45;&gt;Node23 -->
<g id="edge28" class="edge">
<title>Node21&#45;&gt;Node23</title>
<path fill="none" stroke="#191970" d="M558.924,-184.9005C557.3066,-175.0495 554.7447,-159.4451 552.7,-146.9912"/>
<polygon fill="#191970" stroke="#191970" points="556.1471,-146.3825 551.0731,-137.0817 549.2395,-147.5166 556.1471,-146.3825"/>
</g>
<!-- Node23&#45;&gt;Node9 -->
<g id="edge30" class="edge">
<title>Node23&#45;&gt;Node9</title>
<path fill="none" stroke="#191970" d="M522.1563,-117.8906C492.3618,-107.42 444.5315,-90.6111 411.4192,-78.9745"/>
<polygon fill="#191970" stroke="#191970" points="412.2466,-75.5554 401.6517,-75.5419 409.9257,-82.1595 412.2466,-75.5554"/>
</g>
<!-- Node23&#45;&gt;Node22 -->
<g id="edge29" class="edge">
<title>Node23&#45;&gt;Node22</title>
<path fill="none" stroke="#191970" d="M552.7813,-117.8906C555.7535,-109.1862 560.2214,-96.1015 563.927,-85.2494"/>
<polygon fill="#191970" stroke="#191970" points="567.2532,-86.3394 567.1725,-75.7449 560.6288,-84.0773 567.2532,-86.3394"/>
</g>
<!-- Node24&#45;&gt;Node2 -->
<g id="edge37" class="edge">
<title>Node24&#45;&gt;Node2</title>
<path fill="none" stroke="#191970" d="M352.9533,-184.9005C362.1538,-174.4525 377.0535,-157.5325 388.2978,-144.7635"/>
<polygon fill="#191970" stroke="#191970" points="391.0803,-146.8997 395.0624,-137.0817 385.8269,-142.2735 391.0803,-146.8997"/>
</g>
<!-- Node24&#45;&gt;Node8 -->
<g id="edge36" class="edge">
<title>Node24&#45;&gt;Node8</title>
<path fill="none" stroke="#191970" d="M339.4992,-184.6409C327.6198,-159.6751 301.0384,-93.3004 333.5,-56 352.9038,-33.7038 551.6726,-17.6882 631.0332,-12.1366"/>
<polygon fill="#191970" stroke="#191970" points="631.6715,-15.6011 641.4078,-11.4231 631.1912,-8.6176 631.6715,-15.6011"/>
</g>
<!-- Node24&#45;&gt;Node9 -->
<g id="edge35" class="edge">
<title>Node24&#45;&gt;Node9</title>
<path fill="none" stroke="#191970" d="M346.7549,-184.8416C351.663,-163.8184 363.3966,-113.5598 369.9232,-85.6038"/>
<polygon fill="#191970" stroke="#191970" points="373.3537,-86.3043 372.219,-75.7705 366.537,-84.7128 373.3537,-86.3043"/>
</g>
<!-- Node25&#45;&gt;Node2 -->
<g id="edge41" class="edge">
<title>Node25&#45;&gt;Node2</title>
<path fill="none" stroke="#191970" d="M679.7584,-184.9557C671.1137,-182.9387 662.0091,-180.8592 653.5,-179 574.6474,-161.7713 554.5097,-159.4936 475.5,-143 463.0118,-140.393 449.3213,-137.4637 437.2626,-134.8594"/>
<polygon fill="#191970" stroke="#191970" points="437.6711,-131.3668 427.1568,-132.6706 436.1893,-138.2081 437.6711,-131.3668"/>
</g>
<!-- Node25&#45;&gt;Node8 -->
<g id="edge40" class="edge">
<title>Node25&#45;&gt;Node8</title>
<path fill="none" stroke="#191970" d="M719.2467,-184.699C718.3435,-161.47 714.2273,-101.5992 695.5,-56 691.3745,-45.9548 684.7627,-35.9239 678.6171,-27.8047"/>
<polygon fill="#191970" stroke="#191970" points="681.2383,-25.4777 672.2713,-19.8346 675.762,-29.8379 681.2383,-25.4777"/>
</g>
<!-- Node25&#45;&gt;Node10 -->
<g id="edge39" class="edge">
<title>Node25&#45;&gt;Node10</title>
<path fill="none" stroke="#191970" d="M735.4036,-184.9005C753.867,-173.7559 784.5299,-155.2477 806.0332,-142.2682"/>
<polygon fill="#191970" stroke="#191970" points="807.8733,-145.2458 814.6259,-137.0817 804.2559,-139.2529 807.8733,-145.2458"/>
</g>
</g>
</svg>
