<?xml version="1.0" encoding="UTF-8" standalone="no"?>
<!DOCTYPE svg PUBLIC "-//W3C//DTD SVG 1.1//EN"
 "http://www.w3.org/Graphics/SVG/1.1/DTD/svg11.dtd">
<!-- Generated by graphviz version 2.40.1 (20161225.0304)
 -->
<!-- Title: /home/travis/build/AliceO2Group/AliceO2/DataFormats/Reconstruction/include/ReconstructionDataFormats/PrimaryVertex.h Pages: 1 -->
<svg width="1386pt" height="461pt"
 viewBox="0.00 0.00 1385.50 461.00" xmlns="http://www.w3.org/2000/svg" xmlns:xlink="http://www.w3.org/1999/xlink">
<g id="graph0" class="graph" transform="scale(1 1) rotate(0) translate(4 457)">
<title>/home/travis/build/AliceO2Group/AliceO2/DataFormats/Reconstruction/include/ReconstructionDataFormats/PrimaryVertex.h</title>
<!-- Node24 -->
<g id="node1" class="node">
<title>Node24</title>
<polygon fill="#bfbfbf" stroke="#000000" points="417.5,-389.5 417.5,-452.5 610.5,-452.5 610.5,-389.5 417.5,-389.5"/>
<text text-anchor="start" x="425.5" y="-440.5" font-family="Helvetica,sans-Serif" font-size="10.00" fill="#000000">/home/travis/build</text>
<text text-anchor="start" x="425.5" y="-429.5" font-family="Helvetica,sans-Serif" font-size="10.00" fill="#000000">/AliceO2Group/AliceO2</text>
<text text-anchor="start" x="425.5" y="-418.5" font-family="Helvetica,sans-Serif" font-size="10.00" fill="#000000">/DataFormats/Reconstruction</text>
<text text-anchor="start" x="425.5" y="-407.5" font-family="Helvetica,sans-Serif" font-size="10.00" fill="#000000">/include/ReconstructionDataFormats</text>
<text text-anchor="middle" x="514" y="-396.5" font-family="Helvetica,sans-Serif" font-size="10.00" fill="#000000">/PrimaryVertex.h</text>
</g>
<!-- Node25 -->
<g id="node2" class="node">
<title>Node25</title>
<g id="a_node2"><a xlink:href="../../de/d14/PrimaryVertex_8cxx.html" target="_top" xlink:title="/home/travis/build\l/AliceO2Group/AliceO2\l/DataFormats/Reconstruction\l/src/PrimaryVertex.cxx">
<polygon fill="none" stroke="#000000" points="0,-295 0,-347 158,-347 158,-295 0,-295"/>
<text text-anchor="start" x="8" y="-335" font-family="Helvetica,sans-Serif" font-size="10.00" fill="#000000">/home/travis/build</text>
<text text-anchor="start" x="8" y="-324" font-family="Helvetica,sans-Serif" font-size="10.00" fill="#000000">/AliceO2Group/AliceO2</text>
<text text-anchor="start" x="8" y="-313" font-family="Helvetica,sans-Serif" font-size="10.00" fill="#000000">/DataFormats/Reconstruction</text>
<text text-anchor="middle" x="79" y="-302" font-family="Helvetica,sans-Serif" font-size="10.00" fill="#000000">/src/PrimaryVertex.cxx</text>
</a>
</g>
</g>
<!-- Node24&#45;&gt;Node25 -->
<g id="edge1" class="edge">
<title>Node24&#45;&gt;Node25</title>
<path fill="none" stroke="#191970" d="M407.3254,-404.6916C337.9248,-392.9729 245.8137,-375.3225 166,-353 159.6455,-351.2228 153.0949,-349.194 146.574,-347.0399"/>
<polygon fill="#191970" stroke="#191970" points="406.9552,-408.1782 417.3959,-406.3774 408.111,-401.2743 406.9552,-408.1782"/>
</g>
<!-- Node26 -->
<g id="node3" class="node">
<title>Node26</title>
<g id="a_node3"><a xlink:href="../../d7/d23/StandaloneAODProducer_8cxx.html" target="_top" xlink:title="/home/travis/build\l/AliceO2Group/AliceO2\l/Detectors/AOD/src/Standalone\lAODProducer.cxx">
<polygon fill="none" stroke="#000000" points="175.5,-295 175.5,-347 342.5,-347 342.5,-295 175.5,-295"/>
<text text-anchor="start" x="183.5" y="-335" font-family="Helvetica,sans-Serif" font-size="10.00" fill="#000000">/home/travis/build</text>
<text text-anchor="start" x="183.5" y="-324" font-family="Helvetica,sans-Serif" font-size="10.00" fill="#000000">/AliceO2Group/AliceO2</text>
<text text-anchor="start" x="183.5" y="-313" font-family="Helvetica,sans-Serif" font-size="10.00" fill="#000000">/Detectors/AOD/src/Standalone</text>
<text text-anchor="middle" x="259" y="-302" font-family="Helvetica,sans-Serif" font-size="10.00" fill="#000000">AODProducer.cxx</text>
</a>
</g>
</g>
<!-- Node24&#45;&gt;Node26 -->
<g id="edge2" class="edge">
<title>Node24&#45;&gt;Node26</title>
<path fill="none" stroke="#191970" d="M424.1789,-385.7761C391.7582,-373.062 355.7663,-358.9476 325.6769,-347.1478"/>
<polygon fill="#191970" stroke="#191970" points="423.0788,-389.1041 433.6664,-389.4966 425.6345,-382.5873 423.0788,-389.1041"/>
</g>
<!-- Node27 -->
<g id="node4" class="node">
<title>Node27</title>
<g id="a_node4"><a xlink:href="../../d3/d93/PrimaryVertexReaderSpec_8h.html" target="_top" xlink:title="/home/travis/build\l/AliceO2Group/AliceO2\l/Detectors/GlobalTrackingWorkflow\l/include/GlobalTrackingWorkflow\l/PrimaryVertexReaderSpec.h">
<polygon fill="none" stroke="#000000" points="360.5,-289.5 360.5,-352.5 547.5,-352.5 547.5,-289.5 360.5,-289.5"/>
<text text-anchor="start" x="368.5" y="-340.5" font-family="Helvetica,sans-Serif" font-size="10.00" fill="#000000">/home/travis/build</text>
<text text-anchor="start" x="368.5" y="-329.5" font-family="Helvetica,sans-Serif" font-size="10.00" fill="#000000">/AliceO2Group/AliceO2</text>
<text text-anchor="start" x="368.5" y="-318.5" font-family="Helvetica,sans-Serif" font-size="10.00" fill="#000000">/Detectors/GlobalTrackingWorkflow</text>
<text text-anchor="start" x="368.5" y="-307.5" font-family="Helvetica,sans-Serif" font-size="10.00" fill="#000000">/include/GlobalTrackingWorkflow</text>
<text text-anchor="middle" x="454" y="-296.5" font-family="Helvetica,sans-Serif" font-size="10.00" fill="#000000">/PrimaryVertexReaderSpec.h</text>
</a>
</g>
</g>
<!-- Node24&#45;&gt;Node27 -->
<g id="edge3" class="edge">
<title>Node24&#45;&gt;Node27</title>
<path fill="none" stroke="#191970" d="M489.7896,-380.6493C484.223,-371.3716 478.3799,-361.6331 473.0668,-352.778"/>
<polygon fill="#191970" stroke="#191970" points="486.8694,-382.5852 495.0156,-389.3594 492.8718,-378.9837 486.8694,-382.5852"/>
</g>
<!-- Node30 -->
<g id="node7" class="node">
<title>Node30</title>
<g id="a_node7"><a xlink:href="../../d4/d02/PVertexer_8h.html" target="_top" xlink:title="Primary vertex finder. ">
<polygon fill="none" stroke="#000000" points="489,-195 489,-247 661,-247 661,-195 489,-195"/>
<text text-anchor="start" x="497" y="-235" font-family="Helvetica,sans-Serif" font-size="10.00" fill="#000000">/home/travis/build</text>
<text text-anchor="start" x="497" y="-224" font-family="Helvetica,sans-Serif" font-size="10.00" fill="#000000">/AliceO2Group/AliceO2</text>
<text text-anchor="start" x="497" y="-213" font-family="Helvetica,sans-Serif" font-size="10.00" fill="#000000">/Detectors/Vertexing/include</text>
<text text-anchor="middle" x="575" y="-202" font-family="Helvetica,sans-Serif" font-size="10.00" fill="#000000">/DetectorsVertexing/PVertexer.h</text>
</a>
</g>
</g>
<!-- Node24&#45;&gt;Node30 -->
<g id="edge6" class="edge">
<title>Node24&#45;&gt;Node30</title>
<path fill="none" stroke="#191970" d="M542.62,-380.6658C547.7785,-371.8789 552.5918,-362.3913 556,-353 568.7952,-317.7423 573.0051,-274.248 574.3715,-247.0606"/>
<polygon fill="#191970" stroke="#191970" points="539.6361,-378.8365 537.3857,-389.1896 545.6012,-382.4996 539.6361,-378.8365"/>
</g>
<!-- Node35 -->
<g id="node12" class="node">
<title>Node35</title>
<g id="a_node12"><a xlink:href="../../db/db1/PVertexerHelpers_8h.html" target="_top" xlink:title="Primary vertex finder helper classes. ">
<polygon fill="none" stroke="#000000" points="636,-295 636,-347 846,-347 846,-295 636,-295"/>
<text text-anchor="start" x="644" y="-335" font-family="Helvetica,sans-Serif" font-size="10.00" fill="#000000">/home/travis/build</text>
<text text-anchor="start" x="644" y="-324" font-family="Helvetica,sans-Serif" font-size="10.00" fill="#000000">/AliceO2Group/AliceO2</text>
<text text-anchor="start" x="644" y="-313" font-family="Helvetica,sans-Serif" font-size="10.00" fill="#000000">/Detectors/Vertexing/include</text>
<text text-anchor="middle" x="741" y="-302" font-family="Helvetica,sans-Serif" font-size="10.00" fill="#000000">/DetectorsVertexing/PVertexerHelpers.h</text>
</a>
</g>
</g>
<!-- Node24&#45;&gt;Node35 -->
<g id="edge11" class="edge">
<title>Node24&#45;&gt;Node35</title>
<path fill="none" stroke="#191970" d="M594.7023,-385.4483C623.3688,-372.8199 655.0889,-358.8463 681.6445,-347.1478"/>
<polygon fill="#191970" stroke="#191970" points="593.253,-382.2622 585.5126,-389.4966 596.075,-388.6681 593.253,-382.2622"/>
</g>
<!-- Node38 -->
<g id="node15" class="node">
<title>Node38</title>
<g id="a_node15"><a xlink:href="../../d7/d99/VertexTrackMatcher_8h.html" target="_top" xlink:title="Class for vertex track association. ">
<polygon fill="none" stroke="#000000" points="1020.5,-295 1020.5,-347 1241.5,-347 1241.5,-295 1020.5,-295"/>
<text text-anchor="start" x="1028.5" y="-335" font-family="Helvetica,sans-Serif" font-size="10.00" fill="#000000">/home/travis/build</text>
<text text-anchor="start" x="1028.5" y="-324" font-family="Helvetica,sans-Serif" font-size="10.00" fill="#000000">/AliceO2Group/AliceO2</text>
<text text-anchor="start" x="1028.5" y="-313" font-family="Helvetica,sans-Serif" font-size="10.00" fill="#000000">/Detectors/Vertexing/include</text>
<text text-anchor="middle" x="1131" y="-302" font-family="Helvetica,sans-Serif" font-size="10.00" fill="#000000">/DetectorsVertexing/VertexTrackMatcher.h</text>
</a>
</g>
</g>
<!-- Node24&#45;&gt;Node38 -->
<g id="edge15" class="edge">
<title>Node24&#45;&gt;Node38</title>
<path fill="none" stroke="#191970" d="M620.6863,-403.7089C732.4152,-385.6005 907.0738,-357.2927 1020.2869,-338.9438"/>
<polygon fill="#191970" stroke="#191970" points="620.0566,-400.2652 610.7454,-405.32 621.1766,-407.175 620.0566,-400.2652"/>
</g>
<!-- Node28 -->
<g id="node5" class="node">
<title>Node28</title>
<g id="a_node5"><a xlink:href="../../de/deb/primary-vertex-reader-workflow_8cxx.html" target="_top" xlink:title="/home/travis/build\l/AliceO2Group/AliceO2\l/Detectors/GlobalTrackingWorkflow\l/src/primary&#45;vertex&#45;reader&#45;workflow.cxx">
<polygon fill="none" stroke="#000000" points="54,-195 54,-247 266,-247 266,-195 54,-195"/>
<text text-anchor="start" x="62" y="-235" font-family="Helvetica,sans-Serif" font-size="10.00" fill="#000000">/home/travis/build</text>
<text text-anchor="start" x="62" y="-224" font-family="Helvetica,sans-Serif" font-size="10.00" fill="#000000">/AliceO2Group/AliceO2</text>
<text text-anchor="start" x="62" y="-213" font-family="Helvetica,sans-Serif" font-size="10.00" fill="#000000">/Detectors/GlobalTrackingWorkflow</text>
<text text-anchor="middle" x="160" y="-202" font-family="Helvetica,sans-Serif" font-size="10.00" fill="#000000">/src/primary&#45;vertex&#45;reader&#45;workflow.cxx</text>
</a>
</g>
</g>
<!-- Node27&#45;&gt;Node28 -->
<g id="edge4" class="edge">
<title>Node27&#45;&gt;Node28</title>
<path fill="none" stroke="#191970" d="M351.8834,-286.2664C314.1321,-273.4259 272.0126,-259.0995 236.8745,-247.1478"/>
<polygon fill="#191970" stroke="#191970" points="350.7857,-289.59 361.3801,-289.4966 353.0398,-282.9628 350.7857,-289.59"/>
</g>
<!-- Node29 -->
<g id="node6" class="node">
<title>Node29</title>
<g id="a_node6"><a xlink:href="../../d9/dd2/PrimaryVertexReaderSpec_8cxx.html" target="_top" xlink:title="/home/travis/build\l/AliceO2Group/AliceO2\l/Detectors/GlobalTrackingWorkflow\l/src/PrimaryVertexReaderSpec.cxx">
<polygon fill="none" stroke="#000000" points="283.5,-195 283.5,-247 470.5,-247 470.5,-195 283.5,-195"/>
<text text-anchor="start" x="291.5" y="-235" font-family="Helvetica,sans-Serif" font-size="10.00" fill="#000000">/home/travis/build</text>
<text text-anchor="start" x="291.5" y="-224" font-family="Helvetica,sans-Serif" font-size="10.00" fill="#000000">/AliceO2Group/AliceO2</text>
<text text-anchor="start" x="291.5" y="-213" font-family="Helvetica,sans-Serif" font-size="10.00" fill="#000000">/Detectors/GlobalTrackingWorkflow</text>
<text text-anchor="middle" x="377" y="-202" font-family="Helvetica,sans-Serif" font-size="10.00" fill="#000000">/src/PrimaryVertexReaderSpec.cxx</text>
</a>
</g>
</g>
<!-- Node27&#45;&gt;Node29 -->
<g id="edge5" class="edge">
<title>Node27&#45;&gt;Node29</title>
<path fill="none" stroke="#191970" d="M423.3346,-281.1749C414.5017,-269.7035 405.0943,-257.486 397.08,-247.078"/>
<polygon fill="#191970" stroke="#191970" points="420.7626,-283.5714 429.6367,-289.3594 426.3089,-279.3007 420.7626,-283.5714"/>
</g>
<!-- Node31 -->
<g id="node8" class="node">
<title>Node31</title>
<g id="a_node8"><a xlink:href="../../d8/d11/PrimaryVertexingSpec_8h.html" target="_top" xlink:title="/home/travis/build\l/AliceO2Group/AliceO2\l/Detectors/GlobalTrackingWorkflow\l/include/GlobalTrackingWorkflow\l/PrimaryVertexingSpec.h">
<polygon fill="none" stroke="#000000" points="481.5,-89.5 481.5,-152.5 668.5,-152.5 668.5,-89.5 481.5,-89.5"/>
<text text-anchor="start" x="489.5" y="-140.5" font-family="Helvetica,sans-Serif" font-size="10.00" fill="#000000">/home/travis/build</text>
<text text-anchor="start" x="489.5" y="-129.5" font-family="Helvetica,sans-Serif" font-size="10.00" fill="#000000">/AliceO2Group/AliceO2</text>
<text text-anchor="start" x="489.5" y="-118.5" font-family="Helvetica,sans-Serif" font-size="10.00" fill="#000000">/Detectors/GlobalTrackingWorkflow</text>
<text text-anchor="start" x="489.5" y="-107.5" font-family="Helvetica,sans-Serif" font-size="10.00" fill="#000000">/include/GlobalTrackingWorkflow</text>
<text text-anchor="middle" x="575" y="-96.5" font-family="Helvetica,sans-Serif" font-size="10.00" fill="#000000">/PrimaryVertexingSpec.h</text>
</a>
</g>
</g>
<!-- Node30&#45;&gt;Node31 -->
<g id="edge7" class="edge">
<title>Node30&#45;&gt;Node31</title>
<path fill="none" stroke="#191970" d="M575,-184.8138C575,-174.2664 575,-162.829 575,-152.5891"/>
<polygon fill="#191970" stroke="#191970" points="571.5001,-184.9872 575,-194.9872 578.5001,-184.9873 571.5001,-184.9872"/>
</g>
<!-- Node34 -->
<g id="node11" class="node">
<title>Node34</title>
<g id="a_node11"><a xlink:href="../../da/d7a/PVertexer_8cxx.html" target="_top" xlink:title="Primary vertex finder. ">
<polygon fill="none" stroke="#000000" points="687,-95 687,-147 821,-147 821,-95 687,-95"/>
<text text-anchor="start" x="695" y="-135" font-family="Helvetica,sans-Serif" font-size="10.00" fill="#000000">/home/travis/build</text>
<text text-anchor="start" x="695" y="-124" font-family="Helvetica,sans-Serif" font-size="10.00" fill="#000000">/AliceO2Group/AliceO2</text>
<text text-anchor="start" x="695" y="-113" font-family="Helvetica,sans-Serif" font-size="10.00" fill="#000000">/Detectors/Vertexing/src</text>
<text text-anchor="middle" x="754" y="-102" font-family="Helvetica,sans-Serif" font-size="10.00" fill="#000000">/PVertexer.cxx</text>
</a>
</g>
</g>
<!-- Node30&#45;&gt;Node34 -->
<g id="edge10" class="edge">
<title>Node30&#45;&gt;Node34</title>
<path fill="none" stroke="#191970" d="M630.4478,-190.0236C655.1084,-176.2467 683.8225,-160.2053 707.3597,-147.0561"/>
<polygon fill="#191970" stroke="#191970" points="628.5859,-187.0545 621.5629,-194.9872 631.9999,-193.1656 628.5859,-187.0545"/>
</g>
<!-- Node32 -->
<g id="node9" class="node">
<title>Node32</title>
<g id="a_node9"><a xlink:href="../../d2/dfc/primary-vertexing-workflow_8cxx.html" target="_top" xlink:title="/home/travis/build\l/AliceO2Group/AliceO2\l/Detectors/GlobalTrackingWorkflow\l/src/primary&#45;vertexing&#45;workflow.cxx">
<polygon fill="none" stroke="#000000" points="759.5,-.5 759.5,-52.5 952.5,-52.5 952.5,-.5 759.5,-.5"/>
<text text-anchor="start" x="767.5" y="-40.5" font-family="Helvetica,sans-Serif" font-size="10.00" fill="#000000">/home/travis/build</text>
<text text-anchor="start" x="767.5" y="-29.5" font-family="Helvetica,sans-Serif" font-size="10.00" fill="#000000">/AliceO2Group/AliceO2</text>
<text text-anchor="start" x="767.5" y="-18.5" font-family="Helvetica,sans-Serif" font-size="10.00" fill="#000000">/Detectors/GlobalTrackingWorkflow</text>
<text text-anchor="middle" x="856" y="-7.5" font-family="Helvetica,sans-Serif" font-size="10.00" fill="#000000">/src/primary&#45;vertexing&#45;workflow.cxx</text>
</a>
</g>
</g>
<!-- Node31&#45;&gt;Node32 -->
<g id="edge8" class="edge">
<title>Node31&#45;&gt;Node32</title>
<path fill="none" stroke="#191970" d="M678.2673,-86.2713C711.3357,-75.1505 747.3698,-63.0322 778.2941,-52.6324"/>
<polygon fill="#191970" stroke="#191970" points="676.9316,-83.0278 668.5689,-89.5329 679.163,-89.6627 676.9316,-83.0278"/>
</g>
<!-- Node33 -->
<g id="node10" class="node">
<title>Node33</title>
<g id="a_node10"><a xlink:href="../../db/d2d/PrimaryVertexingSpec_8cxx.html" target="_top" xlink:title="/home/travis/build\l/AliceO2Group/AliceO2\l/Detectors/GlobalTrackingWorkflow\l/src/PrimaryVertexingSpec.cxx">
<polygon fill="none" stroke="#000000" points="481.5,-.5 481.5,-52.5 668.5,-52.5 668.5,-.5 481.5,-.5"/>
<text text-anchor="start" x="489.5" y="-40.5" font-family="Helvetica,sans-Serif" font-size="10.00" fill="#000000">/home/travis/build</text>
<text text-anchor="start" x="489.5" y="-29.5" font-family="Helvetica,sans-Serif" font-size="10.00" fill="#000000">/AliceO2Group/AliceO2</text>
<text text-anchor="start" x="489.5" y="-18.5" font-family="Helvetica,sans-Serif" font-size="10.00" fill="#000000">/Detectors/GlobalTrackingWorkflow</text>
<text text-anchor="middle" x="575" y="-7.5" font-family="Helvetica,sans-Serif" font-size="10.00" fill="#000000">/src/PrimaryVertexingSpec.cxx</text>
</a>
</g>
</g>
<!-- Node31&#45;&gt;Node33 -->
<g id="edge9" class="edge">
<title>Node31&#45;&gt;Node33</title>
<path fill="none" stroke="#191970" d="M575,-79.2457C575,-70.2008 575,-60.8836 575,-52.6442"/>
<polygon fill="#191970" stroke="#191970" points="571.5001,-79.2699 575,-89.27 578.5001,-79.27 571.5001,-79.2699"/>
</g>
<!-- Node35&#45;&gt;Node30 -->
<g id="edge13" class="edge">
<title>Node35&#45;&gt;Node30</title>
<path fill="none" stroke="#191970" d="M688.9764,-289.6605C666.2427,-275.9655 639.8893,-260.0899 618.2531,-247.0561"/>
<polygon fill="#191970" stroke="#191970" points="687.4469,-292.8251 697.8188,-294.9872 691.059,-286.829 687.4469,-292.8251"/>
</g>
<!-- Node36 -->
<g id="node13" class="node">
<title>Node36</title>
<g id="a_node13"><a xlink:href="../../dd/d09/PrimaryVertexWriterSpec_8cxx.html" target="_top" xlink:title="/home/travis/build\l/AliceO2Group/AliceO2\l/Detectors/GlobalTrackingWorkflow\l/src/PrimaryVertexWriterSpec.cxx">
<polygon fill="none" stroke="#000000" points="679.5,-195 679.5,-247 866.5,-247 866.5,-195 679.5,-195"/>
<text text-anchor="start" x="687.5" y="-235" font-family="Helvetica,sans-Serif" font-size="10.00" fill="#000000">/home/travis/build</text>
<text text-anchor="start" x="687.5" y="-224" font-family="Helvetica,sans-Serif" font-size="10.00" fill="#000000">/AliceO2Group/AliceO2</text>
<text text-anchor="start" x="687.5" y="-213" font-family="Helvetica,sans-Serif" font-size="10.00" fill="#000000">/Detectors/GlobalTrackingWorkflow</text>
<text text-anchor="middle" x="773" y="-202" font-family="Helvetica,sans-Serif" font-size="10.00" fill="#000000">/src/PrimaryVertexWriterSpec.cxx</text>
</a>
</g>
</g>
<!-- Node35&#45;&gt;Node36 -->
<g id="edge12" class="edge">
<title>Node35&#45;&gt;Node36</title>
<path fill="none" stroke="#191970" d="M752.4338,-285.2694C756.4504,-272.7176 760.886,-258.8564 764.6064,-247.2299"/>
<polygon fill="#191970" stroke="#191970" points="749.0384,-284.3962 749.3241,-294.9872 755.7054,-286.5297 749.0384,-284.3962"/>
</g>
<!-- Node37 -->
<g id="node14" class="node">
<title>Node37</title>
<g id="a_node14"><a xlink:href="../../db/dfb/PVertexerHelpers_8cxx.html" target="_top" xlink:title="Primary vertex finder helper classes. ">
<polygon fill="none" stroke="#000000" points="885,-195 885,-247 1019,-247 1019,-195 885,-195"/>
<text text-anchor="start" x="893" y="-235" font-family="Helvetica,sans-Serif" font-size="10.00" fill="#000000">/home/travis/build</text>
<text text-anchor="start" x="893" y="-224" font-family="Helvetica,sans-Serif" font-size="10.00" fill="#000000">/AliceO2Group/AliceO2</text>
<text text-anchor="start" x="893" y="-213" font-family="Helvetica,sans-Serif" font-size="10.00" fill="#000000">/Detectors/Vertexing/src</text>
<text text-anchor="middle" x="952" y="-202" font-family="Helvetica,sans-Serif" font-size="10.00" fill="#000000">/PVertexerHelpers.cxx</text>
</a>
</g>
</g>
<!-- Node35&#45;&gt;Node37 -->
<g id="edge14" class="edge">
<title>Node35&#45;&gt;Node37</title>
<path fill="none" stroke="#191970" d="M805.2153,-290.5662C834.5377,-276.6693 868.9118,-260.3783 897.0217,-247.0561"/>
<polygon fill="#191970" stroke="#191970" points="803.4245,-287.5417 795.887,-294.9872 806.4224,-293.8672 803.4245,-287.5417"/>
</g>
<!-- Node39 -->
<g id="node16" class="node">
<title>Node39</title>
<g id="a_node16"><a xlink:href="../../d9/d8e/VertexTrackMatcherSpec_8h.html" target="_top" xlink:title="Specs for vertex track association device. ">
<polygon fill="none" stroke="#000000" points="1037.5,-189.5 1037.5,-252.5 1224.5,-252.5 1224.5,-189.5 1037.5,-189.5"/>
<text text-anchor="start" x="1045.5" y="-240.5" font-family="Helvetica,sans-Serif" font-size="10.00" fill="#000000">/home/travis/build</text>
<text text-anchor="start" x="1045.5" y="-229.5" font-family="Helvetica,sans-Serif" font-size="10.00" fill="#000000">/AliceO2Group/AliceO2</text>
<text text-anchor="start" x="1045.5" y="-218.5" font-family="Helvetica,sans-Serif" font-size="10.00" fill="#000000">/Detectors/GlobalTrackingWorkflow</text>
<text text-anchor="start" x="1045.5" y="-207.5" font-family="Helvetica,sans-Serif" font-size="10.00" fill="#000000">/include/GlobalTrackingWorkflow</text>
<text text-anchor="middle" x="1131" y="-196.5" font-family="Helvetica,sans-Serif" font-size="10.00" fill="#000000">/VertexTrackMatcherSpec.h</text>
</a>
</g>
</g>
<!-- Node38&#45;&gt;Node39 -->
<g id="edge16" class="edge">
<title>Node38&#45;&gt;Node39</title>
<path fill="none" stroke="#191970" d="M1131,-284.8138C1131,-274.2664 1131,-262.829 1131,-252.5891"/>
<polygon fill="#191970" stroke="#191970" points="1127.5001,-284.9872 1131,-294.9872 1134.5001,-284.9873 1127.5001,-284.9872"/>
</g>
<!-- Node41 -->
<g id="node18" class="node">
<title>Node41</title>
<g id="a_node18"><a xlink:href="../../d0/de5/VertexTrackMatcher_8cxx.html" target="_top" xlink:title="Class for vertex track association. ">
<polygon fill="none" stroke="#000000" points="1242.5,-195 1242.5,-247 1377.5,-247 1377.5,-195 1242.5,-195"/>
<text text-anchor="start" x="1250.5" y="-235" font-family="Helvetica,sans-Serif" font-size="10.00" fill="#000000">/home/travis/build</text>
<text text-anchor="start" x="1250.5" y="-224" font-family="Helvetica,sans-Serif" font-size="10.00" fill="#000000">/AliceO2Group/AliceO2</text>
<text text-anchor="start" x="1250.5" y="-213" font-family="Helvetica,sans-Serif" font-size="10.00" fill="#000000">/Detectors/Vertexing/src</text>
<text text-anchor="middle" x="1310" y="-202" font-family="Helvetica,sans-Serif" font-size="10.00" fill="#000000">/VertexTrackMatcher.cxx</text>
</a>
</g>
</g>
<!-- Node38&#45;&gt;Node41 -->
<g id="edge19" class="edge">
<title>Node38&#45;&gt;Node41</title>
<path fill="none" stroke="#191970" d="M1186.4478,-290.0236C1211.1084,-276.2467 1239.8225,-260.2053 1263.3597,-247.0561"/>
<polygon fill="#191970" stroke="#191970" points="1184.5859,-287.0545 1177.5629,-294.9872 1187.9999,-293.1656 1184.5859,-287.0545"/>
</g>
<!-- Node39&#45;&gt;Node32 -->
<g id="edge17" class="edge">
<title>Node39&#45;&gt;Node32</title>
<path fill="none" stroke="#191970" d="M1074.1482,-183.7295C1059.3623,-173.8644 1043.5127,-163.1364 1029,-153 980.4989,-119.1243 925.5092,-78.5303 890.8007,-52.6311"/>
<polygon fill="#191970" stroke="#191970" points="1072.4483,-186.8023 1082.7128,-189.4272 1076.3255,-180.9742 1072.4483,-186.8023"/>
</g>
<!-- Node40 -->
<g id="node17" class="node">
<title>Node40</title>
<g id="a_node17"><a xlink:href="../../de/d73/VertexTrackMatcherSpec_8cxx.html" target="_top" xlink:title="Specs for vertex track association device. ">
<polygon fill="none" stroke="#000000" points="1037.5,-95 1037.5,-147 1224.5,-147 1224.5,-95 1037.5,-95"/>
<text text-anchor="start" x="1045.5" y="-135" font-family="Helvetica,sans-Serif" font-size="10.00" fill="#000000">/home/travis/build</text>
<text text-anchor="start" x="1045.5" y="-124" font-family="Helvetica,sans-Serif" font-size="10.00" fill="#000000">/AliceO2Group/AliceO2</text>
<text text-anchor="start" x="1045.5" y="-113" font-family="Helvetica,sans-Serif" font-size="10.00" fill="#000000">/Detectors/GlobalTrackingWorkflow</text>
<text text-anchor="middle" x="1131" y="-102" font-family="Helvetica,sans-Serif" font-size="10.00" fill="#000000">/src/VertexTrackMatcherSpec.cxx</text>
</a>
</g>
</g>
<!-- Node39&#45;&gt;Node40 -->
<g id="edge18" class="edge">
<title>Node39&#45;&gt;Node40</title>
<path fill="none" stroke="#191970" d="M1131,-179.1631C1131,-168.2863 1131,-156.8798 1131,-147.078"/>
<polygon fill="#191970" stroke="#191970" points="1127.5001,-179.3593 1131,-189.3594 1134.5001,-179.3594 1127.5001,-179.3593"/>
</g>
</g>
</svg>
