<?xml version="1.0" encoding="UTF-8" standalone="no"?>
<!DOCTYPE svg PUBLIC "-//W3C//DTD SVG 1.1//EN"
 "http://www.w3.org/Graphics/SVG/1.1/DTD/svg11.dtd">
<!-- Generated by graphviz version 2.40.1 (20161225.0304)
 -->
<!-- Title: TaskDPlus Pages: 1 -->
<svg width="1280pt" height="1006pt"
 viewBox="0.00 0.00 1279.50 1006.00" xmlns="http://www.w3.org/2000/svg" xmlns:xlink="http://www.w3.org/1999/xlink">
<g id="graph0" class="graph" transform="scale(1 1) rotate(0) translate(4 1002)">
<title>TaskDPlus</title>
<!-- Node1 -->
<g id="node1" class="node">
<title>Node1</title>
<polygon fill="#bfbfbf" stroke="#000000" points="507,-.5 507,-79.5 588,-79.5 588,-.5 507,-.5"/>
<text text-anchor="middle" x="547.5" y="-67.5" font-family="Helvetica,sans-Serif" font-size="10.00" fill="#000000">TaskDPlus</text>
<polyline fill="none" stroke="#000000" points="507,-60.5 588,-60.5 "/>
<text text-anchor="start" x="515" y="-48.5" font-family="Helvetica,sans-Serif" font-size="10.00" fill="#000000">+ hmass</text>
<text text-anchor="start" x="515" y="-37.5" font-family="Helvetica,sans-Serif" font-size="10.00" fill="#000000">+ hptcand</text>
<text text-anchor="start" x="515" y="-26.5" font-family="Helvetica,sans-Serif" font-size="10.00" fill="#000000">+ hImpParErr</text>
<polyline fill="none" stroke="#000000" points="507,-19.5 588,-19.5 "/>
<text text-anchor="start" x="515" y="-7.5" font-family="Helvetica,sans-Serif" font-size="10.00" fill="#000000">+ process()</text>
</g>
<!-- Node2 -->
<g id="node2" class="node">
<title>Node2</title>
<g id="a_node2"><a xlink:href="../../d8/d71/structo2_1_1framework_1_1Configurable.html" target="_top" xlink:title="{o2::framework::Configurable\l\&lt; int \&gt;\n||+ Configurable()\l}">
<polygon fill="none" stroke="#000000" points="200,-153.5 200,-221.5 355,-221.5 355,-153.5 200,-153.5"/>
<text text-anchor="start" x="208" y="-209.5" font-family="Helvetica,sans-Serif" font-size="10.00" fill="#000000">o2::framework::Configurable</text>
<text text-anchor="middle" x="277.5" y="-198.5" font-family="Helvetica,sans-Serif" font-size="10.00" fill="#000000">&lt; int &gt;</text>
<polyline fill="none" stroke="#000000" points="200,-191.5 355,-191.5 "/>
<text text-anchor="middle" x="277.5" y="-179.5" font-family="Helvetica,sans-Serif" font-size="10.00" fill="#000000"> </text>
<polyline fill="none" stroke="#000000" points="200,-172.5 355,-172.5 "/>
<text text-anchor="start" x="208" y="-160.5" font-family="Helvetica,sans-Serif" font-size="10.00" fill="#000000">+ Configurable()</text>
</a>
</g>
</g>
<!-- Node2&#45;&gt;Node1 -->
<g id="edge1" class="edge">
<title>Node2&#45;&gt;Node1</title>
<path fill="none" stroke="#404040" d="M339.7825,-153.4753C387.2611,-127.5379 451.8438,-92.2566 496.3285,-67.9548"/>
<polygon fill="none" stroke="#404040" points="496.3703,-67.932 499.7181,-61.5451 506.9014,-62.1789 503.5536,-68.5658 496.3703,-67.932"/>
<text text-anchor="middle" x="494" y="-101" font-family="Helvetica,sans-Serif" font-size="10.00" fill="#000000"> +d_selectionFlagDPlus</text>
</g>
<!-- Node3 -->
<g id="node3" class="node">
<title>Node3</title>
<g id="a_node3"><a xlink:href="../../da/def/structo2_1_1framework_1_1ConfigurablePolicyConst.html" target="_top" xlink:title="{o2::framework::Configurable\lPolicyConst\&lt; int \&gt;\n||+ ConfigurablePolicyConst()\l}">
<polygon fill="none" stroke="#000000" points="200,-350.5 200,-418.5 355,-418.5 355,-350.5 200,-350.5"/>
<text text-anchor="start" x="208" y="-406.5" font-family="Helvetica,sans-Serif" font-size="10.00" fill="#000000">o2::framework::Configurable</text>
<text text-anchor="middle" x="277.5" y="-395.5" font-family="Helvetica,sans-Serif" font-size="10.00" fill="#000000">PolicyConst&lt; int &gt;</text>
<polyline fill="none" stroke="#000000" points="200,-388.5 355,-388.5 "/>
<text text-anchor="middle" x="277.5" y="-376.5" font-family="Helvetica,sans-Serif" font-size="10.00" fill="#000000"> </text>
<polyline fill="none" stroke="#000000" points="200,-369.5 355,-369.5 "/>
<text text-anchor="start" x="208" y="-357.5" font-family="Helvetica,sans-Serif" font-size="10.00" fill="#000000">+ ConfigurablePolicyConst()</text>
</a>
</g>
</g>
<!-- Node3&#45;&gt;Node2 -->
<g id="edge2" class="edge">
<title>Node3&#45;&gt;Node2</title>
<path fill="none" stroke="#191970" d="M277.5,-340.0068C277.5,-304.174 277.5,-254.5389 277.5,-221.7515"/>
<polygon fill="none" stroke="#191970" points="274.0001,-340.1852 277.5,-350.1852 281.0001,-340.1853 274.0001,-340.1852"/>
</g>
<!-- Node4 -->
<g id="node4" class="node">
<title>Node4</title>
<g id="a_node4"><a xlink:href="../../da/d2f/structo2_1_1framework_1_1ConfigurableBase.html" target="_top" xlink:title="{o2::framework::Configurable\lBase\&lt; int \&gt;\n||+ ConfigurableBase()\l}">
<polygon fill="none" stroke="#000000" points="55,-571 55,-639 210,-639 210,-571 55,-571"/>
<text text-anchor="start" x="63" y="-627" font-family="Helvetica,sans-Serif" font-size="10.00" fill="#000000">o2::framework::Configurable</text>
<text text-anchor="middle" x="132.5" y="-616" font-family="Helvetica,sans-Serif" font-size="10.00" fill="#000000">Base&lt; int &gt;</text>
<polyline fill="none" stroke="#000000" points="55,-609 210,-609 "/>
<text text-anchor="middle" x="132.5" y="-597" font-family="Helvetica,sans-Serif" font-size="10.00" fill="#000000"> </text>
<polyline fill="none" stroke="#000000" points="55,-590 210,-590 "/>
<text text-anchor="start" x="63" y="-578" font-family="Helvetica,sans-Serif" font-size="10.00" fill="#000000">+ ConfigurableBase()</text>
</a>
</g>
</g>
<!-- Node4&#45;&gt;Node3 -->
<g id="edge3" class="edge">
<title>Node4&#45;&gt;Node3</title>
<path fill="none" stroke="#191970" d="M160.8131,-561.9445C188.3508,-520.0682 229.6375,-457.2839 255.0028,-418.7112"/>
<polygon fill="none" stroke="#191970" points="157.7264,-560.2685 155.1563,-570.5469 163.5751,-564.1146 157.7264,-560.2685"/>
</g>
<!-- Node5 -->
<g id="node5" class="node">
<title>Node5</title>
<polygon fill="none" stroke="#bfbfbf" points="397,-924 397,-981 426,-981 426,-924 397,-924"/>
<text text-anchor="middle" x="411.5" y="-969" font-family="Helvetica,sans-Serif" font-size="10.00" fill="#000000">int</text>
<polyline fill="none" stroke="#bfbfbf" points="397,-962 426,-962 "/>
<text text-anchor="middle" x="411.5" y="-950" font-family="Helvetica,sans-Serif" font-size="10.00" fill="#000000"> </text>
<polyline fill="none" stroke="#bfbfbf" points="397,-943 426,-943 "/>
<text text-anchor="middle" x="411.5" y="-931" font-family="Helvetica,sans-Serif" font-size="10.00" fill="#000000"> </text>
</g>
<!-- Node5&#45;&gt;Node4 -->
<g id="edge4" class="edge">
<title>Node5&#45;&gt;Node4</title>
<path fill="none" stroke="#404040" d="M396.8367,-944.9181C378.6407,-935.6046 346.5783,-919.5038 318.5,-907 255.4708,-878.932 217.8404,-902.6853 174.5,-849 129.006,-792.6471 125.2038,-704.7754 127.9202,-651.2861"/>
<polygon fill="none" stroke="#404040" points="127.932,-651.0951 124.3143,-644.8571 128.681,-639.1185 132.2987,-645.3565 127.932,-651.0951"/>
<text text-anchor="middle" x="194" y="-801" font-family="Helvetica,sans-Serif" font-size="10.00" fill="#000000"> +value</text>
<text text-anchor="middle" x="194" y="-790" font-family="Helvetica,sans-Serif" font-size="10.00" fill="#000000">+name</text>
<text text-anchor="middle" x="194" y="-779" font-family="Helvetica,sans-Serif" font-size="10.00" fill="#000000">+help</text>
</g>
<!-- Node6 -->
<g id="node6" class="node">
<title>Node6</title>
<g id="a_node6"><a xlink:href="../../da/d2f/structo2_1_1framework_1_1ConfigurableBase.html" target="_top" xlink:title="{o2::framework::Configurable\lBase\&lt; T \&gt;\n||+ ConfigurableBase()\l}">
<polygon fill="none" stroke="#000000" points="223,-758.5 223,-826.5 378,-826.5 378,-758.5 223,-758.5"/>
<text text-anchor="start" x="231" y="-814.5" font-family="Helvetica,sans-Serif" font-size="10.00" fill="#000000">o2::framework::Configurable</text>
<text text-anchor="middle" x="300.5" y="-803.5" font-family="Helvetica,sans-Serif" font-size="10.00" fill="#000000">Base&lt; T &gt;</text>
<polyline fill="none" stroke="#000000" points="223,-796.5 378,-796.5 "/>
<text text-anchor="middle" x="300.5" y="-784.5" font-family="Helvetica,sans-Serif" font-size="10.00" fill="#000000"> </text>
<polyline fill="none" stroke="#000000" points="223,-777.5 378,-777.5 "/>
<text text-anchor="start" x="231" y="-765.5" font-family="Helvetica,sans-Serif" font-size="10.00" fill="#000000">+ ConfigurableBase()</text>
</a>
</g>
</g>
<!-- Node5&#45;&gt;Node6 -->
<g id="edge6" class="edge">
<title>Node5&#45;&gt;Node6</title>
<path fill="none" stroke="#404040" d="M396.9493,-936.9338C385.601,-924.4408 369.7614,-906.2067 357.5,-889 345.9214,-872.7515 334.4735,-854.0375 324.9092,-837.4399"/>
<polygon fill="none" stroke="#404040" points="324.8409,-837.3197 318.3993,-834.0785 318.9136,-826.8857 325.3553,-830.1269 324.8409,-837.3197"/>
<text text-anchor="middle" x="377.5" y="-881" font-family="Helvetica,sans-Serif" font-size="10.00" fill="#000000"> +name</text>
<text text-anchor="middle" x="377.5" y="-870" font-family="Helvetica,sans-Serif" font-size="10.00" fill="#000000">+help</text>
</g>
<!-- Node11 -->
<g id="node11" class="node">
<title>Node11</title>
<g id="a_node11"><a xlink:href="../../d4/d79/structo2_1_1framework_1_1OutputObj.html" target="_top" xlink:title="{o2::framework::OutputObj\l\&lt; TH1F \&gt;\n||+ spec()\l+ OutputObj()\l+ OutputObj()\l+ setObject()\l+ setObject()\l+ setObject()\l+ setObject()\l+ setHash()\l+ operator&#45;\&gt;()\l+ operator*()\l+ ref()\l}">
<polygon fill="none" stroke="#000000" points="681,-295.5 681,-473.5 824,-473.5 824,-295.5 681,-295.5"/>
<text text-anchor="start" x="689" y="-461.5" font-family="Helvetica,sans-Serif" font-size="10.00" fill="#000000">o2::framework::OutputObj</text>
<text text-anchor="middle" x="752.5" y="-450.5" font-family="Helvetica,sans-Serif" font-size="10.00" fill="#000000">&lt; TH1F &gt;</text>
<polyline fill="none" stroke="#000000" points="681,-443.5 824,-443.5 "/>
<text text-anchor="middle" x="752.5" y="-431.5" font-family="Helvetica,sans-Serif" font-size="10.00" fill="#000000"> </text>
<polyline fill="none" stroke="#000000" points="681,-424.5 824,-424.5 "/>
<text text-anchor="start" x="689" y="-412.5" font-family="Helvetica,sans-Serif" font-size="10.00" fill="#000000">+ spec()</text>
<text text-anchor="start" x="689" y="-401.5" font-family="Helvetica,sans-Serif" font-size="10.00" fill="#000000">+ OutputObj()</text>
<text text-anchor="start" x="689" y="-390.5" font-family="Helvetica,sans-Serif" font-size="10.00" fill="#000000">+ OutputObj()</text>
<text text-anchor="start" x="689" y="-379.5" font-family="Helvetica,sans-Serif" font-size="10.00" fill="#000000">+ setObject()</text>
<text text-anchor="start" x="689" y="-368.5" font-family="Helvetica,sans-Serif" font-size="10.00" fill="#000000">+ setObject()</text>
<text text-anchor="start" x="689" y="-357.5" font-family="Helvetica,sans-Serif" font-size="10.00" fill="#000000">+ setObject()</text>
<text text-anchor="start" x="689" y="-346.5" font-family="Helvetica,sans-Serif" font-size="10.00" fill="#000000">+ setObject()</text>
<text text-anchor="start" x="689" y="-335.5" font-family="Helvetica,sans-Serif" font-size="10.00" fill="#000000">+ setHash()</text>
<text text-anchor="start" x="689" y="-324.5" font-family="Helvetica,sans-Serif" font-size="10.00" fill="#000000">+ operator&#45;&gt;()</text>
<text text-anchor="start" x="689" y="-313.5" font-family="Helvetica,sans-Serif" font-size="10.00" fill="#000000">+ operator*()</text>
<text text-anchor="start" x="689" y="-302.5" font-family="Helvetica,sans-Serif" font-size="10.00" fill="#000000">+ ref()</text>
</a>
</g>
</g>
<!-- Node5&#45;&gt;Node11 -->
<g id="edge15" class="edge">
<title>Node5&#45;&gt;Node11</title>
<path fill="none" stroke="#404040" d="M410.0871,-923.7752C406.4068,-838.5549 399.4665,-588.8648 440.5,-521 488.1688,-442.1611 593.4043,-408.7254 668.4641,-394.63"/>
<polygon fill="none" stroke="#404040" points="668.8898,-394.5543 674.096,-389.5646 680.7041,-392.4512 675.498,-397.4408 668.8898,-394.5543"/>
<text text-anchor="middle" x="426.5" y="-710" font-family="Helvetica,sans-Serif" font-size="10.00" fill="#000000"> +label</text>
</g>
<!-- Node15 -->
<g id="node15" class="node">
<title>Node15</title>
<g id="a_node15"><a xlink:href="../../da/d96/structo2_1_1framework_1_1InputSpec.html" target="_top" xlink:title="{o2::framework::InputSpec\n||+ InputSpec()\l+ InputSpec()\l+ InputSpec()\l+ InputSpec()\l+ InputSpec()\l+ operator==()\l}">
<polygon fill="none" stroke="#000000" points="974.5,-736.5 974.5,-848.5 1116.5,-848.5 1116.5,-736.5 974.5,-736.5"/>
<text text-anchor="middle" x="1045.5" y="-836.5" font-family="Helvetica,sans-Serif" font-size="10.00" fill="#000000">o2::framework::InputSpec</text>
<polyline fill="none" stroke="#000000" points="974.5,-829.5 1116.5,-829.5 "/>
<text text-anchor="middle" x="1045.5" y="-817.5" font-family="Helvetica,sans-Serif" font-size="10.00" fill="#000000"> </text>
<polyline fill="none" stroke="#000000" points="974.5,-810.5 1116.5,-810.5 "/>
<text text-anchor="start" x="982.5" y="-798.5" font-family="Helvetica,sans-Serif" font-size="10.00" fill="#000000">+ InputSpec()</text>
<text text-anchor="start" x="982.5" y="-787.5" font-family="Helvetica,sans-Serif" font-size="10.00" fill="#000000">+ InputSpec()</text>
<text text-anchor="start" x="982.5" y="-776.5" font-family="Helvetica,sans-Serif" font-size="10.00" fill="#000000">+ InputSpec()</text>
<text text-anchor="start" x="982.5" y="-765.5" font-family="Helvetica,sans-Serif" font-size="10.00" fill="#000000">+ InputSpec()</text>
<text text-anchor="start" x="982.5" y="-754.5" font-family="Helvetica,sans-Serif" font-size="10.00" fill="#000000">+ InputSpec()</text>
<text text-anchor="start" x="982.5" y="-743.5" font-family="Helvetica,sans-Serif" font-size="10.00" fill="#000000">+ operator==()</text>
</a>
</g>
</g>
<!-- Node5&#45;&gt;Node15 -->
<g id="edge21" class="edge">
<title>Node5&#45;&gt;Node15</title>
<path fill="none" stroke="#404040" d="M426.2451,-950.6145C501.1674,-940.908 840.5807,-895.3903 963.2316,-849.3366"/>
<polygon fill="none" stroke="#404040" points="963.2619,-849.3245 967.3533,-843.3865 974.4082,-844.8793 970.3168,-850.8173 963.2619,-849.3245"/>
<text text-anchor="middle" x="923.5" y="-875.5" font-family="Helvetica,sans-Serif" font-size="10.00" fill="#000000"> +binding</text>
</g>
<!-- Node20 -->
<g id="node20" class="node">
<title>Node20</title>
<g id="a_node20"><a xlink:href="../../d4/d79/structo2_1_1framework_1_1OutputObj.html" target="_top" xlink:title="{o2::framework::OutputObj\&lt; T \&gt;\n||+ OutputObj()\l+ OutputObj()\l+ setObject()\l+ setObject()\l+ setObject()\l+ setObject()\l+ setHash()\l+ spec()\l+ operator&#45;\&gt;()\l+ operator*()\l+ ref()\l}">
<polygon fill="none" stroke="#000000" points="542.5,-521.5 542.5,-688.5 714.5,-688.5 714.5,-521.5 542.5,-521.5"/>
<text text-anchor="middle" x="628.5" y="-676.5" font-family="Helvetica,sans-Serif" font-size="10.00" fill="#000000">o2::framework::OutputObj&lt; T &gt;</text>
<polyline fill="none" stroke="#000000" points="542.5,-669.5 714.5,-669.5 "/>
<text text-anchor="middle" x="628.5" y="-657.5" font-family="Helvetica,sans-Serif" font-size="10.00" fill="#000000"> </text>
<polyline fill="none" stroke="#000000" points="542.5,-650.5 714.5,-650.5 "/>
<text text-anchor="start" x="550.5" y="-638.5" font-family="Helvetica,sans-Serif" font-size="10.00" fill="#000000">+ OutputObj()</text>
<text text-anchor="start" x="550.5" y="-627.5" font-family="Helvetica,sans-Serif" font-size="10.00" fill="#000000">+ OutputObj()</text>
<text text-anchor="start" x="550.5" y="-616.5" font-family="Helvetica,sans-Serif" font-size="10.00" fill="#000000">+ setObject()</text>
<text text-anchor="start" x="550.5" y="-605.5" font-family="Helvetica,sans-Serif" font-size="10.00" fill="#000000">+ setObject()</text>
<text text-anchor="start" x="550.5" y="-594.5" font-family="Helvetica,sans-Serif" font-size="10.00" fill="#000000">+ setObject()</text>
<text text-anchor="start" x="550.5" y="-583.5" font-family="Helvetica,sans-Serif" font-size="10.00" fill="#000000">+ setObject()</text>
<text text-anchor="start" x="550.5" y="-572.5" font-family="Helvetica,sans-Serif" font-size="10.00" fill="#000000">+ setHash()</text>
<text text-anchor="start" x="550.5" y="-561.5" font-family="Helvetica,sans-Serif" font-size="10.00" fill="#000000">+ spec()</text>
<text text-anchor="start" x="550.5" y="-550.5" font-family="Helvetica,sans-Serif" font-size="10.00" fill="#000000">+ operator&#45;&gt;()</text>
<text text-anchor="start" x="550.5" y="-539.5" font-family="Helvetica,sans-Serif" font-size="10.00" fill="#000000">+ operator*()</text>
<text text-anchor="start" x="550.5" y="-528.5" font-family="Helvetica,sans-Serif" font-size="10.00" fill="#000000">+ ref()</text>
</a>
</g>
</g>
<!-- Node5&#45;&gt;Node20 -->
<g id="edge26" class="edge">
<title>Node5&#45;&gt;Node20</title>
<path fill="none" stroke="#404040" d="M426.2444,-939.214C446.4002,-920.5123 482.8597,-884.7022 507.5,-849 539.5753,-802.525 568.057,-746.3104 589.3174,-699.5577"/>
<polygon fill="none" stroke="#404040" points="589.3662,-699.4492 588.18,-692.3363 594.2896,-688.5057 595.4757,-695.6186 589.3662,-699.4492"/>
<text text-anchor="middle" x="588.5" y="-790" font-family="Helvetica,sans-Serif" font-size="10.00" fill="#000000"> +label</text>
</g>
<!-- Node6&#45;&gt;Node4 -->
<g id="edge5" class="edge">
<title>Node6&#45;&gt;Node4</title>
<path fill="none" stroke="#ffa500" d="M262.6904,-750.3018C232.6308,-716.7531 191.1186,-670.4226 163.1184,-639.1724"/>
<polygon fill="#ffa500" stroke="#ffa500" points="260.4063,-752.9975 269.6862,-758.1096 265.6197,-748.3262 260.4063,-752.9975"/>
<text text-anchor="middle" x="252" y="-710" font-family="Helvetica,sans-Serif" font-size="10.00" fill="#000000"> &lt; int &gt;</text>
</g>
<!-- Node8 -->
<g id="node8" class="node">
<title>Node8</title>
<g id="a_node8"><a xlink:href="../../da/def/structo2_1_1framework_1_1ConfigurablePolicyConst.html" target="_top" xlink:title="{o2::framework::Configurable\lPolicyConst\&lt; T \&gt;\n||+ ConfigurablePolicyConst()\l}">
<polygon fill="none" stroke="#000000" points="228,-571 228,-639 383,-639 383,-571 228,-571"/>
<text text-anchor="start" x="236" y="-627" font-family="Helvetica,sans-Serif" font-size="10.00" fill="#000000">o2::framework::Configurable</text>
<text text-anchor="middle" x="305.5" y="-616" font-family="Helvetica,sans-Serif" font-size="10.00" fill="#000000">PolicyConst&lt; T &gt;</text>
<polyline fill="none" stroke="#000000" points="228,-609 383,-609 "/>
<text text-anchor="middle" x="305.5" y="-597" font-family="Helvetica,sans-Serif" font-size="10.00" fill="#000000"> </text>
<polyline fill="none" stroke="#000000" points="228,-590 383,-590 "/>
<text text-anchor="start" x="236" y="-578" font-family="Helvetica,sans-Serif" font-size="10.00" fill="#000000">+ ConfigurablePolicyConst()</text>
</a>
</g>
</g>
<!-- Node6&#45;&gt;Node8 -->
<g id="edge9" class="edge">
<title>Node6&#45;&gt;Node8</title>
<path fill="none" stroke="#191970" d="M301.6939,-747.7296C302.5822,-714.4169 303.7765,-669.6315 304.5887,-639.1724"/>
<polygon fill="none" stroke="#191970" points="298.185,-748.0198 301.4171,-758.1096 305.1825,-748.2065 298.185,-748.0198"/>
</g>
<!-- Node7 -->
<g id="node7" class="node">
<title>Node7</title>
<polygon fill="none" stroke="#bfbfbf" points="280,-924 280,-981 309,-981 309,-924 280,-924"/>
<text text-anchor="middle" x="294.5" y="-969" font-family="Helvetica,sans-Serif" font-size="10.00" fill="#000000">T</text>
<polyline fill="none" stroke="#bfbfbf" points="280,-962 309,-962 "/>
<text text-anchor="middle" x="294.5" y="-950" font-family="Helvetica,sans-Serif" font-size="10.00" fill="#000000"> </text>
<polyline fill="none" stroke="#bfbfbf" points="280,-943 309,-943 "/>
<text text-anchor="middle" x="294.5" y="-931" font-family="Helvetica,sans-Serif" font-size="10.00" fill="#000000"> </text>
</g>
<!-- Node7&#45;&gt;Node6 -->
<g id="edge7" class="edge">
<title>Node7&#45;&gt;Node6</title>
<path fill="none" stroke="#404040" d="M294.4393,-923.9899C294.5024,-907.3616 294.7524,-885.9866 295.5,-867 295.8617,-857.8134 296.4068,-847.999 297.0058,-838.6097"/>
<polygon fill="none" stroke="#404040" points="297.0082,-838.5729 293.4199,-832.318 297.8135,-826.6 301.4018,-832.8549 297.0082,-838.5729"/>
<text text-anchor="middle" x="315" y="-875.5" font-family="Helvetica,sans-Serif" font-size="10.00" fill="#000000"> +value</text>
</g>
<!-- Node8&#45;&gt;Node3 -->
<g id="edge8" class="edge">
<title>Node8&#45;&gt;Node3</title>
<path fill="none" stroke="#ffa500" d="M299.8649,-560.6236C294.5486,-518.7574 286.6912,-456.8805 281.8443,-418.7112"/>
<polygon fill="#ffa500" stroke="#ffa500" points="296.3931,-561.0675 301.125,-570.5469 303.3373,-560.1856 296.3931,-561.0675"/>
<text text-anchor="middle" x="311" y="-495" font-family="Helvetica,sans-Serif" font-size="10.00" fill="#000000"> &lt; int &gt;</text>
</g>
<!-- Node9 -->
<g id="node9" class="node">
<title>Node9</title>
<g id="a_node9"><a xlink:href="../../d8/d71/structo2_1_1framework_1_1Configurable.html" target="_top" xlink:title="{o2::framework::Configurable\l\&lt; T, IP \&gt;\n||+ Configurable()\l}">
<polygon fill="none" stroke="#000000" points="0,-350.5 0,-418.5 155,-418.5 155,-350.5 0,-350.5"/>
<text text-anchor="start" x="8" y="-406.5" font-family="Helvetica,sans-Serif" font-size="10.00" fill="#000000">o2::framework::Configurable</text>
<text text-anchor="middle" x="77.5" y="-395.5" font-family="Helvetica,sans-Serif" font-size="10.00" fill="#000000">&lt; T, IP &gt;</text>
<polyline fill="none" stroke="#000000" points="0,-388.5 155,-388.5 "/>
<text text-anchor="middle" x="77.5" y="-376.5" font-family="Helvetica,sans-Serif" font-size="10.00" fill="#000000"> </text>
<polyline fill="none" stroke="#000000" points="0,-369.5 155,-369.5 "/>
<text text-anchor="start" x="8" y="-357.5" font-family="Helvetica,sans-Serif" font-size="10.00" fill="#000000">+ Configurable()</text>
</a>
</g>
</g>
<!-- Node9&#45;&gt;Node2 -->
<g id="edge10" class="edge">
<title>Node9&#45;&gt;Node2</title>
<path fill="none" stroke="#ffa500" d="M119.8889,-342.747C156.4426,-306.7415 208.583,-255.3832 242.7269,-221.7515"/>
<polygon fill="#ffa500" stroke="#ffa500" points="117.0056,-340.6742 112.3373,-350.1852 121.9178,-345.6613 117.0056,-340.6742"/>
<text text-anchor="middle" x="215" y="-269" font-family="Helvetica,sans-Serif" font-size="10.00" fill="#000000"> &lt; int &gt;</text>
</g>
<!-- Node10 -->
<g id="node10" class="node">
<title>Node10</title>
<polygon fill="none" stroke="#bfbfbf" points="8,-576.5 8,-633.5 37,-633.5 37,-576.5 8,-576.5"/>
<text text-anchor="middle" x="22.5" y="-621.5" font-family="Helvetica,sans-Serif" font-size="10.00" fill="#000000">IP</text>
<polyline fill="none" stroke="#bfbfbf" points="8,-614.5 37,-614.5 "/>
<text text-anchor="middle" x="22.5" y="-602.5" font-family="Helvetica,sans-Serif" font-size="10.00" fill="#000000"> </text>
<polyline fill="none" stroke="#bfbfbf" points="8,-595.5 37,-595.5 "/>
<text text-anchor="middle" x="22.5" y="-583.5" font-family="Helvetica,sans-Serif" font-size="10.00" fill="#000000"> </text>
</g>
<!-- Node10&#45;&gt;Node9 -->
<g id="edge11" class="edge">
<title>Node10&#45;&gt;Node9</title>
<path fill="none" stroke="#191970" d="M32.1361,-566.3682C42.5486,-524.6234 58.9846,-458.7299 68.9525,-418.7678"/>
<polygon fill="none" stroke="#191970" points="28.7146,-565.6237 29.6903,-576.1735 35.5065,-567.3178 28.7146,-565.6237"/>
</g>
<!-- Node11&#45;&gt;Node1 -->
<g id="edge12" class="edge">
<title>Node11&#45;&gt;Node1</title>
<path fill="none" stroke="#404040" d="M699.4408,-295.3347C660.5951,-230.0549 609.2913,-143.8395 577.3522,-90.1663"/>
<polygon fill="none" stroke="#404040" points="577.1737,-89.8663 570.668,-86.7556 571.0372,-79.554 577.5429,-82.6646 577.1737,-89.8663"/>
<text text-anchor="middle" x="708.5" y="-240" font-family="Helvetica,sans-Serif" font-size="10.00" fill="#000000"> +hdeclengthxy</text>
<text text-anchor="middle" x="708.5" y="-229" font-family="Helvetica,sans-Serif" font-size="10.00" fill="#000000">+hdeclength</text>
<text text-anchor="middle" x="708.5" y="-218" font-family="Helvetica,sans-Serif" font-size="10.00" fill="#000000">+hEta</text>
<text text-anchor="middle" x="708.5" y="-207" font-family="Helvetica,sans-Serif" font-size="10.00" fill="#000000">+hCt</text>
<text text-anchor="middle" x="708.5" y="-196" font-family="Helvetica,sans-Serif" font-size="10.00" fill="#000000">+hd0</text>
<text text-anchor="middle" x="708.5" y="-185" font-family="Helvetica,sans-Serif" font-size="10.00" fill="#000000">+hptprong0</text>
<text text-anchor="middle" x="708.5" y="-174" font-family="Helvetica,sans-Serif" font-size="10.00" fill="#000000">+hDecLenErr</text>
<text text-anchor="middle" x="708.5" y="-163" font-family="Helvetica,sans-Serif" font-size="10.00" fill="#000000">+hptprong1</text>
<text text-anchor="middle" x="708.5" y="-152" font-family="Helvetica,sans-Serif" font-size="10.00" fill="#000000">+hptprong2</text>
<text text-anchor="middle" x="708.5" y="-141" font-family="Helvetica,sans-Serif" font-size="10.00" fill="#000000">+hDecLenXYErr</text>
<text text-anchor="middle" x="708.5" y="-130" font-family="Helvetica,sans-Serif" font-size="10.00" fill="#000000">...</text>
</g>
<!-- Node12 -->
<g id="node12" class="node">
<title>Node12</title>
<polygon fill="none" stroke="#bfbfbf" points="817,-764 817,-821 956,-821 956,-764 817,-764"/>
<text text-anchor="middle" x="886.5" y="-809" font-family="Helvetica,sans-Serif" font-size="10.00" fill="#000000">OutputObjHandlingPolicy</text>
<polyline fill="none" stroke="#bfbfbf" points="817,-802 956,-802 "/>
<text text-anchor="middle" x="886.5" y="-790" font-family="Helvetica,sans-Serif" font-size="10.00" fill="#000000"> </text>
<polyline fill="none" stroke="#bfbfbf" points="817,-783 956,-783 "/>
<text text-anchor="middle" x="886.5" y="-771" font-family="Helvetica,sans-Serif" font-size="10.00" fill="#000000"> </text>
</g>
<!-- Node12&#45;&gt;Node11 -->
<g id="edge13" class="edge">
<title>Node12&#45;&gt;Node11</title>
<path fill="none" stroke="#404040" d="M920.8852,-763.7344C933.3381,-751.1389 945.9438,-735.2876 952.5,-718 983.5508,-636.1245 990.7487,-598.2418 949.5,-521 924.978,-475.0804 877.3736,-441.4423 835.1045,-419.0488"/>
<polygon fill="none" stroke="#404040" points="834.8823,-418.9348 827.7179,-419.754 824.2062,-413.4557 831.3706,-412.6366 834.8823,-418.9348"/>
<text text-anchor="middle" x="998" y="-602.5" font-family="Helvetica,sans-Serif" font-size="10.00" fill="#000000"> +policy</text>
</g>
<!-- Node12&#45;&gt;Node20 -->
<g id="edge24" class="edge">
<title>Node12&#45;&gt;Node20</title>
<path fill="none" stroke="#404040" d="M861.3347,-763.626C843.566,-744.9314 818.2388,-721.4618 791.5,-707 766.9015,-693.6958 753.9548,-701.5944 725.3478,-689.1632"/>
<polygon fill="none" stroke="#404040" points="725.3021,-689.1408 718.1532,-690.0857 714.5313,-683.8502 721.6802,-682.9052 725.3021,-689.1408"/>
<text text-anchor="middle" x="829" y="-710" font-family="Helvetica,sans-Serif" font-size="10.00" fill="#000000"> +policy</text>
</g>
<!-- Node13 -->
<g id="node13" class="node">
<title>Node13</title>
<g id="a_node13"><a xlink:href="../../d3/d87/classuint32__t.html" target="_top" xlink:title="{uint32_t\n||}">
<polygon fill="none" stroke="#000000" points="742.5,-764 742.5,-821 798.5,-821 798.5,-764 742.5,-764"/>
<text text-anchor="middle" x="770.5" y="-809" font-family="Helvetica,sans-Serif" font-size="10.00" fill="#000000">uint32_t</text>
<polyline fill="none" stroke="#000000" points="742.5,-802 798.5,-802 "/>
<text text-anchor="middle" x="770.5" y="-790" font-family="Helvetica,sans-Serif" font-size="10.00" fill="#000000"> </text>
<polyline fill="none" stroke="#000000" points="742.5,-783 798.5,-783 "/>
<text text-anchor="middle" x="770.5" y="-771" font-family="Helvetica,sans-Serif" font-size="10.00" fill="#000000"> </text>
</a>
</g>
</g>
<!-- Node13&#45;&gt;Node11 -->
<g id="edge14" class="edge">
<title>Node13&#45;&gt;Node11</title>
<path fill="none" stroke="#404040" d="M788.1091,-763.7663C794.1763,-754.5921 801.2726,-744.5954 808.5,-736 827.9206,-712.9033 845.6622,-716.7576 857.5,-689 886.7906,-620.3183 881.5431,-591.6897 857.5,-521 851.4009,-503.068 841.8903,-485.6518 831.0301,-469.5945"/>
<polygon fill="none" stroke="#404040" points="831.0256,-469.588 824.2994,-466.9883 824.1121,-459.7796 830.8383,-462.3793 831.0256,-469.588"/>
<text text-anchor="middle" x="911.5" y="-602.5" font-family="Helvetica,sans-Serif" font-size="10.00" fill="#000000"> +mTaskHash</text>
</g>
<!-- Node13&#45;&gt;Node20 -->
<g id="edge25" class="edge">
<title>Node13&#45;&gt;Node20</title>
<path fill="none" stroke="#404040" d="M752.5788,-763.9756C746.6811,-754.9077 739.9731,-744.9205 733.5,-736 724.4968,-723.5929 714.7612,-710.7545 704.974,-698.1858"/>
<polygon fill="none" stroke="#404040" points="704.8937,-698.0832 698.0441,-695.8285 697.491,-688.6386 704.3405,-690.8934 704.8937,-698.0832"/>
<text text-anchor="middle" x="753.5" y="-710" font-family="Helvetica,sans-Serif" font-size="10.00" fill="#000000"> +mTaskHash</text>
</g>
<!-- Node14 -->
<g id="node14" class="node">
<title>Node14</title>
<polygon fill="none" stroke="#bfbfbf" points="460.5,-764 460.5,-821 498.5,-821 498.5,-764 460.5,-764"/>
<text text-anchor="middle" x="479.5" y="-809" font-family="Helvetica,sans-Serif" font-size="10.00" fill="#000000">bool</text>
<polyline fill="none" stroke="#bfbfbf" points="460.5,-802 498.5,-802 "/>
<text text-anchor="middle" x="479.5" y="-790" font-family="Helvetica,sans-Serif" font-size="10.00" fill="#000000"> </text>
<polyline fill="none" stroke="#bfbfbf" points="460.5,-783 498.5,-783 "/>
<text text-anchor="middle" x="479.5" y="-771" font-family="Helvetica,sans-Serif" font-size="10.00" fill="#000000"> </text>
</g>
<!-- Node14&#45;&gt;Node11 -->
<g id="edge16" class="edge">
<title>Node14&#45;&gt;Node11</title>
<path fill="none" stroke="#404040" d="M468.972,-763.6441C451.6852,-710.9004 423.7106,-597.3438 471.5,-521 514.4606,-452.3702 602.8744,-417.3646 669.1199,-400.1058"/>
<polygon fill="none" stroke="#404040" points="669.1564,-400.0968 674.0068,-394.7607 680.7979,-397.1856 675.9476,-402.5217 669.1564,-400.0968"/>
<text text-anchor="middle" x="502.5" y="-602.5" font-family="Helvetica,sans-Serif" font-size="10.00" fill="#000000"> +isdangling</text>
</g>
<!-- Node14&#45;&gt;Node20 -->
<g id="edge28" class="edge">
<title>Node14&#45;&gt;Node20</title>
<path fill="none" stroke="#404040" d="M479.292,-763.9402C480.496,-746.0748 484.5958,-723.4185 496.5,-707 506.0784,-693.7892 515.0834,-698.288 528.5,-689 529.7846,-688.1107 531.0724,-687.2085 532.3625,-686.2946"/>
<polygon fill="none" stroke="#404040" points="532.5731,-686.1414 535.0721,-679.3771 542.2772,-679.0823 539.7782,-685.8466 532.5731,-686.1414"/>
<text text-anchor="middle" x="527.5" y="-710" font-family="Helvetica,sans-Serif" font-size="10.00" fill="#000000"> +isdangling</text>
</g>
<!-- Node15&#45;&gt;Node11 -->
<g id="edge17" class="edge">
<title>Node15&#45;&gt;Node11</title>
<path fill="none" stroke="#404040" d="M1055.6752,-736.3463C1063.1611,-677.5073 1065.63,-584.915 1022.5,-521 979.7178,-457.6004 898.2485,-422.1616 835.9452,-403.3874"/>
<polygon fill="none" stroke="#404040" points="835.677,-403.3096 828.7994,-405.4771 824.1534,-399.9621 831.031,-397.7946 835.677,-403.3096"/>
<text text-anchor="middle" x="1076.5" y="-602.5" font-family="Helvetica,sans-Serif" font-size="10.00" fill="#000000"> +spec</text>
</g>
<!-- Node15&#45;&gt;Node20 -->
<g id="edge29" class="edge">
<title>Node15&#45;&gt;Node20</title>
<path fill="none" stroke="#404040" d="M974.2927,-740.3815C971.3675,-738.8273 968.431,-737.3589 965.5,-736 918.8506,-714.3716 903.9401,-716.9873 853.5,-707 799.858,-696.3787 779.1185,-711.2607 725.7171,-689.3856"/>
<polygon fill="none" stroke="#404040" points="725.5714,-689.3218 718.4701,-690.5751 714.5819,-684.502 721.6832,-683.2487 725.5714,-689.3218"/>
<text text-anchor="middle" x="931.5" y="-710" font-family="Helvetica,sans-Serif" font-size="10.00" fill="#000000"> +spec</text>
</g>
<!-- Node16 -->
<g id="node16" class="node">
<title>Node16</title>
<polygon fill="none" stroke="#bfbfbf" points="853.5,-918.5 853.5,-986.5 983.5,-986.5 983.5,-918.5 853.5,-918.5"/>
<text text-anchor="start" x="861.5" y="-974.5" font-family="Helvetica,sans-Serif" font-size="10.00" fill="#000000">vector&lt; o2::framework</text>
<text text-anchor="middle" x="918.5" y="-963.5" font-family="Helvetica,sans-Serif" font-size="10.00" fill="#000000">::ConfigParamSpec &gt;</text>
<polyline fill="none" stroke="#bfbfbf" points="853.5,-956.5 983.5,-956.5 "/>
<text text-anchor="middle" x="918.5" y="-944.5" font-family="Helvetica,sans-Serif" font-size="10.00" fill="#000000"> </text>
<polyline fill="none" stroke="#bfbfbf" points="853.5,-937.5 983.5,-937.5 "/>
<text text-anchor="middle" x="918.5" y="-925.5" font-family="Helvetica,sans-Serif" font-size="10.00" fill="#000000"> </text>
</g>
<!-- Node16&#45;&gt;Node15 -->
<g id="edge18" class="edge">
<title>Node16&#45;&gt;Node15</title>
<path fill="none" stroke="#404040" d="M943.2733,-918.4429C954.9573,-902.6315 969.221,-883.6834 982.5,-867 984.7993,-864.1112 987.1637,-861.1743 989.5656,-858.2184"/>
<polygon fill="none" stroke="#404040" points="989.7212,-858.0285 990.4323,-850.8525 997.3298,-848.7489 996.6187,-855.9249 989.7212,-858.0285"/>
<text text-anchor="middle" x="1012" y="-875.5" font-family="Helvetica,sans-Serif" font-size="10.00" fill="#000000"> +metadata</text>
</g>
<!-- Node17 -->
<g id="node17" class="node">
<title>Node17</title>
<polygon fill="none" stroke="#bfbfbf" points="1001.5,-924 1001.5,-981 1089.5,-981 1089.5,-924 1001.5,-924"/>
<text text-anchor="middle" x="1045.5" y="-969" font-family="Helvetica,sans-Serif" font-size="10.00" fill="#000000">enum Lifetime</text>
<polyline fill="none" stroke="#bfbfbf" points="1001.5,-962 1089.5,-962 "/>
<text text-anchor="middle" x="1045.5" y="-950" font-family="Helvetica,sans-Serif" font-size="10.00" fill="#000000"> </text>
<polyline fill="none" stroke="#bfbfbf" points="1001.5,-943 1089.5,-943 "/>
<text text-anchor="middle" x="1045.5" y="-931" font-family="Helvetica,sans-Serif" font-size="10.00" fill="#000000"> </text>
</g>
<!-- Node17&#45;&gt;Node15 -->
<g id="edge19" class="edge">
<title>Node17&#45;&gt;Node15</title>
<path fill="none" stroke="#404040" d="M1045.5,-923.8952C1045.5,-906.3 1045.5,-882.9527 1045.5,-860.8235"/>
<polygon fill="none" stroke="#404040" points="1045.5001,-860.6991 1041.5,-854.6991 1045.5,-848.6991 1049.5,-854.6991 1045.5001,-860.6991"/>
<text text-anchor="middle" x="1070.5" y="-875.5" font-family="Helvetica,sans-Serif" font-size="10.00" fill="#000000"> +lifetime</text>
</g>
<!-- Node18 -->
<g id="node18" class="node">
<title>Node18</title>
<polygon fill="none" stroke="#bfbfbf" points="1107.5,-907.5 1107.5,-997.5 1271.5,-997.5 1271.5,-907.5 1107.5,-907.5"/>
<text text-anchor="start" x="1115.5" y="-985.5" font-family="Helvetica,sans-Serif" font-size="10.00" fill="#000000">variant&lt; o2::framework</text>
<text text-anchor="start" x="1115.5" y="-974.5" font-family="Helvetica,sans-Serif" font-size="10.00" fill="#000000">::ConcreteDataMatcher,</text>
<text text-anchor="start" x="1115.5" y="-963.5" font-family="Helvetica,sans-Serif" font-size="10.00" fill="#000000"> o2::framework::data_matcher</text>
<text text-anchor="middle" x="1189.5" y="-952.5" font-family="Helvetica,sans-Serif" font-size="10.00" fill="#000000">::DataDescriptorMatcher &gt;</text>
<polyline fill="none" stroke="#bfbfbf" points="1107.5,-945.5 1271.5,-945.5 "/>
<text text-anchor="middle" x="1189.5" y="-933.5" font-family="Helvetica,sans-Serif" font-size="10.00" fill="#000000"> </text>
<polyline fill="none" stroke="#bfbfbf" points="1107.5,-926.5 1271.5,-926.5 "/>
<text text-anchor="middle" x="1189.5" y="-914.5" font-family="Helvetica,sans-Serif" font-size="10.00" fill="#000000"> </text>
</g>
<!-- Node18&#45;&gt;Node15 -->
<g id="edge20" class="edge">
<title>Node18&#45;&gt;Node15</title>
<path fill="none" stroke="#404040" d="M1148.6206,-907.0784C1134.7995,-891.7217 1119.084,-874.2599 1104.1607,-857.6785"/>
<polygon fill="none" stroke="#404040" points="1103.9961,-857.4957 1097.0091,-855.7118 1095.9685,-848.5761 1102.9555,-850.36 1103.9961,-857.4957"/>
<text text-anchor="middle" x="1155.5" y="-875.5" font-family="Helvetica,sans-Serif" font-size="10.00" fill="#000000"> +matcher</text>
</g>
<!-- Node19 -->
<g id="node19" class="node">
<title>Node19</title>
<polygon fill="none" stroke="#bfbfbf" points="732.5,-576.5 732.5,-633.5 848.5,-633.5 848.5,-576.5 732.5,-576.5"/>
<text text-anchor="middle" x="790.5" y="-621.5" font-family="Helvetica,sans-Serif" font-size="10.00" fill="#000000">shared_ptr&lt; TH1F &gt;</text>
<polyline fill="none" stroke="#bfbfbf" points="732.5,-614.5 848.5,-614.5 "/>
<text text-anchor="middle" x="790.5" y="-602.5" font-family="Helvetica,sans-Serif" font-size="10.00" fill="#000000"> </text>
<polyline fill="none" stroke="#bfbfbf" points="732.5,-595.5 848.5,-595.5 "/>
<text text-anchor="middle" x="790.5" y="-583.5" font-family="Helvetica,sans-Serif" font-size="10.00" fill="#000000"> </text>
</g>
<!-- Node19&#45;&gt;Node11 -->
<g id="edge22" class="edge">
<title>Node19&#45;&gt;Node11</title>
<path fill="none" stroke="#404040" d="M785.5322,-576.1735C781.5366,-552.9885 775.6704,-518.9491 769.986,-485.965"/>
<polygon fill="none" stroke="#404040" points="769.9419,-485.7085 764.981,-480.475 767.9038,-473.8828 772.8648,-479.1163 769.9419,-485.7085"/>
<text text-anchor="middle" x="793.5" y="-495" font-family="Helvetica,sans-Serif" font-size="10.00" fill="#000000"> +object</text>
</g>
<!-- Node20&#45;&gt;Node11 -->
<g id="edge23" class="edge">
<title>Node20&#45;&gt;Node11</title>
<path fill="none" stroke="#ffa500" d="M680.5286,-512.4815C687.7614,-499.6198 695.1802,-486.4275 702.3772,-473.6296"/>
<polygon fill="#ffa500" stroke="#ffa500" points="677.4069,-510.8921 675.5559,-521.324 683.5083,-514.3233 677.4069,-510.8921"/>
<text text-anchor="middle" x="716" y="-495" font-family="Helvetica,sans-Serif" font-size="10.00" fill="#000000"> &lt; TH1F &gt;</text>
</g>
<!-- Node21 -->
<g id="node21" class="node">
<title>Node21</title>
<polygon fill="none" stroke="#bfbfbf" points="627,-764 627,-821 724,-821 724,-764 627,-764"/>
<text text-anchor="middle" x="675.5" y="-809" font-family="Helvetica,sans-Serif" font-size="10.00" fill="#000000">shared_ptr&lt; T &gt;</text>
<polyline fill="none" stroke="#bfbfbf" points="627,-802 724,-802 "/>
<text text-anchor="middle" x="675.5" y="-790" font-family="Helvetica,sans-Serif" font-size="10.00" fill="#000000"> </text>
<polyline fill="none" stroke="#bfbfbf" points="627,-783 724,-783 "/>
<text text-anchor="middle" x="675.5" y="-771" font-family="Helvetica,sans-Serif" font-size="10.00" fill="#000000"> </text>
</g>
<!-- Node21&#45;&gt;Node20 -->
<g id="edge27" class="edge">
<title>Node21&#45;&gt;Node20</title>
<path fill="none" stroke="#404040" d="M668.2593,-763.614C663.9417,-746.3899 658.188,-723.4364 652.4019,-700.3532"/>
<polygon fill="none" stroke="#404040" points="652.3909,-700.3093 647.0521,-695.4619 649.4731,-688.6694 654.812,-693.5167 652.3909,-700.3093"/>
<text text-anchor="middle" x="676.5" y="-710" font-family="Helvetica,sans-Serif" font-size="10.00" fill="#000000"> +object</text>
</g>
</g>
</svg>
