<?xml version="1.0" encoding="UTF-8" standalone="no"?>
<!DOCTYPE svg PUBLIC "-//W3C//DTD SVG 1.1//EN"
 "http://www.w3.org/Graphics/SVG/1.1/DTD/svg11.dtd">
<!-- Generated by graphviz version 2.40.1 (20161225.0304)
 -->
<!-- Title: /home/travis/build/AliceO2Group/AliceO2/Framework/Core/include/Framework/ForwardRoute.h Pages: 1 -->
<!--zoomable 374 -->
<svg id="main" version="1.1" xmlns="http://www.w3.org/2000/svg" xmlns:xlink="http://www.w3.org/1999/xlink" xml:space="preserve" onload="init(evt)">
<style type="text/css"><![CDATA[
.edge:hover path { stroke: red; }
.edge:hover polygon { stroke: red; fill: red; }
]]></style>
<script type="text/javascript"><![CDATA[
var edges = document.getElementsByTagName('g');
if (edges && edges.length) {
  for (var i=0;i<edges.length;i++) {
    if (edges[i].id.substr(0,4)=='edge') {
      edges[i].setAttribute('class','edge');
    }
  }
}
]]></script>
        <defs>
                <circle id="rim" cx="0" cy="0" r="7"/>
                <circle id="rim2" cx="0" cy="0" r="3.5"/>
                <g id="zoomPlus">
                        <use xlink:href="#rim" fill="#404040">
                                <set attributeName="fill" to="#808080" begin="zoomplus.mouseover" end="zoomplus.mouseout"/>
                        </use>
                        <path d="M-4,0h8M0,-4v8" fill="none" stroke="white" stroke-width="1.5" pointer-events="none"/>
                </g>
                <g id="zoomMin">
                        <use xlink:href="#rim" fill="#404040">
                                <set attributeName="fill" to="#808080" begin="zoomminus.mouseover" end="zoomminus.mouseout"/>
                        </use>
                        <path d="M-4,0h8" fill="none" stroke="white" stroke-width="1.5" pointer-events="none"/>
                </g>
                <g id="dirArrow">
                        <path fill="none" stroke="white" stroke-width="1.5" d="M0,-3.0v7 M-2.5,-0.5L0,-3.0L2.5,-0.5"/>
                </g>
               <g id="resetDef">
                       <use xlink:href="#rim2" fill="#404040">
                               <set attributeName="fill" to="#808080" begin="reset.mouseover" end="reset.mouseout"/>
                       </use>
               </g>
        </defs>

<script type="text/javascript">
var viewWidth = 2881;
var viewHeight = 374;
var sectionId = 'dynsection-0';
</script>
<script xlink:href="../../svgpan.js"/>
<svg id="graph" class="graph">
<g id="viewport">
<title>/home/travis/build/AliceO2Group/AliceO2/Framework/Core/include/Framework/ForwardRoute.h</title>
<!-- Node0 -->
<g id="node1" class="node">
<title>Node0</title>
<polygon fill="#bfbfbf" stroke="#000000" points="2375.5,-313.5 2375.5,-365.5 2527.5,-365.5 2527.5,-313.5 2375.5,-313.5"/>
<text text-anchor="start" x="2383.5" y="-353.5" font-family="Helvetica,sans-Serif" font-size="10.00" fill="#000000">/home/travis/build</text>
<text text-anchor="start" x="2383.5" y="-342.5" font-family="Helvetica,sans-Serif" font-size="10.00" fill="#000000">/AliceO2Group/AliceO2</text>
<text text-anchor="start" x="2383.5" y="-331.5" font-family="Helvetica,sans-Serif" font-size="10.00" fill="#000000">/Framework/Core/include</text>
<text text-anchor="middle" x="2451.5" y="-320.5" font-family="Helvetica,sans-Serif" font-size="10.00" fill="#000000">/Framework/ForwardRoute.h</text>
</g>
<!-- Node1 -->
<g id="node2" class="node">
<title>Node1</title>
<g id="a_node2"><a xlink:href="../../d5/d3f/InputSpec_8h.html" target="_top" xlink:title="Framework/InputSpec.h">
<polygon fill="none" stroke="#000000" points="2386,-257.5 2386,-276.5 2517,-276.5 2517,-257.5 2386,-257.5"/>
<text text-anchor="middle" x="2451.5" y="-264.5" font-family="Helvetica,sans-Serif" font-size="10.00" fill="#000000">Framework/InputSpec.h</text>
</a>
</g>
</g>
<!-- Node0&#45;&gt;Node1 -->
<g id="edge1" class="edge">
<title>Node0&#45;&gt;Node1</title>
<path fill="none" stroke="#191970" d="M2451.5,-313.3258C2451.5,-304.5142 2451.5,-294.8397 2451.5,-286.621"/>
<polygon fill="#191970" stroke="#191970" points="2455.0001,-286.534 2451.5,-276.534 2448.0001,-286.534 2455.0001,-286.534"/>
</g>
<!-- Node11 -->
<g id="node12" class="node">
<title>Node11</title>
<polygon fill="none" stroke="#bfbfbf" points="2269.5,-6 2269.5,-25 2313.5,-25 2313.5,-6 2269.5,-6"/>
<text text-anchor="middle" x="2291.5" y="-13" font-family="Helvetica,sans-Serif" font-size="10.00" fill="#000000">string</text>
</g>
<!-- Node0&#45;&gt;Node11 -->
<g id="edge67" class="edge">
<title>Node0&#45;&gt;Node11</title>
<path fill="none" stroke="#191970" d="M2375.4944,-324.7732C2239.5869,-296.7276 1963.9126,-231.4869 1908.5,-154 1900.4856,-142.793 1900.3232,-134.0891 1908.5,-123 2004.4651,7.144 2107.8196,-84.2492 2260.5,-31 2261.9204,-30.5046 2263.359,-29.9582 2264.7987,-29.3754"/>
<polygon fill="#191970" stroke="#191970" points="2266.463,-32.4642 2274.135,-25.1572 2263.5808,-26.085 2266.463,-32.4642"/>
</g>
<!-- Node44 -->
<g id="node45" class="node">
<title>Node44</title>
<polygon fill="none" stroke="#bfbfbf" points="2535,-257.5 2535,-276.5 2588,-276.5 2588,-257.5 2535,-257.5"/>
<text text-anchor="middle" x="2561.5" y="-264.5" font-family="Helvetica,sans-Serif" font-size="10.00" fill="#000000">cstddef</text>
</g>
<!-- Node0&#45;&gt;Node44 -->
<g id="edge66" class="edge">
<title>Node0&#45;&gt;Node44</title>
<path fill="none" stroke="#191970" d="M2491.2125,-313.3258C2507.1647,-302.8119 2524.9806,-291.0696 2538.6842,-282.0377"/>
<polygon fill="#191970" stroke="#191970" points="2540.6111,-284.9595 2547.0346,-276.534 2536.7589,-279.1148 2540.6111,-284.9595"/>
</g>
<!-- Node2 -->
<g id="node3" class="node">
<title>Node2</title>
<g id="a_node3"><a xlink:href="../../dc/dca/Lifetime_8h.html" target="_top" xlink:title="Framework/Lifetime.h">
<polygon fill="none" stroke="#000000" points="2574,-196 2574,-215 2697,-215 2697,-196 2574,-196"/>
<text text-anchor="middle" x="2635.5" y="-203" font-family="Helvetica,sans-Serif" font-size="10.00" fill="#000000">Framework/Lifetime.h</text>
</a>
</g>
</g>
<!-- Node1&#45;&gt;Node2 -->
<g id="edge2" class="edge">
<title>Node1&#45;&gt;Node2</title>
<path fill="none" stroke="#191970" d="M2480.25,-257.3906C2511.7117,-246.8749 2562.3008,-229.966 2597.1314,-218.3243"/>
<polygon fill="#191970" stroke="#191970" points="2598.5772,-221.5315 2606.9519,-215.0419 2596.3581,-214.8925 2598.5772,-221.5315"/>
</g>
<!-- Node3 -->
<g id="node4" class="node">
<title>Node3</title>
<g id="a_node4"><a xlink:href="../../d0/d1b/ConcreteDataMatcher_8h.html" target="_top" xlink:title="Framework/ConcreteDataMatcher.h">
<polygon fill="none" stroke="#000000" points="1244.5,-129 1244.5,-148 1432.5,-148 1432.5,-129 1244.5,-129"/>
<text text-anchor="middle" x="1338.5" y="-136" font-family="Helvetica,sans-Serif" font-size="10.00" fill="#000000">Framework/ConcreteDataMatcher.h</text>
</a>
</g>
</g>
<!-- Node1&#45;&gt;Node3 -->
<g id="edge3" class="edge">
<title>Node1&#45;&gt;Node3</title>
<path fill="none" stroke="#191970" d="M2385.8647,-260.3223C2225.3553,-243.8393 1800.2602,-199.2628 1446.5,-154 1435.4556,-152.5869 1423.7891,-151.0055 1412.3684,-149.4077"/>
<polygon fill="#191970" stroke="#191970" points="1412.8082,-145.9351 1402.4171,-148.0031 1411.8298,-152.8664 1412.8082,-145.9351"/>
</g>
<!-- Node1&#45;&gt;Node11 -->
<g id="edge63" class="edge">
<title>Node1&#45;&gt;Node11</title>
<path fill="none" stroke="#191970" d="M2445.4232,-257.448C2421.6629,-220.0997 2334.8007,-83.5634 2303.1433,-33.8017"/>
<polygon fill="#191970" stroke="#191970" points="2305.9037,-31.6201 2297.5829,-25.0615 2299.9975,-35.3775 2305.9037,-31.6201"/>
</g>
<!-- Node15 -->
<g id="node16" class="node">
<title>Node15</title>
<g id="a_node16"><a xlink:href="../../d3/da3/DataDescriptorMatcher_8h.html" target="_top" xlink:title="Framework/DataDescriptor\lMatcher.h">
<polygon fill="none" stroke="#000000" points="2144,-190.5 2144,-220.5 2291,-220.5 2291,-190.5 2144,-190.5"/>
<text text-anchor="start" x="2152" y="-208.5" font-family="Helvetica,sans-Serif" font-size="10.00" fill="#000000">Framework/DataDescriptor</text>
<text text-anchor="middle" x="2217.5" y="-197.5" font-family="Helvetica,sans-Serif" font-size="10.00" fill="#000000">Matcher.h</text>
</a>
</g>
</g>
<!-- Node1&#45;&gt;Node15 -->
<g id="edge15" class="edge">
<title>Node1&#45;&gt;Node15</title>
<path fill="none" stroke="#191970" d="M2415.1942,-257.4581C2380.4186,-248.3183 2327.0989,-234.3048 2284.5936,-223.1336"/>
<polygon fill="#191970" stroke="#191970" points="2285.4328,-219.7353 2274.8716,-220.5784 2283.6534,-226.5054 2285.4328,-219.7353"/>
</g>
<!-- Node36 -->
<g id="node37" class="node">
<title>Node36</title>
<polygon fill="none" stroke="#bfbfbf" points="2696,-129 2696,-148 2747,-148 2747,-129 2696,-129"/>
<text text-anchor="middle" x="2721.5" y="-136" font-family="Helvetica,sans-Serif" font-size="10.00" fill="#000000">variant</text>
</g>
<!-- Node1&#45;&gt;Node36 -->
<g id="edge65" class="edge">
<title>Node1&#45;&gt;Node36</title>
<path fill="none" stroke="#191970" d="M2514.5973,-257.4509C2587.879,-246.0898 2699.6861,-227.8045 2706.5,-221 2722.7844,-204.7381 2724.6768,-177.1003 2723.7422,-158.3375"/>
<polygon fill="#191970" stroke="#191970" points="2727.2193,-157.9117 2722.9257,-148.2259 2720.242,-158.4752 2727.2193,-157.9117"/>
</g>
<!-- Node38 -->
<g id="node39" class="node">
<title>Node38</title>
<g id="a_node39"><a xlink:href="../../d0/d1c/ConfigParamSpec_8h.html" target="_top" xlink:title="Framework/ConfigParamSpec.h">
<polygon fill="none" stroke="#000000" points="2460,-129 2460,-148 2627,-148 2627,-129 2460,-129"/>
<text text-anchor="middle" x="2543.5" y="-136" font-family="Helvetica,sans-Serif" font-size="10.00" fill="#000000">Framework/ConfigParamSpec.h</text>
</a>
</g>
</g>
<!-- Node1&#45;&gt;Node38 -->
<g id="edge51" class="edge">
<title>Node1&#45;&gt;Node38</title>
<path fill="none" stroke="#191970" d="M2454.9722,-257.3987C2460.7323,-242.2111 2473.2567,-212.1028 2489.5,-190 2499.1592,-176.8564 2512.3791,-164.1842 2523.3209,-154.6989"/>
<polygon fill="#191970" stroke="#191970" points="2525.7503,-157.2289 2531.1473,-148.1117 2521.2428,-151.8733 2525.7503,-157.2289"/>
</g>
<!-- Node43 -->
<g id="node44" class="node">
<title>Node43</title>
<polygon fill="none" stroke="#bfbfbf" points="2499,-196 2499,-215 2556,-215 2556,-196 2499,-196"/>
<text text-anchor="middle" x="2527.5" y="-203" font-family="Helvetica,sans-Serif" font-size="10.00" fill="#000000">ostream</text>
</g>
<!-- Node1&#45;&gt;Node43 -->
<g id="edge64" class="edge">
<title>Node1&#45;&gt;Node43</title>
<path fill="none" stroke="#191970" d="M2463.375,-257.3906C2475.1297,-247.8786 2493.3486,-233.1357 2507.3672,-221.7917"/>
<polygon fill="#191970" stroke="#191970" points="2509.8856,-224.2562 2515.4576,-215.2449 2505.4822,-218.8146 2509.8856,-224.2562"/>
</g>
<!-- Node4 -->
<g id="node5" class="node">
<title>Node4</title>
<g id="a_node5"><a xlink:href="../../dc/dcd/DataHeader_8h.html" target="_top" xlink:title="Headers/DataHeader.h">
<polygon fill="none" stroke="#000000" points="1771,-67.5 1771,-86.5 1898,-86.5 1898,-67.5 1771,-67.5"/>
<text text-anchor="middle" x="1834.5" y="-74.5" font-family="Helvetica,sans-Serif" font-size="10.00" fill="#000000">Headers/DataHeader.h</text>
</a>
</g>
</g>
<!-- Node3&#45;&gt;Node4 -->
<g id="edge4" class="edge">
<title>Node3&#45;&gt;Node4</title>
<path fill="none" stroke="#191970" d="M1415.1842,-128.9918C1509.2775,-117.325 1667.712,-97.6804 1760.5419,-86.1702"/>
<polygon fill="#191970" stroke="#191970" points="1761.205,-89.6149 1770.6983,-84.9109 1760.3436,-82.6681 1761.205,-89.6149"/>
</g>
<!-- Node5 -->
<g id="node6" class="node">
<title>Node5</title>
<polygon fill="none" stroke="#bfbfbf" points="2331.5,-6 2331.5,-25 2381.5,-25 2381.5,-6 2331.5,-6"/>
<text text-anchor="middle" x="2356.5" y="-13" font-family="Helvetica,sans-Serif" font-size="10.00" fill="#000000">cstdint</text>
</g>
<!-- Node4&#45;&gt;Node5 -->
<g id="edge5" class="edge">
<title>Node4&#45;&gt;Node5</title>
<path fill="none" stroke="#191970" d="M1898.165,-73.6379C2011.5887,-67.2099 2244.0838,-51.9326 2322.5,-31 2324.6898,-30.4155 2326.9152,-29.7018 2329.1256,-28.9051"/>
<polygon fill="#191970" stroke="#191970" points="2330.6465,-32.0641 2338.5641,-25.024 2327.9844,-25.59 2330.6465,-32.0641"/>
</g>
<!-- Node6 -->
<g id="node7" class="node">
<title>Node6</title>
<polygon fill="none" stroke="#bfbfbf" points="2193.5,-6 2193.5,-25 2251.5,-25 2251.5,-6 2193.5,-6"/>
<text text-anchor="middle" x="2222.5" y="-13" font-family="Helvetica,sans-Serif" font-size="10.00" fill="#000000">memory</text>
</g>
<!-- Node4&#45;&gt;Node6 -->
<g id="edge6" class="edge">
<title>Node4&#45;&gt;Node6</title>
<path fill="none" stroke="#191970" d="M1898.3501,-68.8181C1997.4331,-56.0921 2177.6408,-32.8172 2184.5,-31 2187.1215,-30.3055 2189.8035,-29.4748 2192.47,-28.5639"/>
<polygon fill="#191970" stroke="#191970" points="2193.7931,-31.8058 2201.9238,-25.013 2191.3317,-25.2528 2193.7931,-31.8058"/>
</g>
<!-- Node7 -->
<g id="node8" class="node">
<title>Node7</title>
<polygon fill="none" stroke="#bfbfbf" points="2123.5,-6 2123.5,-25 2175.5,-25 2175.5,-6 2123.5,-6"/>
<text text-anchor="middle" x="2149.5" y="-13" font-family="Helvetica,sans-Serif" font-size="10.00" fill="#000000">cassert</text>
</g>
<!-- Node4&#45;&gt;Node7 -->
<g id="edge7" class="edge">
<title>Node4&#45;&gt;Node7</title>
<path fill="none" stroke="#191970" d="M1898.2027,-68.4495C1967.9373,-58.7503 2075.0816,-42.7571 2114.5,-31 2116.6215,-30.3672 2118.7835,-29.6367 2120.9395,-28.8445"/>
<polygon fill="#191970" stroke="#191970" points="2122.2556,-32.0878 2130.2099,-25.0892 2119.6274,-25.5999 2122.2556,-32.0878"/>
</g>
<!-- Node8 -->
<g id="node9" class="node">
<title>Node8</title>
<polygon fill="none" stroke="#bfbfbf" points="1668.5,-6 1668.5,-25 1718.5,-25 1718.5,-6 1668.5,-6"/>
<text text-anchor="middle" x="1693.5" y="-13" font-family="Helvetica,sans-Serif" font-size="10.00" fill="#000000">cstring</text>
</g>
<!-- Node4&#45;&gt;Node8 -->
<g id="edge8" class="edge">
<title>Node4&#45;&gt;Node8</title>
<path fill="none" stroke="#191970" d="M1811.8937,-67.4497C1790.1948,-58.2431 1756.5271,-43.8541 1727.5,-31 1726.2988,-30.4681 1725.075,-29.9233 1723.8395,-29.3711"/>
<polygon fill="#191970" stroke="#191970" points="1724.8803,-26.0011 1714.3256,-25.0804 1722.0025,-32.3822 1724.8803,-26.0011"/>
</g>
<!-- Node9 -->
<g id="node10" class="node">
<title>Node9</title>
<polygon fill="none" stroke="#bfbfbf" points="1802.5,-6 1802.5,-25 1866.5,-25 1866.5,-6 1802.5,-6"/>
<text text-anchor="middle" x="1834.5" y="-13" font-family="Helvetica,sans-Serif" font-size="10.00" fill="#000000">algorithm</text>
</g>
<!-- Node4&#45;&gt;Node9 -->
<g id="edge9" class="edge">
<title>Node4&#45;&gt;Node9</title>
<path fill="none" stroke="#191970" d="M1834.5,-67.3906C1834.5,-58.8657 1834.5,-46.1392 1834.5,-35.4235"/>
<polygon fill="#191970" stroke="#191970" points="1838.0001,-35.2448 1834.5,-25.2449 1831.0001,-35.2449 1838.0001,-35.2448"/>
</g>
<!-- Node10 -->
<g id="node11" class="node">
<title>Node10</title>
<polygon fill="none" stroke="#bfbfbf" points="1972,-6 1972,-25 2037,-25 2037,-6 1972,-6"/>
<text text-anchor="middle" x="2004.5" y="-13" font-family="Helvetica,sans-Serif" font-size="10.00" fill="#000000">stdexcept</text>
</g>
<!-- Node4&#45;&gt;Node10 -->
<g id="edge10" class="edge">
<title>Node4&#45;&gt;Node10</title>
<path fill="none" stroke="#191970" d="M1861.4933,-67.3748C1887.4147,-58.1139 1927.665,-43.6871 1962.5,-31 1964.7183,-30.1921 1967.0015,-29.3577 1969.3029,-28.5144"/>
<polygon fill="#191970" stroke="#191970" points="1970.5684,-31.7783 1978.7472,-25.0435 1968.1537,-25.208 1970.5684,-31.7783"/>
</g>
<!-- Node4&#45;&gt;Node11 -->
<g id="edge11" class="edge">
<title>Node4&#45;&gt;Node11</title>
<path fill="none" stroke="#191970" d="M1898.3352,-68.687C1903.1269,-68.1025 1907.889,-67.534 1912.5,-67 2066.9597,-49.1121 2111.2089,-74.4737 2260.5,-31 2262.2079,-30.5027 2263.9347,-29.9135 2265.6534,-29.2603"/>
<polygon fill="#191970" stroke="#191970" points="2267.4986,-32.2706 2275.2178,-25.0135 2264.6579,-25.8729 2267.4986,-32.2706"/>
</g>
<!-- Node12 -->
<g id="node13" class="node">
<title>Node12</title>
<polygon fill="none" stroke="#bfbfbf" points="2055.5,-6 2055.5,-25 2105.5,-25 2105.5,-6 2055.5,-6"/>
<text text-anchor="middle" x="2080.5" y="-13" font-family="Helvetica,sans-Serif" font-size="10.00" fill="#000000">climits</text>
</g>
<!-- Node4&#45;&gt;Node12 -->
<g id="edge12" class="edge">
<title>Node4&#45;&gt;Node12</title>
<path fill="none" stroke="#191970" d="M1893.5618,-67.4307C1936.3442,-59.7043 1995.2496,-47.4171 2045.5,-31 2047.3951,-30.3809 2049.3267,-29.694 2051.2602,-28.9637"/>
<polygon fill="#191970" stroke="#191970" points="2052.8558,-32.0925 2060.7835,-25.0639 2050.203,-25.6146 2052.8558,-32.0925"/>
</g>
<!-- Node13 -->
<g id="node14" class="node">
<title>Node13</title>
<g id="a_node14"><a xlink:href="../../d7/df8/Types_8h.html" target="_top" xlink:title="MemoryResources/Types.h">
<polygon fill="none" stroke="#000000" points="1504.5,-6 1504.5,-25 1650.5,-25 1650.5,-6 1504.5,-6"/>
<text text-anchor="middle" x="1577.5" y="-13" font-family="Helvetica,sans-Serif" font-size="10.00" fill="#000000">MemoryResources/Types.h</text>
</a>
</g>
</g>
<!-- Node4&#45;&gt;Node13 -->
<g id="edge13" class="edge">
<title>Node4&#45;&gt;Node13</title>
<path fill="none" stroke="#191970" d="M1794.6257,-67.4581C1749.6094,-56.6857 1676.3002,-39.1428 1627.4921,-27.4631"/>
<polygon fill="#191970" stroke="#191970" points="1628.0078,-23.9877 1617.4678,-25.0643 1626.3787,-30.7955 1628.0078,-23.9877"/>
</g>
<!-- Node14 -->
<g id="node15" class="node">
<title>Node14</title>
<polygon fill="none" stroke="#bfbfbf" points="1737,-6 1737,-25 1784,-25 1784,-6 1737,-6"/>
<text text-anchor="middle" x="1760.5" y="-13" font-family="Helvetica,sans-Serif" font-size="10.00" fill="#000000">cerrno</text>
</g>
<!-- Node4&#45;&gt;Node14 -->
<g id="edge14" class="edge">
<title>Node4&#45;&gt;Node14</title>
<path fill="none" stroke="#191970" d="M1822.9375,-67.3906C1811.4921,-57.8786 1793.7527,-43.1357 1780.103,-31.7917"/>
<polygon fill="#191970" stroke="#191970" points="1782.1533,-28.9447 1772.2255,-25.2449 1777.6792,-34.3283 1782.1533,-28.9447"/>
</g>
<!-- Node15&#45;&gt;Node3 -->
<g id="edge16" class="edge">
<title>Node15&#45;&gt;Node3</title>
<path fill="none" stroke="#191970" d="M2143.9899,-202.4489C2006.6783,-196.3371 1701.9972,-180.8284 1446.5,-154 1434.5051,-152.7405 1421.796,-151.1487 1409.4699,-149.4677"/>
<polygon fill="#191970" stroke="#191970" points="1409.6177,-145.9546 1399.2302,-148.0401 1408.6511,-152.8875 1409.6177,-145.9546"/>
</g>
<!-- Node15&#45;&gt;Node4 -->
<g id="edge25" class="edge">
<title>Node15&#45;&gt;Node4</title>
<path fill="none" stroke="#191970" d="M2143.8785,-198.6116C2065.7909,-190.3643 1948.3098,-174.9896 1908.5,-154 1882.1039,-140.0828 1859.649,-113.2303 1846.6129,-95.208"/>
<polygon fill="#191970" stroke="#191970" points="1849.2739,-92.9048 1840.6835,-86.7036 1843.5318,-96.9084 1849.2739,-92.9048"/>
</g>
<!-- Node15&#45;&gt;Node5 -->
<g id="edge45" class="edge">
<title>Node15&#45;&gt;Node5</title>
<path fill="none" stroke="#191970" d="M2266.0191,-190.402C2284.8161,-182.3318 2305.0133,-170.5582 2318.5,-154 2346.9971,-119.0127 2354.1938,-64.2759 2355.9644,-35.1985"/>
<polygon fill="#191970" stroke="#191970" points="2359.4665,-35.2289 2356.4198,-25.0816 2352.4736,-34.914 2359.4665,-35.2289"/>
</g>
<!-- Node15&#45;&gt;Node11 -->
<g id="edge47" class="edge">
<title>Node15&#45;&gt;Node11</title>
<path fill="none" stroke="#191970" d="M2257.931,-190.3679C2273.8567,-182.182 2290.472,-170.3309 2299.5,-154 2320.4753,-116.0575 2307.9982,-62.9975 2298.7418,-34.8385"/>
<polygon fill="#191970" stroke="#191970" points="2302.0293,-33.6362 2295.4284,-25.3489 2295.4206,-35.9438 2302.0293,-33.6362"/>
</g>
<!-- Node16 -->
<g id="node17" class="node">
<title>Node16</title>
<g id="a_node17"><a xlink:href="../../d6/dc9/DataProcessingHeader_8h.html" target="_top" xlink:title="Framework/DataProcessing\lHeader.h">
<polygon fill="none" stroke="#000000" points="1977,-123.5 1977,-153.5 2126,-153.5 2126,-123.5 1977,-123.5"/>
<text text-anchor="start" x="1985" y="-141.5" font-family="Helvetica,sans-Serif" font-size="10.00" fill="#000000">Framework/DataProcessing</text>
<text text-anchor="middle" x="2051.5" y="-130.5" font-family="Helvetica,sans-Serif" font-size="10.00" fill="#000000">Header.h</text>
</a>
</g>
</g>
<!-- Node15&#45;&gt;Node16 -->
<g id="edge17" class="edge">
<title>Node15&#45;&gt;Node16</title>
<path fill="none" stroke="#191970" d="M2180.2464,-190.4639C2156.0892,-180.7137 2124.4134,-167.9289 2098.5264,-157.4805"/>
<polygon fill="#191970" stroke="#191970" points="2099.4993,-154.0989 2088.9161,-153.6017 2096.8793,-160.5901 2099.4993,-154.0989"/>
</g>
<!-- Node19 -->
<g id="node20" class="node">
<title>Node19</title>
<g id="a_node20"><a xlink:href="../../d1/d76/RuntimeError_8h.html" target="_top" xlink:title="Framework/RuntimeError.h">
<polygon fill="none" stroke="#000000" points="2726.5,-6 2726.5,-25 2872.5,-25 2872.5,-6 2726.5,-6"/>
<text text-anchor="middle" x="2799.5" y="-13" font-family="Helvetica,sans-Serif" font-size="10.00" fill="#000000">Framework/RuntimeError.h</text>
</a>
</g>
</g>
<!-- Node15&#45;&gt;Node19 -->
<g id="edge24" class="edge">
<title>Node15&#45;&gt;Node19</title>
<path fill="none" stroke="#191970" d="M2291.062,-201.4909C2394.0543,-195.023 2575.3662,-180.2751 2635.5,-154 2668.8538,-139.4263 2746.7939,-66.4532 2781.8576,-32.689"/>
<polygon fill="#191970" stroke="#191970" points="2784.6648,-34.8431 2789.4189,-25.3748 2779.7979,-29.8119 2784.6648,-34.8431"/>
</g>
<!-- Node20 -->
<g id="node21" class="node">
<title>Node20</title>
<g id="a_node21"><a xlink:href="../../d4/d00/Headers_2include_2Headers_2Stack_8h.html" target="_top" xlink:title="Headers/Stack.h">
<polygon fill="none" stroke="#000000" points="1727.5,-129 1727.5,-148 1823.5,-148 1823.5,-129 1727.5,-129"/>
<text text-anchor="middle" x="1775.5" y="-136" font-family="Helvetica,sans-Serif" font-size="10.00" fill="#000000">Headers/Stack.h</text>
</a>
</g>
</g>
<!-- Node15&#45;&gt;Node20 -->
<g id="edge26" class="edge">
<title>Node15&#45;&gt;Node20</title>
<path fill="none" stroke="#191970" d="M2143.907,-197.9614C2067.0697,-189.5224 1943.2509,-174.3207 1837.5,-154 1832.0521,-152.9531 1826.3672,-151.7239 1820.7456,-150.4236"/>
<polygon fill="#191970" stroke="#191970" points="1821.3006,-146.9575 1810.7602,-148.03 1819.6688,-153.7647 1821.3006,-146.9575"/>
</g>
<!-- Node28 -->
<g id="node29" class="node">
<title>Node28</title>
<polygon fill="none" stroke="#bfbfbf" points="0,-6 0,-25 47,-25 47,-6 0,-6"/>
<text text-anchor="middle" x="23.5" y="-13" font-family="Helvetica,sans-Serif" font-size="10.00" fill="#000000">vector</text>
</g>
<!-- Node15&#45;&gt;Node28 -->
<g id="edge49" class="edge">
<title>Node15&#45;&gt;Node28</title>
<path fill="none" stroke="#191970" d="M2143.9215,-198.1062C2046.5632,-188.2769 1869.6042,-170.2524 1718.5,-154 1595.3307,-140.7522 1564.8909,-133.9941 1441.5,-123 826.5805,-68.2107 652.316,-188.9196 55.5,-31 53.5755,-30.4908 51.628,-29.8638 49.6938,-29.157"/>
<polygon fill="#191970" stroke="#191970" points="50.873,-25.8545 40.3029,-25.131 48.1148,-32.2882 50.873,-25.8545"/>
</g>
<!-- Node34 -->
<g id="node35" class="node">
<title>Node34</title>
<polygon fill="none" stroke="#bfbfbf" points="1917.5,-129 1917.5,-148 1959.5,-148 1959.5,-129 1917.5,-129"/>
<text text-anchor="middle" x="1938.5" y="-136" font-family="Helvetica,sans-Serif" font-size="10.00" fill="#000000">array</text>
</g>
<!-- Node15&#45;&gt;Node34 -->
<g id="edge44" class="edge">
<title>Node15&#45;&gt;Node34</title>
<path fill="none" stroke="#191970" d="M2143.774,-196.0174C2093.1627,-188.1378 2025.0085,-174.7973 1967.5,-154 1966.2619,-153.5523 1965.0115,-153.0594 1963.7611,-152.5332"/>
<polygon fill="#191970" stroke="#191970" points="1964.9099,-149.2027 1954.3789,-148.0415 1961.8872,-155.5165 1964.9099,-149.2027"/>
</g>
<!-- Node35 -->
<g id="node36" class="node">
<title>Node35</title>
<polygon fill="none" stroke="#bfbfbf" points="2400,-6 2400,-25 2449,-25 2449,-6 2400,-6"/>
<text text-anchor="middle" x="2424.5" y="-13" font-family="Helvetica,sans-Serif" font-size="10.00" fill="#000000">iosfwd</text>
</g>
<!-- Node15&#45;&gt;Node35 -->
<g id="edge46" class="edge">
<title>Node15&#45;&gt;Node35</title>
<path fill="none" stroke="#191970" d="M2275.3126,-190.3993C2298.0929,-182.349 2323.3348,-170.5908 2342.5,-154 2381.0732,-120.6083 2406.3351,-64.3984 2417.6526,-34.9027"/>
<polygon fill="#191970" stroke="#191970" points="2421.0045,-35.9295 2421.1901,-25.3363 2414.439,-33.5016 2421.0045,-35.9295"/>
</g>
<!-- Node15&#45;&gt;Node36 -->
<g id="edge48" class="edge">
<title>Node15&#45;&gt;Node36</title>
<path fill="none" stroke="#191970" d="M2291.2845,-201.7111C2382.0691,-196.0112 2540.5207,-182.6779 2673.5,-154 2677.641,-153.107 2681.931,-151.998 2686.1658,-150.7865"/>
<polygon fill="#191970" stroke="#191970" points="2687.3099,-154.0967 2695.8506,-147.8272 2685.2643,-147.4023 2687.3099,-154.0967"/>
</g>
<!-- Node37 -->
<g id="node38" class="node">
<title>Node37</title>
<polygon fill="none" stroke="#bfbfbf" points="2144.5,-129 2144.5,-148 2290.5,-148 2290.5,-129 2144.5,-129"/>
<text text-anchor="middle" x="2217.5" y="-136" font-family="Helvetica,sans-Serif" font-size="10.00" fill="#000000">DataDescriptorMatcher.inc</text>
</g>
<!-- Node15&#45;&gt;Node37 -->
<g id="edge50" class="edge">
<title>Node15&#45;&gt;Node37</title>
<path fill="none" stroke="#191970" d="M2217.5,-190.2967C2217.5,-180.7699 2217.5,-168.3954 2217.5,-158.1306"/>
<polygon fill="#191970" stroke="#191970" points="2221.0001,-158.0549 2217.5,-148.055 2214.0001,-158.055 2221.0001,-158.0549"/>
</g>
<!-- Node16&#45;&gt;Node4 -->
<g id="edge18" class="edge">
<title>Node16&#45;&gt;Node4</title>
<path fill="none" stroke="#191970" d="M1998.4158,-123.4554C1961.4148,-112.9689 1912.6604,-99.1515 1877.9658,-89.3187"/>
<polygon fill="#191970" stroke="#191970" points="1878.7027,-85.8897 1868.1273,-86.5303 1876.794,-92.6245 1878.7027,-85.8897"/>
</g>
<!-- Node16&#45;&gt;Node5 -->
<g id="edge19" class="edge">
<title>Node16&#45;&gt;Node5</title>
<path fill="none" stroke="#191970" d="M2111.0909,-123.4837C2144.1579,-114.4008 2185.7129,-101.736 2221.5,-87 2261.6457,-70.4692 2305.6501,-45.8436 2332.1628,-30.235"/>
<polygon fill="#191970" stroke="#191970" points="2333.9664,-33.2346 2340.7762,-25.1181 2330.3912,-27.2164 2333.9664,-33.2346"/>
</g>
<!-- Node16&#45;&gt;Node6 -->
<g id="edge21" class="edge">
<title>Node16&#45;&gt;Node6</title>
<path fill="none" stroke="#191970" d="M2055.9937,-123.3394C2061.472,-107.2979 2072.2021,-82.2407 2089.5,-67 2123.3783,-37.1507 2142.4816,-47.5279 2184.5,-31 2186.141,-30.3545 2187.8199,-29.6889 2189.5141,-29.0132"/>
<polygon fill="#191970" stroke="#191970" points="2191.2575,-32.0843 2199.2254,-25.1012 2188.6419,-25.5913 2191.2575,-32.0843"/>
</g>
<!-- Node16&#45;&gt;Node7 -->
<g id="edge22" class="edge">
<title>Node16&#45;&gt;Node7</title>
<path fill="none" stroke="#191970" d="M2048.6061,-123.2485C2046.5306,-107.8186 2045.7322,-83.8943 2056.5,-67 2060.4315,-60.8317 2095.1579,-42.5534 2121.0314,-29.5292"/>
<polygon fill="#191970" stroke="#191970" points="2122.7102,-32.6029 2130.0897,-25.0007 2119.5801,-26.3418 2122.7102,-32.6029"/>
</g>
<!-- Node17 -->
<g id="node18" class="node">
<title>Node17</title>
<polygon fill="none" stroke="#bfbfbf" points="2098.5,-67.5 2098.5,-86.5 2144.5,-86.5 2144.5,-67.5 2098.5,-67.5"/>
<text text-anchor="middle" x="2121.5" y="-74.5" font-family="Helvetica,sans-Serif" font-size="10.00" fill="#000000">cstdio</text>
</g>
<!-- Node16&#45;&gt;Node17 -->
<g id="edge20" class="edge">
<title>Node16&#45;&gt;Node17</title>
<path fill="none" stroke="#191970" d="M2068.8034,-123.2977C2079.0262,-114.3163 2091.9823,-102.9334 2102.4896,-93.702"/>
<polygon fill="#191970" stroke="#191970" points="2105.0897,-96.0766 2110.2921,-86.8469 2100.4695,-90.8178 2105.0897,-96.0766"/>
</g>
<!-- Node18 -->
<g id="node19" class="node">
<title>Node18</title>
<polygon fill="none" stroke="#bfbfbf" points="2162.5,-67.5 2162.5,-86.5 2212.5,-86.5 2212.5,-67.5 2162.5,-67.5"/>
<text text-anchor="middle" x="2187.5" y="-74.5" font-family="Helvetica,sans-Serif" font-size="10.00" fill="#000000">chrono</text>
</g>
<!-- Node16&#45;&gt;Node18 -->
<g id="edge23" class="edge">
<title>Node16&#45;&gt;Node18</title>
<path fill="none" stroke="#191970" d="M2084.7693,-123.4554C2106.8641,-113.464 2135.646,-100.4487 2157.1219,-90.7372"/>
<polygon fill="#191970" stroke="#191970" points="2158.7553,-93.8398 2166.4248,-86.5303 2155.871,-87.4616 2158.7553,-93.8398"/>
</g>
<!-- Node20&#45;&gt;Node4 -->
<g id="edge43" class="edge">
<title>Node20&#45;&gt;Node4</title>
<path fill="none" stroke="#191970" d="M1784.7188,-128.8906C1793.5858,-119.6478 1807.1912,-105.466 1817.9389,-94.2628"/>
<polygon fill="#191970" stroke="#191970" points="1820.7541,-96.3841 1825.1513,-86.7449 1815.7027,-91.5381 1820.7541,-96.3841"/>
</g>
<!-- Node21 -->
<g id="node22" class="node">
<title>Node21</title>
<g id="a_node22"><a xlink:href="../../dc/d03/MemoryResources_8h.html" target="_top" xlink:title="MemoryResources/MemoryResources.h">
<polygon fill="none" stroke="#000000" points="1249,-67.5 1249,-86.5 1456,-86.5 1456,-67.5 1249,-67.5"/>
<text text-anchor="middle" x="1352.5" y="-74.5" font-family="Helvetica,sans-Serif" font-size="10.00" fill="#000000">MemoryResources/MemoryResources.h</text>
</a>
</g>
</g>
<!-- Node20&#45;&gt;Node21 -->
<g id="edge27" class="edge">
<title>Node20&#45;&gt;Node21</title>
<path fill="none" stroke="#191970" d="M1727.3884,-131.505C1654.2779,-120.8755 1514.568,-100.5631 1427.8875,-87.9606"/>
<polygon fill="#191970" stroke="#191970" points="1428.2479,-84.4763 1417.8483,-86.501 1427.2407,-91.4034 1428.2479,-84.4763"/>
</g>
<!-- Node21&#45;&gt;Node8 -->
<g id="edge32" class="edge">
<title>Node21&#45;&gt;Node8</title>
<path fill="none" stroke="#191970" d="M1456.0438,-68.7455C1516.3121,-62.1541 1593.2328,-50.6475 1659.5,-31 1661.4125,-30.433 1663.3562,-29.7785 1665.2958,-29.0658"/>
<polygon fill="#191970" stroke="#191970" points="1666.885,-32.1966 1674.7988,-25.1522 1664.2194,-25.724 1666.885,-32.1966"/>
</g>
<!-- Node21&#45;&gt;Node11 -->
<g id="edge33" class="edge">
<title>Node21&#45;&gt;Node11</title>
<path fill="none" stroke="#191970" d="M1456.2038,-74.1441C1678.01,-67.6889 2184.5558,-50.9698 2260.5,-31 2262.4204,-30.495 2264.3608,-29.8627 2266.2842,-29.1442"/>
<polygon fill="#191970" stroke="#191970" points="2267.8607,-32.274 2275.5872,-25.0248 2265.0264,-25.8734 2267.8607,-32.274"/>
</g>
<!-- Node21&#45;&gt;Node13 -->
<g id="edge42" class="edge">
<title>Node21&#45;&gt;Node13</title>
<path fill="none" stroke="#191970" d="M1387.6563,-67.3906C1426.7889,-56.6944 1490.121,-39.3836 1532.7582,-27.7294"/>
<polygon fill="#191970" stroke="#191970" points="1533.8673,-31.0547 1542.5906,-25.0419 1532.0216,-24.3024 1533.8673,-31.0547"/>
</g>
<!-- Node22 -->
<g id="node23" class="node">
<title>Node22</title>
<polygon fill="none" stroke="#bfbfbf" points="696,-.5 696,-30.5 807,-30.5 807,-.5 696,-.5"/>
<text text-anchor="start" x="704" y="-18.5" font-family="Helvetica,sans-Serif" font-size="10.00" fill="#000000">boost/container/flat</text>
<text text-anchor="middle" x="751.5" y="-7.5" font-family="Helvetica,sans-Serif" font-size="10.00" fill="#000000">_map.hpp</text>
</g>
<!-- Node21&#45;&gt;Node22 -->
<g id="edge28" class="edge">
<title>Node21&#45;&gt;Node22</title>
<path fill="none" stroke="#191970" d="M1248.9579,-68.1794C1108.521,-56.2098 869.7843,-35.8381 817.3101,-30.6416"/>
<polygon fill="#191970" stroke="#191970" points="817.5696,-27.1491 807.2457,-29.5296 816.8008,-34.1067 817.5696,-27.1491"/>
</g>
<!-- Node23 -->
<g id="node24" class="node">
<title>Node23</title>
<polygon fill="none" stroke="#bfbfbf" points="825,-.5 825,-30.5 954,-30.5 954,-.5 825,-.5"/>
<text text-anchor="start" x="833" y="-18.5" font-family="Helvetica,sans-Serif" font-size="10.00" fill="#000000">boost/container/pmr</text>
<text text-anchor="middle" x="889.5" y="-7.5" font-family="Helvetica,sans-Serif" font-size="10.00" fill="#000000">/memory_resource.hpp</text>
</g>
<!-- Node21&#45;&gt;Node23 -->
<g id="edge29" class="edge">
<title>Node21&#45;&gt;Node23</title>
<path fill="none" stroke="#191970" d="M1249.9067,-67.4972C1173.5101,-59.8132 1066.4751,-47.7714 964.2017,-31.2034"/>
<polygon fill="#191970" stroke="#191970" points="964.7544,-27.7474 954.3203,-29.5859 963.6235,-34.6554 964.7544,-27.7474"/>
</g>
<!-- Node24 -->
<g id="node25" class="node">
<title>Node24</title>
<polygon fill="none" stroke="#bfbfbf" points="972,-.5 972,-30.5 1145,-30.5 1145,-.5 972,-.5"/>
<text text-anchor="start" x="980" y="-18.5" font-family="Helvetica,sans-Serif" font-size="10.00" fill="#000000">boost/container/pmr</text>
<text text-anchor="middle" x="1058.5" y="-7.5" font-family="Helvetica,sans-Serif" font-size="10.00" fill="#000000">/monotonic_buffer_resource.hpp</text>
</g>
<!-- Node21&#45;&gt;Node24 -->
<g id="edge30" class="edge">
<title>Node21&#45;&gt;Node24</title>
<path fill="none" stroke="#191970" d="M1306.8851,-67.4581C1262.4728,-58.1678 1193.9875,-43.8418 1140.169,-32.5838"/>
<polygon fill="#191970" stroke="#191970" points="1140.8044,-29.1411 1130.2996,-30.5193 1139.3711,-35.9928 1140.8044,-29.1411"/>
</g>
<!-- Node25 -->
<g id="node26" class="node">
<title>Node25</title>
<polygon fill="none" stroke="#bfbfbf" points="1163,-.5 1163,-30.5 1312,-30.5 1312,-.5 1163,-.5"/>
<text text-anchor="start" x="1171" y="-18.5" font-family="Helvetica,sans-Serif" font-size="10.00" fill="#000000">boost/container/pmr</text>
<text text-anchor="middle" x="1237.5" y="-7.5" font-family="Helvetica,sans-Serif" font-size="10.00" fill="#000000">/polymorphic_allocator.hpp</text>
</g>
<!-- Node21&#45;&gt;Node25 -->
<g id="edge31" class="edge">
<title>Node21&#45;&gt;Node25</title>
<path fill="none" stroke="#191970" d="M1334.5313,-67.3906C1318.5351,-58.8361 1294.6277,-46.0509 1274.547,-35.3121"/>
<polygon fill="#191970" stroke="#191970" points="1276.101,-32.1741 1265.6322,-30.5446 1272.7998,-38.3469 1276.101,-32.1741"/>
</g>
<!-- Node26 -->
<g id="node27" class="node">
<title>Node26</title>
<polygon fill="none" stroke="#bfbfbf" points="1885,-6 1885,-25 1954,-25 1954,-6 1885,-6"/>
<text text-anchor="middle" x="1919.5" y="-13" font-family="Helvetica,sans-Serif" font-size="10.00" fill="#000000">type_traits</text>
</g>
<!-- Node21&#45;&gt;Node26 -->
<g id="edge34" class="edge">
<title>Node21&#45;&gt;Node26</title>
<path fill="none" stroke="#191970" d="M1456.0831,-70.9775C1585.1567,-62.9349 1798.1629,-47.7438 1875.5,-31 1878.9285,-30.2577 1882.4563,-29.3229 1885.9517,-28.282"/>
<polygon fill="#191970" stroke="#191970" points="1887.1819,-31.5624 1895.6076,-25.1392 1885.0153,-24.9061 1887.1819,-31.5624"/>
</g>
<!-- Node27 -->
<g id="node28" class="node">
<title>Node27</title>
<polygon fill="none" stroke="#bfbfbf" points="1330,-6 1330,-25 1375,-25 1375,-6 1330,-6"/>
<text text-anchor="middle" x="1352.5" y="-13" font-family="Helvetica,sans-Serif" font-size="10.00" fill="#000000">utility</text>
</g>
<!-- Node21&#45;&gt;Node27 -->
<g id="edge35" class="edge">
<title>Node21&#45;&gt;Node27</title>
<path fill="none" stroke="#191970" d="M1352.5,-67.3906C1352.5,-58.8657 1352.5,-46.1392 1352.5,-35.4235"/>
<polygon fill="#191970" stroke="#191970" points="1356.0001,-35.2448 1352.5,-25.2449 1349.0001,-35.2449 1356.0001,-35.2448"/>
</g>
<!-- Node21&#45;&gt;Node28 -->
<g id="edge36" class="edge">
<title>Node21&#45;&gt;Node28</title>
<path fill="none" stroke="#191970" d="M1248.9184,-67.9034C1244.0459,-67.5757 1239.2209,-67.2719 1234.5,-67 972.8116,-51.9273 310.0594,-93.5101 55.5,-31 53.5217,-30.5142 51.5217,-29.8961 49.5384,-29.1878"/>
<polygon fill="#191970" stroke="#191970" points="50.5112,-25.7976 39.94,-25.0908 47.7632,-32.2357 50.5112,-25.7976"/>
</g>
<!-- Node29 -->
<g id="node30" class="node">
<title>Node29</title>
<polygon fill="none" stroke="#bfbfbf" points="1393,-6 1393,-25 1486,-25 1486,-6 1393,-6"/>
<text text-anchor="middle" x="1439.5" y="-13" font-family="Helvetica,sans-Serif" font-size="10.00" fill="#000000">unordered_map</text>
</g>
<!-- Node21&#45;&gt;Node29 -->
<g id="edge37" class="edge">
<title>Node21&#45;&gt;Node29</title>
<path fill="none" stroke="#191970" d="M1366.0938,-67.3906C1379.8843,-57.6421 1401.4472,-42.3994 1417.641,-30.9521"/>
<polygon fill="#191970" stroke="#191970" points="1419.8563,-33.6723 1426.0017,-25.0419 1415.8156,-27.9563 1419.8563,-33.6723"/>
</g>
<!-- Node30 -->
<g id="node31" class="node">
<title>Node30</title>
<polygon fill="none" stroke="#bfbfbf" points="65,-6 65,-25 166,-25 166,-6 65,-6"/>
<text text-anchor="middle" x="115.5" y="-13" font-family="Helvetica,sans-Serif" font-size="10.00" fill="#000000">FairMQMessage.h</text>
</g>
<!-- Node21&#45;&gt;Node30 -->
<g id="edge38" class="edge">
<title>Node21&#45;&gt;Node30</title>
<path fill="none" stroke="#191970" d="M1248.9172,-67.9235C1244.0451,-67.5904 1239.2204,-67.28 1234.5,-67 763.9443,-39.0886 640.9068,-99.3108 174.5,-31 168.5926,-30.1348 162.4257,-28.899 156.4003,-27.4977"/>
<polygon fill="#191970" stroke="#191970" points="157.0138,-24.0436 146.464,-25.0196 155.3198,-30.8356 157.0138,-24.0436"/>
</g>
<!-- Node31 -->
<g id="node32" class="node">
<title>Node31</title>
<polygon fill="none" stroke="#bfbfbf" points="184,-6 184,-25 321,-25 321,-6 184,-6"/>
<text text-anchor="middle" x="252.5" y="-13" font-family="Helvetica,sans-Serif" font-size="10.00" fill="#000000">FairMQTransportFactory.h</text>
</g>
<!-- Node21&#45;&gt;Node31 -->
<g id="edge39" class="edge">
<title>Node21&#45;&gt;Node31</title>
<path fill="none" stroke="#191970" d="M1248.9151,-67.9578C1244.0436,-67.6155 1239.2196,-67.2938 1234.5,-67 833.1807,-42.0166 729.8009,-78.3302 330.5,-31 322.0252,-29.9955 313.0955,-28.5724 304.4247,-26.9914"/>
<polygon fill="#191970" stroke="#191970" points="304.8867,-23.5164 294.4077,-25.0786 303.5737,-30.3922 304.8867,-23.5164"/>
</g>
<!-- Node32 -->
<g id="node33" class="node">
<title>Node32</title>
<polygon fill="none" stroke="#bfbfbf" points="339.5,-6 339.5,-25 489.5,-25 489.5,-6 339.5,-6"/>
<text text-anchor="middle" x="414.5" y="-13" font-family="Helvetica,sans-Serif" font-size="10.00" fill="#000000">fairmq/MemoryResources.h</text>
</g>
<!-- Node21&#45;&gt;Node32 -->
<g id="edge40" class="edge">
<title>Node21&#45;&gt;Node32</title>
<path fill="none" stroke="#191970" d="M1248.9117,-68.011C1244.041,-67.6545 1239.2182,-67.3152 1234.5,-67 907.7263,-45.1689 823.8136,-68.7986 498.5,-31 489.305,-29.9316 479.5998,-28.4627 470.18,-26.8521"/>
<polygon fill="#191970" stroke="#191970" points="470.5665,-23.366 460.1081,-25.061 469.3409,-30.2578 470.5665,-23.366"/>
</g>
<!-- Node33 -->
<g id="node34" class="node">
<title>Node33</title>
<polygon fill="none" stroke="#bfbfbf" points="507.5,-6 507.5,-25 677.5,-25 677.5,-6 507.5,-6"/>
<text text-anchor="middle" x="592.5" y="-13" font-family="Helvetica,sans-Serif" font-size="10.00" fill="#000000">fairmq/MemoryResourceTools.h</text>
</g>
<!-- Node21&#45;&gt;Node33 -->
<g id="edge41" class="edge">
<title>Node21&#45;&gt;Node33</title>
<path fill="none" stroke="#191970" d="M1248.9047,-68.109C1244.0359,-67.7263 1239.2154,-67.3547 1234.5,-67 991.1069,-48.6937 928.982,-58.8889 686.5,-31 676.1648,-29.8113 665.2338,-28.271 654.6236,-26.6237"/>
<polygon fill="#191970" stroke="#191970" points="655.0061,-23.1405 644.5792,-25.0195 653.9021,-30.0529 655.0061,-23.1405"/>
</g>
<!-- Node38&#45;&gt;Node11 -->
<g id="edge62" class="edge">
<title>Node38&#45;&gt;Node11</title>
<path fill="none" stroke="#191970" d="M2532.9873,-128.7603C2516.0234,-113.5281 2481.0121,-84.0508 2446.5,-67 2395.05,-41.581 2375.9386,-51.9177 2322.5,-31 2321.1342,-30.4654 2319.7475,-29.8921 2318.3561,-29.2922"/>
<polygon fill="#191970" stroke="#191970" points="2319.8252,-26.1155 2309.2812,-25.0788 2316.8773,-32.4645 2319.8252,-26.1155"/>
</g>
<!-- Node39 -->
<g id="node40" class="node">
<title>Node39</title>
<g id="a_node40"><a xlink:href="../../de/d56/Variant_8h.html" target="_top" xlink:title="Framework/Variant.h">
<polygon fill="none" stroke="#000000" points="2499,-67.5 2499,-86.5 2616,-86.5 2616,-67.5 2499,-67.5"/>
<text text-anchor="middle" x="2557.5" y="-74.5" font-family="Helvetica,sans-Serif" font-size="10.00" fill="#000000">Framework/Variant.h</text>
</a>
</g>
</g>
<!-- Node38&#45;&gt;Node39 -->
<g id="edge52" class="edge">
<title>Node38&#45;&gt;Node39</title>
<path fill="none" stroke="#191970" d="M2545.6875,-128.8906C2547.6486,-120.276 2550.5863,-107.3708 2553.0415,-96.5858"/>
<polygon fill="#191970" stroke="#191970" points="2556.4746,-97.2723 2555.2817,-86.7449 2549.6493,-95.7185 2556.4746,-97.2723"/>
</g>
<!-- Node39&#45;&gt;Node5 -->
<g id="edge56" class="edge">
<title>Node39&#45;&gt;Node5</title>
<path fill="none" stroke="#191970" d="M2515.7487,-67.4566C2481.6152,-59.1901 2432.3359,-46.1888 2390.5,-31 2388.865,-30.4064 2387.1996,-29.7671 2385.5279,-29.0983"/>
<polygon fill="#191970" stroke="#191970" points="2386.6272,-25.762 2376.0559,-25.0555 2383.8793,-32.2001 2386.6272,-25.762"/>
</g>
<!-- Node39&#45;&gt;Node8 -->
<g id="edge55" class="edge">
<title>Node39&#45;&gt;Node8</title>
<path fill="none" stroke="#191970" d="M2498.9532,-75.012C2322.2362,-68.8359 1801.7681,-49.2967 1727.5,-31 1725.1615,-30.4239 1722.7863,-29.6889 1720.4341,-28.8532"/>
<polygon fill="#191970" stroke="#191970" points="1721.6279,-25.5599 1711.0478,-25.0002 1718.9696,-32.0356 1721.6279,-25.5599"/>
</g>
<!-- Node39&#45;&gt;Node11 -->
<g id="edge61" class="edge">
<title>Node39&#45;&gt;Node11</title>
<path fill="none" stroke="#191970" d="M2499.4197,-67.4802C2440.8075,-57.5424 2354.5212,-41.9135 2322.5,-31 2320.8946,-30.4528 2319.2669,-29.8383 2317.6412,-29.1777"/>
<polygon fill="#191970" stroke="#191970" points="2319.0758,-25.9853 2308.5231,-25.0419 2316.1842,-32.3601 2319.0758,-25.9853"/>
</g>
<!-- Node39&#45;&gt;Node19 -->
<g id="edge53" class="edge">
<title>Node39&#45;&gt;Node19</title>
<path fill="none" stroke="#191970" d="M2595.047,-67.4581C2637.3472,-56.7082 2706.1777,-39.2162 2752.137,-27.5365"/>
<polygon fill="#191970" stroke="#191970" points="2753.0351,-30.9196 2761.8649,-25.0643 2751.3109,-24.1352 2753.0351,-30.9196"/>
</g>
<!-- Node39&#45;&gt;Node26 -->
<g id="edge54" class="edge">
<title>Node39&#45;&gt;Node26</title>
<path fill="none" stroke="#191970" d="M2498.598,-74.4606C2369.2114,-68.5549 2063.6702,-52.729 1962.5,-31 1959.0596,-30.2611 1955.5208,-29.3131 1952.0211,-28.2506"/>
<polygon fill="#191970" stroke="#191970" points="1952.9689,-24.8772 1942.3752,-25.0317 1950.753,-31.5172 1952.9689,-24.8772"/>
</g>
<!-- Node39&#45;&gt;Node35 -->
<g id="edge58" class="edge">
<title>Node39&#45;&gt;Node35</title>
<path fill="none" stroke="#191970" d="M2536.4079,-67.3567C2516.1541,-58.0827 2484.7067,-43.6468 2457.5,-31 2456.3377,-30.4597 2455.1528,-29.9079 2453.9561,-29.3498"/>
<polygon fill="#191970" stroke="#191970" points="2455.2733,-26.102 2444.7324,-25.0342 2452.3067,-32.4423 2455.2733,-26.102"/>
</g>
<!-- Node40 -->
<g id="node41" class="node">
<title>Node40</title>
<polygon fill="none" stroke="#bfbfbf" points="2467,-6 2467,-25 2516,-25 2516,-6 2467,-6"/>
<text text-anchor="middle" x="2491.5" y="-13" font-family="Helvetica,sans-Serif" font-size="10.00" fill="#000000">cstdlib</text>
</g>
<!-- Node39&#45;&gt;Node40 -->
<g id="edge57" class="edge">
<title>Node39&#45;&gt;Node40</title>
<path fill="none" stroke="#191970" d="M2547.1875,-67.3906C2537.0758,-57.9683 2521.4558,-43.4134 2509.3293,-32.1137"/>
<polygon fill="#191970" stroke="#191970" points="2511.6601,-29.5015 2501.9579,-25.2449 2506.888,-34.6228 2511.6601,-29.5015"/>
</g>
<!-- Node41 -->
<g id="node42" class="node">
<title>Node41</title>
<polygon fill="none" stroke="#bfbfbf" points="2534,-6 2534,-25 2617,-25 2617,-6 2534,-6"/>
<text text-anchor="middle" x="2575.5" y="-13" font-family="Helvetica,sans-Serif" font-size="10.00" fill="#000000">initializer_list</text>
</g>
<!-- Node39&#45;&gt;Node41 -->
<g id="edge59" class="edge">
<title>Node39&#45;&gt;Node41</title>
<path fill="none" stroke="#191970" d="M2560.3125,-67.3906C2562.8339,-58.776 2566.611,-45.8708 2569.7676,-35.0858"/>
<polygon fill="#191970" stroke="#191970" points="2573.1979,-35.8254 2572.6478,-25.2449 2566.4797,-33.8591 2573.1979,-35.8254"/>
</g>
<!-- Node42 -->
<g id="node43" class="node">
<title>Node42</title>
<polygon fill="none" stroke="#bfbfbf" points="2635,-6 2635,-25 2708,-25 2708,-6 2635,-6"/>
<text text-anchor="middle" x="2671.5" y="-13" font-family="Helvetica,sans-Serif" font-size="10.00" fill="#000000">string_view</text>
</g>
<!-- Node39&#45;&gt;Node42 -->
<g id="edge60" class="edge">
<title>Node39&#45;&gt;Node42</title>
<path fill="none" stroke="#191970" d="M2575.3125,-67.3906C2593.9685,-57.3262 2623.4797,-41.4057 2644.8974,-29.8514"/>
<polygon fill="#191970" stroke="#191970" points="2646.6734,-32.8702 2653.8126,-25.0419 2643.3498,-26.7095 2646.6734,-32.8702"/>
</g>
</g>
</svg>
        <g id="navigator" transform="translate(0 0)" fill="#404254">
                <rect fill="#f2f5e9" fill-opacity="0.5" stroke="#606060" stroke-width=".5" x="0" y="0" width="60" height="60"/>
                <use id="zoomplus" xlink:href="#zoomPlus" x="17" y="9" onmousedown="handleZoom(evt,'in')"/>
                <use id="zoomminus" xlink:href="#zoomMin" x="42" y="9" onmousedown="handleZoom(evt,'out')"/>
                <use id="reset" xlink:href="#resetDef" x="30" y="36" onmousedown="handleReset()"/>
                <g id="arrowUp" xlink:href="#dirArrow" transform="translate(30 24)" onmousedown="handlePan(0,-1)">
                  <use xlink:href="#rim" fill="#404040">
                        <set attributeName="fill" to="#808080" begin="arrowUp.mouseover" end="arrowUp.mouseout"/>
                  </use>
                  <path fill="none" stroke="white" stroke-width="1.5" d="M0,-3.0v7 M-2.5,-0.5L0,-3.0L2.5,-0.5"/>
                </g>
                <g id="arrowRight" xlink:href="#dirArrow" transform="rotate(90) translate(36 -43)" onmousedown="handlePan(1,0)">
                  <use xlink:href="#rim" fill="#404040">
                        <set attributeName="fill" to="#808080" begin="arrowRight.mouseover" end="arrowRight.mouseout"/>
                  </use>
                  <path fill="none" stroke="white" stroke-width="1.5" d="M0,-3.0v7 M-2.5,-0.5L0,-3.0L2.5,-0.5"/>
                </g>
                <g id="arrowDown" xlink:href="#dirArrow" transform="rotate(180) translate(-30 -48)" onmousedown="handlePan(0,1)">
                  <use xlink:href="#rim" fill="#404040">
                        <set attributeName="fill" to="#808080" begin="arrowDown.mouseover" end="arrowDown.mouseout"/>
                  </use>
                  <path fill="none" stroke="white" stroke-width="1.5" d="M0,-3.0v7 M-2.5,-0.5L0,-3.0L2.5,-0.5"/>
                </g>
                <g id="arrowLeft" xlink:href="#dirArrow" transform="rotate(270) translate(-36 17)" onmousedown="handlePan(-1,0)">
                  <use xlink:href="#rim" fill="#404040">
                        <set attributeName="fill" to="#808080" begin="arrowLeft.mouseover" end="arrowLeft.mouseout"/>
                  </use>
                  <path fill="none" stroke="white" stroke-width="1.5" d="M0,-3.0v7 M-2.5,-0.5L0,-3.0L2.5,-0.5"/>
                </g>
        </g>
        <svg viewBox="0 0 15 15" width="100%" height="30px" preserveAspectRatio="xMaxYMin meet">
         <g id="arrow_out" transform="scale(0.3 0.3)">
          <a xlink:href="ForwardRoute_8h__incl_org.svg" target="_base">
           <rect id="button" ry="5" rx="5" y="6" x="6" height="38" width="38"
                fill="#f2f5e9" fill-opacity="0.5" stroke="#606060" stroke-width="1.0"/>
           <path id="arrow"
             d="M 11.500037,31.436501 C 11.940474,20.09759 22.043105,11.32322 32.158766,21.979434 L 37.068811,17.246167 C 37.068811,17.246167 37.088388,32 37.088388,32 L 22.160133,31.978069 C 22.160133,31.978069 26.997745,27.140456 26.997745,27.140456 C 18.528582,18.264221 13.291696,25.230495 11.500037,31.436501 z"
             style="fill:#404040;"/>
          </a>
         </g>
        </svg>
</svg>
