<?xml version="1.0" encoding="UTF-8" standalone="no"?>
<!DOCTYPE svg PUBLIC "-//W3C//DTD SVG 1.1//EN"
 "http://www.w3.org/Graphics/SVG/1.1/DTD/svg11.dtd">
<!-- Generated by graphviz version 2.40.1 (20161225.0304)
 -->
<!-- Title: /home/travis/build/AliceO2Group/AliceO2/Detectors/HMPID/base/include/HMPIDBase/Digit.h Pages: 1 -->
<!--zoomable 374 -->
<svg id="main" version="1.1" xmlns="http://www.w3.org/2000/svg" xmlns:xlink="http://www.w3.org/1999/xlink" xml:space="preserve" onload="init(evt)">
<style type="text/css"><![CDATA[
.edge:hover path { stroke: red; }
.edge:hover polygon { stroke: red; fill: red; }
]]></style>
<script type="text/javascript"><![CDATA[
var edges = document.getElementsByTagName('g');
if (edges && edges.length) {
  for (var i=0;i<edges.length;i++) {
    if (edges[i].id.substr(0,4)=='edge') {
      edges[i].setAttribute('class','edge');
    }
  }
}
]]></script>
        <defs>
                <circle id="rim" cx="0" cy="0" r="7"/>
                <circle id="rim2" cx="0" cy="0" r="3.5"/>
                <g id="zoomPlus">
                        <use xlink:href="#rim" fill="#404040">
                                <set attributeName="fill" to="#808080" begin="zoomplus.mouseover" end="zoomplus.mouseout"/>
                        </use>
                        <path d="M-4,0h8M0,-4v8" fill="none" stroke="white" stroke-width="1.5" pointer-events="none"/>
                </g>
                <g id="zoomMin">
                        <use xlink:href="#rim" fill="#404040">
                                <set attributeName="fill" to="#808080" begin="zoomminus.mouseover" end="zoomminus.mouseout"/>
                        </use>
                        <path d="M-4,0h8" fill="none" stroke="white" stroke-width="1.5" pointer-events="none"/>
                </g>
                <g id="dirArrow">
                        <path fill="none" stroke="white" stroke-width="1.5" d="M0,-3.0v7 M-2.5,-0.5L0,-3.0L2.5,-0.5"/>
                </g>
               <g id="resetDef">
                       <use xlink:href="#rim2" fill="#404040">
                               <set attributeName="fill" to="#808080" begin="reset.mouseover" end="reset.mouseout"/>
                       </use>
               </g>
        </defs>

<script type="text/javascript">
var viewWidth = 1861;
var viewHeight = 374;
var sectionId = 'dynsection-0';
</script>
<script xlink:href="../../svgpan.js"/>
<svg id="graph" class="graph">
<g id="viewport">
<title>/home/travis/build/AliceO2Group/AliceO2/Detectors/HMPID/base/include/HMPIDBase/Digit.h</title>
<!-- Node0 -->
<g id="node1" class="node">
<title>Node0</title>
<polygon fill="#bfbfbf" stroke="#000000" points="1315,-313.5 1315,-365.5 1464,-365.5 1464,-313.5 1315,-313.5"/>
<text text-anchor="start" x="1323" y="-353.5" font-family="Helvetica,sans-Serif" font-size="10.00" fill="#000000">/home/travis/build</text>
<text text-anchor="start" x="1323" y="-342.5" font-family="Helvetica,sans-Serif" font-size="10.00" fill="#000000">/AliceO2Group/AliceO2</text>
<text text-anchor="start" x="1323" y="-331.5" font-family="Helvetica,sans-Serif" font-size="10.00" fill="#000000">/Detectors/HMPID/base</text>
<text text-anchor="middle" x="1389.5" y="-320.5" font-family="Helvetica,sans-Serif" font-size="10.00" fill="#000000">/include/HMPIDBase/Digit.h</text>
</g>
<!-- Node1 -->
<g id="node2" class="node">
<title>Node1</title>
<g id="a_node2"><a xlink:href="../../df/d5d/common_2include_2CommonDataFormat_2TimeStamp_8h.html" target="_top" xlink:title="CommonDataFormat/TimeStamp.h">
<polygon fill="none" stroke="#000000" points="444,-257.5 444,-276.5 631,-276.5 631,-257.5 444,-257.5"/>
<text text-anchor="middle" x="537.5" y="-264.5" font-family="Helvetica,sans-Serif" font-size="10.00" fill="#000000">CommonDataFormat/TimeStamp.h</text>
</a>
</g>
</g>
<!-- Node0&#45;&gt;Node1 -->
<g id="edge1" class="edge">
<title>Node0&#45;&gt;Node1</title>
<path fill="none" stroke="#191970" d="M1314.6374,-333.1296C1162.1532,-320.1542 815.2991,-290.639 641.2167,-275.8257"/>
<polygon fill="#191970" stroke="#191970" points="641.2828,-272.3187 631.022,-274.9582 640.6892,-279.2935 641.2828,-272.3187"/>
</g>
<!-- Node7 -->
<g id="node8" class="node">
<title>Node7</title>
<g id="a_node8"><a xlink:href="../../d5/deb/Detectors_2HMPID_2base_2include_2HMPIDBase_2Hit_8h.html" target="_top" xlink:title="HMPIDBase/Hit.h">
<polygon fill="none" stroke="#000000" points="1286,-257.5 1286,-276.5 1385,-276.5 1385,-257.5 1286,-257.5"/>
<text text-anchor="middle" x="1335.5" y="-264.5" font-family="Helvetica,sans-Serif" font-size="10.00" fill="#000000">HMPIDBase/Hit.h</text>
</a>
</g>
</g>
<!-- Node0&#45;&gt;Node7 -->
<g id="edge7" class="edge">
<title>Node0&#45;&gt;Node7</title>
<path fill="none" stroke="#191970" d="M1370.0048,-313.3258C1362.9195,-303.8132 1355.0853,-293.2951 1348.6749,-284.6886"/>
<polygon fill="#191970" stroke="#191970" points="1351.3816,-282.4632 1342.6012,-276.534 1345.7677,-286.6446 1351.3816,-282.4632"/>
</g>
<!-- Node28 -->
<g id="node29" class="node">
<title>Node28</title>
<g id="a_node29"><a xlink:href="../../de/d16/Param_8h.html" target="_top" xlink:title="HMPIDBase/Param.h">
<polygon fill="none" stroke="#000000" points="1488.5,-257.5 1488.5,-276.5 1604.5,-276.5 1604.5,-257.5 1488.5,-257.5"/>
<text text-anchor="middle" x="1546.5" y="-264.5" font-family="Helvetica,sans-Serif" font-size="10.00" fill="#000000">HMPIDBase/Param.h</text>
</a>
</g>
</g>
<!-- Node0&#45;&gt;Node28 -->
<g id="edge29" class="edge">
<title>Node0&#45;&gt;Node28</title>
<path fill="none" stroke="#191970" d="M1446.1806,-313.3258C1470.0329,-302.3112 1496.8047,-289.9485 1516.6889,-280.7663"/>
<polygon fill="#191970" stroke="#191970" points="1518.2426,-283.904 1525.854,-276.534 1515.3078,-277.5489 1518.2426,-283.904"/>
</g>
<!-- Node30 -->
<g id="node31" class="node">
<title>Node30</title>
<polygon fill="none" stroke="#bfbfbf" points="1433.5,-196 1433.5,-215 1489.5,-215 1489.5,-196 1433.5,-196"/>
<text text-anchor="middle" x="1461.5" y="-203" font-family="Helvetica,sans-Serif" font-size="10.00" fill="#000000">TMath.h</text>
</g>
<!-- Node0&#45;&gt;Node30 -->
<g id="edge35" class="edge">
<title>Node0&#45;&gt;Node30</title>
<path fill="none" stroke="#191970" d="M1403.5532,-313.3453C1417.6619,-287.0875 1439.043,-247.2949 1451.5062,-224.0995"/>
<polygon fill="#191970" stroke="#191970" points="1454.6043,-225.7282 1456.2544,-215.2626 1448.4381,-222.415 1454.6043,-225.7282"/>
</g>
<!-- Node2 -->
<g id="node3" class="node">
<title>Node2</title>
<g id="a_node3"><a xlink:href="../../d2/d45/GPUCommonRtypes_8h.html" target="_top" xlink:title="GPUCommonRtypes.h">
<polygon fill="none" stroke="#000000" points="122,-134.5 122,-153.5 247,-153.5 247,-134.5 122,-134.5"/>
<text text-anchor="middle" x="184.5" y="-141.5" font-family="Helvetica,sans-Serif" font-size="10.00" fill="#000000">GPUCommonRtypes.h</text>
</a>
</g>
</g>
<!-- Node1&#45;&gt;Node2 -->
<g id="edge2" class="edge">
<title>Node1&#45;&gt;Node2</title>
<path fill="none" stroke="#191970" d="M510.0944,-257.4507C447.2809,-235.5639 292.8579,-181.7565 221.6141,-156.9321"/>
<polygon fill="#191970" stroke="#191970" points="222.7263,-153.6133 212.1315,-153.628 220.423,-160.2235 222.7263,-153.6133"/>
</g>
<!-- Node4 -->
<g id="node5" class="node">
<title>Node4</title>
<g id="a_node5"><a xlink:href="../../df/d21/GPUCommonDef_8h.html" target="_top" xlink:title="GPUCommonDef.h">
<polygon fill="none" stroke="#000000" points="484,-196 484,-215 591,-215 591,-196 484,-196"/>
<text text-anchor="middle" x="537.5" y="-203" font-family="Helvetica,sans-Serif" font-size="10.00" fill="#000000">GPUCommonDef.h</text>
</a>
</g>
</g>
<!-- Node1&#45;&gt;Node4 -->
<g id="edge4" class="edge">
<title>Node1&#45;&gt;Node4</title>
<path fill="none" stroke="#191970" d="M537.5,-257.3906C537.5,-248.8657 537.5,-236.1392 537.5,-225.4235"/>
<polygon fill="#191970" stroke="#191970" points="541.0001,-225.2448 537.5,-215.2449 534.0001,-225.2449 541.0001,-225.2448"/>
</g>
<!-- Node3 -->
<g id="node4" class="node">
<title>Node3</title>
<polygon fill="none" stroke="#bfbfbf" points="0,-73 0,-92 59,-92 59,-73 0,-73"/>
<text text-anchor="middle" x="29.5" y="-80" font-family="Helvetica,sans-Serif" font-size="10.00" fill="#000000">Rtypes.h</text>
</g>
<!-- Node2&#45;&gt;Node3 -->
<g id="edge3" class="edge">
<title>Node2&#45;&gt;Node3</title>
<path fill="none" stroke="#191970" d="M160.5041,-134.4906C137.0448,-125.1923 100.3146,-110.6302 68.5,-98 66.6716,-97.2741 64.7951,-96.529 62.9009,-95.7766"/>
<polygon fill="#191970" stroke="#191970" points="64.0097,-92.4511 53.424,-92.0116 61.4251,-98.9565 64.0097,-92.4511"/>
</g>
<!-- Node5 -->
<g id="node6" class="node">
<title>Node5</title>
<g id="a_node6"><a xlink:href="../../d5/d93/GPUCommonDefSettings_8h.html" target="_top" xlink:title="GPUCommonDefSettings.h">
<polygon fill="none" stroke="#000000" points="386.5,-134.5 386.5,-153.5 534.5,-153.5 534.5,-134.5 386.5,-134.5"/>
<text text-anchor="middle" x="460.5" y="-141.5" font-family="Helvetica,sans-Serif" font-size="10.00" fill="#000000">GPUCommonDefSettings.h</text>
</a>
</g>
</g>
<!-- Node4&#45;&gt;Node5 -->
<g id="edge5" class="edge">
<title>Node4&#45;&gt;Node5</title>
<path fill="none" stroke="#191970" d="M525.4688,-195.8906C513.4893,-186.3227 494.8834,-171.4621 480.6475,-160.0919"/>
<polygon fill="#191970" stroke="#191970" points="482.4447,-157.0479 472.4468,-153.5419 478.0761,-162.5175 482.4447,-157.0479"/>
</g>
<!-- Node6 -->
<g id="node7" class="node">
<title>Node6</title>
<g id="a_node7"><a xlink:href="../../da/d5a/GPUCommonDefAPI_8h.html" target="_top" xlink:title="GPUCommonDefAPI.h">
<polygon fill="none" stroke="#000000" points="552.5,-134.5 552.5,-153.5 676.5,-153.5 676.5,-134.5 552.5,-134.5"/>
<text text-anchor="middle" x="614.5" y="-141.5" font-family="Helvetica,sans-Serif" font-size="10.00" fill="#000000">GPUCommonDefAPI.h</text>
</a>
</g>
</g>
<!-- Node4&#45;&gt;Node6 -->
<g id="edge6" class="edge">
<title>Node4&#45;&gt;Node6</title>
<path fill="none" stroke="#191970" d="M549.5313,-195.8906C561.5107,-186.3227 580.1166,-171.4621 594.3525,-160.0919"/>
<polygon fill="#191970" stroke="#191970" points="596.9239,-162.5175 602.5532,-153.5419 592.5553,-157.0479 596.9239,-162.5175"/>
</g>
<!-- Node8 -->
<g id="node9" class="node">
<title>Node8</title>
<g id="a_node9"><a xlink:href="../../d4/d25/BaseHits_8h.html" target="_top" xlink:title="SimulationDataFormat\l/BaseHits.h">
<polygon fill="none" stroke="#000000" points="845,-190.5 845,-220.5 972,-220.5 972,-190.5 845,-190.5"/>
<text text-anchor="start" x="853" y="-208.5" font-family="Helvetica,sans-Serif" font-size="10.00" fill="#000000">SimulationDataFormat</text>
<text text-anchor="middle" x="908.5" y="-197.5" font-family="Helvetica,sans-Serif" font-size="10.00" fill="#000000">/BaseHits.h</text>
</a>
</g>
</g>
<!-- Node7&#45;&gt;Node8 -->
<g id="edge8" class="edge">
<title>Node7&#45;&gt;Node8</title>
<path fill="none" stroke="#191970" d="M1285.682,-259.8248C1210.8753,-249.0505 1069.0668,-228.6261 982.2481,-216.1218"/>
<polygon fill="#191970" stroke="#191970" points="982.5987,-212.6363 972.2018,-214.6749 981.6007,-219.5648 982.5987,-212.6363"/>
</g>
<!-- Node20 -->
<g id="node21" class="node">
<title>Node20</title>
<g id="a_node21"><a xlink:href="../../d0/d91/ShmAllocator_8h.html" target="_top" xlink:title="CommonUtils/ShmAllocator.h">
<polygon fill="none" stroke="#000000" points="1255.5,-196 1255.5,-215 1415.5,-215 1415.5,-196 1255.5,-196"/>
<text text-anchor="middle" x="1335.5" y="-203" font-family="Helvetica,sans-Serif" font-size="10.00" fill="#000000">CommonUtils/ShmAllocator.h</text>
</a>
</g>
</g>
<!-- Node7&#45;&gt;Node20 -->
<g id="edge21" class="edge">
<title>Node7&#45;&gt;Node20</title>
<path fill="none" stroke="#191970" d="M1335.5,-257.3906C1335.5,-248.8657 1335.5,-236.1392 1335.5,-225.4235"/>
<polygon fill="#191970" stroke="#191970" points="1339.0001,-225.2448 1335.5,-215.2449 1332.0001,-225.2449 1339.0001,-225.2448"/>
</g>
<!-- Node9 -->
<g id="node10" class="node">
<title>Node9</title>
<g id="a_node10"><a xlink:href="../../dd/d76/Cartesian3D_8h.html" target="_top" xlink:title="MathUtils/Cartesian3D.h">
<polygon fill="none" stroke="#000000" points="756,-134.5 756,-153.5 891,-153.5 891,-134.5 756,-134.5"/>
<text text-anchor="middle" x="823.5" y="-141.5" font-family="Helvetica,sans-Serif" font-size="10.00" fill="#000000">MathUtils/Cartesian3D.h</text>
</a>
</g>
</g>
<!-- Node8&#45;&gt;Node9 -->
<g id="edge9" class="edge">
<title>Node8&#45;&gt;Node9</title>
<path fill="none" stroke="#191970" d="M887.4888,-190.2977C874.7066,-181.0495 858.4054,-169.2551 845.4552,-159.8853"/>
<polygon fill="#191970" stroke="#191970" points="847.263,-156.8732 837.1096,-153.8469 843.1597,-162.5445 847.263,-156.8732"/>
</g>
<!-- Node9&#45;&gt;Node3 -->
<g id="edge15" class="edge">
<title>Node9&#45;&gt;Node3</title>
<path fill="none" stroke="#191970" d="M755.7791,-138.9021C733.4082,-137.2689 708.3913,-135.4971 685.5,-134 411.397,-116.0731 336.6702,-157.486 68.5,-98 65.6325,-97.3639 62.7011,-96.5438 59.7969,-95.6134"/>
<polygon fill="#191970" stroke="#191970" points="60.7548,-92.2382 50.1605,-92.1324 58.3765,-98.8218 60.7548,-92.2382"/>
</g>
<!-- Node10 -->
<g id="node11" class="node">
<title>Node10</title>
<polygon fill="none" stroke="#bfbfbf" points="77.5,-67.5 77.5,-97.5 241.5,-97.5 241.5,-67.5 77.5,-67.5"/>
<text text-anchor="start" x="85.5" y="-85.5" font-family="Helvetica,sans-Serif" font-size="10.00" fill="#000000">Math/GenVector/Displacement</text>
<text text-anchor="middle" x="159.5" y="-74.5" font-family="Helvetica,sans-Serif" font-size="10.00" fill="#000000">Vector3D.h</text>
</g>
<!-- Node9&#45;&gt;Node10 -->
<g id="edge10" class="edge">
<title>Node9&#45;&gt;Node10</title>
<path fill="none" stroke="#191970" d="M755.8721,-138.9101C621.959,-128.7844 329.8911,-106.4513 252.0374,-98.0353"/>
<polygon fill="#191970" stroke="#191970" points="252.1269,-94.5224 241.7915,-96.8527 251.3242,-101.4763 252.1269,-94.5224"/>
</g>
<!-- Node11 -->
<g id="node12" class="node">
<title>Node11</title>
<polygon fill="none" stroke="#bfbfbf" points="260,-73 260,-92 449,-92 449,-73 260,-73"/>
<text text-anchor="middle" x="354.5" y="-80" font-family="Helvetica,sans-Serif" font-size="10.00" fill="#000000">Math/GenVector/PositionVector3D.h</text>
</g>
<!-- Node9&#45;&gt;Node11 -->
<g id="edge11" class="edge">
<title>Node9&#45;&gt;Node11</title>
<path fill="none" stroke="#191970" d="M755.8321,-135.9357C682.5125,-127.0895 562.1109,-112.2481 458.5,-98 448.2899,-96.596 437.525,-95.0573 426.9466,-93.5118"/>
<polygon fill="#191970" stroke="#191970" points="427.2888,-90.0245 416.8859,-92.032 426.2701,-96.95 427.2888,-90.0245"/>
</g>
<!-- Node12 -->
<g id="node13" class="node">
<title>Node12</title>
<polygon fill="none" stroke="#bfbfbf" points="467.5,-73 467.5,-92 627.5,-92 627.5,-73 467.5,-73"/>
<text text-anchor="middle" x="547.5" y="-80" font-family="Helvetica,sans-Serif" font-size="10.00" fill="#000000">Math/GenVector/Rotation3D.h</text>
</g>
<!-- Node9&#45;&gt;Node12 -->
<g id="edge12" class="edge">
<title>Node9&#45;&gt;Node12</title>
<path fill="none" stroke="#191970" d="M780.6778,-134.4581C732.03,-123.6181 652.615,-105.9224 600.2042,-94.2439"/>
<polygon fill="#191970" stroke="#191970" points="600.9445,-90.8231 590.4226,-92.0643 599.422,-97.6555 600.9445,-90.8231"/>
</g>
<!-- Node13 -->
<g id="node14" class="node">
<title>Node13</title>
<polygon fill="none" stroke="#bfbfbf" points="645.5,-73 645.5,-92 813.5,-92 813.5,-73 645.5,-73"/>
<text text-anchor="middle" x="729.5" y="-80" font-family="Helvetica,sans-Serif" font-size="10.00" fill="#000000">Math/GenVector/Transform3D.h</text>
</g>
<!-- Node9&#45;&gt;Node13 -->
<g id="edge13" class="edge">
<title>Node9&#45;&gt;Node13</title>
<path fill="none" stroke="#191970" d="M808.8125,-134.3906C793.7744,-124.5519 770.1824,-109.1167 752.6333,-97.6351"/>
<polygon fill="#191970" stroke="#191970" points="754.3687,-94.588 744.0844,-92.0419 750.5363,-100.4457 754.3687,-94.588"/>
</g>
<!-- Node14 -->
<g id="node15" class="node">
<title>Node14</title>
<polygon fill="none" stroke="#bfbfbf" points="832,-73 832,-92 1005,-92 1005,-73 832,-73"/>
<text text-anchor="middle" x="918.5" y="-80" font-family="Helvetica,sans-Serif" font-size="10.00" fill="#000000">Math/GenVector/Translation3D.h</text>
</g>
<!-- Node9&#45;&gt;Node14 -->
<g id="edge14" class="edge">
<title>Node9&#45;&gt;Node14</title>
<path fill="none" stroke="#191970" d="M838.3438,-134.3906C853.5418,-124.5519 877.3848,-109.1167 895.1206,-97.6351"/>
<polygon fill="#191970" stroke="#191970" points="897.268,-100.4144 903.7605,-92.0419 893.4639,-94.5382 897.268,-100.4144"/>
</g>
<!-- Node15 -->
<g id="node16" class="node">
<title>Node15</title>
<polygon fill="none" stroke="#bfbfbf" points="1023.5,-73 1023.5,-92 1105.5,-92 1105.5,-73 1023.5,-73"/>
<text text-anchor="middle" x="1064.5" y="-80" font-family="Helvetica,sans-Serif" font-size="10.00" fill="#000000">TGeoMatrix.h</text>
</g>
<!-- Node9&#45;&gt;Node15 -->
<g id="edge16" class="edge">
<title>Node9&#45;&gt;Node15</title>
<path fill="none" stroke="#191970" d="M865.938,-134.462C904.5617,-125.6067 963.076,-111.7542 1013.5,-98 1017.0572,-97.0297 1020.7425,-95.986 1024.4299,-94.9152"/>
<polygon fill="#191970" stroke="#191970" points="1025.5141,-98.2444 1034.109,-92.0493 1023.5267,-91.5325 1025.5141,-98.2444"/>
</g>
<!-- Node16 -->
<g id="node17" class="node">
<title>Node16</title>
<polygon fill="none" stroke="#bfbfbf" points="1124,-73 1124,-92 1173,-92 1173,-73 1124,-73"/>
<text text-anchor="middle" x="1148.5" y="-80" font-family="Helvetica,sans-Serif" font-size="10.00" fill="#000000">iosfwd</text>
</g>
<!-- Node9&#45;&gt;Node16 -->
<g id="edge17" class="edge">
<title>Node9&#45;&gt;Node16</title>
<path fill="none" stroke="#191970" d="M891.1085,-138.543C950.8385,-132.4953 1039.8066,-120.4731 1114.5,-98 1116.4102,-97.4253 1118.3521,-96.765 1120.2905,-96.0479"/>
<polygon fill="#191970" stroke="#191970" points="1121.8841,-99.1766 1129.7903,-92.1238 1119.2115,-92.7068 1121.8841,-99.1766"/>
</g>
<!-- Node17 -->
<g id="node18" class="node">
<title>Node17</title>
<g id="a_node18"><a xlink:href="../../d2/dd0/Cartesian2D_8h.html" target="_top" xlink:title="MathUtils/Cartesian2D.h">
<polygon fill="none" stroke="#000000" points="1191,-73 1191,-92 1326,-92 1326,-73 1191,-73"/>
<text text-anchor="middle" x="1258.5" y="-80" font-family="Helvetica,sans-Serif" font-size="10.00" fill="#000000">MathUtils/Cartesian2D.h</text>
</a>
</g>
</g>
<!-- Node9&#45;&gt;Node17 -->
<g id="edge18" class="edge">
<title>Node9&#45;&gt;Node17</title>
<path fill="none" stroke="#191970" d="M891.0093,-136.7697C963.1368,-128.708 1080.7156,-114.5974 1181.5,-98 1188.7152,-96.8118 1196.2863,-95.4412 1203.7476,-94.0169"/>
<polygon fill="#191970" stroke="#191970" points="1204.6658,-97.4038 1213.8103,-92.0533 1203.3251,-90.5334 1204.6658,-97.4038"/>
</g>
<!-- Node18 -->
<g id="node19" class="node">
<title>Node18</title>
<polygon fill="none" stroke="#bfbfbf" points="1078.5,-.5 1078.5,-30.5 1242.5,-30.5 1242.5,-.5 1078.5,-.5"/>
<text text-anchor="start" x="1086.5" y="-18.5" font-family="Helvetica,sans-Serif" font-size="10.00" fill="#000000">Math/GenVector/Displacement</text>
<text text-anchor="middle" x="1160.5" y="-7.5" font-family="Helvetica,sans-Serif" font-size="10.00" fill="#000000">Vector2D.h</text>
</g>
<!-- Node17&#45;&gt;Node18 -->
<g id="edge19" class="edge">
<title>Node17&#45;&gt;Node18</title>
<path fill="none" stroke="#191970" d="M1244.459,-72.9005C1230.5412,-63.3853 1208.772,-48.5023 1190.888,-36.2755"/>
<polygon fill="#191970" stroke="#191970" points="1192.7026,-33.2763 1182.4721,-30.5218 1188.7519,-39.0549 1192.7026,-33.2763"/>
</g>
<!-- Node19 -->
<g id="node20" class="node">
<title>Node19</title>
<polygon fill="none" stroke="#bfbfbf" points="1261,-6 1261,-25 1450,-25 1450,-6 1261,-6"/>
<text text-anchor="middle" x="1355.5" y="-13" font-family="Helvetica,sans-Serif" font-size="10.00" fill="#000000">Math/GenVector/PositionVector2D.h</text>
</g>
<!-- Node17&#45;&gt;Node19 -->
<g id="edge20" class="edge">
<title>Node17&#45;&gt;Node19</title>
<path fill="none" stroke="#191970" d="M1272.3977,-72.9005C1288.3164,-61.9052 1314.6121,-43.7422 1333.3599,-30.7927"/>
<polygon fill="#191970" stroke="#191970" points="1335.3892,-33.6448 1341.628,-25.0817 1331.4108,-27.8852 1335.3892,-33.6448"/>
</g>
<!-- Node21 -->
<g id="node22" class="node">
<title>Node21</title>
<g id="a_node22"><a xlink:href="../../de/d61/ShmManager_8h.html" target="_top" xlink:title="CommonUtils/ShmManager.h">
<polygon fill="none" stroke="#000000" points="1342.5,-134.5 1342.5,-153.5 1500.5,-153.5 1500.5,-134.5 1342.5,-134.5"/>
<text text-anchor="middle" x="1421.5" y="-141.5" font-family="Helvetica,sans-Serif" font-size="10.00" fill="#000000">CommonUtils/ShmManager.h</text>
</a>
</g>
</g>
<!-- Node20&#45;&gt;Node21 -->
<g id="edge22" class="edge">
<title>Node20&#45;&gt;Node21</title>
<path fill="none" stroke="#191970" d="M1348.9375,-195.8906C1362.5695,-186.1421 1383.8846,-170.8994 1399.8922,-159.4521"/>
<polygon fill="#191970" stroke="#191970" points="1402.0586,-162.2057 1408.1569,-153.5419 1397.9868,-156.5118 1402.0586,-162.2057"/>
</g>
<!-- Node27 -->
<g id="node28" class="node">
<title>Node27</title>
<polygon fill="none" stroke="#bfbfbf" points="1518.5,-134.5 1518.5,-153.5 1570.5,-153.5 1570.5,-134.5 1518.5,-134.5"/>
<text text-anchor="middle" x="1544.5" y="-141.5" font-family="Helvetica,sans-Serif" font-size="10.00" fill="#000000">cassert</text>
</g>
<!-- Node20&#45;&gt;Node27 -->
<g id="edge28" class="edge">
<title>Node20&#45;&gt;Node27</title>
<path fill="none" stroke="#191970" d="M1368.1563,-195.8906C1406.2828,-184.6716 1469.1388,-166.1757 1508.6044,-154.5626"/>
<polygon fill="#191970" stroke="#191970" points="1509.7419,-157.8763 1518.3472,-151.6957 1507.7659,-151.161 1509.7419,-157.8763"/>
</g>
<!-- Node22 -->
<g id="node23" class="node">
<title>Node22</title>
<polygon fill="none" stroke="#bfbfbf" points="1344.5,-73 1344.5,-92 1376.5,-92 1376.5,-73 1344.5,-73"/>
<text text-anchor="middle" x="1360.5" y="-80" font-family="Helvetica,sans-Serif" font-size="10.00" fill="#000000">list</text>
</g>
<!-- Node21&#45;&gt;Node22 -->
<g id="edge23" class="edge">
<title>Node21&#45;&gt;Node22</title>
<path fill="none" stroke="#191970" d="M1411.9688,-134.3906C1402.7121,-125.0581 1388.461,-110.6902 1377.2997,-99.4374"/>
<polygon fill="#191970" stroke="#191970" points="1379.6928,-96.88 1370.1656,-92.2449 1374.7228,-101.8095 1379.6928,-96.88"/>
</g>
<!-- Node23 -->
<g id="node24" class="node">
<title>Node23</title>
<polygon fill="none" stroke="#bfbfbf" points="1395,-73 1395,-92 1448,-92 1448,-73 1395,-73"/>
<text text-anchor="middle" x="1421.5" y="-80" font-family="Helvetica,sans-Serif" font-size="10.00" fill="#000000">cstddef</text>
</g>
<!-- Node21&#45;&gt;Node23 -->
<g id="edge24" class="edge">
<title>Node21&#45;&gt;Node23</title>
<path fill="none" stroke="#191970" d="M1421.5,-134.3906C1421.5,-125.8657 1421.5,-113.1392 1421.5,-102.4235"/>
<polygon fill="#191970" stroke="#191970" points="1425.0001,-102.2448 1421.5,-92.2449 1418.0001,-102.2449 1425.0001,-102.2448"/>
</g>
<!-- Node24 -->
<g id="node25" class="node">
<title>Node24</title>
<polygon fill="none" stroke="#bfbfbf" points="1466.5,-73 1466.5,-92 1516.5,-92 1516.5,-73 1466.5,-73"/>
<text text-anchor="middle" x="1491.5" y="-80" font-family="Helvetica,sans-Serif" font-size="10.00" fill="#000000">atomic</text>
</g>
<!-- Node21&#45;&gt;Node24 -->
<g id="edge25" class="edge">
<title>Node21&#45;&gt;Node24</title>
<path fill="none" stroke="#191970" d="M1432.4375,-134.3906C1443.162,-124.9683 1459.7287,-110.4134 1472.5901,-99.1137"/>
<polygon fill="#191970" stroke="#191970" points="1475.2059,-101.4745 1480.4083,-92.2449 1470.5857,-96.2158 1475.2059,-101.4745"/>
</g>
<!-- Node25 -->
<g id="node26" class="node">
<title>Node25</title>
<polygon fill="none" stroke="#bfbfbf" points="1535,-67.5 1535,-97.5 1700,-97.5 1700,-67.5 1535,-67.5"/>
<text text-anchor="start" x="1543" y="-85.5" font-family="Helvetica,sans-Serif" font-size="10.00" fill="#000000">boost/interprocess</text>
<text text-anchor="middle" x="1617.5" y="-74.5" font-family="Helvetica,sans-Serif" font-size="10.00" fill="#000000">/managed_external_buffer.hpp</text>
</g>
<!-- Node21&#45;&gt;Node25 -->
<g id="edge26" class="edge">
<title>Node21&#45;&gt;Node25</title>
<path fill="none" stroke="#191970" d="M1452.125,-134.3906C1480.8617,-125.3737 1524.579,-111.6563 1559.8486,-100.5896"/>
<polygon fill="#191970" stroke="#191970" points="1561.0595,-103.878 1569.553,-97.5446 1558.9638,-97.199 1561.0595,-103.878"/>
</g>
<!-- Node26 -->
<g id="node27" class="node">
<title>Node26</title>
<polygon fill="none" stroke="#bfbfbf" points="1718.5,-67.5 1718.5,-97.5 1852.5,-97.5 1852.5,-67.5 1718.5,-67.5"/>
<text text-anchor="start" x="1726.5" y="-85.5" font-family="Helvetica,sans-Serif" font-size="10.00" fill="#000000">boost/interprocess</text>
<text text-anchor="middle" x="1785.5" y="-74.5" font-family="Helvetica,sans-Serif" font-size="10.00" fill="#000000">/allocators/allocator.hpp</text>
</g>
<!-- Node21&#45;&gt;Node26 -->
<g id="edge27" class="edge">
<title>Node21&#45;&gt;Node26</title>
<path fill="none" stroke="#191970" d="M1486.2607,-134.4664C1542.4356,-126.0117 1626.1762,-112.9665 1708.3783,-98.1623"/>
<polygon fill="#191970" stroke="#191970" points="1709.1772,-101.5746 1718.3934,-96.3484 1707.9297,-94.6867 1709.1772,-101.5746"/>
</g>
<!-- Node29 -->
<g id="node30" class="node">
<title>Node29</title>
<polygon fill="none" stroke="#bfbfbf" points="1507.5,-196 1507.5,-215 1553.5,-215 1553.5,-196 1507.5,-196"/>
<text text-anchor="middle" x="1530.5" y="-203" font-family="Helvetica,sans-Serif" font-size="10.00" fill="#000000">cstdio</text>
</g>
<!-- Node28&#45;&gt;Node29 -->
<g id="edge30" class="edge">
<title>Node28&#45;&gt;Node29</title>
<path fill="none" stroke="#191970" d="M1544,-257.3906C1541.7588,-248.776 1538.4014,-235.8708 1535.5955,-225.0858"/>
<polygon fill="#191970" stroke="#191970" points="1538.9404,-224.0414 1533.0352,-215.2449 1532.1659,-225.804 1538.9404,-224.0414"/>
</g>
<!-- Node28&#45;&gt;Node30 -->
<g id="edge31" class="edge">
<title>Node28&#45;&gt;Node30</title>
<path fill="none" stroke="#191970" d="M1533.2188,-257.3906C1519.7452,-247.6421 1498.678,-232.3994 1482.8565,-220.9521"/>
<polygon fill="#191970" stroke="#191970" points="1484.8414,-218.0682 1474.688,-215.0419 1480.7381,-223.7394 1484.8414,-218.0682"/>
</g>
<!-- Node31 -->
<g id="node32" class="node">
<title>Node31</title>
<polygon fill="none" stroke="#bfbfbf" points="1572,-196 1572,-215 1639,-215 1639,-196 1572,-196"/>
<text text-anchor="middle" x="1605.5" y="-203" font-family="Helvetica,sans-Serif" font-size="10.00" fill="#000000">TNamed.h</text>
</g>
<!-- Node28&#45;&gt;Node31 -->
<g id="edge32" class="edge">
<title>Node28&#45;&gt;Node31</title>
<path fill="none" stroke="#191970" d="M1555.7188,-257.3906C1564.5858,-248.1478 1578.1912,-233.966 1588.9389,-222.7628"/>
<polygon fill="#191970" stroke="#191970" points="1591.7541,-224.8841 1596.1513,-215.2449 1586.7027,-220.0381 1591.7541,-224.8841"/>
</g>
<!-- Node32 -->
<g id="node33" class="node">
<title>Node32</title>
<polygon fill="none" stroke="#bfbfbf" points="1657.5,-196 1657.5,-215 1749.5,-215 1749.5,-196 1657.5,-196"/>
<text text-anchor="middle" x="1703.5" y="-203" font-family="Helvetica,sans-Serif" font-size="10.00" fill="#000000">TGeoManager.h</text>
</g>
<!-- Node28&#45;&gt;Node32 -->
<g id="edge33" class="edge">
<title>Node28&#45;&gt;Node32</title>
<path fill="none" stroke="#191970" d="M1571.0313,-257.3906C1597.5307,-247.0103 1639.9331,-230.4004 1669.607,-218.7766"/>
<polygon fill="#191970" stroke="#191970" points="1671.1065,-221.9482 1679.141,-215.0419 1668.5533,-215.4304 1671.1065,-221.9482"/>
</g>
<!-- Node33 -->
<g id="node34" class="node">
<title>Node33</title>
<polygon fill="none" stroke="#bfbfbf" points="1767.5,-196 1767.5,-215 1835.5,-215 1835.5,-196 1767.5,-196"/>
<text text-anchor="middle" x="1801.5" y="-203" font-family="Helvetica,sans-Serif" font-size="10.00" fill="#000000">TVector3.h</text>
</g>
<!-- Node28&#45;&gt;Node33 -->
<g id="edge34" class="edge">
<title>Node28&#45;&gt;Node33</title>
<path fill="none" stroke="#191970" d="M1599.6929,-257.483C1642.8644,-249.2758 1705.1092,-236.3423 1758.5,-221 1761.2886,-220.1987 1764.1577,-219.3101 1767.0275,-218.3755"/>
<polygon fill="#191970" stroke="#191970" points="1768.3399,-221.6258 1776.6713,-215.0807 1766.0767,-215.0018 1768.3399,-221.6258"/>
</g>
</g>
</svg>
        <g id="navigator" transform="translate(0 0)" fill="#404254">
                <rect fill="#f2f5e9" fill-opacity="0.5" stroke="#606060" stroke-width=".5" x="0" y="0" width="60" height="60"/>
                <use id="zoomplus" xlink:href="#zoomPlus" x="17" y="9" onmousedown="handleZoom(evt,'in')"/>
                <use id="zoomminus" xlink:href="#zoomMin" x="42" y="9" onmousedown="handleZoom(evt,'out')"/>
                <use id="reset" xlink:href="#resetDef" x="30" y="36" onmousedown="handleReset()"/>
                <g id="arrowUp" xlink:href="#dirArrow" transform="translate(30 24)" onmousedown="handlePan(0,-1)">
                  <use xlink:href="#rim" fill="#404040">
                        <set attributeName="fill" to="#808080" begin="arrowUp.mouseover" end="arrowUp.mouseout"/>
                  </use>
                  <path fill="none" stroke="white" stroke-width="1.5" d="M0,-3.0v7 M-2.5,-0.5L0,-3.0L2.5,-0.5"/>
                </g>
                <g id="arrowRight" xlink:href="#dirArrow" transform="rotate(90) translate(36 -43)" onmousedown="handlePan(1,0)">
                  <use xlink:href="#rim" fill="#404040">
                        <set attributeName="fill" to="#808080" begin="arrowRight.mouseover" end="arrowRight.mouseout"/>
                  </use>
                  <path fill="none" stroke="white" stroke-width="1.5" d="M0,-3.0v7 M-2.5,-0.5L0,-3.0L2.5,-0.5"/>
                </g>
                <g id="arrowDown" xlink:href="#dirArrow" transform="rotate(180) translate(-30 -48)" onmousedown="handlePan(0,1)">
                  <use xlink:href="#rim" fill="#404040">
                        <set attributeName="fill" to="#808080" begin="arrowDown.mouseover" end="arrowDown.mouseout"/>
                  </use>
                  <path fill="none" stroke="white" stroke-width="1.5" d="M0,-3.0v7 M-2.5,-0.5L0,-3.0L2.5,-0.5"/>
                </g>
                <g id="arrowLeft" xlink:href="#dirArrow" transform="rotate(270) translate(-36 17)" onmousedown="handlePan(-1,0)">
                  <use xlink:href="#rim" fill="#404040">
                        <set attributeName="fill" to="#808080" begin="arrowLeft.mouseover" end="arrowLeft.mouseout"/>
                  </use>
                  <path fill="none" stroke="white" stroke-width="1.5" d="M0,-3.0v7 M-2.5,-0.5L0,-3.0L2.5,-0.5"/>
                </g>
        </g>
        <svg viewBox="0 0 15 15" width="100%" height="30px" preserveAspectRatio="xMaxYMin meet">
         <g id="arrow_out" transform="scale(0.3 0.3)">
          <a xlink:href="Detectors_2HMPID_2base_2include_2HMPIDBase_2Digit_8h__incl_org.svg" target="_base">
           <rect id="button" ry="5" rx="5" y="6" x="6" height="38" width="38"
                fill="#f2f5e9" fill-opacity="0.5" stroke="#606060" stroke-width="1.0"/>
           <path id="arrow"
             d="M 11.500037,31.436501 C 11.940474,20.09759 22.043105,11.32322 32.158766,21.979434 L 37.068811,17.246167 C 37.068811,17.246167 37.088388,32 37.088388,32 L 22.160133,31.978069 C 22.160133,31.978069 26.997745,27.140456 26.997745,27.140456 C 18.528582,18.264221 13.291696,25.230495 11.500037,31.436501 z"
             style="fill:#404040;"/>
          </a>
         </g>
        </svg>
</svg>
