<?xml version="1.0" encoding="UTF-8" standalone="no"?>
<!DOCTYPE svg PUBLIC "-//W3C//DTD SVG 1.1//EN"
 "http://www.w3.org/Graphics/SVG/1.1/DTD/svg11.dtd">
<!-- Generated by graphviz version 2.40.1 (20161225.0304)
 -->
<!-- Title: /home/travis/build/AliceO2Group/AliceO2/Framework/Core/src/SimpleOptionsRetriever.cxx Pages: 1 -->
<!--zoomable 363 -->
<svg id="main" version="1.1" xmlns="http://www.w3.org/2000/svg" xmlns:xlink="http://www.w3.org/1999/xlink" xml:space="preserve" onload="init(evt)">
<style type="text/css"><![CDATA[
.edge:hover path { stroke: red; }
.edge:hover polygon { stroke: red; fill: red; }
]]></style>
<script type="text/javascript"><![CDATA[
var edges = document.getElementsByTagName('g');
if (edges && edges.length) {
  for (var i=0;i<edges.length;i++) {
    if (edges[i].id.substr(0,4)=='edge') {
      edges[i].setAttribute('class','edge');
    }
  }
}
]]></script>
        <defs>
                <circle id="rim" cx="0" cy="0" r="7"/>
                <circle id="rim2" cx="0" cy="0" r="3.5"/>
                <g id="zoomPlus">
                        <use xlink:href="#rim" fill="#404040">
                                <set attributeName="fill" to="#808080" begin="zoomplus.mouseover" end="zoomplus.mouseout"/>
                        </use>
                        <path d="M-4,0h8M0,-4v8" fill="none" stroke="white" stroke-width="1.5" pointer-events="none"/>
                </g>
                <g id="zoomMin">
                        <use xlink:href="#rim" fill="#404040">
                                <set attributeName="fill" to="#808080" begin="zoomminus.mouseover" end="zoomminus.mouseout"/>
                        </use>
                        <path d="M-4,0h8" fill="none" stroke="white" stroke-width="1.5" pointer-events="none"/>
                </g>
                <g id="dirArrow">
                        <path fill="none" stroke="white" stroke-width="1.5" d="M0,-3.0v7 M-2.5,-0.5L0,-3.0L2.5,-0.5"/>
                </g>
               <g id="resetDef">
                       <use xlink:href="#rim2" fill="#404040">
                               <set attributeName="fill" to="#808080" begin="reset.mouseover" end="reset.mouseout"/>
                       </use>
               </g>
        </defs>

<script type="text/javascript">
var viewWidth = 853;
var viewHeight = 363;
var sectionId = 'dynsection-0';
</script>
<script xlink:href="../../svgpan.js"/>
<svg id="graph" class="graph">
<g id="viewport">
<title>/home/travis/build/AliceO2Group/AliceO2/Framework/Core/src/SimpleOptionsRetriever.cxx</title>
<!-- Node0 -->
<g id="node1" class="node">
<title>Node0</title>
<polygon fill="#bfbfbf" stroke="#000000" points="327.5,-302.5 327.5,-354.5 518.5,-354.5 518.5,-302.5 327.5,-302.5"/>
<text text-anchor="start" x="335.5" y="-342.5" font-family="Helvetica,sans-Serif" font-size="10.00" fill="#000000">/home/travis/build</text>
<text text-anchor="start" x="335.5" y="-331.5" font-family="Helvetica,sans-Serif" font-size="10.00" fill="#000000">/AliceO2Group/AliceO2</text>
<text text-anchor="start" x="335.5" y="-320.5" font-family="Helvetica,sans-Serif" font-size="10.00" fill="#000000">/Framework/Core/src/SimpleOptions</text>
<text text-anchor="middle" x="423" y="-309.5" font-family="Helvetica,sans-Serif" font-size="10.00" fill="#000000">Retriever.cxx</text>
</g>
<!-- Node1 -->
<g id="node2" class="node">
<title>Node1</title>
<g id="a_node2"><a xlink:href="../../dd/d34/SimpleOptionsRetriever_8h.html" target="_top" xlink:title="Framework/SimpleOptionsRetriever.h">
<polygon fill="none" stroke="#000000" points="123.5,-246.5 123.5,-265.5 320.5,-265.5 320.5,-246.5 123.5,-246.5"/>
<text text-anchor="middle" x="222" y="-253.5" font-family="Helvetica,sans-Serif" font-size="10.00" fill="#000000">Framework/SimpleOptionsRetriever.h</text>
</a>
</g>
</g>
<!-- Node0&#45;&gt;Node1 -->
<g id="edge1" class="edge">
<title>Node0&#45;&gt;Node1</title>
<path fill="none" stroke="#191970" d="M350.7184,-302.4283C319.3209,-291.1033 283.9249,-278.3361 258.2087,-269.0604"/>
<polygon fill="#191970" stroke="#191970" points="259.1058,-265.6633 248.5114,-265.5626 256.7306,-272.248 259.1058,-265.6633"/>
</g>
<!-- Node3 -->
<g id="node4" class="node">
<title>Node3</title>
<g id="a_node4"><a xlink:href="../../d0/d1c/ConfigParamSpec_8h.html" target="_top" xlink:title="Framework/ConfigParamSpec.h">
<polygon fill="none" stroke="#000000" points="396.5,-118 396.5,-137 563.5,-137 563.5,-118 396.5,-118"/>
<text text-anchor="middle" x="480" y="-125" font-family="Helvetica,sans-Serif" font-size="10.00" fill="#000000">Framework/ConfigParamSpec.h</text>
</a>
</g>
</g>
<!-- Node0&#45;&gt;Node3 -->
<g id="edge20" class="edge">
<title>Node0&#45;&gt;Node3</title>
<path fill="none" stroke="#191970" d="M518.7553,-310.2369C574.9527,-294.0691 641.5158,-264.231 676,-210 704.8645,-164.6066 637.379,-144.1601 573.8702,-134.9679"/>
<polygon fill="#191970" stroke="#191970" points="574.1077,-131.468 563.727,-133.5871 573.1635,-138.404 574.1077,-131.468"/>
</g>
<!-- Node7 -->
<g id="node8" class="node">
<title>Node7</title>
<polygon fill="none" stroke="#bfbfbf" points="727,-.5 727,-19.5 777,-19.5 777,-.5 727,-.5"/>
<text text-anchor="middle" x="752" y="-7.5" font-family="Helvetica,sans-Serif" font-size="10.00" fill="#000000">cstring</text>
</g>
<!-- Node0&#45;&gt;Node7 -->
<g id="edge30" class="edge">
<title>Node0&#45;&gt;Node7</title>
<path fill="none" stroke="#191970" d="M518.893,-308.9766C616.3263,-286.3099 753,-245.4364 753,-194.5 753,-194.5 753,-194.5 753,-127.5 753,-93.1387 752.5671,-53.1271 752.2709,-29.7759"/>
<polygon fill="#191970" stroke="#191970" points="755.7704,-29.7018 752.139,-19.7487 748.771,-29.7939 755.7704,-29.7018"/>
</g>
<!-- Node9 -->
<g id="node10" class="node">
<title>Node9</title>
<polygon fill="none" stroke="#bfbfbf" points="795.5,-.5 795.5,-19.5 844.5,-19.5 844.5,-.5 795.5,-.5"/>
<text text-anchor="middle" x="820" y="-7.5" font-family="Helvetica,sans-Serif" font-size="10.00" fill="#000000">cstdlib</text>
</g>
<!-- Node0&#45;&gt;Node9 -->
<g id="edge29" class="edge">
<title>Node0&#45;&gt;Node9</title>
<path fill="none" stroke="#191970" d="M518.6591,-314.4239C632.101,-294.9777 806,-255.259 806,-194.5 806,-194.5 806,-194.5 806,-127.5 806,-92.8969 812.0607,-52.9617 816.2068,-29.6911"/>
<polygon fill="#191970" stroke="#191970" points="819.6771,-30.172 818.0534,-19.7023 812.7937,-28.8994 819.6771,-30.172"/>
</g>
<!-- Node13 -->
<g id="node14" class="node">
<title>Node13</title>
<polygon fill="none" stroke="#bfbfbf" points="85,-.5 85,-19.5 129,-19.5 129,-.5 85,-.5"/>
<text text-anchor="middle" x="107" y="-7.5" font-family="Helvetica,sans-Serif" font-size="10.00" fill="#000000">string</text>
</g>
<!-- Node0&#45;&gt;Node13 -->
<g id="edge27" class="edge">
<title>Node0&#45;&gt;Node13</title>
<path fill="none" stroke="#191970" d="M327.279,-317.6062C202.4977,-300.6883 0,-262.7235 0,-194.5 0,-194.5 0,-194.5 0,-127.5 0,-80.5419 47.2954,-44.0865 78.9984,-24.9247"/>
<polygon fill="#191970" stroke="#191970" points="80.9875,-27.8168 87.8705,-19.7623 77.467,-21.7665 80.9875,-27.8168"/>
</g>
<!-- Node15 -->
<g id="node16" class="node">
<title>Node15</title>
<polygon fill="none" stroke="#bfbfbf" points="28.5,-118 28.5,-137 75.5,-137 75.5,-118 28.5,-118"/>
<text text-anchor="middle" x="52" y="-125" font-family="Helvetica,sans-Serif" font-size="10.00" fill="#000000">vector</text>
</g>
<!-- Node0&#45;&gt;Node15 -->
<g id="edge28" class="edge">
<title>Node0&#45;&gt;Node15</title>
<path fill="none" stroke="#191970" d="M327.2445,-318.4409C249.5073,-308.6004 147.6289,-291.369 115,-266 76.5533,-236.1077 60.8085,-177.4404 55.0072,-146.9458"/>
<polygon fill="#191970" stroke="#191970" points="58.4553,-146.3449 53.2961,-137.0911 51.5585,-147.5424 58.4553,-146.3449"/>
</g>
<!-- Node16 -->
<g id="node17" class="node">
<title>Node16</title>
<polygon fill="none" stroke="#bfbfbf" points="305.5,-179.5 305.5,-209.5 418.5,-209.5 418.5,-179.5 305.5,-179.5"/>
<text text-anchor="start" x="313.5" y="-197.5" font-family="Helvetica,sans-Serif" font-size="10.00" fill="#000000">boost/property_tree</text>
<text text-anchor="middle" x="362" y="-186.5" font-family="Helvetica,sans-Serif" font-size="10.00" fill="#000000">/ptree.hpp</text>
</g>
<!-- Node0&#45;&gt;Node16 -->
<g id="edge26" class="edge">
<title>Node0&#45;&gt;Node16</title>
<path fill="none" stroke="#191970" d="M411.0938,-302.3453C400.1114,-278.2201 383.9279,-242.6694 373.1819,-219.0635"/>
<polygon fill="#191970" stroke="#191970" points="376.2691,-217.3974 368.9404,-209.7461 369.8981,-220.2976 376.2691,-217.3974"/>
</g>
<!-- Node17 -->
<g id="node18" class="node">
<title>Node17</title>
<g id="a_node18"><a xlink:href="../../da/d3e/PropertyTreeHelpers_8h.html" target="_top" xlink:title="PropertyTreeHelpers.h">
<polygon fill="none" stroke="#000000" points="406.5,-246.5 406.5,-265.5 531.5,-265.5 531.5,-246.5 406.5,-246.5"/>
<text text-anchor="middle" x="469" y="-253.5" font-family="Helvetica,sans-Serif" font-size="10.00" fill="#000000">PropertyTreeHelpers.h</text>
</a>
</g>
</g>
<!-- Node0&#45;&gt;Node17 -->
<g id="edge21" class="edge">
<title>Node0&#45;&gt;Node17</title>
<path fill="none" stroke="#191970" d="M439.6071,-302.3258C445.5156,-293.0135 452.0355,-282.7375 457.4304,-274.2347"/>
<polygon fill="#191970" stroke="#191970" points="460.5487,-275.8529 462.9508,-265.534 454.638,-272.1027 460.5487,-275.8529"/>
</g>
<!-- Node2 -->
<g id="node3" class="node">
<title>Node2</title>
<g id="a_node3"><a xlink:href="../../df/d72/ParamRetriever_8h.html" target="_top" xlink:title="Framework/ParamRetriever.h">
<polygon fill="none" stroke="#000000" points="130.5,-185 130.5,-204 287.5,-204 287.5,-185 130.5,-185"/>
<text text-anchor="middle" x="209" y="-192" font-family="Helvetica,sans-Serif" font-size="10.00" fill="#000000">Framework/ParamRetriever.h</text>
</a>
</g>
</g>
<!-- Node1&#45;&gt;Node2 -->
<g id="edge2" class="edge">
<title>Node1&#45;&gt;Node2</title>
<path fill="none" stroke="#191970" d="M219.9688,-246.3906C218.1478,-237.776 215.4198,-224.8708 213.1401,-214.0858"/>
<polygon fill="#191970" stroke="#191970" points="216.5524,-213.3048 211.0599,-204.2449 209.7038,-214.7525 216.5524,-213.3048"/>
</g>
<!-- Node1&#45;&gt;Node13 -->
<g id="edge19" class="edge">
<title>Node1&#45;&gt;Node13</title>
<path fill="none" stroke="#191970" d="M177.3697,-246.4536C157.1188,-239.7381 134.8672,-228.5181 122,-210 83.4817,-154.5658 94.6995,-68.3957 102.4144,-29.8309"/>
<polygon fill="#191970" stroke="#191970" points="105.8742,-30.3885 104.5454,-19.8774 99.0293,-28.923 105.8742,-30.3885"/>
</g>
<!-- Node1&#45;&gt;Node16 -->
<g id="edge18" class="edge">
<title>Node1&#45;&gt;Node16</title>
<path fill="none" stroke="#191970" d="M243.875,-246.3906C263.7872,-237.6435 293.7691,-224.4728 318.5438,-213.5897"/>
<polygon fill="#191970" stroke="#191970" points="320.0043,-216.771 327.7521,-209.5446 317.1889,-210.3621 320.0043,-216.771"/>
</g>
<!-- Node2&#45;&gt;Node3 -->
<g id="edge3" class="edge">
<title>Node2&#45;&gt;Node3</title>
<path fill="none" stroke="#191970" d="M247.5399,-184.9717C295.8631,-173.0246 378.7364,-152.5357 431.3716,-139.5225"/>
<polygon fill="#191970" stroke="#191970" points="432.2866,-142.9018 441.1543,-137.1039 430.6065,-136.1064 432.2866,-142.9018"/>
</g>
<!-- Node2&#45;&gt;Node13 -->
<g id="edge16" class="edge">
<title>Node2&#45;&gt;Node13</title>
<path fill="none" stroke="#191970" d="M221.1992,-184.9322C239.1294,-169.6455 269.0321,-138.7127 255,-112 230.5928,-65.5366 174.3752,-36.0986 138.6797,-21.3701"/>
<polygon fill="#191970" stroke="#191970" points="139.7851,-18.0432 129.1994,-17.604 137.2008,-24.5487 139.7851,-18.0432"/>
</g>
<!-- Node14 -->
<g id="node15" class="node">
<title>Node14</title>
<polygon fill="none" stroke="#bfbfbf" points="132.5,-112.5 132.5,-142.5 245.5,-142.5 245.5,-112.5 132.5,-112.5"/>
<text text-anchor="start" x="140.5" y="-130.5" font-family="Helvetica,sans-Serif" font-size="10.00" fill="#000000">boost/property_tree</text>
<text text-anchor="middle" x="189" y="-119.5" font-family="Helvetica,sans-Serif" font-size="10.00" fill="#000000">/ptree_fwd.hpp</text>
</g>
<!-- Node2&#45;&gt;Node14 -->
<g id="edge15" class="edge">
<title>Node2&#45;&gt;Node14</title>
<path fill="none" stroke="#191970" d="M206.1345,-184.9005C203.604,-176.4234 199.8017,-163.6856 196.4213,-152.3614"/>
<polygon fill="#191970" stroke="#191970" points="199.6983,-151.1028 193.4841,-142.5218 192.9908,-153.1051 199.6983,-151.1028"/>
</g>
<!-- Node2&#45;&gt;Node15 -->
<g id="edge17" class="edge">
<title>Node2&#45;&gt;Node15</title>
<path fill="none" stroke="#191970" d="M186.5057,-184.9005C159.5747,-173.4077 114.2933,-154.0838 83.7936,-141.068"/>
<polygon fill="#191970" stroke="#191970" points="85.0238,-137.7876 74.4525,-137.0817 82.2763,-144.2259 85.0238,-137.7876"/>
</g>
<!-- Node4 -->
<g id="node5" class="node">
<title>Node4</title>
<g id="a_node5"><a xlink:href="../../de/d56/Variant_8h.html" target="_top" xlink:title="Framework/Variant.h">
<polygon fill="none" stroke="#000000" points="421.5,-56.5 421.5,-75.5 538.5,-75.5 538.5,-56.5 421.5,-56.5"/>
<text text-anchor="middle" x="480" y="-63.5" font-family="Helvetica,sans-Serif" font-size="10.00" fill="#000000">Framework/Variant.h</text>
</a>
</g>
</g>
<!-- Node3&#45;&gt;Node4 -->
<g id="edge4" class="edge">
<title>Node3&#45;&gt;Node4</title>
<path fill="none" stroke="#191970" d="M480,-117.8906C480,-109.3657 480,-96.6392 480,-85.9235"/>
<polygon fill="#191970" stroke="#191970" points="483.5001,-85.7448 480,-75.7449 476.5001,-85.7449 483.5001,-85.7448"/>
</g>
<!-- Node3&#45;&gt;Node13 -->
<g id="edge14" class="edge">
<title>Node3&#45;&gt;Node13</title>
<path fill="none" stroke="#191970" d="M456.9587,-117.8973C421.2226,-103.238 350.0768,-74.9836 288,-56 222.8506,-36.0768 204.6599,-38.1702 139,-20 138.9018,-19.9728 138.8035,-19.9456 138.705,-19.9182"/>
<polygon fill="#191970" stroke="#191970" points="139.9041,-16.6222 129.3241,-17.182 137.944,-23.3422 139.9041,-16.6222"/>
</g>
<!-- Node5 -->
<g id="node6" class="node">
<title>Node5</title>
<g id="a_node6"><a xlink:href="../../d1/d76/RuntimeError_8h.html" target="_top" xlink:title="Framework/RuntimeError.h">
<polygon fill="none" stroke="#000000" points="407,-.5 407,-19.5 553,-19.5 553,-.5 407,-.5"/>
<text text-anchor="middle" x="480" y="-7.5" font-family="Helvetica,sans-Serif" font-size="10.00" fill="#000000">Framework/RuntimeError.h</text>
</a>
</g>
</g>
<!-- Node4&#45;&gt;Node5 -->
<g id="edge5" class="edge">
<title>Node4&#45;&gt;Node5</title>
<path fill="none" stroke="#191970" d="M480,-56.2455C480,-48.9382 480,-38.6944 480,-29.7046"/>
<polygon fill="#191970" stroke="#191970" points="483.5001,-29.6426 480,-19.6427 476.5001,-29.6427 483.5001,-29.6426"/>
</g>
<!-- Node6 -->
<g id="node7" class="node">
<title>Node6</title>
<polygon fill="none" stroke="#bfbfbf" points="571.5,-.5 571.5,-19.5 640.5,-19.5 640.5,-.5 571.5,-.5"/>
<text text-anchor="middle" x="606" y="-7.5" font-family="Helvetica,sans-Serif" font-size="10.00" fill="#000000">type_traits</text>
</g>
<!-- Node4&#45;&gt;Node6 -->
<g id="edge6" class="edge">
<title>Node4&#45;&gt;Node6</title>
<path fill="none" stroke="#191970" d="M501.6602,-56.3733C521.9772,-47.3435 552.564,-33.7494 575.375,-23.6111"/>
<polygon fill="#191970" stroke="#191970" points="576.9059,-26.7609 584.6225,-19.5011 574.0628,-20.3642 576.9059,-26.7609"/>
</g>
<!-- Node4&#45;&gt;Node7 -->
<g id="edge7" class="edge">
<title>Node4&#45;&gt;Node7</title>
<path fill="none" stroke="#191970" d="M537.5578,-56.4573C583.6976,-48.4479 650.2677,-36.0889 716.9798,-20.0833"/>
<polygon fill="#191970" stroke="#191970" points="717.9284,-23.4547 726.8211,-17.6954 716.2778,-16.6521 717.9284,-23.4547"/>
</g>
<!-- Node8 -->
<g id="node9" class="node">
<title>Node8</title>
<polygon fill="none" stroke="#bfbfbf" points="659,-.5 659,-19.5 709,-19.5 709,-.5 659,-.5"/>
<text text-anchor="middle" x="684" y="-7.5" font-family="Helvetica,sans-Serif" font-size="10.00" fill="#000000">cstdint</text>
</g>
<!-- Node4&#45;&gt;Node8 -->
<g id="edge8" class="edge">
<title>Node4&#45;&gt;Node8</title>
<path fill="none" stroke="#191970" d="M516.2106,-56.4466C548.5839,-47.8513 597.5669,-34.7131 648.8304,-20.2915"/>
<polygon fill="#191970" stroke="#191970" points="650.0929,-23.572 658.7667,-17.488 648.192,-16.835 650.0929,-23.572"/>
</g>
<!-- Node4&#45;&gt;Node9 -->
<g id="edge9" class="edge">
<title>Node4&#45;&gt;Node9</title>
<path fill="none" stroke="#191970" d="M538.5289,-59.6168C598.2633,-52.5605 693.7547,-39.7875 785.2373,-19.9149"/>
<polygon fill="#191970" stroke="#191970" points="786.2075,-23.2851 795.2195,-17.7143 784.7004,-16.4493 786.2075,-23.2851"/>
</g>
<!-- Node10 -->
<g id="node11" class="node">
<title>Node10</title>
<polygon fill="none" stroke="#bfbfbf" points="147.5,-.5 147.5,-19.5 196.5,-19.5 196.5,-.5 147.5,-.5"/>
<text text-anchor="middle" x="172" y="-7.5" font-family="Helvetica,sans-Serif" font-size="10.00" fill="#000000">iosfwd</text>
</g>
<!-- Node4&#45;&gt;Node10 -->
<g id="edge10" class="edge">
<title>Node4&#45;&gt;Node10</title>
<path fill="none" stroke="#191970" d="M421.3393,-58.2271C367.872,-50.6743 286.5706,-38.0212 206.9908,-20.0054"/>
<polygon fill="#191970" stroke="#191970" points="207.3214,-16.4903 196.7918,-17.6644 205.7553,-23.3129 207.3214,-16.4903"/>
</g>
<!-- Node11 -->
<g id="node12" class="node">
<title>Node11</title>
<polygon fill="none" stroke="#bfbfbf" points="214.5,-.5 214.5,-19.5 297.5,-19.5 297.5,-.5 214.5,-.5"/>
<text text-anchor="middle" x="256" y="-7.5" font-family="Helvetica,sans-Serif" font-size="10.00" fill="#000000">initializer_list</text>
</g>
<!-- Node4&#45;&gt;Node11 -->
<g id="edge11" class="edge">
<title>Node4&#45;&gt;Node11</title>
<path fill="none" stroke="#191970" d="M441.7475,-56.4369C403.6533,-46.9133 345.0687,-32.2672 303.9013,-21.9753"/>
<polygon fill="#191970" stroke="#191970" points="304.645,-18.5536 294.0947,-19.5237 302.9472,-25.3446 304.645,-18.5536"/>
</g>
<!-- Node12 -->
<g id="node13" class="node">
<title>Node12</title>
<polygon fill="none" stroke="#bfbfbf" points="315.5,-.5 315.5,-19.5 388.5,-19.5 388.5,-.5 315.5,-.5"/>
<text text-anchor="middle" x="352" y="-7.5" font-family="Helvetica,sans-Serif" font-size="10.00" fill="#000000">string_view</text>
</g>
<!-- Node4&#45;&gt;Node12 -->
<g id="edge12" class="edge">
<title>Node4&#45;&gt;Node12</title>
<path fill="none" stroke="#191970" d="M457.996,-56.3733C437.3565,-47.3435 406.2842,-33.7494 383.1111,-23.6111"/>
<polygon fill="#191970" stroke="#191970" points="384.2813,-20.3028 373.7169,-19.5011 381.4755,-26.7159 384.2813,-20.3028"/>
</g>
<!-- Node4&#45;&gt;Node13 -->
<g id="edge13" class="edge">
<title>Node4&#45;&gt;Node13</title>
<path fill="none" stroke="#191970" d="M421.2456,-61.1131C352.8672,-54.727 236.8275,-41.7207 139,-20 138.9006,-19.9779 138.801,-19.9557 138.7013,-19.9333"/>
<polygon fill="#191970" stroke="#191970" points="139.8084,-16.6047 129.2498,-17.4802 138.0498,-23.3802 139.8084,-16.6047"/>
</g>
<!-- Node17&#45;&gt;Node3 -->
<g id="edge22" class="edge">
<title>Node17&#45;&gt;Node3</title>
<path fill="none" stroke="#191970" d="M531.8163,-249.0459C580.5667,-242.2022 642.403,-229.8484 658,-210 688.3384,-171.392 628.0625,-150.1047 569.6061,-138.8736"/>
<polygon fill="#191970" stroke="#191970" points="569.9636,-135.381 559.4969,-137.024 568.7037,-142.2667 569.9636,-135.381"/>
</g>
<!-- Node17&#45;&gt;Node16 -->
<g id="edge23" class="edge">
<title>Node17&#45;&gt;Node16</title>
<path fill="none" stroke="#191970" d="M452.2813,-246.3906C437.5319,-237.9132 415.5538,-225.2809 396.9756,-214.6028"/>
<polygon fill="#191970" stroke="#191970" points="398.5892,-211.4933 388.1751,-209.5446 395.101,-217.5623 398.5892,-211.4933"/>
</g>
<!-- Node18 -->
<g id="node19" class="node">
<title>Node18</title>
<polygon fill="none" stroke="#bfbfbf" points="519.5,-179.5 519.5,-209.5 648.5,-209.5 648.5,-179.5 519.5,-179.5"/>
<text text-anchor="start" x="527.5" y="-197.5" font-family="Helvetica,sans-Serif" font-size="10.00" fill="#000000">boost/program_options</text>
<text text-anchor="middle" x="584" y="-186.5" font-family="Helvetica,sans-Serif" font-size="10.00" fill="#000000">/variables_map.hpp</text>
</g>
<!-- Node17&#45;&gt;Node18 -->
<g id="edge24" class="edge">
<title>Node17&#45;&gt;Node18</title>
<path fill="none" stroke="#191970" d="M486.9688,-246.3906C502.9649,-237.8361 526.8723,-225.0509 546.953,-214.3121"/>
<polygon fill="#191970" stroke="#191970" points="548.7002,-217.3469 555.8678,-209.5446 545.399,-211.1741 548.7002,-217.3469"/>
</g>
<!-- Node19 -->
<g id="node20" class="node">
<title>Node19</title>
<polygon fill="none" stroke="#bfbfbf" points="436.5,-185 436.5,-204 501.5,-204 501.5,-185 436.5,-185"/>
<text text-anchor="middle" x="469" y="-192" font-family="Helvetica,sans-Serif" font-size="10.00" fill="#000000">functional</text>
</g>
<!-- Node17&#45;&gt;Node19 -->
<g id="edge25" class="edge">
<title>Node17&#45;&gt;Node19</title>
<path fill="none" stroke="#191970" d="M469,-246.3906C469,-237.8657 469,-225.1392 469,-214.4235"/>
<polygon fill="#191970" stroke="#191970" points="472.5001,-214.2448 469,-204.2449 465.5001,-214.2449 472.5001,-214.2448"/>
</g>
</g>
</svg>
        <g id="navigator" transform="translate(0 0)" fill="#404254">
                <rect fill="#f2f5e9" fill-opacity="0.5" stroke="#606060" stroke-width=".5" x="0" y="0" width="60" height="60"/>
                <use id="zoomplus" xlink:href="#zoomPlus" x="17" y="9" onmousedown="handleZoom(evt,'in')"/>
                <use id="zoomminus" xlink:href="#zoomMin" x="42" y="9" onmousedown="handleZoom(evt,'out')"/>
                <use id="reset" xlink:href="#resetDef" x="30" y="36" onmousedown="handleReset()"/>
                <g id="arrowUp" xlink:href="#dirArrow" transform="translate(30 24)" onmousedown="handlePan(0,-1)">
                  <use xlink:href="#rim" fill="#404040">
                        <set attributeName="fill" to="#808080" begin="arrowUp.mouseover" end="arrowUp.mouseout"/>
                  </use>
                  <path fill="none" stroke="white" stroke-width="1.5" d="M0,-3.0v7 M-2.5,-0.5L0,-3.0L2.5,-0.5"/>
                </g>
                <g id="arrowRight" xlink:href="#dirArrow" transform="rotate(90) translate(36 -43)" onmousedown="handlePan(1,0)">
                  <use xlink:href="#rim" fill="#404040">
                        <set attributeName="fill" to="#808080" begin="arrowRight.mouseover" end="arrowRight.mouseout"/>
                  </use>
                  <path fill="none" stroke="white" stroke-width="1.5" d="M0,-3.0v7 M-2.5,-0.5L0,-3.0L2.5,-0.5"/>
                </g>
                <g id="arrowDown" xlink:href="#dirArrow" transform="rotate(180) translate(-30 -48)" onmousedown="handlePan(0,1)">
                  <use xlink:href="#rim" fill="#404040">
                        <set attributeName="fill" to="#808080" begin="arrowDown.mouseover" end="arrowDown.mouseout"/>
                  </use>
                  <path fill="none" stroke="white" stroke-width="1.5" d="M0,-3.0v7 M-2.5,-0.5L0,-3.0L2.5,-0.5"/>
                </g>
                <g id="arrowLeft" xlink:href="#dirArrow" transform="rotate(270) translate(-36 17)" onmousedown="handlePan(-1,0)">
                  <use xlink:href="#rim" fill="#404040">
                        <set attributeName="fill" to="#808080" begin="arrowLeft.mouseover" end="arrowLeft.mouseout"/>
                  </use>
                  <path fill="none" stroke="white" stroke-width="1.5" d="M0,-3.0v7 M-2.5,-0.5L0,-3.0L2.5,-0.5"/>
                </g>
        </g>
        <svg viewBox="0 0 15 15" width="100%" height="30px" preserveAspectRatio="xMaxYMin meet">
         <g id="arrow_out" transform="scale(0.3 0.3)">
          <a xlink:href="SimpleOptionsRetriever_8cxx__incl_org.svg" target="_base">
           <rect id="button" ry="5" rx="5" y="6" x="6" height="38" width="38"
                fill="#f2f5e9" fill-opacity="0.5" stroke="#606060" stroke-width="1.0"/>
           <path id="arrow"
             d="M 11.500037,31.436501 C 11.940474,20.09759 22.043105,11.32322 32.158766,21.979434 L 37.068811,17.246167 C 37.068811,17.246167 37.088388,32 37.088388,32 L 22.160133,31.978069 C 22.160133,31.978069 26.997745,27.140456 26.997745,27.140456 C 18.528582,18.264221 13.291696,25.230495 11.500037,31.436501 z"
             style="fill:#404040;"/>
          </a>
         </g>
        </svg>
</svg>
