<?xml version="1.0" encoding="UTF-8" standalone="no"?>
<!DOCTYPE svg PUBLIC "-//W3C//DTD SVG 1.1//EN"
 "http://www.w3.org/Graphics/SVG/1.1/DTD/svg11.dtd">
<!-- Generated by graphviz version 2.40.1 (20161225.0304)
 -->
<!-- Title: o2::zdc::RecEvent Pages: 1 -->
<!--zoomable 694 -->
<svg id="main" version="1.1" xmlns="http://www.w3.org/2000/svg" xmlns:xlink="http://www.w3.org/1999/xlink" xml:space="preserve" onload="init(evt)">
<style type="text/css"><![CDATA[
.edge:hover path { stroke: red; }
.edge:hover polygon { stroke: red; fill: red; }
]]></style>
<script type="text/javascript"><![CDATA[
var edges = document.getElementsByTagName('g');
if (edges && edges.length) {
  for (var i=0;i<edges.length;i++) {
    if (edges[i].id.substr(0,4)=='edge') {
      edges[i].setAttribute('class','edge');
    }
  }
}
]]></script>
        <defs>
                <circle id="rim" cx="0" cy="0" r="7"/>
                <circle id="rim2" cx="0" cy="0" r="3.5"/>
                <g id="zoomPlus">
                        <use xlink:href="#rim" fill="#404040">
                                <set attributeName="fill" to="#808080" begin="zoomplus.mouseover" end="zoomplus.mouseout"/>
                        </use>
                        <path d="M-4,0h8M0,-4v8" fill="none" stroke="white" stroke-width="1.5" pointer-events="none"/>
                </g>
                <g id="zoomMin">
                        <use xlink:href="#rim" fill="#404040">
                                <set attributeName="fill" to="#808080" begin="zoomminus.mouseover" end="zoomminus.mouseout"/>
                        </use>
                        <path d="M-4,0h8" fill="none" stroke="white" stroke-width="1.5" pointer-events="none"/>
                </g>
                <g id="dirArrow">
                        <path fill="none" stroke="white" stroke-width="1.5" d="M0,-3.0v7 M-2.5,-0.5L0,-3.0L2.5,-0.5"/>
                </g>
               <g id="resetDef">
                       <use xlink:href="#rim2" fill="#404040">
                               <set attributeName="fill" to="#808080" begin="reset.mouseover" end="reset.mouseout"/>
                       </use>
               </g>
        </defs>

<script type="text/javascript">
var viewWidth = 1186;
var viewHeight = 694;
var sectionId = 'dynsection-0';
</script>
<script xlink:href="../../svgpan.js"/>
<svg id="graph" class="graph">
<g id="viewport">
<title>o2::zdc::RecEvent</title>
<!-- Node1 -->
<g id="node1" class="node">
<title>Node1</title>
<polygon fill="#bfbfbf" stroke="#000000" points="556,-.5 556,-68.5 658,-68.5 658,-.5 556,-.5"/>
<text text-anchor="middle" x="607" y="-56.5" font-family="Helvetica,sans-Serif" font-size="10.00" fill="#000000">o2::zdc::RecEvent</text>
<polyline fill="none" stroke="#000000" points="556,-49.5 658,-49.5 "/>
<text text-anchor="middle" x="607" y="-37.5" font-family="Helvetica,sans-Serif" font-size="10.00" fill="#000000"> </text>
<polyline fill="none" stroke="#000000" points="556,-30.5 658,-30.5 "/>
<text text-anchor="start" x="564" y="-18.5" font-family="Helvetica,sans-Serif" font-size="10.00" fill="#000000">+ print()</text>
<text text-anchor="start" x="564" y="-7.5" font-family="Helvetica,sans-Serif" font-size="10.00" fill="#000000">+ ClassDefNV()</text>
</g>
<!-- Node2 -->
<g id="node2" class="node">
<title>Node2</title>
<g id="a_node2"><a xlink:href="../../d1/d21/structo2_1_1InteractionRecord.html" target="_top" xlink:title="{o2::InteractionRecord\n||+ InteractionRecord()\l+ InteractionRecord()\l+ InteractionRecord()\l+ InteractionRecord()\l+ clear()\l+ isDummy()\l+ setFromNS()\l+ bc2ns()\l+ operator==()\l+ operator!=()\l+ differenceInBC()\l+ differenceInBCns()\l+ toLong()\l+ setFromLong()\l+ operator\&gt;()\l+ operator\&gt;=()\l+ operator\&lt;()\l+ operator\&lt;=()\l+ operator&#45;&#45;()\l+ operator&#45;&#45;()\l+ operator++()\l+ operator++()\l+ operator+=()\l+ operator&#45;=()\l+ operator+=()\l+ operator&#45;=()\l+ operator+()\l+ operator&#45;()\l+ operator+()\l+ operator&#45;()\l+ print()\l+ asString()\l+ ClassDefNV()\l+ bc2ns()\l+ ns2bc()\l}">
<polygon fill="none" stroke="#000000" points="102.5,-127.5 102.5,-558.5 223.5,-558.5 223.5,-127.5 102.5,-127.5"/>
<text text-anchor="middle" x="163" y="-546.5" font-family="Helvetica,sans-Serif" font-size="10.00" fill="#000000">o2::InteractionRecord</text>
<polyline fill="none" stroke="#000000" points="102.5,-539.5 223.5,-539.5 "/>
<text text-anchor="middle" x="163" y="-527.5" font-family="Helvetica,sans-Serif" font-size="10.00" fill="#000000"> </text>
<polyline fill="none" stroke="#000000" points="102.5,-520.5 223.5,-520.5 "/>
<text text-anchor="start" x="110.5" y="-508.5" font-family="Helvetica,sans-Serif" font-size="10.00" fill="#000000">+ InteractionRecord()</text>
<text text-anchor="start" x="110.5" y="-497.5" font-family="Helvetica,sans-Serif" font-size="10.00" fill="#000000">+ InteractionRecord()</text>
<text text-anchor="start" x="110.5" y="-486.5" font-family="Helvetica,sans-Serif" font-size="10.00" fill="#000000">+ InteractionRecord()</text>
<text text-anchor="start" x="110.5" y="-475.5" font-family="Helvetica,sans-Serif" font-size="10.00" fill="#000000">+ InteractionRecord()</text>
<text text-anchor="start" x="110.5" y="-464.5" font-family="Helvetica,sans-Serif" font-size="10.00" fill="#000000">+ clear()</text>
<text text-anchor="start" x="110.5" y="-453.5" font-family="Helvetica,sans-Serif" font-size="10.00" fill="#000000">+ isDummy()</text>
<text text-anchor="start" x="110.5" y="-442.5" font-family="Helvetica,sans-Serif" font-size="10.00" fill="#000000">+ setFromNS()</text>
<text text-anchor="start" x="110.5" y="-431.5" font-family="Helvetica,sans-Serif" font-size="10.00" fill="#000000">+ bc2ns()</text>
<text text-anchor="start" x="110.5" y="-420.5" font-family="Helvetica,sans-Serif" font-size="10.00" fill="#000000">+ operator==()</text>
<text text-anchor="start" x="110.5" y="-409.5" font-family="Helvetica,sans-Serif" font-size="10.00" fill="#000000">+ operator!=()</text>
<text text-anchor="start" x="110.5" y="-398.5" font-family="Helvetica,sans-Serif" font-size="10.00" fill="#000000">+ differenceInBC()</text>
<text text-anchor="start" x="110.5" y="-387.5" font-family="Helvetica,sans-Serif" font-size="10.00" fill="#000000">+ differenceInBCns()</text>
<text text-anchor="start" x="110.5" y="-376.5" font-family="Helvetica,sans-Serif" font-size="10.00" fill="#000000">+ toLong()</text>
<text text-anchor="start" x="110.5" y="-365.5" font-family="Helvetica,sans-Serif" font-size="10.00" fill="#000000">+ setFromLong()</text>
<text text-anchor="start" x="110.5" y="-354.5" font-family="Helvetica,sans-Serif" font-size="10.00" fill="#000000">+ operator&gt;()</text>
<text text-anchor="start" x="110.5" y="-343.5" font-family="Helvetica,sans-Serif" font-size="10.00" fill="#000000">+ operator&gt;=()</text>
<text text-anchor="start" x="110.5" y="-332.5" font-family="Helvetica,sans-Serif" font-size="10.00" fill="#000000">+ operator&lt;()</text>
<text text-anchor="start" x="110.5" y="-321.5" font-family="Helvetica,sans-Serif" font-size="10.00" fill="#000000">+ operator&lt;=()</text>
<text text-anchor="start" x="110.5" y="-310.5" font-family="Helvetica,sans-Serif" font-size="10.00" fill="#000000">+ operator&#45;&#45;()</text>
<text text-anchor="start" x="110.5" y="-299.5" font-family="Helvetica,sans-Serif" font-size="10.00" fill="#000000">+ operator&#45;&#45;()</text>
<text text-anchor="start" x="110.5" y="-288.5" font-family="Helvetica,sans-Serif" font-size="10.00" fill="#000000">+ operator++()</text>
<text text-anchor="start" x="110.5" y="-277.5" font-family="Helvetica,sans-Serif" font-size="10.00" fill="#000000">+ operator++()</text>
<text text-anchor="start" x="110.5" y="-266.5" font-family="Helvetica,sans-Serif" font-size="10.00" fill="#000000">+ operator+=()</text>
<text text-anchor="start" x="110.5" y="-255.5" font-family="Helvetica,sans-Serif" font-size="10.00" fill="#000000">+ operator&#45;=()</text>
<text text-anchor="start" x="110.5" y="-244.5" font-family="Helvetica,sans-Serif" font-size="10.00" fill="#000000">+ operator+=()</text>
<text text-anchor="start" x="110.5" y="-233.5" font-family="Helvetica,sans-Serif" font-size="10.00" fill="#000000">+ operator&#45;=()</text>
<text text-anchor="start" x="110.5" y="-222.5" font-family="Helvetica,sans-Serif" font-size="10.00" fill="#000000">+ operator+()</text>
<text text-anchor="start" x="110.5" y="-211.5" font-family="Helvetica,sans-Serif" font-size="10.00" fill="#000000">+ operator&#45;()</text>
<text text-anchor="start" x="110.5" y="-200.5" font-family="Helvetica,sans-Serif" font-size="10.00" fill="#000000">+ operator+()</text>
<text text-anchor="start" x="110.5" y="-189.5" font-family="Helvetica,sans-Serif" font-size="10.00" fill="#000000">+ operator&#45;()</text>
<text text-anchor="start" x="110.5" y="-178.5" font-family="Helvetica,sans-Serif" font-size="10.00" fill="#000000">+ print()</text>
<text text-anchor="start" x="110.5" y="-167.5" font-family="Helvetica,sans-Serif" font-size="10.00" fill="#000000">+ asString()</text>
<text text-anchor="start" x="110.5" y="-156.5" font-family="Helvetica,sans-Serif" font-size="10.00" fill="#000000">+ ClassDefNV()</text>
<text text-anchor="start" x="110.5" y="-145.5" font-family="Helvetica,sans-Serif" font-size="10.00" fill="#000000">+ bc2ns()</text>
<text text-anchor="start" x="110.5" y="-134.5" font-family="Helvetica,sans-Serif" font-size="10.00" fill="#000000">+ ns2bc()</text>
</a>
</g>
</g>
<!-- Node2&#45;&gt;Node1 -->
<g id="edge1" class="edge">
<title>Node2&#45;&gt;Node1</title>
<path fill="none" stroke="#404040" d="M223.698,-133.1414C235.1737,-115.7172 248.8068,-99.8814 265,-87 306.9936,-53.595 456.938,-41.246 543.7092,-36.8333"/>
<polygon fill="none" stroke="#404040" points="543.7884,-36.8295 549.5882,-32.5445 555.7744,-36.2501 549.9745,-40.5351 543.7884,-36.8295"/>
<text text-anchor="middle" x="274.5" y="-95.5" font-family="Helvetica,sans-Serif" font-size="10.00" fill="#000000"> +ir</text>
</g>
<!-- Node3 -->
<g id="node3" class="node">
<title>Node3</title>
<polygon fill="none" stroke="#bfbfbf" points="0,-623 0,-680 50,-680 50,-623 0,-623"/>
<text text-anchor="middle" x="25" y="-668" font-family="Helvetica,sans-Serif" font-size="10.00" fill="#000000">double</text>
<polyline fill="none" stroke="#bfbfbf" points="0,-661 50,-661 "/>
<text text-anchor="middle" x="25" y="-649" font-family="Helvetica,sans-Serif" font-size="10.00" fill="#000000"> </text>
<polyline fill="none" stroke="#bfbfbf" points="0,-642 50,-642 "/>
<text text-anchor="middle" x="25" y="-630" font-family="Helvetica,sans-Serif" font-size="10.00" fill="#000000"> </text>
</g>
<!-- Node3&#45;&gt;Node2 -->
<g id="edge2" class="edge">
<title>Node3&#45;&gt;Node2</title>
<path fill="none" stroke="#404040" d="M30.7729,-622.7439C33.9798,-608.7207 38.4502,-591.7405 44,-577 58.6894,-537.9846 78.0741,-496.9757 96.9233,-460.3789"/>
<polygon fill="none" stroke="#404040" points="96.9515,-460.3247 96.1687,-453.1562 102.4846,-449.6764 103.2675,-456.8449 96.9515,-460.3247"/>
<text text-anchor="middle" x="82" y="-585.5" font-family="Helvetica,sans-Serif" font-size="10.00" fill="#000000"> +DummyTime</text>
</g>
<!-- Node4 -->
<g id="node4" class="node">
<title>Node4</title>
<polygon fill="none" stroke="#bfbfbf" points="96,-623 96,-680 152,-680 152,-623 96,-623"/>
<text text-anchor="middle" x="124" y="-668" font-family="Helvetica,sans-Serif" font-size="10.00" fill="#000000">uint16_t</text>
<polyline fill="none" stroke="#bfbfbf" points="96,-661 152,-661 "/>
<text text-anchor="middle" x="124" y="-649" font-family="Helvetica,sans-Serif" font-size="10.00" fill="#000000"> </text>
<polyline fill="none" stroke="#bfbfbf" points="96,-642 152,-642 "/>
<text text-anchor="middle" x="124" y="-630" font-family="Helvetica,sans-Serif" font-size="10.00" fill="#000000"> </text>
</g>
<!-- Node4&#45;&gt;Node2 -->
<g id="edge3" class="edge">
<title>Node4&#45;&gt;Node2</title>
<path fill="none" stroke="#404040" d="M123.3985,-622.7945C123.3597,-608.9337 123.6819,-592.0767 125,-577 125.1817,-574.9211 125.3712,-572.8328 125.568,-570.7363"/>
<polygon fill="none" stroke="#404040" points="125.5827,-570.5875 122.1974,-564.2205 126.7726,-558.6467 130.1579,-565.0137 125.5827,-570.5875"/>
<text text-anchor="middle" x="157" y="-591" font-family="Helvetica,sans-Serif" font-size="10.00" fill="#000000"> +DummyBC</text>
<text text-anchor="middle" x="157" y="-580" font-family="Helvetica,sans-Serif" font-size="10.00" fill="#000000">+bc</text>
</g>
<!-- Node5 -->
<g id="node5" class="node">
<title>Node5</title>
<g id="a_node5"><a xlink:href="../../d3/d87/classuint32__t.html" target="_top" xlink:title="{uint32_t\n||}">
<polygon fill="none" stroke="#000000" points="226,-623 226,-680 282,-680 282,-623 226,-623"/>
<text text-anchor="middle" x="254" y="-668" font-family="Helvetica,sans-Serif" font-size="10.00" fill="#000000">uint32_t</text>
<polyline fill="none" stroke="#000000" points="226,-661 282,-661 "/>
<text text-anchor="middle" x="254" y="-649" font-family="Helvetica,sans-Serif" font-size="10.00" fill="#000000"> </text>
<polyline fill="none" stroke="#000000" points="226,-642 282,-642 "/>
<text text-anchor="middle" x="254" y="-630" font-family="Helvetica,sans-Serif" font-size="10.00" fill="#000000"> </text>
</a>
</g>
</g>
<!-- Node5&#45;&gt;Node1 -->
<g id="edge9" class="edge">
<title>Node5&#45;&gt;Node1</title>
<path fill="none" stroke="#404040" d="M273.5512,-622.8851C277.7401,-615.4159 281.6181,-607.1627 284,-599 342.8325,-397.3817 178.1957,-292.8936 307,-127 336.1104,-89.5073 464.4896,-60.2125 543.5768,-45.3168"/>
<polygon fill="none" stroke="#404040" points="544.0241,-45.2341 549.1962,-40.2092 555.8238,-43.0507 550.6518,-48.0756 544.0241,-45.2341"/>
<text text-anchor="middle" x="324.5" y="-340.5" font-family="Helvetica,sans-Serif" font-size="10.00" fill="#000000"> +flags</text>
</g>
<!-- Node5&#45;&gt;Node2 -->
<g id="edge4" class="edge">
<title>Node5&#45;&gt;Node2</title>
<path fill="none" stroke="#404040" d="M227.0665,-622.9229C221.3376,-615.5797 215.8602,-607.3743 212,-599 207.7452,-589.7696 203.8597,-580.1882 200.3117,-570.3885"/>
<polygon fill="none" stroke="#404040" points="200.2232,-570.1327 194.4813,-565.7703 196.2996,-558.7922 202.0416,-563.1546 200.2232,-570.1327"/>
<text text-anchor="middle" x="248" y="-591" font-family="Helvetica,sans-Serif" font-size="10.00" fill="#000000"> +orbit</text>
<text text-anchor="middle" x="248" y="-580" font-family="Helvetica,sans-Serif" font-size="10.00" fill="#000000">+DummyOrbit</text>
</g>
<!-- Node6 -->
<g id="node6" class="node">
<title>Node6</title>
<polygon fill="none" stroke="#bfbfbf" points="351.5,-314.5 351.5,-371.5 510.5,-371.5 510.5,-314.5 351.5,-314.5"/>
<text text-anchor="middle" x="431" y="-359.5" font-family="Helvetica,sans-Serif" font-size="10.00" fill="#000000">array&lt; float, NChannelsZN &gt;</text>
<polyline fill="none" stroke="#bfbfbf" points="351.5,-352.5 510.5,-352.5 "/>
<text text-anchor="middle" x="431" y="-340.5" font-family="Helvetica,sans-Serif" font-size="10.00" fill="#000000"> </text>
<polyline fill="none" stroke="#bfbfbf" points="351.5,-333.5 510.5,-333.5 "/>
<text text-anchor="middle" x="431" y="-321.5" font-family="Helvetica,sans-Serif" font-size="10.00" fill="#000000"> </text>
</g>
<!-- Node6&#45;&gt;Node1 -->
<g id="edge5" class="edge">
<title>Node6&#45;&gt;Node1</title>
<path fill="none" stroke="#404040" d="M437.2558,-314.22C449.3327,-263.8446 479.7639,-158.2777 536,-87 539.2938,-82.8252 542.9985,-78.8179 546.9423,-75.0094"/>
<polygon fill="none" stroke="#404040" points="546.9489,-75.0035 548.7527,-68.0216 555.8913,-67.0013 554.0875,-73.9832 546.9489,-75.0035"/>
<text text-anchor="middle" x="569.5" y="-101" font-family="Helvetica,sans-Serif" font-size="10.00" fill="#000000"> +energyZNA</text>
<text text-anchor="middle" x="569.5" y="-90" font-family="Helvetica,sans-Serif" font-size="10.00" fill="#000000">+energyZNC</text>
</g>
<!-- Node7 -->
<g id="node7" class="node">
<title>Node7</title>
<polygon fill="none" stroke="#bfbfbf" points="528,-314.5 528,-371.5 686,-371.5 686,-314.5 528,-314.5"/>
<text text-anchor="middle" x="607" y="-359.5" font-family="Helvetica,sans-Serif" font-size="10.00" fill="#000000">array&lt; float, NChannelsZP &gt;</text>
<polyline fill="none" stroke="#bfbfbf" points="528,-352.5 686,-352.5 "/>
<text text-anchor="middle" x="607" y="-340.5" font-family="Helvetica,sans-Serif" font-size="10.00" fill="#000000"> </text>
<polyline fill="none" stroke="#bfbfbf" points="528,-333.5 686,-333.5 "/>
<text text-anchor="middle" x="607" y="-321.5" font-family="Helvetica,sans-Serif" font-size="10.00" fill="#000000"> </text>
</g>
<!-- Node7&#45;&gt;Node1 -->
<g id="edge6" class="edge">
<title>Node7&#45;&gt;Node1</title>
<path fill="none" stroke="#404040" d="M607,-314.2541C607,-260.8258 607,-145.7905 607,-81.1092"/>
<polygon fill="none" stroke="#404040" points="607.0001,-80.8775 603,-74.8776 607,-68.8775 611,-74.8775 607.0001,-80.8775"/>
<text text-anchor="middle" x="639" y="-101" font-family="Helvetica,sans-Serif" font-size="10.00" fill="#000000"> +energyZPA</text>
<text text-anchor="middle" x="639" y="-90" font-family="Helvetica,sans-Serif" font-size="10.00" fill="#000000">+energyZPC</text>
</g>
<!-- Node8 -->
<g id="node8" class="node">
<title>Node8</title>
<g id="a_node8"><a xlink:href="../../d2/db4/classROOT_1_1Math_1_1PositionVector2D.html" target="_top" xlink:title="{ROOT::Math::PositionVector2\lD\&lt; float \&gt;\n||}">
<polygon fill="none" stroke="#000000" points="704.5,-309 704.5,-377 859.5,-377 859.5,-309 704.5,-309"/>
<text text-anchor="start" x="712.5" y="-365" font-family="Helvetica,sans-Serif" font-size="10.00" fill="#000000">ROOT::Math::PositionVector2</text>
<text text-anchor="middle" x="782" y="-354" font-family="Helvetica,sans-Serif" font-size="10.00" fill="#000000">D&lt; float &gt;</text>
<polyline fill="none" stroke="#000000" points="704.5,-347 859.5,-347 "/>
<text text-anchor="middle" x="782" y="-335" font-family="Helvetica,sans-Serif" font-size="10.00" fill="#000000"> </text>
<polyline fill="none" stroke="#000000" points="704.5,-328 859.5,-328 "/>
<text text-anchor="middle" x="782" y="-316" font-family="Helvetica,sans-Serif" font-size="10.00" fill="#000000"> </text>
</a>
</g>
</g>
<!-- Node8&#45;&gt;Node1 -->
<g id="edge7" class="edge">
<title>Node8&#45;&gt;Node1</title>
<path fill="none" stroke="#404040" d="M774.4171,-308.5977C761.4524,-256.0837 730.856,-154.8856 675,-87 672.1808,-83.5736 669.0985,-80.2346 665.8523,-77.0089"/>
<polygon fill="none" stroke="#404040" points="665.7459,-76.9103 658.6263,-75.7652 656.9449,-68.7528 664.0646,-69.8979 665.7459,-76.9103"/>
<text text-anchor="middle" x="724.5" y="-101" font-family="Helvetica,sans-Serif" font-size="10.00" fill="#000000"> +centroidZNA</text>
<text text-anchor="middle" x="724.5" y="-90" font-family="Helvetica,sans-Serif" font-size="10.00" fill="#000000">+centroidZNC</text>
</g>
<!-- Node9 -->
<g id="node9" class="node">
<title>Node9</title>
<g id="a_node9"><a xlink:href="../../d2/db4/classROOT_1_1Math_1_1PositionVector2D.html" target="_top" xlink:title="{ROOT::Math::PositionVector2\lD\&lt; CoordSystem, Tag \&gt;\n||}">
<polygon fill="none" stroke="#000000" points="704.5,-617.5 704.5,-685.5 859.5,-685.5 859.5,-617.5 704.5,-617.5"/>
<text text-anchor="start" x="712.5" y="-673.5" font-family="Helvetica,sans-Serif" font-size="10.00" fill="#000000">ROOT::Math::PositionVector2</text>
<text text-anchor="middle" x="782" y="-662.5" font-family="Helvetica,sans-Serif" font-size="10.00" fill="#000000">D&lt; CoordSystem, Tag &gt;</text>
<polyline fill="none" stroke="#000000" points="704.5,-655.5 859.5,-655.5 "/>
<text text-anchor="middle" x="782" y="-643.5" font-family="Helvetica,sans-Serif" font-size="10.00" fill="#000000"> </text>
<polyline fill="none" stroke="#000000" points="704.5,-636.5 859.5,-636.5 "/>
<text text-anchor="middle" x="782" y="-624.5" font-family="Helvetica,sans-Serif" font-size="10.00" fill="#000000"> </text>
</a>
</g>
</g>
<!-- Node9&#45;&gt;Node8 -->
<g id="edge8" class="edge">
<title>Node9&#45;&gt;Node8</title>
<path fill="none" stroke="#ffa500" d="M782,-607.0419C782,-544.9293 782,-433.5045 782,-377.3468"/>
<polygon fill="#ffa500" stroke="#ffa500" points="778.5001,-607.3064 782,-617.3064 785.5001,-607.3064 778.5001,-607.3064"/>
<text text-anchor="middle" x="806" y="-585.5" font-family="Helvetica,sans-Serif" font-size="10.00" fill="#000000"> &lt; float &gt;</text>
</g>
<!-- Node10 -->
<g id="node10" class="node">
<title>Node10</title>
<polygon fill="none" stroke="#bfbfbf" points="878,-309 878,-377 994,-377 994,-309 878,-309"/>
<text text-anchor="start" x="886" y="-365" font-family="Helvetica,sans-Serif" font-size="10.00" fill="#000000">array&lt; TDCChannel,</text>
<text text-anchor="middle" x="936" y="-354" font-family="Helvetica,sans-Serif" font-size="10.00" fill="#000000"> NTDCChannels &gt;</text>
<polyline fill="none" stroke="#bfbfbf" points="878,-347 994,-347 "/>
<text text-anchor="middle" x="936" y="-335" font-family="Helvetica,sans-Serif" font-size="10.00" fill="#000000"> </text>
<polyline fill="none" stroke="#bfbfbf" points="878,-328 994,-328 "/>
<text text-anchor="middle" x="936" y="-316" font-family="Helvetica,sans-Serif" font-size="10.00" fill="#000000"> </text>
</g>
<!-- Node10&#45;&gt;Node1 -->
<g id="edge10" class="edge">
<title>Node10&#45;&gt;Node1</title>
<path fill="none" stroke="#404040" d="M934.3957,-308.88C930.4122,-262.0498 916.6162,-177.8877 869,-127 817.0763,-71.5089 729.8351,-49.2849 670.4103,-40.3983"/>
<polygon fill="none" stroke="#404040" points="670.0604,-40.3497 663.5667,-43.4854 658.1747,-38.6972 664.6684,-35.5616 670.0604,-40.3497"/>
<text text-anchor="middle" x="883" y="-95.5" font-family="Helvetica,sans-Serif" font-size="10.00" fill="#000000"> +tdcChannels</text>
</g>
<!-- Node11 -->
<g id="node11" class="node">
<title>Node11</title>
<polygon fill="none" stroke="#bfbfbf" points="1012,-314.5 1012,-371.5 1178,-371.5 1178,-314.5 1012,-314.5"/>
<text text-anchor="middle" x="1095" y="-359.5" font-family="Helvetica,sans-Serif" font-size="10.00" fill="#000000">array&lt; float, NChannelsZEM &gt;</text>
<polyline fill="none" stroke="#bfbfbf" points="1012,-352.5 1178,-352.5 "/>
<text text-anchor="middle" x="1095" y="-340.5" font-family="Helvetica,sans-Serif" font-size="10.00" fill="#000000"> </text>
<polyline fill="none" stroke="#bfbfbf" points="1012,-333.5 1178,-333.5 "/>
<text text-anchor="middle" x="1095" y="-321.5" font-family="Helvetica,sans-Serif" font-size="10.00" fill="#000000"> </text>
</g>
<!-- Node11&#45;&gt;Node1 -->
<g id="edge11" class="edge">
<title>Node11&#45;&gt;Node1</title>
<path fill="none" stroke="#404040" d="M1089.4565,-314.3156C1079.4342,-269.3119 1054.3899,-181.624 1003,-127 975.761,-98.0468 960.8069,-99.2835 923,-87 837.9074,-59.3534 734.9653,-45.7211 670.215,-39.4074"/>
<polygon fill="none" stroke="#404040" points="670.1339,-39.3999 663.7857,-42.8204 658.1866,-38.2761 664.5349,-34.8555 670.1339,-39.3999"/>
<text text-anchor="middle" x="1018.5" y="-95.5" font-family="Helvetica,sans-Serif" font-size="10.00" fill="#000000"> +eneregyZEM</text>
</g>
</g>
</svg>
        <g id="navigator" transform="translate(0 0)" fill="#404254">
                <rect fill="#f2f5e9" fill-opacity="0.5" stroke="#606060" stroke-width=".5" x="0" y="0" width="60" height="60"/>
                <use id="zoomplus" xlink:href="#zoomPlus" x="17" y="9" onmousedown="handleZoom(evt,'in')"/>
                <use id="zoomminus" xlink:href="#zoomMin" x="42" y="9" onmousedown="handleZoom(evt,'out')"/>
                <use id="reset" xlink:href="#resetDef" x="30" y="36" onmousedown="handleReset()"/>
                <g id="arrowUp" xlink:href="#dirArrow" transform="translate(30 24)" onmousedown="handlePan(0,-1)">
                  <use xlink:href="#rim" fill="#404040">
                        <set attributeName="fill" to="#808080" begin="arrowUp.mouseover" end="arrowUp.mouseout"/>
                  </use>
                  <path fill="none" stroke="white" stroke-width="1.5" d="M0,-3.0v7 M-2.5,-0.5L0,-3.0L2.5,-0.5"/>
                </g>
                <g id="arrowRight" xlink:href="#dirArrow" transform="rotate(90) translate(36 -43)" onmousedown="handlePan(1,0)">
                  <use xlink:href="#rim" fill="#404040">
                        <set attributeName="fill" to="#808080" begin="arrowRight.mouseover" end="arrowRight.mouseout"/>
                  </use>
                  <path fill="none" stroke="white" stroke-width="1.5" d="M0,-3.0v7 M-2.5,-0.5L0,-3.0L2.5,-0.5"/>
                </g>
                <g id="arrowDown" xlink:href="#dirArrow" transform="rotate(180) translate(-30 -48)" onmousedown="handlePan(0,1)">
                  <use xlink:href="#rim" fill="#404040">
                        <set attributeName="fill" to="#808080" begin="arrowDown.mouseover" end="arrowDown.mouseout"/>
                  </use>
                  <path fill="none" stroke="white" stroke-width="1.5" d="M0,-3.0v7 M-2.5,-0.5L0,-3.0L2.5,-0.5"/>
                </g>
                <g id="arrowLeft" xlink:href="#dirArrow" transform="rotate(270) translate(-36 17)" onmousedown="handlePan(-1,0)">
                  <use xlink:href="#rim" fill="#404040">
                        <set attributeName="fill" to="#808080" begin="arrowLeft.mouseover" end="arrowLeft.mouseout"/>
                  </use>
                  <path fill="none" stroke="white" stroke-width="1.5" d="M0,-3.0v7 M-2.5,-0.5L0,-3.0L2.5,-0.5"/>
                </g>
        </g>
        <svg viewBox="0 0 15 15" width="100%" height="30px" preserveAspectRatio="xMaxYMin meet">
         <g id="arrow_out" transform="scale(0.3 0.3)">
          <a xlink:href="structo2_1_1zdc_1_1RecEvent__coll__graph_org.svg" target="_base">
           <rect id="button" ry="5" rx="5" y="6" x="6" height="38" width="38"
                fill="#f2f5e9" fill-opacity="0.5" stroke="#606060" stroke-width="1.0"/>
           <path id="arrow"
             d="M 11.500037,31.436501 C 11.940474,20.09759 22.043105,11.32322 32.158766,21.979434 L 37.068811,17.246167 C 37.068811,17.246167 37.088388,32 37.088388,32 L 22.160133,31.978069 C 22.160133,31.978069 26.997745,27.140456 26.997745,27.140456 C 18.528582,18.264221 13.291696,25.230495 11.500037,31.436501 z"
             style="fill:#404040;"/>
          </a>
         </g>
        </svg>
</svg>
