<?xml version="1.0" encoding="UTF-8" standalone="no"?>
<!DOCTYPE svg PUBLIC "-//W3C//DTD SVG 1.1//EN"
 "http://www.w3.org/Graphics/SVG/1.1/DTD/svg11.dtd">
<!-- Generated by graphviz version 2.40.1 (20161225.0304)
 -->
<!-- Title: /home/travis/build/AliceO2Group/AliceO2/Detectors/MUON/MCH/Simulation/src/Response.cxx Pages: 1 -->
<svg width="2518pt" height="486pt"
 viewBox="0.00 0.00 2518.00 486.00" xmlns="http://www.w3.org/2000/svg" xmlns:xlink="http://www.w3.org/1999/xlink">
<g id="graph0" class="graph" transform="scale(1 1) rotate(0) translate(4 482)">
<title>/home/travis/build/AliceO2Group/AliceO2/Detectors/MUON/MCH/Simulation/src/Response.cxx</title>
<!-- Node0 -->
<g id="node1" class="node">
<title>Node0</title>
<polygon fill="#bfbfbf" stroke="#000000" points="1227,-425.5 1227,-477.5 1409,-477.5 1409,-425.5 1227,-425.5"/>
<text text-anchor="start" x="1235" y="-465.5" font-family="Helvetica,sans-Serif" font-size="10.00" fill="#000000">/home/travis/build</text>
<text text-anchor="start" x="1235" y="-454.5" font-family="Helvetica,sans-Serif" font-size="10.00" fill="#000000">/AliceO2Group/AliceO2</text>
<text text-anchor="start" x="1235" y="-443.5" font-family="Helvetica,sans-Serif" font-size="10.00" fill="#000000">/Detectors/MUON/MCH/Simulation</text>
<text text-anchor="middle" x="1318" y="-432.5" font-family="Helvetica,sans-Serif" font-size="10.00" fill="#000000">/src/Response.cxx</text>
</g>
<!-- Node1 -->
<g id="node2" class="node">
<title>Node1</title>
<g id="a_node2"><a xlink:href="../../df/d3f/Response_8h.html" target="_top" xlink:title="MCHSimulation/Response.h">
<polygon fill="none" stroke="#000000" points="1122,-369.5 1122,-388.5 1272,-388.5 1272,-369.5 1122,-369.5"/>
<text text-anchor="middle" x="1197" y="-376.5" font-family="Helvetica,sans-Serif" font-size="10.00" fill="#000000">MCHSimulation/Response.h</text>
</a>
</g>
</g>
<!-- Node0&#45;&gt;Node1 -->
<g id="edge1" class="edge">
<title>Node0&#45;&gt;Node1</title>
<path fill="none" stroke="#191970" d="M1274.3162,-425.3258C1256.6017,-414.7118 1236.7978,-402.8458 1221.6679,-393.7804"/>
<polygon fill="#191970" stroke="#191970" points="1223.2889,-390.6715 1212.9119,-388.534 1219.6911,-396.6761 1223.2889,-390.6715"/>
</g>
<!-- Node42 -->
<g id="node43" class="node">
<title>Node42</title>
<polygon fill="none" stroke="#bfbfbf" points="1290,-369.5 1290,-388.5 1346,-388.5 1346,-369.5 1290,-369.5"/>
<text text-anchor="middle" x="1318" y="-376.5" font-family="Helvetica,sans-Serif" font-size="10.00" fill="#000000">TMath.h</text>
</g>
<!-- Node0&#45;&gt;Node42 -->
<g id="edge54" class="edge">
<title>Node0&#45;&gt;Node42</title>
<path fill="none" stroke="#191970" d="M1318,-425.3258C1318,-416.5142 1318,-406.8397 1318,-398.621"/>
<polygon fill="#191970" stroke="#191970" points="1321.5001,-398.534 1318,-388.534 1314.5001,-398.534 1321.5001,-398.534"/>
</g>
<!-- Node43 -->
<g id="node44" class="node">
<title>Node43</title>
<polygon fill="none" stroke="#bfbfbf" points="1364,-369.5 1364,-388.5 1436,-388.5 1436,-369.5 1364,-369.5"/>
<text text-anchor="middle" x="1400" y="-376.5" font-family="Helvetica,sans-Serif" font-size="10.00" fill="#000000">TRandom.h</text>
</g>
<!-- Node0&#45;&gt;Node43 -->
<g id="edge55" class="edge">
<title>Node0&#45;&gt;Node43</title>
<path fill="none" stroke="#191970" d="M1347.6039,-425.3258C1358.9292,-415.3126 1371.5148,-404.1851 1381.5121,-395.346"/>
<polygon fill="#191970" stroke="#191970" points="1384.0433,-397.7799 1389.2167,-388.534 1379.4067,-392.5357 1384.0433,-397.7799"/>
</g>
<!-- Node2 -->
<g id="node3" class="node">
<title>Node2</title>
<g id="a_node3"><a xlink:href="../../d8/d72/Detectors_2MUON_2MCH_2Base_2include_2MCHBase_2Digit_8h.html" target="_top" xlink:title="MCHBase/Digit.h">
<polygon fill="none" stroke="#000000" points="1037,-313.5 1037,-332.5 1135,-332.5 1135,-313.5 1037,-313.5"/>
<text text-anchor="middle" x="1086" y="-320.5" font-family="Helvetica,sans-Serif" font-size="10.00" fill="#000000">MCHBase/Digit.h</text>
</a>
</g>
</g>
<!-- Node1&#45;&gt;Node2 -->
<g id="edge2" class="edge">
<title>Node1&#45;&gt;Node2</title>
<path fill="none" stroke="#191970" d="M1177.9184,-369.3733C1160.2598,-360.4644 1133.7947,-347.1127 1113.7902,-337.0203"/>
<polygon fill="#191970" stroke="#191970" points="1115.3372,-333.8806 1104.8326,-332.5011 1112.1842,-340.1303 1115.3372,-333.8806"/>
</g>
<!-- Node4 -->
<g id="node5" class="node">
<title>Node4</title>
<g id="a_node5"><a xlink:href="../../dc/dab/MUON_2MCH_2Simulation_2include_2MCHSimulation_2Detector_8h.html" target="_top" xlink:title="MCHSimulation/Detector.h">
<polygon fill="none" stroke="#000000" points="1709.5,-313.5 1709.5,-332.5 1854.5,-332.5 1854.5,-313.5 1709.5,-313.5"/>
<text text-anchor="middle" x="1782" y="-320.5" font-family="Helvetica,sans-Serif" font-size="10.00" fill="#000000">MCHSimulation/Detector.h</text>
</a>
</g>
</g>
<!-- Node1&#45;&gt;Node4 -->
<g id="edge4" class="edge">
<title>Node1&#45;&gt;Node4</title>
<path fill="none" stroke="#191970" d="M1272.0946,-369.9586C1275.1016,-369.6288 1278.0789,-369.3079 1281,-369 1428.1743,-353.486 1599.9912,-338.3581 1699.3646,-329.9008"/>
<polygon fill="#191970" stroke="#191970" points="1699.6749,-333.3872 1709.3428,-329.0533 1699.0824,-326.4123 1699.6749,-333.3872"/>
</g>
<!-- Node30 -->
<g id="node31" class="node">
<title>Node30</title>
<g id="a_node31"><a xlink:href="../../d5/daf/Detectors_2MUON_2MCH_2Simulation_2include_2MCHSimulation_2Hit_8h.html" target="_top" xlink:title="MCHSimulation/Hit.h">
<polygon fill="none" stroke="#000000" points="1138,-257.5 1138,-276.5 1256,-276.5 1256,-257.5 1138,-257.5"/>
<text text-anchor="middle" x="1197" y="-264.5" font-family="Helvetica,sans-Serif" font-size="10.00" fill="#000000">MCHSimulation/Hit.h</text>
</a>
</g>
</g>
<!-- Node1&#45;&gt;Node30 -->
<g id="edge53" class="edge">
<title>Node1&#45;&gt;Node30</title>
<path fill="none" stroke="#191970" d="M1197,-369.4509C1197,-351.184 1197,-310.9553 1197,-286.6976"/>
<polygon fill="#191970" stroke="#191970" points="1200.5001,-286.5249 1197,-276.5249 1193.5001,-286.5249 1200.5001,-286.5249"/>
</g>
<!-- Node3 -->
<g id="node4" class="node">
<title>Node3</title>
<polygon fill="none" stroke="#bfbfbf" points="1311.5,-73 1311.5,-92 1370.5,-92 1370.5,-73 1311.5,-73"/>
<text text-anchor="middle" x="1341" y="-80" font-family="Helvetica,sans-Serif" font-size="10.00" fill="#000000">Rtypes.h</text>
</g>
<!-- Node2&#45;&gt;Node3 -->
<g id="edge3" class="edge">
<title>Node2&#45;&gt;Node3</title>
<path fill="none" stroke="#191970" d="M1083.8622,-313.2168C1077.5821,-281.5504 1062.8065,-181.1736 1116,-134 1178.9968,-78.1325 1221.1895,-121.6526 1302,-98 1304.4474,-97.2837 1306.9546,-96.4735 1309.4595,-95.6085"/>
<polygon fill="#191970" stroke="#191970" points="1310.8157,-98.8386 1318.9777,-92.0833 1308.3845,-92.2743 1310.8157,-98.8386"/>
</g>
<!-- Node5 -->
<g id="node6" class="node">
<title>Node5</title>
<g id="a_node6"><a xlink:href="../../d1/d3a/Base_2include_2DetectorsBase_2Detector_8h.html" target="_top" xlink:title="DetectorsBase/Detector.h">
<polygon fill="none" stroke="#000000" points="1711.5,-257.5 1711.5,-276.5 1852.5,-276.5 1852.5,-257.5 1711.5,-257.5"/>
<text text-anchor="middle" x="1782" y="-264.5" font-family="Helvetica,sans-Serif" font-size="10.00" fill="#000000">DetectorsBase/Detector.h</text>
</a>
</g>
</g>
<!-- Node4&#45;&gt;Node5 -->
<g id="edge5" class="edge">
<title>Node4&#45;&gt;Node5</title>
<path fill="none" stroke="#191970" d="M1782,-313.2455C1782,-305.9382 1782,-295.6944 1782,-286.7046"/>
<polygon fill="#191970" stroke="#191970" points="1785.5001,-286.6426 1782,-276.6427 1778.5001,-286.6427 1785.5001,-286.6426"/>
</g>
<!-- Node7 -->
<g id="node8" class="node">
<title>Node7</title>
<polygon fill="none" stroke="#bfbfbf" points="2386.5,-196 2386.5,-215 2433.5,-215 2433.5,-196 2386.5,-196"/>
<text text-anchor="middle" x="2410" y="-203" font-family="Helvetica,sans-Serif" font-size="10.00" fill="#000000">vector</text>
</g>
<!-- Node4&#45;&gt;Node7 -->
<g id="edge51" class="edge">
<title>Node4&#45;&gt;Node7</title>
<path fill="none" stroke="#191970" d="M1840.0355,-313.4735C1942.2099,-296.4775 2160.7522,-259.121 2344,-221 2354.5439,-218.8066 2365.9821,-216.201 2376.3283,-213.758"/>
<polygon fill="#191970" stroke="#191970" points="2377.324,-217.1187 2386.2369,-211.3906 2375.6973,-210.3103 2377.324,-217.1187"/>
</g>
<!-- Node9 -->
<g id="node10" class="node">
<title>Node9</title>
<polygon fill="none" stroke="#bfbfbf" points="2452,-196 2452,-215 2510,-215 2510,-196 2452,-196"/>
<text text-anchor="middle" x="2481" y="-203" font-family="Helvetica,sans-Serif" font-size="10.00" fill="#000000">memory</text>
</g>
<!-- Node4&#45;&gt;Node9 -->
<g id="edge52" class="edge">
<title>Node4&#45;&gt;Node9</title>
<path fill="none" stroke="#191970" d="M1854.6904,-317.8306C1977.8011,-307.7439 2234.3053,-280.9528 2443,-221 2445.4567,-220.2942 2447.9711,-219.4819 2450.4788,-218.6067"/>
<polygon fill="#191970" stroke="#191970" points="2451.8663,-221.824 2459.9812,-215.0122 2449.3896,-215.2767 2451.8663,-221.824"/>
</g>
<!-- Node4&#45;&gt;Node30 -->
<g id="edge36" class="edge">
<title>Node4&#45;&gt;Node30</title>
<path fill="none" stroke="#191970" d="M1709.3867,-316.049C1595.8874,-305.1841 1377.9204,-284.3189 1266.418,-273.6451"/>
<polygon fill="#191970" stroke="#191970" points="1266.581,-270.1448 1256.2929,-272.6759 1265.9139,-277.113 1266.581,-270.1448"/>
</g>
<!-- Node5&#45;&gt;Node3 -->
<g id="edge18" class="edge">
<title>Node5&#45;&gt;Node3</title>
<path fill="none" stroke="#191970" d="M1711.3657,-264.8212C1540.7674,-259.2165 1118.7279,-243.1688 1098,-221 1080.4159,-202.1936 1110.8507,-138.5666 1116,-134 1178.9968,-78.1325 1221.1895,-121.6526 1302,-98 1304.4474,-97.2837 1306.9546,-96.4735 1309.4595,-95.6085"/>
<polygon fill="#191970" stroke="#191970" points="1310.8157,-98.8386 1318.9777,-92.0833 1308.3845,-92.2743 1310.8157,-98.8386"/>
</g>
<!-- Node6 -->
<g id="node7" class="node">
<title>Node6</title>
<polygon fill="none" stroke="#bfbfbf" points="1438,-134.5 1438,-153.5 1476,-153.5 1476,-134.5 1438,-134.5"/>
<text text-anchor="middle" x="1457" y="-141.5" font-family="Helvetica,sans-Serif" font-size="10.00" fill="#000000">map</text>
</g>
<!-- Node5&#45;&gt;Node6 -->
<g id="edge6" class="edge">
<title>Node5&#45;&gt;Node6</title>
<path fill="none" stroke="#191970" d="M1711.4483,-265.0173C1589.416,-260.8538 1349.4647,-249.1504 1324,-221 1290.0661,-183.4871 1379.3391,-159.3054 1427.941,-149.2836"/>
<polygon fill="#191970" stroke="#191970" points="1428.789,-152.6837 1437.9179,-147.3066 1427.4282,-145.8173 1428.789,-152.6837"/>
</g>
<!-- Node5&#45;&gt;Node7 -->
<g id="edge7" class="edge">
<title>Node5&#45;&gt;Node7</title>
<path fill="none" stroke="#191970" d="M1852.5117,-264.2319C1986.946,-258.5042 2275.1485,-243.9379 2372,-221 2374.7949,-220.3381 2377.6519,-219.5002 2380.4821,-218.5583"/>
<polygon fill="#191970" stroke="#191970" points="2381.7236,-221.8309 2389.8721,-215.0594 2379.2793,-215.2715 2381.7236,-221.8309"/>
</g>
<!-- Node8 -->
<g id="node9" class="node">
<title>Node8</title>
<polygon fill="none" stroke="#bfbfbf" points="2316.5,-134.5 2316.5,-153.5 2399.5,-153.5 2399.5,-134.5 2316.5,-134.5"/>
<text text-anchor="middle" x="2358" y="-141.5" font-family="Helvetica,sans-Serif" font-size="10.00" fill="#000000">initializer_list</text>
</g>
<!-- Node5&#45;&gt;Node8 -->
<g id="edge8" class="edge">
<title>Node5&#45;&gt;Node8</title>
<path fill="none" stroke="#191970" d="M1852.6084,-264.7059C1989.3312,-259.7205 2280.1562,-246.2645 2318,-221 2337.8062,-207.7774 2348.4042,-181.5225 2353.6138,-163.3731"/>
<polygon fill="#191970" stroke="#191970" points="2357.04,-164.1028 2356.1415,-153.5461 2350.2607,-162.3589 2357.04,-164.1028"/>
</g>
<!-- Node5&#45;&gt;Node9 -->
<g id="edge9" class="edge">
<title>Node5&#45;&gt;Node9</title>
<path fill="none" stroke="#191970" d="M1852.7205,-264.9115C1999.4335,-260.116 2332.4232,-246.7027 2443,-221 2445.7977,-220.3497 2448.6565,-219.5199 2451.4879,-218.5831"/>
<polygon fill="#191970" stroke="#191970" points="2452.7258,-221.8571 2460.8798,-215.0923 2450.2869,-215.2956 2452.7258,-221.8571"/>
</g>
<!-- Node10 -->
<g id="node11" class="node">
<title>Node10</title>
<polygon fill="none" stroke="#bfbfbf" points="1333,-196 1333,-215 1417,-215 1417,-196 1333,-196"/>
<text text-anchor="middle" x="1375" y="-203" font-family="Helvetica,sans-Serif" font-size="10.00" fill="#000000">FairDetector.h</text>
</g>
<!-- Node5&#45;&gt;Node10 -->
<g id="edge10" class="edge">
<title>Node5&#45;&gt;Node10</title>
<path fill="none" stroke="#191970" d="M1711.4992,-261.3798C1639.2506,-254.8071 1523.9403,-242.0572 1426,-221 1421.8269,-220.1028 1417.502,-219.0257 1413.2154,-217.8627"/>
<polygon fill="#191970" stroke="#191970" points="1413.95,-214.4323 1403.3724,-215.0373 1412.0186,-221.1606 1413.95,-214.4323"/>
</g>
<!-- Node11 -->
<g id="node12" class="node">
<title>Node11</title>
<polygon fill="none" stroke="#bfbfbf" points="1435,-196 1435,-215 1541,-215 1541,-196 1435,-196"/>
<text text-anchor="middle" x="1488" y="-203" font-family="Helvetica,sans-Serif" font-size="10.00" fill="#000000">FairRootManager.h</text>
</g>
<!-- Node5&#45;&gt;Node11 -->
<g id="edge11" class="edge">
<title>Node5&#45;&gt;Node11</title>
<path fill="none" stroke="#191970" d="M1730.2457,-257.4942C1683.1277,-248.6607 1611.7062,-234.8219 1550,-221 1545.0518,-219.8916 1539.8943,-218.685 1534.7599,-217.4505"/>
<polygon fill="#191970" stroke="#191970" points="1535.5209,-214.0335 1524.9759,-215.0607 1533.8598,-220.8336 1535.5209,-214.0335"/>
</g>
<!-- Node12 -->
<g id="node13" class="node">
<title>Node12</title>
<g id="a_node13"><a xlink:href="../../d0/d9a/MaterialManager_8h.html" target="_top" xlink:title="DetectorsBase/MaterialManager.h">
<polygon fill="none" stroke="#000000" points="2110.5,-196 2110.5,-215 2291.5,-215 2291.5,-196 2110.5,-196"/>
<text text-anchor="middle" x="2201" y="-203" font-family="Helvetica,sans-Serif" font-size="10.00" fill="#000000">DetectorsBase/MaterialManager.h</text>
</a>
</g>
</g>
<!-- Node5&#45;&gt;Node12 -->
<g id="edge12" class="edge">
<title>Node5&#45;&gt;Node12</title>
<path fill="none" stroke="#191970" d="M1849.5511,-257.4701C1914.1411,-248.3081 2014.2561,-233.9765 2101,-221 2110.4138,-219.5917 2120.322,-218.0853 2130.0938,-216.5853"/>
<polygon fill="#191970" stroke="#191970" points="2130.8503,-220.0102 2140.2011,-215.0289 2129.7849,-213.0917 2130.8503,-220.0102"/>
</g>
<!-- Node15 -->
<g id="node16" class="node">
<title>Node15</title>
<polygon fill="none" stroke="#bfbfbf" points="1559,-196 1559,-215 1617,-215 1617,-196 1559,-196"/>
<text text-anchor="middle" x="1588" y="-203" font-family="Helvetica,sans-Serif" font-size="10.00" fill="#000000">cxxabi.h</text>
</g>
<!-- Node5&#45;&gt;Node15 -->
<g id="edge19" class="edge">
<title>Node5&#45;&gt;Node15</title>
<path fill="none" stroke="#191970" d="M1745.735,-257.4198C1713.9061,-248.748 1666.5046,-235.1923 1626,-221 1624.0836,-220.3285 1622.123,-219.6145 1620.1517,-218.8756"/>
<polygon fill="#191970" stroke="#191970" points="1620.95,-215.4302 1610.3618,-215.0571 1618.4063,-221.9517 1620.95,-215.4302"/>
</g>
<!-- Node16 -->
<g id="node17" class="node">
<title>Node16</title>
<polygon fill="none" stroke="#bfbfbf" points="1635.5,-196 1635.5,-215 1692.5,-215 1692.5,-196 1635.5,-196"/>
<text text-anchor="middle" x="1664" y="-203" font-family="Helvetica,sans-Serif" font-size="10.00" fill="#000000">typeinfo</text>
</g>
<!-- Node5&#45;&gt;Node16 -->
<g id="edge20" class="edge">
<title>Node5&#45;&gt;Node16</title>
<path fill="none" stroke="#191970" d="M1763.5625,-257.3906C1744.1653,-247.2811 1713.431,-231.2628 1691.2383,-219.6962"/>
<polygon fill="#191970" stroke="#191970" points="1692.7936,-216.56 1682.308,-215.0419 1689.5582,-222.7675 1692.7936,-216.56"/>
</g>
<!-- Node17 -->
<g id="node18" class="node">
<title>Node17</title>
<polygon fill="none" stroke="#bfbfbf" points="1710.5,-196 1710.5,-215 1779.5,-215 1779.5,-196 1710.5,-196"/>
<text text-anchor="middle" x="1745" y="-203" font-family="Helvetica,sans-Serif" font-size="10.00" fill="#000000">type_traits</text>
</g>
<!-- Node5&#45;&gt;Node17 -->
<g id="edge21" class="edge">
<title>Node5&#45;&gt;Node17</title>
<path fill="none" stroke="#191970" d="M1776.2188,-257.3906C1770.874,-248.5068 1762.7841,-235.0601 1756.1789,-224.0811"/>
<polygon fill="#191970" stroke="#191970" points="1759.0171,-222.0093 1750.8628,-215.2449 1753.0189,-225.618 1759.0171,-222.0093"/>
</g>
<!-- Node18 -->
<g id="node19" class="node">
<title>Node18</title>
<polygon fill="none" stroke="#bfbfbf" points="1798,-196 1798,-215 1842,-215 1842,-196 1798,-196"/>
<text text-anchor="middle" x="1820" y="-203" font-family="Helvetica,sans-Serif" font-size="10.00" fill="#000000">string</text>
</g>
<!-- Node5&#45;&gt;Node18 -->
<g id="edge22" class="edge">
<title>Node5&#45;&gt;Node18</title>
<path fill="none" stroke="#191970" d="M1787.9375,-257.3906C1793.4267,-248.5068 1801.7353,-235.0601 1808.519,-224.0811"/>
<polygon fill="#191970" stroke="#191970" points="1811.6998,-225.5917 1813.9788,-215.2449 1805.7449,-221.9122 1811.6998,-225.5917"/>
</g>
<!-- Node19 -->
<g id="node20" class="node">
<title>Node19</title>
<polygon fill="none" stroke="#bfbfbf" points="1860,-196 1860,-215 1934,-215 1934,-196 1860,-196"/>
<text text-anchor="middle" x="1897" y="-203" font-family="Helvetica,sans-Serif" font-size="10.00" fill="#000000">TMessage.h</text>
</g>
<!-- Node5&#45;&gt;Node19 -->
<g id="edge23" class="edge">
<title>Node5&#45;&gt;Node19</title>
<path fill="none" stroke="#191970" d="M1799.9688,-257.3906C1818.7884,-247.3262 1848.5585,-231.4057 1870.1641,-219.8514"/>
<polygon fill="#191970" stroke="#191970" points="1871.9898,-222.8442 1879.1574,-215.0419 1868.6886,-216.6714 1871.9898,-222.8442"/>
</g>
<!-- Node20 -->
<g id="node21" class="node">
<title>Node20</title>
<g id="a_node21"><a xlink:href="../../de/d61/ShmManager_8h.html" target="_top" xlink:title="CommonUtils/ShmManager.h">
<polygon fill="none" stroke="#000000" points="2140,-134.5 2140,-153.5 2298,-153.5 2298,-134.5 2140,-134.5"/>
<text text-anchor="middle" x="2219" y="-141.5" font-family="Helvetica,sans-Serif" font-size="10.00" fill="#000000">CommonUtils/ShmManager.h</text>
</a>
</g>
</g>
<!-- Node5&#45;&gt;Node20 -->
<g id="edge24" class="edge">
<title>Node5&#45;&gt;Node20</title>
<path fill="none" stroke="#191970" d="M1852.7098,-265.9077C1987.4763,-263.0888 2270.4002,-253.3448 2300,-221 2309.3015,-210.8359 2306.9313,-201.9073 2300,-190 2291.3761,-175.185 2276.0066,-164.752 2260.9562,-157.6123"/>
<polygon fill="#191970" stroke="#191970" points="2262.2559,-154.3609 2251.6897,-153.5826 2259.4644,-160.7802 2262.2559,-154.3609"/>
</g>
<!-- Node26 -->
<g id="node27" class="node">
<title>Node26</title>
<g id="a_node27"><a xlink:href="../../d0/d91/ShmAllocator_8h.html" target="_top" xlink:title="CommonUtils/ShmAllocator.h">
<polygon fill="none" stroke="#000000" points="1117,-196 1117,-215 1277,-215 1277,-196 1117,-196"/>
<text text-anchor="middle" x="1197" y="-203" font-family="Helvetica,sans-Serif" font-size="10.00" fill="#000000">CommonUtils/ShmAllocator.h</text>
</a>
</g>
</g>
<!-- Node5&#45;&gt;Node26 -->
<g id="edge30" class="edge">
<title>Node5&#45;&gt;Node26</title>
<path fill="none" stroke="#191970" d="M1711.4959,-261.954C1615.9767,-254.7619 1440.2317,-240.2701 1291,-221 1281.1578,-219.7291 1270.7656,-218.2025 1260.6218,-216.6098"/>
<polygon fill="#191970" stroke="#191970" points="1261.0183,-213.1288 1250.5904,-215.0022 1259.9105,-220.0406 1261.0183,-213.1288"/>
</g>
<!-- Node27 -->
<g id="node28" class="node">
<title>Node27</title>
<polygon fill="none" stroke="#bfbfbf" points="1125,-134.5 1125,-153.5 1177,-153.5 1177,-134.5 1125,-134.5"/>
<text text-anchor="middle" x="1151" y="-141.5" font-family="Helvetica,sans-Serif" font-size="10.00" fill="#000000">cassert</text>
</g>
<!-- Node5&#45;&gt;Node27 -->
<g id="edge35" class="edge">
<title>Node5&#45;&gt;Node27</title>
<path fill="none" stroke="#191970" d="M1711.4676,-264.751C1542.7627,-259.0299 1128.3779,-242.8161 1108,-221 1091.2325,-203.0491 1112.3679,-177.3572 1130.4853,-160.6763"/>
<polygon fill="#191970" stroke="#191970" points="1133.2296,-162.9257 1138.4502,-153.7064 1128.6198,-157.6579 1133.2296,-162.9257"/>
</g>
<!-- Node28 -->
<g id="node29" class="node">
<title>Node28</title>
<polygon fill="none" stroke="#bfbfbf" points="1952,-196 1952,-215 2018,-215 2018,-196 1952,-196"/>
<text text-anchor="middle" x="1985" y="-203" font-family="Helvetica,sans-Serif" font-size="10.00" fill="#000000">sys/shm.h</text>
</g>
<!-- Node5&#45;&gt;Node28 -->
<g id="edge33" class="edge">
<title>Node5&#45;&gt;Node28</title>
<path fill="none" stroke="#191970" d="M1818.3641,-257.4497C1851.1512,-248.6403 1900.5861,-234.8638 1943,-221 1945.3918,-220.2182 1947.8503,-219.3863 1950.3205,-218.5293"/>
<polygon fill="#191970" stroke="#191970" points="1951.5448,-221.8087 1959.7888,-215.1538 1949.1941,-215.2152 1951.5448,-221.8087"/>
</g>
<!-- Node29 -->
<g id="node30" class="node">
<title>Node29</title>
<polygon fill="none" stroke="#bfbfbf" points="2036,-196 2036,-215 2092,-215 2092,-196 2036,-196"/>
<text text-anchor="middle" x="2064" y="-203" font-family="Helvetica,sans-Serif" font-size="10.00" fill="#000000">unistd.h</text>
</g>
<!-- Node5&#45;&gt;Node29 -->
<g id="edge34" class="edge">
<title>Node5&#45;&gt;Node29</title>
<path fill="none" stroke="#191970" d="M1852.6384,-257.7784C1902.0978,-250.3457 1969.3754,-238.2682 2027,-221 2029.1682,-220.3503 2031.3822,-219.6157 2033.5955,-218.8283"/>
<polygon fill="#191970" stroke="#191970" points="2035.0827,-222.0059 2043.1494,-215.1372 2032.56,-215.4762 2035.0827,-222.0059"/>
</g>
<!-- Node12&#45;&gt;Node3 -->
<g id="edge13" class="edge">
<title>Node12&#45;&gt;Node3</title>
<path fill="none" stroke="#191970" d="M2140.4707,-195.9859C2127.455,-193.977 2113.7733,-191.8932 2101,-190 1825.5323,-149.171 1493.3616,-103.3661 1380.6252,-87.9161"/>
<polygon fill="#191970" stroke="#191970" points="1381.0992,-84.4484 1370.7167,-86.559 1380.1493,-91.3837 1381.0992,-84.4484"/>
</g>
<!-- Node12&#45;&gt;Node6 -->
<g id="edge14" class="edge">
<title>Node12&#45;&gt;Node6</title>
<path fill="none" stroke="#191970" d="M2145.0467,-195.9944C2130.7194,-193.7896 2115.315,-191.6179 2101,-190 1864.4626,-163.2667 1577.1882,-149.2314 1486.1331,-145.2236"/>
<polygon fill="#191970" stroke="#191970" points="1486.1606,-141.7216 1476.0182,-144.7843 1485.8569,-148.715 1486.1606,-141.7216"/>
</g>
<!-- Node12&#45;&gt;Node8 -->
<g id="edge16" class="edge">
<title>Node12&#45;&gt;Node8</title>
<path fill="none" stroke="#191970" d="M2225.5313,-195.8906C2252.0307,-185.5103 2294.4331,-168.9004 2324.107,-157.2766"/>
<polygon fill="#191970" stroke="#191970" points="2325.6065,-160.4482 2333.641,-153.5419 2323.0533,-153.9304 2325.6065,-160.4482"/>
</g>
<!-- Node13 -->
<g id="node14" class="node">
<title>Node13</title>
<polygon fill="none" stroke="#bfbfbf" points="1990.5,-134.5 1990.5,-153.5 2083.5,-153.5 2083.5,-134.5 1990.5,-134.5"/>
<text text-anchor="middle" x="2037" y="-141.5" font-family="Helvetica,sans-Serif" font-size="10.00" fill="#000000">unordered_map</text>
</g>
<!-- Node12&#45;&gt;Node13 -->
<g id="edge15" class="edge">
<title>Node12&#45;&gt;Node13</title>
<path fill="none" stroke="#191970" d="M2175.375,-195.8906C2147.5737,-185.4652 2103.0156,-168.7559 2072.0006,-157.1252"/>
<polygon fill="#191970" stroke="#191970" points="2073.0373,-153.776 2062.4451,-153.5419 2070.5794,-160.3303 2073.0373,-153.776"/>
</g>
<!-- Node14 -->
<g id="node15" class="node">
<title>Node14</title>
<polygon fill="none" stroke="#bfbfbf" points="1655.5,-73 1655.5,-92 1704.5,-92 1704.5,-73 1655.5,-73"/>
<text text-anchor="middle" x="1680" y="-80" font-family="Helvetica,sans-Serif" font-size="10.00" fill="#000000">iosfwd</text>
</g>
<!-- Node12&#45;&gt;Node14 -->
<g id="edge17" class="edge">
<title>Node12&#45;&gt;Node14</title>
<path fill="none" stroke="#191970" d="M2187.792,-195.7344C2163.5079,-177.9688 2112.3908,-141.5 2092,-134 2022.753,-108.53 1800.8008,-90.8628 1714.6462,-84.8061"/>
<polygon fill="#191970" stroke="#191970" points="1714.8138,-81.3094 1704.5956,-84.1091 1714.3295,-88.2926 1714.8138,-81.3094"/>
</g>
<!-- Node21 -->
<g id="node22" class="node">
<title>Node21</title>
<polygon fill="none" stroke="#bfbfbf" points="2142,-73 2142,-92 2174,-92 2174,-73 2142,-73"/>
<text text-anchor="middle" x="2158" y="-80" font-family="Helvetica,sans-Serif" font-size="10.00" fill="#000000">list</text>
</g>
<!-- Node20&#45;&gt;Node21 -->
<g id="edge25" class="edge">
<title>Node20&#45;&gt;Node21</title>
<path fill="none" stroke="#191970" d="M2209.4688,-134.3906C2200.2121,-125.0581 2185.961,-110.6902 2174.7997,-99.4374"/>
<polygon fill="#191970" stroke="#191970" points="2177.1928,-96.88 2167.6656,-92.2449 2172.2228,-101.8095 2177.1928,-96.88"/>
</g>
<!-- Node22 -->
<g id="node23" class="node">
<title>Node22</title>
<polygon fill="none" stroke="#bfbfbf" points="2192.5,-73 2192.5,-92 2245.5,-92 2245.5,-73 2192.5,-73"/>
<text text-anchor="middle" x="2219" y="-80" font-family="Helvetica,sans-Serif" font-size="10.00" fill="#000000">cstddef</text>
</g>
<!-- Node20&#45;&gt;Node22 -->
<g id="edge26" class="edge">
<title>Node20&#45;&gt;Node22</title>
<path fill="none" stroke="#191970" d="M2219,-134.3906C2219,-125.8657 2219,-113.1392 2219,-102.4235"/>
<polygon fill="#191970" stroke="#191970" points="2222.5001,-102.2448 2219,-92.2449 2215.5001,-102.2449 2222.5001,-102.2448"/>
</g>
<!-- Node23 -->
<g id="node24" class="node">
<title>Node23</title>
<polygon fill="none" stroke="#bfbfbf" points="2264,-73 2264,-92 2314,-92 2314,-73 2264,-73"/>
<text text-anchor="middle" x="2289" y="-80" font-family="Helvetica,sans-Serif" font-size="10.00" fill="#000000">atomic</text>
</g>
<!-- Node20&#45;&gt;Node23 -->
<g id="edge27" class="edge">
<title>Node20&#45;&gt;Node23</title>
<path fill="none" stroke="#191970" d="M2229.9375,-134.3906C2240.662,-124.9683 2257.2287,-110.4134 2270.0901,-99.1137"/>
<polygon fill="#191970" stroke="#191970" points="2272.7059,-101.4745 2277.9083,-92.2449 2268.0857,-96.2158 2272.7059,-101.4745"/>
</g>
<!-- Node24 -->
<g id="node25" class="node">
<title>Node24</title>
<polygon fill="none" stroke="#bfbfbf" points="2332.5,-67.5 2332.5,-97.5 2497.5,-97.5 2497.5,-67.5 2332.5,-67.5"/>
<text text-anchor="start" x="2340.5" y="-85.5" font-family="Helvetica,sans-Serif" font-size="10.00" fill="#000000">boost/interprocess</text>
<text text-anchor="middle" x="2415" y="-74.5" font-family="Helvetica,sans-Serif" font-size="10.00" fill="#000000">/managed_external_buffer.hpp</text>
</g>
<!-- Node20&#45;&gt;Node24 -->
<g id="edge28" class="edge">
<title>Node20&#45;&gt;Node24</title>
<path fill="none" stroke="#191970" d="M2249.625,-134.3906C2278.3617,-125.3737 2322.079,-111.6563 2357.3486,-100.5896"/>
<polygon fill="#191970" stroke="#191970" points="2358.5595,-103.878 2367.053,-97.5446 2356.4638,-97.199 2358.5595,-103.878"/>
</g>
<!-- Node25 -->
<g id="node26" class="node">
<title>Node25</title>
<polygon fill="none" stroke="#bfbfbf" points="1990,-67.5 1990,-97.5 2124,-97.5 2124,-67.5 1990,-67.5"/>
<text text-anchor="start" x="1998" y="-85.5" font-family="Helvetica,sans-Serif" font-size="10.00" fill="#000000">boost/interprocess</text>
<text text-anchor="middle" x="2057" y="-74.5" font-family="Helvetica,sans-Serif" font-size="10.00" fill="#000000">/allocators/allocator.hpp</text>
</g>
<!-- Node20&#45;&gt;Node25 -->
<g id="edge29" class="edge">
<title>Node20&#45;&gt;Node25</title>
<path fill="none" stroke="#191970" d="M2193.6875,-134.3906C2170.3417,-125.5279 2135.0338,-112.1239 2106.1516,-101.1594"/>
<polygon fill="#191970" stroke="#191970" points="2107.2209,-97.8217 2096.6297,-97.5446 2104.7364,-104.366 2107.2209,-97.8217"/>
</g>
<!-- Node26&#45;&gt;Node20 -->
<g id="edge31" class="edge">
<title>Node26&#45;&gt;Node20</title>
<path fill="none" stroke="#191970" d="M1267.1058,-195.9946C1285.5819,-193.7497 1305.5184,-191.5588 1324,-190 1664.4992,-161.2813 1750.9635,-175.4143 2092,-154 2104.1921,-153.2344 2117.0352,-152.3337 2129.6808,-151.3918"/>
<polygon fill="#191970" stroke="#191970" points="2130.0562,-154.8735 2139.7638,-150.6293 2129.5283,-147.8934 2130.0562,-154.8735"/>
</g>
<!-- Node26&#45;&gt;Node27 -->
<g id="edge32" class="edge">
<title>Node26&#45;&gt;Node27</title>
<path fill="none" stroke="#191970" d="M1189.8125,-195.8906C1183.0334,-186.8273 1172.7022,-173.0149 1164.4027,-161.9188"/>
<polygon fill="#191970" stroke="#191970" points="1167.0812,-159.6563 1158.2888,-153.7449 1161.4757,-163.849 1167.0812,-159.6563"/>
</g>
<!-- Node30&#45;&gt;Node26 -->
<g id="edge50" class="edge">
<title>Node30&#45;&gt;Node26</title>
<path fill="none" stroke="#191970" d="M1197,-257.3906C1197,-248.8657 1197,-236.1392 1197,-225.4235"/>
<polygon fill="#191970" stroke="#191970" points="1200.5001,-225.2448 1197,-215.2449 1193.5001,-225.2449 1200.5001,-225.2448"/>
</g>
<!-- Node31 -->
<g id="node32" class="node">
<title>Node31</title>
<g id="a_node32"><a xlink:href="../../d4/d25/BaseHits_8h.html" target="_top" xlink:title="SimulationDataFormat\l/BaseHits.h">
<polygon fill="none" stroke="#000000" points="855.5,-190.5 855.5,-220.5 982.5,-220.5 982.5,-190.5 855.5,-190.5"/>
<text text-anchor="start" x="863.5" y="-208.5" font-family="Helvetica,sans-Serif" font-size="10.00" fill="#000000">SimulationDataFormat</text>
<text text-anchor="middle" x="919" y="-197.5" font-family="Helvetica,sans-Serif" font-size="10.00" fill="#000000">/BaseHits.h</text>
</a>
</g>
</g>
<!-- Node30&#45;&gt;Node31 -->
<g id="edge37" class="edge">
<title>Node30&#45;&gt;Node31</title>
<path fill="none" stroke="#191970" d="M1153.8675,-257.4581C1110.9026,-247.9533 1044.1117,-233.1776 992.7223,-221.8091"/>
<polygon fill="#191970" stroke="#191970" points="993.1813,-218.3261 982.6613,-219.5834 991.6693,-225.1608 993.1813,-218.3261"/>
</g>
<!-- Node32 -->
<g id="node33" class="node">
<title>Node32</title>
<g id="a_node33"><a xlink:href="../../dd/d76/Cartesian3D_8h.html" target="_top" xlink:title="MathUtils/Cartesian3D.h">
<polygon fill="none" stroke="#000000" points="849.5,-134.5 849.5,-153.5 984.5,-153.5 984.5,-134.5 849.5,-134.5"/>
<text text-anchor="middle" x="917" y="-141.5" font-family="Helvetica,sans-Serif" font-size="10.00" fill="#000000">MathUtils/Cartesian3D.h</text>
</a>
</g>
</g>
<!-- Node31&#45;&gt;Node32 -->
<g id="edge38" class="edge">
<title>Node31&#45;&gt;Node32</title>
<path fill="none" stroke="#191970" d="M918.5056,-190.2977C918.2482,-182.3834 917.9302,-172.6043 917.6529,-164.0759"/>
<polygon fill="#191970" stroke="#191970" points="921.1435,-163.7279 917.3202,-153.8469 914.1472,-163.9554 921.1435,-163.7279"/>
</g>
<!-- Node32&#45;&gt;Node3 -->
<g id="edge44" class="edge">
<title>Node32&#45;&gt;Node3</title>
<path fill="none" stroke="#191970" d="M984.5671,-135.7433C989.4512,-135.1516 994.3012,-134.5656 999,-134 1133.6417,-117.7917 1170.5444,-131.3248 1302,-98 1304.7809,-97.295 1307.629,-96.4402 1310.4577,-95.4984"/>
<polygon fill="#191970" stroke="#191970" points="1311.6874,-98.7755 1319.8755,-92.052 1309.2817,-92.2018 1311.6874,-98.7755"/>
</g>
<!-- Node32&#45;&gt;Node14 -->
<g id="edge46" class="edge">
<title>Node32&#45;&gt;Node14</title>
<path fill="none" stroke="#191970" d="M984.7112,-138.5423C1141.9197,-125.8708 1527.2226,-94.8143 1645.1389,-85.3099"/>
<polygon fill="#191970" stroke="#191970" points="1645.6992,-88.7762 1655.3856,-84.484 1645.1367,-81.7988 1645.6992,-88.7762"/>
</g>
<!-- Node33 -->
<g id="node34" class="node">
<title>Node33</title>
<polygon fill="none" stroke="#bfbfbf" points="265,-67.5 265,-97.5 429,-97.5 429,-67.5 265,-67.5"/>
<text text-anchor="start" x="273" y="-85.5" font-family="Helvetica,sans-Serif" font-size="10.00" fill="#000000">Math/GenVector/Displacement</text>
<text text-anchor="middle" x="347" y="-74.5" font-family="Helvetica,sans-Serif" font-size="10.00" fill="#000000">Vector3D.h</text>
</g>
<!-- Node32&#45;&gt;Node33 -->
<g id="edge39" class="edge">
<title>Node32&#45;&gt;Node33</title>
<path fill="none" stroke="#191970" d="M849.3959,-139.0711C758.4692,-132.0932 591.5323,-118.0598 439.3038,-98.1169"/>
<polygon fill="#191970" stroke="#191970" points="439.6713,-94.6351 429.299,-96.7947 438.7542,-101.5748 439.6713,-94.6351"/>
</g>
<!-- Node34 -->
<g id="node35" class="node">
<title>Node34</title>
<polygon fill="none" stroke="#bfbfbf" points="447.5,-73 447.5,-92 636.5,-92 636.5,-73 447.5,-73"/>
<text text-anchor="middle" x="542" y="-80" font-family="Helvetica,sans-Serif" font-size="10.00" fill="#000000">Math/GenVector/PositionVector3D.h</text>
</g>
<!-- Node32&#45;&gt;Node34 -->
<g id="edge40" class="edge">
<title>Node32&#45;&gt;Node34</title>
<path fill="none" stroke="#191970" d="M858.8177,-134.4581C791.6602,-123.4443 681.3479,-105.3531 610.2117,-93.6867"/>
<polygon fill="#191970" stroke="#191970" points="610.4449,-90.1783 600.0102,-92.0137 609.312,-97.086 610.4449,-90.1783"/>
</g>
<!-- Node35 -->
<g id="node36" class="node">
<title>Node35</title>
<polygon fill="none" stroke="#bfbfbf" points="655,-73 655,-92 815,-92 815,-73 655,-73"/>
<text text-anchor="middle" x="735" y="-80" font-family="Helvetica,sans-Serif" font-size="10.00" fill="#000000">Math/GenVector/Rotation3D.h</text>
</g>
<!-- Node32&#45;&gt;Node35 -->
<g id="edge41" class="edge">
<title>Node32&#45;&gt;Node35</title>
<path fill="none" stroke="#191970" d="M888.5625,-134.3906C857.4428,-123.8749 807.4036,-106.966 772.9515,-95.3243"/>
<polygon fill="#191970" stroke="#191970" points="773.832,-91.9274 763.2378,-92.0419 771.5911,-98.5591 773.832,-91.9274"/>
</g>
<!-- Node36 -->
<g id="node37" class="node">
<title>Node36</title>
<polygon fill="none" stroke="#bfbfbf" points="833,-73 833,-92 1001,-92 1001,-73 833,-73"/>
<text text-anchor="middle" x="917" y="-80" font-family="Helvetica,sans-Serif" font-size="10.00" fill="#000000">Math/GenVector/Transform3D.h</text>
</g>
<!-- Node32&#45;&gt;Node36 -->
<g id="edge42" class="edge">
<title>Node32&#45;&gt;Node36</title>
<path fill="none" stroke="#191970" d="M917,-134.3906C917,-125.8657 917,-113.1392 917,-102.4235"/>
<polygon fill="#191970" stroke="#191970" points="920.5001,-102.2448 917,-92.2449 913.5001,-102.2449 920.5001,-102.2448"/>
</g>
<!-- Node37 -->
<g id="node38" class="node">
<title>Node37</title>
<polygon fill="none" stroke="#bfbfbf" points="1019.5,-73 1019.5,-92 1192.5,-92 1192.5,-73 1019.5,-73"/>
<text text-anchor="middle" x="1106" y="-80" font-family="Helvetica,sans-Serif" font-size="10.00" fill="#000000">Math/GenVector/Translation3D.h</text>
</g>
<!-- Node32&#45;&gt;Node37 -->
<g id="edge43" class="edge">
<title>Node32&#45;&gt;Node37</title>
<path fill="none" stroke="#191970" d="M946.5313,-134.3906C978.9866,-123.8298 1031.2581,-106.8208 1067.0486,-95.1747"/>
<polygon fill="#191970" stroke="#191970" points="1068.2499,-98.4645 1076.6761,-92.0419 1066.0839,-91.808 1068.2499,-98.4645"/>
</g>
<!-- Node38 -->
<g id="node39" class="node">
<title>Node38</title>
<polygon fill="none" stroke="#bfbfbf" points="1211,-73 1211,-92 1293,-92 1293,-73 1211,-73"/>
<text text-anchor="middle" x="1252" y="-80" font-family="Helvetica,sans-Serif" font-size="10.00" fill="#000000">TGeoMatrix.h</text>
</g>
<!-- Node32&#45;&gt;Node38 -->
<g id="edge45" class="edge">
<title>Node32&#45;&gt;Node38</title>
<path fill="none" stroke="#191970" d="M984.6335,-135.6521C1042.488,-127.8915 1127.7703,-114.9775 1201,-98 1205.0567,-97.0595 1209.2631,-95.9707 1213.4412,-94.8148"/>
<polygon fill="#191970" stroke="#191970" points="1214.4212,-98.1749 1223.055,-92.0342 1212.4762,-91.4505 1214.4212,-98.1749"/>
</g>
<!-- Node39 -->
<g id="node40" class="node">
<title>Node39</title>
<g id="a_node40"><a xlink:href="../../d2/dd0/Cartesian2D_8h.html" target="_top" xlink:title="MathUtils/Cartesian2D.h">
<polygon fill="none" stroke="#000000" points="111.5,-73 111.5,-92 246.5,-92 246.5,-73 111.5,-73"/>
<text text-anchor="middle" x="179" y="-80" font-family="Helvetica,sans-Serif" font-size="10.00" fill="#000000">MathUtils/Cartesian2D.h</text>
</a>
</g>
</g>
<!-- Node32&#45;&gt;Node39 -->
<g id="edge47" class="edge">
<title>Node32&#45;&gt;Node39</title>
<path fill="none" stroke="#191970" d="M849.1462,-142.1682C729.0663,-138.2837 471.4644,-127.0598 256,-98 247.9297,-96.9116 239.4344,-95.4874 231.1517,-93.9435"/>
<polygon fill="#191970" stroke="#191970" points="231.6798,-90.4808 221.1967,-92.0153 230.3487,-97.3531 231.6798,-90.4808"/>
</g>
<!-- Node40 -->
<g id="node41" class="node">
<title>Node40</title>
<polygon fill="none" stroke="#bfbfbf" points="0,-.5 0,-30.5 164,-30.5 164,-.5 0,-.5"/>
<text text-anchor="start" x="8" y="-18.5" font-family="Helvetica,sans-Serif" font-size="10.00" fill="#000000">Math/GenVector/Displacement</text>
<text text-anchor="middle" x="82" y="-7.5" font-family="Helvetica,sans-Serif" font-size="10.00" fill="#000000">Vector2D.h</text>
</g>
<!-- Node39&#45;&gt;Node40 -->
<g id="edge48" class="edge">
<title>Node39&#45;&gt;Node40</title>
<path fill="none" stroke="#191970" d="M165.1023,-72.9005C151.3265,-63.3853 129.7795,-48.5023 112.0779,-36.2755"/>
<polygon fill="#191970" stroke="#191970" points="113.9651,-33.3253 103.7479,-30.5218 109.9868,-39.0849 113.9651,-33.3253"/>
</g>
<!-- Node41 -->
<g id="node42" class="node">
<title>Node41</title>
<polygon fill="none" stroke="#bfbfbf" points="182.5,-6 182.5,-25 371.5,-25 371.5,-6 182.5,-6"/>
<text text-anchor="middle" x="277" y="-13" font-family="Helvetica,sans-Serif" font-size="10.00" fill="#000000">Math/GenVector/PositionVector2D.h</text>
</g>
<!-- Node39&#45;&gt;Node41 -->
<g id="edge49" class="edge">
<title>Node39&#45;&gt;Node41</title>
<path fill="none" stroke="#191970" d="M193.041,-72.9005C209.1238,-61.9052 235.6906,-43.7422 254.6316,-30.7927"/>
<polygon fill="#191970" stroke="#191970" points="256.7052,-33.6148 262.985,-25.0817 252.7545,-27.8362 256.7052,-33.6148"/>
</g>
</g>
</svg>
