<?xml version="1.0" encoding="UTF-8" standalone="no"?>
<!DOCTYPE svg PUBLIC "-//W3C//DTD SVG 1.1//EN"
 "http://www.w3.org/Graphics/SVG/1.1/DTD/svg11.dtd">
<!-- Generated by graphviz version 2.40.1 (20161225.0304)
 -->
<!-- Title: /home/travis/build/AliceO2Group/AliceO2/Detectors/CPV/simulation/include/CPVSimulation/Digitizer.h Pages: 1 -->
<svg width="2395pt" height="385pt"
 viewBox="0.00 0.00 2394.50 385.00" xmlns="http://www.w3.org/2000/svg" xmlns:xlink="http://www.w3.org/1999/xlink">
<g id="graph0" class="graph" transform="scale(1 1) rotate(0) translate(4 381)">
<title>/home/travis/build/AliceO2Group/AliceO2/Detectors/CPV/simulation/include/CPVSimulation/Digitizer.h</title>
<!-- Node0 -->
<g id="node1" class="node">
<title>Node0</title>
<polygon fill="#bfbfbf" stroke="#000000" points="1757,-324.5 1757,-376.5 1939,-376.5 1939,-324.5 1757,-324.5"/>
<text text-anchor="start" x="1765" y="-364.5" font-family="Helvetica,sans-Serif" font-size="10.00" fill="#000000">/home/travis/build</text>
<text text-anchor="start" x="1765" y="-353.5" font-family="Helvetica,sans-Serif" font-size="10.00" fill="#000000">/AliceO2Group/AliceO2</text>
<text text-anchor="start" x="1765" y="-342.5" font-family="Helvetica,sans-Serif" font-size="10.00" fill="#000000">/Detectors/CPV/simulation</text>
<text text-anchor="middle" x="1848" y="-331.5" font-family="Helvetica,sans-Serif" font-size="10.00" fill="#000000">/include/CPVSimulation/Digitizer.h</text>
</g>
<!-- Node1 -->
<g id="node2" class="node">
<title>Node1</title>
<g id="a_node2"><a xlink:href="../../de/dfb/DataFormats_2Detectors_2CPV_2include_2DataFormatsCPV_2Digit_8h.html" target="_top" xlink:title="DataFormatsCPV/Digit.h">
<polygon fill="none" stroke="#000000" points="861,-263 861,-282 995,-282 995,-263 861,-263"/>
<text text-anchor="middle" x="928" y="-270" font-family="Helvetica,sans-Serif" font-size="10.00" fill="#000000">DataFormatsCPV/Digit.h</text>
</a>
</g>
</g>
<!-- Node0&#45;&gt;Node1 -->
<g id="edge1" class="edge">
<title>Node0&#45;&gt;Node1</title>
<path fill="none" stroke="#191970" d="M1756.8466,-342.7718C1575.9139,-327.4318 1174.3335,-293.3848 1005.3316,-279.0564"/>
<polygon fill="#191970" stroke="#191970" points="1005.5292,-275.5607 995.2692,-278.2033 1004.9378,-282.5356 1005.5292,-275.5607"/>
</g>
<!-- Node9 -->
<g id="node10" class="node">
<title>Node9</title>
<g id="a_node10"><a xlink:href="../../de/ddd/CPV_2base_2include_2CPVBase_2Geometry_8h.html" target="_top" xlink:title="CPVBase/Geometry.h">
<polygon fill="none" stroke="#000000" points="2027.5,-263 2027.5,-282 2146.5,-282 2146.5,-263 2027.5,-263"/>
<text text-anchor="middle" x="2087" y="-270" font-family="Helvetica,sans-Serif" font-size="10.00" fill="#000000">CPVBase/Geometry.h</text>
</a>
</g>
</g>
<!-- Node0&#45;&gt;Node9 -->
<g id="edge9" class="edge">
<title>Node0&#45;&gt;Node9</title>
<path fill="none" stroke="#191970" d="M1927.9158,-324.4187C1968.376,-311.2141 2015.6612,-295.7821 2048.1019,-285.1948"/>
<polygon fill="#191970" stroke="#191970" points="2049.2485,-288.5023 2057.6691,-282.0724 2047.0767,-281.8477 2049.2485,-288.5023"/>
</g>
<!-- Node13 -->
<g id="node14" class="node">
<title>Node13</title>
<g id="a_node14"><a xlink:href="../../dc/d40/CPV_2calib_2include_2CPVCalib_2CalibParams_8h.html" target="_top" xlink:title="CPVCalib/CalibParams.h">
<polygon fill="none" stroke="#000000" points="2217,-263 2217,-282 2351,-282 2351,-263 2217,-263"/>
<text text-anchor="middle" x="2284" y="-270" font-family="Helvetica,sans-Serif" font-size="10.00" fill="#000000">CPVCalib/CalibParams.h</text>
</a>
</g>
</g>
<!-- Node0&#45;&gt;Node13 -->
<g id="edge13" class="edge">
<title>Node0&#45;&gt;Node13</title>
<path fill="none" stroke="#191970" d="M1939.1344,-334.1961C2023.417,-319.1181 2146.5023,-297.0982 2220.5677,-283.848"/>
<polygon fill="#191970" stroke="#191970" points="2221.4569,-287.2446 2230.6842,-282.0381 2220.2241,-280.354 2221.4569,-287.2446"/>
</g>
<!-- Node16 -->
<g id="node17" class="node">
<title>Node16</title>
<g id="a_node17"><a xlink:href="../../db/dd0/Detectors_2CPV_2base_2include_2CPVBase_2Hit_8h.html" target="_top" xlink:title="CPVBase/Hit.h">
<polygon fill="none" stroke="#000000" points="1724,-263 1724,-282 1810,-282 1810,-263 1724,-263"/>
<text text-anchor="middle" x="1767" y="-270" font-family="Helvetica,sans-Serif" font-size="10.00" fill="#000000">CPVBase/Hit.h</text>
</a>
</g>
</g>
<!-- Node0&#45;&gt;Node16 -->
<g id="edge16" class="edge">
<title>Node0&#45;&gt;Node16</title>
<path fill="none" stroke="#191970" d="M1820.5771,-324.0928C1808.581,-312.541 1794.8703,-299.338 1784.3218,-289.1802"/>
<polygon fill="#191970" stroke="#191970" points="1786.5835,-286.4992 1776.9525,-282.0839 1781.7279,-291.5414 1786.5835,-286.4992"/>
</g>
<!-- Node37 -->
<g id="node38" class="node">
<title>Node37</title>
<g id="a_node38"><a xlink:href="../../d7/dcd/MCCompLabel_8h.html" target="_top" xlink:title="SimulationDataFormat\l/MCCompLabel.h">
<polygon fill="none" stroke="#000000" points="1403.5,-257.5 1403.5,-287.5 1530.5,-287.5 1530.5,-257.5 1403.5,-257.5"/>
<text text-anchor="start" x="1411.5" y="-275.5" font-family="Helvetica,sans-Serif" font-size="10.00" fill="#000000">SimulationDataFormat</text>
<text text-anchor="middle" x="1467" y="-264.5" font-family="Helvetica,sans-Serif" font-size="10.00" fill="#000000">/MCCompLabel.h</text>
</a>
</g>
</g>
<!-- Node0&#45;&gt;Node37 -->
<g id="edge38" class="edge">
<title>Node0&#45;&gt;Node37</title>
<path fill="none" stroke="#191970" d="M1756.741,-331.8171C1690.6344,-318.2834 1602.4071,-300.2211 1540.7449,-287.5974"/>
<polygon fill="#191970" stroke="#191970" points="1541.2009,-284.1182 1530.7021,-285.5414 1539.7969,-290.976 1541.2009,-284.1182"/>
</g>
<!-- Node38 -->
<g id="node39" class="node">
<title>Node38</title>
<g id="a_node39"><a xlink:href="../../db/d14/MCTruthContainer_8h.html" target="_top" xlink:title="Definition of a container to keep Monte Carlo truth external to simulation objects. ">
<polygon fill="none" stroke="#000000" points="1879.5,-190.5 1879.5,-220.5 2006.5,-220.5 2006.5,-190.5 1879.5,-190.5"/>
<text text-anchor="start" x="1887.5" y="-208.5" font-family="Helvetica,sans-Serif" font-size="10.00" fill="#000000">SimulationDataFormat</text>
<text text-anchor="middle" x="1943" y="-197.5" font-family="Helvetica,sans-Serif" font-size="10.00" fill="#000000">/MCTruthContainer.h</text>
</a>
</g>
</g>
<!-- Node0&#45;&gt;Node38 -->
<g id="edge40" class="edge">
<title>Node0&#45;&gt;Node38</title>
<path fill="none" stroke="#191970" d="M1865.2038,-324.2416C1882.9009,-297.2301 1910.2276,-255.5211 1927.3386,-229.4043"/>
<polygon fill="#191970" stroke="#191970" points="1930.3797,-231.1491 1932.9324,-220.8663 1924.5245,-227.3129 1930.3797,-231.1491"/>
</g>
<!-- Node2 -->
<g id="node3" class="node">
<title>Node2</title>
<polygon fill="none" stroke="#bfbfbf" points="769.5,-196 769.5,-215 816.5,-215 816.5,-196 769.5,-196"/>
<text text-anchor="middle" x="793" y="-203" font-family="Helvetica,sans-Serif" font-size="10.00" fill="#000000">cmath</text>
</g>
<!-- Node1&#45;&gt;Node2 -->
<g id="edge2" class="edge">
<title>Node1&#45;&gt;Node2</title>
<path fill="none" stroke="#191970" d="M908.6578,-262.9005C885.8013,-251.5569 847.573,-232.5844 821.3666,-219.5783"/>
<polygon fill="#191970" stroke="#191970" points="822.8198,-216.3922 812.3063,-215.0817 819.7079,-222.6624 822.8198,-216.3922"/>
</g>
<!-- Node3 -->
<g id="node4" class="node">
<title>Node3</title>
<g id="a_node4"><a xlink:href="../../df/d5d/common_2include_2CommonDataFormat_2TimeStamp_8h.html" target="_top" xlink:title="CommonDataFormat/TimeStamp.h">
<polygon fill="none" stroke="#000000" points="834.5,-196 834.5,-215 1021.5,-215 1021.5,-196 834.5,-196"/>
<text text-anchor="middle" x="928" y="-203" font-family="Helvetica,sans-Serif" font-size="10.00" fill="#000000">CommonDataFormat/TimeStamp.h</text>
</a>
</g>
</g>
<!-- Node1&#45;&gt;Node3 -->
<g id="edge3" class="edge">
<title>Node1&#45;&gt;Node3</title>
<path fill="none" stroke="#191970" d="M928,-262.9005C928,-253.149 928,-237.7597 928,-225.3695"/>
<polygon fill="#191970" stroke="#191970" points="931.5001,-225.0816 928,-215.0817 924.5001,-225.0817 931.5001,-225.0816"/>
</g>
<!-- Node4 -->
<g id="node5" class="node">
<title>Node4</title>
<g id="a_node5"><a xlink:href="../../d2/d45/GPUCommonRtypes_8h.html" target="_top" xlink:title="GPUCommonRtypes.h">
<polygon fill="none" stroke="#000000" points="865.5,-134.5 865.5,-153.5 990.5,-153.5 990.5,-134.5 865.5,-134.5"/>
<text text-anchor="middle" x="928" y="-141.5" font-family="Helvetica,sans-Serif" font-size="10.00" fill="#000000">GPUCommonRtypes.h</text>
</a>
</g>
</g>
<!-- Node3&#45;&gt;Node4 -->
<g id="edge4" class="edge">
<title>Node3&#45;&gt;Node4</title>
<path fill="none" stroke="#191970" d="M928,-195.8906C928,-187.3657 928,-174.6392 928,-163.9235"/>
<polygon fill="#191970" stroke="#191970" points="931.5001,-163.7448 928,-153.7449 924.5001,-163.7449 931.5001,-163.7448"/>
</g>
<!-- Node6 -->
<g id="node7" class="node">
<title>Node6</title>
<g id="a_node7"><a xlink:href="../../df/d21/GPUCommonDef_8h.html" target="_top" xlink:title="GPUCommonDef.h">
<polygon fill="none" stroke="#000000" points="174.5,-134.5 174.5,-153.5 281.5,-153.5 281.5,-134.5 174.5,-134.5"/>
<text text-anchor="middle" x="228" y="-141.5" font-family="Helvetica,sans-Serif" font-size="10.00" fill="#000000">GPUCommonDef.h</text>
</a>
</g>
</g>
<!-- Node3&#45;&gt;Node6 -->
<g id="edge6" class="edge">
<title>Node3&#45;&gt;Node6</title>
<path fill="none" stroke="#191970" d="M869.8126,-195.9914C855.2094,-193.8125 839.5538,-191.6536 825,-190 631.3824,-168.0017 401.2178,-153.5554 291.8411,-147.3963"/>
<polygon fill="#191970" stroke="#191970" points="291.8183,-143.8897 281.6386,-146.8262 291.4277,-150.8788 291.8183,-143.8897"/>
</g>
<!-- Node5 -->
<g id="node6" class="node">
<title>Node5</title>
<polygon fill="none" stroke="#bfbfbf" points="308.5,-73 308.5,-92 367.5,-92 367.5,-73 308.5,-73"/>
<text text-anchor="middle" x="338" y="-80" font-family="Helvetica,sans-Serif" font-size="10.00" fill="#000000">Rtypes.h</text>
</g>
<!-- Node4&#45;&gt;Node5 -->
<g id="edge5" class="edge">
<title>Node4&#45;&gt;Node5</title>
<path fill="none" stroke="#191970" d="M865.3992,-141.1776C741.1306,-135.1817 467.4133,-119.9075 376,-98 373.2069,-97.3306 370.3511,-96.4877 367.5217,-95.5425"/>
<polygon fill="#191970" stroke="#191970" points="368.7255,-92.256 358.1329,-92.0384 366.2779,-98.8141 368.7255,-92.256"/>
</g>
<!-- Node7 -->
<g id="node8" class="node">
<title>Node7</title>
<g id="a_node8"><a xlink:href="../../d5/d93/GPUCommonDefSettings_8h.html" target="_top" xlink:title="GPUCommonDefSettings.h">
<polygon fill="none" stroke="#000000" points="0,-73 0,-92 148,-92 148,-73 0,-73"/>
<text text-anchor="middle" x="74" y="-80" font-family="Helvetica,sans-Serif" font-size="10.00" fill="#000000">GPUCommonDefSettings.h</text>
</a>
</g>
</g>
<!-- Node6&#45;&gt;Node7 -->
<g id="edge7" class="edge">
<title>Node6&#45;&gt;Node7</title>
<path fill="none" stroke="#191970" d="M203.9375,-134.3906C177.9444,-124.0103 136.3522,-107.4004 107.2453,-95.7766"/>
<polygon fill="#191970" stroke="#191970" points="108.4785,-92.5003 97.8935,-92.0419 105.8823,-99.0011 108.4785,-92.5003"/>
</g>
<!-- Node8 -->
<g id="node9" class="node">
<title>Node8</title>
<g id="a_node9"><a xlink:href="../../da/d5a/GPUCommonDefAPI_8h.html" target="_top" xlink:title="GPUCommonDefAPI.h">
<polygon fill="none" stroke="#000000" points="166,-73 166,-92 290,-92 290,-73 166,-73"/>
<text text-anchor="middle" x="228" y="-80" font-family="Helvetica,sans-Serif" font-size="10.00" fill="#000000">GPUCommonDefAPI.h</text>
</a>
</g>
</g>
<!-- Node6&#45;&gt;Node8 -->
<g id="edge8" class="edge">
<title>Node6&#45;&gt;Node8</title>
<path fill="none" stroke="#191970" d="M228,-134.3906C228,-125.8657 228,-113.1392 228,-102.4235"/>
<polygon fill="#191970" stroke="#191970" points="231.5001,-102.2448 228,-92.2449 224.5001,-102.2449 231.5001,-102.2448"/>
</g>
<!-- Node10 -->
<g id="node11" class="node">
<title>Node10</title>
<polygon fill="none" stroke="#bfbfbf" points="2099,-196 2099,-215 2143,-215 2143,-196 2099,-196"/>
<text text-anchor="middle" x="2121" y="-203" font-family="Helvetica,sans-Serif" font-size="10.00" fill="#000000">string</text>
</g>
<!-- Node9&#45;&gt;Node10 -->
<g id="edge10" class="edge">
<title>Node9&#45;&gt;Node10</title>
<path fill="none" stroke="#191970" d="M2091.8714,-262.9005C2096.9714,-252.8505 2105.1102,-236.8122 2111.49,-224.2403"/>
<polygon fill="#191970" stroke="#191970" points="2114.7334,-225.583 2116.1377,-215.0817 2108.4912,-222.4153 2114.7334,-225.583"/>
</g>
<!-- Node11 -->
<g id="node12" class="node">
<title>Node11</title>
<polygon fill="none" stroke="#bfbfbf" points="2161,-196 2161,-215 2245,-215 2245,-196 2161,-196"/>
<text text-anchor="middle" x="2203" y="-203" font-family="Helvetica,sans-Serif" font-size="10.00" fill="#000000">RStringView.h</text>
</g>
<!-- Node9&#45;&gt;Node11 -->
<g id="edge11" class="edge">
<title>Node9&#45;&gt;Node11</title>
<path fill="none" stroke="#191970" d="M2103.62,-262.9005C2123.0012,-251.7062 2155.2455,-233.0823 2177.7315,-220.0947"/>
<polygon fill="#191970" stroke="#191970" points="2179.502,-223.114 2186.4109,-215.0817 2176.0009,-217.0525 2179.502,-223.114"/>
</g>
<!-- Node12 -->
<g id="node13" class="node">
<title>Node12</title>
<polygon fill="none" stroke="#bfbfbf" points="2025,-196 2025,-215 2081,-215 2081,-196 2025,-196"/>
<text text-anchor="middle" x="2053" y="-203" font-family="Helvetica,sans-Serif" font-size="10.00" fill="#000000">TMath.h</text>
</g>
<!-- Node9&#45;&gt;Node12 -->
<g id="edge12" class="edge">
<title>Node9&#45;&gt;Node12</title>
<path fill="none" stroke="#191970" d="M2082.1286,-262.9005C2077.0286,-252.8505 2068.8898,-236.8122 2062.51,-224.2403"/>
<polygon fill="#191970" stroke="#191970" points="2065.5088,-222.4153 2057.8623,-215.0817 2059.2666,-225.583 2065.5088,-222.4153"/>
</g>
<!-- Node14 -->
<g id="node15" class="node">
<title>Node14</title>
<polygon fill="none" stroke="#bfbfbf" points="2263,-196 2263,-215 2305,-215 2305,-196 2263,-196"/>
<text text-anchor="middle" x="2284" y="-203" font-family="Helvetica,sans-Serif" font-size="10.00" fill="#000000">array</text>
</g>
<!-- Node13&#45;&gt;Node14 -->
<g id="edge14" class="edge">
<title>Node13&#45;&gt;Node14</title>
<path fill="none" stroke="#191970" d="M2284,-262.9005C2284,-253.149 2284,-237.7597 2284,-225.3695"/>
<polygon fill="#191970" stroke="#191970" points="2287.5001,-225.0816 2284,-215.0817 2280.5001,-225.0817 2287.5001,-225.0816"/>
</g>
<!-- Node15 -->
<g id="node16" class="node">
<title>Node15</title>
<polygon fill="none" stroke="#bfbfbf" points="2323.5,-196 2323.5,-215 2386.5,-215 2386.5,-196 2323.5,-196"/>
<text text-anchor="middle" x="2355" y="-203" font-family="Helvetica,sans-Serif" font-size="10.00" fill="#000000">TObject.h</text>
</g>
<!-- Node13&#45;&gt;Node15 -->
<g id="edge15" class="edge">
<title>Node13&#45;&gt;Node15</title>
<path fill="none" stroke="#191970" d="M2294.1726,-262.9005C2305.4553,-252.2535 2323.8601,-234.8856 2337.4742,-222.0385"/>
<polygon fill="#191970" stroke="#191970" points="2339.9754,-224.4905 2344.8463,-215.0817 2335.1712,-219.3994 2339.9754,-224.4905"/>
</g>
<!-- Node17 -->
<g id="node18" class="node">
<title>Node17</title>
<g id="a_node18"><a xlink:href="../../d4/d25/BaseHits_8h.html" target="_top" xlink:title="SimulationDataFormat\l/BaseHits.h">
<polygon fill="none" stroke="#000000" points="1319.5,-190.5 1319.5,-220.5 1446.5,-220.5 1446.5,-190.5 1319.5,-190.5"/>
<text text-anchor="start" x="1327.5" y="-208.5" font-family="Helvetica,sans-Serif" font-size="10.00" fill="#000000">SimulationDataFormat</text>
<text text-anchor="middle" x="1383" y="-197.5" font-family="Helvetica,sans-Serif" font-size="10.00" fill="#000000">/BaseHits.h</text>
</a>
</g>
</g>
<!-- Node16&#45;&gt;Node17 -->
<g id="edge17" class="edge">
<title>Node16&#45;&gt;Node17</title>
<path fill="none" stroke="#191970" d="M1723.6968,-264.9445C1658.8966,-253.6382 1535.8715,-232.1729 1456.741,-218.3663"/>
<polygon fill="#191970" stroke="#191970" points="1457.2894,-214.9092 1446.8366,-216.6382 1456.0862,-221.805 1457.2894,-214.9092"/>
</g>
<!-- Node29 -->
<g id="node30" class="node">
<title>Node29</title>
<g id="a_node30"><a xlink:href="../../d0/d91/ShmAllocator_8h.html" target="_top" xlink:title="CommonUtils/ShmAllocator.h">
<polygon fill="none" stroke="#000000" points="1687,-196 1687,-215 1847,-215 1847,-196 1687,-196"/>
<text text-anchor="middle" x="1767" y="-203" font-family="Helvetica,sans-Serif" font-size="10.00" fill="#000000">CommonUtils/ShmAllocator.h</text>
</a>
</g>
</g>
<!-- Node16&#45;&gt;Node29 -->
<g id="edge30" class="edge">
<title>Node16&#45;&gt;Node29</title>
<path fill="none" stroke="#191970" d="M1767,-262.9005C1767,-253.149 1767,-237.7597 1767,-225.3695"/>
<polygon fill="#191970" stroke="#191970" points="1770.5001,-225.0816 1767,-215.0817 1763.5001,-225.0817 1770.5001,-225.0816"/>
</g>
<!-- Node18 -->
<g id="node19" class="node">
<title>Node18</title>
<g id="a_node19"><a xlink:href="../../dd/d76/Cartesian3D_8h.html" target="_top" xlink:title="MathUtils/Cartesian3D.h">
<polygon fill="none" stroke="#000000" points="1008.5,-134.5 1008.5,-153.5 1143.5,-153.5 1143.5,-134.5 1008.5,-134.5"/>
<text text-anchor="middle" x="1076" y="-141.5" font-family="Helvetica,sans-Serif" font-size="10.00" fill="#000000">MathUtils/Cartesian3D.h</text>
</a>
</g>
</g>
<!-- Node17&#45;&gt;Node18 -->
<g id="edge18" class="edge">
<title>Node17&#45;&gt;Node18</title>
<path fill="none" stroke="#191970" d="M1319.3894,-192.7572C1264.6109,-181.7836 1186.2511,-166.0861 1133.3684,-155.4924"/>
<polygon fill="#191970" stroke="#191970" points="1133.967,-152.0428 1123.4743,-153.5103 1132.592,-158.9065 1133.967,-152.0428"/>
</g>
<!-- Node18&#45;&gt;Node5 -->
<g id="edge24" class="edge">
<title>Node18&#45;&gt;Node5</title>
<path fill="none" stroke="#191970" d="M1008.4245,-134.9465C1005.2407,-134.6073 1002.0869,-134.2893 999,-134 722.859,-108.1237 646.5133,-159.2046 376,-98 373.1986,-97.3662 370.3371,-96.5476 367.5041,-95.6182"/>
<polygon fill="#191970" stroke="#191970" points="368.7027,-92.3298 358.1096,-92.1387 366.2714,-98.8941 368.7027,-92.3298"/>
</g>
<!-- Node19 -->
<g id="node20" class="node">
<title>Node19</title>
<polygon fill="none" stroke="#bfbfbf" points="606,-67.5 606,-97.5 770,-97.5 770,-67.5 606,-67.5"/>
<text text-anchor="start" x="614" y="-85.5" font-family="Helvetica,sans-Serif" font-size="10.00" fill="#000000">Math/GenVector/Displacement</text>
<text text-anchor="middle" x="688" y="-74.5" font-family="Helvetica,sans-Serif" font-size="10.00" fill="#000000">Vector3D.h</text>
</g>
<!-- Node18&#45;&gt;Node19 -->
<g id="edge19" class="edge">
<title>Node18&#45;&gt;Node19</title>
<path fill="none" stroke="#191970" d="M1012.8043,-134.4939C954.8809,-125.7167 866.4597,-112.1574 780.2825,-98.1962"/>
<polygon fill="#191970" stroke="#191970" points="780.7623,-94.7283 770.3306,-96.5804 779.6405,-101.6378 780.7623,-94.7283"/>
</g>
<!-- Node20 -->
<g id="node21" class="node">
<title>Node20</title>
<polygon fill="none" stroke="#bfbfbf" points="788.5,-73 788.5,-92 977.5,-92 977.5,-73 788.5,-73"/>
<text text-anchor="middle" x="883" y="-80" font-family="Helvetica,sans-Serif" font-size="10.00" fill="#000000">Math/GenVector/PositionVector3D.h</text>
</g>
<!-- Node18&#45;&gt;Node20 -->
<g id="edge20" class="edge">
<title>Node18&#45;&gt;Node20</title>
<path fill="none" stroke="#191970" d="M1045.8438,-134.3906C1012.7015,-123.8298 959.3238,-106.8208 922.7758,-95.1747"/>
<polygon fill="#191970" stroke="#191970" points="923.5351,-91.7433 912.9445,-92.0419 921.4098,-98.4129 923.5351,-91.7433"/>
</g>
<!-- Node21 -->
<g id="node22" class="node">
<title>Node21</title>
<polygon fill="none" stroke="#bfbfbf" points="996,-73 996,-92 1156,-92 1156,-73 996,-73"/>
<text text-anchor="middle" x="1076" y="-80" font-family="Helvetica,sans-Serif" font-size="10.00" fill="#000000">Math/GenVector/Rotation3D.h</text>
</g>
<!-- Node18&#45;&gt;Node21 -->
<g id="edge21" class="edge">
<title>Node18&#45;&gt;Node21</title>
<path fill="none" stroke="#191970" d="M1076,-134.3906C1076,-125.8657 1076,-113.1392 1076,-102.4235"/>
<polygon fill="#191970" stroke="#191970" points="1079.5001,-102.2448 1076,-92.2449 1072.5001,-102.2449 1079.5001,-102.2448"/>
</g>
<!-- Node22 -->
<g id="node23" class="node">
<title>Node22</title>
<polygon fill="none" stroke="#bfbfbf" points="1174,-73 1174,-92 1342,-92 1342,-73 1174,-73"/>
<text text-anchor="middle" x="1258" y="-80" font-family="Helvetica,sans-Serif" font-size="10.00" fill="#000000">Math/GenVector/Transform3D.h</text>
</g>
<!-- Node18&#45;&gt;Node22 -->
<g id="edge22" class="edge">
<title>Node18&#45;&gt;Node22</title>
<path fill="none" stroke="#191970" d="M1104.4375,-134.3906C1135.5572,-123.8749 1185.5964,-106.966 1220.0485,-95.3243"/>
<polygon fill="#191970" stroke="#191970" points="1221.4089,-98.5591 1229.7622,-92.0419 1219.168,-91.9274 1221.4089,-98.5591"/>
</g>
<!-- Node23 -->
<g id="node24" class="node">
<title>Node23</title>
<polygon fill="none" stroke="#bfbfbf" points="1360.5,-73 1360.5,-92 1533.5,-92 1533.5,-73 1360.5,-73"/>
<text text-anchor="middle" x="1447" y="-80" font-family="Helvetica,sans-Serif" font-size="10.00" fill="#000000">Math/GenVector/Translation3D.h</text>
</g>
<!-- Node18&#45;&gt;Node23 -->
<g id="edge23" class="edge">
<title>Node18&#45;&gt;Node23</title>
<path fill="none" stroke="#191970" d="M1133.5617,-134.4581C1200.0029,-123.4443 1309.1384,-105.3531 1379.5159,-93.6867"/>
<polygon fill="#191970" stroke="#191970" points="1380.3156,-97.102 1389.6085,-92.0137 1379.1708,-90.1962 1380.3156,-97.102"/>
</g>
<!-- Node24 -->
<g id="node25" class="node">
<title>Node24</title>
<polygon fill="none" stroke="#bfbfbf" points="1552,-73 1552,-92 1634,-92 1634,-73 1552,-73"/>
<text text-anchor="middle" x="1593" y="-80" font-family="Helvetica,sans-Serif" font-size="10.00" fill="#000000">TGeoMatrix.h</text>
</g>
<!-- Node18&#45;&gt;Node24 -->
<g id="edge25" class="edge">
<title>Node18&#45;&gt;Node24</title>
<path fill="none" stroke="#191970" d="M1143.7493,-141.4874C1234.9937,-137.1569 1402.0774,-125.8865 1542,-98 1546.4073,-97.1216 1550.9778,-96.0187 1555.4909,-94.8081"/>
<polygon fill="#191970" stroke="#191970" points="1556.5426,-98.1477 1565.1935,-92.0311 1554.6165,-91.4179 1556.5426,-98.1477"/>
</g>
<!-- Node25 -->
<g id="node26" class="node">
<title>Node25</title>
<polygon fill="none" stroke="#bfbfbf" points="385.5,-73 385.5,-92 434.5,-92 434.5,-73 385.5,-73"/>
<text text-anchor="middle" x="410" y="-80" font-family="Helvetica,sans-Serif" font-size="10.00" fill="#000000">iosfwd</text>
</g>
<!-- Node18&#45;&gt;Node25 -->
<g id="edge26" class="edge">
<title>Node18&#45;&gt;Node25</title>
<path fill="none" stroke="#191970" d="M1008.4219,-134.9731C1005.2389,-134.6268 1002.0859,-134.3 999,-134 752.5332,-110.0417 682.8145,-159.7165 443,-98 441.0231,-97.4912 439.0206,-96.8647 437.0302,-96.1581"/>
<polygon fill="#191970" stroke="#191970" points="437.9327,-92.7427 427.3555,-92.1327 435.2437,-99.2057 437.9327,-92.7427"/>
</g>
<!-- Node26 -->
<g id="node27" class="node">
<title>Node26</title>
<g id="a_node27"><a xlink:href="../../d2/dd0/Cartesian2D_8h.html" target="_top" xlink:title="MathUtils/Cartesian2D.h">
<polygon fill="none" stroke="#000000" points="452.5,-73 452.5,-92 587.5,-92 587.5,-73 452.5,-73"/>
<text text-anchor="middle" x="520" y="-80" font-family="Helvetica,sans-Serif" font-size="10.00" fill="#000000">MathUtils/Cartesian2D.h</text>
</a>
</g>
</g>
<!-- Node18&#45;&gt;Node26 -->
<g id="edge27" class="edge">
<title>Node18&#45;&gt;Node26</title>
<path fill="none" stroke="#191970" d="M1008.4122,-135.0676C1005.2317,-134.696 1002.082,-134.338 999,-134 820.6874,-114.445 774.5256,-123.7381 597,-98 589.2192,-96.8719 581.0375,-95.4658 573.03,-93.964"/>
<polygon fill="#191970" stroke="#191970" points="573.5071,-90.4914 563.0238,-92.0243 572.175,-97.3635 573.5071,-90.4914"/>
</g>
<!-- Node27 -->
<g id="node28" class="node">
<title>Node27</title>
<polygon fill="none" stroke="#bfbfbf" points="340,-.5 340,-30.5 504,-30.5 504,-.5 340,-.5"/>
<text text-anchor="start" x="348" y="-18.5" font-family="Helvetica,sans-Serif" font-size="10.00" fill="#000000">Math/GenVector/Displacement</text>
<text text-anchor="middle" x="422" y="-7.5" font-family="Helvetica,sans-Serif" font-size="10.00" fill="#000000">Vector2D.h</text>
</g>
<!-- Node26&#45;&gt;Node27 -->
<g id="edge28" class="edge">
<title>Node26&#45;&gt;Node27</title>
<path fill="none" stroke="#191970" d="M505.959,-72.9005C492.0412,-63.3853 470.272,-48.5023 452.388,-36.2755"/>
<polygon fill="#191970" stroke="#191970" points="454.2026,-33.2763 443.9721,-30.5218 450.2519,-39.0549 454.2026,-33.2763"/>
</g>
<!-- Node28 -->
<g id="node29" class="node">
<title>Node28</title>
<polygon fill="none" stroke="#bfbfbf" points="522.5,-6 522.5,-25 711.5,-25 711.5,-6 522.5,-6"/>
<text text-anchor="middle" x="617" y="-13" font-family="Helvetica,sans-Serif" font-size="10.00" fill="#000000">Math/GenVector/PositionVector2D.h</text>
</g>
<!-- Node26&#45;&gt;Node28 -->
<g id="edge29" class="edge">
<title>Node26&#45;&gt;Node28</title>
<path fill="none" stroke="#191970" d="M533.8977,-72.9005C549.8164,-61.9052 576.1121,-43.7422 594.8599,-30.7927"/>
<polygon fill="#191970" stroke="#191970" points="596.8892,-33.6448 603.128,-25.0817 592.9108,-27.8852 596.8892,-33.6448"/>
</g>
<!-- Node30 -->
<g id="node31" class="node">
<title>Node30</title>
<g id="a_node31"><a xlink:href="../../de/d61/ShmManager_8h.html" target="_top" xlink:title="CommonUtils/ShmManager.h">
<polygon fill="none" stroke="#000000" points="1640,-134.5 1640,-153.5 1798,-153.5 1798,-134.5 1640,-134.5"/>
<text text-anchor="middle" x="1719" y="-141.5" font-family="Helvetica,sans-Serif" font-size="10.00" fill="#000000">CommonUtils/ShmManager.h</text>
</a>
</g>
</g>
<!-- Node29&#45;&gt;Node30 -->
<g id="edge31" class="edge">
<title>Node29&#45;&gt;Node30</title>
<path fill="none" stroke="#191970" d="M1759.5,-195.8906C1752.4262,-186.8273 1741.6458,-173.0149 1732.9854,-161.9188"/>
<polygon fill="#191970" stroke="#191970" points="1735.5176,-159.4746 1726.6057,-153.7449 1729.9994,-163.7815 1735.5176,-159.4746"/>
</g>
<!-- Node36 -->
<g id="node37" class="node">
<title>Node36</title>
<polygon fill="none" stroke="#bfbfbf" points="1816,-134.5 1816,-153.5 1868,-153.5 1868,-134.5 1816,-134.5"/>
<text text-anchor="middle" x="1842" y="-141.5" font-family="Helvetica,sans-Serif" font-size="10.00" fill="#000000">cassert</text>
</g>
<!-- Node29&#45;&gt;Node36 -->
<g id="edge37" class="edge">
<title>Node29&#45;&gt;Node36</title>
<path fill="none" stroke="#191970" d="M1778.7188,-195.8906C1790.3188,-186.3786 1808.2979,-171.6357 1822.1321,-160.2917"/>
<polygon fill="#191970" stroke="#191970" points="1824.6026,-162.7921 1830.116,-153.7449 1820.164,-157.3792 1824.6026,-162.7921"/>
</g>
<!-- Node31 -->
<g id="node32" class="node">
<title>Node31</title>
<polygon fill="none" stroke="#bfbfbf" points="1804,-73 1804,-92 1836,-92 1836,-73 1804,-73"/>
<text text-anchor="middle" x="1820" y="-80" font-family="Helvetica,sans-Serif" font-size="10.00" fill="#000000">list</text>
</g>
<!-- Node30&#45;&gt;Node31 -->
<g id="edge32" class="edge">
<title>Node30&#45;&gt;Node31</title>
<path fill="none" stroke="#191970" d="M1735.0432,-134.3577C1750.4456,-125.0844 1774.3522,-110.649 1795,-98 1795.2939,-97.8199 1795.5898,-97.6386 1795.8871,-97.4561"/>
<polygon fill="#191970" stroke="#191970" points="1798.0045,-100.2625 1804.6794,-92.0347 1794.3305,-94.3041 1798.0045,-100.2625"/>
</g>
<!-- Node32 -->
<g id="node33" class="node">
<title>Node32</title>
<polygon fill="none" stroke="#bfbfbf" points="1854.5,-73 1854.5,-92 1907.5,-92 1907.5,-73 1854.5,-73"/>
<text text-anchor="middle" x="1881" y="-80" font-family="Helvetica,sans-Serif" font-size="10.00" fill="#000000">cstddef</text>
</g>
<!-- Node30&#45;&gt;Node32 -->
<g id="edge33" class="edge">
<title>Node30&#45;&gt;Node32</title>
<path fill="none" stroke="#191970" d="M1746.6987,-134.3948C1772.3419,-125.3827 1811.4571,-111.3316 1845,-98 1846.6086,-97.3607 1848.2529,-96.6954 1849.91,-96.0156"/>
<polygon fill="#191970" stroke="#191970" points="1851.5126,-99.1388 1859.3805,-92.0433 1848.8051,-92.6837 1851.5126,-99.1388"/>
</g>
<!-- Node33 -->
<g id="node34" class="node">
<title>Node33</title>
<polygon fill="none" stroke="#bfbfbf" points="1926,-73 1926,-92 1976,-92 1976,-73 1926,-73"/>
<text text-anchor="middle" x="1951" y="-80" font-family="Helvetica,sans-Serif" font-size="10.00" fill="#000000">atomic</text>
</g>
<!-- Node30&#45;&gt;Node33 -->
<g id="edge34" class="edge">
<title>Node30&#45;&gt;Node33</title>
<path fill="none" stroke="#191970" d="M1772.008,-134.4295C1812.0966,-126.5201 1868.2094,-114.0043 1916,-98 1917.8905,-97.3669 1919.8185,-96.6693 1921.7494,-95.9311"/>
<polygon fill="#191970" stroke="#191970" points="1923.3528,-99.056 1931.2661,-92.0111 1920.6867,-92.5836 1923.3528,-99.056"/>
</g>
<!-- Node34 -->
<g id="node35" class="node">
<title>Node34</title>
<polygon fill="none" stroke="#bfbfbf" points="1994.5,-67.5 1994.5,-97.5 2159.5,-97.5 2159.5,-67.5 1994.5,-67.5"/>
<text text-anchor="start" x="2002.5" y="-85.5" font-family="Helvetica,sans-Serif" font-size="10.00" fill="#000000">boost/interprocess</text>
<text text-anchor="middle" x="2077" y="-74.5" font-family="Helvetica,sans-Serif" font-size="10.00" fill="#000000">/managed_external_buffer.hpp</text>
</g>
<!-- Node30&#45;&gt;Node34 -->
<g id="edge35" class="edge">
<title>Node30&#45;&gt;Node34</title>
<path fill="none" stroke="#191970" d="M1774.5447,-134.4581C1830.4936,-124.8468 1917.8166,-109.8457 1984.2801,-98.4281"/>
<polygon fill="#191970" stroke="#191970" points="1985.0808,-101.8419 1994.3438,-96.6993 1983.8956,-94.943 1985.0808,-101.8419"/>
</g>
<!-- Node35 -->
<g id="node36" class="node">
<title>Node35</title>
<polygon fill="none" stroke="#bfbfbf" points="1652,-67.5 1652,-97.5 1786,-97.5 1786,-67.5 1652,-67.5"/>
<text text-anchor="start" x="1660" y="-85.5" font-family="Helvetica,sans-Serif" font-size="10.00" fill="#000000">boost/interprocess</text>
<text text-anchor="middle" x="1719" y="-74.5" font-family="Helvetica,sans-Serif" font-size="10.00" fill="#000000">/allocators/allocator.hpp</text>
</g>
<!-- Node30&#45;&gt;Node35 -->
<g id="edge36" class="edge">
<title>Node30&#45;&gt;Node35</title>
<path fill="none" stroke="#191970" d="M1719,-134.3906C1719,-127.2234 1719,-117.0862 1719,-107.671"/>
<polygon fill="#191970" stroke="#191970" points="1722.5001,-107.5446 1719,-97.5446 1715.5001,-107.5446 1722.5001,-107.5446"/>
</g>
<!-- Node37&#45;&gt;Node4 -->
<g id="edge39" class="edge">
<title>Node37&#45;&gt;Node4</title>
<path fill="none" stroke="#191970" d="M1403.8501,-257.4448C1295.5145,-231.6171 1076.4151,-179.3828 977.9315,-155.9039"/>
<polygon fill="#191970" stroke="#191970" points="978.4782,-152.4362 967.9391,-153.5217 976.8548,-159.2454 978.4782,-152.4362"/>
</g>
<!-- Node38&#45;&gt;Node4 -->
<g id="edge41" class="edge">
<title>Node38&#45;&gt;Node4</title>
<path fill="none" stroke="#191970" d="M1879.4727,-193.1661C1871.5908,-191.9361 1863.6254,-190.8356 1856,-190 1480.3744,-148.8381 1380.4003,-187.9264 1000.844,-154.0852"/>
<polygon fill="#191970" stroke="#191970" points="1000.9554,-150.5811 990.6811,-153.1677 1000.3259,-157.5527 1000.9554,-150.5811"/>
</g>
<!-- Node38&#45;&gt;Node36 -->
<g id="edge43" class="edge">
<title>Node38&#45;&gt;Node36</title>
<path fill="none" stroke="#191970" d="M1918.2926,-190.4554C1902.4753,-180.8241 1882.0433,-168.3828 1866.3051,-158.7996"/>
<polygon fill="#191970" stroke="#191970" points="1868.0129,-155.7418 1857.6514,-153.5303 1864.3723,-161.7206 1868.0129,-155.7418"/>
</g>
<!-- Node39 -->
<g id="node40" class="node">
<title>Node39</title>
<polygon fill="none" stroke="#bfbfbf" points="1952,-134.5 1952,-153.5 2002,-153.5 2002,-134.5 1952,-134.5"/>
<text text-anchor="middle" x="1977" y="-141.5" font-family="Helvetica,sans-Serif" font-size="10.00" fill="#000000">cstdint</text>
</g>
<!-- Node38&#45;&gt;Node39 -->
<g id="edge42" class="edge">
<title>Node38&#45;&gt;Node39</title>
<path fill="none" stroke="#191970" d="M1951.4045,-190.2977C1956.0257,-181.9388 1961.7969,-171.4997 1966.6889,-162.6509"/>
<polygon fill="#191970" stroke="#191970" points="1969.7809,-164.292 1971.5562,-153.8469 1963.6548,-160.9051 1969.7809,-164.292"/>
</g>
<!-- Node40 -->
<g id="node41" class="node">
<title>Node40</title>
<polygon fill="none" stroke="#bfbfbf" points="2020.5,-134.5 2020.5,-153.5 2085.5,-153.5 2085.5,-134.5 2020.5,-134.5"/>
<text text-anchor="middle" x="2053" y="-141.5" font-family="Helvetica,sans-Serif" font-size="10.00" fill="#000000">stdexcept</text>
</g>
<!-- Node38&#45;&gt;Node40 -->
<g id="edge44" class="edge">
<title>Node38&#45;&gt;Node40</title>
<path fill="none" stroke="#191970" d="M1969.909,-190.4554C1987.2968,-180.734 2009.8049,-168.15 2027.0084,-158.5317"/>
<polygon fill="#191970" stroke="#191970" points="2028.9335,-161.4653 2035.9539,-153.5303 2025.5174,-155.3554 2028.9335,-161.4653"/>
</g>
<!-- Node41 -->
<g id="node42" class="node">
<title>Node41</title>
<polygon fill="none" stroke="#bfbfbf" points="2104,-134.5 2104,-153.5 2152,-153.5 2152,-134.5 2104,-134.5"/>
<text text-anchor="middle" x="2128" y="-141.5" font-family="Helvetica,sans-Serif" font-size="10.00" fill="#000000">gsl/gsl</text>
</g>
<!-- Node38&#45;&gt;Node41 -->
<g id="edge45" class="edge">
<title>Node38&#45;&gt;Node41</title>
<path fill="none" stroke="#191970" d="M1988.2561,-190.4554C2021.0284,-179.5608 2064.616,-165.0709 2094.3415,-155.1892"/>
<polygon fill="#191970" stroke="#191970" points="2095.47,-158.5024 2103.8553,-152.0265 2093.2617,-151.8599 2095.47,-158.5024"/>
</g>
<!-- Node42 -->
<g id="node43" class="node">
<title>Node42</title>
<polygon fill="none" stroke="#bfbfbf" points="2170.5,-134.5 2170.5,-153.5 2239.5,-153.5 2239.5,-134.5 2170.5,-134.5"/>
<text text-anchor="middle" x="2205" y="-141.5" font-family="Helvetica,sans-Serif" font-size="10.00" fill="#000000">type_traits</text>
</g>
<!-- Node38&#45;&gt;Node42 -->
<g id="edge46" class="edge">
<title>Node38&#45;&gt;Node42</title>
<path fill="none" stroke="#191970" d="M2006.7574,-190.534C2054.3344,-179.3662 2118.1464,-164.3874 2160.3678,-154.4767"/>
<polygon fill="#191970" stroke="#191970" points="2161.4144,-157.8262 2170.35,-152.1335 2159.8147,-151.0114 2161.4144,-157.8262"/>
</g>
<!-- Node43 -->
<g id="node44" class="node">
<title>Node43</title>
<polygon fill="none" stroke="#bfbfbf" points="2258,-134.5 2258,-153.5 2308,-153.5 2308,-134.5 2258,-134.5"/>
<text text-anchor="middle" x="2283" y="-141.5" font-family="Helvetica,sans-Serif" font-size="10.00" fill="#000000">cstring</text>
</g>
<!-- Node38&#45;&gt;Node43 -->
<g id="edge47" class="edge">
<title>Node38&#45;&gt;Node43</title>
<path fill="none" stroke="#191970" d="M2006.6601,-191.7667C2009.8151,-191.154 2012.9416,-190.5615 2016,-190 2118.6296,-171.1566 2146.0823,-176.3761 2248,-154 2248.1003,-153.978 2248.2007,-153.9558 2248.3013,-153.9336"/>
<polygon fill="#191970" stroke="#191970" points="2248.9828,-157.3703 2257.8602,-151.5874 2247.3141,-150.5721 2248.9828,-157.3703"/>
</g>
<!-- Node44 -->
<g id="node45" class="node">
<title>Node44</title>
<polygon fill="none" stroke="#bfbfbf" points="2326,-134.5 2326,-153.5 2384,-153.5 2384,-134.5 2326,-134.5"/>
<text text-anchor="middle" x="2355" y="-141.5" font-family="Helvetica,sans-Serif" font-size="10.00" fill="#000000">memory</text>
</g>
<!-- Node38&#45;&gt;Node44 -->
<g id="edge48" class="edge">
<title>Node38&#45;&gt;Node44</title>
<path fill="none" stroke="#191970" d="M2006.6371,-191.635C2009.7982,-191.0571 2012.9323,-190.5081 2016,-190 2145.6754,-168.5233 2182.8449,-178.6764 2315.4924,-154.0708"/>
<polygon fill="#191970" stroke="#191970" points="2316.4558,-157.4509 2325.6333,-152.1572 2315.1577,-150.5723 2316.4558,-157.4509"/>
</g>
<!-- Node45 -->
<g id="node46" class="node">
<title>Node45</title>
<polygon fill="none" stroke="#bfbfbf" points="1886.5,-134.5 1886.5,-153.5 1933.5,-153.5 1933.5,-134.5 1886.5,-134.5"/>
<text text-anchor="middle" x="1910" y="-141.5" font-family="Helvetica,sans-Serif" font-size="10.00" fill="#000000">vector</text>
</g>
<!-- Node38&#45;&gt;Node45 -->
<g id="edge49" class="edge">
<title>Node38&#45;&gt;Node45</title>
<path fill="none" stroke="#191970" d="M1934.8427,-190.2977C1930.4051,-182.0277 1924.875,-171.7215 1920.1596,-162.9339"/>
<polygon fill="#191970" stroke="#191970" points="1923.096,-161.0037 1915.2837,-153.8469 1916.9279,-164.3134 1923.096,-161.0037"/>
</g>
</g>
</svg>
