<?xml version="1.0" encoding="UTF-8" standalone="no"?>
<!DOCTYPE svg PUBLIC "-//W3C//DTD SVG 1.1//EN"
 "http://www.w3.org/Graphics/SVG/1.1/DTD/svg11.dtd">
<!-- Generated by graphviz version 2.40.1 (20161225.0304)
 -->
<!-- Title: /home/travis/build/AliceO2Group/AliceO2/Detectors/TPC/simulation/test/testTPCSimulation.cxx Pages: 1 -->
<!--zoomable 385 -->
<svg id="main" version="1.1" xmlns="http://www.w3.org/2000/svg" xmlns:xlink="http://www.w3.org/1999/xlink" xml:space="preserve" onload="init(evt)">
<style type="text/css"><![CDATA[
.edge:hover path { stroke: red; }
.edge:hover polygon { stroke: red; fill: red; }
]]></style>
<script type="text/javascript"><![CDATA[
var edges = document.getElementsByTagName('g');
if (edges && edges.length) {
  for (var i=0;i<edges.length;i++) {
    if (edges[i].id.substr(0,4)=='edge') {
      edges[i].setAttribute('class','edge');
    }
  }
}
]]></script>
        <defs>
                <circle id="rim" cx="0" cy="0" r="7"/>
                <circle id="rim2" cx="0" cy="0" r="3.5"/>
                <g id="zoomPlus">
                        <use xlink:href="#rim" fill="#404040">
                                <set attributeName="fill" to="#808080" begin="zoomplus.mouseover" end="zoomplus.mouseout"/>
                        </use>
                        <path d="M-4,0h8M0,-4v8" fill="none" stroke="white" stroke-width="1.5" pointer-events="none"/>
                </g>
                <g id="zoomMin">
                        <use xlink:href="#rim" fill="#404040">
                                <set attributeName="fill" to="#808080" begin="zoomminus.mouseover" end="zoomminus.mouseout"/>
                        </use>
                        <path d="M-4,0h8" fill="none" stroke="white" stroke-width="1.5" pointer-events="none"/>
                </g>
                <g id="dirArrow">
                        <path fill="none" stroke="white" stroke-width="1.5" d="M0,-3.0v7 M-2.5,-0.5L0,-3.0L2.5,-0.5"/>
                </g>
               <g id="resetDef">
                       <use xlink:href="#rim2" fill="#404040">
                               <set attributeName="fill" to="#808080" begin="reset.mouseover" end="reset.mouseout"/>
                       </use>
               </g>
        </defs>

<script type="text/javascript">
var viewWidth = 1861;
var viewHeight = 385;
var sectionId = 'dynsection-0';
</script>
<script xlink:href="../../svgpan.js"/>
<svg id="graph" class="graph">
<g id="viewport">
<title>/home/travis/build/AliceO2Group/AliceO2/Detectors/TPC/simulation/test/testTPCSimulation.cxx</title>
<!-- Node0 -->
<g id="node1" class="node">
<title>Node0</title>
<polygon fill="#bfbfbf" stroke="#000000" points="539,-324.5 539,-376.5 691,-376.5 691,-324.5 539,-324.5"/>
<text text-anchor="start" x="547" y="-364.5" font-family="Helvetica,sans-Serif" font-size="10.00" fill="#000000">/home/travis/build</text>
<text text-anchor="start" x="547" y="-353.5" font-family="Helvetica,sans-Serif" font-size="10.00" fill="#000000">/AliceO2Group/AliceO2</text>
<text text-anchor="start" x="547" y="-342.5" font-family="Helvetica,sans-Serif" font-size="10.00" fill="#000000">/Detectors/TPC/simulation</text>
<text text-anchor="middle" x="615" y="-331.5" font-family="Helvetica,sans-Serif" font-size="10.00" fill="#000000">/test/testTPCSimulation.cxx</text>
</g>
<!-- Node1 -->
<g id="node2" class="node">
<title>Node1</title>
<polygon fill="none" stroke="#bfbfbf" points="402,-263 402,-282 534,-282 534,-263 402,-263"/>
<text text-anchor="middle" x="468" y="-270" font-family="Helvetica,sans-Serif" font-size="10.00" fill="#000000">boost/test/unit_test.hpp</text>
</g>
<!-- Node0&#45;&gt;Node1 -->
<g id="edge1" class="edge">
<title>Node0&#45;&gt;Node1</title>
<path fill="none" stroke="#191970" d="M565.6422,-324.3101C542.1315,-311.8351 514.9133,-297.3928 495.1958,-286.9304"/>
<polygon fill="#191970" stroke="#191970" points="496.6419,-283.7356 486.1679,-282.1401 493.3609,-289.919 496.6419,-283.7356"/>
</g>
<!-- Node2 -->
<g id="node3" class="node">
<title>Node2</title>
<g id="a_node3"><a xlink:href="../../d4/de5/Point_8h.html" target="_top" xlink:title="Class for TPC Point. ">
<polygon fill="none" stroke="#000000" points="552.5,-263 552.5,-282 677.5,-282 677.5,-263 552.5,-263"/>
<text text-anchor="middle" x="615" y="-270" font-family="Helvetica,sans-Serif" font-size="10.00" fill="#000000">TPCSimulation/Point.h</text>
</a>
</g>
</g>
<!-- Node0&#45;&gt;Node2 -->
<g id="edge2" class="edge">
<title>Node0&#45;&gt;Node2</title>
<path fill="none" stroke="#191970" d="M615,-324.0928C615,-313.6735 615,-301.911 615,-292.2512"/>
<polygon fill="#191970" stroke="#191970" points="618.5001,-292.0838 615,-282.0839 611.5001,-292.0839 618.5001,-292.0838"/>
</g>
<!-- Node25 -->
<g id="node26" class="node">
<title>Node25</title>
<g id="a_node26"><a xlink:href="../../dd/df5/DigitMCMetaData_8h.html" target="_top" xlink:title="Definition of the Meta Data object of the Monte Carlo Digit. ">
<polygon fill="none" stroke="#000000" points="1215.5,-257.5 1215.5,-287.5 1368.5,-287.5 1368.5,-257.5 1215.5,-257.5"/>
<text text-anchor="start" x="1223.5" y="-275.5" font-family="Helvetica,sans-Serif" font-size="10.00" fill="#000000">TPCSimulation/DigitMCMeta</text>
<text text-anchor="middle" x="1292" y="-264.5" font-family="Helvetica,sans-Serif" font-size="10.00" fill="#000000">Data.h</text>
</a>
</g>
</g>
<!-- Node0&#45;&gt;Node25 -->
<g id="edge25" class="edge">
<title>Node0&#45;&gt;Node25</title>
<path fill="none" stroke="#191970" d="M691.0169,-341.7418C817.767,-327.1384 1071.522,-297.9022 1205.1352,-282.5081"/>
<polygon fill="#191970" stroke="#191970" points="1205.7953,-285.9552 1215.3289,-281.3336 1204.994,-279.0013 1205.7953,-285.9552"/>
</g>
<!-- Node3 -->
<g id="node4" class="node">
<title>Node3</title>
<g id="a_node4"><a xlink:href="../../d4/d25/BaseHits_8h.html" target="_top" xlink:title="SimulationDataFormat\l/BaseHits.h">
<polygon fill="none" stroke="#000000" points="762.5,-190.5 762.5,-220.5 889.5,-220.5 889.5,-190.5 762.5,-190.5"/>
<text text-anchor="start" x="770.5" y="-208.5" font-family="Helvetica,sans-Serif" font-size="10.00" fill="#000000">SimulationDataFormat</text>
<text text-anchor="middle" x="826" y="-197.5" font-family="Helvetica,sans-Serif" font-size="10.00" fill="#000000">/BaseHits.h</text>
</a>
</g>
</g>
<!-- Node2&#45;&gt;Node3 -->
<g id="edge3" class="edge">
<title>Node2&#45;&gt;Node3</title>
<path fill="none" stroke="#191970" d="M645.2312,-262.9005C677.4444,-252.6717 729.193,-236.2397 769.0846,-223.5727"/>
<polygon fill="#191970" stroke="#191970" points="770.2209,-226.8841 778.6927,-220.5218 768.1023,-220.2124 770.2209,-226.8841"/>
</g>
<!-- Node16 -->
<g id="node17" class="node">
<title>Node16</title>
<polygon fill="none" stroke="#bfbfbf" points="241.5,-196 241.5,-215 288.5,-215 288.5,-196 241.5,-196"/>
<text text-anchor="middle" x="265" y="-203" font-family="Helvetica,sans-Serif" font-size="10.00" fill="#000000">vector</text>
</g>
<!-- Node2&#45;&gt;Node16 -->
<g id="edge16" class="edge">
<title>Node2&#45;&gt;Node16</title>
<path fill="none" stroke="#191970" d="M572.8329,-262.9339C563.0622,-260.8532 552.6883,-258.7526 543,-257 434.6997,-237.4081 403.3834,-252.7353 298,-221 296.0908,-220.4251 294.1519,-219.757 292.2194,-219.0273"/>
<polygon fill="#191970" stroke="#191970" points="293.3503,-215.7049 282.7781,-215.0124 290.6109,-222.1467 293.3503,-215.7049"/>
</g>
<!-- Node17 -->
<g id="node18" class="node">
<title>Node17</title>
<g id="a_node18"><a xlink:href="../../d0/d91/ShmAllocator_8h.html" target="_top" xlink:title="CommonUtils/ShmAllocator.h">
<polygon fill="none" stroke="#000000" points="307,-196 307,-215 467,-215 467,-196 307,-196"/>
<text text-anchor="middle" x="387" y="-203" font-family="Helvetica,sans-Serif" font-size="10.00" fill="#000000">CommonUtils/ShmAllocator.h</text>
</a>
</g>
</g>
<!-- Node2&#45;&gt;Node17 -->
<g id="edge17" class="edge">
<title>Node2&#45;&gt;Node17</title>
<path fill="none" stroke="#191970" d="M582.3332,-262.9005C542.0379,-251.0594 473.4543,-230.9054 429.2055,-217.9025"/>
<polygon fill="#191970" stroke="#191970" points="430.1874,-214.5431 419.6062,-215.0817 428.2138,-221.2591 430.1874,-214.5431"/>
</g>
<!-- Node4 -->
<g id="node5" class="node">
<title>Node4</title>
<g id="a_node5"><a xlink:href="../../dd/d76/Cartesian3D_8h.html" target="_top" xlink:title="MathUtils/Cartesian3D.h">
<polygon fill="none" stroke="#000000" points="1052.5,-134.5 1052.5,-153.5 1187.5,-153.5 1187.5,-134.5 1052.5,-134.5"/>
<text text-anchor="middle" x="1120" y="-141.5" font-family="Helvetica,sans-Serif" font-size="10.00" fill="#000000">MathUtils/Cartesian3D.h</text>
</a>
</g>
</g>
<!-- Node3&#45;&gt;Node4 -->
<g id="edge4" class="edge">
<title>Node3&#45;&gt;Node4</title>
<path fill="none" stroke="#191970" d="M889.7936,-192.1554C941.9327,-181.2488 1014.8953,-165.9862 1064.6111,-155.5864"/>
<polygon fill="#191970" stroke="#191970" points="1065.4695,-158.9827 1074.541,-153.5093 1064.0362,-152.131 1065.4695,-158.9827"/>
</g>
<!-- Node5 -->
<g id="node6" class="node">
<title>Node5</title>
<polygon fill="none" stroke="#bfbfbf" points="747,-67.5 747,-97.5 911,-97.5 911,-67.5 747,-67.5"/>
<text text-anchor="start" x="755" y="-85.5" font-family="Helvetica,sans-Serif" font-size="10.00" fill="#000000">Math/GenVector/Displacement</text>
<text text-anchor="middle" x="829" y="-74.5" font-family="Helvetica,sans-Serif" font-size="10.00" fill="#000000">Vector3D.h</text>
</g>
<!-- Node4&#45;&gt;Node5 -->
<g id="edge5" class="edge">
<title>Node4&#45;&gt;Node5</title>
<path fill="none" stroke="#191970" d="M1074.8505,-134.4581C1030.9826,-125.187 963.3862,-110.9012 910.1673,-99.6539"/>
<polygon fill="#191970" stroke="#191970" points="910.5746,-96.1628 900.067,-97.5193 909.1271,-103.0115 910.5746,-96.1628"/>
</g>
<!-- Node6 -->
<g id="node7" class="node">
<title>Node6</title>
<polygon fill="none" stroke="#bfbfbf" points="929.5,-73 929.5,-92 1118.5,-92 1118.5,-73 929.5,-73"/>
<text text-anchor="middle" x="1024" y="-80" font-family="Helvetica,sans-Serif" font-size="10.00" fill="#000000">Math/GenVector/PositionVector3D.h</text>
</g>
<!-- Node4&#45;&gt;Node6 -->
<g id="edge6" class="edge">
<title>Node4&#45;&gt;Node6</title>
<path fill="none" stroke="#191970" d="M1105,-134.3906C1089.6419,-124.5519 1065.5479,-109.1167 1047.6255,-97.6351"/>
<polygon fill="#191970" stroke="#191970" points="1049.203,-94.4891 1038.8947,-92.0419 1045.427,-100.3833 1049.203,-94.4891"/>
</g>
<!-- Node7 -->
<g id="node8" class="node">
<title>Node7</title>
<polygon fill="none" stroke="#bfbfbf" points="1137,-73 1137,-92 1297,-92 1297,-73 1137,-73"/>
<text text-anchor="middle" x="1217" y="-80" font-family="Helvetica,sans-Serif" font-size="10.00" fill="#000000">Math/GenVector/Rotation3D.h</text>
</g>
<!-- Node4&#45;&gt;Node7 -->
<g id="edge7" class="edge">
<title>Node4&#45;&gt;Node7</title>
<path fill="none" stroke="#191970" d="M1135.1563,-134.3906C1150.6743,-124.5519 1175.0193,-109.1167 1193.1284,-97.6351"/>
<polygon fill="#191970" stroke="#191970" points="1195.3787,-100.3526 1201.9502,-92.0419 1191.6304,-94.4407 1195.3787,-100.3526"/>
</g>
<!-- Node8 -->
<g id="node9" class="node">
<title>Node8</title>
<polygon fill="none" stroke="#bfbfbf" points="1315,-73 1315,-92 1483,-92 1483,-73 1315,-73"/>
<text text-anchor="middle" x="1399" y="-80" font-family="Helvetica,sans-Serif" font-size="10.00" fill="#000000">Math/GenVector/Transform3D.h</text>
</g>
<!-- Node4&#45;&gt;Node8 -->
<g id="edge8" class="edge">
<title>Node4&#45;&gt;Node8</title>
<path fill="none" stroke="#191970" d="M1163.2876,-134.4581C1212.4642,-123.6181 1292.7424,-105.9224 1345.723,-94.2439"/>
<polygon fill="#191970" stroke="#191970" points="1346.5987,-97.6349 1355.6108,-92.0643 1345.0918,-90.799 1346.5987,-97.6349"/>
</g>
<!-- Node9 -->
<g id="node10" class="node">
<title>Node9</title>
<polygon fill="none" stroke="#bfbfbf" points="1501.5,-73 1501.5,-92 1674.5,-92 1674.5,-73 1501.5,-73"/>
<text text-anchor="middle" x="1588" y="-80" font-family="Helvetica,sans-Serif" font-size="10.00" fill="#000000">Math/GenVector/Translation3D.h</text>
</g>
<!-- Node4&#45;&gt;Node9 -->
<g id="edge9" class="edge">
<title>Node4&#45;&gt;Node9</title>
<path fill="none" stroke="#191970" d="M1187.6416,-136.3984C1262.2659,-127.8344 1385.8609,-113.1256 1492,-98 1501.4275,-96.6565 1511.3613,-95.1526 1521.1204,-93.6241"/>
<polygon fill="#191970" stroke="#191970" points="1521.8693,-97.0492 1531.1987,-92.0281 1520.7743,-90.1353 1521.8693,-97.0492"/>
</g>
<!-- Node10 -->
<g id="node11" class="node">
<title>Node10</title>
<polygon fill="none" stroke="#bfbfbf" points="1793.5,-73 1793.5,-92 1852.5,-92 1852.5,-73 1793.5,-73"/>
<text text-anchor="middle" x="1823" y="-80" font-family="Helvetica,sans-Serif" font-size="10.00" fill="#000000">Rtypes.h</text>
</g>
<!-- Node4&#45;&gt;Node10 -->
<g id="edge10" class="edge">
<title>Node4&#45;&gt;Node10</title>
<path fill="none" stroke="#191970" d="M1187.6964,-141.959C1333.2707,-137.1387 1671.9597,-123.4936 1784,-98 1786.864,-97.3483 1789.793,-96.5176 1792.6957,-95.5802"/>
<polygon fill="#191970" stroke="#191970" points="1794.1208,-98.7866 1802.3296,-92.0884 1791.7354,-92.2055 1794.1208,-98.7866"/>
</g>
<!-- Node11 -->
<g id="node12" class="node">
<title>Node11</title>
<polygon fill="none" stroke="#bfbfbf" points="1693,-73 1693,-92 1775,-92 1775,-73 1693,-73"/>
<text text-anchor="middle" x="1734" y="-80" font-family="Helvetica,sans-Serif" font-size="10.00" fill="#000000">TGeoMatrix.h</text>
</g>
<!-- Node4&#45;&gt;Node11 -->
<g id="edge11" class="edge">
<title>Node4&#45;&gt;Node11</title>
<path fill="none" stroke="#191970" d="M1187.7495,-140.3398C1316.2069,-133.0912 1590.6794,-116.0435 1684,-98 1688.3847,-97.1522 1692.9285,-96.0588 1697.4086,-94.8452"/>
<polygon fill="#191970" stroke="#191970" points="1698.4048,-98.2006 1707.0283,-92.0455 1696.4486,-91.4795 1698.4048,-98.2006"/>
</g>
<!-- Node12 -->
<g id="node13" class="node">
<title>Node12</title>
<polygon fill="none" stroke="#bfbfbf" points="526.5,-73 526.5,-92 575.5,-92 575.5,-73 526.5,-73"/>
<text text-anchor="middle" x="551" y="-80" font-family="Helvetica,sans-Serif" font-size="10.00" fill="#000000">iosfwd</text>
</g>
<!-- Node4&#45;&gt;Node12 -->
<g id="edge12" class="edge">
<title>Node4&#45;&gt;Node12</title>
<path fill="none" stroke="#191970" d="M1052.1538,-141.0509C928.5478,-135.2005 671.4493,-120.697 585,-98 582.8078,-97.4244 580.5807,-96.7173 578.3691,-95.9252"/>
<polygon fill="#191970" stroke="#191970" points="579.5084,-92.6096 568.9282,-92.0533 576.8522,-99.0861 579.5084,-92.6096"/>
</g>
<!-- Node13 -->
<g id="node14" class="node">
<title>Node13</title>
<g id="a_node14"><a xlink:href="../../d2/dd0/Cartesian2D_8h.html" target="_top" xlink:title="MathUtils/Cartesian2D.h">
<polygon fill="none" stroke="#000000" points="593.5,-73 593.5,-92 728.5,-92 728.5,-73 593.5,-73"/>
<text text-anchor="middle" x="661" y="-80" font-family="Helvetica,sans-Serif" font-size="10.00" fill="#000000">MathUtils/Cartesian2D.h</text>
</a>
</g>
</g>
<!-- Node4&#45;&gt;Node13 -->
<g id="edge13" class="edge">
<title>Node4&#45;&gt;Node13</title>
<path fill="none" stroke="#191970" d="M1052.4963,-137.4959C975.9859,-129.7474 847.6475,-115.6097 738,-98 730.6044,-96.8123 722.8375,-95.4206 715.1991,-93.9672"/>
<polygon fill="#191970" stroke="#191970" points="715.7585,-90.5105 705.2737,-92.033 714.4196,-97.3812 715.7585,-90.5105"/>
</g>
<!-- Node14 -->
<g id="node15" class="node">
<title>Node14</title>
<polygon fill="none" stroke="#bfbfbf" points="481,-.5 481,-30.5 645,-30.5 645,-.5 481,-.5"/>
<text text-anchor="start" x="489" y="-18.5" font-family="Helvetica,sans-Serif" font-size="10.00" fill="#000000">Math/GenVector/Displacement</text>
<text text-anchor="middle" x="563" y="-7.5" font-family="Helvetica,sans-Serif" font-size="10.00" fill="#000000">Vector2D.h</text>
</g>
<!-- Node13&#45;&gt;Node14 -->
<g id="edge14" class="edge">
<title>Node13&#45;&gt;Node14</title>
<path fill="none" stroke="#191970" d="M646.959,-72.9005C633.0412,-63.3853 611.272,-48.5023 593.388,-36.2755"/>
<polygon fill="#191970" stroke="#191970" points="595.2026,-33.2763 584.9721,-30.5218 591.2519,-39.0549 595.2026,-33.2763"/>
</g>
<!-- Node15 -->
<g id="node16" class="node">
<title>Node15</title>
<polygon fill="none" stroke="#bfbfbf" points="663.5,-6 663.5,-25 852.5,-25 852.5,-6 663.5,-6"/>
<text text-anchor="middle" x="758" y="-13" font-family="Helvetica,sans-Serif" font-size="10.00" fill="#000000">Math/GenVector/PositionVector2D.h</text>
</g>
<!-- Node13&#45;&gt;Node15 -->
<g id="edge15" class="edge">
<title>Node13&#45;&gt;Node15</title>
<path fill="none" stroke="#191970" d="M674.8977,-72.9005C690.8164,-61.9052 717.1121,-43.7422 735.8599,-30.7927"/>
<polygon fill="#191970" stroke="#191970" points="737.8892,-33.6448 744.128,-25.0817 733.9108,-27.8852 737.8892,-33.6448"/>
</g>
<!-- Node18 -->
<g id="node19" class="node">
<title>Node18</title>
<g id="a_node19"><a xlink:href="../../de/d61/ShmManager_8h.html" target="_top" xlink:title="CommonUtils/ShmManager.h">
<polygon fill="none" stroke="#000000" points="194,-134.5 194,-153.5 352,-153.5 352,-134.5 194,-134.5"/>
<text text-anchor="middle" x="273" y="-141.5" font-family="Helvetica,sans-Serif" font-size="10.00" fill="#000000">CommonUtils/ShmManager.h</text>
</a>
</g>
</g>
<!-- Node17&#45;&gt;Node18 -->
<g id="edge18" class="edge">
<title>Node17&#45;&gt;Node18</title>
<path fill="none" stroke="#191970" d="M369.1875,-195.8906C350.5315,-185.8262 321.0203,-169.9057 299.6026,-158.3514"/>
<polygon fill="#191970" stroke="#191970" points="301.1502,-155.2095 290.6874,-153.5419 297.8266,-161.3702 301.1502,-155.2095"/>
</g>
<!-- Node24 -->
<g id="node25" class="node">
<title>Node24</title>
<polygon fill="none" stroke="#bfbfbf" points="124,-134.5 124,-153.5 176,-153.5 176,-134.5 124,-134.5"/>
<text text-anchor="middle" x="150" y="-141.5" font-family="Helvetica,sans-Serif" font-size="10.00" fill="#000000">cassert</text>
</g>
<!-- Node17&#45;&gt;Node24 -->
<g id="edge24" class="edge">
<title>Node17&#45;&gt;Node24</title>
<path fill="none" stroke="#191970" d="M348.1889,-195.9559C309.5246,-186.37 248.2229,-170.9624 186.2923,-154.3005"/>
<polygon fill="#191970" stroke="#191970" points="186.9174,-150.844 176.3507,-151.6163 185.0927,-157.602 186.9174,-150.844"/>
</g>
<!-- Node19 -->
<g id="node20" class="node">
<title>Node19</title>
<polygon fill="none" stroke="#bfbfbf" points="0,-73 0,-92 32,-92 32,-73 0,-73"/>
<text text-anchor="middle" x="16" y="-80" font-family="Helvetica,sans-Serif" font-size="10.00" fill="#000000">list</text>
</g>
<!-- Node18&#45;&gt;Node19 -->
<g id="edge19" class="edge">
<title>Node18&#45;&gt;Node19</title>
<path fill="none" stroke="#191970" d="M212.2154,-134.4813C154.2875,-124.9543 71.5145,-110.0243 41,-98 40.1477,-97.6642 39.2922,-97.2993 38.438,-96.9111"/>
<polygon fill="#191970" stroke="#191970" points="40.0121,-93.7836 29.5486,-92.1202 36.691,-99.9456 40.0121,-93.7836"/>
</g>
<!-- Node20 -->
<g id="node21" class="node">
<title>Node20</title>
<polygon fill="none" stroke="#bfbfbf" points="50.5,-73 50.5,-92 103.5,-92 103.5,-73 50.5,-73"/>
<text text-anchor="middle" x="77" y="-80" font-family="Helvetica,sans-Serif" font-size="10.00" fill="#000000">cstddef</text>
</g>
<!-- Node18&#45;&gt;Node20 -->
<g id="edge20" class="edge">
<title>Node18&#45;&gt;Node20</title>
<path fill="none" stroke="#191970" d="M234.7464,-134.4611C202.0596,-125.9648 153.9614,-112.6399 113,-98 111.1738,-97.3473 109.308,-96.6478 107.4341,-95.9201"/>
<polygon fill="#191970" stroke="#191970" points="108.7239,-92.6662 98.1426,-92.1314 106.0808,-99.1481 108.7239,-92.6662"/>
</g>
<!-- Node21 -->
<g id="node22" class="node">
<title>Node21</title>
<polygon fill="none" stroke="#bfbfbf" points="122,-73 122,-92 172,-92 172,-73 122,-73"/>
<text text-anchor="middle" x="147" y="-80" font-family="Helvetica,sans-Serif" font-size="10.00" fill="#000000">atomic</text>
</g>
<!-- Node18&#45;&gt;Node21 -->
<g id="edge21" class="edge">
<title>Node18&#45;&gt;Node21</title>
<path fill="none" stroke="#191970" d="M253.3125,-134.3906C232.5078,-124.2359 199.489,-108.1196 175.7681,-96.5416"/>
<polygon fill="#191970" stroke="#191970" points="177.0712,-93.283 166.5493,-92.0419 174.0007,-99.5736 177.0712,-93.283"/>
</g>
<!-- Node22 -->
<g id="node23" class="node">
<title>Node22</title>
<polygon fill="none" stroke="#bfbfbf" points="190.5,-67.5 190.5,-97.5 355.5,-97.5 355.5,-67.5 190.5,-67.5"/>
<text text-anchor="start" x="198.5" y="-85.5" font-family="Helvetica,sans-Serif" font-size="10.00" fill="#000000">boost/interprocess</text>
<text text-anchor="middle" x="273" y="-74.5" font-family="Helvetica,sans-Serif" font-size="10.00" fill="#000000">/managed_external_buffer.hpp</text>
</g>
<!-- Node18&#45;&gt;Node22 -->
<g id="edge22" class="edge">
<title>Node18&#45;&gt;Node22</title>
<path fill="none" stroke="#191970" d="M273,-134.3906C273,-127.2234 273,-117.0862 273,-107.671"/>
<polygon fill="#191970" stroke="#191970" points="276.5001,-107.5446 273,-97.5446 269.5001,-107.5446 276.5001,-107.5446"/>
</g>
<!-- Node23 -->
<g id="node24" class="node">
<title>Node23</title>
<polygon fill="none" stroke="#bfbfbf" points="374,-67.5 374,-97.5 508,-97.5 508,-67.5 374,-67.5"/>
<text text-anchor="start" x="382" y="-85.5" font-family="Helvetica,sans-Serif" font-size="10.00" fill="#000000">boost/interprocess</text>
<text text-anchor="middle" x="441" y="-74.5" font-family="Helvetica,sans-Serif" font-size="10.00" fill="#000000">/allocators/allocator.hpp</text>
</g>
<!-- Node18&#45;&gt;Node23 -->
<g id="edge23" class="edge">
<title>Node18&#45;&gt;Node23</title>
<path fill="none" stroke="#191970" d="M299.25,-134.3906C323.5657,-125.4893 360.3947,-112.0073 390.4183,-101.0165"/>
<polygon fill="#191970" stroke="#191970" points="391.7152,-104.269 399.9026,-97.5446 389.3088,-97.6956 391.7152,-104.269"/>
</g>
<!-- Node25&#45;&gt;Node10 -->
<g id="edge26" class="edge">
<title>Node25&#45;&gt;Node10</title>
<path fill="none" stroke="#191970" d="M1336.3043,-257.4096C1422.7554,-227.826 1619.8457,-159.7064 1784,-98 1785.8414,-97.3078 1787.7282,-96.5892 1789.6304,-95.8575"/>
<polygon fill="#191970" stroke="#191970" points="1791.0862,-99.0465 1799.1298,-92.1507 1788.5416,-92.5253 1791.0862,-99.0465"/>
</g>
</g>
</svg>
        <g id="navigator" transform="translate(0 0)" fill="#404254">
                <rect fill="#f2f5e9" fill-opacity="0.5" stroke="#606060" stroke-width=".5" x="0" y="0" width="60" height="60"/>
                <use id="zoomplus" xlink:href="#zoomPlus" x="17" y="9" onmousedown="handleZoom(evt,'in')"/>
                <use id="zoomminus" xlink:href="#zoomMin" x="42" y="9" onmousedown="handleZoom(evt,'out')"/>
                <use id="reset" xlink:href="#resetDef" x="30" y="36" onmousedown="handleReset()"/>
                <g id="arrowUp" xlink:href="#dirArrow" transform="translate(30 24)" onmousedown="handlePan(0,-1)">
                  <use xlink:href="#rim" fill="#404040">
                        <set attributeName="fill" to="#808080" begin="arrowUp.mouseover" end="arrowUp.mouseout"/>
                  </use>
                  <path fill="none" stroke="white" stroke-width="1.5" d="M0,-3.0v7 M-2.5,-0.5L0,-3.0L2.5,-0.5"/>
                </g>
                <g id="arrowRight" xlink:href="#dirArrow" transform="rotate(90) translate(36 -43)" onmousedown="handlePan(1,0)">
                  <use xlink:href="#rim" fill="#404040">
                        <set attributeName="fill" to="#808080" begin="arrowRight.mouseover" end="arrowRight.mouseout"/>
                  </use>
                  <path fill="none" stroke="white" stroke-width="1.5" d="M0,-3.0v7 M-2.5,-0.5L0,-3.0L2.5,-0.5"/>
                </g>
                <g id="arrowDown" xlink:href="#dirArrow" transform="rotate(180) translate(-30 -48)" onmousedown="handlePan(0,1)">
                  <use xlink:href="#rim" fill="#404040">
                        <set attributeName="fill" to="#808080" begin="arrowDown.mouseover" end="arrowDown.mouseout"/>
                  </use>
                  <path fill="none" stroke="white" stroke-width="1.5" d="M0,-3.0v7 M-2.5,-0.5L0,-3.0L2.5,-0.5"/>
                </g>
                <g id="arrowLeft" xlink:href="#dirArrow" transform="rotate(270) translate(-36 17)" onmousedown="handlePan(-1,0)">
                  <use xlink:href="#rim" fill="#404040">
                        <set attributeName="fill" to="#808080" begin="arrowLeft.mouseover" end="arrowLeft.mouseout"/>
                  </use>
                  <path fill="none" stroke="white" stroke-width="1.5" d="M0,-3.0v7 M-2.5,-0.5L0,-3.0L2.5,-0.5"/>
                </g>
        </g>
        <svg viewBox="0 0 15 15" width="100%" height="30px" preserveAspectRatio="xMaxYMin meet">
         <g id="arrow_out" transform="scale(0.3 0.3)">
          <a xlink:href="testTPCSimulation_8cxx__incl_org.svg" target="_base">
           <rect id="button" ry="5" rx="5" y="6" x="6" height="38" width="38"
                fill="#f2f5e9" fill-opacity="0.5" stroke="#606060" stroke-width="1.0"/>
           <path id="arrow"
             d="M 11.500037,31.436501 C 11.940474,20.09759 22.043105,11.32322 32.158766,21.979434 L 37.068811,17.246167 C 37.068811,17.246167 37.088388,32 37.088388,32 L 22.160133,31.978069 C 22.160133,31.978069 26.997745,27.140456 26.997745,27.140456 C 18.528582,18.264221 13.291696,25.230495 11.500037,31.436501 z"
             style="fill:#404040;"/>
          </a>
         </g>
        </svg>
</svg>
