<?xml version="1.0" encoding="UTF-8" standalone="no"?>
<!DOCTYPE svg PUBLIC "-//W3C//DTD SVG 1.1//EN"
 "http://www.w3.org/Graphics/SVG/1.1/DTD/svg11.dtd">
<!-- Generated by graphviz version 2.40.1 (20161225.0304)
 -->
<!-- Title: /home/travis/build/AliceO2Group/AliceO2/Framework/Core/test/unittest_SimpleOptionsRetriever.cxx Pages: 1 -->
<!--zoomable 363 -->
<svg id="main" version="1.1" xmlns="http://www.w3.org/2000/svg" xmlns:xlink="http://www.w3.org/1999/xlink" xml:space="preserve" onload="init(evt)">
<style type="text/css"><![CDATA[
.edge:hover path { stroke: red; }
.edge:hover polygon { stroke: red; fill: red; }
]]></style>
<script type="text/javascript"><![CDATA[
var edges = document.getElementsByTagName('g');
if (edges && edges.length) {
  for (var i=0;i<edges.length;i++) {
    if (edges[i].id.substr(0,4)=='edge') {
      edges[i].setAttribute('class','edge');
    }
  }
}
]]></script>
        <defs>
                <circle id="rim" cx="0" cy="0" r="7"/>
                <circle id="rim2" cx="0" cy="0" r="3.5"/>
                <g id="zoomPlus">
                        <use xlink:href="#rim" fill="#404040">
                                <set attributeName="fill" to="#808080" begin="zoomplus.mouseover" end="zoomplus.mouseout"/>
                        </use>
                        <path d="M-4,0h8M0,-4v8" fill="none" stroke="white" stroke-width="1.5" pointer-events="none"/>
                </g>
                <g id="zoomMin">
                        <use xlink:href="#rim" fill="#404040">
                                <set attributeName="fill" to="#808080" begin="zoomminus.mouseover" end="zoomminus.mouseout"/>
                        </use>
                        <path d="M-4,0h8" fill="none" stroke="white" stroke-width="1.5" pointer-events="none"/>
                </g>
                <g id="dirArrow">
                        <path fill="none" stroke="white" stroke-width="1.5" d="M0,-3.0v7 M-2.5,-0.5L0,-3.0L2.5,-0.5"/>
                </g>
               <g id="resetDef">
                       <use xlink:href="#rim2" fill="#404040">
                               <set attributeName="fill" to="#808080" begin="reset.mouseover" end="reset.mouseout"/>
                       </use>
               </g>
        </defs>

<script type="text/javascript">
var viewWidth = 917;
var viewHeight = 363;
var sectionId = 'dynsection-0';
</script>
<script xlink:href="../../svgpan.js"/>
<svg id="graph" class="graph">
<g id="viewport">
<title>/home/travis/build/AliceO2Group/AliceO2/Framework/Core/test/unittest_SimpleOptionsRetriever.cxx</title>
<!-- Node0 -->
<g id="node1" class="node">
<title>Node0</title>
<polygon fill="#bfbfbf" stroke="#000000" points="515.5,-302.5 515.5,-354.5 676.5,-354.5 676.5,-302.5 515.5,-302.5"/>
<text text-anchor="start" x="523.5" y="-342.5" font-family="Helvetica,sans-Serif" font-size="10.00" fill="#000000">/home/travis/build</text>
<text text-anchor="start" x="523.5" y="-331.5" font-family="Helvetica,sans-Serif" font-size="10.00" fill="#000000">/AliceO2Group/AliceO2</text>
<text text-anchor="start" x="523.5" y="-320.5" font-family="Helvetica,sans-Serif" font-size="10.00" fill="#000000">/Framework/Core/test/unittest</text>
<text text-anchor="middle" x="596" y="-309.5" font-family="Helvetica,sans-Serif" font-size="10.00" fill="#000000">_SimpleOptionsRetriever.cxx</text>
</g>
<!-- Node1 -->
<g id="node2" class="node">
<title>Node1</title>
<g id="a_node2"><a xlink:href="../../dd/d34/SimpleOptionsRetriever_8h.html" target="_top" xlink:title="Framework/SimpleOptionsRetriever.h">
<polygon fill="none" stroke="#000000" points="561.5,-246.5 561.5,-265.5 758.5,-265.5 758.5,-246.5 561.5,-246.5"/>
<text text-anchor="middle" x="660" y="-253.5" font-family="Helvetica,sans-Serif" font-size="10.00" fill="#000000">Framework/SimpleOptionsRetriever.h</text>
</a>
</g>
</g>
<!-- Node0&#45;&gt;Node1 -->
<g id="edge1" class="edge">
<title>Node0&#45;&gt;Node1</title>
<path fill="none" stroke="#191970" d="M619.1055,-302.3258C627.6796,-292.613 637.1791,-281.8518 644.8628,-273.1476"/>
<polygon fill="#191970" stroke="#191970" points="647.5897,-275.3472 651.5838,-265.534 642.3419,-270.7146 647.5897,-275.3472"/>
</g>
<!-- Node2 -->
<g id="node3" class="node">
<title>Node2</title>
<g id="a_node3"><a xlink:href="../../df/d72/ParamRetriever_8h.html" target="_top" xlink:title="Framework/ParamRetriever.h">
<polygon fill="none" stroke="#000000" points="448.5,-185 448.5,-204 605.5,-204 605.5,-185 448.5,-185"/>
<text text-anchor="middle" x="527" y="-192" font-family="Helvetica,sans-Serif" font-size="10.00" fill="#000000">Framework/ParamRetriever.h</text>
</a>
</g>
</g>
<!-- Node0&#45;&gt;Node2 -->
<g id="edge21" class="edge">
<title>Node0&#45;&gt;Node2</title>
<path fill="none" stroke="#191970" d="M575.8154,-302.3605C568.0247,-291.502 559.4539,-278.528 553,-266 544.3236,-249.1577 537.2076,-228.7423 532.6273,-214.0453"/>
<polygon fill="#191970" stroke="#191970" points="535.8619,-212.6469 529.6351,-204.075 529.1573,-214.6591 535.8619,-212.6469"/>
</g>
<!-- Node17 -->
<g id="node18" class="node">
<title>Node17</title>
<polygon fill="none" stroke="#bfbfbf" points="777,-246.5 777,-265.5 909,-265.5 909,-246.5 777,-246.5"/>
<text text-anchor="middle" x="843" y="-253.5" font-family="Helvetica,sans-Serif" font-size="10.00" fill="#000000">boost/test/unit_test.hpp</text>
</g>
<!-- Node0&#45;&gt;Node17 -->
<g id="edge20" class="edge">
<title>Node0&#45;&gt;Node17</title>
<path fill="none" stroke="#191970" d="M676.5353,-304.8611C718.05,-292.6756 766.9642,-278.3182 800.9827,-268.333"/>
<polygon fill="#191970" stroke="#191970" points="801.9906,-271.6849 810.6,-265.5101 800.019,-264.9683 801.9906,-271.6849"/>
</g>
<!-- Node18 -->
<g id="node19" class="node">
<title>Node18</title>
<g id="a_node19"><a xlink:href="../../dd/daf/ConfigParamStore_8h.html" target="_top" xlink:title="Framework/ConfigParamStore.h">
<polygon fill="none" stroke="#000000" points="335,-246.5 335,-265.5 505,-265.5 505,-246.5 335,-246.5"/>
<text text-anchor="middle" x="420" y="-253.5" font-family="Helvetica,sans-Serif" font-size="10.00" fill="#000000">Framework/ConfigParamStore.h</text>
</a>
</g>
</g>
<!-- Node0&#45;&gt;Node18 -->
<g id="edge22" class="edge">
<title>Node0&#45;&gt;Node18</title>
<path fill="none" stroke="#191970" d="M532.46,-302.3258C505.3565,-291.161 474.8903,-278.6111 452.5113,-269.3924"/>
<polygon fill="#191970" stroke="#191970" points="453.724,-266.1067 443.1446,-265.534 451.0577,-272.5791 453.724,-266.1067"/>
</g>
<!-- Node1&#45;&gt;Node2 -->
<g id="edge2" class="edge">
<title>Node1&#45;&gt;Node2</title>
<path fill="none" stroke="#191970" d="M639.2188,-246.3906C617.1606,-236.1908 582.095,-219.9763 557.0331,-208.3875"/>
<polygon fill="#191970" stroke="#191970" points="558.1809,-205.0622 547.6353,-204.0419 555.2429,-211.4158 558.1809,-205.0622"/>
</g>
<!-- Node13 -->
<g id="node14" class="node">
<title>Node13</title>
<polygon fill="none" stroke="#bfbfbf" points="715,-.5 715,-19.5 759,-19.5 759,-.5 715,-.5"/>
<text text-anchor="middle" x="737" y="-7.5" font-family="Helvetica,sans-Serif" font-size="10.00" fill="#000000">string</text>
</g>
<!-- Node1&#45;&gt;Node13 -->
<g id="edge19" class="edge">
<title>Node1&#45;&gt;Node13</title>
<path fill="none" stroke="#191970" d="M695.9657,-246.454C714.3626,-239.5484 735.1215,-228.1556 746,-210 780.6328,-152.1997 757.651,-67.2471 744.4543,-29.4127"/>
<polygon fill="#191970" stroke="#191970" points="747.6112,-27.8532 740.8972,-19.6573 741.0347,-30.2513 747.6112,-27.8532"/>
</g>
<!-- Node16 -->
<g id="node17" class="node">
<title>Node16</title>
<polygon fill="none" stroke="#bfbfbf" points="623.5,-179.5 623.5,-209.5 736.5,-209.5 736.5,-179.5 623.5,-179.5"/>
<text text-anchor="start" x="631.5" y="-197.5" font-family="Helvetica,sans-Serif" font-size="10.00" fill="#000000">boost/property_tree</text>
<text text-anchor="middle" x="680" y="-186.5" font-family="Helvetica,sans-Serif" font-size="10.00" fill="#000000">/ptree.hpp</text>
</g>
<!-- Node1&#45;&gt;Node16 -->
<g id="edge18" class="edge">
<title>Node1&#45;&gt;Node16</title>
<path fill="none" stroke="#191970" d="M663.125,-246.3906C665.5059,-239.0692 668.8947,-228.6488 672.0115,-219.0647"/>
<polygon fill="#191970" stroke="#191970" points="675.3432,-220.1368 675.1074,-209.5446 668.6863,-217.9719 675.3432,-220.1368"/>
</g>
<!-- Node3 -->
<g id="node4" class="node">
<title>Node3</title>
<g id="a_node4"><a xlink:href="../../d0/d1c/ConfigParamSpec_8h.html" target="_top" xlink:title="Framework/ConfigParamSpec.h">
<polygon fill="none" stroke="#000000" points="443.5,-118 443.5,-137 610.5,-137 610.5,-118 443.5,-118"/>
<text text-anchor="middle" x="527" y="-125" font-family="Helvetica,sans-Serif" font-size="10.00" fill="#000000">Framework/ConfigParamSpec.h</text>
</a>
</g>
</g>
<!-- Node2&#45;&gt;Node3 -->
<g id="edge3" class="edge">
<title>Node2&#45;&gt;Node3</title>
<path fill="none" stroke="#191970" d="M527,-184.9005C527,-175.149 527,-159.7597 527,-147.3695"/>
<polygon fill="#191970" stroke="#191970" points="530.5001,-147.0816 527,-137.0817 523.5001,-147.0817 530.5001,-147.0816"/>
</g>
<!-- Node2&#45;&gt;Node13 -->
<g id="edge16" class="edge">
<title>Node2&#45;&gt;Node13</title>
<path fill="none" stroke="#191970" d="M548.9803,-184.9733C568.6988,-175.8346 597.8552,-160.817 620,-143 663.7003,-107.8402 704.5181,-55.2728 724.3801,-27.9471"/>
<polygon fill="#191970" stroke="#191970" points="727.3039,-29.8758 730.2864,-19.7094 721.615,-25.7969 727.3039,-29.8758"/>
</g>
<!-- Node14 -->
<g id="node15" class="node">
<title>Node14</title>
<polygon fill="none" stroke="#bfbfbf" points="312.5,-112.5 312.5,-142.5 425.5,-142.5 425.5,-112.5 312.5,-112.5"/>
<text text-anchor="start" x="320.5" y="-130.5" font-family="Helvetica,sans-Serif" font-size="10.00" fill="#000000">boost/property_tree</text>
<text text-anchor="middle" x="369" y="-119.5" font-family="Helvetica,sans-Serif" font-size="10.00" fill="#000000">/ptree_fwd.hpp</text>
</g>
<!-- Node2&#45;&gt;Node14 -->
<g id="edge15" class="edge">
<title>Node2&#45;&gt;Node14</title>
<path fill="none" stroke="#191970" d="M504.3625,-184.9005C480.8017,-174.9096 443.285,-159.0006 413.7173,-146.4624"/>
<polygon fill="#191970" stroke="#191970" points="414.9973,-143.2036 404.4245,-142.5218 412.2645,-149.6481 414.9973,-143.2036"/>
</g>
<!-- Node15 -->
<g id="node16" class="node">
<title>Node15</title>
<polygon fill="none" stroke="#bfbfbf" points="666.5,-118 666.5,-137 713.5,-137 713.5,-118 666.5,-118"/>
<text text-anchor="middle" x="690" y="-125" font-family="Helvetica,sans-Serif" font-size="10.00" fill="#000000">vector</text>
</g>
<!-- Node2&#45;&gt;Node15 -->
<g id="edge17" class="edge">
<title>Node2&#45;&gt;Node15</title>
<path fill="none" stroke="#191970" d="M550.3539,-184.9005C578.4352,-173.3579 625.7335,-153.9163 657.4017,-140.8993"/>
<polygon fill="#191970" stroke="#191970" points="658.7709,-144.1207 666.6894,-137.0817 656.1096,-137.6463 658.7709,-144.1207"/>
</g>
<!-- Node4 -->
<g id="node5" class="node">
<title>Node4</title>
<g id="a_node5"><a xlink:href="../../de/d56/Variant_8h.html" target="_top" xlink:title="Framework/Variant.h">
<polygon fill="none" stroke="#000000" points="381.5,-56.5 381.5,-75.5 498.5,-75.5 498.5,-56.5 381.5,-56.5"/>
<text text-anchor="middle" x="440" y="-63.5" font-family="Helvetica,sans-Serif" font-size="10.00" fill="#000000">Framework/Variant.h</text>
</a>
</g>
</g>
<!-- Node3&#45;&gt;Node4 -->
<g id="edge4" class="edge">
<title>Node3&#45;&gt;Node4</title>
<path fill="none" stroke="#191970" d="M513.4063,-117.8906C499.6157,-108.1421 478.0528,-92.8994 461.859,-81.4521"/>
<polygon fill="#191970" stroke="#191970" points="463.6844,-78.4563 453.4983,-75.5419 459.6437,-84.1723 463.6844,-78.4563"/>
</g>
<!-- Node3&#45;&gt;Node13 -->
<g id="edge14" class="edge">
<title>Node3&#45;&gt;Node13</title>
<path fill="none" stroke="#191970" d="M538.0173,-117.9405C555.3865,-103.2128 590.6036,-74.72 624,-56 650.0736,-41.3847 681.7383,-28.9047 704.9072,-20.6469"/>
<polygon fill="#191970" stroke="#191970" points="706.3027,-23.867 714.5892,-17.2651 703.9943,-17.2585 706.3027,-23.867"/>
</g>
<!-- Node5 -->
<g id="node6" class="node">
<title>Node5</title>
<g id="a_node6"><a xlink:href="../../d1/d76/RuntimeError_8h.html" target="_top" xlink:title="Framework/RuntimeError.h">
<polygon fill="none" stroke="#000000" points="395,-.5 395,-19.5 541,-19.5 541,-.5 395,-.5"/>
<text text-anchor="middle" x="468" y="-7.5" font-family="Helvetica,sans-Serif" font-size="10.00" fill="#000000">Framework/RuntimeError.h</text>
</a>
</g>
</g>
<!-- Node4&#45;&gt;Node5 -->
<g id="edge5" class="edge">
<title>Node4&#45;&gt;Node5</title>
<path fill="none" stroke="#191970" d="M444.8772,-56.2455C448.6513,-48.6973 453.9921,-38.0158 458.5901,-28.8197"/>
<polygon fill="#191970" stroke="#191970" points="461.837,-30.1522 463.1787,-19.6427 455.576,-27.0217 461.837,-30.1522"/>
</g>
<!-- Node6 -->
<g id="node7" class="node">
<title>Node6</title>
<polygon fill="none" stroke="#bfbfbf" points="559.5,-.5 559.5,-19.5 628.5,-19.5 628.5,-.5 559.5,-.5"/>
<text text-anchor="middle" x="594" y="-7.5" font-family="Helvetica,sans-Serif" font-size="10.00" fill="#000000">type_traits</text>
</g>
<!-- Node4&#45;&gt;Node6 -->
<g id="edge6" class="edge">
<title>Node4&#45;&gt;Node6</title>
<path fill="none" stroke="#191970" d="M466.4735,-56.3733C491.8597,-47.1419 530.3645,-33.1402 558.422,-22.9375"/>
<polygon fill="#191970" stroke="#191970" points="559.6701,-26.2079 567.8719,-19.5011 557.2778,-19.6293 559.6701,-26.2079"/>
</g>
<!-- Node7 -->
<g id="node8" class="node">
<title>Node7</title>
<polygon fill="none" stroke="#bfbfbf" points="647,-.5 647,-19.5 697,-19.5 697,-.5 647,-.5"/>
<text text-anchor="middle" x="672" y="-7.5" font-family="Helvetica,sans-Serif" font-size="10.00" fill="#000000">cstring</text>
</g>
<!-- Node4&#45;&gt;Node7 -->
<g id="edge7" class="edge">
<title>Node4&#45;&gt;Node7</title>
<path fill="none" stroke="#191970" d="M484.2186,-56.4945C522.342,-48.127 579.0665,-35.2682 637.094,-20.1373"/>
<polygon fill="#191970" stroke="#191970" points="638.0115,-23.5151 646.7944,-17.5895 636.2333,-16.7447 638.0115,-23.5151"/>
</g>
<!-- Node8 -->
<g id="node9" class="node">
<title>Node8</title>
<polygon fill="none" stroke="#bfbfbf" points="0,-.5 0,-19.5 50,-19.5 50,-.5 0,-.5"/>
<text text-anchor="middle" x="25" y="-7.5" font-family="Helvetica,sans-Serif" font-size="10.00" fill="#000000">cstdint</text>
</g>
<!-- Node4&#45;&gt;Node8 -->
<g id="edge8" class="edge">
<title>Node4&#45;&gt;Node8</title>
<path fill="none" stroke="#191970" d="M381.4217,-61.9611C308.2568,-56.244 179.1948,-43.9463 60.1484,-19.9491"/>
<polygon fill="#191970" stroke="#191970" points="60.6325,-16.4756 50.1335,-17.8974 59.2276,-23.3332 60.6325,-16.4756"/>
</g>
<!-- Node9 -->
<g id="node10" class="node">
<title>Node9</title>
<polygon fill="none" stroke="#bfbfbf" points="68.5,-.5 68.5,-19.5 117.5,-19.5 117.5,-.5 68.5,-.5"/>
<text text-anchor="middle" x="93" y="-7.5" font-family="Helvetica,sans-Serif" font-size="10.00" fill="#000000">cstdlib</text>
</g>
<!-- Node4&#45;&gt;Node9 -->
<g id="edge9" class="edge">
<title>Node4&#45;&gt;Node9</title>
<path fill="none" stroke="#191970" d="M381.364,-60.0498C320.0976,-53.2418 221.1018,-40.5788 127.659,-20.1349"/>
<polygon fill="#191970" stroke="#191970" points="128.2823,-16.6881 117.7611,-17.9351 126.7636,-23.5213 128.2823,-16.6881"/>
</g>
<!-- Node10 -->
<g id="node11" class="node">
<title>Node10</title>
<polygon fill="none" stroke="#bfbfbf" points="135.5,-.5 135.5,-19.5 184.5,-19.5 184.5,-.5 135.5,-.5"/>
<text text-anchor="middle" x="160" y="-7.5" font-family="Helvetica,sans-Serif" font-size="10.00" fill="#000000">iosfwd</text>
</g>
<!-- Node4&#45;&gt;Node10 -->
<g id="edge10" class="edge">
<title>Node4&#45;&gt;Node10</title>
<path fill="none" stroke="#191970" d="M381.4736,-56.9667C333.4398,-49.1291 263.5107,-36.7523 194.5129,-20.1945"/>
<polygon fill="#191970" stroke="#191970" points="195.3293,-16.7911 184.7856,-17.8304 193.6761,-23.5931 195.3293,-16.7911"/>
</g>
<!-- Node11 -->
<g id="node12" class="node">
<title>Node11</title>
<polygon fill="none" stroke="#bfbfbf" points="202.5,-.5 202.5,-19.5 285.5,-19.5 285.5,-.5 202.5,-.5"/>
<text text-anchor="middle" x="244" y="-7.5" font-family="Helvetica,sans-Serif" font-size="10.00" fill="#000000">initializer_list</text>
</g>
<!-- Node4&#45;&gt;Node11 -->
<g id="edge11" class="edge">
<title>Node4&#45;&gt;Node11</title>
<path fill="none" stroke="#191970" d="M406.3064,-56.3733C373.2913,-46.9404 322.8427,-32.5265 286.9614,-22.2747"/>
<polygon fill="#191970" stroke="#191970" points="287.8307,-18.8831 277.2539,-19.5011 285.9076,-25.6137 287.8307,-18.8831"/>
</g>
<!-- Node12 -->
<g id="node13" class="node">
<title>Node12</title>
<polygon fill="none" stroke="#bfbfbf" points="303.5,-.5 303.5,-19.5 376.5,-19.5 376.5,-.5 303.5,-.5"/>
<text text-anchor="middle" x="340" y="-7.5" font-family="Helvetica,sans-Serif" font-size="10.00" fill="#000000">string_view</text>
</g>
<!-- Node4&#45;&gt;Node12 -->
<g id="edge12" class="edge">
<title>Node4&#45;&gt;Node12</title>
<path fill="none" stroke="#191970" d="M422.5813,-56.2455C406.9515,-47.4928 383.7981,-34.527 365.9815,-24.5496"/>
<polygon fill="#191970" stroke="#191970" points="367.6543,-21.475 357.2191,-19.6427 364.234,-27.5825 367.6543,-21.475"/>
</g>
<!-- Node4&#45;&gt;Node13 -->
<g id="edge13" class="edge">
<title>Node4&#45;&gt;Node13</title>
<path fill="none" stroke="#191970" d="M498.6062,-58.2867C550.6083,-50.8956 628.7373,-38.4563 704.9858,-19.9916"/>
<polygon fill="#191970" stroke="#191970" points="705.8816,-23.3757 714.7568,-17.5893 704.2103,-16.5781 705.8816,-23.3757"/>
</g>
<!-- Node18&#45;&gt;Node2 -->
<g id="edge23" class="edge">
<title>Node18&#45;&gt;Node2</title>
<path fill="none" stroke="#191970" d="M436.7188,-246.3906C454.0722,-236.4165 481.4323,-220.6908 501.4882,-209.1633"/>
<polygon fill="#191970" stroke="#191970" points="503.4728,-212.0596 510.3987,-204.0419 499.9846,-205.9907 503.4728,-212.0596"/>
</g>
<!-- Node18&#45;&gt;Node3 -->
<g id="edge24" class="edge">
<title>Node18&#45;&gt;Node3</title>
<path fill="none" stroke="#191970" d="M420.203,-246.4809C420.9934,-230.8725 424.5509,-199.5252 440,-179 452.7357,-162.0797 472.7923,-149.6689 490.4398,-141.2754"/>
<polygon fill="#191970" stroke="#191970" points="492.2388,-144.3047 499.9343,-137.0226 489.3772,-137.9163 492.2388,-144.3047"/>
</g>
<!-- Node18&#45;&gt;Node14 -->
<g id="edge25" class="edge">
<title>Node18&#45;&gt;Node14</title>
<path fill="none" stroke="#191970" d="M416.1667,-246.3416C408.2923,-226.5012 390.0837,-180.6227 378.7337,-152.0252"/>
<polygon fill="#191970" stroke="#191970" points="381.9755,-150.7052 375.0333,-142.7016 375.4692,-153.2875 381.9755,-150.7052"/>
</g>
</g>
</svg>
        <g id="navigator" transform="translate(0 0)" fill="#404254">
                <rect fill="#f2f5e9" fill-opacity="0.5" stroke="#606060" stroke-width=".5" x="0" y="0" width="60" height="60"/>
                <use id="zoomplus" xlink:href="#zoomPlus" x="17" y="9" onmousedown="handleZoom(evt,'in')"/>
                <use id="zoomminus" xlink:href="#zoomMin" x="42" y="9" onmousedown="handleZoom(evt,'out')"/>
                <use id="reset" xlink:href="#resetDef" x="30" y="36" onmousedown="handleReset()"/>
                <g id="arrowUp" xlink:href="#dirArrow" transform="translate(30 24)" onmousedown="handlePan(0,-1)">
                  <use xlink:href="#rim" fill="#404040">
                        <set attributeName="fill" to="#808080" begin="arrowUp.mouseover" end="arrowUp.mouseout"/>
                  </use>
                  <path fill="none" stroke="white" stroke-width="1.5" d="M0,-3.0v7 M-2.5,-0.5L0,-3.0L2.5,-0.5"/>
                </g>
                <g id="arrowRight" xlink:href="#dirArrow" transform="rotate(90) translate(36 -43)" onmousedown="handlePan(1,0)">
                  <use xlink:href="#rim" fill="#404040">
                        <set attributeName="fill" to="#808080" begin="arrowRight.mouseover" end="arrowRight.mouseout"/>
                  </use>
                  <path fill="none" stroke="white" stroke-width="1.5" d="M0,-3.0v7 M-2.5,-0.5L0,-3.0L2.5,-0.5"/>
                </g>
                <g id="arrowDown" xlink:href="#dirArrow" transform="rotate(180) translate(-30 -48)" onmousedown="handlePan(0,1)">
                  <use xlink:href="#rim" fill="#404040">
                        <set attributeName="fill" to="#808080" begin="arrowDown.mouseover" end="arrowDown.mouseout"/>
                  </use>
                  <path fill="none" stroke="white" stroke-width="1.5" d="M0,-3.0v7 M-2.5,-0.5L0,-3.0L2.5,-0.5"/>
                </g>
                <g id="arrowLeft" xlink:href="#dirArrow" transform="rotate(270) translate(-36 17)" onmousedown="handlePan(-1,0)">
                  <use xlink:href="#rim" fill="#404040">
                        <set attributeName="fill" to="#808080" begin="arrowLeft.mouseover" end="arrowLeft.mouseout"/>
                  </use>
                  <path fill="none" stroke="white" stroke-width="1.5" d="M0,-3.0v7 M-2.5,-0.5L0,-3.0L2.5,-0.5"/>
                </g>
        </g>
        <svg viewBox="0 0 15 15" width="100%" height="30px" preserveAspectRatio="xMaxYMin meet">
         <g id="arrow_out" transform="scale(0.3 0.3)">
          <a xlink:href="unittest__SimpleOptionsRetriever_8cxx__incl_org.svg" target="_base">
           <rect id="button" ry="5" rx="5" y="6" x="6" height="38" width="38"
                fill="#f2f5e9" fill-opacity="0.5" stroke="#606060" stroke-width="1.0"/>
           <path id="arrow"
             d="M 11.500037,31.436501 C 11.940474,20.09759 22.043105,11.32322 32.158766,21.979434 L 37.068811,17.246167 C 37.068811,17.246167 37.088388,32 37.088388,32 L 22.160133,31.978069 C 22.160133,31.978069 26.997745,27.140456 26.997745,27.140456 C 18.528582,18.264221 13.291696,25.230495 11.500037,31.436501 z"
             style="fill:#404040;"/>
          </a>
         </g>
        </svg>
</svg>
