<?xml version="1.0" encoding="UTF-8" standalone="no"?>
<!DOCTYPE svg PUBLIC "-//W3C//DTD SVG 1.1//EN"
 "http://www.w3.org/Graphics/SVG/1.1/DTD/svg11.dtd">
<!-- Generated by graphviz version 2.40.1 (20161225.0304)
 -->
<!-- Title: /home/travis/build/AliceO2Group/AliceO2/Detectors/TPC/reconstruction/include/TPCReconstruction/KrBoxClusterFinder.h Pages: 1 -->
<svg width="1724pt" height="598pt"
 viewBox="0.00 0.00 1724.00 598.00" xmlns="http://www.w3.org/2000/svg" xmlns:xlink="http://www.w3.org/1999/xlink">
<g id="graph0" class="graph" transform="scale(1 1) rotate(0) translate(4 594)">
<title>/home/travis/build/AliceO2Group/AliceO2/Detectors/TPC/reconstruction/include/TPCReconstruction/KrBoxClusterFinder.h</title>
<!-- Node0 -->
<g id="node1" class="node">
<title>Node0</title>
<polygon fill="#bfbfbf" stroke="#000000" points="1182.5,-526.5 1182.5,-589.5 1343.5,-589.5 1343.5,-526.5 1182.5,-526.5"/>
<text text-anchor="start" x="1190.5" y="-577.5" font-family="Helvetica,sans-Serif" font-size="10.00" fill="#000000">/home/travis/build</text>
<text text-anchor="start" x="1190.5" y="-566.5" font-family="Helvetica,sans-Serif" font-size="10.00" fill="#000000">/AliceO2Group/AliceO2</text>
<text text-anchor="start" x="1190.5" y="-555.5" font-family="Helvetica,sans-Serif" font-size="10.00" fill="#000000">/Detectors/TPC/reconstruction</text>
<text text-anchor="start" x="1190.5" y="-544.5" font-family="Helvetica,sans-Serif" font-size="10.00" fill="#000000">/include/TPCReconstruction</text>
<text text-anchor="middle" x="1263" y="-533.5" font-family="Helvetica,sans-Serif" font-size="10.00" fill="#000000">/KrBoxClusterFinder.h</text>
</g>
<!-- Node1 -->
<g id="node2" class="node">
<title>Node1</title>
<g id="a_node2"><a xlink:href="../../d3/d7d/DataFormats_2Detectors_2TPC_2include_2DataFormatsTPC_2Digit_8h.html" target="_top" xlink:title="DataFormatsTPC/Digit.h">
<polygon fill="none" stroke="#000000" points="326,-470.5 326,-489.5 460,-489.5 460,-470.5 326,-470.5"/>
<text text-anchor="middle" x="393" y="-477.5" font-family="Helvetica,sans-Serif" font-size="10.00" fill="#000000">DataFormatsTPC/Digit.h</text>
</a>
</g>
</g>
<!-- Node0&#45;&gt;Node1 -->
<g id="edge1" class="edge">
<title>Node0&#45;&gt;Node1</title>
<path fill="none" stroke="#191970" d="M1182.3232,-550.7669C1015.4241,-535.8035 634.1649,-501.6217 470.2483,-486.9257"/>
<polygon fill="#191970" stroke="#191970" points="470.5149,-483.4357 460.2422,-486.0286 469.8897,-490.4077 470.5149,-483.4357"/>
</g>
<!-- Node9 -->
<g id="node10" class="node">
<title>Node9</title>
<g id="a_node10"><a xlink:href="../../d5/da3/KrCluster_8h.html" target="_top" xlink:title="Struct for Krypton and X&#45;ray clusters. ">
<polygon fill="none" stroke="#000000" points="1332,-470.5 1332,-489.5 1496,-489.5 1496,-470.5 1332,-470.5"/>
<text text-anchor="middle" x="1414" y="-477.5" font-family="Helvetica,sans-Serif" font-size="10.00" fill="#000000">TPCReconstruction/KrCluster.h</text>
</a>
</g>
</g>
<!-- Node0&#45;&gt;Node9 -->
<g id="edge11" class="edge">
<title>Node0&#45;&gt;Node9</title>
<path fill="none" stroke="#191970" d="M1323.9822,-526.4992C1345.6678,-515.2974 1369.0139,-503.2378 1386.4956,-494.2076"/>
<polygon fill="#191970" stroke="#191970" points="1388.2781,-497.2263 1395.5564,-489.5271 1385.0655,-491.007 1388.2781,-497.2263"/>
</g>
<!-- Node10 -->
<g id="node11" class="node">
<title>Node10</title>
<g id="a_node11"><a xlink:href="../../d5/d1d/TPC_2base_2include_2TPCBase_2Mapper_8h.html" target="_top" xlink:title="TPCBase/Mapper.h">
<polygon fill="none" stroke="#000000" points="1168.5,-470.5 1168.5,-489.5 1275.5,-489.5 1275.5,-470.5 1168.5,-470.5"/>
<text text-anchor="middle" x="1222" y="-477.5" font-family="Helvetica,sans-Serif" font-size="10.00" fill="#000000">TPCBase/Mapper.h</text>
</a>
</g>
</g>
<!-- Node0&#45;&gt;Node10 -->
<g id="edge12" class="edge">
<title>Node0&#45;&gt;Node10</title>
<path fill="none" stroke="#191970" d="M1246.3237,-526.2744C1241.4061,-516.919 1236.1842,-506.9845 1231.8446,-498.7287"/>
<polygon fill="#191970" stroke="#191970" points="1234.8194,-496.8657 1227.0685,-489.6426 1228.6233,-500.1227 1234.8194,-496.8657"/>
</g>
<!-- Node12 -->
<g id="node13" class="node">
<title>Node12</title>
<polygon fill="none" stroke="#bfbfbf" points="842.5,-358.5 842.5,-377.5 889.5,-377.5 889.5,-358.5 842.5,-358.5"/>
<text text-anchor="middle" x="866" y="-365.5" font-family="Helvetica,sans-Serif" font-size="10.00" fill="#000000">vector</text>
</g>
<!-- Node0&#45;&gt;Node12 -->
<g id="edge65" class="edge">
<title>Node0&#45;&gt;Node12</title>
<path fill="none" stroke="#191970" d="M1182.2262,-547.8984C1063.409,-531.1932 850.6195,-493.6131 805,-434 790.5822,-415.1596 814.8105,-395.4165 836.8636,-382.4894"/>
<polygon fill="#191970" stroke="#191970" points="838.7056,-385.47 845.7482,-377.5546 835.3067,-379.3506 838.7056,-385.47"/>
</g>
<!-- Node13 -->
<g id="node14" class="node">
<title>Node13</title>
<polygon fill="none" stroke="#bfbfbf" points="1674,-414.5 1674,-433.5 1716,-433.5 1716,-414.5 1674,-414.5"/>
<text text-anchor="middle" x="1695" y="-421.5" font-family="Helvetica,sans-Serif" font-size="10.00" fill="#000000">array</text>
</g>
<!-- Node0&#45;&gt;Node13 -->
<g id="edge66" class="edge">
<title>Node0&#45;&gt;Node13</title>
<path fill="none" stroke="#191970" d="M1276.1865,-526.1989C1286.0673,-506.5923 1301.5814,-482.8214 1323,-470 1387.6216,-431.3167 1586.0742,-448.3984 1660,-434 1661.2561,-433.7554 1662.5325,-433.4868 1663.8181,-433.1998"/>
<polygon fill="#191970" stroke="#191970" points="1664.8247,-436.5557 1673.67,-430.7238 1663.1185,-429.7668 1664.8247,-436.5557"/>
</g>
<!-- Node40 -->
<g id="node41" class="node">
<title>Node40</title>
<polygon fill="none" stroke="#bfbfbf" points="1514.5,-470.5 1514.5,-489.5 1555.5,-489.5 1555.5,-470.5 1514.5,-470.5"/>
<text text-anchor="middle" x="1535" y="-477.5" font-family="Helvetica,sans-Serif" font-size="10.00" fill="#000000">tuple</text>
</g>
<!-- Node0&#45;&gt;Node40 -->
<g id="edge64" class="edge">
<title>Node0&#45;&gt;Node40</title>
<path fill="none" stroke="#191970" d="M1343.673,-536.37C1388.4662,-524.1146 1445.3713,-508.144 1504.8229,-489.9539"/>
<polygon fill="#191970" stroke="#191970" points="1505.854,-493.2987 1514.3849,-487.0157 1503.7979,-486.6074 1505.854,-493.2987"/>
</g>
<!-- Node2 -->
<g id="node3" class="node">
<title>Node2</title>
<g id="a_node3"><a xlink:href="../../d2/d45/GPUCommonRtypes_8h.html" target="_top" xlink:title="GPUCommonRtypes.h">
<polygon fill="none" stroke="#000000" points="330.5,-358.5 330.5,-377.5 455.5,-377.5 455.5,-358.5 330.5,-358.5"/>
<text text-anchor="middle" x="393" y="-365.5" font-family="Helvetica,sans-Serif" font-size="10.00" fill="#000000">GPUCommonRtypes.h</text>
</a>
</g>
</g>
<!-- Node1&#45;&gt;Node2 -->
<g id="edge2" class="edge">
<title>Node1&#45;&gt;Node2</title>
<path fill="none" stroke="#191970" d="M441.9701,-470.4436C462.2877,-463.8037 483.9044,-452.649 496,-434 512.4616,-408.6196 478.7173,-391.05 445.5403,-380.4568"/>
<polygon fill="#191970" stroke="#191970" points="446.3651,-377.0501 435.7808,-377.5229 444.3498,-383.7537 446.3651,-377.0501"/>
</g>
<!-- Node4 -->
<g id="node5" class="node">
<title>Node4</title>
<g id="a_node5"><a xlink:href="../../df/d21/GPUCommonDef_8h.html" target="_top" xlink:title="GPUCommonDef.h">
<polygon fill="none" stroke="#000000" points="161.5,-358.5 161.5,-377.5 268.5,-377.5 268.5,-358.5 161.5,-358.5"/>
<text text-anchor="middle" x="215" y="-365.5" font-family="Helvetica,sans-Serif" font-size="10.00" fill="#000000">GPUCommonDef.h</text>
</a>
</g>
</g>
<!-- Node1&#45;&gt;Node4 -->
<g id="edge4" class="edge">
<title>Node1&#45;&gt;Node4</title>
<path fill="none" stroke="#191970" d="M329.0019,-470.4694C286.5206,-462.7618 236.0756,-450.4811 222,-434 211.2663,-421.432 210.3633,-402.2278 211.6444,-387.7695"/>
<polygon fill="#191970" stroke="#191970" points="215.1188,-388.1916 212.9231,-377.8268 208.176,-387.2987 215.1188,-388.1916"/>
</g>
<!-- Node7 -->
<g id="node8" class="node">
<title>Node7</title>
<g id="a_node8"><a xlink:href="../../df/d5d/common_2include_2CommonDataFormat_2TimeStamp_8h.html" target="_top" xlink:title="CommonDataFormat/TimeStamp.h">
<polygon fill="none" stroke="#000000" points="299.5,-414.5 299.5,-433.5 486.5,-433.5 486.5,-414.5 299.5,-414.5"/>
<text text-anchor="middle" x="393" y="-421.5" font-family="Helvetica,sans-Serif" font-size="10.00" fill="#000000">CommonDataFormat/TimeStamp.h</text>
</a>
</g>
</g>
<!-- Node1&#45;&gt;Node7 -->
<g id="edge7" class="edge">
<title>Node1&#45;&gt;Node7</title>
<path fill="none" stroke="#191970" d="M393,-470.2455C393,-462.9382 393,-452.6944 393,-443.7046"/>
<polygon fill="#191970" stroke="#191970" points="396.5001,-443.6426 393,-433.6427 389.5001,-443.6427 396.5001,-443.6426"/>
</g>
<!-- Node8 -->
<g id="node9" class="node">
<title>Node8</title>
<polygon fill="none" stroke="#bfbfbf" points="231,-414.5 231,-433.5 281,-433.5 281,-414.5 231,-414.5"/>
<text text-anchor="middle" x="256" y="-421.5" font-family="Helvetica,sans-Serif" font-size="10.00" fill="#000000">climits</text>
</g>
<!-- Node1&#45;&gt;Node8 -->
<g id="edge10" class="edge">
<title>Node1&#45;&gt;Node8</title>
<path fill="none" stroke="#191970" d="M369.4489,-470.3733C347.1609,-461.2629 313.5063,-447.5062 288.6363,-437.3404"/>
<polygon fill="#191970" stroke="#191970" points="289.8247,-434.0451 279.2438,-433.5011 287.1761,-440.5247 289.8247,-434.0451"/>
</g>
<!-- Node3 -->
<g id="node4" class="node">
<title>Node3</title>
<polygon fill="none" stroke="#bfbfbf" points="23.5,-73 23.5,-92 82.5,-92 82.5,-73 23.5,-73"/>
<text text-anchor="middle" x="53" y="-80" font-family="Helvetica,sans-Serif" font-size="10.00" fill="#000000">Rtypes.h</text>
</g>
<!-- Node2&#45;&gt;Node3 -->
<g id="edge3" class="edge">
<title>Node2&#45;&gt;Node3</title>
<path fill="none" stroke="#191970" d="M389.3112,-358.2751C382.357,-339.0407 368,-294.6505 368,-256 368,-256 368,-256 368,-200 368,-68.8076 213.3115,-145.4483 91,-98 89.356,-97.3622 87.6746,-96.7029 85.9786,-96.0321"/>
<polygon fill="#191970" stroke="#191970" points="86.8453,-92.6088 76.261,-92.136 84.2403,-99.1061 86.8453,-92.6088"/>
</g>
<!-- Node5 -->
<g id="node6" class="node">
<title>Node5</title>
<g id="a_node6"><a xlink:href="../../d5/d93/GPUCommonDefSettings_8h.html" target="_top" xlink:title="GPUCommonDefSettings.h">
<polygon fill="none" stroke="#000000" points="0,-302.5 0,-321.5 148,-321.5 148,-302.5 0,-302.5"/>
<text text-anchor="middle" x="74" y="-309.5" font-family="Helvetica,sans-Serif" font-size="10.00" fill="#000000">GPUCommonDefSettings.h</text>
</a>
</g>
</g>
<!-- Node4&#45;&gt;Node5 -->
<g id="edge5" class="edge">
<title>Node4&#45;&gt;Node5</title>
<path fill="none" stroke="#191970" d="M190.7612,-358.3733C167.7211,-349.2226 132.8786,-335.3844 107.2499,-325.2057"/>
<polygon fill="#191970" stroke="#191970" points="108.5082,-321.9395 97.9225,-321.5011 105.9244,-328.4452 108.5082,-321.9395"/>
</g>
<!-- Node6 -->
<g id="node7" class="node">
<title>Node6</title>
<g id="a_node7"><a xlink:href="../../da/d5a/GPUCommonDefAPI_8h.html" target="_top" xlink:title="GPUCommonDefAPI.h">
<polygon fill="none" stroke="#000000" points="166,-302.5 166,-321.5 290,-321.5 290,-302.5 166,-302.5"/>
<text text-anchor="middle" x="228" y="-309.5" font-family="Helvetica,sans-Serif" font-size="10.00" fill="#000000">GPUCommonDefAPI.h</text>
</a>
</g>
</g>
<!-- Node4&#45;&gt;Node6 -->
<g id="edge6" class="edge">
<title>Node4&#45;&gt;Node6</title>
<path fill="none" stroke="#191970" d="M217.2644,-358.2455C218.9794,-350.8579 221.3912,-340.4689 223.4944,-331.4087"/>
<polygon fill="#191970" stroke="#191970" points="226.9095,-332.1751 225.7615,-321.6427 220.0908,-330.5922 226.9095,-332.1751"/>
</g>
<!-- Node7&#45;&gt;Node2 -->
<g id="edge8" class="edge">
<title>Node7&#45;&gt;Node2</title>
<path fill="none" stroke="#191970" d="M393,-414.2455C393,-406.9382 393,-396.6944 393,-387.7046"/>
<polygon fill="#191970" stroke="#191970" points="396.5001,-387.6426 393,-377.6427 389.5001,-387.6427 396.5001,-387.6426"/>
</g>
<!-- Node7&#45;&gt;Node4 -->
<g id="edge9" class="edge">
<title>Node7&#45;&gt;Node4</title>
<path fill="none" stroke="#191970" d="M362.4007,-414.3733C332.6739,-405.021 287.3841,-390.7725 254.8544,-380.5385"/>
<polygon fill="#191970" stroke="#191970" points="255.7895,-377.1636 245.2,-377.5011 253.6887,-383.8409 255.7895,-377.1636"/>
</g>
<!-- Node11 -->
<g id="node12" class="node">
<title>Node11</title>
<polygon fill="none" stroke="#bfbfbf" points="814,-414.5 814,-433.5 852,-433.5 852,-414.5 814,-414.5"/>
<text text-anchor="middle" x="833" y="-421.5" font-family="Helvetica,sans-Serif" font-size="10.00" fill="#000000">map</text>
</g>
<!-- Node10&#45;&gt;Node11 -->
<g id="edge13" class="edge">
<title>Node10&#45;&gt;Node11</title>
<path fill="none" stroke="#191970" d="M1168.4561,-475.867C1098.3838,-469.8248 972.0225,-456.7496 866,-434 864.716,-433.7245 863.4096,-433.4227 862.0943,-433.1013"/>
<polygon fill="#191970" stroke="#191970" points="862.6233,-429.6177 852.0545,-430.3598 860.7794,-436.3705 862.6233,-429.6177"/>
</g>
<!-- Node10&#45;&gt;Node12 -->
<g id="edge14" class="edge">
<title>Node10&#45;&gt;Node12</title>
<path fill="none" stroke="#191970" d="M1168.1786,-477.8343C1089.0143,-473.7241 946.0097,-462.4959 904,-434 887.8195,-423.0245 877.6526,-402.7068 871.9509,-387.5019"/>
<polygon fill="#191970" stroke="#191970" points="875.2402,-386.3035 868.6979,-377.9699 868.6154,-388.5644 875.2402,-386.3035"/>
</g>
<!-- Node10&#45;&gt;Node13 -->
<g id="edge15" class="edge">
<title>Node10&#45;&gt;Node13</title>
<path fill="none" stroke="#191970" d="M1275.7889,-471.8414C1280.5905,-471.1883 1285.3806,-470.564 1290,-470 1454.0029,-449.9747 1497.6793,-464.8214 1660,-434 1661.2572,-433.7613 1662.5346,-433.4977 1663.821,-433.2148"/>
<polygon fill="#191970" stroke="#191970" points="1664.8207,-436.5728 1673.6763,-430.7564 1663.1265,-429.7809 1664.8207,-436.5728"/>
</g>
<!-- Node14 -->
<g id="node15" class="node">
<title>Node14</title>
<polygon fill="none" stroke="#bfbfbf" points="1104,-414.5 1104,-433.5 1148,-433.5 1148,-414.5 1104,-414.5"/>
<text text-anchor="middle" x="1126" y="-421.5" font-family="Helvetica,sans-Serif" font-size="10.00" fill="#000000">string</text>
</g>
<!-- Node10&#45;&gt;Node14 -->
<g id="edge16" class="edge">
<title>Node10&#45;&gt;Node14</title>
<path fill="none" stroke="#191970" d="M1205.2781,-470.2455C1190.4111,-461.5731 1168.4534,-448.7645 1151.4142,-438.825"/>
<polygon fill="#191970" stroke="#191970" points="1152.9317,-435.6582 1142.5303,-433.6427 1149.4045,-441.7047 1152.9317,-435.6582"/>
</g>
<!-- Node15 -->
<g id="node16" class="node">
<title>Node15</title>
<polygon fill="none" stroke="#bfbfbf" points="1421.5,-134.5 1421.5,-153.5 1468.5,-153.5 1468.5,-134.5 1421.5,-134.5"/>
<text text-anchor="middle" x="1445" y="-141.5" font-family="Helvetica,sans-Serif" font-size="10.00" fill="#000000">cmath</text>
</g>
<!-- Node10&#45;&gt;Node15 -->
<g id="edge17" class="edge">
<title>Node10&#45;&gt;Node15</title>
<path fill="none" stroke="#191970" d="M1275.7382,-472.8321C1366.283,-460.6913 1540.0436,-437.0921 1546,-434 1581.7198,-415.4568 1608,-408.2462 1608,-368 1608,-368 1608,-368 1608,-256 1608,-193.7834 1526.3335,-163.5298 1478.6123,-151.1624"/>
<polygon fill="#191970" stroke="#191970" points="1479.2483,-147.7145 1468.7016,-148.7233 1477.5754,-154.5117 1479.2483,-147.7145"/>
</g>
<!-- Node16 -->
<g id="node17" class="node">
<title>Node16</title>
<g id="a_node17"><a xlink:href="../../d1/d73/Defs_8h.html" target="_top" xlink:title="Common definitions for 2D coordinates. ">
<polygon fill="none" stroke="#000000" points="1019.5,-190.5 1019.5,-209.5 1152.5,-209.5 1152.5,-190.5 1019.5,-190.5"/>
<text text-anchor="middle" x="1086" y="-197.5" font-family="Helvetica,sans-Serif" font-size="10.00" fill="#000000">DataFormatsTPC/Defs.h</text>
</a>
</g>
</g>
<!-- Node10&#45;&gt;Node16 -->
<g id="edge18" class="edge">
<title>Node10&#45;&gt;Node16</title>
<path fill="none" stroke="#191970" d="M1168.3527,-478.0475C1095.4776,-474.2997 970.427,-463.6303 937,-434 914.1576,-413.7521 918,-398.5246 918,-368 918,-368 918,-368 918,-312 918,-256.741 981.7031,-227.0681 1030.655,-212.4238"/>
<polygon fill="#191970" stroke="#191970" points="1031.879,-215.7144 1040.5368,-209.6077 1029.9604,-208.9825 1031.879,-215.7144"/>
</g>
<!-- Node18 -->
<g id="node19" class="node">
<title>Node18</title>
<g id="a_node19"><a xlink:href="../../d2/dd0/Cartesian2D_8h.html" target="_top" xlink:title="MathUtils/Cartesian2D.h">
<polygon fill="none" stroke="#000000" points="1213.5,-73 1213.5,-92 1348.5,-92 1348.5,-73 1213.5,-73"/>
<text text-anchor="middle" x="1281" y="-80" font-family="Helvetica,sans-Serif" font-size="10.00" fill="#000000">MathUtils/Cartesian2D.h</text>
</a>
</g>
</g>
<!-- Node10&#45;&gt;Node18 -->
<g id="edge62" class="edge">
<title>Node10&#45;&gt;Node18</title>
<path fill="none" stroke="#191970" d="M1275.6646,-472.8107C1282.837,-471.8598 1290.0966,-470.9024 1297,-470 1421.8474,-453.6796 1464.5674,-488.6469 1578,-434 1615.9432,-415.7206 1646,-410.1168 1646,-368 1646,-368 1646,-368 1646,-200 1646,-140.1853 1466.1443,-106.4475 1358.9378,-91.6505"/>
<polygon fill="#191970" stroke="#191970" points="1359.1775,-88.1511 1348.7983,-90.2774 1358.2381,-95.0878 1359.1775,-88.1511"/>
</g>
<!-- Node21 -->
<g id="node22" class="node">
<title>Node21</title>
<g id="a_node22"><a xlink:href="../../dd/d76/Cartesian3D_8h.html" target="_top" xlink:title="MathUtils/Cartesian3D.h">
<polygon fill="none" stroke="#000000" points="691.5,-134.5 691.5,-153.5 826.5,-153.5 826.5,-134.5 691.5,-134.5"/>
<text text-anchor="middle" x="759" y="-141.5" font-family="Helvetica,sans-Serif" font-size="10.00" fill="#000000">MathUtils/Cartesian3D.h</text>
</a>
</g>
</g>
<!-- Node10&#45;&gt;Node21 -->
<g id="edge63" class="edge">
<title>Node10&#45;&gt;Node21</title>
<path fill="none" stroke="#191970" d="M1168.3001,-478.2348C1067.7659,-474.2895 855.2332,-462.7375 788,-434 746.2428,-416.1517 710,-413.4117 710,-368 710,-368 710,-368 710,-256 710,-220.3181 731.133,-183.1985 745.6419,-161.9186"/>
<polygon fill="#191970" stroke="#191970" points="748.6329,-163.7512 751.558,-153.5681 742.9211,-159.7046 748.6329,-163.7512"/>
</g>
<!-- Node29 -->
<g id="node30" class="node">
<title>Node29</title>
<g id="a_node30"><a xlink:href="../../de/d41/PadPos_8h.html" target="_top" xlink:title="TPCBase/PadPos.h">
<polygon fill="none" stroke="#000000" points="1299,-302.5 1299,-321.5 1405,-321.5 1405,-302.5 1299,-302.5"/>
<text text-anchor="middle" x="1352" y="-309.5" font-family="Helvetica,sans-Serif" font-size="10.00" fill="#000000">TPCBase/PadPos.h</text>
</a>
</g>
</g>
<!-- Node10&#45;&gt;Node29 -->
<g id="edge34" class="edge">
<title>Node10&#45;&gt;Node29</title>
<path fill="none" stroke="#191970" d="M1275.5634,-472.9408C1340.2326,-463.873 1441.7818,-447.6724 1453,-434 1458.6383,-427.1282 1456.7611,-422.054 1453,-414 1442.4539,-391.4165 1427.8341,-395.412 1410,-378 1394.242,-362.6149 1377.8106,-343.5914 1366.4773,-329.9267"/>
<polygon fill="#191970" stroke="#191970" points="1368.8715,-327.3265 1359.8243,-321.8129 1363.4585,-331.765 1368.8715,-327.3265"/>
</g>
<!-- Node30 -->
<g id="node31" class="node">
<title>Node30</title>
<g id="a_node31"><a xlink:href="../../dd/d0b/PadSecPos_8h.html" target="_top" xlink:title="TPCBase/PadSecPos.h">
<polygon fill="none" stroke="#000000" points="1418.5,-358.5 1418.5,-377.5 1541.5,-377.5 1541.5,-358.5 1418.5,-358.5"/>
<text text-anchor="middle" x="1480" y="-365.5" font-family="Helvetica,sans-Serif" font-size="10.00" fill="#000000">TPCBase/PadSecPos.h</text>
</a>
</g>
</g>
<!-- Node10&#45;&gt;Node30 -->
<g id="edge35" class="edge">
<title>Node10&#45;&gt;Node30</title>
<path fill="none" stroke="#191970" d="M1275.6931,-471.8073C1357.9969,-459.188 1506.117,-436.2101 1508,-434 1520.0112,-419.9025 1508.6003,-399.8957 1496.937,-385.6117"/>
<polygon fill="#191970" stroke="#191970" points="1499.4418,-383.1597 1490.2158,-377.9508 1494.1798,-387.7761 1499.4418,-383.1597"/>
</g>
<!-- Node31 -->
<g id="node32" class="node">
<title>Node31</title>
<g id="a_node32"><a xlink:href="../../d3/dd6/Sector_8h.html" target="_top" xlink:title="TPCBase/Sector.h">
<polygon fill="none" stroke="#000000" points="1272.5,-246.5 1272.5,-265.5 1373.5,-265.5 1373.5,-246.5 1272.5,-246.5"/>
<text text-anchor="middle" x="1323" y="-253.5" font-family="Helvetica,sans-Serif" font-size="10.00" fill="#000000">TPCBase/Sector.h</text>
</a>
</g>
</g>
<!-- Node10&#45;&gt;Node31 -->
<g id="edge61" class="edge">
<title>Node10&#45;&gt;Node31</title>
<path fill="none" stroke="#191970" d="M1275.5906,-472.482C1361.0184,-460.4085 1519.028,-437.6737 1524,-434 1546.2226,-417.5801 1544.8454,-404.9365 1551,-378 1568.3823,-301.9242 1457.0418,-272.9123 1383.7703,-262.1256"/>
<polygon fill="#191970" stroke="#191970" points="1384.089,-258.6363 1373.7014,-260.7215 1383.1221,-265.5692 1384.089,-258.6363"/>
</g>
<!-- Node33 -->
<g id="node34" class="node">
<title>Node33</title>
<g id="a_node34"><a xlink:href="../../da/d61/PadROCPos_8h.html" target="_top" xlink:title="TPCBase/PadROCPos.h">
<polygon fill="none" stroke="#000000" points="1158.5,-358.5 1158.5,-377.5 1285.5,-377.5 1285.5,-358.5 1158.5,-358.5"/>
<text text-anchor="middle" x="1222" y="-365.5" font-family="Helvetica,sans-Serif" font-size="10.00" fill="#000000">TPCBase/PadROCPos.h</text>
</a>
</g>
</g>
<!-- Node10&#45;&gt;Node33 -->
<g id="edge40" class="edge">
<title>Node10&#45;&gt;Node33</title>
<path fill="none" stroke="#191970" d="M1275.568,-472.1014C1335.8731,-462.6653 1426.8291,-446.5772 1437,-434 1442.5893,-427.0883 1442.5893,-420.9117 1437,-414 1419.3189,-392.1358 1350.7789,-380.202 1295.7757,-374.0102"/>
<polygon fill="#191970" stroke="#191970" points="1295.9962,-370.5137 1285.6782,-372.9198 1295.2446,-377.4733 1295.9962,-370.5137"/>
</g>
<!-- Node35 -->
<g id="node36" class="node">
<title>Node35</title>
<g id="a_node36"><a xlink:href="../../d3/d54/DigitPos_8h.html" target="_top" xlink:title="TPCBase/DigitPos.h">
<polygon fill="none" stroke="#000000" points="1166,-414.5 1166,-433.5 1278,-433.5 1278,-414.5 1166,-414.5"/>
<text text-anchor="middle" x="1222" y="-421.5" font-family="Helvetica,sans-Serif" font-size="10.00" fill="#000000">TPCBase/DigitPos.h</text>
</a>
</g>
</g>
<!-- Node10&#45;&gt;Node35 -->
<g id="edge46" class="edge">
<title>Node10&#45;&gt;Node35</title>
<path fill="none" stroke="#191970" d="M1222,-470.2455C1222,-462.9382 1222,-452.6944 1222,-443.7046"/>
<polygon fill="#191970" stroke="#191970" points="1225.5001,-443.6426 1222,-433.6427 1218.5001,-443.6427 1225.5001,-443.6426"/>
</g>
<!-- Node37 -->
<g id="node38" class="node">
<title>Node37</title>
<g id="a_node38"><a xlink:href="../../d1/d1f/FECInfo_8h.html" target="_top" xlink:title="TPCBase/FECInfo.h">
<polygon fill="none" stroke="#000000" points="760,-246.5 760,-265.5 868,-265.5 868,-246.5 760,-246.5"/>
<text text-anchor="middle" x="814" y="-253.5" font-family="Helvetica,sans-Serif" font-size="10.00" fill="#000000">TPCBase/FECInfo.h</text>
</a>
</g>
</g>
<!-- Node10&#45;&gt;Node37 -->
<g id="edge54" class="edge">
<title>Node10&#45;&gt;Node37</title>
<path fill="none" stroke="#191970" d="M1168.3522,-478.0021C1061.1914,-473.4581 828.8427,-460.6175 805,-434 765.1645,-389.5286 790.4918,-310.9739 805.3829,-274.9788"/>
<polygon fill="#191970" stroke="#191970" points="808.6655,-276.2054 809.415,-265.6371 802.2386,-273.4314 808.6655,-276.2054"/>
</g>
<!-- Node38 -->
<g id="node39" class="node">
<title>Node38</title>
<g id="a_node39"><a xlink:href="../../da/d9d/PadRegionInfo_8h.html" target="_top" xlink:title="TPCBase/PadRegionInfo.h">
<polygon fill="none" stroke="#000000" points="946,-414.5 946,-433.5 1086,-433.5 1086,-414.5 946,-414.5"/>
<text text-anchor="middle" x="1016" y="-421.5" font-family="Helvetica,sans-Serif" font-size="10.00" fill="#000000">TPCBase/PadRegionInfo.h</text>
</a>
</g>
</g>
<!-- Node10&#45;&gt;Node38 -->
<g id="edge56" class="edge">
<title>Node10&#45;&gt;Node38</title>
<path fill="none" stroke="#191970" d="M1186.5873,-470.3733C1151.7395,-460.9001 1098.4118,-446.4032 1060.6707,-436.1435"/>
<polygon fill="#191970" stroke="#191970" points="1061.5185,-432.747 1050.9506,-433.5011 1059.6822,-439.5019 1061.5185,-432.747"/>
</g>
<!-- Node39 -->
<g id="node40" class="node">
<title>Node39</title>
<g id="a_node40"><a xlink:href="../../d6/d42/PartitionInfo_8h.html" target="_top" xlink:title="TPCBase/PartitionInfo.h">
<polygon fill="none" stroke="#000000" points="1296.5,-414.5 1296.5,-433.5 1427.5,-433.5 1427.5,-414.5 1296.5,-414.5"/>
<text text-anchor="middle" x="1362" y="-421.5" font-family="Helvetica,sans-Serif" font-size="10.00" fill="#000000">TPCBase/PartitionInfo.h</text>
</a>
</g>
</g>
<!-- Node10&#45;&gt;Node39 -->
<g id="edge60" class="edge">
<title>Node10&#45;&gt;Node39</title>
<path fill="none" stroke="#191970" d="M1246.0669,-470.3733C1268.8428,-461.2629 1303.2344,-447.5062 1328.649,-437.3404"/>
<polygon fill="#191970" stroke="#191970" points="1330.2623,-440.4648 1338.2472,-433.5011 1327.6625,-433.9654 1330.2623,-440.4648"/>
</g>
<!-- Node16&#45;&gt;Node15 -->
<g id="edge19" class="edge">
<title>Node16&#45;&gt;Node15</title>
<path fill="none" stroke="#191970" d="M1147.3064,-190.4369C1223.4412,-178.5607 1350.644,-158.7185 1411.0994,-149.2881"/>
<polygon fill="#191970" stroke="#191970" points="1411.9005,-152.7056 1421.2415,-147.7061 1410.8215,-145.7892 1411.9005,-152.7056"/>
</g>
<!-- Node17 -->
<g id="node18" class="node">
<title>Node17</title>
<g id="a_node18"><a xlink:href="../../d1/da8/GPUROOTCartesianFwd_8h.html" target="_top" xlink:title="GPUROOTCartesianFwd.h">
<polygon fill="none" stroke="#000000" points="1114,-134.5 1114,-153.5 1254,-153.5 1254,-134.5 1114,-134.5"/>
<text text-anchor="middle" x="1184" y="-141.5" font-family="Helvetica,sans-Serif" font-size="10.00" fill="#000000">GPUROOTCartesianFwd.h</text>
</a>
</g>
</g>
<!-- Node16&#45;&gt;Node17 -->
<g id="edge20" class="edge">
<title>Node16&#45;&gt;Node17</title>
<path fill="none" stroke="#191970" d="M1103.0703,-190.2455C1118.247,-181.5731 1140.6621,-168.7645 1158.0563,-158.825"/>
<polygon fill="#191970" stroke="#191970" points="1160.1794,-161.643 1167.1253,-153.6427 1156.7064,-155.5653 1160.1794,-161.643"/>
</g>
<!-- Node16&#45;&gt;Node18 -->
<g id="edge21" class="edge">
<title>Node16&#45;&gt;Node18</title>
<path fill="none" stroke="#191970" d="M1086.0068,-190.4989C1086.5449,-176.2492 1089.6885,-149.3785 1105,-134 1114.1153,-124.8448 1182.4273,-106.5952 1231.2039,-94.4645"/>
<polygon fill="#191970" stroke="#191970" points="1232.1123,-97.8454 1240.9812,-92.0494 1230.4337,-91.0496 1232.1123,-97.8454"/>
</g>
<!-- Node16&#45;&gt;Node21 -->
<g id="edge24" class="edge">
<title>Node16&#45;&gt;Node21</title>
<path fill="none" stroke="#191970" d="M1030.1582,-190.4369C973.2542,-180.6918 885.0304,-165.5832 824.7764,-155.2645"/>
<polygon fill="#191970" stroke="#191970" points="825.0588,-151.7619 814.6114,-153.5237 823.8771,-158.6615 825.0588,-151.7619"/>
</g>
<!-- Node19 -->
<g id="node20" class="node">
<title>Node19</title>
<polygon fill="none" stroke="#bfbfbf" points="1101,-.5 1101,-30.5 1265,-30.5 1265,-.5 1101,-.5"/>
<text text-anchor="start" x="1109" y="-18.5" font-family="Helvetica,sans-Serif" font-size="10.00" fill="#000000">Math/GenVector/Displacement</text>
<text text-anchor="middle" x="1183" y="-7.5" font-family="Helvetica,sans-Serif" font-size="10.00" fill="#000000">Vector2D.h</text>
</g>
<!-- Node18&#45;&gt;Node19 -->
<g id="edge22" class="edge">
<title>Node18&#45;&gt;Node19</title>
<path fill="none" stroke="#191970" d="M1266.959,-72.9005C1253.0412,-63.3853 1231.272,-48.5023 1213.388,-36.2755"/>
<polygon fill="#191970" stroke="#191970" points="1215.2026,-33.2763 1204.9721,-30.5218 1211.2519,-39.0549 1215.2026,-33.2763"/>
</g>
<!-- Node20 -->
<g id="node21" class="node">
<title>Node20</title>
<polygon fill="none" stroke="#bfbfbf" points="1283.5,-6 1283.5,-25 1472.5,-25 1472.5,-6 1283.5,-6"/>
<text text-anchor="middle" x="1378" y="-13" font-family="Helvetica,sans-Serif" font-size="10.00" fill="#000000">Math/GenVector/PositionVector2D.h</text>
</g>
<!-- Node18&#45;&gt;Node20 -->
<g id="edge23" class="edge">
<title>Node18&#45;&gt;Node20</title>
<path fill="none" stroke="#191970" d="M1294.8977,-72.9005C1310.8164,-61.9052 1337.1121,-43.7422 1355.8599,-30.7927"/>
<polygon fill="#191970" stroke="#191970" points="1357.8892,-33.6448 1364.128,-25.0817 1353.9108,-27.8852 1357.8892,-33.6448"/>
</g>
<!-- Node21&#45;&gt;Node3 -->
<g id="edge30" class="edge">
<title>Node21&#45;&gt;Node3</title>
<path fill="none" stroke="#191970" d="M691.4302,-142.0715C545.2506,-137.4562 203.7424,-124.163 91,-98 88.2021,-97.3507 85.3431,-96.5216 82.5116,-95.5853"/>
<polygon fill="#191970" stroke="#191970" points="83.7125,-92.2978 73.1196,-92.0951 81.2741,-98.8593 83.7125,-92.2978"/>
</g>
<!-- Node21&#45;&gt;Node18 -->
<g id="edge33" class="edge">
<title>Node21&#45;&gt;Node18</title>
<path fill="none" stroke="#191970" d="M826.5106,-139.1177C914.098,-132.3076 1071.5021,-118.4469 1205,-98 1212.4967,-96.8518 1220.3733,-95.4586 1228.0997,-93.9837"/>
<polygon fill="#191970" stroke="#191970" points="1228.9894,-97.3759 1238.1259,-92.0117 1227.6384,-90.5075 1228.9894,-97.3759"/>
</g>
<!-- Node22 -->
<g id="node23" class="node">
<title>Node22</title>
<polygon fill="none" stroke="#bfbfbf" points="964,-67.5 964,-97.5 1128,-97.5 1128,-67.5 964,-67.5"/>
<text text-anchor="start" x="972" y="-85.5" font-family="Helvetica,sans-Serif" font-size="10.00" fill="#000000">Math/GenVector/Displacement</text>
<text text-anchor="middle" x="1046" y="-74.5" font-family="Helvetica,sans-Serif" font-size="10.00" fill="#000000">Vector3D.h</text>
</g>
<!-- Node21&#45;&gt;Node22 -->
<g id="edge25" class="edge">
<title>Node21&#45;&gt;Node22</title>
<path fill="none" stroke="#191970" d="M803.5289,-134.4581C846.7938,-125.187 913.4611,-110.9012 965.9484,-99.6539"/>
<polygon fill="#191970" stroke="#191970" points="966.8652,-103.037 975.9099,-97.5193 965.3985,-96.1924 966.8652,-103.037"/>
</g>
<!-- Node23 -->
<g id="node24" class="node">
<title>Node23</title>
<polygon fill="none" stroke="#bfbfbf" points="100.5,-73 100.5,-92 289.5,-92 289.5,-73 100.5,-73"/>
<text text-anchor="middle" x="195" y="-80" font-family="Helvetica,sans-Serif" font-size="10.00" fill="#000000">Math/GenVector/PositionVector3D.h</text>
</g>
<!-- Node21&#45;&gt;Node23 -->
<g id="edge26" class="edge">
<title>Node21&#45;&gt;Node23</title>
<path fill="none" stroke="#191970" d="M691.4625,-138.2744C601.691,-130.4288 438.1798,-115.3203 299,-98 288.1818,-96.6537 276.7514,-95.0921 265.5831,-93.4888"/>
<polygon fill="#191970" stroke="#191970" points="265.8253,-89.9872 255.4253,-92.0097 264.8166,-96.9142 265.8253,-89.9872"/>
</g>
<!-- Node24 -->
<g id="node25" class="node">
<title>Node24</title>
<polygon fill="none" stroke="#bfbfbf" points="308,-73 308,-92 468,-92 468,-73 308,-73"/>
<text text-anchor="middle" x="388" y="-80" font-family="Helvetica,sans-Serif" font-size="10.00" fill="#000000">Math/GenVector/Rotation3D.h</text>
</g>
<!-- Node21&#45;&gt;Node24 -->
<g id="edge27" class="edge">
<title>Node21&#45;&gt;Node24</title>
<path fill="none" stroke="#191970" d="M699.553,-134.4929C642.4612,-125.3176 553.7962,-110.9504 477,-98 468.9736,-96.6465 460.5438,-95.2047 452.2039,-93.7661"/>
<polygon fill="#191970" stroke="#191970" points="452.5594,-90.2757 442.109,-92.0191 451.3657,-97.1732 452.5594,-90.2757"/>
</g>
<!-- Node25 -->
<g id="node26" class="node">
<title>Node25</title>
<polygon fill="none" stroke="#bfbfbf" points="486,-73 486,-92 654,-92 654,-73 486,-73"/>
<text text-anchor="middle" x="570" y="-80" font-family="Helvetica,sans-Serif" font-size="10.00" fill="#000000">Math/GenVector/Transform3D.h</text>
</g>
<!-- Node21&#45;&gt;Node25 -->
<g id="edge28" class="edge">
<title>Node21&#45;&gt;Node25</title>
<path fill="none" stroke="#191970" d="M729.4688,-134.3906C697.0134,-123.8298 644.7419,-106.8208 608.9514,-95.1747"/>
<polygon fill="#191970" stroke="#191970" points="609.9161,-91.808 599.3239,-92.0419 607.7501,-98.4645 609.9161,-91.808"/>
</g>
<!-- Node26 -->
<g id="node27" class="node">
<title>Node26</title>
<polygon fill="none" stroke="#bfbfbf" points="672.5,-73 672.5,-92 845.5,-92 845.5,-73 672.5,-73"/>
<text text-anchor="middle" x="759" y="-80" font-family="Helvetica,sans-Serif" font-size="10.00" fill="#000000">Math/GenVector/Translation3D.h</text>
</g>
<!-- Node21&#45;&gt;Node26 -->
<g id="edge29" class="edge">
<title>Node21&#45;&gt;Node26</title>
<path fill="none" stroke="#191970" d="M759,-134.3906C759,-125.8657 759,-113.1392 759,-102.4235"/>
<polygon fill="#191970" stroke="#191970" points="762.5001,-102.2448 759,-92.2449 755.5001,-102.2449 762.5001,-102.2448"/>
</g>
<!-- Node27 -->
<g id="node28" class="node">
<title>Node27</title>
<polygon fill="none" stroke="#bfbfbf" points="864,-73 864,-92 946,-92 946,-73 864,-73"/>
<text text-anchor="middle" x="905" y="-80" font-family="Helvetica,sans-Serif" font-size="10.00" fill="#000000">TGeoMatrix.h</text>
</g>
<!-- Node21&#45;&gt;Node27 -->
<g id="edge31" class="edge">
<title>Node21&#45;&gt;Node27</title>
<path fill="none" stroke="#191970" d="M781.8125,-134.3906C806.3481,-124.0554 845.5442,-107.5447 873.1211,-95.9284"/>
<polygon fill="#191970" stroke="#191970" points="874.4906,-99.1495 882.3477,-92.0419 871.7732,-92.6984 874.4906,-99.1495"/>
</g>
<!-- Node28 -->
<g id="node29" class="node">
<title>Node28</title>
<polygon fill="none" stroke="#bfbfbf" points="1146.5,-73 1146.5,-92 1195.5,-92 1195.5,-73 1146.5,-73"/>
<text text-anchor="middle" x="1171" y="-80" font-family="Helvetica,sans-Serif" font-size="10.00" fill="#000000">iosfwd</text>
</g>
<!-- Node21&#45;&gt;Node28 -->
<g id="edge32" class="edge">
<title>Node21&#45;&gt;Node28</title>
<path fill="none" stroke="#191970" d="M826.7274,-138.2664C919.2886,-130 1080.2848,-113.9664 1137,-98 1138.967,-97.4462 1140.9647,-96.7941 1142.9558,-96.0761"/>
<polygon fill="#191970" stroke="#191970" points="1144.7578,-99.1202 1152.6832,-92.0889 1142.1028,-92.6432 1144.7578,-99.1202"/>
</g>
<!-- Node30&#45;&gt;Node29 -->
<g id="edge39" class="edge">
<title>Node30&#45;&gt;Node29</title>
<path fill="none" stroke="#191970" d="M1457.996,-358.3733C1437.3565,-349.3435 1406.2842,-335.7494 1383.1111,-325.6111"/>
<polygon fill="#191970" stroke="#191970" points="1384.2813,-322.3028 1373.7169,-321.5011 1381.4755,-328.7159 1384.2813,-322.3028"/>
</g>
<!-- Node30&#45;&gt;Node31 -->
<g id="edge36" class="edge">
<title>Node30&#45;&gt;Node31</title>
<path fill="none" stroke="#191970" d="M1471.859,-358.0638C1460.1448,-344.2169 1437.3625,-318.9167 1414,-302 1396.2162,-289.1228 1374.3037,-277.9256 1356.4377,-269.8033"/>
<polygon fill="#191970" stroke="#191970" points="1357.5412,-266.4642 1346.9804,-265.6161 1354.7073,-272.8649 1357.5412,-266.4642"/>
</g>
<!-- Node31&#45;&gt;Node16 -->
<g id="edge38" class="edge">
<title>Node31&#45;&gt;Node16</title>
<path fill="none" stroke="#191970" d="M1282.5275,-246.4369C1242.052,-236.8731 1179.7133,-222.1432 1136.1297,-211.845"/>
<polygon fill="#191970" stroke="#191970" points="1136.8424,-208.4171 1126.3055,-209.5237 1135.2327,-215.2295 1136.8424,-208.4171"/>
</g>
<!-- Node32 -->
<g id="node33" class="node">
<title>Node32</title>
<g id="a_node33"><a xlink:href="../../d0/dda/DataFormats_2Detectors_2TPC_2include_2DataFormatsTPC_2Constants_8h.html" target="_top" xlink:title="DataFormatsTPC/Constants.h">
<polygon fill="none" stroke="#000000" points="1243.5,-190.5 1243.5,-209.5 1402.5,-209.5 1402.5,-190.5 1243.5,-190.5"/>
<text text-anchor="middle" x="1323" y="-197.5" font-family="Helvetica,sans-Serif" font-size="10.00" fill="#000000">DataFormatsTPC/Constants.h</text>
</a>
</g>
</g>
<!-- Node31&#45;&gt;Node32 -->
<g id="edge37" class="edge">
<title>Node31&#45;&gt;Node32</title>
<path fill="none" stroke="#191970" d="M1323,-246.2455C1323,-238.9382 1323,-228.6944 1323,-219.7046"/>
<polygon fill="#191970" stroke="#191970" points="1326.5001,-219.6426 1323,-209.6427 1319.5001,-219.6427 1326.5001,-219.6426"/>
</g>
<!-- Node33&#45;&gt;Node16 -->
<g id="edge41" class="edge">
<title>Node33&#45;&gt;Node16</title>
<path fill="none" stroke="#191970" d="M1217.844,-358.0802C1211.9946,-344.6893 1200.5226,-320.3903 1187,-302 1162.2585,-268.3523 1126.626,-235.0459 1104.9653,-216.0541"/>
<polygon fill="#191970" stroke="#191970" points="1107.2512,-213.4037 1097.3996,-209.5053 1102.67,-218.6963 1107.2512,-213.4037"/>
</g>
<!-- Node33&#45;&gt;Node29 -->
<g id="edge45" class="edge">
<title>Node33&#45;&gt;Node29</title>
<path fill="none" stroke="#191970" d="M1244.3478,-358.3733C1265.4033,-349.3032 1297.1495,-335.6279 1320.7175,-325.4755"/>
<polygon fill="#191970" stroke="#191970" points="1322.1444,-328.6719 1329.9438,-321.5011 1319.375,-322.243 1322.1444,-328.6719"/>
</g>
<!-- Node34 -->
<g id="node35" class="node">
<title>Node34</title>
<g id="a_node35"><a xlink:href="../../dc/d14/ROC_8h.html" target="_top" xlink:title="TPCBase/ROC.h">
<polygon fill="none" stroke="#000000" points="1086,-302.5 1086,-321.5 1178,-321.5 1178,-302.5 1086,-302.5"/>
<text text-anchor="middle" x="1132" y="-309.5" font-family="Helvetica,sans-Serif" font-size="10.00" fill="#000000">TPCBase/ROC.h</text>
</a>
</g>
</g>
<!-- Node33&#45;&gt;Node34 -->
<g id="edge42" class="edge">
<title>Node33&#45;&gt;Node34</title>
<path fill="none" stroke="#191970" d="M1206.3232,-358.2455C1192.5144,-349.6534 1172.1807,-337.0014 1156.2708,-327.1018"/>
<polygon fill="#191970" stroke="#191970" points="1157.8368,-323.954 1147.4972,-321.6427 1154.1387,-329.8974 1157.8368,-323.954"/>
</g>
<!-- Node34&#45;&gt;Node16 -->
<g id="edge43" class="edge">
<title>Node34&#45;&gt;Node16</title>
<path fill="none" stroke="#191970" d="M1128.0781,-302.4509C1120.5077,-284.0186 1103.7533,-243.2254 1093.8212,-219.043"/>
<polygon fill="#191970" stroke="#191970" points="1096.9488,-217.4454 1089.912,-209.5249 1090.4737,-220.1048 1096.9488,-217.4454"/>
</g>
<!-- Node34&#45;&gt;Node31 -->
<g id="edge44" class="edge">
<title>Node34&#45;&gt;Node31</title>
<path fill="none" stroke="#191970" d="M1164.8341,-302.3733C1196.8695,-292.9807 1245.7487,-278.6496 1280.6855,-268.4064"/>
<polygon fill="#191970" stroke="#191970" points="1281.9831,-271.6733 1290.5944,-265.5011 1280.0136,-264.9561 1281.9831,-271.6733"/>
</g>
<!-- Node35&#45;&gt;Node16 -->
<g id="edge47" class="edge">
<title>Node35&#45;&gt;Node16</title>
<path fill="none" stroke="#191970" d="M1170.8144,-414.459C1119.5962,-404.3945 1047.2338,-388.5596 1039,-378 1000.9328,-329.1797 1047.3748,-252.3381 1072.2372,-217.8248"/>
<polygon fill="#191970" stroke="#191970" points="1075.1641,-219.7537 1078.3097,-209.6366 1069.5416,-215.5839 1075.1641,-219.7537"/>
</g>
<!-- Node35&#45;&gt;Node29 -->
<g id="edge52" class="edge">
<title>Node35&#45;&gt;Node29</title>
<path fill="none" stroke="#191970" d="M1263.624,-414.4541C1285.3445,-407.5651 1310.8832,-396.1881 1328,-378 1339.9855,-365.2644 1346.0745,-346.0804 1349.112,-331.6723"/>
<polygon fill="#191970" stroke="#191970" points="1352.5674,-332.2319 1350.887,-321.7712 1345.6772,-330.9966 1352.5674,-332.2319"/>
</g>
<!-- Node35&#45;&gt;Node30 -->
<g id="edge53" class="edge">
<title>Node35&#45;&gt;Node30</title>
<path fill="none" stroke="#191970" d="M1266.0586,-414.4369C1310.3989,-404.8127 1378.8411,-389.957 1426.3249,-379.6504"/>
<polygon fill="#191970" stroke="#191970" points="1427.0931,-383.0653 1436.1231,-377.5237 1425.6082,-376.2245 1427.0931,-383.0653"/>
</g>
<!-- Node36 -->
<g id="node37" class="node">
<title>Node36</title>
<g id="a_node37"><a xlink:href="../../df/d26/CRU_8h.html" target="_top" xlink:title="TPCBase/CRU.h">
<polygon fill="none" stroke="#000000" points="1048,-358.5 1048,-377.5 1140,-377.5 1140,-358.5 1048,-358.5"/>
<text text-anchor="middle" x="1094" y="-365.5" font-family="Helvetica,sans-Serif" font-size="10.00" fill="#000000">TPCBase/CRU.h</text>
</a>
</g>
</g>
<!-- Node35&#45;&gt;Node36 -->
<g id="edge48" class="edge">
<title>Node35&#45;&gt;Node36</title>
<path fill="none" stroke="#191970" d="M1199.996,-414.3733C1179.3565,-405.3435 1148.2842,-391.7494 1125.1111,-381.6111"/>
<polygon fill="#191970" stroke="#191970" points="1126.2813,-378.3028 1115.7169,-377.5011 1123.4755,-384.7159 1126.2813,-378.3028"/>
</g>
<!-- Node36&#45;&gt;Node16 -->
<g id="edge49" class="edge">
<title>Node36&#45;&gt;Node16</title>
<path fill="none" stroke="#191970" d="M1089.3151,-358.4115C1085.1398,-349.2959 1079.3386,-335.0744 1077,-322 1070.608,-286.2649 1076.7642,-243.8606 1081.5614,-219.6243"/>
<polygon fill="#191970" stroke="#191970" points="1085.0418,-220.0823 1083.6832,-209.575 1078.1928,-218.6362 1085.0418,-220.0823"/>
</g>
<!-- Node36&#45;&gt;Node31 -->
<g id="edge50" class="edge">
<title>Node36&#45;&gt;Node31</title>
<path fill="none" stroke="#191970" d="M1113.5244,-358.4509C1154.0004,-338.6548 1247.2127,-293.0663 1294.4491,-269.9638"/>
<polygon fill="#191970" stroke="#191970" points="1296.0796,-273.0626 1303.525,-265.5249 1293.0041,-266.7743 1296.0796,-273.0626"/>
</g>
<!-- Node36&#45;&gt;Node34 -->
<g id="edge51" class="edge">
<title>Node36&#45;&gt;Node34</title>
<path fill="none" stroke="#191970" d="M1100.6191,-358.2455C1105.9046,-350.4564 1113.4541,-339.3308 1119.8238,-329.9439"/>
<polygon fill="#191970" stroke="#191970" points="1122.7379,-331.8827 1125.4568,-321.6427 1116.9455,-327.9522 1122.7379,-331.8827"/>
</g>
<!-- Node37&#45;&gt;Node28 -->
<g id="edge55" class="edge">
<title>Node37&#45;&gt;Node28</title>
<path fill="none" stroke="#191970" d="M833.7024,-246.4248C893.3148,-217.4534 1071.9589,-130.6334 1142.1915,-96.5007"/>
<polygon fill="#191970" stroke="#191970" points="1143.8943,-99.5647 1151.3585,-92.0457 1140.8345,-93.2689 1143.8943,-99.5647"/>
</g>
<!-- Node38&#45;&gt;Node12 -->
<g id="edge57" class="edge">
<title>Node38&#45;&gt;Node12</title>
<path fill="none" stroke="#191970" d="M990.2141,-414.3733C965.1477,-405.0151 926.95,-390.7547 899.5336,-380.5192"/>
<polygon fill="#191970" stroke="#191970" points="900.5575,-377.1656 889.965,-376.9469 898.1092,-383.7235 900.5575,-377.1656"/>
</g>
<!-- Node38&#45;&gt;Node16 -->
<g id="edge58" class="edge">
<title>Node38&#45;&gt;Node16</title>
<path fill="none" stroke="#191970" d="M1011.9946,-414.2735C1001.0319,-385.9974 973.4513,-302.2614 1006,-246 1014.5707,-231.1854 1029.9193,-220.7247 1044.8965,-213.5639"/>
<polygon fill="#191970" stroke="#191970" points="1046.3583,-216.7446 1054.11,-209.5223 1043.5463,-210.3342 1046.3583,-216.7446"/>
</g>
<!-- Node38&#45;&gt;Node29 -->
<g id="edge59" class="edge">
<title>Node38&#45;&gt;Node29</title>
<path fill="none" stroke="#191970" d="M1086.2046,-414.9584C1162.8205,-404.6924 1277.0414,-388.067 1295,-378 1314.9048,-366.842 1331.1293,-345.9455 1341.1076,-330.645"/>
<polygon fill="#191970" stroke="#191970" points="1344.1873,-332.3201 1346.4903,-321.9786 1338.2409,-328.6267 1344.1873,-332.3201"/>
</g>
</g>
</svg>
