<?xml version="1.0" encoding="UTF-8" standalone="no"?>
<!DOCTYPE svg PUBLIC "-//W3C//DTD SVG 1.1//EN"
 "http://www.w3.org/Graphics/SVG/1.1/DTD/svg11.dtd">
<!-- Generated by graphviz version 2.40.1 (20161225.0304)
 -->
<!-- Title: /home/travis/build/AliceO2Group/AliceO2/Common/Utils/include/CommonUtils/TreeStream.h Pages: 1 -->
<!--zoomable 428 -->
<svg id="main" version="1.1" xmlns="http://www.w3.org/2000/svg" xmlns:xlink="http://www.w3.org/1999/xlink" xml:space="preserve" onload="init(evt)">
<style type="text/css"><![CDATA[
.edge:hover path { stroke: red; }
.edge:hover polygon { stroke: red; fill: red; }
]]></style>
<script type="text/javascript"><![CDATA[
var edges = document.getElementsByTagName('g');
if (edges && edges.length) {
  for (var i=0;i<edges.length;i++) {
    if (edges[i].id.substr(0,4)=='edge') {
      edges[i].setAttribute('class','edge');
    }
  }
}
]]></script>
        <defs>
                <circle id="rim" cx="0" cy="0" r="7"/>
                <circle id="rim2" cx="0" cy="0" r="3.5"/>
                <g id="zoomPlus">
                        <use xlink:href="#rim" fill="#404040">
                                <set attributeName="fill" to="#808080" begin="zoomplus.mouseover" end="zoomplus.mouseout"/>
                        </use>
                        <path d="M-4,0h8M0,-4v8" fill="none" stroke="white" stroke-width="1.5" pointer-events="none"/>
                </g>
                <g id="zoomMin">
                        <use xlink:href="#rim" fill="#404040">
                                <set attributeName="fill" to="#808080" begin="zoomminus.mouseover" end="zoomminus.mouseout"/>
                        </use>
                        <path d="M-4,0h8" fill="none" stroke="white" stroke-width="1.5" pointer-events="none"/>
                </g>
                <g id="dirArrow">
                        <path fill="none" stroke="white" stroke-width="1.5" d="M0,-3.0v7 M-2.5,-0.5L0,-3.0L2.5,-0.5"/>
                </g>
               <g id="resetDef">
                       <use xlink:href="#rim2" fill="#404040">
                               <set attributeName="fill" to="#808080" begin="reset.mouseover" end="reset.mouseout"/>
                       </use>
               </g>
        </defs>

<script type="text/javascript">
var viewWidth = 1654;
var viewHeight = 428;
var sectionId = 'dynsection-1';
</script>
<script xlink:href="../../svgpan.js"/>
<svg id="graph" class="graph">
<g id="viewport">
<title>/home/travis/build/AliceO2Group/AliceO2/Common/Utils/include/CommonUtils/TreeStream.h</title>
<!-- Node4 -->
<g id="node1" class="node">
<title>Node4</title>
<polygon fill="#bfbfbf" stroke="#000000" points="1127.5,-367.5 1127.5,-419.5 1281.5,-419.5 1281.5,-367.5 1127.5,-367.5"/>
<text text-anchor="start" x="1135.5" y="-407.5" font-family="Helvetica,sans-Serif" font-size="10.00" fill="#000000">/home/travis/build</text>
<text text-anchor="start" x="1135.5" y="-396.5" font-family="Helvetica,sans-Serif" font-size="10.00" fill="#000000">/AliceO2Group/AliceO2</text>
<text text-anchor="start" x="1135.5" y="-385.5" font-family="Helvetica,sans-Serif" font-size="10.00" fill="#000000">/Common/Utils/include</text>
<text text-anchor="middle" x="1204.5" y="-374.5" font-family="Helvetica,sans-Serif" font-size="10.00" fill="#000000">/CommonUtils/TreeStream.h</text>
</g>
<!-- Node5 -->
<g id="node2" class="node">
<title>Node5</title>
<g id="a_node2"><a xlink:href="../../d1/d22/TreeStreamRedirector_8h.html" target="_top" xlink:title="/home/travis/build\l/AliceO2Group/AliceO2\l/Common/Utils/include\l/CommonUtils/TreeStreamRedirector.h">
<polygon fill="none" stroke="#000000" points="781,-278.5 781,-330.5 984,-330.5 984,-278.5 781,-278.5"/>
<text text-anchor="start" x="789" y="-318.5" font-family="Helvetica,sans-Serif" font-size="10.00" fill="#000000">/home/travis/build</text>
<text text-anchor="start" x="789" y="-307.5" font-family="Helvetica,sans-Serif" font-size="10.00" fill="#000000">/AliceO2Group/AliceO2</text>
<text text-anchor="start" x="789" y="-296.5" font-family="Helvetica,sans-Serif" font-size="10.00" fill="#000000">/Common/Utils/include</text>
<text text-anchor="middle" x="882.5" y="-285.5" font-family="Helvetica,sans-Serif" font-size="10.00" fill="#000000">/CommonUtils/TreeStreamRedirector.h</text>
</a>
</g>
</g>
<!-- Node4&#45;&gt;Node5 -->
<g id="edge1" class="edge">
<title>Node4&#45;&gt;Node5</title>
<path fill="none" stroke="#191970" d="M1117.6621,-369.4982C1074.129,-357.4658 1021.3393,-342.8748 976.8146,-330.5683"/>
<polygon fill="#191970" stroke="#191970" points="1116.8019,-372.8916 1127.373,-372.1823 1118.6668,-366.1446 1116.8019,-372.8916"/>
</g>
<!-- Node7 -->
<g id="node4" class="node">
<title>Node7</title>
<g id="a_node4"><a xlink:href="../../dd/d75/testTreeStream_8cxx.html" target="_top" xlink:title="/home/travis/build\l/AliceO2Group/AliceO2\l/Common/Utils/test/testTreeStream.cxx">
<polygon fill="none" stroke="#000000" points="199,-195 199,-236 408,-236 408,-195 199,-195"/>
<text text-anchor="start" x="207" y="-224" font-family="Helvetica,sans-Serif" font-size="10.00" fill="#000000">/home/travis/build</text>
<text text-anchor="start" x="207" y="-213" font-family="Helvetica,sans-Serif" font-size="10.00" fill="#000000">/AliceO2Group/AliceO2</text>
<text text-anchor="middle" x="303.5" y="-202" font-family="Helvetica,sans-Serif" font-size="10.00" fill="#000000">/Common/Utils/test/testTreeStream.cxx</text>
</a>
</g>
</g>
<!-- Node4&#45;&gt;Node7 -->
<g id="edge19" class="edge">
<title>Node4&#45;&gt;Node7</title>
<path fill="none" stroke="#191970" d="M1117.0938,-383.4011C1029.5286,-372.6869 891.0895,-354.1235 772.5,-331 631.5504,-303.5166 469.3042,-261.1181 377.3271,-236.0578"/>
<polygon fill="#191970" stroke="#191970" points="1116.9018,-386.9035 1127.2512,-384.6366 1117.7471,-379.9547 1116.9018,-386.9035"/>
</g>
<!-- Node14 -->
<g id="node11" class="node">
<title>Node14</title>
<g id="a_node11"><a xlink:href="../../dc/d59/MatchTPCITS_8cxx.html" target="_top" xlink:title="/home/travis/build\l/AliceO2Group/AliceO2\l/Detectors/GlobalTracking\l/src/MatchTPCITS.cxx">
<polygon fill="none" stroke="#000000" points="1112.5,-95 1112.5,-147 1254.5,-147 1254.5,-95 1112.5,-95"/>
<text text-anchor="start" x="1120.5" y="-135" font-family="Helvetica,sans-Serif" font-size="10.00" fill="#000000">/home/travis/build</text>
<text text-anchor="start" x="1120.5" y="-124" font-family="Helvetica,sans-Serif" font-size="10.00" fill="#000000">/AliceO2Group/AliceO2</text>
<text text-anchor="start" x="1120.5" y="-113" font-family="Helvetica,sans-Serif" font-size="10.00" fill="#000000">/Detectors/GlobalTracking</text>
<text text-anchor="middle" x="1183.5" y="-102" font-family="Helvetica,sans-Serif" font-size="10.00" fill="#000000">/src/MatchTPCITS.cxx</text>
</a>
</g>
</g>
<!-- Node4&#45;&gt;Node14 -->
<g id="edge20" class="edge">
<title>Node4&#45;&gt;Node14</title>
<path fill="none" stroke="#191970" d="M1277.6091,-363.2377C1357.4474,-325.7776 1467.4728,-258.3927 1415.5,-189 1396.0316,-163.0063 1315.3249,-143.5906 1254.53,-132.2986"/>
<polygon fill="#191970" stroke="#191970" points="1276.1348,-360.0633 1268.5238,-367.4339 1279.0699,-366.4183 1276.1348,-360.0633"/>
</g>
<!-- Node20 -->
<g id="node17" class="node">
<title>Node20</title>
<g id="a_node17"><a xlink:href="../../dd/dc1/TreeStream_8cxx.html" target="_top" xlink:title="/home/travis/build\l/AliceO2Group/AliceO2\l/Common/Utils/src/TreeStream.cxx">
<polygon fill="none" stroke="#000000" points="1461,-284 1461,-325 1646,-325 1646,-284 1461,-284"/>
<text text-anchor="start" x="1469" y="-313" font-family="Helvetica,sans-Serif" font-size="10.00" fill="#000000">/home/travis/build</text>
<text text-anchor="start" x="1469" y="-302" font-family="Helvetica,sans-Serif" font-size="10.00" fill="#000000">/AliceO2Group/AliceO2</text>
<text text-anchor="middle" x="1553.5" y="-291" font-family="Helvetica,sans-Serif" font-size="10.00" fill="#000000">/Common/Utils/src/TreeStream.cxx</text>
</a>
</g>
</g>
<!-- Node4&#45;&gt;Node20 -->
<g id="edge18" class="edge">
<title>Node4&#45;&gt;Node20</title>
<path fill="none" stroke="#191970" d="M1291.3626,-371.3488C1347.0015,-357.1601 1418.6947,-338.8773 1473.0378,-325.019"/>
<polygon fill="#191970" stroke="#191970" points="1290.3466,-367.9958 1281.5216,-373.8584 1292.0764,-374.7787 1290.3466,-367.9958"/>
</g>
<!-- Node6 -->
<g id="node3" class="node">
<title>Node6</title>
<g id="a_node3"><a xlink:href="../../d8/dc3/TreeStreamRedirector_8cxx.html" target="_top" xlink:title="/home/travis/build\l/AliceO2Group/AliceO2\l/Common/Utils/src/TreeStream\lRedirector.cxx">
<polygon fill="none" stroke="#000000" points="1064,-189.5 1064,-241.5 1229,-241.5 1229,-189.5 1064,-189.5"/>
<text text-anchor="start" x="1072" y="-229.5" font-family="Helvetica,sans-Serif" font-size="10.00" fill="#000000">/home/travis/build</text>
<text text-anchor="start" x="1072" y="-218.5" font-family="Helvetica,sans-Serif" font-size="10.00" fill="#000000">/AliceO2Group/AliceO2</text>
<text text-anchor="start" x="1072" y="-207.5" font-family="Helvetica,sans-Serif" font-size="10.00" fill="#000000">/Common/Utils/src/TreeStream</text>
<text text-anchor="middle" x="1146.5" y="-196.5" font-family="Helvetica,sans-Serif" font-size="10.00" fill="#000000">Redirector.cxx</text>
</a>
</g>
</g>
<!-- Node5&#45;&gt;Node6 -->
<g id="edge2" class="edge">
<title>Node5&#45;&gt;Node6</title>
<path fill="none" stroke="#191970" d="M969.7439,-275.0882C1001.8288,-264.2717 1037.9152,-252.1062 1069.0765,-241.6011"/>
<polygon fill="#191970" stroke="#191970" points="968.2828,-271.8872 959.9249,-278.3984 970.519,-278.5204 968.2828,-271.8872"/>
</g>
<!-- Node5&#45;&gt;Node7 -->
<g id="edge3" class="edge">
<title>Node5&#45;&gt;Node7</title>
<path fill="none" stroke="#191970" d="M770.6746,-291.9732C677.2699,-280.872 540.7628,-263.1634 422.5,-242 412.4993,-240.2103 402.0653,-238.1602 391.712,-236.0101"/>
<polygon fill="#191970" stroke="#191970" points="770.3682,-295.4613 780.7102,-293.1603 771.1905,-288.5098 770.3682,-295.4613"/>
</g>
<!-- Node8 -->
<g id="node5" class="node">
<title>Node8</title>
<g id="a_node5"><a xlink:href="../../d0/daa/MatLayerCylSet_8cxx.html" target="_top" xlink:title="Implementation of the wrapper for the set of cylindrical material layers. ">
<polygon fill="none" stroke="#000000" points="1247,-189.5 1247,-241.5 1406,-241.5 1406,-189.5 1247,-189.5"/>
<text text-anchor="start" x="1255" y="-229.5" font-family="Helvetica,sans-Serif" font-size="10.00" fill="#000000">/home/travis/build</text>
<text text-anchor="start" x="1255" y="-218.5" font-family="Helvetica,sans-Serif" font-size="10.00" fill="#000000">/AliceO2Group/AliceO2</text>
<text text-anchor="start" x="1255" y="-207.5" font-family="Helvetica,sans-Serif" font-size="10.00" fill="#000000">/Detectors/Base/src/MatLayer</text>
<text text-anchor="middle" x="1326.5" y="-196.5" font-family="Helvetica,sans-Serif" font-size="10.00" fill="#000000">CylSet.cxx</text>
</a>
</g>
</g>
<!-- Node5&#45;&gt;Node8 -->
<g id="edge4" class="edge">
<title>Node5&#45;&gt;Node8</title>
<path fill="none" stroke="#191970" d="M994.2817,-288.3649C1064.7699,-277.3312 1157.4688,-261.2419 1238.5,-242 1241.2943,-241.3365 1244.1307,-240.6352 1246.9894,-239.9049"/>
<polygon fill="#191970" stroke="#191970" points="993.3907,-284.9613 984.047,-289.9559 994.466,-291.8782 993.3907,-284.9613"/>
</g>
<!-- Node9 -->
<g id="node6" class="node">
<title>Node9</title>
<g id="a_node6"><a xlink:href="../../d0/d74/MatchTOF_8h.html" target="_top" xlink:title="Class to perform TOF matching to global tracks. ">
<polygon fill="none" stroke="#000000" points="342.5,-95 342.5,-147 530.5,-147 530.5,-95 342.5,-95"/>
<text text-anchor="start" x="350.5" y="-135" font-family="Helvetica,sans-Serif" font-size="10.00" fill="#000000">/home/travis/build</text>
<text text-anchor="start" x="350.5" y="-124" font-family="Helvetica,sans-Serif" font-size="10.00" fill="#000000">/AliceO2Group/AliceO2</text>
<text text-anchor="start" x="350.5" y="-113" font-family="Helvetica,sans-Serif" font-size="10.00" fill="#000000">/Detectors/GlobalTracking</text>
<text text-anchor="middle" x="436.5" y="-102" font-family="Helvetica,sans-Serif" font-size="10.00" fill="#000000">/include/GlobalTracking/MatchTOF.h</text>
</a>
</g>
</g>
<!-- Node5&#45;&gt;Node9 -->
<g id="edge5" class="edge">
<title>Node5&#45;&gt;Node9</title>
<path fill="none" stroke="#191970" d="M770.5947,-294.9721C651.6688,-283.7818 477.6694,-263.9397 455.5,-242 430.7126,-217.4694 429.8865,-174.7102 432.494,-147.1451"/>
<polygon fill="#191970" stroke="#191970" points="770.5659,-298.4845 780.8478,-295.9283 771.216,-291.5148 770.5659,-298.4845"/>
</g>
<!-- Node13 -->
<g id="node10" class="node">
<title>Node13</title>
<g id="a_node10"><a xlink:href="../../d3/dac/MatchTPCITS_8h.html" target="_top" xlink:title="Class to perform TPC ITS matching. ">
<polygon fill="none" stroke="#000000" points="465,-189.5 465,-241.5 670,-241.5 670,-189.5 465,-189.5"/>
<text text-anchor="start" x="473" y="-229.5" font-family="Helvetica,sans-Serif" font-size="10.00" fill="#000000">/home/travis/build</text>
<text text-anchor="start" x="473" y="-218.5" font-family="Helvetica,sans-Serif" font-size="10.00" fill="#000000">/AliceO2Group/AliceO2</text>
<text text-anchor="start" x="473" y="-207.5" font-family="Helvetica,sans-Serif" font-size="10.00" fill="#000000">/Detectors/GlobalTracking</text>
<text text-anchor="middle" x="567.5" y="-196.5" font-family="Helvetica,sans-Serif" font-size="10.00" fill="#000000">/include/GlobalTracking/MatchTPCITS.h</text>
</a>
</g>
</g>
<!-- Node5&#45;&gt;Node13 -->
<g id="edge9" class="edge">
<title>Node5&#45;&gt;Node13</title>
<path fill="none" stroke="#191970" d="M780.3562,-275.6403C741.496,-264.6608 697.4846,-252.2258 659.6081,-241.5242"/>
<polygon fill="#191970" stroke="#191970" points="779.5431,-279.0475 790.118,-278.3984 781.4464,-272.3112 779.5431,-279.0475"/>
</g>
<!-- Node18 -->
<g id="node15" class="node">
<title>Node18</title>
<g id="a_node15"><a xlink:href="../../d7/dc4/StandaloneDebugger_8cxx.html" target="_top" xlink:title="/home/travis/build\l/AliceO2Group/AliceO2\l/Detectors/ITSMFT/ITS\l/tracking/src/StandaloneDebugger.cxx">
<polygon fill="none" stroke="#000000" points="688,-189.5 688,-241.5 889,-241.5 889,-189.5 688,-189.5"/>
<text text-anchor="start" x="696" y="-229.5" font-family="Helvetica,sans-Serif" font-size="10.00" fill="#000000">/home/travis/build</text>
<text text-anchor="start" x="696" y="-218.5" font-family="Helvetica,sans-Serif" font-size="10.00" fill="#000000">/AliceO2Group/AliceO2</text>
<text text-anchor="start" x="696" y="-207.5" font-family="Helvetica,sans-Serif" font-size="10.00" fill="#000000">/Detectors/ITSMFT/ITS</text>
<text text-anchor="middle" x="788.5" y="-196.5" font-family="Helvetica,sans-Serif" font-size="10.00" fill="#000000">/tracking/src/StandaloneDebugger.cxx</text>
</a>
</g>
</g>
<!-- Node5&#45;&gt;Node18 -->
<g id="edge16" class="edge">
<title>Node5&#45;&gt;Node18</title>
<path fill="none" stroke="#191970" d="M847.4237,-271.2894C837.041,-261.459 825.827,-250.8415 815.9967,-241.5341"/>
<polygon fill="#191970" stroke="#191970" points="845.1374,-273.9447 854.8053,-278.2784 849.9501,-268.8615 845.1374,-273.9447"/>
</g>
<!-- Node19 -->
<g id="node16" class="node">
<title>Node19</title>
<g id="a_node16"><a xlink:href="../../dd/de2/testDCAFitterN_8cxx.html" target="_top" xlink:title="/home/travis/build\l/AliceO2Group/AliceO2\l/Detectors/Vertexing/test\l/testDCAFitterN.cxx">
<polygon fill="none" stroke="#000000" points="907.5,-189.5 907.5,-241.5 1045.5,-241.5 1045.5,-189.5 907.5,-189.5"/>
<text text-anchor="start" x="915.5" y="-229.5" font-family="Helvetica,sans-Serif" font-size="10.00" fill="#000000">/home/travis/build</text>
<text text-anchor="start" x="915.5" y="-218.5" font-family="Helvetica,sans-Serif" font-size="10.00" fill="#000000">/AliceO2Group/AliceO2</text>
<text text-anchor="start" x="915.5" y="-207.5" font-family="Helvetica,sans-Serif" font-size="10.00" fill="#000000">/Detectors/Vertexing/test</text>
<text text-anchor="middle" x="976.5" y="-196.5" font-family="Helvetica,sans-Serif" font-size="10.00" fill="#000000">/testDCAFitterN.cxx</text>
</a>
</g>
</g>
<!-- Node5&#45;&gt;Node19 -->
<g id="edge17" class="edge">
<title>Node5&#45;&gt;Node19</title>
<path fill="none" stroke="#191970" d="M917.5763,-271.2894C927.959,-261.459 939.173,-250.8415 949.0033,-241.5341"/>
<polygon fill="#191970" stroke="#191970" points="915.0499,-268.8615 910.1947,-278.2784 919.8626,-273.9447 915.0499,-268.8615"/>
</g>
<!-- Node10 -->
<g id="node7" class="node">
<title>Node10</title>
<g id="a_node7"><a xlink:href="../../db/d6a/MatchTOF_8cxx.html" target="_top" xlink:title="/home/travis/build\l/AliceO2Group/AliceO2\l/Detectors/GlobalTracking\l/src/MatchTOF.cxx">
<polygon fill="none" stroke="#000000" points="496.5,-.5 496.5,-52.5 638.5,-52.5 638.5,-.5 496.5,-.5"/>
<text text-anchor="start" x="504.5" y="-40.5" font-family="Helvetica,sans-Serif" font-size="10.00" fill="#000000">/home/travis/build</text>
<text text-anchor="start" x="504.5" y="-29.5" font-family="Helvetica,sans-Serif" font-size="10.00" fill="#000000">/AliceO2Group/AliceO2</text>
<text text-anchor="start" x="504.5" y="-18.5" font-family="Helvetica,sans-Serif" font-size="10.00" fill="#000000">/Detectors/GlobalTracking</text>
<text text-anchor="middle" x="567.5" y="-7.5" font-family="Helvetica,sans-Serif" font-size="10.00" fill="#000000">/src/MatchTOF.cxx</text>
</a>
</g>
</g>
<!-- Node9&#45;&gt;Node10 -->
<g id="edge6" class="edge">
<title>Node9&#45;&gt;Node10</title>
<path fill="none" stroke="#191970" d="M480.9637,-88.925C497.2611,-77.1685 515.5025,-64.0097 531.0201,-52.8157"/>
<polygon fill="#191970" stroke="#191970" points="478.7055,-86.2384 472.6431,-94.9273 482.8008,-91.9154 478.7055,-86.2384"/>
</g>
<!-- Node11 -->
<g id="node8" class="node">
<title>Node11</title>
<g id="a_node8"><a xlink:href="../../d8/d84/RecoWorkflowSpec_8cxx.html" target="_top" xlink:title="/home/travis/build\l/AliceO2Group/AliceO2\l/Detectors/GlobalTrackingWorkflow\l/tofworkflow/src/RecoWorkflowSpec.cxx">
<polygon fill="none" stroke="#000000" points="0,-.5 0,-52.5 209,-52.5 209,-.5 0,-.5"/>
<text text-anchor="start" x="8" y="-40.5" font-family="Helvetica,sans-Serif" font-size="10.00" fill="#000000">/home/travis/build</text>
<text text-anchor="start" x="8" y="-29.5" font-family="Helvetica,sans-Serif" font-size="10.00" fill="#000000">/AliceO2Group/AliceO2</text>
<text text-anchor="start" x="8" y="-18.5" font-family="Helvetica,sans-Serif" font-size="10.00" fill="#000000">/Detectors/GlobalTrackingWorkflow</text>
<text text-anchor="middle" x="104.5" y="-7.5" font-family="Helvetica,sans-Serif" font-size="10.00" fill="#000000">/tofworkflow/src/RecoWorkflowSpec.cxx</text>
</a>
</g>
</g>
<!-- Node9&#45;&gt;Node11 -->
<g id="edge7" class="edge">
<title>Node9&#45;&gt;Node11</title>
<path fill="none" stroke="#191970" d="M335.2643,-92.1844C290.923,-79.5632 239.2701,-64.8608 196.0881,-52.5695"/>
<polygon fill="#191970" stroke="#191970" points="334.3245,-95.5559 344.9007,-94.9273 336.2409,-88.8233 334.3245,-95.5559"/>
</g>
<!-- Node12 -->
<g id="node9" class="node">
<title>Node12</title>
<g id="a_node9"><a xlink:href="../../d4/d76/RecoWorkflowWithTPCSpec_8cxx.html" target="_top" xlink:title="/home/travis/build\l/AliceO2Group/AliceO2\l/Detectors/GlobalTrackingWorkflow\l/tofworkflow/src/RecoWorkflowWithTPCSpec.cxx">
<polygon fill="none" stroke="#000000" points="227,-.5 227,-52.5 478,-52.5 478,-.5 227,-.5"/>
<text text-anchor="start" x="235" y="-40.5" font-family="Helvetica,sans-Serif" font-size="10.00" fill="#000000">/home/travis/build</text>
<text text-anchor="start" x="235" y="-29.5" font-family="Helvetica,sans-Serif" font-size="10.00" fill="#000000">/AliceO2Group/AliceO2</text>
<text text-anchor="start" x="235" y="-18.5" font-family="Helvetica,sans-Serif" font-size="10.00" fill="#000000">/Detectors/GlobalTrackingWorkflow</text>
<text text-anchor="middle" x="352.5" y="-7.5" font-family="Helvetica,sans-Serif" font-size="10.00" fill="#000000">/tofworkflow/src/RecoWorkflowWithTPCSpec.cxx</text>
</a>
</g>
</g>
<!-- Node9&#45;&gt;Node12 -->
<g id="edge8" class="edge">
<title>Node9&#45;&gt;Node12</title>
<path fill="none" stroke="#191970" d="M406.5432,-87.2986C396.4693,-75.9654 385.3855,-63.4962 375.8917,-52.8157"/>
<polygon fill="#191970" stroke="#191970" points="404.0647,-89.7785 413.3243,-94.9273 409.2965,-85.1279 404.0647,-89.7785"/>
</g>
<!-- Node13&#45;&gt;Node9 -->
<g id="edge10" class="edge">
<title>Node13&#45;&gt;Node9</title>
<path fill="none" stroke="#191970" d="M523.0363,-183.425C506.7389,-171.6685 488.4975,-158.5097 472.9799,-147.3157"/>
<polygon fill="#191970" stroke="#191970" points="521.1992,-186.4154 531.3569,-189.4273 525.2945,-180.7384 521.1992,-186.4154"/>
</g>
<!-- Node13&#45;&gt;Node10 -->
<g id="edge11" class="edge">
<title>Node13&#45;&gt;Node10</title>
<path fill="none" stroke="#191970" d="M567.5,-178.8402C567.5,-141.7407 567.5,-85.3142 567.5,-52.5564"/>
<polygon fill="#191970" stroke="#191970" points="564.0001,-179.2203 567.5,-189.2204 571.0001,-179.2204 564.0001,-179.2203"/>
</g>
<!-- Node13&#45;&gt;Node14 -->
<g id="edge12" class="edge">
<title>Node13&#45;&gt;Node14</title>
<path fill="none" stroke="#191970" d="M680.2208,-188.7425C839.6564,-159.4983 1016.4151,-138.6458 1112.4703,-128.2859"/>
<polygon fill="#191970" stroke="#191970" points="679.4267,-185.3299 670.2301,-190.5903 680.6999,-192.2131 679.4267,-185.3299"/>
</g>
<!-- Node15 -->
<g id="node12" class="node">
<title>Node15</title>
<g id="a_node12"><a xlink:href="../../da/d20/TPCITSMatchingSpec_8h.html" target="_top" xlink:title="/home/travis/build\l/AliceO2Group/AliceO2\l/Detectors/GlobalTrackingWorkflow\l/include/GlobalTrackingWorkflow\l/TPCITSMatchingSpec.h">
<polygon fill="none" stroke="#000000" points="657,-89.5 657,-152.5 844,-152.5 844,-89.5 657,-89.5"/>
<text text-anchor="start" x="665" y="-140.5" font-family="Helvetica,sans-Serif" font-size="10.00" fill="#000000">/home/travis/build</text>
<text text-anchor="start" x="665" y="-129.5" font-family="Helvetica,sans-Serif" font-size="10.00" fill="#000000">/AliceO2Group/AliceO2</text>
<text text-anchor="start" x="665" y="-118.5" font-family="Helvetica,sans-Serif" font-size="10.00" fill="#000000">/Detectors/GlobalTrackingWorkflow</text>
<text text-anchor="start" x="665" y="-107.5" font-family="Helvetica,sans-Serif" font-size="10.00" fill="#000000">/include/GlobalTrackingWorkflow</text>
<text text-anchor="middle" x="750.5" y="-96.5" font-family="Helvetica,sans-Serif" font-size="10.00" fill="#000000">/TPCITSMatchingSpec.h</text>
</a>
</g>
</g>
<!-- Node13&#45;&gt;Node15 -->
<g id="edge13" class="edge">
<title>Node13&#45;&gt;Node15</title>
<path fill="none" stroke="#191970" d="M626.9967,-184.7763C646.9925,-174.4506 669.3212,-162.9202 689.4355,-152.5333"/>
<polygon fill="#191970" stroke="#191970" points="625.2693,-181.7291 617.99,-189.4273 628.4812,-187.9488 625.2693,-181.7291"/>
</g>
<!-- Node16 -->
<g id="node13" class="node">
<title>Node16</title>
<g id="a_node13"><a xlink:href="../../d5/db4/MatchTPCITSWorkflow_8cxx.html" target="_top" xlink:title="/home/travis/build\l/AliceO2Group/AliceO2\l/Detectors/GlobalTrackingWorkflow\l/src/MatchTPCITSWorkflow.cxx">
<polygon fill="none" stroke="#000000" points="862,-.5 862,-52.5 1049,-52.5 1049,-.5 862,-.5"/>
<text text-anchor="start" x="870" y="-40.5" font-family="Helvetica,sans-Serif" font-size="10.00" fill="#000000">/home/travis/build</text>
<text text-anchor="start" x="870" y="-29.5" font-family="Helvetica,sans-Serif" font-size="10.00" fill="#000000">/AliceO2Group/AliceO2</text>
<text text-anchor="start" x="870" y="-18.5" font-family="Helvetica,sans-Serif" font-size="10.00" fill="#000000">/Detectors/GlobalTrackingWorkflow</text>
<text text-anchor="middle" x="955.5" y="-7.5" font-family="Helvetica,sans-Serif" font-size="10.00" fill="#000000">/src/MatchTPCITSWorkflow.cxx</text>
</a>
</g>
</g>
<!-- Node15&#45;&gt;Node16 -->
<g id="edge14" class="edge">
<title>Node15&#45;&gt;Node16</title>
<path fill="none" stroke="#191970" d="M828.2947,-85.1385C851.7927,-74.3065 877.1326,-62.6254 898.9641,-52.5617"/>
<polygon fill="#191970" stroke="#191970" points="826.6633,-82.0365 819.047,-89.4015 829.5938,-88.3936 826.6633,-82.0365"/>
</g>
<!-- Node17 -->
<g id="node14" class="node">
<title>Node17</title>
<g id="a_node14"><a xlink:href="../../d6/d73/TPCITSMatchingSpec_8cxx.html" target="_top" xlink:title="/home/travis/build\l/AliceO2Group/AliceO2\l/Detectors/GlobalTrackingWorkflow\l/src/TPCITSMatchingSpec.cxx">
<polygon fill="none" stroke="#000000" points="657,-.5 657,-52.5 844,-52.5 844,-.5 657,-.5"/>
<text text-anchor="start" x="665" y="-40.5" font-family="Helvetica,sans-Serif" font-size="10.00" fill="#000000">/home/travis/build</text>
<text text-anchor="start" x="665" y="-29.5" font-family="Helvetica,sans-Serif" font-size="10.00" fill="#000000">/AliceO2Group/AliceO2</text>
<text text-anchor="start" x="665" y="-18.5" font-family="Helvetica,sans-Serif" font-size="10.00" fill="#000000">/Detectors/GlobalTrackingWorkflow</text>
<text text-anchor="middle" x="750.5" y="-7.5" font-family="Helvetica,sans-Serif" font-size="10.00" fill="#000000">/src/TPCITSMatchingSpec.cxx</text>
</a>
</g>
</g>
<!-- Node15&#45;&gt;Node17 -->
<g id="edge15" class="edge">
<title>Node15&#45;&gt;Node17</title>
<path fill="none" stroke="#191970" d="M750.5,-79.2457C750.5,-70.2008 750.5,-60.8836 750.5,-52.6442"/>
<polygon fill="#191970" stroke="#191970" points="747.0001,-79.2699 750.5,-89.27 754.0001,-79.27 747.0001,-79.2699"/>
</g>
</g>
</svg>
        <g id="navigator" transform="translate(0 0)" fill="#404254">
                <rect fill="#f2f5e9" fill-opacity="0.5" stroke="#606060" stroke-width=".5" x="0" y="0" width="60" height="60"/>
                <use id="zoomplus" xlink:href="#zoomPlus" x="17" y="9" onmousedown="handleZoom(evt,'in')"/>
                <use id="zoomminus" xlink:href="#zoomMin" x="42" y="9" onmousedown="handleZoom(evt,'out')"/>
                <use id="reset" xlink:href="#resetDef" x="30" y="36" onmousedown="handleReset()"/>
                <g id="arrowUp" xlink:href="#dirArrow" transform="translate(30 24)" onmousedown="handlePan(0,-1)">
                  <use xlink:href="#rim" fill="#404040">
                        <set attributeName="fill" to="#808080" begin="arrowUp.mouseover" end="arrowUp.mouseout"/>
                  </use>
                  <path fill="none" stroke="white" stroke-width="1.5" d="M0,-3.0v7 M-2.5,-0.5L0,-3.0L2.5,-0.5"/>
                </g>
                <g id="arrowRight" xlink:href="#dirArrow" transform="rotate(90) translate(36 -43)" onmousedown="handlePan(1,0)">
                  <use xlink:href="#rim" fill="#404040">
                        <set attributeName="fill" to="#808080" begin="arrowRight.mouseover" end="arrowRight.mouseout"/>
                  </use>
                  <path fill="none" stroke="white" stroke-width="1.5" d="M0,-3.0v7 M-2.5,-0.5L0,-3.0L2.5,-0.5"/>
                </g>
                <g id="arrowDown" xlink:href="#dirArrow" transform="rotate(180) translate(-30 -48)" onmousedown="handlePan(0,1)">
                  <use xlink:href="#rim" fill="#404040">
                        <set attributeName="fill" to="#808080" begin="arrowDown.mouseover" end="arrowDown.mouseout"/>
                  </use>
                  <path fill="none" stroke="white" stroke-width="1.5" d="M0,-3.0v7 M-2.5,-0.5L0,-3.0L2.5,-0.5"/>
                </g>
                <g id="arrowLeft" xlink:href="#dirArrow" transform="rotate(270) translate(-36 17)" onmousedown="handlePan(-1,0)">
                  <use xlink:href="#rim" fill="#404040">
                        <set attributeName="fill" to="#808080" begin="arrowLeft.mouseover" end="arrowLeft.mouseout"/>
                  </use>
                  <path fill="none" stroke="white" stroke-width="1.5" d="M0,-3.0v7 M-2.5,-0.5L0,-3.0L2.5,-0.5"/>
                </g>
        </g>
        <svg viewBox="0 0 15 15" width="100%" height="30px" preserveAspectRatio="xMaxYMin meet">
         <g id="arrow_out" transform="scale(0.3 0.3)">
          <a xlink:href="TreeStream_8h__dep__incl_org.svg" target="_base">
           <rect id="button" ry="5" rx="5" y="6" x="6" height="38" width="38"
                fill="#f2f5e9" fill-opacity="0.5" stroke="#606060" stroke-width="1.0"/>
           <path id="arrow"
             d="M 11.500037,31.436501 C 11.940474,20.09759 22.043105,11.32322 32.158766,21.979434 L 37.068811,17.246167 C 37.068811,17.246167 37.088388,32 37.088388,32 L 22.160133,31.978069 C 22.160133,31.978069 26.997745,27.140456 26.997745,27.140456 C 18.528582,18.264221 13.291696,25.230495 11.500037,31.436501 z"
             style="fill:#404040;"/>
          </a>
         </g>
        </svg>
</svg>
