<?xml version="1.0" encoding="UTF-8" standalone="no"?>
<!DOCTYPE svg PUBLIC "-//W3C//DTD SVG 1.1//EN"
 "http://www.w3.org/Graphics/SVG/1.1/DTD/svg11.dtd">
<!-- Generated by graphviz version 2.40.1 (20161225.0304)
 -->
<!-- Title: /home/travis/build/AliceO2Group/AliceO2/Framework/Core/include/Framework/InputRoute.h Pages: 1 -->
<svg width="3003pt" height="374pt"
 viewBox="0.00 0.00 3003.00 374.00" xmlns="http://www.w3.org/2000/svg" xmlns:xlink="http://www.w3.org/1999/xlink">
<g id="graph0" class="graph" transform="scale(1 1) rotate(0) translate(4 370)">
<title>/home/travis/build/AliceO2Group/AliceO2/Framework/Core/include/Framework/InputRoute.h</title>
<!-- Node0 -->
<g id="node1" class="node">
<title>Node0</title>
<polygon fill="#bfbfbf" stroke="#000000" points="2713,-313.5 2713,-365.5 2851,-365.5 2851,-313.5 2713,-313.5"/>
<text text-anchor="start" x="2721" y="-353.5" font-family="Helvetica,sans-Serif" font-size="10.00" fill="#000000">/home/travis/build</text>
<text text-anchor="start" x="2721" y="-342.5" font-family="Helvetica,sans-Serif" font-size="10.00" fill="#000000">/AliceO2Group/AliceO2</text>
<text text-anchor="start" x="2721" y="-331.5" font-family="Helvetica,sans-Serif" font-size="10.00" fill="#000000">/Framework/Core/include</text>
<text text-anchor="middle" x="2782" y="-320.5" font-family="Helvetica,sans-Serif" font-size="10.00" fill="#000000">/Framework/InputRoute.h</text>
</g>
<!-- Node1 -->
<g id="node2" class="node">
<title>Node1</title>
<g id="a_node2"><a xlink:href="../../d2/dd9/ExpirationHandler_8h.html" target="_top" xlink:title="Framework/ExpirationHandler.h">
<polygon fill="none" stroke="#000000" points="2641,-257.5 2641,-276.5 2811,-276.5 2811,-257.5 2641,-257.5"/>
<text text-anchor="middle" x="2726" y="-264.5" font-family="Helvetica,sans-Serif" font-size="10.00" fill="#000000">Framework/ExpirationHandler.h</text>
</a>
</g>
</g>
<!-- Node0&#45;&gt;Node1 -->
<g id="edge1" class="edge">
<title>Node0&#45;&gt;Node1</title>
<path fill="none" stroke="#191970" d="M2761.7827,-313.3258C2754.435,-303.8132 2746.3107,-293.2951 2739.6629,-284.6886"/>
<polygon fill="#191970" stroke="#191970" points="2742.2471,-282.3085 2733.3642,-276.534 2736.7072,-286.5876 2742.2471,-282.3085"/>
</g>
<!-- Node5 -->
<g id="node6" class="node">
<title>Node5</title>
<polygon fill="none" stroke="#bfbfbf" points="2926.5,-196 2926.5,-215 2991.5,-215 2991.5,-196 2926.5,-196"/>
<text text-anchor="middle" x="2959" y="-203" font-family="Helvetica,sans-Serif" font-size="10.00" fill="#000000">functional</text>
</g>
<!-- Node0&#45;&gt;Node5 -->
<g id="edge73" class="edge">
<title>Node0&#45;&gt;Node5</title>
<path fill="none" stroke="#191970" d="M2802.2547,-313.4722C2816.7481,-296.0125 2837.439,-273.3134 2859,-257 2879.5691,-241.4371 2905.5331,-228.2242 2925.8495,-219.0791"/>
<polygon fill="#191970" stroke="#191970" points="2927.284,-222.2718 2935.0334,-215.047 2924.4699,-215.8624 2927.284,-222.2718"/>
</g>
<!-- Node6 -->
<g id="node7" class="node">
<title>Node6</title>
<g id="a_node7"><a xlink:href="../../d5/d3f/InputSpec_8h.html" target="_top" xlink:title="Framework/InputSpec.h">
<polygon fill="none" stroke="#000000" points="2235.5,-257.5 2235.5,-276.5 2366.5,-276.5 2366.5,-257.5 2235.5,-257.5"/>
<text text-anchor="middle" x="2301" y="-264.5" font-family="Helvetica,sans-Serif" font-size="10.00" fill="#000000">Framework/InputSpec.h</text>
</a>
</g>
</g>
<!-- Node0&#45;&gt;Node6 -->
<g id="edge6" class="edge">
<title>Node0&#45;&gt;Node6</title>
<path fill="none" stroke="#191970" d="M2712.8285,-329.0739C2622.8729,-315.5151 2466.4031,-291.9308 2374.4123,-278.0653"/>
<polygon fill="#191970" stroke="#191970" points="2374.7555,-274.5775 2364.3455,-276.5479 2373.7121,-281.4994 2374.7555,-274.5775"/>
</g>
<!-- Node14 -->
<g id="node15" class="node">
<title>Node14</title>
<polygon fill="none" stroke="#bfbfbf" points="578,-6 578,-25 622,-25 622,-6 578,-6"/>
<text text-anchor="middle" x="600" y="-13" font-family="Helvetica,sans-Serif" font-size="10.00" fill="#000000">string</text>
</g>
<!-- Node0&#45;&gt;Node14 -->
<g id="edge72" class="edge">
<title>Node0&#45;&gt;Node14</title>
<path fill="none" stroke="#191970" d="M2712.9218,-338.54C2361.8515,-333.2176 792,-303.916 792,-205.5 792,-205.5 792,-205.5 792,-138.5 792,-119.1742 680.2838,-57.7634 627.2843,-29.7168"/>
<polygon fill="#191970" stroke="#191970" points="628.8886,-26.606 618.4098,-25.0421 625.6262,-32.7993 628.8886,-26.606"/>
</g>
<!-- Node47 -->
<g id="node48" class="node">
<title>Node47</title>
<polygon fill="none" stroke="#bfbfbf" points="2867.5,-257.5 2867.5,-276.5 2920.5,-276.5 2920.5,-257.5 2867.5,-257.5"/>
<text text-anchor="middle" x="2894" y="-264.5" font-family="Helvetica,sans-Serif" font-size="10.00" fill="#000000">cstddef</text>
</g>
<!-- Node0&#45;&gt;Node47 -->
<g id="edge71" class="edge">
<title>Node0&#45;&gt;Node47</title>
<path fill="none" stroke="#191970" d="M2822.4346,-313.3258C2838.6768,-302.8119 2856.8167,-291.0696 2870.7694,-282.0377"/>
<polygon fill="#191970" stroke="#191970" points="2872.7788,-284.9063 2879.2716,-276.534 2868.975,-279.03 2872.7788,-284.9063"/>
</g>
<!-- Node48 -->
<g id="node49" class="node">
<title>Node48</title>
<polygon fill="none" stroke="#bfbfbf" points="2939,-257.5 2939,-276.5 2995,-276.5 2995,-257.5 2939,-257.5"/>
<text text-anchor="middle" x="2967" y="-264.5" font-family="Helvetica,sans-Serif" font-size="10.00" fill="#000000">optional</text>
</g>
<!-- Node0&#45;&gt;Node48 -->
<g id="edge74" class="edge">
<title>Node0&#45;&gt;Node48</title>
<path fill="none" stroke="#191970" d="M2848.5279,-313.4283C2877.1703,-302.2035 2909.4281,-289.5619 2933.0431,-280.3074"/>
<polygon fill="#191970" stroke="#191970" points="2934.5654,-283.4701 2942.5989,-276.5626 2932.0113,-276.9527 2934.5654,-283.4701"/>
</g>
<!-- Node2 -->
<g id="node3" class="node">
<title>Node2</title>
<g id="a_node3"><a xlink:href="../../dc/dca/Lifetime_8h.html" target="_top" xlink:title="Framework/Lifetime.h">
<polygon fill="none" stroke="#000000" points="2529.5,-196 2529.5,-215 2652.5,-215 2652.5,-196 2529.5,-196"/>
<text text-anchor="middle" x="2591" y="-203" font-family="Helvetica,sans-Serif" font-size="10.00" fill="#000000">Framework/Lifetime.h</text>
</a>
</g>
</g>
<!-- Node1&#45;&gt;Node2 -->
<g id="edge2" class="edge">
<title>Node1&#45;&gt;Node2</title>
<path fill="none" stroke="#191970" d="M2704.9063,-257.3906C2682.4173,-247.1457 2646.6082,-230.8326 2621.1476,-219.2339"/>
<polygon fill="#191970" stroke="#191970" points="2622.4968,-216.0025 2611.9456,-215.0419 2619.5948,-222.3727 2622.4968,-216.0025"/>
</g>
<!-- Node3 -->
<g id="node4" class="node">
<title>Node3</title>
<g id="a_node4"><a xlink:href="../../d7/d87/RoutingIndices_8h.html" target="_top" xlink:title="Framework/RoutingIndices.h">
<polygon fill="none" stroke="#000000" points="2754,-196 2754,-215 2908,-215 2908,-196 2754,-196"/>
<text text-anchor="middle" x="2831" y="-203" font-family="Helvetica,sans-Serif" font-size="10.00" fill="#000000">Framework/RoutingIndices.h</text>
</a>
</g>
</g>
<!-- Node1&#45;&gt;Node3 -->
<g id="edge3" class="edge">
<title>Node1&#45;&gt;Node3</title>
<path fill="none" stroke="#191970" d="M2742.4063,-257.3906C2759.4353,-247.4165 2786.2841,-231.6908 2805.9651,-220.1633"/>
<polygon fill="#191970" stroke="#191970" points="2807.849,-223.1161 2814.709,-215.0419 2804.3112,-217.0759 2807.849,-223.1161"/>
</g>
<!-- Node4 -->
<g id="node5" class="node">
<title>Node4</title>
<polygon fill="none" stroke="#bfbfbf" points="2824,-6 2824,-25 2874,-25 2874,-6 2824,-6"/>
<text text-anchor="middle" x="2849" y="-13" font-family="Helvetica,sans-Serif" font-size="10.00" fill="#000000">cstdint</text>
</g>
<!-- Node1&#45;&gt;Node4 -->
<g id="edge4" class="edge">
<title>Node1&#45;&gt;Node4</title>
<path fill="none" stroke="#191970" d="M2727.4585,-257.2287C2729.8929,-242.3197 2735.4798,-213.1808 2745,-190 2770.0129,-129.0962 2813.8521,-64.2208 2835.7575,-33.5551"/>
<polygon fill="#191970" stroke="#191970" points="2838.7894,-35.335 2841.8065,-25.1788 2833.1145,-31.2368 2838.7894,-35.335"/>
</g>
<!-- Node1&#45;&gt;Node5 -->
<g id="edge5" class="edge">
<title>Node1&#45;&gt;Node5</title>
<path fill="none" stroke="#191970" d="M2772.333,-257.4362C2811.2675,-249.0203 2868.2106,-235.8222 2917,-221 2919.6284,-220.2015 2922.3316,-219.328 2925.0389,-218.4155"/>
<polygon fill="#191970" stroke="#191970" points="2926.4629,-221.6249 2934.7343,-215.0041 2924.1395,-215.0217 2926.4629,-221.6249"/>
</g>
<!-- Node6&#45;&gt;Node2 -->
<g id="edge7" class="edge">
<title>Node6&#45;&gt;Node2</title>
<path fill="none" stroke="#191970" d="M2345.9943,-257.4581C2397.216,-246.5956 2480.9001,-228.8488 2535.9655,-217.1711"/>
<polygon fill="#191970" stroke="#191970" points="2536.8438,-220.5628 2545.9001,-215.0643 2535.3916,-213.7151 2536.8438,-220.5628"/>
</g>
<!-- Node7 -->
<g id="node8" class="node">
<title>Node7</title>
<g id="a_node8"><a xlink:href="../../d0/d1b/ConcreteDataMatcher_8h.html" target="_top" xlink:title="Framework/ConcreteDataMatcher.h">
<polygon fill="none" stroke="#000000" points="2235,-129 2235,-148 2423,-148 2423,-129 2235,-129"/>
<text text-anchor="middle" x="2329" y="-136" font-family="Helvetica,sans-Serif" font-size="10.00" fill="#000000">Framework/ConcreteDataMatcher.h</text>
</a>
</g>
</g>
<!-- Node6&#45;&gt;Node7 -->
<g id="edge8" class="edge">
<title>Node6&#45;&gt;Node7</title>
<path fill="none" stroke="#191970" d="M2303.1046,-257.3416C2307.6855,-236.3184 2318.6368,-186.0598 2324.7283,-158.1038"/>
<polygon fill="#191970" stroke="#191970" points="2328.1617,-158.7864 2326.871,-148.2705 2321.3222,-157.296 2328.1617,-158.7864"/>
</g>
<!-- Node6&#45;&gt;Node14 -->
<g id="edge68" class="edge">
<title>Node6&#45;&gt;Node14</title>
<path fill="none" stroke="#191970" d="M2235.2292,-264.773C2002.0643,-256.3544 1216.0427,-223.3684 975,-154 893.8155,-130.6364 885.6674,-95.105 806,-67 731.1167,-40.5828 706.0374,-56.9763 631,-31 629.3972,-30.4452 627.7716,-29.8246 626.1475,-29.1595"/>
<polygon fill="#191970" stroke="#191970" points="627.5852,-25.9684 617.0337,-25.0109 624.6851,-32.3394 627.5852,-25.9684"/>
</g>
<!-- Node18 -->
<g id="node19" class="node">
<title>Node18</title>
<g id="a_node19"><a xlink:href="../../d3/da3/DataDescriptorMatcher_8h.html" target="_top" xlink:title="Framework/DataDescriptor\lMatcher.h">
<polygon fill="none" stroke="#000000" points="2073.5,-190.5 2073.5,-220.5 2220.5,-220.5 2220.5,-190.5 2073.5,-190.5"/>
<text text-anchor="start" x="2081.5" y="-208.5" font-family="Helvetica,sans-Serif" font-size="10.00" fill="#000000">Framework/DataDescriptor</text>
<text text-anchor="middle" x="2147" y="-197.5" font-family="Helvetica,sans-Serif" font-size="10.00" fill="#000000">Matcher.h</text>
</a>
</g>
</g>
<!-- Node6&#45;&gt;Node18 -->
<g id="edge20" class="edge">
<title>Node6&#45;&gt;Node18</title>
<path fill="none" stroke="#191970" d="M2276.9375,-257.3906C2254.8411,-248.5664 2221.4719,-235.2404 2194.0828,-224.3026"/>
<polygon fill="#191970" stroke="#191970" points="2195.2576,-221.003 2184.6726,-220.5446 2192.6614,-227.5038 2195.2576,-221.003"/>
</g>
<!-- Node39 -->
<g id="node40" class="node">
<title>Node39</title>
<polygon fill="none" stroke="#bfbfbf" points="2646.5,-129 2646.5,-148 2697.5,-148 2697.5,-129 2646.5,-129"/>
<text text-anchor="middle" x="2672" y="-136" font-family="Helvetica,sans-Serif" font-size="10.00" fill="#000000">variant</text>
</g>
<!-- Node6&#45;&gt;Node39 -->
<g id="edge70" class="edge">
<title>Node6&#45;&gt;Node39</title>
<path fill="none" stroke="#191970" d="M2327.5521,-257.4031C2368.6713,-242.6003 2450.2878,-213.4543 2520,-190 2569.5564,-173.327 2582.7131,-171.4535 2632,-154 2634.1105,-153.2526 2636.2769,-152.467 2638.4571,-151.6625"/>
<polygon fill="#191970" stroke="#191970" points="2639.8505,-154.8777 2647.9719,-148.0738 2637.3801,-148.3281 2639.8505,-154.8777"/>
</g>
<!-- Node41 -->
<g id="node42" class="node">
<title>Node41</title>
<g id="a_node42"><a xlink:href="../../d0/d1c/ConfigParamSpec_8h.html" target="_top" xlink:title="Framework/ConfigParamSpec.h">
<polygon fill="none" stroke="#000000" points="367.5,-129 367.5,-148 534.5,-148 534.5,-129 367.5,-129"/>
<text text-anchor="middle" x="451" y="-136" font-family="Helvetica,sans-Serif" font-size="10.00" fill="#000000">Framework/ConfigParamSpec.h</text>
</a>
</g>
</g>
<!-- Node6&#45;&gt;Node41 -->
<g id="edge56" class="edge">
<title>Node6&#45;&gt;Node41</title>
<path fill="none" stroke="#191970" d="M2235.3939,-266.3919C1990.2104,-263.8894 1127.8497,-252.9647 855,-221 723.7713,-205.6264 571.7676,-169.5371 497.158,-150.5942"/>
<polygon fill="#191970" stroke="#191970" points="497.7093,-147.1227 487.1541,-148.039 495.9769,-153.905 497.7093,-147.1227"/>
</g>
<!-- Node46 -->
<g id="node47" class="node">
<title>Node46</title>
<polygon fill="none" stroke="#bfbfbf" points="2243.5,-196 2243.5,-215 2300.5,-215 2300.5,-196 2243.5,-196"/>
<text text-anchor="middle" x="2272" y="-203" font-family="Helvetica,sans-Serif" font-size="10.00" fill="#000000">ostream</text>
</g>
<!-- Node6&#45;&gt;Node46 -->
<g id="edge69" class="edge">
<title>Node6&#45;&gt;Node46</title>
<path fill="none" stroke="#191970" d="M2296.4688,-257.3906C2292.3219,-248.5965 2286.0668,-235.3312 2280.919,-224.4145"/>
<polygon fill="#191970" stroke="#191970" points="2284.0259,-222.7969 2276.5951,-215.2449 2277.6945,-225.7825 2284.0259,-222.7969"/>
</g>
<!-- Node8 -->
<g id="node9" class="node">
<title>Node8</title>
<g id="a_node9"><a xlink:href="../../dc/dcd/DataHeader_8h.html" target="_top" xlink:title="Headers/DataHeader.h">
<polygon fill="none" stroke="#000000" points="2281.5,-67.5 2281.5,-86.5 2408.5,-86.5 2408.5,-67.5 2281.5,-67.5"/>
<text text-anchor="middle" x="2345" y="-74.5" font-family="Helvetica,sans-Serif" font-size="10.00" fill="#000000">Headers/DataHeader.h</text>
</a>
</g>
</g>
<!-- Node7&#45;&gt;Node8 -->
<g id="edge9" class="edge">
<title>Node7&#45;&gt;Node8</title>
<path fill="none" stroke="#191970" d="M2331.5,-128.8906C2333.7412,-120.276 2337.0986,-107.3708 2339.9045,-96.5858"/>
<polygon fill="#191970" stroke="#191970" points="2343.3341,-97.304 2342.4648,-86.7449 2336.5596,-95.5414 2343.3341,-97.304"/>
</g>
<!-- Node8&#45;&gt;Node4 -->
<g id="edge10" class="edge">
<title>Node8&#45;&gt;Node4</title>
<path fill="none" stroke="#191970" d="M2408.6797,-68.1023C2411.8296,-67.7169 2414.9496,-67.3471 2418,-67 2594.0328,-46.9722 2643.7446,-76.3897 2815,-31 2817.1908,-30.4193 2819.4169,-29.7085 2821.6279,-28.9138"/>
<polygon fill="#191970" stroke="#191970" points="2823.1471,-32.0736 2831.0675,-25.0367 2820.4875,-25.5985 2823.1471,-32.0736"/>
</g>
<!-- Node9 -->
<g id="node10" class="node">
<title>Node9</title>
<polygon fill="none" stroke="#bfbfbf" points="2678,-6 2678,-25 2736,-25 2736,-6 2678,-6"/>
<text text-anchor="middle" x="2707" y="-13" font-family="Helvetica,sans-Serif" font-size="10.00" fill="#000000">memory</text>
</g>
<!-- Node8&#45;&gt;Node9 -->
<g id="edge11" class="edge">
<title>Node8&#45;&gt;Node9</title>
<path fill="none" stroke="#191970" d="M2408.803,-68.1062C2501.1456,-55.207 2661.7733,-32.6556 2668,-31 2670.6163,-30.3043 2673.2947,-29.4841 2675.9621,-28.5901"/>
<polygon fill="#191970" stroke="#191970" points="2677.2551,-31.844 2685.443,-25.1202 2674.8492,-25.2704 2677.2551,-31.844"/>
</g>
<!-- Node10 -->
<g id="node11" class="node">
<title>Node10</title>
<polygon fill="none" stroke="#bfbfbf" points="2754,-6 2754,-25 2806,-25 2806,-6 2754,-6"/>
<text text-anchor="middle" x="2780" y="-13" font-family="Helvetica,sans-Serif" font-size="10.00" fill="#000000">cassert</text>
</g>
<!-- Node8&#45;&gt;Node10 -->
<g id="edge12" class="edge">
<title>Node8&#45;&gt;Node10</title>
<path fill="none" stroke="#191970" d="M2408.6883,-68.1745C2411.8359,-67.77 2414.9531,-67.3763 2418,-67 2563.1087,-49.0766 2603.8266,-69.0505 2745,-31 2747.1897,-30.4098 2749.4175,-29.7016 2751.6344,-28.9172"/>
<polygon fill="#191970" stroke="#191970" points="2753.1446,-32.0828 2761.1313,-25.1213 2750.5465,-25.5828 2753.1446,-32.0828"/>
</g>
<!-- Node11 -->
<g id="node12" class="node">
<title>Node11</title>
<polygon fill="none" stroke="#bfbfbf" points="1238,-6 1238,-25 1288,-25 1288,-6 1238,-6"/>
<text text-anchor="middle" x="1263" y="-13" font-family="Helvetica,sans-Serif" font-size="10.00" fill="#000000">cstring</text>
</g>
<!-- Node8&#45;&gt;Node11 -->
<g id="edge13" class="edge">
<title>Node8&#45;&gt;Node11</title>
<path fill="none" stroke="#191970" d="M2281.4044,-75.6232C2069.0359,-70.8297 1392.3465,-53.9089 1297,-31 1294.6583,-30.4374 1292.2807,-29.7119 1289.9269,-28.8827"/>
<polygon fill="#191970" stroke="#191970" points="1291.1185,-25.5887 1280.5378,-25.0414 1288.4678,-32.0675 1291.1185,-25.5887"/>
</g>
<!-- Node12 -->
<g id="node13" class="node">
<title>Node12</title>
<polygon fill="none" stroke="#bfbfbf" points="2512,-6 2512,-25 2576,-25 2576,-6 2512,-6"/>
<text text-anchor="middle" x="2544" y="-13" font-family="Helvetica,sans-Serif" font-size="10.00" fill="#000000">algorithm</text>
</g>
<!-- Node8&#45;&gt;Node12 -->
<g id="edge14" class="edge">
<title>Node8&#45;&gt;Node12</title>
<path fill="none" stroke="#191970" d="M2380.1321,-67.4501C2412.0912,-58.5869 2460.4702,-44.7293 2502,-31 2504.3891,-30.2102 2506.8457,-29.3722 2509.3145,-28.511"/>
<polygon fill="#191970" stroke="#191970" points="2510.5423,-31.789 2518.7796,-25.126 2508.185,-25.1978 2510.5423,-31.789"/>
</g>
<!-- Node13 -->
<g id="node14" class="node">
<title>Node13</title>
<polygon fill="none" stroke="#bfbfbf" points="2594.5,-6 2594.5,-25 2659.5,-25 2659.5,-6 2594.5,-6"/>
<text text-anchor="middle" x="2627" y="-13" font-family="Helvetica,sans-Serif" font-size="10.00" fill="#000000">stdexcept</text>
</g>
<!-- Node8&#45;&gt;Node13 -->
<g id="edge15" class="edge">
<title>Node8&#45;&gt;Node13</title>
<path fill="none" stroke="#191970" d="M2408.5678,-67.7369C2457.3262,-59.9314 2526.0428,-47.4093 2585,-31 2587.8079,-30.2185 2590.6944,-29.3333 2593.5762,-28.3917"/>
<polygon fill="#191970" stroke="#191970" points="2594.9346,-31.6251 2603.2351,-25.0409 2592.6403,-25.0118 2594.9346,-31.6251"/>
</g>
<!-- Node8&#45;&gt;Node14 -->
<g id="edge16" class="edge">
<title>Node8&#45;&gt;Node14</title>
<path fill="none" stroke="#191970" d="M2281.2753,-76.0642C1980.3107,-71.5462 712.397,-51.3718 631,-31 629.0737,-30.5179 627.129,-29.9025 625.2025,-29.1963"/>
<polygon fill="#191970" stroke="#191970" points="626.4556,-25.9239 615.8925,-25.1036 623.6385,-32.3321 626.4556,-25.9239"/>
</g>
<!-- Node15 -->
<g id="node16" class="node">
<title>Node15</title>
<polygon fill="none" stroke="#bfbfbf" points="2378,-6 2378,-25 2428,-25 2428,-6 2378,-6"/>
<text text-anchor="middle" x="2403" y="-13" font-family="Helvetica,sans-Serif" font-size="10.00" fill="#000000">climits</text>
</g>
<!-- Node8&#45;&gt;Node15 -->
<g id="edge17" class="edge">
<title>Node8&#45;&gt;Node15</title>
<path fill="none" stroke="#191970" d="M2354.0625,-67.3906C2362.7793,-58.1478 2376.154,-43.966 2386.7196,-32.7628"/>
<polygon fill="#191970" stroke="#191970" points="2389.495,-34.9213 2393.8097,-25.2449 2384.4024,-30.1186 2389.495,-34.9213"/>
</g>
<!-- Node16 -->
<g id="node17" class="node">
<title>Node16</title>
<g id="a_node17"><a xlink:href="../../d7/df8/Types_8h.html" target="_top" xlink:title="MemoryResources/Types.h">
<polygon fill="none" stroke="#000000" points="2214,-6 2214,-25 2360,-25 2360,-6 2214,-6"/>
<text text-anchor="middle" x="2287" y="-13" font-family="Helvetica,sans-Serif" font-size="10.00" fill="#000000">MemoryResources/Types.h</text>
</a>
</g>
</g>
<!-- Node8&#45;&gt;Node16 -->
<g id="edge18" class="edge">
<title>Node8&#45;&gt;Node16</title>
<path fill="none" stroke="#191970" d="M2335.9375,-67.3906C2327.2207,-58.1478 2313.846,-43.966 2303.2804,-32.7628"/>
<polygon fill="#191970" stroke="#191970" points="2305.5976,-30.1186 2296.1903,-25.2449 2300.505,-34.9213 2305.5976,-30.1186"/>
</g>
<!-- Node17 -->
<g id="node18" class="node">
<title>Node17</title>
<polygon fill="none" stroke="#bfbfbf" points="2446.5,-6 2446.5,-25 2493.5,-25 2493.5,-6 2446.5,-6"/>
<text text-anchor="middle" x="2470" y="-13" font-family="Helvetica,sans-Serif" font-size="10.00" fill="#000000">cerrno</text>
</g>
<!-- Node8&#45;&gt;Node17 -->
<g id="edge19" class="edge">
<title>Node8&#45;&gt;Node17</title>
<path fill="none" stroke="#191970" d="M2364.5313,-67.3906C2385.1708,-57.2359 2417.9276,-41.1196 2441.4602,-29.5416"/>
<polygon fill="#191970" stroke="#191970" points="2443.1782,-32.5971 2450.6059,-25.0419 2440.088,-26.3161 2443.1782,-32.5971"/>
</g>
<!-- Node18&#45;&gt;Node4 -->
<g id="edge50" class="edge">
<title>Node18&#45;&gt;Node4</title>
<path fill="none" stroke="#191970" d="M2220.5076,-191.9882C2225.0675,-191.2789 2229.5927,-190.609 2234,-190 2395.475,-167.6872 2448.3121,-216.1707 2599,-154 2619.1484,-145.6872 2619.8193,-136.4121 2637,-123 2669.7915,-97.4014 2675.2715,-86.5341 2712,-67 2754.8146,-44.229 2770.0018,-49.0767 2815,-31 2816.392,-30.4408 2817.81,-29.8561 2819.2379,-29.2552"/>
<polygon fill="#191970" stroke="#191970" points="2820.8723,-32.3606 2828.6348,-25.15 2818.0699,-25.9461 2820.8723,-32.3606"/>
</g>
<!-- Node18&#45;&gt;Node7 -->
<g id="edge21" class="edge">
<title>Node18&#45;&gt;Node7</title>
<path fill="none" stroke="#191970" d="M2187.8444,-190.4639C2219.5762,-178.7824 2263.1407,-162.7449 2293.4466,-151.5884"/>
<polygon fill="#191970" stroke="#191970" points="2295.0045,-154.7445 2303.1797,-148.0053 2292.5862,-148.1755 2295.0045,-154.7445"/>
</g>
<!-- Node18&#45;&gt;Node8 -->
<g id="edge30" class="edge">
<title>Node18&#45;&gt;Node8</title>
<path fill="none" stroke="#191970" d="M2146.0897,-190.2055C2145.8704,-171.7594 2148.4532,-140.9943 2166,-123 2180.9316,-107.6876 2228.8535,-95.8487 2271.3571,-88.0181"/>
<polygon fill="#191970" stroke="#191970" points="2272.2275,-91.4181 2281.4552,-86.2124 2270.9952,-84.5274 2272.2275,-91.4181"/>
</g>
<!-- Node18&#45;&gt;Node14 -->
<g id="edge52" class="edge">
<title>Node18&#45;&gt;Node14</title>
<path fill="none" stroke="#191970" d="M2073.095,-203.9858C1841.6849,-198.9762 1140.577,-181.6666 1042,-154 964.443,-132.2329 959.4318,-92.4375 883,-67 775.652,-31.2732 738.9909,-64.7338 631,-31 629.3416,-30.4819 627.6629,-29.8836 625.9896,-29.2296"/>
<polygon fill="#191970" stroke="#191970" points="627.2012,-25.9374 616.6438,-25.0477 624.3421,-32.3269 627.2012,-25.9374"/>
</g>
<!-- Node19 -->
<g id="node20" class="node">
<title>Node19</title>
<g id="a_node20"><a xlink:href="../../d6/dc9/DataProcessingHeader_8h.html" target="_top" xlink:title="Framework/DataProcessing\lHeader.h">
<polygon fill="none" stroke="#000000" points="2441.5,-123.5 2441.5,-153.5 2590.5,-153.5 2590.5,-123.5 2441.5,-123.5"/>
<text text-anchor="start" x="2449.5" y="-141.5" font-family="Helvetica,sans-Serif" font-size="10.00" fill="#000000">Framework/DataProcessing</text>
<text text-anchor="middle" x="2516" y="-130.5" font-family="Helvetica,sans-Serif" font-size="10.00" fill="#000000">Header.h</text>
</a>
</g>
</g>
<!-- Node18&#45;&gt;Node19 -->
<g id="edge22" class="edge">
<title>Node18&#45;&gt;Node19</title>
<path fill="none" stroke="#191970" d="M2220.5296,-192.2901C2275.7288,-182.3555 2353.4649,-168.3271 2431.3546,-154.1143"/>
<polygon fill="#191970" stroke="#191970" points="2432.1388,-157.529 2441.3476,-152.2899 2430.8816,-150.6429 2432.1388,-157.529"/>
</g>
<!-- Node22 -->
<g id="node23" class="node">
<title>Node22</title>
<g id="a_node23"><a xlink:href="../../d1/d76/RuntimeError_8h.html" target="_top" xlink:title="Framework/RuntimeError.h">
<polygon fill="none" stroke="#000000" points="0,-6 0,-25 146,-25 146,-6 0,-6"/>
<text text-anchor="middle" x="73" y="-13" font-family="Helvetica,sans-Serif" font-size="10.00" fill="#000000">Framework/RuntimeError.h</text>
</a>
</g>
</g>
<!-- Node18&#45;&gt;Node22 -->
<g id="edge29" class="edge">
<title>Node18&#45;&gt;Node22</title>
<path fill="none" stroke="#191970" d="M2073.3378,-205.2082C1757.4931,-203.7093 526.1431,-195.2486 358,-154 253.3143,-128.3186 141.9222,-60.8149 95.4153,-30.5533"/>
<polygon fill="#191970" stroke="#191970" points="97.279,-27.5899 87.0003,-25.0209 93.4335,-33.439 97.279,-27.5899"/>
</g>
<!-- Node23 -->
<g id="node24" class="node">
<title>Node23</title>
<g id="a_node24"><a xlink:href="../../d4/d00/Headers_2include_2Headers_2Stack_8h.html" target="_top" xlink:title="Headers/Stack.h">
<polygon fill="none" stroke="#000000" points="2023,-129 2023,-148 2119,-148 2119,-129 2023,-129"/>
<text text-anchor="middle" x="2071" y="-136" font-family="Helvetica,sans-Serif" font-size="10.00" fill="#000000">Headers/Stack.h</text>
</a>
</g>
</g>
<!-- Node18&#45;&gt;Node23 -->
<g id="edge31" class="edge">
<title>Node18&#45;&gt;Node23</title>
<path fill="none" stroke="#191970" d="M2129.7544,-190.2967C2117.7983,-179.7564 2101.8881,-165.7303 2089.6396,-154.9323"/>
<polygon fill="#191970" stroke="#191970" points="2091.6543,-152.0425 2081.8385,-148.055 2087.0252,-157.2934 2091.6543,-152.0425"/>
</g>
<!-- Node31 -->
<g id="node32" class="node">
<title>Node31</title>
<polygon fill="none" stroke="#bfbfbf" points="640.5,-6 640.5,-25 687.5,-25 687.5,-6 640.5,-6"/>
<text text-anchor="middle" x="664" y="-13" font-family="Helvetica,sans-Serif" font-size="10.00" fill="#000000">vector</text>
</g>
<!-- Node18&#45;&gt;Node31 -->
<g id="edge54" class="edge">
<title>Node18&#45;&gt;Node31</title>
<path fill="none" stroke="#191970" d="M2073.4075,-196.5952C1891.1639,-174.5507 1404.2216,-115.6948 998,-67 863.7883,-50.9117 825.7253,-68.9863 696,-31 694.2894,-30.4991 692.5575,-29.914 690.831,-29.2701"/>
<polygon fill="#191970" stroke="#191970" points="691.7547,-25.8571 681.1859,-25.1153 688.9854,-32.286 691.7547,-25.8571"/>
</g>
<!-- Node37 -->
<g id="node38" class="node">
<title>Node37</title>
<polygon fill="none" stroke="#bfbfbf" points="2175,-129 2175,-148 2217,-148 2217,-129 2175,-129"/>
<text text-anchor="middle" x="2196" y="-136" font-family="Helvetica,sans-Serif" font-size="10.00" fill="#000000">array</text>
</g>
<!-- Node18&#45;&gt;Node37 -->
<g id="edge49" class="edge">
<title>Node18&#45;&gt;Node37</title>
<path fill="none" stroke="#191970" d="M2158.1189,-190.2967C2165.5309,-180.1618 2175.3,-166.804 2183.061,-156.1921"/>
<polygon fill="#191970" stroke="#191970" points="2185.9339,-158.1928 2189.012,-148.055 2180.2837,-154.0606 2185.9339,-158.1928"/>
</g>
<!-- Node38 -->
<g id="node39" class="node">
<title>Node38</title>
<polygon fill="none" stroke="#bfbfbf" points="423.5,-6 423.5,-25 472.5,-25 472.5,-6 423.5,-6"/>
<text text-anchor="middle" x="448" y="-13" font-family="Helvetica,sans-Serif" font-size="10.00" fill="#000000">iosfwd</text>
</g>
<!-- Node18&#45;&gt;Node38 -->
<g id="edge51" class="edge">
<title>Node18&#45;&gt;Node38</title>
<path fill="none" stroke="#191970" d="M2073.1835,-204.1889C1850.6267,-199.9302 1188.4032,-184.9377 975,-154 751.0819,-121.538 694.188,-106.7891 481,-31 479.4009,-30.4315 477.7748,-29.8121 476.1448,-29.1586"/>
<polygon fill="#191970" stroke="#191970" points="477.4961,-25.9297 466.9292,-25.1614 474.7107,-32.3517 477.4961,-25.9297"/>
</g>
<!-- Node18&#45;&gt;Node39 -->
<g id="edge53" class="edge">
<title>Node18&#45;&gt;Node39</title>
<path fill="none" stroke="#191970" d="M2220.5019,-191.946C2225.0632,-191.2473 2229.5903,-190.5911 2234,-190 2410.0364,-166.4017 2459.0639,-194.4819 2632,-154 2634.8553,-153.3316 2637.7785,-152.5021 2640.6813,-151.577"/>
<polygon fill="#191970" stroke="#191970" points="2642.0835,-154.7935 2650.3428,-148.1577 2639.7481,-148.1946 2642.0835,-154.7935"/>
</g>
<!-- Node40 -->
<g id="node41" class="node">
<title>Node40</title>
<polygon fill="none" stroke="#bfbfbf" points="1051,-129 1051,-148 1197,-148 1197,-129 1051,-129"/>
<text text-anchor="middle" x="1124" y="-136" font-family="Helvetica,sans-Serif" font-size="10.00" fill="#000000">DataDescriptorMatcher.inc</text>
</g>
<!-- Node18&#45;&gt;Node40 -->
<g id="edge55" class="edge">
<title>Node18&#45;&gt;Node40</title>
<path fill="none" stroke="#191970" d="M2073.3253,-204.4819C1914.9869,-201.6283 1530.6804,-191.133 1211,-154 1201.4991,-152.8964 1191.466,-151.4111 1181.7234,-149.7954"/>
<polygon fill="#191970" stroke="#191970" points="1182.1585,-146.3189 1171.7102,-148.075 1180.9731,-153.2178 1182.1585,-146.3189"/>
</g>
<!-- Node19&#45;&gt;Node4 -->
<g id="edge24" class="edge">
<title>Node19&#45;&gt;Node4</title>
<path fill="none" stroke="#191970" d="M2548.5819,-123.4873C2570.7231,-113.2598 2600.6606,-99.3812 2627,-87 2645.7109,-78.2047 2649.5299,-73.955 2669,-67 2731.9375,-44.5179 2751.8772,-52.9563 2815,-31 2816.6428,-30.4286 2818.3145,-29.8068 2819.991,-29.1515"/>
<polygon fill="#191970" stroke="#191970" points="2821.6244,-32.2612 2829.4773,-25.149 2818.9032,-25.8117 2821.6244,-32.2612"/>
</g>
<!-- Node19&#45;&gt;Node8 -->
<g id="edge23" class="edge">
<title>Node19&#45;&gt;Node8</title>
<path fill="none" stroke="#191970" d="M2474.1687,-123.4554C2445.6369,-113.194 2408.2365,-99.7429 2381.0271,-89.9571"/>
<polygon fill="#191970" stroke="#191970" points="2382.0934,-86.6212 2371.4989,-86.5303 2379.7243,-93.2081 2382.0934,-86.6212"/>
</g>
<!-- Node19&#45;&gt;Node9 -->
<g id="edge26" class="edge">
<title>Node19&#45;&gt;Node9</title>
<path fill="none" stroke="#191970" d="M2529.564,-123.2733C2544.0873,-107.641 2568.3833,-83.3523 2593,-67 2606.9166,-57.7556 2645.2838,-41.0205 2673.6844,-29.138"/>
<polygon fill="#191970" stroke="#191970" points="2675.368,-32.2286 2683.258,-25.1576 2672.6806,-25.765 2675.368,-32.2286"/>
</g>
<!-- Node19&#45;&gt;Node10 -->
<g id="edge27" class="edge">
<title>Node19&#45;&gt;Node10</title>
<path fill="none" stroke="#191970" d="M2536.7198,-123.387C2559.0824,-107.6205 2596.1849,-83.0118 2631,-67 2679.2724,-44.799 2695.2991,-49.7864 2745,-31 2746.624,-30.3861 2748.2811,-29.7361 2749.9475,-29.0638"/>
<polygon fill="#191970" stroke="#191970" points="2751.576,-32.1756 2759.4296,-25.0643 2748.8555,-25.7258 2751.576,-32.1756"/>
</g>
<!-- Node20 -->
<g id="node21" class="node">
<title>Node20</title>
<polygon fill="none" stroke="#bfbfbf" points="2427,-67.5 2427,-86.5 2473,-86.5 2473,-67.5 2427,-67.5"/>
<text text-anchor="middle" x="2450" y="-74.5" font-family="Helvetica,sans-Serif" font-size="10.00" fill="#000000">cstdio</text>
</g>
<!-- Node19&#45;&gt;Node20 -->
<g id="edge25" class="edge">
<title>Node19&#45;&gt;Node20</title>
<path fill="none" stroke="#191970" d="M2499.6854,-123.2977C2490.0467,-114.3163 2477.8309,-102.9334 2467.9241,-93.702"/>
<polygon fill="#191970" stroke="#191970" points="2470.2696,-91.1036 2460.5674,-86.8469 2465.4975,-96.2249 2470.2696,-91.1036"/>
</g>
<!-- Node21 -->
<g id="node22" class="node">
<title>Node21</title>
<polygon fill="none" stroke="#bfbfbf" points="2491,-67.5 2491,-86.5 2541,-86.5 2541,-67.5 2491,-67.5"/>
<text text-anchor="middle" x="2516" y="-74.5" font-family="Helvetica,sans-Serif" font-size="10.00" fill="#000000">chrono</text>
</g>
<!-- Node19&#45;&gt;Node21 -->
<g id="edge28" class="edge">
<title>Node19&#45;&gt;Node21</title>
<path fill="none" stroke="#191970" d="M2516,-123.2977C2516,-115.3834 2516,-105.6043 2516,-97.0759"/>
<polygon fill="#191970" stroke="#191970" points="2519.5001,-96.8469 2516,-86.8469 2512.5001,-96.847 2519.5001,-96.8469"/>
</g>
<!-- Node23&#45;&gt;Node8 -->
<g id="edge48" class="edge">
<title>Node23&#45;&gt;Node8</title>
<path fill="none" stroke="#191970" d="M2108.3299,-128.9666C2116.4509,-126.9489 2125.0045,-124.8664 2133,-123 2185.7984,-110.6752 2246.2555,-97.6655 2289.0614,-88.6386"/>
<polygon fill="#191970" stroke="#191970" points="2289.9381,-92.0308 2299.0031,-86.5467 2288.4967,-85.1808 2289.9381,-92.0308"/>
</g>
<!-- Node24 -->
<g id="node25" class="node">
<title>Node24</title>
<g id="a_node25"><a xlink:href="../../dc/d03/MemoryResources_8h.html" target="_top" xlink:title="MemoryResources/MemoryResources.h">
<polygon fill="none" stroke="#000000" points="1253.5,-67.5 1253.5,-86.5 1460.5,-86.5 1460.5,-67.5 1253.5,-67.5"/>
<text text-anchor="middle" x="1357" y="-74.5" font-family="Helvetica,sans-Serif" font-size="10.00" fill="#000000">MemoryResources/MemoryResources.h</text>
</a>
</g>
</g>
<!-- Node23&#45;&gt;Node24 -->
<g id="edge32" class="edge">
<title>Node23&#45;&gt;Node24</title>
<path fill="none" stroke="#191970" d="M2022.7648,-134.3453C1910.5704,-124.6815 1629.5872,-100.4791 1470.8404,-86.8056"/>
<polygon fill="#191970" stroke="#191970" points="1470.8273,-83.2916 1460.5638,-85.9204 1470.2266,-90.2658 1470.8273,-83.2916"/>
</g>
<!-- Node24&#45;&gt;Node11 -->
<g id="edge37" class="edge">
<title>Node24&#45;&gt;Node11</title>
<path fill="none" stroke="#191970" d="M1342.3125,-67.3906C1327.2744,-57.5519 1303.6824,-42.1167 1286.1333,-30.6351"/>
<polygon fill="#191970" stroke="#191970" points="1287.8687,-27.588 1277.5844,-25.0419 1284.0363,-33.4457 1287.8687,-27.588"/>
</g>
<!-- Node24&#45;&gt;Node14 -->
<g id="edge38" class="edge">
<title>Node24&#45;&gt;Node14</title>
<path fill="none" stroke="#191970" d="M1253.4453,-72.7256C1067.1601,-64.6984 689.4152,-46.7564 631,-31 629.2825,-30.5367 627.5484,-29.9738 625.8242,-29.3403"/>
<polygon fill="#191970" stroke="#191970" points="626.8095,-25.9509 616.2454,-25.1447 624.001,-32.3628 626.8095,-25.9509"/>
</g>
<!-- Node24&#45;&gt;Node16 -->
<g id="edge47" class="edge">
<title>Node24&#45;&gt;Node16</title>
<path fill="none" stroke="#191970" d="M1460.7068,-75.715C1620.7505,-72.7531 1937.3383,-63.0019 2204,-31 2213.0851,-29.9097 2222.6745,-28.4295 2231.9821,-26.8145"/>
<polygon fill="#191970" stroke="#191970" points="2232.7133,-30.2392 2241.934,-25.0211 2231.4718,-23.3501 2232.7133,-30.2392"/>
</g>
<!-- Node25 -->
<g id="node26" class="node">
<title>Node25</title>
<polygon fill="none" stroke="#bfbfbf" points="1937.5,-.5 1937.5,-30.5 2048.5,-30.5 2048.5,-.5 1937.5,-.5"/>
<text text-anchor="start" x="1945.5" y="-18.5" font-family="Helvetica,sans-Serif" font-size="10.00" fill="#000000">boost/container/flat</text>
<text text-anchor="middle" x="1993" y="-7.5" font-family="Helvetica,sans-Serif" font-size="10.00" fill="#000000">_map.hpp</text>
</g>
<!-- Node24&#45;&gt;Node25 -->
<g id="edge33" class="edge">
<title>Node24&#45;&gt;Node25</title>
<path fill="none" stroke="#191970" d="M1460.7191,-73.4357C1573.3277,-68.4766 1758.5198,-57.15 1927.3725,-30.9266"/>
<polygon fill="#191970" stroke="#191970" points="1928.1089,-34.3539 1937.4431,-29.3417 1927.0205,-27.439 1928.1089,-34.3539"/>
</g>
<!-- Node26 -->
<g id="node27" class="node">
<title>Node26</title>
<polygon fill="none" stroke="#bfbfbf" points="2066.5,-.5 2066.5,-30.5 2195.5,-30.5 2195.5,-.5 2066.5,-.5"/>
<text text-anchor="start" x="2074.5" y="-18.5" font-family="Helvetica,sans-Serif" font-size="10.00" fill="#000000">boost/container/pmr</text>
<text text-anchor="middle" x="2131" y="-7.5" font-family="Helvetica,sans-Serif" font-size="10.00" fill="#000000">/memory_resource.hpp</text>
</g>
<!-- Node24&#45;&gt;Node26 -->
<g id="edge34" class="edge">
<title>Node24&#45;&gt;Node26</title>
<path fill="none" stroke="#191970" d="M1460.6451,-74.7461C1595.6146,-70.7869 1838.9354,-60.1526 2056.1229,-30.9875"/>
<polygon fill="#191970" stroke="#191970" points="2056.6802,-34.444 2066.1179,-29.6296 2055.7378,-27.5077 2056.6802,-34.444"/>
</g>
<!-- Node27 -->
<g id="node28" class="node">
<title>Node27</title>
<polygon fill="none" stroke="#bfbfbf" points="705.5,-.5 705.5,-30.5 878.5,-30.5 878.5,-.5 705.5,-.5"/>
<text text-anchor="start" x="713.5" y="-18.5" font-family="Helvetica,sans-Serif" font-size="10.00" fill="#000000">boost/container/pmr</text>
<text text-anchor="middle" x="792" y="-7.5" font-family="Helvetica,sans-Serif" font-size="10.00" fill="#000000">/monotonic_buffer_resource.hpp</text>
</g>
<!-- Node24&#45;&gt;Node27 -->
<g id="edge35" class="edge">
<title>Node24&#45;&gt;Node27</title>
<path fill="none" stroke="#191970" d="M1253.2984,-67.6341C1141.6755,-57.4194 970.1727,-41.3061 888.6432,-31.1488"/>
<polygon fill="#191970" stroke="#191970" points="889.0501,-27.6724 878.6876,-29.8791 888.1645,-34.6162 889.0501,-27.6724"/>
</g>
<!-- Node28 -->
<g id="node29" class="node">
<title>Node28</title>
<polygon fill="none" stroke="#bfbfbf" points="896.5,-.5 896.5,-30.5 1045.5,-30.5 1045.5,-.5 896.5,-.5"/>
<text text-anchor="start" x="904.5" y="-18.5" font-family="Helvetica,sans-Serif" font-size="10.00" fill="#000000">boost/container/pmr</text>
<text text-anchor="middle" x="971" y="-7.5" font-family="Helvetica,sans-Serif" font-size="10.00" fill="#000000">/polymorphic_allocator.hpp</text>
</g>
<!-- Node24&#45;&gt;Node28 -->
<g id="edge36" class="edge">
<title>Node24&#45;&gt;Node28</title>
<path fill="none" stroke="#191970" d="M1289.8012,-67.4661C1230.6122,-58.9159 1141.8099,-45.7185 1055.5906,-31.241"/>
<polygon fill="#191970" stroke="#191970" points="1056.0783,-27.7739 1045.6354,-29.5616 1054.9138,-34.6764 1056.0783,-27.7739"/>
</g>
<!-- Node29 -->
<g id="node30" class="node">
<title>Node29</title>
<polygon fill="none" stroke="#bfbfbf" points="490.5,-6 490.5,-25 559.5,-25 559.5,-6 490.5,-6"/>
<text text-anchor="middle" x="525" y="-13" font-family="Helvetica,sans-Serif" font-size="10.00" fill="#000000">type_traits</text>
</g>
<!-- Node24&#45;&gt;Node29 -->
<g id="edge39" class="edge">
<title>Node24&#45;&gt;Node29</title>
<path fill="none" stroke="#191970" d="M1253.4115,-74.5525C1070.3433,-69.6273 696.8819,-56.7238 569,-31 565.3724,-30.2703 561.6382,-29.3074 557.951,-28.2177"/>
<polygon fill="#191970" stroke="#191970" points="558.9983,-24.8779 548.406,-25.1104 556.8314,-31.5341 558.9983,-24.8779"/>
</g>
<!-- Node30 -->
<g id="node31" class="node">
<title>Node30</title>
<polygon fill="none" stroke="#bfbfbf" points="1063.5,-6 1063.5,-25 1108.5,-25 1108.5,-6 1063.5,-6"/>
<text text-anchor="middle" x="1086" y="-13" font-family="Helvetica,sans-Serif" font-size="10.00" fill="#000000">utility</text>
</g>
<!-- Node24&#45;&gt;Node30 -->
<g id="edge40" class="edge">
<title>Node24&#45;&gt;Node30</title>
<path fill="none" stroke="#191970" d="M1278.3236,-67.4768C1230.7821,-60.3644 1169.4397,-48.7576 1117,-31 1115.3935,-30.456 1113.765,-29.8439 1112.1387,-29.1852"/>
<polygon fill="#191970" stroke="#191970" points="1113.572,-25.9922 1103.0188,-25.0546 1110.6839,-32.3687 1113.572,-25.9922"/>
</g>
<!-- Node24&#45;&gt;Node31 -->
<g id="edge41" class="edge">
<title>Node24&#45;&gt;Node31</title>
<path fill="none" stroke="#191970" d="M1253.4045,-68.1126C1248.5357,-67.7289 1243.7153,-67.3561 1239,-67 997.8236,-48.7874 929.8187,-92.8593 696,-31 694.0754,-30.4908 692.1279,-29.864 690.1938,-29.1571"/>
<polygon fill="#191970" stroke="#191970" points="691.3729,-25.8546 680.8028,-25.1313 688.6148,-32.2884 691.3729,-25.8546"/>
</g>
<!-- Node32 -->
<g id="node33" class="node">
<title>Node32</title>
<polygon fill="none" stroke="#bfbfbf" points="1126.5,-6 1126.5,-25 1219.5,-25 1219.5,-6 1126.5,-6"/>
<text text-anchor="middle" x="1173" y="-13" font-family="Helvetica,sans-Serif" font-size="10.00" fill="#000000">unordered_map</text>
</g>
<!-- Node24&#45;&gt;Node32 -->
<g id="edge42" class="edge">
<title>Node24&#45;&gt;Node32</title>
<path fill="none" stroke="#191970" d="M1328.25,-67.3906C1296.7883,-56.8749 1246.1992,-39.966 1211.3686,-28.3243"/>
<polygon fill="#191970" stroke="#191970" points="1212.1419,-24.8925 1201.5481,-25.0419 1209.9228,-31.5315 1212.1419,-24.8925"/>
</g>
<!-- Node33 -->
<g id="node34" class="node">
<title>Node33</title>
<polygon fill="none" stroke="#bfbfbf" points="1306.5,-6 1306.5,-25 1407.5,-25 1407.5,-6 1306.5,-6"/>
<text text-anchor="middle" x="1357" y="-13" font-family="Helvetica,sans-Serif" font-size="10.00" fill="#000000">FairMQMessage.h</text>
</g>
<!-- Node24&#45;&gt;Node33 -->
<g id="edge43" class="edge">
<title>Node24&#45;&gt;Node33</title>
<path fill="none" stroke="#191970" d="M1357,-67.3906C1357,-58.8657 1357,-46.1392 1357,-35.4235"/>
<polygon fill="#191970" stroke="#191970" points="1360.5001,-35.2448 1357,-25.2449 1353.5001,-35.2449 1360.5001,-35.2448"/>
</g>
<!-- Node34 -->
<g id="node35" class="node">
<title>Node34</title>
<polygon fill="none" stroke="#bfbfbf" points="1425.5,-6 1425.5,-25 1562.5,-25 1562.5,-6 1425.5,-6"/>
<text text-anchor="middle" x="1494" y="-13" font-family="Helvetica,sans-Serif" font-size="10.00" fill="#000000">FairMQTransportFactory.h</text>
</g>
<!-- Node24&#45;&gt;Node34 -->
<g id="edge44" class="edge">
<title>Node24&#45;&gt;Node34</title>
<path fill="none" stroke="#191970" d="M1378.4063,-67.3906C1401.2283,-57.1457 1437.5679,-40.8326 1463.4057,-29.2339"/>
<polygon fill="#191970" stroke="#191970" points="1465.0545,-32.3303 1472.7441,-25.0419 1462.1877,-25.9443 1465.0545,-32.3303"/>
</g>
<!-- Node35 -->
<g id="node36" class="node">
<title>Node35</title>
<polygon fill="none" stroke="#bfbfbf" points="1581,-6 1581,-25 1731,-25 1731,-6 1581,-6"/>
<text text-anchor="middle" x="1656" y="-13" font-family="Helvetica,sans-Serif" font-size="10.00" fill="#000000">fairmq/MemoryResources.h</text>
</g>
<!-- Node24&#45;&gt;Node35 -->
<g id="edge45" class="edge">
<title>Node24&#45;&gt;Node35</title>
<path fill="none" stroke="#191970" d="M1403.3907,-67.4581C1456.3116,-56.573 1542.8414,-38.7751 1599.6106,-27.0985"/>
<polygon fill="#191970" stroke="#191970" points="1600.4107,-30.5073 1609.5005,-25.0643 1599.0004,-23.6508 1600.4107,-30.5073"/>
</g>
<!-- Node36 -->
<g id="node37" class="node">
<title>Node36</title>
<polygon fill="none" stroke="#bfbfbf" points="1749,-6 1749,-25 1919,-25 1919,-6 1749,-6"/>
<text text-anchor="middle" x="1834" y="-13" font-family="Helvetica,sans-Serif" font-size="10.00" fill="#000000">fairmq/MemoryResourceTools.h</text>
</g>
<!-- Node24&#45;&gt;Node36 -->
<g id="edge46" class="edge">
<title>Node24&#45;&gt;Node36</title>
<path fill="none" stroke="#191970" d="M1445.3745,-67.4998C1523.0948,-58.8793 1639.2213,-45.3538 1740,-31 1749.3578,-29.6672 1759.222,-28.157 1768.9003,-26.615"/>
<polygon fill="#191970" stroke="#191970" points="1769.5751,-30.0515 1778.8896,-25.0028 1768.4597,-23.1409 1769.5751,-30.0515"/>
</g>
<!-- Node41&#45;&gt;Node14 -->
<g id="edge67" class="edge">
<title>Node41&#45;&gt;Node14</title>
<path fill="none" stroke="#191970" d="M463.565,-128.7562C476.7344,-118.4945 497.9761,-101.8034 516,-87 538.5584,-68.4722 564.034,-46.6591 580.955,-32.0418"/>
<polygon fill="#191970" stroke="#191970" points="583.6932,-34.3006 588.963,-25.1093 579.1117,-29.0082 583.6932,-34.3006"/>
</g>
<!-- Node42 -->
<g id="node43" class="node">
<title>Node42</title>
<g id="a_node43"><a xlink:href="../../de/d56/Variant_8h.html" target="_top" xlink:title="Framework/Variant.h">
<polygon fill="none" stroke="#000000" points="390.5,-67.5 390.5,-86.5 507.5,-86.5 507.5,-67.5 390.5,-67.5"/>
<text text-anchor="middle" x="449" y="-74.5" font-family="Helvetica,sans-Serif" font-size="10.00" fill="#000000">Framework/Variant.h</text>
</a>
</g>
</g>
<!-- Node41&#45;&gt;Node42 -->
<g id="edge57" class="edge">
<title>Node41&#45;&gt;Node42</title>
<path fill="none" stroke="#191970" d="M450.6875,-128.8906C450.4103,-120.3657 449.9964,-107.6392 449.6479,-96.9235"/>
<polygon fill="#191970" stroke="#191970" points="453.1402,-96.6258 449.3169,-86.7449 446.1439,-96.8534 453.1402,-96.6258"/>
</g>
<!-- Node42&#45;&gt;Node4 -->
<g id="edge61" class="edge">
<title>Node42&#45;&gt;Node4</title>
<path fill="none" stroke="#191970" d="M507.6875,-76.187C867.0628,-71.1686 2757.0047,-44.1875 2815,-31 2817.3484,-30.466 2819.7308,-29.7609 2822.0878,-28.9456"/>
<polygon fill="#191970" stroke="#191970" points="2823.5352,-32.1354 2831.4827,-25.1292 2820.9007,-25.6501 2823.5352,-32.1354"/>
</g>
<!-- Node42&#45;&gt;Node11 -->
<g id="edge60" class="edge">
<title>Node42&#45;&gt;Node11</title>
<path fill="none" stroke="#191970" d="M507.5778,-76.2398C664.4495,-73.7745 1091.4011,-64.1299 1228,-31 1230.3432,-30.4317 1232.7252,-29.7132 1235.0879,-28.8984"/>
<polygon fill="#191970" stroke="#191970" points="1236.5401,-32.0877 1244.5437,-25.1455 1233.9578,-25.5814 1236.5401,-32.0877"/>
</g>
<!-- Node42&#45;&gt;Node14 -->
<g id="edge66" class="edge">
<title>Node42&#45;&gt;Node14</title>
<path fill="none" stroke="#191970" d="M475.7213,-67.3864C500.0074,-58.4804 536.7163,-44.5956 568,-31 569.1783,-30.4879 570.3765,-29.9567 571.5836,-29.4127"/>
<polygon fill="#191970" stroke="#191970" points="573.2438,-32.5005 580.8282,-25.1026 570.2858,-26.1561 573.2438,-32.5005"/>
</g>
<!-- Node42&#45;&gt;Node22 -->
<g id="edge58" class="edge">
<title>Node42&#45;&gt;Node22</title>
<path fill="none" stroke="#191970" d="M390.3402,-68.3799C330.9346,-59.5191 236.4545,-45.0671 155,-31 147.5548,-29.7142 139.7403,-28.3091 132.0157,-26.8866"/>
<polygon fill="#191970" stroke="#191970" points="132.4229,-23.4024 121.9515,-25.0152 131.1431,-30.2844 132.4229,-23.4024"/>
</g>
<!-- Node42&#45;&gt;Node29 -->
<g id="edge59" class="edge">
<title>Node42&#45;&gt;Node29</title>
<path fill="none" stroke="#191970" d="M460.875,-67.3906C472.6297,-57.8786 490.8486,-43.1357 504.8672,-31.7917"/>
<polygon fill="#191970" stroke="#191970" points="507.3856,-34.2562 512.9576,-25.2449 502.9822,-28.8146 507.3856,-34.2562"/>
</g>
<!-- Node42&#45;&gt;Node38 -->
<g id="edge63" class="edge">
<title>Node42&#45;&gt;Node38</title>
<path fill="none" stroke="#191970" d="M448.8438,-67.3906C448.7051,-58.8657 448.4982,-46.1392 448.324,-35.4235"/>
<polygon fill="#191970" stroke="#191970" points="451.8207,-35.1866 448.1585,-25.2449 444.8216,-35.3005 451.8207,-35.1866"/>
</g>
<!-- Node43 -->
<g id="node44" class="node">
<title>Node43</title>
<polygon fill="none" stroke="#bfbfbf" points="356.5,-6 356.5,-25 405.5,-25 405.5,-6 356.5,-6"/>
<text text-anchor="middle" x="381" y="-13" font-family="Helvetica,sans-Serif" font-size="10.00" fill="#000000">cstdlib</text>
</g>
<!-- Node42&#45;&gt;Node43 -->
<g id="edge62" class="edge">
<title>Node42&#45;&gt;Node43</title>
<path fill="none" stroke="#191970" d="M438.375,-67.3906C427.9569,-57.9683 411.8636,-43.4134 399.3696,-32.1137"/>
<polygon fill="#191970" stroke="#191970" points="401.5392,-29.3568 391.7748,-25.2449 396.8438,-34.5484 401.5392,-29.3568"/>
</g>
<!-- Node44 -->
<g id="node45" class="node">
<title>Node44</title>
<polygon fill="none" stroke="#bfbfbf" points="164.5,-6 164.5,-25 247.5,-25 247.5,-6 164.5,-6"/>
<text text-anchor="middle" x="206" y="-13" font-family="Helvetica,sans-Serif" font-size="10.00" fill="#000000">initializer_list</text>
</g>
<!-- Node42&#45;&gt;Node44 -->
<g id="edge64" class="edge">
<title>Node42&#45;&gt;Node44</title>
<path fill="none" stroke="#191970" d="M405.4815,-67.4984C366.2264,-58.7214 306.9963,-44.965 256,-31 252.461,-30.0309 248.7946,-28.9819 245.129,-27.9023"/>
<polygon fill="#191970" stroke="#191970" points="246.1005,-24.5397 235.516,-25.0072 244.0818,-31.2423 246.1005,-24.5397"/>
</g>
<!-- Node45 -->
<g id="node46" class="node">
<title>Node45</title>
<polygon fill="none" stroke="#bfbfbf" points="265.5,-6 265.5,-25 338.5,-25 338.5,-6 265.5,-6"/>
<text text-anchor="middle" x="302" y="-13" font-family="Helvetica,sans-Serif" font-size="10.00" fill="#000000">string_view</text>
</g>
<!-- Node42&#45;&gt;Node45 -->
<g id="edge65" class="edge">
<title>Node42&#45;&gt;Node45</title>
<path fill="none" stroke="#191970" d="M426.0313,-67.3906C401.3276,-57.0554 361.863,-40.5447 334.0973,-28.9284"/>
<polygon fill="#191970" stroke="#191970" points="335.3835,-25.6727 324.8075,-25.0419 332.6818,-32.1303 335.3835,-25.6727"/>
</g>
</g>
</svg>
