<?xml version="1.0" encoding="UTF-8" standalone="no"?>
<!DOCTYPE svg PUBLIC "-//W3C//DTD SVG 1.1//EN"
 "http://www.w3.org/Graphics/SVG/1.1/DTD/svg11.dtd">
<!-- Generated by graphviz version 2.40.1 (20161225.0304)
 -->
<!-- Title: /home/travis/build/AliceO2Group/AliceO2/Detectors/Base/include/DetectorsBase/Propagator.h Pages: 1 -->
<svg width="3357pt" height="776pt"
 viewBox="0.00 0.00 3356.57 776.00" xmlns="http://www.w3.org/2000/svg" xmlns:xlink="http://www.w3.org/1999/xlink">
<g id="graph0" class="graph" transform="scale(1 1) rotate(0) translate(4 772)">
<title>/home/travis/build/AliceO2Group/AliceO2/Detectors/Base/include/DetectorsBase/Propagator.h</title>
<!-- Node0 -->
<g id="node1" class="node">
<title>Node0</title>
<polygon fill="#bfbfbf" stroke="#000000" points="204.0674,-715.5 204.0674,-767.5 359.0674,-767.5 359.0674,-715.5 204.0674,-715.5"/>
<text text-anchor="start" x="212.0674" y="-755.5" font-family="Helvetica,sans-Serif" font-size="10.00" fill="#000000">/home/travis/build</text>
<text text-anchor="start" x="212.0674" y="-744.5" font-family="Helvetica,sans-Serif" font-size="10.00" fill="#000000">/AliceO2Group/AliceO2</text>
<text text-anchor="start" x="212.0674" y="-733.5" font-family="Helvetica,sans-Serif" font-size="10.00" fill="#000000">/Detectors/Base/include</text>
<text text-anchor="middle" x="281.5674" y="-722.5" font-family="Helvetica,sans-Serif" font-size="10.00" fill="#000000">/DetectorsBase/Propagator.h</text>
</g>
<!-- Node1 -->
<g id="node2" class="node">
<title>Node1</title>
<polygon fill="none" stroke="#bfbfbf" points="53.5674,-118 53.5674,-137 97.5674,-137 97.5674,-118 53.5674,-118"/>
<text text-anchor="middle" x="75.5674" y="-125" font-family="Helvetica,sans-Serif" font-size="10.00" fill="#000000">string</text>
</g>
<!-- Node0&#45;&gt;Node1 -->
<g id="edge1" class="edge">
<title>Node0&#45;&gt;Node1</title>
<path fill="none" stroke="#191970" d="M203.911,-731.4176C127.2977,-716.6032 21.5674,-680.874 21.5674,-596.5 21.5674,-596.5 21.5674,-596.5 21.5674,-395.5 21.5674,-300.552 54.5418,-190.3441 68.956,-146.7043"/>
<polygon fill="#191970" stroke="#191970" points="72.318,-147.6876 72.1894,-137.0935 65.6834,-145.4554 72.318,-147.6876"/>
</g>
<!-- Node2 -->
<g id="node3" class="node">
<title>Node2</title>
<g id="a_node3"><a xlink:href="../../d3/d9d/PhysicsConstants_8h.html" target="_top" xlink:title="Header to collect physics constants. ">
<polygon fill="none" stroke="#000000" points="88.0674,-319 88.0674,-338 295.0674,-338 295.0674,-319 88.0674,-319"/>
<text text-anchor="middle" x="191.5674" y="-326" font-family="Helvetica,sans-Serif" font-size="10.00" fill="#000000">CommonConstants/PhysicsConstants.h</text>
</a>
</g>
</g>
<!-- Node0&#45;&gt;Node2 -->
<g id="edge2" class="edge">
<title>Node0&#45;&gt;Node2</title>
<path fill="none" stroke="#191970" d="M247.4109,-715.4723C235.8935,-705.2042 223.8692,-692.6058 215.5674,-679 195.6773,-646.4023 191.5674,-634.6867 191.5674,-596.5 191.5674,-596.5 191.5674,-596.5 191.5674,-462.5 191.5674,-421.9699 191.5674,-374.5443 191.5674,-348.3795"/>
<polygon fill="#191970" stroke="#191970" points="195.0675,-348.2517 191.5674,-338.2517 188.0675,-348.2518 195.0675,-348.2517"/>
</g>
<!-- Node3 -->
<g id="node4" class="node">
<title>Node3</title>
<g id="a_node4"><a xlink:href="../../d7/d8b/DataFormats_2Reconstruction_2include_2ReconstructionDataFormats_2Track_8h.html" target="_top" xlink:title="ReconstructionDataFormats\l/Track.h">
<polygon fill="none" stroke="#000000" points="712.5674,-581.5 712.5674,-611.5 864.5674,-611.5 864.5674,-581.5 712.5674,-581.5"/>
<text text-anchor="start" x="720.5674" y="-599.5" font-family="Helvetica,sans-Serif" font-size="10.00" fill="#000000">ReconstructionDataFormats</text>
<text text-anchor="middle" x="788.5674" y="-588.5" font-family="Helvetica,sans-Serif" font-size="10.00" fill="#000000">/Track.h</text>
</a>
</g>
</g>
<!-- Node0&#45;&gt;Node3 -->
<g id="edge3" class="edge">
<title>Node0&#45;&gt;Node3</title>
<path fill="none" stroke="#191970" d="M359.1216,-719.3198C459.7551,-690.539 633.384,-640.8818 726.0422,-614.382"/>
<polygon fill="#191970" stroke="#191970" points="727.1887,-617.6944 735.8408,-611.5796 725.2639,-610.9643 727.1887,-617.6944"/>
</g>
<!-- Node55 -->
<g id="node56" class="node">
<title>Node55</title>
<g id="a_node56"><a xlink:href="../../d7/d99/DCA_8h.html" target="_top" xlink:title="ReconstructionDataFormats\l/DCA.h">
<polygon fill="none" stroke="#000000" points="665.5674,-246.5 665.5674,-276.5 817.5674,-276.5 817.5674,-246.5 665.5674,-246.5"/>
<text text-anchor="start" x="673.5674" y="-264.5" font-family="Helvetica,sans-Serif" font-size="10.00" fill="#000000">ReconstructionDataFormats</text>
<text text-anchor="middle" x="741.5674" y="-253.5" font-family="Helvetica,sans-Serif" font-size="10.00" fill="#000000">/DCA.h</text>
</a>
</g>
</g>
<!-- Node0&#45;&gt;Node55 -->
<g id="edge87" class="edge">
<title>Node0&#45;&gt;Node55</title>
<path fill="none" stroke="#191970" d="M265.8637,-715.4394C259.7821,-704.4851 253.187,-691.4207 248.5674,-679 235.4508,-643.7337 229.5674,-634.1265 229.5674,-596.5 229.5674,-596.5 229.5674,-596.5 229.5674,-462.5 229.5674,-424.8735 222.0885,-406.7325 248.5674,-380 304.886,-323.1419 529.9048,-287.2724 655.5718,-271.2598"/>
<polygon fill="#191970" stroke="#191970" points="656.0731,-274.7244 665.5575,-270.0026 655.1986,-267.7793 656.0731,-274.7244"/>
</g>
<!-- Node56 -->
<g id="node57" class="node">
<title>Node56</title>
<g id="a_node57"><a xlink:href="../../d6/db1/TrackLTIntegral_8h.html" target="_top" xlink:title="Track Length and TOF integral. ">
<polygon fill="none" stroke="#000000" points="257.5674,-648.5 257.5674,-678.5 409.5674,-678.5 409.5674,-648.5 257.5674,-648.5"/>
<text text-anchor="start" x="265.5674" y="-666.5" font-family="Helvetica,sans-Serif" font-size="10.00" fill="#000000">ReconstructionDataFormats</text>
<text text-anchor="middle" x="333.5674" y="-655.5" font-family="Helvetica,sans-Serif" font-size="10.00" fill="#000000">/TrackLTIntegral.h</text>
</a>
</g>
</g>
<!-- Node0&#45;&gt;Node56 -->
<g id="edge91" class="edge">
<title>Node0&#45;&gt;Node56</title>
<path fill="none" stroke="#191970" d="M299.1722,-715.0928C305.2712,-705.9442 312.0607,-695.7599 317.9855,-686.8728"/>
<polygon fill="#191970" stroke="#191970" points="320.9295,-688.7665 323.5643,-678.5046 315.1051,-684.8836 320.9295,-688.7665"/>
</g>
<!-- Node57 -->
<g id="node58" class="node">
<title>Node57</title>
<g id="a_node58"><a xlink:href="../../d9/da9/MatLayerCylSet_8h.html" target="_top" xlink:title="Declarations for the wrapper for the set of cylindrical material layers. ">
<polygon fill="none" stroke="#000000" points="2831.5674,-380.5 2831.5674,-410.5 2983.5674,-410.5 2983.5674,-380.5 2831.5674,-380.5"/>
<text text-anchor="start" x="2839.5674" y="-398.5" font-family="Helvetica,sans-Serif" font-size="10.00" fill="#000000">DetectorsBase/MatLayerCyl</text>
<text text-anchor="middle" x="2907.5674" y="-387.5" font-family="Helvetica,sans-Serif" font-size="10.00" fill="#000000">Set.h</text>
</a>
</g>
</g>
<!-- Node0&#45;&gt;Node57 -->
<g id="edge95" class="edge">
<title>Node0&#45;&gt;Node57</title>
<path fill="none" stroke="#191970" d="M359.3185,-738.9515C690.8587,-727.582 1969.5674,-678.4211 1969.5674,-596.5 1969.5674,-596.5 1969.5674,-596.5 1969.5674,-529.5 1969.5674,-518.8058 2588.9865,-437.0039 2821.1122,-406.7244"/>
<polygon fill="#191970" stroke="#191970" points="2821.7411,-410.1721 2831.2046,-405.4085 2820.836,-403.2308 2821.7411,-410.1721"/>
</g>
<!-- Node4 -->
<g id="node5" class="node">
<title>Node4</title>
<g id="a_node5"><a xlink:href="../../d2/d98/TrackParametrization_8h.html" target="_top" xlink:title="ReconstructionDataFormats\l/TrackParametrization.h">
<polygon fill="none" stroke="#000000" points="1683.5674,-447.5 1683.5674,-477.5 1835.5674,-477.5 1835.5674,-447.5 1683.5674,-447.5"/>
<text text-anchor="start" x="1691.5674" y="-465.5" font-family="Helvetica,sans-Serif" font-size="10.00" fill="#000000">ReconstructionDataFormats</text>
<text text-anchor="middle" x="1759.5674" y="-454.5" font-family="Helvetica,sans-Serif" font-size="10.00" fill="#000000">/TrackParametrization.h</text>
</a>
</g>
</g>
<!-- Node3&#45;&gt;Node4 -->
<g id="edge4" class="edge">
<title>Node3&#45;&gt;Node4</title>
<path fill="none" stroke="#191970" d="M864.7601,-585.9852C1042.8849,-561.4037 1485.6291,-500.304 1673.2973,-474.4055"/>
<polygon fill="#191970" stroke="#191970" points="1673.966,-477.8464 1683.3936,-473.0121 1673.009,-470.9121 1673.966,-477.8464"/>
</g>
<!-- Node54 -->
<g id="node55" class="node">
<title>Node54</title>
<g id="a_node55"><a xlink:href="../../d3/d30/TrackParametrizationWithError_8h.html" target="_top" xlink:title="ReconstructionDataFormats\l/TrackParametrizationWithError.h">
<polygon fill="none" stroke="#000000" points="1565.5674,-514.5 1565.5674,-544.5 1741.5674,-544.5 1741.5674,-514.5 1565.5674,-514.5"/>
<text text-anchor="start" x="1573.5674" y="-532.5" font-family="Helvetica,sans-Serif" font-size="10.00" fill="#000000">ReconstructionDataFormats</text>
<text text-anchor="middle" x="1653.5674" y="-521.5" font-family="Helvetica,sans-Serif" font-size="10.00" fill="#000000">/TrackParametrizationWithError.h</text>
</a>
</g>
</g>
<!-- Node3&#45;&gt;Node54 -->
<g id="edge85" class="edge">
<title>Node3&#45;&gt;Node54</title>
<path fill="none" stroke="#191970" d="M864.5722,-590.6129C1021.4041,-578.4652 1380.7576,-550.6309 1555.0994,-537.127"/>
<polygon fill="#191970" stroke="#191970" points="1555.5951,-540.5992 1565.295,-536.3373 1555.0545,-533.6201 1555.5951,-540.5992"/>
</g>
<!-- Node4&#45;&gt;Node1 -->
<g id="edge70" class="edge">
<title>Node4&#45;&gt;Node1</title>
<path fill="none" stroke="#191970" d="M1683.5184,-461.0465C1476.3408,-456.7183 905.0785,-442.2262 719.5674,-411 509.9999,-375.7245 460.4869,-349.0767 260.5674,-277 189.9663,-251.5463 157.0405,-264.616 105.5674,-210 89.1299,-192.5589 81.5667,-165.4152 78.1776,-147.07"/>
<polygon fill="#191970" stroke="#191970" points="81.6325,-146.5091 76.5968,-137.1875 74.7204,-147.6148 81.6325,-146.5091"/>
</g>
<!-- Node5 -->
<g id="node6" class="node">
<title>Node5</title>
<g id="a_node6"><a xlink:href="../../d2/d45/GPUCommonRtypes_8h.html" target="_top" xlink:title="GPUCommonRtypes.h">
<polygon fill="none" stroke="#000000" points="1773.0674,-118 1773.0674,-137 1898.0674,-137 1898.0674,-118 1773.0674,-118"/>
<text text-anchor="middle" x="1835.5674" y="-125" font-family="Helvetica,sans-Serif" font-size="10.00" fill="#000000">GPUCommonRtypes.h</text>
</a>
</g>
</g>
<!-- Node4&#45;&gt;Node5 -->
<g id="edge5" class="edge">
<title>Node4&#45;&gt;Node5</title>
<path fill="none" stroke="#191970" d="M1686.9559,-447.4706C1522.4741,-411.8008 1129.879,-316.9696 1054.5674,-210 1046.6358,-198.7343 1045.151,-189.0578 1054.5674,-179 1078.5766,-153.3554 1573.5398,-135.5335 1762.8287,-129.6324"/>
<polygon fill="#191970" stroke="#191970" points="1763.0746,-133.1266 1772.9616,-129.3188 1762.858,-126.1299 1763.0746,-133.1266"/>
</g>
<!-- Node7 -->
<g id="node8" class="node">
<title>Node7</title>
<polygon fill="none" stroke="#bfbfbf" points="2425.5674,-56.5 2425.5674,-75.5 2489.5674,-75.5 2489.5674,-56.5 2425.5674,-56.5"/>
<text text-anchor="middle" x="2457.5674" y="-63.5" font-family="Helvetica,sans-Serif" font-size="10.00" fill="#000000">algorithm</text>
</g>
<!-- Node4&#45;&gt;Node7 -->
<g id="edge7" class="edge">
<title>Node4&#45;&gt;Node7</title>
<path fill="none" stroke="#191970" d="M1835.6155,-449.5372C1881.8623,-440.7276 1941.7905,-427.6511 1993.5674,-411 2101.3186,-376.3478 2399.2959,-304.5166 2461.5674,-210 2486.6892,-171.8697 2473.9429,-114.8828 2464.565,-85.3311"/>
<polygon fill="#191970" stroke="#191970" points="2467.8526,-84.1266 2461.3388,-75.7707 2461.22,-86.3648 2467.8526,-84.1266"/>
</g>
<!-- Node8 -->
<g id="node9" class="node">
<title>Node8</title>
<polygon fill="none" stroke="#bfbfbf" points="797.5674,-118 797.5674,-137 839.5674,-137 839.5674,-118 797.5674,-118"/>
<text text-anchor="middle" x="818.5674" y="-125" font-family="Helvetica,sans-Serif" font-size="10.00" fill="#000000">array</text>
</g>
<!-- Node4&#45;&gt;Node8 -->
<g id="edge8" class="edge">
<title>Node4&#45;&gt;Node8</title>
<path fill="none" stroke="#191970" d="M1683.3636,-461.1752C1483.4402,-457.2567 954.3239,-443.8745 882.5674,-411 844.849,-393.7197 833.1535,-382.4494 817.5674,-344 806.2801,-316.1555 822.8963,-306.8201 826.5674,-277 832.2587,-230.7685 826.0612,-176.0011 821.8312,-147.305"/>
<polygon fill="#191970" stroke="#191970" points="825.2763,-146.6809 820.283,-137.3365 818.3592,-147.7552 825.2763,-146.6809"/>
</g>
<!-- Node9 -->
<g id="node10" class="node">
<title>Node9</title>
<polygon fill="none" stroke="#bfbfbf" points="2620.5674,-386 2620.5674,-405 2664.5674,-405 2664.5674,-386 2620.5674,-386"/>
<text text-anchor="middle" x="2642.5674" y="-393" font-family="Helvetica,sans-Serif" font-size="10.00" fill="#000000">cfloat</text>
</g>
<!-- Node4&#45;&gt;Node9 -->
<g id="edge9" class="edge">
<title>Node4&#45;&gt;Node9</title>
<path fill="none" stroke="#191970" d="M1835.8624,-456.0446C1872.1141,-453.0854 1916.061,-449.6541 1955.5674,-447 2244.691,-427.5763 2324.4827,-477.3176 2606.5674,-411 2609.0597,-410.4141 2611.597,-409.6655 2614.1123,-408.8149"/>
<polygon fill="#191970" stroke="#191970" points="2615.5008,-412.0305 2623.5623,-405.1558 2612.9732,-405.5028 2615.5008,-412.0305"/>
</g>
<!-- Node10 -->
<g id="node11" class="node">
<title>Node10</title>
<polygon fill="none" stroke="#bfbfbf" points="2870.0674,-56.5 2870.0674,-75.5 2917.0674,-75.5 2917.0674,-56.5 2870.0674,-56.5"/>
<text text-anchor="middle" x="2893.5674" y="-63.5" font-family="Helvetica,sans-Serif" font-size="10.00" fill="#000000">cmath</text>
</g>
<!-- Node4&#45;&gt;Node10 -->
<g id="edge10" class="edge">
<title>Node4&#45;&gt;Node10</title>
<path fill="none" stroke="#191970" d="M1835.8957,-460.0867C2052.8519,-452.9919 2659.937,-431.4159 2697.5674,-411 2760.3014,-376.9644 2851.3415,-210.4873 2874.5674,-143 2881.1295,-123.9324 2886.4018,-101.4809 2889.7123,-85.7576"/>
<polygon fill="#191970" stroke="#191970" points="2893.2063,-86.1389 2891.7666,-75.6423 2886.3463,-84.7456 2893.2063,-86.1389"/>
</g>
<!-- Node11 -->
<g id="node12" class="node">
<title>Node11</title>
<polygon fill="none" stroke="#bfbfbf" points="3093.5674,-118 3093.5674,-137 3143.5674,-137 3143.5674,-118 3093.5674,-118"/>
<text text-anchor="middle" x="3118.5674" y="-125" font-family="Helvetica,sans-Serif" font-size="10.00" fill="#000000">cstring</text>
</g>
<!-- Node4&#45;&gt;Node11 -->
<g id="edge11" class="edge">
<title>Node4&#45;&gt;Node11</title>
<path fill="none" stroke="#191970" d="M1835.647,-460.7615C2096.1244,-454.6221 2939.0496,-433.1337 2992.5674,-411 3073.9575,-377.3389 3103.1273,-357.6315 3138.5674,-277 3157.8051,-233.2312 3139.4294,-175.8509 3127.3064,-146.5374"/>
<polygon fill="#191970" stroke="#191970" points="3130.396,-144.8648 3123.2042,-137.0847 3123.9746,-147.6515 3130.396,-144.8648"/>
</g>
<!-- Node12 -->
<g id="node13" class="node">
<title>Node12</title>
<polygon fill="none" stroke="#bfbfbf" points="692.0674,-185 692.0674,-204 741.0674,-204 741.0674,-185 692.0674,-185"/>
<text text-anchor="middle" x="716.5674" y="-192" font-family="Helvetica,sans-Serif" font-size="10.00" fill="#000000">iosfwd</text>
</g>
<!-- Node4&#45;&gt;Node12 -->
<g id="edge12" class="edge">
<title>Node4&#45;&gt;Node12</title>
<path fill="none" stroke="#191970" d="M1683.2898,-461.296C1468.1898,-457.5058 867.0222,-444.0508 784.5674,-411 705.804,-379.4289 678.2023,-356.5121 648.5674,-277 643.7556,-264.0898 642.4347,-258.3376 648.5674,-246 656.4621,-230.1176 671.853,-217.8241 685.9983,-209.2377"/>
<polygon fill="#191970" stroke="#191970" points="688.0439,-212.1017 695.0226,-204.13 684.5959,-206.0098 688.0439,-212.1017"/>
</g>
<!-- Node13 -->
<g id="node14" class="node">
<title>Node13</title>
<g id="a_node14"><a xlink:href="../../d4/de2/BaseCluster_8h.html" target="_top" xlink:title="ReconstructionDataFormats\l/BaseCluster.h">
<polygon fill="none" stroke="#000000" points="891.5674,-380.5 891.5674,-410.5 1043.5674,-410.5 1043.5674,-380.5 891.5674,-380.5"/>
<text text-anchor="start" x="899.5674" y="-398.5" font-family="Helvetica,sans-Serif" font-size="10.00" fill="#000000">ReconstructionDataFormats</text>
<text text-anchor="middle" x="967.5674" y="-387.5" font-family="Helvetica,sans-Serif" font-size="10.00" fill="#000000">/BaseCluster.h</text>
</a>
</g>
</g>
<!-- Node4&#45;&gt;Node13 -->
<g id="edge13" class="edge">
<title>Node4&#45;&gt;Node13</title>
<path fill="none" stroke="#191970" d="M1683.2676,-456.0453C1535.1275,-443.5133 1209.4751,-415.9644 1053.7793,-402.7932"/>
<polygon fill="#191970" stroke="#191970" points="1054.0328,-399.3022 1043.7733,-401.9467 1053.4427,-406.2773 1054.0328,-399.3022"/>
</g>
<!-- Node28 -->
<g id="node29" class="node">
<title>Node28</title>
<g id="a_node29"><a xlink:href="../../d9/d52/Common_2MathUtils_2include_2MathUtils_2Utils_8h.html" target="_top" xlink:title="MathUtils/Utils.h">
<polygon fill="none" stroke="#000000" points="2643.5674,-185 2643.5674,-204 2741.5674,-204 2741.5674,-185 2643.5674,-185"/>
<text text-anchor="middle" x="2692.5674" y="-192" font-family="Helvetica,sans-Serif" font-size="10.00" fill="#000000">MathUtils/Utils.h</text>
</a>
</g>
</g>
<!-- Node4&#45;&gt;Node28 -->
<g id="edge72" class="edge">
<title>Node4&#45;&gt;Node28</title>
<path fill="none" stroke="#191970" d="M1835.8564,-455.9534C1872.1067,-452.9742 1916.0543,-449.5524 1955.5674,-447 1995.4233,-444.4254 2644.8026,-438.7076 2673.5674,-411 2727.8144,-358.7467 2709.0132,-256.3418 2698.1014,-213.7723"/>
<polygon fill="#191970" stroke="#191970" points="2701.4721,-212.8289 2695.4846,-204.0882 2694.7145,-214.655 2701.4721,-212.8289"/>
</g>
<!-- Node33 -->
<g id="node34" class="node">
<title>Node33</title>
<g id="a_node34"><a xlink:href="../../d6/d84/MathConstants_8h.html" target="_top" xlink:title="useful math constants ">
<polygon fill="none" stroke="#000000" points="2523.5674,-118 2523.5674,-137 2717.5674,-137 2717.5674,-118 2523.5674,-118"/>
<text text-anchor="middle" x="2620.5674" y="-125" font-family="Helvetica,sans-Serif" font-size="10.00" fill="#000000">CommonConstants/MathConstants.h</text>
</a>
</g>
</g>
<!-- Node4&#45;&gt;Node33 -->
<g id="edge71" class="edge">
<title>Node4&#45;&gt;Node33</title>
<path fill="none" stroke="#191970" d="M1835.8842,-456.3496C1872.1406,-453.4571 1916.0853,-449.9939 1955.5674,-447 2065.7632,-438.6438 2350.1801,-454.9724 2451.5674,-411 2532.0713,-376.0848 2555.1162,-354.3418 2596.5674,-277 2619.1397,-234.8833 2621.757,-177.2007 2621.3772,-147.293"/>
<polygon fill="#191970" stroke="#191970" points="2624.8757,-147.1877 2621.1202,-137.2808 2617.878,-147.3673 2624.8757,-147.1877"/>
</g>
<!-- Node50 -->
<g id="node51" class="node">
<title>Node50</title>
<g id="a_node51"><a xlink:href="../../d8/d77/Primitive2D_8h.html" target="_top" xlink:title="Declarations of 2D primitives: straight line (XY interval) and circle. ">
<polygon fill="none" stroke="#000000" points="1693.0674,-386 1693.0674,-405 1826.0674,-405 1826.0674,-386 1693.0674,-386"/>
<text text-anchor="middle" x="1759.5674" y="-393" font-family="Helvetica,sans-Serif" font-size="10.00" fill="#000000">MathUtils/Primitive2D.h</text>
</a>
</g>
</g>
<!-- Node4&#45;&gt;Node50 -->
<g id="edge73" class="edge">
<title>Node4&#45;&gt;Node50</title>
<path fill="none" stroke="#191970" d="M1759.5674,-447.2967C1759.5674,-437.7699 1759.5674,-425.3954 1759.5674,-415.1306"/>
<polygon fill="#191970" stroke="#191970" points="1763.0675,-415.0549 1759.5674,-405.055 1756.0675,-415.055 1763.0675,-415.0549"/>
</g>
<!-- Node51 -->
<g id="node52" class="node">
<title>Node51</title>
<g id="a_node52"><a xlink:href="../../d5/d08/DataFormats_2Reconstruction_2include_2ReconstructionDataFormats_2PID_8h.html" target="_top" xlink:title="ReconstructionDataFormats\l/PID.h">
<polygon fill="none" stroke="#000000" points="257.5674,-380.5 257.5674,-410.5 409.5674,-410.5 409.5674,-380.5 257.5674,-380.5"/>
<text text-anchor="start" x="265.5674" y="-398.5" font-family="Helvetica,sans-Serif" font-size="10.00" fill="#000000">ReconstructionDataFormats</text>
<text text-anchor="middle" x="333.5674" y="-387.5" font-family="Helvetica,sans-Serif" font-size="10.00" fill="#000000">/PID.h</text>
</a>
</g>
</g>
<!-- Node4&#45;&gt;Node51 -->
<g id="edge75" class="edge">
<title>Node4&#45;&gt;Node51</title>
<path fill="none" stroke="#191970" d="M1683.4314,-460.889C1438.2026,-455.4916 670.5764,-436.9166 423.5674,-411 422.2812,-410.8651 420.9857,-410.723 419.6827,-410.5744"/>
<polygon fill="#191970" stroke="#191970" points="419.9335,-407.0786 409.5777,-409.3166 419.0688,-414.025 419.9335,-407.0786"/>
</g>
<!-- Node52 -->
<g id="node53" class="node">
<title>Node52</title>
<g id="a_node53"><a xlink:href="../../d2/d97/TrackUtils_8h.html" target="_top" xlink:title="ReconstructionDataFormats\l/TrackUtils.h">
<polygon fill="none" stroke="#000000" points="2435.5674,-246.5 2435.5674,-276.5 2587.5674,-276.5 2587.5674,-246.5 2435.5674,-246.5"/>
<text text-anchor="start" x="2443.5674" y="-264.5" font-family="Helvetica,sans-Serif" font-size="10.00" fill="#000000">ReconstructionDataFormats</text>
<text text-anchor="middle" x="2511.5674" y="-253.5" font-family="Helvetica,sans-Serif" font-size="10.00" fill="#000000">/TrackUtils.h</text>
</a>
</g>
</g>
<!-- Node4&#45;&gt;Node52 -->
<g id="edge78" class="edge">
<title>Node4&#45;&gt;Node52</title>
<path fill="none" stroke="#191970" d="M1835.8906,-456.4319C1872.1484,-453.5574 1916.0923,-450.0857 1955.5674,-447 2059.1156,-438.9059 2333.184,-465.554 2421.5674,-411 2467.5922,-382.5915 2493.1942,-321.0972 2504.4745,-286.4808"/>
<polygon fill="#191970" stroke="#191970" points="2507.8988,-287.2553 2507.5222,-276.6671 2501.2137,-285.1791 2507.8988,-287.2553"/>
</g>
<!-- Node53 -->
<g id="node54" class="node">
<title>Node53</title>
<g id="a_node54"><a xlink:href="../../d1/da8/GPUROOTCartesianFwd_8h.html" target="_top" xlink:title="GPUROOTCartesianFwd.h">
<polygon fill="none" stroke="#000000" points="1844.5674,-386 1844.5674,-405 1984.5674,-405 1984.5674,-386 1844.5674,-386"/>
<text text-anchor="middle" x="1914.5674" y="-393" font-family="Helvetica,sans-Serif" font-size="10.00" fill="#000000">GPUROOTCartesianFwd.h</text>
</a>
</g>
</g>
<!-- Node4&#45;&gt;Node53 -->
<g id="edge84" class="edge">
<title>Node4&#45;&gt;Node53</title>
<path fill="none" stroke="#191970" d="M1794.3524,-447.4639C1820.9451,-435.969 1857.2957,-420.2561 1883.043,-409.1266"/>
<polygon fill="#191970" stroke="#191970" points="1884.5589,-412.2844 1892.3493,-405.1039 1881.7814,-405.859 1884.5589,-412.2844"/>
</g>
<!-- Node6 -->
<g id="node7" class="node">
<title>Node6</title>
<polygon fill="none" stroke="#bfbfbf" points="795.0674,-56.5 795.0674,-75.5 854.0674,-75.5 854.0674,-56.5 795.0674,-56.5"/>
<text text-anchor="middle" x="824.5674" y="-63.5" font-family="Helvetica,sans-Serif" font-size="10.00" fill="#000000">Rtypes.h</text>
</g>
<!-- Node5&#45;&gt;Node6 -->
<g id="edge6" class="edge">
<title>Node5&#45;&gt;Node6</title>
<path fill="none" stroke="#191970" d="M1772.7068,-123.6761C1582.9366,-112.1323 1019.3711,-77.8501 864.3958,-68.4228"/>
<polygon fill="#191970" stroke="#191970" points="864.5639,-64.9266 854.3698,-67.8129 864.1388,-71.9137 864.5639,-64.9266"/>
</g>
<!-- Node13&#45;&gt;Node12 -->
<g id="edge18" class="edge">
<title>Node13&#45;&gt;Node12</title>
<path fill="none" stroke="#191970" d="M904.053,-380.4978C821.5848,-359.5615 684.8211,-319.3604 656.5674,-277 640.6209,-253.0918 668.9974,-226.3455 691.9143,-209.965"/>
<polygon fill="#191970" stroke="#191970" points="694.0409,-212.751 700.3263,-204.222 690.094,-206.9698 694.0409,-212.751"/>
</g>
<!-- Node14 -->
<g id="node15" class="node">
<title>Node14</title>
<polygon fill="none" stroke="#bfbfbf" points="827.0674,-319 827.0674,-338 890.0674,-338 890.0674,-319 827.0674,-319"/>
<text text-anchor="middle" x="858.5674" y="-326" font-family="Helvetica,sans-Serif" font-size="10.00" fill="#000000">TObject.h</text>
</g>
<!-- Node13&#45;&gt;Node14 -->
<g id="edge14" class="edge">
<title>Node13&#45;&gt;Node14</title>
<path fill="none" stroke="#191970" d="M943.1056,-380.4639C925.1464,-369.4247 900.8584,-354.4954 882.9239,-343.4715"/>
<polygon fill="#191970" stroke="#191970" points="884.5438,-340.3588 874.1916,-338.1039 880.8781,-346.3223 884.5438,-340.3588"/>
</g>
<!-- Node15 -->
<g id="node16" class="node">
<title>Node15</title>
<polygon fill="none" stroke="#bfbfbf" points="114.5674,-185 114.5674,-204 158.5674,-204 158.5674,-185 114.5674,-185"/>
<text text-anchor="middle" x="136.5674" y="-192" font-family="Helvetica,sans-Serif" font-size="10.00" fill="#000000">bitset</text>
</g>
<!-- Node13&#45;&gt;Node15 -->
<g id="edge15" class="edge">
<title>Node13&#45;&gt;Node15</title>
<path fill="none" stroke="#191970" d="M891.4582,-382.1483C780.5976,-362.1859 568.5172,-322.0531 390.5674,-277 288.5932,-251.1823 260.2877,-251.3577 163.5674,-210 162.7194,-209.6374 161.8645,-209.2543 161.0074,-208.855"/>
<polygon fill="#191970" stroke="#191970" points="162.4411,-205.6558 151.953,-204.156 159.2166,-211.869 162.4411,-205.6558"/>
</g>
<!-- Node16 -->
<g id="node17" class="node">
<title>Node16</title>
<polygon fill="none" stroke="#bfbfbf" points="908.5674,-319 908.5674,-338 964.5674,-338 964.5674,-319 908.5674,-319"/>
<text text-anchor="middle" x="936.5674" y="-326" font-family="Helvetica,sans-Serif" font-size="10.00" fill="#000000">iomanip</text>
</g>
<!-- Node13&#45;&gt;Node16 -->
<g id="edge16" class="edge">
<title>Node13&#45;&gt;Node16</title>
<path fill="none" stroke="#191970" d="M960.533,-380.2967C955.9844,-370.4658 950.0327,-357.6026 945.1985,-347.1545"/>
<polygon fill="#191970" stroke="#191970" points="948.364,-345.6609 940.9883,-338.055 942.0111,-348.6003 948.364,-345.6609"/>
</g>
<!-- Node17 -->
<g id="node18" class="node">
<title>Node17</title>
<polygon fill="none" stroke="#bfbfbf" points="983.0674,-319 983.0674,-338 1014.0674,-338 1014.0674,-319 983.0674,-319"/>
<text text-anchor="middle" x="998.5674" y="-326" font-family="Helvetica,sans-Serif" font-size="10.00" fill="#000000">ios</text>
</g>
<!-- Node13&#45;&gt;Node17 -->
<g id="edge17" class="edge">
<title>Node13&#45;&gt;Node17</title>
<path fill="none" stroke="#191970" d="M974.6017,-380.2967C979.1503,-370.4658 985.102,-357.6026 989.9362,-347.1545"/>
<polygon fill="#191970" stroke="#191970" points="993.1236,-348.6003 994.1464,-338.055 986.7707,-345.6609 993.1236,-348.6003"/>
</g>
<!-- Node18 -->
<g id="node19" class="node">
<title>Node18</title>
<g id="a_node19"><a xlink:href="../../d4/d20/DetMatrixCache_8h.html" target="_top" xlink:title="DetectorsCommonDataFormats\l/DetMatrixCache.h">
<polygon fill="none" stroke="#000000" points="1032.0674,-313.5 1032.0674,-343.5 1203.0674,-343.5 1203.0674,-313.5 1032.0674,-313.5"/>
<text text-anchor="start" x="1040.0674" y="-331.5" font-family="Helvetica,sans-Serif" font-size="10.00" fill="#000000">DetectorsCommonDataFormats</text>
<text text-anchor="middle" x="1117.5674" y="-320.5" font-family="Helvetica,sans-Serif" font-size="10.00" fill="#000000">/DetMatrixCache.h</text>
</a>
</g>
</g>
<!-- Node13&#45;&gt;Node18 -->
<g id="edge19" class="edge">
<title>Node13&#45;&gt;Node18</title>
<path fill="none" stroke="#191970" d="M1001.2303,-380.4639C1022.8667,-370.7996 1051.1779,-358.154 1074.4541,-347.7572"/>
<polygon fill="#191970" stroke="#191970" points="1076.0545,-350.8758 1083.7576,-343.6017 1073.1996,-344.4844 1076.0545,-350.8758"/>
</g>
<!-- Node40 -->
<g id="node41" class="node">
<title>Node40</title>
<g id="a_node41"><a xlink:href="../../dd/d76/Cartesian3D_8h.html" target="_top" xlink:title="MathUtils/Cartesian3D.h">
<polygon fill="none" stroke="#000000" points="1373.0674,-252 1373.0674,-271 1508.0674,-271 1508.0674,-252 1373.0674,-252"/>
<text text-anchor="middle" x="1440.5674" y="-259" font-family="Helvetica,sans-Serif" font-size="10.00" fill="#000000">MathUtils/Cartesian3D.h</text>
</a>
</g>
</g>
<!-- Node13&#45;&gt;Node40 -->
<g id="edge69" class="edge">
<title>Node13&#45;&gt;Node40</title>
<path fill="none" stroke="#191970" d="M1043.7906,-382.2112C1092.2446,-373.0769 1156.0751,-359.7709 1211.5674,-344 1282.9913,-323.7012 1364.2516,-292.4013 1408.1974,-274.7648"/>
<polygon fill="#191970" stroke="#191970" points="1409.5436,-277.9958 1417.5076,-271.0083 1406.9243,-271.5043 1409.5436,-277.9958"/>
</g>
<!-- Node18&#45;&gt;Node5 -->
<g id="edge23" class="edge">
<title>Node18&#45;&gt;Node5</title>
<path fill="none" stroke="#191970" d="M1089.4165,-313.4931C1056.9254,-294.3813 1005.1927,-257.9921 983.5674,-210 977.9072,-197.4386 974.1235,-189.032 983.5674,-179 1010.1023,-150.8127 1561.1394,-134.3252 1762.6161,-129.2205"/>
<polygon fill="#191970" stroke="#191970" points="1762.8948,-132.7147 1772.8037,-128.9646 1762.7189,-125.7169 1762.8948,-132.7147"/>
</g>
<!-- Node18&#45;&gt;Node8 -->
<g id="edge24" class="edge">
<title>Node18&#45;&gt;Node8</title>
<path fill="none" stroke="#191970" d="M1032.0242,-314.5739C1001.4155,-306.8546 967.7873,-295.0188 940.5674,-277 888.138,-242.2934 847.0094,-178.1189 828.7928,-146.3408"/>
<polygon fill="#191970" stroke="#191970" points="831.6369,-144.2561 823.698,-137.24 825.5288,-147.6755 831.6369,-144.2561"/>
</g>
<!-- Node19 -->
<g id="node20" class="node">
<title>Node19</title>
<g id="a_node20"><a xlink:href="../../df/d5b/GPUCommonLogger_8h.html" target="_top" xlink:title="GPUCommonLogger.h">
<polygon fill="none" stroke="#000000" points="2306.0674,-118 2306.0674,-137 2429.0674,-137 2429.0674,-118 2306.0674,-118"/>
<text text-anchor="middle" x="2367.5674" y="-125" font-family="Helvetica,sans-Serif" font-size="10.00" fill="#000000">GPUCommonLogger.h</text>
</a>
</g>
</g>
<!-- Node18&#45;&gt;Node19 -->
<g id="edge20" class="edge">
<title>Node18&#45;&gt;Node19</title>
<path fill="none" stroke="#191970" d="M1203.2977,-327.3985C1483.7503,-322.9172 2360.7559,-301.6293 2444.5674,-210 2466.6171,-185.8934 2427.2724,-158.1883 2397.1587,-141.8005"/>
<polygon fill="#191970" stroke="#191970" points="2398.669,-138.6405 2388.1875,-137.0944 2395.4172,-144.8393 2398.669,-138.6405"/>
</g>
<!-- Node22 -->
<g id="node23" class="node">
<title>Node22</title>
<polygon fill="none" stroke="#bfbfbf" points="950.0674,-252 950.0674,-271 997.0674,-271 997.0674,-252 950.0674,-252"/>
<text text-anchor="middle" x="973.5674" y="-259" font-family="Helvetica,sans-Serif" font-size="10.00" fill="#000000">vector</text>
</g>
<!-- Node18&#45;&gt;Node22 -->
<g id="edge25" class="edge">
<title>Node18&#45;&gt;Node22</title>
<path fill="none" stroke="#191970" d="M1085.2509,-313.4639C1060.7631,-302.0702 1027.3689,-286.5327 1003.489,-275.4219"/>
<polygon fill="#191970" stroke="#191970" points="1004.7518,-272.1492 994.2086,-271.1039 1001.7988,-278.4958 1004.7518,-272.1492"/>
</g>
<!-- Node23 -->
<g id="node24" class="node">
<title>Node23</title>
<g id="a_node24"><a xlink:href="../../d6/d31/DetID_8h.html" target="_top" xlink:title="DetectorsCommonDataFormats\l/DetID.h">
<polygon fill="none" stroke="#000000" points="400.0674,-246.5 400.0674,-276.5 571.0674,-276.5 571.0674,-246.5 400.0674,-246.5"/>
<text text-anchor="start" x="408.0674" y="-264.5" font-family="Helvetica,sans-Serif" font-size="10.00" fill="#000000">DetectorsCommonDataFormats</text>
<text text-anchor="middle" x="485.5674" y="-253.5" font-family="Helvetica,sans-Serif" font-size="10.00" fill="#000000">/DetID.h</text>
</a>
</g>
</g>
<!-- Node18&#45;&gt;Node23 -->
<g id="edge26" class="edge">
<title>Node18&#45;&gt;Node23</title>
<path fill="none" stroke="#191970" d="M1031.9007,-314.2554C1028.7524,-313.817 1025.6334,-313.3967 1022.5674,-313 980.0774,-307.5024 723.9712,-283.5521 581.3341,-270.3371"/>
<polygon fill="#191970" stroke="#191970" points="581.545,-266.8418 571.2648,-269.4046 580.8994,-273.8119 581.545,-266.8418"/>
</g>
<!-- Node18&#45;&gt;Node40 -->
<g id="edge57" class="edge">
<title>Node18&#45;&gt;Node40</title>
<path fill="none" stroke="#191970" d="M1190.0549,-313.4639C1248.9411,-301.2491 1330.7881,-284.2716 1384.6846,-273.0918"/>
<polygon fill="#191970" stroke="#191970" points="1385.6627,-276.4635 1394.7434,-271.0053 1384.2409,-269.6094 1385.6627,-276.4635"/>
</g>
<!-- Node20 -->
<g id="node21" class="node">
<title>Node20</title>
<polygon fill="none" stroke="#bfbfbf" points="2274.5674,-56.5 2274.5674,-75.5 2334.5674,-75.5 2334.5674,-56.5 2274.5674,-56.5"/>
<text text-anchor="middle" x="2304.5674" y="-63.5" font-family="Helvetica,sans-Serif" font-size="10.00" fill="#000000">iostream</text>
</g>
<!-- Node19&#45;&gt;Node20 -->
<g id="edge21" class="edge">
<title>Node19&#45;&gt;Node20</title>
<path fill="none" stroke="#191970" d="M2357.7236,-117.8906C2348.1634,-108.5581 2333.4451,-94.1902 2321.9179,-82.9374"/>
<polygon fill="#191970" stroke="#191970" points="2324.1506,-80.2257 2314.5499,-75.7449 2319.2608,-85.2348 2324.1506,-80.2257"/>
</g>
<!-- Node21 -->
<g id="node22" class="node">
<title>Node21</title>
<polygon fill="none" stroke="#bfbfbf" points="2352.5674,-56.5 2352.5674,-75.5 2398.5674,-75.5 2398.5674,-56.5 2352.5674,-56.5"/>
<text text-anchor="middle" x="2375.5674" y="-63.5" font-family="Helvetica,sans-Serif" font-size="10.00" fill="#000000">cstdio</text>
</g>
<!-- Node19&#45;&gt;Node21 -->
<g id="edge22" class="edge">
<title>Node19&#45;&gt;Node21</title>
<path fill="none" stroke="#191970" d="M2368.8174,-117.8906C2369.9263,-109.3657 2371.5818,-96.6392 2372.9757,-85.9235"/>
<polygon fill="#191970" stroke="#191970" points="2376.4805,-86.1128 2374.2997,-75.7449 2369.5389,-85.2098 2376.4805,-86.1128"/>
</g>
<!-- Node23&#45;&gt;Node1 -->
<g id="edge33" class="edge">
<title>Node23&#45;&gt;Node1</title>
<path fill="none" stroke="#191970" d="M399.9351,-247.2404C319.3145,-233.6279 209.5772,-214.5367 200.5674,-210 182.5942,-200.95 183.8008,-190.8918 167.5674,-179 156.2763,-170.7287 125.6438,-153.9611 102.8077,-141.8"/>
<polygon fill="#191970" stroke="#191970" points="104.3585,-138.6608 93.8838,-137.07 101.0803,-144.8457 104.3585,-138.6608"/>
</g>
<!-- Node23&#45;&gt;Node6 -->
<g id="edge27" class="edge">
<title>Node23&#45;&gt;Node6</title>
<path fill="none" stroke="#191970" d="M471.845,-246.4034C457.7333,-228.9722 439.7533,-200.0072 454.5674,-179 482.0312,-140.0546 511.0104,-159.9022 555.5674,-143 590.0605,-129.9154 597.4225,-123.2171 632.5674,-112 684.4244,-95.4489 745.83,-81.7305 784.9813,-73.6996"/>
<polygon fill="#191970" stroke="#191970" points="785.8159,-77.1017 794.9213,-71.6849 784.4253,-70.2412 785.8159,-77.1017"/>
</g>
<!-- Node23&#45;&gt;Node8 -->
<g id="edge28" class="edge">
<title>Node23&#45;&gt;Node8</title>
<path fill="none" stroke="#191970" d="M548.814,-246.4688C578.5832,-238.0131 613.9641,-225.9176 643.5674,-210 663.069,-199.514 663.1777,-189.6916 682.5674,-179 725.0327,-155.5842 740.6727,-161.3324 785.5674,-143 786.9591,-142.4317 788.3766,-141.8354 789.8032,-141.2213"/>
<polygon fill="#191970" stroke="#191970" points="791.4818,-144.3043 799.1711,-137.0156 788.6148,-137.9183 791.4818,-144.3043"/>
</g>
<!-- Node23&#45;&gt;Node15 -->
<g id="edge29" class="edge">
<title>Node23&#45;&gt;Node15</title>
<path fill="none" stroke="#191970" d="M399.9734,-247.9424C311.1138,-233.7874 183.5012,-213.2012 172.5674,-210 170.3919,-209.3631 168.173,-208.6294 165.9588,-207.835"/>
<polygon fill="#191970" stroke="#191970" points="167.0178,-204.4903 156.4311,-204.0749 164.4481,-211.0016 167.0178,-204.4903"/>
</g>
<!-- Node24 -->
<g id="node25" class="node">
<title>Node24</title>
<polygon fill="none" stroke="#bfbfbf" points="641.5674,-118 641.5674,-137 693.5674,-137 693.5674,-118 641.5674,-118"/>
<text text-anchor="middle" x="667.5674" y="-125" font-family="Helvetica,sans-Serif" font-size="10.00" fill="#000000">cassert</text>
</g>
<!-- Node23&#45;&gt;Node24 -->
<g id="edge30" class="edge">
<title>Node23&#45;&gt;Node24</title>
<path fill="none" stroke="#191970" d="M475.0049,-246.4407C463.8539,-228.5115 449.8902,-198.5433 465.5674,-179 511.7187,-121.467 556.9795,-164.3858 627.5674,-143 629.9997,-142.2631 632.4943,-141.4472 634.9914,-140.5865"/>
<polygon fill="#191970" stroke="#191970" points="636.3118,-143.8306 644.5081,-137.1171 633.9142,-137.254 636.3118,-143.8306"/>
</g>
<!-- Node25 -->
<g id="node26" class="node">
<title>Node25</title>
<polygon fill="none" stroke="#bfbfbf" points="115.5674,-118 115.5674,-137 165.5674,-137 165.5674,-118 115.5674,-118"/>
<text text-anchor="middle" x="140.5674" y="-125" font-family="Helvetica,sans-Serif" font-size="10.00" fill="#000000">cstdint</text>
</g>
<!-- Node23&#45;&gt;Node25 -->
<g id="edge31" class="edge">
<title>Node23&#45;&gt;Node25</title>
<path fill="none" stroke="#191970" d="M399.8129,-247.5641C341.8179,-237.3242 270.9821,-222.9904 243.5674,-210 234.2327,-205.5768 186.9337,-166.4429 159.7922,-143.6986"/>
<polygon fill="#191970" stroke="#191970" points="161.9893,-140.9732 152.0804,-137.2228 157.4877,-146.3339 161.9893,-140.9732"/>
</g>
<!-- Node26 -->
<g id="node27" class="node">
<title>Node26</title>
<polygon fill="none" stroke="#bfbfbf" points="475.0674,-185 475.0674,-204 548.0674,-204 548.0674,-185 475.0674,-185"/>
<text text-anchor="middle" x="511.5674" y="-192" font-family="Helvetica,sans-Serif" font-size="10.00" fill="#000000">string_view</text>
</g>
<!-- Node23&#45;&gt;Node26 -->
<g id="edge32" class="edge">
<title>Node23&#45;&gt;Node26</title>
<path fill="none" stroke="#191970" d="M491.4672,-246.2967C495.2428,-236.5672 500.171,-223.8675 504.2026,-213.4784"/>
<polygon fill="#191970" stroke="#191970" points="507.5046,-214.6439 507.8595,-204.055 500.9787,-212.1114 507.5046,-214.6439"/>
</g>
<!-- Node27 -->
<g id="node28" class="node">
<title>Node27</title>
<polygon fill="none" stroke="#bfbfbf" points="566.0674,-185 566.0674,-204 635.0674,-204 635.0674,-185 566.0674,-185"/>
<text text-anchor="middle" x="600.5674" y="-192" font-family="Helvetica,sans-Serif" font-size="10.00" fill="#000000">type_traits</text>
</g>
<!-- Node23&#45;&gt;Node27 -->
<g id="edge34" class="edge">
<title>Node23&#45;&gt;Node27</title>
<path fill="none" stroke="#191970" d="M511.3756,-246.4639C530.4973,-235.3234 556.4191,-220.2212 575.3891,-209.1691"/>
<polygon fill="#191970" stroke="#191970" points="577.2044,-212.1622 584.083,-204.1039 573.6806,-206.1138 577.2044,-212.1622"/>
</g>
<!-- Node23&#45;&gt;Node28 -->
<g id="edge35" class="edge">
<title>Node23&#45;&gt;Node28</title>
<path fill="none" stroke="#191970" d="M571.1584,-252.5535C598.4268,-250.0221 628.7383,-247.5395 656.5674,-246 1450.1817,-202.0971 1650.4166,-242.7973 2444.5674,-210 2509.0869,-207.3354 2582.9448,-202.4875 2633.1616,-198.9206"/>
<polygon fill="#191970" stroke="#191970" points="2633.4684,-202.4077 2643.193,-198.2027 2632.9687,-195.4255 2633.4684,-202.4077"/>
</g>
<!-- Node34 -->
<g id="node35" class="node">
<title>Node34</title>
<g id="a_node35"><a xlink:href="../../dc/dcd/DataHeader_8h.html" target="_top" xlink:title="Headers/DataHeader.h">
<polygon fill="none" stroke="#000000" points="253.0674,-185 253.0674,-204 380.0674,-204 380.0674,-185 253.0674,-185"/>
<text text-anchor="middle" x="316.5674" y="-192" font-family="Helvetica,sans-Serif" font-size="10.00" fill="#000000">Headers/DataHeader.h</text>
</a>
</g>
</g>
<!-- Node23&#45;&gt;Node34 -->
<g id="edge46" class="edge">
<title>Node23&#45;&gt;Node34</title>
<path fill="none" stroke="#191970" d="M447.6405,-246.4639C418.3903,-234.8677 378.3127,-218.9789 350.1997,-207.8335"/>
<polygon fill="#191970" stroke="#191970" points="351.3782,-204.5358 340.7922,-204.1039 348.7984,-211.0431 351.3782,-204.5358"/>
</g>
<!-- Node28&#45;&gt;Node8 -->
<g id="edge36" class="edge">
<title>Node28&#45;&gt;Node8</title>
<path fill="none" stroke="#191970" d="M2643.1856,-190.965C2593.1526,-187.489 2513.5143,-182.2457 2444.5674,-179 1801.9904,-148.7505 1015.7071,-131.5609 850.0896,-128.1373"/>
<polygon fill="#191970" stroke="#191970" points="849.7355,-124.6293 839.6657,-127.9231 849.5917,-131.6279 849.7355,-124.6293"/>
</g>
<!-- Node28&#45;&gt;Node10 -->
<g id="edge37" class="edge">
<title>Node28&#45;&gt;Node10</title>
<path fill="none" stroke="#191970" d="M2699.1044,-184.9914C2711.1772,-168.0842 2738.5849,-132.6347 2769.5674,-112 2797.4049,-93.4599 2833.7097,-81.1254 2859.8333,-73.9371"/>
<polygon fill="#191970" stroke="#191970" points="2860.8795,-77.2809 2869.6547,-71.3441 2859.0925,-70.5128 2860.8795,-77.2809"/>
</g>
<!-- Node29 -->
<g id="node30" class="node">
<title>Node29</title>
<g id="a_node30"><a xlink:href="../../df/d21/GPUCommonDef_8h.html" target="_top" xlink:title="GPUCommonDef.h">
<polygon fill="none" stroke="#000000" points="3156.0674,-56.5 3156.0674,-75.5 3263.0674,-75.5 3263.0674,-56.5 3156.0674,-56.5"/>
<text text-anchor="middle" x="3209.5674" y="-63.5" font-family="Helvetica,sans-Serif" font-size="10.00" fill="#000000">GPUCommonDef.h</text>
</a>
</g>
</g>
<!-- Node28&#45;&gt;Node29 -->
<g id="edge38" class="edge">
<title>Node28&#45;&gt;Node29</title>
<path fill="none" stroke="#191970" d="M2706.7717,-184.9137C2721.6376,-174.7806 2745.5548,-158.193 2765.5674,-143 2782.9274,-129.8208 2783.4798,-120.4588 2803.5674,-112 2863.7896,-86.6408 3047.5995,-73.9579 3145.9287,-68.8397"/>
<polygon fill="#191970" stroke="#191970" points="3146.2288,-72.329 3156.0376,-68.3245 3145.8724,-65.3381 3146.2288,-72.329"/>
</g>
<!-- Node32 -->
<g id="node33" class="node">
<title>Node32</title>
<g id="a_node33"><a xlink:href="../../d6/da2/GPUCommonMath_8h.html" target="_top" xlink:title="GPUCommonMath.h">
<polygon fill="none" stroke="#000000" points="2922.0674,-118 2922.0674,-137 3037.0674,-137 3037.0674,-118 2922.0674,-118"/>
<text text-anchor="middle" x="2979.5674" y="-125" font-family="Helvetica,sans-Serif" font-size="10.00" fill="#000000">GPUCommonMath.h</text>
</a>
</g>
</g>
<!-- Node28&#45;&gt;Node32 -->
<g id="edge41" class="edge">
<title>Node28&#45;&gt;Node32</title>
<path fill="none" stroke="#191970" d="M2728.0838,-184.9559C2735.8123,-182.9388 2743.954,-180.8593 2751.5674,-179 2810.8817,-164.5145 2879.2323,-149.2665 2925.5082,-139.1561"/>
<polygon fill="#191970" stroke="#191970" points="2926.3009,-142.5656 2935.3259,-137.0158 2924.8099,-135.7262 2926.3009,-142.5656"/>
</g>
<!-- Node28&#45;&gt;Node33 -->
<g id="edge45" class="edge">
<title>Node28&#45;&gt;Node33</title>
<path fill="none" stroke="#191970" d="M2682.2515,-184.9005C2670.8099,-174.2535 2652.1459,-156.8856 2638.34,-144.0385"/>
<polygon fill="#191970" stroke="#191970" points="2640.5691,-141.3317 2630.8641,-137.0817 2635.8005,-146.4562 2640.5691,-141.3317"/>
</g>
<!-- Node30 -->
<g id="node31" class="node">
<title>Node30</title>
<g id="a_node31"><a xlink:href="../../d5/d93/GPUCommonDefSettings_8h.html" target="_top" xlink:title="GPUCommonDefSettings.h">
<polygon fill="none" stroke="#000000" points="3058.5674,-.5 3058.5674,-19.5 3206.5674,-19.5 3206.5674,-.5 3058.5674,-.5"/>
<text text-anchor="middle" x="3132.5674" y="-7.5" font-family="Helvetica,sans-Serif" font-size="10.00" fill="#000000">GPUCommonDefSettings.h</text>
</a>
</g>
</g>
<!-- Node29&#45;&gt;Node30 -->
<g id="edge39" class="edge">
<title>Node29&#45;&gt;Node30</title>
<path fill="none" stroke="#191970" d="M3196.155,-56.2455C3184.5616,-47.814 3167.5926,-35.4729 3154.0995,-25.6598"/>
<polygon fill="#191970" stroke="#191970" points="3155.972,-22.6938 3145.826,-19.6427 3151.8548,-28.355 3155.972,-22.6938"/>
</g>
<!-- Node31 -->
<g id="node32" class="node">
<title>Node31</title>
<g id="a_node32"><a xlink:href="../../da/d5a/GPUCommonDefAPI_8h.html" target="_top" xlink:title="GPUCommonDefAPI.h">
<polygon fill="none" stroke="#000000" points="3224.5674,-.5 3224.5674,-19.5 3348.5674,-19.5 3348.5674,-.5 3224.5674,-.5"/>
<text text-anchor="middle" x="3286.5674" y="-7.5" font-family="Helvetica,sans-Serif" font-size="10.00" fill="#000000">GPUCommonDefAPI.h</text>
</a>
</g>
</g>
<!-- Node29&#45;&gt;Node31 -->
<g id="edge40" class="edge">
<title>Node29&#45;&gt;Node31</title>
<path fill="none" stroke="#191970" d="M3222.9797,-56.2455C3234.5731,-47.814 3251.5421,-35.4729 3265.0352,-25.6598"/>
<polygon fill="#191970" stroke="#191970" points="3267.2799,-28.355 3273.3087,-19.6427 3263.1627,-22.6938 3267.2799,-28.355"/>
</g>
<!-- Node32&#45;&gt;Node7 -->
<g id="edge44" class="edge">
<title>Node32&#45;&gt;Node7</title>
<path fill="none" stroke="#191970" d="M2921.8529,-118.5915C2906.5007,-116.3283 2889.9188,-113.9791 2874.5674,-112 2737.7905,-94.3666 2575.2227,-77.6533 2499.8385,-70.1453"/>
<polygon fill="#191970" stroke="#191970" points="2500.0888,-66.653 2489.7919,-69.1479 2499.3971,-73.6188 2500.0888,-66.653"/>
</g>
<!-- Node32&#45;&gt;Node10 -->
<g id="edge43" class="edge">
<title>Node32&#45;&gt;Node10</title>
<path fill="none" stroke="#191970" d="M2966.1299,-117.8906C2952.4978,-108.1421 2931.1828,-92.8994 2915.1751,-81.4521"/>
<polygon fill="#191970" stroke="#191970" points="2917.0806,-78.5118 2906.9105,-75.5419 2913.0087,-84.2057 2917.0806,-78.5118"/>
</g>
<!-- Node32&#45;&gt;Node29 -->
<g id="edge42" class="edge">
<title>Node32&#45;&gt;Node29</title>
<path fill="none" stroke="#191970" d="M3015.2525,-117.9581C3055.2867,-107.2533 3120.3245,-89.8628 3164.0024,-78.1837"/>
<polygon fill="#191970" stroke="#191970" points="3165.042,-81.5287 3173.7985,-75.5643 3163.2338,-74.7663 3165.042,-81.5287"/>
</g>
<!-- Node34&#45;&gt;Node1 -->
<g id="edge53" class="edge">
<title>Node34&#45;&gt;Node1</title>
<path fill="none" stroke="#191970" d="M263.8209,-184.9654C220.7564,-176.3777 158.7168,-162.1584 106.5674,-143 105.1553,-142.4813 103.7235,-141.916 102.2891,-141.3183"/>
<polygon fill="#191970" stroke="#191970" points="103.5197,-138.0323 92.9703,-137.0512 100.6053,-144.3968 103.5197,-138.0323"/>
</g>
<!-- Node34&#45;&gt;Node7 -->
<g id="edge51" class="edge">
<title>Node34&#45;&gt;Node7</title>
<path fill="none" stroke="#191970" d="M374.2533,-184.9222C423.104,-176.136 494.6958,-161.6625 555.5674,-143 590.8385,-132.1863 596.4223,-119.3839 632.5674,-112 1019.1098,-33.0356 2015.3762,-118.8543 2407.5674,-76 2410.1084,-75.7223 2412.7123,-75.3801 2415.3326,-74.9914"/>
<polygon fill="#191970" stroke="#191970" points="2416.1382,-78.4053 2425.4218,-73.2999 2414.9807,-71.5016 2416.1382,-78.4053"/>
</g>
<!-- Node34&#45;&gt;Node11 -->
<g id="edge50" class="edge">
<title>Node34&#45;&gt;Node11</title>
<path fill="none" stroke="#191970" d="M380.2712,-186.6035C406.6276,-183.6672 437.5276,-180.6507 465.5674,-179 1038.1874,-145.2907 2476.614,-207.677 3046.5674,-143 3058.7521,-141.6173 3071.9124,-139.0952 3083.6073,-136.4814"/>
<polygon fill="#191970" stroke="#191970" points="3084.502,-139.8668 3093.4459,-134.1873 3082.9123,-133.0497 3084.502,-139.8668"/>
</g>
<!-- Node34&#45;&gt;Node24 -->
<g id="edge49" class="edge">
<title>Node34&#45;&gt;Node24</title>
<path fill="none" stroke="#191970" d="M367.9179,-184.9668C422.8115,-174.7398 512.3838,-157.9486 589.5674,-143 603.1505,-140.3693 618.0516,-137.423 631.1574,-134.8114"/>
<polygon fill="#191970" stroke="#191970" points="632.1027,-138.1918 641.2236,-132.8011 630.7318,-131.3274 632.1027,-138.1918"/>
</g>
<!-- Node34&#45;&gt;Node25 -->
<g id="edge47" class="edge">
<title>Node34&#45;&gt;Node25</title>
<path fill="none" stroke="#191970" d="M288.2943,-184.9918C259.4539,-175.119 213.5311,-158.9174 174.5674,-143 173.1786,-142.4327 171.7633,-141.8414 170.3376,-141.235"/>
<polygon fill="#191970" stroke="#191970" points="171.5118,-137.928 160.9485,-137.1106 168.6964,-144.3369 171.5118,-137.928"/>
</g>
<!-- Node35 -->
<g id="node36" class="node">
<title>Node35</title>
<polygon fill="none" stroke="#bfbfbf" points="718.5674,-118 718.5674,-137 776.5674,-137 776.5674,-118 718.5674,-118"/>
<text text-anchor="middle" x="747.5674" y="-125" font-family="Helvetica,sans-Serif" font-size="10.00" fill="#000000">memory</text>
</g>
<!-- Node34&#45;&gt;Node35 -->
<g id="edge48" class="edge">
<title>Node34&#45;&gt;Node35</title>
<path fill="none" stroke="#191970" d="M380.4417,-187.5407C473.7893,-177.1037 642.8596,-157.1173 702.5674,-143 705.9673,-142.1961 709.4717,-141.235 712.9533,-140.1904"/>
<polygon fill="#191970" stroke="#191970" points="714.1516,-143.4816 722.5991,-137.0872 712.0077,-136.818 714.1516,-143.4816"/>
</g>
<!-- Node36 -->
<g id="node37" class="node">
<title>Node36</title>
<polygon fill="none" stroke="#bfbfbf" points="184.0674,-118 184.0674,-137 249.0674,-137 249.0674,-118 184.0674,-118"/>
<text text-anchor="middle" x="216.5674" y="-125" font-family="Helvetica,sans-Serif" font-size="10.00" fill="#000000">stdexcept</text>
</g>
<!-- Node34&#45;&gt;Node36 -->
<g id="edge52" class="edge">
<title>Node34&#45;&gt;Node36</title>
<path fill="none" stroke="#191970" d="M302.2398,-184.9005C285.8288,-173.9052 258.7198,-155.7422 239.3922,-142.7927"/>
<polygon fill="#191970" stroke="#191970" points="241.1242,-139.7402 230.8683,-137.0817 237.2279,-145.5556 241.1242,-139.7402"/>
</g>
<!-- Node37 -->
<g id="node38" class="node">
<title>Node37</title>
<polygon fill="none" stroke="#bfbfbf" points="267.5674,-118 267.5674,-137 317.5674,-137 317.5674,-118 267.5674,-118"/>
<text text-anchor="middle" x="292.5674" y="-125" font-family="Helvetica,sans-Serif" font-size="10.00" fill="#000000">climits</text>
</g>
<!-- Node34&#45;&gt;Node37 -->
<g id="edge54" class="edge">
<title>Node34&#45;&gt;Node37</title>
<path fill="none" stroke="#191970" d="M313.1287,-184.9005C309.5644,-174.95 303.8972,-159.1292 299.4144,-146.6147"/>
<polygon fill="#191970" stroke="#191970" points="302.6669,-145.3156 295.9996,-137.0817 296.0769,-147.6762 302.6669,-145.3156"/>
</g>
<!-- Node38 -->
<g id="node39" class="node">
<title>Node38</title>
<g id="a_node39"><a xlink:href="../../d7/df8/Types_8h.html" target="_top" xlink:title="MemoryResources/Types.h">
<polygon fill="none" stroke="#000000" points="335.5674,-118 335.5674,-137 481.5674,-137 481.5674,-118 335.5674,-118"/>
<text text-anchor="middle" x="408.5674" y="-125" font-family="Helvetica,sans-Serif" font-size="10.00" fill="#000000">MemoryResources/Types.h</text>
</a>
</g>
</g>
<!-- Node34&#45;&gt;Node38 -->
<g id="edge55" class="edge">
<title>Node34&#45;&gt;Node38</title>
<path fill="none" stroke="#191970" d="M329.7487,-184.9005C344.7785,-173.9549 369.5616,-155.9064 387.3267,-142.9688"/>
<polygon fill="#191970" stroke="#191970" points="389.3873,-145.7979 395.4105,-137.0817 385.2664,-140.1394 389.3873,-145.7979"/>
</g>
<!-- Node39 -->
<g id="node40" class="node">
<title>Node39</title>
<polygon fill="none" stroke="#bfbfbf" points="500.0674,-118 500.0674,-137 547.0674,-137 547.0674,-118 500.0674,-118"/>
<text text-anchor="middle" x="523.5674" y="-125" font-family="Helvetica,sans-Serif" font-size="10.00" fill="#000000">cerrno</text>
</g>
<!-- Node34&#45;&gt;Node39 -->
<g id="edge56" class="edge">
<title>Node34&#45;&gt;Node39</title>
<path fill="none" stroke="#191970" d="M354.7912,-184.9724C390.417,-175.6748 444.779,-160.4148 490.5674,-143 492.1536,-142.3967 493.7696,-141.7497 495.3917,-141.0749"/>
<polygon fill="#191970" stroke="#191970" points="496.8509,-144.2566 504.5841,-137.0145 494.0225,-137.8535 496.8509,-144.2566"/>
</g>
<!-- Node40&#45;&gt;Node6 -->
<g id="edge63" class="edge">
<title>Node40&#45;&gt;Node6</title>
<path fill="none" stroke="#191970" d="M1373.0526,-255.9649C1278.4565,-247.6185 1111.6491,-230.5786 1054.5674,-210 969.2257,-179.2333 882.1374,-113.2766 844.2165,-82.4773"/>
<polygon fill="#191970" stroke="#191970" points="846.0188,-79.4283 836.0705,-75.784 841.5749,-84.8368 846.0188,-79.4283"/>
</g>
<!-- Node40&#45;&gt;Node12 -->
<g id="edge65" class="edge">
<title>Node40&#45;&gt;Node12</title>
<path fill="none" stroke="#191970" d="M1372.7806,-255.2269C1222.261,-241.2976 864.5435,-208.1939 751.4628,-197.7293"/>
<polygon fill="#191970" stroke="#191970" points="751.5784,-194.2251 741.2984,-196.7886 750.9333,-201.1953 751.5784,-194.2251"/>
</g>
<!-- Node41 -->
<g id="node42" class="node">
<title>Node41</title>
<polygon fill="none" stroke="#bfbfbf" points="1163.5674,-179.5 1163.5674,-209.5 1327.5674,-209.5 1327.5674,-179.5 1163.5674,-179.5"/>
<text text-anchor="start" x="1171.5674" y="-197.5" font-family="Helvetica,sans-Serif" font-size="10.00" fill="#000000">Math/GenVector/Displacement</text>
<text text-anchor="middle" x="1245.5674" y="-186.5" font-family="Helvetica,sans-Serif" font-size="10.00" fill="#000000">Vector3D.h</text>
</g>
<!-- Node40&#45;&gt;Node41 -->
<g id="edge58" class="edge">
<title>Node40&#45;&gt;Node41</title>
<path fill="none" stroke="#191970" d="M1412.6286,-251.9005C1383.0469,-241.7366 1335.6395,-225.4479 1298.8697,-212.8141"/>
<polygon fill="#191970" stroke="#191970" points="1299.8821,-209.4612 1289.2874,-209.5218 1297.6074,-216.0813 1299.8821,-209.4612"/>
</g>
<!-- Node42 -->
<g id="node43" class="node">
<title>Node42</title>
<polygon fill="none" stroke="#bfbfbf" points="1346.0674,-185 1346.0674,-204 1535.0674,-204 1535.0674,-185 1346.0674,-185"/>
<text text-anchor="middle" x="1440.5674" y="-192" font-family="Helvetica,sans-Serif" font-size="10.00" fill="#000000">Math/GenVector/PositionVector3D.h</text>
</g>
<!-- Node40&#45;&gt;Node42 -->
<g id="edge59" class="edge">
<title>Node40&#45;&gt;Node42</title>
<path fill="none" stroke="#191970" d="M1440.5674,-251.9005C1440.5674,-242.149 1440.5674,-226.7597 1440.5674,-214.3695"/>
<polygon fill="#191970" stroke="#191970" points="1444.0675,-214.0816 1440.5674,-204.0817 1437.0675,-214.0817 1444.0675,-214.0816"/>
</g>
<!-- Node43 -->
<g id="node44" class="node">
<title>Node43</title>
<polygon fill="none" stroke="#bfbfbf" points="1553.5674,-185 1553.5674,-204 1713.5674,-204 1713.5674,-185 1553.5674,-185"/>
<text text-anchor="middle" x="1633.5674" y="-192" font-family="Helvetica,sans-Serif" font-size="10.00" fill="#000000">Math/GenVector/Rotation3D.h</text>
</g>
<!-- Node40&#45;&gt;Node43 -->
<g id="edge60" class="edge">
<title>Node40&#45;&gt;Node43</title>
<path fill="none" stroke="#191970" d="M1468.2196,-251.9005C1501.8992,-240.2086 1558.9248,-220.4122 1596.4146,-207.3976"/>
<polygon fill="#191970" stroke="#191970" points="1597.6674,-210.6677 1605.9665,-204.0817 1595.3717,-204.0548 1597.6674,-210.6677"/>
</g>
<!-- Node44 -->
<g id="node45" class="node">
<title>Node44</title>
<polygon fill="none" stroke="#bfbfbf" points="1731.5674,-185 1731.5674,-204 1899.5674,-204 1899.5674,-185 1731.5674,-185"/>
<text text-anchor="middle" x="1815.5674" y="-192" font-family="Helvetica,sans-Serif" font-size="10.00" fill="#000000">Math/GenVector/Transform3D.h</text>
</g>
<!-- Node40&#45;&gt;Node44 -->
<g id="edge61" class="edge">
<title>Node40&#45;&gt;Node44</title>
<path fill="none" stroke="#191970" d="M1493.8975,-251.9717C1561.9741,-239.8087 1679.6039,-218.7921 1752.1852,-205.8243"/>
<polygon fill="#191970" stroke="#191970" points="1752.8895,-209.254 1762.118,-204.0496 1751.6582,-202.3631 1752.8895,-209.254"/>
</g>
<!-- Node45 -->
<g id="node46" class="node">
<title>Node45</title>
<polygon fill="none" stroke="#bfbfbf" points="1918.0674,-185 1918.0674,-204 2091.0674,-204 2091.0674,-185 1918.0674,-185"/>
<text text-anchor="middle" x="2004.5674" y="-192" font-family="Helvetica,sans-Serif" font-size="10.00" fill="#000000">Math/GenVector/Translation3D.h</text>
</g>
<!-- Node40&#45;&gt;Node45 -->
<g id="edge62" class="edge">
<title>Node40&#45;&gt;Node45</title>
<path fill="none" stroke="#191970" d="M1508.1242,-255.1462C1599.2188,-246.332 1766.415,-229.2847 1908.5674,-210 1918.2912,-208.6808 1928.5485,-207.1616 1938.5956,-205.6013"/>
<polygon fill="#191970" stroke="#191970" points="1939.2121,-209.0474 1948.5452,-204.0331 1938.1222,-202.1328 1939.2121,-209.0474"/>
</g>
<!-- Node46 -->
<g id="node47" class="node">
<title>Node46</title>
<polygon fill="none" stroke="#bfbfbf" points="1063.5674,-185 1063.5674,-204 1145.5674,-204 1145.5674,-185 1063.5674,-185"/>
<text text-anchor="middle" x="1104.5674" y="-192" font-family="Helvetica,sans-Serif" font-size="10.00" fill="#000000">TGeoMatrix.h</text>
</g>
<!-- Node40&#45;&gt;Node46 -->
<g id="edge64" class="edge">
<title>Node40&#45;&gt;Node46</title>
<path fill="none" stroke="#191970" d="M1374.7749,-251.9982C1316.4958,-243.026 1229.3117,-228.2423 1154.5674,-210 1150.753,-209.0691 1146.802,-208.0109 1142.8692,-206.8949"/>
<polygon fill="#191970" stroke="#191970" points="1143.8008,-203.5206 1133.2187,-204.0415 1141.8159,-210.2333 1143.8008,-203.5206"/>
</g>
<!-- Node47 -->
<g id="node48" class="node">
<title>Node47</title>
<g id="a_node48"><a xlink:href="../../d2/dd0/Cartesian2D_8h.html" target="_top" xlink:title="MathUtils/Cartesian2D.h">
<polygon fill="none" stroke="#000000" points="2300.0674,-185 2300.0674,-204 2435.0674,-204 2435.0674,-185 2300.0674,-185"/>
<text text-anchor="middle" x="2367.5674" y="-192" font-family="Helvetica,sans-Serif" font-size="10.00" fill="#000000">MathUtils/Cartesian2D.h</text>
</a>
</g>
</g>
<!-- Node40&#45;&gt;Node47 -->
<g id="edge66" class="edge">
<title>Node40&#45;&gt;Node47</title>
<path fill="none" stroke="#191970" d="M1508.3563,-256.6005C1676.4289,-244.4528 2111.6058,-212.9999 2289.7733,-200.1227"/>
<polygon fill="#191970" stroke="#191970" points="2290.1333,-203.6059 2299.855,-199.394 2289.6286,-196.6241 2290.1333,-203.6059"/>
</g>
<!-- Node48 -->
<g id="node49" class="node">
<title>Node48</title>
<polygon fill="none" stroke="#bfbfbf" points="2123.5674,-112.5 2123.5674,-142.5 2287.5674,-142.5 2287.5674,-112.5 2123.5674,-112.5"/>
<text text-anchor="start" x="2131.5674" y="-130.5" font-family="Helvetica,sans-Serif" font-size="10.00" fill="#000000">Math/GenVector/Displacement</text>
<text text-anchor="middle" x="2205.5674" y="-119.5" font-family="Helvetica,sans-Serif" font-size="10.00" fill="#000000">Vector2D.h</text>
</g>
<!-- Node47&#45;&gt;Node48 -->
<g id="edge67" class="edge">
<title>Node47&#45;&gt;Node48</title>
<path fill="none" stroke="#191970" d="M2344.3567,-184.9005C2320.1994,-174.9096 2281.733,-159.0006 2251.4167,-146.4624"/>
<polygon fill="#191970" stroke="#191970" points="2252.4672,-143.1094 2241.8886,-142.5218 2249.7918,-149.578 2252.4672,-143.1094"/>
</g>
<!-- Node49 -->
<g id="node50" class="node">
<title>Node49</title>
<polygon fill="none" stroke="#bfbfbf" points="1916.0674,-118 1916.0674,-137 2105.0674,-137 2105.0674,-118 1916.0674,-118"/>
<text text-anchor="middle" x="2010.5674" y="-125" font-family="Helvetica,sans-Serif" font-size="10.00" fill="#000000">Math/GenVector/PositionVector2D.h</text>
</g>
<!-- Node47&#45;&gt;Node49 -->
<g id="edge68" class="edge">
<title>Node47&#45;&gt;Node49</title>
<path fill="none" stroke="#191970" d="M2317.2658,-184.9779C2306.7904,-182.9988 2295.819,-180.9288 2285.5674,-179 2211.9806,-165.1548 2127.3001,-149.3096 2071.5696,-138.8935"/>
<polygon fill="#191970" stroke="#191970" points="2071.9824,-135.4101 2061.5096,-137.0134 2070.6964,-142.291 2071.9824,-135.4101"/>
</g>
<!-- Node50&#45;&gt;Node5 -->
<g id="edge74" class="edge">
<title>Node50&#45;&gt;Node5</title>
<path fill="none" stroke="#191970" d="M1806.4973,-385.9468C1883.9029,-367.3787 2036.1739,-318.334 2100.5674,-210 2169.4142,-94.1738 2072.5577,-176.5112 1906.5674,-143 1900.7045,-141.8164 1894.5784,-140.5396 1888.4874,-139.2448"/>
<polygon fill="#191970" stroke="#191970" points="1888.8347,-135.7396 1878.3227,-137.0618 1887.3649,-142.5836 1888.8347,-135.7396"/>
</g>
<!-- Node51&#45;&gt;Node2 -->
<g id="edge77" class="edge">
<title>Node51&#45;&gt;Node2</title>
<path fill="none" stroke="#191970" d="M301.6998,-380.4639C277.552,-369.0702 244.6217,-353.5327 221.0734,-342.4219"/>
<polygon fill="#191970" stroke="#191970" points="222.4593,-339.2058 211.9219,-338.1039 219.4723,-345.5365 222.4593,-339.2058"/>
</g>
<!-- Node51&#45;&gt;Node5 -->
<g id="edge76" class="edge">
<title>Node51&#45;&gt;Node5</title>
<path fill="none" stroke="#191970" d="M409.6781,-385.6237C508.8373,-370.8916 686.1165,-338.1084 826.5674,-277 898.9079,-245.5255 899.7387,-203.9894 974.5674,-179 1048.3048,-154.375 1568.9498,-135.8133 1762.9477,-129.6813"/>
<polygon fill="#191970" stroke="#191970" points="1763.1578,-133.1765 1773.043,-129.3642 1762.938,-126.18 1763.1578,-133.1765"/>
</g>
<!-- Node52&#45;&gt;Node5 -->
<g id="edge79" class="edge">
<title>Node52&#45;&gt;Node5</title>
<path fill="none" stroke="#191970" d="M2435.5115,-253.6111C2383.8884,-246.4599 2314.8654,-233.3348 2257.5674,-210 2234.0474,-200.4214 2233.4593,-187.609 2209.5674,-179 2081.9835,-133.0275 2040.3036,-165.4886 1906.5674,-143 1899.8798,-141.8754 1892.8705,-140.5398 1885.9695,-139.1313"/>
<polygon fill="#191970" stroke="#191970" points="1886.4924,-135.6648 1875.9862,-137.0317 1885.0517,-142.515 1886.4924,-135.6648"/>
</g>
<!-- Node52&#45;&gt;Node8 -->
<g id="edge80" class="edge">
<title>Node52&#45;&gt;Node8</title>
<path fill="none" stroke="#191970" d="M2435.2992,-251.2677C2373.0852,-242.2983 2283.1231,-227.9066 2205.5674,-210 2158.1566,-199.0535 2148.5756,-186.9258 2100.5674,-179 1848.8305,-137.4403 1021.0201,-129.0208 849.7481,-127.7099"/>
<polygon fill="#191970" stroke="#191970" points="849.6724,-124.2093 839.6467,-127.6351 849.6205,-131.2092 849.6724,-124.2093"/>
</g>
<!-- Node52&#45;&gt;Node10 -->
<g id="edge81" class="edge">
<title>Node52&#45;&gt;Node10</title>
<path fill="none" stroke="#191970" d="M2513.0686,-246.1945C2513.9954,-235.9602 2515.0948,-222.1872 2515.5674,-210 2516.7213,-180.2413 2514.9809,-172.7782 2514.5674,-143 2514.3761,-129.2236 2505.4307,-122.3126 2514.5674,-112 2537.3226,-86.316 2771.2594,-72.0846 2859.8326,-67.5835"/>
<polygon fill="#191970" stroke="#191970" points="2860.0761,-71.0758 2869.8896,-67.0827 2859.7279,-64.0845 2860.0761,-71.0758"/>
</g>
<!-- Node52&#45;&gt;Node28 -->
<g id="edge82" class="edge">
<title>Node52&#45;&gt;Node28</title>
<path fill="none" stroke="#191970" d="M2552.1873,-246.4639C2583.7448,-234.7824 2627.0699,-218.7449 2657.2093,-207.5884"/>
<polygon fill="#191970" stroke="#191970" points="2658.7258,-210.7591 2666.8889,-204.0053 2656.2957,-204.1945 2658.7258,-210.7591"/>
</g>
<!-- Node52&#45;&gt;Node33 -->
<g id="edge83" class="edge">
<title>Node52&#45;&gt;Node33</title>
<path fill="none" stroke="#191970" d="M2524.0725,-246.1831C2532.4287,-235.9439 2543.6632,-222.1699 2553.5674,-210 2571.8162,-187.5765 2592.8257,-161.6961 2606.3801,-144.9907"/>
<polygon fill="#191970" stroke="#191970" points="2609.1523,-147.129 2612.7345,-137.1581 2603.7162,-142.7188 2609.1523,-147.129"/>
</g>
<!-- Node54&#45;&gt;Node4 -->
<g id="edge86" class="edge">
<title>Node54&#45;&gt;Node4</title>
<path fill="none" stroke="#191970" d="M1677.3558,-514.4639C1691.9825,-505.2188 1710.9257,-493.2452 1726.9412,-483.1222"/>
<polygon fill="#191970" stroke="#191970" points="1728.9086,-486.0193 1735.4915,-477.7177 1725.1685,-480.1022 1728.9086,-486.0193"/>
</g>
<!-- Node55&#45;&gt;Node5 -->
<g id="edge88" class="edge">
<title>Node55&#45;&gt;Node5</title>
<path fill="none" stroke="#191970" d="M758.6806,-246.2259C781.8963,-226.5644 825.547,-193.2414 869.5674,-179 953.6787,-151.7884 1552.8862,-134.5008 1762.9924,-129.2202"/>
<polygon fill="#191970" stroke="#191970" points="1763.0887,-132.719 1772.9982,-128.9704 1762.9139,-125.7212 1763.0887,-132.719"/>
</g>
<!-- Node55&#45;&gt;Node8 -->
<g id="edge89" class="edge">
<title>Node55&#45;&gt;Node8</title>
<path fill="none" stroke="#191970" d="M750.2506,-246.389C764.4724,-221.6393 792.6807,-172.5495 808.0265,-145.8438"/>
<polygon fill="#191970" stroke="#191970" points="811.1009,-147.5185 813.0485,-137.1042 805.0316,-144.0308 811.1009,-147.5185"/>
</g>
<!-- Node55&#45;&gt;Node12 -->
<g id="edge90" class="edge">
<title>Node55&#45;&gt;Node12</title>
<path fill="none" stroke="#191970" d="M735.8945,-246.2967C732.2641,-236.5672 727.5254,-223.8675 723.6488,-213.4784"/>
<polygon fill="#191970" stroke="#191970" points="726.9078,-212.2004 720.1326,-204.055 720.3495,-214.6476 726.9078,-212.2004"/>
</g>
<!-- Node56&#45;&gt;Node3 -->
<g id="edge94" class="edge">
<title>Node56&#45;&gt;Node3</title>
<path fill="none" stroke="#191970" d="M409.7241,-652.2857C490.5552,-640.3831 618.036,-621.6112 702.4649,-609.1788"/>
<polygon fill="#191970" stroke="#191970" points="703.1583,-612.6145 712.5417,-607.695 702.1385,-605.6892 703.1583,-612.6145"/>
</g>
<!-- Node56&#45;&gt;Node6 -->
<g id="edge92" class="edge">
<title>Node56&#45;&gt;Node6</title>
<path fill="none" stroke="#191970" d="M313.6607,-648.2941C225.0808,-578.9358 -121.7173,-288.3801 44.5674,-112 70.1794,-84.833 628.7814,-70.3687 784.5549,-66.8537"/>
<polygon fill="#191970" stroke="#191970" points="784.7237,-70.3509 794.6432,-66.6287 784.5676,-63.3526 784.7237,-70.3509"/>
</g>
<!-- Node56&#45;&gt;Node51 -->
<g id="edge93" class="edge">
<title>Node56&#45;&gt;Node51</title>
<path fill="none" stroke="#191970" d="M333.5674,-648.3233C333.5674,-604.1927 333.5674,-475.576 333.5674,-420.7412"/>
<polygon fill="#191970" stroke="#191970" points="337.0675,-420.5102 333.5674,-410.5103 330.0675,-420.5103 337.0675,-420.5102"/>
</g>
<!-- Node57&#45;&gt;Node29 -->
<g id="edge96" class="edge">
<title>Node57&#45;&gt;Node29</title>
<path fill="none" stroke="#191970" d="M2983.8682,-386.7504C3103.9638,-370.828 3323.5674,-332.0652 3323.5674,-261.5 3323.5674,-261.5 3323.5674,-261.5 3323.5674,-194.5 3323.5674,-142.4335 3270.5469,-101.6189 3236.8234,-80.9249"/>
<polygon fill="#191970" stroke="#191970" points="3238.271,-77.7145 3227.8834,-75.6291 3234.7033,-83.7371 3238.271,-77.7145"/>
</g>
<!-- Node57&#45;&gt;Node40 -->
<g id="edge122" class="edge">
<title>Node57&#45;&gt;Node40</title>
<path fill="none" stroke="#191970" d="M2831.5289,-388.5544C2579.4915,-365.5326 1773.0861,-291.8732 1518.4154,-268.6109"/>
<polygon fill="#191970" stroke="#191970" points="1518.423,-265.0971 1508.1461,-267.6728 1517.7862,-272.0681 1518.423,-265.0971"/>
</g>
<!-- Node58 -->
<g id="node59" class="node">
<title>Node58</title>
<g id="a_node59"><a xlink:href="../../da/df3/MatLayerCyl_8h.html" target="_top" xlink:title="Declarations for single cylindrical material layer class. ">
<polygon fill="none" stroke="#000000" points="2968.0674,-252 2968.0674,-271 3129.0674,-271 3129.0674,-252 2968.0674,-252"/>
<text text-anchor="middle" x="3048.5674" y="-259" font-family="Helvetica,sans-Serif" font-size="10.00" fill="#000000">DetectorsBase/MatLayerCyl.h</text>
</a>
</g>
</g>
<!-- Node57&#45;&gt;Node58 -->
<g id="edge97" class="edge">
<title>Node57&#45;&gt;Node58</title>
<path fill="none" stroke="#191970" d="M2923.4678,-380.389C2950.0815,-355.0965 3003.4424,-304.3847 3031.0795,-278.1196"/>
<polygon fill="#191970" stroke="#191970" points="3033.6239,-280.5301 3038.4615,-271.1042 3028.8016,-275.456 3033.6239,-280.5301"/>
</g>
<!-- Node59 -->
<g id="node60" class="node">
<title>Node59</title>
<g id="a_node60"><a xlink:href="../../db/dff/FlatObject_8h.html" target="_top" xlink:title="Definition of FlatObject class. ">
<polygon fill="none" stroke="#000000" points="2760.0674,-185 2760.0674,-204 2835.0674,-204 2835.0674,-185 2760.0674,-185"/>
<text text-anchor="middle" x="2797.5674" y="-192" font-family="Helvetica,sans-Serif" font-size="10.00" fill="#000000">FlatObject.h</text>
</a>
</g>
</g>
<!-- Node57&#45;&gt;Node59 -->
<g id="edge121" class="edge">
<title>Node57&#45;&gt;Node59</title>
<path fill="none" stroke="#191970" d="M2915.6729,-380.3224C2923.597,-363.3199 2933.1776,-335.2308 2923.5674,-313 2903.2659,-266.0378 2854.178,-229.098 2823.6121,-209.6411"/>
<polygon fill="#191970" stroke="#191970" points="2825.1186,-206.4575 2814.7731,-204.1723 2821.4355,-212.4102 2825.1186,-206.4575"/>
</g>
<!-- Node62 -->
<g id="node63" class="node">
<title>Node62</title>
<g id="a_node63"><a xlink:href="../../d4/d1b/Ray_8h.html" target="_top" xlink:title="DetectorsBase/Ray.h">
<polygon fill="none" stroke="#000000" points="2797.0674,-319 2797.0674,-338 2914.0674,-338 2914.0674,-319 2797.0674,-319"/>
<text text-anchor="middle" x="2855.5674" y="-326" font-family="Helvetica,sans-Serif" font-size="10.00" fill="#000000">DetectorsBase/Ray.h</text>
</a>
</g>
</g>
<!-- Node57&#45;&gt;Node62 -->
<g id="edge114" class="edge">
<title>Node57&#45;&gt;Node62</title>
<path fill="none" stroke="#191970" d="M2895.7678,-380.2967C2887.9019,-370.1618 2877.5347,-356.804 2869.2986,-346.1921"/>
<polygon fill="#191970" stroke="#191970" points="2871.8794,-343.8089 2862.9832,-338.055 2866.3495,-348.1008 2871.8794,-343.8089"/>
</g>
<!-- Node58&#45;&gt;Node5 -->
<g id="edge109" class="edge">
<title>Node58&#45;&gt;Node5</title>
<path fill="none" stroke="#191970" d="M2967.7354,-258.4675C2785.5778,-251.2799 2353.9912,-232.1412 2291.5674,-210 2269.0219,-202.0033 2269.96,-187.4153 2247.5674,-179 2104.9106,-125.3889 2057.0172,-167.2888 1906.5674,-143 1899.7889,-141.9057 1892.6837,-140.5761 1885.6972,-139.1609"/>
<polygon fill="#191970" stroke="#191970" points="1886.1031,-135.6699 1875.5977,-137.0434 1884.6667,-142.521 1886.1031,-135.6699"/>
</g>
<!-- Node58&#45;&gt;Node10 -->
<g id="edge98" class="edge">
<title>Node58&#45;&gt;Node10</title>
<path fill="none" stroke="#191970" d="M3073.7226,-251.9403C3092.5085,-243.5742 3117.4492,-229.6638 3132.5674,-210 3159.6622,-174.7584 3181.1203,-146.0709 3152.5674,-112 3124.2139,-78.1671 2990.9901,-69.2005 2927.4483,-66.8378"/>
<polygon fill="#191970" stroke="#191970" points="2927.2662,-63.3298 2917.1538,-66.4906 2927.0301,-70.3258 2927.2662,-63.3298"/>
</g>
<!-- Node58&#45;&gt;Node11 -->
<g id="edge99" class="edge">
<title>Node58&#45;&gt;Node11</title>
<path fill="none" stroke="#191970" d="M3068.6096,-251.9321C3084.1545,-243.3251 3104.6666,-229.0961 3114.5674,-210 3124.6922,-190.4717 3124.1194,-164.7245 3122.0339,-147.2231"/>
<polygon fill="#191970" stroke="#191970" points="3125.4575,-146.4467 3120.5422,-137.0611 3118.5317,-147.4634 3125.4575,-146.4467"/>
</g>
<!-- Node58&#45;&gt;Node29 -->
<g id="edge100" class="edge">
<title>Node58&#45;&gt;Node29</title>
<path fill="none" stroke="#191970" d="M3084.9649,-251.9223C3108.2429,-244.1064 3137.5338,-230.8766 3156.5674,-210 3189.352,-174.041 3202.3346,-116.0834 3207.0824,-85.8284"/>
<polygon fill="#191970" stroke="#191970" points="3210.5809,-86.0858 3208.523,-75.6928 3203.6506,-85.1008 3210.5809,-86.0858"/>
</g>
<!-- Node58&#45;&gt;Node32 -->
<g id="edge110" class="edge">
<title>Node58&#45;&gt;Node32</title>
<path fill="none" stroke="#191970" d="M3015.7833,-251.8522C2995.6988,-244.057 2971.6071,-230.877 2959.5674,-210 2947.9505,-189.8562 2958.2506,-163.204 2967.8643,-145.7181"/>
<polygon fill="#191970" stroke="#191970" points="2970.9148,-147.4356 2972.9911,-137.0462 2964.8891,-143.8732 2970.9148,-147.4356"/>
</g>
<!-- Node58&#45;&gt;Node59 -->
<g id="edge101" class="edge">
<title>Node58&#45;&gt;Node59</title>
<path fill="none" stroke="#191970" d="M3012.8717,-251.9717C2968.3009,-240.0743 2891.9954,-219.7059 2843.2165,-206.6852"/>
<polygon fill="#191970" stroke="#191970" points="2844.1106,-203.3014 2833.5462,-204.1039 2842.3053,-210.0646 2844.1106,-203.3014"/>
</g>
<!-- Node61 -->
<g id="node62" class="node">
<title>Node61</title>
<g id="a_node62"><a xlink:href="../../db/dba/MatCell_8h.html" target="_top" xlink:title="Declarations for material properties of the cell (voxel) ">
<polygon fill="none" stroke="#000000" points="2968.0674,-185 2968.0674,-204 3105.0674,-204 3105.0674,-185 2968.0674,-185"/>
<text text-anchor="middle" x="3036.5674" y="-192" font-family="Helvetica,sans-Serif" font-size="10.00" fill="#000000">DetectorsBase/MatCell.h</text>
</a>
</g>
</g>
<!-- Node58&#45;&gt;Node61 -->
<g id="edge111" class="edge">
<title>Node58&#45;&gt;Node61</title>
<path fill="none" stroke="#191970" d="M3046.8481,-251.9005C3045.0837,-242.0495 3042.2889,-226.4451 3040.0583,-213.9912"/>
<polygon fill="#191970" stroke="#191970" points="3043.4917,-213.308 3038.2835,-204.0817 3036.6014,-214.5421 3043.4917,-213.308"/>
</g>
<!-- Node59&#45;&gt;Node5 -->
<g id="edge107" class="edge">
<title>Node59&#45;&gt;Node5</title>
<path fill="none" stroke="#191970" d="M2773.0201,-184.99C2765.8834,-182.614 2758.0054,-180.358 2750.5674,-179 2381.2209,-111.5643 2278.9104,-191.2183 1906.5674,-143 1898.9984,-142.0198 1891.0422,-140.6374 1883.3042,-139.0976"/>
<polygon fill="#191970" stroke="#191970" points="1883.8138,-135.6284 1873.3086,-137.0032 1882.3783,-142.4797 1883.8138,-135.6284"/>
</g>
<!-- Node59&#45;&gt;Node11 -->
<g id="edge104" class="edge">
<title>Node59&#45;&gt;Node11</title>
<path fill="none" stroke="#191970" d="M2835.5169,-189.9946C2890.1846,-182.961 2993.9387,-167.5732 3079.5674,-143 3082.0185,-142.2966 3084.5284,-141.4958 3087.0352,-140.6374"/>
<polygon fill="#191970" stroke="#191970" points="3088.3862,-143.8696 3096.5571,-137.1252 3085.9638,-137.3021 3088.3862,-143.8696"/>
</g>
<!-- Node59&#45;&gt;Node19 -->
<g id="edge108" class="edge">
<title>Node59&#45;&gt;Node19</title>
<path fill="none" stroke="#191970" d="M2771.4607,-184.9412C2764.7232,-182.7374 2757.4335,-180.5795 2750.5674,-179 2693.0022,-165.7575 2533.4268,-146.3671 2439.4066,-135.5513"/>
<polygon fill="#191970" stroke="#191970" points="2439.7319,-132.0658 2429.3983,-134.4039 2438.9345,-139.0202 2439.7319,-132.0658"/>
</g>
<!-- Node59&#45;&gt;Node24 -->
<g id="edge105" class="edge">
<title>Node59&#45;&gt;Node24</title>
<path fill="none" stroke="#191970" d="M2773.0413,-184.8698C2765.905,-182.4918 2758.0217,-180.265 2750.5674,-179 2303.3351,-103.1058 1155.4037,-226.7057 709.5674,-143 706.1012,-142.3492 702.5443,-141.4422 699.0377,-140.3902"/>
<polygon fill="#191970" stroke="#191970" points="699.9998,-137.0209 689.4056,-137.1339 697.758,-143.6522 699.9998,-137.0209"/>
</g>
<!-- Node59&#45;&gt;Node29 -->
<g id="edge106" class="edge">
<title>Node59&#45;&gt;Node29</title>
<path fill="none" stroke="#191970" d="M2835.1946,-192.3C2885.5473,-188.1384 2976.6103,-176.2875 3046.5674,-143 3066.2488,-133.635 3065.6358,-122.8008 3084.5674,-112 3109.6348,-97.6987 3139.9698,-86.4086 3164.4785,-78.5929"/>
<polygon fill="#191970" stroke="#191970" points="3165.7344,-81.8678 3174.2479,-75.5614 3163.6598,-75.1823 3165.7344,-81.8678"/>
</g>
<!-- Node59&#45;&gt;Node35 -->
<g id="edge103" class="edge">
<title>Node59&#45;&gt;Node35</title>
<path fill="none" stroke="#191970" d="M2773.0407,-184.8732C2765.9044,-182.4953 2758.0213,-180.2676 2750.5674,-179 2320.6663,-105.8899 1216.802,-225.3108 788.5674,-143 785.2793,-142.368 781.9103,-141.4954 778.5853,-140.4835"/>
<polygon fill="#191970" stroke="#191970" points="779.4623,-137.0837 768.8675,-137.1315 777.1797,-143.701 779.4623,-137.0837"/>
</g>
<!-- Node60 -->
<g id="node61" class="node">
<title>Node60</title>
<polygon fill="none" stroke="#bfbfbf" points="2812.0674,-118 2812.0674,-137 2865.0674,-137 2865.0674,-118 2812.0674,-118"/>
<text text-anchor="middle" x="2838.5674" y="-125" font-family="Helvetica,sans-Serif" font-size="10.00" fill="#000000">cstddef</text>
</g>
<!-- Node59&#45;&gt;Node60 -->
<g id="edge102" class="edge">
<title>Node59&#45;&gt;Node60</title>
<path fill="none" stroke="#191970" d="M2803.4417,-184.9005C2809.6526,-174.751 2819.6008,-158.4941 2827.3273,-145.8679"/>
<polygon fill="#191970" stroke="#191970" points="2830.4696,-147.4382 2832.704,-137.0817 2824.4989,-143.7844 2830.4696,-147.4382"/>
</g>
<!-- Node61&#45;&gt;Node5 -->
<g id="edge113" class="edge">
<title>Node61&#45;&gt;Node5</title>
<path fill="none" stroke="#191970" d="M2967.7464,-188.2368C2931.1819,-185.0881 2885.4611,-181.4343 2844.5674,-179 2428.1088,-154.2092 2320.4217,-195.6964 1906.5674,-143 1898.9964,-142.036 1891.039,-140.6621 1883.3006,-139.1258"/>
<polygon fill="#191970" stroke="#191970" points="1883.8096,-135.6566 1873.3047,-137.0336 1882.3755,-142.5081 1883.8096,-135.6566"/>
</g>
<!-- Node61&#45;&gt;Node29 -->
<g id="edge112" class="edge">
<title>Node61&#45;&gt;Node29</title>
<path fill="none" stroke="#191970" d="M3069.5326,-184.9483C3094.2012,-176.6592 3127.8096,-162.8448 3152.5674,-143 3172.8542,-126.7389 3189.619,-101.6261 3199.5987,-84.535"/>
<polygon fill="#191970" stroke="#191970" points="3202.8139,-85.9582 3204.666,-75.5265 3196.7128,-82.5264 3202.8139,-85.9582"/>
</g>
<!-- Node62&#45;&gt;Node5 -->
<g id="edge115" class="edge">
<title>Node62&#45;&gt;Node5</title>
<path fill="none" stroke="#191970" d="M2796.7326,-324.8033C2713.5595,-318.8179 2557.1734,-304.7657 2426.5674,-277 2327.8369,-256.0108 2298.5377,-257.6711 2209.5674,-210 2190.3555,-199.7061 2191.5598,-187.6812 2171.5674,-179 2062.5426,-131.6587 2023.612,-163.6921 1906.5674,-143 1900.2078,-141.8757 1893.5528,-140.5813 1886.9748,-139.2298"/>
<polygon fill="#191970" stroke="#191970" points="1887.2618,-135.7135 1876.7549,-137.0752 1885.8178,-142.5629 1887.2618,-135.7135"/>
</g>
<!-- Node62&#45;&gt;Node28 -->
<g id="edge119" class="edge">
<title>Node62&#45;&gt;Node28</title>
<path fill="none" stroke="#191970" d="M2843.8448,-318.8631C2816.1197,-296.0706 2746.2809,-238.6572 2712.0672,-210.5306"/>
<polygon fill="#191970" stroke="#191970" points="2714.1312,-207.6964 2704.1837,-204.0496 2709.6858,-213.1038 2714.1312,-207.6964"/>
</g>
<!-- Node62&#45;&gt;Node29 -->
<g id="edge116" class="edge">
<title>Node62&#45;&gt;Node29</title>
<path fill="none" stroke="#191970" d="M2914.2444,-323.41C2986.1367,-316.2293 3102.8042,-301.2278 3138.5674,-277 3194.5406,-239.0808 3196.441,-209.1159 3210.5674,-143 3214.6584,-123.8526 3213.7413,-101.4125 3212.2074,-85.7137"/>
<polygon fill="#191970" stroke="#191970" points="3215.6658,-85.1511 3211.0441,-75.6174 3208.7118,-85.9523 3215.6658,-85.1511"/>
</g>
<!-- Node62&#45;&gt;Node32 -->
<g id="edge117" class="edge">
<title>Node62&#45;&gt;Node32</title>
<path fill="none" stroke="#191970" d="M2861.5481,-318.8054C2881.0268,-287.231 2942.8554,-187.0088 2968.3799,-145.6345"/>
<polygon fill="#191970" stroke="#191970" points="2971.3749,-147.4458 2973.6466,-137.0974 2965.4174,-143.7705 2971.3749,-147.4458"/>
</g>
<!-- Node62&#45;&gt;Node40 -->
<g id="edge120" class="edge">
<title>Node62&#45;&gt;Node40</title>
<path fill="none" stroke="#191970" d="M2796.9334,-319.2041C2780.0682,-316.8315 2761.6223,-314.5238 2744.5674,-313 2504.2987,-291.5333 1761.5108,-270.1461 1518.4378,-263.5589"/>
<polygon fill="#191970" stroke="#191970" points="1518.3668,-260.0558 1508.2759,-263.2842 1518.1776,-267.0532 1518.3668,-260.0558"/>
</g>
<!-- Node62&#45;&gt;Node58 -->
<g id="edge118" class="edge">
<title>Node62&#45;&gt;Node58</title>
<path fill="none" stroke="#191970" d="M2883.2196,-318.9005C2916.8992,-307.2086 2973.9248,-287.4122 3011.4146,-274.3976"/>
<polygon fill="#191970" stroke="#191970" points="3012.6674,-277.6677 3020.9665,-271.0817 3010.3717,-271.0548 3012.6674,-277.6677"/>
</g>
</g>
</svg>
