<?xml version="1.0" encoding="UTF-8" standalone="no"?>
<!DOCTYPE svg PUBLIC "-//W3C//DTD SVG 1.1//EN"
 "http://www.w3.org/Graphics/SVG/1.1/DTD/svg11.dtd">
<!-- Generated by graphviz version 2.40.1 (20161225.0304)
 -->
<!-- Title: /home/travis/build/AliceO2Group/AliceO2/Detectors/MUON/MCH/Simulation/include/MCHSimulation/Detector.h Pages: 1 -->
<svg width="2568pt" height="374pt"
 viewBox="0.00 0.00 2568.00 374.00" xmlns="http://www.w3.org/2000/svg" xmlns:xlink="http://www.w3.org/1999/xlink">
<g id="graph0" class="graph" transform="scale(1 1) rotate(0) translate(4 370)">
<title>/home/travis/build/AliceO2Group/AliceO2/Detectors/MUON/MCH/Simulation/include/MCHSimulation/Detector.h</title>
<!-- Node0 -->
<g id="node1" class="node">
<title>Node0</title>
<polygon fill="#bfbfbf" stroke="#000000" points="328.5,-313.5 328.5,-365.5 514.5,-365.5 514.5,-313.5 328.5,-313.5"/>
<text text-anchor="start" x="336.5" y="-353.5" font-family="Helvetica,sans-Serif" font-size="10.00" fill="#000000">/home/travis/build</text>
<text text-anchor="start" x="336.5" y="-342.5" font-family="Helvetica,sans-Serif" font-size="10.00" fill="#000000">/AliceO2Group/AliceO2</text>
<text text-anchor="start" x="336.5" y="-331.5" font-family="Helvetica,sans-Serif" font-size="10.00" fill="#000000">/Detectors/MUON/MCH/Simulation</text>
<text text-anchor="middle" x="421.5" y="-320.5" font-family="Helvetica,sans-Serif" font-size="10.00" fill="#000000">/include/MCHSimulation/Detector.h</text>
</g>
<!-- Node1 -->
<g id="node2" class="node">
<title>Node1</title>
<g id="a_node2"><a xlink:href="../../d1/d3a/Base_2include_2DetectorsBase_2Detector_8h.html" target="_top" xlink:title="DetectorsBase/Detector.h">
<polygon fill="none" stroke="#000000" points="460,-257.5 460,-276.5 601,-276.5 601,-257.5 460,-257.5"/>
<text text-anchor="middle" x="530.5" y="-264.5" font-family="Helvetica,sans-Serif" font-size="10.00" fill="#000000">DetectorsBase/Detector.h</text>
</a>
</g>
</g>
<!-- Node0&#45;&gt;Node1 -->
<g id="edge1" class="edge">
<title>Node0&#45;&gt;Node1</title>
<path fill="none" stroke="#191970" d="M460.8515,-313.3258C476.5081,-302.912 493.9765,-291.2931 507.5025,-282.2965"/>
<polygon fill="#191970" stroke="#191970" points="509.7781,-284.9865 516.1661,-276.534 505.9014,-279.158 509.7781,-284.9865"/>
</g>
<!-- Node3 -->
<g id="node4" class="node">
<title>Node3</title>
<polygon fill="none" stroke="#bfbfbf" points="0,-196 0,-215 47,-215 47,-196 0,-196"/>
<text text-anchor="middle" x="23.5" y="-203" font-family="Helvetica,sans-Serif" font-size="10.00" fill="#000000">vector</text>
</g>
<!-- Node0&#45;&gt;Node3 -->
<g id="edge47" class="edge">
<title>Node0&#45;&gt;Node3</title>
<path fill="none" stroke="#191970" d="M329.931,-313.461C255.3782,-291.3843 147.8991,-257.5517 56.5,-221 55.1042,-220.4418 53.6833,-219.8538 52.2541,-219.2462"/>
<polygon fill="#191970" stroke="#191970" points="53.4353,-215.9408 42.8769,-215.0636 50.5838,-222.3336 53.4353,-215.9408"/>
</g>
<!-- Node5 -->
<g id="node6" class="node">
<title>Node5</title>
<polygon fill="none" stroke="#bfbfbf" points="65.5,-196 65.5,-215 123.5,-215 123.5,-196 65.5,-196"/>
<text text-anchor="middle" x="94.5" y="-203" font-family="Helvetica,sans-Serif" font-size="10.00" fill="#000000">memory</text>
</g>
<!-- Node0&#45;&gt;Node5 -->
<g id="edge48" class="edge">
<title>Node0&#45;&gt;Node5</title>
<path fill="none" stroke="#191970" d="M357.6748,-313.3453C288.5599,-285.023 181.0183,-240.954 127.3241,-218.9509"/>
<polygon fill="#191970" stroke="#191970" points="128.5266,-215.6612 117.9463,-215.1079 125.8723,-222.1385 128.5266,-215.6612"/>
</g>
<!-- Node27 -->
<g id="node28" class="node">
<title>Node27</title>
<g id="a_node28"><a xlink:href="../../d5/daf/Detectors_2MUON_2MCH_2Simulation_2include_2MCHSimulation_2Hit_8h.html" target="_top" xlink:title="MCHSimulation/Hit.h">
<polygon fill="none" stroke="#000000" points="1292.5,-257.5 1292.5,-276.5 1410.5,-276.5 1410.5,-257.5 1292.5,-257.5"/>
<text text-anchor="middle" x="1351.5" y="-264.5" font-family="Helvetica,sans-Serif" font-size="10.00" fill="#000000">MCHSimulation/Hit.h</text>
</a>
</g>
</g>
<!-- Node0&#45;&gt;Node27 -->
<g id="edge32" class="edge">
<title>Node0&#45;&gt;Node27</title>
<path fill="none" stroke="#191970" d="M514.5006,-332.25C701.1593,-317.6986 1117.6367,-285.2313 1282.4459,-272.3833"/>
<polygon fill="#191970" stroke="#191970" points="1282.7647,-275.8691 1292.4624,-271.6024 1282.2206,-268.8903 1282.7647,-275.8691"/>
</g>
<!-- Node2 -->
<g id="node3" class="node">
<title>Node2</title>
<polygon fill="none" stroke="#bfbfbf" points="406.5,-134.5 406.5,-153.5 444.5,-153.5 444.5,-134.5 406.5,-134.5"/>
<text text-anchor="middle" x="425.5" y="-141.5" font-family="Helvetica,sans-Serif" font-size="10.00" fill="#000000">map</text>
</g>
<!-- Node1&#45;&gt;Node2 -->
<g id="edge2" class="edge">
<title>Node1&#45;&gt;Node2</title>
<path fill="none" stroke="#191970" d="M499.6043,-257.3508C481.3294,-250.1219 459.1573,-238.4368 445.5,-221 432.6294,-204.5676 427.9849,-180.7025 426.3394,-163.9067"/>
<polygon fill="#191970" stroke="#191970" points="429.8067,-163.317 425.6152,-153.5865 422.8239,-163.8071 429.8067,-163.317"/>
</g>
<!-- Node1&#45;&gt;Node3 -->
<g id="edge3" class="edge">
<title>Node1&#45;&gt;Node3</title>
<path fill="none" stroke="#191970" d="M459.7368,-263.1016C346.6886,-256.3746 130.5478,-241.3282 56.5,-221 54.5315,-220.4596 52.5353,-219.8094 50.5495,-219.0855"/>
<polygon fill="#191970" stroke="#191970" points="51.46,-215.6716 40.8851,-215.0211 48.7463,-222.1242 51.46,-215.6716"/>
</g>
<!-- Node4 -->
<g id="node5" class="node">
<title>Node4</title>
<polygon fill="none" stroke="#bfbfbf" points="590,-134.5 590,-153.5 673,-153.5 673,-134.5 590,-134.5"/>
<text text-anchor="middle" x="631.5" y="-141.5" font-family="Helvetica,sans-Serif" font-size="10.00" fill="#000000">initializer_list</text>
</g>
<!-- Node1&#45;&gt;Node4 -->
<g id="edge4" class="edge">
<title>Node1&#45;&gt;Node4</title>
<path fill="none" stroke="#191970" d="M501.6892,-257.4613C484.981,-250.274 465.3485,-238.5938 455.5,-221 448.7702,-208.9776 447.079,-200.9048 455.5,-190 470.6959,-170.322 533.7738,-157.4491 580.088,-150.454"/>
<polygon fill="#191970" stroke="#191970" points="580.5972,-153.9169 589.9867,-149.0088 579.5859,-146.9903 580.5972,-153.9169"/>
</g>
<!-- Node1&#45;&gt;Node5 -->
<g id="edge5" class="edge">
<title>Node1&#45;&gt;Node5</title>
<path fill="none" stroke="#191970" d="M459.934,-264.4139C379.7637,-260.1944 245.5244,-249.2259 133.5,-221 130.7181,-220.2991 127.8693,-219.4471 125.0401,-218.5071"/>
<polygon fill="#191970" stroke="#191970" points="126.2154,-215.2102 115.6215,-215.0637 123.8117,-221.7846 126.2154,-215.2102"/>
</g>
<!-- Node6 -->
<g id="node7" class="node">
<title>Node6</title>
<polygon fill="none" stroke="#bfbfbf" points="655.5,-196 655.5,-215 739.5,-215 739.5,-196 655.5,-196"/>
<text text-anchor="middle" x="697.5" y="-203" font-family="Helvetica,sans-Serif" font-size="10.00" fill="#000000">FairDetector.h</text>
</g>
<!-- Node1&#45;&gt;Node6 -->
<g id="edge6" class="edge">
<title>Node1&#45;&gt;Node6</title>
<path fill="none" stroke="#191970" d="M556.5938,-257.3906C584.9036,-246.9652 630.2768,-230.2559 661.8592,-218.6252"/>
<polygon fill="#191970" stroke="#191970" points="663.4151,-221.7821 671.5895,-215.0419 660.996,-215.2133 663.4151,-221.7821"/>
</g>
<!-- Node7 -->
<g id="node8" class="node">
<title>Node7</title>
<polygon fill="none" stroke="#bfbfbf" points="757.5,-196 757.5,-215 863.5,-215 863.5,-196 757.5,-196"/>
<text text-anchor="middle" x="810.5" y="-203" font-family="Helvetica,sans-Serif" font-size="10.00" fill="#000000">FairRootManager.h</text>
</g>
<!-- Node1&#45;&gt;Node7 -->
<g id="edge7" class="edge">
<title>Node1&#45;&gt;Node7</title>
<path fill="none" stroke="#191970" d="M578.2413,-257.4558C622.4826,-248.4857 690.076,-234.4621 748.5,-221 753.2505,-219.9054 758.1966,-218.7299 763.1313,-217.5336"/>
<polygon fill="#191970" stroke="#191970" points="764.3006,-220.8506 773.1782,-215.068 762.6321,-214.0523 764.3006,-220.8506"/>
</g>
<!-- Node8 -->
<g id="node9" class="node">
<title>Node8</title>
<g id="a_node9"><a xlink:href="../../d0/d9a/MaterialManager_8h.html" target="_top" xlink:title="DetectorsBase/MaterialManager.h">
<polygon fill="none" stroke="#000000" points="882,-196 882,-215 1063,-215 1063,-196 882,-196"/>
<text text-anchor="middle" x="972.5" y="-203" font-family="Helvetica,sans-Serif" font-size="10.00" fill="#000000">DetectorsBase/MaterialManager.h</text>
</a>
</g>
</g>
<!-- Node1&#45;&gt;Node8 -->
<g id="edge8" class="edge">
<title>Node1&#45;&gt;Node8</title>
<path fill="none" stroke="#191970" d="M601.298,-257.8989C670.5006,-248.9035 778.8189,-234.5591 872.5,-221 882.1499,-219.6033 892.3158,-218.0837 902.3203,-216.5601"/>
<polygon fill="#191970" stroke="#191970" points="902.8913,-220.0136 912.246,-215.0396 901.8313,-213.0943 902.8913,-220.0136"/>
</g>
<!-- Node9 -->
<g id="node10" class="node">
<title>Node9</title>
<polygon fill="none" stroke="#bfbfbf" points="1110,-73 1110,-92 1169,-92 1169,-73 1110,-73"/>
<text text-anchor="middle" x="1139.5" y="-80" font-family="Helvetica,sans-Serif" font-size="10.00" fill="#000000">Rtypes.h</text>
</g>
<!-- Node1&#45;&gt;Node9 -->
<g id="edge14" class="edge">
<title>Node1&#45;&gt;Node9</title>
<path fill="none" stroke="#191970" d="M601.2138,-264.8902C773.6799,-259.4018 1203.4208,-243.5226 1224.5,-221 1260.755,-182.2624 1197.8712,-125.6959 1161.9416,-98.4008"/>
<polygon fill="#191970" stroke="#191970" points="1163.5831,-95.2611 1153.4644,-92.1207 1159.4162,-100.8858 1163.5831,-95.2611"/>
</g>
<!-- Node12 -->
<g id="node13" class="node">
<title>Node12</title>
<polygon fill="none" stroke="#bfbfbf" points="1081.5,-196 1081.5,-215 1139.5,-215 1139.5,-196 1081.5,-196"/>
<text text-anchor="middle" x="1110.5" y="-203" font-family="Helvetica,sans-Serif" font-size="10.00" fill="#000000">cxxabi.h</text>
</g>
<!-- Node1&#45;&gt;Node12 -->
<g id="edge15" class="edge">
<title>Node1&#45;&gt;Node12</title>
<path fill="none" stroke="#191970" d="M601.1167,-263.6622C726.9408,-257.2736 984.9283,-242.0576 1072.5,-221 1075.2926,-220.3285 1078.148,-219.4841 1080.9772,-218.5379"/>
<polygon fill="#191970" stroke="#191970" points="1082.2217,-221.8093 1090.3656,-215.0323 1079.773,-215.2516 1082.2217,-221.8093"/>
</g>
<!-- Node13 -->
<g id="node14" class="node">
<title>Node13</title>
<polygon fill="none" stroke="#bfbfbf" points="1158,-196 1158,-215 1215,-215 1215,-196 1158,-196"/>
<text text-anchor="middle" x="1186.5" y="-203" font-family="Helvetica,sans-Serif" font-size="10.00" fill="#000000">typeinfo</text>
</g>
<!-- Node1&#45;&gt;Node13 -->
<g id="edge16" class="edge">
<title>Node1&#45;&gt;Node13</title>
<path fill="none" stroke="#191970" d="M601.1141,-264.5172C740.4789,-259.1616 1046.2517,-245.0265 1148.5,-221 1151.2961,-220.343 1154.1538,-219.5085 1156.9845,-218.5688"/>
<polygon fill="#191970" stroke="#191970" points="1158.2245,-221.8419 1166.3753,-215.0732 1155.7825,-215.2817 1158.2245,-221.8419"/>
</g>
<!-- Node14 -->
<g id="node15" class="node">
<title>Node14</title>
<polygon fill="none" stroke="#bfbfbf" points="142,-196 142,-215 211,-215 211,-196 142,-196"/>
<text text-anchor="middle" x="176.5" y="-203" font-family="Helvetica,sans-Serif" font-size="10.00" fill="#000000">type_traits</text>
</g>
<!-- Node1&#45;&gt;Node14 -->
<g id="edge17" class="edge">
<title>Node1&#45;&gt;Node14</title>
<path fill="none" stroke="#191970" d="M459.8825,-260.4137C396.5585,-253.5901 301.4316,-241.0633 220.5,-221 217.277,-220.201 213.9577,-219.2603 210.6557,-218.2439"/>
<polygon fill="#191970" stroke="#191970" points="211.5081,-214.8397 200.9151,-215.0332 209.3167,-221.4879 211.5081,-214.8397"/>
</g>
<!-- Node15 -->
<g id="node16" class="node">
<title>Node15</title>
<polygon fill="none" stroke="#bfbfbf" points="229.5,-196 229.5,-215 273.5,-215 273.5,-196 229.5,-196"/>
<text text-anchor="middle" x="251.5" y="-203" font-family="Helvetica,sans-Serif" font-size="10.00" fill="#000000">string</text>
</g>
<!-- Node1&#45;&gt;Node15 -->
<g id="edge18" class="edge">
<title>Node1&#45;&gt;Node15</title>
<path fill="none" stroke="#191970" d="M459.9593,-259.2664C409.5916,-252.4625 340.7292,-240.5245 282.5,-221 280.8919,-220.4608 279.2621,-219.8524 277.6348,-219.1966"/>
<polygon fill="#191970" stroke="#191970" points="279.0663,-216.0028 268.5122,-215.0739 276.1835,-222.3816 279.0663,-216.0028"/>
</g>
<!-- Node16 -->
<g id="node17" class="node">
<title>Node16</title>
<polygon fill="none" stroke="#bfbfbf" points="291.5,-196 291.5,-215 365.5,-215 365.5,-196 291.5,-196"/>
<text text-anchor="middle" x="328.5" y="-203" font-family="Helvetica,sans-Serif" font-size="10.00" fill="#000000">TMessage.h</text>
</g>
<!-- Node1&#45;&gt;Node16 -->
<g id="edge19" class="edge">
<title>Node1&#45;&gt;Node16</title>
<path fill="none" stroke="#191970" d="M498.9375,-257.3906C464.1015,-246.7846 407.905,-229.6753 369.6412,-218.0257"/>
<polygon fill="#191970" stroke="#191970" points="370.4267,-214.6063 359.8409,-215.0419 368.3879,-221.3028 370.4267,-214.6063"/>
</g>
<!-- Node17 -->
<g id="node18" class="node">
<title>Node17</title>
<g id="a_node18"><a xlink:href="../../de/d61/ShmManager_8h.html" target="_top" xlink:title="CommonUtils/ShmManager.h">
<polygon fill="none" stroke="#000000" points="754.5,-134.5 754.5,-153.5 912.5,-153.5 912.5,-134.5 754.5,-134.5"/>
<text text-anchor="middle" x="833.5" y="-141.5" font-family="Helvetica,sans-Serif" font-size="10.00" fill="#000000">CommonUtils/ShmManager.h</text>
</a>
</g>
</g>
<!-- Node1&#45;&gt;Node17 -->
<g id="edge20" class="edge">
<title>Node1&#45;&gt;Node17</title>
<path fill="none" stroke="#191970" d="M518.318,-257.4079C500.1406,-241.9686 469.9433,-211.1952 488.5,-190 505.1749,-170.9542 647.8392,-157.1328 744.4107,-149.8567"/>
<polygon fill="#191970" stroke="#191970" points="744.7693,-153.3398 754.4827,-149.1089 744.2509,-146.359 744.7693,-153.3398"/>
</g>
<!-- Node23 -->
<g id="node24" class="node">
<title>Node23</title>
<g id="a_node24"><a xlink:href="../../d0/d91/ShmAllocator_8h.html" target="_top" xlink:title="CommonUtils/ShmAllocator.h">
<polygon fill="none" stroke="#000000" points="1271.5,-196 1271.5,-215 1431.5,-215 1431.5,-196 1271.5,-196"/>
<text text-anchor="middle" x="1351.5" y="-203" font-family="Helvetica,sans-Serif" font-size="10.00" fill="#000000">CommonUtils/ShmAllocator.h</text>
</a>
</g>
</g>
<!-- Node1&#45;&gt;Node23 -->
<g id="edge26" class="edge">
<title>Node1&#45;&gt;Node23</title>
<path fill="none" stroke="#191970" d="M601.1426,-264.8827C731.309,-260.4591 1017.6527,-248.2931 1257.5,-221 1267.8366,-219.8238 1278.7683,-218.2898 1289.3788,-216.645"/>
<polygon fill="#191970" stroke="#191970" points="1290.0999,-220.0743 1299.4233,-215.042 1288.9967,-213.1617 1290.0999,-220.0743"/>
</g>
<!-- Node24 -->
<g id="node25" class="node">
<title>Node24</title>
<polygon fill="none" stroke="#bfbfbf" points="1379.5,-134.5 1379.5,-153.5 1431.5,-153.5 1431.5,-134.5 1379.5,-134.5"/>
<text text-anchor="middle" x="1405.5" y="-141.5" font-family="Helvetica,sans-Serif" font-size="10.00" fill="#000000">cassert</text>
</g>
<!-- Node1&#45;&gt;Node24 -->
<g id="edge31" class="edge">
<title>Node1&#45;&gt;Node24</title>
<path fill="none" stroke="#191970" d="M601.1889,-266.0553C810.0642,-262.9212 1411.7013,-251.2912 1440.5,-221 1456.6727,-203.9891 1439.0041,-178.2016 1423.4494,-161.2295"/>
<polygon fill="#191970" stroke="#191970" points="1425.6119,-158.4315 1416.1408,-153.683 1420.5835,-163.3014 1425.6119,-158.4315"/>
</g>
<!-- Node25 -->
<g id="node26" class="node">
<title>Node25</title>
<polygon fill="none" stroke="#bfbfbf" points="497.5,-196 497.5,-215 563.5,-215 563.5,-196 497.5,-196"/>
<text text-anchor="middle" x="530.5" y="-203" font-family="Helvetica,sans-Serif" font-size="10.00" fill="#000000">sys/shm.h</text>
</g>
<!-- Node1&#45;&gt;Node25 -->
<g id="edge29" class="edge">
<title>Node1&#45;&gt;Node25</title>
<path fill="none" stroke="#191970" d="M530.5,-257.3906C530.5,-248.8657 530.5,-236.1392 530.5,-225.4235"/>
<polygon fill="#191970" stroke="#191970" points="534.0001,-225.2448 530.5,-215.2449 527.0001,-225.2449 534.0001,-225.2448"/>
</g>
<!-- Node26 -->
<g id="node27" class="node">
<title>Node26</title>
<polygon fill="none" stroke="#bfbfbf" points="581.5,-196 581.5,-215 637.5,-215 637.5,-196 581.5,-196"/>
<text text-anchor="middle" x="609.5" y="-203" font-family="Helvetica,sans-Serif" font-size="10.00" fill="#000000">unistd.h</text>
</g>
<!-- Node1&#45;&gt;Node26 -->
<g id="edge30" class="edge">
<title>Node1&#45;&gt;Node26</title>
<path fill="none" stroke="#191970" d="M542.8438,-257.3906C555.2503,-247.7324 574.5843,-232.6812 589.2413,-221.271"/>
<polygon fill="#191970" stroke="#191970" points="591.5021,-223.9466 597.2429,-215.0419 587.2021,-218.423 591.5021,-223.9466"/>
</g>
<!-- Node8&#45;&gt;Node2 -->
<g id="edge10" class="edge">
<title>Node8&#45;&gt;Node2</title>
<path fill="none" stroke="#191970" d="M914.4053,-195.9802C900.6834,-193.8745 886.091,-191.7514 872.5,-190 715.3722,-169.7512 526.25,-152.6814 454.7683,-146.4889"/>
<polygon fill="#191970" stroke="#191970" points="454.9737,-142.9938 444.7102,-145.6223 454.3728,-149.9679 454.9737,-142.9938"/>
</g>
<!-- Node8&#45;&gt;Node4 -->
<g id="edge12" class="edge">
<title>Node8&#45;&gt;Node4</title>
<path fill="none" stroke="#191970" d="M919.5929,-195.9581C855.1344,-184.3329 746.9562,-164.8228 683.097,-153.3056"/>
<polygon fill="#191970" stroke="#191970" points="683.7044,-149.8588 673.242,-151.5282 682.4619,-156.7476 683.7044,-149.8588"/>
</g>
<!-- Node8&#45;&gt;Node9 -->
<g id="edge9" class="edge">
<title>Node8&#45;&gt;Node9</title>
<path fill="none" stroke="#191970" d="M972.5063,-195.8195C973.0423,-180.6684 976.2767,-151.3003 992.5,-134 1020.3742,-104.2754 1066.3675,-91.7004 1099.4905,-86.3846"/>
<polygon fill="#191970" stroke="#191970" points="1100.3568,-89.7958 1109.7532,-84.9012 1099.3553,-82.8678 1100.3568,-89.7958"/>
</g>
<!-- Node10 -->
<g id="node11" class="node">
<title>Node10</title>
<polygon fill="none" stroke="#bfbfbf" points="1001,-134.5 1001,-153.5 1094,-153.5 1094,-134.5 1001,-134.5"/>
<text text-anchor="middle" x="1047.5" y="-141.5" font-family="Helvetica,sans-Serif" font-size="10.00" fill="#000000">unordered_map</text>
</g>
<!-- Node8&#45;&gt;Node10 -->
<g id="edge11" class="edge">
<title>Node8&#45;&gt;Node10</title>
<path fill="none" stroke="#191970" d="M984.2188,-195.8906C995.8188,-186.3786 1013.7979,-171.6357 1027.6321,-160.2917"/>
<polygon fill="#191970" stroke="#191970" points="1030.1026,-162.7921 1035.616,-153.7449 1025.664,-157.3792 1030.1026,-162.7921"/>
</g>
<!-- Node11 -->
<g id="node12" class="node">
<title>Node11</title>
<polygon fill="none" stroke="#bfbfbf" points="1187,-73 1187,-92 1236,-92 1236,-73 1187,-73"/>
<text text-anchor="middle" x="1211.5" y="-80" font-family="Helvetica,sans-Serif" font-size="10.00" fill="#000000">iosfwd</text>
</g>
<!-- Node8&#45;&gt;Node11 -->
<g id="edge13" class="edge">
<title>Node8&#45;&gt;Node11</title>
<path fill="none" stroke="#191970" d="M1001.8913,-195.9394C1028.9614,-186.6727 1069.8968,-171.4805 1103.5,-154 1135.2686,-137.4738 1169.3055,-113.8401 1190.4951,-98.3367"/>
<polygon fill="#191970" stroke="#191970" points="1192.7869,-100.995 1198.7457,-92.2347 1188.6245,-95.367 1192.7869,-100.995"/>
</g>
<!-- Node18 -->
<g id="node19" class="node">
<title>Node18</title>
<polygon fill="none" stroke="#bfbfbf" points="918.5,-73 918.5,-92 950.5,-92 950.5,-73 918.5,-73"/>
<text text-anchor="middle" x="934.5" y="-80" font-family="Helvetica,sans-Serif" font-size="10.00" fill="#000000">list</text>
</g>
<!-- Node17&#45;&gt;Node18 -->
<g id="edge21" class="edge">
<title>Node17&#45;&gt;Node18</title>
<path fill="none" stroke="#191970" d="M849.5432,-134.3577C864.9456,-125.0844 888.8522,-110.649 909.5,-98 909.7939,-97.8199 910.0898,-97.6386 910.3871,-97.4561"/>
<polygon fill="#191970" stroke="#191970" points="912.5045,-100.2625 919.1794,-92.0347 908.8305,-94.3041 912.5045,-100.2625"/>
</g>
<!-- Node19 -->
<g id="node20" class="node">
<title>Node19</title>
<polygon fill="none" stroke="#bfbfbf" points="969,-73 969,-92 1022,-92 1022,-73 969,-73"/>
<text text-anchor="middle" x="995.5" y="-80" font-family="Helvetica,sans-Serif" font-size="10.00" fill="#000000">cstddef</text>
</g>
<!-- Node17&#45;&gt;Node19 -->
<g id="edge22" class="edge">
<title>Node17&#45;&gt;Node19</title>
<path fill="none" stroke="#191970" d="M861.1987,-134.3948C886.8419,-125.3827 925.9571,-111.3316 959.5,-98 961.1086,-97.3607 962.7529,-96.6954 964.41,-96.0156"/>
<polygon fill="#191970" stroke="#191970" points="966.0126,-99.1388 973.8805,-92.0433 963.3051,-92.6837 966.0126,-99.1388"/>
</g>
<!-- Node20 -->
<g id="node21" class="node">
<title>Node20</title>
<polygon fill="none" stroke="#bfbfbf" points="514.5,-73 514.5,-92 564.5,-92 564.5,-73 514.5,-73"/>
<text text-anchor="middle" x="539.5" y="-80" font-family="Helvetica,sans-Serif" font-size="10.00" fill="#000000">atomic</text>
</g>
<!-- Node17&#45;&gt;Node20 -->
<g id="edge23" class="edge">
<title>Node17&#45;&gt;Node20</title>
<path fill="none" stroke="#191970" d="M754.42,-134.9908C702.5217,-127.8551 633.575,-116.0371 574.5,-98 572.3827,-97.3535 570.2237,-96.6128 568.0699,-95.8134"/>
<polygon fill="#191970" stroke="#191970" points="569.3859,-92.5703 558.8042,-92.0424 566.7471,-99.0539 569.3859,-92.5703"/>
</g>
<!-- Node21 -->
<g id="node22" class="node">
<title>Node21</title>
<polygon fill="none" stroke="#bfbfbf" points="583,-67.5 583,-97.5 748,-97.5 748,-67.5 583,-67.5"/>
<text text-anchor="start" x="591" y="-85.5" font-family="Helvetica,sans-Serif" font-size="10.00" fill="#000000">boost/interprocess</text>
<text text-anchor="middle" x="665.5" y="-74.5" font-family="Helvetica,sans-Serif" font-size="10.00" fill="#000000">/managed_external_buffer.hpp</text>
</g>
<!-- Node17&#45;&gt;Node21 -->
<g id="edge24" class="edge">
<title>Node17&#45;&gt;Node21</title>
<path fill="none" stroke="#191970" d="M807.25,-134.3906C782.9343,-125.4893 746.1053,-112.0073 716.0817,-101.0165"/>
<polygon fill="#191970" stroke="#191970" points="717.1912,-97.6956 706.5974,-97.5446 714.7848,-104.269 717.1912,-97.6956"/>
</g>
<!-- Node22 -->
<g id="node23" class="node">
<title>Node22</title>
<polygon fill="none" stroke="#bfbfbf" points="766.5,-67.5 766.5,-97.5 900.5,-97.5 900.5,-67.5 766.5,-67.5"/>
<text text-anchor="start" x="774.5" y="-85.5" font-family="Helvetica,sans-Serif" font-size="10.00" fill="#000000">boost/interprocess</text>
<text text-anchor="middle" x="833.5" y="-74.5" font-family="Helvetica,sans-Serif" font-size="10.00" fill="#000000">/allocators/allocator.hpp</text>
</g>
<!-- Node17&#45;&gt;Node22 -->
<g id="edge25" class="edge">
<title>Node17&#45;&gt;Node22</title>
<path fill="none" stroke="#191970" d="M833.5,-134.3906C833.5,-127.2234 833.5,-117.0862 833.5,-107.671"/>
<polygon fill="#191970" stroke="#191970" points="837.0001,-107.5446 833.5,-97.5446 830.0001,-107.5446 837.0001,-107.5446"/>
</g>
<!-- Node23&#45;&gt;Node17 -->
<g id="edge27" class="edge">
<title>Node23&#45;&gt;Node17</title>
<path fill="none" stroke="#191970" d="M1273.9344,-195.9791C1257.6083,-193.9903 1240.4894,-191.9163 1224.5,-190 1120.8586,-177.5789 1001.7243,-163.6072 922.4657,-154.3552"/>
<polygon fill="#191970" stroke="#191970" points="922.8576,-150.8773 912.5192,-153.1945 922.0461,-157.8301 922.8576,-150.8773"/>
</g>
<!-- Node23&#45;&gt;Node24 -->
<g id="edge28" class="edge">
<title>Node23&#45;&gt;Node24</title>
<path fill="none" stroke="#191970" d="M1359.9375,-195.8906C1368.0531,-186.6478 1380.5055,-172.466 1390.3424,-161.2628"/>
<polygon fill="#191970" stroke="#191970" points="1392.9755,-163.5686 1396.9435,-153.7449 1387.7154,-158.95 1392.9755,-163.5686"/>
</g>
<!-- Node27&#45;&gt;Node23 -->
<g id="edge46" class="edge">
<title>Node27&#45;&gt;Node23</title>
<path fill="none" stroke="#191970" d="M1351.5,-257.3906C1351.5,-248.8657 1351.5,-236.1392 1351.5,-225.4235"/>
<polygon fill="#191970" stroke="#191970" points="1355.0001,-225.2448 1351.5,-215.2449 1348.0001,-225.2449 1355.0001,-225.2448"/>
</g>
<!-- Node28 -->
<g id="node29" class="node">
<title>Node28</title>
<g id="a_node29"><a xlink:href="../../d4/d25/BaseHits_8h.html" target="_top" xlink:title="SimulationDataFormat\l/BaseHits.h">
<polygon fill="none" stroke="#000000" points="1526,-190.5 1526,-220.5 1653,-220.5 1653,-190.5 1526,-190.5"/>
<text text-anchor="start" x="1534" y="-208.5" font-family="Helvetica,sans-Serif" font-size="10.00" fill="#000000">SimulationDataFormat</text>
<text text-anchor="middle" x="1589.5" y="-197.5" font-family="Helvetica,sans-Serif" font-size="10.00" fill="#000000">/BaseHits.h</text>
</a>
</g>
</g>
<!-- Node27&#45;&gt;Node28 -->
<g id="edge33" class="edge">
<title>Node27&#45;&gt;Node28</title>
<path fill="none" stroke="#191970" d="M1388.4264,-257.4581C1423.7965,-248.3183 1478.0277,-234.3048 1521.2595,-223.1336"/>
<polygon fill="#191970" stroke="#191970" points="1522.3414,-226.469 1531.1477,-220.5784 1520.5901,-219.6917 1522.3414,-226.469"/>
</g>
<!-- Node29 -->
<g id="node30" class="node">
<title>Node29</title>
<g id="a_node30"><a xlink:href="../../dd/d76/Cartesian3D_8h.html" target="_top" xlink:title="MathUtils/Cartesian3D.h">
<polygon fill="none" stroke="#000000" points="1560,-134.5 1560,-153.5 1695,-153.5 1695,-134.5 1560,-134.5"/>
<text text-anchor="middle" x="1627.5" y="-141.5" font-family="Helvetica,sans-Serif" font-size="10.00" fill="#000000">MathUtils/Cartesian3D.h</text>
</a>
</g>
</g>
<!-- Node28&#45;&gt;Node29 -->
<g id="edge34" class="edge">
<title>Node28&#45;&gt;Node29</title>
<path fill="none" stroke="#191970" d="M1598.8933,-190.2977C1604.1131,-181.8498 1610.6457,-171.2773 1616.15,-162.369"/>
<polygon fill="#191970" stroke="#191970" points="1619.1368,-164.1938 1621.4157,-153.8469 1613.1818,-160.5143 1619.1368,-164.1938"/>
</g>
<!-- Node29&#45;&gt;Node9 -->
<g id="edge40" class="edge">
<title>Node29&#45;&gt;Node9</title>
<path fill="none" stroke="#191970" d="M1559.7266,-139.358C1452.5823,-131.6313 1248.9968,-115.2662 1178.5,-98 1175.7135,-97.3175 1172.8616,-96.4783 1170.0302,-95.5467"/>
<polygon fill="#191970" stroke="#191970" points="1171.2023,-92.2487 1160.6083,-92.117 1168.8079,-98.8265 1171.2023,-92.2487"/>
</g>
<!-- Node29&#45;&gt;Node11 -->
<g id="edge42" class="edge">
<title>Node29&#45;&gt;Node11</title>
<path fill="none" stroke="#191970" d="M1559.8419,-138.3715C1466.4297,-130.1689 1302.9775,-114.142 1245.5,-98 1243.5326,-97.4475 1241.5346,-96.7963 1239.5434,-96.079"/>
<polygon fill="#191970" stroke="#191970" points="1240.396,-92.646 1229.8156,-92.0934 1237.7421,-99.1234 1240.396,-92.646"/>
</g>
<!-- Node30 -->
<g id="node31" class="node">
<title>Node30</title>
<polygon fill="none" stroke="#bfbfbf" points="1254.5,-67.5 1254.5,-97.5 1418.5,-97.5 1418.5,-67.5 1254.5,-67.5"/>
<text text-anchor="start" x="1262.5" y="-85.5" font-family="Helvetica,sans-Serif" font-size="10.00" fill="#000000">Math/GenVector/Displacement</text>
<text text-anchor="middle" x="1336.5" y="-74.5" font-family="Helvetica,sans-Serif" font-size="10.00" fill="#000000">Vector3D.h</text>
</g>
<!-- Node29&#45;&gt;Node30 -->
<g id="edge35" class="edge">
<title>Node29&#45;&gt;Node30</title>
<path fill="none" stroke="#191970" d="M1582.3505,-134.4581C1538.4826,-125.187 1470.8862,-110.9012 1417.6673,-99.6539"/>
<polygon fill="#191970" stroke="#191970" points="1418.0746,-96.1628 1407.567,-97.5193 1416.6271,-103.0115 1418.0746,-96.1628"/>
</g>
<!-- Node31 -->
<g id="node32" class="node">
<title>Node31</title>
<polygon fill="none" stroke="#bfbfbf" points="1437,-73 1437,-92 1626,-92 1626,-73 1437,-73"/>
<text text-anchor="middle" x="1531.5" y="-80" font-family="Helvetica,sans-Serif" font-size="10.00" fill="#000000">Math/GenVector/PositionVector3D.h</text>
</g>
<!-- Node29&#45;&gt;Node31 -->
<g id="edge36" class="edge">
<title>Node29&#45;&gt;Node31</title>
<path fill="none" stroke="#191970" d="M1612.5,-134.3906C1597.1419,-124.5519 1573.0479,-109.1167 1555.1255,-97.6351"/>
<polygon fill="#191970" stroke="#191970" points="1556.703,-94.4891 1546.3947,-92.0419 1552.927,-100.3833 1556.703,-94.4891"/>
</g>
<!-- Node32 -->
<g id="node33" class="node">
<title>Node32</title>
<polygon fill="none" stroke="#bfbfbf" points="1644.5,-73 1644.5,-92 1804.5,-92 1804.5,-73 1644.5,-73"/>
<text text-anchor="middle" x="1724.5" y="-80" font-family="Helvetica,sans-Serif" font-size="10.00" fill="#000000">Math/GenVector/Rotation3D.h</text>
</g>
<!-- Node29&#45;&gt;Node32 -->
<g id="edge37" class="edge">
<title>Node29&#45;&gt;Node32</title>
<path fill="none" stroke="#191970" d="M1642.6563,-134.3906C1658.1743,-124.5519 1682.5193,-109.1167 1700.6284,-97.6351"/>
<polygon fill="#191970" stroke="#191970" points="1702.8787,-100.3526 1709.4502,-92.0419 1699.1304,-94.4407 1702.8787,-100.3526"/>
</g>
<!-- Node33 -->
<g id="node34" class="node">
<title>Node33</title>
<polygon fill="none" stroke="#bfbfbf" points="1822.5,-73 1822.5,-92 1990.5,-92 1990.5,-73 1822.5,-73"/>
<text text-anchor="middle" x="1906.5" y="-80" font-family="Helvetica,sans-Serif" font-size="10.00" fill="#000000">Math/GenVector/Transform3D.h</text>
</g>
<!-- Node29&#45;&gt;Node33 -->
<g id="edge38" class="edge">
<title>Node29&#45;&gt;Node33</title>
<path fill="none" stroke="#191970" d="M1670.7876,-134.4581C1719.9642,-123.6181 1800.2424,-105.9224 1853.223,-94.2439"/>
<polygon fill="#191970" stroke="#191970" points="1854.0987,-97.6349 1863.1108,-92.0643 1852.5918,-90.799 1854.0987,-97.6349"/>
</g>
<!-- Node34 -->
<g id="node35" class="node">
<title>Node34</title>
<polygon fill="none" stroke="#bfbfbf" points="2009,-73 2009,-92 2182,-92 2182,-73 2009,-73"/>
<text text-anchor="middle" x="2095.5" y="-80" font-family="Helvetica,sans-Serif" font-size="10.00" fill="#000000">Math/GenVector/Translation3D.h</text>
</g>
<!-- Node29&#45;&gt;Node34 -->
<g id="edge39" class="edge">
<title>Node29&#45;&gt;Node34</title>
<path fill="none" stroke="#191970" d="M1695.1416,-136.3984C1769.7659,-127.8344 1893.3609,-113.1256 1999.5,-98 2008.9275,-96.6565 2018.8613,-95.1526 2028.6204,-93.6241"/>
<polygon fill="#191970" stroke="#191970" points="2029.3693,-97.0492 2038.6987,-92.0281 2028.2743,-90.1353 2029.3693,-97.0492"/>
</g>
<!-- Node35 -->
<g id="node36" class="node">
<title>Node35</title>
<polygon fill="none" stroke="#bfbfbf" points="2200.5,-73 2200.5,-92 2282.5,-92 2282.5,-73 2200.5,-73"/>
<text text-anchor="middle" x="2241.5" y="-80" font-family="Helvetica,sans-Serif" font-size="10.00" fill="#000000">TGeoMatrix.h</text>
</g>
<!-- Node29&#45;&gt;Node35 -->
<g id="edge41" class="edge">
<title>Node29&#45;&gt;Node35</title>
<path fill="none" stroke="#191970" d="M1695.2495,-140.3398C1823.7069,-133.0912 2098.1794,-116.0435 2191.5,-98 2195.8847,-97.1522 2200.4285,-96.0588 2204.9086,-94.8452"/>
<polygon fill="#191970" stroke="#191970" points="2205.9048,-98.2006 2214.5283,-92.0455 2203.9486,-91.4795 2205.9048,-98.2006"/>
</g>
<!-- Node36 -->
<g id="node37" class="node">
<title>Node36</title>
<g id="a_node37"><a xlink:href="../../d2/dd0/Cartesian2D_8h.html" target="_top" xlink:title="MathUtils/Cartesian2D.h">
<polygon fill="none" stroke="#000000" points="2301,-73 2301,-92 2436,-92 2436,-73 2301,-73"/>
<text text-anchor="middle" x="2368.5" y="-80" font-family="Helvetica,sans-Serif" font-size="10.00" fill="#000000">MathUtils/Cartesian2D.h</text>
</a>
</g>
</g>
<!-- Node29&#45;&gt;Node36 -->
<g id="edge43" class="edge">
<title>Node29&#45;&gt;Node36</title>
<path fill="none" stroke="#191970" d="M1695.1839,-142.2035C1815.6021,-138.3642 2074.7716,-127.1958 2291.5,-98 2299.5705,-96.9128 2308.0658,-95.4894 2316.3486,-93.9457"/>
<polygon fill="#191970" stroke="#191970" points="2317.1516,-97.3554 2326.3036,-92.0177 2315.8205,-90.4831 2317.1516,-97.3554"/>
</g>
<!-- Node37 -->
<g id="node38" class="node">
<title>Node37</title>
<polygon fill="none" stroke="#bfbfbf" points="2188.5,-.5 2188.5,-30.5 2352.5,-30.5 2352.5,-.5 2188.5,-.5"/>
<text text-anchor="start" x="2196.5" y="-18.5" font-family="Helvetica,sans-Serif" font-size="10.00" fill="#000000">Math/GenVector/Displacement</text>
<text text-anchor="middle" x="2270.5" y="-7.5" font-family="Helvetica,sans-Serif" font-size="10.00" fill="#000000">Vector2D.h</text>
</g>
<!-- Node36&#45;&gt;Node37 -->
<g id="edge44" class="edge">
<title>Node36&#45;&gt;Node37</title>
<path fill="none" stroke="#191970" d="M2354.459,-72.9005C2340.5412,-63.3853 2318.772,-48.5023 2300.888,-36.2755"/>
<polygon fill="#191970" stroke="#191970" points="2302.7026,-33.2763 2292.4721,-30.5218 2298.7519,-39.0549 2302.7026,-33.2763"/>
</g>
<!-- Node38 -->
<g id="node39" class="node">
<title>Node38</title>
<polygon fill="none" stroke="#bfbfbf" points="2371,-6 2371,-25 2560,-25 2560,-6 2371,-6"/>
<text text-anchor="middle" x="2465.5" y="-13" font-family="Helvetica,sans-Serif" font-size="10.00" fill="#000000">Math/GenVector/PositionVector2D.h</text>
</g>
<!-- Node36&#45;&gt;Node38 -->
<g id="edge45" class="edge">
<title>Node36&#45;&gt;Node38</title>
<path fill="none" stroke="#191970" d="M2382.3977,-72.9005C2398.3164,-61.9052 2424.6121,-43.7422 2443.3599,-30.7927"/>
<polygon fill="#191970" stroke="#191970" points="2445.3892,-33.6448 2451.628,-25.0817 2441.4108,-27.8852 2445.3892,-33.6448"/>
</g>
</g>
</svg>
