<?xml version="1.0" encoding="UTF-8" standalone="no"?>
<!DOCTYPE svg PUBLIC "-//W3C//DTD SVG 1.1//EN"
 "http://www.w3.org/Graphics/SVG/1.1/DTD/svg11.dtd">
<!-- Generated by graphviz version 2.40.1 (20161225.0304)
 -->
<!-- Title: /home/travis/build/AliceO2Group/AliceO2/Detectors/MUON/MCH/Simulation/include/MCHSimulation/Digitizer.h Pages: 1 -->
<!--zoomable 385 -->
<svg id="main" version="1.1" xmlns="http://www.w3.org/2000/svg" xmlns:xlink="http://www.w3.org/1999/xlink" xml:space="preserve" onload="init(evt)">
<style type="text/css"><![CDATA[
.edge:hover path { stroke: red; }
.edge:hover polygon { stroke: red; fill: red; }
]]></style>
<script type="text/javascript"><![CDATA[
var edges = document.getElementsByTagName('g');
if (edges && edges.length) {
  for (var i=0;i<edges.length;i++) {
    if (edges[i].id.substr(0,4)=='edge') {
      edges[i].setAttribute('class','edge');
    }
  }
}
]]></script>
        <defs>
                <circle id="rim" cx="0" cy="0" r="7"/>
                <circle id="rim2" cx="0" cy="0" r="3.5"/>
                <g id="zoomPlus">
                        <use xlink:href="#rim" fill="#404040">
                                <set attributeName="fill" to="#808080" begin="zoomplus.mouseover" end="zoomplus.mouseout"/>
                        </use>
                        <path d="M-4,0h8M0,-4v8" fill="none" stroke="white" stroke-width="1.5" pointer-events="none"/>
                </g>
                <g id="zoomMin">
                        <use xlink:href="#rim" fill="#404040">
                                <set attributeName="fill" to="#808080" begin="zoomminus.mouseover" end="zoomminus.mouseout"/>
                        </use>
                        <path d="M-4,0h8" fill="none" stroke="white" stroke-width="1.5" pointer-events="none"/>
                </g>
                <g id="dirArrow">
                        <path fill="none" stroke="white" stroke-width="1.5" d="M0,-3.0v7 M-2.5,-0.5L0,-3.0L2.5,-0.5"/>
                </g>
               <g id="resetDef">
                       <use xlink:href="#rim2" fill="#404040">
                               <set attributeName="fill" to="#808080" begin="reset.mouseover" end="reset.mouseout"/>
                       </use>
               </g>
        </defs>

<script type="text/javascript">
var viewWidth = 1860;
var viewHeight = 385;
var sectionId = 'dynsection-0';
</script>
<script xlink:href="../../svgpan.js"/>
<svg id="graph" class="graph">
<g id="viewport">
<title>/home/travis/build/AliceO2Group/AliceO2/Detectors/MUON/MCH/Simulation/include/MCHSimulation/Digitizer.h</title>
<!-- Node0 -->
<g id="node1" class="node">
<title>Node0</title>
<polygon fill="#bfbfbf" stroke="#000000" points="709,-324.5 709,-376.5 894,-376.5 894,-324.5 709,-324.5"/>
<text text-anchor="start" x="717" y="-364.5" font-family="Helvetica,sans-Serif" font-size="10.00" fill="#000000">/home/travis/build</text>
<text text-anchor="start" x="717" y="-353.5" font-family="Helvetica,sans-Serif" font-size="10.00" fill="#000000">/AliceO2Group/AliceO2</text>
<text text-anchor="start" x="717" y="-342.5" font-family="Helvetica,sans-Serif" font-size="10.00" fill="#000000">/Detectors/MUON/MCH/Simulation</text>
<text text-anchor="middle" x="801.5" y="-331.5" font-family="Helvetica,sans-Serif" font-size="10.00" fill="#000000">/include/MCHSimulation/Digitizer.h</text>
</g>
<!-- Node1 -->
<g id="node2" class="node">
<title>Node1</title>
<g id="a_node2"><a xlink:href="../../d8/d72/Detectors_2MUON_2MCH_2Base_2include_2MCHBase_2Digit_8h.html" target="_top" xlink:title="MCHBase/Digit.h">
<polygon fill="none" stroke="#000000" points="356.5,-134.5 356.5,-153.5 454.5,-153.5 454.5,-134.5 356.5,-134.5"/>
<text text-anchor="middle" x="405.5" y="-141.5" font-family="Helvetica,sans-Serif" font-size="10.00" fill="#000000">MCHBase/Digit.h</text>
</a>
</g>
</g>
<!-- Node0&#45;&gt;Node1 -->
<g id="edge1" class="edge">
<title>Node0&#45;&gt;Node1</title>
<path fill="none" stroke="#191970" d="M737.8356,-324.3784C712.8304,-313.6778 684.0525,-300.8112 658.5,-288 572.2433,-244.7535 473.928,-185.9206 429.5152,-158.8026"/>
<polygon fill="#191970" stroke="#191970" points="431.2357,-155.7521 420.8799,-153.5143 427.5799,-161.7217 431.2357,-155.7521"/>
</g>
<!-- Node3 -->
<g id="node4" class="node">
<title>Node3</title>
<g id="a_node4"><a xlink:href="../../d5/daf/Detectors_2MUON_2MCH_2Simulation_2include_2MCHSimulation_2Hit_8h.html" target="_top" xlink:title="MCHSimulation/Hit.h">
<polygon fill="none" stroke="#000000" points="814.5,-263 814.5,-282 932.5,-282 932.5,-263 814.5,-263"/>
<text text-anchor="middle" x="873.5" y="-270" font-family="Helvetica,sans-Serif" font-size="10.00" fill="#000000">MCHSimulation/Hit.h</text>
</a>
</g>
</g>
<!-- Node0&#45;&gt;Node3 -->
<g id="edge3" class="edge">
<title>Node0&#45;&gt;Node3</title>
<path fill="none" stroke="#191970" d="M825.8759,-324.0928C836.4345,-312.6543 848.4876,-299.5968 857.8263,-289.4799"/>
<polygon fill="#191970" stroke="#191970" points="860.4423,-291.8059 864.6534,-282.0839 855.2987,-287.0579 860.4423,-291.8059"/>
</g>
<!-- Node24 -->
<g id="node25" class="node">
<title>Node24</title>
<g id="a_node25"><a xlink:href="../../d7/dcd/MCCompLabel_8h.html" target="_top" xlink:title="SimulationDataFormat\l/MCCompLabel.h">
<polygon fill="none" stroke="#000000" points="667,-257.5 667,-287.5 794,-287.5 794,-257.5 667,-257.5"/>
<text text-anchor="start" x="675" y="-275.5" font-family="Helvetica,sans-Serif" font-size="10.00" fill="#000000">SimulationDataFormat</text>
<text text-anchor="middle" x="730.5" y="-264.5" font-family="Helvetica,sans-Serif" font-size="10.00" fill="#000000">/MCCompLabel.h</text>
</a>
</g>
</g>
<!-- Node0&#45;&gt;Node24 -->
<g id="edge25" class="edge">
<title>Node0&#45;&gt;Node24</title>
<path fill="none" stroke="#191970" d="M777.4626,-324.0928C768.8748,-314.6583 759.2845,-304.1224 751.0204,-295.0436"/>
<polygon fill="#191970" stroke="#191970" points="753.4778,-292.5437 744.158,-287.5046 748.3012,-297.2557 753.4778,-292.5437"/>
</g>
<!-- Node26 -->
<g id="node27" class="node">
<title>Node26</title>
<g id="a_node27"><a xlink:href="../../db/d14/MCTruthContainer_8h.html" target="_top" xlink:title="Definition of a container to keep Monte Carlo truth external to simulation objects. ">
<polygon fill="none" stroke="#000000" points="1347,-257.5 1347,-287.5 1474,-287.5 1474,-257.5 1347,-257.5"/>
<text text-anchor="start" x="1355" y="-275.5" font-family="Helvetica,sans-Serif" font-size="10.00" fill="#000000">SimulationDataFormat</text>
<text text-anchor="middle" x="1410.5" y="-264.5" font-family="Helvetica,sans-Serif" font-size="10.00" fill="#000000">/MCTruthContainer.h</text>
</a>
</g>
</g>
<!-- Node0&#45;&gt;Node26 -->
<g id="edge28" class="edge">
<title>Node0&#45;&gt;Node26</title>
<path fill="none" stroke="#191970" d="M894.3252,-338.6111C1015.5719,-323.0819 1225.4393,-296.2024 1336.5475,-281.9717"/>
<polygon fill="#191970" stroke="#191970" points="1337.1847,-285.4188 1346.659,-280.6767 1336.2953,-278.4755 1337.1847,-285.4188"/>
</g>
<!-- Node2 -->
<g id="node3" class="node">
<title>Node2</title>
<polygon fill="none" stroke="#bfbfbf" points="0,-73 0,-92 59,-92 59,-73 0,-73"/>
<text text-anchor="middle" x="29.5" y="-80" font-family="Helvetica,sans-Serif" font-size="10.00" fill="#000000">Rtypes.h</text>
</g>
<!-- Node1&#45;&gt;Node2 -->
<g id="edge2" class="edge">
<title>Node1&#45;&gt;Node2</title>
<path fill="none" stroke="#191970" d="M356.2206,-141.0283C289.916,-136.1835 168.7288,-124.3389 68.5,-98 65.8817,-97.3119 63.2019,-96.4971 60.5335,-95.6068"/>
<polygon fill="#191970" stroke="#191970" points="61.6447,-92.2865 51.0509,-92.1434 59.2432,-98.8617 61.6447,-92.2865"/>
</g>
<!-- Node4 -->
<g id="node5" class="node">
<title>Node4</title>
<g id="a_node5"><a xlink:href="../../d4/d25/BaseHits_8h.html" target="_top" xlink:title="SimulationDataFormat\l/BaseHits.h">
<polygon fill="none" stroke="#000000" points="810,-190.5 810,-220.5 937,-220.5 937,-190.5 810,-190.5"/>
<text text-anchor="start" x="818" y="-208.5" font-family="Helvetica,sans-Serif" font-size="10.00" fill="#000000">SimulationDataFormat</text>
<text text-anchor="middle" x="873.5" y="-197.5" font-family="Helvetica,sans-Serif" font-size="10.00" fill="#000000">/BaseHits.h</text>
</a>
</g>
</g>
<!-- Node3&#45;&gt;Node4 -->
<g id="edge4" class="edge">
<title>Node3&#45;&gt;Node4</title>
<path fill="none" stroke="#191970" d="M873.5,-262.9005C873.5,-254.5099 873.5,-241.9451 873.5,-230.7085"/>
<polygon fill="#191970" stroke="#191970" points="877.0001,-230.5217 873.5,-220.5218 870.0001,-230.5218 877.0001,-230.5217"/>
</g>
<!-- Node16 -->
<g id="node17" class="node">
<title>Node16</title>
<g id="a_node17"><a xlink:href="../../d0/d91/ShmAllocator_8h.html" target="_top" xlink:title="CommonUtils/ShmAllocator.h">
<polygon fill="none" stroke="#000000" points="1012.5,-196 1012.5,-215 1172.5,-215 1172.5,-196 1012.5,-196"/>
<text text-anchor="middle" x="1092.5" y="-203" font-family="Helvetica,sans-Serif" font-size="10.00" fill="#000000">CommonUtils/ShmAllocator.h</text>
</a>
</g>
</g>
<!-- Node3&#45;&gt;Node16 -->
<g id="edge17" class="edge">
<title>Node3&#45;&gt;Node16</title>
<path fill="none" stroke="#191970" d="M904.8774,-262.9005C943.4194,-251.1091 1008.9053,-231.0746 1051.4235,-218.0668"/>
<polygon fill="#191970" stroke="#191970" points="1052.6423,-221.3541 1061.1808,-215.0817 1050.5944,-214.6604 1052.6423,-221.3541"/>
</g>
<!-- Node5 -->
<g id="node6" class="node">
<title>Node5</title>
<g id="a_node6"><a xlink:href="../../dd/d76/Cartesian3D_8h.html" target="_top" xlink:title="MathUtils/Cartesian3D.h">
<polygon fill="none" stroke="#000000" points="756,-134.5 756,-153.5 891,-153.5 891,-134.5 756,-134.5"/>
<text text-anchor="middle" x="823.5" y="-141.5" font-family="Helvetica,sans-Serif" font-size="10.00" fill="#000000">MathUtils/Cartesian3D.h</text>
</a>
</g>
</g>
<!-- Node4&#45;&gt;Node5 -->
<g id="edge5" class="edge">
<title>Node4&#45;&gt;Node5</title>
<path fill="none" stroke="#191970" d="M861.1404,-190.2977C854.1276,-181.672 845.314,-170.8312 837.9786,-161.8087"/>
<polygon fill="#191970" stroke="#191970" points="840.5297,-159.3982 831.5056,-153.8469 835.0982,-163.8141 840.5297,-159.3982"/>
</g>
<!-- Node5&#45;&gt;Node2 -->
<g id="edge11" class="edge">
<title>Node5&#45;&gt;Node2</title>
<path fill="none" stroke="#191970" d="M755.7273,-140.4542C576.5481,-131.0016 101.7232,-105.4145 68.5,-98 65.6334,-97.3602 62.7025,-96.5376 59.7986,-95.6056"/>
<polygon fill="#191970" stroke="#191970" points="60.7571,-92.2304 50.1628,-92.122 58.3771,-98.8135 60.7571,-92.2304"/>
</g>
<!-- Node6 -->
<g id="node7" class="node">
<title>Node6</title>
<polygon fill="none" stroke="#bfbfbf" points="77.5,-67.5 77.5,-97.5 241.5,-97.5 241.5,-67.5 77.5,-67.5"/>
<text text-anchor="start" x="85.5" y="-85.5" font-family="Helvetica,sans-Serif" font-size="10.00" fill="#000000">Math/GenVector/Displacement</text>
<text text-anchor="middle" x="159.5" y="-74.5" font-family="Helvetica,sans-Serif" font-size="10.00" fill="#000000">Vector3D.h</text>
</g>
<!-- Node5&#45;&gt;Node6 -->
<g id="edge6" class="edge">
<title>Node5&#45;&gt;Node6</title>
<path fill="none" stroke="#191970" d="M755.8217,-140.5137C650.3068,-134.6485 440.0224,-121.2378 251.8692,-98.1038"/>
<polygon fill="#191970" stroke="#191970" points="252.1465,-94.6115 241.7915,-96.8527 251.2841,-101.5582 252.1465,-94.6115"/>
</g>
<!-- Node7 -->
<g id="node8" class="node">
<title>Node7</title>
<polygon fill="none" stroke="#bfbfbf" points="260,-73 260,-92 449,-92 449,-73 260,-73"/>
<text text-anchor="middle" x="354.5" y="-80" font-family="Helvetica,sans-Serif" font-size="10.00" fill="#000000">Math/GenVector/PositionVector3D.h</text>
</g>
<!-- Node5&#45;&gt;Node7 -->
<g id="edge7" class="edge">
<title>Node5&#45;&gt;Node7</title>
<path fill="none" stroke="#191970" d="M755.8321,-135.9357C682.5125,-127.0895 562.1109,-112.2481 458.5,-98 448.2899,-96.596 437.525,-95.0573 426.9466,-93.5118"/>
<polygon fill="#191970" stroke="#191970" points="427.2888,-90.0245 416.8859,-92.032 426.2701,-96.95 427.2888,-90.0245"/>
</g>
<!-- Node8 -->
<g id="node9" class="node">
<title>Node8</title>
<polygon fill="none" stroke="#bfbfbf" points="467.5,-73 467.5,-92 627.5,-92 627.5,-73 467.5,-73"/>
<text text-anchor="middle" x="547.5" y="-80" font-family="Helvetica,sans-Serif" font-size="10.00" fill="#000000">Math/GenVector/Rotation3D.h</text>
</g>
<!-- Node5&#45;&gt;Node8 -->
<g id="edge8" class="edge">
<title>Node5&#45;&gt;Node8</title>
<path fill="none" stroke="#191970" d="M780.6778,-134.4581C732.03,-123.6181 652.615,-105.9224 600.2042,-94.2439"/>
<polygon fill="#191970" stroke="#191970" points="600.9445,-90.8231 590.4226,-92.0643 599.422,-97.6555 600.9445,-90.8231"/>
</g>
<!-- Node9 -->
<g id="node10" class="node">
<title>Node9</title>
<polygon fill="none" stroke="#bfbfbf" points="645.5,-73 645.5,-92 813.5,-92 813.5,-73 645.5,-73"/>
<text text-anchor="middle" x="729.5" y="-80" font-family="Helvetica,sans-Serif" font-size="10.00" fill="#000000">Math/GenVector/Transform3D.h</text>
</g>
<!-- Node5&#45;&gt;Node9 -->
<g id="edge9" class="edge">
<title>Node5&#45;&gt;Node9</title>
<path fill="none" stroke="#191970" d="M808.8125,-134.3906C793.7744,-124.5519 770.1824,-109.1167 752.6333,-97.6351"/>
<polygon fill="#191970" stroke="#191970" points="754.3687,-94.588 744.0844,-92.0419 750.5363,-100.4457 754.3687,-94.588"/>
</g>
<!-- Node10 -->
<g id="node11" class="node">
<title>Node10</title>
<polygon fill="none" stroke="#bfbfbf" points="832,-73 832,-92 1005,-92 1005,-73 832,-73"/>
<text text-anchor="middle" x="918.5" y="-80" font-family="Helvetica,sans-Serif" font-size="10.00" fill="#000000">Math/GenVector/Translation3D.h</text>
</g>
<!-- Node5&#45;&gt;Node10 -->
<g id="edge10" class="edge">
<title>Node5&#45;&gt;Node10</title>
<path fill="none" stroke="#191970" d="M838.3438,-134.3906C853.5418,-124.5519 877.3848,-109.1167 895.1206,-97.6351"/>
<polygon fill="#191970" stroke="#191970" points="897.268,-100.4144 903.7605,-92.0419 893.4639,-94.5382 897.268,-100.4144"/>
</g>
<!-- Node11 -->
<g id="node12" class="node">
<title>Node11</title>
<polygon fill="none" stroke="#bfbfbf" points="1023.5,-73 1023.5,-92 1105.5,-92 1105.5,-73 1023.5,-73"/>
<text text-anchor="middle" x="1064.5" y="-80" font-family="Helvetica,sans-Serif" font-size="10.00" fill="#000000">TGeoMatrix.h</text>
</g>
<!-- Node5&#45;&gt;Node11 -->
<g id="edge12" class="edge">
<title>Node5&#45;&gt;Node11</title>
<path fill="none" stroke="#191970" d="M866.5617,-134.4613C905.406,-125.6595 964.02,-111.8877 1014.5,-98 1017.8886,-97.0677 1021.3945,-96.0634 1024.9048,-95.0301"/>
<polygon fill="#191970" stroke="#191970" points="1026.149,-98.3108 1034.7158,-92.0769 1024.1313,-91.6079 1026.149,-98.3108"/>
</g>
<!-- Node12 -->
<g id="node13" class="node">
<title>Node12</title>
<polygon fill="none" stroke="#bfbfbf" points="1124,-73 1124,-92 1173,-92 1173,-73 1124,-73"/>
<text text-anchor="middle" x="1148.5" y="-80" font-family="Helvetica,sans-Serif" font-size="10.00" fill="#000000">iosfwd</text>
</g>
<!-- Node5&#45;&gt;Node12 -->
<g id="edge13" class="edge">
<title>Node5&#45;&gt;Node12</title>
<path fill="none" stroke="#191970" d="M891.1085,-138.543C950.8385,-132.4953 1039.8066,-120.4731 1114.5,-98 1116.4102,-97.4253 1118.3521,-96.765 1120.2905,-96.0479"/>
<polygon fill="#191970" stroke="#191970" points="1121.8841,-99.1766 1129.7903,-92.1238 1119.2115,-92.7068 1121.8841,-99.1766"/>
</g>
<!-- Node13 -->
<g id="node14" class="node">
<title>Node13</title>
<g id="a_node14"><a xlink:href="../../d2/dd0/Cartesian2D_8h.html" target="_top" xlink:title="MathUtils/Cartesian2D.h">
<polygon fill="none" stroke="#000000" points="1191,-73 1191,-92 1326,-92 1326,-73 1191,-73"/>
<text text-anchor="middle" x="1258.5" y="-80" font-family="Helvetica,sans-Serif" font-size="10.00" fill="#000000">MathUtils/Cartesian2D.h</text>
</a>
</g>
</g>
<!-- Node5&#45;&gt;Node13 -->
<g id="edge14" class="edge">
<title>Node5&#45;&gt;Node13</title>
<path fill="none" stroke="#191970" d="M891.2069,-136.8316C963.5434,-128.8216 1081.4569,-114.7538 1182.5,-98 1189.6239,-96.8188 1197.0981,-95.4523 1204.4632,-94.03"/>
<polygon fill="#191970" stroke="#191970" points="1205.2636,-97.4397 1214.3958,-92.0681 1203.907,-90.5723 1205.2636,-97.4397"/>
</g>
<!-- Node14 -->
<g id="node15" class="node">
<title>Node14</title>
<polygon fill="none" stroke="#bfbfbf" points="1078.5,-.5 1078.5,-30.5 1242.5,-30.5 1242.5,-.5 1078.5,-.5"/>
<text text-anchor="start" x="1086.5" y="-18.5" font-family="Helvetica,sans-Serif" font-size="10.00" fill="#000000">Math/GenVector/Displacement</text>
<text text-anchor="middle" x="1160.5" y="-7.5" font-family="Helvetica,sans-Serif" font-size="10.00" fill="#000000">Vector2D.h</text>
</g>
<!-- Node13&#45;&gt;Node14 -->
<g id="edge15" class="edge">
<title>Node13&#45;&gt;Node14</title>
<path fill="none" stroke="#191970" d="M1244.459,-72.9005C1230.5412,-63.3853 1208.772,-48.5023 1190.888,-36.2755"/>
<polygon fill="#191970" stroke="#191970" points="1192.7026,-33.2763 1182.4721,-30.5218 1188.7519,-39.0549 1192.7026,-33.2763"/>
</g>
<!-- Node15 -->
<g id="node16" class="node">
<title>Node15</title>
<polygon fill="none" stroke="#bfbfbf" points="1261,-6 1261,-25 1450,-25 1450,-6 1261,-6"/>
<text text-anchor="middle" x="1355.5" y="-13" font-family="Helvetica,sans-Serif" font-size="10.00" fill="#000000">Math/GenVector/PositionVector2D.h</text>
</g>
<!-- Node13&#45;&gt;Node15 -->
<g id="edge16" class="edge">
<title>Node13&#45;&gt;Node15</title>
<path fill="none" stroke="#191970" d="M1272.3977,-72.9005C1288.3164,-61.9052 1314.6121,-43.7422 1333.3599,-30.7927"/>
<polygon fill="#191970" stroke="#191970" points="1335.3892,-33.6448 1341.628,-25.0817 1331.4108,-27.8852 1335.3892,-33.6448"/>
</g>
<!-- Node17 -->
<g id="node18" class="node">
<title>Node17</title>
<g id="a_node18"><a xlink:href="../../de/d61/ShmManager_8h.html" target="_top" xlink:title="CommonUtils/ShmManager.h">
<polygon fill="none" stroke="#000000" points="1353.5,-134.5 1353.5,-153.5 1511.5,-153.5 1511.5,-134.5 1353.5,-134.5"/>
<text text-anchor="middle" x="1432.5" y="-141.5" font-family="Helvetica,sans-Serif" font-size="10.00" fill="#000000">CommonUtils/ShmManager.h</text>
</a>
</g>
</g>
<!-- Node16&#45;&gt;Node17 -->
<g id="edge18" class="edge">
<title>Node16&#45;&gt;Node17</title>
<path fill="none" stroke="#191970" d="M1145.252,-195.9581C1205.8919,-184.9894 1305.3387,-167.0012 1369.86,-155.3305"/>
<polygon fill="#191970" stroke="#191970" points="1370.6867,-158.7378 1379.904,-153.5137 1369.4407,-151.8496 1370.6867,-158.7378"/>
</g>
<!-- Node23 -->
<g id="node24" class="node">
<title>Node23</title>
<polygon fill="none" stroke="#bfbfbf" points="1529.5,-134.5 1529.5,-153.5 1581.5,-153.5 1581.5,-134.5 1529.5,-134.5"/>
<text text-anchor="middle" x="1555.5" y="-141.5" font-family="Helvetica,sans-Serif" font-size="10.00" fill="#000000">cassert</text>
</g>
<!-- Node16&#45;&gt;Node23 -->
<g id="edge24" class="edge">
<title>Node16&#45;&gt;Node23</title>
<path fill="none" stroke="#191970" d="M1144.2861,-195.9941C1156.7744,-193.8643 1170.0942,-191.7271 1182.5,-190 1328.9141,-169.6165 1370.4372,-182.2859 1519.2828,-153.9527"/>
<polygon fill="#191970" stroke="#191970" points="1520.0909,-157.3614 1529.2445,-152.0264 1518.7618,-150.4887 1520.0909,-157.3614"/>
</g>
<!-- Node18 -->
<g id="node19" class="node">
<title>Node18</title>
<polygon fill="none" stroke="#bfbfbf" points="1748.5,-73 1748.5,-92 1780.5,-92 1780.5,-73 1748.5,-73"/>
<text text-anchor="middle" x="1764.5" y="-80" font-family="Helvetica,sans-Serif" font-size="10.00" fill="#000000">list</text>
</g>
<!-- Node17&#45;&gt;Node18 -->
<g id="edge19" class="edge">
<title>Node17&#45;&gt;Node18</title>
<path fill="none" stroke="#191970" d="M1506.6216,-134.4895C1590.4271,-123.4849 1718.0618,-105.8709 1739.5,-98 1740.3809,-97.6766 1741.2641,-97.3198 1742.1448,-96.936"/>
<polygon fill="#191970" stroke="#191970" points="1744.0768,-99.8727 1751.262,-92.0865 1740.7895,-93.6925 1744.0768,-99.8727"/>
</g>
<!-- Node19 -->
<g id="node20" class="node">
<title>Node19</title>
<polygon fill="none" stroke="#bfbfbf" points="1799,-73 1799,-92 1852,-92 1852,-73 1799,-73"/>
<text text-anchor="middle" x="1825.5" y="-80" font-family="Helvetica,sans-Serif" font-size="10.00" fill="#000000">cstddef</text>
</g>
<!-- Node17&#45;&gt;Node19 -->
<g id="edge20" class="edge">
<title>Node17&#45;&gt;Node19</title>
<path fill="none" stroke="#191970" d="M1511.6869,-134.9782C1608.6716,-123.7443 1763.3573,-105.1609 1789.5,-98 1791.8257,-97.3629 1794.1974,-96.6053 1796.5578,-95.7725"/>
<polygon fill="#191970" stroke="#191970" points="1798.0222,-98.9577 1806.0501,-92.0437 1795.4628,-92.4424 1798.0222,-98.9577"/>
</g>
<!-- Node20 -->
<g id="node21" class="node">
<title>Node20</title>
<polygon fill="none" stroke="#bfbfbf" points="1344.5,-73 1344.5,-92 1394.5,-92 1394.5,-73 1344.5,-73"/>
<text text-anchor="middle" x="1369.5" y="-80" font-family="Helvetica,sans-Serif" font-size="10.00" fill="#000000">atomic</text>
</g>
<!-- Node17&#45;&gt;Node20 -->
<g id="edge21" class="edge">
<title>Node17&#45;&gt;Node20</title>
<path fill="none" stroke="#191970" d="M1422.6563,-134.3906C1413.0961,-125.0581 1398.3777,-110.6902 1386.8505,-99.4374"/>
<polygon fill="#191970" stroke="#191970" points="1389.0832,-96.7257 1379.4825,-92.2449 1384.1934,-101.7348 1389.0832,-96.7257"/>
</g>
<!-- Node21 -->
<g id="node22" class="node">
<title>Node21</title>
<polygon fill="none" stroke="#bfbfbf" points="1413,-67.5 1413,-97.5 1578,-97.5 1578,-67.5 1413,-67.5"/>
<text text-anchor="start" x="1421" y="-85.5" font-family="Helvetica,sans-Serif" font-size="10.00" fill="#000000">boost/interprocess</text>
<text text-anchor="middle" x="1495.5" y="-74.5" font-family="Helvetica,sans-Serif" font-size="10.00" fill="#000000">/managed_external_buffer.hpp</text>
</g>
<!-- Node17&#45;&gt;Node21 -->
<g id="edge22" class="edge">
<title>Node17&#45;&gt;Node21</title>
<path fill="none" stroke="#191970" d="M1442.3438,-134.3906C1450.4753,-126.4527 1462.3386,-114.8718 1472.7959,-104.6635"/>
<polygon fill="#191970" stroke="#191970" points="1475.3776,-107.0345 1480.0885,-97.5446 1470.4878,-102.0255 1475.3776,-107.0345"/>
</g>
<!-- Node22 -->
<g id="node23" class="node">
<title>Node22</title>
<polygon fill="none" stroke="#bfbfbf" points="1596.5,-67.5 1596.5,-97.5 1730.5,-97.5 1730.5,-67.5 1596.5,-67.5"/>
<text text-anchor="start" x="1604.5" y="-85.5" font-family="Helvetica,sans-Serif" font-size="10.00" fill="#000000">boost/interprocess</text>
<text text-anchor="middle" x="1663.5" y="-74.5" font-family="Helvetica,sans-Serif" font-size="10.00" fill="#000000">/allocators/allocator.hpp</text>
</g>
<!-- Node17&#45;&gt;Node22 -->
<g id="edge23" class="edge">
<title>Node17&#45;&gt;Node22</title>
<path fill="none" stroke="#191970" d="M1468.3403,-134.4581C1502.5978,-125.3376 1555.0847,-111.3638 1597.0014,-100.2042"/>
<polygon fill="#191970" stroke="#191970" points="1598.1011,-103.5334 1606.864,-97.5784 1596.3001,-96.769 1598.1011,-103.5334"/>
</g>
<!-- Node25 -->
<g id="node26" class="node">
<title>Node25</title>
<g id="a_node26"><a xlink:href="../../d2/d45/GPUCommonRtypes_8h.html" target="_top" xlink:title="GPUCommonRtypes.h">
<polygon fill="none" stroke="#000000" points="667,-196 667,-215 792,-215 792,-196 667,-196"/>
<text text-anchor="middle" x="729.5" y="-203" font-family="Helvetica,sans-Serif" font-size="10.00" fill="#000000">GPUCommonRtypes.h</text>
</a>
</g>
</g>
<!-- Node24&#45;&gt;Node25 -->
<g id="edge26" class="edge">
<title>Node24&#45;&gt;Node25</title>
<path fill="none" stroke="#191970" d="M730.2731,-257.2967C730.1309,-247.7699 729.9462,-235.3954 729.793,-225.1306"/>
<polygon fill="#191970" stroke="#191970" points="733.2916,-225.0016 729.6426,-215.055 726.2923,-225.1061 733.2916,-225.0016"/>
</g>
<!-- Node25&#45;&gt;Node2 -->
<g id="edge27" class="edge">
<title>Node25&#45;&gt;Node2</title>
<path fill="none" stroke="#191970" d="M700.3514,-195.8935C651.8035,-180.2966 551.0592,-149.6383 463.5,-134 289.9629,-103.0058 239.9547,-138.9762 68.5,-98 65.6433,-97.3173 62.7192,-96.4652 59.8198,-95.5141"/>
<polygon fill="#191970" stroke="#191970" points="60.7847,-92.1405 50.1908,-92.0007 58.3853,-98.7164 60.7847,-92.1405"/>
</g>
<!-- Node26&#45;&gt;Node23 -->
<g id="edge31" class="edge">
<title>Node26&#45;&gt;Node23</title>
<path fill="none" stroke="#191970" d="M1432.5971,-257.301C1446.4701,-247.448 1464.5085,-234.0575 1479.5,-221 1501.5721,-201.7753 1524.9345,-177.4232 1539.8373,-161.3099"/>
<polygon fill="#191970" stroke="#191970" points="1542.6307,-163.4422 1546.8077,-153.7055 1537.4705,-158.7122 1542.6307,-163.4422"/>
</g>
<!-- Node26&#45;&gt;Node25 -->
<g id="edge29" class="edge">
<title>Node26&#45;&gt;Node25</title>
<path fill="none" stroke="#191970" d="M1346.6253,-269.7855C1235.3776,-264.4596 999.056,-250.4946 801.5,-221 794.2838,-219.9226 786.7072,-218.5554 779.2896,-217.0812"/>
<polygon fill="#191970" stroke="#191970" points="779.8232,-213.6176 769.3218,-215.0216 778.4067,-220.4728 779.8232,-213.6176"/>
</g>
<!-- Node27 -->
<g id="node28" class="node">
<title>Node27</title>
<polygon fill="none" stroke="#bfbfbf" points="1526.5,-196 1526.5,-215 1576.5,-215 1576.5,-196 1526.5,-196"/>
<text text-anchor="middle" x="1551.5" y="-203" font-family="Helvetica,sans-Serif" font-size="10.00" fill="#000000">cstdint</text>
</g>
<!-- Node26&#45;&gt;Node27 -->
<g id="edge30" class="edge">
<title>Node26&#45;&gt;Node27</title>
<path fill="none" stroke="#191970" d="M1442.1432,-257.4639C1466.1208,-246.0702 1498.8193,-230.5327 1522.2017,-219.4219"/>
<polygon fill="#191970" stroke="#191970" points="1523.7588,-222.5571 1531.2888,-215.1039 1520.7544,-216.2346 1523.7588,-222.5571"/>
</g>
<!-- Node28 -->
<g id="node29" class="node">
<title>Node28</title>
<polygon fill="none" stroke="#bfbfbf" points="1595,-196 1595,-215 1660,-215 1660,-196 1595,-196"/>
<text text-anchor="middle" x="1627.5" y="-203" font-family="Helvetica,sans-Serif" font-size="10.00" fill="#000000">stdexcept</text>
</g>
<!-- Node26&#45;&gt;Node28 -->
<g id="edge32" class="edge">
<title>Node26&#45;&gt;Node28</title>
<path fill="none" stroke="#191970" d="M1465.1842,-257.4308C1499.8424,-247.6281 1545.5152,-234.2449 1585.5,-221 1587.8887,-220.2088 1590.3449,-219.3697 1592.8134,-218.5077"/>
<polygon fill="#191970" stroke="#191970" points="1594.0418,-221.7855 1602.278,-215.121 1591.6834,-215.1948 1594.0418,-221.7855"/>
</g>
<!-- Node29 -->
<g id="node30" class="node">
<title>Node29</title>
<polygon fill="none" stroke="#bfbfbf" points="1678.5,-196 1678.5,-215 1726.5,-215 1726.5,-196 1678.5,-196"/>
<text text-anchor="middle" x="1702.5" y="-203" font-family="Helvetica,sans-Serif" font-size="10.00" fill="#000000">gsl/gsl</text>
</g>
<!-- Node26&#45;&gt;Node29 -->
<g id="edge33" class="edge">
<title>Node26&#45;&gt;Node29</title>
<path fill="none" stroke="#191970" d="M1474.1405,-264.2534C1527.2571,-256.3307 1604.4996,-242.3744 1669.5,-221 1671.349,-220.392 1673.2299,-219.7064 1675.1084,-218.9707"/>
<polygon fill="#191970" stroke="#191970" points="1676.523,-222.1723 1684.3218,-215.0008 1673.753,-215.7436 1676.523,-222.1723"/>
</g>
<!-- Node30 -->
<g id="node31" class="node">
<title>Node30</title>
<polygon fill="none" stroke="#bfbfbf" points="1191,-196 1191,-215 1260,-215 1260,-196 1191,-196"/>
<text text-anchor="middle" x="1225.5" y="-203" font-family="Helvetica,sans-Serif" font-size="10.00" fill="#000000">type_traits</text>
</g>
<!-- Node26&#45;&gt;Node30 -->
<g id="edge34" class="edge">
<title>Node26&#45;&gt;Node30</title>
<path fill="none" stroke="#191970" d="M1368.9824,-257.4639C1336.5872,-245.7316 1292.0596,-229.6054 1261.2385,-218.4431"/>
<polygon fill="#191970" stroke="#191970" points="1262.3402,-215.1197 1251.7459,-215.0053 1259.9565,-221.7014 1262.3402,-215.1197"/>
</g>
<!-- Node31 -->
<g id="node32" class="node">
<title>Node31</title>
<polygon fill="none" stroke="#bfbfbf" points="1278.5,-196 1278.5,-215 1328.5,-215 1328.5,-196 1278.5,-196"/>
<text text-anchor="middle" x="1303.5" y="-203" font-family="Helvetica,sans-Serif" font-size="10.00" fill="#000000">cstring</text>
</g>
<!-- Node26&#45;&gt;Node31 -->
<g id="edge35" class="edge">
<title>Node26&#45;&gt;Node31</title>
<path fill="none" stroke="#191970" d="M1386.4871,-257.4639C1368.8574,-246.4247 1345.0151,-231.4954 1327.4097,-220.4715"/>
<polygon fill="#191970" stroke="#191970" points="1329.1707,-217.4446 1318.8376,-215.1039 1325.4556,-223.3775 1329.1707,-217.4446"/>
</g>
<!-- Node32 -->
<g id="node33" class="node">
<title>Node32</title>
<polygon fill="none" stroke="#bfbfbf" points="1346.5,-196 1346.5,-215 1404.5,-215 1404.5,-196 1346.5,-196"/>
<text text-anchor="middle" x="1375.5" y="-203" font-family="Helvetica,sans-Serif" font-size="10.00" fill="#000000">memory</text>
</g>
<!-- Node26&#45;&gt;Node32 -->
<g id="edge36" class="edge">
<title>Node26&#45;&gt;Node32</title>
<path fill="none" stroke="#191970" d="M1402.558,-257.2967C1397.4225,-247.4658 1390.7029,-234.6026 1385.2449,-224.1545"/>
<polygon fill="#191970" stroke="#191970" points="1388.2239,-222.2979 1380.4914,-215.055 1382.0194,-225.5391 1388.2239,-222.2979"/>
</g>
<!-- Node33 -->
<g id="node34" class="node">
<title>Node33</title>
<polygon fill="none" stroke="#bfbfbf" points="1423,-196 1423,-215 1470,-215 1470,-196 1423,-196"/>
<text text-anchor="middle" x="1446.5" y="-203" font-family="Helvetica,sans-Serif" font-size="10.00" fill="#000000">vector</text>
</g>
<!-- Node26&#45;&gt;Node33 -->
<g id="edge37" class="edge">
<title>Node26&#45;&gt;Node33</title>
<path fill="none" stroke="#191970" d="M1418.669,-257.2967C1423.9512,-247.4658 1430.8628,-234.6026 1436.4767,-224.1545"/>
<polygon fill="#191970" stroke="#191970" points="1439.7159,-225.5205 1441.366,-215.055 1433.5496,-222.2073 1439.7159,-225.5205"/>
</g>
</g>
</svg>
        <g id="navigator" transform="translate(0 0)" fill="#404254">
                <rect fill="#f2f5e9" fill-opacity="0.5" stroke="#606060" stroke-width=".5" x="0" y="0" width="60" height="60"/>
                <use id="zoomplus" xlink:href="#zoomPlus" x="17" y="9" onmousedown="handleZoom(evt,'in')"/>
                <use id="zoomminus" xlink:href="#zoomMin" x="42" y="9" onmousedown="handleZoom(evt,'out')"/>
                <use id="reset" xlink:href="#resetDef" x="30" y="36" onmousedown="handleReset()"/>
                <g id="arrowUp" xlink:href="#dirArrow" transform="translate(30 24)" onmousedown="handlePan(0,-1)">
                  <use xlink:href="#rim" fill="#404040">
                        <set attributeName="fill" to="#808080" begin="arrowUp.mouseover" end="arrowUp.mouseout"/>
                  </use>
                  <path fill="none" stroke="white" stroke-width="1.5" d="M0,-3.0v7 M-2.5,-0.5L0,-3.0L2.5,-0.5"/>
                </g>
                <g id="arrowRight" xlink:href="#dirArrow" transform="rotate(90) translate(36 -43)" onmousedown="handlePan(1,0)">
                  <use xlink:href="#rim" fill="#404040">
                        <set attributeName="fill" to="#808080" begin="arrowRight.mouseover" end="arrowRight.mouseout"/>
                  </use>
                  <path fill="none" stroke="white" stroke-width="1.5" d="M0,-3.0v7 M-2.5,-0.5L0,-3.0L2.5,-0.5"/>
                </g>
                <g id="arrowDown" xlink:href="#dirArrow" transform="rotate(180) translate(-30 -48)" onmousedown="handlePan(0,1)">
                  <use xlink:href="#rim" fill="#404040">
                        <set attributeName="fill" to="#808080" begin="arrowDown.mouseover" end="arrowDown.mouseout"/>
                  </use>
                  <path fill="none" stroke="white" stroke-width="1.5" d="M0,-3.0v7 M-2.5,-0.5L0,-3.0L2.5,-0.5"/>
                </g>
                <g id="arrowLeft" xlink:href="#dirArrow" transform="rotate(270) translate(-36 17)" onmousedown="handlePan(-1,0)">
                  <use xlink:href="#rim" fill="#404040">
                        <set attributeName="fill" to="#808080" begin="arrowLeft.mouseover" end="arrowLeft.mouseout"/>
                  </use>
                  <path fill="none" stroke="white" stroke-width="1.5" d="M0,-3.0v7 M-2.5,-0.5L0,-3.0L2.5,-0.5"/>
                </g>
        </g>
        <svg viewBox="0 0 15 15" width="100%" height="30px" preserveAspectRatio="xMaxYMin meet">
         <g id="arrow_out" transform="scale(0.3 0.3)">
          <a xlink:href="MUON_2MCH_2Simulation_2include_2MCHSimulation_2Digitizer_8h__incl_org.svg" target="_base">
           <rect id="button" ry="5" rx="5" y="6" x="6" height="38" width="38"
                fill="#f2f5e9" fill-opacity="0.5" stroke="#606060" stroke-width="1.0"/>
           <path id="arrow"
             d="M 11.500037,31.436501 C 11.940474,20.09759 22.043105,11.32322 32.158766,21.979434 L 37.068811,17.246167 C 37.068811,17.246167 37.088388,32 37.088388,32 L 22.160133,31.978069 C 22.160133,31.978069 26.997745,27.140456 26.997745,27.140456 C 18.528582,18.264221 13.291696,25.230495 11.500037,31.436501 z"
             style="fill:#404040;"/>
          </a>
         </g>
        </svg>
</svg>
