<?xml version="1.0" encoding="UTF-8" standalone="no"?>
<!DOCTYPE svg PUBLIC "-//W3C//DTD SVG 1.1//EN"
 "http://www.w3.org/Graphics/SVG/1.1/DTD/svg11.dtd">
<!-- Generated by graphviz version 2.40.1 (20161225.0304)
 -->
<!-- Title: /home/travis/build/AliceO2Group/AliceO2/Framework/Core/include/Framework/ParamRetriever.h Pages: 1 -->
<svg width="952pt" height="240pt"
 viewBox="0.00 0.00 951.50 240.00" xmlns="http://www.w3.org/2000/svg" xmlns:xlink="http://www.w3.org/1999/xlink">
<g id="graph0" class="graph" transform="scale(1 1) rotate(0) translate(4 236)">
<title>/home/travis/build/AliceO2Group/AliceO2/Framework/Core/include/Framework/ParamRetriever.h</title>
<!-- Node0 -->
<g id="node1" class="node">
<title>Node0</title>
<polygon fill="#bfbfbf" stroke="#000000" points="699,-179.5 699,-231.5 859,-231.5 859,-179.5 699,-179.5"/>
<text text-anchor="start" x="707" y="-219.5" font-family="Helvetica,sans-Serif" font-size="10.00" fill="#000000">/home/travis/build</text>
<text text-anchor="start" x="707" y="-208.5" font-family="Helvetica,sans-Serif" font-size="10.00" fill="#000000">/AliceO2Group/AliceO2</text>
<text text-anchor="start" x="707" y="-197.5" font-family="Helvetica,sans-Serif" font-size="10.00" fill="#000000">/Framework/Core/include</text>
<text text-anchor="middle" x="779" y="-186.5" font-family="Helvetica,sans-Serif" font-size="10.00" fill="#000000">/Framework/ParamRetriever.h</text>
</g>
<!-- Node1 -->
<g id="node2" class="node">
<title>Node1</title>
<g id="a_node2"><a xlink:href="../../d0/d1c/ConfigParamSpec_8h.html" target="_top" xlink:title="Framework/ConfigParamSpec.h">
<polygon fill="none" stroke="#000000" points="542.5,-118 542.5,-137 709.5,-137 709.5,-118 542.5,-118"/>
<text text-anchor="middle" x="626" y="-125" font-family="Helvetica,sans-Serif" font-size="10.00" fill="#000000">Framework/ConfigParamSpec.h</text>
</a>
</g>
</g>
<!-- Node0&#45;&gt;Node1 -->
<g id="edge1" class="edge">
<title>Node0&#45;&gt;Node1</title>
<path fill="none" stroke="#191970" d="M727.6276,-179.3101C703.046,-166.7784 674.5705,-152.2615 654.0265,-141.788"/>
<polygon fill="#191970" stroke="#191970" points="655.4082,-138.5639 644.9095,-137.1401 652.2289,-144.8002 655.4082,-138.5639"/>
</g>
<!-- Node11 -->
<g id="node12" class="node">
<title>Node11</title>
<polygon fill="none" stroke="#bfbfbf" points="715,-.5 715,-19.5 759,-19.5 759,-.5 715,-.5"/>
<text text-anchor="middle" x="737" y="-7.5" font-family="Helvetica,sans-Serif" font-size="10.00" fill="#000000">string</text>
</g>
<!-- Node0&#45;&gt;Node11 -->
<g id="edge14" class="edge">
<title>Node0&#45;&gt;Node11</title>
<path fill="none" stroke="#191970" d="M768.5634,-179.3791C764.4652,-168.3044 760.0274,-155.1676 757,-143 747.178,-103.5237 741.4618,-56.1807 738.812,-29.9612"/>
<polygon fill="#191970" stroke="#191970" points="742.2763,-29.4212 737.8337,-19.8028 735.3085,-30.0923 742.2763,-29.4212"/>
</g>
<!-- Node12 -->
<g id="node13" class="node">
<title>Node12</title>
<polygon fill="none" stroke="#bfbfbf" points="765.5,-112.5 765.5,-142.5 878.5,-142.5 878.5,-112.5 765.5,-112.5"/>
<text text-anchor="start" x="773.5" y="-130.5" font-family="Helvetica,sans-Serif" font-size="10.00" fill="#000000">boost/property_tree</text>
<text text-anchor="middle" x="822" y="-119.5" font-family="Helvetica,sans-Serif" font-size="10.00" fill="#000000">/ptree_fwd.hpp</text>
</g>
<!-- Node0&#45;&gt;Node12 -->
<g id="edge13" class="edge">
<title>Node0&#45;&gt;Node12</title>
<path fill="none" stroke="#191970" d="M793.5578,-179.0928C798.4962,-170.1348 803.982,-160.1838 808.8078,-151.43"/>
<polygon fill="#191970" stroke="#191970" points="811.9655,-152.9517 813.7283,-142.5046 805.8353,-149.5722 811.9655,-152.9517"/>
</g>
<!-- Node13 -->
<g id="node14" class="node">
<title>Node13</title>
<polygon fill="none" stroke="#bfbfbf" points="896.5,-118 896.5,-137 943.5,-137 943.5,-118 896.5,-118"/>
<text text-anchor="middle" x="920" y="-125" font-family="Helvetica,sans-Serif" font-size="10.00" fill="#000000">vector</text>
</g>
<!-- Node0&#45;&gt;Node13 -->
<g id="edge15" class="edge">
<title>Node0&#45;&gt;Node13</title>
<path fill="none" stroke="#191970" d="M826.3432,-179.3101C848.7918,-166.8918 874.7642,-152.524 893.6559,-142.0733"/>
<polygon fill="#191970" stroke="#191970" points="895.5175,-145.0434 902.5736,-137.1401 892.1291,-138.9182 895.5175,-145.0434"/>
</g>
<!-- Node2 -->
<g id="node3" class="node">
<title>Node2</title>
<g id="a_node3"><a xlink:href="../../de/d56/Variant_8h.html" target="_top" xlink:title="Framework/Variant.h">
<polygon fill="none" stroke="#000000" points="388.5,-56.5 388.5,-75.5 505.5,-75.5 505.5,-56.5 388.5,-56.5"/>
<text text-anchor="middle" x="447" y="-63.5" font-family="Helvetica,sans-Serif" font-size="10.00" fill="#000000">Framework/Variant.h</text>
</a>
</g>
</g>
<!-- Node1&#45;&gt;Node2 -->
<g id="edge2" class="edge">
<title>Node1&#45;&gt;Node2</title>
<path fill="none" stroke="#191970" d="M598.0313,-117.8906C567.4245,-107.3749 518.2101,-90.466 484.3259,-78.8243"/>
<polygon fill="#191970" stroke="#191970" points="485.367,-75.4812 474.7724,-75.5419 483.0924,-82.1014 485.367,-75.4812"/>
</g>
<!-- Node1&#45;&gt;Node11 -->
<g id="edge12" class="edge">
<title>Node1&#45;&gt;Node11</title>
<path fill="none" stroke="#191970" d="M635.0836,-117.8845C653.8655,-98.0028 697.1906,-52.1406 720.8546,-27.0908"/>
<polygon fill="#191970" stroke="#191970" points="723.468,-29.4212 727.7909,-19.7484 718.3795,-24.6142 723.468,-29.4212"/>
</g>
<!-- Node3 -->
<g id="node4" class="node">
<title>Node3</title>
<g id="a_node4"><a xlink:href="../../d1/d76/RuntimeError_8h.html" target="_top" xlink:title="Framework/RuntimeError.h">
<polygon fill="none" stroke="#000000" points="0,-.5 0,-19.5 146,-19.5 146,-.5 0,-.5"/>
<text text-anchor="middle" x="73" y="-7.5" font-family="Helvetica,sans-Serif" font-size="10.00" fill="#000000">Framework/RuntimeError.h</text>
</a>
</g>
</g>
<!-- Node2&#45;&gt;Node3 -->
<g id="edge3" class="edge">
<title>Node2&#45;&gt;Node3</title>
<path fill="none" stroke="#191970" d="M388.1511,-57.1884C322.8606,-47.4123 217.4113,-31.6231 146.6823,-21.0326"/>
<polygon fill="#191970" stroke="#191970" points="146.9158,-17.5287 136.5077,-19.5092 145.8791,-24.4515 146.9158,-17.5287"/>
</g>
<!-- Node4 -->
<g id="node5" class="node">
<title>Node4</title>
<polygon fill="none" stroke="#bfbfbf" points="164.5,-.5 164.5,-19.5 233.5,-19.5 233.5,-.5 164.5,-.5"/>
<text text-anchor="middle" x="199" y="-7.5" font-family="Helvetica,sans-Serif" font-size="10.00" fill="#000000">type_traits</text>
</g>
<!-- Node2&#45;&gt;Node4 -->
<g id="edge4" class="edge">
<title>Node2&#45;&gt;Node4</title>
<path fill="none" stroke="#191970" d="M404.407,-56.4178C365.2298,-47.599 305.2479,-34.0848 243.5071,-20.1121"/>
<polygon fill="#191970" stroke="#191970" points="244.1119,-16.6605 233.5859,-17.8663 242.5664,-23.4878 244.1119,-16.6605"/>
</g>
<!-- Node5 -->
<g id="node6" class="node">
<title>Node5</title>
<polygon fill="none" stroke="#bfbfbf" points="252,-.5 252,-19.5 302,-19.5 302,-.5 252,-.5"/>
<text text-anchor="middle" x="277" y="-7.5" font-family="Helvetica,sans-Serif" font-size="10.00" fill="#000000">cstring</text>
</g>
<!-- Node2&#45;&gt;Node5 -->
<g id="edge5" class="edge">
<title>Node2&#45;&gt;Node5</title>
<path fill="none" stroke="#191970" d="M417.776,-56.3733C388.3939,-46.6945 343.0924,-31.7716 311.8548,-21.4816"/>
<polygon fill="#191970" stroke="#191970" points="312.838,-18.1205 302.245,-18.316 310.6478,-24.7691 312.838,-18.1205"/>
</g>
<!-- Node6 -->
<g id="node7" class="node">
<title>Node6</title>
<polygon fill="none" stroke="#bfbfbf" points="320,-.5 320,-19.5 370,-19.5 370,-.5 320,-.5"/>
<text text-anchor="middle" x="345" y="-7.5" font-family="Helvetica,sans-Serif" font-size="10.00" fill="#000000">cstdint</text>
</g>
<!-- Node2&#45;&gt;Node6 -->
<g id="edge6" class="edge">
<title>Node2&#45;&gt;Node6</title>
<path fill="none" stroke="#191970" d="M429.233,-56.2455C413.2905,-47.4928 389.6741,-34.527 371.5011,-24.5496"/>
<polygon fill="#191970" stroke="#191970" points="373.0137,-21.3873 362.5634,-19.6427 369.6448,-27.5233 373.0137,-21.3873"/>
</g>
<!-- Node7 -->
<g id="node8" class="node">
<title>Node7</title>
<polygon fill="none" stroke="#bfbfbf" points="388.5,-.5 388.5,-19.5 437.5,-19.5 437.5,-.5 388.5,-.5"/>
<text text-anchor="middle" x="413" y="-7.5" font-family="Helvetica,sans-Serif" font-size="10.00" fill="#000000">cstdlib</text>
</g>
<!-- Node2&#45;&gt;Node7 -->
<g id="edge7" class="edge">
<title>Node2&#45;&gt;Node7</title>
<path fill="none" stroke="#191970" d="M441.0777,-56.2455C436.3973,-48.5367 429.7327,-37.5598 424.0711,-28.2348"/>
<polygon fill="#191970" stroke="#191970" points="427.0361,-26.3741 418.8545,-19.6427 421.0525,-30.007 427.0361,-26.3741"/>
</g>
<!-- Node8 -->
<g id="node9" class="node">
<title>Node8</title>
<polygon fill="none" stroke="#bfbfbf" points="455.5,-.5 455.5,-19.5 504.5,-19.5 504.5,-.5 455.5,-.5"/>
<text text-anchor="middle" x="480" y="-7.5" font-family="Helvetica,sans-Serif" font-size="10.00" fill="#000000">iosfwd</text>
</g>
<!-- Node2&#45;&gt;Node8 -->
<g id="edge8" class="edge">
<title>Node2&#45;&gt;Node8</title>
<path fill="none" stroke="#191970" d="M452.7482,-56.2455C457.2435,-48.617 463.6248,-37.7881 469.0825,-28.5267"/>
<polygon fill="#191970" stroke="#191970" points="472.2561,-30.035 474.3177,-19.6427 466.2253,-26.4811 472.2561,-30.035"/>
</g>
<!-- Node9 -->
<g id="node10" class="node">
<title>Node9</title>
<polygon fill="none" stroke="#bfbfbf" points="522.5,-.5 522.5,-19.5 605.5,-19.5 605.5,-.5 522.5,-.5"/>
<text text-anchor="middle" x="564" y="-7.5" font-family="Helvetica,sans-Serif" font-size="10.00" fill="#000000">initializer_list</text>
</g>
<!-- Node2&#45;&gt;Node9 -->
<g id="edge9" class="edge">
<title>Node2&#45;&gt;Node9</title>
<path fill="none" stroke="#191970" d="M467.113,-56.3733C485.8103,-47.4241 513.8744,-33.9917 534.9934,-23.8835"/>
<polygon fill="#191970" stroke="#191970" points="536.6405,-26.9755 544.1494,-19.5011 533.6183,-20.6614 536.6405,-26.9755"/>
</g>
<!-- Node10 -->
<g id="node11" class="node">
<title>Node10</title>
<polygon fill="none" stroke="#bfbfbf" points="623.5,-.5 623.5,-19.5 696.5,-19.5 696.5,-.5 623.5,-.5"/>
<text text-anchor="middle" x="660" y="-7.5" font-family="Helvetica,sans-Serif" font-size="10.00" fill="#000000">string_view</text>
</g>
<!-- Node2&#45;&gt;Node10 -->
<g id="edge10" class="edge">
<title>Node2&#45;&gt;Node10</title>
<path fill="none" stroke="#191970" d="M483.616,-56.3733C519.648,-46.9001 574.7878,-32.4032 613.8114,-22.1435"/>
<polygon fill="#191970" stroke="#191970" points="615.0804,-25.4289 623.8618,-19.5011 613.3005,-18.6589 615.0804,-25.4289"/>
</g>
<!-- Node2&#45;&gt;Node11 -->
<g id="edge11" class="edge">
<title>Node2&#45;&gt;Node11</title>
<path fill="none" stroke="#191970" d="M505.597,-57.9241C556.1375,-50.4316 631.1847,-38.0509 704.8431,-20.0374"/>
<polygon fill="#191970" stroke="#191970" points="705.8917,-23.3834 714.7537,-17.577 704.205,-16.5897 705.8917,-23.3834"/>
</g>
</g>
</svg>
