<?xml version="1.0" encoding="UTF-8" standalone="no"?>
<!DOCTYPE svg PUBLIC "-//W3C//DTD SVG 1.1//EN"
 "http://www.w3.org/Graphics/SVG/1.1/DTD/svg11.dtd">
<!-- Generated by graphviz version 2.40.1 (20161225.0304)
 -->
<!-- Title: /home/travis/build/AliceO2Group/AliceO2/Detectors/TPC/base/test/testTPCParameters.cxx Pages: 1 -->
<!--zoomable 385 -->
<svg id="main" version="1.1" xmlns="http://www.w3.org/2000/svg" xmlns:xlink="http://www.w3.org/1999/xlink" xml:space="preserve" onload="init(evt)">
<style type="text/css"><![CDATA[
.edge:hover path { stroke: red; }
.edge:hover polygon { stroke: red; fill: red; }
]]></style>
<script type="text/javascript"><![CDATA[
var edges = document.getElementsByTagName('g');
if (edges && edges.length) {
  for (var i=0;i<edges.length;i++) {
    if (edges[i].id.substr(0,4)=='edge') {
      edges[i].setAttribute('class','edge');
    }
  }
}
]]></script>
        <defs>
                <circle id="rim" cx="0" cy="0" r="7"/>
                <circle id="rim2" cx="0" cy="0" r="3.5"/>
                <g id="zoomPlus">
                        <use xlink:href="#rim" fill="#404040">
                                <set attributeName="fill" to="#808080" begin="zoomplus.mouseover" end="zoomplus.mouseout"/>
                        </use>
                        <path d="M-4,0h8M0,-4v8" fill="none" stroke="white" stroke-width="1.5" pointer-events="none"/>
                </g>
                <g id="zoomMin">
                        <use xlink:href="#rim" fill="#404040">
                                <set attributeName="fill" to="#808080" begin="zoomminus.mouseover" end="zoomminus.mouseout"/>
                        </use>
                        <path d="M-4,0h8" fill="none" stroke="white" stroke-width="1.5" pointer-events="none"/>
                </g>
                <g id="dirArrow">
                        <path fill="none" stroke="white" stroke-width="1.5" d="M0,-3.0v7 M-2.5,-0.5L0,-3.0L2.5,-0.5"/>
                </g>
               <g id="resetDef">
                       <use xlink:href="#rim2" fill="#404040">
                               <set attributeName="fill" to="#808080" begin="reset.mouseover" end="reset.mouseout"/>
                       </use>
               </g>
        </defs>

<script type="text/javascript">
var viewWidth = 2166;
var viewHeight = 385;
var sectionId = 'dynsection-0';
</script>
<script xlink:href="../../svgpan.js"/>
<svg id="graph" class="graph">
<g id="viewport">
<title>/home/travis/build/AliceO2Group/AliceO2/Detectors/TPC/base/test/testTPCParameters.cxx</title>
<!-- Node0 -->
<g id="node1" class="node">
<title>Node0</title>
<polygon fill="#bfbfbf" stroke="#000000" points="1449.5,-324.5 1449.5,-376.5 1586.5,-376.5 1586.5,-324.5 1449.5,-324.5"/>
<text text-anchor="start" x="1457.5" y="-364.5" font-family="Helvetica,sans-Serif" font-size="10.00" fill="#000000">/home/travis/build</text>
<text text-anchor="start" x="1457.5" y="-353.5" font-family="Helvetica,sans-Serif" font-size="10.00" fill="#000000">/AliceO2Group/AliceO2</text>
<text text-anchor="start" x="1457.5" y="-342.5" font-family="Helvetica,sans-Serif" font-size="10.00" fill="#000000">/Detectors/TPC/base/test</text>
<text text-anchor="middle" x="1518" y="-331.5" font-family="Helvetica,sans-Serif" font-size="10.00" fill="#000000">/testTPCParameters.cxx</text>
</g>
<!-- Node1 -->
<g id="node2" class="node">
<title>Node1</title>
<polygon fill="none" stroke="#bfbfbf" points="994,-268.5 994,-287.5 1126,-287.5 1126,-268.5 994,-268.5"/>
<text text-anchor="middle" x="1060" y="-275.5" font-family="Helvetica,sans-Serif" font-size="10.00" fill="#000000">boost/test/unit_test.hpp</text>
</g>
<!-- Node0&#45;&gt;Node1 -->
<g id="edge1" class="edge">
<title>Node0&#45;&gt;Node1</title>
<path fill="none" stroke="#191970" d="M1449.4328,-339.646C1363.4984,-326.0429 1216.9913,-302.8512 1130.267,-289.1231"/>
<polygon fill="#191970" stroke="#191970" points="1130.6786,-285.6447 1120.2544,-287.5381 1129.5841,-292.5586 1130.6786,-285.6447"/>
</g>
<!-- Node2 -->
<g id="node3" class="node">
<title>Node2</title>
<g id="a_node3"><a xlink:href="../../db/dad/ParameterDetector_8h.html" target="_top" xlink:title="Definition of the parameter class for the detector. ">
<polygon fill="none" stroke="#000000" points="1343.5,-268.5 1343.5,-287.5 1506.5,-287.5 1506.5,-268.5 1343.5,-268.5"/>
<text text-anchor="middle" x="1425" y="-275.5" font-family="Helvetica,sans-Serif" font-size="10.00" fill="#000000">TPCBase/ParameterDetector.h</text>
</a>
</g>
</g>
<!-- Node0&#45;&gt;Node2 -->
<g id="edge2" class="edge">
<title>Node0&#45;&gt;Node2</title>
<path fill="none" stroke="#191970" d="M1484.4249,-324.3258C1471.3234,-314.1123 1456.7349,-302.7396 1445.2912,-293.8184"/>
<polygon fill="#191970" stroke="#191970" points="1447.2684,-290.9219 1437.2298,-287.534 1442.9646,-296.4426 1447.2684,-290.9219"/>
</g>
<!-- Node19 -->
<g id="node20" class="node">
<title>Node19</title>
<g id="a_node20"><a xlink:href="../../db/d2c/ConfigurableParam_8h.html" target="_top" xlink:title="CommonUtils/Configurable\lParam.h">
<polygon fill="none" stroke="#000000" points="1476,-134.5 1476,-164.5 1624,-164.5 1624,-134.5 1476,-134.5"/>
<text text-anchor="start" x="1484" y="-152.5" font-family="Helvetica,sans-Serif" font-size="10.00" fill="#000000">CommonUtils/Configurable</text>
<text text-anchor="middle" x="1550" y="-141.5" font-family="Helvetica,sans-Serif" font-size="10.00" fill="#000000">Param.h</text>
</a>
</g>
</g>
<!-- Node0&#45;&gt;Node19 -->
<g id="edge47" class="edge">
<title>Node0&#45;&gt;Node19</title>
<path fill="none" stroke="#191970" d="M1449.3934,-348.0797C1359.2652,-343.2912 1208.3746,-329.1827 1174,-288 1168.304,-281.1759 1169.0842,-275.4059 1174,-268 1206.6017,-218.8842 1365.5809,-182.212 1466.0955,-163.4764"/>
<polygon fill="#191970" stroke="#191970" points="1466.7346,-166.9176 1475.9355,-161.6646 1465.467,-160.0333 1466.7346,-166.9176"/>
</g>
<!-- Node26 -->
<g id="node27" class="node">
<title>Node26</title>
<g id="a_node27"><a xlink:href="../../da/d6b/ConfigurableParamHelper_8h.html" target="_top" xlink:title="CommonUtils/Configurable\lParamHelper.h">
<polygon fill="none" stroke="#000000" points="1762,-201.5 1762,-231.5 1910,-231.5 1910,-201.5 1762,-201.5"/>
<text text-anchor="start" x="1770" y="-219.5" font-family="Helvetica,sans-Serif" font-size="10.00" fill="#000000">CommonUtils/Configurable</text>
<text text-anchor="middle" x="1836" y="-208.5" font-family="Helvetica,sans-Serif" font-size="10.00" fill="#000000">ParamHelper.h</text>
</a>
</g>
</g>
<!-- Node0&#45;&gt;Node26 -->
<g id="edge48" class="edge">
<title>Node0&#45;&gt;Node26</title>
<path fill="none" stroke="#191970" d="M1586.8188,-348.2726C1678.1523,-343.7013 1831.9902,-329.8364 1867,-288 1878.8684,-273.8174 1869.2252,-254.3962 1857.6584,-239.3739"/>
<polygon fill="#191970" stroke="#191970" points="1860.2385,-237.0022 1851.159,-231.5419 1854.8517,-241.4724 1860.2385,-237.0022"/>
</g>
<!-- Node30 -->
<g id="node31" class="node">
<title>Node30</title>
<g id="a_node31"><a xlink:href="../../d3/d47/ParameterElectronics_8h.html" target="_top" xlink:title="Definition of the parameter class for the detector electronics. ">
<polygon fill="none" stroke="#000000" points="1524.5,-268.5 1524.5,-287.5 1699.5,-287.5 1699.5,-268.5 1524.5,-268.5"/>
<text text-anchor="middle" x="1612" y="-275.5" font-family="Helvetica,sans-Serif" font-size="10.00" fill="#000000">TPCBase/ParameterElectronics.h</text>
</a>
</g>
</g>
<!-- Node0&#45;&gt;Node30 -->
<g id="edge33" class="edge">
<title>Node0&#45;&gt;Node30</title>
<path fill="none" stroke="#191970" d="M1551.9362,-324.3258C1565.1785,-314.1123 1579.9239,-302.7396 1591.4906,-293.8184"/>
<polygon fill="#191970" stroke="#191970" points="1593.8578,-296.4128 1599.6387,-287.534 1589.5827,-290.8699 1593.8578,-296.4128"/>
</g>
<!-- Node32 -->
<g id="node33" class="node">
<title>Node32</title>
<g id="a_node33"><a xlink:href="../../de/d2b/ParameterGEM_8h.html" target="_top" xlink:title="Definition of the parameter class for the GEM stack. ">
<polygon fill="none" stroke="#000000" points="1182.5,-268.5 1182.5,-287.5 1325.5,-287.5 1325.5,-268.5 1182.5,-268.5"/>
<text text-anchor="middle" x="1254" y="-275.5" font-family="Helvetica,sans-Serif" font-size="10.00" fill="#000000">TPCBase/ParameterGEM.h</text>
</a>
</g>
</g>
<!-- Node0&#45;&gt;Node32 -->
<g id="edge38" class="edge">
<title>Node0&#45;&gt;Node32</title>
<path fill="none" stroke="#191970" d="M1449.3263,-331.6407C1401.7621,-318.5786 1339.8214,-301.5684 1298.5745,-290.2411"/>
<polygon fill="#191970" stroke="#191970" points="1299.3834,-286.8337 1288.8135,-287.5605 1297.5297,-293.5838 1299.3834,-286.8337"/>
</g>
<!-- Node33 -->
<g id="node34" class="node">
<title>Node33</title>
<g id="a_node34"><a xlink:href="../../db/d5b/ParameterGas_8h.html" target="_top" xlink:title="Definition of the parameter class for the detector gas. ">
<polygon fill="none" stroke="#000000" points="1718,-268.5 1718,-287.5 1858,-287.5 1858,-268.5 1718,-268.5"/>
<text text-anchor="middle" x="1788" y="-275.5" font-family="Helvetica,sans-Serif" font-size="10.00" fill="#000000">TPCBase/ParameterGas.h</text>
</a>
</g>
</g>
<!-- Node0&#45;&gt;Node33 -->
<g id="edge43" class="edge">
<title>Node0&#45;&gt;Node33</title>
<path fill="none" stroke="#191970" d="M1586.831,-332.0176C1635.7203,-318.8899 1699.9912,-301.632 1742.5815,-290.1957"/>
<polygon fill="#191970" stroke="#191970" points="1743.6374,-293.5362 1752.3876,-287.5626 1741.8221,-286.7757 1743.6374,-293.5362"/>
</g>
<!-- Node34 -->
<g id="node35" class="node">
<title>Node34</title>
<g id="a_node35"><a xlink:href="../../d4/dee/SimConfig_8h.html" target="_top" xlink:title="SimConfig/SimConfig.h">
<polygon fill="none" stroke="#000000" points="1916,-268.5 1916,-287.5 2044,-287.5 2044,-268.5 1916,-268.5"/>
<text text-anchor="middle" x="1980" y="-275.5" font-family="Helvetica,sans-Serif" font-size="10.00" fill="#000000">SimConfig/SimConfig.h</text>
</a>
</g>
</g>
<!-- Node0&#45;&gt;Node34 -->
<g id="edge49" class="edge">
<title>Node0&#45;&gt;Node34</title>
<path fill="none" stroke="#191970" d="M1586.6672,-339.7243C1673.3495,-326.1216 1821.6973,-302.8419 1909.3212,-289.0914"/>
<polygon fill="#191970" stroke="#191970" points="1910.0996,-292.5121 1919.4361,-287.5041 1909.0144,-285.5968 1910.0996,-292.5121"/>
</g>
<!-- Node3 -->
<g id="node4" class="node">
<title>Node3</title>
<polygon fill="none" stroke="#bfbfbf" points="1418,-207 1418,-226 1460,-226 1460,-207 1418,-207"/>
<text text-anchor="middle" x="1439" y="-214" font-family="Helvetica,sans-Serif" font-size="10.00" fill="#000000">array</text>
</g>
<!-- Node2&#45;&gt;Node3 -->
<g id="edge3" class="edge">
<title>Node2&#45;&gt;Node3</title>
<path fill="none" stroke="#191970" d="M1427.1875,-268.3906C1429.1486,-259.776 1432.0863,-246.8708 1434.5415,-236.0858"/>
<polygon fill="#191970" stroke="#191970" points="1437.9746,-236.7723 1436.7817,-226.2449 1431.1493,-235.2185 1437.9746,-236.7723"/>
</g>
<!-- Node4 -->
<g id="node5" class="node">
<title>Node4</title>
<g id="a_node5"><a xlink:href="../../d1/d73/Defs_8h.html" target="_top" xlink:title="Common definitions for 2D coordinates. ">
<polygon fill="none" stroke="#000000" points="668.5,-207 668.5,-226 801.5,-226 801.5,-207 668.5,-207"/>
<text text-anchor="middle" x="735" y="-214" font-family="Helvetica,sans-Serif" font-size="10.00" fill="#000000">DataFormatsTPC/Defs.h</text>
</a>
</g>
</g>
<!-- Node2&#45;&gt;Node4 -->
<g id="edge4" class="edge">
<title>Node2&#45;&gt;Node4</title>
<path fill="none" stroke="#191970" d="M1343.0926,-268.8112C1340.3631,-268.5331 1337.6597,-268.2619 1335,-268 1147.1431,-249.5042 925.8193,-231.4809 811.6783,-222.4636"/>
<polygon fill="#191970" stroke="#191970" points="811.8846,-218.9691 801.6404,-221.672 811.3343,-225.9474 811.8846,-218.9691"/>
</g>
<!-- Node2&#45;&gt;Node19 -->
<g id="edge20" class="edge">
<title>Node2&#45;&gt;Node19</title>
<path fill="none" stroke="#191970" d="M1418.4983,-268.0391C1409.1667,-252.3587 1394.6019,-221.5874 1409,-201 1417.7602,-188.474 1448.0976,-176.6141 1478.3984,-167.4399"/>
<polygon fill="#191970" stroke="#191970" points="1479.5997,-170.735 1488.2077,-164.5582 1477.6266,-164.0188 1479.5997,-170.735"/>
</g>
<!-- Node2&#45;&gt;Node26 -->
<g id="edge27" class="edge">
<title>Node2&#45;&gt;Node26</title>
<path fill="none" stroke="#191970" d="M1488.7678,-268.4581C1559.4373,-257.8835 1673.7075,-240.7846 1751.7139,-229.1122"/>
<polygon fill="#191970" stroke="#191970" points="1752.6224,-232.5153 1761.9943,-227.5738 1751.5864,-225.5923 1752.6224,-232.5153"/>
</g>
<!-- Node5 -->
<g id="node6" class="node">
<title>Node5</title>
<polygon fill="none" stroke="#bfbfbf" points="501.5,-140 501.5,-159 548.5,-159 548.5,-140 501.5,-140"/>
<text text-anchor="middle" x="525" y="-147" font-family="Helvetica,sans-Serif" font-size="10.00" fill="#000000">cmath</text>
</g>
<!-- Node4&#45;&gt;Node5 -->
<g id="edge5" class="edge">
<title>Node4&#45;&gt;Node5</title>
<path fill="none" stroke="#191970" d="M695.7565,-206.9611C659.5039,-197.7094 604.4058,-182.5271 558,-165 556.4123,-164.4003 554.7952,-163.7563 553.1723,-163.0837"/>
<polygon fill="#191970" stroke="#191970" points="554.5395,-159.8615 543.9774,-159.03 551.7157,-166.2666 554.5395,-159.8615"/>
</g>
<!-- Node6 -->
<g id="node7" class="node">
<title>Node6</title>
<g id="a_node7"><a xlink:href="../../d1/da8/GPUROOTCartesianFwd_8h.html" target="_top" xlink:title="GPUROOTCartesianFwd.h">
<polygon fill="none" stroke="#000000" points="567,-140 567,-159 707,-159 707,-140 567,-140"/>
<text text-anchor="middle" x="637" y="-147" font-family="Helvetica,sans-Serif" font-size="10.00" fill="#000000">GPUROOTCartesianFwd.h</text>
</a>
</g>
</g>
<!-- Node4&#45;&gt;Node6 -->
<g id="edge6" class="edge">
<title>Node4&#45;&gt;Node6</title>
<path fill="none" stroke="#191970" d="M720.959,-206.9005C704.8762,-195.9052 678.3094,-177.7422 659.3684,-164.7927"/>
<polygon fill="#191970" stroke="#191970" points="661.2455,-161.8362 651.015,-159.0817 657.2948,-167.6148 661.2455,-161.8362"/>
</g>
<!-- Node7 -->
<g id="node8" class="node">
<title>Node7</title>
<g id="a_node8"><a xlink:href="../../d2/dd0/Cartesian2D_8h.html" target="_top" xlink:title="MathUtils/Cartesian2D.h">
<polygon fill="none" stroke="#000000" points="111.5,-73 111.5,-92 246.5,-92 246.5,-73 111.5,-73"/>
<text text-anchor="middle" x="179" y="-80" font-family="Helvetica,sans-Serif" font-size="10.00" fill="#000000">MathUtils/Cartesian2D.h</text>
</a>
</g>
</g>
<!-- Node4&#45;&gt;Node7 -->
<g id="edge7" class="edge">
<title>Node4&#45;&gt;Node7</title>
<path fill="none" stroke="#191970" d="M736.0603,-206.7893C737.3757,-189.2302 737.2661,-152.3259 716,-134 677.1633,-100.5328 306.7774,-105.0714 256,-98 248.0305,-96.8901 239.6439,-95.4684 231.4559,-93.9376"/>
<polygon fill="#191970" stroke="#191970" points="232.0915,-90.4957 221.6083,-92.0297 230.76,-97.3679 232.0915,-90.4957"/>
</g>
<!-- Node10 -->
<g id="node11" class="node">
<title>Node10</title>
<g id="a_node11"><a xlink:href="../../dd/d76/Cartesian3D_8h.html" target="_top" xlink:title="MathUtils/Cartesian3D.h">
<polygon fill="none" stroke="#000000" points="763.5,-140 763.5,-159 898.5,-159 898.5,-140 763.5,-140"/>
<text text-anchor="middle" x="831" y="-147" font-family="Helvetica,sans-Serif" font-size="10.00" fill="#000000">MathUtils/Cartesian3D.h</text>
</a>
</g>
</g>
<!-- Node4&#45;&gt;Node10 -->
<g id="edge10" class="edge">
<title>Node4&#45;&gt;Node10</title>
<path fill="none" stroke="#191970" d="M748.7545,-206.9005C764.4377,-195.9549 790.2983,-177.9064 808.8358,-164.9688"/>
<polygon fill="#191970" stroke="#191970" points="811.0738,-167.675 817.2711,-159.0817 807.0676,-161.9347 811.0738,-167.675"/>
</g>
<!-- Node8 -->
<g id="node9" class="node">
<title>Node8</title>
<polygon fill="none" stroke="#bfbfbf" points="0,-.5 0,-30.5 164,-30.5 164,-.5 0,-.5"/>
<text text-anchor="start" x="8" y="-18.5" font-family="Helvetica,sans-Serif" font-size="10.00" fill="#000000">Math/GenVector/Displacement</text>
<text text-anchor="middle" x="82" y="-7.5" font-family="Helvetica,sans-Serif" font-size="10.00" fill="#000000">Vector2D.h</text>
</g>
<!-- Node7&#45;&gt;Node8 -->
<g id="edge8" class="edge">
<title>Node7&#45;&gt;Node8</title>
<path fill="none" stroke="#191970" d="M165.1023,-72.9005C151.3265,-63.3853 129.7795,-48.5023 112.0779,-36.2755"/>
<polygon fill="#191970" stroke="#191970" points="113.9651,-33.3253 103.7479,-30.5218 109.9868,-39.0849 113.9651,-33.3253"/>
</g>
<!-- Node9 -->
<g id="node10" class="node">
<title>Node9</title>
<polygon fill="none" stroke="#bfbfbf" points="182.5,-6 182.5,-25 371.5,-25 371.5,-6 182.5,-6"/>
<text text-anchor="middle" x="277" y="-13" font-family="Helvetica,sans-Serif" font-size="10.00" fill="#000000">Math/GenVector/PositionVector2D.h</text>
</g>
<!-- Node7&#45;&gt;Node9 -->
<g id="edge9" class="edge">
<title>Node7&#45;&gt;Node9</title>
<path fill="none" stroke="#191970" d="M193.041,-72.9005C209.1238,-61.9052 235.6906,-43.7422 254.6316,-30.7927"/>
<polygon fill="#191970" stroke="#191970" points="256.7052,-33.6148 262.985,-25.0817 252.7545,-27.8362 256.7052,-33.6148"/>
</g>
<!-- Node10&#45;&gt;Node7 -->
<g id="edge19" class="edge">
<title>Node10&#45;&gt;Node7</title>
<path fill="none" stroke="#191970" d="M785.606,-139.9648C773.7356,-137.7339 760.924,-135.5572 749,-134 531.1552,-105.5513 473.6728,-127.736 256,-98 248.0276,-96.9109 239.6395,-95.5004 231.4508,-93.9744"/>
<polygon fill="#191970" stroke="#191970" points="232.0855,-90.5324 221.6028,-92.0697 230.7562,-97.405 232.0855,-90.5324"/>
</g>
<!-- Node11 -->
<g id="node12" class="node">
<title>Node11</title>
<polygon fill="none" stroke="#bfbfbf" points="811,-67.5 811,-97.5 975,-97.5 975,-67.5 811,-67.5"/>
<text text-anchor="start" x="819" y="-85.5" font-family="Helvetica,sans-Serif" font-size="10.00" fill="#000000">Math/GenVector/Displacement</text>
<text text-anchor="middle" x="893" y="-74.5" font-family="Helvetica,sans-Serif" font-size="10.00" fill="#000000">Vector3D.h</text>
</g>
<!-- Node10&#45;&gt;Node11 -->
<g id="edge11" class="edge">
<title>Node10&#45;&gt;Node11</title>
<path fill="none" stroke="#191970" d="M839.8831,-139.9005C848.288,-130.8178 861.2188,-116.8442 872.2175,-104.9585"/>
<polygon fill="#191970" stroke="#191970" points="874.8762,-107.2386 879.0993,-97.5218 869.7385,-102.4842 874.8762,-107.2386"/>
</g>
<!-- Node12 -->
<g id="node13" class="node">
<title>Node12</title>
<polygon fill="none" stroke="#bfbfbf" points="993.5,-73 993.5,-92 1182.5,-92 1182.5,-73 993.5,-73"/>
<text text-anchor="middle" x="1088" y="-80" font-family="Helvetica,sans-Serif" font-size="10.00" fill="#000000">Math/GenVector/PositionVector3D.h</text>
</g>
<!-- Node10&#45;&gt;Node12 -->
<g id="edge12" class="edge">
<title>Node10&#45;&gt;Node12</title>
<path fill="none" stroke="#191970" d="M867.5489,-139.9717C913.1851,-128.0743 991.3147,-107.7059 1041.2596,-94.6852"/>
<polygon fill="#191970" stroke="#191970" points="1042.3675,-98.0135 1051.1611,-92.1039 1040.6015,-91.2399 1042.3675,-98.0135"/>
</g>
<!-- Node13 -->
<g id="node14" class="node">
<title>Node13</title>
<polygon fill="none" stroke="#bfbfbf" points="1201,-73 1201,-92 1361,-92 1361,-73 1201,-73"/>
<text text-anchor="middle" x="1281" y="-80" font-family="Helvetica,sans-Serif" font-size="10.00" fill="#000000">Math/GenVector/Rotation3D.h</text>
</g>
<!-- Node10&#45;&gt;Node13 -->
<g id="edge13" class="edge">
<title>Node10&#45;&gt;Node13</title>
<path fill="none" stroke="#191970" d="M898.6251,-140.4842C971.2305,-130.6569 1089.9216,-114.1661 1192,-98 1200.3506,-96.6775 1209.1306,-95.2247 1217.7891,-93.7551"/>
<polygon fill="#191970" stroke="#191970" points="1218.599,-97.1674 1227.8644,-92.029 1217.417,-90.268 1218.599,-97.1674"/>
</g>
<!-- Node14 -->
<g id="node15" class="node">
<title>Node14</title>
<polygon fill="none" stroke="#bfbfbf" points="265,-73 265,-92 433,-92 433,-73 265,-73"/>
<text text-anchor="middle" x="349" y="-80" font-family="Helvetica,sans-Serif" font-size="10.00" fill="#000000">Math/GenVector/Transform3D.h</text>
</g>
<!-- Node10&#45;&gt;Node14 -->
<g id="edge14" class="edge">
<title>Node10&#45;&gt;Node14</title>
<path fill="none" stroke="#191970" d="M783.8329,-139.999C772.4542,-137.869 760.3141,-135.7305 749,-134 613.1999,-113.2291 578.0172,-117.2982 442,-98 432.7384,-96.686 422.9772,-95.1862 413.4011,-93.649"/>
<polygon fill="#191970" stroke="#191970" points="413.95,-90.1924 403.5175,-92.0399 412.8251,-97.1014 413.95,-90.1924"/>
</g>
<!-- Node15 -->
<g id="node16" class="node">
<title>Node15</title>
<polygon fill="none" stroke="#bfbfbf" points="451.5,-73 451.5,-92 624.5,-92 624.5,-73 451.5,-73"/>
<text text-anchor="middle" x="538" y="-80" font-family="Helvetica,sans-Serif" font-size="10.00" fill="#000000">Math/GenVector/Translation3D.h</text>
</g>
<!-- Node10&#45;&gt;Node15 -->
<g id="edge15" class="edge">
<title>Node10&#45;&gt;Node15</title>
<path fill="none" stroke="#191970" d="M789.3314,-139.9717C736.8681,-127.975 646.7385,-107.3651 589.868,-94.3606"/>
<polygon fill="#191970" stroke="#191970" points="590.5278,-90.9212 579.9992,-92.1039 588.9674,-97.7451 590.5278,-90.9212"/>
</g>
<!-- Node16 -->
<g id="node17" class="node">
<title>Node16</title>
<polygon fill="none" stroke="#bfbfbf" points="1522.5,-73 1522.5,-92 1581.5,-92 1581.5,-73 1522.5,-73"/>
<text text-anchor="middle" x="1552" y="-80" font-family="Helvetica,sans-Serif" font-size="10.00" fill="#000000">Rtypes.h</text>
</g>
<!-- Node10&#45;&gt;Node16 -->
<g id="edge16" class="edge">
<title>Node10&#45;&gt;Node16</title>
<path fill="none" stroke="#191970" d="M898.6905,-147.0764C1047.3697,-141.3179 1398.3978,-125.2232 1514,-98 1516.7958,-97.3416 1519.6533,-96.5062 1522.4839,-95.5659"/>
<polygon fill="#191970" stroke="#191970" points="1523.7243,-98.8389 1531.8744,-92.0694 1521.2817,-92.2789 1523.7243,-98.8389"/>
</g>
<!-- Node17 -->
<g id="node18" class="node">
<title>Node17</title>
<polygon fill="none" stroke="#bfbfbf" points="643,-73 643,-92 725,-92 725,-73 643,-73"/>
<text text-anchor="middle" x="684" y="-80" font-family="Helvetica,sans-Serif" font-size="10.00" fill="#000000">TGeoMatrix.h</text>
</g>
<!-- Node10&#45;&gt;Node17 -->
<g id="edge17" class="edge">
<title>Node10&#45;&gt;Node17</title>
<path fill="none" stroke="#191970" d="M809.9385,-139.9005C784.8319,-128.4574 742.6923,-109.2509 714.1402,-96.2374"/>
<polygon fill="#191970" stroke="#191970" points="715.5735,-93.0443 705.0224,-92.0817 712.6703,-99.4139 715.5735,-93.0443"/>
</g>
<!-- Node18 -->
<g id="node19" class="node">
<title>Node18</title>
<polygon fill="none" stroke="#bfbfbf" points="743.5,-73 743.5,-92 792.5,-92 792.5,-73 743.5,-73"/>
<text text-anchor="middle" x="768" y="-80" font-family="Helvetica,sans-Serif" font-size="10.00" fill="#000000">iosfwd</text>
</g>
<!-- Node10&#45;&gt;Node18 -->
<g id="edge18" class="edge">
<title>Node10&#45;&gt;Node18</title>
<path fill="none" stroke="#191970" d="M821.9736,-139.9005C812.0558,-129.353 795.9359,-112.2096 783.8909,-99.3998"/>
<polygon fill="#191970" stroke="#191970" points="786.4097,-96.9693 777.0096,-92.0817 781.3101,-101.7645 786.4097,-96.9693"/>
</g>
<!-- Node20 -->
<g id="node21" class="node">
<title>Node20</title>
<polygon fill="none" stroke="#bfbfbf" points="1457.5,-73 1457.5,-92 1504.5,-92 1504.5,-73 1457.5,-73"/>
<text text-anchor="middle" x="1481" y="-80" font-family="Helvetica,sans-Serif" font-size="10.00" fill="#000000">vector</text>
</g>
<!-- Node19&#45;&gt;Node20 -->
<g id="edge21" class="edge">
<title>Node19&#45;&gt;Node20</title>
<path fill="none" stroke="#191970" d="M1534.3428,-134.2967C1523.5923,-123.8578 1509.3206,-109.9997 1498.2445,-99.2446"/>
<polygon fill="#191970" stroke="#191970" points="1500.4527,-96.5103 1490.8402,-92.055 1495.5763,-101.5323 1500.4527,-96.5103"/>
</g>
<!-- Node21 -->
<g id="node22" class="node">
<title>Node21</title>
<polygon fill="none" stroke="#bfbfbf" points="1600,-73 1600,-92 1638,-92 1638,-73 1600,-73"/>
<text text-anchor="middle" x="1619" y="-80" font-family="Helvetica,sans-Serif" font-size="10.00" fill="#000000">map</text>
</g>
<!-- Node19&#45;&gt;Node21 -->
<g id="edge22" class="edge">
<title>Node19&#45;&gt;Node21</title>
<path fill="none" stroke="#191970" d="M1565.6572,-134.2967C1576.4077,-123.8578 1590.6794,-109.9997 1601.7555,-99.2446"/>
<polygon fill="#191970" stroke="#191970" points="1604.4237,-101.5323 1609.1598,-92.055 1599.5473,-96.5103 1604.4237,-101.5323"/>
</g>
<!-- Node22 -->
<g id="node23" class="node">
<title>Node22</title>
<polygon fill="none" stroke="#bfbfbf" points="1656.5,-73 1656.5,-92 1749.5,-92 1749.5,-73 1656.5,-73"/>
<text text-anchor="middle" x="1703" y="-80" font-family="Helvetica,sans-Serif" font-size="10.00" fill="#000000">unordered_map</text>
</g>
<!-- Node19&#45;&gt;Node22 -->
<g id="edge23" class="edge">
<title>Node19&#45;&gt;Node22</title>
<path fill="none" stroke="#191970" d="M1584.3362,-134.4639C1610.5858,-122.969 1646.4674,-107.2561 1671.8825,-96.1266"/>
<polygon fill="#191970" stroke="#191970" points="1673.3124,-99.3214 1681.0687,-92.1039 1670.5045,-92.9092 1673.3124,-99.3214"/>
</g>
<!-- Node23 -->
<g id="node24" class="node">
<title>Node23</title>
<polygon fill="none" stroke="#bfbfbf" points="1767.5,-67.5 1767.5,-97.5 1880.5,-97.5 1880.5,-67.5 1767.5,-67.5"/>
<text text-anchor="start" x="1775.5" y="-85.5" font-family="Helvetica,sans-Serif" font-size="10.00" fill="#000000">boost/property_tree</text>
<text text-anchor="middle" x="1824" y="-74.5" font-family="Helvetica,sans-Serif" font-size="10.00" fill="#000000">/ptree.hpp</text>
</g>
<!-- Node19&#45;&gt;Node23 -->
<g id="edge24" class="edge">
<title>Node19&#45;&gt;Node23</title>
<path fill="none" stroke="#191970" d="M1611.4909,-134.4639C1654.9105,-123.8467 1713.0458,-109.6311 1757.5351,-98.7524"/>
<polygon fill="#191970" stroke="#191970" points="1758.5004,-102.1195 1767.3828,-96.3443 1756.8377,-95.3199 1758.5004,-102.1195"/>
</g>
<!-- Node24 -->
<g id="node25" class="node">
<title>Node24</title>
<polygon fill="none" stroke="#bfbfbf" points="1898.5,-73 1898.5,-92 1955.5,-92 1955.5,-73 1898.5,-73"/>
<text text-anchor="middle" x="1927" y="-80" font-family="Helvetica,sans-Serif" font-size="10.00" fill="#000000">typeinfo</text>
</g>
<!-- Node19&#45;&gt;Node24 -->
<g id="edge25" class="edge">
<title>Node19&#45;&gt;Node24</title>
<path fill="none" stroke="#191970" d="M1624.2844,-140.4204C1708.812,-129.706 1841.4279,-111.6269 1890,-98 1892.3197,-97.3492 1894.6881,-96.5913 1897.0497,-95.767"/>
<polygon fill="#191970" stroke="#191970" points="1898.4957,-98.961 1906.5773,-92.1099 1895.9872,-92.4259 1898.4957,-98.961"/>
</g>
<!-- Node25 -->
<g id="node26" class="node">
<title>Node25</title>
<polygon fill="none" stroke="#bfbfbf" points="1379,-73 1379,-92 1439,-92 1439,-73 1379,-73"/>
<text text-anchor="middle" x="1409" y="-80" font-family="Helvetica,sans-Serif" font-size="10.00" fill="#000000">iostream</text>
</g>
<!-- Node19&#45;&gt;Node25 -->
<g id="edge26" class="edge">
<title>Node19&#45;&gt;Node25</title>
<path fill="none" stroke="#191970" d="M1518.3568,-134.4639C1494.3792,-123.0702 1461.6807,-107.5327 1438.2983,-96.4219"/>
<polygon fill="#191970" stroke="#191970" points="1439.7456,-93.2346 1429.2112,-92.1039 1436.7412,-99.5571 1439.7456,-93.2346"/>
</g>
<!-- Node26&#45;&gt;Node19 -->
<g id="edge28" class="edge">
<title>Node26&#45;&gt;Node19</title>
<path fill="none" stroke="#191970" d="M1771.816,-201.4639C1728.0874,-191.2198 1670.0591,-177.6257 1624.3227,-166.9113"/>
<polygon fill="#191970" stroke="#191970" points="1624.9987,-163.4749 1614.4639,-164.6017 1623.402,-170.2904 1624.9987,-163.4749"/>
</g>
<!-- Node26&#45;&gt;Node24 -->
<g id="edge31" class="edge">
<title>Node26&#45;&gt;Node24</title>
<path fill="none" stroke="#191970" d="M1820.3496,-201.3801C1804.498,-184.1822 1784.2621,-155.6796 1799,-134 1823.4524,-98.0301 1849.7176,-114.4036 1890,-98 1891.5964,-97.3499 1893.23,-96.6806 1894.8786,-96.002"/>
<polygon fill="#191970" stroke="#191970" points="1896.4359,-99.1453 1904.3315,-92.0805 1893.7536,-92.6795 1896.4359,-99.1453"/>
</g>
<!-- Node27 -->
<g id="node28" class="node">
<title>Node27</title>
<polygon fill="none" stroke="#bfbfbf" points="1807.5,-140 1807.5,-159 1864.5,-159 1864.5,-140 1807.5,-140"/>
<text text-anchor="middle" x="1836" y="-147" font-family="Helvetica,sans-Serif" font-size="10.00" fill="#000000">TClass.h</text>
</g>
<!-- Node26&#45;&gt;Node27 -->
<g id="edge29" class="edge">
<title>Node26&#45;&gt;Node27</title>
<path fill="none" stroke="#191970" d="M1836,-201.2967C1836,-191.7699 1836,-179.3954 1836,-169.1306"/>
<polygon fill="#191970" stroke="#191970" points="1839.5001,-169.0549 1836,-159.055 1832.5001,-169.055 1839.5001,-169.0549"/>
</g>
<!-- Node28 -->
<g id="node29" class="node">
<title>Node28</title>
<polygon fill="none" stroke="#bfbfbf" points="1882.5,-140 1882.5,-159 1951.5,-159 1951.5,-140 1882.5,-140"/>
<text text-anchor="middle" x="1917" y="-147" font-family="Helvetica,sans-Serif" font-size="10.00" fill="#000000">type_traits</text>
</g>
<!-- Node26&#45;&gt;Node28 -->
<g id="edge30" class="edge">
<title>Node26&#45;&gt;Node28</title>
<path fill="none" stroke="#191970" d="M1854.3802,-201.2967C1867.2454,-190.6551 1884.4063,-176.4602 1897.5096,-165.6217"/>
<polygon fill="#191970" stroke="#191970" points="1899.9737,-168.1257 1905.4485,-159.055 1895.5121,-162.7318 1899.9737,-168.1257"/>
</g>
<!-- Node29 -->
<g id="node30" class="node">
<title>Node29</title>
<polygon fill="none" stroke="#bfbfbf" points="1703,-140 1703,-159 1751,-159 1751,-140 1703,-140"/>
<text text-anchor="middle" x="1727" y="-147" font-family="Helvetica,sans-Serif" font-size="10.00" fill="#000000">TFile.h</text>
</g>
<!-- Node26&#45;&gt;Node29 -->
<g id="edge32" class="edge">
<title>Node26&#45;&gt;Node29</title>
<path fill="none" stroke="#191970" d="M1811.5383,-201.4639C1793.579,-190.4247 1769.2911,-175.4954 1751.3566,-164.4715"/>
<polygon fill="#191970" stroke="#191970" points="1752.9764,-161.3588 1742.6243,-159.1039 1749.3107,-167.3223 1752.9764,-161.3588"/>
</g>
<!-- Node30&#45;&gt;Node3 -->
<g id="edge34" class="edge">
<title>Node30&#45;&gt;Node3</title>
<path fill="none" stroke="#191970" d="M1580.4573,-268.4264C1552.2885,-259.6548 1510.0337,-245.9481 1474,-232 1472.3809,-231.3733 1470.7278,-230.713 1469.0644,-230.0327"/>
<polygon fill="#191970" stroke="#191970" points="1470.1641,-226.6971 1459.5916,-226.0087 1467.4272,-233.14 1470.1641,-226.6971"/>
</g>
<!-- Node30&#45;&gt;Node19 -->
<g id="edge35" class="edge">
<title>Node30&#45;&gt;Node19</title>
<path fill="none" stroke="#191970" d="M1561.2839,-268.4201C1540.8179,-261.7945 1519.1957,-250.6576 1507,-232 1494.2786,-212.5381 1509.4607,-188.8772 1525.1876,-171.8935"/>
<polygon fill="#191970" stroke="#191970" points="1527.8423,-174.1855 1532.3536,-164.5991 1522.8488,-169.2799 1527.8423,-174.1855"/>
</g>
<!-- Node30&#45;&gt;Node26 -->
<g id="edge36" class="edge">
<title>Node30&#45;&gt;Node26</title>
<path fill="none" stroke="#191970" d="M1647,-268.3906C1680.1929,-259.2774 1730.8741,-245.3627 1771.4013,-234.2358"/>
<polygon fill="#191970" stroke="#191970" points="1772.487,-237.5673 1781.2034,-231.5446 1770.6336,-230.8171 1772.487,-237.5673"/>
</g>
<!-- Node31 -->
<g id="node32" class="node">
<title>Node31</title>
<g id="a_node32"><a xlink:href="../../d4/dc6/LHCConstants_8h.html" target="_top" xlink:title="Header to collect LHC related constants. ">
<polygon fill="none" stroke="#000000" points="1516,-207 1516,-226 1706,-226 1706,-207 1516,-207"/>
<text text-anchor="middle" x="1611" y="-214" font-family="Helvetica,sans-Serif" font-size="10.00" fill="#000000">CommonConstants/LHCConstants.h</text>
</a>
</g>
</g>
<!-- Node30&#45;&gt;Node31 -->
<g id="edge37" class="edge">
<title>Node30&#45;&gt;Node31</title>
<path fill="none" stroke="#191970" d="M1611.8438,-268.3906C1611.7051,-259.8657 1611.4982,-247.1392 1611.324,-236.4235"/>
<polygon fill="#191970" stroke="#191970" points="1614.8207,-236.1866 1611.1585,-226.2449 1607.8216,-236.3005 1614.8207,-236.1866"/>
</g>
<!-- Node32&#45;&gt;Node3 -->
<g id="edge39" class="edge">
<title>Node32&#45;&gt;Node3</title>
<path fill="none" stroke="#191970" d="M1282.9063,-268.3906C1316.9438,-257.0754 1373.2478,-238.3582 1408.1198,-226.7656"/>
<polygon fill="#191970" stroke="#191970" points="1409.3929,-230.0308 1417.7781,-223.5548 1407.1846,-223.3882 1409.3929,-230.0308"/>
</g>
<!-- Node32&#45;&gt;Node5 -->
<g id="edge40" class="edge">
<title>Node32&#45;&gt;Node5</title>
<path fill="none" stroke="#191970" d="M1182.2708,-271.8749C1166.6886,-270.5715 1150.2934,-269.2209 1135,-268 1029.2565,-259.5584 759.9038,-264.7316 659,-232 614.1358,-217.4468 568.8398,-185.0013 544.099,-165.4152"/>
<polygon fill="#191970" stroke="#191970" points="546.22,-162.6294 536.2394,-159.0741 541.8245,-168.0773 546.22,-162.6294"/>
</g>
<!-- Node32&#45;&gt;Node19 -->
<g id="edge41" class="edge">
<title>Node32&#45;&gt;Node19</title>
<path fill="none" stroke="#191970" d="M1269.9803,-268.3284C1296.1048,-252.7776 1349.876,-221.8509 1398,-201 1427.3873,-188.2673 1461.0291,-176.5858 1489.18,-167.5786"/>
<polygon fill="#191970" stroke="#191970" points="1490.4133,-170.8595 1498.8923,-164.5069 1488.3024,-164.1854 1490.4133,-170.8595"/>
</g>
<!-- Node32&#45;&gt;Node26 -->
<g id="edge42" class="edge">
<title>Node32&#45;&gt;Node26</title>
<path fill="none" stroke="#191970" d="M1325.5408,-269.0561C1328.7367,-268.6918 1331.9011,-268.338 1335,-268 1503.6449,-249.6051 1546.3976,-250.7802 1715,-232 1726.8397,-230.6812 1739.3183,-229.1936 1751.5834,-227.6751"/>
<polygon fill="#191970" stroke="#191970" points="1752.3287,-231.1092 1761.8171,-226.3953 1751.46,-224.1633 1752.3287,-231.1092"/>
</g>
<!-- Node33&#45;&gt;Node3 -->
<g id="edge44" class="edge">
<title>Node33&#45;&gt;Node3</title>
<path fill="none" stroke="#191970" d="M1722.7816,-268.493C1665.6985,-259.8934 1580.6207,-246.4022 1507,-232 1494.8996,-229.6328 1481.6667,-226.6965 1470.1167,-224.0182"/>
<polygon fill="#191970" stroke="#191970" points="1470.599,-220.5363 1460.0634,-221.6549 1468.9971,-227.3505 1470.599,-220.5363"/>
</g>
<!-- Node33&#45;&gt;Node19 -->
<g id="edge45" class="edge">
<title>Node33&#45;&gt;Node19</title>
<path fill="none" stroke="#191970" d="M1781.5055,-268.4646C1769.9833,-252.2571 1744.3909,-219.3162 1715,-201 1690.5029,-185.7336 1661.1207,-174.6689 1633.9827,-166.8036"/>
<polygon fill="#191970" stroke="#191970" points="1634.6718,-163.3623 1624.0993,-164.0488 1632.7923,-170.1053 1634.6718,-163.3623"/>
</g>
<!-- Node33&#45;&gt;Node26 -->
<g id="edge46" class="edge">
<title>Node33&#45;&gt;Node26</title>
<path fill="none" stroke="#191970" d="M1795.5,-268.3906C1801.515,-260.6839 1810.2101,-249.5434 1818.0028,-239.5589"/>
<polygon fill="#191970" stroke="#191970" points="1820.8642,-241.5812 1824.2579,-231.5446 1815.346,-237.2743 1820.8642,-241.5812"/>
</g>
<!-- Node34&#45;&gt;Node16 -->
<g id="edge50" class="edge">
<title>Node34&#45;&gt;Node16</title>
<path fill="none" stroke="#191970" d="M1982.3037,-268.1795C1987.7917,-242.0366 1998.5356,-170.2735 1961,-134 1901.5954,-76.5928 1671.2888,-117.4475 1591,-98 1588.2118,-97.3246 1585.3586,-96.4903 1582.5265,-95.562"/>
<polygon fill="#191970" stroke="#191970" points="1583.6974,-92.2636 1573.1033,-92.1375 1581.3065,-98.8426 1583.6974,-92.2636"/>
</g>
<!-- Node35 -->
<g id="node36" class="node">
<title>Node35</title>
<polygon fill="none" stroke="#bfbfbf" points="2008,-207 2008,-226 2158,-226 2158,-207 2008,-207"/>
<text text-anchor="middle" x="2083" y="-214" font-family="Helvetica,sans-Serif" font-size="10.00" fill="#000000">boost/program_options.hpp</text>
</g>
<!-- Node34&#45;&gt;Node35 -->
<g id="edge51" class="edge">
<title>Node34&#45;&gt;Node35</title>
<path fill="none" stroke="#191970" d="M1996.0938,-268.3906C2012.7228,-258.4616 2038.8976,-242.833 2058.1794,-231.3201"/>
<polygon fill="#191970" stroke="#191970" points="2060.2276,-234.1736 2067.0193,-226.0419 2056.639,-228.1634 2060.2276,-234.1736"/>
</g>
</g>
</svg>
        <g id="navigator" transform="translate(0 0)" fill="#404254">
                <rect fill="#f2f5e9" fill-opacity="0.5" stroke="#606060" stroke-width=".5" x="0" y="0" width="60" height="60"/>
                <use id="zoomplus" xlink:href="#zoomPlus" x="17" y="9" onmousedown="handleZoom(evt,'in')"/>
                <use id="zoomminus" xlink:href="#zoomMin" x="42" y="9" onmousedown="handleZoom(evt,'out')"/>
                <use id="reset" xlink:href="#resetDef" x="30" y="36" onmousedown="handleReset()"/>
                <g id="arrowUp" xlink:href="#dirArrow" transform="translate(30 24)" onmousedown="handlePan(0,-1)">
                  <use xlink:href="#rim" fill="#404040">
                        <set attributeName="fill" to="#808080" begin="arrowUp.mouseover" end="arrowUp.mouseout"/>
                  </use>
                  <path fill="none" stroke="white" stroke-width="1.5" d="M0,-3.0v7 M-2.5,-0.5L0,-3.0L2.5,-0.5"/>
                </g>
                <g id="arrowRight" xlink:href="#dirArrow" transform="rotate(90) translate(36 -43)" onmousedown="handlePan(1,0)">
                  <use xlink:href="#rim" fill="#404040">
                        <set attributeName="fill" to="#808080" begin="arrowRight.mouseover" end="arrowRight.mouseout"/>
                  </use>
                  <path fill="none" stroke="white" stroke-width="1.5" d="M0,-3.0v7 M-2.5,-0.5L0,-3.0L2.5,-0.5"/>
                </g>
                <g id="arrowDown" xlink:href="#dirArrow" transform="rotate(180) translate(-30 -48)" onmousedown="handlePan(0,1)">
                  <use xlink:href="#rim" fill="#404040">
                        <set attributeName="fill" to="#808080" begin="arrowDown.mouseover" end="arrowDown.mouseout"/>
                  </use>
                  <path fill="none" stroke="white" stroke-width="1.5" d="M0,-3.0v7 M-2.5,-0.5L0,-3.0L2.5,-0.5"/>
                </g>
                <g id="arrowLeft" xlink:href="#dirArrow" transform="rotate(270) translate(-36 17)" onmousedown="handlePan(-1,0)">
                  <use xlink:href="#rim" fill="#404040">
                        <set attributeName="fill" to="#808080" begin="arrowLeft.mouseover" end="arrowLeft.mouseout"/>
                  </use>
                  <path fill="none" stroke="white" stroke-width="1.5" d="M0,-3.0v7 M-2.5,-0.5L0,-3.0L2.5,-0.5"/>
                </g>
        </g>
        <svg viewBox="0 0 15 15" width="100%" height="30px" preserveAspectRatio="xMaxYMin meet">
         <g id="arrow_out" transform="scale(0.3 0.3)">
          <a xlink:href="testTPCParameters_8cxx__incl_org.svg" target="_base">
           <rect id="button" ry="5" rx="5" y="6" x="6" height="38" width="38"
                fill="#f2f5e9" fill-opacity="0.5" stroke="#606060" stroke-width="1.0"/>
           <path id="arrow"
             d="M 11.500037,31.436501 C 11.940474,20.09759 22.043105,11.32322 32.158766,21.979434 L 37.068811,17.246167 C 37.068811,17.246167 37.088388,32 37.088388,32 L 22.160133,31.978069 C 22.160133,31.978069 26.997745,27.140456 26.997745,27.140456 C 18.528582,18.264221 13.291696,25.230495 11.500037,31.436501 z"
             style="fill:#404040;"/>
          </a>
         </g>
        </svg>
</svg>
