<?xml version="1.0" encoding="UTF-8" standalone="no"?>
<!DOCTYPE svg PUBLIC "-//W3C//DTD SVG 1.1//EN"
 "http://www.w3.org/Graphics/SVG/1.1/DTD/svg11.dtd">
<!-- Generated by graphviz version 2.40.1 (20161225.0304)
 -->
<!-- Title: /home/travis/build/AliceO2Group/AliceO2/Framework/Core/src/LocalRootFileService.cxx Pages: 1 -->
<!--zoomable 285 -->
<svg id="main" version="1.1" xmlns="http://www.w3.org/2000/svg" xmlns:xlink="http://www.w3.org/1999/xlink" xml:space="preserve" onload="init(evt)">
<style type="text/css"><![CDATA[
.edge:hover path { stroke: red; }
.edge:hover polygon { stroke: red; fill: red; }
]]></style>
<script type="text/javascript"><![CDATA[
var edges = document.getElementsByTagName('g');
if (edges && edges.length) {
  for (var i=0;i<edges.length;i++) {
    if (edges[i].id.substr(0,4)=='edge') {
      edges[i].setAttribute('class','edge');
    }
  }
}
]]></script>
        <defs>
                <circle id="rim" cx="0" cy="0" r="7"/>
                <circle id="rim2" cx="0" cy="0" r="3.5"/>
                <g id="zoomPlus">
                        <use xlink:href="#rim" fill="#404040">
                                <set attributeName="fill" to="#808080" begin="zoomplus.mouseover" end="zoomplus.mouseout"/>
                        </use>
                        <path d="M-4,0h8M0,-4v8" fill="none" stroke="white" stroke-width="1.5" pointer-events="none"/>
                </g>
                <g id="zoomMin">
                        <use xlink:href="#rim" fill="#404040">
                                <set attributeName="fill" to="#808080" begin="zoomminus.mouseover" end="zoomminus.mouseout"/>
                        </use>
                        <path d="M-4,0h8" fill="none" stroke="white" stroke-width="1.5" pointer-events="none"/>
                </g>
                <g id="dirArrow">
                        <path fill="none" stroke="white" stroke-width="1.5" d="M0,-3.0v7 M-2.5,-0.5L0,-3.0L2.5,-0.5"/>
                </g>
               <g id="resetDef">
                       <use xlink:href="#rim2" fill="#404040">
                               <set attributeName="fill" to="#808080" begin="reset.mouseover" end="reset.mouseout"/>
                       </use>
               </g>
        </defs>

<script type="text/javascript">
var viewWidth = 767;
var viewHeight = 285;
var sectionId = 'dynsection-0';
</script>
<script xlink:href="../../svgpan.js"/>
<svg id="graph" class="graph">
<g id="viewport">
<title>/home/travis/build/AliceO2Group/AliceO2/Framework/Core/src/LocalRootFileService.cxx</title>
<!-- Node0 -->
<g id="node1" class="node">
<title>Node0</title>
<polygon fill="#bfbfbf" stroke="#000000" points="382.5,-224.5 382.5,-276.5 549.5,-276.5 549.5,-224.5 382.5,-224.5"/>
<text text-anchor="start" x="390.5" y="-264.5" font-family="Helvetica,sans-Serif" font-size="10.00" fill="#000000">/home/travis/build</text>
<text text-anchor="start" x="390.5" y="-253.5" font-family="Helvetica,sans-Serif" font-size="10.00" fill="#000000">/AliceO2Group/AliceO2</text>
<text text-anchor="start" x="390.5" y="-242.5" font-family="Helvetica,sans-Serif" font-size="10.00" fill="#000000">/Framework/Core/src/LocalRoot</text>
<text text-anchor="middle" x="466" y="-231.5" font-family="Helvetica,sans-Serif" font-size="10.00" fill="#000000">FileService.cxx</text>
</g>
<!-- Node1 -->
<g id="node2" class="node">
<title>Node1</title>
<g id="a_node2"><a xlink:href="../../d2/d18/LocalRootFileService_8h.html" target="_top" xlink:title="Framework/LocalRootFileService.h">
<polygon fill="none" stroke="#000000" points="109,-168.5 109,-187.5 291,-187.5 291,-168.5 109,-168.5"/>
<text text-anchor="middle" x="200" y="-175.5" font-family="Helvetica,sans-Serif" font-size="10.00" fill="#000000">Framework/LocalRootFileService.h</text>
</a>
</g>
</g>
<!-- Node0&#45;&gt;Node1 -->
<g id="edge1" class="edge">
<title>Node0&#45;&gt;Node1</title>
<path fill="none" stroke="#191970" d="M382.201,-227.6601C336.8225,-215.2919 282.5487,-200.4992 245.1045,-190.2935"/>
<polygon fill="#191970" stroke="#191970" points="245.5794,-186.7953 235.0109,-187.5425 243.7386,-193.549 245.5794,-186.7953"/>
</g>
<!-- Node12 -->
<g id="node13" class="node">
<title>Node12</title>
<polygon fill="none" stroke="#bfbfbf" points="0,-.5 0,-19.5 44,-19.5 44,-.5 0,-.5"/>
<text text-anchor="middle" x="22" y="-7.5" font-family="Helvetica,sans-Serif" font-size="10.00" fill="#000000">string</text>
</g>
<!-- Node0&#45;&gt;Node12 -->
<g id="edge27" class="edge">
<title>Node0&#45;&gt;Node12</title>
<path fill="none" stroke="#191970" d="M382.4776,-244.6021C288.8389,-236.5625 144.2897,-219.4303 100,-188 46.8871,-150.3083 29.5239,-68.2544 24.1956,-30.1689"/>
<polygon fill="#191970" stroke="#191970" points="27.6198,-29.3452 22.9021,-19.8587 20.6742,-30.2166 27.6198,-29.3452"/>
</g>
<!-- Node17 -->
<g id="node18" class="node">
<title>Node17</title>
<g id="a_node18"><a xlink:href="../../dd/da4/Logger_8h.html" target="_top" xlink:title="Framework/Logger.h">
<polygon fill="none" stroke="#000000" points="309.5,-168.5 309.5,-187.5 424.5,-187.5 424.5,-168.5 309.5,-168.5"/>
<text text-anchor="middle" x="367" y="-175.5" font-family="Helvetica,sans-Serif" font-size="10.00" fill="#000000">Framework/Logger.h</text>
</a>
</g>
</g>
<!-- Node0&#45;&gt;Node17 -->
<g id="edge23" class="edge">
<title>Node0&#45;&gt;Node17</title>
<path fill="none" stroke="#191970" d="M430.2587,-224.3258C416.1752,-214.0122 400.4776,-202.5165 388.243,-193.5567"/>
<polygon fill="#191970" stroke="#191970" points="390.1547,-190.6186 380.0188,-187.534 386.0189,-196.2662 390.1547,-190.6186"/>
</g>
<!-- Node19 -->
<g id="node20" class="node">
<title>Node19</title>
<polygon fill="none" stroke="#bfbfbf" points="443,-168.5 443,-187.5 489,-187.5 489,-168.5 443,-168.5"/>
<text text-anchor="middle" x="466" y="-175.5" font-family="Helvetica,sans-Serif" font-size="10.00" fill="#000000">cstdio</text>
</g>
<!-- Node0&#45;&gt;Node19 -->
<g id="edge25" class="edge">
<title>Node0&#45;&gt;Node19</title>
<path fill="none" stroke="#191970" d="M466,-224.3258C466,-215.5142 466,-205.8397 466,-197.621"/>
<polygon fill="#191970" stroke="#191970" points="469.5001,-197.534 466,-187.534 462.5001,-197.534 469.5001,-197.534"/>
</g>
<!-- Node20 -->
<g id="node21" class="node">
<title>Node20</title>
<polygon fill="none" stroke="#bfbfbf" points="507.5,-168.5 507.5,-187.5 560.5,-187.5 560.5,-168.5 507.5,-168.5"/>
<text text-anchor="middle" x="534" y="-175.5" font-family="Helvetica,sans-Serif" font-size="10.00" fill="#000000">cstdarg</text>
</g>
<!-- Node0&#45;&gt;Node20 -->
<g id="edge26" class="edge">
<title>Node0&#45;&gt;Node20</title>
<path fill="none" stroke="#191970" d="M490.5496,-224.3258C499.7535,-214.5128 509.9611,-203.6298 518.1686,-194.879"/>
<polygon fill="#191970" stroke="#191970" points="520.7695,-197.2222 525.0578,-187.534 515.6638,-192.4334 520.7695,-197.2222"/>
</g>
<!-- Node21 -->
<g id="node22" class="node">
<title>Node21</title>
<polygon fill="none" stroke="#bfbfbf" points="579,-168.5 579,-187.5 629,-187.5 629,-168.5 579,-168.5"/>
<text text-anchor="middle" x="604" y="-175.5" font-family="Helvetica,sans-Serif" font-size="10.00" fill="#000000">climits</text>
</g>
<!-- Node0&#45;&gt;Node21 -->
<g id="edge28" class="edge">
<title>Node0&#45;&gt;Node21</title>
<path fill="none" stroke="#191970" d="M515.8212,-224.3258C536.4057,-213.5115 559.4639,-201.3976 576.8373,-192.2703"/>
<polygon fill="#191970" stroke="#191970" points="578.6277,-195.2833 585.8525,-187.534 575.372,-189.0865 578.6277,-195.2833"/>
</g>
<!-- Node22 -->
<g id="node23" class="node">
<title>Node22</title>
<polygon fill="none" stroke="#bfbfbf" points="647,-168.5 647,-187.5 699,-187.5 699,-168.5 647,-168.5"/>
<text text-anchor="middle" x="673" y="-175.5" font-family="Helvetica,sans-Serif" font-size="10.00" fill="#000000">cassert</text>
</g>
<!-- Node0&#45;&gt;Node22 -->
<g id="edge29" class="edge">
<title>Node0&#45;&gt;Node22</title>
<path fill="none" stroke="#191970" d="M540.4393,-224.4283C573.3282,-212.9092 610.4773,-199.898 637.0633,-190.5865"/>
<polygon fill="#191970" stroke="#191970" points="638.4236,-193.8186 646.7045,-187.2098 636.1097,-187.2121 638.4236,-193.8186"/>
</g>
<!-- Node2 -->
<g id="node3" class="node">
<title>Node2</title>
<g id="a_node3"><a xlink:href="../../d9/d9b/RootFileService_8h.html" target="_top" xlink:title="Framework/RootFileService.h">
<polygon fill="none" stroke="#000000" points="175.5,-112.5 175.5,-131.5 332.5,-131.5 332.5,-112.5 175.5,-112.5"/>
<text text-anchor="middle" x="254" y="-119.5" font-family="Helvetica,sans-Serif" font-size="10.00" fill="#000000">Framework/RootFileService.h</text>
</a>
</g>
</g>
<!-- Node1&#45;&gt;Node2 -->
<g id="edge2" class="edge">
<title>Node1&#45;&gt;Node2</title>
<path fill="none" stroke="#191970" d="M209.4061,-168.2455C217.1493,-160.2155 228.312,-148.6394 237.5318,-139.0781"/>
<polygon fill="#191970" stroke="#191970" points="240.2798,-141.2706 244.7017,-131.6427 235.2409,-136.4117 240.2798,-141.2706"/>
</g>
<!-- Node1&#45;&gt;Node12 -->
<g id="edge20" class="edge">
<title>Node1&#45;&gt;Node12</title>
<path fill="none" stroke="#191970" d="M180.2973,-168.2777C150.0068,-152.5056 91.6668,-118.7544 55,-76 43.1705,-62.2065 34.3189,-43.4362 28.7768,-29.4388"/>
<polygon fill="#191970" stroke="#191970" points="31.9652,-27.9717 25.1894,-19.8268 25.407,-30.4194 31.9652,-27.9717"/>
</g>
<!-- Node13 -->
<g id="node14" class="node">
<title>Node13</title>
<polygon fill="none" stroke="#bfbfbf" points="130,-56.5 130,-75.5 178,-75.5 178,-56.5 130,-56.5"/>
<text text-anchor="middle" x="154" y="-63.5" font-family="Helvetica,sans-Serif" font-size="10.00" fill="#000000">TFile.h</text>
</g>
<!-- Node1&#45;&gt;Node13 -->
<g id="edge18" class="edge">
<title>Node1&#45;&gt;Node13</title>
<path fill="none" stroke="#191970" d="M191.0238,-168.1814C183.4543,-159.3569 172.933,-145.7109 167,-132 160.6229,-117.2627 157.3458,-99.3163 155.6784,-85.8597"/>
<polygon fill="#191970" stroke="#191970" points="159.1456,-85.3625 154.6237,-75.7811 152.1836,-86.0911 159.1456,-85.3625"/>
</g>
<!-- Node14 -->
<g id="node15" class="node">
<title>Node14</title>
<polygon fill="none" stroke="#bfbfbf" points="370,-56.5 370,-75.5 428,-75.5 428,-56.5 370,-56.5"/>
<text text-anchor="middle" x="399" y="-63.5" font-family="Helvetica,sans-Serif" font-size="10.00" fill="#000000">memory</text>
</g>
<!-- Node1&#45;&gt;Node14 -->
<g id="edge22" class="edge">
<title>Node1&#45;&gt;Node14</title>
<path fill="none" stroke="#191970" d="M251.6163,-168.4276C279.969,-161.4791 314.7934,-150.0536 342,-132 361.0136,-119.3831 377.3962,-98.7455 387.6554,-83.9048"/>
<polygon fill="#191970" stroke="#191970" points="390.597,-85.8019 393.2206,-75.537 384.7684,-81.9254 390.597,-85.8019"/>
</g>
<!-- Node15 -->
<g id="node16" class="node">
<title>Node15</title>
<polygon fill="none" stroke="#bfbfbf" points="446,-56.5 446,-75.5 484,-75.5 484,-56.5 446,-56.5"/>
<text text-anchor="middle" x="465" y="-63.5" font-family="Helvetica,sans-Serif" font-size="10.00" fill="#000000">map</text>
</g>
<!-- Node1&#45;&gt;Node15 -->
<g id="edge19" class="edge">
<title>Node1&#45;&gt;Node15</title>
<path fill="none" stroke="#191970" d="M250.1103,-168.4731C283.8233,-161.0236 328.7449,-149.0483 366,-132 395.4828,-118.5084 426.0288,-96.7498 445.251,-81.9335"/>
<polygon fill="#191970" stroke="#191970" points="447.531,-84.5935 453.2414,-75.6692 443.2121,-79.0846 447.531,-84.5935"/>
</g>
<!-- Node16 -->
<g id="node17" class="node">
<title>Node16</title>
<polygon fill="none" stroke="#bfbfbf" points="64.5,-56.5 64.5,-75.5 111.5,-75.5 111.5,-56.5 64.5,-56.5"/>
<text text-anchor="middle" x="88" y="-63.5" font-family="Helvetica,sans-Serif" font-size="10.00" fill="#000000">vector</text>
</g>
<!-- Node1&#45;&gt;Node16 -->
<g id="edge21" class="edge">
<title>Node1&#45;&gt;Node16</title>
<path fill="none" stroke="#191970" d="M190.4509,-168.4509C171.4401,-149.4401 128.6423,-106.6423 104.816,-82.816"/>
<polygon fill="#191970" stroke="#191970" points="107.0709,-80.1211 97.5249,-75.5249 102.1211,-85.0709 107.0709,-80.1211"/>
</g>
<!-- Node3 -->
<g id="node4" class="node">
<title>Node3</title>
<g id="a_node4"><a xlink:href="../../de/d56/Variant_8h.html" target="_top" xlink:title="Framework/Variant.h">
<polygon fill="none" stroke="#000000" points="234.5,-56.5 234.5,-75.5 351.5,-75.5 351.5,-56.5 234.5,-56.5"/>
<text text-anchor="middle" x="293" y="-63.5" font-family="Helvetica,sans-Serif" font-size="10.00" fill="#000000">Framework/Variant.h</text>
</a>
</g>
</g>
<!-- Node2&#45;&gt;Node3 -->
<g id="edge3" class="edge">
<title>Node2&#45;&gt;Node3</title>
<path fill="none" stroke="#191970" d="M260.7933,-112.2455C266.2178,-104.4564 273.9661,-93.3308 280.5033,-83.9439"/>
<polygon fill="#191970" stroke="#191970" points="283.4417,-85.849 286.2846,-75.6427 277.6975,-81.8485 283.4417,-85.849"/>
</g>
<!-- Node2&#45;&gt;Node12 -->
<g id="edge16" class="edge">
<title>Node2&#45;&gt;Node12</title>
<path fill="none" stroke="#191970" d="M246.9054,-112.3463C235.7715,-97.8974 212.7861,-70.7699 187,-56 136.2064,-26.9061 114.3918,-36.3506 54.2943,-20.1695"/>
<polygon fill="#191970" stroke="#191970" points="54.8853,-16.6993 44.31,-17.3427 52.9783,-23.4346 54.8853,-16.6993"/>
</g>
<!-- Node2&#45;&gt;Node13 -->
<g id="edge13" class="edge">
<title>Node2&#45;&gt;Node13</title>
<path fill="none" stroke="#191970" d="M236.5813,-112.2455C220.9515,-103.4928 197.7981,-90.527 179.9815,-80.5496"/>
<polygon fill="#191970" stroke="#191970" points="181.6543,-77.475 171.2191,-75.6427 178.234,-83.5825 181.6543,-77.475"/>
</g>
<!-- Node2&#45;&gt;Node14 -->
<g id="edge14" class="edge">
<title>Node2&#45;&gt;Node14</title>
<path fill="none" stroke="#191970" d="M278.9264,-112.3733C302.6202,-103.2226 338.4511,-89.3844 364.8068,-79.2057"/>
<polygon fill="#191970" stroke="#191970" points="366.3314,-82.3689 374.3989,-75.5011 363.8094,-75.8389 366.3314,-82.3689"/>
</g>
<!-- Node2&#45;&gt;Node15 -->
<g id="edge15" class="edge">
<title>Node2&#45;&gt;Node15</title>
<path fill="none" stroke="#191970" d="M296.8444,-112.4675C331.9517,-104.3801 383.0818,-91.9737 435.9195,-76.1304"/>
<polygon fill="#191970" stroke="#191970" points="437.2486,-79.3848 445.8018,-73.1324 435.2164,-72.6863 437.2486,-79.3848"/>
</g>
<!-- Node2&#45;&gt;Node16 -->
<g id="edge17" class="edge">
<title>Node2&#45;&gt;Node16</title>
<path fill="none" stroke="#191970" d="M225.4636,-112.3733C196.564,-102.624 151.8922,-87.554 121.3705,-77.2575"/>
<polygon fill="#191970" stroke="#191970" points="122.1996,-73.8435 111.6054,-73.9633 119.962,-80.4762 122.1996,-73.8435"/>
</g>
<!-- Node4 -->
<g id="node5" class="node">
<title>Node4</title>
<g id="a_node5"><a xlink:href="../../d1/d76/RuntimeError_8h.html" target="_top" xlink:title="Framework/RuntimeError.h">
<polygon fill="none" stroke="#000000" points="457,-.5 457,-19.5 603,-19.5 603,-.5 457,-.5"/>
<text text-anchor="middle" x="530" y="-7.5" font-family="Helvetica,sans-Serif" font-size="10.00" fill="#000000">Framework/RuntimeError.h</text>
</a>
</g>
</g>
<!-- Node3&#45;&gt;Node4 -->
<g id="edge4" class="edge">
<title>Node3&#45;&gt;Node4</title>
<path fill="none" stroke="#191970" d="M333.4725,-56.4369C373.948,-46.8731 436.2867,-32.1432 479.8703,-21.845"/>
<polygon fill="#191970" stroke="#191970" points="480.7673,-25.2295 489.6945,-19.5237 479.1576,-18.4171 480.7673,-25.2295"/>
</g>
<!-- Node5 -->
<g id="node6" class="node">
<title>Node5</title>
<polygon fill="none" stroke="#bfbfbf" points="621.5,-.5 621.5,-19.5 690.5,-19.5 690.5,-.5 621.5,-.5"/>
<text text-anchor="middle" x="656" y="-7.5" font-family="Helvetica,sans-Serif" font-size="10.00" fill="#000000">type_traits</text>
</g>
<!-- Node3&#45;&gt;Node5 -->
<g id="edge5" class="edge">
<title>Node3&#45;&gt;Node5</title>
<path fill="none" stroke="#191970" d="M351.6034,-57.3683C354.7817,-56.9044 357.9298,-56.4459 361,-56 469.3684,-40.2603 499.4943,-40.4786 611.4646,-19.9729"/>
<polygon fill="#191970" stroke="#191970" points="612.2692,-23.3836 621.4676,-18.1262 610.9983,-16.4999 612.2692,-23.3836"/>
</g>
<!-- Node6 -->
<g id="node7" class="node">
<title>Node6</title>
<polygon fill="none" stroke="#bfbfbf" points="709,-.5 709,-19.5 759,-19.5 759,-.5 709,-.5"/>
<text text-anchor="middle" x="734" y="-7.5" font-family="Helvetica,sans-Serif" font-size="10.00" fill="#000000">cstring</text>
</g>
<!-- Node3&#45;&gt;Node6 -->
<g id="edge6" class="edge">
<title>Node3&#45;&gt;Node6</title>
<path fill="none" stroke="#191970" d="M351.5849,-57.2319C354.768,-56.8032 357.9221,-56.3896 361,-56 508.0851,-37.3827 549.6123,-48.9723 698.8844,-19.9122"/>
<polygon fill="#191970" stroke="#191970" points="699.7428,-23.3103 708.8748,-17.9385 698.386,-16.4431 699.7428,-23.3103"/>
</g>
<!-- Node7 -->
<g id="node8" class="node">
<title>Node7</title>
<polygon fill="none" stroke="#bfbfbf" points="62,-.5 62,-19.5 112,-19.5 112,-.5 62,-.5"/>
<text text-anchor="middle" x="87" y="-7.5" font-family="Helvetica,sans-Serif" font-size="10.00" fill="#000000">cstdint</text>
</g>
<!-- Node3&#45;&gt;Node7 -->
<g id="edge7" class="edge">
<title>Node3&#45;&gt;Node7</title>
<path fill="none" stroke="#191970" d="M256.3555,-56.4803C223.5279,-47.8897 173.8268,-34.7308 121.9411,-20.2206"/>
<polygon fill="#191970" stroke="#191970" points="122.8047,-16.8278 112.231,-17.4963 120.9137,-23.5676 122.8047,-16.8278"/>
</g>
<!-- Node8 -->
<g id="node9" class="node">
<title>Node8</title>
<polygon fill="none" stroke="#bfbfbf" points="130.5,-.5 130.5,-19.5 179.5,-19.5 179.5,-.5 130.5,-.5"/>
<text text-anchor="middle" x="155" y="-7.5" font-family="Helvetica,sans-Serif" font-size="10.00" fill="#000000">cstdlib</text>
</g>
<!-- Node3&#45;&gt;Node8 -->
<g id="edge8" class="edge">
<title>Node3&#45;&gt;Node8</title>
<path fill="none" stroke="#191970" d="M269.277,-56.3733C246.8263,-47.2629 212.9261,-33.5062 187.8745,-23.3404"/>
<polygon fill="#191970" stroke="#191970" points="188.9957,-20.0182 178.4135,-19.5011 186.3635,-26.5045 188.9957,-20.0182"/>
</g>
<!-- Node9 -->
<g id="node10" class="node">
<title>Node9</title>
<polygon fill="none" stroke="#bfbfbf" points="197.5,-.5 197.5,-19.5 246.5,-19.5 246.5,-.5 197.5,-.5"/>
<text text-anchor="middle" x="222" y="-7.5" font-family="Helvetica,sans-Serif" font-size="10.00" fill="#000000">iosfwd</text>
</g>
<!-- Node3&#45;&gt;Node9 -->
<g id="edge9" class="edge">
<title>Node3&#45;&gt;Node9</title>
<path fill="none" stroke="#191970" d="M280.6327,-56.2455C270.0446,-47.8943 254.5936,-35.7076 242.2107,-25.9408"/>
<polygon fill="#191970" stroke="#191970" points="244.2447,-23.0875 234.2255,-19.6427 239.9097,-28.5837 244.2447,-23.0875"/>
</g>
<!-- Node10 -->
<g id="node11" class="node">
<title>Node10</title>
<polygon fill="none" stroke="#bfbfbf" points="264.5,-.5 264.5,-19.5 347.5,-19.5 347.5,-.5 264.5,-.5"/>
<text text-anchor="middle" x="306" y="-7.5" font-family="Helvetica,sans-Serif" font-size="10.00" fill="#000000">initializer_list</text>
</g>
<!-- Node3&#45;&gt;Node10 -->
<g id="edge10" class="edge">
<title>Node3&#45;&gt;Node10</title>
<path fill="none" stroke="#191970" d="M295.2644,-56.2455C296.9794,-48.8579 299.3912,-38.4689 301.4944,-29.4087"/>
<polygon fill="#191970" stroke="#191970" points="304.9095,-30.1751 303.7615,-19.6427 298.0908,-28.5922 304.9095,-30.1751"/>
</g>
<!-- Node11 -->
<g id="node12" class="node">
<title>Node11</title>
<polygon fill="none" stroke="#bfbfbf" points="365.5,-.5 365.5,-19.5 438.5,-19.5 438.5,-.5 365.5,-.5"/>
<text text-anchor="middle" x="402" y="-7.5" font-family="Helvetica,sans-Serif" font-size="10.00" fill="#000000">string_view</text>
</g>
<!-- Node3&#45;&gt;Node11 -->
<g id="edge11" class="edge">
<title>Node3&#45;&gt;Node11</title>
<path fill="none" stroke="#191970" d="M311.9864,-56.2455C329.1792,-47.4125 354.7238,-34.2887 374.2132,-24.2758"/>
<polygon fill="#191970" stroke="#191970" points="375.9359,-27.3257 383.2312,-19.6427 372.737,-21.0993 375.9359,-27.3257"/>
</g>
<!-- Node3&#45;&gt;Node12 -->
<g id="edge12" class="edge">
<title>Node3&#45;&gt;Node12</title>
<path fill="none" stroke="#191970" d="M234.3603,-56.8285C187.7836,-49.0739 120.8682,-36.8915 54.1027,-20.0575"/>
<polygon fill="#191970" stroke="#191970" points="54.811,-16.6261 44.2556,-17.54 53.0771,-23.408 54.811,-16.6261"/>
</g>
<!-- Node18 -->
<g id="node19" class="node">
<title>Node18</title>
<polygon fill="none" stroke="#bfbfbf" points="427,-112.5 427,-131.5 535,-131.5 535,-112.5 427,-112.5"/>
<text text-anchor="middle" x="481" y="-119.5" font-family="Helvetica,sans-Serif" font-size="10.00" fill="#000000">fairlogger/Logger.h</text>
</g>
<!-- Node17&#45;&gt;Node18 -->
<g id="edge24" class="edge">
<title>Node17&#45;&gt;Node18</title>
<path fill="none" stroke="#191970" d="M386.5973,-168.3733C404.7331,-159.4644 431.9135,-146.1127 452.4587,-136.0203"/>
<polygon fill="#191970" stroke="#191970" points="454.2261,-139.0517 461.6584,-131.5011 451.1397,-132.7688 454.2261,-139.0517"/>
</g>
</g>
</svg>
        <g id="navigator" transform="translate(0 0)" fill="#404254">
                <rect fill="#f2f5e9" fill-opacity="0.5" stroke="#606060" stroke-width=".5" x="0" y="0" width="60" height="60"/>
                <use id="zoomplus" xlink:href="#zoomPlus" x="17" y="9" onmousedown="handleZoom(evt,'in')"/>
                <use id="zoomminus" xlink:href="#zoomMin" x="42" y="9" onmousedown="handleZoom(evt,'out')"/>
                <use id="reset" xlink:href="#resetDef" x="30" y="36" onmousedown="handleReset()"/>
                <g id="arrowUp" xlink:href="#dirArrow" transform="translate(30 24)" onmousedown="handlePan(0,-1)">
                  <use xlink:href="#rim" fill="#404040">
                        <set attributeName="fill" to="#808080" begin="arrowUp.mouseover" end="arrowUp.mouseout"/>
                  </use>
                  <path fill="none" stroke="white" stroke-width="1.5" d="M0,-3.0v7 M-2.5,-0.5L0,-3.0L2.5,-0.5"/>
                </g>
                <g id="arrowRight" xlink:href="#dirArrow" transform="rotate(90) translate(36 -43)" onmousedown="handlePan(1,0)">
                  <use xlink:href="#rim" fill="#404040">
                        <set attributeName="fill" to="#808080" begin="arrowRight.mouseover" end="arrowRight.mouseout"/>
                  </use>
                  <path fill="none" stroke="white" stroke-width="1.5" d="M0,-3.0v7 M-2.5,-0.5L0,-3.0L2.5,-0.5"/>
                </g>
                <g id="arrowDown" xlink:href="#dirArrow" transform="rotate(180) translate(-30 -48)" onmousedown="handlePan(0,1)">
                  <use xlink:href="#rim" fill="#404040">
                        <set attributeName="fill" to="#808080" begin="arrowDown.mouseover" end="arrowDown.mouseout"/>
                  </use>
                  <path fill="none" stroke="white" stroke-width="1.5" d="M0,-3.0v7 M-2.5,-0.5L0,-3.0L2.5,-0.5"/>
                </g>
                <g id="arrowLeft" xlink:href="#dirArrow" transform="rotate(270) translate(-36 17)" onmousedown="handlePan(-1,0)">
                  <use xlink:href="#rim" fill="#404040">
                        <set attributeName="fill" to="#808080" begin="arrowLeft.mouseover" end="arrowLeft.mouseout"/>
                  </use>
                  <path fill="none" stroke="white" stroke-width="1.5" d="M0,-3.0v7 M-2.5,-0.5L0,-3.0L2.5,-0.5"/>
                </g>
        </g>
        <svg viewBox="0 0 15 15" width="100%" height="30px" preserveAspectRatio="xMaxYMin meet">
         <g id="arrow_out" transform="scale(0.3 0.3)">
          <a xlink:href="LocalRootFileService_8cxx__incl_org.svg" target="_base">
           <rect id="button" ry="5" rx="5" y="6" x="6" height="38" width="38"
                fill="#f2f5e9" fill-opacity="0.5" stroke="#606060" stroke-width="1.0"/>
           <path id="arrow"
             d="M 11.500037,31.436501 C 11.940474,20.09759 22.043105,11.32322 32.158766,21.979434 L 37.068811,17.246167 C 37.068811,17.246167 37.088388,32 37.088388,32 L 22.160133,31.978069 C 22.160133,31.978069 26.997745,27.140456 26.997745,27.140456 C 18.528582,18.264221 13.291696,25.230495 11.500037,31.436501 z"
             style="fill:#404040;"/>
          </a>
         </g>
        </svg>
</svg>
