<?xml version="1.0" encoding="UTF-8" standalone="no"?>
<!DOCTYPE svg PUBLIC "-//W3C//DTD SVG 1.1//EN"
 "http://www.w3.org/Graphics/SVG/1.1/DTD/svg11.dtd">
<!-- Generated by graphviz version 2.40.1 (20161225.0304)
 -->
<!-- Title: /home/travis/build/AliceO2Group/AliceO2/Analysis/DataModel/include/Analysis/EventSelection.h Pages: 1 -->
<svg width="3479pt" height="239pt"
 viewBox="0.00 0.00 3478.50 239.00" xmlns="http://www.w3.org/2000/svg" xmlns:xlink="http://www.w3.org/1999/xlink">
<g id="graph0" class="graph" transform="scale(1 1) rotate(0) translate(4 235)">
<title>/home/travis/build/AliceO2Group/AliceO2/Analysis/DataModel/include/Analysis/EventSelection.h</title>
<!-- Node65 -->
<g id="node1" class="node">
<title>Node65</title>
<polygon fill="#bfbfbf" stroke="#000000" points="1785.5,-178.5 1785.5,-230.5 1940.5,-230.5 1940.5,-178.5 1785.5,-178.5"/>
<text text-anchor="start" x="1793.5" y="-218.5" font-family="Helvetica,sans-Serif" font-size="10.00" fill="#000000">/home/travis/build</text>
<text text-anchor="start" x="1793.5" y="-207.5" font-family="Helvetica,sans-Serif" font-size="10.00" fill="#000000">/AliceO2Group/AliceO2</text>
<text text-anchor="start" x="1793.5" y="-196.5" font-family="Helvetica,sans-Serif" font-size="10.00" fill="#000000">/Analysis/DataModel/include</text>
<text text-anchor="middle" x="1863" y="-185.5" font-family="Helvetica,sans-Serif" font-size="10.00" fill="#000000">/Analysis/EventSelection.h</text>
</g>
<!-- Node66 -->
<g id="node2" class="node">
<title>Node66</title>
<g id="a_node2"><a xlink:href="../../d4/dbd/ReducedInfoTables_8h.html" target="_top" xlink:title="/home/travis/build\l/AliceO2Group/AliceO2\l/Analysis/DataModel/include\l/Analysis/ReducedInfoTables.h">
<polygon fill="none" stroke="#000000" points="304,-89.5 304,-141.5 468,-141.5 468,-89.5 304,-89.5"/>
<text text-anchor="start" x="312" y="-129.5" font-family="Helvetica,sans-Serif" font-size="10.00" fill="#000000">/home/travis/build</text>
<text text-anchor="start" x="312" y="-118.5" font-family="Helvetica,sans-Serif" font-size="10.00" fill="#000000">/AliceO2Group/AliceO2</text>
<text text-anchor="start" x="312" y="-107.5" font-family="Helvetica,sans-Serif" font-size="10.00" fill="#000000">/Analysis/DataModel/include</text>
<text text-anchor="middle" x="386" y="-96.5" font-family="Helvetica,sans-Serif" font-size="10.00" fill="#000000">/Analysis/ReducedInfoTables.h</text>
</a>
</g>
</g>
<!-- Node65&#45;&gt;Node66 -->
<g id="edge1" class="edge">
<title>Node65&#45;&gt;Node66</title>
<path fill="none" stroke="#191970" d="M1775.2066,-202.52C1514.8009,-196.3221 749.4739,-175.6744 502,-142 490.9467,-140.4959 479.3951,-138.4473 468.0473,-136.1508"/>
<polygon fill="#191970" stroke="#191970" points="1775.2905,-206.0229 1785.3706,-202.7607 1775.4563,-199.0248 1775.2905,-206.0229"/>
</g>
<!-- Node69 -->
<g id="node5" class="node">
<title>Node69</title>
<g id="a_node5"><a xlink:href="../../d9/d14/tableMaker_8cxx.html" target="_top" xlink:title="/home/travis/build\l/AliceO2Group/AliceO2\l/Analysis/Tasks/PWGDQ\l/tableMaker.cxx">
<polygon fill="none" stroke="#000000" points="450,-.5 450,-52.5 582,-52.5 582,-.5 450,-.5"/>
<text text-anchor="start" x="458" y="-40.5" font-family="Helvetica,sans-Serif" font-size="10.00" fill="#000000">/home/travis/build</text>
<text text-anchor="start" x="458" y="-29.5" font-family="Helvetica,sans-Serif" font-size="10.00" fill="#000000">/AliceO2Group/AliceO2</text>
<text text-anchor="start" x="458" y="-18.5" font-family="Helvetica,sans-Serif" font-size="10.00" fill="#000000">/Analysis/Tasks/PWGDQ</text>
<text text-anchor="middle" x="516" y="-7.5" font-family="Helvetica,sans-Serif" font-size="10.00" fill="#000000">/tableMaker.cxx</text>
</a>
</g>
</g>
<!-- Node65&#45;&gt;Node69 -->
<g id="edge17" class="edge">
<title>Node65&#45;&gt;Node69</title>
<path fill="none" stroke="#191970" d="M1774.9937,-202.9471C1489.8547,-197.5694 606.9581,-178.0679 558,-142 529.9135,-121.3084 520.5712,-79.9344 517.4869,-52.7367"/>
<polygon fill="#191970" stroke="#191970" points="1775.2244,-206.4519 1785.2883,-203.14 1775.3556,-199.4532 1775.2244,-206.4519"/>
</g>
<!-- Node70 -->
<g id="node6" class="node">
<title>Node70</title>
<g id="a_node6"><a xlink:href="../../d8/d04/tableMaker__pp_8cxx.html" target="_top" xlink:title="/home/travis/build\l/AliceO2Group/AliceO2\l/Analysis/Tasks/PWGDQ\l/tableMaker_pp.cxx">
<polygon fill="none" stroke="#000000" points="600,-.5 600,-52.5 732,-52.5 732,-.5 600,-.5"/>
<text text-anchor="start" x="608" y="-40.5" font-family="Helvetica,sans-Serif" font-size="10.00" fill="#000000">/home/travis/build</text>
<text text-anchor="start" x="608" y="-29.5" font-family="Helvetica,sans-Serif" font-size="10.00" fill="#000000">/AliceO2Group/AliceO2</text>
<text text-anchor="start" x="608" y="-18.5" font-family="Helvetica,sans-Serif" font-size="10.00" fill="#000000">/Analysis/Tasks/PWGDQ</text>
<text text-anchor="middle" x="666" y="-7.5" font-family="Helvetica,sans-Serif" font-size="10.00" fill="#000000">/tableMaker_pp.cxx</text>
</a>
</g>
</g>
<!-- Node65&#45;&gt;Node70 -->
<g id="edge18" class="edge">
<title>Node65&#45;&gt;Node70</title>
<path fill="none" stroke="#191970" d="M1774.9678,-203.5293C1490.8852,-199.971 614.4406,-185.497 573,-142 556.7517,-124.9454 561.9237,-109.7889 573,-89 580.9581,-74.0635 594.2481,-62.0608 608.3269,-52.7229"/>
<polygon fill="#191970" stroke="#191970" points="1775.1831,-207.0322 1785.2257,-203.6563 1775.2698,-200.0327 1775.1831,-207.0322"/>
</g>
<!-- Node72 -->
<g id="node8" class="node">
<title>Node72</title>
<g id="a_node8"><a xlink:href="../../d5/d75/centralityQa_8cxx.html" target="_top" xlink:title="/home/travis/build\l/AliceO2Group/AliceO2\l/Analysis/Tasks/centralityQa.cxx">
<polygon fill="none" stroke="#000000" points="582,-95 582,-136 756,-136 756,-95 582,-95"/>
<text text-anchor="start" x="590" y="-124" font-family="Helvetica,sans-Serif" font-size="10.00" fill="#000000">/home/travis/build</text>
<text text-anchor="start" x="590" y="-113" font-family="Helvetica,sans-Serif" font-size="10.00" fill="#000000">/AliceO2Group/AliceO2</text>
<text text-anchor="middle" x="669" y="-102" font-family="Helvetica,sans-Serif" font-size="10.00" fill="#000000">/Analysis/Tasks/centralityQa.cxx</text>
</a>
</g>
</g>
<!-- Node65&#45;&gt;Node72 -->
<g id="edge7" class="edge">
<title>Node65&#45;&gt;Node72</title>
<path fill="none" stroke="#191970" d="M1775.0599,-201.8715C1550.4329,-194.7754 959.6469,-173.6084 766,-142 756.61,-140.4673 746.8218,-138.3861 737.2305,-136.0595"/>
<polygon fill="#191970" stroke="#191970" points="1775.0498,-205.3728 1785.1548,-202.1887 1775.2697,-198.3763 1775.0498,-205.3728"/>
</g>
<!-- Node73 -->
<g id="node9" class="node">
<title>Node73</title>
<g id="a_node9"><a xlink:href="../../d9/df1/eventSelection_8cxx.html" target="_top" xlink:title="/home/travis/build\l/AliceO2Group/AliceO2\l/Analysis/Tasks/eventSelection.cxx">
<polygon fill="none" stroke="#000000" points="774.5,-95 774.5,-136 961.5,-136 961.5,-95 774.5,-95"/>
<text text-anchor="start" x="782.5" y="-124" font-family="Helvetica,sans-Serif" font-size="10.00" fill="#000000">/home/travis/build</text>
<text text-anchor="start" x="782.5" y="-113" font-family="Helvetica,sans-Serif" font-size="10.00" fill="#000000">/AliceO2Group/AliceO2</text>
<text text-anchor="middle" x="868" y="-102" font-family="Helvetica,sans-Serif" font-size="10.00" fill="#000000">/Analysis/Tasks/eventSelection.cxx</text>
</a>
</g>
</g>
<!-- Node65&#45;&gt;Node73 -->
<g id="edge8" class="edge">
<title>Node65&#45;&gt;Node73</title>
<path fill="none" stroke="#191970" d="M1775.0409,-200.3781C1581.5584,-190.9787 1124.0828,-166.8437 971,-142 961.2492,-140.4175 951.0754,-138.3391 941.0814,-136.0412"/>
<polygon fill="#191970" stroke="#191970" points="1775.0123,-203.8807 1785.1699,-200.8684 1775.3508,-196.8889 1775.0123,-203.8807"/>
</g>
<!-- Node74 -->
<g id="node10" class="node">
<title>Node74</title>
<g id="a_node10"><a xlink:href="../../dd/d91/eventSelectionQa_8cxx.html" target="_top" xlink:title="/home/travis/build\l/AliceO2Group/AliceO2\l/Analysis/Tasks/eventSelection\lQa.cxx">
<polygon fill="none" stroke="#000000" points="979.5,-89.5 979.5,-141.5 1146.5,-141.5 1146.5,-89.5 979.5,-89.5"/>
<text text-anchor="start" x="987.5" y="-129.5" font-family="Helvetica,sans-Serif" font-size="10.00" fill="#000000">/home/travis/build</text>
<text text-anchor="start" x="987.5" y="-118.5" font-family="Helvetica,sans-Serif" font-size="10.00" fill="#000000">/AliceO2Group/AliceO2</text>
<text text-anchor="start" x="987.5" y="-107.5" font-family="Helvetica,sans-Serif" font-size="10.00" fill="#000000">/Analysis/Tasks/eventSelection</text>
<text text-anchor="middle" x="1063" y="-96.5" font-family="Helvetica,sans-Serif" font-size="10.00" fill="#000000">Qa.cxx</text>
</a>
</g>
</g>
<!-- Node65&#45;&gt;Node74 -->
<g id="edge9" class="edge">
<title>Node65&#45;&gt;Node74</title>
<path fill="none" stroke="#191970" d="M1775.2254,-202.0766C1640.8549,-197.1698 1376.5338,-182.7872 1156,-142 1152.9459,-141.4352 1149.8476,-140.8136 1146.7273,-140.1464"/>
<polygon fill="#191970" stroke="#191970" points="1775.3413,-205.5828 1785.4596,-202.4411 1775.5905,-198.5873 1775.3413,-205.5828"/>
</g>
<!-- Node75 -->
<g id="node11" class="node">
<title>Node75</title>
<g id="a_node11"><a xlink:href="../../d3/d6a/multiplicityQa_8cxx.html" target="_top" xlink:title="/home/travis/build\l/AliceO2Group/AliceO2\l/Analysis/Tasks/multiplicity\lQa.cxx">
<polygon fill="none" stroke="#000000" points="1164.5,-89.5 1164.5,-141.5 1313.5,-141.5 1313.5,-89.5 1164.5,-89.5"/>
<text text-anchor="start" x="1172.5" y="-129.5" font-family="Helvetica,sans-Serif" font-size="10.00" fill="#000000">/home/travis/build</text>
<text text-anchor="start" x="1172.5" y="-118.5" font-family="Helvetica,sans-Serif" font-size="10.00" fill="#000000">/AliceO2Group/AliceO2</text>
<text text-anchor="start" x="1172.5" y="-107.5" font-family="Helvetica,sans-Serif" font-size="10.00" fill="#000000">/Analysis/Tasks/multiplicity</text>
<text text-anchor="middle" x="1239" y="-96.5" font-family="Helvetica,sans-Serif" font-size="10.00" fill="#000000">Qa.cxx</text>
</a>
</g>
</g>
<!-- Node65&#45;&gt;Node75 -->
<g id="edge10" class="edge">
<title>Node65&#45;&gt;Node75</title>
<path fill="none" stroke="#191970" d="M1775.1901,-199.4885C1667.6443,-192.1727 1480.362,-175.6081 1323,-142 1320.0091,-141.3612 1316.9728,-140.6605 1313.9165,-139.9114"/>
<polygon fill="#191970" stroke="#191970" points="1775.1338,-202.9925 1785.3452,-200.1679 1775.6011,-196.0081 1775.1338,-202.9925"/>
</g>
<!-- Node76 -->
<g id="node12" class="node">
<title>Node76</title>
<g id="a_node12"><a xlink:href="../../d4/d23/multiplicityTable_8cxx.html" target="_top" xlink:title="/home/travis/build\l/AliceO2Group/AliceO2\l/Analysis/Tasks/multiplicity\lTable.cxx">
<polygon fill="none" stroke="#000000" points="1331.5,-89.5 1331.5,-141.5 1480.5,-141.5 1480.5,-89.5 1331.5,-89.5"/>
<text text-anchor="start" x="1339.5" y="-129.5" font-family="Helvetica,sans-Serif" font-size="10.00" fill="#000000">/home/travis/build</text>
<text text-anchor="start" x="1339.5" y="-118.5" font-family="Helvetica,sans-Serif" font-size="10.00" fill="#000000">/AliceO2Group/AliceO2</text>
<text text-anchor="start" x="1339.5" y="-107.5" font-family="Helvetica,sans-Serif" font-size="10.00" fill="#000000">/Analysis/Tasks/multiplicity</text>
<text text-anchor="middle" x="1406" y="-96.5" font-family="Helvetica,sans-Serif" font-size="10.00" fill="#000000">Table.cxx</text>
</a>
</g>
</g>
<!-- Node65&#45;&gt;Node76 -->
<g id="edge11" class="edge">
<title>Node65&#45;&gt;Node76</title>
<path fill="none" stroke="#191970" d="M1775.1978,-193.3164C1699.1669,-182.7949 1586.5371,-165.1956 1490,-142 1486.8776,-141.2498 1483.7022,-140.4443 1480.5035,-139.5977"/>
<polygon fill="#191970" stroke="#191970" points="1774.8296,-196.7986 1785.2126,-194.6906 1775.7813,-189.8636 1774.8296,-196.7986"/>
</g>
<!-- Node77 -->
<g id="node13" class="node">
<title>Node77</title>
<g id="a_node13"><a xlink:href="../../d9/d61/correlations_8cxx.html" target="_top" xlink:title="/home/travis/build\l/AliceO2Group/AliceO2\l/Analysis/Tasks/PWGCF\l/correlations.cxx">
<polygon fill="none" stroke="#000000" points="1498.5,-89.5 1498.5,-141.5 1627.5,-141.5 1627.5,-89.5 1498.5,-89.5"/>
<text text-anchor="start" x="1506.5" y="-129.5" font-family="Helvetica,sans-Serif" font-size="10.00" fill="#000000">/home/travis/build</text>
<text text-anchor="start" x="1506.5" y="-118.5" font-family="Helvetica,sans-Serif" font-size="10.00" fill="#000000">/AliceO2Group/AliceO2</text>
<text text-anchor="start" x="1506.5" y="-107.5" font-family="Helvetica,sans-Serif" font-size="10.00" fill="#000000">/Analysis/Tasks/PWGCF</text>
<text text-anchor="middle" x="1563" y="-96.5" font-family="Helvetica,sans-Serif" font-size="10.00" fill="#000000">/correlations.cxx</text>
</a>
</g>
</g>
<!-- Node65&#45;&gt;Node77 -->
<g id="edge12" class="edge">
<title>Node65&#45;&gt;Node77</title>
<path fill="none" stroke="#191970" d="M1775.7639,-181.9922C1733.6235,-170.7085 1682.4538,-156.402 1637,-142 1634.008,-141.052 1630.9563,-140.0604 1627.8797,-139.0407"/>
<polygon fill="#191970" stroke="#191970" points="1774.876,-185.3776 1785.4402,-184.5726 1776.6797,-178.614 1774.876,-185.3776"/>
</g>
<!-- Node78 -->
<g id="node14" class="node">
<title>Node78</title>
<g id="a_node14"><a xlink:href="../../d8/dc5/correlationsFiltered_8cxx.html" target="_top" xlink:title="/home/travis/build\l/AliceO2Group/AliceO2\l/Analysis/Tasks/PWGCF\l/correlationsFiltered.cxx">
<polygon fill="none" stroke="#000000" points="1646,-89.5 1646,-141.5 1780,-141.5 1780,-89.5 1646,-89.5"/>
<text text-anchor="start" x="1654" y="-129.5" font-family="Helvetica,sans-Serif" font-size="10.00" fill="#000000">/home/travis/build</text>
<text text-anchor="start" x="1654" y="-118.5" font-family="Helvetica,sans-Serif" font-size="10.00" fill="#000000">/AliceO2Group/AliceO2</text>
<text text-anchor="start" x="1654" y="-107.5" font-family="Helvetica,sans-Serif" font-size="10.00" fill="#000000">/Analysis/Tasks/PWGCF</text>
<text text-anchor="middle" x="1713" y="-96.5" font-family="Helvetica,sans-Serif" font-size="10.00" fill="#000000">/correlationsFiltered.cxx</text>
</a>
</g>
</g>
<!-- Node65&#45;&gt;Node78 -->
<g id="edge13" class="edge">
<title>Node65&#45;&gt;Node78</title>
<path fill="none" stroke="#191970" d="M1809.9083,-172.9989C1792.5513,-162.7004 1773.4781,-151.3837 1756.8778,-141.5341"/>
<polygon fill="#191970" stroke="#191970" points="1808.4202,-176.1857 1818.8064,-178.2784 1811.9922,-170.1656 1808.4202,-176.1857"/>
</g>
<!-- Node79 -->
<g id="node15" class="node">
<title>Node79</title>
<g id="a_node15"><a xlink:href="../../d4/d39/correlationsMixed_8cxx.html" target="_top" xlink:title="/home/travis/build\l/AliceO2Group/AliceO2\l/Analysis/Tasks/PWGCF\l/correlationsMixed.cxx">
<polygon fill="none" stroke="#000000" points="1798.5,-89.5 1798.5,-141.5 1927.5,-141.5 1927.5,-89.5 1798.5,-89.5"/>
<text text-anchor="start" x="1806.5" y="-129.5" font-family="Helvetica,sans-Serif" font-size="10.00" fill="#000000">/home/travis/build</text>
<text text-anchor="start" x="1806.5" y="-118.5" font-family="Helvetica,sans-Serif" font-size="10.00" fill="#000000">/AliceO2Group/AliceO2</text>
<text text-anchor="start" x="1806.5" y="-107.5" font-family="Helvetica,sans-Serif" font-size="10.00" fill="#000000">/Analysis/Tasks/PWGCF</text>
<text text-anchor="middle" x="1863" y="-96.5" font-family="Helvetica,sans-Serif" font-size="10.00" fill="#000000">/correlationsMixed.cxx</text>
</a>
</g>
</g>
<!-- Node65&#45;&gt;Node79 -->
<g id="edge14" class="edge">
<title>Node65&#45;&gt;Node79</title>
<path fill="none" stroke="#191970" d="M1863,-168.1155C1863,-159.2061 1863,-149.8475 1863,-141.5341"/>
<polygon fill="#191970" stroke="#191970" points="1859.5001,-168.2784 1863,-178.2784 1866.5001,-168.2785 1859.5001,-168.2784"/>
</g>
<!-- Node80 -->
<g id="node16" class="node">
<title>Node80</title>
<g id="a_node16"><a xlink:href="../../dc/db0/dptdptcorrelations_8cxx.html" target="_top" xlink:title="/home/travis/build\l/AliceO2Group/AliceO2\l/Analysis/Tasks/PWGCF\l/dptdptcorrelations.cxx">
<polygon fill="none" stroke="#000000" points="1945.5,-89.5 1945.5,-141.5 2074.5,-141.5 2074.5,-89.5 1945.5,-89.5"/>
<text text-anchor="start" x="1953.5" y="-129.5" font-family="Helvetica,sans-Serif" font-size="10.00" fill="#000000">/home/travis/build</text>
<text text-anchor="start" x="1953.5" y="-118.5" font-family="Helvetica,sans-Serif" font-size="10.00" fill="#000000">/AliceO2Group/AliceO2</text>
<text text-anchor="start" x="1953.5" y="-107.5" font-family="Helvetica,sans-Serif" font-size="10.00" fill="#000000">/Analysis/Tasks/PWGCF</text>
<text text-anchor="middle" x="2010" y="-96.5" font-family="Helvetica,sans-Serif" font-size="10.00" fill="#000000">/dptdptcorrelations.cxx</text>
</a>
</g>
</g>
<!-- Node65&#45;&gt;Node80 -->
<g id="edge15" class="edge">
<title>Node65&#45;&gt;Node80</title>
<path fill="none" stroke="#191970" d="M1915.0298,-172.9989C1932.0398,-162.7004 1950.7314,-151.3837 1966.9998,-141.5341"/>
<polygon fill="#191970" stroke="#191970" points="1913.0514,-170.1052 1906.3098,-178.2784 1916.6768,-176.0933 1913.0514,-170.1052"/>
</g>
<!-- Node81 -->
<g id="node17" class="node">
<title>Node81</title>
<g id="a_node17"><a xlink:href="../../d9/d63/filterCF_8cxx.html" target="_top" xlink:title="/home/travis/build\l/AliceO2Group/AliceO2\l/Analysis/Tasks/PWGCF\l/filterCF.cxx">
<polygon fill="none" stroke="#000000" points="2092.5,-89.5 2092.5,-141.5 2221.5,-141.5 2221.5,-89.5 2092.5,-89.5"/>
<text text-anchor="start" x="2100.5" y="-129.5" font-family="Helvetica,sans-Serif" font-size="10.00" fill="#000000">/home/travis/build</text>
<text text-anchor="start" x="2100.5" y="-118.5" font-family="Helvetica,sans-Serif" font-size="10.00" fill="#000000">/AliceO2Group/AliceO2</text>
<text text-anchor="start" x="2100.5" y="-107.5" font-family="Helvetica,sans-Serif" font-size="10.00" fill="#000000">/Analysis/Tasks/PWGCF</text>
<text text-anchor="middle" x="2157" y="-96.5" font-family="Helvetica,sans-Serif" font-size="10.00" fill="#000000">/filterCF.cxx</text>
</a>
</g>
</g>
<!-- Node65&#45;&gt;Node81 -->
<g id="edge16" class="edge">
<title>Node65&#45;&gt;Node81</title>
<path fill="none" stroke="#191970" d="M1950.2829,-181.3878C1991.1077,-170.1766 2040.2602,-156.1035 2084,-142 2086.6948,-141.1311 2089.4387,-140.2264 2092.2055,-139.2977"/>
<polygon fill="#191970" stroke="#191970" points="1949.3542,-178.0132 1940.632,-184.0276 1951.2011,-184.7652 1949.3542,-178.0132"/>
</g>
<!-- Node82 -->
<g id="node18" class="node">
<title>Node82</title>
<g id="a_node18"><a xlink:href="../../d2/d15/cascadeconsumer_8cxx.html" target="_top" xlink:title="/home/travis/build\l/AliceO2Group/AliceO2\l/Analysis/Tasks/PWGLF\l/cascadeconsumer.cxx">
<polygon fill="none" stroke="#000000" points="2240,-89.5 2240,-141.5 2368,-141.5 2368,-89.5 2240,-89.5"/>
<text text-anchor="start" x="2248" y="-129.5" font-family="Helvetica,sans-Serif" font-size="10.00" fill="#000000">/home/travis/build</text>
<text text-anchor="start" x="2248" y="-118.5" font-family="Helvetica,sans-Serif" font-size="10.00" fill="#000000">/AliceO2Group/AliceO2</text>
<text text-anchor="start" x="2248" y="-107.5" font-family="Helvetica,sans-Serif" font-size="10.00" fill="#000000">/Analysis/Tasks/PWGLF</text>
<text text-anchor="middle" x="2304" y="-96.5" font-family="Helvetica,sans-Serif" font-size="10.00" fill="#000000">/cascadeconsumer.cxx</text>
</a>
</g>
</g>
<!-- Node65&#45;&gt;Node82 -->
<g id="edge19" class="edge">
<title>Node65&#45;&gt;Node82</title>
<path fill="none" stroke="#191970" d="M1951.0527,-194.0795C2026.2035,-184.1116 2136.7511,-166.8933 2231,-142 2233.8679,-141.2425 2236.782,-140.4195 2239.7131,-139.5479"/>
<polygon fill="#191970" stroke="#191970" points="1950.1492,-190.6679 1940.6889,-195.4379 1951.059,-197.6085 1950.1492,-190.6679"/>
</g>
<!-- Node83 -->
<g id="node19" class="node">
<title>Node83</title>
<g id="a_node19"><a xlink:href="../../d0/dd5/cascadefinder_8cxx.html" target="_top" xlink:title="/home/travis/build\l/AliceO2Group/AliceO2\l/Analysis/Tasks/PWGLF\l/cascadefinder.cxx">
<polygon fill="none" stroke="#000000" points="2386,-89.5 2386,-141.5 2514,-141.5 2514,-89.5 2386,-89.5"/>
<text text-anchor="start" x="2394" y="-129.5" font-family="Helvetica,sans-Serif" font-size="10.00" fill="#000000">/home/travis/build</text>
<text text-anchor="start" x="2394" y="-118.5" font-family="Helvetica,sans-Serif" font-size="10.00" fill="#000000">/AliceO2Group/AliceO2</text>
<text text-anchor="start" x="2394" y="-107.5" font-family="Helvetica,sans-Serif" font-size="10.00" fill="#000000">/Analysis/Tasks/PWGLF</text>
<text text-anchor="middle" x="2450" y="-96.5" font-family="Helvetica,sans-Serif" font-size="10.00" fill="#000000">/cascadefinder.cxx</text>
</a>
</g>
</g>
<!-- Node65&#45;&gt;Node83 -->
<g id="edge20" class="edge">
<title>Node65&#45;&gt;Node83</title>
<path fill="none" stroke="#191970" d="M1950.6609,-199.9144C2053.836,-193.127 2229.7731,-177.1891 2377,-142 2379.885,-141.3105 2382.8132,-140.5437 2385.756,-139.7182"/>
<polygon fill="#191970" stroke="#191970" points="1950.3539,-196.4268 1940.5996,-200.5624 1950.8039,-203.4123 1950.3539,-196.4268"/>
</g>
<!-- Node84 -->
<g id="node20" class="node">
<title>Node84</title>
<g id="a_node20"><a xlink:href="../../d4/d77/lambdakzeroconsumer_8cxx.html" target="_top" xlink:title="/home/travis/build\l/AliceO2Group/AliceO2\l/Analysis/Tasks/PWGLF\l/lambdakzeroconsumer.cxx">
<polygon fill="none" stroke="#000000" points="2532.5,-89.5 2532.5,-141.5 2683.5,-141.5 2683.5,-89.5 2532.5,-89.5"/>
<text text-anchor="start" x="2540.5" y="-129.5" font-family="Helvetica,sans-Serif" font-size="10.00" fill="#000000">/home/travis/build</text>
<text text-anchor="start" x="2540.5" y="-118.5" font-family="Helvetica,sans-Serif" font-size="10.00" fill="#000000">/AliceO2Group/AliceO2</text>
<text text-anchor="start" x="2540.5" y="-107.5" font-family="Helvetica,sans-Serif" font-size="10.00" fill="#000000">/Analysis/Tasks/PWGLF</text>
<text text-anchor="middle" x="2608" y="-96.5" font-family="Helvetica,sans-Serif" font-size="10.00" fill="#000000">/lambdakzeroconsumer.cxx</text>
</a>
</g>
</g>
<!-- Node65&#45;&gt;Node84 -->
<g id="edge21" class="edge">
<title>Node65&#45;&gt;Node84</title>
<path fill="none" stroke="#191970" d="M1950.814,-201.9774C2078.0845,-197.0174 2320.7115,-182.6512 2523,-142 2526.0309,-141.3909 2529.107,-140.7153 2532.2028,-139.9872"/>
<polygon fill="#191970" stroke="#191970" points="1950.5911,-198.4832 1940.731,-202.36 1950.8565,-205.4782 1950.5911,-198.4832"/>
</g>
<!-- Node85 -->
<g id="node21" class="node">
<title>Node85</title>
<g id="a_node21"><a xlink:href="../../d5/d6e/lambdakzerofinder_8cxx.html" target="_top" xlink:title="/home/travis/build\l/AliceO2Group/AliceO2\l/Analysis/Tasks/PWGLF\l/lambdakzerofinder.cxx">
<polygon fill="none" stroke="#000000" points="2701.5,-89.5 2701.5,-141.5 2832.5,-141.5 2832.5,-89.5 2701.5,-89.5"/>
<text text-anchor="start" x="2709.5" y="-129.5" font-family="Helvetica,sans-Serif" font-size="10.00" fill="#000000">/home/travis/build</text>
<text text-anchor="start" x="2709.5" y="-118.5" font-family="Helvetica,sans-Serif" font-size="10.00" fill="#000000">/AliceO2Group/AliceO2</text>
<text text-anchor="start" x="2709.5" y="-107.5" font-family="Helvetica,sans-Serif" font-size="10.00" fill="#000000">/Analysis/Tasks/PWGLF</text>
<text text-anchor="middle" x="2767" y="-96.5" font-family="Helvetica,sans-Serif" font-size="10.00" fill="#000000">/lambdakzerofinder.cxx</text>
</a>
</g>
</g>
<!-- Node65&#45;&gt;Node85 -->
<g id="edge22" class="edge">
<title>Node65&#45;&gt;Node85</title>
<path fill="none" stroke="#191970" d="M1950.965,-200.8671C2134.6153,-192.7935 2553.3239,-171.7008 2693,-142 2695.803,-141.404 2698.6441,-140.7274 2701.4982,-139.9875"/>
<polygon fill="#191970" stroke="#191970" points="1950.6421,-197.3778 1940.8045,-201.311 1950.9477,-204.3711 1950.6421,-197.3778"/>
</g>
<!-- Node86 -->
<g id="node22" class="node">
<title>Node86</title>
<g id="a_node22"><a xlink:href="../../df/dc5/raacharged_8cxx.html" target="_top" xlink:title="/home/travis/build\l/AliceO2Group/AliceO2\l/Analysis/Tasks/PWGLF\l/raacharged.cxx">
<polygon fill="none" stroke="#000000" points="2851,-89.5 2851,-141.5 2979,-141.5 2979,-89.5 2851,-89.5"/>
<text text-anchor="start" x="2859" y="-129.5" font-family="Helvetica,sans-Serif" font-size="10.00" fill="#000000">/home/travis/build</text>
<text text-anchor="start" x="2859" y="-118.5" font-family="Helvetica,sans-Serif" font-size="10.00" fill="#000000">/AliceO2Group/AliceO2</text>
<text text-anchor="start" x="2859" y="-107.5" font-family="Helvetica,sans-Serif" font-size="10.00" fill="#000000">/Analysis/Tasks/PWGLF</text>
<text text-anchor="middle" x="2915" y="-96.5" font-family="Helvetica,sans-Serif" font-size="10.00" fill="#000000">/raacharged.cxx</text>
</a>
</g>
</g>
<!-- Node65&#45;&gt;Node86 -->
<g id="edge23" class="edge">
<title>Node65&#45;&gt;Node86</title>
<path fill="none" stroke="#191970" d="M1951.0385,-202.0805C2158.4764,-195.863 2673.1386,-177.2838 2842,-142 2844.9035,-141.3933 2847.8471,-140.6952 2850.8025,-139.9258"/>
<polygon fill="#191970" stroke="#191970" points="1950.6901,-198.5892 1940.7985,-202.3848 1950.8981,-205.5861 1950.6901,-198.5892"/>
</g>
<!-- Node87 -->
<g id="node23" class="node">
<title>Node87</title>
<g id="a_node23"><a xlink:href="../../dc/d19/dNdetaRun2Tracklets_8cxx.html" target="_top" xlink:title="/home/travis/build\l/AliceO2Group/AliceO2\l/Analysis/Tasks/PWGMM\l/dNdetaRun2Tracklets.cxx">
<polygon fill="none" stroke="#000000" points="2997.5,-89.5 2997.5,-141.5 3140.5,-141.5 3140.5,-89.5 2997.5,-89.5"/>
<text text-anchor="start" x="3005.5" y="-129.5" font-family="Helvetica,sans-Serif" font-size="10.00" fill="#000000">/home/travis/build</text>
<text text-anchor="start" x="3005.5" y="-118.5" font-family="Helvetica,sans-Serif" font-size="10.00" fill="#000000">/AliceO2Group/AliceO2</text>
<text text-anchor="start" x="3005.5" y="-107.5" font-family="Helvetica,sans-Serif" font-size="10.00" fill="#000000">/Analysis/Tasks/PWGMM</text>
<text text-anchor="middle" x="3069" y="-96.5" font-family="Helvetica,sans-Serif" font-size="10.00" fill="#000000">/dNdetaRun2Tracklets.cxx</text>
</a>
</g>
</g>
<!-- Node65&#45;&gt;Node87 -->
<g id="edge24" class="edge">
<title>Node65&#45;&gt;Node87</title>
<path fill="none" stroke="#191970" d="M1950.8139,-202.5754C2179.52,-197.0905 2789.5528,-179.3103 2988,-142 2991.0536,-141.4259 2994.1514,-140.7676 2997.2654,-140.0429"/>
<polygon fill="#191970" stroke="#191970" points="1950.4558,-199.0829 1940.5418,-202.8197 1950.6222,-206.0809 1950.4558,-199.0829"/>
</g>
<!-- Node88 -->
<g id="node24" class="node">
<title>Node88</title>
<g id="a_node24"><a xlink:href="../../d2/d9d/upcAnalysis_8cxx.html" target="_top" xlink:title="/home/travis/build\l/AliceO2Group/AliceO2\l/Analysis/Tasks/PWGUD\l/upcAnalysis.cxx">
<polygon fill="none" stroke="#000000" points="3159,-89.5 3159,-141.5 3291,-141.5 3291,-89.5 3159,-89.5"/>
<text text-anchor="start" x="3167" y="-129.5" font-family="Helvetica,sans-Serif" font-size="10.00" fill="#000000">/home/travis/build</text>
<text text-anchor="start" x="3167" y="-118.5" font-family="Helvetica,sans-Serif" font-size="10.00" fill="#000000">/AliceO2Group/AliceO2</text>
<text text-anchor="start" x="3167" y="-107.5" font-family="Helvetica,sans-Serif" font-size="10.00" fill="#000000">/Analysis/Tasks/PWGUD</text>
<text text-anchor="middle" x="3225" y="-96.5" font-family="Helvetica,sans-Serif" font-size="10.00" fill="#000000">/upcAnalysis.cxx</text>
</a>
</g>
</g>
<!-- Node65&#45;&gt;Node88 -->
<g id="edge25" class="edge">
<title>Node65&#45;&gt;Node88</title>
<path fill="none" stroke="#191970" d="M1950.9736,-203.552C2202.2197,-200.3176 2919.6983,-187.2674 3150,-142 3152.8456,-141.4407 3155.729,-140.7948 3158.6249,-140.0803"/>
<polygon fill="#191970" stroke="#191970" points="1950.7518,-200.0544 1940.797,-203.6809 1950.8406,-207.0539 1950.7518,-200.0544"/>
</g>
<!-- Node89 -->
<g id="node25" class="node">
<title>Node89</title>
<g id="a_node25"><a xlink:href="../../d4/d5e/reducedEventAnalysis_8cxx.html" target="_top" xlink:title="/home/travis/build\l/AliceO2Group/AliceO2\l/Analysis/Tasks/reducedEvent\lAnalysis.cxx">
<polygon fill="none" stroke="#000000" points="3309.5,-89.5 3309.5,-141.5 3470.5,-141.5 3470.5,-89.5 3309.5,-89.5"/>
<text text-anchor="start" x="3317.5" y="-129.5" font-family="Helvetica,sans-Serif" font-size="10.00" fill="#000000">/home/travis/build</text>
<text text-anchor="start" x="3317.5" y="-118.5" font-family="Helvetica,sans-Serif" font-size="10.00" fill="#000000">/AliceO2Group/AliceO2</text>
<text text-anchor="start" x="3317.5" y="-107.5" font-family="Helvetica,sans-Serif" font-size="10.00" fill="#000000">/Analysis/Tasks/reducedEvent</text>
<text text-anchor="middle" x="3390" y="-96.5" font-family="Helvetica,sans-Serif" font-size="10.00" fill="#000000">Analysis.cxx</text>
</a>
</g>
</g>
<!-- Node65&#45;&gt;Node89 -->
<g id="edge26" class="edge">
<title>Node65&#45;&gt;Node89</title>
<path fill="none" stroke="#191970" d="M1951.1075,-203.4669C2221.7354,-199.8523 3038.408,-185.5343 3300,-142 3303.0528,-141.492 3306.1482,-140.9133 3309.263,-140.2775"/>
<polygon fill="#191970" stroke="#191970" points="1950.8939,-199.9694 1940.941,-203.6011 1950.9864,-206.9687 1950.8939,-199.9694"/>
</g>
<!-- Node67 -->
<g id="node3" class="node">
<title>Node67</title>
<g id="a_node3"><a xlink:href="../../d4/d14/dileptonEE_8cxx.html" target="_top" xlink:title="/home/travis/build\l/AliceO2Group/AliceO2\l/Analysis/Tasks/PWGDQ\l/dileptonEE.cxx">
<polygon fill="none" stroke="#000000" points="0,-.5 0,-52.5 132,-52.5 132,-.5 0,-.5"/>
<text text-anchor="start" x="8" y="-40.5" font-family="Helvetica,sans-Serif" font-size="10.00" fill="#000000">/home/travis/build</text>
<text text-anchor="start" x="8" y="-29.5" font-family="Helvetica,sans-Serif" font-size="10.00" fill="#000000">/AliceO2Group/AliceO2</text>
<text text-anchor="start" x="8" y="-18.5" font-family="Helvetica,sans-Serif" font-size="10.00" fill="#000000">/Analysis/Tasks/PWGDQ</text>
<text text-anchor="middle" x="66" y="-7.5" font-family="Helvetica,sans-Serif" font-size="10.00" fill="#000000">/dileptonEE.cxx</text>
</a>
</g>
</g>
<!-- Node66&#45;&gt;Node67 -->
<g id="edge2" class="edge">
<title>Node66&#45;&gt;Node67</title>
<path fill="none" stroke="#191970" d="M293.838,-94.0666C247.6766,-82.8059 191.0902,-68.2048 141,-53 138.0928,-52.1175 135.1315,-51.191 132.1466,-50.2346"/>
<polygon fill="#191970" stroke="#191970" points="293.2808,-97.5329 303.8242,-96.4903 294.9319,-90.7304 293.2808,-97.5329"/>
</g>
<!-- Node68 -->
<g id="node4" class="node">
<title>Node68</title>
<g id="a_node4"><a xlink:href="../../d7/deb/dileptonMuMu_8cxx.html" target="_top" xlink:title="/home/travis/build\l/AliceO2Group/AliceO2\l/Analysis/Tasks/PWGDQ\l/dileptonMuMu.cxx">
<polygon fill="none" stroke="#000000" points="150,-.5 150,-52.5 282,-52.5 282,-.5 150,-.5"/>
<text text-anchor="start" x="158" y="-40.5" font-family="Helvetica,sans-Serif" font-size="10.00" fill="#000000">/home/travis/build</text>
<text text-anchor="start" x="158" y="-29.5" font-family="Helvetica,sans-Serif" font-size="10.00" fill="#000000">/AliceO2Group/AliceO2</text>
<text text-anchor="start" x="158" y="-18.5" font-family="Helvetica,sans-Serif" font-size="10.00" fill="#000000">/Analysis/Tasks/PWGDQ</text>
<text text-anchor="middle" x="216" y="-7.5" font-family="Helvetica,sans-Serif" font-size="10.00" fill="#000000">/dileptonMuMu.cxx</text>
</a>
</g>
</g>
<!-- Node66&#45;&gt;Node68 -->
<g id="edge3" class="edge">
<title>Node66&#45;&gt;Node68</title>
<path fill="none" stroke="#191970" d="M326.9103,-84.5648C306.9523,-74.1162 284.8871,-62.5644 265.7282,-52.5341"/>
<polygon fill="#191970" stroke="#191970" points="325.4312,-87.741 335.9139,-89.2784 328.6779,-81.5395 325.4312,-87.741"/>
</g>
<!-- Node66&#45;&gt;Node69 -->
<g id="edge4" class="edge">
<title>Node66&#45;&gt;Node69</title>
<path fill="none" stroke="#191970" d="M432.8423,-83.431C447.6615,-73.2856 463.8496,-62.203 477.9726,-52.5341"/>
<polygon fill="#191970" stroke="#191970" points="430.5755,-80.7412 424.3012,-89.2784 434.5299,-86.5173 430.5755,-80.7412"/>
</g>
<!-- Node66&#45;&gt;Node70 -->
<g id="edge5" class="edge">
<title>Node66&#45;&gt;Node70</title>
<path fill="none" stroke="#191970" d="M477.9066,-88.4141C513.3573,-77.7222 554.1698,-65.1146 591,-53 593.886,-52.0507 596.8299,-51.0688 599.8004,-50.0671"/>
<polygon fill="#191970" stroke="#191970" points="476.6254,-85.1445 468.0576,-91.377 478.642,-91.8478 476.6254,-85.1445"/>
</g>
<!-- Node71 -->
<g id="node7" class="node">
<title>Node71</title>
<g id="a_node7"><a xlink:href="../../d8/d43/tableReader_8cxx.html" target="_top" xlink:title="/home/travis/build\l/AliceO2Group/AliceO2\l/Analysis/Tasks/PWGDQ\l/tableReader.cxx">
<polygon fill="none" stroke="#000000" points="300,-.5 300,-52.5 432,-52.5 432,-.5 300,-.5"/>
<text text-anchor="start" x="308" y="-40.5" font-family="Helvetica,sans-Serif" font-size="10.00" fill="#000000">/home/travis/build</text>
<text text-anchor="start" x="308" y="-29.5" font-family="Helvetica,sans-Serif" font-size="10.00" fill="#000000">/AliceO2Group/AliceO2</text>
<text text-anchor="start" x="308" y="-18.5" font-family="Helvetica,sans-Serif" font-size="10.00" fill="#000000">/Analysis/Tasks/PWGDQ</text>
<text text-anchor="middle" x="366" y="-7.5" font-family="Helvetica,sans-Serif" font-size="10.00" fill="#000000">/tableReader.cxx</text>
</a>
</g>
</g>
<!-- Node66&#45;&gt;Node71 -->
<g id="edge6" class="edge">
<title>Node66&#45;&gt;Node71</title>
<path fill="none" stroke="#191970" d="M377.889,-79.4059C375.8673,-70.4097 373.7389,-60.9379 371.8504,-52.5341"/>
<polygon fill="#191970" stroke="#191970" points="374.5001,-80.2892 380.1075,-89.2784 381.3298,-78.7543 374.5001,-80.2892"/>
</g>
</g>
</svg>
