<?xml version="1.0" encoding="UTF-8" standalone="no"?>
<!DOCTYPE svg PUBLIC "-//W3C//DTD SVG 1.1//EN"
 "http://www.w3.org/Graphics/SVG/1.1/DTD/svg11.dtd">
<!-- Generated by graphviz version 2.40.1 (20161225.0304)
 -->
<!-- Title: /home/travis/build/AliceO2Group/AliceO2/DataFormats/Detectors/FIT/FV0/src/Hit.cxx Pages: 1 -->
<!--zoomable 374 -->
<svg id="main" version="1.1" xmlns="http://www.w3.org/2000/svg" xmlns:xlink="http://www.w3.org/1999/xlink" xml:space="preserve" onload="init(evt)">
<style type="text/css"><![CDATA[
.edge:hover path { stroke: red; }
.edge:hover polygon { stroke: red; fill: red; }
]]></style>
<script type="text/javascript"><![CDATA[
var edges = document.getElementsByTagName('g');
if (edges && edges.length) {
  for (var i=0;i<edges.length;i++) {
    if (edges[i].id.substr(0,4)=='edge') {
      edges[i].setAttribute('class','edge');
    }
  }
}
]]></script>
        <defs>
                <circle id="rim" cx="0" cy="0" r="7"/>
                <circle id="rim2" cx="0" cy="0" r="3.5"/>
                <g id="zoomPlus">
                        <use xlink:href="#rim" fill="#404040">
                                <set attributeName="fill" to="#808080" begin="zoomplus.mouseover" end="zoomplus.mouseout"/>
                        </use>
                        <path d="M-4,0h8M0,-4v8" fill="none" stroke="white" stroke-width="1.5" pointer-events="none"/>
                </g>
                <g id="zoomMin">
                        <use xlink:href="#rim" fill="#404040">
                                <set attributeName="fill" to="#808080" begin="zoomminus.mouseover" end="zoomminus.mouseout"/>
                        </use>
                        <path d="M-4,0h8" fill="none" stroke="white" stroke-width="1.5" pointer-events="none"/>
                </g>
                <g id="dirArrow">
                        <path fill="none" stroke="white" stroke-width="1.5" d="M0,-3.0v7 M-2.5,-0.5L0,-3.0L2.5,-0.5"/>
                </g>
               <g id="resetDef">
                       <use xlink:href="#rim2" fill="#404040">
                               <set attributeName="fill" to="#808080" begin="reset.mouseover" end="reset.mouseout"/>
                       </use>
               </g>
        </defs>

<script type="text/javascript">
var viewWidth = 1861;
var viewHeight = 374;
var sectionId = 'dynsection-0';
</script>
<script xlink:href="../../svgpan.js"/>
<svg id="graph" class="graph">
<g id="viewport">
<title>/home/travis/build/AliceO2Group/AliceO2/DataFormats/Detectors/FIT/FV0/src/Hit.cxx</title>
<!-- Node0 -->
<g id="node1" class="node">
<title>Node0</title>
<polygon fill="#bfbfbf" stroke="#000000" points="1104,-313.5 1104,-365.5 1237,-365.5 1237,-313.5 1104,-313.5"/>
<text text-anchor="start" x="1112" y="-353.5" font-family="Helvetica,sans-Serif" font-size="10.00" fill="#000000">/home/travis/build</text>
<text text-anchor="start" x="1112" y="-342.5" font-family="Helvetica,sans-Serif" font-size="10.00" fill="#000000">/AliceO2Group/AliceO2</text>
<text text-anchor="start" x="1112" y="-331.5" font-family="Helvetica,sans-Serif" font-size="10.00" fill="#000000">/DataFormats/Detectors</text>
<text text-anchor="middle" x="1170.5" y="-320.5" font-family="Helvetica,sans-Serif" font-size="10.00" fill="#000000">/FIT/FV0/src/Hit.cxx</text>
</g>
<!-- Node1 -->
<g id="node2" class="node">
<title>Node1</title>
<g id="a_node2"><a xlink:href="../../d7/dd7/DataFormats_2Detectors_2FIT_2FV0_2include_2DataFormatsFV0_2Hit_8h.html" target="_top" xlink:title="DataFormatsFV0/Hit.h">
<polygon fill="none" stroke="#000000" points="1053.5,-257.5 1053.5,-276.5 1177.5,-276.5 1177.5,-257.5 1053.5,-257.5"/>
<text text-anchor="middle" x="1115.5" y="-264.5" font-family="Helvetica,sans-Serif" font-size="10.00" fill="#000000">DataFormatsFV0/Hit.h</text>
</a>
</g>
</g>
<!-- Node0&#45;&gt;Node1 -->
<g id="edge1" class="edge">
<title>Node0&#45;&gt;Node1</title>
<path fill="none" stroke="#191970" d="M1150.6437,-313.3258C1143.4273,-303.8132 1135.448,-293.2951 1128.9189,-284.6886"/>
<polygon fill="#191970" stroke="#191970" points="1131.565,-282.3856 1122.7327,-276.534 1125.9882,-286.6163 1131.565,-282.3856"/>
</g>
<!-- Node24 -->
<g id="node25" class="node">
<title>Node24</title>
<polygon fill="none" stroke="#bfbfbf" points="1195.5,-257.5 1195.5,-276.5 1255.5,-276.5 1255.5,-257.5 1195.5,-257.5"/>
<text text-anchor="middle" x="1225.5" y="-264.5" font-family="Helvetica,sans-Serif" font-size="10.00" fill="#000000">iostream</text>
</g>
<!-- Node0&#45;&gt;Node24 -->
<g id="edge26" class="edge">
<title>Node0&#45;&gt;Node24</title>
<path fill="none" stroke="#191970" d="M1190.3563,-313.3258C1197.5727,-303.8132 1205.552,-293.2951 1212.0811,-284.6886"/>
<polygon fill="#191970" stroke="#191970" points="1215.0118,-286.6163 1218.2673,-276.534 1209.435,-282.3856 1215.0118,-286.6163"/>
</g>
<!-- Node2 -->
<g id="node3" class="node">
<title>Node2</title>
<polygon fill="none" stroke="#bfbfbf" points="0,-73 0,-92 49,-92 49,-73 0,-73"/>
<text text-anchor="middle" x="24.5" y="-80" font-family="Helvetica,sans-Serif" font-size="10.00" fill="#000000">iosfwd</text>
</g>
<!-- Node1&#45;&gt;Node2 -->
<g id="edge2" class="edge">
<title>Node1&#45;&gt;Node2</title>
<path fill="none" stroke="#191970" d="M1053.433,-262.9256C888.3317,-250.8462 425.8844,-208.8896 58.5,-98 56.5903,-97.4236 54.6488,-96.762 52.7107,-96.044"/>
<polygon fill="#191970" stroke="#191970" points="53.7902,-92.7031 43.2116,-92.1175 51.1162,-99.1722 53.7902,-92.7031"/>
</g>
<!-- Node3 -->
<g id="node4" class="node">
<title>Node3</title>
<g id="a_node4"><a xlink:href="../../d4/d25/BaseHits_8h.html" target="_top" xlink:title="SimulationDataFormat\l/BaseHits.h">
<polygon fill="none" stroke="#000000" points="855,-190.5 855,-220.5 982,-220.5 982,-190.5 855,-190.5"/>
<text text-anchor="start" x="863" y="-208.5" font-family="Helvetica,sans-Serif" font-size="10.00" fill="#000000">SimulationDataFormat</text>
<text text-anchor="middle" x="918.5" y="-197.5" font-family="Helvetica,sans-Serif" font-size="10.00" fill="#000000">/BaseHits.h</text>
</a>
</g>
</g>
<!-- Node1&#45;&gt;Node3 -->
<g id="edge3" class="edge">
<title>Node1&#45;&gt;Node3</title>
<path fill="none" stroke="#191970" d="M1084.7188,-257.3906C1055.8354,-248.3737 1011.8951,-234.6563 976.4455,-223.5896"/>
<polygon fill="#191970" stroke="#191970" points="977.2803,-220.1837 966.6916,-220.5446 975.1943,-226.8656 977.2803,-220.1837"/>
</g>
<!-- Node10 -->
<g id="node11" class="node">
<title>Node10</title>
<polygon fill="none" stroke="#bfbfbf" points="1267,-73 1267,-92 1326,-92 1326,-73 1267,-73"/>
<text text-anchor="middle" x="1296.5" y="-80" font-family="Helvetica,sans-Serif" font-size="10.00" fill="#000000">Rtypes.h</text>
</g>
<!-- Node1&#45;&gt;Node10 -->
<g id="edge16" class="edge">
<title>Node1&#45;&gt;Node10</title>
<path fill="none" stroke="#191970" d="M1115.7024,-257.0696C1116.4807,-241.431 1119.9153,-210.7159 1134.5,-190 1166.6963,-144.2687 1225.0801,-112.7018 1262.2645,-96.1215"/>
<polygon fill="#191970" stroke="#191970" points="1263.9077,-99.224 1271.6914,-92.0362 1261.1242,-92.8012 1263.9077,-99.224"/>
</g>
<!-- Node15 -->
<g id="node16" class="node">
<title>Node15</title>
<polygon fill="none" stroke="#bfbfbf" points="1143.5,-196 1143.5,-215 1211.5,-215 1211.5,-196 1143.5,-196"/>
<text text-anchor="middle" x="1177.5" y="-203" font-family="Helvetica,sans-Serif" font-size="10.00" fill="#000000">TVector3.h</text>
</g>
<!-- Node1&#45;&gt;Node15 -->
<g id="edge17" class="edge">
<title>Node1&#45;&gt;Node15</title>
<path fill="none" stroke="#191970" d="M1125.1875,-257.3906C1134.5959,-248.0581 1149.0807,-233.6902 1160.4249,-222.4374"/>
<polygon fill="#191970" stroke="#191970" points="1163.0411,-224.7722 1167.6759,-215.2449 1158.1114,-219.8024 1163.0411,-224.7722"/>
</g>
<!-- Node16 -->
<g id="node17" class="node">
<title>Node16</title>
<g id="a_node17"><a xlink:href="../../d0/d91/ShmAllocator_8h.html" target="_top" xlink:title="CommonUtils/ShmAllocator.h">
<polygon fill="none" stroke="#000000" points="1376.5,-196 1376.5,-215 1536.5,-215 1536.5,-196 1376.5,-196"/>
<text text-anchor="middle" x="1456.5" y="-203" font-family="Helvetica,sans-Serif" font-size="10.00" fill="#000000">CommonUtils/ShmAllocator.h</text>
</a>
</g>
</g>
<!-- Node1&#45;&gt;Node16 -->
<g id="edge18" class="edge">
<title>Node1&#45;&gt;Node16</title>
<path fill="none" stroke="#191970" d="M1168.4071,-257.4581C1229.2254,-246.4894 1328.9647,-228.5012 1393.6757,-216.8305"/>
<polygon fill="#191970" stroke="#191970" points="1394.5294,-220.2331 1403.7494,-215.0137 1393.2869,-213.3442 1394.5294,-220.2331"/>
</g>
<!-- Node4 -->
<g id="node5" class="node">
<title>Node4</title>
<g id="a_node5"><a xlink:href="../../dd/d76/Cartesian3D_8h.html" target="_top" xlink:title="MathUtils/Cartesian3D.h">
<polygon fill="none" stroke="#000000" points="746,-134.5 746,-153.5 881,-153.5 881,-134.5 746,-134.5"/>
<text text-anchor="middle" x="813.5" y="-141.5" font-family="Helvetica,sans-Serif" font-size="10.00" fill="#000000">MathUtils/Cartesian3D.h</text>
</a>
</g>
</g>
<!-- Node3&#45;&gt;Node4 -->
<g id="edge4" class="edge">
<title>Node3&#45;&gt;Node4</title>
<path fill="none" stroke="#191970" d="M892.8141,-190.4554C876.3703,-180.8241 855.1292,-168.3828 838.7677,-158.7996"/>
<polygon fill="#191970" stroke="#191970" points="840.169,-155.5643 829.7713,-153.5303 836.6312,-161.6045 840.169,-155.5643"/>
</g>
<!-- Node4&#45;&gt;Node2 -->
<g id="edge12" class="edge">
<title>Node4&#45;&gt;Node2</title>
<path fill="none" stroke="#191970" d="M745.8564,-143.0366C585.8127,-140.2489 187.6724,-130.1991 58.5,-98 56.3008,-97.4518 54.0686,-96.7645 51.8534,-95.9864"/>
<polygon fill="#191970" stroke="#191970" points="52.9871,-92.6691 42.4054,-92.1424 50.349,-99.153 52.9871,-92.6691"/>
</g>
<!-- Node5 -->
<g id="node6" class="node">
<title>Node5</title>
<polygon fill="none" stroke="#bfbfbf" points="67.5,-67.5 67.5,-97.5 231.5,-97.5 231.5,-67.5 67.5,-67.5"/>
<text text-anchor="start" x="75.5" y="-85.5" font-family="Helvetica,sans-Serif" font-size="10.00" fill="#000000">Math/GenVector/Displacement</text>
<text text-anchor="middle" x="149.5" y="-74.5" font-family="Helvetica,sans-Serif" font-size="10.00" fill="#000000">Vector3D.h</text>
</g>
<!-- Node4&#45;&gt;Node5 -->
<g id="edge5" class="edge">
<title>Node4&#45;&gt;Node5</title>
<path fill="none" stroke="#191970" d="M745.8217,-140.5137C640.3068,-134.6485 430.0224,-121.2378 241.8692,-98.1038"/>
<polygon fill="#191970" stroke="#191970" points="242.1465,-94.6115 231.7915,-96.8527 241.2841,-101.5582 242.1465,-94.6115"/>
</g>
<!-- Node6 -->
<g id="node7" class="node">
<title>Node6</title>
<polygon fill="none" stroke="#bfbfbf" points="250,-73 250,-92 439,-92 439,-73 250,-73"/>
<text text-anchor="middle" x="344.5" y="-80" font-family="Helvetica,sans-Serif" font-size="10.00" fill="#000000">Math/GenVector/PositionVector3D.h</text>
</g>
<!-- Node4&#45;&gt;Node6 -->
<g id="edge6" class="edge">
<title>Node4&#45;&gt;Node6</title>
<path fill="none" stroke="#191970" d="M745.8321,-135.9357C672.5125,-127.0895 552.1109,-112.2481 448.5,-98 438.2899,-96.596 427.525,-95.0573 416.9466,-93.5118"/>
<polygon fill="#191970" stroke="#191970" points="417.2888,-90.0245 406.8859,-92.032 416.2701,-96.95 417.2888,-90.0245"/>
</g>
<!-- Node7 -->
<g id="node8" class="node">
<title>Node7</title>
<polygon fill="none" stroke="#bfbfbf" points="457.5,-73 457.5,-92 617.5,-92 617.5,-73 457.5,-73"/>
<text text-anchor="middle" x="537.5" y="-80" font-family="Helvetica,sans-Serif" font-size="10.00" fill="#000000">Math/GenVector/Rotation3D.h</text>
</g>
<!-- Node4&#45;&gt;Node7 -->
<g id="edge7" class="edge">
<title>Node4&#45;&gt;Node7</title>
<path fill="none" stroke="#191970" d="M770.6778,-134.4581C722.03,-123.6181 642.615,-105.9224 590.2042,-94.2439"/>
<polygon fill="#191970" stroke="#191970" points="590.9445,-90.8231 580.4226,-92.0643 589.422,-97.6555 590.9445,-90.8231"/>
</g>
<!-- Node8 -->
<g id="node9" class="node">
<title>Node8</title>
<polygon fill="none" stroke="#bfbfbf" points="635.5,-73 635.5,-92 803.5,-92 803.5,-73 635.5,-73"/>
<text text-anchor="middle" x="719.5" y="-80" font-family="Helvetica,sans-Serif" font-size="10.00" fill="#000000">Math/GenVector/Transform3D.h</text>
</g>
<!-- Node4&#45;&gt;Node8 -->
<g id="edge8" class="edge">
<title>Node4&#45;&gt;Node8</title>
<path fill="none" stroke="#191970" d="M798.8125,-134.3906C783.7744,-124.5519 760.1824,-109.1167 742.6333,-97.6351"/>
<polygon fill="#191970" stroke="#191970" points="744.3687,-94.588 734.0844,-92.0419 740.5363,-100.4457 744.3687,-94.588"/>
</g>
<!-- Node9 -->
<g id="node10" class="node">
<title>Node9</title>
<polygon fill="none" stroke="#bfbfbf" points="822,-73 822,-92 995,-92 995,-73 822,-73"/>
<text text-anchor="middle" x="908.5" y="-80" font-family="Helvetica,sans-Serif" font-size="10.00" fill="#000000">Math/GenVector/Translation3D.h</text>
</g>
<!-- Node4&#45;&gt;Node9 -->
<g id="edge9" class="edge">
<title>Node4&#45;&gt;Node9</title>
<path fill="none" stroke="#191970" d="M828.3438,-134.3906C843.5418,-124.5519 867.3848,-109.1167 885.1206,-97.6351"/>
<polygon fill="#191970" stroke="#191970" points="887.268,-100.4144 893.7605,-92.0419 883.4639,-94.5382 887.268,-100.4144"/>
</g>
<!-- Node4&#45;&gt;Node10 -->
<g id="edge10" class="edge">
<title>Node4&#45;&gt;Node10</title>
<path fill="none" stroke="#191970" d="M881.379,-139.2604C987.5565,-131.4594 1187.978,-115.0695 1257.5,-98 1260.2861,-97.3159 1263.1378,-96.4756 1265.969,-95.5433"/>
<polygon fill="#191970" stroke="#191970" points="1267.1918,-98.8229 1275.3906,-92.1124 1264.7966,-92.2454 1267.1918,-98.8229"/>
</g>
<!-- Node11 -->
<g id="node12" class="node">
<title>Node11</title>
<polygon fill="none" stroke="#bfbfbf" points="1013.5,-73 1013.5,-92 1095.5,-92 1095.5,-73 1013.5,-73"/>
<text text-anchor="middle" x="1054.5" y="-80" font-family="Helvetica,sans-Serif" font-size="10.00" fill="#000000">TGeoMatrix.h</text>
</g>
<!-- Node4&#45;&gt;Node11 -->
<g id="edge11" class="edge">
<title>Node4&#45;&gt;Node11</title>
<path fill="none" stroke="#191970" d="M855.938,-134.462C894.5617,-125.6067 953.076,-111.7542 1003.5,-98 1007.0572,-97.0297 1010.7425,-95.986 1014.4299,-94.9152"/>
<polygon fill="#191970" stroke="#191970" points="1015.5141,-98.2444 1024.109,-92.0493 1013.5267,-91.5325 1015.5141,-98.2444"/>
</g>
<!-- Node12 -->
<g id="node13" class="node">
<title>Node12</title>
<g id="a_node13"><a xlink:href="../../d2/dd0/Cartesian2D_8h.html" target="_top" xlink:title="MathUtils/Cartesian2D.h">
<polygon fill="none" stroke="#000000" points="1114,-73 1114,-92 1249,-92 1249,-73 1114,-73"/>
<text text-anchor="middle" x="1181.5" y="-80" font-family="Helvetica,sans-Serif" font-size="10.00" fill="#000000">MathUtils/Cartesian2D.h</text>
</a>
</g>
</g>
<!-- Node4&#45;&gt;Node12 -->
<g id="edge13" class="edge">
<title>Node4&#45;&gt;Node12</title>
<path fill="none" stroke="#191970" d="M878.9308,-134.4572C937.9953,-125.6527 1027.2241,-111.8792 1104.5,-98 1111.2632,-96.7853 1118.3472,-95.4482 1125.3638,-94.0841"/>
<polygon fill="#191970" stroke="#191970" points="1126.4156,-97.4442 1135.5504,-92.0771 1125.0624,-90.5762 1126.4156,-97.4442"/>
</g>
<!-- Node13 -->
<g id="node14" class="node">
<title>Node13</title>
<polygon fill="none" stroke="#bfbfbf" points="1001.5,-.5 1001.5,-30.5 1165.5,-30.5 1165.5,-.5 1001.5,-.5"/>
<text text-anchor="start" x="1009.5" y="-18.5" font-family="Helvetica,sans-Serif" font-size="10.00" fill="#000000">Math/GenVector/Displacement</text>
<text text-anchor="middle" x="1083.5" y="-7.5" font-family="Helvetica,sans-Serif" font-size="10.00" fill="#000000">Vector2D.h</text>
</g>
<!-- Node12&#45;&gt;Node13 -->
<g id="edge14" class="edge">
<title>Node12&#45;&gt;Node13</title>
<path fill="none" stroke="#191970" d="M1167.459,-72.9005C1153.5412,-63.3853 1131.772,-48.5023 1113.888,-36.2755"/>
<polygon fill="#191970" stroke="#191970" points="1115.7026,-33.2763 1105.4721,-30.5218 1111.7519,-39.0549 1115.7026,-33.2763"/>
</g>
<!-- Node14 -->
<g id="node15" class="node">
<title>Node14</title>
<polygon fill="none" stroke="#bfbfbf" points="1184,-6 1184,-25 1373,-25 1373,-6 1184,-6"/>
<text text-anchor="middle" x="1278.5" y="-13" font-family="Helvetica,sans-Serif" font-size="10.00" fill="#000000">Math/GenVector/PositionVector2D.h</text>
</g>
<!-- Node12&#45;&gt;Node14 -->
<g id="edge15" class="edge">
<title>Node12&#45;&gt;Node14</title>
<path fill="none" stroke="#191970" d="M1195.3977,-72.9005C1211.3164,-61.9052 1237.6121,-43.7422 1256.3599,-30.7927"/>
<polygon fill="#191970" stroke="#191970" points="1258.3892,-33.6448 1264.628,-25.0817 1254.4108,-27.8852 1258.3892,-33.6448"/>
</g>
<!-- Node17 -->
<g id="node18" class="node">
<title>Node17</title>
<g id="a_node18"><a xlink:href="../../de/d61/ShmManager_8h.html" target="_top" xlink:title="CommonUtils/ShmManager.h">
<polygon fill="none" stroke="#000000" points="1377.5,-134.5 1377.5,-153.5 1535.5,-153.5 1535.5,-134.5 1377.5,-134.5"/>
<text text-anchor="middle" x="1456.5" y="-141.5" font-family="Helvetica,sans-Serif" font-size="10.00" fill="#000000">CommonUtils/ShmManager.h</text>
</a>
</g>
</g>
<!-- Node16&#45;&gt;Node17 -->
<g id="edge19" class="edge">
<title>Node16&#45;&gt;Node17</title>
<path fill="none" stroke="#191970" d="M1456.5,-195.8906C1456.5,-187.3657 1456.5,-174.6392 1456.5,-163.9235"/>
<polygon fill="#191970" stroke="#191970" points="1460.0001,-163.7448 1456.5,-153.7449 1453.0001,-163.7449 1460.0001,-163.7448"/>
</g>
<!-- Node23 -->
<g id="node24" class="node">
<title>Node23</title>
<polygon fill="none" stroke="#bfbfbf" points="1553.5,-134.5 1553.5,-153.5 1605.5,-153.5 1605.5,-134.5 1553.5,-134.5"/>
<text text-anchor="middle" x="1579.5" y="-141.5" font-family="Helvetica,sans-Serif" font-size="10.00" fill="#000000">cassert</text>
</g>
<!-- Node16&#45;&gt;Node23 -->
<g id="edge25" class="edge">
<title>Node16&#45;&gt;Node23</title>
<path fill="none" stroke="#191970" d="M1475.7188,-195.8906C1496.0281,-185.7359 1528.2607,-169.6196 1551.4168,-158.0416"/>
<polygon fill="#191970" stroke="#191970" points="1553.0372,-161.1446 1560.4162,-153.5419 1549.9067,-154.8836 1553.0372,-161.1446"/>
</g>
<!-- Node18 -->
<g id="node19" class="node">
<title>Node18</title>
<polygon fill="none" stroke="#bfbfbf" points="1344.5,-73 1344.5,-92 1376.5,-92 1376.5,-73 1344.5,-73"/>
<text text-anchor="middle" x="1360.5" y="-80" font-family="Helvetica,sans-Serif" font-size="10.00" fill="#000000">list</text>
</g>
<!-- Node17&#45;&gt;Node18 -->
<g id="edge20" class="edge">
<title>Node17&#45;&gt;Node18</title>
<path fill="none" stroke="#191970" d="M1441.5,-134.3906C1426.1419,-124.5519 1402.0479,-109.1167 1384.1255,-97.6351"/>
<polygon fill="#191970" stroke="#191970" points="1385.703,-94.4891 1375.3947,-92.0419 1381.927,-100.3833 1385.703,-94.4891"/>
</g>
<!-- Node19 -->
<g id="node20" class="node">
<title>Node19</title>
<polygon fill="none" stroke="#bfbfbf" points="1395,-73 1395,-92 1448,-92 1448,-73 1395,-73"/>
<text text-anchor="middle" x="1421.5" y="-80" font-family="Helvetica,sans-Serif" font-size="10.00" fill="#000000">cstddef</text>
</g>
<!-- Node17&#45;&gt;Node19 -->
<g id="edge21" class="edge">
<title>Node17&#45;&gt;Node19</title>
<path fill="none" stroke="#191970" d="M1451.0313,-134.3906C1445.9754,-125.5068 1438.3228,-112.0601 1432.0746,-101.0811"/>
<polygon fill="#191970" stroke="#191970" points="1435.034,-99.2048 1427.0459,-92.2449 1428.9502,-102.6672 1435.034,-99.2048"/>
</g>
<!-- Node20 -->
<g id="node21" class="node">
<title>Node20</title>
<polygon fill="none" stroke="#bfbfbf" points="1466.5,-73 1466.5,-92 1516.5,-92 1516.5,-73 1466.5,-73"/>
<text text-anchor="middle" x="1491.5" y="-80" font-family="Helvetica,sans-Serif" font-size="10.00" fill="#000000">atomic</text>
</g>
<!-- Node17&#45;&gt;Node20 -->
<g id="edge22" class="edge">
<title>Node17&#45;&gt;Node20</title>
<path fill="none" stroke="#191970" d="M1461.9688,-134.3906C1467.0246,-125.5068 1474.6772,-112.0601 1480.9254,-101.0811"/>
<polygon fill="#191970" stroke="#191970" points="1484.0498,-102.6672 1485.9541,-92.2449 1477.966,-99.2048 1484.0498,-102.6672"/>
</g>
<!-- Node21 -->
<g id="node22" class="node">
<title>Node21</title>
<polygon fill="none" stroke="#bfbfbf" points="1535,-67.5 1535,-97.5 1700,-97.5 1700,-67.5 1535,-67.5"/>
<text text-anchor="start" x="1543" y="-85.5" font-family="Helvetica,sans-Serif" font-size="10.00" fill="#000000">boost/interprocess</text>
<text text-anchor="middle" x="1617.5" y="-74.5" font-family="Helvetica,sans-Serif" font-size="10.00" fill="#000000">/managed_external_buffer.hpp</text>
</g>
<!-- Node17&#45;&gt;Node21 -->
<g id="edge23" class="edge">
<title>Node17&#45;&gt;Node21</title>
<path fill="none" stroke="#191970" d="M1481.6563,-134.3906C1504.8579,-125.5279 1539.9479,-112.1239 1568.6518,-101.1594"/>
<polygon fill="#191970" stroke="#191970" points="1570.0223,-104.3826 1578.115,-97.5446 1567.5243,-97.8435 1570.0223,-104.3826"/>
</g>
<!-- Node22 -->
<g id="node23" class="node">
<title>Node22</title>
<polygon fill="none" stroke="#bfbfbf" points="1718.5,-67.5 1718.5,-97.5 1852.5,-97.5 1852.5,-67.5 1718.5,-67.5"/>
<text text-anchor="start" x="1726.5" y="-85.5" font-family="Helvetica,sans-Serif" font-size="10.00" fill="#000000">boost/interprocess</text>
<text text-anchor="middle" x="1785.5" y="-74.5" font-family="Helvetica,sans-Serif" font-size="10.00" fill="#000000">/allocators/allocator.hpp</text>
</g>
<!-- Node17&#45;&gt;Node22 -->
<g id="edge24" class="edge">
<title>Node17&#45;&gt;Node22</title>
<path fill="none" stroke="#191970" d="M1510.8505,-134.4637C1559.9232,-125.7752 1634.379,-112.3991 1708.4118,-98.1888"/>
<polygon fill="#191970" stroke="#191970" points="1709.2207,-101.5974 1718.3787,-96.2701 1707.8973,-94.7236 1709.2207,-101.5974"/>
</g>
</g>
</svg>
        <g id="navigator" transform="translate(0 0)" fill="#404254">
                <rect fill="#f2f5e9" fill-opacity="0.5" stroke="#606060" stroke-width=".5" x="0" y="0" width="60" height="60"/>
                <use id="zoomplus" xlink:href="#zoomPlus" x="17" y="9" onmousedown="handleZoom(evt,'in')"/>
                <use id="zoomminus" xlink:href="#zoomMin" x="42" y="9" onmousedown="handleZoom(evt,'out')"/>
                <use id="reset" xlink:href="#resetDef" x="30" y="36" onmousedown="handleReset()"/>
                <g id="arrowUp" xlink:href="#dirArrow" transform="translate(30 24)" onmousedown="handlePan(0,-1)">
                  <use xlink:href="#rim" fill="#404040">
                        <set attributeName="fill" to="#808080" begin="arrowUp.mouseover" end="arrowUp.mouseout"/>
                  </use>
                  <path fill="none" stroke="white" stroke-width="1.5" d="M0,-3.0v7 M-2.5,-0.5L0,-3.0L2.5,-0.5"/>
                </g>
                <g id="arrowRight" xlink:href="#dirArrow" transform="rotate(90) translate(36 -43)" onmousedown="handlePan(1,0)">
                  <use xlink:href="#rim" fill="#404040">
                        <set attributeName="fill" to="#808080" begin="arrowRight.mouseover" end="arrowRight.mouseout"/>
                  </use>
                  <path fill="none" stroke="white" stroke-width="1.5" d="M0,-3.0v7 M-2.5,-0.5L0,-3.0L2.5,-0.5"/>
                </g>
                <g id="arrowDown" xlink:href="#dirArrow" transform="rotate(180) translate(-30 -48)" onmousedown="handlePan(0,1)">
                  <use xlink:href="#rim" fill="#404040">
                        <set attributeName="fill" to="#808080" begin="arrowDown.mouseover" end="arrowDown.mouseout"/>
                  </use>
                  <path fill="none" stroke="white" stroke-width="1.5" d="M0,-3.0v7 M-2.5,-0.5L0,-3.0L2.5,-0.5"/>
                </g>
                <g id="arrowLeft" xlink:href="#dirArrow" transform="rotate(270) translate(-36 17)" onmousedown="handlePan(-1,0)">
                  <use xlink:href="#rim" fill="#404040">
                        <set attributeName="fill" to="#808080" begin="arrowLeft.mouseover" end="arrowLeft.mouseout"/>
                  </use>
                  <path fill="none" stroke="white" stroke-width="1.5" d="M0,-3.0v7 M-2.5,-0.5L0,-3.0L2.5,-0.5"/>
                </g>
        </g>
        <svg viewBox="0 0 15 15" width="100%" height="30px" preserveAspectRatio="xMaxYMin meet">
         <g id="arrow_out" transform="scale(0.3 0.3)">
          <a xlink:href="DataFormats_2Detectors_2FIT_2FV0_2src_2Hit_8cxx__incl_org.svg" target="_base">
           <rect id="button" ry="5" rx="5" y="6" x="6" height="38" width="38"
                fill="#f2f5e9" fill-opacity="0.5" stroke="#606060" stroke-width="1.0"/>
           <path id="arrow"
             d="M 11.500037,31.436501 C 11.940474,20.09759 22.043105,11.32322 32.158766,21.979434 L 37.068811,17.246167 C 37.068811,17.246167 37.088388,32 37.088388,32 L 22.160133,31.978069 C 22.160133,31.978069 26.997745,27.140456 26.997745,27.140456 C 18.528582,18.264221 13.291696,25.230495 11.500037,31.436501 z"
             style="fill:#404040;"/>
          </a>
         </g>
        </svg>
</svg>
