<?xml version="1.0" encoding="UTF-8" standalone="no"?>
<!DOCTYPE svg PUBLIC "-//W3C//DTD SVG 1.1//EN"
 "http://www.w3.org/Graphics/SVG/1.1/DTD/svg11.dtd">
<!-- Generated by graphviz version 2.40.1 (20161225.0304)
 -->
<!-- Title: /home/travis/build/AliceO2Group/AliceO2/Detectors/PHOS/simulation/include/PHOSSimulation/Detector.h Pages: 1 -->
<svg width="2833pt" height="374pt"
 viewBox="0.00 0.00 2832.50 374.00" xmlns="http://www.w3.org/2000/svg" xmlns:xlink="http://www.w3.org/1999/xlink">
<g id="graph0" class="graph" transform="scale(1 1) rotate(0) translate(4 370)">
<title>/home/travis/build/AliceO2Group/AliceO2/Detectors/PHOS/simulation/include/PHOSSimulation/Detector.h</title>
<!-- Node0 -->
<g id="node1" class="node">
<title>Node0</title>
<polygon fill="#bfbfbf" stroke="#000000" points="1693.5,-313.5 1693.5,-365.5 1884.5,-365.5 1884.5,-313.5 1693.5,-313.5"/>
<text text-anchor="start" x="1701.5" y="-353.5" font-family="Helvetica,sans-Serif" font-size="10.00" fill="#000000">/home/travis/build</text>
<text text-anchor="start" x="1701.5" y="-342.5" font-family="Helvetica,sans-Serif" font-size="10.00" fill="#000000">/AliceO2Group/AliceO2</text>
<text text-anchor="start" x="1701.5" y="-331.5" font-family="Helvetica,sans-Serif" font-size="10.00" fill="#000000">/Detectors/PHOS/simulation</text>
<text text-anchor="middle" x="1789" y="-320.5" font-family="Helvetica,sans-Serif" font-size="10.00" fill="#000000">/include/PHOSSimulation/Detector.h</text>
</g>
<!-- Node1 -->
<g id="node2" class="node">
<title>Node1</title>
<g id="a_node2"><a xlink:href="../../d1/d3a/Base_2include_2DetectorsBase_2Detector_8h.html" target="_top" xlink:title="DetectorsBase/Detector.h">
<polygon fill="none" stroke="#000000" points="695.5,-257.5 695.5,-276.5 836.5,-276.5 836.5,-257.5 695.5,-257.5"/>
<text text-anchor="middle" x="766" y="-264.5" font-family="Helvetica,sans-Serif" font-size="10.00" fill="#000000">DetectorsBase/Detector.h</text>
</a>
</g>
</g>
<!-- Node0&#45;&gt;Node1 -->
<g id="edge1" class="edge">
<title>Node0&#45;&gt;Node1</title>
<path fill="none" stroke="#191970" d="M1693.2184,-332.712C1492.8839,-318.5143 1032.7884,-285.9073 846.505,-272.7054"/>
<polygon fill="#191970" stroke="#191970" points="846.7266,-269.2124 836.5042,-271.9966 846.2317,-276.1949 846.7266,-269.2124"/>
</g>
<!-- Node2 -->
<g id="node3" class="node">
<title>Node2</title>
<polygon fill="none" stroke="#bfbfbf" points="1521,-134.5 1521,-153.5 1559,-153.5 1559,-134.5 1521,-134.5"/>
<text text-anchor="middle" x="1540" y="-141.5" font-family="Helvetica,sans-Serif" font-size="10.00" fill="#000000">map</text>
</g>
<!-- Node0&#45;&gt;Node2 -->
<g id="edge50" class="edge">
<title>Node0&#45;&gt;Node2</title>
<path fill="none" stroke="#191970" d="M1793.9916,-313.2775C1798.6684,-280.0784 1800.9391,-223.2171 1770,-190 1743.1345,-161.1565 1625.37,-149.6311 1569.5506,-145.7259"/>
<polygon fill="#191970" stroke="#191970" points="1569.4676,-142.2128 1559.2579,-145.0436 1569.0045,-149.1974 1569.4676,-142.2128"/>
</g>
<!-- Node3 -->
<g id="node4" class="node">
<title>Node3</title>
<polygon fill="none" stroke="#bfbfbf" points="1568.5,-196 1568.5,-215 1615.5,-215 1615.5,-196 1568.5,-196"/>
<text text-anchor="middle" x="1592" y="-203" font-family="Helvetica,sans-Serif" font-size="10.00" fill="#000000">vector</text>
</g>
<!-- Node0&#45;&gt;Node3 -->
<g id="edge51" class="edge">
<title>Node0&#45;&gt;Node3</title>
<path fill="none" stroke="#191970" d="M1776.6985,-313.4511C1766.9096,-295.2924 1751.6097,-271.7648 1732,-257 1691.9165,-226.8198 1671.5616,-239.6963 1625,-221 1623.605,-220.4398 1622.1847,-219.8502 1620.756,-219.2414"/>
<polygon fill="#191970" stroke="#191970" points="1621.9386,-215.9364 1611.3806,-215.0543 1619.0841,-222.328 1621.9386,-215.9364"/>
</g>
<!-- Node9 -->
<g id="node10" class="node">
<title>Node9</title>
<polygon fill="none" stroke="#bfbfbf" points="1374.5,-73 1374.5,-92 1433.5,-92 1433.5,-73 1374.5,-73"/>
<text text-anchor="middle" x="1404" y="-80" font-family="Helvetica,sans-Serif" font-size="10.00" fill="#000000">Rtypes.h</text>
</g>
<!-- Node0&#45;&gt;Node9 -->
<g id="edge49" class="edge">
<title>Node0&#45;&gt;Node9</title>
<path fill="none" stroke="#191970" d="M1799.9407,-313.2187C1803.9559,-302.2305 1808.0051,-289.2005 1810,-277 1816.3716,-238.0319 1819.996,-217.8448 1792,-190 1677.9615,-76.5776 1594.5648,-148.9257 1442,-98 1439.8584,-97.2852 1437.6648,-96.5098 1435.4649,-95.6999"/>
<polygon fill="#191970" stroke="#191970" points="1436.5101,-92.3515 1425.9209,-92.0079 1433.9846,-98.8801 1436.5101,-92.3515"/>
</g>
<!-- Node27 -->
<g id="node28" class="node">
<title>Node27</title>
<g id="a_node28"><a xlink:href="../../dd/d76/Cartesian3D_8h.html" target="_top" xlink:title="MathUtils/Cartesian3D.h">
<polygon fill="none" stroke="#000000" points="1855.5,-134.5 1855.5,-153.5 1990.5,-153.5 1990.5,-134.5 1855.5,-134.5"/>
<text text-anchor="middle" x="1923" y="-141.5" font-family="Helvetica,sans-Serif" font-size="10.00" fill="#000000">MathUtils/Cartesian3D.h</text>
</a>
</g>
</g>
<!-- Node0&#45;&gt;Node27 -->
<g id="edge32" class="edge">
<title>Node0&#45;&gt;Node27</title>
<path fill="none" stroke="#191970" d="M1812.1228,-313.3971C1821.4574,-302.4363 1832.1025,-289.3785 1841,-277 1869.218,-237.7421 1897.8909,-188.6812 1912.7077,-162.496"/>
<polygon fill="#191970" stroke="#191970" points="1915.8317,-164.0812 1917.6781,-153.6485 1909.7288,-160.6526 1915.8317,-164.0812"/>
</g>
<!-- Node37 -->
<g id="node38" class="node">
<title>Node37</title>
<g id="a_node38"><a xlink:href="../../db/dad/Detectors_2PHOS_2base_2include_2PHOSBase_2Hit_8h.html" target="_top" xlink:title="PHOSBase/Hit.h">
<polygon fill="none" stroke="#000000" points="1629,-257.5 1629,-276.5 1723,-276.5 1723,-257.5 1629,-257.5"/>
<text text-anchor="middle" x="1676" y="-264.5" font-family="Helvetica,sans-Serif" font-size="10.00" fill="#000000">PHOSBase/Hit.h</text>
</a>
</g>
</g>
<!-- Node0&#45;&gt;Node37 -->
<g id="edge44" class="edge">
<title>Node0&#45;&gt;Node37</title>
<path fill="none" stroke="#191970" d="M1748.2044,-313.3258C1731.8172,-302.8119 1713.5153,-291.0696 1699.4381,-282.0377"/>
<polygon fill="#191970" stroke="#191970" points="1701.1666,-278.9883 1690.8599,-276.534 1697.3865,-284.8799 1701.1666,-278.9883"/>
</g>
<!-- Node39 -->
<g id="node40" class="node">
<title>Node39</title>
<polygon fill="none" stroke="#bfbfbf" points="1893,-257.5 1893,-276.5 1977,-276.5 1977,-257.5 1893,-257.5"/>
<text text-anchor="middle" x="1935" y="-264.5" font-family="Helvetica,sans-Serif" font-size="10.00" fill="#000000">RStringView.h</text>
</g>
<!-- Node0&#45;&gt;Node39 -->
<g id="edge48" class="edge">
<title>Node0&#45;&gt;Node39</title>
<path fill="none" stroke="#191970" d="M1841.7094,-313.3258C1863.6888,-302.4114 1888.3341,-290.1731 1906.7717,-281.0175"/>
<polygon fill="#191970" stroke="#191970" points="1908.4006,-284.1164 1915.8005,-276.534 1905.2873,-277.8469 1908.4006,-284.1164"/>
</g>
<!-- Node1&#45;&gt;Node2 -->
<g id="edge2" class="edge">
<title>Node1&#45;&gt;Node2</title>
<path fill="none" stroke="#191970" d="M836.7382,-264.919C1019.289,-259.2517 1493.8659,-242.5168 1520,-221 1536.6101,-207.3245 1540.4111,-181.7808 1540.8414,-163.8763"/>
<polygon fill="#191970" stroke="#191970" points="1544.3393,-163.6202 1540.7484,-153.6525 1537.3396,-163.684 1544.3393,-163.6202"/>
</g>
<!-- Node1&#45;&gt;Node3 -->
<g id="edge3" class="edge">
<title>Node1&#45;&gt;Node3</title>
<path fill="none" stroke="#191970" d="M836.5132,-265.8416C1003.3602,-262.6239 1418.5111,-251.6968 1554,-221 1556.8012,-220.3653 1559.6625,-219.5462 1562.4955,-218.6164"/>
<polygon fill="#191970" stroke="#191970" points="1563.7285,-221.8922 1571.8899,-215.1364 1561.2968,-215.3281 1563.7285,-221.8922"/>
</g>
<!-- Node4 -->
<g id="node5" class="node">
<title>Node4</title>
<polygon fill="none" stroke="#bfbfbf" points="1215.5,-134.5 1215.5,-153.5 1298.5,-153.5 1298.5,-134.5 1215.5,-134.5"/>
<text text-anchor="middle" x="1257" y="-141.5" font-family="Helvetica,sans-Serif" font-size="10.00" fill="#000000">initializer_list</text>
</g>
<!-- Node1&#45;&gt;Node4 -->
<g id="edge4" class="edge">
<title>Node1&#45;&gt;Node4</title>
<path fill="none" stroke="#191970" d="M836.5737,-265.8973C971.0808,-263.0602 1253.4597,-253.2853 1283,-221 1298.1672,-204.4234 1284.4049,-178.6755 1271.8351,-161.5802"/>
<polygon fill="#191970" stroke="#191970" points="1274.4494,-159.2417 1265.53,-153.5236 1268.9367,-163.5558 1274.4494,-159.2417"/>
</g>
<!-- Node5 -->
<g id="node6" class="node">
<title>Node5</title>
<polygon fill="none" stroke="#bfbfbf" points="812,-196 812,-215 870,-215 870,-196 812,-196"/>
<text text-anchor="middle" x="841" y="-203" font-family="Helvetica,sans-Serif" font-size="10.00" fill="#000000">memory</text>
</g>
<!-- Node1&#45;&gt;Node5 -->
<g id="edge5" class="edge">
<title>Node1&#45;&gt;Node5</title>
<path fill="none" stroke="#191970" d="M777.7188,-257.3906C789.3188,-247.8786 807.2979,-233.1357 821.1321,-221.7917"/>
<polygon fill="#191970" stroke="#191970" points="823.6026,-224.2921 829.116,-215.2449 819.164,-218.8792 823.6026,-224.2921"/>
</g>
<!-- Node6 -->
<g id="node7" class="node">
<title>Node6</title>
<polygon fill="none" stroke="#bfbfbf" points="888,-196 888,-215 972,-215 972,-196 888,-196"/>
<text text-anchor="middle" x="930" y="-203" font-family="Helvetica,sans-Serif" font-size="10.00" fill="#000000">FairDetector.h</text>
</g>
<!-- Node1&#45;&gt;Node6 -->
<g id="edge6" class="edge">
<title>Node1&#45;&gt;Node6</title>
<path fill="none" stroke="#191970" d="M791.625,-257.3906C819.4263,-246.9652 863.9844,-230.2559 894.9994,-218.6252"/>
<polygon fill="#191970" stroke="#191970" points="896.4206,-221.8303 904.5549,-215.0419 893.9627,-215.276 896.4206,-221.8303"/>
</g>
<!-- Node7 -->
<g id="node8" class="node">
<title>Node7</title>
<polygon fill="none" stroke="#bfbfbf" points="990,-196 990,-215 1096,-215 1096,-196 990,-196"/>
<text text-anchor="middle" x="1043" y="-203" font-family="Helvetica,sans-Serif" font-size="10.00" fill="#000000">FairRootManager.h</text>
</g>
<!-- Node1&#45;&gt;Node7 -->
<g id="edge7" class="edge">
<title>Node1&#45;&gt;Node7</title>
<path fill="none" stroke="#191970" d="M812.6555,-257.4978C856.2743,-248.5005 923.1783,-234.4092 981,-221 985.7489,-219.8987 990.694,-218.7189 995.6282,-217.5199"/>
<polygon fill="#191970" stroke="#191970" points="996.7985,-220.8365 1005.6742,-215.0509 995.1278,-214.0387 996.7985,-220.8365"/>
</g>
<!-- Node8 -->
<g id="node9" class="node">
<title>Node8</title>
<g id="a_node9"><a xlink:href="../../d0/d9a/MaterialManager_8h.html" target="_top" xlink:title="DetectorsBase/MaterialManager.h">
<polygon fill="none" stroke="#000000" points="1330.5,-196 1330.5,-215 1511.5,-215 1511.5,-196 1330.5,-196"/>
<text text-anchor="middle" x="1421" y="-203" font-family="Helvetica,sans-Serif" font-size="10.00" fill="#000000">DetectorsBase/MaterialManager.h</text>
</a>
</g>
</g>
<!-- Node1&#45;&gt;Node8 -->
<g id="edge8" class="edge">
<title>Node1&#45;&gt;Node8</title>
<path fill="none" stroke="#191970" d="M836.9019,-262.5065C941.7957,-255.5335 1144.4262,-240.8187 1316,-221 1327.3262,-219.6917 1339.3113,-218.1103 1350.9751,-216.4643"/>
<polygon fill="#191970" stroke="#191970" points="1351.7175,-219.8937 1361.1178,-215.0065 1350.7215,-212.9649 1351.7175,-219.8937"/>
</g>
<!-- Node1&#45;&gt;Node9 -->
<g id="edge14" class="edge">
<title>Node1&#45;&gt;Node9</title>
<path fill="none" stroke="#191970" d="M716.6261,-257.4004C669.2019,-245.9372 608.3854,-223.9426 635,-190 680.5906,-131.8566 1212.0938,-94.4585 1363.8018,-84.9167"/>
<polygon fill="#191970" stroke="#191970" points="1364.2935,-88.393 1374.0566,-84.2779 1363.8583,-81.4065 1364.2935,-88.393"/>
</g>
<!-- Node12 -->
<g id="node13" class="node">
<title>Node12</title>
<polygon fill="none" stroke="#bfbfbf" points="185,-196 185,-215 243,-215 243,-196 185,-196"/>
<text text-anchor="middle" x="214" y="-203" font-family="Helvetica,sans-Serif" font-size="10.00" fill="#000000">cxxabi.h</text>
</g>
<!-- Node1&#45;&gt;Node12 -->
<g id="edge15" class="edge">
<title>Node1&#45;&gt;Node12</title>
<path fill="none" stroke="#191970" d="M695.2345,-263.2762C574.5881,-256.4916 334.1642,-240.9568 252,-221 249.2089,-220.3221 246.3546,-219.4733 243.5261,-218.5243"/>
<polygon fill="#191970" stroke="#191970" points="244.7312,-215.2383 234.1388,-215.0143 242.2796,-221.795 244.7312,-215.2383"/>
</g>
<!-- Node13 -->
<g id="node14" class="node">
<title>Node13</title>
<polygon fill="none" stroke="#bfbfbf" points="261.5,-196 261.5,-215 318.5,-215 318.5,-196 261.5,-196"/>
<text text-anchor="middle" x="290" y="-203" font-family="Helvetica,sans-Serif" font-size="10.00" fill="#000000">typeinfo</text>
</g>
<!-- Node1&#45;&gt;Node13 -->
<g id="edge16" class="edge">
<title>Node1&#45;&gt;Node13</title>
<path fill="none" stroke="#191970" d="M695.4046,-262.1212C589.5377,-254.3774 394.8365,-238.3617 327,-221 324.5205,-220.3654 321.9903,-219.5936 319.4752,-218.737"/>
<polygon fill="#191970" stroke="#191970" points="320.5791,-215.4122 309.9881,-215.1244 318.0879,-221.954 320.5791,-215.4122"/>
</g>
<!-- Node14 -->
<g id="node15" class="node">
<title>Node14</title>
<polygon fill="none" stroke="#bfbfbf" points="336.5,-196 336.5,-215 405.5,-215 405.5,-196 336.5,-196"/>
<text text-anchor="middle" x="371" y="-203" font-family="Helvetica,sans-Serif" font-size="10.00" fill="#000000">type_traits</text>
</g>
<!-- Node1&#45;&gt;Node14 -->
<g id="edge17" class="edge">
<title>Node1&#45;&gt;Node14</title>
<path fill="none" stroke="#191970" d="M695.2905,-262.0847C623.8411,-256.1055 510.6423,-243.849 415,-221 411.7703,-220.2284 408.4465,-219.3064 405.1416,-218.302"/>
<polygon fill="#191970" stroke="#191970" points="405.9893,-214.8967 395.3966,-215.1092 403.8098,-221.5488 405.9893,-214.8967"/>
</g>
<!-- Node15 -->
<g id="node16" class="node">
<title>Node15</title>
<polygon fill="none" stroke="#bfbfbf" points="424,-196 424,-215 468,-215 468,-196 424,-196"/>
<text text-anchor="middle" x="446" y="-203" font-family="Helvetica,sans-Serif" font-size="10.00" fill="#000000">string</text>
</g>
<!-- Node1&#45;&gt;Node15 -->
<g id="edge18" class="edge">
<title>Node1&#45;&gt;Node15</title>
<path fill="none" stroke="#191970" d="M695.4095,-261.8277C636.0181,-256.0505 549.437,-244.2632 477,-221 475.3851,-220.4814 473.7501,-219.8891 472.1188,-219.2455"/>
<polygon fill="#191970" stroke="#191970" points="473.5423,-216.0481 462.985,-215.1569 470.6823,-222.4372 473.5423,-216.0481"/>
</g>
<!-- Node16 -->
<g id="node17" class="node">
<title>Node16</title>
<polygon fill="none" stroke="#bfbfbf" points="486,-196 486,-215 560,-215 560,-196 486,-196"/>
<text text-anchor="middle" x="523" y="-203" font-family="Helvetica,sans-Serif" font-size="10.00" fill="#000000">TMessage.h</text>
</g>
<!-- Node1&#45;&gt;Node16 -->
<g id="edge19" class="edge">
<title>Node1&#45;&gt;Node16</title>
<path fill="none" stroke="#191970" d="M723.1092,-257.4982C684.0749,-248.6674 624.942,-234.8303 574,-221 570.4416,-220.0339 566.7555,-218.9931 563.0676,-217.9242"/>
<polygon fill="#191970" stroke="#191970" points="563.9699,-214.5413 553.3878,-215.0613 561.9845,-221.2538 563.9699,-214.5413"/>
</g>
<!-- Node17 -->
<g id="node18" class="node">
<title>Node17</title>
<g id="a_node18"><a xlink:href="../../de/d61/ShmManager_8h.html" target="_top" xlink:title="CommonUtils/ShmManager.h">
<polygon fill="none" stroke="#000000" points="240,-134.5 240,-153.5 398,-153.5 398,-134.5 240,-134.5"/>
<text text-anchor="middle" x="319" y="-141.5" font-family="Helvetica,sans-Serif" font-size="10.00" fill="#000000">CommonUtils/ShmManager.h</text>
</a>
</g>
</g>
<!-- Node1&#45;&gt;Node17 -->
<g id="edge20" class="edge">
<title>Node1&#45;&gt;Node17</title>
<path fill="none" stroke="#191970" d="M695.2989,-264.0282C542.4259,-257.2597 193.4094,-239.8196 176,-221 146.5607,-189.1761 204.0637,-167.804 254.6951,-155.8083"/>
<polygon fill="#191970" stroke="#191970" points="255.7265,-159.1632 264.702,-153.5338 254.175,-152.3373 255.7265,-159.1632"/>
</g>
<!-- Node23 -->
<g id="node24" class="node">
<title>Node23</title>
<g id="a_node24"><a xlink:href="../../d0/d91/ShmAllocator_8h.html" target="_top" xlink:title="CommonUtils/ShmAllocator.h">
<polygon fill="none" stroke="#000000" points="1114,-196 1114,-215 1274,-215 1274,-196 1114,-196"/>
<text text-anchor="middle" x="1194" y="-203" font-family="Helvetica,sans-Serif" font-size="10.00" fill="#000000">CommonUtils/ShmAllocator.h</text>
</a>
</g>
</g>
<!-- Node1&#45;&gt;Node23 -->
<g id="edge26" class="edge">
<title>Node1&#45;&gt;Node23</title>
<path fill="none" stroke="#191970" d="M836.5572,-258.2104C905.2066,-249.4734 1012.4105,-235.3393 1105,-221 1113.5585,-219.6746 1122.5656,-218.1998 1131.4297,-216.7017"/>
<polygon fill="#191970" stroke="#191970" points="1132.0778,-220.1418 1141.3453,-215.0072 1130.8985,-213.2418 1132.0778,-220.1418"/>
</g>
<!-- Node24 -->
<g id="node25" class="node">
<title>Node24</title>
<polygon fill="none" stroke="#bfbfbf" points="872,-134.5 872,-153.5 924,-153.5 924,-134.5 872,-134.5"/>
<text text-anchor="middle" x="898" y="-141.5" font-family="Helvetica,sans-Serif" font-size="10.00" fill="#000000">cassert</text>
</g>
<!-- Node1&#45;&gt;Node24 -->
<g id="edge31" class="edge">
<title>Node1&#45;&gt;Node24</title>
<path fill="none" stroke="#191970" d="M727.4287,-257.4404C695.805,-248.7303 654.7289,-235.1067 645,-221 637.1779,-209.658 636.1719,-200.5779 645,-190 672.1762,-157.4371 798.3856,-147.8709 861.6488,-145.1028"/>
<polygon fill="#191970" stroke="#191970" points="862.1139,-148.587 871.965,-144.6875 861.8322,-141.5927 862.1139,-148.587"/>
</g>
<!-- Node25 -->
<g id="node26" class="node">
<title>Node25</title>
<polygon fill="none" stroke="#bfbfbf" points="654,-196 654,-215 720,-215 720,-196 654,-196"/>
<text text-anchor="middle" x="687" y="-203" font-family="Helvetica,sans-Serif" font-size="10.00" fill="#000000">sys/shm.h</text>
</g>
<!-- Node1&#45;&gt;Node25 -->
<g id="edge29" class="edge">
<title>Node1&#45;&gt;Node25</title>
<path fill="none" stroke="#191970" d="M753.6563,-257.3906C741.2497,-247.7324 721.9157,-232.6812 707.2587,-221.271"/>
<polygon fill="#191970" stroke="#191970" points="709.2979,-218.423 699.2571,-215.0419 704.9979,-223.9466 709.2979,-218.423"/>
</g>
<!-- Node26 -->
<g id="node27" class="node">
<title>Node26</title>
<polygon fill="none" stroke="#bfbfbf" points="738,-196 738,-215 794,-215 794,-196 738,-196"/>
<text text-anchor="middle" x="766" y="-203" font-family="Helvetica,sans-Serif" font-size="10.00" fill="#000000">unistd.h</text>
</g>
<!-- Node1&#45;&gt;Node26 -->
<g id="edge30" class="edge">
<title>Node1&#45;&gt;Node26</title>
<path fill="none" stroke="#191970" d="M766,-257.3906C766,-248.8657 766,-236.1392 766,-225.4235"/>
<polygon fill="#191970" stroke="#191970" points="769.5001,-225.2448 766,-215.2449 762.5001,-225.2449 769.5001,-225.2448"/>
</g>
<!-- Node8&#45;&gt;Node2 -->
<g id="edge10" class="edge">
<title>Node8&#45;&gt;Node2</title>
<path fill="none" stroke="#191970" d="M1439.5938,-195.8906C1459.1553,-185.7811 1490.1501,-169.7628 1512.5309,-158.1962"/>
<polygon fill="#191970" stroke="#191970" points="1514.26,-161.2425 1521.5368,-153.5419 1511.0461,-155.0238 1514.26,-161.2425"/>
</g>
<!-- Node8&#45;&gt;Node4 -->
<g id="edge12" class="edge">
<title>Node8&#45;&gt;Node4</title>
<path fill="none" stroke="#191970" d="M1395.375,-195.8906C1367.5737,-185.4652 1323.0156,-168.7559 1292.0006,-157.1252"/>
<polygon fill="#191970" stroke="#191970" points="1293.0373,-153.776 1282.4451,-153.5419 1290.5794,-160.3303 1293.0373,-153.776"/>
</g>
<!-- Node8&#45;&gt;Node9 -->
<g id="edge9" class="edge">
<title>Node8&#45;&gt;Node9</title>
<path fill="none" stroke="#191970" d="M1421.277,-195.7183C1421.5133,-181.8848 1421.3853,-155.8543 1418,-134 1416.3306,-123.2228 1413.2367,-111.469 1410.3812,-101.9148"/>
<polygon fill="#191970" stroke="#191970" points="1413.6772,-100.7278 1407.3472,-92.2318 1406.9974,-102.8209 1413.6772,-100.7278"/>
</g>
<!-- Node10 -->
<g id="node11" class="node">
<title>Node10</title>
<polygon fill="none" stroke="#bfbfbf" points="1316.5,-134.5 1316.5,-153.5 1409.5,-153.5 1409.5,-134.5 1316.5,-134.5"/>
<text text-anchor="middle" x="1363" y="-141.5" font-family="Helvetica,sans-Serif" font-size="10.00" fill="#000000">unordered_map</text>
</g>
<!-- Node8&#45;&gt;Node10 -->
<g id="edge11" class="edge">
<title>Node8&#45;&gt;Node10</title>
<path fill="none" stroke="#191970" d="M1411.9375,-195.8906C1403.2207,-186.6478 1389.846,-172.466 1379.2804,-161.2628"/>
<polygon fill="#191970" stroke="#191970" points="1381.5976,-158.6186 1372.1903,-153.7449 1376.505,-163.4213 1381.5976,-158.6186"/>
</g>
<!-- Node11 -->
<g id="node12" class="node">
<title>Node11</title>
<polygon fill="none" stroke="#bfbfbf" points="1451.5,-73 1451.5,-92 1500.5,-92 1500.5,-73 1451.5,-73"/>
<text text-anchor="middle" x="1476" y="-80" font-family="Helvetica,sans-Serif" font-size="10.00" fill="#000000">iosfwd</text>
</g>
<!-- Node8&#45;&gt;Node11 -->
<g id="edge13" class="edge">
<title>Node8&#45;&gt;Node11</title>
<path fill="none" stroke="#191970" d="M1425.3158,-195.8484C1434.3923,-175.5499 1455.5992,-128.1235 1467.5049,-101.4981"/>
<polygon fill="#191970" stroke="#191970" points="1470.8173,-102.6644 1471.7043,-92.1068 1464.4271,-99.807 1470.8173,-102.6644"/>
</g>
<!-- Node18 -->
<g id="node19" class="node">
<title>Node18</title>
<polygon fill="none" stroke="#bfbfbf" points="404,-73 404,-92 436,-92 436,-73 404,-73"/>
<text text-anchor="middle" x="420" y="-80" font-family="Helvetica,sans-Serif" font-size="10.00" fill="#000000">list</text>
</g>
<!-- Node17&#45;&gt;Node18 -->
<g id="edge21" class="edge">
<title>Node17&#45;&gt;Node18</title>
<path fill="none" stroke="#191970" d="M335.0432,-134.3577C350.4456,-125.0844 374.3522,-110.649 395,-98 395.2939,-97.8199 395.5898,-97.6386 395.8871,-97.4561"/>
<polygon fill="#191970" stroke="#191970" points="398.0045,-100.2625 404.6794,-92.0347 394.3305,-94.3041 398.0045,-100.2625"/>
</g>
<!-- Node19 -->
<g id="node20" class="node">
<title>Node19</title>
<polygon fill="none" stroke="#bfbfbf" points="454.5,-73 454.5,-92 507.5,-92 507.5,-73 454.5,-73"/>
<text text-anchor="middle" x="481" y="-80" font-family="Helvetica,sans-Serif" font-size="10.00" fill="#000000">cstddef</text>
</g>
<!-- Node17&#45;&gt;Node19 -->
<g id="edge22" class="edge">
<title>Node17&#45;&gt;Node19</title>
<path fill="none" stroke="#191970" d="M346.6987,-134.3948C372.3419,-125.3827 411.4571,-111.3316 445,-98 446.6086,-97.3607 448.2529,-96.6954 449.91,-96.0156"/>
<polygon fill="#191970" stroke="#191970" points="451.5126,-99.1388 459.3805,-92.0433 448.8051,-92.6837 451.5126,-99.1388"/>
</g>
<!-- Node20 -->
<g id="node21" class="node">
<title>Node20</title>
<polygon fill="none" stroke="#bfbfbf" points="0,-73 0,-92 50,-92 50,-73 0,-73"/>
<text text-anchor="middle" x="25" y="-80" font-family="Helvetica,sans-Serif" font-size="10.00" fill="#000000">atomic</text>
</g>
<!-- Node17&#45;&gt;Node20 -->
<g id="edge23" class="edge">
<title>Node17&#45;&gt;Node20</title>
<path fill="none" stroke="#191970" d="M239.8369,-135.276C187.6777,-128.2468 118.3127,-116.4401 59,-98 57.0951,-97.4078 55.1573,-96.7342 53.2219,-96.0073"/>
<polygon fill="#191970" stroke="#191970" points="54.3068,-92.6679 43.7295,-92.0591 51.6185,-99.1312 54.3068,-92.6679"/>
</g>
<!-- Node21 -->
<g id="node22" class="node">
<title>Node21</title>
<polygon fill="none" stroke="#bfbfbf" points="68.5,-67.5 68.5,-97.5 233.5,-97.5 233.5,-67.5 68.5,-67.5"/>
<text text-anchor="start" x="76.5" y="-85.5" font-family="Helvetica,sans-Serif" font-size="10.00" fill="#000000">boost/interprocess</text>
<text text-anchor="middle" x="151" y="-74.5" font-family="Helvetica,sans-Serif" font-size="10.00" fill="#000000">/managed_external_buffer.hpp</text>
</g>
<!-- Node17&#45;&gt;Node21 -->
<g id="edge24" class="edge">
<title>Node17&#45;&gt;Node21</title>
<path fill="none" stroke="#191970" d="M292.75,-134.3906C268.4343,-125.4893 231.6053,-112.0073 201.5817,-101.0165"/>
<polygon fill="#191970" stroke="#191970" points="202.6912,-97.6956 192.0974,-97.5446 200.2848,-104.269 202.6912,-97.6956"/>
</g>
<!-- Node22 -->
<g id="node23" class="node">
<title>Node22</title>
<polygon fill="none" stroke="#bfbfbf" points="252,-67.5 252,-97.5 386,-97.5 386,-67.5 252,-67.5"/>
<text text-anchor="start" x="260" y="-85.5" font-family="Helvetica,sans-Serif" font-size="10.00" fill="#000000">boost/interprocess</text>
<text text-anchor="middle" x="319" y="-74.5" font-family="Helvetica,sans-Serif" font-size="10.00" fill="#000000">/allocators/allocator.hpp</text>
</g>
<!-- Node17&#45;&gt;Node22 -->
<g id="edge25" class="edge">
<title>Node17&#45;&gt;Node22</title>
<path fill="none" stroke="#191970" d="M319,-134.3906C319,-127.2234 319,-117.0862 319,-107.671"/>
<polygon fill="#191970" stroke="#191970" points="322.5001,-107.5446 319,-97.5446 315.5001,-107.5446 322.5001,-107.5446"/>
</g>
<!-- Node23&#45;&gt;Node17 -->
<g id="edge27" class="edge">
<title>Node23&#45;&gt;Node17</title>
<path fill="none" stroke="#191970" d="M1145.1813,-195.9664C1132.1677,-193.708 1118.0868,-191.5175 1105,-190 853.558,-160.8432 554.6067,-149.7986 408.4466,-145.9193"/>
<polygon fill="#191970" stroke="#191970" points="408.2776,-142.4138 398.1898,-145.6522 408.0953,-149.4114 408.2776,-142.4138"/>
</g>
<!-- Node23&#45;&gt;Node24 -->
<g id="edge28" class="edge">
<title>Node23&#45;&gt;Node24</title>
<path fill="none" stroke="#191970" d="M1148.0748,-195.9581C1089.1596,-183.7173 988.1687,-162.7344 934.3169,-151.5456"/>
<polygon fill="#191970" stroke="#191970" points="934.7045,-148.0514 924.2015,-149.4439 933.2804,-154.9051 934.7045,-148.0514"/>
</g>
<!-- Node27&#45;&gt;Node9 -->
<g id="edge38" class="edge">
<title>Node27&#45;&gt;Node9</title>
<path fill="none" stroke="#191970" d="M1855.45,-135.592C1850.5619,-135.0358 1845.7063,-134.4992 1841,-134 1663.9394,-115.2206 1615.0078,-140.0882 1442,-98 1439.2092,-97.3211 1436.355,-96.4716 1433.5266,-95.5221"/>
<polygon fill="#191970" stroke="#191970" points="1434.7319,-92.2362 1424.1394,-92.0114 1432.2798,-98.7927 1434.7319,-92.2362"/>
</g>
<!-- Node27&#45;&gt;Node11 -->
<g id="edge40" class="edge">
<title>Node27&#45;&gt;Node11</title>
<path fill="none" stroke="#191970" d="M1855.4391,-135.6902C1850.5536,-135.111 1845.7015,-134.5423 1841,-134 1693.9961,-117.0429 1652.6948,-137.1903 1510,-98 1508.0295,-97.4588 1506.0291,-96.8161 1504.0361,-96.1051"/>
<polygon fill="#191970" stroke="#191970" points="1504.8854,-92.6716 1494.3042,-92.1343 1502.2409,-99.1528 1504.8854,-92.6716"/>
</g>
<!-- Node28 -->
<g id="node29" class="node">
<title>Node28</title>
<polygon fill="none" stroke="#bfbfbf" points="1519,-67.5 1519,-97.5 1683,-97.5 1683,-67.5 1519,-67.5"/>
<text text-anchor="start" x="1527" y="-85.5" font-family="Helvetica,sans-Serif" font-size="10.00" fill="#000000">Math/GenVector/Displacement</text>
<text text-anchor="middle" x="1601" y="-74.5" font-family="Helvetica,sans-Serif" font-size="10.00" fill="#000000">Vector3D.h</text>
</g>
<!-- Node27&#45;&gt;Node28 -->
<g id="edge33" class="edge">
<title>Node27&#45;&gt;Node28</title>
<path fill="none" stroke="#191970" d="M1873.0408,-134.4581C1824.1969,-125.1292 1748.7682,-110.7228 1689.714,-99.4438"/>
<polygon fill="#191970" stroke="#191970" points="1690.1168,-95.9576 1679.6377,-97.5193 1688.8035,-102.8333 1690.1168,-95.9576"/>
</g>
<!-- Node29 -->
<g id="node30" class="node">
<title>Node29</title>
<polygon fill="none" stroke="#bfbfbf" points="1701.5,-73 1701.5,-92 1890.5,-92 1890.5,-73 1701.5,-73"/>
<text text-anchor="middle" x="1796" y="-80" font-family="Helvetica,sans-Serif" font-size="10.00" fill="#000000">Math/GenVector/PositionVector3D.h</text>
</g>
<!-- Node27&#45;&gt;Node29 -->
<g id="edge34" class="edge">
<title>Node27&#45;&gt;Node29</title>
<path fill="none" stroke="#191970" d="M1903.1563,-134.3906C1882.1864,-124.2359 1848.9056,-108.1196 1824.9964,-96.5416"/>
<polygon fill="#191970" stroke="#191970" points="1826.2301,-93.2502 1815.7044,-92.0419 1823.1792,-99.5504 1826.2301,-93.2502"/>
</g>
<!-- Node30 -->
<g id="node31" class="node">
<title>Node30</title>
<polygon fill="none" stroke="#bfbfbf" points="1909,-73 1909,-92 2069,-92 2069,-73 1909,-73"/>
<text text-anchor="middle" x="1989" y="-80" font-family="Helvetica,sans-Serif" font-size="10.00" fill="#000000">Math/GenVector/Rotation3D.h</text>
</g>
<!-- Node27&#45;&gt;Node30 -->
<g id="edge35" class="edge">
<title>Node27&#45;&gt;Node30</title>
<path fill="none" stroke="#191970" d="M1933.3125,-134.3906C1943.4242,-124.9683 1959.0442,-110.4134 1971.1707,-99.1137"/>
<polygon fill="#191970" stroke="#191970" points="1973.612,-101.6228 1978.5421,-92.2449 1968.8399,-96.5015 1973.612,-101.6228"/>
</g>
<!-- Node31 -->
<g id="node32" class="node">
<title>Node31</title>
<polygon fill="none" stroke="#bfbfbf" points="2087,-73 2087,-92 2255,-92 2255,-73 2087,-73"/>
<text text-anchor="middle" x="2171" y="-80" font-family="Helvetica,sans-Serif" font-size="10.00" fill="#000000">Math/GenVector/Transform3D.h</text>
</g>
<!-- Node27&#45;&gt;Node31 -->
<g id="edge36" class="edge">
<title>Node27&#45;&gt;Node31</title>
<path fill="none" stroke="#191970" d="M1961.4779,-134.4581C2004.8269,-123.7082 2075.3639,-106.2162 2122.4627,-94.5365"/>
<polygon fill="#191970" stroke="#191970" points="2123.5683,-97.8684 2132.4318,-92.0643 2121.8834,-91.0742 2123.5683,-97.8684"/>
</g>
<!-- Node32 -->
<g id="node33" class="node">
<title>Node32</title>
<polygon fill="none" stroke="#bfbfbf" points="2273.5,-73 2273.5,-92 2446.5,-92 2446.5,-73 2273.5,-73"/>
<text text-anchor="middle" x="2360" y="-80" font-family="Helvetica,sans-Serif" font-size="10.00" fill="#000000">Math/GenVector/Translation3D.h</text>
</g>
<!-- Node27&#45;&gt;Node32 -->
<g id="edge37" class="edge">
<title>Node27&#45;&gt;Node32</title>
<path fill="none" stroke="#191970" d="M1990.6844,-135.3963C2059.5433,-126.5196 2169.3041,-112.0294 2264,-98 2273.296,-96.6228 2283.0882,-95.1116 2292.7213,-93.59"/>
<polygon fill="#191970" stroke="#191970" points="2293.3496,-97.0341 2302.675,-92.0055 2292.2491,-90.1211 2293.3496,-97.0341"/>
</g>
<!-- Node33 -->
<g id="node34" class="node">
<title>Node33</title>
<polygon fill="none" stroke="#bfbfbf" points="2465,-73 2465,-92 2547,-92 2547,-73 2465,-73"/>
<text text-anchor="middle" x="2506" y="-80" font-family="Helvetica,sans-Serif" font-size="10.00" fill="#000000">TGeoMatrix.h</text>
</g>
<!-- Node27&#45;&gt;Node33 -->
<g id="edge39" class="edge">
<title>Node27&#45;&gt;Node33</title>
<path fill="none" stroke="#191970" d="M1990.5356,-142.798C2092.3428,-139.9484 2290.7942,-130.3463 2456,-98 2460.3827,-97.1419 2464.9252,-96.0421 2469.4047,-94.825"/>
<polygon fill="#191970" stroke="#191970" points="2470.4025,-98.1799 2479.0237,-92.0216 2468.4438,-91.4595 2470.4025,-98.1799"/>
</g>
<!-- Node34 -->
<g id="node35" class="node">
<title>Node34</title>
<g id="a_node35"><a xlink:href="../../d2/dd0/Cartesian2D_8h.html" target="_top" xlink:title="MathUtils/Cartesian2D.h">
<polygon fill="none" stroke="#000000" points="2565.5,-73 2565.5,-92 2700.5,-92 2700.5,-73 2565.5,-73"/>
<text text-anchor="middle" x="2633" y="-80" font-family="Helvetica,sans-Serif" font-size="10.00" fill="#000000">MathUtils/Cartesian2D.h</text>
</a>
</g>
</g>
<!-- Node27&#45;&gt;Node34 -->
<g id="edge41" class="edge">
<title>Node27&#45;&gt;Node34</title>
<path fill="none" stroke="#191970" d="M1990.7418,-141.8807C2106.8849,-137.6219 2351.2982,-125.9275 2556,-98 2563.9726,-96.9123 2572.3608,-95.5025 2580.5495,-93.9769"/>
<polygon fill="#191970" stroke="#191970" points="2581.244,-97.4075 2590.3976,-92.0724 2579.9149,-90.5349 2581.244,-97.4075"/>
</g>
<!-- Node35 -->
<g id="node36" class="node">
<title>Node35</title>
<polygon fill="none" stroke="#bfbfbf" points="2453,-.5 2453,-30.5 2617,-30.5 2617,-.5 2453,-.5"/>
<text text-anchor="start" x="2461" y="-18.5" font-family="Helvetica,sans-Serif" font-size="10.00" fill="#000000">Math/GenVector/Displacement</text>
<text text-anchor="middle" x="2535" y="-7.5" font-family="Helvetica,sans-Serif" font-size="10.00" fill="#000000">Vector2D.h</text>
</g>
<!-- Node34&#45;&gt;Node35 -->
<g id="edge42" class="edge">
<title>Node34&#45;&gt;Node35</title>
<path fill="none" stroke="#191970" d="M2618.959,-72.9005C2605.0412,-63.3853 2583.272,-48.5023 2565.388,-36.2755"/>
<polygon fill="#191970" stroke="#191970" points="2567.2026,-33.2763 2556.9721,-30.5218 2563.2519,-39.0549 2567.2026,-33.2763"/>
</g>
<!-- Node36 -->
<g id="node37" class="node">
<title>Node36</title>
<polygon fill="none" stroke="#bfbfbf" points="2635.5,-6 2635.5,-25 2824.5,-25 2824.5,-6 2635.5,-6"/>
<text text-anchor="middle" x="2730" y="-13" font-family="Helvetica,sans-Serif" font-size="10.00" fill="#000000">Math/GenVector/PositionVector2D.h</text>
</g>
<!-- Node34&#45;&gt;Node36 -->
<g id="edge43" class="edge">
<title>Node34&#45;&gt;Node36</title>
<path fill="none" stroke="#191970" d="M2646.8977,-72.9005C2662.8164,-61.9052 2689.1121,-43.7422 2707.8599,-30.7927"/>
<polygon fill="#191970" stroke="#191970" points="2709.8892,-33.6448 2716.128,-25.0817 2705.9108,-27.8852 2709.8892,-33.6448"/>
</g>
<!-- Node37&#45;&gt;Node23 -->
<g id="edge47" class="edge">
<title>Node37&#45;&gt;Node23</title>
<path fill="none" stroke="#191970" d="M1628.9062,-260.9911C1547.7523,-250.6364 1380.483,-229.294 1278.677,-216.3042"/>
<polygon fill="#191970" stroke="#191970" points="1279.0926,-212.829 1268.73,-215.0351 1278.2066,-219.7727 1279.0926,-212.829"/>
</g>
<!-- Node38 -->
<g id="node39" class="node">
<title>Node38</title>
<g id="a_node39"><a xlink:href="../../d4/d25/BaseHits_8h.html" target="_top" xlink:title="SimulationDataFormat\l/BaseHits.h">
<polygon fill="none" stroke="#000000" points="1633.5,-190.5 1633.5,-220.5 1760.5,-220.5 1760.5,-190.5 1633.5,-190.5"/>
<text text-anchor="start" x="1641.5" y="-208.5" font-family="Helvetica,sans-Serif" font-size="10.00" fill="#000000">SimulationDataFormat</text>
<text text-anchor="middle" x="1697" y="-197.5" font-family="Helvetica,sans-Serif" font-size="10.00" fill="#000000">/BaseHits.h</text>
</a>
</g>
</g>
<!-- Node37&#45;&gt;Node38 -->
<g id="edge45" class="edge">
<title>Node37&#45;&gt;Node38</title>
<path fill="none" stroke="#191970" d="M1679.2813,-257.3906C1681.7812,-250.0692 1685.3394,-239.6488 1688.6121,-230.0647"/>
<polygon fill="#191970" stroke="#191970" points="1691.9435,-231.1391 1691.8628,-220.5446 1685.3191,-228.8771 1691.9435,-231.1391"/>
</g>
<!-- Node38&#45;&gt;Node27 -->
<g id="edge46" class="edge">
<title>Node38&#45;&gt;Node27</title>
<path fill="none" stroke="#191970" d="M1752.2858,-190.4554C1790.9868,-179.9239 1842.034,-166.0328 1878.1959,-156.1923"/>
<polygon fill="#191970" stroke="#191970" points="1879.2479,-159.5333 1887.978,-153.5303 1877.4099,-152.779 1879.2479,-159.5333"/>
</g>
</g>
</svg>
