<?xml version="1.0" encoding="UTF-8" standalone="no"?>
<!DOCTYPE svg PUBLIC "-//W3C//DTD SVG 1.1//EN"
 "http://www.w3.org/Graphics/SVG/1.1/DTD/svg11.dtd">
<!-- Generated by graphviz version 2.40.1 (20161225.0304)
 -->
<!-- Title: /home/travis/build/AliceO2Group/AliceO2/Framework/Core/include/Framework/DataDescriptorQueryBuilder.h Pages: 1 -->
<!--zoomable 374 -->
<svg id="main" version="1.1" xmlns="http://www.w3.org/2000/svg" xmlns:xlink="http://www.w3.org/1999/xlink" xml:space="preserve" onload="init(evt)">
<style type="text/css"><![CDATA[
.edge:hover path { stroke: red; }
.edge:hover polygon { stroke: red; fill: red; }
]]></style>
<script type="text/javascript"><![CDATA[
var edges = document.getElementsByTagName('g');
if (edges && edges.length) {
  for (var i=0;i<edges.length;i++) {
    if (edges[i].id.substr(0,4)=='edge') {
      edges[i].setAttribute('class','edge');
    }
  }
}
]]></script>
        <defs>
                <circle id="rim" cx="0" cy="0" r="7"/>
                <circle id="rim2" cx="0" cy="0" r="3.5"/>
                <g id="zoomPlus">
                        <use xlink:href="#rim" fill="#404040">
                                <set attributeName="fill" to="#808080" begin="zoomplus.mouseover" end="zoomplus.mouseout"/>
                        </use>
                        <path d="M-4,0h8M0,-4v8" fill="none" stroke="white" stroke-width="1.5" pointer-events="none"/>
                </g>
                <g id="zoomMin">
                        <use xlink:href="#rim" fill="#404040">
                                <set attributeName="fill" to="#808080" begin="zoomminus.mouseover" end="zoomminus.mouseout"/>
                        </use>
                        <path d="M-4,0h8" fill="none" stroke="white" stroke-width="1.5" pointer-events="none"/>
                </g>
                <g id="dirArrow">
                        <path fill="none" stroke="white" stroke-width="1.5" d="M0,-3.0v7 M-2.5,-0.5L0,-3.0L2.5,-0.5"/>
                </g>
               <g id="resetDef">
                       <use xlink:href="#rim2" fill="#404040">
                               <set attributeName="fill" to="#808080" begin="reset.mouseover" end="reset.mouseout"/>
                       </use>
               </g>
        </defs>

<script type="text/javascript">
var viewWidth = 2882;
var viewHeight = 374;
var sectionId = 'dynsection-0';
</script>
<script xlink:href="../../svgpan.js"/>
<svg id="graph" class="graph">
<g id="viewport">
<title>/home/travis/build/AliceO2Group/AliceO2/Framework/Core/include/Framework/DataDescriptorQueryBuilder.h</title>
<!-- Node0 -->
<g id="node1" class="node">
<title>Node0</title>
<polygon fill="#bfbfbf" stroke="#000000" points="1411,-313.5 1411,-365.5 1633,-365.5 1633,-313.5 1411,-313.5"/>
<text text-anchor="start" x="1419" y="-353.5" font-family="Helvetica,sans-Serif" font-size="10.00" fill="#000000">/home/travis/build</text>
<text text-anchor="start" x="1419" y="-342.5" font-family="Helvetica,sans-Serif" font-size="10.00" fill="#000000">/AliceO2Group/AliceO2</text>
<text text-anchor="start" x="1419" y="-331.5" font-family="Helvetica,sans-Serif" font-size="10.00" fill="#000000">/Framework/Core/include</text>
<text text-anchor="middle" x="1522" y="-320.5" font-family="Helvetica,sans-Serif" font-size="10.00" fill="#000000">/Framework/DataDescriptorQueryBuilder.h</text>
</g>
<!-- Node1 -->
<g id="node2" class="node">
<title>Node1</title>
<g id="a_node2"><a xlink:href="../../d5/d3f/InputSpec_8h.html" target="_top" xlink:title="Framework/InputSpec.h">
<polygon fill="none" stroke="#000000" points="939.5,-257.5 939.5,-276.5 1070.5,-276.5 1070.5,-257.5 939.5,-257.5"/>
<text text-anchor="middle" x="1005" y="-264.5" font-family="Helvetica,sans-Serif" font-size="10.00" fill="#000000">Framework/InputSpec.h</text>
</a>
</g>
</g>
<!-- Node0&#45;&gt;Node1 -->
<g id="edge1" class="edge">
<title>Node0&#45;&gt;Node1</title>
<path fill="none" stroke="#191970" d="M1410.773,-323.9024C1311.1438,-309.9312 1167.716,-289.818 1080.7575,-277.6236"/>
<polygon fill="#191970" stroke="#191970" points="1081.0894,-274.136 1070.7003,-276.2133 1080.1173,-281.0682 1081.0894,-274.136"/>
</g>
<!-- Node6 -->
<g id="node7" class="node">
<title>Node6</title>
<polygon fill="none" stroke="#bfbfbf" points="1059,-6 1059,-25 1117,-25 1117,-6 1059,-6"/>
<text text-anchor="middle" x="1088" y="-13" font-family="Helvetica,sans-Serif" font-size="10.00" fill="#000000">memory</text>
</g>
<!-- Node0&#45;&gt;Node6 -->
<g id="edge68" class="edge">
<title>Node0&#45;&gt;Node6</title>
<path fill="none" stroke="#191970" d="M1522,-313.3099C1522,-286.2986 1522,-242.9549 1522,-205.5 1522,-205.5 1522,-205.5 1522,-138.5 1522,-127.602 1512.7563,-127.8559 1503,-123 1348.5955,-46.1494 1290.0756,-84.1599 1126,-31 1123.8522,-30.3041 1121.6539,-29.543 1119.4505,-28.7435"/>
<polygon fill="#191970" stroke="#191970" points="1120.4887,-25.3931 1109.8986,-25.0757 1117.9793,-31.9279 1120.4887,-25.3931"/>
</g>
<!-- Node11 -->
<g id="node12" class="node">
<title>Node11</title>
<polygon fill="none" stroke="#bfbfbf" points="491,-6 491,-25 535,-25 535,-6 491,-6"/>
<text text-anchor="middle" x="513" y="-13" font-family="Helvetica,sans-Serif" font-size="10.00" fill="#000000">string</text>
</g>
<!-- Node0&#45;&gt;Node11 -->
<g id="edge66" class="edge">
<title>Node0&#45;&gt;Node11</title>
<path fill="none" stroke="#191970" d="M1410.649,-336.1965C1148.2402,-326.9318 513,-295.2364 513,-205.5 513,-205.5 513,-205.5 513,-138.5 513,-101.9994 513,-59.406 513,-35.1285"/>
<polygon fill="#191970" stroke="#191970" points="516.5001,-35.0691 513,-25.0691 509.5001,-35.0692 516.5001,-35.0691"/>
</g>
<!-- Node28 -->
<g id="node29" class="node">
<title>Node28</title>
<polygon fill="none" stroke="#bfbfbf" points="2826.5,-6 2826.5,-25 2873.5,-25 2873.5,-6 2826.5,-6"/>
<text text-anchor="middle" x="2850" y="-13" font-family="Helvetica,sans-Serif" font-size="10.00" fill="#000000">vector</text>
</g>
<!-- Node0&#45;&gt;Node28 -->
<g id="edge67" class="edge">
<title>Node0&#45;&gt;Node28</title>
<path fill="none" stroke="#191970" d="M1628.4739,-313.4293C1715.4215,-288.9307 1824,-249.5238 1824,-205.5 1824,-205.5 1824,-205.5 1824,-138.5 1824,-27.4115 2711.2194,-61.6359 2818,-31 2819.7133,-30.5084 2821.4473,-29.9306 2823.1754,-29.2921"/>
<polygon fill="#191970" stroke="#191970" points="2825.0149,-32.3115 2832.8248,-25.1521 2822.2549,-25.8785 2825.0149,-32.3115"/>
</g>
<!-- Node44 -->
<g id="node45" class="node">
<title>Node44</title>
<polygon fill="none" stroke="#bfbfbf" points="1852,-257.5 1852,-276.5 1896,-276.5 1896,-257.5 1852,-257.5"/>
<text text-anchor="middle" x="1874" y="-264.5" font-family="Helvetica,sans-Serif" font-size="10.00" fill="#000000">regex</text>
</g>
<!-- Node0&#45;&gt;Node44 -->
<g id="edge69" class="edge">
<title>Node0&#45;&gt;Node44</title>
<path fill="none" stroke="#191970" d="M1633.2223,-319.6312C1693.9744,-308.2443 1770.3939,-293.0512 1838,-277 1839.278,-276.6966 1840.5791,-276.3786 1841.8916,-276.0502"/>
<polygon fill="#191970" stroke="#191970" points="1843.2006,-279.3252 1851.9836,-273.3999 1841.4225,-272.5548 1843.2006,-279.3252"/>
</g>
<!-- Node2 -->
<g id="node3" class="node">
<title>Node2</title>
<g id="a_node3"><a xlink:href="../../dc/dca/Lifetime_8h.html" target="_top" xlink:title="Framework/Lifetime.h">
<polygon fill="none" stroke="#000000" points="739.5,-196 739.5,-215 862.5,-215 862.5,-196 739.5,-196"/>
<text text-anchor="middle" x="801" y="-203" font-family="Helvetica,sans-Serif" font-size="10.00" fill="#000000">Framework/Lifetime.h</text>
</a>
</g>
</g>
<!-- Node1&#45;&gt;Node2 -->
<g id="edge2" class="edge">
<title>Node1&#45;&gt;Node2</title>
<path fill="none" stroke="#191970" d="M973.125,-257.3906C937.9441,-246.7846 881.1912,-229.6753 842.5485,-218.0257"/>
<polygon fill="#191970" stroke="#191970" points="843.2358,-214.5773 832.6512,-215.0419 841.2153,-221.2794 843.2358,-214.5773"/>
</g>
<!-- Node3 -->
<g id="node4" class="node">
<title>Node3</title>
<g id="a_node4"><a xlink:href="../../d0/d1b/ConcreteDataMatcher_8h.html" target="_top" xlink:title="Framework/ConcreteDataMatcher.h">
<polygon fill="none" stroke="#000000" points="1198,-129 1198,-148 1386,-148 1386,-129 1198,-129"/>
<text text-anchor="middle" x="1292" y="-136" font-family="Helvetica,sans-Serif" font-size="10.00" fill="#000000">Framework/ConcreteDataMatcher.h</text>
</a>
</g>
</g>
<!-- Node1&#45;&gt;Node3 -->
<g id="edge3" class="edge">
<title>Node1&#45;&gt;Node3</title>
<path fill="none" stroke="#191970" d="M1011.001,-257.2407C1021.7076,-240.695 1045.7465,-207.2582 1075,-190 1100.2338,-175.1133 1171.4634,-159.8304 1225.4915,-149.8218"/>
<polygon fill="#191970" stroke="#191970" points="1226.1576,-153.2582 1235.3645,-148.0157 1224.8979,-146.3724 1226.1576,-153.2582"/>
</g>
<!-- Node1&#45;&gt;Node11 -->
<g id="edge63" class="edge">
<title>Node1&#45;&gt;Node11</title>
<path fill="none" stroke="#191970" d="M939.2892,-261.3962C882.773,-255.3121 799.603,-243.3183 730,-221 665.4566,-200.304 642.5514,-200.2475 593,-154 555.9364,-119.4076 531.0481,-63.7098 519.8208,-34.6064"/>
<polygon fill="#191970" stroke="#191970" points="523.0778,-33.3233 516.3052,-25.1758 516.5187,-35.7684 523.0778,-33.3233"/>
</g>
<!-- Node15 -->
<g id="node16" class="node">
<title>Node15</title>
<g id="a_node16"><a xlink:href="../../d3/da3/DataDescriptorMatcher_8h.html" target="_top" xlink:title="Framework/DataDescriptor\lMatcher.h">
<polygon fill="none" stroke="#000000" points="880.5,-190.5 880.5,-220.5 1027.5,-220.5 1027.5,-190.5 880.5,-190.5"/>
<text text-anchor="start" x="888.5" y="-208.5" font-family="Helvetica,sans-Serif" font-size="10.00" fill="#000000">Framework/DataDescriptor</text>
<text text-anchor="middle" x="954" y="-197.5" font-family="Helvetica,sans-Serif" font-size="10.00" fill="#000000">Matcher.h</text>
</a>
</g>
</g>
<!-- Node1&#45;&gt;Node15 -->
<g id="edge15" class="edge">
<title>Node1&#45;&gt;Node15</title>
<path fill="none" stroke="#191970" d="M997.0313,-257.3906C990.5764,-249.6068 981.2168,-238.3202 972.8739,-228.2597"/>
<polygon fill="#191970" stroke="#191970" points="975.5536,-226.008 966.476,-220.5446 970.1652,-230.4764 975.5536,-226.008"/>
</g>
<!-- Node36 -->
<g id="node37" class="node">
<title>Node36</title>
<polygon fill="none" stroke="#bfbfbf" points="1442.5,-129 1442.5,-148 1493.5,-148 1493.5,-129 1442.5,-129"/>
<text text-anchor="middle" x="1468" y="-136" font-family="Helvetica,sans-Serif" font-size="10.00" fill="#000000">variant</text>
</g>
<!-- Node1&#45;&gt;Node36 -->
<g id="edge65" class="edge">
<title>Node1&#45;&gt;Node36</title>
<path fill="none" stroke="#191970" d="M1046.5672,-257.4838C1122.8826,-239.6626 1290.1563,-198.9718 1428,-154 1430.2701,-153.2594 1432.599,-152.4611 1434.9364,-151.6313"/>
<polygon fill="#191970" stroke="#191970" points="1436.298,-154.8595 1444.4639,-148.1091 1433.8706,-148.2939 1436.298,-154.8595"/>
</g>
<!-- Node38 -->
<g id="node39" class="node">
<title>Node38</title>
<g id="a_node39"><a xlink:href="../../d0/d1c/ConfigParamSpec_8h.html" target="_top" xlink:title="Framework/ConfigParamSpec.h">
<polygon fill="none" stroke="#000000" points="254.5,-129 254.5,-148 421.5,-148 421.5,-129 254.5,-129"/>
<text text-anchor="middle" x="338" y="-136" font-family="Helvetica,sans-Serif" font-size="10.00" fill="#000000">Framework/ConfigParamSpec.h</text>
</a>
</g>
</g>
<!-- Node1&#45;&gt;Node38 -->
<g id="edge51" class="edge">
<title>Node1&#45;&gt;Node38</title>
<path fill="none" stroke="#191970" d="M939.2378,-262.9353C828.9429,-255.7165 611.4421,-239.651 537,-221 473.059,-204.98 402.8358,-171.9138 365.2887,-152.8667"/>
<polygon fill="#191970" stroke="#191970" points="366.5285,-149.5691 356.0335,-148.1184 363.3332,-155.7973 366.5285,-149.5691"/>
</g>
<!-- Node43 -->
<g id="node44" class="node">
<title>Node43</title>
<polygon fill="none" stroke="#bfbfbf" points="1084.5,-196 1084.5,-215 1141.5,-215 1141.5,-196 1084.5,-196"/>
<text text-anchor="middle" x="1113" y="-203" font-family="Helvetica,sans-Serif" font-size="10.00" fill="#000000">ostream</text>
</g>
<!-- Node1&#45;&gt;Node43 -->
<g id="edge64" class="edge">
<title>Node1&#45;&gt;Node43</title>
<path fill="none" stroke="#191970" d="M1021.875,-257.3906C1039.4698,-247.3713 1067.2566,-231.5483 1087.5241,-220.0071"/>
<polygon fill="#191970" stroke="#191970" points="1089.2856,-223.0318 1096.2435,-215.0419 1085.8217,-216.9489 1089.2856,-223.0318"/>
</g>
<!-- Node4 -->
<g id="node5" class="node">
<title>Node4</title>
<g id="a_node5"><a xlink:href="../../dc/dcd/DataHeader_8h.html" target="_top" xlink:title="Headers/DataHeader.h">
<polygon fill="none" stroke="#000000" points="911.5,-67.5 911.5,-86.5 1038.5,-86.5 1038.5,-67.5 911.5,-67.5"/>
<text text-anchor="middle" x="975" y="-74.5" font-family="Helvetica,sans-Serif" font-size="10.00" fill="#000000">Headers/DataHeader.h</text>
</a>
</g>
</g>
<!-- Node3&#45;&gt;Node4 -->
<g id="edge4" class="edge">
<title>Node3&#45;&gt;Node4</title>
<path fill="none" stroke="#191970" d="M1242.8166,-128.9581C1186.5114,-118.0345 1094.3217,-100.1492 1034.147,-88.4749"/>
<polygon fill="#191970" stroke="#191970" points="1034.5216,-84.9824 1024.038,-86.5137 1033.1883,-91.8542 1034.5216,-84.9824"/>
</g>
<!-- Node5 -->
<g id="node6" class="node">
<title>Node5</title>
<polygon fill="none" stroke="#bfbfbf" points="553,-6 553,-25 603,-25 603,-6 553,-6"/>
<text text-anchor="middle" x="578" y="-13" font-family="Helvetica,sans-Serif" font-size="10.00" fill="#000000">cstdint</text>
</g>
<!-- Node4&#45;&gt;Node5 -->
<g id="edge5" class="edge">
<title>Node4&#45;&gt;Node5</title>
<path fill="none" stroke="#191970" d="M911.4487,-71.2721C822.8072,-62.8849 666.7655,-46.564 612,-31 610.0344,-30.4414 608.0377,-29.7856 606.0473,-29.0649"/>
<polygon fill="#191970" stroke="#191970" points="606.9018,-25.6322 596.3218,-25.0713 604.2428,-32.1076 606.9018,-25.6322"/>
</g>
<!-- Node4&#45;&gt;Node6 -->
<g id="edge6" class="edge">
<title>Node4&#45;&gt;Node6</title>
<path fill="none" stroke="#191970" d="M992.6563,-67.3906C1011.1486,-57.3262 1040.401,-41.4057 1061.6308,-29.8514"/>
<polygon fill="#191970" stroke="#191970" points="1063.3575,-32.8965 1070.4677,-25.0419 1060.0112,-26.7481 1063.3575,-32.8965"/>
</g>
<!-- Node7 -->
<g id="node8" class="node">
<title>Node7</title>
<polygon fill="none" stroke="#bfbfbf" points="621,-6 621,-25 673,-25 673,-6 621,-6"/>
<text text-anchor="middle" x="647" y="-13" font-family="Helvetica,sans-Serif" font-size="10.00" fill="#000000">cassert</text>
</g>
<!-- Node4&#45;&gt;Node7 -->
<g id="edge7" class="edge">
<title>Node4&#45;&gt;Node7</title>
<path fill="none" stroke="#191970" d="M911.3712,-67.9108C831.8581,-56.4125 703.5486,-37.3439 682,-31 679.8763,-30.3748 677.7127,-29.6498 675.5554,-28.8617"/>
<polygon fill="#191970" stroke="#191970" points="676.8655,-25.6161 666.2825,-25.115 674.2431,-32.1064 676.8655,-25.6161"/>
</g>
<!-- Node8 -->
<g id="node9" class="node">
<title>Node8</title>
<polygon fill="none" stroke="#bfbfbf" points="691,-6 691,-25 741,-25 741,-6 691,-6"/>
<text text-anchor="middle" x="716" y="-13" font-family="Helvetica,sans-Serif" font-size="10.00" fill="#000000">cstring</text>
</g>
<!-- Node4&#45;&gt;Node8 -->
<g id="edge8" class="edge">
<title>Node4&#45;&gt;Node8</title>
<path fill="none" stroke="#191970" d="M911.4555,-67.947C865.8379,-60.5018 803.267,-48.3393 750,-31 748.1494,-30.3976 746.2656,-29.7235 744.3819,-29.0029"/>
<polygon fill="#191970" stroke="#191970" points="745.6928,-25.7574 735.1167,-25.1272 742.9914,-32.2152 745.6928,-25.7574"/>
</g>
<!-- Node9 -->
<g id="node10" class="node">
<title>Node9</title>
<polygon fill="none" stroke="#bfbfbf" points="825,-6 825,-25 889,-25 889,-6 825,-6"/>
<text text-anchor="middle" x="857" y="-13" font-family="Helvetica,sans-Serif" font-size="10.00" fill="#000000">algorithm</text>
</g>
<!-- Node4&#45;&gt;Node9 -->
<g id="edge9" class="edge">
<title>Node4&#45;&gt;Node9</title>
<path fill="none" stroke="#191970" d="M956.5625,-67.3906C937.1653,-57.2811 906.431,-41.2628 884.2383,-29.6962"/>
<polygon fill="#191970" stroke="#191970" points="885.7936,-26.56 875.308,-25.0419 882.5582,-32.7675 885.7936,-26.56"/>
</g>
<!-- Node10 -->
<g id="node11" class="node">
<title>Node10</title>
<polygon fill="none" stroke="#bfbfbf" points="907.5,-6 907.5,-25 972.5,-25 972.5,-6 907.5,-6"/>
<text text-anchor="middle" x="940" y="-13" font-family="Helvetica,sans-Serif" font-size="10.00" fill="#000000">stdexcept</text>
</g>
<!-- Node4&#45;&gt;Node10 -->
<g id="edge10" class="edge">
<title>Node4&#45;&gt;Node10</title>
<path fill="none" stroke="#191970" d="M969.5313,-67.3906C964.4754,-58.5068 956.8228,-45.0601 950.5746,-34.0811"/>
<polygon fill="#191970" stroke="#191970" points="953.534,-32.2048 945.5459,-25.2449 947.4502,-35.6672 953.534,-32.2048"/>
</g>
<!-- Node4&#45;&gt;Node11 -->
<g id="edge11" class="edge">
<title>Node4&#45;&gt;Node11</title>
<path fill="none" stroke="#191970" d="M911.3577,-70.8088C795.7126,-59.4746 561.3544,-36.0842 544,-31 542.2929,-30.4999 540.5667,-29.9086 538.8485,-29.2538"/>
<polygon fill="#191970" stroke="#191970" points="539.8449,-25.8666 529.2853,-25.0029 537.0015,-32.2631 539.8449,-25.8666"/>
</g>
<!-- Node12 -->
<g id="node13" class="node">
<title>Node12</title>
<polygon fill="none" stroke="#bfbfbf" points="991,-6 991,-25 1041,-25 1041,-6 991,-6"/>
<text text-anchor="middle" x="1016" y="-13" font-family="Helvetica,sans-Serif" font-size="10.00" fill="#000000">climits</text>
</g>
<!-- Node4&#45;&gt;Node12 -->
<g id="edge12" class="edge">
<title>Node4&#45;&gt;Node12</title>
<path fill="none" stroke="#191970" d="M981.4063,-67.3906C987.3886,-58.417 996.4747,-44.7879 1003.8339,-33.7491"/>
<polygon fill="#191970" stroke="#191970" points="1006.8686,-35.5068 1009.5034,-25.2449 1001.0442,-31.6239 1006.8686,-35.5068"/>
</g>
<!-- Node13 -->
<g id="node14" class="node">
<title>Node13</title>
<g id="a_node14"><a xlink:href="../../d7/df8/Types_8h.html" target="_top" xlink:title="MemoryResources/Types.h">
<polygon fill="none" stroke="#000000" points="1223,-6 1223,-25 1369,-25 1369,-6 1223,-6"/>
<text text-anchor="middle" x="1296" y="-13" font-family="Helvetica,sans-Serif" font-size="10.00" fill="#000000">MemoryResources/Types.h</text>
</a>
</g>
</g>
<!-- Node4&#45;&gt;Node13 -->
<g id="edge13" class="edge">
<title>Node4&#45;&gt;Node13</title>
<path fill="none" stroke="#191970" d="M1024.804,-67.4581C1081.9375,-56.512 1175.5586,-38.5752 1236.484,-26.9026"/>
<polygon fill="#191970" stroke="#191970" points="1237.1805,-30.3329 1246.3432,-25.0137 1235.8632,-23.4579 1237.1805,-30.3329"/>
</g>
<!-- Node14 -->
<g id="node15" class="node">
<title>Node14</title>
<polygon fill="none" stroke="#bfbfbf" points="759.5,-6 759.5,-25 806.5,-25 806.5,-6 759.5,-6"/>
<text text-anchor="middle" x="783" y="-13" font-family="Helvetica,sans-Serif" font-size="10.00" fill="#000000">cerrno</text>
</g>
<!-- Node4&#45;&gt;Node14 -->
<g id="edge14" class="edge">
<title>Node4&#45;&gt;Node14</title>
<path fill="none" stroke="#191970" d="M935.5596,-67.4382C903.0388,-59.1159 855.9322,-46.0473 816,-31 814.4119,-30.4016 812.7944,-29.7584 811.1712,-29.0866"/>
<polygon fill="#191970" stroke="#191970" points="812.5378,-25.8641 801.9755,-25.0351 809.7154,-32.2699 812.5378,-25.8641"/>
</g>
<!-- Node15&#45;&gt;Node3 -->
<g id="edge16" class="edge">
<title>Node15&#45;&gt;Node3</title>
<path fill="none" stroke="#191970" d="M1027.7579,-190.8794C1089.6936,-178.6022 1176.9691,-161.302 1234.0021,-149.9966"/>
<polygon fill="#191970" stroke="#191970" points="1234.8074,-153.4052 1243.936,-148.0275 1233.4463,-146.5388 1234.8074,-153.4052"/>
</g>
<!-- Node15&#45;&gt;Node4 -->
<g id="edge25" class="edge">
<title>Node15&#45;&gt;Node4</title>
<path fill="none" stroke="#191970" d="M994.9108,-190.4816C1011.0283,-182.3159 1027.8481,-170.4491 1037,-154 1043.6986,-141.9603 1043.1935,-135.3072 1037,-123 1030.3263,-109.7387 1017.8207,-99.3415 1005.7793,-91.8125"/>
<polygon fill="#191970" stroke="#191970" points="1007.177,-88.5783 996.7658,-86.6143 1003.6799,-94.6422 1007.177,-88.5783"/>
</g>
<!-- Node15&#45;&gt;Node5 -->
<g id="edge45" class="edge">
<title>Node15&#45;&gt;Node5</title>
<path fill="none" stroke="#191970" d="M880.2517,-191.6249C877.1271,-191.0696 874.0331,-190.5258 871,-190 771.2161,-172.7031 727.4394,-214.1965 646,-154 645.3388,-153.5113 605.6507,-72.2171 587.2207,-34.4198"/>
<polygon fill="#191970" stroke="#191970" points="590.3603,-32.8727 582.8322,-25.4176 584.0682,-35.9401 590.3603,-32.8727"/>
</g>
<!-- Node15&#45;&gt;Node11 -->
<g id="edge47" class="edge">
<title>Node15&#45;&gt;Node11</title>
<path fill="none" stroke="#191970" d="M880.2596,-191.5783C877.1329,-191.0357 874.0363,-190.5073 871,-190 762.8803,-171.9352 720.5062,-211.2082 627,-154 586.4982,-129.2205 595.7581,-103.1712 565,-67 554.5055,-54.6586 541.5659,-41.8358 531.2199,-32.0724"/>
<polygon fill="#191970" stroke="#191970" points="533.6032,-29.5092 523.8972,-25.2612 528.8357,-34.6347 533.6032,-29.5092"/>
</g>
<!-- Node16 -->
<g id="node17" class="node">
<title>Node16</title>
<g id="a_node17"><a xlink:href="../../d6/dc9/DataProcessingHeader_8h.html" target="_top" xlink:title="Framework/DataProcessing\lHeader.h">
<polygon fill="none" stroke="#000000" points="879.5,-123.5 879.5,-153.5 1028.5,-153.5 1028.5,-123.5 879.5,-123.5"/>
<text text-anchor="start" x="887.5" y="-141.5" font-family="Helvetica,sans-Serif" font-size="10.00" fill="#000000">Framework/DataProcessing</text>
<text text-anchor="middle" x="954" y="-130.5" font-family="Helvetica,sans-Serif" font-size="10.00" fill="#000000">Header.h</text>
</a>
</g>
</g>
<!-- Node15&#45;&gt;Node16 -->
<g id="edge17" class="edge">
<title>Node15&#45;&gt;Node16</title>
<path fill="none" stroke="#191970" d="M954,-190.2967C954,-182.5013 954,-172.7991 954,-163.9064"/>
<polygon fill="#191970" stroke="#191970" points="957.5001,-163.6431 954,-153.6432 950.5001,-163.6432 957.5001,-163.6431"/>
</g>
<!-- Node19 -->
<g id="node20" class="node">
<title>Node19</title>
<g id="a_node20"><a xlink:href="../../d1/d76/RuntimeError_8h.html" target="_top" xlink:title="Framework/RuntimeError.h">
<polygon fill="none" stroke="#000000" points="0,-6 0,-25 146,-25 146,-6 0,-6"/>
<text text-anchor="middle" x="73" y="-13" font-family="Helvetica,sans-Serif" font-size="10.00" fill="#000000">Framework/RuntimeError.h</text>
</a>
</g>
</g>
<!-- Node15&#45;&gt;Node19 -->
<g id="edge24" class="edge">
<title>Node15&#45;&gt;Node19</title>
<path fill="none" stroke="#191970" d="M880.3091,-191.2354C877.1688,-190.7867 874.0558,-190.3717 871,-190 732.6784,-173.1764 375.0277,-204.0868 245,-154 176.9805,-127.7988 115.1243,-64.1235 87.794,-33.0881"/>
<polygon fill="#191970" stroke="#191970" points="90.2126,-30.5339 81.0246,-25.2583 84.9173,-35.1121 90.2126,-30.5339"/>
</g>
<!-- Node20 -->
<g id="node21" class="node">
<title>Node20</title>
<g id="a_node21"><a xlink:href="../../d4/d00/Headers_2include_2Headers_2Stack_8h.html" target="_top" xlink:title="Headers/Stack.h">
<polygon fill="none" stroke="#000000" points="1084,-129 1084,-148 1180,-148 1180,-129 1084,-129"/>
<text text-anchor="middle" x="1132" y="-136" font-family="Helvetica,sans-Serif" font-size="10.00" fill="#000000">Headers/Stack.h</text>
</a>
</g>
</g>
<!-- Node15&#45;&gt;Node20 -->
<g id="edge26" class="edge">
<title>Node15&#45;&gt;Node20</title>
<path fill="none" stroke="#191970" d="M993.9467,-190.4639C1024.9811,-178.7824 1067.5881,-162.7449 1097.2279,-151.5884"/>
<polygon fill="#191970" stroke="#191970" points="1098.6212,-154.8037 1106.7471,-148.0053 1096.1552,-148.2525 1098.6212,-154.8037"/>
</g>
<!-- Node15&#45;&gt;Node28 -->
<g id="edge49" class="edge">
<title>Node15&#45;&gt;Node28</title>
<path fill="none" stroke="#191970" d="M1027.5631,-195.8929C1043.2157,-193.9002 1059.6503,-191.8465 1075,-190 1217.095,-172.9071 1262.7267,-208.6528 1395,-154 1415.4641,-145.5446 1413.5176,-131.411 1434,-123 1571.7041,-66.4527 1623.5914,-126.9245 1767,-87 1787.305,-81.3472 1789.5047,-71.9185 1810,-67 2027.9546,-14.6952 2600.4631,-85.0159 2818,-31 2819.977,-30.5091 2821.9761,-29.8872 2823.9587,-29.1762"/>
<polygon fill="#191970" stroke="#191970" points="2825.7367,-32.2226 2833.5557,-25.0732 2822.9848,-25.7861 2825.7367,-32.2226"/>
</g>
<!-- Node34 -->
<g id="node35" class="node">
<title>Node34</title>
<polygon fill="none" stroke="#bfbfbf" points="655,-129 655,-148 697,-148 697,-129 655,-129"/>
<text text-anchor="middle" x="676" y="-136" font-family="Helvetica,sans-Serif" font-size="10.00" fill="#000000">array</text>
</g>
<!-- Node15&#45;&gt;Node34 -->
<g id="edge44" class="edge">
<title>Node15&#45;&gt;Node34</title>
<path fill="none" stroke="#191970" d="M880.3105,-191.2518C813.289,-178.1205 722.3966,-159.8152 706,-154 704.5842,-153.4979 703.1512,-152.9409 701.7187,-152.3452"/>
<polygon fill="#191970" stroke="#191970" points="703.0003,-149.081 692.4586,-148.0209 700.0384,-155.4235 703.0003,-149.081"/>
</g>
<!-- Node35 -->
<g id="node36" class="node">
<title>Node35</title>
<polygon fill="none" stroke="#bfbfbf" points="423.5,-6 423.5,-25 472.5,-25 472.5,-6 423.5,-6"/>
<text text-anchor="middle" x="448" y="-13" font-family="Helvetica,sans-Serif" font-size="10.00" fill="#000000">iosfwd</text>
</g>
<!-- Node15&#45;&gt;Node35 -->
<g id="edge46" class="edge">
<title>Node15&#45;&gt;Node35</title>
<path fill="none" stroke="#191970" d="M880.2707,-191.5103C877.1409,-190.9863 874.0406,-190.4804 871,-190 747.9393,-170.557 705.4201,-207.7001 593,-154 534.0724,-125.8519 483.6458,-64.5855 460.9042,-33.8531"/>
<polygon fill="#191970" stroke="#191970" points="463.4574,-31.4115 454.7565,-25.3662 457.7884,-35.518 463.4574,-31.4115"/>
</g>
<!-- Node15&#45;&gt;Node36 -->
<g id="edge48" class="edge">
<title>Node15&#45;&gt;Node36</title>
<path fill="none" stroke="#191970" d="M1027.5487,-195.7706C1043.2023,-193.7861 1059.6409,-191.7666 1075,-190 1231.6697,-171.9796 1274.6561,-190.8209 1428,-154 1430.8514,-153.3153 1433.772,-152.4746 1436.673,-151.542"/>
<polygon fill="#191970" stroke="#191970" points="1438.0803,-154.7564 1446.3317,-148.1106 1435.737,-148.1602 1438.0803,-154.7564"/>
</g>
<!-- Node37 -->
<g id="node38" class="node">
<title>Node37</title>
<polygon fill="none" stroke="#bfbfbf" points="715,-129 715,-148 861,-148 861,-129 715,-129"/>
<text text-anchor="middle" x="788" y="-136" font-family="Helvetica,sans-Serif" font-size="10.00" fill="#000000">DataDescriptorMatcher.inc</text>
</g>
<!-- Node15&#45;&gt;Node37 -->
<g id="edge50" class="edge">
<title>Node15&#45;&gt;Node37</title>
<path fill="none" stroke="#191970" d="M916.7464,-190.4639C888.1409,-178.9183 848.9928,-163.1176 821.3978,-151.9798"/>
<polygon fill="#191970" stroke="#191970" points="822.378,-148.6012 811.7948,-148.1039 819.758,-155.0924 822.378,-148.6012"/>
</g>
<!-- Node16&#45;&gt;Node4 -->
<g id="edge18" class="edge">
<title>Node16&#45;&gt;Node4</title>
<path fill="none" stroke="#191970" d="M959.191,-123.2977C961.9542,-115.2055 965.3831,-105.1639 968.3405,-96.5029"/>
<polygon fill="#191970" stroke="#191970" points="971.7184,-97.4415 971.6376,-86.8469 965.0939,-95.1794 971.7184,-97.4415"/>
</g>
<!-- Node16&#45;&gt;Node5 -->
<g id="edge19" class="edge">
<title>Node16&#45;&gt;Node5</title>
<path fill="none" stroke="#191970" d="M881.9389,-123.4679C828.1468,-111.9303 759.4054,-96.4272 732,-87 685.7202,-71.0802 634.6938,-45.7353 604.5445,-29.8871"/>
<polygon fill="#191970" stroke="#191970" points="605.9957,-26.695 595.5218,-25.0992 602.7145,-32.8783 605.9957,-26.695"/>
</g>
<!-- Node16&#45;&gt;Node6 -->
<g id="edge21" class="edge">
<title>Node16&#45;&gt;Node6</title>
<path fill="none" stroke="#191970" d="M991.4957,-123.4992C1009.8024,-114.8306 1031.223,-102.5433 1047,-87 1062.0734,-72.1498 1073.4132,-50.5987 1080.3032,-35.043"/>
<polygon fill="#191970" stroke="#191970" points="1083.7127,-35.963 1084.3535,-25.3875 1077.2576,-33.2551 1083.7127,-35.963"/>
</g>
<!-- Node16&#45;&gt;Node7 -->
<g id="edge22" class="edge">
<title>Node16&#45;&gt;Node7</title>
<path fill="none" stroke="#191970" d="M939.598,-123.3596C922.9817,-106.8435 894.0648,-80.9091 864,-67 789.1645,-32.3783 760.6235,-55.8467 682,-31 680.099,-30.3992 678.1629,-29.7264 676.226,-29.0067"/>
<polygon fill="#191970" stroke="#191970" points="677.2761,-25.6555 666.6941,-25.1334 674.6409,-32.1406 677.2761,-25.6555"/>
</g>
<!-- Node17 -->
<g id="node18" class="node">
<title>Node17</title>
<polygon fill="none" stroke="#bfbfbf" points="741,-67.5 741,-86.5 787,-86.5 787,-67.5 741,-67.5"/>
<text text-anchor="middle" x="764" y="-74.5" font-family="Helvetica,sans-Serif" font-size="10.00" fill="#000000">cstdio</text>
</g>
<!-- Node16&#45;&gt;Node17 -->
<g id="edge20" class="edge">
<title>Node16&#45;&gt;Node17</title>
<path fill="none" stroke="#191970" d="M907.5208,-123.4554C873.2705,-112.3691 827.5184,-97.5599 796.97,-87.6719"/>
<polygon fill="#191970" stroke="#191970" points="797.8235,-84.2694 787.2316,-84.5197 795.6678,-90.9292 797.8235,-84.2694"/>
</g>
<!-- Node18 -->
<g id="node19" class="node">
<title>Node18</title>
<polygon fill="none" stroke="#bfbfbf" points="805,-67.5 805,-86.5 855,-86.5 855,-67.5 805,-67.5"/>
<text text-anchor="middle" x="830" y="-74.5" font-family="Helvetica,sans-Serif" font-size="10.00" fill="#000000">chrono</text>
</g>
<!-- Node16&#45;&gt;Node18 -->
<g id="edge23" class="edge">
<title>Node16&#45;&gt;Node18</title>
<path fill="none" stroke="#191970" d="M923.6662,-123.4554C903.7024,-113.554 877.751,-100.683 858.2285,-91.0004"/>
<polygon fill="#191970" stroke="#191970" points="859.7294,-87.838 849.2156,-86.5303 856.6191,-94.1091 859.7294,-87.838"/>
</g>
<!-- Node20&#45;&gt;Node4 -->
<g id="edge43" class="edge">
<title>Node20&#45;&gt;Node4</title>
<path fill="none" stroke="#191970" d="M1107.4688,-128.8906C1080.9693,-118.5103 1038.5669,-101.9004 1008.893,-90.2766"/>
<polygon fill="#191970" stroke="#191970" points="1009.9467,-86.9304 999.359,-86.5419 1007.3935,-93.4482 1009.9467,-86.9304"/>
</g>
<!-- Node21 -->
<g id="node22" class="node">
<title>Node21</title>
<g id="a_node22"><a xlink:href="../../dc/d03/MemoryResources_8h.html" target="_top" xlink:title="MemoryResources/MemoryResources.h">
<polygon fill="none" stroke="#000000" points="1550.5,-67.5 1550.5,-86.5 1757.5,-86.5 1757.5,-67.5 1550.5,-67.5"/>
<text text-anchor="middle" x="1654" y="-74.5" font-family="Helvetica,sans-Serif" font-size="10.00" fill="#000000">MemoryResources/MemoryResources.h</text>
</a>
</g>
</g>
<!-- Node20&#45;&gt;Node21 -->
<g id="edge27" class="edge">
<title>Node20&#45;&gt;Node21</title>
<path fill="none" stroke="#191970" d="M1163.4413,-128.9428C1171.6942,-126.7122 1180.6289,-124.5411 1189,-123 1307.7381,-101.1409 1445.5762,-89.1508 1540.1761,-82.9427"/>
<polygon fill="#191970" stroke="#191970" points="1540.5879,-86.4235 1550.3418,-82.2869 1540.1372,-79.438 1540.5879,-86.4235"/>
</g>
<!-- Node21&#45;&gt;Node8 -->
<g id="edge32" class="edge">
<title>Node21&#45;&gt;Node8</title>
<path fill="none" stroke="#191970" d="M1550.3878,-73.917C1329.4438,-67.0256 825.9056,-49.5181 750,-31 747.6602,-30.4292 745.2841,-29.698 742.9312,-28.8648"/>
<polygon fill="#191970" stroke="#191970" points="744.1241,-25.5712 733.5438,-25.0164 741.4689,-32.0481 744.1241,-25.5712"/>
</g>
<!-- Node21&#45;&gt;Node11 -->
<g id="edge33" class="edge">
<title>Node21&#45;&gt;Node11</title>
<path fill="none" stroke="#191970" d="M1550.3169,-75.1822C1293.1261,-70.3202 639.6542,-55.6828 544,-31 542.0773,-30.5039 540.1352,-29.8781 538.2106,-29.1643"/>
<polygon fill="#191970" stroke="#191970" points="539.4665,-25.8929 528.9048,-25.0552 536.6389,-32.2964 539.4665,-25.8929"/>
</g>
<!-- Node21&#45;&gt;Node13 -->
<g id="edge42" class="edge">
<title>Node21&#45;&gt;Node13</title>
<path fill="none" stroke="#191970" d="M1595.2037,-67.4947C1539.4855,-58.409 1453.4774,-44.182 1379,-31 1371.6734,-29.7032 1363.9892,-28.3114 1356.3772,-26.9131"/>
<polygon fill="#191970" stroke="#191970" points="1356.9178,-23.4538 1346.4483,-25.0786 1355.646,-30.3373 1356.9178,-23.4538"/>
</g>
<!-- Node22 -->
<g id="node23" class="node">
<title>Node22</title>
<polygon fill="none" stroke="#bfbfbf" points="2129.5,-.5 2129.5,-30.5 2240.5,-30.5 2240.5,-.5 2129.5,-.5"/>
<text text-anchor="start" x="2137.5" y="-18.5" font-family="Helvetica,sans-Serif" font-size="10.00" fill="#000000">boost/container/flat</text>
<text text-anchor="middle" x="2185" y="-7.5" font-family="Helvetica,sans-Serif" font-size="10.00" fill="#000000">_map.hpp</text>
</g>
<!-- Node21&#45;&gt;Node22 -->
<g id="edge28" class="edge">
<title>Node21&#45;&gt;Node22</title>
<path fill="none" stroke="#191970" d="M1757.7082,-67.5146C1876.2209,-56.5649 2060.422,-39.1741 2119.3694,-30.8205"/>
<polygon fill="#191970" stroke="#191970" points="2120.0795,-34.2525 2129.4322,-29.2748 2119.0167,-27.3337 2120.0795,-34.2525"/>
</g>
<!-- Node23 -->
<g id="node24" class="node">
<title>Node23</title>
<polygon fill="none" stroke="#bfbfbf" points="2258.5,-.5 2258.5,-30.5 2387.5,-30.5 2387.5,-.5 2258.5,-.5"/>
<text text-anchor="start" x="2266.5" y="-18.5" font-family="Helvetica,sans-Serif" font-size="10.00" fill="#000000">boost/container/pmr</text>
<text text-anchor="middle" x="2323" y="-7.5" font-family="Helvetica,sans-Serif" font-size="10.00" fill="#000000">/memory_resource.hpp</text>
</g>
<!-- Node21&#45;&gt;Node23 -->
<g id="edge29" class="edge">
<title>Node21&#45;&gt;Node23</title>
<path fill="none" stroke="#191970" d="M1757.5996,-68.1651C1762.4672,-67.7674 1767.2864,-67.3772 1772,-67 1981.0489,-50.2702 2037.3551,-60.8497 2248.0508,-31.1733"/>
<polygon fill="#191970" stroke="#191970" points="2248.7944,-34.6029 2258.2018,-29.7294 2247.8086,-27.6726 2248.7944,-34.6029"/>
</g>
<!-- Node24 -->
<g id="node25" class="node">
<title>Node24</title>
<polygon fill="none" stroke="#bfbfbf" points="2405.5,-.5 2405.5,-30.5 2578.5,-30.5 2578.5,-.5 2405.5,-.5"/>
<text text-anchor="start" x="2413.5" y="-18.5" font-family="Helvetica,sans-Serif" font-size="10.00" fill="#000000">boost/container/pmr</text>
<text text-anchor="middle" x="2492" y="-7.5" font-family="Helvetica,sans-Serif" font-size="10.00" fill="#000000">/monotonic_buffer_resource.hpp</text>
</g>
<!-- Node21&#45;&gt;Node24 -->
<g id="edge30" class="edge">
<title>Node21&#45;&gt;Node24</title>
<path fill="none" stroke="#191970" d="M1757.5918,-68.0618C1762.4615,-67.6917 1767.2832,-67.3356 1772,-67 2046.1485,-47.4916 2118.6707,-61.102 2394.9913,-31.1534"/>
<polygon fill="#191970" stroke="#191970" points="2395.7694,-34.5892 2405.3297,-30.023 2395.0085,-27.6307 2395.7694,-34.5892"/>
</g>
<!-- Node25 -->
<g id="node26" class="node">
<title>Node25</title>
<polygon fill="none" stroke="#bfbfbf" points="2596.5,-.5 2596.5,-30.5 2745.5,-30.5 2745.5,-.5 2596.5,-.5"/>
<text text-anchor="start" x="2604.5" y="-18.5" font-family="Helvetica,sans-Serif" font-size="10.00" fill="#000000">boost/container/pmr</text>
<text text-anchor="middle" x="2671" y="-7.5" font-family="Helvetica,sans-Serif" font-size="10.00" fill="#000000">/polymorphic_allocator.hpp</text>
</g>
<!-- Node21&#45;&gt;Node25 -->
<g id="edge31" class="edge">
<title>Node21&#45;&gt;Node25</title>
<path fill="none" stroke="#191970" d="M1757.5865,-67.9829C1762.4576,-67.634 1767.2811,-67.3039 1772,-67 2130.908,-43.8844 2225.6013,-71.8935 2586.2172,-31.1035"/>
<polygon fill="#191970" stroke="#191970" points="2586.8796,-34.5507 2596.4182,-29.9394 2586.0859,-27.5958 2586.8796,-34.5507"/>
</g>
<!-- Node26 -->
<g id="node27" class="node">
<title>Node26</title>
<polygon fill="none" stroke="#bfbfbf" points="1135.5,-6 1135.5,-25 1204.5,-25 1204.5,-6 1135.5,-6"/>
<text text-anchor="middle" x="1170" y="-13" font-family="Helvetica,sans-Serif" font-size="10.00" fill="#000000">type_traits</text>
</g>
<!-- Node21&#45;&gt;Node26 -->
<g id="edge34" class="edge">
<title>Node21&#45;&gt;Node26</title>
<path fill="none" stroke="#191970" d="M1550.7579,-67.4896C1431.0496,-56.2602 1245.9857,-38.2008 1214,-31 1210.5778,-30.2296 1207.054,-29.2762 1203.5611,-28.2237"/>
<polygon fill="#191970" stroke="#191970" points="1204.5013,-24.8488 1193.9087,-25.0652 1202.3243,-31.5017 1204.5013,-24.8488"/>
</g>
<!-- Node27 -->
<g id="node28" class="node">
<title>Node27</title>
<polygon fill="none" stroke="#bfbfbf" points="2763.5,-6 2763.5,-25 2808.5,-25 2808.5,-6 2763.5,-6"/>
<text text-anchor="middle" x="2786" y="-13" font-family="Helvetica,sans-Serif" font-size="10.00" fill="#000000">utility</text>
</g>
<!-- Node21&#45;&gt;Node27 -->
<g id="edge35" class="edge">
<title>Node21&#45;&gt;Node27</title>
<path fill="none" stroke="#191970" d="M1757.5837,-67.9391C1762.4556,-67.6018 1767.28,-67.2863 1772,-67 1990.19,-53.767 2543.2114,-85.1071 2755,-31 2756.9239,-30.5085 2758.8669,-29.8861 2760.7921,-29.1748"/>
<polygon fill="#191970" stroke="#191970" points="2762.3613,-32.3082 2770.0993,-25.0712 2759.5371,-25.9031 2762.3613,-32.3082"/>
</g>
<!-- Node21&#45;&gt;Node28 -->
<g id="edge36" class="edge">
<title>Node21&#45;&gt;Node28</title>
<path fill="none" stroke="#191970" d="M1757.5829,-67.9261C1762.455,-67.5923 1767.2797,-67.2811 1772,-67 2004.1709,-53.1757 2592.2363,-86.9034 2818,-31 2819.9774,-30.5104 2821.9767,-29.8894 2823.9594,-29.1791"/>
<polygon fill="#191970" stroke="#191970" points="2825.7367,-32.2259 2833.5568,-25.0776 2822.9858,-25.789 2825.7367,-32.2259"/>
</g>
<!-- Node29 -->
<g id="node30" class="node">
<title>Node29</title>
<polygon fill="none" stroke="#bfbfbf" points="1387.5,-6 1387.5,-25 1480.5,-25 1480.5,-6 1387.5,-6"/>
<text text-anchor="middle" x="1434" y="-13" font-family="Helvetica,sans-Serif" font-size="10.00" fill="#000000">unordered_map</text>
</g>
<!-- Node21&#45;&gt;Node29 -->
<g id="edge37" class="edge">
<title>Node21&#45;&gt;Node29</title>
<path fill="none" stroke="#191970" d="M1619.625,-67.3906C1581.4427,-56.7169 1519.6984,-39.4566 1478.0116,-27.8033"/>
<polygon fill="#191970" stroke="#191970" points="1478.7067,-24.3634 1468.1336,-25.0419 1476.8221,-31.105 1478.7067,-24.3634"/>
</g>
<!-- Node30 -->
<g id="node31" class="node">
<title>Node30</title>
<polygon fill="none" stroke="#bfbfbf" points="1498.5,-6 1498.5,-25 1599.5,-25 1599.5,-6 1498.5,-6"/>
<text text-anchor="middle" x="1549" y="-13" font-family="Helvetica,sans-Serif" font-size="10.00" fill="#000000">FairMQMessage.h</text>
</g>
<!-- Node21&#45;&gt;Node30 -->
<g id="edge38" class="edge">
<title>Node21&#45;&gt;Node30</title>
<path fill="none" stroke="#191970" d="M1637.5938,-67.3906C1620.5647,-57.4165 1593.7159,-41.6908 1574.0349,-30.1633"/>
<polygon fill="#191970" stroke="#191970" points="1575.6888,-27.0759 1565.291,-25.0419 1572.151,-33.1161 1575.6888,-27.0759"/>
</g>
<!-- Node31 -->
<g id="node32" class="node">
<title>Node31</title>
<polygon fill="none" stroke="#bfbfbf" points="1617.5,-6 1617.5,-25 1754.5,-25 1754.5,-6 1617.5,-6"/>
<text text-anchor="middle" x="1686" y="-13" font-family="Helvetica,sans-Serif" font-size="10.00" fill="#000000">FairMQTransportFactory.h</text>
</g>
<!-- Node21&#45;&gt;Node31 -->
<g id="edge39" class="edge">
<title>Node21&#45;&gt;Node31</title>
<path fill="none" stroke="#191970" d="M1659,-67.3906C1663.5758,-58.5965 1670.4781,-45.3312 1676.1583,-34.4145"/>
<polygon fill="#191970" stroke="#191970" points="1679.4185,-35.7314 1680.9295,-25.2449 1673.2088,-32.5003 1679.4185,-35.7314"/>
</g>
<!-- Node32 -->
<g id="node33" class="node">
<title>Node32</title>
<polygon fill="none" stroke="#bfbfbf" points="1773,-6 1773,-25 1923,-25 1923,-6 1773,-6"/>
<text text-anchor="middle" x="1848" y="-13" font-family="Helvetica,sans-Serif" font-size="10.00" fill="#000000">fairmq/MemoryResources.h</text>
</g>
<!-- Node21&#45;&gt;Node32 -->
<g id="edge40" class="edge">
<title>Node21&#45;&gt;Node32</title>
<path fill="none" stroke="#191970" d="M1684.3125,-67.3906C1717.6265,-56.8298 1771.2808,-39.8208 1808.0181,-28.1747"/>
<polygon fill="#191970" stroke="#191970" points="1809.4256,-31.4002 1817.9004,-25.0419 1807.3102,-24.7275 1809.4256,-31.4002"/>
</g>
<!-- Node33 -->
<g id="node34" class="node">
<title>Node33</title>
<polygon fill="none" stroke="#bfbfbf" points="1941,-6 1941,-25 2111,-25 2111,-6 1941,-6"/>
<text text-anchor="middle" x="2026" y="-13" font-family="Helvetica,sans-Serif" font-size="10.00" fill="#000000">fairmq/MemoryResourceTools.h</text>
</g>
<!-- Node21&#45;&gt;Node33 -->
<g id="edge41" class="edge">
<title>Node21&#45;&gt;Node33</title>
<path fill="none" stroke="#191970" d="M1711.7168,-67.4581C1778.3371,-56.4443 1887.7669,-38.3531 1958.334,-26.6867"/>
<polygon fill="#191970" stroke="#191970" points="1959.1587,-30.098 1968.4538,-25.0137 1958.0168,-23.1917 1959.1587,-30.098"/>
</g>
<!-- Node38&#45;&gt;Node11 -->
<g id="edge62" class="edge">
<title>Node38&#45;&gt;Node11</title>
<path fill="none" stroke="#191970" d="M353.3321,-128.9048C369.3875,-118.7645 395.2443,-102.171 417,-87 443.6079,-68.4454 473.4592,-45.9353 492.7063,-31.1916"/>
<polygon fill="#191970" stroke="#191970" points="494.958,-33.8753 500.7536,-25.0061 490.6921,-28.3253 494.958,-33.8753"/>
</g>
<!-- Node39 -->
<g id="node40" class="node">
<title>Node39</title>
<g id="a_node40"><a xlink:href="../../de/d56/Variant_8h.html" target="_top" xlink:title="Framework/Variant.h">
<polygon fill="none" stroke="#000000" points="291.5,-67.5 291.5,-86.5 408.5,-86.5 408.5,-67.5 291.5,-67.5"/>
<text text-anchor="middle" x="350" y="-74.5" font-family="Helvetica,sans-Serif" font-size="10.00" fill="#000000">Framework/Variant.h</text>
</a>
</g>
</g>
<!-- Node38&#45;&gt;Node39 -->
<g id="edge52" class="edge">
<title>Node38&#45;&gt;Node39</title>
<path fill="none" stroke="#191970" d="M339.875,-128.8906C341.5559,-120.276 344.074,-107.3708 346.1784,-96.5858"/>
<polygon fill="#191970" stroke="#191970" points="349.6186,-97.2301 348.0986,-86.7449 342.7482,-95.8895 349.6186,-97.2301"/>
</g>
<!-- Node39&#45;&gt;Node5 -->
<g id="edge56" class="edge">
<title>Node39&#45;&gt;Node5</title>
<path fill="none" stroke="#191970" d="M402.2447,-67.49C441.7455,-59.6118 497.0129,-47.1087 544,-31 545.841,-30.3689 547.7174,-29.6728 549.5957,-28.9356"/>
<polygon fill="#191970" stroke="#191970" points="551.0031,-32.1406 558.847,-25.0185 548.2737,-25.6946 551.0031,-32.1406"/>
</g>
<!-- Node39&#45;&gt;Node8 -->
<g id="edge55" class="edge">
<title>Node39&#45;&gt;Node8</title>
<path fill="none" stroke="#191970" d="M408.6436,-74.0156C475.8308,-69.4239 588.681,-58.1079 682,-31 683.9624,-30.43 685.9566,-29.7655 687.9451,-29.0386"/>
<polygon fill="#191970" stroke="#191970" points="689.7557,-32.0779 697.6664,-25.0301 687.0872,-25.6065 689.7557,-32.0779"/>
</g>
<!-- Node39&#45;&gt;Node11 -->
<g id="edge61" class="edge">
<title>Node39&#45;&gt;Node11</title>
<path fill="none" stroke="#191970" d="M380.2822,-67.449C407.0715,-58.7445 447.0626,-45.1243 481,-31 482.3535,-30.4367 483.7313,-29.8445 485.1173,-29.2336"/>
<polygon fill="#191970" stroke="#191970" points="486.5958,-32.406 494.2104,-25.0393 483.6638,-26.0497 486.5958,-32.406"/>
</g>
<!-- Node39&#45;&gt;Node19 -->
<g id="edge53" class="edge">
<title>Node39&#45;&gt;Node19</title>
<path fill="none" stroke="#191970" d="M307.0227,-67.4581C258.1986,-56.6181 178.4959,-38.9224 125.8951,-27.2439"/>
<polygon fill="#191970" stroke="#191970" points="126.5991,-23.815 116.0781,-25.0643 125.0818,-30.6486 126.5991,-23.815"/>
</g>
<!-- Node39&#45;&gt;Node26 -->
<g id="edge54" class="edge">
<title>Node39&#45;&gt;Node26</title>
<path fill="none" stroke="#191970" d="M408.5068,-75.6452C564.6823,-71.6915 988.8251,-58.6573 1126,-31 1129.6272,-30.2687 1133.3612,-29.3047 1137.0483,-28.2144"/>
<polygon fill="#191970" stroke="#191970" points="1138.1683,-31.5307 1146.5932,-25.1064 1136.0009,-24.8747 1138.1683,-31.5307"/>
</g>
<!-- Node39&#45;&gt;Node35 -->
<g id="edge58" class="edge">
<title>Node39&#45;&gt;Node35</title>
<path fill="none" stroke="#191970" d="M365.3125,-67.3906C381.0624,-57.5067 405.8123,-41.9749 424.1337,-30.4773"/>
<polygon fill="#191970" stroke="#191970" points="426.1852,-33.3221 432.795,-25.0419 422.4643,-27.3929 426.1852,-33.3221"/>
</g>
<!-- Node40 -->
<g id="node41" class="node">
<title>Node40</title>
<polygon fill="none" stroke="#bfbfbf" points="255.5,-6 255.5,-25 304.5,-25 304.5,-6 255.5,-6"/>
<text text-anchor="middle" x="280" y="-13" font-family="Helvetica,sans-Serif" font-size="10.00" fill="#000000">cstdlib</text>
</g>
<!-- Node39&#45;&gt;Node40 -->
<g id="edge57" class="edge">
<title>Node39&#45;&gt;Node40</title>
<path fill="none" stroke="#191970" d="M339.0625,-67.3906C328.338,-57.9683 311.7713,-43.4134 298.9099,-32.1137"/>
<polygon fill="#191970" stroke="#191970" points="300.9143,-29.2158 291.0917,-25.2449 296.2941,-34.4745 300.9143,-29.2158"/>
</g>
<!-- Node41 -->
<g id="node42" class="node">
<title>Node41</title>
<polygon fill="none" stroke="#bfbfbf" points="322.5,-6 322.5,-25 405.5,-25 405.5,-6 322.5,-6"/>
<text text-anchor="middle" x="364" y="-13" font-family="Helvetica,sans-Serif" font-size="10.00" fill="#000000">initializer_list</text>
</g>
<!-- Node39&#45;&gt;Node41 -->
<g id="edge59" class="edge">
<title>Node39&#45;&gt;Node41</title>
<path fill="none" stroke="#191970" d="M352.1875,-67.3906C354.1486,-58.776 357.0863,-45.8708 359.5415,-35.0858"/>
<polygon fill="#191970" stroke="#191970" points="362.9746,-35.7723 361.7817,-25.2449 356.1493,-34.2185 362.9746,-35.7723"/>
</g>
<!-- Node42 -->
<g id="node43" class="node">
<title>Node42</title>
<polygon fill="none" stroke="#bfbfbf" points="164.5,-6 164.5,-25 237.5,-25 237.5,-6 164.5,-6"/>
<text text-anchor="middle" x="201" y="-13" font-family="Helvetica,sans-Serif" font-size="10.00" fill="#000000">string_view</text>
</g>
<!-- Node39&#45;&gt;Node42 -->
<g id="edge60" class="edge">
<title>Node39&#45;&gt;Node42</title>
<path fill="none" stroke="#191970" d="M326.7188,-67.3906C301.679,-57.0554 261.6775,-40.5447 233.534,-28.9284"/>
<polygon fill="#191970" stroke="#191970" points="234.6967,-25.622 224.1178,-25.0419 232.026,-32.0925 234.6967,-25.622"/>
</g>
</g>
</svg>
        <g id="navigator" transform="translate(0 0)" fill="#404254">
                <rect fill="#f2f5e9" fill-opacity="0.5" stroke="#606060" stroke-width=".5" x="0" y="0" width="60" height="60"/>
                <use id="zoomplus" xlink:href="#zoomPlus" x="17" y="9" onmousedown="handleZoom(evt,'in')"/>
                <use id="zoomminus" xlink:href="#zoomMin" x="42" y="9" onmousedown="handleZoom(evt,'out')"/>
                <use id="reset" xlink:href="#resetDef" x="30" y="36" onmousedown="handleReset()"/>
                <g id="arrowUp" xlink:href="#dirArrow" transform="translate(30 24)" onmousedown="handlePan(0,-1)">
                  <use xlink:href="#rim" fill="#404040">
                        <set attributeName="fill" to="#808080" begin="arrowUp.mouseover" end="arrowUp.mouseout"/>
                  </use>
                  <path fill="none" stroke="white" stroke-width="1.5" d="M0,-3.0v7 M-2.5,-0.5L0,-3.0L2.5,-0.5"/>
                </g>
                <g id="arrowRight" xlink:href="#dirArrow" transform="rotate(90) translate(36 -43)" onmousedown="handlePan(1,0)">
                  <use xlink:href="#rim" fill="#404040">
                        <set attributeName="fill" to="#808080" begin="arrowRight.mouseover" end="arrowRight.mouseout"/>
                  </use>
                  <path fill="none" stroke="white" stroke-width="1.5" d="M0,-3.0v7 M-2.5,-0.5L0,-3.0L2.5,-0.5"/>
                </g>
                <g id="arrowDown" xlink:href="#dirArrow" transform="rotate(180) translate(-30 -48)" onmousedown="handlePan(0,1)">
                  <use xlink:href="#rim" fill="#404040">
                        <set attributeName="fill" to="#808080" begin="arrowDown.mouseover" end="arrowDown.mouseout"/>
                  </use>
                  <path fill="none" stroke="white" stroke-width="1.5" d="M0,-3.0v7 M-2.5,-0.5L0,-3.0L2.5,-0.5"/>
                </g>
                <g id="arrowLeft" xlink:href="#dirArrow" transform="rotate(270) translate(-36 17)" onmousedown="handlePan(-1,0)">
                  <use xlink:href="#rim" fill="#404040">
                        <set attributeName="fill" to="#808080" begin="arrowLeft.mouseover" end="arrowLeft.mouseout"/>
                  </use>
                  <path fill="none" stroke="white" stroke-width="1.5" d="M0,-3.0v7 M-2.5,-0.5L0,-3.0L2.5,-0.5"/>
                </g>
        </g>
        <svg viewBox="0 0 15 15" width="100%" height="30px" preserveAspectRatio="xMaxYMin meet">
         <g id="arrow_out" transform="scale(0.3 0.3)">
          <a xlink:href="DataDescriptorQueryBuilder_8h__incl_org.svg" target="_base">
           <rect id="button" ry="5" rx="5" y="6" x="6" height="38" width="38"
                fill="#f2f5e9" fill-opacity="0.5" stroke="#606060" stroke-width="1.0"/>
           <path id="arrow"
             d="M 11.500037,31.436501 C 11.940474,20.09759 22.043105,11.32322 32.158766,21.979434 L 37.068811,17.246167 C 37.068811,17.246167 37.088388,32 37.088388,32 L 22.160133,31.978069 C 22.160133,31.978069 26.997745,27.140456 26.997745,27.140456 C 18.528582,18.264221 13.291696,25.230495 11.500037,31.436501 z"
             style="fill:#404040;"/>
          </a>
         </g>
        </svg>
</svg>
